<svg width="42" height="42" fill="none" xmlns="http://www.w3.org/2000/svg">
  <circle cx="21" cy="21" r="21" fill="#2D374B"/>
  <path fill="#2D374B" d="m25.089 19.494 2.644-4.486 7.126 11.1.003 2.128-.023-14.656a1.1 1.1 0 0 0-.511-.88l-12.83-7.379a1.13 1.13 0 0 0-1.094.071l-.045.029-12.453 7.216-.048.021a1.1 1.1 0 0 0-.643.937l.019 11.945 6.637-10.288c.836-1.364 2.656-1.803 4.346-1.78l1.984.052L8.513 32.268l1.378.793 11.828-19.518 5.228-.02L15.15 33.535l4.917 2.83.588.338c.253.1.535.106.792.016l13.01-7.54-2.49 1.442-6.877-11.126Zm1.009 14.528-4.966-7.794 3.031-5.144 6.522 10.28z"/>
  <path fill="#28A0F0" d="m21.132 26.228 4.966 7.793 4.587-2.658-6.521-10.279zm13.73 2.009-.003-2.13-7.126-11.098-2.645 4.485 6.879 11.125 2.488-1.44a1.1 1.1 0 0 0 .408-.804z"/>
  <path fill="#fff" d="m5.002 30.245 3.512 2.024 11.688-18.744-1.983-.051c-1.69-.024-3.511.415-4.347 1.78L7.235 25.54l-2.232 3.43v1.276l-.001-.002Zm21.945-16.72-5.227.019L9.89 33.063l4.134 2.38 1.125-1.907z"/>
  <path fill="#96BEDC" d="M37.065 13.498a3.33 3.33 0 0 0-1.563-2.677L22.505 3.347a3.38 3.38 0 0 0-2.982 0c-.109.054-12.64 7.322-12.64 7.322a3.35 3.35 0 0 0-1.48 1.4A3.3 3.3 0 0 0 5 13.491v15.48l2.232-3.43-.017-11.944a1.11 1.11 0 0 1 .46-.83c.058-.043 12.803-7.42 12.844-7.44a1.13 1.13 0 0 1 .98-.005l12.83 7.38a1.1 1.1 0 0 1 .51.88v14.795a1.08 1.08 0 0 1-.384.803l-2.488 1.44-1.283.745-4.587 2.658-4.652 2.696a1.13 1.13 0 0 1-.792-.015l-5.504-3.166-1.124 1.907 4.946 2.847.43.243c.184.103.31.173.355.195.414.181.861.273 1.313.27.414 0 .825-.077 1.211-.228l13.511-7.825a3.3 3.3 0 0 0 1.274-2.488z"/>
</svg>
