<svg xmlns="http://www.w3.org/2000/svg" width="20" height="20" fill="none"><circle cx="10" cy="10" r="10" fill="#2D374B"/><path fill="#2D374B" d="m11.947 9.283 1.26-2.136 3.392 5.285.002 1.014-.011-6.98a.525.525 0 0 0-.243-.418l-6.11-3.514a.539.539 0 0 0-.52.034l-.022.013-5.93 3.437-.023.01a.524.524 0 0 0-.306.446l.009 5.688 3.16-4.899c.398-.65 1.265-.859 2.07-.847l.945.024-5.566 8.926.656.378 5.632-9.295 2.49-.01-5.618 9.53 2.341 1.347.28.161c.12.048.255.05.377.008l6.195-3.59-1.185.686-3.275-5.298Zm.48 6.918-2.364-3.711 1.443-2.45 3.106 4.895-2.184 1.266Z"/><path fill="#28A0F0" d="m10.063 12.49 2.365 3.711 2.184-1.266-3.105-4.895-1.444 2.45ZM16.601 13.446l-.002-1.014-3.393-5.285-1.26 2.136 3.276 5.298 1.185-.687a.526.526 0 0 0 .194-.382v-.066Z"/><path fill="#fff" d="m2.382 14.403 1.672.964L9.62 6.44l-.945-.025c-.804-.01-1.671.198-2.07.848l-3.16 4.899-1.063 1.633v.607ZM12.832 6.44l-2.49.01-5.632 9.294 1.969 1.134.535-.908 5.618-9.53Z"/><path fill="#96BEDC" d="M17.65 6.428a1.585 1.585 0 0 0-.744-1.275l-6.19-3.56a1.61 1.61 0 0 0-1.42 0c-.051.027-6.018 3.488-6.018 3.488a1.59 1.59 0 0 0-.705.666c-.115.209-.18.44-.192.678v7.37l1.063-1.633-.008-5.687a.528.528 0 0 1 .218-.395c.028-.02 6.097-3.534 6.117-3.543a.538.538 0 0 1 .466-.002l6.11 3.514a.527.527 0 0 1 .243.418v7.046a.514.514 0 0 1-.183.382l-1.185.687-.61.354-2.185 1.266-2.215 1.283a.537.537 0 0 1-.377-.007l-2.621-1.507-.535.908 2.355 1.356.204.115c.088.049.148.083.17.093a1.574 1.574 0 0 0 1.202.02l6.434-3.726a1.573 1.573 0 0 0 .606-1.185V6.428Z"/></svg>