<svg width="42" height="42" fill="none" xmlns="http://www.w3.org/2000/svg">
  <path fill="url(#a)" d="M21 42c11.598 0 21-9.402 21-21S32.598 0 21 0 0 9.402 0 21s9.402 21 21 21"/>
  <path fill="#fff" d="M21 39.75c10.355 0 18.75-8.395 18.75-18.75S31.355 2.25 21 2.25 2.25 10.645 2.25 21 10.645 39.75 21 39.75"/>
  <path fill="#2775CA" d="M21 37c8.867 0 16-7.133 16-16S29.867 5 21 5 5 12.133 5 21s7.133 16 16 16"/>
  <path fill="#fff" d="M25.4 23.533c0-2.333-1.4-3.133-4.2-3.466-2-.267-2.4-.8-2.4-1.734s.667-1.533 2-1.533c1.2 0 1.867.4 2.2 1.4.067.2.267.333.467.333h1.066c.267 0 .467-.2.467-.466V18a3.33 3.33 0 0 0-3-2.733v-1.6c0-.267-.2-.467-.533-.534h-1c-.267 0-.467.2-.534.534V15.2c-2 .267-3.266 1.6-3.266 3.267 0 2.2 1.333 3.066 4.133 3.4 1.867.333 2.467.733 2.467 1.8 0 1.066-.934 1.8-2.2 1.8-1.734 0-2.334-.734-2.534-1.734-.066-.266-.266-.4-.466-.4h-1.134c-.266 0-.466.2-.466.467v.067c.266 1.666 1.333 2.866 3.533 3.2v1.6c0 .266.2.466.533.533h1c.267 0 .467-.2.534-.533v-1.6c2-.334 3.333-1.734 3.333-3.534"/>
  <path fill="#fff" d="M17.6 30.533c-5.2-1.866-7.867-7.666-5.933-12.8 1-2.8 3.2-4.933 5.933-5.933.267-.133.4-.333.4-.667V10.2c0-.267-.133-.467-.4-.533-.067 0-.2 0-.267.066-6.333 2-9.8 8.734-7.8 15.067 1.2 3.733 4.067 6.6 7.8 7.8.267.133.534 0 .6-.267.067-.066.067-.133.067-.266v-.934c0-.2-.2-.466-.4-.6m7.067-20.8c-.267-.133-.534 0-.6.267-.067.067-.067.133-.067.267v.933c0 .267.2.533.4.667 5.2 1.866 7.867 7.666 5.933 12.8-1 2.8-3.2 4.933-5.933 5.933-.267.133-.4.333-.4.667v.933c0 .267.133.467.4.533.067 0 .2 0 .267-.066 6.333-2 9.8-8.734 7.8-15.067a12.09 12.09 0 0 0-7.8-7.867"/>
  <defs>
    <linearGradient id="a" x1="38.094" x2="6.846" y1="9.534" y2="35.826" gradientUnits="userSpaceOnUse">
      <stop stop-color="#B6509E"/>
      <stop offset="1" stop-color="#2EBAC6"/>
    </linearGradient>
  </defs>
</svg>
