<svg width="42" height="43" fill="none" viewBox="0 0 42 43" xmlns="http://www.w3.org/2000/svg">
  <path fill="#fff" d="M21 42.88c11.598 0 21-9.402 21-21s-9.402-21-21-21-21 9.402-21 21 9.402 21 21 21"/>
  <path fill="#0052FF" fill-rule="evenodd" d="M21 40.98c10.549 0 19.1-8.551 19.1-19.1 0-10.548-8.551-19.1-19.1-19.1S1.9 11.332 1.9 21.88s8.551 19.1 19.1 19.1m21-19.1c0 11.598-9.402 21-21 21s-21-9.402-21-21 9.402-21 21-21 21 9.402 21 21" clip-rule="evenodd"/>
  <path fill="#0052FF" fill-opacity=".602" d="M20.997 6.133v11.642l9.84 4.397z"/>
  <path fill="#0052FF" d="m20.997 6.133-9.84 16.04 9.84-4.398z"/>
  <path fill="#0052FF" fill-opacity=".602" d="M20.997 29.716v7.91l9.847-13.622z"/>
  <path fill="#0052FF" d="M20.997 37.627v-7.912l-9.84-5.71z"/>
  <path fill="#0052FF" fill-opacity=".2" d="m20.997 27.886 9.84-5.714-9.84-4.394z"/>
  <path fill="#0052FF" fill-opacity=".602" d="m11.156 22.172 9.841 5.714V17.778z"/>
</svg>
