<svg width="42" height="43" viewBox="0 0 42 43" fill="none" xmlns="http://www.w3.org/2000/svg">
<path d="M21 42.8802C32.598 42.8802 42 33.4782 42 21.8802C42 10.2822 32.598 0.880173 21 0.880173C9.40202 0.880173 0 10.2822 0 21.8802C0 33.4782 9.40202 42.8802 21 42.8802Z" fill="white"/>
<path fill-rule="evenodd" clip-rule="evenodd" d="M21 40.9802C31.5486 40.9802 40.1 32.4288 40.1 21.8802C40.1 11.3315 31.5486 2.78017 21 2.78017C10.4514 2.78017 1.9 11.3315 1.9 21.8802C1.9 32.4288 10.4514 40.9802 21 40.9802ZM42 21.8802C42 33.4782 32.598 42.8802 21 42.8802C9.40202 42.8802 0 33.4782 0 21.8802C0 10.2822 9.40202 0.880173 21 0.880173C32.598 0.880173 42 10.2822 42 21.8802Z" fill="#0052FF"/>
<path d="M20.9973 6.13348V17.7754L30.8371 22.1722L20.9973 6.13348Z" fill="#0052FF" fill-opacity="0.602"/>
<path d="M20.9973 6.13348L11.1561 22.1722L20.9973 17.7754V6.13348Z" fill="#0052FF"/>
<path d="M20.9973 29.7164V37.6269L30.8437 24.0044L20.9973 29.7164Z" fill="#0052FF" fill-opacity="0.602"/>
<path d="M20.9973 37.6269V29.7151L11.1561 24.0044L20.9973 37.6269Z" fill="#0052FF"/>
<path d="M20.9973 27.8856L30.8371 22.1723L20.9973 17.778V27.8856Z" fill="#0052FF" fill-opacity="0.2"/>
<path d="M11.1561 22.1723L20.9973 27.8856V17.778L11.1561 22.1723Z" fill="#0052FF" fill-opacity="0.602"/>
</svg>
