<svg xmlns="http://www.w3.org/2000/svg" width="42" height="42" fill="none"><g clip-path="url(#a)"><path fill="#F5AC37" d="M21 0c11.599 0 21 9.403 21 21 0 11.599-9.401 21-21 21C9.403 42 0 32.598 0 21 0 9.403 9.403 0 21 0z"/><path fill="#FEFEFD" d="M22.194 22.483h7.98c.17 0 .25 0 .262-.223.066-.812.066-1.629 0-2.441 0-.158-.078-.223-.25-.223h-15.88c-.197 0-.25.065-.25.25v2.335c0 .302 0 .302.315.302h7.823zm7.351-5.617a.255.255 0 0 0 0-.184 5.19 5.19 0 0 0-.474-.827 6.694 6.694 0 0 0-.972-1.22 3.223 3.223 0 0 0-.604-.591 9.435 9.435 0 0 0-3.937-1.995 9.791 9.791 0 0 0-2.232-.236H14.28c-.197 0-.223.078-.223.249v4.659c0 .197 0 .25.249.25h15.146s.131-.027.157-.105h-.064.001zm0 8.347a3.059 3.059 0 0 0-.67 0H14.318c-.196 0-.263 0-.263.262v4.555c0 .21 0 .263.263.263h6.72c.321.025.643.002.957-.065.976-.07 1.935-.282 2.85-.63.332-.116.654-.266.957-.446h.092a8.526 8.526 0 0 0 3.662-3.687s.091-.198-.012-.25v-.002zM11.42 32.655v-7.258c0-.171 0-.196-.21-.196H8.361c-.158 0-.223 0-.223-.21v-2.494h3.045c.17 0 .236 0 .236-.223v-2.468c0-.157 0-.196-.21-.196H8.361c-.158 0-.223 0-.223-.21v-2.31c0-.144 0-.183.21-.183h2.821c.197 0 .25 0 .25-.25V9.584c0-.21 0-.262.263-.262h9.843a14.87 14.87 0 0 1 2.126.236 12.83 12.83 0 0 1 4.108 1.522 11.576 11.576 0 0 1 2.31 1.785c.52.54.988 1.124 1.404 1.746.413.63.756 1.304 1.025 2.008a.342.342 0 0 0 .393.276h2.349c.301 0 .301 0 .314.289v2.153c0 .21-.078.263-.289.263h-1.811c-.184 0-.236 0-.223.236.072.8.072 1.601 0 2.401 0 .223 0 .25.25.25h2.073c.091.118 0 .236 0 .355.013.152.013.306 0 .458v1.589c0 .223-.066.289-.263.289h-2.48a.328.328 0 0 0-.382.25 10.496 10.496 0 0 1-2.756 4.016c-.446.401-.915.78-1.404 1.128-.526.302-1.037.617-1.576.867-.991.446-2.03.774-3.098.983-1.013.182-2.04.264-3.07.25h-9.11v-.013l.004-.003z"/></g><defs><clipPath id="a"><path fill="#fff" d="M0 0h42v42H0z"/></clipPath></defs></svg>