<svg width="42" height="42" fill="none" xmlns="http://www.w3.org/2000/svg">
  <g clip-path="url(#a)">
    <mask id="c" width="42" height="42" x="0" y="0" maskUnits="userSpaceOnUse" style="mask-type:alpha">
      <circle cx="21" cy="21" r="21" fill="url(#b)"/>
    </mask>
    <g mask="url(#c)">
      <circle cx="21" cy="21" r="21" fill="#34EDB3"/>
      <circle cx="21" cy="21" r="18.2" fill="#fff"/>
    </g>
    <circle cx="21" cy="21" r="16.1" fill="#06061B"/>
    <circle cx="21" cy="21" r="16.1" fill="#06061B"/>
    <path fill="#fff" d="M20.461 28.266a6.6 6.6 0 0 1-1.974-.462 5.5 5.5 0 0 1-1.596-1.029 4.9 4.9 0 0 1-1.07-1.449 4.2 4.2 0 0 1-.42-1.785h2.582q.042 1.029.714 1.722.693.672 1.764.777v-4.158l-.987-.147q-1.701-.231-2.709-1.281-.987-1.05-.987-2.667 0-.84.378-1.575a4.3 4.3 0 0 1 1.03-1.323 5.3 5.3 0 0 1 1.49-.945 6 6 0 0 1 1.785-.441V11.55h1.533v1.995q.945.126 1.743.504a4.8 4.8 0 0 1 1.386.924q.588.567.924 1.302.357.735.4 1.575h-2.584a1.98 1.98 0 0 0-.567-1.302 2.57 2.57 0 0 0-1.302-.777v3.843l.714.105a6 6 0 0 1 1.512.441q.715.315 1.24.819.544.504.84 1.218.315.693.314 1.575a4.1 4.1 0 0 1-1.323 3.066 5.2 5.2 0 0 1-1.47.945 6.4 6.4 0 0 1-1.827.462v2.163h-1.533zm1.533-2.247q.988-.168 1.533-.714.546-.567.546-1.428 0-.798-.525-1.176a2.8 2.8 0 0 0-1.197-.525l-.357-.063zm-1.533-10.311a2.96 2.96 0 0 0-1.512.651q-.609.504-.609 1.365 0 .735.4 1.113.42.357 1.091.462l.63.105z"/>
  </g>
  <defs>
    <linearGradient id="b" x1="21" x2="21" y1="0" y2="61.409" gradientUnits="userSpaceOnUse">
      <stop stop-color="#08021E"/>
      <stop offset="1" stop-color="#1F0777"/>
    </linearGradient>
    <clipPath id="a">
      <path fill="#fff" d="M0 0h42v42H0z"/>
    </clipPath>
  </defs>
</svg>
