<svg width="42" height="42" fill="none" viewBox="0 0 42 42" xmlns="http://www.w3.org/2000/svg">
  <g clip-path="url(#a)">
    <g clip-path="url(#b)">
      <path fill="#fff" d="M20.965.383h.001c11.235 0 20.342 9.205 20.342 20.56v.002c0 11.355-9.107 20.56-20.342 20.56S.622 32.3.622 20.946v-.001C.623 9.588 9.731.383 20.965.383"/>
      <path fill="#000" fill-rule="evenodd" d="M20.965.757C9.941.757.998 9.791.998 20.944S9.94 41.132 20.965 41.132h.001c11.024 0 19.968-9.034 19.968-20.186v-.001C40.934 9.79 31.99.757 20.966.757M.248 20.944C.248 9.385 9.52.008 20.965.008h.001c11.445 0 20.717 9.377 20.717 20.936 0 11.56-9.272 20.936-20.717 20.936C9.52 41.88.247 32.503.247 20.945z" clip-rule="evenodd"/>
      <path fill="#000" fill-rule="evenodd" d="M17.642 3.713C9.645 5.27 3.604 12.381 3.604 20.92s6.041 15.648 14.038 17.205v-1.642C10.53 34.95 5.196 28.564 5.196 20.92S10.53 6.888 17.642 5.355zm6.626 1.649V3.719c7.982 1.569 14.008 8.673 14.008 17.2s-6.026 15.63-14.008 17.2v-1.643c7.097-1.544 12.416-7.923 12.416-15.557S31.364 6.906 24.268 5.362" clip-rule="evenodd"/>
      <path fill="#000" d="M23.41 20.333q1.985.383 3.078 1.475 1.095 1.065 1.094 2.73v1.747q0 1.992-1.425 3.221-1.424 1.2-3.739 1.201h-.534v2.785h-1.831v-2.785h-.56q-1.526 0-2.696-.682a4.94 4.94 0 0 1-1.832-1.966q-.636-1.283-.636-2.948h1.832q0 1.692.915 2.757.942 1.038 2.468 1.038h2.823q1.5 0 2.417-.71.915-.738.916-1.911v-1.747q0-.93-.687-1.584-.662-.655-1.832-.846l-4.578-.82q-1.934-.354-3.002-1.473t-1.068-2.812v-1.474q0-1.994 1.373-3.167 1.4-1.201 3.689-1.201h.458V8.376h1.831v2.785h.585q2.162 0 3.485 1.42 1.323 1.391 1.323 3.685h-1.832q0-1.501-.814-2.403-.813-.9-2.162-.9h-2.874q-1.45 0-2.315.71-.865.681-.865 1.856v1.474q0 .956.636 1.61.662.655 1.806.874z"/>
    </g>
  </g>
  <defs>
    <clipPath id="a">
      <path fill="#fff" d="M0 0h42v42H0z"/>
    </clipPath>
    <clipPath id="b">
      <path fill="#fff" d="M0 0h42v42H0z"/>
    </clipPath>
  </defs>
</svg>
