<svg width="42" height="42" fill="none" viewBox="0 0 42 42" xmlns="http://www.w3.org/2000/svg">
  <g clip-path="url(#a)">
    <path fill="#1D2229" d="M21.24 42c11.597 0 21-9.402 21-21s-9.403-21-21-21c-11.6 0-21 9.402-21 21s9.401 21 21 21"/>
    <path fill="#fff" d="M17.758 19.24h-3.516v3.517h3.516z"/>
    <path fill="#fff" d="M14.242 15.724h-3.517v3.517h3.517zm-3.518 3.516H7.208v3.517h3.516zm3.518 3.517h-3.517v3.516h3.517zm19.988-6.275c-.248-2.587-2.48-3.455-5.299-3.703v-1.656h-2.183v1.562c-.573 0-1.16.01-1.743.022V11.12h-2.182v1.656c-.472.01-3.376.007-3.376.007l-.006 1.925 1.822.01v12.613h-1.821l-.017 1.898c.53 0 2.883.01 3.393.013v1.636H25v-1.597q.896.019 1.744.018v1.58h2.183V29.25c3.671-.209 6.242-1.133 6.561-4.58.259-2.775-1.046-4.013-3.13-4.516 1.266-.648 2.057-1.78 1.872-3.673m-3.058 7.757c0 2.711-4.643 2.401-6.124 2.402v-4.807c1.48 0 6.123-.423 6.124 2.405m-1.014-6.783c0 2.467-3.873 2.178-5.107 2.178v-4.361c1.236 0 5.109-.39 5.107 2.183"/>
  </g>
  <defs>
    <clipPath id="a">
      <rect width="42" height="42" fill="#fff" rx="21"/>
    </clipPath>
  </defs>
</svg>
