<svg xmlns="http://www.w3.org/2000/svg" width="42" height="42" fill="none"><g clip-path="url(#a)"><path fill="#2775CA" d="M21 42c11.638 0 21-9.362 21-21S32.638 0 21 0A20.95 20.95 0 0 0 0 21c0 11.638 9.362 21 21 21z"/><path fill="#fff" d="M26.775 24.325c0-3.063-1.837-4.113-5.512-4.55-2.626-.35-3.15-1.05-3.15-2.275 0-1.225.875-2.013 2.625-2.013 1.575 0 2.45.525 2.887 1.838.087.262.35.437.613.437h1.4c.35 0 .612-.262.612-.612v-.088a4.372 4.372 0 0 0-3.938-3.587v-2.1c0-.35-.262-.613-.7-.7H20.3c-.35 0-.613.262-.7.7v2.012c-2.625.35-4.288 2.1-4.288 4.288 0 2.887 1.75 4.025 5.426 4.462 2.45.438 3.237.963 3.237 2.363s-1.225 2.362-2.888 2.362c-2.275 0-3.062-.962-3.325-2.275-.087-.35-.35-.525-.612-.525h-1.488a.598.598 0 0 0-.612.613v.087c.35 2.188 1.75 3.763 4.637 4.2v2.1c0 .35.263.613.7.7H21.7c.35 0 .613-.262.7-.7v-2.1c2.625-.437 4.375-2.275 4.375-4.637z"/><path fill="#fff" d="M16.538 33.512c-6.825-2.45-10.326-10.062-7.788-16.8 1.313-3.675 4.2-6.475 7.788-7.787.35-.175.524-.438.524-.875V6.825c0-.35-.174-.613-.524-.7-.088 0-.263 0-.35.087C7.874 8.837 3.324 17.675 5.95 25.987a15.74 15.74 0 0 0 10.237 10.238c.35.175.7 0 .788-.35.087-.087.087-.175.087-.35V34.3c0-.263-.262-.612-.524-.788zm9.275-27.3c-.35-.175-.7 0-.788.35-.087.088-.087.175-.087.35v1.225c0 .35.262.7.524.875 6.826 2.45 10.326 10.063 7.788 16.8-1.313 3.675-4.2 6.475-7.788 7.788-.35.175-.524.437-.524.875V35.7c0 .35.174.612.524.7.088 0 .263 0 .35-.087 8.313-2.626 12.863-11.463 10.238-19.776-1.575-4.987-5.425-8.75-10.237-10.325z"/></g><defs><clipPath id="a"><path fill="#fff" d="M0 0h42v42H0z"/></clipPath></defs></svg>