<svg xmlns="http://www.w3.org/2000/svg" width="48" height="48"><defs><radialGradient id="a" cx="0" cy="0" r="1" fx="0" fy="0" gradientTransform="matrix(0 411.151 -289.409 0 199.419 60.946)" gradientUnits="userSpaceOnUse"><stop offset=".031" style="stop-color:#3a3a3a;stop-opacity:.701961"/><stop offset="1" style="stop-color:#1c1c1c;stop-opacity:.701961"/></radialGradient></defs><path d="M199 7.514C304.751 7.514 390.486 93.25 390.486 199c0 105.751-85.735 191.486-191.486 191.486C93.249 390.486 7.514 304.75 7.514 199 7.514 93.249 93.25 7.514 199 7.514Zm0 0" style="fill-rule:nonzero;fill:#111;fill-opacity:1;stroke-width:7.05362;stroke-linecap:butt;stroke-linejoin:miter;stroke:#111;stroke-opacity:1;stroke-miterlimit:4" transform="scale(.1206)"/><path d="M199 3.984C91.306 3.984 3.984 91.306 3.984 199c0 107.694 87.322 195.016 195.016 195.016 107.694 0 195.016-87.322 195.016-195.016C394.016 91.306 306.694 3.984 199 3.984Zm0 0" style="fill-rule:nonzero;fill:url(#a);stroke-width:7.14291;stroke-linecap:butt;stroke-linejoin:miter;stroke:url(#linear0);stroke-miterlimit:4" transform="scale(.1206)"/><path d="M20.238 4.648c-9.082 1.75-15.945 9.743-15.945 19.336 0 9.594 6.863 17.582 15.945 19.332v-1.843C12.16 39.75 6.102 32.574 6.102 23.984c0-8.59 6.058-15.765 14.136-17.488Zm7.524 1.856V4.656c9.066 1.762 15.91 9.746 15.91 19.328 0 9.578-6.844 17.563-15.91 19.325v-1.844c8.062-1.735 14.101-8.903 14.101-17.48 0-8.579-6.039-15.747-14.101-17.481Zm0 0" style="stroke:none;fill-rule:evenodd;fill:#fff;fill-opacity:1"/><path d="M26.79 23.324c1.5.29 2.667.84 3.495 1.656.828.801 1.242 1.82 1.242 3.07v1.962c0 1.492-.539 2.699-1.617 3.62-1.082.9-2.496 1.348-4.25 1.348h-.605v3.13h-2.078v-3.13h-.637c-1.156 0-2.176-.253-3.063-.765a5.585 5.585 0 0 1-2.082-2.207c-.48-.961-.718-2.067-.718-3.313h2.078c0 1.266.347 2.301 1.039 3.098.715.777 1.648 1.164 2.804 1.164h3.207c1.133 0 2.051-.266 2.743-.797.695-.55 1.039-1.27 1.039-2.148V28.05c0-.696-.258-1.29-.778-1.781-.5-.489-1.195-.81-2.082-.95l-5.199-.922c-1.465-.265-2.601-.816-3.41-1.656-.809-.84-1.211-1.89-1.211-3.16v-1.656c0-1.492.52-2.68 1.559-3.559 1.058-.898 2.457-1.347 4.187-1.347h.524V9.89h2.078v3.13h.664c1.636 0 2.957.53 3.957 1.593 1.004 1.043 1.504 2.422 1.504 4.14h-2.082c0-1.124-.305-2.023-.922-2.698-.617-.676-1.438-1.012-2.457-1.012h-3.266c-1.098 0-1.973.266-2.629.797-.652.512-.98 1.207-.98 2.086v1.656c0 .715.242 1.32.722 1.813.5.488 1.184.816 2.051.98Zm0 0" style="stroke:none;fill-rule:nonzero;fill:#fff;fill-opacity:1"/></svg>