<svg width="48" height="48" xmlns="http://www.w3.org/2000/svg">
  <defs>
    <radialGradient id="a" cx="0" cy="0" r="1" fx="0" fy="0" gradientTransform="scale(289.409 411.151)rotate(90 .27 .419)" gradientUnits="userSpaceOnUse">
      <stop offset=".031" stop-color="#3a3a3a" stop-opacity=".702"/>
      <stop offset="1" stop-color="#1c1c1c" stop-opacity=".702"/>
    </radialGradient>
  </defs>
  <path fill="#111" stroke="#111" stroke-width=".851" d="M24 .906C36.752.906 47.092 11.246 47.092 24s-10.34 23.094-23.094 23.094S.906 36.753.906 23.999 11.246.906 24 .906Zm0 0"/>
  <path fill="url(#a)" stroke="url(#linear0)" stroke-width="7.143" d="M199 3.984C91.306 3.984 3.984 91.306 3.984 199S91.306 394.016 199 394.016 394.016 306.694 394.016 199 306.694 3.984 199 3.984Zm0 0" transform="scale(.1206)"/>
  <path fill="#fff" fill-rule="evenodd" d="M20.238 4.648c-9.082 1.75-15.945 9.743-15.945 19.336 0 9.594 6.863 17.582 15.945 19.332v-1.843C12.16 39.75 6.102 32.574 6.102 23.984S12.16 8.219 20.238 6.496Zm7.524 1.856V4.656c9.066 1.762 15.91 9.746 15.91 19.328 0 9.578-6.844 17.563-15.91 19.325v-1.844c8.062-1.735 14.101-8.903 14.101-17.48 0-8.579-6.039-15.747-14.101-17.481m0 0"/>
  <path fill="#fff" d="M26.79 23.324q2.252.433 3.495 1.656c.828.801 1.242 1.82 1.242 3.07v1.962q0 2.238-1.617 3.62c-1.082.9-2.496 1.348-4.25 1.348h-.605v3.13h-2.078v-3.13h-.637q-1.733.002-3.063-.765a5.6 5.6 0 0 1-2.082-2.207q-.719-1.443-.718-3.313h2.078q0 1.9 1.039 3.098 1.071 1.165 2.804 1.164h3.207c1.133 0 2.051-.266 2.743-.797.695-.55 1.039-1.27 1.039-2.148V28.05q.001-1.044-.778-1.781c-.5-.489-1.195-.81-2.082-.95l-5.199-.922q-2.197-.397-3.41-1.656c-.809-.84-1.211-1.89-1.211-3.16v-1.656q0-2.24 1.559-3.559c1.058-.898 2.457-1.347 4.187-1.347h.524V9.89h2.078v3.13h.664q2.456 0 3.957 1.593 1.505 1.564 1.504 4.14h-2.082q.002-1.686-.922-2.698-.927-1.013-2.457-1.012h-3.266q-1.646 0-2.629.797-.979.768-.98 2.086v1.656q.001 1.073.722 1.813.75.733 2.051.98Zm0 0"/>
</svg>
