<svg width="42" height="42" fill="none" viewBox="0 0 42 42" xmlns="http://www.w3.org/2000/svg">
  <g clip-path="url(#a)">
    <circle cx="21" cy="21" r="21" fill="url(#b)"/>
    <path fill="#11026F" fill-rule="evenodd" d="M30.97 16.076q0 .618-.004 1.234c-.004 1.047-.007 2.093.013 3.14.01.538-.184.854-.656 1.111q-1.759.96-3.513 1.93a477 477 0 0 1-5.254 2.87c-.315.17-.88.171-1.195 0a446 446 0 0 1-8.892-4.916c-.249-.14-.493-.545-.496-.83a353 353 0 0 1-.022-8.913c.003-.316.26-.752.53-.923q4.48-2.806 9.02-5.515c.26-.154.776-.139 1.04.019a467 467 0 0 1 8.88 5.428c.28.176.508.648.522.991.041 1.071.035 2.145.029 3.219q-.004.578-.005 1.154h.004zM12.234 20.73l.112.093c.055.047.095.082.14.106l1.66.907a367 367 0 0 0 6.33 3.412c.307.161.868.073 1.205-.102 1.538-.8 3.057-1.635 4.575-2.47l1.378-.756c.417-.228.834-.459 1.269-.7v-.001l.817-.453-8.75-14.22-3.96 6.43h-.001zm17.341-9.443-3.901-2.371-3.011-1.83-.06.068-.06.069 3.72 6.053 1.948-1.17 1.362-.819zm-17.177.081 3.235 1.915.683-1.108 2.958-4.796-.059-.048-.104-.085-3.68 2.26h-.002zM29.961 19.3v-7.121l-2.353 1.426-.831.503c.688 1.124 1.36 2.218 2.054 3.349zm-17.344-1.051a250 250 0 0 0 2.186-3.63c.092-.155.07-.548-.038-.62a57 57 0 0 0-2.084-1.294l-.715-.432v7.046z" clip-rule="evenodd"/>
    <path fill="#11026F" fill-rule="evenodd" d="m30.97 27.871.003-.895v-1.148c0-.69.002-1.378-.004-2.067-.008-1.048-.25-1.185-1.182-.652l-1.218.698c-2.292 1.313-4.583 2.624-6.858 3.965-.553.325-.977.302-1.515-.013a868 868 0 0 0-7.035-4.054l-.974-.558c-.998-.57-1.233-.432-1.233.743v.634c0 1.904-.001 3.81.058 5.713.012.356.291.84.595 1.032a493 493 0 0 0 5.262 3.277q1.717 1.058 3.429 2.124c.461.29.833.275 1.287-.007q4.379-2.724 8.783-5.409c.458-.278.63-.62.614-1.145a70 70 0 0 1-.013-2.238m-2.634-2.546c-2.43 3.35-4.857 6.7-7.377 10.18l-3.662-5.015-3.86-5.286.084-.12.197.087c.14.06.279.12.41.198l1.122.653c1.672.972 3.345 1.945 5.001 2.942.516.311.922.308 1.438 0 1.567-.936 3.146-1.851 4.725-2.766l1.754-1.018.084.072q.042.038.084.073m-14.538 4.453 1.246-.746v-.002l2.552 3.514 1.533 2.11-.085.096c-2.188-1.33-4.375-2.662-6.72-4.089zm9.355 4.606-.064-.085v-.001l.763-1.062c.911-1.266 1.822-2.533 2.754-3.785.114-.152.506-.274.66-.196.529.269 1.036.576 1.611.924q.32.194.672.404l-4.625 2.838-1.707 1.047zm-10.35-5.1-.854.52v-5.037l2.539 3.49zm16.107-.237-1.414-.856 1.134-1.574 1.34-1.86v4.931z" clip-rule="evenodd"/>
    <path fill="#11026F" fill-rule="evenodd" d="M1.5 20.945C1.527 10.219 10.274 1.483 20.97 1.5c10.781.017 19.562 8.826 19.528 19.59-.033 10.695-8.843 19.458-19.514 19.41-10.757-.048-19.51-8.835-19.484-19.555m.815-.007C2.29 31.2 10.556 39.56 20.781 39.603c10.358.045 18.8-8.236 18.844-18.484.045-10.289-8.247-18.67-18.509-18.714-10.327-.043-18.774 8.283-18.8 18.533" clip-rule="evenodd"/>
  </g>
  <defs>
    <linearGradient id="b" x1="0" x2="42" y1="27.5" y2="17" gradientUnits="userSpaceOnUse">
      <stop stop-color="#29BCFA"/>
      <stop offset=".454" stop-color="#6E62E7"/>
      <stop offset="1" stop-color="#B45AFA"/>
    </linearGradient>
    <clipPath id="a">
      <path fill="#fff" d="M0 0h42v42H0z"/>
    </clipPath>
  </defs>
</svg>
