<svg xmlns="http://www.w3.org/2000/svg" width="42" height="42" fill="none"><g clip-path="url(#a)"><path fill="#627EEA" d="M21 42c11.598 0 21-9.402 21-21S32.598 0 21 0 0 9.402 0 21s9.402 21 21 21z"/><path fill="#fff" fill-opacity=".602" d="M21.654 5.25v11.642l9.84 4.397-9.84-16.039z"/><path fill="#fff" d="m21.654 5.25-9.841 16.039 9.84-4.397V5.25z"/><path fill="#fff" fill-opacity=".602" d="M21.654 28.833v7.91L31.5 23.121l-9.846 5.712z"/><path fill="#fff" d="M21.654 36.743v-7.912l-9.841-5.71 9.84 13.622z"/><path fill="#fff" fill-opacity=".2" d="m21.654 27.002 9.84-5.713-9.84-4.395v10.108z"/><path fill="#fff" fill-opacity=".602" d="m11.813 21.289 9.84 5.713V16.895l-9.84 4.394z"/></g><defs><clipPath id="a"><path fill="#fff" d="M0 0h42v42H0z"/></clipPath></defs></svg>