<svg width="42" height="42" fill="none" viewBox="0 0 42 42" xmlns="http://www.w3.org/2000/svg">
  <g clip-path="url(#a)">
    <g clip-path="url(#b)">
      <mask id="c" width="42" height="42" x="0" y="0" maskUnits="userSpaceOnUse" style="mask-type:luminance">
        <path fill="#fff" d="M42 21C42 9.402 32.598 0 21 0S0 9.402 0 21s9.402 21 21 21 21-9.402 21-21"/>
      </mask>
      <g mask="url(#c)">
        <path fill="#00A3FF" d="M42 21C42 9.402 32.598 0 21 0S0 9.402 0 21s9.402 21 21 21 21-9.402 21-21"/>
        <path fill="#fff" d="m28.753 18.87.211.325c2.387 3.661 1.854 8.456-1.281 11.528a9.52 9.52 0 0 1-6.679 2.71z" opacity=".6"/>
        <path fill="#fff" d="m21.003 23.297 7.749-4.427-7.749 14.564z" opacity=".2"/>
        <path fill="#fff" d="m13.247 18.87-.211.325c-2.387 3.661-1.854 8.456 1.281 11.528a9.52 9.52 0 0 0 6.679 2.71z"/>
        <path fill="#fff" d="m20.994 23.297-7.75-4.427 7.75 14.564z" opacity=".6"/>
        <path fill="#fff" d="M21.006 13.409v7.634l6.675-3.815z" opacity=".2"/>
        <path fill="#fff" d="m21.004 13.409-6.68 3.82 6.68 3.814z" opacity=".6"/>
        <path fill="#fff" d="m21.004 6.989-6.68 10.241 6.68-3.83z"/>
        <path fill="#fff" d="m21.006 13.4 6.68 3.83-6.68-10.247z" opacity=".6"/>
      </g>
    </g>
  </g>
  <defs>
    <clipPath id="a">
      <rect width="42" height="42" fill="#fff" rx="21"/>
    </clipPath>
    <clipPath id="b">
      <path fill="#fff" d="M0 0h42v42H0z"/>
    </clipPath>
  </defs>
</svg>
