<svg width="300" height="300" viewBox="0 0 300 300" fill="none" xmlns="http://www.w3.org/2000/svg"><path d="M150 300c82.843 0 150-67.157 150-150S232.843 0 150 0 0 67.157 0 150s67.157 150 150 150z" fill="#F56070"/><path d="M47.303 114.2c2.333 0 4.266.767 5.8 2.3 1.533 1.467 2.3 3.333 2.3 5.6 0 2.267-.767 4.167-2.3 5.7-1.534 1.533-3.467 2.3-5.8 2.3-2.334 0-4.3-.767-5.9-2.3-1.534-1.533-2.3-3.433-2.3-5.7 0-2.267.766-4.133 2.3-5.6 1.6-1.533 3.566-2.3 5.9-2.3zm-7.1 21.4h14.1V187h-14.1v-51.4zM59.628 187l25.6-70h18l25.4 70h-16.1l-5.4-15.3h-26.6l-5.4 15.3h-15.5zm24.9-27.4h18.5l-9.3-26.6-9.2 26.6zm50.525-42.6h24.3c7 0 13.166 1.5 18.5 4.5 5.4 2.933 9.533 7.067 12.4 12.4 2.933 5.267 4.4 11.3 4.4 18.1 0 6.8-1.467 12.867-4.4 18.2-2.867 5.267-7 9.4-12.4 12.4-5.334 2.933-11.5 4.4-18.5 4.4h-24.3v-70zm24.3 57.5c6.333 0 11.233-2.033 14.7-6.1 3.533-4.133 5.3-9.6 5.3-16.4 0-6.8-1.767-12.233-5.3-16.3-3.467-4.133-8.367-6.2-14.7-6.2h-9.3v45h9.3zm35.92 12.5l25.6-70h18l25.4 70h-16.1l-5.4-15.3h-26.6l-5.4 15.3h-15.5zm24.9-27.4h18.5l-9.3-26.6-9.2 26.6z" fill="#1E1A31"/></svg>