<svg width="300" height="300" viewBox="0 0 300 300" fill="none" xmlns="http://www.w3.org/2000/svg"><path d="M150 300c82.843 0 150-67.157 150-150S232.843 0 150 0 0 67.157 0 150s67.157 150 150 150z" fill="#F56070"/><path d="M48.242 114.2c2.333 0 4.267.767 5.8 2.3 1.533 1.467 2.3 3.333 2.3 5.6 0 2.267-.767 4.167-2.3 5.7-1.533 1.533-3.467 2.3-5.8 2.3-2.333 0-4.3-.767-5.9-2.3-1.533-1.533-2.3-3.433-2.3-5.7 0-2.267.767-4.133 2.3-5.6 1.6-1.533 3.567-2.3 5.9-2.3zm-7.1 21.4h14.1V187h-14.1v-51.4zM92.768 117c8.133 0 14.433 1.6 18.9 4.8 4.466 3.2 6.7 7.733 6.7 13.6 0 4.333-1.2 7.833-3.6 10.5-2.4 2.667-5.8 4.4-10.2 5.2 5.2.667 9.2 2.333 12 5 2.866 2.667 4.3 6.4 4.3 11.2 0 6.133-2.334 10.967-7 14.5-4.667 3.467-11.267 5.2-19.8 5.2h-27.9v-70h26.6zm-11.6 28.8h12c3.2 0 5.7-.767 7.5-2.3 1.8-1.533 2.7-3.6 2.7-6.2s-.9-4.667-2.7-6.2c-1.8-1.533-4.3-2.3-7.5-2.3h-12v17zm0 29.3h13c3.6 0 6.366-.767 8.3-2.3 2-1.533 3-3.667 3-6.4 0-2.867-1-5.067-3-6.6-2-1.6-4.767-2.4-8.3-2.4h-13v17.7zm46.848-23.1c0-7.133 1.367-13.367 4.1-18.7 2.8-5.4 6.767-9.567 11.9-12.5 5.2-2.933 11.3-4.4 18.3-4.4 5.467 0 10.367 1.067 14.7 3.2 4.334 2.133 7.834 5.133 10.5 9 2.667 3.867 4.267 8.333 4.8 13.4h-15c-.866-4-2.7-7.133-5.5-9.4-2.733-2.333-6.166-3.5-10.3-3.5-5.6 0-10.033 2.1-13.3 6.3-3.266 4.2-4.9 9.733-4.9 16.6 0 6.8 1.634 12.333 4.9 16.6 3.267 4.2 7.7 6.3 13.3 6.3 4.134 0 7.567-1.133 10.3-3.4 2.8-2.333 4.634-5.5 5.5-9.5h15c-.533 5.067-2.133 9.533-4.8 13.4-2.666 3.867-6.166 6.867-10.5 9-4.333 2.133-9.233 3.2-14.7 3.2-7 0-13.1-1.467-18.3-4.4-5.133-2.933-9.1-7.067-11.9-12.4-2.733-5.4-4.1-11.667-4.1-18.8zm73.015-35h15v28.1h27.8V117h15v70h-15v-28.9h-27.8V187h-15v-70z" fill="#1E1A31"/></svg>