<svg xmlns="http://www.w3.org/2000/svg" width="480" height="480" fill="none"><mask id="b" width="480" height="480" x="0" y="0" maskUnits="userSpaceOnUse"><circle cx="240" cy="240" r="240" fill="url(#a)"/></mask><g mask="url(#b)"><circle cx="240" cy="240" r="240" fill="#FF1E39"/><circle cx="240" cy="240" r="208" fill="#fff"/></g><circle cx="240" cy="240" r="184" fill="#0E052F"/><path fill="#8DC351" d="M240 424c101.62 0 184-82.38 184-184S341.62 56 240 56 56 138.38 56 240s82.38 184 184 184z"/><path fill="#fff" d="M299.876 177.141c-8.924-22.678-31.303-24.725-57.362-19.665l-9.281-32.349-19.688 5.646 9.039 31.51c-5.175 1.472-10.442 3.105-15.674 4.715l-9.085-31.717-19.677 5.635 9.258 32.35c-4.232 1.311-8.395 2.599-12.478 3.772l-.034-.115-27.163 7.785 6.037 21.045s14.467-4.462 14.295-4.117c7.981-2.288 11.902 1.599 13.8 5.382l10.58 36.846c.54-.149 1.265-.333 2.116-.46l-2.082.598 14.801 51.635c.368 2.611.046 7.038-5.52 8.648.31.15-14.329 4.094-14.329 4.094l2.84 24.645 25.622-7.36c4.773-1.346 9.488-2.611 14.099-3.91l9.396 32.717 19.665-5.635-9.281-32.372a754.611 754.611 0 0015.778-4.37l9.223 32.234 19.7-5.646-9.361-32.66c32.556-11.397 53.337-26.381 47.299-58.305-4.853-25.691-19.826-33.488-39.916-32.614 9.752-9.085 13.949-21.367 7.383-37.95v-.012zm-7.475 77.855c7.015 24.461-35.65 33.684-48.99 37.525l-12.432-43.355c13.34-3.83 54.096-19.665 61.41 5.842l.012-.012zm-26.703-58.535c6.371 22.253-29.291 29.67-40.411 32.856l-11.27-39.319c11.109-3.185 45.022-16.732 51.681 6.475v-.012z"/><defs><linearGradient id="a" x1="240" x2="240" y1="0" y2="701.818" gradientUnits="userSpaceOnUse"><stop stop-color="#08021E"/><stop offset="1" stop-color="#1F0777"/></linearGradient></defs></svg>