<svg width="300" height="300" viewBox="0 0 300 300" fill="none" xmlns="http://www.w3.org/2000/svg"><path d="M150 300c82.843 0 150-67.157 150-150S232.843 0 150 0 0 67.157 0 150s67.157 150 150 150z" fill="#F56070"/><path d="M50.379 114.2c2.333 0 4.266.767 5.8 2.3 1.533 1.467 2.3 3.333 2.3 5.6 0 2.267-.767 4.167-2.3 5.7-1.534 1.533-3.467 2.3-5.8 2.3-2.334 0-4.3-.767-5.9-2.3-1.534-1.533-2.3-3.433-2.3-5.7 0-2.267.766-4.133 2.3-5.6 1.6-1.533 3.566-2.3 5.9-2.3zm-7.1 21.4h14.1V187h-14.1v-51.4zM94.904 117c8.134 0 14.434 1.6 18.9 4.8 4.467 3.2 6.7 7.733 6.7 13.6 0 4.333-1.2 7.833-3.6 10.5-2.4 2.667-5.8 4.4-10.2 5.2 5.2.667 9.2 2.333 12 5 2.867 2.667 4.3 6.4 4.3 11.2 0 6.133-2.333 10.967-7 14.5-4.666 3.467-11.266 5.2-19.8 5.2h-27.9v-70h26.6zm-11.6 28.8h12c3.2 0 5.7-.767 7.5-2.3 1.8-1.533 2.7-3.6 2.7-6.2s-.9-4.667-2.7-6.2c-1.8-1.533-4.3-2.3-7.5-2.3h-12v17zm0 29.3h13c3.6 0 6.367-.767 8.3-2.3 2-1.533 3-3.667 3-6.4 0-2.867-1-5.067-3-6.6-2-1.6-4.766-2.4-8.3-2.4h-13v17.7zm49.649 11.9v-70h13.6l29.7 44.1V117h14.8v70h-13.7l-29.7-44.1V187h-14.7zm96.619-70c8.134 0 14.434 1.6 18.9 4.8 4.467 3.2 6.7 7.733 6.7 13.6 0 4.333-1.2 7.833-3.6 10.5-2.4 2.667-5.8 4.4-10.2 5.2 5.2.667 9.2 2.333 12 5 2.867 2.667 4.3 6.4 4.3 11.2 0 6.133-2.333 10.967-7 14.5-4.666 3.467-11.266 5.2-19.8 5.2h-27.9v-70h26.6zm-11.6 28.8h12c3.2 0 5.7-.767 7.5-2.3 1.8-1.533 2.7-3.6 2.7-6.2s-.9-4.667-2.7-6.2c-1.8-1.533-4.3-2.3-7.5-2.3h-12v17zm0 29.3h13c3.6 0 6.367-.767 8.3-2.3 2-1.533 3-3.667 3-6.4 0-2.867-1-5.067-3-6.6-2-1.6-4.766-2.4-8.3-2.4h-13v17.7z" fill="#1E1A31"/></svg>