<svg xmlns="http://www.w3.org/2000/svg" width="480" height="480" fill="none"><mask id="b" width="480" height="480" x="0" y="0" maskUnits="userSpaceOnUse"><circle cx="240" cy="240" r="240" fill="url(#a)"/></mask><g mask="url(#b)"><circle cx="240" cy="240" r="240" fill="#FF1E39"/><circle cx="240" cy="240" r="208" fill="#fff"/></g><circle cx="240" cy="240" r="184" fill="#0E052F"/><path fill="#F3BA2F" d="M240 424c101.62 0 184-82.38 184-184S341.62 56 240 56 56 138.38 56 240s82.38 184 184 184z"/><path fill="#fff" d="M195.334 221.646L240 176.98l44.689 44.689 25.99-25.99L240 125l-70.656 70.656 25.99 25.99zM125 240l25.99-25.99L176.98 240l-25.99 25.99L125 240zm70.334 18.354L240 303.02l44.689-44.689 25.99 25.979L240 355l-70.656-70.656-.035-.034 26.025-25.956zM303.02 240l25.99-25.99L355 240l-25.99 25.99L303.02 240zm-36.662-.023h.023V240L240 266.381l-26.347-26.335-.046-.046.046-.035 4.612-4.622 2.243-2.243L240 213.619l26.369 26.369-.011-.011z"/><defs><linearGradient id="a" x1="240" x2="240" y1="0" y2="701.818" gradientUnits="userSpaceOnUse"><stop stop-color="#08021E"/><stop offset="1" stop-color="#1F0777"/></linearGradient></defs></svg>