<svg width="480" height="480" viewBox="0 0 480 480" fill="none" xmlns="http://www.w3.org/2000/svg">
<mask id="mask0-344263" mask-type="alpha" maskUnits="userSpaceOnUse" x="0" y="0" width="480" height="480">
<circle cx="240" cy="240" r="240" fill="url(#paint0_linear-607511)"/>
</mask>
<g mask="url(#mask0-344263)">
<circle cx="240" cy="240" r="240" fill="#FF1E39"/>
<circle cx="240" cy="240" r="208" fill="white"/>
</g>
<circle cx="240" cy="240" r="184" fill="#0E052F"/>
<path d="M240 424C341.62 424 424 341.62 424 240C424 138.38 341.62 56 240 56C138.38 56 56 138.38 56 240C56 341.62 138.38 424 240 424Z" fill="#000D2B"/>
<path d="M239.079 123.62L187.122 154.061L239.079 184.513L292.014 154.061L239.079 123.62ZM247.624 286.161V347.054L318.199 306.792V245.888L247.624 286.161ZM300.558 173.208V234.112L247.612 264.564V203.66L300.558 173.208ZM173.115 234.112L226.061 264.564V203.66L173.115 173.208V234.112ZM173.115 316.613L226.061 347.054V286.161L173.115 255.721V316.602V316.613Z" fill="white"/>
<defs>
<linearGradient id="paint0_linear-607511" x1="240" y1="0" x2="240" y2="701.818" gradientUnits="userSpaceOnUse">
<stop stop-color="#08021E"/>
<stop offset="1" stop-color="#1F0777"/>
</linearGradient>
</defs>
</svg>