<svg width="480" height="480" viewBox="0 0 480 480" fill="none" xmlns="http://www.w3.org/2000/svg"><mask id="mask0-344263" maskUnits="userSpaceOnUse" x="0" y="0" width="480" height="480"><circle cx="240" cy="240" r="240" fill="url(#paint0_linear-607511)"/></mask><g mask="url(#mask0-344263)"><circle cx="240" cy="240" r="240" fill="#FF1E39"/><circle cx="240" cy="240" r="208" fill="#fff"/></g><circle cx="240" cy="240" r="184" fill="#0E052F"/><path d="M240 424c101.62 0 184-82.38 184-184S341.62 56 240 56 56 138.38 56 240s82.38 184 184 184z" fill="#000D2B"/><path d="M239.079 123.62l-51.957 30.441 51.957 30.452 52.935-30.452-52.935-30.441zm8.545 162.541v60.893l70.575-40.262v-60.904l-70.575 40.273zm52.934-112.953v60.904l-52.946 30.452V203.66l52.946-30.452zm-127.443 60.904l52.946 30.452V203.66l-52.946-30.452v60.904zm0 82.501l52.946 30.441v-60.893l-52.946-30.44v60.892z" fill="#fff"/><defs><linearGradient id="paint0_linear-607511" x1="240" y1="0" x2="240" y2="701.818" gradientUnits="userSpaceOnUse"><stop stop-color="#08021E"/><stop offset="1" stop-color="#1F0777"/></linearGradient></defs></svg>