<svg xmlns="http://www.w3.org/2000/svg" width="480" height="480" fill="none"><mask id="b" width="480" height="480" x="0" y="0" maskUnits="userSpaceOnUse"><circle cx="240" cy="240" r="240" fill="url(#a)"/></mask><g mask="url(#b)"><circle cx="240" cy="240" r="240" fill="#FF1E39"/><circle cx="240" cy="240" r="208" fill="#fff"/></g><circle cx="240" cy="240" r="184" fill="#0E052F"/><path fill="#F7931A" d="M240 424c101.62 0 184-82.38 184-184S341.62 56 240 56 56 138.38 56 240s82.38 184 184 184z"/><path fill="#fff" d="M322.676 217.23c3.611-24.104-14.755-37.064-39.848-45.712l8.142-32.661-19.872-4.944-7.935 31.797c-5.221-1.311-10.58-2.53-15.927-3.749l7.992-32.004L235.356 125l-8.142 32.648c-4.324-.989-8.579-1.954-12.696-2.989l.023-.104-27.416-6.843-5.29 21.23s14.755 3.381 14.444 3.588c8.05 2.012 9.499 7.337 9.258 11.568l-9.269 37.203c.552.138 1.265.345 2.07.655l-2.105-.517-12.995 52.118c-.989 2.438-3.484 6.106-9.119 4.715.207.287-14.444-3.599-14.444-3.599l-9.867 22.746 25.875 6.452c4.807 1.208 9.522 2.473 14.156 3.657l-8.222 33.028 19.86 4.945 8.142-32.66a927.37 927.37 0 0015.847 4.106l-8.119 32.521 19.872 4.945 8.223-32.959c33.902 6.418 59.386 3.83 70.115-26.829 8.648-24.679-.425-38.927-18.262-48.208 12.995-2.99 22.77-11.534 25.381-29.187zm-45.425 63.687c-6.13 24.691-47.702 11.339-61.18 7.993l10.925-43.758c13.478 3.369 56.683 10.028 50.255 35.765zm6.152-64.043c-5.6 22.459-40.192 11.04-51.405 8.245l9.89-39.675c11.213 2.794 47.357 8.004 41.515 31.43z"/><defs><linearGradient id="a" x1="240" x2="240" y1="0" y2="701.818" gradientUnits="userSpaceOnUse"><stop stop-color="#08021E"/><stop offset="1" stop-color="#1F0777"/></linearGradient></defs></svg>