<svg width="300" height="300" viewBox="0 0 300 300" fill="none" xmlns="http://www.w3.org/2000/svg"><path d="M150 300c82.843 0 150-67.157 150-150S232.843 0 150 0 0 67.157 0 150s67.157 150 150 150z" fill="#F56070"/><path d="M53.027 114.2c2.334 0 4.267.767 5.8 2.3 1.534 1.467 2.3 3.333 2.3 5.6 0 2.267-.767 4.167-2.3 5.7-1.533 1.533-3.466 2.3-5.8 2.3-2.333 0-4.3-.767-5.9-2.3-1.533-1.533-2.3-3.433-2.3-5.7 0-2.267.767-4.133 2.3-5.6 1.6-1.533 3.567-2.3 5.9-2.3zm-7.1 21.4h14.1V187h-14.1v-51.4zM68.153 152c0-7.133 1.367-13.367 4.1-18.7 2.8-5.4 6.767-9.567 11.9-12.5 5.2-2.933 11.3-4.4 18.3-4.4 5.467 0 10.367 1.067 14.7 3.2 4.333 2.133 7.833 5.133 10.5 9s4.267 8.333 4.8 13.4h-15c-.867-4-2.7-7.133-5.5-9.4-2.733-2.333-6.167-3.5-10.3-3.5-5.6 0-10.033 2.1-13.3 6.3-3.267 4.2-4.9 9.733-4.9 16.6 0 6.8 1.633 12.333 4.9 16.6 3.267 4.2 7.7 6.3 13.3 6.3 4.133 0 7.567-1.133 10.3-3.4 2.8-2.333 4.633-5.5 5.5-9.5h15c-.533 5.067-2.133 9.533-4.8 13.4-2.667 3.867-6.167 6.867-10.5 9s-9.233 3.2-14.7 3.2c-7 0-13.1-1.467-18.3-4.4-5.133-2.933-9.1-7.067-11.9-12.4-2.733-5.4-4.1-11.667-4.1-18.8zm73.015-35h47v12.9h-32v15.7h26v12.3h-26v16.2h33.1V187h-48.1v-70zm75.529 34.3l-21.8-34.3h18.2l13.8 22 14.1-22h16.4l-21.8 34.3 22.9 35.7h-18.3l-14.9-23.5-15.2 23.5h-16.3l22.9-35.7z" fill="#1E1A31"/></svg>