<svg width="480" height="480" viewBox="0 0 480 480" fill="none" xmlns="http://www.w3.org/2000/svg"><mask id="mask0-281892" maskUnits="userSpaceOnUse" x="0" y="0" width="480" height="480"><circle cx="240" cy="240" r="240" fill="url(#paint0_linear-275202)"/></mask><g mask="url(#mask0-281892)"><circle cx="240" cy="240" r="240" fill="#FF1E39"/><circle cx="240" cy="240" r="208" fill="#fff"/></g><circle cx="240" cy="240" r="184" fill="#0E052F"/><circle cx="240" cy="240" r="184" fill="#000"/><path fill-rule="evenodd" clip-rule="evenodd" d="M154.166 308.537a20.583 20.583 0 01-9.846-17.538v-39.902a8.52 8.52 0 011.173-4.309c2.372-4.091 7.636-5.482 11.727-3.082l90.06 52.502a17.153 17.153 0 018.509 14.81v41.348c0 1.882-.519 3.764-1.5 5.373-2.973 4.855-9.301 6.382-14.156 3.409l-85.967-52.611zm134.243-75.768a17.156 17.156 0 018.509 14.81v83.895a6.835 6.835 0 01-3.491 5.973l-19.719 11.101a4.066 4.066 0 01-.791.327v-46.584a17.176 17.176 0 00-8.346-14.728l-79.095-47.321v-52.584c0-1.528.41-3 1.173-4.31 2.373-4.091 7.637-5.482 11.728-3.082l90.032 52.503zm39.411-61.967c5.291 3.055 8.537 8.728 8.537 14.838v122.542a6.88 6.88 0 01-3.6 6.027l-18.684 10.092v-85.314a17.165 17.165 0 00-8.317-14.7l-80.841-48.493v-49.885c0-1.527.409-3 1.145-4.309 2.373-4.091 7.637-5.482 11.728-3.109l90.032 52.311z" fill="#00D395"/><defs><linearGradient id="paint0_linear-275202" x1="240" y1="0" x2="240" y2="701.818" gradientUnits="userSpaceOnUse"><stop stop-color="#08021E"/><stop offset="1" stop-color="#1F0777"/></linearGradient></defs></svg>