<svg width="480" height="480" fill="none" xmlns="http://www.w3.org/2000/svg">
  <mask id="b" width="480" height="480" x="0" y="0" maskUnits="userSpaceOnUse">
    <circle cx="240" cy="240" r="240" fill="url(#a)"/>
  </mask>
  <g mask="url(#b)">
    <circle cx="240" cy="240" r="240" fill="#FF1E39"/>
    <circle cx="240" cy="240" r="208" fill="#fff"/>
  </g>
  <circle cx="240" cy="240" r="184" fill="#0E052F"/>
  <circle cx="240" cy="240" r="184" fill="#000"/>
  <path fill="#00D395" fill-rule="evenodd" d="M154.166 308.537a20.58 20.58 0 0 1-9.846-17.538v-39.902a8.5 8.5 0 0 1 1.173-4.309c2.372-4.091 7.636-5.482 11.727-3.082l90.06 52.502a17.15 17.15 0 0 1 8.509 14.81v41.348c0 1.882-.519 3.764-1.5 5.373-2.973 4.855-9.301 6.382-14.156 3.409zm134.243-75.768a17.16 17.16 0 0 1 8.509 14.81v83.895a6.84 6.84 0 0 1-3.491 5.973l-19.719 11.101a4 4 0 0 1-.791.327v-46.584a17.18 17.18 0 0 0-8.346-14.728l-79.095-47.321v-52.584c0-1.528.41-3 1.173-4.31 2.373-4.091 7.637-5.482 11.728-3.082zm39.411-61.967c5.291 3.055 8.537 8.728 8.537 14.838v122.542a6.88 6.88 0 0 1-3.6 6.027l-18.684 10.092v-85.314a17.17 17.17 0 0 0-8.317-14.7l-80.841-48.493v-49.885c0-1.527.409-3 1.145-4.309 2.373-4.091 7.637-5.482 11.728-3.109z" clip-rule="evenodd"/>
  <defs>
    <linearGradient id="a" x1="240" x2="240" y1="0" y2="701.818" gradientUnits="userSpaceOnUse">
      <stop stop-color="#08021E"/>
      <stop offset="1" stop-color="#1F0777"/>
    </linearGradient>
  </defs>
</svg>
