<svg width="480" height="480" viewBox="0 0 480 480" fill="none" xmlns="http://www.w3.org/2000/svg"><mask id="mask0-998935" maskUnits="userSpaceOnUse" x="0" y="0" width="480" height="480"><circle cx="240" cy="240" r="240" fill="url(#paint0_linear-144369)"/></mask><g mask="url(#mask0-998935)"><circle cx="240" cy="240" r="240" fill="#FF1E39"/><circle cx="240" cy="240" r="208" fill="#fff"/></g><circle cx="240" cy="240" r="184" fill="#0E052F"/><path d="M240 424c101.62 0 184-82.38 184-184S341.62 56 240 56 56 138.38 56 240s82.38 184 184 184z" fill="#008CE7"/><path d="M275.489 148.045h-83.674l-6.923 38.72 75.463.115c37.157 0 48.185 13.49 47.829 35.88-.161 11.477-5.164 30.889-7.28 37.145-5.715 16.79-17.491 35.903-61.628 35.846l-73.347-.046-6.923 38.766h83.455c29.429 0 41.964-3.438 55.2-9.545 29.371-13.547 46.863-42.561 53.889-80.431 10.419-56.35-2.576-96.45-76.072-96.45h.011z" fill="#fff"/><path d="M237.779 237.677c2.726-11.328 3.588-15.87 3.588-15.87h-85.629c-21.896 0-25.024 14.26-27.105 22.885-2.726 11.281-3.588 15.881-3.588 15.881h85.64c21.885 0 25.013-14.26 27.094-22.896z" fill="#fff"/><defs><linearGradient id="paint0_linear-144369" x1="240" y1="0" x2="240" y2="701.818" gradientUnits="userSpaceOnUse"><stop stop-color="#08021E"/><stop offset="1" stop-color="#1F0777"/></linearGradient></defs></svg>