<svg width="300" height="300" viewBox="0 0 300 300" fill="none" xmlns="http://www.w3.org/2000/svg"><path d="M150 300c82.843 0 150-67.157 150-150S232.843 0 150 0 0 67.157 0 150s67.157 150 150 150z" fill="#F56070"/><path d="M28.482 120.024c2.146 0 3.925.705 5.336 2.116 1.41 1.349 2.116 3.067 2.116 5.152s-.706 3.833-2.116 5.244c-1.411 1.411-3.19 2.116-5.336 2.116-2.147 0-3.956-.705-5.428-2.116-1.411-1.411-2.116-3.159-2.116-5.244s.705-3.803 2.116-5.152c1.472-1.411 3.28-2.116 5.428-2.116zm-6.532 19.688h12.972V187H21.95v-47.288zM44.973 122.6H67.33c6.44 0 12.114 1.38 17.02 4.14 4.968 2.699 8.77 6.501 11.408 11.408 2.699 4.845 4.048 10.396 4.048 16.652s-1.35 11.837-4.048 16.744c-2.637 4.845-6.44 8.648-11.408 11.408C79.443 185.651 73.77 187 67.33 187H44.973v-64.4zm22.356 52.9c5.827 0 10.335-1.871 13.524-5.612 3.25-3.803 4.876-8.832 4.876-15.088 0-6.256-1.625-11.255-4.876-14.996-3.19-3.803-7.697-5.704-13.524-5.704h-8.556v41.4h8.556zm33.047 11.5l23.552-64.4h16.56l23.368 64.4h-14.812l-4.968-14.076h-24.472L114.636 187h-14.26zm22.908-25.208h17.02l-8.556-24.472-8.464 24.472zm55.094 4.232c.246 3.189 1.534 5.765 3.864 7.728 2.392 1.901 5.551 2.852 9.476 2.852 3.251 0 5.888-.675 7.912-2.024 2.086-1.411 3.128-3.343 3.128-5.796 0-1.717-.582-3.067-1.748-4.048-1.104-1.043-2.698-1.84-4.784-2.392-2.024-.613-5.182-1.349-9.476-2.208-4.232-.797-7.789-1.809-10.672-3.036-2.882-1.288-5.244-3.159-7.084-5.612-1.778-2.515-2.668-5.827-2.668-9.936 0-3.741 1.012-7.084 3.036-10.028 2.086-2.944 4.938-5.244 8.556-6.9 3.68-1.717 7.82-2.576 12.42-2.576 4.723 0 8.955.889 12.696 2.668 3.803 1.717 6.778 4.109 8.924 7.176 2.208 3.067 3.343 6.532 3.404 10.396h-13.524c-.306-2.76-1.472-4.968-3.496-6.624-2.024-1.717-4.692-2.576-8.004-2.576-3.066 0-5.52.644-7.36 1.932-1.84 1.288-2.76 3.128-2.76 5.52 0 1.717.552 3.067 1.656 4.048 1.104.92 2.668 1.687 4.692 2.3 2.024.552 5.152 1.227 9.384 2.024 4.294.797 7.912 1.809 10.856 3.036 2.944 1.165 5.306 2.975 7.084 5.428 1.84 2.392 2.76 5.612 2.76 9.66 0 3.925-1.073 7.452-3.22 10.58-2.146 3.067-5.152 5.489-9.016 7.268-3.802 1.779-8.096 2.668-12.88 2.668-5.152 0-9.752-.92-13.8-2.76-3.986-1.901-7.114-4.508-9.384-7.82-2.269-3.312-3.434-7.023-3.496-11.132l13.524.184zM224.93 122.6h13.8v25.852h25.576V122.6h13.8V187h-13.8v-26.588H238.73V187h-13.8v-64.4z" fill="#1E1A31"/></svg>