<svg width="480" height="480" fill="none" xmlns="http://www.w3.org/2000/svg">
  <mask id="b" width="480" height="480" x="0" y="0" maskUnits="userSpaceOnUse">
    <circle cx="240" cy="240" r="240" fill="url(#a)"/>
  </mask>
  <g mask="url(#b)">
    <circle cx="240" cy="240" r="240" fill="#FF1E39"/>
    <circle cx="240" cy="240" r="208" fill="#fff"/>
  </g>
  <circle cx="240" cy="240" r="184" fill="#0E052F"/>
  <circle cx="240" cy="240" r="184" fill="#0E052F"/>
  <path fill="#00D1FF" d="M207.428 133.714q-1.32-1.513-3.254-1.513h-26.383a.77.77 0 0 1-.571-.222.68.68 0 0 1-.22-.488v-17.78a.68.68 0 0 1 .22-.488.76.76 0 0 1 .571-.223h27.879q10.553.001 18.205 8.623l6.772 8.267-13.192 16.091zm48.724-12.179Q263.803 113 274.445 113h27.791q.351 0 .528.177.174.18.175.534v17.78a.77.77 0 0 1-.175.488q-.177.222-.528.222h-26.383q-1.934 0-3.255 1.513l-19.436 23.647 19.524 23.824q1.319 1.424 3.167 1.423h26.383q.351 0 .528.223.174.224.175.576v17.781a.77.77 0 0 1-.175.488q-.177.222-.528.222h-27.791q-10.643.001-18.205-8.623l-16.182-19.735-16.183 19.735q-7.652 8.624-18.293 8.623h-27.791q-.353 0-.528-.222-.177-.222-.175-.579v-17.78a.76.76 0 0 1 .175-.489q.175-.222.528-.222h26.383q1.846 0 3.254-1.512l19.084-23.291z"/>
  <path fill="#00D395" fill-rule="evenodd" d="M129.922 327.862a10.33 10.33 0 0 1-4.922-8.793v-20.005c0-.766.205-1.504.586-2.161a4.27 4.27 0 0 1 5.863-1.545l45.021 26.323a8.6 8.6 0 0 1 4.254 7.425v20.73c0 .943-.259 1.887-.75 2.694a5.134 5.134 0 0 1-7.076 1.709zm67.109-37.987a8.6 8.6 0 0 1 4.253 7.425v42.061a3.43 3.43 0 0 1-1.745 2.995l-9.857 5.566a2 2 0 0 1-.396.164V324.73a8.62 8.62 0 0 0-4.172-7.384l-39.54-23.724v-26.364c0-.766.205-1.504.587-2.161a4.27 4.27 0 0 1 5.862-1.545zm19.701-31.068a8.6 8.6 0 0 1 4.268 7.439v61.438a3.45 3.45 0 0 1-1.8 3.022l-9.34 5.059v-42.772a8.61 8.61 0 0 0-4.158-7.371L165.29 261.31V236.3c0-.766.204-1.504.572-2.161a4.29 4.29 0 0 1 5.863-1.559z" clip-rule="evenodd"/>
  <path fill="url(#c)" d="M274.012 272.771a4 4 0 0 0-.012.304v72.352a4.405 4.405 0 0 0 2.722 4.074 4.41 4.41 0 0 0 6.097-4.074v-12.822a4.41 4.41 0 1 1 8.819 0v6.079a4.41 4.41 0 0 0 8.819 0v-6.079a4.41 4.41 0 1 1 8.819 0v1.659a4.408 4.408 0 1 0 8.818 0v-1.659a4.41 4.41 0 0 1 8.82 0v6.079a4.42 4.42 0 0 0 1.291 3.118 4.4 4.4 0 0 0 3.117 1.291 4.42 4.42 0 0 0 3.119-1.291 4.42 4.42 0 0 0 1.291-3.118v-6.079a4.41 4.41 0 0 1 4.41-4.41 4.41 4.41 0 0 1 4.409 4.41v12.822a4.41 4.41 0 1 0 8.819 0v-72.352q0-.154-.012-.304C352.871 251.276 335.296 234 313.685 234s-39.187 17.276-39.673 38.771m47.245-1.748c0-4.471 3.161-8.096 7.061-8.096s7.061 3.625 7.061 8.096c0 4.472-3.161 8.097-7.061 8.097s-7.061-3.625-7.061-8.097m-29.266 0c0-4.471 3.161-8.096 7.061-8.096s7.062 3.625 7.062 8.096c0 4.472-3.162 8.097-7.062 8.097s-7.061-3.625-7.061-8.097m28.419 14.816c0 2.602-2.869 4.711-6.409 4.711s-6.408-2.109-6.408-4.711c0-2.601 2.869-1.032 6.408-1.032s6.409-1.569 6.409 1.032"/>
  <defs>
    <linearGradient id="a" x1="240" x2="240" y1="0" y2="701.818" gradientUnits="userSpaceOnUse">
      <stop stop-color="#08021E"/>
      <stop offset="1" stop-color="#1F0777"/>
    </linearGradient>
    <linearGradient id="c" x1="274" x2="341" y1="350" y2="246.5" gradientUnits="userSpaceOnUse">
      <stop stop-color="#50B5AC"/>
      <stop offset="1" stop-color="#B22F92"/>
    </linearGradient>
  </defs>
</svg>
