<svg width="300" height="300" viewBox="0 0 300 300" fill="none" xmlns="http://www.w3.org/2000/svg"><path d="M150 300c82.843 0 150-67.157 150-150S232.843 0 150 0 0 67.157 0 150s67.157 150 150 150z" fill="#F56070"/><path d="M46.424 114.2c2.333 0 4.266.767 5.8 2.3 1.533 1.467 2.3 3.333 2.3 5.6 0 2.267-.767 4.167-2.3 5.7-1.534 1.533-3.467 2.3-5.8 2.3-2.334 0-4.3-.767-5.9-2.3-1.534-1.533-2.3-3.433-2.3-5.7 0-2.267.766-4.133 2.3-5.6 1.6-1.533 3.566-2.3 5.9-2.3zm-7.1 21.4h14.1V187h-14.1v-51.4zM64.35 117h24.3c7 0 13.166 1.5 18.499 4.5 5.4 2.933 9.534 7.067 12.4 12.4 2.934 5.267 4.4 11.3 4.4 18.1 0 6.8-1.466 12.867-4.4 18.2-2.866 5.267-7 9.4-12.4 12.4-5.333 2.933-11.5 4.4-18.5 4.4h-24.3v-70zm24.3 57.5c6.333 0 11.233-2.033 14.699-6.1 3.534-4.133 5.3-9.6 5.3-16.4 0-6.8-1.766-12.233-5.3-16.3-3.466-4.133-8.366-6.2-14.7-6.2h-9.3v45h9.3zm44.547-57.5h47v12.9h-32v15.7h26v12.3h-26v16.2h33.1V187h-48.1v-70zm57.129 0h46.2v12.9h-31.2v16.4h25.6v12.3h-25.6V187h-15v-70zm54.395 0h15v70h-15v-70z" fill="#1E1A31"/></svg>