<svg width="480" height="480" fill="none" xmlns="http://www.w3.org/2000/svg">
  <mask id="b" width="480" height="480" x="0" y="0" maskUnits="userSpaceOnUse">
    <circle cx="240" cy="240" r="240" fill="url(#a)"/>
  </mask>
  <g mask="url(#b)">
    <circle cx="240" cy="240" r="240" fill="#FF1E39"/>
    <circle cx="240" cy="240" r="208" fill="#fff"/>
  </g>
  <circle cx="240" cy="240" r="184" fill="#0E052F"/>
  <path fill="#000" d="M240 424c101.62 0 184-82.38 184-184S341.62 56 240 56 56 138.38 56 240s82.38 184 184 184"/>
  <path fill="#fff" fill-rule="evenodd" d="M240.034 104.266a4.9 4.9 0 0 1 4 2.009l58.8 80.339a4.9 4.9 0 0 1 .833 1.848l28.463 129.985a4.91 4.91 0 0 1-2.188 5.207l-87.262 54.671a4.9 4.9 0 0 1-2.646.749 4.9 4.9 0 0 1-2.645-.749l-87.262-54.671a4.91 4.91 0 0 1-2.188-5.207l28.451-129.985c.146-.667.43-1.297.834-1.849l58.811-80.339a4.9 4.9 0 0 1 3.999-2.008m-4.946 19.916-48.473 66.216 12.104 38.003 36.369-64.172zm4.946 51.221-37.257 65.741 23.392 73.445h27.727l23.391-73.455zm43.847 77.366-19.686 61.82h54.721zm26.382 71.634H261.07l-12.259 38.501zm-70.229 33.721 10.738-33.721h-21.478zm-24.164-43.535-19.687-61.811-35.03 61.811zm-51.406-25.746 27.661-48.807-10.062-31.595zm5.342 35.56h49.189l12.262 38.5zM315.6 288.835l-27.662-48.809 10.058-31.585zm-22.157-98.437-12.099 37.993-36.363-64.162v-40.044z" clip-rule="evenodd"/>
  <defs>
    <linearGradient id="a" x1="240" x2="240" y1="0" y2="701.818" gradientUnits="userSpaceOnUse">
      <stop stop-color="#08021E"/>
      <stop offset="1" stop-color="#1F0777"/>
    </linearGradient>
  </defs>
</svg>
