<svg width="300" height="300" viewBox="0 0 300 300" fill="none" xmlns="http://www.w3.org/2000/svg"><path d="M150 300c82.843 0 150-67.157 150-150S232.843 0 150 0 0 67.157 0 150s67.157 150 150 150z" fill="#F56070"/><path d="M53.26 114.2c2.333 0 4.266.767 5.8 2.3 1.533 1.467 2.3 3.333 2.3 5.6 0 2.267-.767 4.167-2.3 5.7-1.534 1.533-3.467 2.3-5.8 2.3-2.334 0-4.3-.767-5.9-2.3-1.534-1.533-2.3-3.433-2.3-5.7 0-2.267.766-4.133 2.3-5.6 1.6-1.533 3.566-2.3 5.9-2.3zm-7.1 21.4h14.1V187h-14.1v-51.4zM71.185 117h47v12.9h-32v15.7h26v12.3h-26v16.2h33.1V187h-48.1v-70zm121.971 35c0 6.733-1.466 12.833-4.4 18.3-2.933 5.4-7.033 9.633-12.3 12.7-5.266 3.067-11.266 4.6-18 4.6-6.733 0-12.733-1.533-18-4.6-5.266-3.067-9.366-7.3-12.3-12.7-2.933-5.467-4.4-11.567-4.4-18.3 0-6.733 1.467-12.8 4.4-18.2 2.934-5.467 7.034-9.733 12.3-12.8 5.267-3.067 11.267-4.6 18-4.6 6.734 0 12.734 1.533 18 4.6 5.267 3.067 9.367 7.333 12.3 12.8 2.934 5.4 4.4 11.467 4.4 18.2zm-54.1 0c0 4.4.8 8.333 2.4 11.8 1.6 3.467 3.867 6.2 6.8 8.2 2.934 1.933 6.334 2.9 10.2 2.9 3.8 0 7.167-.967 10.1-2.9 2.934-2 5.2-4.733 6.8-8.2 1.6-3.467 2.4-7.4 2.4-11.8s-.8-8.333-2.4-11.8c-1.6-3.467-3.866-6.167-6.8-8.1-2.933-2-6.3-3-10.1-3-3.866 0-7.266 1-10.2 3-2.933 1.933-5.2 4.633-6.8 8.1-1.6 3.467-2.4 7.4-2.4 11.8zm75.084 12.2c.267 3.467 1.667 6.267 4.2 8.4 2.6 2.067 6.033 3.1 10.3 3.1 3.533 0 6.4-.733 8.6-2.2 2.267-1.533 3.4-3.633 3.4-6.3 0-1.867-.633-3.333-1.9-4.4-1.2-1.133-2.933-2-5.2-2.6-2.2-.667-5.633-1.467-10.3-2.4-4.6-.867-8.467-1.967-11.6-3.3-3.133-1.4-5.7-3.433-7.7-6.1-1.933-2.733-2.9-6.333-2.9-10.8 0-4.067 1.1-7.7 3.3-10.9 2.267-3.2 5.367-5.7 9.3-7.5 4-1.867 8.5-2.8 13.5-2.8 5.133 0 9.733.967 13.8 2.9 4.133 1.867 7.367 4.467 9.7 7.8 2.4 3.333 3.633 7.1 3.7 11.3h-14.7c-.333-3-1.6-5.4-3.8-7.2-2.2-1.867-5.1-2.8-8.7-2.8-3.333 0-6 .7-8 2.1-2 1.4-3 3.4-3 6 0 1.867.6 3.333 1.8 4.4 1.2 1 2.9 1.833 5.1 2.5 2.2.6 5.6 1.333 10.2 2.2 4.667.867 8.6 1.967 11.8 3.3 3.2 1.267 5.767 3.233 7.7 5.9 2 2.6 3 6.1 3 10.5 0 4.267-1.167 8.1-3.5 11.5-2.333 3.333-5.6 5.967-9.8 7.9-4.133 1.933-8.8 2.9-14 2.9-5.6 0-10.6-1-15-3-4.333-2.067-7.733-4.9-10.2-8.5-2.467-3.6-3.733-7.633-3.8-12.1l14.7.2z" fill="#1E1A31"/></svg>