<svg width="480" height="480" viewBox="0 0 480 480" fill="none" xmlns="http://www.w3.org/2000/svg"><mask id="mask0-233678" maskUnits="userSpaceOnUse" x="0" y="0" width="480" height="480"><circle cx="240" cy="240" r="240" fill="url(#paint0_linear-588947)"/></mask><g mask="url(#mask0-233678)"><circle cx="240" cy="240" r="240" fill="#FF1E39"/><circle cx="240" cy="240" r="208" fill="#fff"/></g><circle cx="240" cy="240" r="184" fill="#0E052F"/><path d="M240 424c101.62 0 184-82.38 184-184S341.62 56 240 56 56 138.38 56 240s82.38 184 184 184z" fill="#000"/><path fill-rule="evenodd" clip-rule="evenodd" d="M240.034 104.266a4.905 4.905 0 014 2.009l58.8 80.339a4.91 4.91 0 01.833 1.848l28.463 129.985a4.907 4.907 0 01-2.188 5.207l-87.262 54.671a4.903 4.903 0 01-2.646.749 4.909 4.909 0 01-2.645-.749l-87.262-54.671a4.907 4.907 0 01-2.188-5.207l28.451-129.985c.146-.667.43-1.297.834-1.849l58.811-80.339a4.906 4.906 0 013.999-2.008zm-4.946 19.916l-48.473 66.216 12.104 38.003 36.369-64.172v-40.047zm4.946 51.221l-37.257 65.741 23.392 73.445h27.727l23.391-73.455-37.253-65.731zm43.847 77.366l-19.686 61.82h54.721l-35.035-61.82zm26.382 71.634H261.07l-12.259 38.501 61.452-38.501zm-70.229 33.721l10.738-33.721h-21.478l10.74 33.721zm-24.164-43.535l-19.687-61.811-35.03 61.811h54.717zm-51.406-25.746l27.661-48.807-10.062-31.595-17.599 80.402zm5.342 35.56h49.189l12.262 38.5-61.451-38.5zM315.6 288.835l-27.662-48.809 10.058-31.585 17.604 80.394zm-22.157-98.437l-12.099 37.993-36.363-64.162v-40.044l48.462 66.213z" fill="#fff"/><defs><linearGradient id="paint0_linear-588947" x1="240" y1="0" x2="240" y2="701.818" gradientUnits="userSpaceOnUse"><stop stop-color="#08021E"/><stop offset="1" stop-color="#1F0777"/></linearGradient></defs></svg>