<svg xmlns="http://www.w3.org/2000/svg" width="480" height="480" fill="none"><mask id="b" width="480" height="480" x="0" y="0" maskUnits="userSpaceOnUse"><circle cx="240" cy="240" r="240" fill="url(#a)"/></mask><g mask="url(#b)"><circle cx="240" cy="240" r="240" fill="#FF1E39"/><circle cx="240" cy="240" r="208" fill="#fff"/></g><circle cx="240" cy="240" r="184" fill="#0E052F"/><path fill="#328332" d="M240 424c101.62 0 184-82.38 184-184S341.62 56 240 56 56 138.38 56 240s82.38 184 184 184z"/><path fill="#fff" d="M239.874 246.359l-77.292-6.635 77.28-43.723v50.358h.012zm0 51.29v79.81c-26.876-41.837-56.5-87.883-80.374-125.154a49771.062 49771.062 0 0180.374 45.356v-.012zm0-115.782l-80.374 44.85L239.874 102v79.867z"/><path fill="#fff" fill-opacity=".601" d="M317.161 239.724l-77.291 6.635v-50.358l77.28 43.723h.011zm-77.291 57.937a48282.48 48282.48 0 0180.362-45.356c-23.874 37.283-53.498 83.329-80.362 125.143v-79.787zm0-115.794V102l80.362 124.717-80.362-44.85z"/><path fill="#fff" fill-rule="evenodd" d="M239.87 246.36l77.28-6.635-77.28 43.412V246.36z" clip-rule="evenodd" opacity=".2"/><path fill="#fff" fill-rule="evenodd" d="M239.867 246.36l-77.291-6.635 77.291 43.412V246.36z" clip-rule="evenodd" opacity=".603"/><defs><linearGradient id="a" x1="240" x2="240" y1="0" y2="701.818" gradientUnits="userSpaceOnUse"><stop stop-color="#08021E"/><stop offset="1" stop-color="#1F0777"/></linearGradient></defs></svg>