<svg width="300" height="300" viewBox="0 0 300 300" fill="none" xmlns="http://www.w3.org/2000/svg"><path d="M150 300c82.843 0 150-67.157 150-150S232.843 0 150 0 0 67.157 0 150s67.157 150 150 150z" fill="#F56070"/><path d="M57.312 114.2c2.334 0 4.267.767 5.8 2.3 1.534 1.467 2.3 3.333 2.3 5.6 0 2.267-.766 4.167-2.3 5.7-1.533 1.533-3.466 2.3-5.8 2.3-2.333 0-4.3-.767-5.9-2.3-1.533-1.533-2.3-3.433-2.3-5.7 0-2.267.767-4.133 2.3-5.6 1.6-1.533 3.567-2.3 5.9-2.3zm-7.1 21.4h14.1V187h-14.1v-51.4zM75.238 117h47v12.9h-32v15.7h26v12.3h-26v16.2h33.1V187h-48.1v-70zm52.157 0h55.4v12.9h-20.2V187h-15v-57.1h-20.2V117zm63.566 0h15v28.1h27.8V117h15v70h-15v-28.9h-27.8V187h-15v-70z" fill="#1E1A31"/></svg>