<svg width="480" height="480" viewBox="0 0 480 480" fill="none" xmlns="http://www.w3.org/2000/svg"><mask id="mask0-772784" maskUnits="userSpaceOnUse" x="0" y="0" width="480" height="480"><circle cx="240" cy="240" r="240" fill="url(#paint0_linear-450944)"/></mask><g mask="url(#mask0-772784)"><circle cx="240" cy="240" r="240" fill="#FF1E39"/><circle cx="240" cy="240" r="208" fill="#fff"/></g><circle cx="240" cy="240" r="184" fill="#0E052F"/><path fill-rule="evenodd" clip-rule="evenodd" d="M240 424.008c-101.2 0-184-82.8-184-184.92.92-101.2 82.8-184 184.92-183.08 101.2.92 183.08 82.8 183.08 185.84-.92 100.28-82.8 182.16-184 182.16z" fill="#0090FF"/><path fill-rule="evenodd" clip-rule="evenodd" d="M257.48 217.927l-5.52 29.44 52.44 7.36-3.68 13.8-51.52-7.36c-3.68 11.96-5.52 24.84-10.12 35.88-4.6 12.88-9.2 25.76-14.72 37.72-7.36 15.64-20.24 26.68-37.72 29.44-10.12 1.84-21.16.92-29.44-5.52-2.76-1.84-5.52-5.52-5.52-8.28 0-3.68 1.84-8.28 4.6-10.12 1.84-.92 6.44 0 9.2.92 2.76 2.76 5.52 6.44 7.36 10.12 5.52 7.36 12.88 8.28 20.24 2.76 8.28-7.36 12.88-17.48 15.64-27.6 5.52-22.08 11.04-43.24 15.64-65.32v-3.68l-48.76-7.36 1.84-13.8 50.6 7.36 6.44-28.52-52.44-8.28 1.84-14.72 54.28 7.36c1.84-5.52 2.76-10.12 4.6-14.72 4.6-16.56 9.2-33.12 20.24-47.84 11.04-14.72 23.92-23.92 43.24-23 8.28 0 16.56 2.76 22.08 9.2.92.92 2.76 2.76 2.76 4.6 0 3.68 0 8.28-2.76 11.04-3.68 2.76-8.28 1.84-11.96-1.84-2.76-2.76-4.6-5.52-7.36-8.28-5.52-7.36-13.8-8.28-20.24-1.84-4.6 4.6-9.2 11.04-11.96 17.48-6.44 19.32-11.04 39.56-17.48 59.8l50.6 7.36-3.68 13.8-48.76-7.36z" fill="#fff"/><defs><linearGradient id="paint0_linear-450944" x1="240" y1="0" x2="240" y2="701.818" gradientUnits="userSpaceOnUse"><stop stop-color="#08021E"/><stop offset="1" stop-color="#1F0777"/></linearGradient></defs></svg>