<svg xmlns="http://www.w3.org/2000/svg" width="480" height="480" fill="none"><mask id="b" width="480" height="480" x="0" y="0" maskUnits="userSpaceOnUse"><circle cx="240" cy="240" r="240" fill="url(#a)"/></mask><g mask="url(#b)"><circle cx="240" cy="240" r="240" fill="#FF1E39"/><circle cx="240" cy="240" r="208" fill="#fff"/></g><circle cx="240" cy="240" r="184" fill="#0E052F"/><path fill="#2A5ADA" d="M240 424c101.62 0 184-82.38 184-184S341.62 56 240 56 56 138.38 56 240s82.38 184 184 184z"/><g clip-path="url(#c)"><path fill="#fff" d="m240 115.064 22.716 13.062 61.901 35.778 22.716 13.062v123.802l-22.716 13.062-62.469 35.778-22.716 13.062-22.716-13.062-61.333-35.778-22.716-13.062V176.966l22.716-13.062 61.901-35.778L240 115.064zm61.901 159.581v-71.556L240 167.311l-61.901 35.778v71.556L240 310.423l61.901-35.778z"/></g><defs><linearGradient id="a" x1="240" x2="240" y1="0" y2="701.818" gradientUnits="userSpaceOnUse"><stop stop-color="#08021E"/><stop offset="1" stop-color="#1F0777"/></linearGradient><clipPath id="c"><path fill="#fff" d="M347.333 115.064H132.666v247.605h214.667z"/></clipPath></defs></svg>