<svg width="300" height="300" viewBox="0 0 300 300" fill="none" xmlns="http://www.w3.org/2000/svg"><path d="M150 300c82.843 0 150-67.157 150-150S232.843 0 150 0 0 67.157 0 150s67.157 150 150 150z" fill="#F56070"/><path d="M42.03 114.2c2.332 0 4.266.767 5.8 2.3 1.532 1.467 2.3 3.333 2.3 5.6 0 2.267-.768 4.167-2.3 5.7-1.534 1.533-3.468 2.3-5.8 2.3-2.334 0-4.3-.767-5.9-2.3-1.534-1.533-2.3-3.433-2.3-5.7 0-2.267.766-4.133 2.3-5.6 1.6-1.533 3.566-2.3 5.9-2.3zm-7.1 21.4h14.1V187h-14.1v-51.4zM59.955 187v-70h15v57.1h27.8V187h-42.8zm50.879-70h15v70h-15v-70zm26.855 70v-70h13.6l29.7 44.1V117h14.8v70h-13.7l-29.7-44.1V187h-14.7zm70.02-69.9h15v31.4l28-31.4h18.2l-25.7 28.8 27.4 41.1h-18l-20-29.5-9.9 11.1V187h-15v-69.9z" fill="#1E1A31"/></svg>