<svg xmlns="http://www.w3.org/2000/svg" width="480" height="480" fill="none"><mask id="b" width="480" height="480" x="0" y="0" maskUnits="userSpaceOnUse"><circle cx="240" cy="240" r="240" fill="url(#a)"/></mask><g mask="url(#b)"><circle cx="240" cy="240" r="240" fill="#FF1E39"/><circle cx="240" cy="240" r="208" fill="#fff"/></g><circle cx="240" cy="240" r="184" fill="#0E052F"/><path fill="#BFBBBB" d="M240 424c101.62 0 184-82.38 184-184S341.62 56 240 56 56 138.38 56 240s82.38 184 184 184z"/><path fill="#fff" fill-rule="evenodd" d="m175.91 276.961-16.41 6.371 7.912-31.728 16.606-6.67L207.95 148h58.983l-17.468 71.254 16.214-6.566-7.82 31.624-16.41 6.567-9.752 40.055H320.5L310.461 332H162.398l13.512-55.039z" clip-rule="evenodd"/><defs><linearGradient id="a" x1="240" x2="240" y1="0" y2="701.818" gradientUnits="userSpaceOnUse"><stop stop-color="#08021E"/><stop offset="1" stop-color="#1F0777"/></linearGradient></defs></svg>