<svg xmlns="http://www.w3.org/2000/svg" width="480" height="480" fill="none"><mask id="b" width="480" height="480" x="0" y="0" maskUnits="userSpaceOnUse"><circle cx="240" cy="240" r="240" fill="url(#a)"/></mask><g mask="url(#b)"><circle cx="240" cy="240" r="240" fill="#FF1E39"/><circle cx="240" cy="240" r="208" fill="#fff"/></g><circle cx="240" cy="240" r="184" fill="#0E052F"/><path fill="#1ABC9C" d="M240 424c101.62 0 184-82.38 184-184S341.62 56 240 56 56 138.38 56 240s82.38 184 184 184z"/><path fill="#fff" d="M146.137 194.644V314.75H125v-161l111.642 80.811v80.189h-21.137v-69.885l-69.368-50.221zm118.358 50.221v69.885h-21.137v-80.189L355 153.75v161h-21.137V194.644l-69.368 50.221z"/><defs><linearGradient id="a" x1="240" x2="240" y1="0" y2="701.818" gradientUnits="userSpaceOnUse"><stop stop-color="#08021E"/><stop offset="1" stop-color="#1F0777"/></linearGradient></defs></svg>