<svg width="300" height="300" viewBox="0 0 300 300" fill="none" xmlns="http://www.w3.org/2000/svg"><path d="M150 300c82.843 0 150-67.157 150-150S232.843 0 150 0 0 67.157 0 150s67.157 150 150 150z" fill="#F56070"/><path d="M39.246 114.2c2.333 0 4.267.767 5.8 2.3 1.533 1.467 2.3 3.333 2.3 5.6 0 2.267-.767 4.167-2.3 5.7-1.533 1.533-3.467 2.3-5.8 2.3-2.333 0-4.3-.767-5.9-2.3-1.533-1.533-2.3-3.433-2.3-5.7 0-2.267.767-4.133 2.3-5.6 1.6-1.533 3.567-2.3 5.9-2.3zm-7.1 21.4h14.1V187h-14.1v-51.4zM57.172 117h19.7l19.4 51.4 18.8-51.4h19.3v70h-14.3v-46.9l-18.2 46.9h-12.2l-18.2-46.9V187h-14.3v-70zm89.16.1h15v31.4l28-31.4h18.2l-25.7 28.8 27.4 41.1h-18l-20-29.5-9.9 11.1V187h-15v-69.9zm96.762-.1c5.066 0 9.533.967 13.4 2.9 3.933 1.867 6.966 4.567 9.1 8.1 2.133 3.533 3.2 7.633 3.2 12.3 0 4.467-1.067 8.433-3.2 11.9-2.134 3.4-5.067 6-8.8 7.8l13.8 27h-16.6l-11.7-23.5h-12.7V187h-15v-70h28.5zm-13.5 34h12.3c3.533 0 6.333-.967 8.4-2.9 2.133-1.933 3.2-4.533 3.2-7.8 0-3.333-1.067-5.967-3.2-7.9-2.067-1.933-4.867-2.9-8.4-2.9h-12.3V151z" fill="#1E1A31"/></svg>