<svg xmlns="http://www.w3.org/2000/svg" width="480" height="480" fill="none"><mask id="b" width="480" height="480" x="0" y="0" maskUnits="userSpaceOnUse"><circle cx="240" cy="240" r="240" fill="url(#a)"/></mask><g mask="url(#b)"><circle cx="240" cy="240" r="240" fill="#FF1E39"/><circle cx="240" cy="240" r="208" fill="#fff"/></g><circle cx="240" cy="240" r="184" fill="#0E052F"/><path fill="#001B3A" d="M240 424c101.62 0 184-82.38 184-184S341.62 56 240 56 56 138.38 56 240s82.38 184 184 184z"/><path fill="#fff" d="m159.799 166.814-2.622-4.301L125 181.028v-2.806L237.045 113.5l2.415 1.495 5.083 2.806 5.036 2.99-68.655 39.652-2.61-4.301-18.515 10.672zm0 40.768-2.622-4.301L125 221.796v-3.002l147.384-84.905 2.461 1.496 5.037 2.794 5.048 2.99-68.85 39.675-2.415-4.312-53.866 31.05zm0 20.378-2.622-4.462L125 242.174v-2.967l164.979-95.232 2.415 1.495 5.083 3.002 5.037 2.828-68.85 39.641-2.415-4.289-71.45 41.308zm0 20.217-2.622-4.301L125 262.391v-2.795l182.562-105.328 2.415 1.322 5.06 2.979 5.061 2.817-68.265 39.48-2.449-4.324-89.585 51.635zm0 20.378-2.622-4.29L125 282.78v-2.806l200.146-115.575 2.633 1.461 4.83 2.829 5.084 2.99-68.276 39.479-2.45-4.496-107.168 61.893zm185.53-92.576 3.749 2.243v7.302l-79.661 45.817-2.45-4.301-107.168 61.904-2.622-4.301L125 303.158v-2.794l217.741-125.879 2.588 1.494zM138.835 315.521l-2.415-1.495 212.658-122.705v14.386l-80.063 46.391-2.599-4.473-106.985 61.904-2.633-4.301-17.963 10.293zm127.581-47.507-89.056 51.428-2.6-4.289-18.331 10.66-2.415-1.495 195.064-112.619v14.421l-80.063 46.391-2.599-4.497zm-92.403 67.896-2.45-1.495 177.515-102.499v14.582l-80.063 46.195-2.599-4.301-71.473 41.343-2.415-4.485-18.515 10.66zm17.756 10.086-2.622-1.288 159.931-92.414v14.593l-80.063 46.184-2.599-4.289-53.878 31.05-2.426-4.301-18.343 10.465zm14.973 8.797 142.336-82.11v14.582l-80.063 46.23-2.599-4.335-36.295 20.964-2.415-4.496-18.342 10.66-2.622-1.495zm20.205 11.592-2.449-1.299 124.58-72.025v14.594l-80.063 46.218-2.599-4.496-18.539 10.833-2.587-4.29-18.343 10.465zm40.4-235.497-68.828 39.675-2.449-4.301-36.271 20.93-2.622-4.289L125 201.418V198.6l129.628-75.026 2.622 1.495 5.048 3.013 5.049 2.795v.011z"/><defs><linearGradient id="a" x1="240" x2="240" y1="0" y2="701.818" gradientUnits="userSpaceOnUse"><stop stop-color="#08021E"/><stop offset="1" stop-color="#1F0777"/></linearGradient></defs></svg>