<svg xmlns="http://www.w3.org/2000/svg" width="480" height="480" fill="none"><mask id="b" width="480" height="480" x="0" y="0" maskUnits="userSpaceOnUse"><circle cx="240" cy="240" r="240" fill="url(#a)"/></mask><g mask="url(#b)"><circle cx="240" cy="240" r="240" fill="#FF1E39"/><circle cx="240" cy="240" r="208" fill="#fff"/></g><circle cx="240" cy="240" r="184" fill="#0E052F"/><path fill="#000" d="M240 424c101.62 0 184-82.38 184-184S341.62 56 240 56 56 138.38 56 240s82.38 184 184 184z"/><path fill="#fff" d="M340.568 197.059c-9.189-6.521-19.022-13.478-28.636-20.378-.218-.161-.425-.322-.69-.483a12.857 12.857 0 00-3.771-2.151l-.116-.057a37244.526 37244.526 0 01-77.153-19.021l-68.816-16.986-1.806-.483c-2.07-.586-4.461-1.242-7.014-.92a4.83 4.83 0 00-1.955.759l-.645.541a7.929 7.929 0 00-1.805 2.909l-.161.437v2.473l.115.379c14.49 41.228 29.371 83.053 43.723 123.522 11.052 31.165 22.54 63.434 33.741 95.128.69 2.15 2.656 3.565 5.106 3.772h.529a5.975 5.975 0 005.313-2.967l42.09-62.25c10.246-15.145 20.505-30.337 30.763-45.482l12.592-18.653c6.9-10.235 14.03-20.804 21.102-31.096l.369-.529v-.656c.161-1.886.207-5.761-2.875-7.82v.012zm-49.312 22.689c-9.89 5.221-19.976 10.615-30.131 15.951l17.757-19.297c7.383-8.085 15.088-16.445 22.632-24.633l.161-.161c.632-.863 1.437-1.668 2.288-2.53.575-.587 1.219-1.185 1.805-1.886 3.933 2.76 7.912 5.554 11.742 8.303 2.76 1.989 5.578 3.99 8.453 5.98a2939.391 2939.391 0 00-34.707 18.273zm-25.392-2.587a5335.171 5335.171 0 01-23.276 25.38 15047.838 15047.838 0 00-45.598-55.832l-20.459-24.955-.045-.058c-1.541-1.771-3.037-3.714-4.52-5.543-.955-1.242-1.967-2.426-2.979-3.668 6.164 1.61 12.386 3.128 18.492 4.577 5.371 1.299 10.949 2.645 16.423 4.048l92.517 22.793c-10.258 11.109-20.573 22.367-30.555 33.258zm-26.738 105.041c.586-5.658 1.23-11.477 1.759-17.193.483-4.588.955-9.269 1.438-13.742.736-7.176 1.541-14.605 2.185-21.885l.15-1.288c.529-4.646 1.057-9.43 1.379-14.237a15.89 15.89 0 011.921-.92c.793-.368 1.587-.69 2.381-1.173a7011.792 7011.792 0 0136.88-19.515c12.282-6.463 24.874-13.156 37.363-19.78a10773.69 10773.69 0 00-33.856 50.025c-9.51 14.053-19.285 28.554-29.014 42.837-3.818 5.716-7.808 11.535-11.58 17.135-4.255 6.256-8.614 12.662-12.858 19.09a735.92 735.92 0 011.852-19.354zm-74.06-156.998c-.69-1.944-1.449-3.933-2.081-5.819 14.352 17.572 28.795 35.247 42.883 52.382 7.279 8.89 14.559 17.733 21.838 26.68 1.438 1.668 2.875 3.45 4.255 5.175 1.806 2.208 3.612 4.531 5.578 6.739-.644 5.543-1.173 11.155-1.759 16.537-.368 3.772-.737 7.556-1.162 11.385v.046c-.161 2.415-.483 4.853-.748 7.222l-1.218 10.73-.058.368c-.955 10.89-2.127 21.884-3.243 32.556-.471 4.416-.897 8.947-1.38 13.478-.264-.805-.575-1.621-.851-2.38a246.425 246.425 0 01-2.335-6.624l-5.692-16.008-54.039-152.467"/><defs><linearGradient id="a" x1="240" x2="240" y1="0" y2="701.818" gradientUnits="userSpaceOnUse"><stop stop-color="#08021E"/><stop offset="1" stop-color="#1F0777"/></linearGradient></defs></svg>