<svg xmlns:xlink="http://www.w3.org/1999/xlink" width="480" height="480" fill="none" xmlns="http://www.w3.org/2000/svg">
  <mask id="b" width="480" height="480" x="0" y="0" maskUnits="userSpaceOnUse">
    <circle cx="240" cy="240" r="240" fill="url(#a)"/>
  </mask>
  <g mask="url(#b)">
    <circle cx="240" cy="240" r="240" fill="#FF1E39"/>
    <circle cx="240" cy="240" r="208" fill="#fff"/>
  </g>
  <circle cx="240" cy="240" r="184" fill="#0E052F"/>
  <circle cx="240" cy="240" r="184" fill="url(#c)"/>
  <mask id="d" width="332" height="332" x="74" y="74" maskUnits="userSpaceOnUse">
    <circle cx="240" cy="240" r="165.6" fill="#fff"/>
  </mask>
  <g mask="url(#d)">
    <path fill="url(#e)" fill-opacity=".5" d="M642.861 123.498h689.387v387.627H642.861z" transform="rotate(135 642.861 123.498)"/>
    <circle cx="240" cy="240" r="165.6" fill="#fff" opacity=".5"/>
    <path fill="#FF007A" d="M201.479 148.889c-2.853-.443-2.973-.495-1.631-.701 2.573-.396 8.647.144 12.833 1.139 9.771 2.323 18.663 8.273 28.154 18.841l2.522 2.807 3.608-.58c15.197-2.442 30.655-.501 43.587 5.473 3.557 1.643 9.165 4.914 9.866 5.755.223.268.633 1.992.91 3.832.962 6.367.48 11.247-1.466 14.892-1.06 1.983-1.12 2.612-.408 4.309.57 1.354 2.155 2.357 3.725 2.356 3.213-.005 6.672-5.2 8.275-12.427l.636-2.871 1.261 1.428c6.917 7.837 12.351 18.525 13.284 26.131l.242 1.985-1.162-1.803c-2.002-3.103-4.012-5.216-6.586-6.92-4.642-3.07-9.548-4.116-22.545-4.801-11.736-.617-18.378-1.62-24.966-3.768-11.206-3.654-16.856-8.52-30.169-25.986-5.913-7.758-9.567-12.05-13.203-15.506-8.26-7.854-16.376-11.974-26.767-13.585"/>
    <path fill="#FF007A" d="M303.066 166.21c.295-5.199 1-8.628 2.417-11.759.561-1.239 1.087-2.254 1.168-2.254s-.163.915-.542 2.033c-1.031 3.039-1.2 7.196-.49 12.032.901 6.136 1.413 7.021 7.899 13.649 3.041 3.109 6.579 7.03 7.863 8.714l2.332 3.061-2.332-2.188c-2.852-2.675-9.411-7.892-10.861-8.638-.971-.5-1.116-.491-1.714.105-.553.55-.669 1.375-.747 5.28-.118 6.084-.947 9.99-2.95 13.895-1.081 2.112-1.253 1.662-.273-.722.732-1.781.807-2.563.801-8.454-.012-11.835-1.417-14.68-9.657-19.554-2.088-1.235-5.528-3.016-7.643-3.958-2.117-.942-3.797-1.762-3.736-1.824.233-.232 8.27 2.114 11.504 3.358 4.81 1.851 5.605 2.09 6.189 1.867.392-.15.581-1.29.772-4.643m-96.047 20.247c-5.79-7.973-9.373-20.196-8.597-29.334l.239-2.827 1.318.24c2.476.452 6.744 2.04 8.742 3.254 5.485 3.331 7.858 7.716 10.274 18.977.707 3.298 1.636 7.031 2.063 8.294.688 2.034 3.286 6.785 5.399 9.87 1.522 2.223.511 3.276-2.852 2.972-5.138-.464-12.097-5.266-16.586-11.446m89.023 59.334c-27.062-10.895-36.593-20.354-36.593-36.312 0-2.347.081-4.269.179-4.269s1.146.775 2.327 1.723c5.487 4.401 11.633 6.28 28.645 8.763 10.01 1.459 15.643 2.639 20.841 4.363 16.517 5.478 26.736 16.595 29.173 31.736.708 4.4.293 12.65-.855 16.999-.907 3.434-3.673 9.625-4.406 9.862-.203.067-.404-.713-.455-1.774-.279-5.685-3.152-11.221-7.977-15.368-5.487-4.713-12.857-8.467-30.879-15.723m-18.999 4.526c-.339-2.017-.927-4.595-1.306-5.726l-.692-2.058 1.283 1.441c1.775 1.991 3.177 4.54 4.366 7.936.907 2.592 1.01 3.362 1.003 7.573-.007 4.134-.12 5.001-.959 7.334-1.32 3.678-2.96 6.286-5.711 9.085-4.943 5.031-11.299 7.816-20.47 8.972-1.594.2-6.241.538-10.326.751-10.295.536-17.071 1.642-23.158 3.78-.876.307-1.657.493-1.736.414-.247-.244 3.898-2.715 7.323-4.364 4.827-2.326 9.633-3.596 20.4-5.388 5.319-.886 10.812-1.961 12.207-2.389 13.172-4.039 19.943-14.461 17.776-27.361"/>
    <path fill="#FF007A" d="M289.448 272.349c-3.595-7.729-4.42-15.191-2.451-22.151.21-.744.55-1.353.753-1.353.205 0 1.053.459 1.886 1.02 1.656 1.114 4.98 2.994 13.833 7.821 11.047 6.023 17.345 10.686 21.629 16.015 3.751 4.667 6.073 9.981 7.19 16.463.633 3.671.262 12.504-.679 16.202-2.971 11.656-9.874 20.811-19.72 26.154-1.443.782-2.739 1.424-2.878 1.428-.141.003.385-1.334 1.167-2.97 3.313-6.925 3.69-13.66 1.186-21.156-1.533-4.59-4.659-10.191-10.972-19.657-7.339-11.006-9.138-13.934-10.944-17.816m-101.647 41.704c10.043-8.48 22.538-14.503 33.92-16.353 4.905-.796 13.078-.48 17.62.682 7.28 1.864 13.793 6.037 17.181 11.01 3.31 4.86 4.73 9.095 6.209 18.517.583 3.716 1.218 7.449 1.41 8.294 1.11 4.884 3.271 8.788 5.949 10.748 4.253 3.112 11.577 3.306 18.782.496 1.222-.477 2.284-.807 2.358-.732.262.259-3.366 2.686-5.925 3.966-3.444 1.72-6.183 2.385-9.822 2.385-6.598 0-12.076-3.356-16.648-10.202-.899-1.346-2.92-5.381-4.493-8.965-4.825-11.008-7.209-14.361-12.812-18.031-4.878-3.193-11.167-3.766-15.898-1.446-6.216 3.047-7.949 10.989-3.497 16.024 1.769 1.999 5.068 3.725 7.766 4.06 5.046.629 9.384-3.211 9.384-8.306 0-3.309-1.272-5.197-4.474-6.643-4.371-1.972-9.072.335-9.05 4.441.01 1.752.774 2.852 2.529 3.646 1.127.51 1.153.551.233.36-4.011-.832-4.951-5.668-1.725-8.879 3.872-3.854 11.881-2.154 14.631 3.107 1.155 2.21 1.289 6.611.282 9.269-2.254 5.948-8.827 9.077-15.496 7.375-4.539-1.159-6.388-2.414-11.862-8.053-9.51-9.797-13.202-11.695-26.914-13.835l-2.627-.411z"/>
    <path fill="#FF007A" fill-rule="evenodd" d="M142.864 133.007c31.762 38.55 53.949 60.151 56.38 63.511 2.007 2.775 1.252 5.269-2.187 7.224-1.912 1.087-5.844 2.189-7.812 2.189-2.227 0-4.735-1.072-6.561-2.805-1.291-1.224-6.502-9.005-18.53-27.668-9.203-14.281-16.905-26.128-17.115-26.326-.486-.459-.478-.443 16.177 29.356 10.458 18.713 13.988 25.328 13.988 26.213 0 1.799-.491 2.745-2.711 5.221-3.701 4.129-5.355 8.767-6.549 18.368-1.339 10.761-5.103 18.363-15.535 31.373-6.107 7.616-7.107 9.013-8.647 12.082-1.941 3.867-2.475 6.031-2.691 10.913-.229 5.161.216 8.494 1.793 13.429 1.381 4.319 2.821 7.172 6.505 12.878 3.179 4.924 5.009 8.582 5.009 10.014 0 1.139.218 1.14 5.144.027 11.788-2.661 21.36-7.343 26.744-13.081 3.332-3.552 4.114-5.512 4.139-10.38.017-3.182-.095-3.849-.956-5.681-1.4-2.98-3.95-5.458-9.57-9.3-7.364-5.034-10.509-9.087-11.378-14.66-.713-4.573.114-7.8 4.188-16.338 4.216-8.837 5.261-12.604 5.968-21.512.456-5.754 1.089-8.025 2.742-9.846 1.725-1.9 3.277-2.544 7.545-3.126 6.959-.951 11.389-2.751 15.031-6.108 3.16-2.911 4.482-5.716 4.685-9.939l.154-3.201-1.766-2.059c-6.394-7.455-68.466-66.629-68.859-66.629-.084 0 2.02 2.638 4.675 5.861m15.103 155.49c1.446-2.561.678-5.852-1.74-7.458-2.285-1.52-5.834-.805-5.834 1.175 0 .605.334 1.044 1.087 1.431 1.268.652 1.36 1.386.362 2.885-1.01 1.519-.928 2.853.23 3.76 1.868 1.462 4.511.659 5.895-1.793m55.238-71.736c-3.267 1.002-6.442 4.464-7.425 8.095-.599 2.215-.259 6.099.639 7.298 1.452 1.938 2.854 2.448 6.654 2.422 7.438-.052 13.906-3.242 14.658-7.231.616-3.27-2.225-7.801-6.137-9.789-2.018-1.026-6.312-1.434-8.389-.795m8.696 6.799c1.147-1.63.645-3.392-1.305-4.583-3.717-2.27-9.335-.391-9.335 3.118 0 1.747 2.93 3.654 5.616 3.654 1.788 0 4.235-1.067 5.024-2.189" clip-rule="evenodd"/>
  </g>
  <defs>
    <linearGradient id="a" x1="240" x2="240" y1="0" y2="701.818" gradientUnits="userSpaceOnUse">
      <stop stop-color="#08021E"/>
      <stop offset="1" stop-color="#1F0777"/>
    </linearGradient>
    <linearGradient id="c" x1="121.013" x2="372.48" y1="92.8" y2="384.747" gradientUnits="userSpaceOnUse">
      <stop stop-color="#F8EEF4"/>
      <stop offset="1" stop-color="#FBCCE2"/>
    </linearGradient>
    <pattern id="e" width="1" height="1" patternContentUnits="objectBoundingBox">
      <use xlink:href="#f" transform="scale(.00083 .00148)"/>
    </pattern>
  </defs>
</svg>
