<svg xmlns="http://www.w3.org/2000/svg" width="480" height="480" fill="none"><mask id="b" width="480" height="480" x="0" y="0" maskUnits="userSpaceOnUse"><circle cx="240" cy="240" r="240" fill="url(#a)"/></mask><g mask="url(#b)"><circle cx="240" cy="240" r="240" fill="#FF1E39"/><circle cx="240" cy="240" r="208" fill="#fff"/></g><circle cx="240" cy="240" r="184" fill="#0E052F"/><path fill="#F60" d="M240 424c101.62 0 184-82.38 184-184S341.62 56 240 56 56 138.38 56 240s82.38 184 184 184z"/><path fill="#fff" d="M239.652 116.203c68.828 0 124.488 55.66 124.488 124.476a127.307 127.307 0 0 1-6.417 39.468h-37.099V175.566l-80.96 80.96-80.96-80.96v104.581h-37.111a127.33 127.33 0 0 1-6.405-39.468c0-68.816 55.66-124.476 124.476-124.476h-.012zm-18.537 158.528 18.883 18.572 18.549-18.561 35.086-35.42v65.78h52.291a124.272 124.272 0 0 1-106.26 59.708c-44.873 0-84.341-23.943-106.26-59.708h52.279v-65.78l35.42 35.42.012-.011z"/><defs><linearGradient id="a" x1="240" x2="240" y1="0" y2="701.818" gradientUnits="userSpaceOnUse"><stop stop-color="#08021E"/><stop offset="1" stop-color="#1F0777"/></linearGradient></defs></svg>