<svg width="480" height="480" viewBox="0 0 480 480" fill="none" xmlns="http://www.w3.org/2000/svg"><mask id="mask0-593251" maskUnits="userSpaceOnUse" x="0" y="0" width="480" height="480"><circle cx="240" cy="240" r="240" fill="url(#paint0_linear-348510)"/></mask><g mask="url(#mask0-593251)"><circle cx="240" cy="240" r="240" fill="#FF1E39"/><circle cx="240" cy="240" r="208" fill="#fff"/></g><circle cx="240" cy="240" r="184" fill="#0E052F"/><path d="M240 424c101.62 0 184-82.38 184-184S341.62 56 240 56 56 138.38 56 240s82.38 184 184 184z" fill="#23292F"/><path d="M321.305 148h33.235l-69.173 68.505a64.636 64.636 0 01-90.734 0L125.402 148h33.293l52.555 52.014a40.894 40.894 0 0057.454 0L321.305 148zM158.293 338.474H125l69.633-68.919a64.64 64.64 0 0190.734 0L355 338.463h-33.293L268.75 286a40.893 40.893 0 00-57.454 0l-53.015 52.474h.012z" fill="#fff"/><defs><linearGradient id="paint0_linear-348510" x1="240" y1="0" x2="240" y2="701.818" gradientUnits="userSpaceOnUse"><stop stop-color="#08021E"/><stop offset="1" stop-color="#1F0777"/></linearGradient></defs></svg>