<svg width="480" height="480" viewBox="0 0 480 480" fill="none" xmlns="http://www.w3.org/2000/svg"><mask id="mask0-126636" maskUnits="userSpaceOnUse" x="0" y="0" width="480" height="480"><circle cx="240" cy="240" r="240" fill="url(#paint0_linear-937560)"/></mask><g mask="url(#mask0-126636)"><circle cx="240" cy="240" r="240" fill="#FF1E39"/><circle cx="240" cy="240" r="208" fill="#fff"/></g><circle cx="240" cy="240" r="184" fill="#0E052F"/><path d="M240 424c101.62 0 184-82.38 184-184S341.62 56 240 56 56 138.38 56 240s82.38 184 184 184z" fill="#A6E000"/><path fill-rule="evenodd" clip-rule="evenodd" d="M265.185 355c-16.79 0-29.026-3.956-36.708-11.845-7.671-7.912-11.512-16.434-11.512-25.565 0-3.335.667-6.152 2.013-8.429a14.6 14.6 0 015.485-5.405c2.323-1.311 5.175-1.978 8.568-1.978 3.392 0 6.256.667 8.579 1.978a14.638 14.638 0 015.485 5.405c1.346 2.277 2.013 5.094 2.013 8.429 0 4.037-.978 7.326-2.944 9.879a13.614 13.614 0 01-6.969 5.002c2.323 3.163 5.98 5.405 10.982 6.717 5.003 1.414 10.005 2.115 14.996 2.115a33.687 33.687 0 0018.895-5.531c5.623-3.692 9.775-9.142 12.443-16.33 2.679-7.21 4.025-15.376 4.025-24.506 0-9.925-1.472-18.4-4.416-25.427-2.864-7.118-7.107-12.385-12.731-15.812a34.377 34.377 0 00-18.216-5.129c-4.278 0-9.637 1.747-16.065 5.266l-11.788 5.797v-5.797l53.038-69.552h-73.393v72.186c0 5.98 1.334 10.891 4.025 14.755 2.668 3.864 6.785 5.795 12.305 5.795 4.29 0 8.395-1.403 12.328-4.22a43.242 43.242 0 0010.178-10.269 3.94 3.94 0 011.345-1.726 2.718 2.718 0 011.737-.643c.989 0 2.139.483 3.484 1.437a7.114 7.114 0 011.875 4.876 33.464 33.464 0 01-.667 3.691c-3.036 6.67-7.245 11.765-12.593 15.284a31.602 31.602 0 01-17.675 5.267c-15.893 0-26.876-3.07-32.948-9.223-6.072-6.141-9.108-14.49-9.108-25.024v-72.186H153.75v-13.443h37.49v-30.544l-8.556-8.441V125h24.909l9.372 4.738v41.101l96.957-.264 9.66 9.487-59.478 58.489a40.393 40.393 0 0111.247-2.645c6.44 0 13.662 2.024 21.7 6.072 8.131 3.945 14.375 9.395 18.745 16.33 4.382 6.854 7.199 13.444 8.441 19.769a82.33 82.33 0 012.013 16.859 69.228 69.228 0 01-7.234 31.349 46.423 46.423 0 01-21.965 21.597A72.336 72.336 0 01265.185 355z" fill="#fff"/><defs><linearGradient id="paint0_linear-937560" x1="240" y1="0" x2="240" y2="701.818" gradientUnits="userSpaceOnUse"><stop stop-color="#08021E"/><stop offset="1" stop-color="#1F0777"/></linearGradient></defs></svg>