<svg width="300" height="300" viewBox="0 0 300 300" fill="none" xmlns="http://www.w3.org/2000/svg"><path d="M150 300c82.843 0 150-67.157 150-150S232.843 0 150 0 0 67.157 0 150s67.157 150 150 150z" fill="#F56070"/><path d="M55.42 114.2c2.333 0 4.266.767 5.8 2.3 1.533 1.467 2.3 3.333 2.3 5.6 0 2.267-.767 4.167-2.3 5.7-1.534 1.533-3.467 2.3-5.8 2.3-2.334 0-4.3-.767-5.9-2.3-1.534-1.533-2.3-3.433-2.3-5.7 0-2.267.766-4.133 2.3-5.6 1.6-1.533 3.566-2.3 5.9-2.3zm-7.1 21.4h14.1V187h-14.1v-51.4zm43.426 15.7l-21.8-34.3h18.2l13.8 22 14.1-22h16.4l-21.8 34.3 22.9 35.7h-18.3l-14.9-23.5-15.2 23.5h-16.3l22.9-35.7zm45.475-34.3h55.4v12.9h-20.2V187h-15v-57.1h-20.2V117zm61.166 0h55.6v9.9l-35.9 47.3h36.8V187h-57.4v-9.9l35.9-47.3h-35V117z" fill="#1E1A31"/></svg>