<svg xmlns="http://www.w3.org/2000/svg" width="480" height="480" fill="none"><mask id="b" width="480" height="480" x="0" y="0" maskUnits="userSpaceOnUse"><circle cx="240" cy="240" r="240" fill="url(#a)"/></mask><g mask="url(#b)"><circle cx="240" cy="240" r="240" fill="#FF1E39"/><circle cx="240" cy="240" r="208" fill="#fff"/></g><circle cx="240" cy="240" r="184" fill="#0E052F"/><path fill="#006AE3" fill-rule="evenodd" d="M240 56c101.605 0 184 82.395 184 184s-82.395 184-184 184S56 341.605 56 240 138.395 56 240 56z" clip-rule="evenodd"/><path fill="#fff" d="M232.419 317.574V164.486h16.67v153.088h-16.67z"/><path fill="#fff" d="M317.28 215.491l-51.483 13.653-11.482-53.434 15.309-3.459 6.035 25.318s13.911-22.816-4.636-46.441c-10.93-12.144-16.119-12.659-28.373-14.573-10.783-1.546-35.843 2.098-43.314 31.354-3.165 18.841.405 32.788 24.693 51.041l-1.362 20.314s-27.121-19.099-34.113-32.495c-5.41-10.598-14.683-31.537 2.061-60.683 9.016-14.573 26.79-28.557 58.107-27.085 15.75.663 54.206 19.909 48.245 64.879-1.031 8.427-5.41 19.651-5.41 19.651l21.123-4.71 4.6 16.67zm-29.403 119.784c-9.421 14.315-27.564 27.821-58.807 25.539-15.75-1.067-53.654-21.344-46.515-66.129 1.251-8.391 5.925-19.468 5.925-19.468l-21.234 4.122-4.158-16.744 51.851-12.291 10.083 53.728-15.419 3.054-5.373-25.502s-14.499 22.411 3.386 46.552c10.598 12.438 15.75 13.064 28.005 15.309 10.708 1.84 35.88-1.178 44.123-30.213 3.643-18.731.441-32.789-23.331-51.704l1.913-20.277s26.607 19.798 33.231 33.378c5.078 10.782 13.8 31.979-3.68 60.646z"/><defs><linearGradient id="a" x1="240" x2="240" y1="0" y2="701.818" gradientUnits="userSpaceOnUse"><stop stop-color="#08021E"/><stop offset="1" stop-color="#1F0777"/></linearGradient></defs></svg>