<svg width="480" height="480" viewBox="0 0 480 480" fill="none" xmlns="http://www.w3.org/2000/svg"><mask id="mask0" maskUnits="userSpaceOnUse" x="0" y="0" width="480" height="480"><circle cx="240" cy="240" r="240" fill="url(#paint0_linear)"/></mask><g mask="url(#mask0)"><circle cx="240" cy="240" r="240" fill="#31D8A4"/><circle cx="240" cy="240" r="208" fill="#fff"/></g><circle cx="240" cy="240" r="184" fill="#0E052F"/><path d="M239.761 389.991c79.397 0 143.76-64.365 143.76-143.761 0-79.397-64.363-143.761-143.76-143.761C160.364 102.469 96 166.833 96 246.23c0 79.396 64.364 143.761 143.761 143.761z" fill="#ECF3FF"/><path d="M200.945 158.545l-50.316-20.127v7.188l43.128 38.816-2.875 40.253-12.939 54.629-17.251 24.439 4.313 34.503 21.564 2.875 17.251-2.875 17.251 2.875 30.19-18.689 5.751-30.189 35.94-34.503 15.814 11.5 15.813 23.003v46.003l21.565-5.751 21.564-47.441 5.75-60.379-77.63-113.571-12.939-2.875-81.944 50.316z" fill="#fff"/><path d="M124.752 241.629c.575-4.887.863-9.775 2.301-14.375 4.025-18.977 11.788-37.091 23.289-51.754 2.013-2.588 3.738-4.888 6.038-7.189l-12.939-12.076c-2.3 3.451-4.6 6.901-6.613 10.352-10.638 18.401-16.388 39.102-17.826 59.516-.575 5.176-.288 10.351-.288 15.239 0 5.175.575 10.063 1.438 15.239 1.438 10.063 4.025 19.838 7.476 29.039-2.301-9.776-3.451-19.551-3.738-29.614 0-4.601 0-9.489.862-14.377zm58.943-93.147c-7.188-3.451-17.251-8.051-24.439-11.501 6.613-6.326 18.688-12.939 28.752-17.252-7.188 5.751-7.188 17.827-4.313 28.753zm-29.041 48.868c-4.025 10.064-6.612 20.702-7.475 31.053-.288 2.587-.575 5.176-.288 7.763 0 2.588 0 5.175.288 7.763l.288 4.025c0 1.15.287 2.588.575 3.738l1.15 7.763.287-7.763c0-1.15 0-2.588.288-3.738l.575-3.738c.287-2.587.862-5.175 1.15-7.475.287-2.588 1.15-4.888 1.725-7.188 2.588-9.776 6.9-18.689 12.076-27.027 3.45-5.463 7.475-10.351 11.788-14.951l-11.213-10.638c-4.888 6.612-8.338 13.226-11.214 20.413zm166.475-49.165c-15.238-5.463-21.277-3.738-21.277-3.738s-9.488 25.589-45.715 27.315c.287.287 32.777 19.263 66.992-23.577zm10.351 50.891c-1.437 31.628-25.877 43.416-44.853 41.116-10.351-1.438-25.59 3.45-25.59 3.45l-19.264 33.352-6.325 2.301 10.925-20.127s-25.877 9.488-27.889 10.351c-2.013.863-10.064 12.651-16.676 25.014-1.438-8.625-6.901-14.663-6.901-14.951 0 1.438 2.876 27.315-.287 34.503-3.163 7.476-17.252 12.364-17.252 12.364l20.702 7.763 1.437.575 15.527-14.664 5.75-21.852 7.188-5.175s17.826-2.013 15.239 14.088c-1.15 7.763-9.776 7.188-19.552 13.226-5.75 3.45-13.225 8.914-16.963 12.651l10.35 7.476s12.364-2.012 29.902-15.814c17.827-14.376 8.914-29.902 8.914-29.902l29.039-34.79 18.977 1.438s32.777 8.338 43.416 39.39c21.276-59.517-12.939-98.907-15.814-101.783z" fill="#94A6C4"/><path d="M364.833 174.359c5.175 2.3 9.2 5.74 12.938 8.903-25.877-89.707-109.833-79.643-111.558-79.068 2.012-3.163 9.488-8.051 16.389-10.639 0 0-35.653-12.65-68.143 9.776.575-5.175 6.901-12.939 6.901-12.939-44.854 19.275-47.729 42.276-39.104 56.067-7.187-3.45-14.376-6.613-21.564-10.063-22.139-10.638-41.115-19.551-42.265-19.839-2.013-.575-2.876.288-2.876.288s-.862.862.863 2.587c26.164 26.165 42.841 41.989 70.73 67.568-4.6 10.35-5.175 15.526-2.875 20.989 3.163 7.475 2.875 11.213 1.725 16.101-1.437 4.888-12.938 48.304-14.951 53.192-2.013 5.175-17.251 22.426-17.538 28.177-.288 5.75 4.312 31.052 10.637 34.79 4.888 2.587 16.677 8.05 25.302 9.201 2.876.575 5.751.287 7.189-.863 5.75-3.738 7.188-4.313 10.925-4.025l.863.287c1.438.288 3.162.863 5.463 1.15 4.888.575 11.213.575 16.389-2.875 7.475-5.75 20.126-12.939 24.439-16.676 5.175-5.176 8.625-12.364 8.625-20.414 0-7.188 4.888-12.939 10.352-18.689 5.175-5.176 18.113-17.827 23.288-23.289 13.226 4.6 18.114 23.576 18.114 33.927 0 28.752-23.289 70.73-76.768 73.893-2.012 0-4.025.288-6.325.288-69.58 0-126.51-61.53-126.51-133.698 0-56.929 34.206-95.48 34.494-95.767C112.379 168.863 96 205.401 96 246.229 96 325.585 160.405 390 239.761 390s143.76-64.415 143.76-143.771c0-25.877-6.612-50.881-18.688-71.87zm-196.378-18.411l-12.076-10.351c5.464 2.875 10.926 5.75 15.814 8.338 14.951 7.763 27.315 14.663 29.615 16.389l.575.575c1.438 1.725 2.875 4.6.287 8.338-1.437 2.012-3.162 1.437-5.75-.288-2.3-1.437-14.664-11.213-28.465-23.001zm83.67 149.511c0 4.888-2.301 9.201-5.176 12.363-1.438 1.438-7.188 5.176-11.213 7.763-4.026 2.876-8.339 5.463-11.789 8.051-1.437.862-3.738 1.437-7.476.862l-8.913-1.15c5.463-5.462 20.414-17.251 25.302-19.551 5.751-2.875 9.201-6.038 6.614-12.651-2.301-6.9-11.214-6.613-11.214-6.613s5.463-1.438 9.776-.862c-5.463-2.301-12.939-1.726-16.676.862-4.026 2.875-5.176 14.663-7.763 21.852-2.588 7.475-8.339 10.638-16.964 16.676-4.888 3.163-8.051 4.025-10.351 3.738-4.888-1.438-10.638-4.026-14.664-6.039-2.3-4.312-5.175-17.826-5.462-23.289 1.149-2.875 5.75-8.625 8.05-12.076 4.6-6.325 7.188-10.063 8.338-13.513 2.013-4.888 10.351-35.653 13.514-48.591 3.162 5.463 7.475 14.663 5.463 19.839 10.35-10.926 5.75-23.864 3.45-29.04-2.013-5.176-4.313-15.238.287-25.014 4.313-9.776 19.264-36.228 19.264-36.228s2.588 6.901 8.051 6.326c5.175-.576 54.916-56.355 54.916-56.355s7.764 25.877-6.613 41.691c-14.376 15.814-26.452 17.538-26.452 17.538s16.102 5.176 32.778-3.45c4.313 15.526 8.051 31.628 8.051 33.64-1.151 2.013-17.252 29.04-18.69 30.765-.575.576-5.175 1.151-8.05 1.151-5.176.862-8.338 1.149-9.776 2.012-2.3 1.438-15.526 26.452-21.852 38.528-5.75.862-11.5 2.875-16.101 8.338 2.301-1.15 8.914-1.15 13.802-1.15 4.312.287 16.1 8.913 17.539 22.426v1.151zm-33.641 12.075c3.163-3.45 3.738-10.063 4.313-12.075.575-2.013 1.725-5.751 4.313-6.038 2.588-.288 8.051 1.437 7.476 5.75-.576 4.025-4.888 4.313-8.338 6.326-2.301 1.437-7.189 5.462-7.764 6.037zm125.072 3.738c-3.45-36.802-28.752-54.054-39.965-59.804 12.938-1.438 46.291-11.501 27.889-62.392.575 2.3 5.751 27.602-8.913 40.828-14.951 13.513-36.803 7.763-39.39 7.763-2.301-.288-13.226 10.35-28.178 30.765-1.437-.863-7.475-3.163-14.951-2.876 7.476-14.088 18.689-34.215 20.415-35.94.575-.575 5.462-1.15 8.338-1.437 5.75-.575 8.625-1.15 9.775-2.301.575-.862 4.601-7.188 8.626-14.088 2.588.287 9.488.862 10.35.575.576-.575 8.339-14.376 8.626-16.102.288-1.149-5.175-22.713-8.626-36.514 71.019 33.64 82.232 107.82 46.004 151.523z" fill="#1C324F"/><path d="M275.126 150.197c8.051-7.188 6.901-19.551 6.901-19.551l-24.152 26.739c-.288 0 7.188 1.437 17.251-7.188zm-90.281 152.099l4.025-11.501s-12.363 15.814-13.514 18.114c-1.15 2.588-.575 7.476 3.451 7.763 4.025.288 9.488-4.888 10.063-8.913.863-5.463-4.025-5.463-4.025-5.463zm37.953-69.58c8.625-.862 24.151-7.763 30.765-13.226 6.612-5.751 5.462-18.402-4.888-22.139 3.45-5.751 9.2-17.827 9.2-17.827s-37.09 43.416-39.966 43.992c-2.874.575-4.025-10.352-4.025-10.352-8.625 20.99 6.039 26.165 8.914 19.552z" fill="#1C324F"/><path d="M225.96 227.253l19.264-24.44s8.338 5.751 2.875 12.364c-6.9 7.763-22.139 12.076-22.139 12.076z" fill="#FFD925"/><path d="M277.139 118.282l-13.227 14.376c-10.638 3.163-20.988 8.913-30.765 18.402 0-5.463 15.814-29.328 43.992-32.778zm16.675 12.363c.288-3.738 0-8.05-.575-12.076 17.252 2.3 37.666 12.364 60.955 35.078-19.264-10.638-39.678-20.414-60.38-23.002zm5.176 18.689s64.117 28.178 75.906 107.246c1.725-102.933-71.306-108.108-75.906-107.246zm-93.444-45.429c-.863 2.3-37.091 41.116 8.051 56.355-24.728-22.14-8.339-56.067-8.051-56.355zm19.263 50.316s3.738-43.99 30.19-55.779c-2.012.575-55.779 16.964-30.19 55.779z" fill="#D82423"/><defs><linearGradient id="paint0_linear" x1="240" y1="0" x2="240" y2="701.818" gradientUnits="userSpaceOnUse"><stop stop-color="#08021E"/><stop offset="1" stop-color="#1F0777"/></linearGradient></defs></svg>