<svg width="42" height="42" fill="none" xmlns="http://www.w3.org/2000/svg">
  <g clip-path="url(#a)">
    <mask id="c" width="42" height="42" x="0" y="0" maskUnits="userSpaceOnUse" style="mask-type:alpha">
      <circle cx="21" cy="21" r="21" fill="url(#b)" transform="matrix(-1 0 0 1 42 0)"/>
    </mask>
    <g mask="url(#c)">
      <circle cx="21" cy="21" r="21" fill="#34EDB3" transform="matrix(-1 0 0 1 42 0)"/>
      <circle cx="18.2" cy="18.2" r="18.2" fill="#fff" transform="matrix(-1 0 0 1 39.2 2.8)"/>
    </g>
    <circle cx="16.1" cy="16.1" r="16.1" fill="#0B0B22" transform="matrix(-1 0 0 1 37.1 4.9)"/>
    <circle cx="21.1" cy="21.1" r="16.1" fill="#06061B"/>
    <path fill="#ECF3FF" d="M21.08 34.224c6.946 0 12.578-5.632 12.578-12.579S28.026 9.066 21.079 9.066 8.5 14.698 8.5 21.646c0 6.946 5.632 12.578 12.58 12.578"/>
    <path fill="#fff" d="M17.683 13.973 13.28 12.21v.63l3.774 3.396-.252 3.522-1.132 4.78-1.51 2.138.378 3.02 1.887.251 1.51-.252 1.509.252 2.641-1.635.503-2.642 3.145-3.019 1.384 1.006 1.384 2.013v4.025l1.887-.503 1.886-4.15.504-5.284-6.793-9.937-1.132-.252z"/>
    <path fill="#94A6C4" d="M11.016 21.243c.05-.428.075-.856.201-1.258.352-1.66 1.032-3.246 2.038-4.529.176-.226.327-.427.528-.629l-1.132-1.056c-.201.302-.402.603-.579.905-.93 1.61-1.434 3.422-1.56 5.208-.05.453-.024.906-.024 1.334 0 .452.05.88.125 1.333.126.88.353 1.736.654 2.54a13 13 0 0 1-.327-2.59c0-.403 0-.83.076-1.258m5.157-8.151c-.629-.302-1.51-.704-2.138-1.006.578-.554 1.635-1.132 2.516-1.51-.63.503-.63 1.56-.378 2.516m-2.541 4.276a9.5 9.5 0 0 0-.654 2.717c-.025.227-.05.453-.025.68 0 .226 0 .452.025.679l.025.352c0 .1.025.226.05.327l.101.68.025-.68c0-.1 0-.226.025-.327l.05-.327c.026-.227.076-.453.101-.654.026-.227.101-.428.151-.63.227-.854.604-1.634 1.057-2.364a9 9 0 0 1 1.031-1.308l-.98-.931a7.8 7.8 0 0 0-.982 1.786m14.567-4.302c-1.334-.478-1.862-.327-1.862-.327s-.83 2.24-4 2.39c.025.025 2.868 1.686 5.862-2.063m.906 4.454c-.126 2.767-2.265 3.798-3.925 3.597-.906-.126-2.24.302-2.24.302l-1.685 2.918-.553.201.956-1.76s-2.265.83-2.44.905c-.177.075-.881 1.107-1.46 2.189-.126-.755-.604-1.283-.604-1.309 0 .126.252 2.39-.025 3.02-.277.654-1.51 1.081-1.51 1.081l1.812.68.126.05 1.359-1.283.503-1.912.629-.453s1.56-.176 1.333 1.233c-.1.679-.855.629-1.71 1.157-.504.302-1.158.78-1.485 1.107l.906.654s1.081-.176 2.616-1.384c1.56-1.258.78-2.616.78-2.616l2.54-3.044 1.661.125s2.868.73 3.8 3.447c1.861-5.208-1.133-8.654-1.384-8.906z"/>
    <path fill="#1C324F" d="M32.023 15.356c.453.202.805.503 1.132.78-2.264-7.85-9.61-6.97-9.761-6.92.176-.276.83-.704 1.434-.93 0 0-3.12-1.107-5.963.855.05-.452.604-1.132.604-1.132-3.925 1.687-4.176 3.7-3.422 4.906-.629-.302-1.258-.579-1.886-.88-1.938-.931-3.598-1.711-3.699-1.736-.176-.05-.251.025-.251.025s-.076.075.075.226c2.29 2.29 3.749 3.674 6.19 5.912-.403.906-.454 1.359-.252 1.837.276.654.251.981.15 1.409-.125.428-1.132 4.226-1.308 4.654-.176.453-1.51 1.962-1.534 2.466-.025.503.377 2.717.93 3.044.428.226 1.46.704 2.214.805.252.05.504.025.63-.076.502-.327.628-.377.955-.352l.076.025c.126.025.277.076.478.1.427.051.981.051 1.434-.25.654-.504 1.76-1.133 2.138-1.46a2.53 2.53 0 0 0 .755-1.786c0-.629.428-1.132.906-1.635.453-.453 1.585-1.56 2.038-2.038 1.157.402 1.585 2.063 1.585 2.969 0 2.515-2.038 6.188-6.718 6.465-.176 0-.352.025-.553.025-6.088 0-11.07-5.384-11.07-11.698 0-4.982 2.993-8.355 3.018-8.38-2.415 2.29-3.848 5.487-3.848 9.06 0 6.943 5.636 12.579 12.58 12.579 6.943 0 12.578-5.636 12.578-12.58 0-2.264-.578-4.452-1.635-6.289m-17.183-1.61-1.057-.906c.478.251.956.503 1.384.73 1.308.678 2.39 1.282 2.591 1.433l.05.05c.126.151.252.403.026.73-.126.176-.277.126-.503-.025-.202-.126-1.284-.981-2.491-2.013zm7.32 13.082c0 .427-.2.805-.452 1.081-.126.126-.629.453-.981.68-.352.251-.73.478-1.032.704-.125.076-.327.126-.654.076l-.78-.101c.478-.478 1.787-1.51 2.214-1.71.503-.252.805-.53.579-1.108-.201-.604-.981-.578-.981-.578s.478-.126.855-.076c-.478-.201-1.132-.15-1.459.076-.352.251-.453 1.283-.68 1.912-.226.654-.729.93-1.484 1.459-.427.277-.704.352-.905.327a8.5 8.5 0 0 1-1.283-.529c-.202-.377-.453-1.56-.478-2.037.1-.252.503-.755.704-1.057.403-.553.629-.88.73-1.182.176-.428.905-3.12 1.182-4.252.277.478.654 1.283.478 1.736.906-.956.503-2.088.302-2.541-.176-.453-.377-1.333.025-2.189.378-.855 1.686-3.17 1.686-3.17s.226.604.704.554c.453-.05 4.805-4.931 4.805-4.931s.68 2.264-.578 3.648c-1.258 1.383-2.315 1.534-2.315 1.534s1.409.453 2.868-.302c.378 1.359.705 2.768.705 2.944-.101.176-1.51 2.54-1.636 2.692-.05.05-.453.1-.704.1-.453.076-.73.101-.855.177-.202.125-1.36 2.314-1.912 3.37-.504.076-1.007.252-1.41.73.202-.1.78-.1 1.208-.1.378.025 1.41.78 1.535 1.962zm-2.943 1.056c.277-.302.327-.88.378-1.056s.15-.504.377-.529c.226-.025.705.126.654.503-.05.353-.428.378-.73.554a7 7 0 0 0-.679.528m10.944.327c-.302-3.22-2.516-4.73-3.497-5.233 1.132-.125 4.05-1.006 2.44-5.459.05.201.504 2.415-.78 3.573-1.308 1.182-3.22.679-3.446.679-.201-.025-1.157.905-2.465 2.692-.126-.076-.655-.277-1.309-.252.654-1.233 1.636-2.994 1.787-3.145.05-.05.477-.1.73-.125.502-.05.754-.101.854-.202.05-.075.403-.629.755-1.232.227.025.83.075.906.05.05-.05.73-1.258.755-1.409.025-.1-.453-1.987-.755-3.195 6.214 2.944 7.195 9.434 4.025 13.258"/>
    <path fill="#1C324F" d="M24.174 13.242c.704-.629.603-1.71.603-1.71l-2.113 2.34c-.025 0 .629.125 1.51-.63m-7.9 13.308.352-1.005s-1.082 1.383-1.182 1.584c-.101.227-.05.655.301.68.353.025.83-.428.881-.78.075-.478-.352-.478-.352-.478zm3.321-6.087c.754-.076 2.113-.68 2.692-1.158.578-.503.478-1.61-.428-1.937.302-.503.805-1.56.805-1.56s-3.245 3.8-3.497 3.85-.352-.906-.352-.906c-.755 1.836.528 2.29.78 1.71z"/>
    <path fill="#FFD925" d="m19.872 19.985 1.685-2.139s.73.503.252 1.082c-.604.68-1.938 1.057-1.938 1.057z"/>
    <path fill="#D82423" d="m24.35 10.45-1.158 1.258c-.93.276-1.836.78-2.692 1.61 0-.478 1.384-2.566 3.85-2.868m1.459 1.081c.025-.327 0-.704-.05-1.056 1.509.201 3.295 1.082 5.333 3.07-1.686-.932-3.472-1.787-5.283-2.014m.453 1.636s5.61 2.465 6.641 9.384c.151-9.007-6.239-9.46-6.641-9.384m-8.177-3.975c-.075.201-3.245 3.597.705 4.93-2.164-1.936-.73-4.905-.705-4.93m1.685 4.402s.328-3.849 2.642-4.88c-.176.05-4.88 1.484-2.641 4.88z"/>
  </g>
  <defs>
    <linearGradient id="b" x1="21" x2="21" y1="0" y2="61.409" gradientUnits="userSpaceOnUse">
      <stop stop-color="#08021E"/>
      <stop offset="1" stop-color="#1F0777"/>
    </linearGradient>
    <clipPath id="a">
      <path fill="#fff" d="M0 0h42v42H0z"/>
    </clipPath>
  </defs>
</svg>
