<svg width="480" height="480" viewBox="0 0 480 480" fill="none" xmlns="http://www.w3.org/2000/svg"><mask id="mask0" maskUnits="userSpaceOnUse" x="0" y="0" width="480" height="480"><circle cx="240" cy="240" r="240" fill="url(#paint0_linear)"/></mask><g mask="url(#mask0)"><circle cx="240" cy="240" r="240" fill="#31D8A4"/><circle cx="240" cy="240" r="208" fill="#fff"/></g><circle cx="240" cy="240" r="184" fill="#0E052F"/><path fill-rule="evenodd" clip-rule="evenodd" d="M283.23 114.068c0 .038-.157.07-.349.07-.192 0-.349.031-.349.07 0 .038-.126.07-.28.07-.153 0-.279.031-.279.069 0 .039-.126.07-.28.07-.153 0-.279.032-.279.07 0 .039-.126.07-.279.07-.154 0-.28.032-.28.07 0 .038-.094.07-.209.07-.115 0-.21.031-.21.07 0 .038-.126.07-.279.07-.154 0-.28.031-.28.07 0 .038-.125.069-.279.069-.154 0-.279.032-.279.07 0 .039-.095.07-.21.07-.115 0-.209.032-.209.07 0 .039-.126.07-.28.07-.153 0-.279.031-.279.07 0 .038-.094.07-.21.07-.115 0-.209.031-.209.07 0 .038-.126.07-.28.07-.153 0-.279.031-.279.069 0 .039-.094.07-.21.07-.115 0-.209.032-.209.07 0 .039-.094.07-.21.07-.115 0-.209.032-.209.07 0 .038-.094.07-.21.07-.115 0-.209.031-.209.07 0 .038-.095.07-.21.07-.115 0-.209.031-.209.07 0 .038-.095.069-.21.069-.115 0-.209.032-.209.07 0 .039-.095.07-.21.07-.115 0-.21.032-.21.07 0 .038-.094.07-.209.07-.115 0-.21.031-.21.07 0 .038-.094.07-.209.07-.115 0-.21.031-.21.07 0 .038-.094.069-.209.069-.115 0-.21.032-.21.07 0 .039-.094.07-.209.07-.116 0-.21.032-.21.07 0 .039-.063.07-.14.07-.076 0-.139.031-.139.07 0 .038-.095.07-.21.07-.115 0-.209.031-.209.07 0 .038-.095.07-.21.07-.115 0-.209.031-.209.069 0 .039-.063.07-.14.07-.077 0-.14.032-.14.07 0 .039-.094.07-.209.07-.116 0-.21.032-.21.07 0 .038-.063.07-.14.07-.076 0-.139.031-.139.07 0 .038-.095.07-.21.07-.115 0-.209.031-.209.07 0 .038-.063.069-.14.069-.077 0-.14.032-.14.07 0 .039-.094.07-.209.07-.116 0-.21.032-.21.07 0 .039-.063.07-.139.07-.077 0-.14.031-.14.07 0 .038-.063.07-.14.07-.077 0-.14.031-.14.07 0 .038-.094.07-.209.07-.115 0-.21.031-.21.069 0 .039-.063.07-.139.07-.077 0-.14.032-.14.07 0 .039-.063.07-.14.07-.077 0-.139.032-.139.07 0 .038-.063.07-.14.07-.077 0-.14.031-.14.07 0 .038-.094.07-.209.07-.116 0-.21.031-.21.07 0 .038-.063.069-.14.069-.076 0-.139.032-.139.07 0 .039-.063.07-.14.07-.077 0-.14.032-.14.07 0 .039-.063.07-.139.07-.077 0-.14.031-.14.07 0 .038-.063.07-.14.07-.077 0-.139.031-.139.07 0 .038-.063.07-.14.07-.077 0-.14.031-.14.069 0 .039-.063.07-.14.07-.076 0-.139.032-.139.07 0 .039-.063.07-.14.07-.077 0-.14.032-.14.07 0 .038-.062.07-.139.07-.077 0-.14.031-.14.07 0 .038-.063.07-.14.07-.077 0-.139.031-.139.069 0 .039-.063.07-.14.07-.077 0-.14.032-.14.07 0 .039-.056.07-.124.07s-.17.063-.225.14c-.055.077-.157.14-.225.14s-.124.031-.124.07c0 .038-.063.069-.14.069-.077 0-.14.032-.14.07 0 .039-.062.07-.139.07-.077 0-.14.032-.14.07 0 .039-.056.07-.124.07-.069 0-.17.063-.225.14-.056.077-.157.14-.225.14-.069 0-.124.031-.124.069 0 .039-.063.07-.14.07-.077 0-.14.032-.14.07 0 .039-.056.07-.124.07s-.17.063-.225.14c-.055.077-.157.14-.225.14s-.124.031-.124.07c0 .038-.056.069-.125.069-.068 0-.169.063-.225.14-.055.077-.149.14-.209.14s-.154.063-.21.14c-.055.077-.149.14-.209.14s-.154.062-.21.139c-.055.077-.149.14-.209.14s-.154.063-.21.14c-.055.077-.149.14-.209.14s-.154.063-.21.139c-.055.077-.15.14-.209.14-.06 0-.155.063-.21.14-.055.077-.15.14-.209.14-.06 0-.155.063-.21.139-.055.077-.144.14-.197.14-.053 0-.184.095-.292.21-.108.115-.233.21-.279.21-.046 0-.172.094-.28.209-.107.116-.233.21-.279.21-.046 0-.172.094-.28.21-.107.115-.232.209-.277.209-.046 0-.203.126-.351.28-.148.154-.305.279-.348.279-.044 0-.233.158-.42.35-.188.192-.375.349-.418.349-.042 0-.357.283-.7.629-.343.346-.656.629-.696.629-.096 0-2.238 2.143-2.238 2.239 0 .04-.251.322-.558.626-.308.305-.559.588-.559.631 0 .043-.157.231-.349.418-.192.187-.35.376-.35.42 0 .044-.125.201-.279.349-.154.147-.279.305-.279.35 0 .046-.095.171-.21.279-.115.107-.209.233-.209.279 0 .046-.095.172-.21.28-.115.107-.21.239-.21.292 0 .053-.062.141-.139.197-.077.055-.14.15-.14.209 0 .06-.063.155-.14.21-.076.056-.139.144-.139.197 0 .053-.095.185-.21.292-.115.108-.209.246-.209.308 0 .061-.032.112-.07.112-.039 0-.07.056-.07.124s-.063.17-.14.225c-.077.056-.139.15-.139.21s-.063.154-.14.209c-.077.056-.14.15-.14.21s-.063.154-.14.21c-.076.055-.139.149-.139.209s-.063.155-.14.21c-.077.055-.14.157-.14.225s-.031.124-.069.124c-.039 0-.07.056-.07.125 0 .068-.063.169-.14.225-.077.055-.14.157-.14.225s-.031.124-.07.124c-.038 0-.069.063-.069.14 0 .077-.032.14-.07.14-.039 0-.07.056-.07.124 0 .069-.063.17-.14.225-.077.056-.139.157-.139.225 0 .069-.032.125-.07.125-.039 0-.07.063-.07.14 0 .076-.032.139-.07.139-.038 0-.07.056-.07.125 0 .068-.063.169-.14.225-.076.055-.139.156-.139.225 0 .068-.032.124-.07.124-.038 0-.07.063-.07.14 0 .077-.031.14-.07.14-.038 0-.07.063-.07.139 0 .077-.031.14-.069.14-.039 0-.07.063-.07.14 0 .077-.032.14-.07.14-.039 0-.07.063-.07.14 0 .076-.031.139-.07.139-.038 0-.07.063-.07.14 0 .077-.031.14-.07.14-.038 0-.069.063-.069.14 0 .077-.032.139-.07.139-.039 0-.07.063-.07.14 0 .077-.032.14-.07.14-.038 0-.07.063-.07.14 0 .077-.031.14-.07.14-.038 0-.069.062-.069.139 0 .077-.032.14-.07.14-.039 0-.07.063-.07.14 0 .077-.032.14-.07.14-.038 0-.07.063-.07.139 0 .077-.031.14-.07.14-.038 0-.07.095-.07.21 0 .115-.031.21-.069.21-.039 0-.07.062-.07.139 0 .077-.032.14-.07.14-.039 0-.07.063-.07.14 0 .077-.031.14-.07.14-.038 0-.07.062-.07.139 0 .077-.031.14-.069.14-.039 0-.07.094-.07.21 0 .115-.032.209-.07.209-.039 0-.07.063-.07.14 0 .077-.031.14-.07.14-.038 0-.07.063-.07.14 0 .077-.031.14-.07.14-.038 0-.069.094-.069.209 0 .116-.032.21-.07.21-.039 0-.07.063-.07.14 0 .077-.032.139-.07.139-.038 0-.07.095-.07.21 0 .115-.031.21-.07.21-.038 0-.069.063-.069.14 0 .076-.032.139-.07.139-.039 0-.07.095-.07.21 0 .115-.032.21-.07.21-.038 0-.07.094-.07.209 0 .116-.031.21-.07.21-.038 0-.07.063-.07.14 0 .077-.031.139-.069.139-.039 0-.07.095-.07.21 0 .115-.032.21-.07.21-.039 0-.07.094-.07.209 0 .116-.031.21-.07.21-.038 0-.07.094-.07.21 0 .115-.031.209-.069.209-.039 0-.07.095-.07.21 0 .115-.032.21-.07.21-.039 0-.07.094-.07.209 0 .116-.031.21-.07.21-.038 0-.07.094-.07.21 0 .115-.031.209-.07.209-.038 0-.069.126-.069.28 0 .154-.032.279-.07.279-.039 0-.07.095-.07.21 0 .115-.032.21-.07.21-.038 0-.07.094-.07.209 0 .116-.031.21-.07.21-.038 0-.07.126-.07.28 0 .153-.031.279-.069.279-.039 0-.07.126-.07.28 0 .154-.032.279-.07.279-.038 0-.07.126-.07.28 0 .154-.031.279-.07.279-.038 0-.07.095-.07.21 0 .115-.031.21-.069.21-.039 0-.07.157-.07.349 0 .192-.032.35-.07.35-.039 0-.07.125-.07.279 0 .154-.031.28-.07.28-.038 0-.07.125-.07.279 0 .154-.031.28-.069.28-.039 0-.07.157-.07.349 0 .192-.032.35-.07.35-.039 0-.07.157-.07.349 0 .192-.031.349-.07.349-.038 0-.07.158-.07.35 0 .192-.031.349-.07.349-.038 0-.069.187-.069.42 0 .233-.031.419-.07.419-.039 0-.07.186-.07.419 0 .233-.031.42-.07.42-.04 0-.07.209-.07.489 0 .279-.03.489-.07.489-.04 0-.07.21-.07.489 0 .28-.029.489-.069.489-.041 0-.07.233-.07.56 0 .326-.029.559-.07.559-.042 0-.07.279-.07.699 0 .419-.028.698-.07.698-.042 0-.07.327-.07.839 0 .513-.027.839-.069.839-.044 0-.07.442-.07 1.188 0 .745-.026 1.188-.07 1.188-.044 0-.07.419-.07 1.118v1.118h.559c.326 0 .559-.029.559-.07 0-.042.279-.07.698-.07.419 0 .698-.028.698-.069 0-.042.28-.07.699-.07.419 0 .698-.028.698-.07 0-.041.233-.07.559-.07.326 0 .559-.029.559-.07 0-.041.233-.07.559-.07.326 0 .559-.029.559-.07 0-.04.209-.07.488-.07.28 0 .489-.03.489-.07 0-.039.21-.069.489-.069.28 0 .489-.03.489-.07 0-.039.187-.07.419-.07.233 0 .419-.031.419-.07 0-.039.187-.07.419-.07.233 0 .42-.031.42-.07 0-.038.157-.07.349-.07.192 0 .349-.031.349-.07 0-.038.157-.07.349-.07.192 0 .349-.031.349-.069 0-.039.158-.07.35-.07.192 0 .349-.032.349-.07 0-.039.126-.07.279-.07.154 0 .28-.032.28-.07 0-.038.125-.07.279-.07.154 0 .28-.031.28-.07 0-.038.125-.07.279-.07.154 0 .279-.031.279-.07 0-.038.126-.069.28-.069.153 0 .279-.032.279-.07 0-.039.094-.07.21-.07.115 0 .209-.032.209-.07 0-.039.094-.07.21-.07.115 0 .209-.031.209-.07 0-.038.063-.07.14-.07.077 0 .14-.031.14-.07 0-.038.094-.07.209-.07.115 0 .21-.031.21-.069 0-.039.063-.07.139-.07.077 0 .14-.032.14-.07 0-.039.094-.07.21-.07.115 0 .209-.032.209-.07 0-.038.063-.07.14-.07.077 0 .14-.031.14-.07 0-.038.062-.07.139-.07.077 0 .14-.031.14-.069 0-.039.094-.07.209-.07.116 0 .21-.032.21-.07 0-.039.063-.07.14-.07.077 0 .139-.032.139-.07 0-.038.063-.07.14-.07.077 0 .14-.031.14-.07 0-.038.063-.07.139-.07.077 0 .14-.031.14-.07 0-.038.063-.069.14-.069.077 0 .14-.032.14-.07 0-.039.056-.07.124-.07s.169-.063.225-.14c.055-.077.156-.14.225-.14.068 0 .124-.031.124-.07 0-.038.063-.07.14-.07.077 0 .139-.031.139-.069 0-.039.063-.07.14-.07.077 0 .14-.032.14-.07 0-.039.056-.07.124-.07s.17-.063.225-.14c.055-.077.157-.14.225-.14s.124-.031.124-.07c0-.038.056-.069.125-.069.068 0 .169-.063.224-.14.056-.077.15-.14.21-.14s.154-.063.21-.14c.055-.077.156-.14.225-.14.068 0 .124-.031.124-.069 0-.039.056-.07.124-.07s.17-.063.225-.14c.055-.077.15-.14.21-.14.059 0 .154-.063.209-.14.056-.076.144-.139.197-.139.053 0 .184-.095.292-.21.108-.115.239-.21.292-.21.053 0 .142-.063.197-.139.055-.077.144-.14.197-.14.053 0 .184-.095.292-.21.108-.115.233-.21.279-.21.046 0 .172-.094.28-.209.107-.116.232-.21.278-.21.045 0 .203-.126.35-.279.148-.154.305-.28.349-.28.043 0 .232-.157.42-.349.187-.193.375-.35.418-.35.043 0 .263-.189.49-.419.226-.231.445-.419.487-.419.042 0 .388-.315.77-.699.381-.385.726-.699.766-.699.095 0 2.377-2.283 2.377-2.378 0-.04.314-.385.698-.767.385-.382.699-.728.699-.77 0-.041.22-.293.489-.558.269-.265.489-.517.489-.56 0-.043.157-.231.349-.418.192-.188.349-.377.349-.421 0-.044.126-.2.28-.348.153-.148.279-.306.279-.351 0-.045.094-.17.21-.278.115-.108.209-.233.209-.278 0-.045.126-.203.279-.351.154-.148.28-.311.28-.364 0-.052.063-.14.14-.195.076-.056.139-.144.139-.197 0-.053.095-.185.21-.292.115-.108.209-.234.209-.28 0-.046.095-.172.21-.279.115-.108.209-.24.209-.293 0-.053.063-.141.14-.197.077-.055.14-.149.14-.209s.063-.155.139-.21c.077-.055.14-.15.14-.21s.063-.154.14-.209c.077-.056.14-.15.14-.21s.062-.154.139-.21c.077-.055.14-.149.14-.209s.063-.155.14-.21c.076-.055.139-.157.139-.225s.032-.124.07-.124c.039 0 .07-.056.07-.125 0-.068.063-.169.14-.225.077-.055.139-.15.139-.209 0-.06.063-.155.14-.21.077-.056.14-.157.14-.225 0-.069.031-.125.07-.125.038 0 .069-.062.069-.139 0-.077.032-.14.07-.14.039 0 .07-.056.07-.124 0-.069.063-.17.14-.226.077-.055.14-.156.14-.225 0-.068.031-.124.069-.124.039 0 .07-.063.07-.14 0-.077.032-.14.07-.14.039 0 .07-.056.07-.124s.063-.17.14-.225c.076-.055.139-.157.139-.225s.032-.124.07-.124c.039 0 .07-.063.07-.14 0-.077.031-.14.07-.14.038 0 .07-.063.07-.14 0-.077.031-.139.07-.139.038 0 .069-.063.069-.14 0-.077.032-.14.07-.14.039 0 .07-.063.07-.14 0-.077.032-.14.07-.14.038 0 .07-.062.07-.139 0-.077.031-.14.07-.14.038 0 .07-.063.07-.14 0-.077.031-.14.069-.14.039 0 .07-.063.07-.139 0-.077.032-.14.07-.14.038 0 .07-.063.07-.14 0-.077.031-.14.07-.14.038 0 .07-.063.07-.14 0-.076.031-.139.069-.139.039 0 .07-.063.07-.14 0-.077.032-.14.07-.14.039 0 .07-.063.07-.14 0-.077.031-.139.07-.139.038 0 .07-.095.07-.21 0-.115.031-.21.07-.21.038 0 .069-.063.069-.14 0-.076.032-.139.07-.139.039 0 .07-.063.07-.14 0-.077.031-.14.07-.14.038 0 .07-.063.07-.14 0-.076.031-.139.07-.139.038 0 .069-.095.069-.21 0-.115.032-.21.07-.21.039 0 .07-.063.07-.139 0-.077.032-.14.07-.14.038 0 .07-.095.07-.21 0-.115.031-.21.07-.21.038 0 .07-.062.07-.139 0-.077.031-.14.069-.14.039 0 .07-.094.07-.21 0-.115.032-.209.07-.209.038 0 .07-.095.07-.21 0-.115.031-.21.07-.21.038 0 .07-.063.07-.14 0-.076.031-.139.069-.139.039 0 .07-.095.07-.21 0-.115.032-.21.07-.21.039 0 .07-.094.07-.209 0-.116.031-.21.07-.21.038 0 .07-.063.07-.14 0-.077.031-.139.07-.139.038 0 .069-.095.069-.21 0-.115.032-.21.07-.21.039 0 .07-.094.07-.209 0-.116.031-.21.07-.21.038 0 .07-.094.07-.21 0-.115.031-.209.07-.209.038 0 .069-.095.069-.21 0-.115.032-.21.07-.21.039 0 .07-.094.07-.209 0-.116.032-.21.07-.21.038 0 .07-.126.07-.28 0-.153.031-.279.07-.279.038 0 .07-.095.07-.21 0-.115.031-.209.069-.209.039 0 .07-.095.07-.21 0-.115.032-.21.07-.21.039 0 .07-.126.07-.279 0-.154.031-.28.07-.28.038 0 .07-.094.07-.21 0-.115.031-.209.069-.209.039 0 .07-.126.07-.28 0-.154.032-.279.07-.279.039 0 .07-.126.07-.28 0-.154.031-.279.07-.279.038 0 .07-.126.07-.28 0-.154.031-.28.07-.28.038 0 .069-.125.069-.279 0-.154.032-.28.07-.28.039 0 .07-.157.07-.349 0-.192.032-.349.07-.349.038 0 .07-.126.07-.28 0-.154.031-.28.07-.28.038 0 .069-.157.069-.349 0-.192.032-.349.07-.349.039 0 .07-.187.07-.42 0-.233.031-.419.07-.419.039 0 .07-.186.07-.419 0-.233.031-.42.07-.42.04 0 .07-.209.07-.489 0-.279.03-.489.069-.489.042 0 .07-.256.07-.629s.029-.629.07-.629c.043 0 .07-.326.07-.839 0-.512.027-.838.07-.838.045 0 .07-.792.07-2.237 0-1.444-.025-2.236-.07-2.236-.042 0-.07-.256-.07-.629s-.028-.629-.07-.629c-.038 0-.07-.157-.07-.349 0-.193-.031-.35-.07-.35-.038 0-.069-.157-.069-.349 0-.193-.032-.35-.07-.35-.039 0-.07-.126-.07-.279 0-.154-.032-.28-.07-.28-.038 0-.07-.081-.07-.18a.453.453 0 00-.1-.279c-.114-.115-.319-.134-.319-.03zm-.279 52.694c0 .043-.326.07-.838.07-.513 0-.839.027-.839.07 0 .042-.279.07-.698.07-.419 0-.699.028-.699.07 0 .041-.232.07-.558.07-.326 0-.559.029-.559.07 0 .04-.21.07-.489.07s-.489.03-.489.07c0 .038-.186.069-.419.069-.233 0-.419.031-.419.07 0 .039-.186.07-.419.07-.233 0-.419.031-.419.07 0 .038-.157.07-.35.07-.192 0-.349.031-.349.07 0 .039-.186.07-.419.07-.233 0-.419.031-.419.07 0 .038-.126.069-.279.069-.154 0-.28.032-.28.07 0 .039-.157.07-.349.07-.192 0-.349.032-.349.07 0 .039-.157.07-.349.07-.192 0-.35.031-.35.07 0 .038-.125.07-.279.07-.154 0-.279.031-.279.07 0 .038-.126.07-.28.07-.153 0-.279.031-.279.069 0 .039-.126.07-.28.07-.153 0-.279.032-.279.07 0 .039-.126.07-.279.07-.154 0-.28.032-.28.07 0 .038-.125.07-.279.07-.154 0-.279.031-.279.07 0 .038-.126.07-.28.07-.154 0-.279.031-.279.07 0 .038-.126.069-.28.069-.153 0-.279.032-.279.07 0 .039-.094.07-.21.07-.115 0-.209.032-.209.07 0 .039-.126.07-.279.07-.154 0-.28.031-.28.07 0 .038-.094.07-.209.07-.116 0-.21.031-.21.07 0 .038-.126.07-.279.07-.154 0-.28.031-.28.069 0 .039-.094.07-.209.07-.116 0-.21.032-.21.07 0 .039-.126.07-.279.07-.154 0-.28.032-.28.07 0 .038-.094.07-.209.07-.115 0-.21.031-.21.07 0 .038-.094.07-.209.07-.115 0-.21.031-.21.07 0 .038-.094.069-.209.069-.116 0-.21.032-.21.07 0 .039-.094.07-.209.07-.116 0-.21.032-.21.07 0 .039-.094.07-.209.07-.116 0-.21.031-.21.07 0 .038-.126.07-.279.07-.154 0-.28.031-.28.07 0 .038-.063.07-.139.07-.077 0-.14.031-.14.069 0 .039-.094.07-.21.07-.115 0-.209.032-.209.07 0 .039-.095.07-.21.07-.115 0-.209.031-.209.07 0 .038-.095.07-.21.07-.115 0-.209.031-.209.07 0 .038-.095.07-.21.07-.115 0-.209.031-.209.069 0 .039-.095.07-.21.07-.115 0-.21.032-.21.07 0 .039-.094.07-.209.07-.115 0-.21.032-.21.07 0 .038-.094.07-.209.07-.115 0-.21.031-.21.07 0 .038-.094.07-.209.07-.116 0-.21.031-.21.07 0 .038-.094.069-.209.069-.116 0-.21.032-.21.07 0 .039-.094.07-.209.07-.116 0-.21.032-.21.07 0 .039-.126.07-.279.07-.154 0-.28.031-.28.07 0 .038-.094.07-.209.07-.116 0-.21.031-.21.07 0 .038-.094.07-.209.07-.116 0-.21.031-.21.069 0 .039-.094.07-.209.07-.116 0-.21.032-.21.07 0 .039-.094.07-.21.07-.115 0-.209.032-.209.07 0 .038-.094.07-.21.07-.115 0-.209.031-.209.07 0 .038-.126.07-.28.07-.153 0-.279.031-.279.07 0 .038-.094.069-.209.069-.116 0-.21.032-.21.07 0 .039-.094.07-.21.07-.115 0-.209.032-.209.07 0 .039-.126.07-.279.07-.154 0-.28.031-.28.07 0 .038-.094.07-.209.07-.116 0-.21.031-.21.07 0 .038-.126.07-.279.07-.154 0-.28.031-.28.069 0 .039-.125.07-.279.07-.154 0-.279.032-.279.07 0 .039-.095.07-.21.07-.115 0-.21.032-.21.07 0 .038-.125.07-.279.07-.154 0-.279.031-.279.07 0 .038-.126.07-.28.07-.153 0-.279.031-.279.069 0 .039-.126.07-.279.07-.154 0-.28.032-.28.07 0 .039-.126.07-.279.07-.154 0-.28.032-.28.07 0 .038-.125.07-.279.07-.154 0-.279.031-.279.07 0 .038-.158.07-.35.07-.192 0-.349.031-.349.07 0 .038-.126.069-.279.069-.154 0-.28.032-.28.07 0 .039-.157.07-.349.07-.192 0-.349.032-.349.07 0 .039-.186.07-.419.07-.233 0-.419.031-.419.07 0 .038-.157.07-.35.07-.192 0-.349.031-.349.07 0 .04-.209.07-.489.07-.279 0-.489.03-.489.069 0 .042-.256.07-.628.07-.373 0-.629.029-.629.07 0 .045-.652.07-1.816.07-1.164 0-1.816-.025-1.816-.07 0-.041-.233-.07-.559-.07-.326 0-.558-.029-.558-.07 0-.038-.187-.069-.42-.069-.232 0-.419-.031-.419-.07 0-.039-.186-.07-.419-.07-.232 0-.419-.031-.419-.07 0-.039-.157-.07-.349-.07-.192 0-.349-.031-.349-.07 0-.038-.157-.07-.349-.07-.193 0-.35-.031-.35-.07 0-.038-.157-.07-.349-.07-.192 0-.349-.031-.349-.069 0-.039-.157-.07-.349-.07-.192 0-.35-.032-.35-.07 0-.039-.125-.07-.279-.07-.154 0-.279-.032-.279-.07 0-.038-.158-.07-.35-.07-.192 0-.349-.031-.349-.07 0-.038-.126-.07-.279-.07-.154 0-.28-.031-.28-.07 0-.038-.125-.069-.279-.069-.154 0-.279-.032-.279-.07 0-.039-.126-.07-.28-.07-.153 0-.279-.032-.279-.07 0-.038-.126-.07-.28-.07-.153 0-.279-.031-.279-.07 0-.038-.126-.07-.279-.07-.154 0-.28-.031-.28-.07 0-.038-.125-.069-.279-.069-.154 0-.28-.032-.28-.07 0-.039-.125-.07-.279-.07-.154 0-.279-.032-.279-.07 0-.039-.126-.07-.28-.07-.153 0-.279-.031-.279-.07 0-.038-.126-.07-.279-.07-.154 0-.28-.031-.28-.07 0-.038-.094-.07-.209-.07-.116 0-.21-.031-.21-.069 0-.039-.126-.07-.279-.07-.154 0-.28-.032-.28-.07 0-.039-.125-.07-.279-.07-.154 0-.279-.032-.279-.07 0-.038-.095-.07-.21-.07-.115 0-.21-.031-.21-.07 0-.038-.125-.07-.279-.07-.154 0-.279-.031-.279-.07 0-.038-.095-.069-.21-.069-.115 0-.209-.032-.209-.07 0-.039-.126-.07-.28-.07-.153 0-.279-.032-.279-.07 0-.039-.094-.07-.21-.07-.115 0-.209-.031-.209-.07 0-.038-.126-.07-.28-.07-.153 0-.279-.031-.279-.07 0-.038-.094-.07-.21-.07-.115 0-.209-.031-.209-.069 0-.039-.126-.07-.279-.07-.154 0-.28-.032-.28-.07 0-.039-.094-.07-.209-.07-.116 0-.21-.032-.21-.07 0-.038-.126-.07-.279-.07-.154 0-.28-.031-.28-.07 0-.038-.094-.07-.209-.07-.116 0-.21-.031-.21-.07 0-.038-.126-.069-.279-.069-.154 0-.28-.032-.28-.07 0-.039-.125-.07-.279-.07-.154 0-.279-.032-.279-.07 0-.039-.095-.07-.21-.07-.115 0-.209-.031-.209-.07 0-.038-.126-.07-.28-.07-.153 0-.279-.031-.279-.07 0-.038-.126-.069-.28-.069-.153 0-.279-.032-.279-.07 0-.039-.126-.07-.279-.07-.154 0-.28-.032-.28-.07 0-.039-.094-.07-.209-.07-.116 0-.21-.031-.21-.07 0-.038-.126-.07-.279-.07-.154 0-.28-.031-.28-.07 0-.038-.125-.07-.279-.07-.154 0-.279-.031-.279-.069 0-.039-.158-.07-.35-.07-.192 0-.349-.032-.349-.07 0-.039-.126-.07-.279-.07-.154 0-.28-.032-.28-.07 0-.038-.125-.07-.279-.07-.154 0-.279-.031-.279-.07 0-.038-.126-.07-.28-.07-.153 0-.279-.031-.279-.07 0-.038-.157-.069-.349-.069-.192 0-.35-.032-.35-.07 0-.039-.157-.07-.349-.07-.192 0-.349-.032-.349-.07 0-.039-.126-.07-.279-.07-.154 0-.28-.031-.28-.07 0-.039-.186-.07-.419-.07-.233 0-.419-.031-.419-.07 0-.038-.157-.07-.349-.07-.192 0-.35-.031-.35-.069 0-.039-.157-.07-.349-.07-.192 0-.349-.032-.349-.07 0-.039-.186-.07-.419-.07-.233 0-.419-.031-.419-.07 0-.039-.186-.07-.419-.07-.233 0-.419-.031-.419-.07 0-.039-.187-.07-.419-.07-.233 0-.419-.031-.419-.07 0-.039-.21-.069-.489-.069-.28 0-.489-.03-.489-.07 0-.04-.21-.07-.489-.07-.28 0-.489-.03-.489-.07 0-.041-.233-.07-.559-.07-.326 0-.559-.029-.559-.07 0-.042-.279-.07-.698-.07-.419 0-.699-.028-.699-.07 0-.043-.349-.07-.908-.07-.558 0-.908-.026-.908-.069 0-.046-1.21-.07-3.492-.07s-3.492.024-3.492.07c0 .043-.35.069-.908.069-.559 0-.908.027-.908.07 0 .042-.256.07-.629.07-.372 0-.629.029-.629.07 0 .04-.209.07-.489.07-.279 0-.488.03-.488.07 0 .04-.21.07-.489.07-.28 0-.489.03-.489.07 0 .039-.187.07-.419.07-.233 0-.419.031-.419.069 0 .039-.158.07-.35.07-.192 0-.349.032-.349.07 0 .039-.157.07-.349.07-.192 0-.349.032-.349.07 0 .038-.126.07-.28.07-.153 0-.279.031-.279.07 0 .038-.157.07-.349.07-.192 0-.35.031-.35.07 0 .038-.125.069-.279.069-.154 0-.279.032-.279.07 0 .039-.095.07-.21.07-.115 0-.209.032-.209.07 0 .039-.126.07-.28.07-.154 0-.279.031-.279.07 0 .038-.126.07-.28.07-.153 0-.279.031-.279.07 0 .038-.094.07-.21.07-.115 0-.209.031-.209.069 0 .039-.094.07-.21.07-.115 0-.209.032-.209.07 0 .039-.094.07-.21.07-.115 0-.209.032-.209.07 0 .038-.095.07-.21.07-.115 0-.209.031-.209.07 0 .038-.095.07-.21.07-.115 0-.209.031-.209.07 0 .038-.095.069-.21.069-.115 0-.21.032-.21.07 0 .039-.094.07-.209.07-.115 0-.21.032-.21.07 0 .039-.094.07-.209.07-.115 0-.21.031-.21.07 0 .038-.063.07-.139.07-.077 0-.14.031-.14.07 0 .038-.094.07-.21.07-.115 0-.209.031-.209.069 0 .039-.063.07-.14.07-.077 0-.14.032-.14.07 0 .039-.094.07-.209.07-.115 0-.21.031-.21.07 0 .038-.062.07-.139.07-.077 0-.14.031-.14.07 0 .038-.063.07-.14.07-.077 0-.139.031-.139.069 0 .039-.095.07-.21.07-.115 0-.209.032-.209.07 0 .039-.063.07-.14.07-.077 0-.14.032-.14.07 0 .038-.063.07-.14.07-.076 0-.139.031-.139.07 0 .038-.063.07-.14.07-.077 0-.14.031-.14.07 0 .038-.062.069-.139.069-.077 0-.14.032-.14.07 0 .039-.063.07-.14.07-.077 0-.139.032-.139.07 0 .039-.063.07-.14.07-.077 0-.14.031-.14.07 0 .038-.087.07-.194.07a.382.382 0 00-.295.14c-.055.076-.156.139-.225.139-.068 0-.124.032-.124.07 0 .039-.063.07-.14.07-.076 0-.139.032-.139.07 0 .038-.063.07-.14.07-.077 0-.14.031-.14.07 0 .038-.063.07-.139.07-.077 0-.14.031-.14.07 0 .038-.063.069-.14.069-.077 0-.14.032-.14.07 0 .039-.055.07-.124.07-.068 0-.169.063-.225.14-.055.077-.156.14-.225.14-.068 0-.124.031-.124.07 0 .038-.063.07-.14.07-.076 0-.139.031-.139.069 0 .039-.056.07-.125.07-.068 0-.169.063-.225.14-.055.077-.149.14-.209.14s-.154.063-.21.14c-.055.076-.156.139-.225.139-.068 0-.124.032-.124.07 0 .039-.056.07-.124.07-.069 0-.17.063-.225.14-.056.077-.15.14-.21.14s-.154.063-.209.139c-.056.077-.15.14-.21.14s-.154.063-.209.14c-.056.077-.15.14-.21.14s-.154.063-.209.14c-.056.076-.15.139-.21.139s-.154.063-.209.14c-.056.077-.144.14-.197.14-.053 0-.185.094-.292.21-.108.115-.234.209-.28.209-.046 0-.172.095-.279.21-.108.115-.234.21-.28.21-.046 0-.171.094-.279.209-.108.115-.233.21-.279.21-.046 0-.172.094-.28.21-.107.115-.232.209-.277.209-.044 0-.234.157-.421.35-.187.192-.376.349-.419.349-.044 0-.232.157-.419.349-.187.193-.375.35-.418.35-.042 0-.357.283-.7.629-.343.346-.656.629-.696.629-.095 0-3.076 2.982-3.076 3.077 0 .04-.282.354-.628.697-.346.343-.629.658-.629.7 0 .042-.188.261-.419.488-.23.226-.419.447-.419.49 0 .043-.157.231-.349.418-.192.188-.349.377-.349.421 0 .044-.126.2-.28.348-.154.148-.279.306-.279.351 0 .045-.095.17-.21.278-.115.108-.209.233-.209.278 0 .045-.126.203-.28.351-.153.148-.279.306-.279.351 0 .045-.094.17-.21.278-.115.108-.209.239-.209.292 0 .053-.063.142-.14.197-.077.056-.14.144-.14.197 0 .053-.094.185-.209.292-.115.108-.21.24-.21.293 0 .053-.063.141-.139.197-.077.055-.14.149-.14.209s-.063.155-.14.21c-.077.055-.139.15-.139.21s-.063.154-.14.209c-.077.056-.14.15-.14.21s-.063.154-.14.21c-.076.055-.139.149-.139.209s-.063.154-.14.21c-.077.055-.14.15-.14.21 0 .059-.062.154-.139.209-.077.056-.14.15-.14.21s-.063.154-.14.21c-.077.055-.139.149-.139.209s-.063.154-.14.21c-.077.055-.14.157-.14.225s-.031.124-.07.124c-.038 0-.069.056-.069.125 0 .068-.063.169-.14.225-.077.055-.14.156-.14.225 0 .068-.031.124-.07.124-.038 0-.07.056-.07.125 0 .068-.062.169-.139.225-.077.055-.14.156-.14.225 0 .068-.031.124-.07.124-.038 0-.07.056-.07.124 0 .069-.062.17-.139.225-.077.056-.14.157-.14.226 0 .068-.031.124-.07.124-.038 0-.07.063-.07.14 0 .077-.031.139-.07.139-.038 0-.069.063-.069.14 0 .077-.032.14-.07.14-.039 0-.07.056-.07.124 0 .069-.063.17-.14.225-.077.056-.139.157-.139.226 0 .068-.032.124-.07.124-.039 0-.07.063-.07.14 0 .077-.032.139-.07.139-.038 0-.07.063-.07.14 0 .077-.031.14-.07.14-.038 0-.07.063-.07.14 0 .077-.031.14-.069.14-.039 0-.07.062-.07.139 0 .077-.032.14-.07.14-.038 0-.07.063-.07.14 0 .077-.031.14-.07.14-.038 0-.07.063-.07.139 0 .077-.031.14-.069.14-.039 0-.07.063-.07.14 0 .077-.032.14-.07.14-.039 0-.07.063-.07.139 0 .077-.031.14-.07.14-.038 0-.07.063-.07.14 0 .077-.031.14-.07.14-.038 0-.069.063-.069.14 0 .076-.032.139-.07.139-.039 0-.07.063-.07.14 0 .077-.032.14-.07.14-.038 0-.07.063-.07.14 0 .077-.031.139-.07.139-.038 0-.069.063-.069.14 0 .077-.032.14-.07.14-.039 0-.07.063-.07.14 0 .077-.032.14-.07.14-.038 0-.07.062-.07.139 0 .077-.031.14-.07.14-.038 0-.07.094-.07.21 0 .115-.031.209-.069.209-.039 0-.07.063-.07.14 0 .077-.032.14-.07.14-.039 0-.07.063-.07.14 0 .077-.031.139-.07.139-.038 0-.07.063-.07.14 0 .077-.031.14-.069.14-.039 0-.07.094-.07.21 0 .115-.032.209-.07.209-.039 0-.07.063-.07.14 0 .077-.031.14-.07.14-.038 0-.07.063-.07.14 0 .077-.031.139-.07.139-.038 0-.069.095-.069.21 0 .115-.032.21-.07.21-.039 0-.07.063-.07.14 0 .076-.032.139-.07.139-.038 0-.07.095-.07.21 0 .115-.031.21-.07.21-.038 0-.069.063-.069.139 0 .077-.032.14-.07.14-.039 0-.07.095-.07.21 0 .115-.032.209-.07.209-.038 0-.07.063-.07.14 0 .077-.031.14-.07.14-.038 0-.07.094-.07.21 0 .115-.031.209-.069.209-.039 0-.07.095-.07.21 0 .115-.032.21-.07.21-.039 0-.07.094-.07.209 0 .116-.031.21-.07.21-.038 0-.07.063-.07.14 0 .077-.031.14-.069.14-.039 0-.07.094-.07.209 0 .116-.032.21-.07.21-.039 0-.07.094-.07.21 0 .115-.031.209-.07.209-.038 0-.07.095-.07.21 0 .115-.031.21-.07.21-.038 0-.069.094-.069.209 0 .115-.032.21-.07.21-.039 0-.07.094-.07.209 0 .116-.032.21-.07.21-.038 0-.07.094-.07.21 0 .115-.031.209-.07.209-.038 0-.07.095-.07.21 0 .115-.031.21-.069.21-.039 0-.07.094-.07.209 0 .116-.032.21-.07.21-.038 0-.07.126-.07.28 0 .153-.031.279-.07.279-.038 0-.07.095-.07.21 0 .115-.031.21-.069.21-.039 0-.07.125-.07.279 0 .154-.032.28-.07.28-.039 0-.07.094-.07.209 0 .116-.031.21-.07.21-.038 0-.07.126-.07.279 0 .154-.031.28-.07.28-.038 0-.069.094-.069.21 0 .115-.032.209-.07.209-.039 0-.07.126-.07.28 0 .154-.031.279-.07.279-.038 0-.07.126-.07.28 0 .154-.031.28-.07.28-.038 0-.069.125-.069.279 0 .154-.032.28-.07.28-.039 0-.07.125-.07.279 0 .154-.032.28-.07.28-.038 0-.07.157-.07.349 0 .192-.031.35-.07.35-.038 0-.07.125-.07.279 0 .154-.031.28-.069.28-.039 0-.07.125-.07.279 0 .154-.032.28-.07.28-.038 0-.07.157-.07.349 0 .192-.031.35-.07.35-.038 0-.07.157-.07.349 0 .192-.031.349-.069.349-.039 0-.07.158-.07.35 0 .192-.032.349-.07.349-.039 0-.07.187-.07.42 0 .233-.031.419-.07.419-.038 0-.07.157-.07.349 0 .193-.031.35-.07.35-.038 0-.069.186-.069.419 0 .233-.031.42-.07.42-.039 0-.07.186-.07.419 0 .233-.031.419-.07.419-.04 0-.07.21-.07.489 0 .28-.03.49-.07.49-.039 0-.069.209-.069.489 0 .279-.03.489-.07.489-.041 0-.07.233-.07.559 0 .326-.029.559-.07.559-.041 0-.07.256-.07.629s-.028.629-.07.629c-.041 0-.07.256-.07.629s-.028.629-.069.629c-.043 0-.07.303-.07.769s-.028.769-.07.769c-.043 0-.07.349-.07.908s-.027.909-.07.909c-.044 0-.07.442-.07 1.188 0 .745-.026 1.188-.069 1.188-.046 0-.07 1.023-.07 2.929 0 2.275-.02 2.939-.088 2.97-.069.033-.069.049 0 .082.068.031.088.653.088 2.76 0 1.767.024 2.72.07 2.72.044 0 .069.466.069 1.258s.026 1.258.07 1.258c.043 0 .07.35.07.909s.027.908.07.908c.042 0 .07.303.07.769s.027.769.07.769c.041 0 .069.256.069.629 0 .372.029.629.07.629.042 0 .07.256.07.629 0 .372.029.629.07.629.041 0 .07.232.07.559 0 .326.029.559.07.559.04 0 .07.233.07.559 0 .326.029.559.069.559.04 0 .07.21.07.489 0 .28.03.489.07.489.039 0 .07.187.07.42 0 .233.031.419.07.419.04 0 .07.21.07.489 0 .28.03.489.069.489.039 0 .07.187.07.42 0 .233.031.419.07.419.039 0 .07.186.07.419 0 .233.031.42.07.42.038 0 .07.157.07.349 0 .192.031.35.07.35.038 0 .069.186.069.419 0 .233.031.419.07.419.039 0 .07.157.07.35 0 .192.032.349.07.349.038 0 .07.157.07.35 0 .192.031.349.07.349.038 0 .069.157.069.349 0 .193.032.35.07.35.039 0 .07.157.07.349 0 .192.032.35.07.35.038 0 .07.125.07.279 0 .154.031.28.07.28.038 0 .07.157.07.349 0 .192.031.35.069.35.039 0 .07.125.07.279 0 .154.032.28.07.28.039 0 .07.157.07.349 0 .192.031.35.07.35.038 0 .07.125.07.279 0 .154.031.28.069.28.039 0 .07.125.07.279 0 .154.032.28.07.28.039 0 .07.126.07.279 0 .154.031.28.07.28.038 0 .07.126.07.279 0 .154.031.28.07.28.038 0 .069.126.069.28 0 .153.032.279.07.279.039 0 .07.126.07.28 0 .153.032.279.07.279.038 0 .07.126.07.28 0 .153.031.279.07.279.038 0 .069.126.069.28 0 .154.032.279.07.279.039 0 .07.126.07.28 0 .154.032.279.07.279.038 0 .07.095.07.21 0 .115.031.21.07.21.038 0 .07.126.07.279 0 .154.031.28.069.28.039 0 .07.094.07.209 0 .116.032.21.07.21.039 0 .07.126.07.28 0 .153.031.279.07.279.038 0 .07.095.07.21 0 .115.031.21.07.21.038 0 .069.125.069.279 0 .154.032.28.07.28.039 0 .07.094.07.209 0 .116.031.21.07.21.038 0 .07.094.07.21 0 .115.031.209.07.209.038 0 .069.095.069.21 0 .115.032.21.07.21.039 0 .07.125.07.279 0 .154.032.28.07.28.038 0 .07.094.07.209 0 .116.031.21.07.21.038 0 .07.094.07.21 0 .115.031.209.069.209.039 0 .07.095.07.21 0 .115.032.21.07.21.038 0 .07.094.07.209 0 .116.031.21.07.21.038 0 .07.094.07.21 0 .115.031.209.069.209.039 0 .07.095.07.21 0 .115.032.21.07.21.039 0 .07.094.07.209 0 .116.031.21.07.21.038 0 .07.094.07.21 0 .115.031.209.07.209.038 0 .069.095.069.21 0 .115.032.21.07.21.039 0 .07.094.07.209 0 .116.031.21.07.21.038 0 .07.094.07.21 0 .115.031.209.07.209.038 0 .069.095.069.21 0 .115.032.21.07.21.039 0 .07.094.07.209 0 .116.032.21.07.21.038 0 .07.063.07.14 0 .077.031.139.07.139.038 0 .07.095.07.21 0 .115.031.21.069.21.039 0 .07.094.07.209 0 .116.032.21.07.21.038 0 .07.094.07.21 0 .115.031.209.07.209.038 0 .07.063.07.14 0 .077.031.14.069.14.039 0 .07.094.07.21 0 .115.032.209.07.209.039 0 .07.095.07.21 0 .115.031.21.07.21.038 0 .07.062.07.139 0 .077.031.14.07.14.038 0 .069.094.069.21 0 .115.032.209.07.209.039 0 .07.095.07.21 0 .115.032.21.07.21.038 0 .07.063.07.14 0 .076.031.139.07.139.038 0 .069.095.069.21 0 .115.032.21.07.21.039 0 .07.063.07.139 0 .077.032.14.07.14.038 0 .07.095.07.21 0 .115.031.209.07.209.038 0 .07.063.07.14 0 .077.031.14.069.14.039 0 .07.094.07.21 0 .115.032.209.07.209.038 0 .07.063.07.14 0 .077.031.14.07.14.038 0 .07.094.07.21 0 .115.031.209.069.209.039 0 .07.063.07.14 0 .077.032.14.07.14.039 0 .07.094.07.209 0 .116.031.21.07.21.038 0 .07.063.07.14 0 .077.031.14.07.14.038 0 .069.063.069.139 0 .077.032.14.07.14.039 0 .07.095.07.21 0 .115.032.209.07.209.038 0 .07.063.07.14 0 .077.031.14.07.14.038 0 .069.063.069.14 0 .077.032.14.07.14.039 0 .07.094.07.209 0 .116.032.21.07.21.038 0 .07.063.07.14 0 .077.031.139.07.139.038 0 .07.063.07.14 0 .077.031.14.069.14.039 0 .07.094.07.21 0 .115.032.209.07.209.039 0 .07.063.07.14 0 .077.031.14.07.14.038 0 .07.063.07.14 0 .077.031.139.069.139.039 0 .07.063.07.14 0 .077.032.14.07.14.039 0 .07.094.07.21 0 .115.031.209.07.209.038 0 .07.063.07.14 0 .077.031.14.07.14.038 0 .069.063.069.14 0 .076.032.139.07.139.039 0 .07.063.07.14 0 .077.032.14.07.14.038 0 .07.094.07.21 0 .115.031.209.07.209.038 0 .069.063.069.14 0 .077.032.14.07.14.039 0 .07.063.07.14 0 .076.032.139.07.139.038 0 .07.063.07.14 0 .077.031.14.07.14.038 0 .07.063.07.14 0 .077.031.139.069.139.039 0 .07.063.07.14 0 .077.032.14.07.14.039 0 .07.094.07.21 0 .115.031.209.07.209.038 0 .07.063.07.14 0 .077.031.14.069.14.039 0 .07.063.07.14 0 .076.032.139.07.139.039 0 .07.063.07.14 0 .077.031.14.07.14.038 0 .07.063.07.14 0 .077.031.139.07.139.038 0 .069.063.069.14 0 .077.032.14.07.14.039 0 .07.063.07.14 0 .077.032.14.07.14.038 0 .07.062.07.139 0 .077.031.14.07.14.038 0 .07.063.07.14 0 .077.031.14.069.14.039 0 .07.063.07.139 0 .077.032.14.07.14.038 0 .07.063.07.14 0 .077.031.14.07.14.038 0 .07.063.07.14 0 .076.031.139.069.139.039 0 .07.063.07.14 0 .077.032.14.07.14.039 0 .07.063.07.14 0 .076.031.139.07.139.038 0 .07.063.07.14 0 .077.031.14.07.14.038 0 .069.063.069.14 0 .077.032.139.07.139.039 0 .07.063.07.14 0 .077.031.14.07.14.038 0 .07.063.07.14 0 .077.031.14.07.14.038 0 .069.062.069.139 0 .077.032.14.07.14.039 0 .07.063.07.14 0 .077.032.14.07.14.038 0 .07.063.07.139 0 .077.031.14.07.14.038 0 .07.063.07.14 0 .077.031.14.069.14.039 0 .07.063.07.14 0 .076.032.139.07.139.038 0 .07.063.07.14 0 .077.031.14.07.14.038 0 .07.063.07.14 0 .077.031.139.069.139.039 0 .07.063.07.14 0 .077.032.14.07.14.039 0 .07.056.07.124 0 .069.063.17.14.225.077.056.139.157.139.225 0 .069.032.125.07.125.039 0 .07.063.07.14 0 .076.031.139.07.139.038 0 .07.063.07.14 0 .077.031.14.07.14.038 0 .069.063.069.14 0 .077.032.139.07.139.039 0 .07.063.07.14 0 .077.032.14.07.14.038 0 .07.056.07.124 0 .069.063.17.14.225.076.056.139.157.139.226 0 .068.032.124.07.124.038 0 .07.063.07.14 0 .076.031.139.07.139.038 0 .07.063.07.14 0 .077.031.14.069.14.039 0 .07.063.07.14 0 .077.032.139.07.139.039 0 .07.056.07.125 0 .068.063.17.14.225.077.055.139.157.139.225s.032.124.07.124c.039 0 .07.063.07.14 0 .077.032.14.07.14.038 0 .07.056.07.124 0 .069.063.17.139.225.077.056.14.157.14.225 0 .069.032.125.07.125.038 0 .07.063.07.14 0 .076.031.139.07.139.038 0 .07.063.07.14 0 .077.031.14.069.14.039 0 .07.056.07.124 0 .069.063.17.14.225.077.056.14.157.14.225 0 .069.031.125.069.125.039 0 .07.063.07.14 0 .076.032.139.07.139.039 0 .07.056.07.125 0 .068.063.169.14.225.077.055.139.156.139.225 0 .068.032.124.07.124.039 0 .07.063.07.14 0 .077.032.14.07.14.038 0 .07.056.07.124s.063.17.139.225c.077.056.14.157.14.225 0 .069.032.125.07.125.038 0 .07.056.07.124s.063.17.14.225c.076.055.139.157.139.225s.032.124.07.124c.039 0 .07.056.07.125 0 .068.063.169.14.225.076.055.139.157.139.225s.032.124.07.124c.039 0 .07.056.07.125 0 .068.063.169.14.225.077.055.139.156.139.225 0 .068.032.124.07.124.039 0 .07.056.07.124 0 .069.063.17.14.226.077.055.14.156.14.225 0 .068.031.124.069.124.039 0 .07.056.07.124 0 .069.063.17.14.225.077.056.14.15.14.21s.062.154.139.21c.077.055.14.156.14.225 0 .068.031.124.07.124.038 0 .07.056.07.125 0 .068.063.169.139.225.077.055.14.149.14.209s.063.155.14.21c.077.055.139.157.139.225s.032.124.07.124c.039 0 .07.056.07.125 0 .068.063.169.14.225.077.055.14.15.14.209 0 .06.062.155.139.21.077.056.14.15.14.21s.063.154.14.209c.076.056.139.15.139.21s.063.154.14.21c.077.055.14.15.14.209 0 .06.063.155.139.21.077.056.14.15.14.21s.063.154.14.209c.077.056.139.15.139.21s.063.154.14.21c.077.055.14.15.14.209 0 .06.063.155.14.21.076.055.139.15.139.21s.063.154.14.209c.077.056.14.15.14.21s.062.154.139.21c.077.055.14.149.14.209s.063.155.14.21c.077.055.139.144.139.197 0 .053.095.185.21.292.115.108.209.239.209.292 0 .053.063.142.14.197.077.056.14.145.14.198 0 .052.094.184.209.292.116.107.21.239.21.292 0 .053.063.141.14.197.076.055.139.144.139.197 0 .053.095.184.21.292.115.108.209.234.209.28 0 .046.095.171.21.279.115.108.209.234.209.28 0 .046.095.172.21.279.115.108.21.234.21.28 0 .046.094.172.209.279.115.108.21.234.21.28 0 .046.094.172.209.279.115.108.21.233.21.279 0 .045.125.203.279.35.154.148.279.305.279.35 0 .044.126.202.28.349.154.148.279.305.279.349 0 .044.157.233.35.42.192.187.349.376.349.419 0 .044.157.232.349.42.192.187.349.375.349.418 0 .043.189.264.419.49.231.227.419.446.419.488 0 .042.283.357.629.7.346.343.629.657.629.697 0 .095 4.098 4.195 4.193 4.195.041 0 .291.22.556.49.265.269.517.489.559.489.043 0 .263.188.489.419.226.231.447.419.49.419.044 0 .2.126.348.28.148.154.305.279.351.279.045 0 .17.095.278.21.107.115.232.21.278.21.045 0 .203.126.35.279.148.154.311.28.364.28.052 0 .14.063.195.14.055.077.144.139.197.139.053 0 .184.095.292.21.108.115.239.21.292.21.053 0 .142.063.197.14.055.076.15.139.209.139.06 0 .155.063.21.14.055.077.15.14.21.14.059 0 .154.063.209.14.055.076.15.139.21.139.059 0 .154.063.209.14.056.077.157.14.225.14s.124.031.124.07c0 .038.056.07.125.07.068 0 .169.063.225.139.055.077.156.14.225.14.068 0 .124.032.124.07 0 .039.056.07.124.07s.17.063.225.14c.055.077.157.14.225.14s.124.031.124.069c0 .039.063.07.14.07.077 0 .14.032.14.07 0 .039.056.07.124.07s.17.063.225.14c.055.077.157.14.225.14s.124.031.124.07c0 .038.063.069.14.069.077 0 .14.032.14.07 0 .039.062.07.139.07.077 0 .14.032.14.07 0 .039.063.07.14.07.076 0 .139.031.139.07 0 .038.063.07.14.07.077 0 .14.031.14.07 0 .038.063.07.139.07.077 0 .14.031.14.069 0 .039.094.07.21.07.115 0 .209.032.209.07 0 .039.063.07.14.07.077 0 .14.032.14.07 0 .038.062.07.139.07.077 0 .14.031.14.07 0 .038.063.07.14.07.076 0 .139.031.139.07 0 .038.095.069.21.069.115 0 .209.032.209.07 0 .039.063.07.14.07.077 0 .14.032.14.07 0 .039.094.07.209.07.116 0 .21.031.21.07 0 .038.094.07.209.07.116 0 .21.031.21.07 0 .038.094.069.21.069.115 0 .209.032.209.07 0 .039.094.07.21.07.115 0 .209.032.209.07 0 .039.094.07.21.07.115 0 .209.031.209.07 0 .038.095.07.21.07.115 0 .209.031.209.07 0 .038.126.07.28.07.153 0 .279.031.279.069 0 .039.126.07.279.07.154 0 .28.032.28.07 0 .039.126.07.279.07.154 0 .28.032.28.07 0 .038.157.07.349.07.192 0 .349.031.349.07 0 .038.157.07.349.07.192 0 .35.031.35.07 0 .039.209.069.488.069.28 0 .489.03.489.07 0 .043.303.07.769.07.465 0 .768.028.768.07 0 .045.582.07 1.607.07 1.024 0 1.606-.025 1.606-.07 0-.042.303-.07.768-.07.466 0 .769-.027.769-.07 0-.04.209-.07.489-.07.279 0 .488-.03.488-.069 0-.039.187-.07.42-.07.232 0 .419-.031.419-.07 0-.039.157-.07.349-.07.192 0 .349-.032.349-.07 0-.038.157-.07.349-.07.192 0 .35-.031.35-.07 0-.038.157-.07.349-.07.192 0 .349-.031.349-.07 0-.038.126-.069.279-.069.154 0 .28-.032.28-.07 0-.039.126-.07.279-.07.154 0 .28-.032.28-.07 0-.039.125-.07.279-.07.154 0 .279-.031.279-.07 0-.038.126-.07.28-.07.153 0 .279-.031.279-.07 0-.038.094-.07.21-.07.115 0 .209-.031.209-.069 0-.039.126-.07.28-.07.153 0 .279-.032.279-.07 0-.039.094-.07.21-.07.115 0 .209-.031.209-.07 0-.038.094-.07.21-.07.115 0 .209-.031.209-.07 0-.038.094-.07.21-.07.115 0 .209-.031.209-.069 0-.039.126-.07.28-.07.153 0 .279-.032.279-.07 0-.039.094-.07.21-.07.115 0 .209-.032.209-.07 0-.038.094-.07.21-.07.115 0 .209-.031.209-.07 0-.038.063-.07.14-.07.077 0 .14-.031.14-.07 0-.038.094-.069.209-.069.115 0 .21-.032.21-.07 0-.039.094-.07.209-.07.115 0 .21-.032.21-.07 0-.039.094-.07.209-.07.116 0 .21-.031.21-.07 0-.038.094-.07.209-.07.116 0 .21-.031.21-.07 0-.038.063-.07.14-.07.076 0 .139-.031.139-.069 0-.039.095-.07.21-.07.115 0 .209-.032.209-.07 0-.039.095-.07.21-.07.115 0 .209-.032.209-.07 0-.038.063-.07.14-.07.077 0 .14-.031.14-.07 0-.038.094-.07.209-.07.116 0 .21-.031.21-.07 0-.038.063-.069.14-.069.076 0 .139-.032.139-.07 0-.039.095-.07.21-.07.115 0 .209-.032.209-.07 0-.039.063-.07.14-.07.077 0 .14-.031.14-.07 0-.038.094-.07.209-.07.116 0 .21-.031.21-.07 0-.038.063-.07.14-.07.076 0 .139-.031.139-.069 0-.039.094-.07.21-.07.115 0 .209-.032.209-.07 0-.039.063-.07.14-.07.077 0 .14-.032.14-.07 0-.038.094-.07.209-.07.115 0 .21-.031.21-.07 0-.038.063-.07.139-.07.077 0 .14-.031.14-.069 0-.039.094-.07.21-.07.115 0 .209-.032.209-.07 0-.039.063-.07.14-.07.077 0 .14-.032.14-.07 0-.038.094-.07.209-.07.115 0 .21-.031.21-.07 0-.038.094-.07.209-.07.115 0 .21-.031.21-.07 0-.038.063-.069.139-.069.077 0 .14-.032.14-.07 0-.039.094-.07.21-.07.115 0 .209-.032.209-.07 0-.039.095-.07.21-.07.115 0 .209-.031.209-.07 0-.038.095-.07.21-.07.115 0 .209-.031.209-.07 0-.038.095-.07.21-.07.115 0 .209-.031.209-.069 0-.039.095-.07.21-.07.115 0 .21-.032.21-.07 0-.039.094-.07.209-.07.115 0 .21-.032.21-.07 0-.038.094-.07.209-.07.115 0 .21-.031.21-.07 0-.038.094-.07.209-.07.116 0 .21-.031.21-.07 0-.038.094-.069.209-.069.116 0 .21-.032.21-.07 0-.039.094-.07.209-.07.116 0 .21-.032.21-.07 0-.039.126-.07.279-.07.154 0 .28-.031.28-.07 0-.038.094-.07.209-.07.116 0 .21-.031.21-.07 0-.038.126-.07.279-.07.154 0 .28-.031.28-.069 0-.039.094-.07.209-.07.115 0 .21-.032.21-.07 0-.039.125-.07.279-.07.154 0 .279-.032.279-.07 0-.038.126-.07.28-.07.153 0 .279-.031.279-.07 0-.038.157-.07.349-.07.193 0 .35-.031.35-.069 0-.039.125-.07.279-.07.154 0 .279-.032.279-.07 0-.039.158-.07.35-.07.192 0 .349-.032.349-.07 0-.038.157-.07.349-.07.192 0 .349-.031.349-.07 0-.039.187-.07.419-.07.233 0 .42-.031.42-.07 0-.038.186-.069.419-.069.232 0 .419-.032.419-.07 0-.04.209-.07.489-.07.279 0 .489-.03.489-.07 0-.042.279-.07.698-.07.419 0 .698-.028.698-.07 0-.045 1.048-.07 3.004-.07s3.003.025 3.003.07c0 .042.28.07.699.07.419 0 .698.028.698.07 0 .041.233.07.559.07.326 0 .559.029.559.07 0 .04.209.07.489.07.279 0 .489.03.489.069 0 .039.186.07.419.07.233 0 .419.031.419.07 0 .039.157.07.349.07.192 0 .349.032.349.07 0 .038.157.07.35.07.192 0 .349.031.349.07 0 .038.157.07.349.07.192 0 .349.031.349.07 0 .038.157.069.349.069.193 0 .35.032.35.07 0 .039.125.07.279.07.154 0 .279.032.279.07 0 .038.126.07.28.07.154 0 .279.031.279.07 0 .038.126.07.28.07.153 0 .279.031.279.07 0 .038.126.069.279.069.154 0 .28.032.28.07 0 .039.126.07.279.07.154 0 .28.032.28.07 0 .039.125.07.279.07.154 0 .279.031.279.07 0 .038.126.07.28.07.153 0 .279.031.279.07 0 .038.094.07.21.07.115 0 .209.031.209.069 0 .039.126.07.28.07.153 0 .279.032.279.07 0 .039.094.07.209.07.116 0 .21.032.21.07 0 .038.094.07.21.07.115 0 .209.031.209.07 0 .038.126.07.28.07.153 0 .279.031.279.07 0 .038.094.069.209.069.116 0 .21.032.21.07 0 .039.094.07.21.07.115 0 .209.032.209.07 0 .039.094.07.21.07.115 0 .209.031.209.07 0 .038.094.07.21.07.115 0 .209.031.209.07 0 .038.095.07.21.07.115 0 .209.031.209.069 0 .039.095.07.21.07.115 0 .209.032.209.07 0 .039.095.07.21.07.115 0 .209.032.209.07 0 .038.095.07.21.07.115 0 .21.031.21.07 0 .038.094.07.209.07.115 0 .21.031.21.07 0 .038.062.069.139.069.077 0 .14.032.14.07 0 .039.094.07.21.07.115 0 .209.032.209.07 0 .038.094.07.21.07.115 0 .209.031.209.07 0 .038.094.07.21.07.115 0 .209.031.209.07 0 .038.095.069.21.069.115 0 .209.032.209.07 0 .039.095.07.21.07.115 0 .209.032.209.07 0 .039.095.07.21.07.115 0 .209.031.209.07 0 .038.063.07.14.07.077 0 .14.031.14.07 0 .038.094.07.209.07.116 0 .21.031.21.069 0 .039.094.07.209.07.116 0 .21.032.21.07 0 .039.094.07.21.07.115 0 .209.032.209.07 0 .038.094.07.21.07.115 0 .209.031.209.07 0 .038.126.07.28.07.153 0 .279.031.279.07 0 .038.094.069.21.069.115 0 .209.032.209.07 0 .039.094.07.21.07.115 0 .209.032.209.07 0 .039.094.07.21.07.115 0 .209.031.209.07 0 .038.094.07.21.07.115 0 .209.031.209.07 0 .038.126.07.28.07.153 0 .279.031.279.069 0 .039.094.07.21.07.115 0 .209.032.209.07 0 .039.126.07.28.07.153 0 .279.032.279.07 0 .038.094.07.209.07.116 0 .21.031.21.07 0 .038.126.07.279.07.154 0 .28.031.28.07 0 .038.125.069.279.069.154 0 .28.032.28.07 0 .039.125.07.279.07.154 0 .279.032.279.07 0 .039.126.07.28.07.153 0 .279.031.279.07 0 .038.126.07.279.07.154 0 .28.031.28.07 0 .038.126.069.279.069.154 0 .28.032.28.07 0 .039.157.07.349.07.192 0 .349.032.349.07 0 .039.157.07.349.07.192 0 .35.031.35.07 0 .038.157.07.349.07.192 0 .349.031.349.07 0 .039.186.07.419.07.233 0 .419.031.419.069 0 .039.186.07.419.07.233 0 .419.031.419.07 0 .041.233.07.559.07.326 0 .559.029.559.07 0 .042.279.07.698.07.419 0 .699.028.699.07 0 .045.628.07 1.746.07 1.118 0 1.746-.025 1.746-.07 0-.042.28-.07.699-.07.419 0 .698-.028.698-.07 0-.04.21-.07.489-.07s.489-.03.489-.07c0-.038.157-.07.349-.07.192 0 .349-.031.349-.07 0-.038.158-.069.35-.069.192 0 .349-.032.349-.07 0-.039.126-.07.279-.07.154 0 .28-.032.28-.07 0-.039.125-.07.279-.07.154 0 .279-.031.279-.07 0-.038.095-.07.21-.07.115 0 .21-.031.21-.07 0-.038.094-.07.209-.07.115 0 .21-.031.21-.069 0-.039.094-.07.209-.07.115 0 .21-.032.21-.07 0-.039.094-.07.209-.07.115 0 .21-.031.21-.07 0-.038.094-.07.209-.07.116 0 .21-.031.21-.07 0-.038.094-.07.209-.07.116 0 .21-.031.21-.069 0-.039.063-.07.14-.07.076 0 .139-.032.139-.07 0-.039.095-.07.21-.07.115 0 .209-.032.209-.07 0-.038.063-.07.14-.07.077 0 .14-.031.14-.07 0-.038.063-.07.139-.07.077 0 .14-.031.14-.07 0-.038.094-.069.21-.069.115 0 .209-.032.209-.07 0-.039.063-.07.14-.07.077 0 .14-.032.14-.07 0-.039.062-.07.139-.07.077 0 .14-.031.14-.07 0-.038.063-.07.14-.07.077 0 .139-.031.139-.07 0-.038.063-.07.14-.07.077 0 .14-.031.14-.069 0-.039.063-.07.14-.07.076 0 .139-.032.139-.07 0-.039.063-.07.14-.07.077 0 .14-.032.14-.07 0-.038.056-.07.124-.07s.169-.063.225-.14c.055-.077.156-.139.225-.139.068 0 .124-.032.124-.07 0-.039.063-.07.14-.07.077 0 .139-.032.139-.07 0-.039.063-.07.14-.07.077 0 .14-.031.14-.07 0-.038.056-.07.124-.07s.17-.063.225-.14c.055-.076.157-.139.225-.139s.124-.032.124-.07c0-.039.056-.07.125-.07.068 0 .169-.063.225-.14.055-.077.149-.14.209-.14s.154-.063.21-.139c.055-.077.149-.14.209-.14s.154-.063.21-.14c.055-.077.149-.14.209-.14s.154-.063.21-.139c.055-.077.149-.14.209-.14s.154-.063.21-.14c.055-.077.144-.14.197-.14.053 0 .184-.094.292-.209.107-.116.233-.21.279-.21.046 0 .172-.094.28-.21.107-.115.233-.209.279-.209.046 0 .172-.095.279-.21.108-.115.233-.21.278-.21.045 0 .203-.126.351-.279.148-.154.305-.28.349-.28.045 0 .202-.126.349-.279.148-.154.304-.28.348-.28.044 0 .264-.189.491-.419.226-.231.445-.42.487-.42.042 0 .388-.314.77-.698.381-.385.726-.699.766-.699.095 0 2.796-2.703 2.796-2.797 0-.04.377-.448.838-.907.461-.459.838-.869.838-.911 0-.041.189-.261.419-.487.231-.226.419-.447.419-.489 0-.043.189-.263.42-.489.23-.227.419-.447.419-.49 0-.043.157-.232.349-.419.192-.187.349-.376.349-.42 0-.044.126-.201.279-.349.154-.147.28-.305.28-.349 0-.045.126-.202.279-.35.154-.147.28-.305.28-.349 0-.044.125-.202.279-.349.154-.148.279-.306.279-.351 0-.046.095-.171.21-.278.115-.108.21-.234.21-.28 0-.046.094-.172.209-.28.115-.107.21-.233.21-.279 0-.046.094-.172.209-.28.115-.107.21-.233.21-.279 0-.046.094-.172.209-.28.115-.107.21-.233.21-.279 0-.046.094-.172.209-.28.116-.108.21-.239.21-.292 0-.053.063-.142.14-.197.076-.055.139-.144.139-.197 0-.053.095-.185.21-.292.115-.108.209-.239.209-.292 0-.053.063-.142.14-.197.077-.056.14-.15.14-.21s.063-.154.139-.21c.077-.055.14-.144.14-.197 0-.053.094-.184.21-.292.115-.108.209-.239.209-.292 0-.053.063-.142.14-.197.077-.056.14-.15.14-.21s.062-.154.139-.209c.077-.056.14-.15.14-.21s.063-.154.14-.21c.076-.055.139-.15.139-.209 0-.06.063-.155.14-.21.077-.056.14-.15.14-.21s.063-.154.139-.209c.077-.056.14-.15.14-.21s.063-.154.14-.21c.077-.055.139-.15.139-.209 0-.06.063-.155.14-.21.077-.055.14-.15.14-.21s.063-.154.14-.209c.076-.056.139-.15.139-.21s.063-.154.14-.21c.077-.055.14-.156.14-.225 0-.068.031-.124.069-.124.039 0 .07-.056.07-.124 0-.069.063-.17.14-.226.077-.055.14-.149.14-.209s.063-.154.139-.21c.077-.055.14-.15.14-.21 0-.059.063-.154.14-.209.077-.056.139-.157.139-.225 0-.069.032-.125.07-.125.039 0 .07-.056.07-.124s.063-.17.14-.225c.077-.056.14-.15.14-.21s.062-.154.139-.209c.077-.056.14-.157.14-.226 0-.068.031-.124.07-.124.038 0 .07-.056.07-.124 0-.069.063-.17.139-.225.077-.056.14-.157.14-.225 0-.069.031-.125.07-.125.038 0 .07-.056.07-.124s.063-.17.139-.225c.077-.056.14-.15.14-.21s.063-.154.14-.209c.077-.056.14-.157.14-.226 0-.068.031-.124.069-.124.039 0 .07-.056.07-.124 0-.069.063-.17.14-.225.077-.056.14-.157.14-.225 0-.069.031-.125.069-.125.039 0 .07-.056.07-.124 0-.069.063-.17.14-.225.077-.056.14-.157.14-.225 0-.069.031-.125.07-.125.038 0 .069-.063.069-.139 0-.077.032-.14.07-.14.039 0 .07-.056.07-.125 0-.068.063-.169.14-.225.077-.055.139-.156.139-.225 0-.068.032-.124.07-.124.039 0 .07-.056.07-.124 0-.069.063-.17.14-.225.077-.056.139-.157.139-.226 0-.068.032-.124.07-.124.039 0 .07-.063.07-.14 0-.077.032-.139.07-.139.038 0 .07-.056.07-.125 0-.068.063-.169.14-.225.076-.055.139-.157.139-.225s.032-.124.07-.124c.039 0 .07-.063.07-.14 0-.077.031-.14.07-.14.038 0 .07-.063.07-.14 0-.077.031-.139.07-.139.038 0 .069-.056.069-.125 0-.068.063-.169.14-.225.077-.055.14-.157.14-.225s.031-.124.07-.124c.038 0 .069-.063.069-.14 0-.077.032-.14.07-.14.039 0 .07-.063.07-.14 0-.076.032-.139.07-.139.038 0 .07-.063.07-.14 0-.077.031-.14.07-.14.038 0 .07-.056.07-.124 0-.069.062-.17.139-.225.077-.056.14-.157.14-.225 0-.069.031-.125.07-.125.038 0 .07-.063.07-.14 0-.076.031-.139.069-.139.039 0 .07-.063.07-.14 0-.077.032-.14.07-.14.039 0 .07-.063.07-.14 0-.077.031-.139.07-.139.038 0 .07-.063.07-.14 0-.077.031-.14.07-.14.038 0 .069-.063.069-.14 0-.077.032-.14.07-.14.039 0 .07-.055.07-.124 0-.068.063-.17.14-.225.077-.055.139-.157.139-.225s.032-.124.07-.124c.039 0 .07-.063.07-.14 0-.077.032-.14.07-.14.038 0 .07-.063.07-.14 0-.077.031-.139.07-.139.038 0 .07-.063.07-.14 0-.077.031-.14.069-.14.039 0 .07-.063.07-.14 0-.077.032-.14.07-.14.039 0 .07-.062.07-.139 0-.077.031-.14.07-.14.038 0 .07-.063.07-.14 0-.077.031-.14.069-.14.039 0 .07-.063.07-.139 0-.077.032-.14.07-.14.039 0 .07-.063.07-.14 0-.077.031-.14.07-.14.038 0 .07-.063.07-.14 0-.076.031-.139.07-.139.038 0 .069-.063.069-.14 0-.077.032-.14.07-.14.039 0 .07-.063.07-.14 0-.076.032-.139.07-.139.038 0 .07-.063.07-.14 0-.077.031-.14.07-.14.038 0 .069-.063.069-.14 0-.077.032-.139.07-.139.039 0 .07-.063.07-.14 0-.077.032-.14.07-.14.038 0 .07-.094.07-.21 0-.115.031-.209.07-.209.038 0 .07-.063.07-.14 0-.077.031-.14.069-.14.039 0 .07-.063.07-.14 0-.077.032-.139.07-.139.039 0 .07-.063.07-.14 0-.077.031-.14.07-.14.038 0 .07-.063.07-.14 0-.077.031-.14.069-.14.039 0 .07-.062.07-.139 0-.077.032-.14.07-.14.039 0 .07-.063.07-.14 0-.077.031-.14.07-.14.038 0 .07-.094.07-.209 0-.116.031-.21.07-.21.038 0 .069-.063.069-.14 0-.077.032-.139.07-.139.039 0 .07-.063.07-.14 0-.077.032-.14.07-.14.038 0 .07-.063.07-.14 0-.077.031-.14.07-.14.038 0 .069-.062.069-.139 0-.077.032-.14.07-.14.039 0 .07-.094.07-.21 0-.115.032-.209.07-.209.038 0 .07-.063.07-.14 0-.077.031-.14.07-.14.038 0 .07-.063.07-.14 0-.077.031-.14.069-.14.039 0 .07-.094.07-.209 0-.116.032-.21.07-.21.039 0 .07-.063.07-.14 0-.077.031-.139.07-.139.038 0 .07-.063.07-.14 0-.077.031-.14.07-.14.038 0 .069-.094.069-.21 0-.115.032-.209.07-.209.039 0 .07-.063.07-.14 0-.077.031-.14.07-.14.038 0 .07-.094.07-.209 0-.116.031-.21.07-.21.038 0 .069-.063.069-.14 0-.077.032-.14.07-.14.039 0 .07-.063.07-.139 0-.077.032-.14.07-.14.038 0 .07-.095.07-.21 0-.115.031-.21.07-.21.038 0 .069-.062.069-.139 0-.077.032-.14.07-.14.039 0 .07-.094.07-.21 0-.115.032-.209.07-.209.038 0 .07-.063.07-.14 0-.077.031-.14.07-.14.038 0 .07-.094.07-.21 0-.115.031-.209.069-.209.039 0 .07-.095.07-.21 0-.115.032-.21.07-.21.039 0 .07-.063.07-.139 0-.077.031-.14.07-.14.038 0 .07-.094.07-.21 0-.115.031-.209.07-.209.038 0 .069-.095.069-.21 0-.115.032-.21.07-.21.039 0 .07-.063.07-.14 0-.076.031-.139.07-.139.038 0 .07-.095.07-.21 0-.115.031-.21.07-.21.038 0 .069-.094.069-.209 0-.116.032-.21.07-.21.039 0 .07-.094.07-.21 0-.115.032-.209.07-.209.038 0 .07-.095.07-.21 0-.115.031-.21.07-.21.038 0 .07-.063.07-.139 0-.077.031-.14.069-.14.039 0 .07-.095.07-.21 0-.115.032-.209.07-.209.038 0 .07-.095.07-.21 0-.115.031-.21.07-.21.038 0 .07-.094.07-.209 0-.116.031-.21.069-.21.039 0 .07-.094.07-.21 0-.115.032-.209.07-.209.039 0 .07-.095.07-.21 0-.115.031-.21.07-.21.038 0 .07-.126.07-.279 0-.154.031-.28.07-.28.038 0 .069-.092.069-.204 0-.112.039-.217.087-.232.144-.048-.122-.263-.326-.263-.099 0-.18-.031-.18-.07 0-.038-.094-.07-.209-.07-.115 0-.21-.031-.21-.069 0-.039-.094-.07-.209-.07-.116 0-.21-.032-.21-.07 0-.039-.094-.07-.209-.07-.116 0-.21-.032-.21-.07 0-.038-.063-.07-.14-.07-.076 0-.139-.031-.139-.07 0-.038-.095-.07-.21-.07-.115 0-.209-.031-.209-.069 0-.039-.095-.07-.21-.07-.115 0-.21-.032-.21-.07 0-.039-.062-.07-.139-.07-.077 0-.14-.032-.14-.07 0-.038-.063-.07-.14-.07-.076 0-.139-.031-.139-.07 0-.038-.095-.07-.21-.07-.115 0-.209-.031-.209-.07 0-.038-.063-.069-.14-.069-.077 0-.14-.032-.14-.07 0-.039-.063-.07-.139-.07-.077 0-.14-.032-.14-.07 0-.039-.063-.07-.14-.07-.077 0-.14-.031-.14-.07 0-.038-.062-.07-.139-.07-.077 0-.14-.031-.14-.07 0-.038-.063-.07-.14-.07-.076 0-.139-.031-.139-.069 0-.039-.063-.07-.14-.07-.077 0-.14-.032-.14-.07 0-.039-.063-.07-.139-.07-.077 0-.14-.032-.14-.07 0-.038-.063-.07-.14-.07-.077 0-.139-.031-.139-.07 0-.038-.063-.07-.14-.07-.077 0-.14-.031-.14-.07 0-.038-.056-.069-.124-.069s-.17-.063-.225-.14c-.055-.077-.157-.14-.225-.14s-.124-.031-.124-.07c0-.038-.063-.07-.14-.07-.077 0-.14-.031-.14-.07 0-.038-.056-.07-.124-.07s-.17-.062-.225-.139c-.055-.077-.15-.14-.209-.14-.06 0-.155-.063-.21-.14-.055-.077-.157-.14-.225-.14s-.124-.031-.124-.07c0-.038-.056-.069-.124-.069-.069 0-.17-.063-.225-.14-.056-.077-.15-.14-.21-.14s-.154-.063-.21-.14c-.055-.077-.144-.139-.197-.139-.052 0-.184-.095-.291-.21-.108-.115-.24-.21-.292-.21-.053 0-.142-.063-.197-.14-.056-.076-.144-.139-.197-.139-.053 0-.185-.095-.292-.21-.108-.115-.233-.21-.278-.21-.046 0-.203-.125-.351-.279-.148-.154-.305-.28-.349-.28-.045 0-.202-.126-.349-.279-.148-.154-.304-.28-.348-.28-.043 0-.295-.22-.56-.489-.266-.269-.516-.489-.556-.489-.041 0-.938-.865-1.994-1.922s-1.921-1.955-1.921-1.995c0-.04-.22-.291-.489-.556-.268-.265-.488-.517-.488-.56 0-.043-.158-.231-.35-.418-.192-.188-.349-.377-.349-.421 0-.044-.126-.2-.279-.348-.154-.148-.28-.306-.28-.351 0-.045-.094-.17-.209-.278-.115-.108-.21-.234-.21-.28 0-.046-.094-.172-.209-.279-.116-.108-.21-.234-.21-.28 0-.046-.094-.172-.209-.279-.116-.108-.21-.234-.21-.28 0-.046-.094-.172-.209-.279-.116-.108-.21-.234-.21-.28 0-.046-.094-.172-.21-.28-.115-.107-.209-.239-.209-.292 0-.053-.063-.141-.14-.197-.077-.055-.139-.149-.139-.209s-.063-.155-.14-.21c-.077-.055-.14-.15-.14-.21s-.063-.154-.14-.209c-.076-.056-.139-.15-.139-.21s-.063-.154-.14-.21c-.077-.055-.14-.149-.14-.209s-.063-.155-.139-.21c-.077-.055-.14-.15-.14-.21s-.063-.154-.14-.209c-.077-.056-.139-.15-.139-.21s-.063-.154-.14-.21c-.077-.055-.14-.156-.14-.225 0-.068-.031-.124-.07-.124-.038 0-.07-.056-.07-.124 0-.069-.062-.17-.139-.225-.077-.056-.14-.157-.14-.226 0-.068-.031-.124-.07-.124-.038 0-.07-.056-.07-.124 0-.069-.062-.17-.139-.225-.077-.056-.14-.157-.14-.225 0-.069-.031-.125-.07-.125-.038 0-.07-.063-.07-.14 0-.076-.031-.139-.07-.139-.038 0-.069-.056-.069-.125 0-.068-.063-.169-.14-.225-.077-.055-.14-.156-.14-.225 0-.068-.031-.124-.07-.124-.038 0-.069-.063-.069-.14 0-.077-.032-.14-.07-.14-.039 0-.07-.063-.07-.14 0-.076-.032-.139-.07-.139-.038 0-.07-.063-.07-.14 0-.077-.031-.14-.07-.14-.038 0-.07-.063-.07-.14 0-.076-.031-.139-.069-.139-.039 0-.07-.063-.07-.14 0-.077-.032-.14-.07-.14-.038 0-.07-.063-.07-.14 0-.077-.031-.139-.07-.139-.038 0-.07-.063-.07-.14 0-.077-.031-.14-.069-.14-.039 0-.07-.063-.07-.14 0-.077-.032-.14-.07-.14-.039 0-.07-.062-.07-.139 0-.077-.031-.14-.07-.14-.038 0-.07-.063-.07-.14 0-.077-.031-.14-.07-.14-.038 0-.069-.063-.069-.139 0-.077-.032-.14-.07-.14-.039 0-.07-.063-.07-.14 0-.077-.032-.14-.07-.14-.038 0-.07-.063-.07-.14 0-.076-.031-.139-.07-.139-.038 0-.069-.063-.069-.14 0-.077-.032-.14-.07-.14-.039 0-.07-.094-.07-.21 0-.115-.032-.209-.07-.209-.038 0-.07-.063-.07-.14 0-.077-.031-.14-.07-.14-.038 0-.07-.063-.07-.14 0-.076-.031-.139-.069-.139-.039 0-.07-.095-.07-.21 0-.115-.032-.21-.07-.21-.038 0-.07-.062-.07-.139 0-.077-.031-.14-.07-.14-.038 0-.07-.094-.07-.21 0-.115-.031-.209-.069-.209-.039 0-.07-.063-.07-.14 0-.077-.032-.14-.07-.14-.039 0-.07-.094-.07-.21 0-.115-.031-.209-.07-.209-.038 0-.07-.063-.07-.14 0-.077-.031-.14-.07-.14-.038 0-.069-.094-.069-.21 0-.115-.032-.209-.07-.209-.039 0-.07-.095-.07-.21 0-.115-.032-.21-.07-.21-.038 0-.07-.094-.07-.209 0-.115-.031-.21-.07-.21-.038 0-.069-.094-.069-.209 0-.116-.032-.21-.07-.21-.039 0-.07-.094-.07-.21 0-.115-.032-.209-.07-.209-.038 0-.07-.095-.07-.21 0-.115-.031-.21-.07-.21-.038 0-.07-.094-.07-.209 0-.116-.031-.21-.069-.21-.039 0-.07-.094-.07-.21 0-.115-.032-.209-.07-.209-.039 0-.07-.126-.07-.28 0-.154-.031-.28-.07-.28-.038 0-.07-.094-.07-.209 0-.116-.031-.21-.069-.21-.039 0-.07-.126-.07-.279 0-.154-.032-.28-.07-.28-.039 0-.07-.126-.07-.28 0-.153-.031-.279-.07-.279-.038 0-.07-.126-.07-.28 0-.153-.031-.279-.07-.279-.038 0-.069-.126-.069-.28 0-.153-.032-.279-.07-.279-.039 0-.07-.157-.07-.35 0-.192-.032-.349-.07-.349-.038 0-.07-.126-.07-.28 0-.153-.031-.279-.07-.279-.038 0-.069-.157-.069-.35 0-.192-.032-.349-.07-.349-.039 0-.07-.186-.07-.419 0-.233-.031-.42-.07-.42-.039 0-.07-.186-.07-.419 0-.233-.031-.419-.07-.419-.04 0-.07-.21-.07-.49 0-.279-.03-.489-.069-.489-.04 0-.07-.209-.07-.489 0-.279-.03-.489-.07-.489-.042 0-.07-.256-.07-.629s-.028-.629-.07-.629c-.042 0-.07-.326-.07-.839 0-.512-.027-.838-.069-.838-.045 0-.07-.676-.07-1.887 0-1.212-.025-1.887-.07-1.887-.039 0-.07-.187-.07-.42 0-.233.031-.419.07-.419.044 0 .07-.629.07-1.747s.025-1.747.07-1.747c.042 0 .069-.303.069-.769s.028-.769.07-.769c.042 0 .07-.256.07-.629 0-.372.028-.629.07-.629.04 0 .07-.209.07-.489 0-.279.03-.489.07-.489.038 0 .069-.186.069-.419 0-.233.031-.42.07-.42.039 0 .07-.186.07-.419 0-.233.031-.419.07-.419.038 0 .07-.158.07-.35 0-.192.031-.349.07-.349.038 0 .07-.158.07-.35 0-.192.031-.349.069-.349.039 0 .07-.126.07-.28 0-.153.032-.279.07-.279.038 0 .07-.157.07-.35 0-.192.031-.349.07-.349.038 0 .07-.126.07-.28 0-.153.031-.279.069-.279.039 0 .07-.095.07-.21 0-.115.032-.209.07-.209.039 0 .07-.126.07-.28 0-.154.031-.28.07-.28.038 0 .07-.125.07-.279 0-.154.031-.28.07-.28.038 0 .069-.094.069-.209 0-.116.032-.21.07-.21.039 0 .07-.094.07-.21 0-.115.031-.209.07-.209.038 0 .07-.095.07-.21 0-.115.031-.21.07-.21.038 0 .069-.094.069-.209 0-.116.032-.21.07-.21.039 0 .07-.094.07-.21 0-.115.032-.209.07-.209.038 0 .07-.095.07-.21 0-.115.031-.21.07-.21.038 0 .07-.094.07-.209 0-.116.031-.21.069-.21.039 0 .07-.094.07-.21 0-.115.032-.209.07-.209.038 0 .07-.063.07-.14 0-.077.031-.14.07-.14.038 0 .07-.094.07-.209 0-.116.031-.21.069-.21.039 0 .07-.094.07-.21 0-.115.032-.209.07-.209.039 0 .07-.063.07-.14 0-.077.031-.14.07-.14.038 0 .07-.063.07-.14 0-.077.031-.14.07-.14.038 0 .069-.094.069-.209 0-.115.032-.21.07-.21.039 0 .07-.063.07-.14 0-.076.032-.139.07-.139.038 0 .07-.063.07-.14 0-.077.031-.14.07-.14.038 0 .069-.094.069-.21 0-.115.032-.209.07-.209.039 0 .07-.063.07-.14 0-.077.032-.14.07-.14.038 0 .07-.063.07-.14 0-.076.031-.139.07-.139.038 0 .07-.063.07-.14 0-.077.031-.14.069-.14.039 0 .07-.063.07-.14 0-.077.032-.139.07-.139.038 0 .07-.063.07-.14 0-.077.031-.14.07-.14.038 0 .07-.063.07-.14 0-.077.031-.14.069-.14.039 0 .07-.062.07-.139 0-.077.032-.14.07-.14.039 0 .07-.063.07-.14 0-.077.031-.14.07-.14.038 0 .07-.063.07-.139 0-.077.031-.14.07-.14.038 0 .069-.063.069-.14 0-.077.032-.14.07-.14.039 0 .07-.063.07-.139 0-.077.032-.14.07-.14.038 0 .07-.063.07-.14 0-.077.031-.14.07-.14.038 0 .069-.056.069-.124 0-.069.063-.17.14-.225.077-.056.14-.157.14-.225 0-.069.031-.125.07-.125.038 0 .07-.063.07-.139 0-.077.031-.14.069-.14.039 0 .07-.056.07-.125 0-.068.063-.169.14-.225.077-.055.14-.156.14-.225 0-.068.031-.124.069-.124.039 0 .07-.056.07-.124 0-.069.063-.17.14-.226.077-.055.14-.156.14-.225 0-.068.031-.124.07-.124.038 0 .069-.056.069-.124 0-.069.063-.17.14-.225.077-.056.14-.15.14-.21s.063-.154.139-.21c.077-.055.14-.149.14-.209s.063-.155.14-.21c.077-.055.14-.15.14-.21s.062-.154.139-.209c.077-.056.14-.15.14-.21s.063-.154.14-.21c.076-.055.139-.149.139-.209s.063-.155.14-.21c.077-.055.14-.15.14-.21s.063-.154.139-.209c.077-.056.14-.144.14-.197 0-.053.094-.185.21-.293.115-.107.209-.233.209-.279 0-.046.094-.172.21-.28.115-.107.209-.233.209-.279 0-.046.095-.172.21-.28.115-.107.209-.233.209-.278 0-.045.126-.203.28-.351.153-.147.279-.304.279-.348 0-.044.157-.233.349-.42.192-.188.35-.376.35-.419 0-.043.188-.264.419-.49.23-.226.419-.446.419-.488 0-.042.251-.326.559-.63.307-.304.558-.586.558-.626 0-.096 6.194-6.293 6.289-6.293.04 0 .384-.314.766-.699.381-.384.727-.699.769-.699.041 0 .324-.251.628-.559.304-.307.587-.559.629-.559.042 0 .293-.22.558-.489.265-.269.516-.489.557-.489.041 0 .28-.206.531-.457l.457-.458-.213-.199c-.118-.11-.214-.237-.214-.282 0-.044-.157-.234-.35-.421-.192-.188-.349-.376-.349-.419 0-.043-.188-.263-.419-.49-.23-.226-.419-.446-.419-.488 0-.042-.251-.326-.559-.63-.307-.304-.558-.587-.558-.628 0-.041-.378-.45-.839-.91-.461-.459-.838-.867-.838-.906 0-.095-2.841-2.937-2.935-2.937-.04 0-.416-.346-.837-.769-.42-.423-.798-.769-.839-.769-.042 0-.261-.188-.488-.419-.226-.231-.446-.419-.489-.419-.042 0-.262-.189-.488-.42-.227-.23-.447-.419-.491-.419-.044 0-.2-.126-.348-.28-.147-.153-.305-.279-.35-.279-.046 0-.171-.095-.278-.21-.108-.115-.233-.209-.278-.209-.045 0-.203-.126-.351-.28-.148-.154-.311-.28-.363-.28-.052 0-.14-.062-.196-.139-.055-.077-.144-.14-.197-.14-.052 0-.184-.094-.292-.21-.107-.115-.239-.209-.292-.209-.052 0-.141-.063-.196-.14-.056-.077-.15-.14-.21-.14s-.154-.063-.21-.14c-.055-.077-.149-.14-.209-.14s-.154-.062-.21-.139c-.055-.077-.149-.14-.209-.14s-.154-.063-.21-.14c-.055-.077-.149-.14-.209-.14s-.154-.063-.21-.139c-.055-.077-.149-.14-.209-.14s-.155-.063-.21-.14c-.055-.077-.156-.14-.225-.14-.068 0-.124-.031-.124-.07 0-.038-.056-.069-.124-.069-.069 0-.17-.063-.225-.14-.056-.077-.157-.14-.225-.14-.069 0-.125-.031-.125-.07 0-.038-.056-.07-.124-.07s-.169-.063-.225-.14c-.055-.076-.156-.139-.225-.139-.068 0-.124-.032-.124-.07 0-.039-.063-.07-.14-.07-.077 0-.139-.032-.139-.07 0-.038-.063-.07-.14-.07-.077 0-.14-.031-.14-.07 0-.038-.056-.07-.124-.07s-.17-.063-.225-.139c-.055-.077-.157-.14-.225-.14s-.124-.032-.124-.07c0-.039-.063-.07-.14-.07-.077 0-.14-.031-.14-.07 0-.038-.063-.07-.139-.07-.077 0-.14-.031-.14-.07 0-.038-.063-.07-.14-.07-.077 0-.139-.031-.139-.069 0-.039-.063-.07-.14-.07-.077 0-.14-.032-.14-.07 0-.039-.063-.07-.14-.07-.076 0-.139-.032-.139-.07 0-.038-.063-.07-.14-.07-.077 0-.14-.031-.14-.07 0-.038-.062-.07-.139-.07-.077 0-.14-.031-.14-.07 0-.038-.063-.069-.14-.069-.077 0-.139-.032-.139-.07 0-.039-.063-.07-.14-.07-.077 0-.14-.032-.14-.07 0-.039-.094-.07-.209-.07-.116 0-.21-.031-.21-.07 0-.038-.063-.07-.14-.07-.076 0-.139-.031-.139-.07 0-.038-.063-.069-.14-.069-.077 0-.14-.032-.14-.07 0-.039-.062-.07-.139-.07-.077 0-.14-.032-.14-.07 0-.039-.094-.07-.21-.07-.115 0-.209-.031-.209-.07 0-.038-.063-.07-.14-.07-.077 0-.139-.031-.139-.07 0-.038-.095-.07-.21-.07-.115 0-.21-.031-.21-.069 0-.039-.062-.07-.139-.07-.077 0-.14-.032-.14-.07 0-.039-.094-.07-.209-.07-.116 0-.21-.032-.21-.07 0-.038-.063-.07-.14-.07-.077 0-.139-.031-.139-.07 0-.038-.095-.07-.21-.07-.115 0-.21-.031-.21-.07 0-.038-.094-.069-.209-.069-.115 0-.21-.032-.21-.07 0-.039-.094-.07-.209-.07-.115 0-.21-.032-.21-.07 0-.039-.094-.07-.209-.07-.115 0-.21-.031-.21-.07 0-.038-.094-.07-.209-.07-.116 0-.21-.031-.21-.07 0-.038-.094-.07-.209-.07-.116 0-.21-.031-.21-.069 0-.039-.094-.07-.209-.07-.116 0-.21-.032-.21-.07 0-.039-.094-.07-.21-.07-.115 0-.209-.032-.209-.07 0-.038-.126-.07-.279-.07-.154 0-.28-.031-.28-.07 0-.038-.094-.07-.209-.07-.116 0-.21-.031-.21-.07 0-.038-.126-.069-.279-.069-.154 0-.28-.032-.28-.07 0-.039-.125-.07-.279-.07-.154 0-.279-.032-.279-.07 0-.039-.126-.07-.28-.07-.154 0-.279-.031-.279-.07 0-.038-.126-.07-.28-.07-.153 0-.279-.031-.279-.07 0-.038-.157-.07-.349-.07-.192 0-.349-.031-.349-.069 0-.039-.158-.07-.35-.07-.192 0-.349-.032-.349-.07 0-.039-.157-.07-.349-.07-.192 0-.349-.032-.349-.07 0-.039-.187-.07-.419-.07-.233 0-.42-.031-.42-.07 0-.039-.186-.07-.419-.07-.232 0-.419-.031-.419-.069 0-.04-.209-.07-.489-.07-.279 0-.489-.03-.489-.07 0-.041-.232-.07-.558-.07-.326 0-.559-.029-.559-.07 0-.042-.28-.07-.699-.07-.419 0-.698-.028-.698-.07 0-.043-.373-.07-.978-.07s-.978-.026-.978-.07c0-.045-1.071-.069-3.073-.069s-3.073.024-3.073.069z" fill="#fff"/><defs><linearGradient id="paint0_linear" x1="240" y1="0" x2="240" y2="701.818" gradientUnits="userSpaceOnUse"><stop stop-color="#08021E"/><stop offset="1" stop-color="#1F0777"/></linearGradient></defs></svg>