<svg width="42" height="42" fill="none" xmlns="http://www.w3.org/2000/svg">
  <g clip-path="url(#a)">
    <mask id="c" width="42" height="42" x="0" y="0" maskUnits="userSpaceOnUse" style="mask-type:alpha">
      <circle cx="21" cy="21" r="21" fill="url(#b)"/>
    </mask>
    <g mask="url(#c)">
      <circle cx="21" cy="21" r="21" fill="#34EDB3"/>
      <circle cx="21" cy="21" r="18.2" fill="#fff"/>
    </g>
    <circle cx="21" cy="21" r="16.1" fill="#06061B"/>
    <circle cx="21" cy="21" r="16.1" fill="#06061B"/>
    <path fill="#fff" fill-rule="evenodd" d="M24.783 9.98c0 .004-.014.007-.03.007-.018 0-.031.003-.031.006q-.002.006-.025.006c-.013 0-.024.003-.024.006 0 .004-.011.006-.025.006-.013 0-.024.003-.024.007 0 .003-.011.006-.025.006-.013 0-.024.003-.024.006s-.008.006-.018.006-.019.003-.019.006-.01.006-.024.006-.025.003-.025.006q-.002.006-.024.006c-.022 0-.025.003-.025.006q-.001.007-.018.007t-.018.006c0 .003-.011.006-.025.006-.013 0-.024.003-.024.006s-.008.006-.018.006-.019.003-.019.006q-.002.006-.024.006c-.022 0-.025.003-.025.006q-.002.006-.018.007-.017 0-.018.006c0 .003-.009.006-.019.006s-.018.002-.018.006q-.001.005-.018.006-.017 0-.019.006t-.018.006-.018.006c0 .004-.009.007-.019.007s-.018.002-.018.006q-.002.005-.018.006-.017 0-.019.006-.002.005-.018.006-.017 0-.018.006-.003.007-.019.006c-.016-.001-.018.003-.018.006q-.001.006-.018.006t-.019.007q-.002.005-.018.006-.017 0-.018.006-.001.005-.013.006-.01 0-.012.006-.003.008-.018.006-.016 0-.018.006c0 .004-.009.006-.019.006s-.018.003-.018.006q-.002.007-.012.007-.012 0-.013.006-.002.005-.018.006-.017 0-.018.006-.002.008-.012.006-.012 0-.013.006t-.018.006-.018.006-.013.006q-.01 0-.012.007-.001.005-.018.006-.017 0-.018.006-.001.005-.013.006-.011 0-.012.006-.002.008-.012.006-.011 0-.012.006t-.019.006c-.017 0-.018.003-.018.006q-.001.006-.012.007-.011 0-.012.006-.001.005-.013.006-.01 0-.012.006-.002.007-.012.006-.014 0-.012.006-.002.006-.019.006c-.017 0-.018.003-.018.006q-.002.006-.012.007-.012 0-.013.006 0 .005-.012.006-.01 0-.012.006 0 .005-.012.006c-.012.001-.012.003-.012.006s-.006.006-.013.006q-.01 0-.012.006 0 .007-.012.007c-.012 0-.012.002-.012.006q-.001.005-.012.006-.012 0-.013.006-.002.008-.012.006c-.01-.002-.012.003-.012.006s-.006.006-.012.006q-.012 0-.013.006t-.012.006c-.012 0-.012.003-.012.006q-.002.006-.012.007-.012 0-.013.006-.001.005-.01.006-.01 0-.02.012-.01.011-.02.012c-.01.001-.01.003-.01.006q-.001.006-.013.006-.011 0-.012.007-.002.005-.012.006-.012 0-.013.006-.001.005-.01.006t-.02.012-.02.013c-.01.001-.01.002-.01.006q-.001.005-.013.006-.011 0-.012.006-.001.005-.011.006-.01 0-.02.012a.03.03 0 0 1-.02.012q-.009 0-.01.007-.001.005-.011.006-.01 0-.02.012-.009.011-.018.012c-.005 0-.014.006-.018.012-.005.007-.014.013-.019.013q-.009 0-.018.012-.009.011-.019.012-.009 0-.018.012-.009.011-.018.012c-.005 0-.014.006-.018.013-.005.006-.014.012-.019.012q-.009 0-.018.012-.009.011-.018.012-.01.001-.019.013-.009.01-.017.012-.01.002-.026.018c-.009.01-.02.018-.024.018s-.015.009-.024.019q-.016.017-.025.018c-.004 0-.015.008-.024.019q-.016.017-.025.018c-.004 0-.018.01-.03.024a.1.1 0 0 1-.03.025.1.1 0 0 0-.038.03.1.1 0 0 1-.036.031.4.4 0 0 0-.061.055.4.4 0 0 1-.061.055 2 2 0 0 0-.245.25.3.3 0 0 0-.049.056c0 .004-.014.02-.03.037a.1.1 0 0 0-.031.036.1.1 0 0 1-.024.03c-.014.014-.025.027-.025.031s-.008.015-.018.025q-.017.017-.019.024a.1.1 0 0 1-.018.025q-.017.016-.018.025t-.012.018c-.007.004-.013.013-.013.018q0 .009-.012.018-.011.01-.012.017c0 .005-.008.017-.018.026-.01.01-.019.022-.019.027q0 .009-.006.01-.007.002-.006.01-.001.011-.012.02t-.012.019-.013.018q-.01.009-.012.018 0 .01-.012.019-.011.009-.012.018t-.013.018q-.01.01-.012.02c-.002.01-.002.01-.006.01q-.005.002-.006.012-.002.014-.012.02a.03.03 0 0 0-.012.02q0 .009-.007.01-.005.002-.006.012 0 .011-.006.012-.005.001-.006.011 0 .01-.012.02-.011.01-.012.02c-.001.01-.003.01-.007.01q-.005.001-.006.013 0 .011-.006.012-.005.001-.006.011 0 .01-.012.02-.011.009-.012.02 0 .009-.006.01t-.007.013q0 .01-.006.012-.005 0-.006.012c-.001.012-.002.012-.006.012q-.005.002-.006.012 0 .012-.006.013-.007.002-.006.012 0 .013-.006.012-.006.001-.006.012 0 .012-.007.013-.005 0-.006.012c-.001.012-.002.012-.006.012q-.005.002-.006.012 0 .011-.006.012-.008.002-.006.013 0 .01-.006.012-.008.003-.006.012 0 .011-.006.012t-.006.013q0 .01-.007.012-.005 0-.006.012c-.001.012-.003.012-.006.012s-.006.009-.006.019-.003.018-.006.018-.006.006-.006.012q0 .012-.006.013t-.006.012c0 .012-.003.012-.006.012q-.006 0-.007.012c-.001.012-.002.012-.006.012-.003 0-.006.009-.006.019s-.003.018-.006.018-.006.006-.006.012q0 .012-.006.013-.007.002-.006.012 0 .01-.006.012t-.006.018-.007.019q-.005 0-.006.012c-.001.012-.003.012-.006.012s-.006.008-.006.019q0 .017-.006.018-.008.002-.006.012c.002.01-.003.012-.006.012-.004 0-.006.009-.006.019s-.003.018-.006.018q-.007.002-.007.018 0 .017-.006.019-.005 0-.006.012c-.001.012-.003.012-.006.012s-.006.008-.006.018q0 .017-.006.019-.008.003-.006.018c0 .01-.003.019-.006.019q-.006.002-.006.018 0 .017-.007.018-.005.001-.006.019 0 .017-.006.018-.008.002-.006.018 0 .017-.006.019-.008.003-.006.018 0 .017-.006.018-.006.002-.006.025c0 .013-.003.024-.006.024q-.006.001-.007.019 0 .016-.006.018-.005.001-.006.018c0 .01-.003.019-.006.019s-.006.01-.006.024-.003.025-.006.025-.006.01-.006.024c0 .013-.003.024-.006.024q-.006.002-.006.025c0 .013-.003.024-.007.024q-.005.002-.006.019c-.001.017-.003.018-.006.018s-.006.014-.006.03q0 .029-.006.031-.008.004-.006.025c0 .013-.003.024-.006.024-.004 0-.006.011-.006.025 0 .013-.003.024-.006.024-.004 0-.007.014-.007.03q0 .029-.006.031c-.003 0-.006.014-.006.03q0 .029-.006.031-.008.004-.006.031c.002.027-.003.03-.006.03-.004 0-.006.017-.006.037s-.003.037-.006.037c-.004 0-.006.016-.006.037s-.003.036-.007.036c-.003 0-.006.019-.006.043 0 .025-.002.043-.006.043-.003 0-.006.018-.006.043s-.003.043-.006.043c-.004 0-.006.02-.006.048 0 .029-.003.05-.006.05-.004 0-.006.024-.006.06 0 .037-.003.062-.007.062-.003 0-.006.028-.006.073s-.002.073-.006.073a.4.4 0 0 0-.006.104.4.4 0 0 1-.006.104.3.3 0 0 0-.006.098v.098h.049c.028 0 .049-.003.049-.006 0-.004.024-.006.06-.006.038 0 .062-.003.062-.006 0-.004.024-.006.061-.006s.061-.003.061-.007c0-.003.02-.006.05-.006.028 0 .048-.002.048-.006 0-.003.02-.006.049-.006.028 0 .049-.002.049-.006 0-.003.018-.006.043-.006s.042-.003.042-.006c0-.004.019-.006.043-.006s.043-.003.043-.007c0-.003.016-.006.037-.006s.036-.002.036-.006c0-.003.017-.006.037-.006s.037-.002.037-.006c0-.003.013-.006.03-.006s.03-.003.03-.006.014-.006.031-.006.03-.003.03-.006c0-.004.015-.007.031-.007.017 0 .03-.002.03-.006 0-.003.012-.006.025-.006s.025-.003.025-.006.01-.006.024-.006.025-.003.025-.006q.001-.006.024-.006c.023 0 .025-.003.025-.006q.002-.006.024-.006c.022 0 .024-.003.024-.007q.002-.005.019-.006c.017-.001.018-.002.018-.006q.001-.005.018-.006.017 0 .019-.006.002-.008.012-.006c.01.002.012-.003.012-.006q.002-.006.019-.006c.017 0 .018-.003.018-.006q0-.007.012-.007c.012 0 .012-.002.012-.006 0-.003.009-.006.019-.006s.018-.003.018-.006.005-.006.012-.006.013-.003.013-.006q0-.006.012-.006.01 0 .012-.006.002-.007.018-.007.017 0 .019-.006 0-.005.012-.006.01 0 .012-.006 0-.005.012-.006c.012-.001.012-.003.012-.006s.006-.006.013-.006q.01 0 .012-.006 0-.006.012-.006c.012 0 .012-.003.012-.007q.001-.005.011-.006.01 0 .02-.012.01-.011.02-.012c.01-.001.01-.003.01-.006q.001-.006.013-.006.01 0 .012-.007 0-.005.012-.006c.012-.001.012-.002.012-.006q.001-.005.011-.006.01 0 .02-.012.01-.011.02-.012c.01-.001.01-.003.01-.006q.001-.006.011-.006.01-.001.02-.013.009-.01.018-.012.01-.002.019-.012t.02-.012q.009 0 .01-.006t.011-.007.02-.012q.009-.011.018-.012c.005 0 .014-.006.018-.012q.009-.012.018-.013c.004 0 .016-.008.025-.018q.017-.016.026-.018t.017-.013q.01-.01.017-.012.01-.002.026-.018.017-.017.024-.018.01-.003.025-.019.017-.017.024-.018.011-.003.03-.025a.1.1 0 0 1 .031-.024.1.1 0 0 0 .037-.03.1.1 0 0 1 .037-.031.2.2 0 0 0 .042-.037.2.2 0 0 1 .043-.037.5.5 0 0 0 .067-.06.5.5 0 0 1 .067-.062 2.4 2.4 0 0 0 .269-.275.5.5 0 0 0 .062-.067c0-.004.019-.026.043-.05a.3.3 0 0 0 .042-.048c0-.004.014-.02.03-.037a.1.1 0 0 0 .031-.037c0-.003.011-.017.025-.03a.1.1 0 0 0 .024-.03q.001-.01.019-.025.017-.017.018-.024.002-.011.024-.031c.014-.013.025-.027.025-.032q0-.009.012-.017.011-.01.012-.017c0-.005.009-.017.019-.026q.017-.017.018-.024.002-.01.018-.025.017-.016.019-.025 0-.009.012-.018.011-.009.012-.018c0-.005.006-.014.012-.018q.011-.009.012-.019.001-.009.013-.018.01-.009.012-.018.002-.01.012-.019t.012-.018c0-.005.006-.014.013-.018q.01-.01.012-.02.002-.013.006-.011c.004.002.006-.005.006-.01q.002-.012.012-.02c.007-.005.013-.014.013-.019q0-.009.012-.018.01-.01.012-.02c.002-.01.003-.01.006-.01s.006-.006.006-.013q0-.011.006-.012t.006-.011q.001-.01.013-.02.01-.01.012-.02 0-.009.006-.01.007-.002.006-.013 0-.01.006-.012.006-.001.006-.01.001-.012.013-.02.01-.01.012-.02.002-.013.006-.011c.004.002.006-.005.006-.012s.003-.012.006-.012.006-.006.006-.013q0-.01.006-.012.006 0 .006-.012c0-.012.003-.012.007-.012q.005-.001.006-.013 0-.01.006-.012.005 0 .006-.012c.001-.012.003-.012.006-.012s.006-.006.006-.013q0-.01.006-.012.006 0 .006-.012c0-.012.003-.012.006-.012q.006-.001.006-.013 0-.01.007-.012.005 0 .006-.012c.001-.012.003-.012.006-.012s.006-.006.006-.012q0-.012.006-.013.008-.002.006-.012c-.002-.01.003-.012.006-.012q.006-.002.006-.018 0-.017.006-.019.006 0 .007-.012c.001-.012.002-.012.006-.012q.005-.002.006-.012 0-.012.006-.013.007-.002.006-.012 0-.013.006-.012.006-.001.006-.019t.006-.018.006-.012c0-.012.003-.012.007-.012.003 0 .006-.009.006-.019s.003-.018.006-.018.006-.005.006-.012.003-.012.006-.012.006-.009.006-.019.003-.018.006-.018q.006-.001.006-.018t.007-.019q.005 0 .006-.012c.001-.012.002-.012.006-.012.003 0 .006-.009.006-.019s.003-.018.006-.018.006-.008.006-.018.003-.019.006-.019q.006 0 .006-.012c0-.012.003-.012.006-.012q.007-.001.007-.019t.006-.018q.005-.002.006-.018 0-.017.006-.018.008-.003.006-.019c-.002-.016.003-.018.006-.018s.006-.008.006-.019q0-.017.006-.018t.006-.018c0-.01.003-.019.007-.019q.005-.002.006-.024c.001-.022.002-.025.006-.025q.005-.002.006-.018 0-.017.006-.018.007-.003.006-.019c-.001-.016.003-.018.006-.018q.006-.002.006-.024c0-.022.003-.025.006-.025q.006-.001.007-.018 0-.016.006-.018c.003 0 .006-.012.006-.025s.002-.024.006-.024q.005-.002.006-.025c0-.013.003-.024.006-.024q.006-.002.006-.025c0-.013.003-.024.006-.024q.006-.002.006-.025c0-.013.003-.024.007-.024.003 0 .006-.014.006-.03q0-.029.006-.031.005-.002.006-.025c0-.013.003-.024.006-.024s.006-.014.006-.03q0-.029.006-.031c.004 0 .006-.017.006-.037s.003-.037.007-.037c.003 0 .006-.016.006-.037s.002-.036.006-.036c.003 0 .006-.018.006-.043s.002-.043.006-.043c.003 0 .006-.022.006-.055 0-.032.002-.055.006-.055s.006-.028.006-.073.003-.074.006-.074c.004 0 .007-.069.007-.195a1.2 1.2 0 0 0-.013-.251c0-.033-.002-.055-.006-.055-.003 0-.006-.014-.006-.03 0-.017-.003-.031-.006-.031-.004 0-.006-.014-.006-.03q0-.029-.006-.031t-.006-.025c0-.013-.003-.024-.006-.024q-.006-.001-.007-.016a.04.04 0 0 0-.008-.024c-.01-.01-.028-.012-.028-.003zm-.025 4.612c0 .003-.028.006-.073.006s-.073.002-.073.006-.025.006-.062.006c-.036 0-.06.003-.06.006 0 .004-.021.006-.05.006-.028 0-.049.003-.049.006 0 .004-.018.006-.042.006s-.043.003-.043.007c0 .003-.016.006-.037.006s-.036.002-.036.006c0 .003-.017.006-.037.006s-.037.003-.037.006-.014.006-.03.006c-.017 0-.03.003-.03.006 0 .004-.017.006-.038.006s-.036.003-.036.007q-.002.005-.025.006c-.013 0-.024.002-.024.006 0 .003-.014.006-.03.006-.017 0-.031.003-.031.006s-.014.006-.03.006c-.018 0-.031.003-.031.006 0 .004-.011.006-.025.006-.013 0-.024.003-.024.006q-.002.006-.025.007c-.013 0-.024.002-.024.006 0 .003-.011.006-.024.006q-.023 0-.025.006c0 .003-.011.006-.024.006s-.025.003-.025.006-.01.006-.024.006-.025.003-.025.006q-.002.006-.024.006c-.022 0-.025.003-.025.007q-.002.005-.024.006c-.022.001-.024.003-.024.006s-.009.006-.019.006-.018.003-.018.006-.011.006-.025.006c-.013 0-.024.003-.024.006q-.002.006-.018.006c-.01 0-.019.003-.019.006q-.002.007-.024.007c-.022 0-.025.002-.025.006q-.002.005-.018.006-.017 0-.018.006-.003.008-.025.006c-.013 0-.024.003-.024.006q-.001.006-.019.006t-.018.006q-.002.006-.018.007c-.01 0-.019.002-.019.006q-.002.005-.018.006-.017 0-.018.006-.001.005-.019.006-.017 0-.018.006-.002.006-.018.006-.017 0-.019.006t-.024.007c-.022.001-.024.002-.024.006q-.001.005-.013.006-.01 0-.012.006-.002.005-.018.006-.017 0-.019.006-.003.008-.018.006-.016 0-.018.006c0 .004-.009.006-.019.006s-.018.003-.018.007q-.002.005-.018.006-.017 0-.019.006-.001.005-.018.006-.017 0-.018.006-.003.008-.019.006c-.016-.002-.018.003-.018.006q-.002.006-.018.006-.017 0-.019.006t-.018.007-.018.006-.019.006-.018.006q-.002.007-.018.006-.017 0-.019.006t-.024.006c-.022 0-.024.003-.024.006 0 .004-.009.006-.019.006s-.018.003-.018.007q-.002.005-.018.006-.017 0-.019.006-.001.005-.018.006-.016 0-.018.006-.003.007-.019.006c-.016-.001-.018.003-.018.006q-.002.006-.018.006-.017 0-.019.006t-.024.007c-.022.001-.025.002-.025.006q-.002.005-.018.006-.017 0-.018.006-.003.008-.019.006c-.016-.002-.018.003-.018.006 0 .004-.011.006-.024.006s-.025.003-.025.006q-.002.007-.018.007-.017 0-.019.006-.002.005-.024.006c-.022.001-.025.002-.025.006q-.002.005-.024.006c-.013 0-.024.003-.024.006s-.009.006-.019.006-.018.003-.018.006c0 .004-.011.007-.024.007s-.025.002-.025.006c0 .003-.011.006-.024.006q-.023 0-.025.006-.002.005-.024.006c-.022.001-.025.003-.025.006s-.01.006-.024.006-.025.003-.025.006q-.001.006-.024.006c-.023 0-.025.003-.025.006 0 .004-.013.007-.03.007s-.03.002-.03.006c0 .003-.012.006-.025.006s-.025.003-.025.006-.013.006-.03.006-.03.003-.03.006c0 .004-.017.006-.037.006s-.037.003-.037.006c0 .004-.014.006-.03.006-.017 0-.031.003-.031.007 0 .003-.019.006-.043.006s-.043.002-.043.006-.022.006-.055.006c-.032 0-.055.003-.055.006a1 1 0 0 1-.159.006.8.8 0 0 1-.207-.012c-.029 0-.05-.003-.05-.006s-.016-.006-.036-.006-.037-.003-.037-.006c0-.004-.016-.007-.036-.007s-.037-.002-.037-.006c0-.003-.014-.006-.03-.006-.017 0-.031-.002-.031-.006 0-.003-.014-.006-.03-.006-.017 0-.031-.003-.031-.006s-.014-.006-.03-.006q-.029 0-.031-.006c0-.004-.014-.006-.03-.006q-.029 0-.031-.007c0-.003-.011-.006-.025-.006-.013 0-.024-.002-.024-.006 0-.003-.014-.006-.03-.006q-.029 0-.031-.006-.004-.007-.025-.006c-.013 0-.024-.003-.024-.006q-.002-.006-.025-.006c-.013 0-.024-.003-.024-.006 0-.004-.011-.006-.025-.006-.013 0-.024-.003-.024-.007q-.002-.005-.025-.006c-.013 0-.024-.002-.024-.006 0-.003-.011-.006-.025-.006-.013 0-.024-.003-.024-.006q-.002-.006-.024-.006c-.022 0-.025-.003-.025-.006q-.002-.006-.024-.006c-.022 0-.025-.003-.025-.007q-.002-.005-.024-.006c-.022-.001-.025-.002-.025-.006q-.002-.005-.024-.006c-.022-.001-.024-.003-.024-.006s-.009-.006-.019-.006-.018-.003-.018-.006q-.002-.006-.025-.006c-.013 0-.024-.003-.024-.007 0-.003-.011-.006-.024-.006q-.023 0-.025-.006-.002-.005-.018-.006-.017 0-.019-.006-.003-.008-.024-.006c-.021.002-.024-.003-.024-.006 0-.004-.009-.006-.019-.006s-.018-.003-.018-.006q-.002-.007-.025-.007c-.013 0-.024-.002-.024-.006q-.002-.005-.018-.006-.017 0-.019-.006-.002-.005-.024-.006c-.022-.001-.025-.003-.025-.006s-.008-.006-.018-.006q-.017 0-.018-.006c0-.004-.011-.007-.025-.007-.013 0-.024-.002-.024-.006q-.001-.005-.019-.006-.017 0-.018-.006-.002-.005-.024-.006c-.022-.001-.025-.003-.025-.006s-.008-.006-.018-.006q-.017 0-.018-.006-.002-.006-.025-.006c-.013 0-.024-.003-.024-.006 0-.004-.011-.007-.025-.007-.013 0-.024-.002-.024-.006q-.002-.005-.018-.006-.017 0-.019-.006-.003-.008-.024-.006c-.021.002-.025-.003-.025-.006q-.002-.006-.024-.006c-.022 0-.025-.003-.025-.006q-.002-.006-.024-.006c-.022 0-.024-.003-.024-.007 0-.003-.009-.006-.019-.006s-.018-.002-.018-.006q-.002-.005-.025-.006c-.013 0-.024-.003-.024-.006 0-.004-.011-.006-.025-.006-.013 0-.024-.003-.024-.006 0-.004-.014-.006-.03-.006-.017 0-.031-.003-.031-.007 0-.003-.011-.006-.025-.006-.013 0-.024-.002-.024-.006 0-.003-.011-.006-.024-.006s-.025-.003-.025-.006-.01-.006-.024-.006-.025-.003-.025-.006c0-.004-.014-.006-.03-.006-.017 0-.03-.003-.03-.007 0-.003-.015-.006-.032-.006-.016 0-.03-.002-.03-.006 0-.003-.011-.006-.024-.006s-.025-.003-.025-.006-.016-.006-.037-.006-.036-.003-.036-.006-.014-.006-.03-.006c-.018 0-.031-.003-.031-.006 0-.004-.014-.007-.03-.007q-.029 0-.031-.006c0-.003-.017-.006-.037-.006s-.037-.003-.037-.006-.016-.006-.037-.006-.036-.003-.036-.006c0-.004-.017-.006-.037-.006s-.037-.003-.037-.006c0-.004-.018-.006-.042-.006s-.043-.003-.043-.007c0-.003-.018-.006-.043-.006s-.043-.002-.043-.006c0-.003-.02-.006-.049-.006-.028 0-.048-.002-.048-.006s-.025-.006-.061-.006c-.037 0-.062-.003-.062-.006 0-.004-.03-.006-.08-.006a.2.2 0 0 1-.078-.006 3 3 0 0 0-.306-.007 2.5 2.5 0 0 0-.386.013c-.048 0-.079.002-.079.006 0 .003-.022.006-.055.006-.032 0-.055.002-.055.006 0 .003-.018.006-.042.006s-.043.003-.043.006c0 .004-.018.006-.043.006s-.043.003-.043.006c0 .004-.016.007-.036.007s-.037.002-.037.006c0 .003-.014.006-.03.006-.017 0-.031.002-.031.006 0 .003-.014.006-.03.006q-.029 0-.031.006-.003.008-.025.006c-.013 0-.024.003-.024.006 0 .004-.014.006-.03.006q-.029 0-.031.007-.002.005-.025.006c-.013 0-.024.003-.024.006s-.009.006-.018.006q-.017 0-.019.006-.003.008-.024.006c-.021-.002-.025.003-.025.006q-.002.006-.024.006c-.022 0-.025.003-.025.006q-.002.007-.018.007-.017 0-.018.006c0 .003-.009.006-.019.006s-.018.003-.018.006-.008.006-.018.006-.019.003-.019.006q-.002.006-.018.006-.017 0-.018.006-.002.006-.019.007c-.017.001-.018.002-.018.006q-.002.005-.018.006-.017 0-.019.006-.001.005-.018.006-.016 0-.018.006c0 .004-.009.006-.019.006s-.018.003-.018.006q0 .006-.012.007c-.012.001-.012.002-.012.006 0 .003-.009.006-.019.006s-.018.002-.018.006q-.002.005-.012.006-.012 0-.013.006-.002.008-.018.006-.016 0-.018.006t-.013.006-.012.007q0 .005-.012.006c-.012.001-.012.002-.012.006q-.001.005-.018.006c-.01 0-.019.003-.019.006s-.005.006-.012.006-.012.003-.012.006q-.002.006-.012.006-.012 0-.013.006t-.012.007c-.012.001-.012.002-.012.006q-.002.005-.012.006-.012 0-.013.006-.002.007-.012.006-.014 0-.012.006 0 .006-.012.006c-.012 0-.012.003-.012.006q-.002.006-.018.006a.03.03 0 0 0-.025.013q-.01.01-.02.012c-.01.002-.01.003-.01.006s-.006.006-.013.006q-.011 0-.012.006t-.013.006q-.01 0-.012.006 0 .006-.012.007c-.012.001-.012.002-.012.006q-.002.005-.012.006-.012 0-.013.006-.002.008-.01.006-.012.002-.02.012-.01.012-.02.013c-.01.001-.01.002-.01.006q-.001.005-.013.006-.011 0-.012.006-.001.005-.011.006-.01 0-.02.012-.009.012-.018.013c-.005 0-.014.005-.018.012q-.01.01-.02.012-.013.002-.011.006c.002.004-.005.006-.01.006q-.012.002-.02.012-.01.012-.019.013t-.018.012-.019.012-.018.012-.018.012c-.005 0-.014.006-.018.013q-.01.01-.019.012t-.018.012q-.01.012-.017.013c-.005 0-.017.008-.026.018q-.017.017-.024.018-.01.002-.025.019-.017.016-.024.018a.1.1 0 0 0-.025.018q-.017.016-.024.018a.1.1 0 0 0-.025.019q-.017.016-.024.018a.1.1 0 0 0-.037.03.1.1 0 0 1-.036.031.1.1 0 0 0-.037.03.1.1 0 0 1-.037.031.4.4 0 0 0-.06.056 4 4 0 0 0-.385.385.4.4 0 0 0-.056.061.2.2 0 0 1-.037.043.2.2 0 0 0-.036.043c0 .003-.014.02-.03.036a.1.1 0 0 0-.031.037c0 .004-.011.018-.025.03a.1.1 0 0 0-.024.031q-.001.008-.019.025c-.01.009-.018.02-.018.024s-.011.018-.024.03c-.014.014-.025.027-.025.031s-.008.015-.018.025q-.017.016-.018.025t-.013.017q-.01.009-.012.018c0 .004-.008.016-.018.025q-.017.017-.019.026 0 .008-.012.017-.011.009-.012.018-.001.01-.012.019-.012.009-.013.018c0 .005-.005.014-.012.018-.007.005-.012.014-.012.019q0 .009-.012.018-.011.009-.012.018-.001.01-.013.019-.01.009-.012.018c0 .005-.005.014-.012.018-.007.005-.012.014-.012.019q-.002.009-.012.018-.012.009-.013.019 0 .009-.012.018-.011.01-.012.02c-.001.01-.003.01-.006.01q-.006.001-.006.011-.001.01-.013.02-.01.01-.012.02c-.002.01-.003.01-.006.01s-.006.006-.006.012-.006.014-.012.02q-.011.008-.012.019c-.001.011-.003.01-.007.01q-.005.002-.006.012a.03.03 0 0 1-.012.02q-.011.008-.012.019c-.001.011-.003.01-.006.01q-.006.001-.006.013 0 .011-.007.012-.005.001-.006.013 0 .01-.006.012-.005.001-.006.01a.03.03 0 0 1-.012.02q-.011.01-.012.02c-.001.01-.003.011-.006.011q-.007.002-.007.012t-.006.012-.006.013q0 .01-.006.012-.005 0-.006.012c-.001.012-.003.012-.006.012s-.006.006-.006.013q0 .01-.006.012-.006 0-.006.012c0 .012-.003.012-.007.012q-.005.002-.006.012 0 .012-.006.013-.005 0-.006.012c-.001.012-.003.012-.006.012s-.006.006-.006.012q0 .012-.006.013t-.006.012c0 .012-.003.012-.006.012q-.006.002-.007.012 0 .012-.006.013-.005 0-.006.012 0 .01-.006.012-.008.002-.006.012c.002.01-.003.012-.006.012q-.006.001-.006.013 0 .01-.006.012-.006 0-.006.012c0 .012-.003.012-.007.012q-.005.001-.006.013 0 .01-.006.012-.005.002-.006.018 0 .017-.006.019-.008.002-.006.012 0 .01-.006.012-.006.001-.006.012t-.006.012-.007.013q0 .01-.006.012-.005.002-.006.018 0 .017-.006.019-.005 0-.006.012c-.001.012-.003.012-.006.012q-.006.002-.006.012 0 .012-.006.013t-.007.018-.006.018-.006.012q0 .012-.006.013-.005.002-.006.018 0 .017-.006.018-.007.002-.006.013 0 .01-.006.012t-.006.018-.007.019q-.005 0-.006.012 0 .01-.006.012-.005.001-.006.018 0 .017-.006.019-.008.003-.006.018 0 .017-.006.018-.008.003-.006.019c.002.016-.003.018-.006.018q-.007.001-.007.012t-.006.012c-.003 0-.006.009-.006.019s-.002.018-.006.018q-.005.001-.006.019 0 .017-.006.018-.008.002-.006.018 0 .017-.006.019t-.006.018-.006.018-.007.019c0 .017-.002.018-.006.018q-.005.001-.006.018 0 .017-.006.019-.008.003-.006.018 0 .017-.006.018-.006.002-.006.019c0 .017-.003.018-.006.018-.004 0-.006.011-.006.024s-.003.025-.007.025q-.005.002-.006.018 0 .017-.006.019-.005.002-.006.024c-.001.022-.003.025-.006.025s-.006.008-.006.018q0 .017-.006.018-.006.002-.006.025c0 .013-.003.024-.006.024q-.006.001-.007.019 0 .017-.006.018-.005.002-.006.024c-.001.022-.003.025-.006.025s-.006.01-.006.024-.003.025-.006.025q-.006.002-.006.024c0 .022-.003.025-.006.025q-.007.002-.007.024c0 .022-.002.025-.006.025-.003 0-.006.013-.006.03s-.002.03-.006.03c-.003 0-.006.012-.006.025s-.003.025-.006.025-.006.01-.006.024-.003.025-.006.025c-.004 0-.006.013-.006.03s-.003.03-.007.03c-.003 0-.006.015-.006.031 0 .017-.002.03-.006.03-.003 0-.006.015-.006.032 0 .016-.003.03-.006.03s-.006.016-.006.037-.003.036-.006.036-.006.014-.006.031-.003.03-.006.03c-.004 0-.007.017-.007.037s-.002.037-.006.037c-.003 0-.006.016-.006.037s-.002.036-.006.036c-.003 0-.006.019-.006.043 0 .025-.003.043-.006.043-.004 0-.006.018-.006.043s-.003.043-.006.043c-.004 0-.006.02-.006.049 0 .028-.003.048-.006.048-.004 0-.007.023-.007.055 0 .033-.002.055-.006.055-.003 0-.006.023-.006.055 0 .033-.002.055-.006.055s-.006.027-.006.068c0 .04-.002.067-.006.067s-.006.03-.006.08c0 .049-.003.08-.006.08a.4.4 0 0 0-.006.103.4.4 0 0 1-.007.104c-.004 0-.006.09-.006.256 0 .2-.001.257-.007.26q-.009.004 0 .007c.006.003.007.058.007.242 0 .154.002.238.006.238s.007.04.007.11.002.11.006.11c.003 0 .006.03.006.08 0 .048.002.079.006.079s.006.026.006.067.002.067.006.067.006.023.006.055c0 .033.003.056.006.056.004 0 .006.022.006.055 0 .032.003.055.007.055.003 0 .006.02.006.049 0 .028.002.049.006.049.003 0 .006.02.006.048 0 .029.002.05.006.05.003 0 .006.018.006.042s.003.043.006.043c.004 0 .006.016.006.037s.003.036.006.036c.004 0 .006.019.006.043 0 .025.003.043.007.043.003 0 .006.016.006.037s.002.036.006.036c.003 0 .006.017.006.037s.003.037.006.037.006.014.006.03c0 .017.003.03.006.03.004 0 .006.017.006.038s.003.036.006.036c.004 0 .007.014.007.03 0 .018.002.031.006.031.003 0 .006.014.006.031s.003.03.006.03.006.014.006.031.003.03.006.03c.004 0 .006.014.006.031s.003.03.006.03c.004 0 .006.012.006.025q0 .023.007.025c.003 0 .006.013.006.03s.002.03.006.03c.003 0 .006.012.006.025q0 .023.006.025.008.004.006.03c0 .017.003.031.006.031.004 0 .006.011.006.024q0 .023.007.025.005.001.006.024c.001.023.002.025.006.025q.005.002.006.024c.001.022.003.025.006.025s.006.01.006.024.003.025.006.025q.006.002.006.024c0 .022.003.025.006.025q.006.001.007.024c.001.023.002.024.006.024.003 0 .006.012.006.025s.002.024.006.024q.005.002.006.025c0 .013.003.024.006.024s.006.011.006.025c0 .013.003.024.006.024q.006.002.006.019c0 .017.003.018.007.018.003 0 .006.011.006.024s.002.025.006.025q.005.002.006.018 0 .017.006.019.007.003.006.024c-.001.021.003.024.006.024.004 0 .006.009.006.019s.003.018.006.018q.006.002.007.025c0 .013.002.024.006.024q.005.001.006.018c0 .01.003.019.006.019s.006.008.006.018q0 .017.006.018.008.003.006.019c-.002.016.003.018.006.018.004 0 .006.011.006.025 0 .013.003.024.006.024q.007.002.007.018 0 .017.006.019.005.001.006.018c0 .01.003.019.006.019s.006.008.006.018q0 .017.006.018t.006.019.006.018.006.018.007.018c.003 0 .006.009.006.019s.002.018.006.018q.005.001.006.019 0 .016.006.018t.006.018c0 .01.003.019.006.019q.006.002.006.018 0 .017.007.018.005.002.006.019c.001.017.002.018.006.018q.005.001.006.018 0 .017.006.019.007.003.006.018 0 .017.006.018.006.002.006.019c0 .017.003.018.006.018q.006.001.007.012 0 .011.006.012c.003 0 .006.009.006.019s.002.018.006.018q.005.002.006.019c.001.017.003.018.006.018s.006.008.006.018q0 .017.006.019.006 0 .006.012c0 .012.003.012.007.012q.005.002.006.018 0 .017.006.019.005.001.006.018 0 .016.006.018.008.003.006.013 0 .01.006.012t.006.018.006.019.007.018q0 .017.006.018.005.002.006.012 0 .012.006.013.007.002.006.018 0 .017.006.018t.006.013q0 .01.006.012.006.001.006.018t.007.019q.005 0 .006.012c.001.012.002.012.006.012q.005.002.006.018c0 .01.003.019.006.019s.006.005.006.012.003.012.006.012q.006.002.006.018 0 .017.006.019.006 0 .007.012c.001.012.002.012.006.012.003 0 .006.009.006.019s.002.018.006.018q.005.001.006.012 0 .012.006.013t.006.012.006.012.007.018.006.019q.005 0 .006.012c.001.012.002.012.006.012q.005.001.006.012 0 .012.006.013.008.002.006.018 0 .017.006.018.006.002.006.012 0 .012.007.013.005 0 .006.012c.001.012.002.012.006.012q.005.002.006.018 0 .017.006.019.005 0 .006.012c.001.012.003.012.006.012s.006.006.006.013q0 .01.006.012.006 0 .007.012c.001.012.002.012.006.012q.005.001.006.019 0 .017.006.018.005 0 .006.012c.001.012.003.012.006.012s.006.006.006.013q0 .01.006.012.006 0 .006.012c0 .012.003.012.006.012.004 0 .007.009.007.019s.002.018.006.018q.005.002.006.012 0 .011.006.012.008.002.006.013 0 .01.006.012.006 0 .006.012c0 .012.003.012.006.012q.006.001.006.013 0 .01.007.012.005 0 .006.012c.001.012.002.012.006.012.003 0 .006.009.006.019s.003.018.006.018.006.005.006.012.003.012.006.012q.006.001.006.013 0 .01.006.012.006 0 .007.012c.001.012.002.012.006.012q.005.001.006.013 0 .01.006.012.007.002.006.012 0 .013.006.012.006.001.006.012 0 .012.006.013t.007.012c.001.012.002.012.006.012q.005.002.006.012 0 .012.006.013.005 0 .006.012c.001.012.003.012.006.012s.006.006.006.012q0 .012.006.013t.006.012c0 .012.003.012.007.012q.005.002.006.012 0 .011.006.012.005.001.006.013 0 .011.006.012.008.002.006.012 0 .011.006.012.008.002.006.013 0 .01.006.012.007 0 .007.012c0 .012.002.012.006.012q.005.001.006.013 0 .01.006.012.008.002.006.012c-.002.01.003.012.006.012s.006.006.006.012q0 .012.006.013t.006.012c0 .012.003.012.006.012q.007.002.007.012 0 .012.006.013.005 0 .006.012c.001.012.003.012.006.012s.006.006.006.012q0 .012.006.013t.006.012.006.012.006.012.007.012q.005.001.006.011 0 .01.012.02.011.01.012.02c.001.01.003.01.006.01q.006.001.006.013 0 .011.006.012t.007.012q0 .012.006.013.005 0 .006.012 0 .01.006.012.008.003.006.012 0 .011.006.012t.006.011.013.02q.01.01.012.02c.002.01.002.01.006.01q.005.001.006.013 0 .011.006.012.008.002.006.012 0 .012.006.013t.006.012c0 .012.003.012.007.012q.005.001.006.01 0 .012.012.02.011.01.012.02c.001.01.003.011.006.011s.006.006.006.012q0 .012.006.013t.007.01q0 .011.012.02.011.01.012.02c.001.01.003.01.006.01s.006.006.006.013q0 .011.006.012t.006.012q0 .012.007.013.005.001.006.01 0 .012.012.02.011.01.012.02c.001.01.003.01.006.01q.006.001.006.013 0 .011.006.012t.006.011.013.02q.01.01.012.02c.002.01.003.01.006.01s.006.006.006.013q0 .01.006.012.006.001.006.01.001.012.013.02.01.01.012.02c.002.01.003.011.006.011s.006.005.006.011q.002.01.012.02.011.009.012.02 0 .009.007.01.005.001.006.011 0 .01.012.02.011.01.012.02 0 .009.006.01t.006.011.013.02q.01.01.012.02c.002.01.003.01.006.01s.006.005.006.011q.002.01.012.02.012.01.013.02c.001.01.002.01.006.01q.005.001.006.012c.001.011.005.014.012.02q.011.008.012.018t.012.018q.012.01.013.02c.001.01.002.01.006.01q.005.001.006.011 0 .01.012.02.011.009.012.018.001.01.013.019.01.01.012.02c.002.01.002.01.006.01q.005.001.006.011 0 .01.012.02.011.009.012.018c0 .005.006.014.013.019q.01.009.012.018c0 .005.005.014.012.018q.011.009.012.019.001.009.013.018.01.009.012.018 0 .01.012.019.011.009.012.018c0 .005.006.014.013.018.006.005.012.014.012.019q0 .009.012.018.011.009.012.018.002.01.012.019.012.009.013.018c0 .005.005.014.012.019s.012.013.012.018q0 .009.012.018.011.009.012.018.001.01.013.019.01.009.012.017.001.01.018.026c.01.01.019.02.019.025q0 .009.012.018.011.008.012.017c0 .004.008.016.018.025q.017.017.019.026 0 .009.012.017.011.01.012.017c0 .005.008.017.019.026q.016.017.018.024a.1.1 0 0 0 .018.025c.01.01.019.02.019.024s.008.015.018.025q.017.016.018.024.002.011.018.025c.01.01.019.02.019.024s.008.015.018.025c.01.009.018.02.018.024s.011.018.025.03c.013.014.024.027.024.031s.011.018.025.03c.013.014.024.027.024.031s.014.02.03.037a.1.1 0 0 1 .031.037c0 .003.014.02.03.036a.1.1 0 0 1 .032.037c0 .004.016.023.036.043s.037.039.037.043.025.03.055.06.055.058.055.062a8 8 0 0 0 .415.41.3.3 0 0 0 .05.043c.003 0 .022.016.042.036s.04.037.043.037c.004 0 .018.01.03.024s.027.025.031.025.015.008.024.018q.016.017.025.019c.004 0 .017.01.03.024a.1.1 0 0 0 .032.024q.01.001.017.013.009.01.018.012c.004 0 .016.008.025.018q.017.017.026.019.008 0 .017.012.009.01.018.012c.005 0 .014.005.019.012s.013.012.018.012q.009.001.018.013.009.01.019.012.009.002.018.012.01.011.02.012c.01.001.01.003.01.006q.001.007.011.007t.02.012q.01.011.02.012c.01.001.01.003.01.006q.001.006.011.006.01.001.02.013.01.01.02.012c.01.002.01.003.01.006s.006.006.013.006q.011 0 .012.006.002.008.011.006.01.002.02.012.009.012.02.013.009 0 .01.006.002.007.012.006.012 0 .013.006.002.007.012.006.014 0 .012.006.002.006.012.006.012 0 .013.006t.012.007c.012.001.012.002.012.006q.002.005.012.006.012 0 .013.006.002.007.018.006.017 0 .018.006.002.006.012.006.012 0 .013.006 0 .007.012.007c.012 0 .012.002.012.006q.001.005.012.006.011 0 .012.006c0 .003.009.006.019.006s.018.003.018.006q.002.006.012.006.012 0 .013.006.002.006.018.006.017 0 .018.007c0 .003.009.006.019.006s.018.002.018.006q.002.005.018.006.017 0 .019.006.003.008.018.006.017 0 .018.006c0 .004.009.006.019.006s.018.003.018.007q.002.005.018.006.017 0 .019.006.002.005.024.006c.022.001.024.003.024.006s.011.006.025.006c.013 0 .024.003.024.006q.002.006.025.006c.013 0 .024.003.024.006 0 .004.014.007.03.007q.029 0 .031.006c0 .003.014.006.031.006s.03.002.03.006c0 .003.019.006.043.006.025 0 .043.003.043.006 0 .004.027.006.067.006s.068.003.068.006c0 .004.05.006.14.006s.14-.002.14-.006c0-.003.027-.006.068-.006.04 0 .067-.002.067-.006 0-.003.019-.006.043-.006s.043-.003.043-.006c0-.004.016-.006.036-.006s.037-.003.037-.006c0-.004.014-.006.03-.006.017 0 .031-.003.031-.007 0-.003.014-.006.03-.006q.029 0 .031-.006c0-.003.014-.006.03-.006q.029 0 .031-.006.003-.008.025-.006c.013 0 .024-.003.024-.006 0-.004.011-.006.025-.006.013 0 .024-.003.024-.006q.002-.007.025-.007c.013 0 .024-.002.024-.006 0-.003.011-.006.024-.006q.023 0 .025-.006.003-.008.018-.006.017 0 .019-.006t.024-.006c.022 0 .024-.003.024-.006 0-.004.009-.007.019-.007s.018-.002.018-.006c0-.003.009-.006.019-.006s.018-.002.018-.006q.002-.005.018-.006.017 0 .019-.006.003-.007.024-.006c.013 0 .024-.003.024-.006 0-.004.009-.006.019-.006s.018-.003.018-.007q.002-.005.018-.006.017 0 .019-.006 0-.005.012-.006c.012-.001.012-.003.012-.006s.008-.006.019-.006q.017 0 .018-.006.002-.006.018-.006.017 0 .019-.007.002-.005.018-.006.017 0 .018-.006.001-.005.019-.006.017 0 .018-.006.002-.008.012-.006c.01.002.012-.003.012-.006s.009-.006.019-.006.018-.003.018-.006q.002-.006.018-.006.017 0 .019-.007 0-.005.012-.006c.012-.001.012-.003.012-.006s.008-.006.018-.006q.017 0 .019-.006.002-.008.012-.006c.01.002.012-.003.012-.006 0-.004.009-.006.019-.006s.018-.003.018-.006q0-.006.012-.007c.012-.001.012-.002.012-.006 0-.003.009-.006.019-.006s.018-.003.018-.006.006-.006.012-.006q.012 0 .013-.006.002-.006.018-.006.017 0 .018-.006.002-.006.012-.007.012 0 .013-.006.002-.005.018-.006.017 0 .018-.006.002-.007.013-.006.01 0 .012-.006.003-.007.018-.006.017 0 .018-.006t.013-.006q.01 0 .012-.007.002-.005.018-.006.017 0 .018-.006.003-.008.019-.006c.016.002.018-.003.018-.006s.006-.006.012-.006q.012 0 .013-.006t.018-.006.018-.006q.001-.007.019-.007t.018-.006q.002-.005.018-.006.017 0 .019-.006.003-.008.018-.006.017 0 .018-.006c0-.004.009-.006.019-.006s.018-.003.018-.006q.002-.006.018-.007.017 0 .019-.006.001-.005.018-.006.017 0 .018-.006.003-.007.019-.006c.016.001.018-.003.018-.006q.002-.006.018-.006.017 0 .019-.006t.018-.006.018-.007c0-.003.011-.006.025-.006.013 0 .024-.002.024-.006q.002-.005.019-.006c.017-.001.018-.003.018-.006s.01-.006.024-.006.025-.003.025-.006q.002-.006.018-.006.017 0 .018-.006.002-.007.025-.007c.013 0 .024-.002.024-.006 0-.003.011-.006.025-.006.013 0 .024-.003.024-.006s.014-.006.03-.006q.029 0 .031-.006c0-.004.011-.006.025-.006.013 0 .024-.003.024-.006 0-.004.014-.007.03-.007q.029 0 .031-.006c0-.003.014-.006.03-.006.018 0 .031-.002.031-.006 0-.003.017-.006.037-.006s.037-.003.037-.006.016-.006.037-.006.036-.003.036-.006c0-.004.018-.007.043-.007s.043-.002.043-.006c0-.003.024-.006.06-.006.038 0 .062-.002.062-.006s.092-.006.263-.006c.17 0 .263.002.263.006s.024.006.06.006c.037 0 .062.003.062.006 0 .004.02.006.049.006.028 0 .049.003.049.007 0 .003.018.006.042.006s.043.002.043.006c0 .003.016.006.037.006s.037.003.037.006c0 .004.013.006.03.006s.03.003.03.006c0 .004.014.006.031.006s.03.003.03.007c0 .003.014.006.031.006s.03.002.03.006c0 .003.015.006.031.006.017 0 .03.003.03.006s.012.006.025.006.025.003.025.006q.002.006.024.006c.022 0 .025.003.025.007q.002.005.024.006c.022.001.025.002.025.006q.002.005.024.006c.022.001.024.003.024.006s.012.006.025.006.024.003.024.006c0 .004.011.006.025.006.013 0 .024.003.024.006q.002.007.025.007c.013 0 .024.002.024.006q.001.005.018.006.017 0 .019.006.002.005.024.006c.022.001.025.003.025.006s.008.006.018.006q.016 0 .018.006c0 .004.009.006.019.006s.018.003.018.007c0 .003.011.006.024.006q.023 0 .025.006.001.005.018.006.017 0 .019.006.003.008.018.006.017 0 .018.006.002.006.019.006c.017 0 .018.003.018.006q.001.006.018.007c.01 0 .019.002.019.006q.002.005.018.006.017 0 .018.006.003.007.019.006c.016-.001.018.003.018.006s.008.006.018.006q.017 0 .019.006t.018.006.018.007q.002.005.019.006c.017.001.018.003.018.006s.005.006.012.006.012.003.012.006.009.006.019.006.018.003.018.006q.002.006.018.006.017 0 .019.006.001.007.018.007t.018.006c0 .003.009.006.019.006s.018.003.018.006.008.006.018.006q.017 0 .019.006t.018.006.018.006q.001.007.013.007.01 0 .012.006.002.005.018.006.017 0 .019.006.003.008.018.006.017 0 .018.006.003.008.019.006c.016-.002.018.003.018.006q.001.006.018.006t.019.007q.002.005.024.006c.022.001.025.003.025.006s.008.006.018.006q.017 0 .018.006.002.007.019.006.017 0 .018.006.002.006.018.006.017 0 .018.006c0 .004.009.007.019.007s.018.002.018.006c0 .003.011.006.025.006.013 0 .024.003.024.006s.008.006.018.006.019.003.019.006q.002.006.024.006c.022 0 .025.003.025.006q.002.007.018.007.017 0 .018.006c0 .003.011.006.025.006.013 0 .024.002.024.006 0 .003.011.006.025.006.013 0 .024.003.024.006 0 .004.011.006.024.006s.025.003.025.006c0 .004.011.006.024.006s.025.003.025.007q.002.005.024.006c.022.001.025.002.025.006q.002.005.024.006c.022.001.025.003.025.006s.013.006.03.006.03.003.03.006c0 .004.015.006.031.006.017 0 .03.003.03.007 0 .003.015.006.031.006.017 0 .031.002.031.006 0 .003.016.006.037.006s.036.003.036.006.017.006.037.006.037.003.037.006c0 .004.02.006.049.006.028 0 .048.003.048.006 0 .004.025.007.062.007.036 0 .06.002.06.006s.056.006.154.006a1 1 0 0 0 .152-.006c0-.004.025-.006.061-.006.037 0 .061-.003.061-.007 0-.003.019-.006.043-.006.025 0 .043-.002.043-.006 0-.003.014-.006.03-.006.017 0 .031-.003.031-.006s.014-.006.03-.006c.017 0 .031-.003.031-.006q.002-.006.025-.006c.013 0 .024-.003.024-.006 0-.004.011-.007.025-.007.013 0 .024-.002.024-.006q.001-.005.018-.006.017 0 .019-.006.003-.008.018-.006.017 0 .018-.006c0-.004.009-.006.019-.006s.018-.003.018-.006q.002-.006.018-.007.017 0 .019-.006.002-.005.018-.006.017 0 .018-.006c0-.003.009-.006.019-.006s.018-.003.018-.006.006-.006.012-.006q.011 0 .012-.006c0-.004.009-.006.019-.006s.018-.003.018-.007q.002-.005.012-.006.012 0 .013-.006 0-.005.012-.006c.012-.001.012-.003.012-.006s.008-.006.018-.006.019-.003.019-.006q0-.006.012-.006c.012 0 .012-.003.012-.007q.002-.005.012-.006.012 0 .013-.006 0-.005.012-.006c.012-.001.012-.003.012-.006s.006-.006.012-.006q.011 0 .012-.006.002-.008.013-.006.011 0 .012-.006t.012-.006.012-.007q.001-.005.011-.006.01 0 .02-.012.01-.011.02-.012c.01-.001.01-.003.01-.006q.001-.006.013-.006.011 0 .012-.006t.012-.007q.011 0 .012-.006.001-.005.011-.006.01 0 .02-.012.01-.011.02-.012c.01-.001.01-.003.01-.006q.002-.006.011-.007.01 0 .02-.012.009-.01.019-.012.009-.001.018-.012t.018-.012c.005 0 .014-.006.019-.013s.013-.012.018-.012q.009-.002.018-.012t.018-.012q.01-.001.019-.013.008-.01.017-.012t.026-.018c.009-.01.02-.019.024-.019s.015-.008.024-.018q.016-.017.025-.018c.004 0 .015-.009.024-.019q.016-.017.025-.018c.004 0 .017-.011.03-.024a.1.1 0 0 1 .03-.025c.005 0 .019-.01.032-.024.012-.014.026-.025.03-.025a.2.2 0 0 0 .043-.037.2.2 0 0 1 .043-.036.5.5 0 0 0 .067-.061 3 3 0 0 0 .312-.306 1 1 0 0 1 .073-.08 1 1 0 0 0 .073-.08c0-.003.017-.022.037-.042a.2.2 0 0 0 .037-.043.2.2 0 0 1 .036-.043.2.2 0 0 0 .037-.042c0-.004.014-.02.03-.037a.1.1 0 0 0 .031-.037c0-.004.011-.017.024-.03a.1.1 0 0 0 .025-.03c0-.005.01-.018.024-.031s.025-.027.025-.031.01-.018.024-.03c.014-.014.025-.027.025-.031s.008-.015.018-.025c.01-.009.018-.02.018-.024s.009-.015.019-.024q.017-.016.018-.025c0-.004.008-.015.018-.024s.019-.02.019-.025c0-.004.008-.015.018-.024q.017-.016.018-.025c0-.004.009-.015.019-.024q.017-.017.018-.026t.012-.017q.011-.01.012-.017c0-.005.009-.017.019-.026q.017-.016.018-.025t.012-.018q.012-.009.013-.018c0-.005.005-.014.012-.018q.01-.009.012-.018c0-.004.008-.016.018-.025q.017-.017.019-.026 0-.008.012-.017.011-.009.012-.018.001-.01.012-.019.012-.009.013-.018t.012-.018c.007-.005.012-.014.012-.019q.002-.009.012-.018t.012-.018q.001-.01.013-.019.01-.009.012-.018c0-.005.005-.014.012-.018q.011-.009.012-.019.001-.009.013-.018.01-.009.012-.018 0-.01.012-.019.011-.009.012-.018c0-.005.006-.014.012-.018q.012-.01.013-.02 0-.013.006-.011.005-.001.006-.011 0-.01.012-.02.011-.009.012-.018c0-.005.006-.014.013-.018.006-.005.012-.014.012-.019q0-.009.012-.018.011-.01.012-.02c.001-.01.003-.01.006-.01q.007-.002.007-.011 0-.01.012-.02.01-.009.012-.018 0-.01.012-.019.011-.01.012-.02c.001-.01.003-.01.007-.01q.005-.001.006-.011 0-.01.012-.02.011-.01.012-.02c.001-.01.003-.01.006-.01s.006-.006.006-.012.006-.014.013-.02q.01-.008.012-.018 0-.009.012-.018.011-.01.012-.02c.001-.01.003-.01.006-.01q.006-.001.006-.011.001-.01.013-.02.01-.01.012-.02c.002-.01.003-.01.006-.01s.006-.005.006-.011q.002-.01.012-.02t.012-.02c.001-.01.003-.01.007-.01q.005-.001.006-.013 0-.011.006-.012.008-.002.006-.011.002-.01.012-.02t.012-.02c.001-.01.003-.01.006-.01q.007-.001.007-.011t.012-.02q.011-.01.012-.02c.001-.01.003-.01.006-.01q.006-.001.006-.013 0-.011.006-.012t.006-.01q.001-.012.013-.02.01-.01.012-.02c.002-.01.003-.011.006-.011s.006-.006.006-.012q0-.012.006-.013t.006-.012.006-.012.007-.01q0-.012.012-.02.011-.01.012-.02.002-.013.006-.011.006-.002.006-.012 0-.012.006-.013t.006-.012c0-.012.003-.012.007-.012q.005-.002.006-.012 0-.012.006-.013.008-.002.006-.01.002-.01.012-.02t.012-.02c.001-.01.003-.01.006-.01q.007-.001.007-.013 0-.011.006-.012.005-.002.006-.012 0-.012.006-.013.008-.002.006-.012c-.002-.01.003-.012.006-.012q.006-.002.006-.012 0-.012.006-.013t.006-.012c0-.012.003-.012.007-.012q.005-.001.006-.01 0-.012.012-.02.011-.01.012-.02c.001-.01.003-.011.006-.011q.006-.001.006-.012 0-.012.006-.013t.007-.012c.001-.012.002-.012.006-.012q.005-.002.006-.012 0-.012.006-.013.008-.002.006-.012 0-.01.006-.012t.006-.012q0-.012.006-.013.007 0 .007-.012 0-.01.006-.012.005 0 .006-.012c.001-.012.002-.012.006-.012q.005-.001.006-.013 0-.01.006-.012.008-.002.006-.012c-.002-.01.003-.012.006-.012q.006-.001.006-.013 0-.01.007-.012.005 0 .006-.012c.001-.012.002-.012.006-.012q.005-.002.006-.012 0-.012.006-.013.008-.002.006-.012c-.002-.01.003-.012.006-.012q.006-.002.006-.012 0-.012.007-.013.005-.001.006-.018 0-.017.006-.018.005-.001.006-.012 0-.012.006-.013.005 0 .006-.012c.001-.012.003-.012.006-.012s.006-.006.006-.012q0-.012.006-.013t.006-.012c0-.012.003-.012.007-.012q.005-.002.006-.012 0-.012.006-.013.005 0 .006-.012c.001-.012.003-.012.006-.012s.006-.008.006-.018.003-.019.006-.019q.006 0 .006-.012c0-.012.003-.012.006-.012q.007-.002.007-.012 0-.012.006-.013.005 0 .006-.012c.001-.012.003-.012.006-.012s.006-.006.006-.012q0-.012.006-.013.008-.002.006-.018 0-.017.006-.018t.006-.013q0-.01.007-.012.005 0 .006-.012c.001-.012.002-.012.006-.012q.005-.001.006-.019 0-.017.006-.018.008-.002.006-.012c-.002-.01.003-.012.006-.012q.006-.001.006-.013 0-.01.006-.012t.007-.018q0-.017.006-.018.005-.001.006-.013 0-.01.006-.012.007-.003.006-.018c0-.01.003-.019.006-.019s.006-.005.006-.012.003-.012.006-.012q.006-.002.006-.012 0-.012.007-.013.005-.002.006-.018 0-.017.006-.018.005-.002.006-.012 0-.012.006-.013.008-.002.006-.018 0-.017.006-.018t.006-.013q0-.01.006-.012.007-.001.007-.018t.006-.019q.005-.002.006-.018 0-.017.006-.018.008-.002.006-.012 0-.012.006-.013.008-.002.006-.018 0-.016.006-.018c.004 0 .006-.009.006-.019s.003-.018.007-.018q.005-.002.006-.012 0-.012.006-.013.008-.002.006-.018 0-.017.006-.018.008-.002.006-.019 0-.017.006-.018t.006-.018.006-.019.007-.018q0-.017.006-.018.005-.001.006-.013 0-.01.006-.012.007-.003.006-.018 0-.016.006-.018c.004 0 .006-.009.006-.019s.003-.018.006-.018q.006-.002.006-.018 0-.017.007-.019.005-.001.006-.018 0-.017.006-.019.005-.002.006-.018 0-.017.006-.018.007-.003.006-.025c0-.013.003-.024.006-.024q.006-.001.006-.018.001-.017.008-.02c.013-.005-.01-.023-.029-.023q-.014 0-.015-.006-.002-.007-.019-.007c-.017 0-.018-.002-.018-.006q-.002-.005-.018-.006-.017 0-.019-.006-.001-.005-.018-.006-.017 0-.018-.006-.002-.008-.012-.006-.012 0-.013-.006-.002-.006-.018-.007-.017 0-.018-.006-.002-.005-.019-.006c-.017-.001-.018-.003-.018-.006s-.006-.006-.012-.006q-.011 0-.012-.006-.002-.007-.013-.006-.01 0-.012-.006t-.018-.006-.019-.006q0-.006-.012-.007c-.012-.001-.012-.002-.012-.006q-.002-.005-.012-.006-.011 0-.012-.006-.002-.007-.013-.006-.011 0-.012-.006t-.012-.006-.012-.006-.013-.006q-.01 0-.012-.007 0-.005-.012-.006C29 24.662 29 24.66 29 24.657s-.006-.006-.012-.006q-.012 0-.013-.006-.001-.007-.012-.006c-.011.001-.012-.003-.012-.006q-.001-.006-.012-.006-.012 0-.013-.007-.001-.005-.01-.006-.01 0-.02-.012-.01-.011-.02-.012c-.01-.001-.01-.003-.01-.006q-.001-.006-.013-.006-.011 0-.012-.006-.001-.007-.011-.007t-.02-.012q-.009-.011-.018-.012c-.005 0-.014-.006-.019-.012a.03.03 0 0 0-.02-.012q-.009 0-.01-.007-.001-.005-.01-.006a.03.03 0 0 1-.02-.012q-.01-.011-.019-.012t-.018-.012q-.01-.012-.017-.013c-.005 0-.017-.008-.026-.018q-.016-.017-.026-.018-.008-.001-.017-.013-.008-.01-.017-.012-.01-.001-.026-.018c-.009-.01-.02-.018-.024-.018s-.018-.012-.03-.025a.1.1 0 0 0-.031-.024c-.004 0-.018-.012-.03-.025a.1.1 0 0 0-.031-.024.3.3 0 0 1-.05-.043 3 3 0 0 1-.223-.21 3 3 0 0 1-.283-.31.1.1 0 0 1-.031-.037c0-.004-.011-.017-.024-.03a.1.1 0 0 1-.025-.03c0-.005-.008-.016-.018-.025q-.017-.016-.018-.025c0-.004-.009-.015-.019-.024q-.017-.016-.018-.025c0-.004-.009-.015-.018-.024-.01-.01-.019-.02-.019-.025 0-.004-.008-.015-.018-.024q-.017-.016-.018-.024-.002-.009-.019-.025t-.018-.026q-.002-.008-.012-.017-.012-.009-.013-.018c0-.005-.005-.014-.012-.018-.007-.005-.012-.014-.012-.019q-.001-.009-.012-.018-.012-.009-.013-.019 0-.009-.012-.018-.01-.009-.012-.018c0-.005-.006-.014-.012-.018-.007-.005-.012-.014-.012-.019q-.001-.009-.013-.018-.01-.009-.012-.018 0-.01-.012-.019-.011-.01-.012-.02c-.001-.01-.003-.01-.006-.01q-.007-.001-.007-.011t-.012-.02q-.01-.01-.012-.02c-.002-.01-.003-.01-.006-.01s-.006-.005-.006-.011q-.002-.01-.012-.02-.012-.01-.013-.02c-.001-.01-.002-.01-.006-.01q-.005-.001-.006-.013 0-.011-.006-.012-.007-.002-.006-.011-.001-.01-.012-.02-.012-.01-.013-.02c-.001-.01-.002-.01-.006-.01q-.005-.001-.006-.013 0-.01-.006-.012-.008-.002-.006-.012c.002-.01-.003-.012-.006-.012s-.006-.006-.006-.012q0-.012-.006-.013t-.006-.012c0-.012-.003-.012-.007-.012q-.005-.001-.006-.013 0-.01-.006-.012-.005 0-.006-.012c-.001-.012-.003-.012-.006-.012s-.006-.006-.006-.012q0-.012-.006-.013t-.006-.012c0-.012-.003-.012-.006-.012q-.007-.002-.007-.012 0-.012-.006-.013-.005 0-.006-.012 0-.01-.006-.012-.008-.002-.006-.012c.002-.01-.003-.012-.006-.012s-.006-.006-.006-.013q0-.01-.006-.012-.006 0-.006-.012c0-.012-.003-.012-.007-.012q-.005-.001-.006-.013 0-.01-.006-.012-.005-.002-.006-.018 0-.017-.006-.018-.007-.002-.006-.013 0-.01-.006-.012t-.006-.012-.006-.012c-.004 0-.007-.009-.007-.019s-.002-.018-.006-.018q-.005-.001-.006-.012 0-.012-.006-.013-.007-.002-.006-.018 0-.017-.006-.018-.007-.002-.006-.012 0-.012-.006-.013-.006-.002-.006-.018 0-.017-.007-.018-.005-.001-.006-.013 0-.01-.006-.012-.008-.003-.006-.018c0-.01-.003-.019-.006-.019s-.006-.008-.006-.018q0-.017-.006-.018-.006-.002-.006-.019c0-.017-.003-.018-.006-.018q-.007-.001-.007-.018t-.006-.019q-.005-.002-.006-.018 0-.017-.006-.018-.008-.003-.006-.019c.002-.016-.003-.018-.006-.018q-.006-.001-.006-.018c0-.01-.003-.019-.006-.019q-.006-.002-.006-.018 0-.017-.007-.018-.005-.002-.006-.025c0-.013-.002-.024-.006-.024-.003 0-.006-.009-.006-.019s-.003-.018-.006-.018-.006-.011-.006-.024q0-.023-.006-.025c-.004 0-.006-.011-.006-.024s-.003-.025-.006-.025q-.006-.002-.007-.024c-.001-.022-.002-.025-.006-.025q-.005-.002-.006-.024c-.001-.022-.003-.025-.006-.025s-.006-.014-.006-.03c0-.017-.003-.03-.006-.03-.004 0-.006-.012-.006-.025s-.003-.025-.006-.025c-.004 0-.007-.014-.007-.03 0-.017-.002-.03-.006-.03-.003 0-.006-.017-.006-.038s-.002-.036-.006-.036c-.003 0-.006-.017-.006-.037s-.003-.037-.006-.037-.006-.018-.006-.043-.003-.042-.006-.042c-.004 0-.006-.019-.006-.043 0-.025-.003-.043-.007-.043-.003 0-.006-.022-.006-.055s-.002-.055-.006-.055c-.003 0-.006-.028-.006-.073s-.002-.074-.006-.074a1 1 0 0 1-.006-.165 1 1 0 0 0-.006-.165c-.004 0-.006-.016-.006-.037s.002-.036.006-.036a1 1 0 0 0 .006-.153c0-.098.002-.153.006-.153s.006-.027.006-.067.003-.068.006-.068c.004 0 .006-.022.006-.055 0-.032.003-.055.006-.055.004 0 .007-.018.007-.043s.002-.042.006-.042c.003 0 .006-.017.006-.037s.002-.037.006-.037c.003 0 .006-.016.006-.036s.003-.037.006-.037c.004 0 .006-.014.006-.03 0-.017.003-.031.006-.031.004 0 .006-.014.006-.03q0-.029.007-.031c.003 0 .006-.011.006-.025 0-.013.002-.024.006-.024.003 0 .006-.014.006-.03q0-.029.006-.031.007-.004.006-.025c0-.013.003-.024.006-.024.004 0 .006-.009.006-.019s.003-.018.007-.018c.003 0 .006-.011.006-.024q0-.023.006-.025c.003 0 .006-.011.006-.024s.003-.025.006-.025.006-.008.006-.018q0-.017.006-.019t.006-.018.006-.018q.007-.001.007-.019t.006-.018q.005-.002.006-.018 0-.017.006-.019.005-.002.006-.018 0-.017.006-.018.008-.003.006-.019c-.002-.016.003-.018.006-.018q.006-.002.006-.018 0-.017.007-.019.005-.002.006-.018 0-.017.006-.018.005-.001.006-.013 0-.01.006-.012.007-.003.006-.018 0-.017.006-.019.007-.003.006-.018 0-.017.006-.018t.006-.013q0-.01.007-.012.005 0 .006-.012c.001-.012.003-.012.006-.012s.006-.008.006-.018q0-.017.006-.019.008-.002.006-.012c-.002-.01.003-.012.006-.012q.006-.001.006-.013 0-.01.006-.012.007-.001.007-.018t.006-.018q.005-.001.006-.013 0-.01.006-.012.008-.002.006-.012c-.002-.01.003-.012.006-.012q.006-.001.006-.013 0-.01.006-.012.006 0 .006-.012c0-.012.003-.012.007-.012q.005-.001.006-.013 0-.01.006-.012.008-.002.006-.012c-.002-.01.003-.012.006-.012s.006-.006.006-.012q0-.012.006-.013t.006-.012c0-.012.003-.012.006-.012q.006-.001.007-.012 0-.012.006-.013.005 0 .006-.012c.001-.012.003-.012.006-.012s.006-.006.006-.012q0-.011.006-.012t.006-.013q0-.01.006-.012.006-.001.006-.01.001-.012.013-.02.011-.01.012-.02c.001-.01.003-.011.006-.011s.006-.006.006-.012q0-.012.006-.013t.006-.01q.001-.01.013-.02.01-.01.012-.02c.002-.01.003-.01.006-.01s.006-.006.006-.012.006-.015.012-.02q.011-.008.012-.019c.001-.011.003-.01.007-.01q.005-.002.006-.012a.03.03 0 0 1 .012-.02c.007-.004.012-.013.012-.018q.002-.009.012-.018.012-.009.013-.018 0-.01.012-.019.011-.009.012-.018.001-.01.012-.019c.007-.004.013-.013.013-.018q0-.009.012-.018.01-.009.012-.019 0-.009.012-.018.011-.009.012-.018.001-.01.013-.019.01-.009.012-.017c0-.005.008-.016.018-.025q.017-.016.019-.025c0-.004.008-.015.018-.024q.017-.016.018-.025c0-.004.008-.015.019-.024q.017-.016.018-.025c0-.004.01-.017.024-.03a.1.1 0 0 0 .025-.03.1.1 0 0 1 .03-.038.1.1 0 0 0 .03-.036.2.2 0 0 1 .038-.043.2.2 0 0 0 .036-.043c0-.003.022-.028.05-.055a.3.3 0 0 0 .048-.055c0-.008.542-.55.55-.55a.5.5 0 0 0 .067-.061.5.5 0 0 1 .068-.062.3.3 0 0 0 .054-.049.3.3 0 0 1 .056-.049.3.3 0 0 0 .048-.042.3.3 0 0 1 .05-.043.2.2 0 0 0 .046-.04l.04-.04-.02-.018q-.017-.017-.018-.024a.1.1 0 0 0-.03-.037.1.1 0 0 1-.03-.037.2.2 0 0 0-.038-.043.2.2 0 0 1-.036-.042.3.3 0 0 0-.05-.055.3.3 0 0 1-.048-.055 1 1 0 0 0-.073-.08 4 4 0 0 0-.403-.404 1 1 0 0 0-.074-.067.2.2 0 0 1-.043-.037.2.2 0 0 0-.043-.036.2.2 0 0 1-.042-.037.2.2 0 0 0-.043-.037c-.004 0-.018-.01-.03-.024q-.023-.022-.031-.024-.011-.004-.025-.019-.017-.017-.024-.018-.011-.003-.03-.025a.1.1 0 0 0-.032-.024q-.009-.002-.018-.012t-.017-.012c-.004 0-.016-.009-.025-.019q-.017-.016-.026-.018t-.017-.013q-.009-.01-.018-.012-.01 0-.019-.012-.009-.011-.018-.012c-.005 0-.014-.006-.018-.012q-.01-.012-.019-.013t-.018-.012-.019-.012q-.009-.002-.018-.012t-.018-.012q-.01-.001-.019-.013-.008-.01-.02-.012-.009 0-.01-.006t-.011-.006q-.01-.002-.02-.012-.009-.012-.02-.013-.009 0-.01-.006-.001-.005-.011-.006-.01 0-.02-.012-.01-.011-.02-.012-.009 0-.01-.007-.001-.005-.013-.006-.01 0-.012-.006 0-.005-.012-.006c-.012-.001-.012-.003-.012-.006s-.005-.006-.011-.006q-.01-.001-.02-.012-.01-.012-.02-.013c-.01-.001-.01-.002-.01-.006q-.001-.005-.013-.006-.01 0-.012-.006 0-.005-.012-.006c-.012-.001-.012-.003-.012-.006s-.006-.006-.012-.006q-.012 0-.013-.006 0-.007-.012-.007c-.012 0-.012-.002-.012-.006q-.002-.005-.012-.006-.012 0-.013-.006 0-.005-.012-.006c-.012-.001-.012-.003-.012-.006s-.006-.006-.012-.006q-.011 0-.012-.006t-.013-.006q-.01 0-.012-.006 0-.006-.012-.007c-.012-.001-.012-.002-.012-.006 0-.003-.009-.006-.019-.006s-.018-.003-.018-.006-.006-.006-.012-.006q-.011 0-.012-.006t-.013-.006q-.01 0-.012-.006 0-.006-.012-.006c-.012 0-.012-.003-.012-.007q-.002-.005-.019-.006c-.017-.001-.018-.002-.018-.006q-.001-.005-.012-.006-.012 0-.013-.006-.002-.006-.018-.006-.017 0-.018-.006-.002-.006-.012-.006-.012 0-.013-.007-.002-.005-.018-.006-.017 0-.018-.006-.001-.005-.013-.006-.01 0-.012-.006-.003-.008-.018-.006-.017 0-.018-.006c0-.004-.009-.006-.019-.006s-.018-.003-.018-.007q-.001-.005-.018-.006-.017 0-.019-.006-.002-.005-.018-.006-.017 0-.018-.006-.003-.008-.019-.006c-.016.002-.018-.003-.018-.006s-.008-.006-.018-.006q-.017 0-.019-.006-.002-.007-.018-.007-.017 0-.018-.006c0-.003-.009-.006-.019-.006s-.018-.003-.018-.006-.011-.006-.024-.006-.025-.003-.025-.006q-.002-.006-.018-.006c-.01 0-.019-.003-.019-.006q-.002-.006-.024-.006c-.022 0-.024-.003-.024-.007 0-.003-.012-.006-.025-.006s-.024-.002-.024-.006c0-.003-.011-.006-.025-.006-.013 0-.024-.003-.024-.006s-.011-.006-.025-.006c-.013 0-.024-.003-.024-.006 0-.004-.014-.006-.03-.006-.018 0-.031-.003-.031-.006 0-.004-.014-.007-.03-.007q-.029 0-.031-.006c0-.003-.014-.006-.031-.006s-.03-.003-.03-.006-.017-.006-.037-.006-.037-.003-.037-.006c0-.004-.016-.006-.037-.006s-.036-.003-.036-.006c0-.004-.019-.007-.043-.007s-.043-.002-.043-.006c0-.003-.02-.006-.049-.006-.028 0-.049-.002-.049-.006 0-.003-.024-.006-.06-.006-.037 0-.062-.002-.062-.006s-.032-.006-.085-.006a.3.3 0 0 1-.086-.006 2 2 0 0 0-.269-.006c-.175 0-.269.002-.269.006" clip-rule="evenodd"/>
  </g>
  <defs>
    <linearGradient id="b" x1="21" x2="21" y1="0" y2="61.409" gradientUnits="userSpaceOnUse">
      <stop stop-color="#08021E"/>
      <stop offset="1" stop-color="#1F0777"/>
    </linearGradient>
    <clipPath id="a">
      <path fill="#fff" d="M0 0h42v42H0z"/>
    </clipPath>
  </defs>
</svg>
