<svg xmlns="http://www.w3.org/2000/svg" width="42" height="42" fill="none"><g clip-path="url(#a)"><mask id="c" width="42" height="42" x="0" y="0" maskUnits="userSpaceOnUse" style="mask-type:alpha"><circle cx="21" cy="21" r="21" fill="url(#b)"/></mask><g mask="url(#c)"><circle cx="21" cy="21" r="21" fill="#34EDB3"/><circle cx="21" cy="21" r="18.2" fill="#fff"/></g><circle cx="21" cy="21" r="16.1" fill="#06061B"/><circle cx="21" cy="21" r="16.1" fill="#06061B"/><path fill="#fff" fill-rule="evenodd" d="M24.783 9.98c0 .004-.014.007-.03.007-.018 0-.031.003-.031.006 0 .004-.011.006-.025.006-.013 0-.024.003-.024.006 0 .004-.011.006-.025.006-.013 0-.024.003-.024.007 0 .003-.011.006-.025.006-.013 0-.024.003-.024.006s-.008.006-.018.006c-.01 0-.019.003-.019.006s-.01.006-.024.006-.025.003-.025.006c0 .004-.01.006-.024.006s-.025.003-.025.006c0 .004-.008.007-.018.007-.01 0-.018.002-.018.006 0 .003-.011.006-.025.006-.013 0-.024.003-.024.006s-.008.006-.018.006c-.01 0-.019.003-.019.006 0 .004-.01.006-.024.006s-.025.003-.025.006c0 .004-.008.007-.018.007-.01 0-.018.002-.018.006 0 .003-.009.006-.019.006s-.018.002-.018.006c0 .003-.008.006-.018.006-.01 0-.019.003-.019.006 0 .004-.008.006-.018.006-.01 0-.018.003-.018.006 0 .004-.009.007-.019.007s-.018.002-.018.006c0 .003-.008.006-.018.006-.01 0-.019.002-.019.006 0 .003-.008.006-.018.006-.01 0-.018.003-.018.006s-.009.006-.019.006-.018.003-.018.006c0 .004-.008.006-.018.006-.01 0-.019.003-.019.007 0 .003-.008.006-.018.006-.01 0-.018.002-.018.006 0 .003-.006.006-.013.006-.006 0-.012.003-.012.006s-.008.006-.018.006c-.01 0-.018.003-.018.006 0 .004-.009.006-.019.006s-.018.003-.018.006c0 .004-.006.007-.012.007-.007 0-.013.002-.013.006 0 .003-.008.006-.018.006-.01 0-.018.003-.018.006s-.006.006-.012.006c-.007 0-.013.003-.013.006 0 .004-.008.006-.018.006-.01 0-.018.003-.018.006 0 .004-.006.006-.013.006-.006 0-.012.003-.012.007 0 .003-.008.006-.018.006-.01 0-.018.002-.018.006 0 .003-.006.006-.013.006-.007 0-.012.003-.012.006s-.006.006-.012.006c-.007 0-.012.003-.012.006 0 .004-.009.006-.019.006s-.018.003-.018.006c0 .004-.006.007-.012.007-.007 0-.012.002-.012.006 0 .003-.006.006-.013.006-.006 0-.012.003-.012.006s-.005.006-.012.006-.012.003-.012.006c0 .004-.009.006-.019.006s-.018.003-.018.006c0 .004-.006.007-.012.007-.007 0-.013.002-.013.006 0 .003-.005.006-.012.006-.006 0-.012.002-.012.006 0 .003-.005.006-.012.006s-.012.003-.012.006-.006.006-.013.006c-.006 0-.012.003-.012.006 0 .004-.005.007-.012.007s-.012.002-.012.006c0 .003-.006.006-.012.006-.007 0-.013.003-.013.006s-.005.006-.012.006-.012.003-.012.006-.006.006-.012.006c-.007 0-.013.003-.013.006 0 .004-.005.006-.012.006s-.012.003-.012.006c0 .004-.006.007-.012.007-.007 0-.013.002-.013.006 0 .003-.005.006-.01.006-.006 0-.015.005-.02.012-.005.007-.014.012-.02.012s-.01.003-.01.006c0 .004-.006.006-.013.006-.007 0-.012.003-.012.007 0 .003-.006.006-.012.006-.007 0-.013.002-.013.006 0 .003-.005.006-.01.006-.006 0-.015.006-.02.012-.005.007-.014.013-.02.013s-.01.002-.01.006c0 .003-.006.006-.013.006-.007 0-.012.002-.012.006 0 .003-.005.006-.011.006-.006 0-.015.005-.02.012a.025.025 0 01-.02.012c-.005 0-.01.003-.01.007 0 .003-.005.006-.011.006-.006 0-.015.005-.02.012-.005.007-.013.012-.018.012-.005 0-.014.006-.018.012-.005.007-.014.013-.019.013-.005 0-.013.005-.018.012-.005.007-.013.012-.019.012-.005 0-.013.005-.018.012-.005.007-.013.012-.018.012-.005 0-.014.006-.018.013-.005.006-.014.012-.019.012-.005 0-.013.005-.018.012-.005.007-.013.012-.018.012-.006 0-.014.006-.019.013-.005.006-.012.012-.017.012-.005 0-.016.008-.026.018-.009.01-.02.018-.024.018s-.015.009-.024.019c-.01.01-.02.018-.025.018-.004 0-.015.008-.024.019-.01.01-.02.018-.025.018-.004 0-.018.01-.03.024a.106.106 0 01-.03.025.142.142 0 00-.038.03.145.145 0 01-.036.031.395.395 0 00-.061.055.413.413 0 01-.061.055 2.168 2.168 0 00-.245.25.322.322 0 00-.049.056c0 .004-.014.02-.03.037a.14.14 0 00-.031.036.1.1 0 01-.024.03c-.014.014-.025.027-.025.031s-.008.015-.018.025c-.01.01-.019.02-.019.024s-.008.015-.018.025c-.01.01-.018.02-.018.025 0 .005-.006.013-.012.018-.007.004-.013.013-.013.018 0 .005-.005.013-.012.018-.007.005-.012.013-.012.017 0 .005-.008.017-.018.026-.01.01-.019.022-.019.027 0 .005-.003.01-.006.01s-.006.005-.006.01c0 .007-.006.015-.012.02-.007.005-.012.013-.012.019 0 .005-.006.013-.013.018-.006.005-.012.013-.012.018 0 .006-.005.014-.012.019-.007.005-.012.013-.012.018 0 .005-.006.013-.013.018-.006.005-.012.014-.012.02s-.002.01-.006.01c-.003 0-.006.006-.006.012s-.006.015-.012.02a.025.025 0 00-.012.02c0 .005-.003.01-.007.01-.003 0-.006.006-.006.012 0 .007-.002.012-.006.012-.003 0-.006.005-.006.011 0 .006-.005.015-.012.02-.007.005-.012.014-.012.02s-.003.01-.007.01c-.003 0-.006.006-.006.013 0 .007-.002.012-.006.012-.003 0-.006.005-.006.011 0 .006-.005.015-.012.02-.007.005-.012.013-.012.02 0 .005-.003.01-.006.01-.004 0-.007.006-.007.013 0 .006-.002.012-.006.012-.003 0-.006.005-.006.012s-.002.012-.006.012c-.003 0-.006.006-.006.012 0 .007-.003.013-.006.013s-.006.005-.006.012-.003.012-.006.012c-.004 0-.006.006-.006.012 0 .007-.003.013-.007.013-.003 0-.006.005-.006.012s-.002.012-.006.012c-.003 0-.006.006-.006.012 0 .007-.003.012-.006.012s-.006.006-.006.013c0 .006-.003.012-.006.012s-.006.006-.006.012c0 .007-.003.012-.006.012-.004 0-.006.006-.006.013 0 .006-.003.012-.007.012-.003 0-.006.005-.006.012s-.003.012-.006.012-.006.009-.006.019-.003.018-.006.018-.006.006-.006.012c0 .007-.003.013-.006.013-.004 0-.006.005-.006.012s-.003.012-.006.012c-.004 0-.007.005-.007.012s-.002.012-.006.012c-.003 0-.006.009-.006.019s-.003.018-.006.018-.006.006-.006.012c0 .007-.003.013-.006.013s-.006.005-.006.012c0 .006-.003.012-.006.012-.004 0-.006.008-.006.018 0 .01-.003.019-.007.019-.003 0-.006.005-.006.012s-.003.012-.006.012-.006.008-.006.019c0 .01-.003.018-.006.018s-.006.005-.006.012-.003.012-.006.012c-.004 0-.006.009-.006.019s-.003.018-.006.018c-.004 0-.007.008-.007.018 0 .01-.002.019-.006.019-.003 0-.006.005-.006.012s-.003.012-.006.012-.006.008-.006.018c0 .01-.003.019-.006.019s-.006.008-.006.018c0 .01-.003.019-.006.019-.004 0-.006.008-.006.018 0 .01-.003.018-.007.018-.003 0-.006.008-.006.019 0 .01-.003.018-.006.018s-.006.008-.006.018c0 .01-.003.019-.006.019s-.006.008-.006.018c0 .01-.003.018-.006.018-.004 0-.006.011-.006.025 0 .013-.003.024-.006.024-.004 0-.007.008-.007.019 0 .01-.002.018-.006.018-.003 0-.006.008-.006.018 0 .01-.003.019-.006.019s-.006.01-.006.024-.003.025-.006.025-.006.01-.006.024c0 .013-.003.024-.006.024-.004 0-.006.011-.006.025 0 .013-.003.024-.007.024-.003 0-.006.009-.006.019s-.003.018-.006.018-.006.014-.006.03c0 .018-.003.031-.006.031s-.006.011-.006.025c0 .013-.003.024-.006.024-.004 0-.006.011-.006.025 0 .013-.003.024-.006.024-.004 0-.007.014-.007.03 0 .018-.002.031-.006.031-.003 0-.006.014-.006.03 0 .018-.003.031-.006.031s-.006.014-.006.031-.003.03-.006.03c-.004 0-.006.017-.006.037 0 .02-.003.037-.006.037-.004 0-.006.016-.006.037 0 .02-.003.036-.007.036-.003 0-.006.019-.006.043 0 .025-.002.043-.006.043-.003 0-.006.018-.006.043 0 .024-.003.043-.006.043-.004 0-.006.02-.006.048 0 .029-.003.05-.006.05-.004 0-.006.024-.006.06 0 .037-.003.062-.007.062-.003 0-.006.028-.006.073s-.002.073-.006.073a.366.366 0 00-.006.104.368.368 0 01-.006.104.333.333 0 00-.006.098v.098h.049c.028 0 .049-.003.049-.006 0-.004.024-.006.06-.006.038 0 .062-.003.062-.006 0-.004.024-.006.061-.006s.061-.003.061-.007c0-.003.02-.006.05-.006.028 0 .048-.002.048-.006 0-.003.02-.006.049-.006.028 0 .049-.002.049-.006 0-.003.018-.006.043-.006.024 0 .042-.003.042-.006 0-.004.019-.006.043-.006.024 0 .043-.003.043-.007 0-.003.016-.006.037-.006.02 0 .036-.002.036-.006 0-.003.017-.006.037-.006.02 0 .037-.002.037-.006 0-.003.013-.006.03-.006s.03-.003.03-.006.014-.006.031-.006.03-.003.03-.006c0-.004.015-.007.031-.007.017 0 .03-.002.03-.006 0-.003.012-.006.025-.006.014 0 .025-.003.025-.006s.01-.006.024-.006.025-.003.025-.006c0-.004.01-.006.024-.006s.025-.003.025-.006c0-.004.01-.006.024-.006s.024-.003.024-.007c0-.003.009-.006.019-.006s.018-.002.018-.006c0-.003.008-.006.018-.006.01 0 .019-.003.019-.006s.005-.006.012-.006.012-.003.012-.006c0-.004.009-.006.019-.006s.018-.003.018-.006c0-.004.005-.007.012-.007s.012-.002.012-.006c0-.003.009-.006.019-.006s.018-.003.018-.006.005-.006.012-.006.013-.003.013-.006c0-.004.005-.006.012-.006.006 0 .012-.003.012-.006 0-.004.008-.007.018-.007.01 0 .019-.002.019-.006 0-.003.005-.006.012-.006.006 0 .012-.002.012-.006 0-.003.005-.006.012-.006s.012-.003.012-.006.006-.006.013-.006c.006 0 .012-.003.012-.006 0-.004.005-.006.012-.006s.012-.003.012-.007c0-.003.005-.006.011-.006.006 0 .015-.005.02-.012.005-.007.014-.012.02-.012s.01-.003.01-.006c0-.004.006-.006.013-.006.006 0 .012-.003.012-.007 0-.003.005-.006.012-.006s.012-.002.012-.006c0-.003.005-.006.011-.006.006 0 .015-.005.02-.012.005-.007.014-.012.02-.012s.01-.003.01-.006c0-.004.005-.006.011-.006.006 0 .015-.006.02-.013.005-.006.013-.012.018-.012.006 0 .014-.006.019-.012.005-.007.013-.012.02-.012.005 0 .01-.003.01-.006 0-.004.005-.007.011-.007.006 0 .015-.005.02-.012.005-.007.013-.012.018-.012.005 0 .014-.006.018-.012.005-.007.013-.013.018-.013.004 0 .016-.008.025-.018.01-.01.021-.018.026-.018.005 0 .012-.006.017-.013.005-.006.013-.012.017-.012.005 0 .016-.008.026-.018.01-.01.02-.018.024-.018s.015-.009.025-.019c.01-.01.02-.018.024-.018s.018-.011.03-.025a.113.113 0 01.031-.024.14.14 0 00.037-.03.143.143 0 01.037-.031.192.192 0 00.042-.037.198.198 0 01.043-.037.48.48 0 00.067-.06.509.509 0 01.067-.062 2.414 2.414 0 00.269-.275.484.484 0 00.062-.067c0-.004.019-.026.043-.05a.256.256 0 00.042-.048c0-.004.014-.02.03-.037a.142.142 0 00.031-.037c0-.003.011-.017.025-.03a.115.115 0 00.024-.03c0-.005.008-.016.019-.025.01-.01.018-.02.018-.024s.01-.018.024-.031c.014-.013.025-.027.025-.032 0-.005.005-.012.012-.017.007-.005.012-.013.012-.017 0-.005.009-.017.019-.026.01-.01.018-.02.018-.024s.008-.015.018-.025c.01-.01.019-.02.019-.025 0-.005.005-.013.012-.018.007-.005.012-.013.012-.018 0-.005.006-.014.012-.018.007-.005.012-.013.012-.019 0-.005.006-.013.013-.018.006-.005.012-.013.012-.018 0-.006.006-.014.012-.019.007-.005.012-.013.012-.018 0-.005.006-.014.013-.018.006-.005.012-.014.012-.02s.003-.011.006-.011.006-.005.006-.01c0-.007.006-.016.012-.02.007-.005.013-.014.013-.019 0-.005.005-.013.012-.018.006-.005.012-.014.012-.02s.003-.01.006-.01.006-.006.006-.013c0-.007.003-.012.006-.012.004 0 .006-.005.006-.011 0-.006.006-.015.013-.02.006-.005.012-.014.012-.02 0-.005.003-.01.006-.01s.006-.006.006-.013c0-.006.003-.012.006-.012.004 0 .006-.005.006-.01 0-.007.006-.016.013-.02.006-.005.012-.014.012-.02s.003-.011.006-.011.006-.005.006-.012.003-.012.006-.012.006-.006.006-.013c0-.006.003-.012.006-.012.004 0 .006-.005.006-.012s.003-.012.007-.012c.003 0 .006-.006.006-.013 0-.006.002-.012.006-.012.003 0 .006-.005.006-.012s.003-.012.006-.012.006-.006.006-.013c0-.006.003-.012.006-.012.004 0 .006-.005.006-.012s.003-.012.006-.012c.004 0 .006-.006.006-.013 0-.006.003-.012.007-.012.003 0 .006-.005.006-.012s.003-.012.006-.012.006-.006.006-.012c0-.007.003-.013.006-.013s.006-.005.006-.012.003-.012.006-.012c.004 0 .006-.008.006-.018 0-.01.003-.019.006-.019.004 0 .007-.005.007-.012s.002-.012.006-.012c.003 0 .006-.006.006-.012 0-.007.003-.013.006-.013s.006-.005.006-.012.003-.012.006-.012c.004 0 .006-.008.006-.019 0-.01.003-.018.006-.018.004 0 .006-.005.006-.012s.003-.012.007-.012c.003 0 .006-.009.006-.019s.003-.018.006-.018.006-.005.006-.012.003-.012.006-.012.006-.009.006-.019.003-.018.006-.018c.004 0 .006-.008.006-.018 0-.01.003-.019.007-.019.003 0 .006-.005.006-.012s.002-.012.006-.012c.003 0 .006-.009.006-.019s.003-.018.006-.018.006-.008.006-.018c0-.01.003-.019.006-.019.004 0 .006-.005.006-.012s.003-.012.006-.012c.004 0 .007-.008.007-.019 0-.01.002-.018.006-.018.003 0 .006-.008.006-.018 0-.01.003-.018.006-.018s.006-.009.006-.019.003-.018.006-.018.006-.008.006-.019c0-.01.003-.018.006-.018.004 0 .006-.008.006-.018 0-.01.003-.019.007-.019.003 0 .006-.01.006-.024s.002-.025.006-.025c.003 0 .006-.008.006-.018 0-.01.003-.018.006-.018s.006-.009.006-.019.003-.018.006-.018c.004 0 .006-.01.006-.024s.003-.025.006-.025c.004 0 .007-.008.007-.018 0-.01.002-.018.006-.018.003 0 .006-.012.006-.025 0-.013.002-.024.006-.024.003 0 .006-.011.006-.025 0-.013.003-.024.006-.024.004 0 .006-.011.006-.025 0-.013.003-.024.006-.024.004 0 .006-.011.006-.025 0-.013.003-.024.007-.024.003 0 .006-.014.006-.03 0-.018.002-.031.006-.031.003 0 .006-.011.006-.025 0-.013.003-.024.006-.024s.006-.014.006-.03c0-.018.003-.031.006-.031.004 0 .006-.017.006-.037 0-.02.003-.037.007-.037.003 0 .006-.016.006-.037 0-.02.002-.036.006-.036.003 0 .006-.018.006-.043 0-.024.002-.043.006-.043.003 0 .006-.022.006-.055 0-.032.002-.055.006-.055s.006-.028.006-.073.003-.074.006-.074c.004 0 .007-.069.007-.195a1.152 1.152 0 00-.013-.251c0-.033-.002-.055-.006-.055-.003 0-.006-.014-.006-.03 0-.017-.003-.031-.006-.031-.004 0-.006-.014-.006-.03 0-.018-.003-.031-.006-.031-.004 0-.006-.011-.006-.025 0-.013-.003-.024-.006-.024-.004 0-.007-.007-.007-.016a.04.04 0 00-.008-.024c-.01-.01-.028-.012-.028-.003zm-.025 4.612c0 .003-.028.006-.073.006s-.073.002-.073.006-.025.006-.062.006c-.036 0-.06.003-.06.006 0 .004-.021.006-.05.006-.028 0-.049.003-.049.006 0 .004-.018.006-.042.006-.025 0-.043.003-.043.007 0 .003-.016.006-.037.006-.02 0-.036.002-.036.006 0 .003-.017.006-.037.006-.02 0-.037.003-.037.006s-.014.006-.03.006c-.017 0-.03.003-.03.006 0 .004-.017.006-.038.006-.02 0-.036.003-.036.007 0 .003-.011.006-.025.006-.013 0-.024.002-.024.006 0 .003-.014.006-.03.006-.017 0-.031.003-.031.006s-.014.006-.03.006c-.018 0-.031.003-.031.006 0 .004-.011.006-.025.006-.013 0-.024.003-.024.006 0 .004-.011.007-.025.007-.013 0-.024.002-.024.006 0 .003-.011.006-.024.006-.014 0-.025.002-.025.006 0 .003-.011.006-.024.006-.014 0-.025.003-.025.006s-.01.006-.024.006-.025.003-.025.006c0 .004-.01.006-.024.006s-.025.003-.025.007c0 .003-.01.006-.024.006s-.024.003-.024.006-.009.006-.019.006-.018.003-.018.006-.011.006-.025.006c-.013 0-.024.003-.024.006 0 .004-.008.006-.018.006-.01 0-.019.003-.019.006 0 .004-.01.007-.024.007s-.025.002-.025.006c0 .003-.008.006-.018.006-.01 0-.018.003-.018.006s-.011.006-.025.006c-.013 0-.024.003-.024.006 0 .004-.008.006-.019.006-.01 0-.018.003-.018.006 0 .004-.008.007-.018.007-.01 0-.019.002-.019.006 0 .003-.008.006-.018.006-.01 0-.018.002-.018.006 0 .003-.008.006-.019.006-.01 0-.018.003-.018.006 0 .004-.008.006-.018.006-.01 0-.019.003-.019.006 0 .004-.01.007-.024.007s-.024.002-.024.006c0 .003-.006.006-.013.006-.006 0-.012.002-.012.006 0 .003-.008.006-.018.006-.01 0-.019.003-.019.006s-.008.006-.018.006c-.01 0-.018.003-.018.006 0 .004-.009.006-.019.006s-.018.003-.018.007c0 .003-.008.006-.018.006-.01 0-.019.002-.019.006 0 .003-.008.006-.018.006-.01 0-.018.003-.018.006s-.009.006-.019.006-.018.003-.018.006c0 .004-.008.006-.018.006-.01 0-.019.003-.019.006 0 .004-.008.007-.018.007-.01 0-.018.002-.018.006 0 .003-.008.006-.019.006-.01 0-.018.003-.018.006s-.008.006-.018.006c-.01 0-.019.003-.019.006 0 .004-.01.006-.024.006s-.024.003-.024.006c0 .004-.009.006-.019.006s-.018.003-.018.007c0 .003-.008.006-.018.006-.01 0-.019.002-.019.006 0 .003-.008.006-.018.006-.01 0-.018.003-.018.006s-.009.006-.019.006-.018.003-.018.006c0 .004-.008.006-.018.006-.01 0-.019.003-.019.006 0 .004-.01.007-.024.007s-.025.002-.025.006c0 .003-.008.006-.018.006-.01 0-.018.003-.018.006s-.009.006-.019.006-.018.003-.018.006c0 .004-.011.006-.024.006-.014 0-.025.003-.025.006 0 .004-.008.007-.018.007-.01 0-.019.002-.019.006 0 .003-.01.006-.024.006s-.025.002-.025.006c0 .003-.01.006-.024.006-.013 0-.024.003-.024.006s-.009.006-.019.006-.018.003-.018.006c0 .004-.011.007-.024.007-.014 0-.025.002-.025.006 0 .003-.011.006-.024.006-.014 0-.025.002-.025.006 0 .003-.01.006-.024.006s-.025.003-.025.006-.01.006-.024.006-.025.003-.025.006c0 .004-.01.006-.024.006s-.025.003-.025.006c0 .004-.013.007-.03.007s-.03.002-.03.006c0 .003-.012.006-.025.006-.014 0-.025.003-.025.006s-.013.006-.03.006-.03.003-.03.006c0 .004-.017.006-.037.006-.02 0-.037.003-.037.006 0 .004-.014.006-.03.006-.017 0-.031.003-.031.007 0 .003-.019.006-.043.006-.024 0-.043.002-.043.006s-.022.006-.055.006c-.032 0-.055.003-.055.006a.834.834 0 01-.159.006.834.834 0 01-.207-.012c-.029 0-.05-.003-.05-.006s-.016-.006-.036-.006c-.02 0-.037-.003-.037-.006 0-.004-.016-.007-.036-.007-.02 0-.037-.002-.037-.006 0-.003-.014-.006-.03-.006-.017 0-.031-.002-.031-.006 0-.003-.014-.006-.03-.006-.017 0-.031-.003-.031-.006s-.014-.006-.03-.006c-.018 0-.031-.003-.031-.006 0-.004-.014-.006-.03-.006-.018 0-.031-.003-.031-.007 0-.003-.011-.006-.025-.006-.013 0-.024-.002-.024-.006 0-.003-.014-.006-.03-.006-.018 0-.031-.003-.031-.006s-.011-.006-.025-.006c-.013 0-.024-.003-.024-.006 0-.004-.011-.006-.025-.006-.013 0-.024-.003-.024-.006 0-.004-.011-.006-.025-.006-.013 0-.024-.003-.024-.007 0-.003-.011-.006-.025-.006-.013 0-.024-.002-.024-.006 0-.003-.011-.006-.025-.006-.013 0-.024-.003-.024-.006 0-.004-.01-.006-.024-.006s-.025-.003-.025-.006c0-.004-.01-.006-.024-.006s-.025-.003-.025-.007c0-.003-.01-.006-.024-.006s-.025-.002-.025-.006c0-.003-.01-.006-.024-.006s-.024-.003-.024-.006-.009-.006-.019-.006-.018-.003-.018-.006c0-.004-.011-.006-.025-.006-.013 0-.024-.003-.024-.007 0-.003-.011-.006-.024-.006-.014 0-.025-.002-.025-.006 0-.003-.008-.006-.018-.006-.01 0-.019-.003-.019-.006s-.01-.006-.024-.006-.024-.003-.024-.006c0-.004-.009-.006-.019-.006s-.018-.003-.018-.006c0-.004-.011-.007-.025-.007-.013 0-.024-.002-.024-.006 0-.003-.008-.006-.018-.006-.01 0-.019-.002-.019-.006 0-.003-.01-.006-.024-.006s-.025-.003-.025-.006-.008-.006-.018-.006c-.01 0-.018-.003-.018-.006 0-.004-.011-.007-.025-.007-.013 0-.024-.002-.024-.006 0-.003-.008-.006-.019-.006-.01 0-.018-.002-.018-.006 0-.003-.01-.006-.024-.006s-.025-.003-.025-.006-.008-.006-.018-.006c-.01 0-.018-.003-.018-.006 0-.004-.011-.006-.025-.006-.013 0-.024-.003-.024-.006 0-.004-.011-.007-.025-.007-.013 0-.024-.002-.024-.006 0-.003-.008-.006-.018-.006-.01 0-.019-.003-.019-.006s-.01-.006-.024-.006-.025-.003-.025-.006c0-.004-.01-.006-.024-.006s-.025-.003-.025-.006c0-.004-.01-.006-.024-.006s-.024-.003-.024-.007c0-.003-.009-.006-.019-.006s-.018-.002-.018-.006c0-.003-.011-.006-.025-.006-.013 0-.024-.003-.024-.006 0-.004-.011-.006-.025-.006-.013 0-.024-.003-.024-.006 0-.004-.014-.006-.03-.006-.017 0-.031-.003-.031-.007 0-.003-.011-.006-.025-.006-.013 0-.024-.002-.024-.006 0-.003-.011-.006-.024-.006-.014 0-.025-.003-.025-.006s-.01-.006-.024-.006-.025-.003-.025-.006c0-.004-.014-.006-.03-.006-.017 0-.03-.003-.03-.007 0-.003-.015-.006-.032-.006-.016 0-.03-.002-.03-.006 0-.003-.011-.006-.024-.006-.014 0-.025-.003-.025-.006s-.016-.006-.037-.006c-.02 0-.036-.003-.036-.006s-.014-.006-.03-.006c-.018 0-.031-.003-.031-.006 0-.004-.014-.007-.03-.007-.018 0-.031-.002-.031-.006 0-.003-.017-.006-.037-.006-.02 0-.037-.003-.037-.006s-.016-.006-.037-.006c-.02 0-.036-.003-.036-.006 0-.004-.017-.006-.037-.006-.02 0-.037-.003-.037-.006 0-.004-.018-.006-.042-.006-.025 0-.043-.003-.043-.007 0-.003-.018-.006-.043-.006-.024 0-.043-.002-.043-.006 0-.003-.02-.006-.049-.006-.028 0-.048-.002-.048-.006s-.025-.006-.061-.006c-.037 0-.062-.003-.062-.006 0-.004-.03-.006-.08-.006a.244.244 0 01-.078-.006 2.97 2.97 0 00-.306-.007 2.483 2.483 0 00-.386.013c-.048 0-.079.002-.079.006 0 .003-.022.006-.055.006-.032 0-.055.002-.055.006 0 .003-.018.006-.042.006-.025 0-.043.003-.043.006 0 .004-.018.006-.043.006-.024 0-.043.003-.043.006 0 .004-.016.007-.036.007-.02 0-.037.002-.037.006 0 .003-.014.006-.03.006-.017 0-.031.002-.031.006 0 .003-.014.006-.03.006-.018 0-.031.003-.031.006s-.011.006-.025.006c-.013 0-.024.003-.024.006 0 .004-.014.006-.03.006-.018 0-.031.003-.031.007 0 .003-.011.006-.025.006-.013 0-.024.003-.024.006s-.009.006-.018.006c-.01 0-.019.003-.019.006s-.01.006-.024.006-.025.003-.025.006c0 .004-.01.006-.024.006s-.025.003-.025.006c0 .004-.008.007-.018.007-.01 0-.018.002-.018.006 0 .003-.009.006-.019.006s-.018.003-.018.006-.008.006-.018.006c-.01 0-.019.003-.019.006 0 .004-.008.006-.018.006-.01 0-.018.003-.018.006 0 .004-.009.007-.019.007s-.018.002-.018.006c0 .003-.008.006-.018.006-.01 0-.019.002-.019.006 0 .003-.008.006-.018.006-.01 0-.018.003-.018.006 0 .004-.009.006-.019.006s-.018.003-.018.006c0 .004-.005.007-.012.007s-.012.002-.012.006c0 .003-.009.006-.019.006s-.018.002-.018.006c0 .003-.006.006-.012.006-.007 0-.013.003-.013.006s-.008.006-.018.006c-.01 0-.018.003-.018.006 0 .004-.006.006-.013.006-.006 0-.012.003-.012.007 0 .003-.005.006-.012.006s-.012.002-.012.006c0 .003-.008.006-.018.006-.01 0-.019.003-.019.006s-.005.006-.012.006-.012.003-.012.006c0 .004-.006.006-.012.006-.007 0-.013.003-.013.006 0 .004-.005.007-.012.007s-.012.002-.012.006c0 .003-.006.006-.012.006-.007 0-.013.003-.013.006s-.005.006-.012.006-.012.003-.012.006c0 .004-.005.006-.012.006s-.012.003-.012.006c0 .004-.008.006-.018.006a.03.03 0 00-.025.013c-.005.006-.014.012-.02.012s-.01.003-.01.006-.006.006-.013.006c-.007 0-.012.003-.012.006 0 .004-.006.006-.013.006-.006 0-.012.003-.012.006 0 .004-.005.007-.012.007s-.012.002-.012.006c0 .003-.006.006-.012.006-.007 0-.013.003-.013.006s-.005.006-.01.006c-.007 0-.015.006-.02.012-.005.007-.014.013-.02.013s-.01.002-.01.006c0 .003-.006.006-.013.006-.007 0-.012.002-.012.006 0 .003-.005.006-.011.006-.006 0-.015.005-.02.012-.005.007-.013.013-.018.013-.005 0-.014.005-.018.012-.005.006-.014.012-.02.012s-.011.003-.011.006-.005.006-.01.006c-.007 0-.016.006-.02.012-.005.007-.014.013-.019.013-.005 0-.013.005-.018.012-.005.007-.013.012-.019.012-.005 0-.013.006-.018.012-.005.007-.013.012-.018.012-.005 0-.014.006-.018.013-.005.006-.014.012-.019.012-.005 0-.013.006-.018.012-.005.007-.013.013-.017.013-.005 0-.017.008-.026.018-.01.01-.02.018-.024.018s-.015.008-.025.019c-.01.01-.02.018-.024.018s-.015.008-.025.018c-.01.01-.02.018-.024.018s-.015.009-.025.019c-.01.01-.02.018-.024.018a.14.14 0 00-.037.03.144.144 0 01-.036.031.141.141 0 00-.037.03.142.142 0 01-.037.031.398.398 0 00-.06.056 4.07 4.07 0 00-.385.385.395.395 0 00-.056.061.198.198 0 01-.037.043.195.195 0 00-.036.043c0 .003-.014.02-.03.036a.14.14 0 00-.031.037c0 .004-.011.018-.025.03a.1.1 0 00-.024.031c0 .004-.008.015-.019.025-.01.009-.018.02-.018.024s-.011.018-.024.03c-.014.014-.025.027-.025.031s-.008.015-.018.025c-.01.01-.018.02-.018.025 0 .005-.006.013-.013.017-.006.005-.012.013-.012.018 0 .004-.008.016-.018.025-.01.01-.019.021-.019.026 0 .004-.005.012-.012.017-.007.005-.012.013-.012.018 0 .006-.006.014-.012.019-.007.005-.013.013-.013.018 0 .005-.005.014-.012.018-.007.005-.012.014-.012.019 0 .005-.005.013-.012.018-.007.005-.012.013-.012.018 0 .006-.006.014-.013.019-.006.005-.012.013-.012.018 0 .005-.005.014-.012.018-.007.005-.012.014-.012.019 0 .005-.006.013-.012.018-.007.005-.013.013-.013.019 0 .005-.005.013-.012.018-.007.005-.012.014-.012.02s-.003.01-.006.01c-.004 0-.006.005-.006.011 0 .006-.006.015-.013.02-.006.005-.012.014-.012.02s-.003.01-.006.01-.006.006-.006.012-.006.014-.012.02c-.007.004-.012.013-.012.019s-.003.01-.007.01c-.003 0-.006.006-.006.012s-.005.015-.012.02c-.007.004-.012.013-.012.019s-.003.01-.006.01c-.004 0-.006.006-.006.013 0 .007-.003.012-.007.012-.003 0-.006.006-.006.013 0 .006-.002.012-.006.012-.003 0-.006.005-.006.01a.025.025 0 01-.012.02c-.007.005-.012.014-.012.02s-.003.011-.006.011c-.004 0-.007.006-.007.012 0 .007-.002.012-.006.012-.003 0-.006.006-.006.013 0 .006-.002.012-.006.012-.003 0-.006.005-.006.012s-.003.012-.006.012-.006.006-.006.013c0 .006-.003.012-.006.012-.004 0-.006.005-.006.012s-.003.012-.007.012c-.003 0-.006.006-.006.012 0 .007-.002.013-.006.013-.003 0-.006.005-.006.012s-.003.012-.006.012-.006.006-.006.012c0 .007-.003.013-.006.013-.004 0-.006.005-.006.012s-.003.012-.006.012c-.004 0-.007.006-.007.012 0 .007-.002.013-.006.013-.003 0-.006.005-.006.012 0 .006-.003.012-.006.012s-.006.005-.006.012-.003.012-.006.012c-.004 0-.006.006-.006.013 0 .006-.003.012-.006.012-.004 0-.006.005-.006.012s-.003.012-.007.012c-.003 0-.006.006-.006.013 0 .006-.002.012-.006.012-.003 0-.006.008-.006.018 0 .01-.003.019-.006.019s-.006.005-.006.012c0 .006-.003.012-.006.012-.004 0-.006.006-.006.012 0 .007-.003.012-.006.012-.004 0-.007.006-.007.013 0 .006-.002.012-.006.012-.003 0-.006.008-.006.018 0 .01-.002.019-.006.019-.003 0-.006.005-.006.012s-.003.012-.006.012c-.004 0-.006.006-.006.012 0 .007-.003.013-.006.013-.004 0-.007.008-.007.018 0 .01-.002.018-.006.018-.003 0-.006.006-.006.012 0 .007-.002.013-.006.013-.003 0-.006.008-.006.018 0 .01-.003.018-.006.018s-.006.006-.006.013c0 .006-.003.012-.006.012-.004 0-.006.008-.006.018 0 .01-.003.019-.007.019-.003 0-.006.005-.006.012 0 .006-.002.012-.006.012-.003 0-.006.008-.006.018 0 .01-.003.019-.006.019s-.006.008-.006.018c0 .01-.003.018-.006.018s-.006.009-.006.019-.003.018-.006.018c-.004 0-.007.006-.007.012 0 .007-.002.012-.006.012-.003 0-.006.009-.006.019s-.002.018-.006.018c-.003 0-.006.008-.006.019 0 .01-.003.018-.006.018s-.006.008-.006.018c0 .01-.003.019-.006.019-.004 0-.006.008-.006.018 0 .01-.003.018-.006.018-.004 0-.007.009-.007.019s-.002.018-.006.018c-.003 0-.006.008-.006.018 0 .01-.003.019-.006.019s-.006.008-.006.018c0 .01-.003.018-.006.018-.004 0-.006.009-.006.019s-.003.018-.006.018c-.004 0-.006.011-.006.024 0 .014-.003.025-.007.025-.003 0-.006.008-.006.018 0 .01-.002.019-.006.019-.003 0-.006.01-.006.024s-.003.025-.006.025-.006.008-.006.018c0 .01-.003.018-.006.018-.004 0-.006.011-.006.025 0 .013-.003.024-.006.024-.004 0-.007.008-.007.019 0 .01-.002.018-.006.018-.003 0-.006.01-.006.024s-.003.025-.006.025-.006.01-.006.024-.003.025-.006.025c-.004 0-.006.01-.006.024s-.003.025-.006.025c-.004 0-.007.01-.007.024s-.002.025-.006.025c-.003 0-.006.013-.006.03s-.002.03-.006.03c-.003 0-.006.012-.006.025 0 .014-.003.025-.006.025s-.006.01-.006.024-.003.025-.006.025c-.004 0-.006.013-.006.03s-.003.03-.007.03c-.003 0-.006.015-.006.031 0 .017-.002.03-.006.03-.003 0-.006.015-.006.032 0 .016-.003.03-.006.03s-.006.016-.006.037c0 .02-.003.036-.006.036s-.006.014-.006.031-.003.03-.006.03c-.004 0-.007.017-.007.037 0 .02-.002.037-.006.037-.003 0-.006.016-.006.037 0 .02-.002.036-.006.036-.003 0-.006.019-.006.043 0 .025-.003.043-.006.043-.004 0-.006.018-.006.043 0 .024-.003.043-.006.043-.004 0-.006.02-.006.049 0 .028-.003.048-.006.048-.004 0-.007.023-.007.055 0 .033-.002.055-.006.055-.003 0-.006.023-.006.055 0 .033-.002.055-.006.055s-.006.027-.006.068c0 .04-.002.067-.006.067s-.006.03-.006.08c0 .049-.003.08-.006.08a.373.373 0 00-.006.103.374.374 0 01-.007.104c-.004 0-.006.09-.006.256 0 .2-.001.257-.007.26-.006.003-.006.005 0 .007.006.003.007.058.007.242 0 .154.002.238.006.238s.007.04.007.11.002.11.006.11c.003 0 .006.03.006.08 0 .048.002.079.006.079s.006.026.006.067c0 .041.002.067.006.067s.006.023.006.055c0 .033.003.056.006.056.004 0 .006.022.006.055 0 .032.003.055.007.055.003 0 .006.02.006.049 0 .028.002.049.006.049.003 0 .006.02.006.048 0 .029.002.05.006.05.003 0 .006.018.006.042 0 .025.003.043.006.043.004 0 .006.016.006.037 0 .02.003.036.006.036.004 0 .006.019.006.043 0 .025.003.043.007.043.003 0 .006.016.006.037 0 .02.002.036.006.036.003 0 .006.017.006.037 0 .02.003.037.006.037s.006.014.006.03c0 .017.003.03.006.03.004 0 .006.017.006.038 0 .02.003.036.006.036.004 0 .007.014.007.03 0 .018.002.031.006.031.003 0 .006.014.006.031s.003.03.006.03.006.014.006.031.003.03.006.03c.004 0 .006.014.006.031s.003.03.006.03c.004 0 .006.012.006.025 0 .014.003.025.007.025.003 0 .006.013.006.03s.002.03.006.03c.003 0 .006.012.006.025 0 .014.003.025.006.025s.006.014.006.03c0 .017.003.031.006.031.004 0 .006.011.006.024 0 .014.003.025.007.025.003 0 .006.01.006.024s.002.025.006.025c.003 0 .006.01.006.024s.003.025.006.025.006.01.006.024.003.025.006.025c.004 0 .006.01.006.024s.003.025.006.025c.004 0 .007.01.007.024s.002.024.006.024c.003 0 .006.012.006.025 0 .013.002.024.006.024.003 0 .006.011.006.025 0 .013.003.024.006.024s.006.011.006.025c0 .013.003.024.006.024.004 0 .006.009.006.019s.003.018.007.018c.003 0 .006.011.006.024 0 .014.002.025.006.025.003 0 .006.008.006.018 0 .01.003.019.006.019s.006.01.006.024.003.024.006.024c.004 0 .006.009.006.019s.003.018.006.018c.004 0 .007.011.007.025 0 .013.002.024.006.024.003 0 .006.008.006.018 0 .01.003.019.006.019s.006.008.006.018c0 .01.003.018.006.018s.006.009.006.019.003.018.006.018c.004 0 .006.011.006.025 0 .013.003.024.006.024.004 0 .007.008.007.018 0 .01.002.019.006.019.003 0 .006.008.006.018 0 .01.003.019.006.019s.006.008.006.018c0 .01.003.018.006.018.004 0 .006.008.006.019 0 .01.003.018.006.018.004 0 .006.008.006.018 0 .01.003.018.007.018.003 0 .006.009.006.019s.002.018.006.018c.003 0 .006.008.006.019 0 .01.003.018.006.018.004 0 .006.008.006.018 0 .01.003.019.006.019.004 0 .006.008.006.018 0 .01.003.018.007.018.003 0 .006.009.006.019s.002.018.006.018c.003 0 .006.008.006.018 0 .01.003.019.006.019s.006.008.006.018c0 .01.003.018.006.018.004 0 .006.009.006.019s.003.018.006.018c.004 0 .007.006.007.012 0 .007.002.012.006.012.003 0 .006.009.006.019s.002.018.006.018c.003 0 .006.009.006.019s.003.018.006.018.006.008.006.018c0 .01.003.019.006.019.004 0 .006.005.006.012s.003.012.007.012c.003 0 .006.008.006.018 0 .01.002.019.006.019.003 0 .006.008.006.018 0 .01.003.018.006.018s.006.006.006.013c0 .006.003.012.006.012.004 0 .006.008.006.018 0 .01.003.019.006.019.004 0 .007.008.007.018 0 .01.002.018.006.018.003 0 .006.006.006.012 0 .007.003.013.006.013s.006.008.006.018c0 .01.003.018.006.018.004 0 .006.006.006.013 0 .006.003.012.006.012.004 0 .006.008.006.018 0 .01.003.019.007.019.003 0 .006.005.006.012s.002.012.006.012c.003 0 .006.008.006.018 0 .01.003.019.006.019s.006.005.006.012.003.012.006.012c.004 0 .006.008.006.018 0 .01.003.019.006.019.004 0 .007.005.007.012s.002.012.006.012c.003 0 .006.009.006.019s.002.018.006.018c.003 0 .006.006.006.012 0 .007.003.013.006.013.004 0 .006.005.006.012 0 .006.003.012.006.012.004 0 .007.008.007.018 0 .01.002.019.006.019.003 0 .006.005.006.012s.002.012.006.012c.003 0 .006.006.006.012 0 .007.003.013.006.013s.006.008.006.018c0 .01.003.018.006.018.004 0 .006.006.006.012 0 .007.003.013.007.013.003 0 .006.005.006.012s.002.012.006.012c.003 0 .006.008.006.018 0 .01.002.019.006.019.003 0 .006.005.006.012s.003.012.006.012.006.006.006.013c0 .006.003.012.006.012.004 0 .007.005.007.012s.002.012.006.012c.003 0 .006.008.006.019 0 .01.002.018.006.018.003 0 .006.005.006.012s.003.012.006.012.006.006.006.013c0 .006.003.012.006.012.004 0 .006.005.006.012s.003.012.006.012c.004 0 .007.009.007.019s.002.018.006.018c.003 0 .006.006.006.012 0 .007.003.012.006.012s.006.006.006.013c0 .006.003.012.006.012.004 0 .006.005.006.012s.003.012.006.012c.004 0 .006.006.006.013 0 .006.003.012.007.012.003 0 .006.005.006.012s.002.012.006.012c.003 0 .006.009.006.019s.003.018.006.018.006.005.006.012.003.012.006.012c.004 0 .006.006.006.013 0 .006.003.012.006.012.004 0 .007.005.007.012s.002.012.006.012c.003 0 .006.006.006.013 0 .006.003.012.006.012s.006.005.006.012.003.012.006.012c.004 0 .006.006.006.012 0 .007.003.013.006.013.004 0 .007.005.007.012s.002.012.006.012c.003 0 .006.006.006.012 0 .007.002.013.006.013.003 0 .006.005.006.012s.003.012.006.012.006.006.006.012c0 .007.003.013.006.013.004 0 .006.005.006.012s.003.012.007.012c.003 0 .006.006.006.012 0 .007.002.012.006.012.003 0 .006.006.006.013 0 .007.003.012.006.012s.006.006.006.012c0 .007.003.012.006.012s.006.006.006.013c0 .006.003.012.006.012.004 0 .007.005.007.012s.002.012.006.012c.003 0 .006.006.006.013 0 .006.003.012.006.012s.006.005.006.012.003.012.006.012.006.006.006.012c0 .007.003.013.006.013.004 0 .006.005.006.012s.003.012.006.012c.004 0 .007.006.007.012 0 .007.002.013.006.013.003 0 .006.005.006.012s.003.012.006.012.006.006.006.012c0 .007.003.013.006.013.004 0 .006.005.006.012 0 .006.003.012.006.012.004 0 .006.006.006.012 0 .007.003.012.007.012.003 0 .006.005.006.011 0 .006.005.015.012.02.007.005.012.014.012.02s.003.01.006.01c.004 0 .006.006.006.013 0 .007.003.012.006.012.004 0 .007.006.007.012 0 .007.002.013.006.013.003 0 .006.005.006.012 0 .006.003.012.006.012s.006.006.006.012c0 .007.003.012.006.012.004 0 .006.005.006.011 0 .006.006.015.013.02.006.005.012.014.012.02s.002.01.006.01c.003 0 .006.006.006.013 0 .007.003.012.006.012s.006.006.006.012c0 .007.003.013.006.013.004 0 .006.005.006.012s.003.012.007.012c.003 0 .006.005.006.01 0 .007.005.016.012.02.007.006.012.014.012.02s.003.011.006.011.006.006.006.012c0 .007.003.013.006.013.004 0 .007.005.007.01 0 .007.005.015.012.02.007.005.012.014.012.02s.003.01.006.01.006.006.006.013c0 .007.003.012.006.012.004 0 .006.006.006.012 0 .007.003.013.007.013.003 0 .006.005.006.01 0 .007.005.015.012.02.007.005.012.014.012.02s.003.01.006.01c.004 0 .006.006.006.013 0 .007.003.012.006.012.004 0 .006.005.006.011 0 .006.006.015.013.02.006.005.012.014.012.02s.003.01.006.01.006.006.006.013c0 .006.003.012.006.012.004 0 .006.005.006.01 0 .007.006.016.013.02.006.005.012.014.012.02s.003.011.006.011.006.005.006.011c0 .006.006.015.012.02.007.005.012.013.012.02 0 .005.003.01.007.01.003 0 .006.005.006.011 0 .006.005.015.012.02.007.005.012.014.012.02 0 .005.003.01.006.01.004 0 .006.005.006.011 0 .006.006.015.013.02.006.005.012.014.012.02s.003.01.006.01.006.005.006.011c0 .006.006.015.012.02.007.005.013.014.013.02s.002.01.006.01c.003 0 .006.006.006.012s.005.014.012.02c.007.004.012.012.012.018 0 .005.006.013.012.018.007.005.013.014.013.02s.002.01.006.01c.003 0 .006.005.006.011 0 .006.005.015.012.02.007.005.012.013.012.018 0 .006.006.014.013.019.006.005.012.014.012.02s.002.01.006.01c.003 0 .006.005.006.011 0 .006.005.015.012.02.007.005.012.013.012.018 0 .005.006.014.013.019.006.005.012.013.012.018 0 .005.005.014.012.018.007.005.012.013.012.019 0 .005.006.013.013.018.006.005.012.013.012.018 0 .006.005.014.012.019.007.005.012.013.012.018 0 .005.006.014.013.018.006.005.012.014.012.019 0 .005.005.013.012.018.007.005.012.013.012.018 0 .006.006.014.012.019.007.005.013.013.013.018 0 .005.005.014.012.019.007.004.012.013.012.018 0 .005.005.013.012.018.007.005.012.013.012.018 0 .006.006.014.013.019.006.005.012.012.012.017 0 .005.008.016.018.026.01.01.019.02.019.025 0 .005.005.013.012.018.007.004.012.012.012.017 0 .004.008.016.018.025.01.01.019.021.019.026 0 .005.005.012.012.017.007.005.012.013.012.017 0 .005.008.017.019.026.01.01.018.02.018.024s.008.015.018.025c.01.01.019.02.019.024s.008.015.018.025c.01.01.018.02.018.024s.008.015.018.025c.01.01.019.02.019.024s.008.015.018.025c.01.009.018.02.018.024s.011.018.025.03c.013.014.024.027.024.031s.011.018.025.03c.013.014.024.027.024.031s.014.02.03.037a.116.116 0 01.031.037c0 .003.014.02.03.036a.14.14 0 01.032.037c0 .004.016.023.036.043.02.02.037.039.037.043 0 .003.025.03.055.06s.055.058.055.062a7.56 7.56 0 00.415.41.252.252 0 00.05.043c.003 0 .022.016.042.036.02.02.04.037.043.037.004 0 .018.01.03.024.013.014.027.025.031.025s.015.008.024.018c.01.01.02.019.025.019.004 0 .017.01.03.024a.1.1 0 00.032.024c.005 0 .013.006.017.013.005.006.013.012.018.012.004 0 .016.008.025.018.01.01.021.019.026.019.004 0 .012.005.017.012.005.006.013.012.018.012.005 0 .014.005.019.012.004.007.013.012.018.012.005 0 .013.006.018.013.005.006.013.012.019.012.005 0 .013.006.018.012.005.007.014.012.02.012s.01.003.01.006c0 .004.005.007.011.007.006 0 .015.005.02.012.005.007.014.012.02.012s.01.003.01.006c0 .004.005.006.011.006.006 0 .015.006.02.013.005.006.014.012.02.012s.01.003.01.006.006.006.013.006c.007 0 .012.003.012.006s.005.006.011.006c.006 0 .015.006.02.012.005.007.013.013.02.013.005 0 .01.003.01.006s.006.006.012.006c.007 0 .013.003.013.006s.005.006.012.006.012.003.012.006c0 .004.006.006.012.006.007 0 .013.003.013.006 0 .004.005.007.012.007s.012.002.012.006c0 .003.006.006.012.006.007 0 .013.003.013.006s.008.006.018.006c.01 0 .018.003.018.006 0 .004.006.006.012.006.007 0 .013.003.013.006 0 .004.005.007.012.007s.012.002.012.006c0 .003.006.006.012.006.007 0 .012.002.012.006 0 .003.009.006.019.006s.018.003.018.006c0 .004.006.006.012.006.007 0 .013.003.013.006 0 .004.008.006.018.006.01 0 .018.003.018.007 0 .003.009.006.019.006s.018.002.018.006c0 .003.008.006.018.006.01 0 .019.003.019.006s.008.006.018.006c.01 0 .018.003.018.006 0 .004.009.006.019.006s.018.003.018.007c0 .003.008.006.018.006.01 0 .019.002.019.006 0 .003.01.006.024.006s.024.003.024.006.011.006.025.006c.013 0 .024.003.024.006 0 .004.011.006.025.006.013 0 .024.003.024.006 0 .004.014.007.03.007.018 0 .031.002.031.006 0 .003.014.006.031.006s.03.002.03.006c0 .003.019.006.043.006.025 0 .043.003.043.006 0 .004.027.006.067.006.041 0 .068.003.068.006 0 .004.05.006.14.006.09 0 .14-.002.14-.006 0-.003.027-.006.068-.006.04 0 .067-.002.067-.006 0-.003.019-.006.043-.006.024 0 .043-.003.043-.006 0-.004.016-.006.036-.006.02 0 .037-.003.037-.006 0-.004.014-.006.03-.006.017 0 .031-.003.031-.007 0-.003.014-.006.03-.006.018 0 .031-.002.031-.006 0-.003.014-.006.03-.006.018 0 .031-.003.031-.006s.011-.006.025-.006c.013 0 .024-.003.024-.006 0-.004.011-.006.025-.006.013 0 .024-.003.024-.006 0-.004.011-.007.025-.007.013 0 .024-.002.024-.006 0-.003.011-.006.024-.006.014 0 .025-.003.025-.006s.008-.006.018-.006c.01 0 .019-.003.019-.006 0-.004.01-.006.024-.006s.024-.003.024-.006c0-.004.009-.007.019-.007s.018-.002.018-.006c0-.003.009-.006.019-.006s.018-.002.018-.006c0-.003.008-.006.018-.006.01 0 .019-.003.019-.006s.01-.006.024-.006c.013 0 .024-.003.024-.006 0-.004.009-.006.019-.006s.018-.003.018-.007c0-.003.008-.006.018-.006.01 0 .019-.002.019-.006 0-.003.005-.006.012-.006s.012-.003.012-.006.008-.006.019-.006c.01 0 .018-.003.018-.006 0-.004.008-.006.018-.006.01 0 .019-.003.019-.007 0-.003.008-.006.018-.006.01 0 .018-.002.018-.006 0-.003.008-.006.019-.006.01 0 .018-.003.018-.006s.005-.006.012-.006.012-.003.012-.006.009-.006.019-.006.018-.003.018-.006c0-.004.008-.006.018-.006.01 0 .019-.003.019-.007 0-.003.005-.006.012-.006s.012-.003.012-.006.008-.006.018-.006c.01 0 .019-.003.019-.006s.005-.006.012-.006.012-.003.012-.006c0-.004.009-.006.019-.006s.018-.003.018-.006c0-.004.005-.007.012-.007s.012-.002.012-.006c0-.003.009-.006.019-.006s.018-.003.018-.006.006-.006.012-.006c.007 0 .013-.003.013-.006 0-.004.008-.006.018-.006.01 0 .018-.003.018-.006 0-.004.006-.007.012-.007.007 0 .013-.002.013-.006 0-.003.008-.006.018-.006.01 0 .018-.003.018-.006s.006-.006.013-.006c.006 0 .012-.003.012-.006s.008-.006.018-.006c.01 0 .018-.003.018-.006 0-.004.006-.006.013-.006.006 0 .012-.003.012-.007 0-.003.008-.006.018-.006.01 0 .018-.003.018-.006s.009-.006.019-.006.018-.003.018-.006.006-.006.012-.006c.007 0 .013-.003.013-.006 0-.004.008-.006.018-.006.01 0 .018-.003.018-.006 0-.004.008-.007.019-.007.01 0 .018-.002.018-.006 0-.003.008-.006.018-.006.01 0 .019-.003.019-.006s.008-.006.018-.006c.01 0 .018-.003.018-.006 0-.004.009-.006.019-.006s.018-.003.018-.006c0-.004.008-.007.018-.007.01 0 .019-.002.019-.006 0-.003.008-.006.018-.006.01 0 .018-.003.018-.006s.009-.006.019-.006.018-.003.018-.006c0-.004.008-.006.018-.006.01 0 .019-.003.019-.006 0-.004.008-.006.018-.006.01 0 .018-.003.018-.007 0-.003.011-.006.025-.006.013 0 .024-.002.024-.006 0-.003.009-.006.019-.006s.018-.003.018-.006.01-.006.024-.006.025-.003.025-.006c0-.004.008-.006.018-.006.01 0 .018-.003.018-.006 0-.004.011-.007.025-.007.013 0 .024-.002.024-.006 0-.003.011-.006.025-.006.013 0 .024-.003.024-.006s.014-.006.03-.006c.018 0 .031-.003.031-.006 0-.004.011-.006.025-.006.013 0 .024-.003.024-.006 0-.004.014-.007.03-.007.018 0 .031-.002.031-.006 0-.003.014-.006.03-.006.018 0 .031-.002.031-.006 0-.003.017-.006.037-.006.02 0 .037-.003.037-.006s.016-.006.037-.006c.02 0 .036-.003.036-.006 0-.004.018-.007.043-.007.024 0 .043-.002.043-.006 0-.003.024-.006.06-.006.038 0 .062-.002.062-.006s.092-.006.263-.006c.17 0 .263.002.263.006s.024.006.06.006c.037 0 .062.003.062.006 0 .004.02.006.049.006.028 0 .049.003.049.007 0 .003.018.006.042.006.025 0 .043.002.043.006 0 .003.016.006.037.006.02 0 .037.003.037.006 0 .004.013.006.03.006s.03.003.03.006c0 .004.014.006.031.006s.03.003.03.007c0 .003.014.006.031.006s.03.002.03.006c0 .003.015.006.031.006.017 0 .03.003.03.006s.012.006.025.006c.014 0 .025.003.025.006 0 .004.01.006.024.006s.025.003.025.007c0 .003.01.006.024.006s.025.002.025.006c0 .003.01.006.024.006s.024.003.024.006.012.006.025.006c.013 0 .024.003.024.006 0 .004.011.006.025.006.013 0 .024.003.024.006 0 .004.011.007.025.007.013 0 .024.002.024.006 0 .003.008.006.018.006.01 0 .019.002.019.006 0 .003.01.006.024.006s.025.003.025.006.008.006.018.006c.01 0 .018.003.018.006 0 .004.009.006.019.006s.018.003.018.007c0 .003.011.006.024.006.014 0 .025.002.025.006 0 .003.008.006.018.006.01 0 .019.003.019.006s.008.006.018.006c.01 0 .018.003.018.006 0 .004.009.006.019.006s.018.003.018.006c0 .004.008.007.018.007.01 0 .019.002.019.006 0 .003.008.006.018.006.01 0 .018.003.018.006s.009.006.019.006.018.003.018.006.008.006.018.006c.01 0 .019.003.019.006 0 .004.008.006.018.006.01 0 .018.003.018.007 0 .003.009.006.019.006s.018.003.018.006.005.006.012.006.012.003.012.006.009.006.019.006.018.003.018.006c0 .004.008.006.018.006.01 0 .019.003.019.006 0 .004.008.007.018.007.01 0 .018.002.018.006 0 .003.009.006.019.006s.018.003.018.006.008.006.018.006c.01 0 .019.003.019.006 0 .004.008.006.018.006.01 0 .018.003.018.006 0 .004.006.007.013.007.006 0 .012.002.012.006 0 .003.008.006.018.006.01 0 .019.003.019.006s.008.006.018.006c.01 0 .018.003.018.006s.009.006.019.006.018.003.018.006c0 .004.008.006.018.006.01 0 .019.003.019.007 0 .003.01.006.024.006s.025.003.025.006.008.006.018.006c.01 0 .018.003.018.006s.008.006.019.006c.01 0 .018.003.018.006 0 .004.008.006.018.006.01 0 .018.003.018.006 0 .004.009.007.019.007s.018.002.018.006c0 .003.011.006.025.006.013 0 .024.003.024.006s.008.006.018.006c.01 0 .019.003.019.006 0 .004.01.006.024.006s.025.003.025.006c0 .004.008.007.018.007.01 0 .018.002.018.006 0 .003.011.006.025.006.013 0 .024.002.024.006 0 .003.011.006.025.006.013 0 .024.003.024.006 0 .004.011.006.024.006.014 0 .025.003.025.006 0 .004.011.006.024.006.014 0 .025.003.025.007 0 .003.01.006.024.006s.025.002.025.006c0 .003.01.006.024.006s.025.003.025.006.013.006.03.006.03.003.03.006c0 .004.015.006.031.006.017 0 .03.003.03.007 0 .003.015.006.031.006.017 0 .031.002.031.006 0 .003.016.006.037.006.02 0 .036.003.036.006s.017.006.037.006c.02 0 .037.003.037.006 0 .004.02.006.049.006.028 0 .048.003.048.006 0 .004.025.007.062.007.036 0 .06.002.06.006s.056.006.154.006a.774.774 0 00.152-.006c0-.004.025-.006.061-.006.037 0 .061-.003.061-.007 0-.003.019-.006.043-.006.025 0 .043-.002.043-.006 0-.003.014-.006.03-.006.017 0 .031-.003.031-.006s.014-.006.03-.006c.017 0 .031-.003.031-.006 0-.004.011-.006.025-.006.013 0 .024-.003.024-.006 0-.004.011-.007.025-.007.013 0 .024-.002.024-.006 0-.003.008-.006.018-.006.01 0 .019-.003.019-.006s.008-.006.018-.006c.01 0 .018-.003.018-.006 0-.004.009-.006.019-.006s.018-.003.018-.006c0-.004.008-.007.018-.007.01 0 .019-.002.019-.006 0-.003.008-.006.018-.006.01 0 .018-.002.018-.006 0-.003.009-.006.019-.006s.018-.003.018-.006.006-.006.012-.006c.007 0 .012-.003.012-.006 0-.004.009-.006.019-.006s.018-.003.018-.007c0-.003.006-.006.012-.006.007 0 .013-.002.013-.006 0-.003.005-.006.012-.006s.012-.003.012-.006.008-.006.018-.006c.01 0 .019-.003.019-.006 0-.004.005-.006.012-.006s.012-.003.012-.007c0-.003.006-.006.012-.006.007 0 .013-.002.013-.006 0-.003.005-.006.012-.006s.012-.003.012-.006.006-.006.012-.006c.007 0 .012-.003.012-.006s.006-.006.013-.006c.007 0 .012-.003.012-.006 0-.004.006-.006.012-.006.007 0 .012-.003.012-.007 0-.003.005-.006.011-.006.006 0 .015-.005.02-.012.005-.007.014-.012.02-.012s.01-.003.01-.006c0-.004.006-.006.013-.006.007 0 .012-.003.012-.006 0-.004.006-.007.012-.007.007 0 .012-.002.012-.006 0-.003.005-.006.011-.006.006 0 .015-.005.02-.012.005-.007.014-.012.02-.012s.01-.003.01-.006c0-.004.006-.007.011-.007.006 0 .015-.005.02-.012.005-.006.013-.012.019-.012.005 0 .013-.006.018-.012.005-.007.013-.012.018-.012.005 0 .014-.006.019-.013.004-.007.013-.012.018-.012.005 0 .013-.006.018-.012.005-.007.013-.012.018-.012.006 0 .014-.006.019-.013.005-.006.012-.012.017-.012.005 0 .016-.008.026-.018.009-.01.02-.019.024-.019s.015-.008.024-.018c.01-.01.02-.018.025-.018.004 0 .015-.009.024-.019.01-.01.02-.018.025-.018.004 0 .017-.011.03-.024a.106.106 0 01.03-.025c.005 0 .019-.01.032-.024.012-.014.026-.025.03-.025a.192.192 0 00.043-.037.195.195 0 01.043-.036.492.492 0 00.067-.061 3.402 3.402 0 00.312-.306.56.56 0 01.073-.08.683.683 0 00.073-.08c0-.003.017-.022.037-.042a.193.193 0 00.037-.043.21.21 0 01.036-.043.244.244 0 00.037-.042c0-.004.014-.02.03-.037a.14.14 0 00.031-.037c0-.004.011-.017.024-.03a.106.106 0 00.025-.03c0-.005.01-.018.024-.031.014-.013.025-.027.025-.031s.01-.018.024-.03c.014-.014.025-.027.025-.031s.008-.015.018-.025c.01-.009.018-.02.018-.024s.009-.015.019-.024c.01-.01.018-.02.018-.025 0-.004.008-.015.018-.024.01-.01.019-.02.019-.025 0-.004.008-.015.018-.024.01-.01.018-.02.018-.025 0-.004.009-.015.019-.024.01-.01.018-.021.018-.026 0-.005.005-.012.012-.017.007-.005.012-.013.012-.017 0-.005.009-.017.019-.026.01-.01.018-.02.018-.025 0-.005.006-.013.012-.018.007-.005.013-.013.013-.018 0-.005.005-.014.012-.018.006-.005.012-.013.012-.018 0-.004.008-.016.018-.025.01-.01.019-.021.019-.026 0-.004.005-.012.012-.017.007-.005.012-.013.012-.018 0-.006.006-.014.012-.019.007-.005.013-.013.013-.018 0-.005.005-.013.012-.018.007-.005.012-.014.012-.019 0-.005.006-.013.012-.018.007-.005.012-.013.012-.018 0-.006.006-.014.013-.019.006-.005.012-.013.012-.018 0-.005.005-.014.012-.018.007-.005.012-.013.012-.019 0-.005.006-.013.013-.018.006-.005.012-.013.012-.018 0-.006.005-.014.012-.019.007-.005.012-.013.012-.018 0-.005.006-.014.012-.018.007-.005.013-.014.013-.02s.002-.011.006-.011c.003 0 .006-.005.006-.011 0-.006.005-.015.012-.02.007-.005.012-.013.012-.018 0-.005.006-.014.013-.018.006-.005.012-.014.012-.019 0-.005.005-.013.012-.018.007-.005.012-.014.012-.02s.003-.01.006-.01c.004 0 .007-.006.007-.011 0-.006.005-.015.012-.02.006-.005.012-.013.012-.018 0-.006.005-.014.012-.019.007-.005.012-.014.012-.02s.003-.01.007-.01c.003 0 .006-.005.006-.011 0-.006.005-.015.012-.02.007-.005.012-.014.012-.02s.003-.01.006-.01.006-.006.006-.012.006-.014.013-.02c.006-.004.012-.012.012-.018 0-.005.005-.013.012-.018.007-.005.012-.014.012-.02s.003-.01.006-.01c.004 0 .006-.005.006-.011 0-.006.006-.015.013-.02.006-.005.012-.014.012-.02s.003-.01.006-.01.006-.005.006-.011c0-.006.006-.015.012-.02.007-.005.012-.014.012-.02s.003-.01.007-.01c.003 0 .006-.006.006-.013 0-.007.003-.012.006-.012s.006-.005.006-.011c0-.006.006-.015.012-.02.007-.005.012-.014.012-.02s.003-.01.006-.01c.004 0 .007-.005.007-.011 0-.006.005-.015.012-.02.007-.005.012-.014.012-.02s.003-.01.006-.01c.004 0 .006-.006.006-.013 0-.007.003-.012.006-.012.004 0 .006-.005.006-.01 0-.007.006-.016.013-.02.006-.005.012-.014.012-.02s.003-.011.006-.011.006-.006.006-.012c0-.007.003-.013.006-.013.004 0 .006-.005.006-.012 0-.006.003-.012.006-.012.004 0 .007-.005.007-.01 0-.007.005-.016.012-.02.007-.006.012-.014.012-.02s.003-.011.006-.011c.004 0 .006-.006.006-.012 0-.007.003-.013.006-.013.004 0 .006-.005.006-.012s.003-.012.007-.012c.003 0 .006-.006.006-.012 0-.007.003-.013.006-.013s.006-.005.006-.01c0-.006.006-.015.012-.02.007-.005.012-.014.012-.02s.003-.01.006-.01c.004 0 .007-.006.007-.013 0-.007.002-.012.006-.012.003 0 .006-.006.006-.012 0-.007.003-.013.006-.013s.006-.005.006-.012.003-.012.006-.012c.004 0 .006-.006.006-.012 0-.007.003-.013.006-.013.004 0 .006-.005.006-.012s.003-.012.007-.012c.003 0 .006-.005.006-.01 0-.007.005-.016.012-.02.007-.005.012-.014.012-.02s.003-.011.006-.011c.004 0 .006-.006.006-.012 0-.007.003-.013.006-.013.004 0 .007-.005.007-.012s.002-.012.006-.012c.003 0 .006-.006.006-.012 0-.007.003-.013.006-.013s.006-.005.006-.012c0-.006.003-.012.006-.012.004 0 .006-.006.006-.012 0-.007.003-.013.006-.013.004 0 .007-.005.007-.012 0-.006.002-.012.006-.012.003 0 .006-.005.006-.012s.002-.012.006-.012c.003 0 .006-.006.006-.013 0-.006.003-.012.006-.012s.006-.005.006-.012.003-.012.006-.012c.004 0 .006-.006.006-.013 0-.006.003-.012.007-.012.003 0 .006-.005.006-.012s.002-.012.006-.012c.003 0 .006-.006.006-.012 0-.007.003-.013.006-.013s.006-.005.006-.012.003-.012.006-.012c.004 0 .006-.006.006-.012 0-.007.003-.013.007-.013.003 0 .006-.008.006-.018 0-.01.002-.018.006-.018.003 0 .006-.006.006-.012 0-.007.002-.013.006-.013.003 0 .006-.005.006-.012s.003-.012.006-.012.006-.006.006-.012c0-.007.003-.013.006-.013.004 0 .006-.005.006-.012s.003-.012.007-.012c.003 0 .006-.006.006-.012 0-.007.002-.013.006-.013.003 0 .006-.005.006-.012s.003-.012.006-.012.006-.008.006-.018c0-.01.003-.019.006-.019.004 0 .006-.005.006-.012s.003-.012.006-.012c.004 0 .007-.006.007-.012 0-.007.002-.013.006-.013.003 0 .006-.005.006-.012s.003-.012.006-.012.006-.006.006-.012c0-.007.003-.013.006-.013s.006-.008.006-.018c0-.01.003-.018.006-.018.004 0 .006-.006.006-.013 0-.006.003-.012.007-.012.003 0 .006-.005.006-.012s.002-.012.006-.012c.003 0 .006-.008.006-.019 0-.01.003-.018.006-.018s.006-.005.006-.012.003-.012.006-.012c.004 0 .006-.006.006-.013 0-.006.003-.012.006-.012.004 0 .007-.008.007-.018 0-.01.002-.018.006-.018.003 0 .006-.006.006-.013 0-.006.003-.012.006-.012s.006-.008.006-.018c0-.01.003-.019.006-.019s.006-.005.006-.012.003-.012.006-.012c.004 0 .006-.006.006-.012 0-.007.003-.013.007-.013.003 0 .006-.008.006-.018 0-.01.002-.018.006-.018.003 0 .006-.006.006-.012 0-.007.003-.013.006-.013s.006-.008.006-.018c0-.01.003-.018.006-.018.004 0 .006-.006.006-.013 0-.006.003-.012.006-.012.004 0 .007-.008.007-.018 0-.01.002-.019.006-.019.003 0 .006-.008.006-.018 0-.01.003-.018.006-.018s.006-.006.006-.012c0-.007.003-.013.006-.013s.006-.008.006-.018c0-.01.003-.018.006-.018.004 0 .006-.009.006-.019s.003-.018.007-.018c.003 0 .006-.006.006-.012 0-.007.003-.013.006-.013s.006-.008.006-.018c0-.01.003-.018.006-.018s.006-.008.006-.019c0-.01.003-.018.006-.018.004 0 .006-.008.006-.018 0-.01.003-.019.006-.019.004 0 .007-.008.007-.018 0-.01.002-.018.006-.018.003 0 .006-.006.006-.013 0-.006.003-.012.006-.012s.006-.008.006-.018c0-.01.003-.018.006-.018.004 0 .006-.009.006-.019s.003-.018.006-.018c.004 0 .006-.008.006-.018 0-.01.003-.019.007-.019.003 0 .006-.008.006-.018 0-.01.002-.019.006-.019.003 0 .006-.008.006-.018 0-.01.003-.018.006-.018s.006-.011.006-.025c0-.013.003-.024.006-.024.004 0 .006-.008.006-.018 0-.01.004-.019.008-.02.013-.005-.01-.023-.029-.023-.008 0-.015-.003-.015-.006 0-.004-.009-.007-.019-.007s-.018-.002-.018-.006c0-.003-.008-.006-.018-.006-.01 0-.019-.002-.019-.006 0-.003-.008-.006-.018-.006-.01 0-.018-.003-.018-.006s-.006-.006-.012-.006c-.007 0-.013-.003-.013-.006 0-.004-.008-.007-.018-.007-.01 0-.018-.002-.018-.006 0-.003-.009-.006-.019-.006s-.018-.003-.018-.006-.006-.006-.012-.006c-.007 0-.012-.003-.012-.006s-.006-.006-.013-.006c-.006 0-.012-.003-.012-.006 0-.004-.008-.006-.018-.006-.01 0-.019-.003-.019-.006 0-.004-.005-.007-.012-.007s-.012-.002-.012-.006c0-.003-.006-.006-.012-.006-.007 0-.012-.003-.012-.006s-.006-.006-.013-.006c-.007 0-.012-.003-.012-.006 0-.004-.006-.006-.012-.006-.007 0-.012-.003-.012-.006 0-.004-.006-.006-.013-.006-.006 0-.012-.003-.012-.007 0-.003-.005-.006-.012-.006S29 24.66 29 24.657s-.006-.006-.012-.006c-.007 0-.013-.003-.013-.006s-.005-.006-.012-.006-.012-.003-.012-.006c0-.004-.006-.006-.012-.006-.007 0-.013-.003-.013-.007 0-.003-.005-.006-.01-.006-.006 0-.015-.005-.02-.012-.005-.007-.014-.012-.02-.012s-.01-.003-.01-.006c0-.004-.006-.006-.013-.006-.007 0-.012-.003-.012-.006 0-.004-.005-.007-.011-.007-.006 0-.015-.005-.02-.012-.005-.007-.013-.012-.018-.012-.005 0-.014-.006-.019-.012a.025.025 0 00-.02-.012c-.005 0-.01-.003-.01-.007 0-.003-.005-.006-.01-.006a.025.025 0 01-.02-.012c-.005-.007-.014-.012-.019-.012-.005 0-.013-.006-.018-.012-.005-.007-.013-.013-.017-.013-.005 0-.017-.008-.026-.018-.01-.01-.02-.018-.026-.018-.004 0-.012-.006-.017-.013-.005-.006-.012-.012-.017-.012-.005 0-.016-.008-.026-.018-.009-.01-.02-.018-.024-.018s-.018-.012-.03-.025a.098.098 0 00-.031-.024c-.004 0-.018-.012-.03-.025a.113.113 0 00-.031-.024.251.251 0 01-.05-.043 3.385 3.385 0 01-.223-.21 3.384 3.384 0 01-.283-.31.14.14 0 01-.031-.037c0-.004-.011-.017-.024-.03a.106.106 0 01-.025-.03c0-.005-.008-.016-.018-.025-.01-.01-.018-.02-.018-.025 0-.004-.009-.015-.019-.024-.01-.01-.018-.02-.018-.025 0-.004-.009-.015-.018-.024-.01-.01-.019-.02-.019-.025 0-.004-.008-.015-.018-.024-.01-.01-.018-.02-.018-.024 0-.005-.009-.015-.019-.025-.01-.01-.018-.02-.018-.026 0-.004-.006-.012-.012-.017-.007-.005-.013-.013-.013-.018 0-.005-.005-.014-.012-.018-.007-.005-.012-.014-.012-.019 0-.005-.006-.013-.012-.018-.007-.005-.013-.013-.013-.019 0-.005-.005-.013-.012-.018-.006-.005-.012-.013-.012-.018 0-.005-.006-.014-.012-.018-.007-.005-.012-.014-.012-.019 0-.005-.006-.013-.013-.018-.006-.005-.012-.013-.012-.018 0-.006-.005-.014-.012-.019-.007-.005-.012-.014-.012-.02s-.003-.01-.006-.01c-.004 0-.007-.005-.007-.011 0-.006-.005-.015-.012-.02-.006-.005-.012-.014-.012-.02s-.003-.01-.006-.01-.006-.005-.006-.011c0-.006-.006-.015-.012-.02-.007-.005-.013-.014-.013-.02s-.002-.01-.006-.01c-.003 0-.006-.006-.006-.013 0-.007-.003-.012-.006-.012s-.006-.005-.006-.011c0-.006-.006-.015-.012-.02-.007-.005-.013-.014-.013-.02s-.002-.01-.006-.01c-.003 0-.006-.006-.006-.013 0-.006-.003-.012-.006-.012s-.006-.005-.006-.012-.003-.012-.006-.012-.006-.006-.006-.012c0-.007-.003-.013-.006-.013-.004 0-.006-.005-.006-.012s-.003-.012-.007-.012c-.003 0-.006-.006-.006-.013 0-.006-.002-.012-.006-.012-.003 0-.006-.005-.006-.012s-.003-.012-.006-.012-.006-.006-.006-.012c0-.007-.003-.013-.006-.013-.004 0-.006-.005-.006-.012s-.003-.012-.006-.012c-.004 0-.007-.006-.007-.012 0-.007-.002-.013-.006-.013-.003 0-.006-.005-.006-.012 0-.006-.003-.012-.006-.012s-.006-.005-.006-.012-.003-.012-.006-.012-.006-.006-.006-.013c0-.006-.003-.012-.006-.012-.004 0-.006-.005-.006-.012s-.003-.012-.007-.012c-.003 0-.006-.006-.006-.013 0-.006-.002-.012-.006-.012-.003 0-.006-.008-.006-.018 0-.01-.003-.018-.006-.018s-.006-.006-.006-.013c0-.006-.003-.012-.006-.012-.004 0-.006-.006-.006-.012 0-.007-.003-.012-.006-.012-.004 0-.007-.009-.007-.019s-.002-.018-.006-.018c-.003 0-.006-.006-.006-.012 0-.007-.003-.013-.006-.013s-.006-.008-.006-.018c0-.01-.003-.018-.006-.018s-.006-.006-.006-.012c0-.007-.003-.013-.006-.013-.004 0-.006-.008-.006-.018 0-.01-.003-.018-.007-.018-.003 0-.006-.006-.006-.013 0-.006-.003-.012-.006-.012s-.006-.008-.006-.018c0-.01-.003-.019-.006-.019s-.006-.008-.006-.018c0-.01-.003-.018-.006-.018-.004 0-.006-.009-.006-.019s-.003-.018-.006-.018c-.004 0-.007-.008-.007-.018 0-.01-.002-.019-.006-.019-.003 0-.006-.008-.006-.018 0-.01-.003-.018-.006-.018s-.006-.009-.006-.019-.003-.018-.006-.018c-.004 0-.006-.008-.006-.018 0-.01-.003-.019-.006-.019-.004 0-.006-.008-.006-.018 0-.01-.003-.018-.007-.018-.003 0-.006-.011-.006-.025 0-.013-.002-.024-.006-.024-.003 0-.006-.009-.006-.019s-.003-.018-.006-.018-.006-.011-.006-.024c0-.014-.003-.025-.006-.025-.004 0-.006-.011-.006-.024 0-.014-.003-.025-.006-.025-.004 0-.007-.01-.007-.024s-.002-.025-.006-.025c-.003 0-.006-.01-.006-.024s-.003-.025-.006-.025-.006-.014-.006-.03c0-.017-.003-.03-.006-.03-.004 0-.006-.012-.006-.025 0-.014-.003-.025-.006-.025-.004 0-.007-.014-.007-.03 0-.017-.002-.03-.006-.03-.003 0-.006-.017-.006-.038 0-.02-.002-.036-.006-.036-.003 0-.006-.017-.006-.037 0-.02-.003-.037-.006-.037s-.006-.018-.006-.043c0-.024-.003-.042-.006-.042-.004 0-.006-.019-.006-.043 0-.025-.003-.043-.007-.043-.003 0-.006-.022-.006-.055s-.002-.055-.006-.055c-.003 0-.006-.028-.006-.073s-.002-.074-.006-.074a.882.882 0 01-.006-.165.888.888 0 00-.006-.165c-.004 0-.006-.016-.006-.037 0-.02.002-.036.006-.036a.775.775 0 00.006-.153c0-.098.002-.153.006-.153s.006-.027.006-.067c0-.041.003-.068.006-.068.004 0 .006-.022.006-.055 0-.032.003-.055.006-.055.004 0 .007-.018.007-.043 0-.024.002-.042.006-.042.003 0 .006-.017.006-.037 0-.02.002-.037.006-.037.003 0 .006-.016.006-.036 0-.02.003-.037.006-.037.004 0 .006-.014.006-.03 0-.017.003-.031.006-.031.004 0 .006-.014.006-.03 0-.018.003-.031.007-.031.003 0 .006-.011.006-.025 0-.013.002-.024.006-.024.003 0 .006-.014.006-.03 0-.018.003-.031.006-.031s.006-.012.006-.025c0-.013.003-.024.006-.024.004 0 .006-.009.006-.019s.003-.018.007-.018c.003 0 .006-.011.006-.024 0-.014.002-.025.006-.025.003 0 .006-.011.006-.024 0-.014.003-.025.006-.025s.006-.008.006-.018c0-.01.003-.019.006-.019.004 0 .006-.008.006-.018 0-.01.003-.018.006-.018.004 0 .007-.008.007-.019 0-.01.002-.018.006-.018.003 0 .006-.008.006-.018 0-.01.002-.019.006-.019.003 0 .006-.008.006-.018 0-.01.003-.018.006-.018s.006-.009.006-.019.003-.018.006-.018c.004 0 .006-.008.006-.018 0-.01.003-.019.007-.019.003 0 .006-.008.006-.018 0-.01.002-.018.006-.018.003 0 .006-.006.006-.013 0-.006.003-.012.006-.012s.006-.008.006-.018c0-.01.003-.019.006-.019s.006-.008.006-.018c0-.01.003-.018.006-.018.004 0 .006-.006.006-.013 0-.006.003-.012.007-.012.003 0 .006-.005.006-.012s.003-.012.006-.012.006-.008.006-.018c0-.01.003-.019.006-.019s.006-.005.006-.012.003-.012.006-.012c.004 0 .006-.006.006-.013 0-.006.003-.012.006-.012.004 0 .007-.008.007-.018 0-.01.002-.018.006-.018.003 0 .006-.006.006-.013 0-.006.003-.012.006-.012s.006-.005.006-.012.003-.012.006-.012c.004 0 .006-.006.006-.013 0-.006.003-.012.006-.012.004 0 .006-.005.006-.012s.003-.012.007-.012c.003 0 .006-.006.006-.013 0-.006.003-.012.006-.012s.006-.005.006-.012.003-.012.006-.012.006-.006.006-.012c0-.007.003-.013.006-.013.004 0 .006-.005.006-.012s.003-.012.006-.012c.004 0 .007-.006.007-.012 0-.007.002-.013.006-.013.003 0 .006-.005.006-.012s.003-.012.006-.012.006-.006.006-.012c0-.007.003-.012.006-.012.004 0 .006-.006.006-.013 0-.006.003-.012.006-.012.004 0 .006-.005.006-.01 0-.007.006-.016.013-.02.007-.005.012-.014.012-.02s.003-.011.006-.011.006-.006.006-.012c0-.007.003-.013.006-.013.004 0 .006-.005.006-.01 0-.006.006-.015.013-.02.006-.005.012-.014.012-.02s.003-.01.006-.01.006-.006.006-.012.006-.015.012-.02c.007-.004.012-.013.012-.019s.003-.01.007-.01c.003 0 .006-.006.006-.012s.005-.015.012-.02c.007-.004.012-.013.012-.018 0-.005.006-.013.012-.018.007-.005.013-.013.013-.018 0-.006.005-.014.012-.019.007-.005.012-.013.012-.018 0-.006.006-.014.012-.019.007-.004.013-.013.013-.018 0-.005.005-.013.012-.018.006-.005.012-.013.012-.019 0-.005.005-.013.012-.018.007-.005.012-.013.012-.018 0-.006.006-.014.013-.019.006-.005.012-.012.012-.017 0-.005.008-.016.018-.025.01-.01.019-.02.019-.025 0-.004.008-.015.018-.024.01-.01.018-.02.018-.025 0-.004.008-.015.019-.024.01-.01.018-.02.018-.025 0-.004.01-.017.024-.03a.098.098 0 00.025-.03.14.14 0 01.03-.038.141.141 0 00.03-.036.19.19 0 01.038-.043.195.195 0 00.036-.043c0-.003.022-.028.05-.055a.335.335 0 00.048-.055c0-.008.542-.55.55-.55a.503.503 0 00.067-.061.492.492 0 01.068-.062.33.33 0 00.054-.049.325.325 0 01.056-.049.287.287 0 00.048-.042.266.266 0 01.05-.043.236.236 0 00.046-.04l.04-.04-.02-.018c-.01-.01-.018-.02-.018-.024a.139.139 0 00-.03-.037.14.14 0 01-.03-.037.192.192 0 00-.038-.043.196.196 0 01-.036-.042.322.322 0 00-.05-.055.324.324 0 01-.048-.055.682.682 0 00-.073-.08 3.773 3.773 0 00-.403-.404.587.587 0 00-.074-.067.196.196 0 01-.043-.037.195.195 0 00-.043-.036.192.192 0 01-.042-.037.195.195 0 00-.043-.037c-.004 0-.018-.01-.03-.024-.014-.014-.027-.024-.031-.024s-.015-.009-.025-.019c-.01-.01-.02-.018-.024-.018s-.018-.011-.03-.025a.112.112 0 00-.032-.024c-.005 0-.013-.006-.018-.012-.005-.007-.012-.012-.017-.012-.004 0-.016-.009-.025-.019-.01-.01-.021-.018-.026-.018-.005 0-.012-.006-.017-.013-.005-.006-.013-.012-.018-.012-.006 0-.014-.005-.019-.012-.005-.007-.013-.012-.018-.012-.005 0-.014-.006-.018-.012-.005-.007-.014-.013-.019-.013-.005 0-.013-.005-.018-.012-.005-.007-.013-.012-.019-.012-.005 0-.013-.006-.018-.012-.005-.007-.013-.012-.018-.012-.006 0-.014-.006-.019-.013-.004-.006-.013-.012-.02-.012-.005 0-.01-.003-.01-.006 0-.004-.005-.006-.011-.006-.006 0-.015-.006-.02-.012-.005-.007-.013-.013-.02-.013-.005 0-.01-.002-.01-.006 0-.003-.005-.006-.011-.006-.006 0-.015-.005-.02-.012-.005-.007-.014-.012-.02-.012-.005 0-.01-.003-.01-.007 0-.003-.006-.006-.013-.006-.006 0-.012-.002-.012-.006 0-.003-.005-.006-.012-.006s-.012-.003-.012-.006-.005-.006-.011-.006c-.006 0-.015-.006-.02-.012-.005-.007-.014-.013-.02-.013s-.01-.002-.01-.006c0-.003-.006-.006-.013-.006-.006 0-.012-.002-.012-.006 0-.003-.005-.006-.012-.006s-.012-.003-.012-.006-.006-.006-.012-.006c-.007 0-.013-.003-.013-.006 0-.004-.005-.007-.012-.007s-.012-.002-.012-.006c0-.003-.006-.006-.012-.006-.007 0-.013-.002-.013-.006 0-.003-.005-.006-.012-.006s-.012-.003-.012-.006-.006-.006-.012-.006c-.007 0-.012-.003-.012-.006 0-.004-.006-.006-.013-.006-.006 0-.012-.003-.012-.006 0-.004-.005-.007-.012-.007s-.012-.002-.012-.006c0-.003-.009-.006-.019-.006s-.018-.003-.018-.006-.006-.006-.012-.006c-.007 0-.012-.003-.012-.006 0-.004-.006-.006-.013-.006-.006 0-.012-.003-.012-.006 0-.004-.005-.006-.012-.006s-.012-.003-.012-.007c0-.003-.009-.006-.019-.006s-.018-.002-.018-.006c0-.003-.006-.006-.012-.006-.007 0-.013-.003-.013-.006 0-.004-.008-.006-.018-.006-.01 0-.018-.003-.018-.006 0-.004-.006-.006-.012-.006-.007 0-.013-.003-.013-.007 0-.003-.008-.006-.018-.006-.01 0-.018-.002-.018-.006 0-.003-.006-.006-.013-.006-.006 0-.012-.003-.012-.006s-.008-.006-.018-.006c-.01 0-.018-.003-.018-.006 0-.004-.009-.006-.019-.006s-.018-.003-.018-.007c0-.003-.008-.006-.018-.006-.01 0-.019-.002-.019-.006 0-.003-.008-.006-.018-.006-.01 0-.018-.003-.018-.006s-.009-.006-.019-.006-.018-.003-.018-.006-.008-.006-.018-.006c-.01 0-.019-.003-.019-.006 0-.004-.008-.007-.018-.007-.01 0-.018-.002-.018-.006 0-.003-.009-.006-.019-.006s-.018-.003-.018-.006-.011-.006-.024-.006c-.014 0-.025-.003-.025-.006 0-.004-.008-.006-.018-.006-.01 0-.019-.003-.019-.006 0-.004-.01-.006-.024-.006s-.024-.003-.024-.007c0-.003-.012-.006-.025-.006-.013 0-.024-.002-.024-.006 0-.003-.011-.006-.025-.006-.013 0-.024-.003-.024-.006s-.011-.006-.025-.006c-.013 0-.024-.003-.024-.006 0-.004-.014-.006-.03-.006-.018 0-.031-.003-.031-.006 0-.004-.014-.007-.03-.007-.018 0-.031-.002-.031-.006 0-.003-.014-.006-.031-.006s-.03-.003-.03-.006-.017-.006-.037-.006c-.02 0-.037-.003-.037-.006 0-.004-.016-.006-.037-.006-.02 0-.036-.003-.036-.006 0-.004-.019-.007-.043-.007-.024 0-.043-.002-.043-.006 0-.003-.02-.006-.049-.006-.028 0-.049-.002-.049-.006 0-.003-.024-.006-.06-.006-.037 0-.062-.002-.062-.006s-.032-.006-.085-.006a.295.295 0 01-.086-.006 2.31 2.31 0 00-.269-.006c-.175 0-.269.002-.269.006z" clip-rule="evenodd"/></g><defs><linearGradient id="b" x1="21" x2="21" y1="0" y2="61.409" gradientUnits="userSpaceOnUse"><stop stop-color="#08021E"/><stop offset="1" stop-color="#1F0777"/></linearGradient><clipPath id="a"><path fill="#fff" d="M0 0h42v42H0z"/></clipPath></defs></svg>