<svg xmlns="http://www.w3.org/2000/svg" width="42" height="42" fill="none"><g clip-path="url(#a)"><mask id="c" width="42" height="42" x="0" y="0" maskUnits="userSpaceOnUse" style="mask-type:alpha"><circle cx="21" cy="21" r="21" fill="url(#b)"/></mask><g mask="url(#c)"><circle cx="21" cy="21" r="21" fill="#34EDB3"/><circle cx="21" cy="21" r="18.2" fill="#fff"/></g><circle cx="21" cy="21" r="16.1" fill="#06061B"/><path fill="url(#d)" d="M21 37.1c8.892 0 16.1-7.208 16.1-16.1 0-8.892-7.208-16.1-16.1-16.1-8.892 0-16.1 7.208-16.1 16.1 0 8.892 7.208 16.1 16.1 16.1Z"/><path fill="#fff" d="m28.017 27.35-5.414-13.072c-.306-.675-.759-1.006-1.357-1.006h-.48c-.598 0-1.05.331-1.356 1.006l-2.354 5.696h-1.783a.975.975 0 0 0-.971.966v.014a.974.974 0 0 0 .97.967h.958l-2.248 5.43c-.042.119-.064.244-.066.37 0 .305.093.544.266.729.173.185.412.278.718.278a.974.974 0 0 0 .559-.186 1.18 1.18 0 0 0 .386-.49l2.474-6.132h1.716a.975.975 0 0 0 .971-.967v-.026a.974.974 0 0 0-.97-.967h-.919l1.89-4.701 5.147 12.793c.093.2.213.371.386.49a.974.974 0 0 0 .559.186c.306 0 .545-.093.718-.278.173-.186.266-.424.266-.729a.875.875 0 0 0-.066-.37Z"/></g><defs><linearGradient id="b" x1="21" x2="21" y1="0" y2="61.409" gradientUnits="userSpaceOnUse"><stop stop-color="#08021E"/><stop offset="1" stop-color="#1F0777"/></linearGradient><linearGradient id="d" x1="34.105" x2="10.149" y1="12.209" y2="32.367" gradientUnits="userSpaceOnUse"><stop stop-color="#B6509E"/><stop offset="1" stop-color="#2EBAC6"/></linearGradient><clipPath id="a"><path fill="#fff" d="M0 0h42v42H0z"/></clipPath></defs></svg>