<svg width="480" height="480" viewBox="0 0 480 480" fill="none" xmlns="http://www.w3.org/2000/svg"><mask id="mask0-734212" maskUnits="userSpaceOnUse" x="0" y="0" width="480" height="480"><circle cx="240" cy="240" r="240" fill="url(#paint0_linear-363734)"/></mask><g mask="url(#mask0-734212)"><circle cx="240" cy="240" r="240" fill="#31D8A4"/><circle cx="240" cy="240" r="208" fill="#fff"/></g><circle cx="240" cy="240" r="184" fill="#0E052F"/><path d="M240 424c101.62 0 184-82.38 184-184S341.62 56 240 56 56 138.38 56 240s82.38 184 184 184z" fill="url(#paint1_linear-034607)"/><path d="M320.191 312.578l-61.876-149.395c-3.496-7.719-8.665-11.503-15.507-11.503h-5.472c-6.842 0-12.011 3.784-15.508 11.503l-26.907 65.088h-20.374a11.15 11.15 0 00-7.822 3.246 11.128 11.128 0 00-3.276 7.803v.151a11.125 11.125 0 003.276 7.803 11.146 11.146 0 007.822 3.247h10.944L159.8 312.578a13.065 13.065 0 00-.76 4.239c0 3.481 1.064 6.206 3.041 8.325 1.976 2.119 4.712 3.177 8.209 3.177a11.127 11.127 0 006.384-2.119c1.977-1.363 3.345-3.33 4.409-5.601l28.278-70.08h19.612a11.147 11.147 0 007.821-3.247 11.127 11.127 0 003.277-7.803v-.303a11.13 11.13 0 00-3.277-7.803 11.141 11.141 0 00-7.821-3.246h-10.489l21.588-53.733L298.907 320.6c1.065 2.27 2.433 4.239 4.409 5.6a11.127 11.127 0 006.386 2.12c3.497 0 6.233-1.06 8.21-3.179 1.976-2.12 3.04-4.844 3.04-8.325a9.99 9.99 0 00-.761-4.238z" fill="#fff"/><defs><linearGradient id="paint0_linear-363734" x1="240" y1="0" x2="240" y2="701.818" gradientUnits="userSpaceOnUse"><stop stop-color="#08021E"/><stop offset="1" stop-color="#1F0777"/></linearGradient><linearGradient id="paint1_linear-034607" x1="389.776" y1="139.536" x2="115.984" y2="369.904" gradientUnits="userSpaceOnUse"><stop stop-color="#B6509E"/><stop offset="1" stop-color="#2EBAC6"/></linearGradient></defs></svg>