<svg xmlns="http://www.w3.org/2000/svg" width="42" height="42" fill="none"><g clip-path="url(#a)"><mask id="c" width="42" height="42" x="0" y="0" maskUnits="userSpaceOnUse" style="mask-type:alpha"><circle cx="21" cy="21" r="21" fill="url(#b)"/></mask><g mask="url(#c)"><circle cx="21" cy="21" r="21" fill="#34EDB3"/><circle cx="21" cy="21" r="18.2" fill="#fff"/></g><circle cx="21" cy="21" r="16.1" fill="#06061B"/><g clip-path="url(#d)"><path fill="#0D1E30" d="M21 37.1c8.892 0 16.1-7.208 16.1-16.1 0-8.892-7.208-16.1-16.1-16.1-8.892 0-16.1 7.208-16.1 16.1 0 8.892 7.208 16.1 16.1 16.1Z"/><g filter="url(#e)"><path fill="#000" d="M20.723 10.998c.482-.248 1.07.326.815.8-.15.386-.715.49-1.002.194-.305-.282-.206-.841.187-.995v.001Zm-5.187.55c.293-.12.664.144.634.46.03.34-.393.591-.692.429-.395-.15-.35-.783.058-.89Zm10.624.898c-.458-.054-.53-.763-.09-.906.341-.163.655.144.706.463-.073.272-.304.521-.616.443Zm-9.444 1.273c.49-.305 1.188.149 1.113.71-.025.564-.788.892-1.219.51-.416-.3-.353-.989.106-1.22Zm7.476.324c.219-.553 1.104-.572 1.353-.032.246.42-.057.94-.494 1.083-.58.106-1.131-.512-.859-1.051Zm-4.094 1.02c-.005-.478.436-.832.896-.865.305.06.637.188.768.491.245.419.027.993-.412 1.185-.202.111-.441.07-.66.057-.335-.161-.618-.48-.592-.869Zm-7.714.694c.448-.272 1.052.221.881.7-.092.413-.658.582-.98.318-.346-.248-.291-.842.1-1.02v.002Zm16.565-.002c.38-.29 1.006.043.96.514.026.43-.516.755-.893.533-.414-.184-.457-.812-.067-1.046v-.001Zm-6.682.856c.626-.221 1.371.043 1.727.594.471.67.222 1.693-.51 2.079-.757.455-1.863.07-2.143-.763-.317-.745.146-1.677.925-1.91h.002Zm-3.675.073c.694-.322 1.629-.052 1.964.646.394.68.09 1.628-.616 1.979-.706.395-1.704.095-2.045-.634-.383-.707-.043-1.666.697-1.99Zm-3.68 1.237c.053-.44.475-.726.9-.757a.986.986 0 0 1 .876.863c-.03.453-.386.893-.873.891-.536.046-1.006-.48-.903-.997Zm10.87-.66c.55-.315 1.313.143 1.29.765.037.659-.809 1.123-1.356.736-.57-.322-.525-1.227.065-1.501Zm-8.685 2.321c.642-.174 1.379.124 1.694.706a1.457 1.457 0 0 1-.332 1.83c-.69.629-1.958.376-2.325-.484-.421-.788.09-1.844.962-2.053l.001.001Zm6.97-.003c.625-.176 1.36.06 1.696.621.445.641.233 1.598-.429 2.01-.694.48-1.767.23-2.149-.521-.463-.776.003-1.873.883-2.11Zm-11.108.73c.555-.205 1.17.397.946.94-.137.493-.845.676-1.21.312-.428-.343-.27-1.102.264-1.251Zm15.062.788a.841.841 0 0 1 .793-.88c.38.06.75.363.72.77.036.539-.623.904-1.09.651-.218-.11-.33-.33-.423-.541Zm-17.794-.52c.334-.143.747.141.67.507-.017.413-.638.573-.866.227-.2-.24-.08-.61.196-.734Zm21.08-.009c.235-.164.613-.046.706.225.158.296-.132.7-.47.65-.475.043-.628-.668-.236-.875Zm-12.394 1.986c.88-.225 1.825.497 1.831 1.389.056.9-.875 1.698-1.775 1.49-.696-.11-1.243-.77-1.22-1.461-.002-.663.506-1.278 1.164-1.418Zm3.483-.001c.893-.246 1.867.489 1.853 1.4.047.884-.856 1.656-1.737 1.48-.83-.105-1.442-1.002-1.21-1.794.116-.528.565-.956 1.094-1.087Zm-6.718.548c.618-.103 1.198.574.947 1.151-.183.616-1.092.782-1.495.28-.47-.483-.119-1.364.548-1.43Zm10.218.027c.551-.227 1.228.242 1.185.83.023.648-.813 1.094-1.351.716-.61-.34-.5-1.338.166-1.546Zm2.856 2.818c-.216-.396.176-.92.624-.846.221-.004.377.168.519.313.029.234.078.514-.12.694-.269.335-.877.24-1.023-.161Zm-16.37-.737c.418-.272 1.018.135.924.614-.05.426-.594.668-.951.427-.385-.219-.37-.841.027-1.04Zm8.244.889c.547-.237 1.243.231 1.19.823.04.654-.82 1.107-1.354.714-.593-.337-.494-1.329.164-1.537Zm-3.818.876c.465-.24 1.09.175 1.047.689.014.42-.402.778-.825.716-.35-.007-.577-.316-.69-.609.007-.319.14-.674.468-.795Zm7.735.008c.479-.291 1.159.127 1.114.675.012.573-.757.94-1.203.563-.43-.295-.378-1.003.089-1.238Zm1.345 3.27c-.213-.315.037-.697.382-.77.279.056.574.262.515.579-.04.43-.679.56-.897.193v-.001Zm-10.677-.274c.084-.252.29-.5.59-.435.438.03.568.68.184.88-.344.23-.744-.084-.774-.445Zm5.152.289c.083-.373.571-.553.893-.355.213.09.276.324.33.523a9.085 9.085 0 0 0-.08.312c-.132.153-.302.307-.521.302-.408.047-.776-.407-.623-.782Z"/></g><path fill="#fff" d="M20.723 10.998c.482-.248 1.07.326.815.8-.15.386-.715.49-1.002.194-.305-.282-.206-.841.187-.995v.001Zm-5.187.55c.293-.12.664.144.634.46.03.34-.393.591-.692.429-.395-.15-.35-.783.058-.89Zm10.624.898c-.458-.054-.53-.763-.09-.906.341-.163.655.144.706.463-.073.272-.304.521-.616.443Zm-9.444 1.273c.49-.305 1.188.149 1.113.71-.025.564-.788.892-1.219.51-.416-.3-.353-.989.106-1.22Zm7.476.324c.219-.553 1.104-.572 1.353-.032.246.42-.057.94-.494 1.083-.58.106-1.131-.512-.859-1.051Zm-4.094 1.02c-.005-.478.436-.832.896-.865.305.06.637.188.768.491.245.419.027.993-.412 1.185-.202.111-.441.07-.66.057-.335-.161-.618-.48-.592-.869Zm-7.714.694c.448-.272 1.052.221.881.7-.092.413-.658.582-.98.318-.346-.248-.291-.842.1-1.02v.002Zm16.565-.002c.38-.29 1.006.043.96.514.026.43-.516.755-.893.533-.414-.184-.457-.812-.067-1.046v-.001Zm-6.682.856c.626-.221 1.371.043 1.727.594.471.67.222 1.693-.51 2.079-.757.455-1.863.07-2.143-.763-.317-.745.146-1.677.925-1.91h.002Zm-3.675.073c.694-.322 1.629-.052 1.964.646.394.68.09 1.628-.616 1.979-.706.395-1.704.095-2.045-.634-.383-.707-.043-1.666.697-1.99Zm-3.68 1.237c.053-.44.475-.726.9-.757a.986.986 0 0 1 .876.863c-.03.453-.386.893-.873.891-.536.046-1.006-.48-.903-.997Zm10.87-.66c.55-.315 1.313.143 1.29.765.037.659-.809 1.123-1.356.736-.57-.322-.525-1.227.065-1.501Zm-8.685 2.321c.642-.174 1.379.124 1.694.706a1.457 1.457 0 0 1-.332 1.83c-.69.629-1.958.376-2.325-.484-.421-.788.09-1.844.962-2.053l.001.001Zm6.97-.003c.625-.176 1.36.06 1.696.621.445.641.233 1.598-.429 2.01-.694.48-1.767.23-2.149-.521-.463-.776.003-1.873.883-2.11Zm-11.108.73c.555-.205 1.17.397.946.94-.137.493-.845.676-1.21.312-.428-.343-.27-1.102.264-1.251Zm15.062.788a.841.841 0 0 1 .793-.88c.38.06.75.363.72.77.036.539-.623.904-1.09.651-.218-.11-.33-.33-.423-.541Zm-17.794-.52c.334-.143.747.141.67.507-.017.413-.638.573-.866.227-.2-.24-.08-.61.196-.734Zm21.08-.009c.235-.164.613-.046.706.225.158.296-.132.7-.47.65-.475.043-.628-.668-.236-.875Zm-12.394 1.986c.88-.225 1.825.497 1.831 1.389.056.9-.875 1.698-1.775 1.49-.696-.11-1.243-.77-1.22-1.461-.002-.663.506-1.278 1.164-1.418Zm3.483-.001c.893-.246 1.867.489 1.853 1.4.047.884-.856 1.656-1.737 1.48-.83-.105-1.442-1.002-1.21-1.794.116-.528.565-.956 1.094-1.087Zm-6.718.548c.618-.103 1.198.574.947 1.151-.183.616-1.092.782-1.495.28-.47-.483-.119-1.364.548-1.43Zm10.218.027c.551-.227 1.228.242 1.185.83.023.648-.813 1.094-1.351.716-.61-.34-.5-1.338.166-1.546Zm2.856 2.818c-.216-.396.176-.92.624-.846.221-.004.377.168.519.313.029.234.078.514-.12.694-.269.335-.877.24-1.023-.161Zm-16.37-.737c.418-.272 1.018.135.924.614-.05.426-.594.668-.951.427-.385-.219-.37-.841.027-1.04Zm8.244.889c.547-.237 1.243.231 1.19.823.04.654-.82 1.107-1.354.714-.593-.337-.494-1.329.164-1.537Zm-3.818.876c.465-.24 1.09.175 1.047.689.014.42-.402.778-.825.716-.35-.007-.577-.316-.69-.609.007-.319.14-.674.468-.795Zm7.735.008c.479-.291 1.159.127 1.114.675.012.573-.757.94-1.203.563-.43-.295-.378-1.003.089-1.238Zm1.345 3.27c-.213-.315.037-.697.382-.77.279.056.574.262.515.579-.04.43-.679.56-.897.193v-.001Zm-10.677-.274c.084-.252.29-.5.59-.435.438.03.568.68.184.88-.344.23-.744-.084-.774-.445Zm5.152.289c.083-.373.571-.553.893-.355.213.09.276.324.33.523a9.085 9.085 0 0 0-.08.312c-.132.153-.302.307-.521.302-.408.047-.776-.407-.623-.782Z"/></g></g><defs><clipPath id="a"><path fill="#fff" d="M0 0h42v42H0z"/></clipPath><clipPath id="d"><path fill="#fff" d="M4.9 4.9h32.2v32.2H4.9z"/></clipPath><linearGradient id="b" x1="21" x2="21" y1="0" y2="61.409" gradientUnits="userSpaceOnUse"><stop stop-color="#08021E"/><stop offset="1" stop-color="#1F0777"/></linearGradient><filter id="e" width="22.418" height="20.406" x="9.785" y="10.865" color-interpolation-filters="sRGB" filterUnits="userSpaceOnUse"><feFlood flood-opacity="0" result="BackgroundImageFix"/><feColorMatrix in="SourceAlpha" result="hardAlpha" values="0 0 0 0 0 0 0 0 0 0 0 0 0 0 0 0 0 0 127 0"/><feOffset dy=".073"/><feGaussianBlur stdDeviation=".073"/><feColorMatrix values="0 0 0 0 0 0 0 0 0 0 0 0 0 0 0 0 0 0 0.204257 0"/><feBlend in2="BackgroundImageFix" result="effect1_dropShadow_7277_57979"/><feBlend in="SourceGraphic" in2="effect1_dropShadow_7277_57979" result="shape"/></filter></defs></svg>