<svg width="480" height="480" viewBox="0 0 480 480" fill="none" xmlns="http://www.w3.org/2000/svg"><mask id="mask0-079393" maskUnits="userSpaceOnUse" x="0" y="0" width="480" height="480"><circle cx="240" cy="240" r="240" fill="url(#paint0_linear-892426)"/></mask><g mask="url(#mask0-079393)"><circle cx="240" cy="240" r="240" fill="#31D8A4"/><circle cx="240" cy="240" r="208" fill="#fff"/></g><circle cx="240" cy="240" r="184" fill="#0E052F"/><path d="M240 424c101.62 0 184-82.38 184-184S341.62 56 240 56 56 138.38 56 240s82.38 184 184 184z" fill="#0D1E30"/><g filter="url(#filter0_d-573531)"><path d="M236.833 125.692c5.508-2.84 12.236 3.726 9.315 9.143-1.714 4.416-8.165 5.589-11.454 2.219-3.485-3.22-2.346-9.614 2.139-11.373v.011zm-59.283 6.279c3.347-1.357 7.59 1.656 7.245 5.256.345 3.887-4.485 6.762-7.9 4.91-4.52-1.725-4.002-8.947.655-10.166zm121.417 10.27c-5.232-.621-6.06-8.717-1.035-10.35 3.91-1.863 7.498 1.644 8.073 5.29-.828 3.105-3.473 5.957-7.038 5.06zM191.04 156.788c5.6-3.484 13.581 1.702 12.719 8.108-.288 6.451-9.005 10.2-13.927 5.83-4.761-3.427-4.036-11.293 1.208-13.938zm85.445 3.703c2.495-6.325 12.615-6.532 15.456-.368 2.817 4.796-.644 10.741-5.647 12.374-6.635 1.219-12.926-5.842-9.809-12.006zm-46.794 11.65c-.057-5.451 4.98-9.499 10.235-9.879 3.496.69 7.291 2.151 8.786 5.612 2.795 4.784.311 11.351-4.715 13.547-2.3 1.265-5.037.794-7.544.644-3.829-1.84-7.061-5.485-6.762-9.924zm-88.159 7.935c5.118-3.105 12.018 2.53 10.074 8.004-1.058 4.726-7.521 6.647-11.212 3.634-3.945-2.829-3.324-9.626 1.15-11.65l-.012.012zm189.313-.023c4.336-3.312 11.5.494 10.971 5.876.299 4.911-5.899 8.625-10.2 6.095-4.738-2.104-5.233-9.28-.771-11.96v-.011zm-76.36 9.786c7.153-2.53 15.663.495 19.734 6.785 5.382 7.671 2.53 19.355-5.83 23.759-8.648 5.21-21.287.805-24.495-8.717-3.623-8.51 1.667-19.159 10.58-21.827h.011zm-42.009.84c7.935-3.68 18.618-.598 22.448 7.383 4.508 7.774 1.023 18.595-7.038 22.609-8.073 4.519-19.47 1.092-23.368-7.245-4.382-8.073-.495-19.033 7.958-22.747zm-42.056 14.133c.61-5.025 5.428-8.303 10.293-8.648a11.27 11.27 0 0110.005 9.856c-.345 5.175-4.405 10.212-9.971 10.189-6.129.517-11.5-5.486-10.327-11.397zm124.223-7.544c6.291-3.599 15.019 1.633 14.743 8.74.426 7.533-9.234 12.834-15.49 8.418-6.509-3.68-6.003-14.03.747-17.158zm-99.245 26.531c7.337-1.99 15.755 1.414 19.355 8.061 3.944 6.693 2.334 15.985-3.795 20.907-7.878 7.199-22.379 4.301-26.565-5.52-4.819-9.004 1.035-21.079 10.994-23.46l.011.012zm79.661-.035c7.141-2.012 15.536.69 19.377 7.096 5.083 7.325 2.657 18.262-4.899 22.977-7.935 5.485-20.194 2.61-24.564-5.969-5.29-8.866.035-21.401 10.086-24.104zm-126.96 8.349c6.348-2.357 13.386 4.531 10.81 10.73-1.564 5.635-9.649 7.728-13.823 3.565-4.888-3.91-3.082-12.593 3.013-14.295zm172.143 8.993a9.616 9.616 0 019.062-10.051c4.347.69 8.579 4.14 8.234 8.798.403 6.152-7.13 10.327-12.466 7.44-2.495-1.253-3.772-3.772-4.83-6.187zm-203.366-5.934c3.818-1.644 8.545 1.61 7.671 5.785-.207 4.726-7.303 6.555-9.902 2.599-2.3-2.749-.92-6.969 2.231-8.395v.011zm240.914-.103c2.691-1.875 7.015-.529 8.073 2.564 1.805 3.381-1.507 8.004-5.371 7.441-5.428.483-7.176-7.648-2.702-10.005zm-141.646 22.689c10.051-2.564 20.861 5.681 20.93 15.87.644 10.293-10.005 19.412-20.286 17.043-7.958-1.265-14.202-8.809-13.938-16.709-.023-7.567 5.773-14.605 13.294-16.204zm39.813-.011c10.201-2.806 21.333 5.589 21.172 16.008.54 10.097-9.775 18.917-19.849 16.905-9.488-1.196-16.48-11.443-13.835-20.505 1.334-6.026 6.463-10.925 12.512-12.42v.012zm-76.774 6.267c7.061-1.184 13.685 6.555 10.822 13.156-2.093 7.038-12.489 8.936-17.089 3.197-5.382-5.52-1.357-15.594 6.267-16.353zm116.771.311c6.302-2.599 14.03 2.76 13.547 9.487.253 7.395-9.292 12.501-15.444 8.177-6.981-3.876-5.704-15.295 1.897-17.664zm32.637 32.2c-2.461-4.52 2.013-10.511 7.13-9.672 2.53-.046 4.313 1.921 5.934 3.577.334 2.679.897 5.876-1.368 7.935-3.071 3.829-10.028 2.737-11.696-1.84zm-187.082-8.418c4.773-3.117 11.638 1.541 10.557 7.015-.575 4.864-6.785 7.636-10.867 4.876-4.393-2.496-4.232-9.614.31-11.891zm94.22 10.154c6.244-2.702 14.202 2.645 13.604 9.407.46 7.475-9.372 12.65-15.479 8.165-6.785-3.852-5.646-15.191 1.875-17.572zm-43.631 10.017c5.313-2.749 12.443 2.001 11.96 7.866.161 4.807-4.6 8.901-9.43 8.188-3.991-.081-6.59-3.611-7.878-6.958.069-3.645 1.599-7.705 5.348-9.085v-.011zm88.389.092c5.474-3.335 13.248 1.449 12.73 7.705.138 6.555-8.648 10.741-13.742 6.44-4.922-3.37-4.324-11.466 1.012-14.145zm15.375 37.375c-2.438-3.611.426-7.97 4.37-8.798 3.186.633 6.555 2.99 5.877 6.601-.46 4.911-7.751 6.406-10.247 2.208v-.011zm-122.026-3.14c.966-2.875 3.312-5.715 6.75-4.968 5.003.345 6.486 7.774 2.105 10.063-3.933 2.61-8.51-.966-8.855-5.095zm58.88 3.301c.954-4.255 6.532-6.314 10.212-4.06 2.438 1.035 3.151 3.703 3.772 5.98a101.813 101.813 0 00-.92 3.565c-1.507 1.748-3.45 3.508-5.957 3.45-4.658.541-8.867-4.646-7.119-8.935h.012z" fill="#000"/></g><path d="M236.833 125.692c5.508-2.84 12.236 3.726 9.315 9.143-1.714 4.416-8.165 5.589-11.454 2.219-3.485-3.22-2.346-9.614 2.139-11.373v.011zm-59.283 6.279c3.347-1.357 7.59 1.656 7.245 5.256.345 3.887-4.485 6.762-7.9 4.91-4.52-1.725-4.002-8.947.655-10.166zm121.417 10.27c-5.232-.621-6.06-8.717-1.035-10.35 3.91-1.863 7.498 1.644 8.073 5.29-.828 3.105-3.473 5.957-7.038 5.06zM191.04 156.788c5.6-3.484 13.581 1.702 12.719 8.108-.288 6.451-9.005 10.2-13.927 5.83-4.761-3.427-4.036-11.293 1.208-13.938zm85.445 3.703c2.495-6.325 12.615-6.532 15.456-.368 2.817 4.796-.644 10.741-5.647 12.374-6.635 1.219-12.926-5.842-9.809-12.006zm-46.794 11.65c-.057-5.451 4.98-9.499 10.235-9.879 3.496.69 7.291 2.151 8.786 5.612 2.795 4.784.311 11.351-4.715 13.547-2.3 1.265-5.037.794-7.544.644-3.829-1.84-7.061-5.485-6.762-9.924zm-88.159 7.935c5.118-3.105 12.018 2.53 10.074 8.004-1.058 4.726-7.521 6.647-11.212 3.634-3.945-2.829-3.324-9.626 1.15-11.65l-.012.012zm189.313-.023c4.336-3.312 11.5.494 10.971 5.876.299 4.911-5.899 8.625-10.2 6.095-4.738-2.104-5.233-9.28-.771-11.96v-.011zm-76.36 9.786c7.153-2.53 15.663.495 19.734 6.785 5.382 7.671 2.53 19.355-5.83 23.759-8.648 5.21-21.287.805-24.495-8.717-3.623-8.51 1.667-19.159 10.58-21.827h.011zm-42.009.84c7.935-3.68 18.618-.598 22.448 7.383 4.508 7.774 1.023 18.595-7.038 22.609-8.073 4.519-19.47 1.092-23.368-7.245-4.382-8.073-.495-19.033 7.958-22.747zm-42.056 14.133c.61-5.025 5.428-8.303 10.293-8.648a11.27 11.27 0 0110.005 9.856c-.345 5.175-4.405 10.212-9.971 10.189-6.129.517-11.5-5.486-10.327-11.397zm124.223-7.544c6.291-3.599 15.019 1.633 14.743 8.74.426 7.533-9.234 12.834-15.49 8.418-6.509-3.68-6.003-14.03.747-17.158zm-99.245 26.531c7.337-1.99 15.755 1.414 19.355 8.061 3.944 6.693 2.334 15.985-3.795 20.907-7.878 7.199-22.379 4.301-26.565-5.52-4.819-9.004 1.035-21.079 10.994-23.46l.011.012zm79.661-.035c7.141-2.012 15.536.69 19.377 7.096 5.083 7.325 2.657 18.262-4.899 22.977-7.935 5.485-20.194 2.61-24.564-5.969-5.29-8.866.035-21.401 10.086-24.104zm-126.96 8.349c6.348-2.357 13.386 4.531 10.81 10.73-1.564 5.635-9.649 7.728-13.823 3.565-4.888-3.91-3.082-12.593 3.013-14.295zm172.143 8.993a9.616 9.616 0 019.062-10.051c4.347.69 8.579 4.14 8.234 8.798.403 6.152-7.13 10.327-12.466 7.44-2.495-1.253-3.772-3.772-4.83-6.187zm-203.366-5.934c3.818-1.644 8.545 1.61 7.671 5.785-.207 4.726-7.303 6.555-9.902 2.599-2.3-2.749-.92-6.969 2.231-8.395v.011zm240.914-.103c2.691-1.875 7.015-.529 8.073 2.564 1.805 3.381-1.507 8.004-5.371 7.441-5.428.483-7.176-7.648-2.702-10.005zm-141.646 22.689c10.051-2.564 20.861 5.681 20.93 15.87.644 10.293-10.005 19.412-20.286 17.043-7.958-1.265-14.202-8.809-13.938-16.709-.023-7.567 5.773-14.605 13.294-16.204zm39.813-.011c10.201-2.806 21.333 5.589 21.172 16.008.54 10.097-9.775 18.917-19.849 16.905-9.488-1.196-16.48-11.443-13.835-20.505 1.334-6.026 6.463-10.925 12.512-12.42v.012zm-76.774 6.267c7.061-1.184 13.685 6.555 10.822 13.156-2.093 7.038-12.489 8.936-17.089 3.197-5.382-5.52-1.357-15.594 6.267-16.353zm116.771.311c6.302-2.599 14.03 2.76 13.547 9.487.253 7.395-9.292 12.501-15.444 8.177-6.981-3.876-5.704-15.295 1.897-17.664zm32.637 32.2c-2.461-4.52 2.013-10.511 7.13-9.672 2.53-.046 4.313 1.921 5.934 3.577.334 2.679.897 5.876-1.368 7.935-3.071 3.829-10.028 2.737-11.696-1.84zm-187.082-8.418c4.773-3.117 11.638 1.541 10.557 7.015-.575 4.864-6.785 7.636-10.867 4.876-4.393-2.496-4.232-9.614.31-11.891zm94.22 10.154c6.244-2.702 14.202 2.645 13.604 9.407.46 7.475-9.372 12.65-15.479 8.165-6.785-3.852-5.646-15.191 1.875-17.572zm-43.631 10.017c5.313-2.749 12.443 2.001 11.96 7.866.161 4.807-4.6 8.901-9.43 8.188-3.991-.081-6.59-3.611-7.878-6.958.069-3.645 1.599-7.705 5.348-9.085v-.011zm88.389.092c5.474-3.335 13.248 1.449 12.73 7.705.138 6.555-8.648 10.741-13.742 6.44-4.922-3.37-4.324-11.466 1.012-14.145zm15.375 37.375c-2.438-3.611.426-7.97 4.37-8.798 3.186.633 6.555 2.99 5.877 6.601-.46 4.911-7.751 6.406-10.247 2.208v-.011zm-122.026-3.14c.966-2.875 3.312-5.715 6.75-4.968 5.003.345 6.486 7.774 2.105 10.063-3.933 2.61-8.51-.966-8.855-5.095zm58.88 3.301c.954-4.255 6.532-6.314 10.212-4.06 2.438 1.035 3.151 3.703 3.772 5.98a101.813 101.813 0 00-.92 3.565c-1.507 1.748-3.45 3.508-5.957 3.45-4.658.541-8.867-4.646-7.119-8.935h.012z" fill="#fff"/><defs><linearGradient id="paint0_linear-892426" x1="240" y1="0" x2="240" y2="701.818" gradientUnits="userSpaceOnUse"><stop stop-color="#08021E"/><stop offset="1" stop-color="#1F0777"/></linearGradient><filter id="filter0_d-573531" x="112.5" y="124.507" width="254.869" height="231.873" filterUnits="userSpaceOnUse" color-interpolation-filters="sRGB"><feFlood flood-opacity="0" result="BackgroundImageFix"/><feColorMatrix in="SourceAlpha" values="0 0 0 0 0 0 0 0 0 0 0 0 0 0 0 0 0 0 127 0"/><feOffset dy=".5"/><feGaussianBlur stdDeviation=".5"/><feColorMatrix values="0 0 0 0 0 0 0 0 0 0 0 0 0 0 0 0 0 0 0.204257 0"/><feBlend in2="BackgroundImageFix" result="effect1_dropShadow"/><feBlend in="SourceGraphic" in2="effect1_dropShadow" result="shape"/></filter></defs></svg>