<svg width="256" height="256" viewBox="0 0 256 256" fill="none" xmlns="http://www.w3.org/2000/svg">
<mask id="mask0-368356" mask-type="alpha" maskUnits="userSpaceOnUse" x="0" y="0" width="256" height="256">
<circle cx="128" cy="128" r="128" fill="url(#paint0_linear-929866)"/>
</mask>
<g mask="url(#mask0-368356)">
<circle cx="128" cy="128" r="128" fill="#31D8A4"/>
<circle cx="128" cy="128" r="110.933" fill="white"/>
</g>
<circle cx="128.001" cy="128" r="98.1333" fill="white"/>
<path d="M57.2802 169.599C70.8802 185.439 89.1202 196.799 109.44 202.079C127.68 205.759 146.72 203.839 163.68 196.159C172.16 192.319 179.84 186.879 186.4 180.159C187.04 179.199 186.72 177.919 185.76 177.279C184.96 176.959 183.84 176.959 183.04 177.279C170.56 183.679 157.12 188.159 143.36 190.559C128.8 192.159 114.08 191.199 100 187.519C85.6002 182.719 71.8402 175.839 59.3602 167.039C58.4002 166.719 57.4402 167.199 57.2802 168.159C57.1202 168.799 57.1202 169.279 57.2802 169.599Z" fill="#F39700"/>
<path d="M172.64 172.96C178.08 171.84 183.68 171.68 189.28 172.16H189.44C191.2 172.64 192.32 174.4 192 176.32C190.88 181.76 189.12 187.04 186.88 192C186.72 192.48 187.04 192.96 187.52 193.12C187.84 193.28 188 193.12 188.32 192.96C195.04 187.68 198.88 179.68 198.88 171.04C199.04 168.8 197.6 166.88 195.36 166.56C187.2 165.12 178.88 166.88 171.84 171.36C171.52 171.68 171.36 172.16 171.68 172.64C172 172.96 172.32 173.12 172.64 172.96Z" fill="#F39700"/>
<path d="M144.48 151.36C141.6 154.56 138.24 157.44 134.56 160C127.68 164 119.84 166.24 111.84 166.4C104.8 166.24 97.9204 163.84 92.3204 159.68C82.8804 151.04 79.2004 137.92 83.0404 125.6C86.5604 114.88 94.7204 106.24 105.28 102.24C116.8 98.7201 128.8 96.9601 140.96 96.9601V84.3201C140.16 78.5601 135.52 74.0801 129.76 73.4401C126.08 72.9601 122.56 73.4401 119.2 74.8801C114.4 77.1201 111.04 81.4401 109.92 86.7201C109.12 88.3201 107.36 89.2801 105.6 88.9601L88.3204 87.3601C86.7204 86.8801 85.6004 85.6001 85.4404 83.8401C86.7204 75.2001 91.2004 67.6801 97.7604 62.2401C106.56 55.5201 117.44 51.8401 128.64 52.0001C138.88 52.1601 148.96 55.3601 157.44 61.4401C164.48 67.3601 168.32 76.1601 167.84 85.2801V128.96C168 132.64 168.96 136.32 170.56 139.52L176 147.36C176.64 148.64 176.64 149.92 176 151.2L160 164.8C158.56 165.6 156.96 165.44 155.68 164.64C151.52 160.64 147.68 156.16 144.48 151.36ZM140.8 111.68C135.84 111.52 130.72 111.84 125.76 112.64C119.68 113.92 114.56 117.92 111.52 123.36C109.12 129.28 109.44 136 112.64 141.76C116.48 146.56 123.04 148.16 128.64 145.92C135.2 141.76 139.68 134.88 140.8 127.04V111.68Z" fill="black"/>
<defs>
<linearGradient id="paint0_linear-929866" x1="128" y1="0" x2="128" y2="374.303" gradientUnits="userSpaceOnUse">
<stop stop-color="#08021E"/>
<stop offset="1" stop-color="#1F0777"/>
</linearGradient>
</defs>
</svg>