<svg width="480" height="480" viewBox="0 0 480 480" fill="none" xmlns="http://www.w3.org/2000/svg"><mask id="mask0-711235" maskUnits="userSpaceOnUse" x="0" y="0" width="480" height="480"><circle cx="240" cy="240" r="240" fill="url(#paint0_linear-429844)"/></mask><g mask="url(#mask0-711235)"><circle cx="240" cy="240" r="240" fill="#31D8A4"/><circle cx="240" cy="240" r="208" fill="#fff"/></g><circle cx="240" cy="240" r="184" fill="#fff"/><path d="M107.4 317.999c25.5 29.7 59.7 51 97.8 60.9 34.2 6.9 69.9 3.3 101.7-11.1 15.9-7.2 30.3-17.4 42.6-30 1.2-1.8.6-4.2-1.2-5.4-1.5-.6-3.6-.6-5.1 0-23.4 12-48.6 20.4-74.4 24.9-27.3 3-54.9 1.2-81.3-5.7-27-9-52.8-21.9-76.2-38.4-1.8-.6-3.6.3-3.9 2.1-.3 1.2-.3 2.1 0 2.7z" fill="#F39700"/><path d="M323.7 324.301c10.2-2.1 20.7-2.4 31.2-1.5h.3c3.3.9 5.4 4.2 4.8 7.8-2.1 10.2-5.4 20.1-9.6 29.4-.3.9.3 1.8 1.2 2.1.6.3.9 0 1.5-.3 12.6-9.9 19.8-24.9 19.8-41.1.3-4.2-2.4-7.8-6.6-8.4-15.3-2.7-30.9.6-44.1 9-.6.6-.9 1.5-.3 2.4.6.6 1.2.9 1.8.6z" fill="#F39700"/><path d="M270.9 283.801c-5.4 6-11.7 11.4-18.6 16.2-12.9 7.5-27.6 11.7-42.6 12-13.2-.3-26.1-4.8-36.6-12.6-17.7-16.2-24.6-40.8-17.4-63.9 6.6-20.1 21.9-36.3 41.7-43.8 21.6-6.6 44.1-9.9 66.9-9.9v-23.7c-1.5-10.8-10.2-19.2-21-20.4-6.9-.9-13.5 0-19.8 2.7-9 4.2-15.3 12.3-17.4 22.2-1.5 3-4.8 4.8-8.1 4.2l-32.4-3c-3-.9-5.1-3.3-5.4-6.6 2.4-16.2 10.8-30.3 23.1-40.5 16.5-12.6 36.9-19.5 57.9-19.2 19.2.3 38.1 6.3 54 17.7 13.2 11.1 20.4 27.6 19.5 44.7v81.9c.3 6.9 2.1 13.8 5.1 19.8l10.2 14.7c1.2 2.4 1.2 4.8 0 7.2l-30 25.5c-2.7 1.5-5.7 1.2-8.1-.3-7.8-7.5-15-15.9-21-24.9zm-6.9-74.4c-9.3-.3-18.9.3-28.2 1.8-11.4 2.4-21 9.9-26.7 20.1-4.5 11.1-3.9 23.7 2.1 34.5 7.2 9 19.5 12 30 7.8 12.3-7.8 20.7-20.7 22.8-35.4v-28.8z" fill="#000"/><defs><linearGradient id="paint0_linear-429844" x1="240" y1="0" x2="240" y2="701.818" gradientUnits="userSpaceOnUse"><stop stop-color="#08021E"/><stop offset="1" stop-color="#1F0777"/></linearGradient></defs></svg>