<svg xmlns="http://www.w3.org/2000/svg" width="42" height="42" fill="none"><g clip-path="url(#a)"><mask id="c" width="42" height="42" x="0" y="0" maskUnits="userSpaceOnUse" style="mask-type:alpha"><circle cx="21" cy="21" r="21" fill="url(#b)"/></mask><g mask="url(#c)"><circle cx="21" cy="21" r="21" fill="#34EDB3"/><circle cx="21" cy="21" r="18.2" fill="#fff"/></g><circle cx="21" cy="21" r="16.1" fill="#06061B"/><circle cx="21" cy="21" r="16.1" fill="#fff"/><path fill="#F39700" d="M9.398 27.825a16.881 16.881 0 0 0 8.557 5.329c2.993.603 6.116.288 8.899-.972a12.31 12.31 0 0 0 3.727-2.625.342.342 0 0 0-.105-.472.652.652 0 0 0-.446 0 22.928 22.928 0 0 1-6.51 2.179 19.657 19.657 0 0 1-7.114-.5 25.668 25.668 0 0 1-6.667-3.36c-.158-.052-.315.027-.341.185-.027.105-.027.183 0 .236Z"/><path fill="#F39700" d="M28.324 28.376c.892-.183 1.811-.21 2.73-.13h.026a.594.594 0 0 1 .42.682 12.299 12.299 0 0 1-.84 2.572c-.026.079.026.158.105.184.052.026.079 0 .131-.026a4.54 4.54 0 0 0 1.733-3.597.672.672 0 0 0-.578-.735 5.416 5.416 0 0 0-3.859.788c-.052.052-.078.131-.026.21.053.052.105.079.158.052Z"/><path fill="#000" d="M23.704 24.833a9.42 9.42 0 0 1-1.628 1.417 7.742 7.742 0 0 1-3.727 1.05 5.614 5.614 0 0 1-3.203-1.102 5.375 5.375 0 0 1-1.522-5.592 6.145 6.145 0 0 1 3.649-3.832 20.007 20.007 0 0 1 5.853-.866v-2.074a2.09 2.09 0 0 0-1.837-1.785 3.252 3.252 0 0 0-1.733.236 2.74 2.74 0 0 0-1.522 1.943.67.67 0 0 1-.709.367l-2.835-.262a.647.647 0 0 1-.473-.578c.21-1.417.946-2.651 2.022-3.544a8.169 8.169 0 0 1 5.066-1.68 8.326 8.326 0 0 1 4.725 1.55 4.779 4.779 0 0 1 1.706 3.91v7.167a4.34 4.34 0 0 0 .447 1.732l.892 1.286a.67.67 0 0 1 0 .63l-2.625 2.232a.686.686 0 0 1-.709-.027 13.244 13.244 0 0 1-1.837-2.178Zm-.604-6.51a12.986 12.986 0 0 0-2.468.157c-.997.21-1.837.866-2.336 1.759a3.49 3.49 0 0 0 .184 3.019 2.283 2.283 0 0 0 2.625.682 4.402 4.402 0 0 0 1.995-3.097v-2.52Z"/></g><defs><linearGradient id="b" x1="21" x2="21" y1="0" y2="61.409" gradientUnits="userSpaceOnUse"><stop stop-color="#08021E"/><stop offset="1" stop-color="#1F0777"/></linearGradient><clipPath id="a"><path fill="#fff" d="M0 0h42v42H0z"/></clipPath></defs></svg>