<svg width="42" height="42" fill="none" xmlns="http://www.w3.org/2000/svg">
  <g clip-path="url(#a)">
    <mask id="c" width="42" height="42" x="0" y="0" maskUnits="userSpaceOnUse" style="mask-type:alpha">
      <circle cx="21" cy="21" r="21" fill="url(#b)"/>
    </mask>
    <g mask="url(#c)">
      <circle cx="21" cy="21" r="21" fill="#34EDB3"/>
      <circle cx="21" cy="21" r="18.2" fill="#fff"/>
    </g>
    <circle cx="21" cy="21" r="16.1" fill="#06061B"/>
    <mask id="d" width="34" height="34" x="4" y="4" maskUnits="userSpaceOnUse" style="mask-type:alpha">
      <path fill="#0E052F" d="M37.1 21c0 8.892-7.208 16.1-16.1 16.1S4.9 29.892 4.9 21 12.108 4.9 21 4.9 37.1 12.108 37.1 21"/>
    </mask>
    <g mask="url(#d)">
      <path fill="url(#e)" d="M37.408 21.157c0-9.037-7.326-16.362-16.362-16.362S4.684 12.12 4.684 21.157s7.326 16.362 16.362 16.362c9.037 0 16.362-7.326 16.362-16.362"/>
      <path fill="#fff" d="M32.172 16.05c-.068.4-.148.594-.242.82-.102.243-.217.52-.32 1.068a8 8 0 0 0-.08.523l-.002.009-.001.008c-.03.228-.049.38-.14.653-.076.223-.201.595-.503.995-.244.323-.652.865-1.197.93a.5.5 0 0 1-.187-.012c-1.545-.79-2.873-1.372-3.332-1.503-.535-.152-.466-1.317-.406-2.346.027-.46.053-.894.031-1.266-.075-1.298-.305-2.719-1.435-3.412-.675-.413-1.546-.534-2.378-.536.154-.073.326-.173.514-.282l.006-.003c.49-.284 1.097-.636 1.701-.698q.297-.03.584-.064c1.218-.137 2.27-.256 3.38.124.503.173 1.535.748 1.801 1.283.188.377.505.672 1.136 1.259.329.305.545.483.704.614l.007.005c.223.184.267.222.333.357.204.417.13.86.026 1.474m-5.622 5.336a.12.12 0 0 1 .059.179c-.165.25-.355.594-.581 1.014-.106.198-.207.385-.292.53-.3.515-.323.948-.342 1.295-.021.363-.04.53-.256.675-.18.12-.363.16-1.636.354-.222.034-.32.077-.407.115l-.074.03c-.073.028-.145-.034-.14-.113.01-.183.016-.412.017-.7v-.056a7 7 0 0 0-.013-.614c-.017-.325-.02-.462.067-.603a.84.84 0 0 1 .326-.31c.19-.12.451-.284.838-.815.205-.28.25-.433.279-.565.012-.055.016-.075.175-.195.166-.127.676-.512 1.327-.403.18.03.41.098.654.182zm-5.062 5.867a.13.13 0 0 1-.107.055c-.133.005-.226-.028-.288-.102-.131-.16-.114-.48-.083-.668l.538-.144c.042.285.062.7-.06.859m.044-1.943a2 2 0 0 0-.019.26l.002.103c.001.088.005.227-.007.29-.168.062-.312.062-.5.059-.003-.055 0-.136.002-.19l.004-.126v-.132c0-.104-.002-.273.023-.323q.075-.012.158-.031c.112-.024.257-.055.35-.041-.002.036-.008.09-.013.132zm-.996 1.777c-.026.276-.11.617-.37.669-.116.024-.172-.012-.208-.045-.174-.162-.202-.65-.178-1 .116.001.269-.025.45-.06.11-.022.22-.046.307-.066a3 3 0 0 1 0 .502zm-.122-.99-.584.204c.03-.226.069-.545.083-.757.01-.15.05-.195.062-.205.004-.003.012-.01.034-.01h.01l.012.002.369-.02c.016.174.016.554.014.786m-.944-.182a4 4 0 0 0-.096.512l-.73-.022a4.5 4.5 0 0 1 .16-.64c.064-.183.132-.32.195-.359a.32.32 0 0 1 .334.03c.161.138.205.295.138.48zm-.272 2.238c-.057.078-.12.117-.198.125a.22.22 0 0 1-.19-.055c-.23-.212-.211-.906-.203-1.24.303-.07.63-.128.786-.137.023.28.03 1.001-.195 1.307m-.955-1.768c-.035.095-.07.185-.096.265-.085.026-.345.003-.61-.055l.182-1.151c.3-.08.648-.105.732-.016.11.117-.112.706-.208.957m-.33 1.943c-.142.175-.355.257-.652.253-.205-.003-.278-.08-.315-.14-.165-.26-.003-.875.158-1.268l.99.06q.016.105.023.244c.01.28-.024.628-.204.851"/>
      <path fill="#fff" d="M26.097 19.978c-.892-.253-.815-1.556-.74-2.817.026-.445.05-.867.03-1.212-.068-1.179-.267-2.463-1.215-3.045-1.02-.624-2.69-.482-3.72-.35h-.004c-.377.115-.73.189-1.003.174-.608-.031-1.08-.287-1.497-.512-.325-.176-.608-.328-.875-.328l-.044.001c-.798.052-1.165.247-1.498.544-.084.074-.186.29-.521 1.254-.169.487-.2.754-.232 1.013-.028.237-.057.48-.183.844-.087.25-.152.467-.215.675-.165.554-.295.99-.687 1.51-.046.06-.103.151-.169.254-.089.14-.199.314-.344.515-.102.142-.338.674-.325.836.02.258.103.417.199.604.095.184.204.393.224.68l.003.047c.035.457-.03.686-.899 1.462-.555.497-.95.975-1.216 1.327-.023.03.008.077.046.073a.5.5 0 0 1 .175.002.93.93 0 0 1 .563.266.09.09 0 0 0 .1.02c.141-.058.297-.049.445-.035.184.017.369.072.49.19a.15.15 0 0 0 .14.043.77.77 0 0 1 .434.021.7.7 0 0 1 .277.188.165.165 0 0 0 .207.026.6.6 0 0 1 .134-.064c.189-.064.397-.028.58.038.09.032.185.061.266.116.15.1.24.244.299.407a.148.148 0 0 0 .23.06c.135-.11.242-.13.349-.082a.26.26 0 0 1 .118.1c.045.075.136.136.219.112a1.32 1.32 0 0 1 .922.103.63.63 0 0 1 .253.237l.008-.05a.06.06 0 0 1 .041-.048l.062-.02c.144-.045.881-.258 1.168.044.012.012.034.014.046 0a.4.4 0 0 1 .09-.077.65.65 0 0 1 .72.062c.043.036.112.023.145-.023a.38.38 0 0 1 .342-.163l.405-.022a6 6 0 0 0 .54-.052q.066-.012.145-.029c.197-.042.42-.09.602-.006.176.081.154.281.133.458a2 2 0 0 0-.017.217l.002.1c.003.153.006.294-.024.401v.001l.018.084.003.012c.017.077.1.12.166.079.141-.086.29-.198.334-.262a.7.7 0 0 0 .038-.14c.025-.151.053-.457.056-1.077v-.067a7 7 0 0 0-.012-.579c-.017-.336-.03-.6.137-.87.162-.263.32-.362.471-.458.177-.11.376-.236.711-.696.165-.226.185-.318.2-.39.037-.171.094-.274.348-.466.206-.156.835-.633 1.683-.49.278.047.73.196 1.174.37l.001.001a.3.3 0 0 1 .067.027c.398.16.785.336 1.032.478a.135.135 0 0 0 .172-.039.9.9 0 0 1 .265-.224 1 1 0 0 0 .09-.06l.027-.022c.074-.06.073-.188-.011-.232a15.3 15.3 0 0 0-2.694-1.07zm-8.496.274c-.276 1.207-2.146 2.534-2.996 2.534h-.016a.4.4 0 0 1-.096-.016l-.028-.008a1.4 1.4 0 0 1-.53-.327.76.76 0 0 1-.242-.45 1.25 1.25 0 0 1 .078-.88l.068-.157.02-.048a11 11 0 0 0 .135-.34c.052-.145.058-.2.065-.256.007-.044.013-.098.03-.174.054-.227.082-.419.106-.59.043-.307.081-.572.247-.816a.7.7 0 0 1 .13-.146l.039-.03a1 1 0 0 1 .13-.074l.048-.02a1 1 0 0 1 .103-.031q.229-.056.538-.017c.226.018.435.06.62.113a4 4 0 0 1 .511.18l.09.039.099.045.027.012a1.7 1.7 0 0 1 .544.372c.36.379.342.816.28 1.085m.866-4.574-.036.218c-.084.494-.277 1.17-.986 1.344-.683.167-.845.202-1.332.224l-.034.001c-.354 0-1.038-.223-1.159-.78-.077-.358.08-.618.341-1.048l.14-.232c.344-.58.48-1 .589-1.336.106-.329.194-.6.421-.826a1.26 1.26 0 0 1 .523-.313c.159-.05.33-.076.5-.076.331 0 .662.095.898.284.106.085.257.255.345.757.045.258-.032.733-.21 1.783m5.066 1.403c-.245.42-.379.65-.59.824-.419.344-.907.43-1.31.43-.289 0-.534-.044-.679-.07-.416-.076-1.19-.217-1.447-.828a.66.66 0 0 1-.051-.295c0-.096 0-.257-.045-.642l-.003-.026a1.9 1.9 0 0 1 .007-.623l.006-.03c.146-.742.185-.856.218-.92a.298.298 0 0 1 .534.26c-.015.043-.056.2-.17.775l-.005.03a1.3 1.3 0 0 0 0 .44l.003.026c.049.418.049.607.049.71v.05l.004.014c.049.115.158.202.29.269.083.041.17-.038.15-.128-.131-.654-.124-1.416.126-1.888a15 15 0 0 1 .378-.653l.001-.002.044-.072.035-.06.203-.33.028-.046.01-.018.005-.007.013-.02.017-.028v-.001l.003-.005.001-.001q.075-.109.147-.206c.064-.087-.01-.202-.111-.16a2 2 0 0 0-.443.251.296.296 0 0 1-.417-.047.3.3 0 0 1 .048-.418c.153-.12.963-.712 1.934-.434.7.199 1.066.733 1.204.934.111.163.452.658.441 1.35-.008.527-.228.906-.629 1.595z"/>
      <path fill="#fff" d="M17.23 13.465c-.05.12-.11.27-.173.431-.15.375-.318.8-.4.954-.14.266-.249.434-.336.57-.1.155-.18.277-.24.449q-.158.451-.055 1c-.186-.021-.49-.15-.525-.31-.025-.12.05-.252.27-.614l.142-.238c.378-.636.53-1.11.643-1.456.122-.377.18-.535.372-.667a.8.8 0 0 1 .302-.119m-.37 13.347c-.205.42-.462.81-.621 1.002-.133-.358-.363-1.177-.302-1.837l.007-.056c.024-.204.078-.39.175-.54.063-.099.239-.159.439-.159.147 0 .307.032.445.106h.001c.074.04.175.12.186.353.015.314-.135.736-.33 1.131"/>
      <path fill="#fff" d="M28.146 22.097c.016.013.026.032.017.05a1.5 1.5 0 0 1-.222.313c-.105.125-.226.267-.337.489-.16.313-.21.6-.237 1.332-.032.861.001 1.345.026 1.697.024.34.039.546-.022.878-.122.67-.409 1.114-.772 1.675-.454.702-.923 1.428-1.701 1.66-.072.021-.075.021-.278.022-.176 0-.47 0-1.026.021-1.016.037-1.525.055-1.962.14a4.3 4.3 0 0 0-.927.279c-.209.084-.406.164-.784.242-.226.046-.563.095-1.711.097-1.194.002-1.914.003-2.866-.106-1.305-.149-1.96-.223-2.396-.456-1.026-.547-1.46-1.532-2.177-3.164l-.004-.008c-.008-.02.016-.04.035-.029a.5.5 0 0 0 .204.076.6.6 0 0 0 .238-.009l.006-.003a.023.023 0 0 1 .032.012.53.53 0 0 0 .24.302c.122.063.26.068.396.067q.21-.002.42-.027c.073-.007.149.029.177.097.128.31.285.533.523.566q.019.003.05.004a.45.45 0 0 0 .253-.096c.09-.061.23-.025.294.063.06.08.13.138.19.187.245.25.838.37 1.337.37.272 0 .516-.035.66-.105.205-.1.205-.253.195-.315a10 10 0 0 1-.047-.33c-.002-.013.018-.018.023-.006.03.066.067.147.164.162q.015.003.036.004c.139 0 .355.045.392.179a.7.7 0 0 0 .082.19c.084.132.254.29.59.295h.026c.387 0 .685-.127.886-.377l.038-.049c.072-.102.287-.106.379-.022a.55.55 0 0 0 .45.142.6.6 0 0 0 .435-.267c.073-.102.126-.228.165-.363.012-.04.067-.052.098-.024.073.068.192.14.363.14a1 1 0 0 0 .135-.014c.335-.067.503-.345.582-.66.002-.01.017-.012.025-.004a.64.64 0 0 0 .515.223h.042a.46.46 0 0 0 .355-.185c.107-.14.149-.346.159-.554a.16.16 0 0 1 .098-.137c.288-.12.637-.38.74-.557l.01-.02a.17.17 0 0 1 .114-.09c.223-.043.32-.085.409-.123a1 1 0 0 1 .292-.082c1.291-.197 1.543-.24 1.822-.427.418-.279.44-.662.46-1.033.018-.314.038-.67.282-1.088.088-.152.19-.343.299-.544.19-.352.456-.846.646-1.105a.13.13 0 0 1 .156-.04c.446.19.826.38.908.445"/>
      <path fill="#fff" d="M15.61 25.938a8.7 8.7 0 0 0-.01 1.82q.03.33.085.677c-.062.033-.244.08-.57.075-.466-.01-.92-.127-1.057-.275l-.021-.019c-.114-.09-.188-.151-.199-.314-.003-.055.02-.11.07-.187q.043-.063.11-.155c.08-.105.177-.236.276-.405a9 9 0 0 1 .58-.886c.082-.114.18-.25.326-.473q.163-.246.274-.397a2.5 2.5 0 0 1 .259-.312 5 5 0 0 1-.042.285c-.025.153-.056.34-.081.566M15.396 19l-.009.011c-.06.084-.13.18-.213.364-.222.495-.226.775-.23 1-.002.118-.003.212-.036.322a3 3 0 0 1-.1.25c-.131.301-.302.695-.226 1.226-.106-.052-.269-.169-.291-.23l-.018-.087c-.037-.165-.062-.273.043-.515.277-.638.311-.789.333-.962a1 1 0 0 1 .02-.116c.058-.251.089-.466.114-.64.037-.262.062-.436.15-.567.033-.048.124-.073.255-.073q.078 0 .174.013l.014.001.02.002zm-.365 6.29a1.7 1.7 0 0 0-.097-.45l-.024-.052-.032-.053-.001-.002-.001-.001-.018-.02a.4.4 0 0 0-.052-.043l-.034-.019-.02-.008-.005-.002-.004-.003h-.004l-.001-.001-.007-.003c-.09-.033-.18-.069-.274-.083h-.006l-.033-.002h-.062l-.007.001-.004.001-.065.018-.028.015-.023.014-.003.002-.002.001-.03.03-.023.026v.002l-.003.001v.001l-.007.011a20 20 0 0 1-.372.557l-.377.55q-.012.016-.022.033l.159.03q.178.034.36.06c.25.034.503.05.756.04l.036.003c.06-.087.132-.19.224-.33l.144-.215a.3.3 0 0 1-.038-.11zm-.889 1.032c-.021.192-.237.69-.573 1.165-.282.397-.453.493-.487.497-.135-.02-.27-.355-.376-.689-.042-.135-.081-.27-.113-.382a2.7 2.7 0 0 1-.074-.808c.284.158.783.2 1.483.203h.002zm-.498-1.586v.001l-.01.014a101 101 0 0 1-.549.802c-.034.05-.08.104-.119.163-.1-.024-.199-.046-.298-.074a3 3 0 0 1-.283-.098.2.2 0 0 0-.053-.068v-.003l.086-.174a6 6 0 0 1 .168-.314c.107-.185.236-.373.417-.492a.54.54 0 0 1 .255-.105c.01-.001.07 0 .1.002h.011l.013.004.063.018.021.011q.029.015.055.035c-.028-.021.038.047.038.042.054.074.07.136.085.236m-.952-.501c-.223.183-.385.426-.52.68q-.11.211-.215.427l-.023.043a2.2 2.2 0 0 1-.498-.18c.066-.126.146-.247.222-.365.106-.166.222-.33.348-.483.047-.059.097-.123.163-.161.068-.04.15-.03.228-.026.082.005.17.007.249.038a.3.3 0 0 1 .046.027m-.354 2.986a.2.2 0 0 0-.028.032l-.021.005a4 4 0 0 1-.475.02c-.059-.002-.111-.011-.135-.048-.039-.059-.05-.16-.064-.238a3.9 3.9 0 0 1-.03-1.16c.2.07.404.126.613.16-.045.347.032.856.077 1.012zm-.638-3.113a6 6 0 0 0-.48.684c-.058.097-.124.197-.172.3a.8.8 0 0 1-.2-.088 2 2 0 0 1-.148-.104l-.067-.053-.014-.01c.016-.046.045-.096.062-.13a3.4 3.4 0 0 1 .397-.653c.039-.048.075-.11.135-.128a.4.4 0 0 1 .17 0c.13.025.232.084.317.182m-1.355.937c.002-.01.014-.01.02-.003.046.066.11.123.18.177q.044.036.092.069a.01.01 0 0 1 .005.012 4 4 0 0 0-.122.938c0 .014-.021.017-.024.003-.09-.367-.21-.98-.151-1.196m.861.656a4.5 4.5 0 0 0-.042.79 5 5 0 0 0 .042.436v.001a.3.3 0 0 0-.098-.003c.007-.003-.01-.001-.017-.001h-.002l-.015-.002c-.037-.009-.04-.013-.07-.031a.4.4 0 0 1-.104-.115.9.9 0 0 1-.091-.41 3.6 3.6 0 0 1 .063-.81l.144.061z"/>
      <g stroke-miterlimit="10" filter="url(#f)" opacity=".8">
        <path stroke="url(#g)" stroke-width="1.055" d="M18.15 39.442c-1.2 0-2.336-.075-3.29-.15l-.262-.02-.263-.036c-.115-.017-.27-.033-.421-.05-.918-.1-2.624-.285-4.508-1.17l-.293-.138-.272-.153C5.22 35.696 3.866 32.642 3.136 31l-.156-.348a14.5 14.5 0 0 1-.798-2.055l-.044-.139-.037-.135c-.525-1.867-.658-3.48-.417-5.075.24-1.601.834-3.058 1.865-4.583l.534-.873c.108-.176.185-.37.226-.573.407-2.019 1.332-3.449 1.786-4.132.125-.827.331-1.64.616-2.426l.042-.119.045-.116c.008-.02.017-.05.035-.102.204-.615.682-2.053 1.907-3.563l.46-.558.469-.423a10.9 10.9 0 0 1 4.198-2.37c.87-.26 1.767-.418 2.674-.473l.088-.006.132-.006a10 10 0 0 1 2.153.131c.349.059.707.018 1.033-.118a11.8 11.8 0 0 1 3.02-.811q.133-.019.223-.03a26 26 0 0 1 3.04-.196c1.78 0 3.313.23 4.685.705l.117.04.114.044c3.028 1.144 4.569 2.742 5.678 4.152l.052.068.153.135a10.6 10.6 0 0 1 2.513 2.828l.207.34.174.356c1.481 3.023 1.01 5.815.833 6.864l-.01.055c-.127.774-.33 1.534-.605 2.268a11.6 11.6 0 0 1-.498 2.082 12 12 0 0 1-1.719 3.36q-.646.913-1.448 1.692a1.18 1.18 0 0 0-.348.682q-.035.24-.079.476c-.434 2.328-1.453 3.949-1.868 4.595l-1.257 1.805c-1.514 1.885-3.31 3.13-5.483 3.797l-.526.166-.57.099c-.65.114-1.31.172-1.97.17-.091 0-.183 0-.285-.003h-.029l-.112.008-.12.004h-.003q-.38.013-.743.122c-1.404.43-2.992.631-4.934.631z" opacity=".8"/>
        <path stroke="url(#h)" stroke-width="1.055" d="M18.15 38.201a40 40 0 0 1-3.176-.146l-.22-.017-.219-.03c-.136-.02-.303-.037-.465-.055-.89-.097-2.38-.259-4.044-1.039l-.244-.115-.227-.127c-3.195-1.792-4.377-4.453-5.083-6.043l-.17-.379a13.4 13.4 0 0 1-.727-1.872l-.037-.116-.032-.112c-.467-1.661-.588-3.079-.38-4.462.21-1.383.734-2.66 1.65-4.008l.685-1.118c.121-.198.204-.417.245-.645.34-1.9 1.238-3.246 1.645-3.859l.052-.077.019-.031.024-.056.073-.234a11.2 11.2 0 0 1 .565-2.283l.037-.1.04-.1.057-.169c.195-.585.599-1.8 1.656-3.103l.384-.464.389-.353a9.4 9.4 0 0 1 3.64-2.054 10.5 10.5 0 0 1 2.357-.414l.073-.006.11-.005q.202-.01.396-.01c.574 0 1.146-.166 1.707-.05.433.09.884.041 1.289-.138.756-.333 1.774-.466 2.94-.611l.211-.028a23 23 0 0 1 2.857-.186c1.616 0 2.992.204 4.208.624l.097.034.095.037c2.684 1.014 4.01 2.371 5.044 3.687.057.073.116.148.138.174l.024.022.196.175.027.027a9.1 9.1 0 0 1 2.234 2.489l.172.283.146.297c1.274 2.6.875 4.966.705 5.977l-.01.053a10.6 10.6 0 0 1-.59 2.146 10 10 0 0 1-.458 1.981 10.7 10.7 0 0 1-1.52 2.974 10.4 10.4 0 0 1-1.54 1.737 1.46 1.46 0 0 0-.473.929 9 9 0 0 1-.113.77c-.383 2.056-1.277 3.478-1.687 4.114l-1.018 1.48c-1.353 1.739-2.956 2.876-4.898 3.474l-.44.138-.475.082q-.852.15-1.718.149l-.262-.002h-.08l-.056.002-.1.006-.102.004-.202.008c-.267.01-.532.055-.787.136-1.293.413-2.787.608-4.635.608z" opacity=".8"/>
        <path stroke="url(#i)" stroke-width=".989" d="M18.15 36.74c-1.098 0-2.165-.072-3.063-.142l-.175-.013-.175-.025c-.158-.022-.336-.04-.509-.06-.851-.093-2.137-.233-3.58-.909l-.195-.092-.183-.102c-2.77-1.553-3.788-3.844-4.462-5.36l-.182-.412a12 12 0 0 1-.655-1.688l-.029-.092-.025-.09c-.41-1.454-.518-2.677-.342-3.847.18-1.186.645-2.292 1.466-3.48l.097-.141.106-.136.194-.25.411-.756a2.4 2.4 0 0 0 .27-.793c.262-1.694 1.078-2.918 1.454-3.482l.002-.003.064-.096.08-.129a4 4 0 0 0 .11-.256c.037-.114.08-.256.128-.402a9.6 9.6 0 0 1 .51-2.114l.028-.08.031-.08c.026-.067.046-.125.084-.24.18-.541.514-1.547 1.403-2.643l.308-.372.31-.28a8 8 0 0 1 3.081-1.74 9 9 0 0 1 2.04-.356l.06-.004.088-.004a7 7 0 0 1 2.092.216c.498.126 1.025.07 1.486-.157.738-.358 1.724-.738 2.88-.88l.201-.027a22 22 0 0 1 2.674-.175c1.45 0 2.67.179 3.73.545l.078.027.076.029c2.465.931 3.568 2.152 4.41 3.222.185.236.213.272.34.386l.157.14.061.062a7.6 7.6 0 0 1 1.96 2.157l.139.227.116.237c1.067 2.178.735 4.144.576 5.09l-.01.052a9.2 9.2 0 0 1-.575 2.02l-.007.06a8.8 8.8 0 0 1-.41 1.824 9.3 9.3 0 0 1-1.321 2.588 8.7 8.7 0 0 1-1.714 1.827 1.4 1.4 0 0 0-.527 1.027q-.027.587-.135 1.165c-.331 1.782-1.11 3.018-1.506 3.635l-.79 1.166c-1.19 1.588-2.6 2.616-4.303 3.139l-.351.11-.38.065a8.3 8.3 0 0 1-1.468.127c-.077 0-.154 0-.239-.002h-.103c-.014 0-.058 0-.146.006l-.08.005-.079.003-.406.015a3 3 0 0 0-.838.15c-1.184.4-2.581.587-4.339.587z" opacity=".8"/>
        <path stroke="url(#j)" stroke-width=".923" d="M18.149 35.276a39 39 0 0 1-2.949-.136l-.131-.01-.131-.019c-.18-.024-.369-.045-.552-.065-.8-.087-1.895-.206-3.117-.78l-.146-.069-.137-.076c-2.346-1.316-3.209-3.259-3.84-4.678-.065-.146-.133-.3-.2-.447a10.4 10.4 0 0 1-.58-1.5l-.023-.069-.019-.067c-.686-2.438-.428-4.149.92-6.1l.073-.106.08-.102.255-.329c.125-.163.25-.33.388-.5q.128-.16.203-.352l.155-.394q.1-.254.122-.525c.134-1.564.895-2.704 1.272-3.269l.002-.003.083-.126.088-.14.027-.037c.047-.095.139-.295.22-.505.043-.143.112-.363.179-.563q0-.012.003-.025c.072-.655.223-1.3.45-1.919l.021-.06.024-.06c.04-.104.07-.191.11-.312.16-.483.43-1.292 1.15-2.182l.231-.279.232-.21c1.703-1.545 3.61-1.678 4.246-1.72l.044-.004.067-.003a5.7 5.7 0 0 1 2.46.444.9.9 0 0 0 .771-.037h.004c.648-.375 1.834-1.056 3.347-1.238a22 22 0 0 1 .796-.092 20 20 0 0 1 1.884-.095c1.285 0 2.348.152 3.252.464l.058.02.057.022c2.113.798 3.023 1.8 3.775 2.757.203.256.293.375.52.574l.117.105.094.097.074.058a6.2 6.2 0 0 1 1.614 1.765l.104.17.087.178c.86 1.756.59 3.348.446 4.203l-.008.051a7.8 7.8 0 0 1-.527 1.809l-.021.05-.01.049a3 3 0 0 0-.025.165l-.01.067a7.3 7.3 0 0 1-.343 1.541 7.9 7.9 0 0 1-1.123 2.201 7.1 7.1 0 0 1-1.632 1.685 2.13 2.13 0 0 0-.873 1.69 7 7 0 0 1-.12 1.228c-.281 1.51-.925 2.532-1.326 3.155l-.574.86c-1.027 1.434-2.238 2.35-3.696 2.797l-.077.024q-.186.06-.378.092l-.093.016q-.604.106-1.218.105l-.216-.001h-.126c-.029 0-.104 0-.24.008l-.06.004-.06.002-.655.025a3 3 0 0 0-.87.17c-1.05.376-2.334.553-3.999.553z" opacity=".8"/>
        <path stroke="url(#k)" stroke-width=".858" d="M18.15 33.814c-1 0-1.995-.067-2.836-.133l-.088-.006-.088-.013c-.201-.027-.402-.05-.595-.07-.736-.08-1.652-.18-2.653-.65l-.098-.046-.09-.05c-1.923-1.078-2.64-2.696-3.219-3.996-.07-.16-.146-.326-.22-.487a9 9 0 0 1-.504-1.31l-.015-.046-.013-.044c-.566-2.012-.38-3.288.715-4.873l.049-.07.053-.068q.143-.182.266-.346c.286-.375.56-.735.971-1.174a.57.57 0 0 0 .153-.352l.03-.473-.011-.155.005-.161c.043-1.298.695-2.274 1.044-2.799.04-.06.082-.123.107-.163l.059-.093.054-.074c.065-.106.236-.469.366-.817.045-.146.131-.425.207-.647a1 1 0 0 0 .043-.239c.06-.547.185-1.086.375-1.603l.015-.04.015-.04a8 8 0 0 0 .136-.383c.138-.414.345-1.04.899-1.722l.154-.187.153-.138c1.193-1.083 2.493-1.288 3.37-1.347l.03-.003h.046a4 4 0 0 1 .189-.004c.749 0 1.645.36 2.116.576a.95.95 0 0 0 .72.026q.442-.159.855-.376c.599-.347 1.592-.92 2.826-1.064l.179-.025a19 19 0 0 1 2.307-.15c1.12 0 2.026.126 2.774.384l.038.014.037.014c1.764.667 2.466 1.433 3.142 2.292.22.277.374.476.696.764l.079.07.073.073q.099.098.212.179c.302.234.81.627 1.26 1.368l.069.114.058.118c.653 1.332.443 2.574.318 3.316l-.008.05a6.3 6.3 0 0 1-.435 1.489v.003a1.5 1.5 0 0 0-.117.389 4 4 0 0 0-.04.252l-.008.068c-.047.428-.14.85-.279 1.257a6.4 6.4 0 0 1-.925 1.814c-.596.85-1.285 1.448-2.115 1.828a1.2 1.2 0 0 0-.702 1.042c-.004.09-.006.165-.003.207.041.64.087 1.364-.055 2.11-.229 1.236-.752 2.066-1.145 2.675 0 0-1.803 2.51-3.445 3.012l-.176.055-.19.033a5.4 5.4 0 0 1-.968.084l-.192-.002h-.15c-.064 0-.169 0-.332.011l-.04.003h-.04c-.627.022-1.22.044-1.386.076a1 1 0 0 0-.255.075c-.93.407-2.148.598-3.828.598z" opacity=".8"/>
        <path stroke="url(#l)" stroke-width=".858" d="M18.15 32.352c-.95 0-1.91-.065-2.723-.128l-.044-.004-.043-.006q-.333-.044-.64-.076c-.692-.075-1.408-.153-2.189-.52l-.049-.023-.045-.025c-1.5-.841-2.057-2.097-2.597-3.314q-.115-.26-.238-.528a7.4 7.4 0 0 1-.428-1.116l-.008-.023-.006-.023c-.45-1.6-.336-2.418.512-3.644l.024-.037.026-.034q.148-.189.277-.36c.408-.534.76-.996 1.549-1.724l.002-.002a.41.41 0 0 0 .104-.44l-.142-.405a3 3 0 0 1-.06-.388v-.004l-.008-.11.002-.08c.03-.881.493-1.576.799-2.035q.074-.11.13-.197l.028-.047.033-.044c.163-.22.428-.827.566-1.204.037-.115.13-.427.209-.652q.082-.256.107-.523a5.3 5.3 0 0 1 .3-1.288l.007-.021.009-.02c.067-.174.115-.316.16-.455.123-.368.262-.786.648-1.261l.077-.094.076-.068c.848-.77 1.777-.925 2.494-.973h.038l.12-.003c.698 0 1.234.286 1.588.476l.083.044.012.006q.145.08.263.138c.22.11.473.137.712.073a9 9 0 0 0 1.753-.698l.01-.006c.537-.31 1.344-.779 2.29-.883q.09-.014.17-.023a18 18 0 0 1 2.122-.138c.955 0 1.705.1 2.296.303l.02.007.02.007c1.415.535 1.931 1.095 2.506 1.829.235.298.456.58.875.953l.04.036.036.037q.17.172.366.315c.251.195.596.462.906.971l.034.057.03.06c.444.909.296 1.787.188 2.428l-.008.05c-.065.405-.181.8-.345 1.174a2.8 2.8 0 0 0-.203.677c-.025.135-.04.241-.053.339l-.009.07a4.5 4.5 0 0 1-.214.973 4.9 4.9 0 0 1-.726 1.426c-.537.772-1.133 1.248-1.925 1.5a1.73 1.73 0 0 0-.924.7l-.063.096-.07.08c-.2.228-.144 1.115-.11 1.645.037.581.077 1.182-.032 1.748-.179.967-.593 1.62-.964 2.194 0 0-1.377 1.986-2.62 2.364l-.09.028-.095.017a4 4 0 0 1-.717.062h-.342c-.084 0-.22 0-.425.014h-.04c-.833.03-1.335.048-1.613.102q-.282.05-.545.163c-.744.33-1.783.485-3.265.485z" opacity=".8"/>
      </g>
    </g>
  </g>
  <defs>
    <linearGradient id="b" x1="21" x2="21" y1="0" y2="61.409" gradientUnits="userSpaceOnUse">
      <stop stop-color="#08021E"/>
      <stop offset="1" stop-color="#1F0777"/>
    </linearGradient>
    <linearGradient id="g" x1="1.568" x2="39.065" y1="1.901" y2="41.257" gradientUnits="userSpaceOnUse">
      <stop offset=".206" stop-color="#89D0FF"/>
      <stop offset=".398" stop-color="#EBBF9A"/>
      <stop offset=".602" stop-color="#EB8280"/>
      <stop offset=".841" stop-color="#A281FF"/>
    </linearGradient>
    <linearGradient id="h" x1="3.028" x2="37.597" y1="3.585" y2="40.015" gradientUnits="userSpaceOnUse">
      <stop offset=".206" stop-color="#89D0FF"/>
      <stop offset=".398" stop-color="#EBBF9A"/>
      <stop offset=".602" stop-color="#EB80DA"/>
      <stop offset=".841" stop-color="#A281FF"/>
    </linearGradient>
    <linearGradient id="i" x1="4.494" x2="36.133" y1="5.048" y2="38.552" gradientUnits="userSpaceOnUse">
      <stop offset=".206" stop-color="#89D0FF"/>
      <stop offset=".398" stop-color="#EBBF9A"/>
      <stop offset=".602" stop-color="#EB8280"/>
      <stop offset=".841" stop-color="#A281FF"/>
    </linearGradient>
    <linearGradient id="j" x1="5.957" x2="34.66" y1="6.517" y2="37.085" gradientUnits="userSpaceOnUse">
      <stop offset=".206" stop-color="#89D0FF"/>
      <stop offset=".398" stop-color="#EBBF9A"/>
      <stop offset=".602" stop-color="#EB80E7"/>
      <stop offset=".841" stop-color="#A281FF"/>
    </linearGradient>
    <linearGradient id="k" x1="7.42" x2="33.192" y1="7.979" y2="35.61" gradientUnits="userSpaceOnUse">
      <stop offset=".206" stop-color="#89D0FF"/>
      <stop offset=".398" stop-color="#EBBF9A"/>
      <stop offset=".602" stop-color="#EB80D3"/>
      <stop offset=".841" stop-color="#A281FF"/>
    </linearGradient>
    <linearGradient id="l" x1="8.88" x2="31.72" y1="9.442" y2="34.146" gradientUnits="userSpaceOnUse">
      <stop offset=".206" stop-color="#89D0FF"/>
      <stop offset=".398" stop-color="#EBBF9A"/>
      <stop offset=".602" stop-color="#A280EB"/>
      <stop offset=".841" stop-color="#A281FF"/>
    </linearGradient>
    <radialGradient id="e" cx="0" cy="0" r="1" gradientTransform="rotate(90 -.913 21.959)scale(18.3821)" gradientUnits="userSpaceOnUse">
      <stop offset=".167" stop-color="#073183"/>
      <stop offset="1" stop-color="#0054F9"/>
    </radialGradient>
    <clipPath id="a">
      <path fill="#fff" d="M0 0h42v42H0z"/>
    </clipPath>
    <filter id="f" width="40.721" height="38.992" x="1.04" y="1.373" color-interpolation-filters="sRGB" filterUnits="userSpaceOnUse">
      <feFlood flood-opacity="0" result="BackgroundImageFix"/>
      <feBlend in="SourceGraphic" in2="BackgroundImageFix" result="shape"/>
      <feColorMatrix in="SourceAlpha" result="hardAlpha" values="0 0 0 0 0 0 0 0 0 0 0 0 0 0 0 0 0 0 127 0"/>
      <feOffset dx=".264" dy=".396"/>
      <feGaussianBlur stdDeviation=".33"/>
      <feComposite in2="hardAlpha" k2="-1" k3="1" operator="arithmetic"/>
      <feColorMatrix values="0 0 0 0 0 0 0 0 0 0 0 0 0 0 0 0 0 0 0.12 0"/>
      <feBlend in2="shape" result="effect1_innerShadow_7277_57976"/>
    </filter>
  </defs>
</svg>
