<svg width="42" height="42" viewBox="0 0 42 42" fill="none" xmlns="http://www.w3.org/2000/svg">
<g clip-path="url(#clip0_7277_57976)">
<mask id="mask0_7277_57976" style="mask-type:alpha" maskUnits="userSpaceOnUse" x="0" y="0" width="42" height="42">
<circle cx="21" cy="21" r="21" fill="url(#paint0_linear_7277_57976)"/>
</mask>
<g mask="url(#mask0_7277_57976)">
<circle cx="21" cy="21" r="21" fill="#34EDB3"/>
<circle cx="21" cy="21" r="18.2" fill="white"/>
</g>
<circle cx="21" cy="21" r="16.1" fill="#06061B"/>
<mask id="mask1_7277_57976" style="mask-type:alpha" maskUnits="userSpaceOnUse" x="4" y="4" width="34" height="34">
<path d="M37.1 21C37.1 29.8918 29.8917 37.1 21 37.1C12.1082 37.1 4.89996 29.8918 4.89996 21C4.89996 12.1082 12.1082 4.90002 21 4.90002C29.8917 4.90002 37.1 12.1082 37.1 21Z" fill="#0E052F"/>
</mask>
<g mask="url(#mask1_7277_57976)">
<path d="M37.4079 21.1568C37.4079 12.1205 30.0825 4.79504 21.0461 4.79504C12.0097 4.79504 4.68433 12.1205 4.68433 21.1568C4.68433 30.1932 12.0097 37.5186 21.0461 37.5186C30.0825 37.5186 37.4079 30.1932 37.4079 21.1568Z" fill="url(#paint1_radial_7277_57976)"/>
<path d="M32.1723 16.0497C32.1038 16.4502 32.0236 16.6444 31.9298 16.8692L31.9296 16.8697C31.8282 17.1133 31.7132 17.3898 31.6092 17.9384C31.5677 18.158 31.5471 18.3192 31.5291 18.4611L31.5279 18.4699L31.5268 18.4782C31.4979 18.7056 31.4785 18.8588 31.3861 19.1314C31.3111 19.354 31.1857 19.7256 30.8838 20.1257C30.6399 20.4495 30.2317 20.9914 29.6869 21.0563C29.6397 21.0595 29.5407 21.0644 29.5004 21.0438C27.955 20.2546 26.6272 19.6716 26.1677 19.5408C25.6331 19.3893 25.7016 18.2238 25.762 17.1955C25.7892 16.7359 25.8148 16.3013 25.7933 15.9292C25.7181 14.6311 25.4883 13.2103 24.3578 12.5175C23.6829 12.1042 22.8122 11.9828 21.9803 11.9811C22.1345 11.9077 22.3064 11.8081 22.4937 11.6991L22.4995 11.6957C22.9893 11.4122 23.5973 11.06 24.2015 10.9981C24.399 10.9785 24.5932 10.9558 24.7847 10.9344C26.0026 10.7965 27.0549 10.678 28.1647 11.058C28.6678 11.2307 29.6998 11.8065 29.9663 12.341C30.1539 12.7184 30.4705 13.0126 31.102 13.5996C31.4307 13.9054 31.6473 14.0834 31.8058 14.2135L31.813 14.2195C32.0356 14.4026 32.0795 14.4408 32.1458 14.5761C32.3504 14.9932 32.2758 15.4362 32.1723 16.0497Z" fill="white"/>
<path d="M26.5506 21.3862C26.6238 21.4114 26.6511 21.5003 26.6086 21.5648C26.4436 21.8152 26.2545 22.1588 26.0279 22.5788C25.9216 22.7769 25.8209 22.9638 25.7364 23.1096C25.4369 23.6239 25.4126 24.0566 25.3936 24.4041C25.3729 24.7673 25.3546 24.9342 25.1375 25.079C24.9583 25.1991 24.7747 25.2391 23.5024 25.4329C23.2803 25.4673 23.1817 25.5103 23.0952 25.5481C23.0715 25.5583 23.0481 25.5685 23.0213 25.5786C22.9477 25.6061 22.8758 25.5435 22.8802 25.4654C22.8902 25.2819 22.8968 25.0529 22.8975 24.7647V24.7095C22.9042 24.4601 22.8938 24.2579 22.8848 24.0947C22.868 23.7699 22.8659 23.6331 22.9525 23.4916C23.0588 23.3207 23.1417 23.2685 23.278 23.1821C23.4683 23.0626 23.7293 22.898 24.1155 22.3672C24.3208 22.0861 24.3663 21.9337 24.3947 21.802C24.407 21.7473 24.4114 21.7269 24.5695 21.6071C24.7365 21.4803 25.2456 21.0946 25.8972 21.2042C26.0774 21.2347 26.3071 21.302 26.5506 21.3862Z" fill="white"/>
<path d="M21.488 27.2525C21.4603 27.2886 21.4278 27.3054 21.3811 27.3077C21.2481 27.3133 21.1547 27.2803 21.0928 27.2059C20.9615 27.0461 20.9792 26.7252 21.0099 26.5375L21.5479 26.3942C21.5901 26.679 21.6098 27.0939 21.488 27.2525Z" fill="white"/>
<path d="M21.5316 25.3106C21.5226 25.3891 21.5128 25.4775 21.5131 25.5699C21.5138 25.6043 21.5142 25.639 21.5152 25.6727C21.5163 25.7607 21.5198 25.9004 21.5076 25.9638C21.3396 26.025 21.196 26.025 21.0073 26.0217C21.0045 25.9672 21.008 25.8859 21.0102 25.8311C21.0112 25.7887 21.0135 25.7466 21.014 25.7064C21.0146 25.6618 21.014 25.6178 21.014 25.5739C21.0133 25.4704 21.0119 25.3008 21.0373 25.2509C21.0879 25.2434 21.1398 25.2323 21.1953 25.2196C21.3066 25.1957 21.4517 25.165 21.5441 25.1789C21.5427 25.2149 21.5371 25.2683 21.5316 25.3106Z" fill="white"/>
<path d="M20.5362 27.0869C20.5103 27.3627 20.4251 27.7037 20.1664 27.7556C20.05 27.7796 19.9938 27.7445 19.9583 27.7111C19.7836 27.5493 19.7557 27.0601 19.78 26.7102C19.8964 26.7123 20.049 26.6862 20.2296 26.6513C20.3398 26.6294 20.4495 26.6051 20.5368 26.585C20.5468 26.7144 20.5541 26.8992 20.5362 27.0869Z" fill="white"/>
<path d="M20.4136 26.0966L19.8299 26.3014C19.8595 26.0748 19.899 25.7559 19.913 25.5441C19.923 25.3949 19.9636 25.3492 19.9752 25.3394C19.9791 25.336 19.9868 25.329 20.0085 25.329C20.0119 25.329 20.0152 25.3295 20.0189 25.3295L20.0313 25.3313L20.4 25.3112C20.4157 25.4845 20.4157 25.8653 20.4136 26.0966Z" fill="white"/>
<path d="M19.4707 25.9152C19.4377 26.003 19.3987 26.2519 19.3744 26.427L18.6432 26.4048C18.6845 26.1783 18.7417 25.9478 18.8044 25.7643C18.8679 25.5817 18.9363 25.4449 18.9993 25.4064C19.0727 25.3624 19.2342 25.3525 19.3331 25.4369C19.494 25.5742 19.5384 25.7311 19.4707 25.9152Z" fill="white"/>
<path d="M19.1977 28.1531C19.1411 28.2305 19.0781 28.2698 19.0002 28.2781C18.9207 28.2871 18.8588 28.2693 18.8094 28.2231C18.5798 28.0111 18.5985 27.3166 18.6069 26.9828C18.9101 26.9137 19.2374 26.8549 19.3926 26.8459C19.4159 27.1255 19.4226 27.8471 19.1977 28.1531Z" fill="white"/>
<path d="M18.2433 26.3849C18.2077 26.4801 18.1731 26.5701 18.147 26.6498C18.062 26.6764 17.8021 26.6532 17.5367 26.5946L17.7192 25.4439C18.019 25.3644 18.3668 25.3388 18.4509 25.4279C18.5616 25.5455 18.3391 26.1341 18.2433 26.3849Z" fill="white"/>
<path d="M17.9125 28.3283C17.7707 28.503 17.5581 28.5847 17.2614 28.5815C17.0562 28.5782 16.9828 28.5002 16.9461 28.4418C16.7814 28.181 16.9426 27.5661 17.1041 27.1733L18.0945 27.2328C18.1046 27.3017 18.1129 27.3857 18.1167 27.477C18.1277 27.7565 18.0926 28.1047 17.9125 28.3283Z" fill="white"/>
<path d="M26.097 19.9779C25.2054 19.7253 25.2821 18.4216 25.3563 17.1615C25.3826 16.7157 25.4075 16.2941 25.3872 15.9495C25.3188 14.77 25.1204 13.4855 24.1718 12.904C23.1514 12.2801 21.4822 12.4222 20.4523 12.5533C20.4515 12.5535 20.4506 12.554 20.4497 12.5542C20.4492 12.5542 20.4488 12.5542 20.4485 12.5543C20.0712 12.6686 19.7184 12.7427 19.4448 12.7282C18.8371 12.6968 18.3643 12.4409 17.948 12.2164C17.6231 12.0404 17.3397 11.8884 17.0729 11.8884C17.0588 11.8884 17.044 11.8884 17.0293 11.889C16.231 11.9408 15.864 12.1358 15.5307 12.4334C15.4469 12.5074 15.3447 12.7224 15.0099 13.6869C14.841 14.1743 14.8098 14.4409 14.7784 14.7002C14.7502 14.937 14.7214 15.1806 14.5955 15.5439C14.5079 15.7946 14.4431 16.0108 14.3805 16.2193C14.2155 16.7732 14.085 17.2095 13.6929 17.7283C13.6469 17.7897 13.59 17.88 13.524 17.9828C13.4351 18.1228 13.3251 18.2969 13.1799 18.4985C13.0775 18.6404 12.8422 19.1718 12.8551 19.3337C12.8743 19.5915 12.9581 19.7514 13.054 19.9382C13.1494 20.1223 13.2581 20.3308 13.2778 20.6186L13.2812 20.6653C13.3161 21.1219 13.251 21.351 12.3825 22.1267C11.8271 22.6237 11.4326 23.1023 11.1665 23.4536C11.1431 23.4846 11.1736 23.5307 11.2124 23.5275C11.2214 23.5263 11.2304 23.5257 11.2387 23.5257C11.2554 23.5243 11.272 23.5238 11.2886 23.5238C11.3051 23.5238 11.3219 23.5243 11.3383 23.525C11.355 23.5257 11.3711 23.527 11.3875 23.5294C11.5975 23.5534 11.8023 23.6423 11.9501 23.7954C11.9758 23.822 12.0158 23.8292 12.05 23.8155C12.1915 23.7566 12.3468 23.7663 12.4953 23.7802C12.6787 23.7971 12.8639 23.852 12.9856 23.9703C13.0223 24.0061 13.0746 24.0243 13.1247 24.0128C13.2685 23.9802 13.4192 23.9832 13.5591 24.034C13.6695 24.0751 13.7623 24.14 13.836 24.2216C13.8875 24.2787 13.9788 24.2897 14.0434 24.2481C14.0836 24.2221 14.1278 24.2003 14.177 24.1837C14.3655 24.1197 14.5742 24.1562 14.7572 24.222C14.8473 24.2544 14.9419 24.2833 15.0232 24.3377C15.1725 24.4371 15.2637 24.5824 15.3219 24.7448C15.3549 24.8364 15.4782 24.8681 15.5529 24.8059C15.6873 24.6941 15.7936 24.6752 15.9009 24.7228C15.9555 24.7475 15.9936 24.7814 16.0192 24.8239C16.0638 24.8977 16.1546 24.9586 16.2377 24.9353C16.5296 24.854 16.895 24.8963 17.1597 25.0381C17.2531 25.0871 17.345 25.1621 17.412 25.2753C17.4122 25.2753 17.4122 25.2753 17.4122 25.2755C17.4124 25.276 17.4129 25.2758 17.4129 25.2753L17.4207 25.2251C17.4242 25.2023 17.4402 25.1834 17.4623 25.1766L17.5237 25.1577C17.6683 25.1117 18.4051 24.8993 18.6916 25.2011C18.704 25.2134 18.7255 25.2147 18.7375 25.2018C18.7765 25.1589 18.8082 25.1355 18.8285 25.1238C19.0151 25.0106 19.3351 25.0036 19.548 25.1859C19.5909 25.2219 19.6603 25.2088 19.6926 25.163C19.7125 25.1349 19.7351 25.1101 19.7605 25.0887C19.8353 25.0242 19.93 24.9933 20.0349 24.9999L20.4396 24.978C20.5414 24.9723 20.8578 24.9508 20.9574 24.9298C20.965 24.9283 20.9728 24.9268 20.9807 24.9256C21.0228 24.9191 21.0729 24.9083 21.1253 24.8974C21.3216 24.8545 21.5443 24.8064 21.7272 24.8909C21.9028 24.9722 21.8806 25.1723 21.8595 25.3489C21.8512 25.4205 21.8422 25.4952 21.8429 25.5663C21.8441 25.5994 21.8448 25.6328 21.8453 25.6668C21.848 25.819 21.8512 25.9596 21.821 26.0675C21.821 26.0677 21.821 26.068 21.821 26.0682C21.821 26.0684 21.821 26.0685 21.821 26.0687L21.8395 26.1523C21.8404 26.1555 21.8413 26.1595 21.8423 26.1645C21.8589 26.241 21.9411 26.2837 22.0079 26.243C22.149 26.1569 22.2973 26.0451 22.3421 25.9807C22.3455 25.9758 22.3481 25.9707 22.3501 25.965C22.3562 25.9488 22.3677 25.9137 22.3802 25.8403C22.4053 25.6899 22.4333 25.3843 22.4358 24.7637C22.4358 24.7309 22.4358 24.7075 22.4365 24.6965C22.4416 24.4662 22.4326 24.2814 22.4236 24.1183C22.407 23.7818 22.3934 23.5171 22.5605 23.2476C22.723 22.9854 22.8809 22.8863 23.0325 22.7902C23.2089 22.6796 23.408 22.554 23.7432 22.0943C23.9076 21.8678 23.9279 21.7765 23.9439 21.7035C23.9804 21.5326 24.0369 21.4298 24.2906 21.2379C24.4973 21.0818 25.126 20.6053 25.9743 20.748C26.2524 20.7953 26.7033 20.9436 27.1483 21.1189C27.1484 21.119 27.1486 21.1191 27.149 21.1191C27.1491 21.1191 27.1493 21.1191 27.1495 21.1191C27.1661 21.124 27.1832 21.1298 27.1989 21.1381C27.2045 21.1411 27.2103 21.1439 27.2163 21.1464C27.6138 21.3051 28.0006 21.4823 28.2483 21.6239C28.306 21.6569 28.3799 21.6379 28.4205 21.5851C28.5016 21.4799 28.5901 21.4188 28.6855 21.3615C28.7213 21.3398 28.7488 21.3233 28.7751 21.3009C28.7841 21.2933 28.7929 21.2859 28.8016 21.2788C28.8756 21.2189 28.8754 21.0907 28.7906 21.0469C27.5951 20.4288 26.4691 20.0837 26.097 19.9779ZM17.6007 20.2523C17.3249 21.4592 15.4552 22.7859 14.6054 22.7859H14.5886C14.5752 22.7852 14.5604 22.784 14.5445 22.7813C14.5285 22.7789 14.5112 22.775 14.4929 22.7699C14.4839 22.7672 14.4742 22.7641 14.4647 22.7616C14.3104 22.7129 14.0968 22.5944 13.9351 22.4353C13.8238 22.3262 13.7361 22.1973 13.7086 22.0585C13.7035 22.0341 13.6984 22.01 13.6931 21.9856C13.6473 21.7804 13.5901 21.524 13.7712 21.1042C13.7963 21.048 13.8185 20.9954 13.839 20.9475C13.8455 20.9316 13.8525 20.9155 13.8589 20.9002C13.8781 20.8549 13.8952 20.8133 13.9107 20.7755C13.9363 20.7117 13.9573 20.6574 13.9746 20.6112C13.9816 20.5932 13.9882 20.5759 13.9938 20.56C14.0456 20.4149 14.052 20.3606 14.059 20.3043C14.0656 20.2602 14.0719 20.2063 14.0899 20.1295C14.143 19.9031 14.1705 19.7112 14.1948 19.5403C14.2384 19.2331 14.2761 18.9679 14.4417 18.7242C14.47 18.6827 14.5012 18.6448 14.5364 18.6117C14.5486 18.6002 14.5602 18.5893 14.5728 18.5783C14.5856 18.5674 14.5985 18.5579 14.611 18.5482C14.6512 18.52 14.6943 18.4951 14.7408 18.4739C14.7569 18.4669 14.7729 18.4598 14.7888 18.4542C14.8216 18.442 14.856 18.4316 14.892 18.4226C15.0441 18.3858 15.2239 18.3799 15.4304 18.406C15.6563 18.424 15.8654 18.4667 16.0508 18.5186C16.2056 18.5612 16.3439 18.6113 16.4608 18.6579C16.473 18.6625 16.4846 18.6669 16.4961 18.672C16.5185 18.681 16.5401 18.69 16.5613 18.6997C16.5934 18.7131 16.6227 18.726 16.6502 18.7379C16.6867 18.7545 16.72 18.7693 16.7495 18.7826L16.777 18.7954C16.9075 18.8549 17.0196 18.9201 17.1154 18.9885C17.1627 19.0233 17.2069 19.0584 17.2464 19.094C17.26 19.1056 17.2729 19.1178 17.2847 19.1305C17.2976 19.1428 17.3097 19.155 17.3212 19.1672C17.6804 19.5455 17.6626 19.983 17.6007 20.2523ZM18.4671 15.6775L18.4308 15.8964C18.3471 16.3895 18.1545 17.0656 17.4445 17.2397C16.7615 17.4067 16.5996 17.4423 16.1134 17.4642C16.1026 17.4654 16.091 17.4654 16.0795 17.4654C15.7245 17.4654 15.0413 17.2416 14.9204 16.685C14.8429 16.3269 15.0009 16.0673 15.2612 15.6368C15.3046 15.5657 15.3515 15.4895 15.4013 15.4045C15.7453 14.8249 15.8809 14.4053 15.9899 14.0688C16.0959 13.7401 16.1843 13.4684 16.4114 13.2432C16.4638 13.1908 16.5232 13.1414 16.5923 13.0941C16.6364 13.064 16.6825 13.0372 16.7311 13.0121C16.7957 12.98 16.8634 12.9522 16.9345 12.9296C17.0925 12.8792 17.2632 12.8536 17.4341 12.8536C17.7653 12.8536 18.0961 12.9488 18.3321 13.1382C18.4382 13.2232 18.5892 13.3932 18.6768 13.8948C18.722 14.1531 18.6451 14.6279 18.4671 15.6775ZM23.5325 17.0809C23.2881 17.5005 23.1544 17.7315 22.9433 17.9047C22.5245 18.2487 22.0358 18.3359 21.6334 18.3359C21.3443 18.3359 21.0988 18.2912 20.9542 18.2648C20.5384 18.1888 19.7646 18.0481 19.5067 17.4372C19.4563 17.3164 19.4558 17.2397 19.4558 17.1423C19.4558 17.0462 19.4558 16.8847 19.411 16.5L19.4085 16.4745C19.3879 16.3004 19.365 16.1034 19.4149 15.8507L19.4207 15.8205C19.5665 15.0788 19.606 14.9654 19.6388 14.9014C19.7143 14.7556 19.8933 14.6981 20.0391 14.773C20.1804 14.8466 20.2393 15.0178 20.1728 15.1617C20.158 15.2038 20.1166 15.3619 20.0039 15.9357L19.9981 15.9659C19.966 16.1278 19.9801 16.2505 19.9988 16.406L20.0012 16.4323C20.0497 16.8499 20.0497 17.0391 20.0497 17.1416C20.0497 17.1598 20.0497 17.1795 20.0504 17.1913C20.0506 17.1959 20.0529 17.2019 20.0543 17.2063C20.1026 17.321 20.2116 17.4079 20.3444 17.4747C20.4269 17.5162 20.5132 17.4373 20.4948 17.3469C20.3628 16.6931 20.37 15.9306 20.6197 15.4594C20.7015 15.303 20.8528 15.0469 20.9966 14.8079C20.9971 14.8072 20.9974 14.8067 20.9978 14.806C20.9982 14.8053 20.9987 14.8048 20.999 14.8041C21.0137 14.7799 21.0281 14.7561 21.0426 14.7321C21.0548 14.7115 21.0669 14.6919 21.0782 14.6727C21.1415 14.5676 21.201 14.4711 21.2486 14.3944C21.2549 14.3835 21.2613 14.3725 21.2678 14.3623C21.2722 14.3545 21.2768 14.3475 21.2812 14.3411C21.2914 14.3244 21.3004 14.309 21.3089 14.2958C21.3126 14.2895 21.3165 14.2836 21.3196 14.2778C21.3216 14.2754 21.323 14.2727 21.3242 14.2708C21.3286 14.263 21.3332 14.256 21.3371 14.2503C21.3447 14.2381 21.3505 14.2292 21.3537 14.2233C21.354 14.2228 21.3542 14.2224 21.3544 14.2219C21.3551 14.2207 21.3565 14.2187 21.3572 14.2175C21.3577 14.2166 21.3579 14.2165 21.3584 14.2156C21.408 14.1434 21.457 14.0748 21.5046 14.0103C21.5694 13.9227 21.4944 13.8078 21.3935 13.8491C21.1509 13.948 20.9851 14.0745 20.9514 14.1011C20.8229 14.2036 20.6359 14.1824 20.5343 14.0539C20.4326 13.9255 20.4538 13.738 20.5823 13.6356C20.7352 13.5155 21.5455 12.9243 22.516 13.2019C23.2153 13.4008 23.5817 13.935 23.7198 14.1359C23.8311 14.299 24.1721 14.7942 24.1612 15.4855C24.1531 16.0128 23.9332 16.3921 23.5325 17.0809Z" fill="white"/>
<path d="M17.2299 13.4652C17.1802 13.5855 17.1208 13.7345 17.0569 13.8964C16.9077 14.2713 16.7386 14.696 16.6573 14.8499C16.5171 15.116 16.408 15.2839 16.3208 15.4192C16.221 15.5746 16.1415 15.6975 16.0815 15.8689C15.9762 16.1687 15.9574 16.5038 16.0258 16.8681C15.8399 16.8476 15.5357 16.7196 15.5013 16.5583C15.4756 16.4382 15.5502 16.3068 15.7701 15.9451C15.8142 15.8729 15.8614 15.7945 15.9131 15.7072C16.291 15.0707 16.4439 14.5972 16.5564 14.251C16.6778 13.8743 16.7351 13.7163 16.9282 13.5844C17.0146 13.5243 17.1197 13.486 17.2299 13.4652Z" fill="white"/>
<path d="M16.8608 26.8122C16.6549 27.2329 16.3985 27.6213 16.2387 27.8137C16.1064 27.456 15.8765 26.6365 15.9371 25.9771C15.9389 25.9581 15.941 25.9392 15.9438 25.9209C15.9682 25.7172 16.0223 25.5304 16.1186 25.3807C16.1821 25.2823 16.3579 25.2222 16.5575 25.2222C16.7049 25.2222 16.8653 25.2544 17.0033 25.3285H17.0044C17.0783 25.368 17.179 25.4481 17.1896 25.6807C17.2047 25.9949 17.055 26.4173 16.8608 26.8122Z" fill="white"/>
<path d="M28.1464 22.0971C28.1623 22.11 28.1724 22.1294 28.1632 22.1477C28.1016 22.2713 28.0279 22.3581 27.9408 22.4602C27.8357 22.5854 27.7154 22.7274 27.6036 22.9487C27.4444 23.2624 27.3934 23.5487 27.3666 24.2814C27.335 25.1422 27.3684 25.6257 27.3934 25.9783C27.4172 26.3188 27.4319 26.5241 27.3712 26.8561C27.2488 27.5261 26.9622 27.9696 26.5993 28.531C26.1452 29.233 25.6756 29.9587 24.8979 30.1901C24.8256 30.2123 24.8231 30.2123 24.6203 30.213C24.4437 30.213 24.1501 30.2137 23.5943 30.2342C22.5783 30.271 22.0686 30.2894 21.6325 30.3731C21.1751 30.4617 20.9365 30.559 20.7051 30.6525C20.4963 30.7369 20.2989 30.8172 19.9207 30.895C19.6951 30.9405 19.3581 30.9902 18.2097 30.992C17.0162 30.9941 16.2956 30.9946 15.3442 30.8861C14.0388 30.7371 13.3835 30.6625 12.9482 30.4301C11.9217 29.8825 11.4882 28.8978 10.7712 27.2663C10.7699 27.2635 10.7687 27.2607 10.7675 27.2577C10.7586 27.2374 10.7833 27.2178 10.8024 27.2291C10.8364 27.2503 10.8719 27.2677 10.9093 27.2803C10.9406 27.2914 10.9733 27.2998 11.0062 27.3053C11.0719 27.3164 11.1403 27.3171 11.2098 27.3053C11.2219 27.3032 11.233 27.3004 11.2438 27.296C11.2459 27.2951 11.2479 27.294 11.25 27.2931C11.2621 27.2871 11.2771 27.2921 11.2822 27.3046C11.3279 27.4303 11.4004 27.5423 11.5221 27.6069C11.6439 27.6704 11.7826 27.6753 11.9182 27.6742C12.0578 27.6721 12.1986 27.6642 12.3377 27.6474C12.4114 27.6397 12.4869 27.6758 12.5151 27.7444C12.6426 28.0534 12.8005 28.277 13.0376 28.31C13.0505 28.3118 13.0673 28.3139 13.0884 28.3139C13.1419 28.3139 13.2244 28.2983 13.3408 28.2183C13.4309 28.1566 13.5704 28.1929 13.6351 28.2809C13.6944 28.3611 13.7649 28.4188 13.8256 28.4675C14.0698 28.7182 14.6634 28.8385 15.162 28.8385C15.4339 28.8385 15.6778 28.8027 15.8214 28.7329C16.0266 28.6332 16.0266 28.4803 16.0166 28.4184C15.9991 28.3075 15.9833 28.1975 15.9699 28.0885C15.9683 28.0754 15.988 28.0703 15.9933 28.0825C16.0231 28.1476 16.0596 28.2287 16.1568 28.2444C16.1674 28.2454 16.1792 28.2477 16.1926 28.2477C16.3316 28.2477 16.5478 28.2931 16.585 28.4269C16.604 28.4952 16.6308 28.559 16.6673 28.6167C16.7507 28.7487 16.9206 28.9061 17.2572 28.9117H17.2833C17.6699 28.9117 17.9683 28.7853 18.1695 28.5354C18.1825 28.5193 18.1951 28.5027 18.2071 28.486C18.2794 28.3841 18.4942 28.3796 18.586 28.4643C18.6896 28.5601 18.8199 28.6094 18.965 28.6094C18.9883 28.6094 19.0119 28.6084 19.0363 28.6056C19.2093 28.5872 19.359 28.4955 19.4708 28.3391C19.544 28.237 19.5974 28.1114 19.6364 27.9756C19.6479 27.9356 19.7029 27.9238 19.7336 27.9518C19.8075 28.0202 19.926 28.0925 20.0968 28.0925C20.1385 28.0925 20.1836 28.0881 20.2316 28.0781C20.5674 28.0105 20.7345 27.7326 20.8137 27.4189C20.8164 27.4083 20.8315 27.4055 20.8386 27.4138C20.9236 27.5173 21.0805 27.6368 21.3537 27.6368C21.3676 27.6368 21.3821 27.6368 21.3964 27.6361C21.541 27.6294 21.6629 27.566 21.7509 27.4524C21.8579 27.3129 21.9 27.106 21.9097 26.8979C21.9126 26.8373 21.9517 26.784 22.0078 26.7606C22.296 26.6401 22.645 26.3807 22.7472 26.204C22.7508 26.1978 22.7543 26.1913 22.7578 26.1846C22.7813 26.1391 22.8215 26.1031 22.8717 26.0936C23.095 26.0513 23.1924 26.0091 23.2809 25.9707C23.353 25.9389 23.411 25.9139 23.5733 25.8887C24.8642 25.6917 25.1162 25.6483 25.3955 25.4621C25.8133 25.1834 25.8345 24.7999 25.8551 24.4288C25.8727 24.1151 25.8928 23.759 26.1366 23.3413C26.2251 23.1887 26.3272 22.9984 26.4358 22.797C26.6259 22.4445 26.8915 21.9509 27.0816 21.6922C27.1174 21.6433 27.1821 21.6282 27.2379 21.6518C27.684 21.8414 28.0641 22.0311 28.1464 22.0971Z" fill="white"/>
<path d="M15.61 25.9384C15.5589 26.3847 15.5277 26.9809 15.6 27.7576C15.6204 27.9768 15.649 28.2043 15.6845 28.4348C15.6233 28.4681 15.4406 28.5149 15.1157 28.5097C14.6489 28.5004 14.1945 28.3829 14.058 28.2353L14.0368 28.2163C13.9232 28.1251 13.8488 28.065 13.8382 27.902C13.8347 27.847 13.8583 27.7925 13.9088 27.7155C13.9366 27.6721 13.9733 27.622 14.0188 27.5603C14.0973 27.455 14.1946 27.3238 14.2943 27.1545C14.5865 26.6609 14.6972 26.5085 14.838 26.3159C14.8491 26.3004 14.8609 26.2847 14.8731 26.2687C14.956 26.1551 15.0533 26.0193 15.1997 25.7962C15.3087 25.6306 15.3993 25.5008 15.4741 25.3989C15.5988 25.2294 15.6804 25.1374 15.7328 25.0873C15.725 25.1642 15.7077 25.2721 15.691 25.3717C15.6663 25.525 15.6351 25.7124 15.61 25.9384Z" fill="white"/>
<path d="M15.3963 18.9994C15.3935 19.0033 15.3902 19.0071 15.3873 19.0112C15.3267 19.0953 15.2572 19.1904 15.1743 19.3755C14.9518 19.8702 14.9475 20.1503 14.944 20.3755C14.9419 20.4934 14.9406 20.5874 14.9084 20.6971C14.8862 20.7694 14.85 20.8523 14.8082 20.9479C14.677 21.2484 14.5056 21.6424 14.5825 22.1725C14.4761 22.1213 14.3135 22.0044 14.291 21.9422C14.2853 21.9132 14.2792 21.8849 14.2726 21.8565C14.2358 21.691 14.2114 21.5833 14.3165 21.3412C14.5931 20.7035 14.6271 20.5523 14.6488 20.3786C14.6532 20.3407 14.6578 20.3113 14.6689 20.2633C14.7273 20.0118 14.7578 19.7965 14.7828 19.6235C14.82 19.3609 14.8451 19.1872 14.9336 19.0565C14.9659 19.0082 15.0572 18.9832 15.1879 18.9832C15.2396 18.9832 15.2979 18.987 15.3616 18.996L15.3764 18.9971C15.3829 18.9978 15.3898 18.9983 15.3963 18.9994Z" fill="white"/>
<path d="M15.0315 25.2899C15.0165 25.137 14.9897 24.9837 14.9341 24.8396C14.9303 24.8324 14.9137 24.7955 14.9102 24.7885C14.9001 24.7702 14.8886 24.7529 14.8779 24.7347C14.8772 24.734 14.8768 24.734 14.8768 24.7335C14.8761 24.7324 14.8758 24.7324 14.8758 24.7319C14.8696 24.7252 14.864 24.7187 14.858 24.7123C14.849 24.7033 14.8393 24.6947 14.8296 24.6867C14.8278 24.6846 14.8262 24.6829 14.8246 24.6822C14.8202 24.6785 14.8135 24.6732 14.8063 24.6689C14.7945 24.6628 14.7834 24.6561 14.7719 24.6502C14.7684 24.6479 14.7601 24.6446 14.7523 24.6418C14.7523 24.6418 14.7518 24.6418 14.7518 24.6412C14.75 24.6405 14.7483 24.6402 14.7469 24.6395C14.7451 24.6384 14.744 24.6377 14.743 24.6374C14.7412 24.6367 14.7402 24.6363 14.7391 24.6363C14.738 24.6363 14.738 24.6356 14.738 24.6356C14.7345 24.6338 14.7324 24.6335 14.7308 24.6328C14.6418 24.6002 14.5515 24.5643 14.4569 24.5504C14.4564 24.5504 14.4548 24.5499 14.4536 24.5499H14.4515C14.4409 24.5499 14.4192 24.5478 14.4181 24.5478C14.4049 24.5471 14.392 24.5471 14.3792 24.5478C14.373 24.5478 14.367 24.5478 14.3614 24.5483H14.3564C14.3543 24.5483 14.3516 24.549 14.3488 24.549C14.3478 24.5501 14.346 24.5501 14.3453 24.5501C14.3448 24.5501 14.3442 24.5501 14.3442 24.5501C14.3231 24.5562 14.3009 24.5619 14.2797 24.5684C14.2707 24.573 14.2608 24.5774 14.2518 24.583C14.2443 24.5875 14.2363 24.5931 14.2286 24.597C14.228 24.5975 14.227 24.5986 14.2257 24.5986L14.2241 24.6003C14.2141 24.6104 14.2035 24.6197 14.1935 24.6298C14.1901 24.6333 14.1808 24.6448 14.1741 24.6532C14.1723 24.6543 14.1712 24.6553 14.1712 24.6564C14.1707 24.6569 14.1707 24.6569 14.1702 24.6575C14.1697 24.658 14.1697 24.6585 14.1684 24.6591C14.1679 24.6598 14.1679 24.6603 14.1674 24.6603C14.1647 24.665 14.1619 24.6691 14.1608 24.6714C14.125 24.7269 14.0889 24.7821 14.0517 24.837C13.966 24.9684 13.8781 25.099 13.7891 25.2288C13.7078 25.3463 13.6267 25.4637 13.5459 25.581C13.5007 25.6468 13.4563 25.7117 13.4119 25.7775C13.4041 25.7886 13.3969 25.7997 13.3896 25.8108C13.4424 25.8209 13.4953 25.8313 13.5487 25.8413C13.6683 25.8632 13.7873 25.8842 13.9087 25.9007C14.1584 25.9348 14.4123 25.9505 14.6654 25.9415C14.6776 25.9408 14.6897 25.9415 14.701 25.9436C14.7618 25.8568 14.8334 25.7533 14.9248 25.6147C14.9754 25.5373 15.0237 25.4657 15.0692 25.3994C15.0488 25.3676 15.0359 25.3297 15.0315 25.2899Z" fill="white"/>
<path d="M14.142 26.3219C14.1205 26.5144 13.905 27.0128 13.5689 27.4874C13.2874 27.8842 13.1165 27.9804 13.0825 27.9838C12.9467 27.9649 12.8127 27.6288 12.7063 27.2955C12.6637 27.1604 12.625 27.0257 12.5928 26.9128C12.5199 26.6592 12.5067 26.319 12.5194 26.1055C12.8033 26.2628 13.3017 26.3051 14.0018 26.3079H14.0039C14.0501 26.3129 14.0958 26.318 14.142 26.3219Z" fill="white"/>
<path d="M13.6441 24.7362C13.6441 24.7369 13.6441 24.7369 13.6441 24.7372C13.6408 24.7418 13.638 24.7468 13.6348 24.7512C13.5145 24.9281 13.3934 25.1041 13.272 25.2802C13.2092 25.3711 13.147 25.4617 13.0851 25.5531C13.0512 25.6026 13.0056 25.6571 12.9661 25.716C12.8664 25.6925 12.767 25.6698 12.6684 25.6419C12.5878 25.6187 12.5082 25.5936 12.4301 25.5624C12.4144 25.5568 12.3994 25.5506 12.385 25.5435C12.3721 25.5174 12.3538 25.494 12.3315 25.4762C12.3321 25.4756 12.3321 25.474 12.3326 25.4733C12.361 25.4155 12.3899 25.3571 12.4183 25.2993C12.4723 25.1931 12.5264 25.0875 12.5864 24.985C12.6934 24.8002 12.8223 24.6122 13.0033 24.4925C13.0123 24.4858 13.0221 24.4796 13.0317 24.4736C13.1018 24.4295 13.172 24.3985 13.2581 24.3879C13.2681 24.3868 13.3288 24.3872 13.3572 24.3897C13.3621 24.3897 13.3662 24.3902 13.369 24.3902H13.3695C13.3717 24.3909 13.3757 24.3919 13.3817 24.3941C13.4029 24.4008 13.4242 24.4052 13.4454 24.4124C13.4526 24.4159 13.4591 24.4191 13.4665 24.423C13.4849 24.4341 13.5038 24.4441 13.521 24.4581C13.4932 24.4369 13.5595 24.5053 13.5595 24.5004C13.6129 24.5743 13.6291 24.6362 13.6441 24.7362Z" fill="white"/>
<path d="M12.6919 24.2347C12.4693 24.4177 12.3074 24.6614 12.1723 24.915C12.0965 25.0558 12.0281 25.1993 11.9568 25.3423C11.9496 25.357 11.9424 25.3709 11.9341 25.3852C11.8667 25.3706 11.7994 25.3512 11.7336 25.3302C11.6636 25.308 11.5939 25.2824 11.5272 25.2513C11.4967 25.2367 11.4661 25.2217 11.4355 25.2057C11.5022 25.0794 11.5817 24.9581 11.6576 24.8403C11.7644 24.6738 11.8801 24.5103 12.0059 24.3567C12.0531 24.2983 12.1032 24.2343 12.1695 24.1959C12.2372 24.1558 12.3192 24.1654 12.397 24.1698C12.4794 24.1749 12.5679 24.177 12.6457 24.2082C12.6617 24.2151 12.6792 24.2259 12.6919 24.2347Z" fill="white"/>
<path d="M12.3383 27.2215C12.3272 27.2308 12.3179 27.2409 12.3096 27.2527C12.3018 27.2548 12.2939 27.2566 12.289 27.2578C12.2355 27.2633 12.181 27.2672 12.1271 27.2707C12.0235 27.2772 11.9184 27.2818 11.8139 27.2779C11.7555 27.2758 11.7026 27.2668 11.6786 27.2296C11.6402 27.1712 11.6285 27.0693 11.6148 26.9919C11.5463 26.6118 11.5373 26.2159 11.5858 25.8313C11.7844 25.9025 11.9888 25.9577 12.1983 25.9921C12.1532 26.3388 12.23 26.8478 12.275 27.0037C12.296 27.0762 12.3172 27.1495 12.3383 27.2215Z" fill="white"/>
<path d="M11.6996 24.108C11.5238 24.3239 11.3636 24.5537 11.2199 24.7918C11.1619 24.8886 11.0963 24.9888 11.048 25.0923C10.9783 25.0729 10.9155 25.045 10.8489 25.0037C10.7977 24.972 10.748 24.9369 10.6997 24.9002C10.6875 24.8902 10.6542 24.8641 10.6334 24.8473C10.6286 24.8436 10.624 24.8397 10.6189 24.8369C10.6349 24.7914 10.6644 24.7406 10.6806 24.7066C10.7175 24.626 10.7586 24.5468 10.8016 24.4697C10.8833 24.3251 10.9746 24.1837 11.0781 24.0536C11.1166 24.0056 11.1531 23.9439 11.2129 23.9261C11.2673 23.9105 11.3391 23.9178 11.383 23.9253C11.5132 23.9506 11.6151 24.0096 11.6996 24.108Z" fill="white"/>
<path d="M10.3448 25.0451C10.3473 25.0359 10.3593 25.0347 10.3647 25.0425C10.4109 25.1082 10.4753 25.1654 10.5444 25.2192C10.5753 25.2426 10.6058 25.2659 10.637 25.2879C10.6409 25.2908 10.6427 25.2955 10.6416 25.3003C10.5688 25.602 10.519 25.9225 10.5199 26.2381C10.5199 26.2521 10.4989 26.2549 10.4958 26.2413C10.4067 25.8738 10.2857 25.2611 10.3448 25.0451Z" fill="white"/>
<path d="M11.2056 25.7013C11.17 25.9639 11.1529 26.2272 11.1643 26.4919C11.17 26.637 11.1855 26.7813 11.2051 26.9247C11.2051 26.9257 11.2051 26.927 11.2056 26.9275V26.9282C11.1744 26.921 11.1418 26.9199 11.1084 26.9247C11.115 26.9225 11.0979 26.9236 11.0906 26.9236H11.0885C11.0836 26.9231 11.0763 26.9225 11.0739 26.922C11.0372 26.913 11.034 26.9091 11.0049 26.8908C10.967 26.8663 10.927 26.8217 10.9003 26.7762C10.8296 26.6538 10.8141 26.5051 10.8085 26.3665C10.7981 26.0946 10.8213 25.823 10.8721 25.5565C10.9155 25.5742 10.9532 25.5904 11.0162 25.6175C11.0785 25.6447 11.143 25.6715 11.206 25.7006V25.7013H11.2056Z" fill="white"/>
<g opacity="0.8" filter="url(#filter0_i_7277_57976)">
<path opacity="0.8" d="M18.1492 39.4424C16.9509 39.4424 15.8143 39.3668 14.8606 39.2925L14.5977 39.2721L14.3351 39.2356C14.2203 39.2193 14.0642 39.2026 13.9136 39.1862C12.996 39.0864 11.2897 38.9005 9.40605 38.0159L9.11348 37.878L8.84066 37.7253C5.22051 35.696 3.86559 32.6421 3.13602 31.0003C3.08964 30.8961 3.03321 30.7691 2.98031 30.6522C2.61191 29.8984 2.37912 29.2189 2.18161 28.5969L2.1377 28.458L2.10119 28.3231C1.57566 26.4555 1.44287 24.8428 1.68359 23.248C1.92484 21.6467 2.51809 20.1899 3.54851 18.665L4.08286 17.7924C4.19132 17.6162 4.26785 17.4222 4.30912 17.2194C4.71649 15.2004 5.64093 13.7701 6.09521 13.0871C6.22025 12.2602 6.4264 11.4478 6.71068 10.6614L6.75301 10.5422L6.79833 10.426C6.80574 10.4055 6.81526 10.3766 6.83272 10.3239C7.03676 9.70929 7.5152 8.27096 8.74014 6.76068L9.20024 6.20341L9.66899 5.77999C10.8731 4.68572 12.3077 3.87591 13.8667 3.41034C14.7372 3.15075 15.6345 2.99204 16.5411 2.93737L16.6287 2.93084L16.7608 2.92467C16.9176 2.91726 17.0738 2.91374 17.2262 2.91374C17.7919 2.91268 18.3568 2.96029 18.9142 3.05588C19.2627 3.1146 19.6205 3.07369 19.9466 2.9379C20.9132 2.53458 21.9293 2.26176 22.9679 2.12668C23.0546 2.11433 23.1303 2.10481 23.1899 2.09705C23.3537 2.07659 23.614 2.04591 23.9286 2.01593C24.4771 1.96355 25.3181 1.90112 26.2299 1.90112C28.0103 1.90112 29.543 2.13179 30.915 2.60618L31.0318 2.64674L31.1459 2.68959C34.1736 3.83377 35.715 5.43222 36.8235 6.84233L36.8761 6.90952L37.0286 7.04514C38.0299 7.82867 38.8815 8.78644 39.5423 9.87277L39.749 10.2128L39.9234 10.5694C41.4044 13.5924 40.9337 16.3837 40.7563 17.4325L40.7468 17.4885C40.6193 18.2622 40.4163 19.0216 40.1409 19.7557C40.0395 20.4636 39.8728 21.1605 39.6428 21.8376C39.2498 23.0412 38.6697 24.1753 37.9241 25.1986C37.4949 25.8058 37.0101 26.3719 36.4761 26.8895C36.2872 27.072 36.1648 27.3124 36.1283 27.5723C36.1052 27.7325 36.0789 27.8908 36.049 28.0476C35.6148 30.3763 34.5964 31.997 34.1807 32.6425L32.9238 34.4476C31.4102 36.3333 29.6142 37.5771 27.441 38.2455L26.9145 38.4106L26.3457 38.5095C25.6952 38.6243 25.0358 38.6815 24.3752 38.6801C24.284 38.6801 24.1923 38.6801 24.0905 38.6774H24.0613L23.9491 38.6845L23.8288 38.6889H23.8255C23.5736 38.6973 23.3239 38.7384 23.0827 38.8113C21.6789 39.2407 20.091 39.4424 18.1492 39.4424Z" stroke="url(#paint2_linear_7277_57976)" stroke-width="1.0554" stroke-miterlimit="10"/>
<path opacity="0.8" d="M18.1494 38.2012C17.0011 38.2012 15.8998 38.1281 14.9741 38.0551L14.7548 38.0381L14.5354 38.0078C14.3985 37.9887 14.2315 37.9713 14.0702 37.9529C13.1791 37.8561 11.6892 37.6941 10.0261 36.9141L9.78181 36.7992L9.55467 36.6716C6.36005 34.8798 5.17814 32.2194 4.47167 30.6294C4.42123 30.516 4.35934 30.3767 4.30167 30.2502C3.9726 29.5752 3.75674 28.9516 3.57457 28.3779L3.53806 28.2622L3.50632 28.1497C3.03899 26.4886 2.91819 25.0713 3.12663 23.6884C3.33508 22.3052 3.86026 21.0272 4.77623 19.68L5.46083 18.5622C5.58199 18.3641 5.66505 18.1451 5.70578 17.9167C6.04667 16.0176 6.94378 14.6711 7.3515 14.0583L7.403 13.9807L7.42204 13.95C7.43051 13.9313 7.43844 13.9135 7.4462 13.8941C7.47107 13.8133 7.49558 13.735 7.51939 13.6604C7.62661 12.8813 7.81584 12.116 8.08425 11.3767L8.12092 11.2772L8.16008 11.1774C8.17242 11.1457 8.18406 11.1113 8.21845 11.0081C8.41261 10.423 8.81681 9.20826 9.87404 7.90484L10.2576 7.44051L10.647 7.08833C11.6912 6.13955 12.935 5.4375 14.2867 5.03383C15.0542 4.80598 15.8451 4.66702 16.6442 4.61958L16.7174 4.61375L16.8271 4.60864C16.9606 4.60229 17.0937 4.59947 17.2235 4.59947C17.7968 4.59841 18.3686 4.43335 18.9303 4.54868C19.3635 4.63827 19.8141 4.5903 20.2189 4.41148C20.9751 4.078 21.9931 3.94485 23.1586 3.79972C23.2417 3.78755 23.314 3.77855 23.3703 3.7715C23.5235 3.7521 23.7686 3.72318 24.0651 3.69514C24.5807 3.64576 25.3743 3.58545 26.2275 3.58545C27.8427 3.58545 29.2188 3.78984 30.4348 4.21026L30.5319 4.24395L30.627 4.28063C33.3109 5.29465 34.6372 6.65204 35.6706 7.96815C35.728 8.04134 35.7869 8.11629 35.8087 8.14221L35.8332 8.16408L36.0293 8.33866L36.0556 8.36565C36.9485 9.04954 37.7061 9.89374 38.29 10.8549L38.4619 11.1383L38.6081 11.4352C39.8821 14.0355 39.4829 16.4013 39.3125 17.4116L39.3033 17.4654C39.1823 18.1994 38.9847 18.9187 38.7131 19.6113C38.6275 20.2853 38.4741 20.9489 38.2553 21.5922C37.9077 22.657 37.3947 23.6608 36.7351 24.5662C36.2886 25.2011 35.7722 25.7836 35.1959 26.3033C34.9286 26.5435 34.7598 26.8743 34.7224 27.2318C34.6945 27.4951 34.657 27.751 34.6094 28.0023C34.2265 30.0578 33.3317 31.4796 32.922 32.1162L31.9039 33.5962C30.551 35.3346 28.9478 36.4716 27.0056 37.0703L26.5668 37.2077L26.0914 37.29C25.5241 37.3902 24.9488 37.4399 24.3727 37.4389C24.2889 37.4389 24.2034 37.4389 24.1113 37.4366H24.0852H24.0307C24.0307 37.4366 24.0125 37.4366 23.9752 37.4392L23.8746 37.4454L23.7734 37.4491L23.5711 37.4567C23.3038 37.4662 23.0391 37.5122 22.7841 37.5935C21.4911 38.0064 19.9968 38.2012 18.1494 38.2012Z" stroke="url(#paint3_linear_7277_57976)" stroke-width="1.0554" stroke-miterlimit="10"/>
<path opacity="0.8" d="M18.1494 36.7392C17.0523 36.7392 15.9852 36.668 15.0871 36.5982L14.9119 36.5846L14.7372 36.5604C14.5788 36.5385 14.4007 36.5191 14.2284 36.5001C13.3768 36.4075 12.0907 36.2675 10.6484 35.591L10.4527 35.4993L10.2698 35.3972C7.4995 33.8441 6.48213 31.5531 5.80846 30.037C5.75115 29.9072 5.68607 29.7608 5.62576 29.6252C5.33319 29.0302 5.13779 28.4627 4.97149 27.9371L4.94222 27.8451L4.91665 27.7546C4.50734 26.3008 4.39923 25.0783 4.57541 23.9084C4.75423 22.7221 5.22015 21.6163 6.04072 20.4277L6.13841 20.2866L6.24405 20.151C6.31053 20.0662 6.37455 19.9824 6.43751 19.9004L6.84929 19.1453C6.98438 18.8986 7.07555 18.6302 7.11876 18.3522C7.38064 16.658 8.1968 15.434 8.57349 14.8695L8.57525 14.8665C8.59694 14.8342 8.62463 14.7933 8.63891 14.7707L8.71933 14.6423C8.7509 14.5735 8.79252 14.4822 8.82902 14.3863C8.8657 14.2718 8.90926 14.1304 8.9567 13.984C9.04593 13.2624 9.21699 12.5531 9.46653 11.8701L9.49493 11.7903L9.52614 11.7098C9.55242 11.6429 9.57181 11.5847 9.60991 11.4703C9.79014 10.9287 10.1243 9.92349 11.0133 8.82675L11.3209 8.45483L11.6314 8.17443C12.5151 7.37132 13.568 6.77684 14.7123 6.43524C15.3764 6.23808 16.0612 6.11852 16.7529 6.07901L16.8112 6.0746L16.9001 6.07055C17.0098 6.06543 17.1195 6.06296 17.2292 6.06296C17.824 6.06208 18.4164 6.13738 18.9918 6.28711C19.4902 6.4132 20.0172 6.35747 20.478 6.13016C21.2156 5.77216 22.2023 5.3923 23.3581 5.25033C23.4375 5.23905 23.5045 5.23023 23.559 5.22335C23.7027 5.20536 23.9316 5.17838 24.2096 5.15017C24.6933 5.10379 25.4372 5.04858 26.2329 5.04858C27.6828 5.04858 28.9023 5.22652 29.9629 5.59298L30.0408 5.62014L30.1168 5.64854C32.5819 6.58038 33.6855 7.80074 34.5263 8.87102C34.7117 9.1068 34.7397 9.14348 34.8671 9.25653L35.024 9.3962L35.085 9.45862C35.4906 9.77288 36.32 10.4197 37.0459 11.6163L37.1836 11.8429L37.3 12.0803C38.3671 14.2579 38.035 16.2245 37.8756 17.17L37.8668 17.2222C37.7527 17.9152 37.5596 18.5931 37.2912 19.2423L37.284 19.3019C37.2131 19.9228 37.0759 20.5344 36.8746 21.1263C36.5729 22.053 36.1267 22.9263 35.5527 23.7139C35.0725 24.4022 34.4953 25.0173 33.8391 25.5405C33.683 25.6643 33.5552 25.82 33.4642 25.9973C33.3732 26.1747 33.3213 26.3694 33.3118 26.5685C33.294 26.9591 33.249 27.3483 33.1772 27.7328C32.8459 29.5151 32.0678 30.7508 31.6707 31.3677L30.8815 32.5339C29.6918 34.122 28.2817 35.15 26.5776 35.6725L26.227 35.7822L25.8477 35.8481C25.3629 35.9338 24.8712 35.9763 24.3789 35.9753C24.3023 35.9753 24.2246 35.9753 24.1404 35.9732H24.121H24.0369C24.0226 35.9732 23.9791 35.9732 23.8905 35.9786L23.8101 35.9837L23.7324 35.9867L23.3257 36.0017C23.0409 36.0114 22.7589 36.0624 22.4885 36.1527C21.3042 36.5516 19.9068 36.7392 18.1494 36.7392Z" stroke="url(#paint4_linear_7277_57976)" stroke-width="0.989438" stroke-miterlimit="10"/>
<path opacity="0.8" d="M18.149 35.2763C17.1006 35.2763 16.0698 35.2071 15.2002 35.1396L15.0688 35.1294L14.9376 35.1114C14.7581 35.0865 14.5691 35.0657 14.3858 35.046C13.5854 34.9585 12.4908 34.8396 11.269 34.2667L11.1228 34.1975L10.9863 34.1212C8.64011 32.8047 7.77704 30.8625 7.14658 29.4433C7.08116 29.2971 7.01309 29.1431 6.94589 28.9957C6.67784 28.4567 6.50713 27.9391 6.36517 27.4963L6.3433 27.4272L6.32425 27.3597C5.63825 24.9216 5.89607 23.2113 7.24393 21.26L7.31712 21.1538L7.39647 21.0522C7.48606 20.9378 7.56983 20.8278 7.65236 20.7232C7.77669 20.5601 7.9026 20.3939 8.03963 20.2232C8.12481 20.1169 8.19341 19.9982 8.24332 19.8714L8.39798 19.4765C8.46358 19.3085 8.50467 19.1321 8.52019 18.9524C8.65439 17.3884 9.415 16.2482 9.79169 15.6832L9.7938 15.6802C9.82131 15.6386 9.86293 15.5765 9.87687 15.5541L9.96504 15.4134L9.99203 15.3767C10.0389 15.282 10.1306 15.082 10.2114 14.8725C10.255 14.7291 10.3237 14.5091 10.3909 14.3089C10.3909 14.3013 10.3909 14.2928 10.3939 14.284C10.4661 13.6287 10.617 12.9845 10.8438 12.3653L10.8653 12.3054L10.8888 12.245C10.9297 12.1408 10.9586 12.0537 10.9985 11.9334C11.1593 11.4501 11.4284 10.6408 12.1497 9.75143L12.3804 9.47209L12.6119 9.26293C14.3151 7.71738 16.2211 7.58406 16.8581 7.54121L16.902 7.53786L16.9694 7.53468C17.056 7.53063 17.1427 7.52887 17.2276 7.52887C17.9838 7.53151 18.732 7.6844 19.4286 7.97891C19.5521 8.03023 19.6852 8.05351 19.8187 8.04716C19.9522 8.04082 20.0825 8.00501 20.2005 7.94241H20.2042C20.8518 7.56678 22.0381 6.88588 23.5507 6.70371C23.6237 6.69278 23.6911 6.68449 23.7404 6.67814C23.8736 6.66139 24.0859 6.63652 24.3471 6.61131C24.7991 6.5681 25.4932 6.5166 26.2311 6.5166C27.5158 6.5166 28.5792 6.66862 29.4825 6.98094L29.541 7.00104L29.598 7.02273C31.7105 7.8209 32.6215 8.82258 33.3733 9.78C33.5756 10.0359 33.6659 10.1547 33.8923 10.3544L34.0099 10.4593L34.1043 10.5563L34.1775 10.6141C34.5355 10.8912 35.2014 11.4072 35.7923 12.3793L35.8959 12.5493L35.9831 12.7274C36.8425 14.4826 36.5737 16.0745 36.4293 16.9302L36.421 16.981C36.3191 17.6032 36.142 18.2105 35.8936 18.7896L35.8727 18.8394C35.8706 18.8501 35.8676 18.8658 35.8632 18.8888C35.8519 18.9477 35.8454 18.9946 35.8377 19.0542L35.8288 19.1214C35.7703 19.646 35.655 20.1627 35.4848 20.6623C35.2289 21.4506 34.8497 22.1934 34.3618 22.863C33.8791 23.5483 33.3379 24.1065 32.7305 24.5483C32.4639 24.7429 32.2461 24.9971 32.0944 25.2903C31.9427 25.5836 31.8613 25.9083 31.8565 26.2384C31.8514 26.6502 31.811 27.0607 31.7361 27.4656C31.456 28.9756 30.8116 29.9981 30.4106 30.6211L29.8371 31.4808C28.8102 32.9155 27.5988 33.8316 26.1408 34.278L26.0637 34.3021C25.9399 34.3411 25.8136 34.3716 25.6859 34.3936L25.5934 34.4097C25.1911 34.4809 24.7834 34.5164 24.3749 34.5153C24.3058 34.5153 24.2356 34.5153 24.1594 34.5136H24.1471C24.1124 34.5136 24.0739 34.5136 24.033 34.5136C24.0044 34.5136 23.9291 34.5136 23.793 34.522L23.7327 34.5255L23.6738 34.5278C23.4782 34.5351 23.235 34.5435 23.0181 34.5531C22.7209 34.5654 22.4273 34.6229 22.1474 34.7238C21.098 35.0987 19.8136 35.2763 18.149 35.2763Z" stroke="url(#paint5_linear_7277_57976)" stroke-width="0.923475" stroke-miterlimit="10"/>
<path opacity="0.8" d="M18.1491 33.8137C17.1504 33.8137 16.1554 33.7468 15.3137 33.6814L15.2259 33.6747L15.1384 33.6623C14.937 33.6345 14.7361 33.6126 14.5427 33.5918C13.8069 33.5117 12.8913 33.4119 11.89 32.9423L11.7921 32.8963L11.7013 32.8455C9.77942 31.7678 9.06113 30.1499 8.4834 28.8499C8.41233 28.6897 8.33703 28.5245 8.26385 28.3635C8.03759 27.9119 7.88434 27.4493 7.7586 27.0534L7.74396 27.0075L7.73109 26.9626C7.165 24.9513 7.35193 23.6746 8.44637 22.0901L8.49504 22.0196L8.54812 21.952C8.64353 21.8298 8.73083 21.7157 8.81424 21.6057C9.09993 21.2311 9.37451 20.8706 9.78524 20.4322C9.87518 20.3359 9.92914 20.2114 9.9376 20.0801L9.96882 19.6067L9.95665 19.4517L9.96212 19.2909C10.005 17.9931 10.6569 17.0166 11.0058 16.4922C11.0462 16.4315 11.0881 16.3691 11.113 16.3292L11.1719 16.2356L11.2264 16.1624C11.2915 16.0561 11.4625 15.6933 11.592 15.3452C11.6366 15.1988 11.723 14.9198 11.799 14.6985C11.8214 14.628 11.8235 14.6108 11.8419 14.4594C11.9013 13.9118 12.0274 13.3734 12.2173 12.8563L12.2316 12.8159L12.2473 12.7754C12.3014 12.6371 12.3392 12.5242 12.3827 12.3932C12.5205 11.9786 12.7282 11.3536 13.2819 10.671L13.4363 10.4844L13.589 10.3461C14.7823 9.26262 16.0822 9.05752 16.9596 8.99862L16.9892 8.99598H17.0345C17.0982 8.99315 17.1615 8.99174 17.2236 8.99174C17.9729 8.99174 18.8691 9.35114 19.3398 9.56841C19.4523 9.6199 19.574 9.64883 19.6978 9.65342C19.8216 9.65783 19.9451 9.63772 20.0609 9.59433C20.3538 9.48817 20.6392 9.36261 20.9152 9.21835C21.5139 8.87094 22.5071 8.29727 23.7405 8.15354C23.8086 8.14331 23.8696 8.13555 23.92 8.12903C24.044 8.11368 24.2398 8.09252 24.4821 8.06712C24.9027 8.02692 25.5467 7.97913 26.2272 7.97913C27.3462 7.97913 28.2535 8.10487 29.0006 8.36304L29.0394 8.37662L29.0759 8.39091C30.8403 9.05752 31.5425 9.8236 32.2179 10.6833C32.4373 10.9605 32.5923 11.1588 32.9145 11.4469L32.9928 11.5167L33.0658 11.5899C33.1316 11.655 33.2023 11.7148 33.2776 11.7688C33.5804 12.0031 34.088 12.3959 34.5382 13.1371L34.607 13.2505L34.6653 13.3693C35.3178 14.7008 35.1082 15.9427 34.9828 16.6846L34.9745 16.735C34.8911 17.2473 34.7451 17.7473 34.5396 18.2238V18.2275C34.4828 18.3507 34.4435 18.4813 34.423 18.6155C34.4054 18.7091 34.3945 18.7844 34.3839 18.8678L34.3751 18.9357C34.3282 19.3637 34.2345 19.7854 34.0961 20.1929C33.8873 20.8435 33.575 21.456 33.1713 22.0069C32.5752 22.8571 31.8862 23.4553 31.0561 23.8353C30.8544 23.9274 30.6821 24.0732 30.5583 24.2571C30.4343 24.4409 30.3636 24.6553 30.3539 24.8767C30.35 24.9675 30.3484 25.0421 30.3511 25.0837C30.392 25.7233 30.4384 26.4481 30.2959 27.1948C30.0673 28.4298 29.5443 29.2599 29.1512 29.8694C29.1512 29.8694 27.3476 32.3796 25.7065 32.8806L25.5298 32.9358L25.34 32.9689C25.0206 33.0257 24.6969 33.0538 24.3724 33.0527C24.311 33.0527 24.248 33.0527 24.1805 33.0509H24.1745C24.1311 33.0509 24.0839 33.0509 24.0304 33.0509C23.9661 33.0509 23.8611 33.0509 23.698 33.0622L23.6581 33.0649H23.6188C22.9908 33.0874 22.3974 33.1088 22.2323 33.1409C22.1442 33.1546 22.0581 33.1798 21.9765 33.2162C21.0476 33.6232 19.8295 33.8137 18.1491 33.8137Z" stroke="url(#paint6_linear_7277_57976)" stroke-width="0.857513" stroke-miterlimit="10"/>
<path opacity="0.8" d="M18.1492 32.3516C17.2006 32.3516 16.2407 32.2868 15.4267 32.2235L15.3831 32.2202L15.3395 32.214C15.1168 32.1833 14.9055 32.1602 14.7008 32.138C14.0081 32.0625 13.2917 31.9847 12.511 31.6186L12.462 31.5952L12.4167 31.57C10.9173 30.7289 10.3604 29.4728 9.82025 28.2565C9.74354 28.084 9.66418 27.9055 9.58218 27.7281C9.3993 27.3668 9.26986 26.9792 9.15364 26.612L9.14623 26.5894L9.13971 26.5663C8.68966 24.9654 8.80411 24.148 9.65166 22.9218L9.67617 22.8853L9.70245 22.8513C9.80191 22.7245 9.89238 22.606 9.97932 22.4915C10.3867 21.9572 10.7389 21.4953 11.528 20.767L11.5302 20.7647C11.5882 20.7095 11.6287 20.6386 11.6473 20.5607C11.6658 20.4829 11.6612 20.4012 11.6344 20.3259L11.4922 19.9203C11.4637 19.7925 11.4436 19.6628 11.4323 19.5323V19.5279L11.4235 19.4182L11.4263 19.3378C11.4552 18.4569 11.9187 17.7625 12.225 17.3027C12.273 17.2295 12.3186 17.1627 12.3541 17.1056L12.3834 17.0588L12.4163 17.0146C12.5791 16.7952 12.8435 16.1878 12.9824 15.8115C13.0189 15.6956 13.1126 15.3844 13.1905 15.1588C13.2459 14.989 13.2819 14.8137 13.2976 14.6357C13.3436 14.1956 13.4446 13.7626 13.5982 13.3475L13.6055 13.327L13.6136 13.3069C13.6811 13.1332 13.7287 12.9906 13.7748 12.8523C13.8973 12.4841 14.0359 12.0665 14.4216 11.5907L14.4992 11.497L14.5749 11.4288C15.4226 10.6587 16.3518 10.5035 17.0685 10.456H17.0835H17.1069C17.1472 10.456 17.1874 10.4534 17.2272 10.4534C17.9247 10.4534 18.4608 10.7394 18.8154 10.9288L18.8982 10.9727L18.9105 10.9793C19.0078 11.032 19.0934 11.078 19.1727 11.1172C19.3932 11.2277 19.6464 11.2537 19.8847 11.1904C20.3703 11.0597 21.1281 10.7724 21.6378 10.4922L21.6484 10.486C22.1845 10.1751 22.992 9.70706 23.9383 9.60319C23.9979 9.59367 24.055 9.58679 24.1088 9.57974C24.2185 9.56598 24.4012 9.54323 24.6247 9.52313C25.0139 9.48662 25.608 9.44165 26.2309 9.44165C27.1846 9.44165 27.9353 9.54111 28.5263 9.74515L28.5457 9.75203L28.5654 9.75944C29.981 10.2943 30.4974 10.8542 31.0724 11.5879C31.3066 11.8859 31.5278 12.1673 31.9473 12.5409L31.9863 12.5774L32.023 12.6139C32.1364 12.7283 32.2586 12.8336 32.3886 12.9288C32.6402 13.1237 32.985 13.3907 33.2948 13.9004L33.3292 13.9571L33.3585 14.0168C33.8034 14.9255 33.6553 15.8037 33.5472 16.4448L33.5387 16.4954C33.474 16.8998 33.358 17.2943 33.1938 17.6695C33.098 17.8856 33.03 18.1129 32.9913 18.346C32.9658 18.4813 32.9508 18.5871 32.9383 18.685L32.9294 18.7545C32.8943 19.086 32.8226 19.4124 32.7155 19.7279C32.5533 20.24 32.308 20.7218 31.9893 21.1541C31.4518 21.9258 30.8557 22.4016 30.0639 22.6534C29.6846 22.7735 29.3581 23.0208 29.1398 23.3534L29.077 23.45L29.0075 23.5294C28.8063 23.7583 28.8631 24.6453 28.8978 25.1749C28.9344 25.756 28.9735 26.3568 28.8649 26.9226C28.6864 27.8897 28.2721 28.5425 27.9013 29.1165C27.9013 29.1165 26.5241 31.1033 25.2816 31.4807L25.1911 31.5093L25.096 31.5257C24.8594 31.5682 24.6194 31.589 24.379 31.5879C24.3249 31.5879 24.2693 31.5879 24.2104 31.5879C24.1582 31.5879 24.1007 31.5879 24.0371 31.5879C23.9526 31.5879 23.8177 31.5879 23.6122 31.6022H23.5925H23.5727C22.7393 31.6326 22.2365 31.6504 21.9586 31.7045C21.7715 31.7377 21.5889 31.7922 21.4143 31.8673C20.6701 32.1972 19.6309 32.3516 18.1492 32.3516Z" stroke="url(#paint7_linear_7277_57976)" stroke-width="0.857513" stroke-miterlimit="10"/>
</g>
</g>
</g>
<defs>
<filter id="filter0_i_7277_57976" x="1.04016" y="1.37341" width="40.7211" height="38.9925" filterUnits="userSpaceOnUse" color-interpolation-filters="sRGB">
<feFlood flood-opacity="0" result="BackgroundImageFix"/>
<feBlend mode="normal" in="SourceGraphic" in2="BackgroundImageFix" result="shape"/>
<feColorMatrix in="SourceAlpha" type="matrix" values="0 0 0 0 0 0 0 0 0 0 0 0 0 0 0 0 0 0 127 0" result="hardAlpha"/>
<feOffset dx="0.26385" dy="0.395775"/>
<feGaussianBlur stdDeviation="0.329812"/>
<feComposite in2="hardAlpha" operator="arithmetic" k2="-1" k3="1"/>
<feColorMatrix type="matrix" values="0 0 0 0 0 0 0 0 0 0 0 0 0 0 0 0 0 0 0.12 0"/>
<feBlend mode="normal" in2="shape" result="effect1_innerShadow_7277_57976"/>
</filter>
<linearGradient id="paint0_linear_7277_57976" x1="21" y1="0" x2="21" y2="61.4091" gradientUnits="userSpaceOnUse">
<stop stop-color="#08021E"/>
<stop offset="1" stop-color="#1F0777"/>
</linearGradient>
<radialGradient id="paint1_radial_7277_57976" cx="0" cy="0" r="1" gradientUnits="userSpaceOnUse" gradientTransform="translate(21.0461 22.8715) rotate(90) scale(18.3821 18.3821)">
<stop offset="0.166667" stop-color="#073183"/>
<stop offset="1" stop-color="#0054F9"/>
</radialGradient>
<linearGradient id="paint2_linear_7277_57976" x1="1.5679" y1="1.90112" x2="39.0653" y2="41.2567" gradientUnits="userSpaceOnUse">
<stop offset="0.205697" stop-color="#89D0FF"/>
<stop offset="0.398413" stop-color="#EBBF9A"/>
<stop offset="0.601546" stop-color="#EB8280"/>
<stop offset="0.841139" stop-color="#A281FF"/>
</linearGradient>
<linearGradient id="paint3_linear_7277_57976" x1="3.02823" y1="3.58545" x2="37.5966" y2="40.0154" gradientUnits="userSpaceOnUse">
<stop offset="0.205697" stop-color="#89D0FF"/>
<stop offset="0.398413" stop-color="#EBBF9A"/>
<stop offset="0.601546" stop-color="#EB80DA"/>
<stop offset="0.841139" stop-color="#A281FF"/>
</linearGradient>
<linearGradient id="paint4_linear_7277_57976" x1="4.49393" y1="5.04841" x2="36.1329" y2="38.552" gradientUnits="userSpaceOnUse">
<stop offset="0.205697" stop-color="#89D0FF"/>
<stop offset="0.398413" stop-color="#EBBF9A"/>
<stop offset="0.601546" stop-color="#EB8280"/>
<stop offset="0.841139" stop-color="#A281FF"/>
</linearGradient>
<linearGradient id="paint5_linear_7277_57976" x1="5.95691" y1="6.5166" x2="34.6598" y2="37.0848" gradientUnits="userSpaceOnUse">
<stop offset="0.205697" stop-color="#89D0FF"/>
<stop offset="0.398413" stop-color="#EBBF9A"/>
<stop offset="0.601546" stop-color="#EB80E7"/>
<stop offset="0.841139" stop-color="#A281FF"/>
</linearGradient>
<linearGradient id="paint6_linear_7277_57976" x1="7.41965" y1="7.97913" x2="33.1919" y2="35.6096" gradientUnits="userSpaceOnUse">
<stop offset="0.205697" stop-color="#89D0FF"/>
<stop offset="0.398413" stop-color="#EBBF9A"/>
<stop offset="0.601546" stop-color="#EB80D3"/>
<stop offset="0.841139" stop-color="#A281FF"/>
</linearGradient>
<linearGradient id="paint7_linear_7277_57976" x1="8.88047" y1="9.44165" x2="31.7198" y2="34.1456" gradientUnits="userSpaceOnUse">
<stop offset="0.205697" stop-color="#89D0FF"/>
<stop offset="0.398413" stop-color="#EBBF9A"/>
<stop offset="0.601546" stop-color="#A280EB"/>
<stop offset="0.841139" stop-color="#A281FF"/>
</linearGradient>
<clipPath id="clip0_7277_57976">
<rect width="42" height="42" fill="white"/>
</clipPath>
</defs>
</svg>
