<svg width="488" height="488" viewBox="0 0 488 488" fill="none" xmlns="http://www.w3.org/2000/svg">
<g filter="url(#filter0_d_740_32669)">
<mask id="mask0_740_32669" style="mask-type:alpha" maskUnits="userSpaceOnUse" x="4" y="0" width="480" height="480">
<circle cx="244" cy="240" r="240" fill="url(#paint0_linear_740_32669)"/>
</mask>
<g mask="url(#mask0_740_32669)">
<circle cx="244" cy="240" r="240" fill="#31D8A4"/>
<circle cx="243.996" cy="240" r="208" fill="white"/>
</g>
<circle cx="243.999" cy="240" r="184" fill="#0E052F"/>
<g clip-path="url(#clip0_740_32669)">
<path d="M431.518 241.792C431.518 138.519 347.799 54.8004 244.527 54.8004C141.254 54.8004 57.5352 138.519 57.5352 241.792C57.5352 345.065 141.254 428.784 244.527 428.784C347.799 428.784 431.518 345.065 431.518 241.792Z" fill="url(#paint1_radial_740_32669)"/>
<path d="M371.685 183.425C370.903 188.002 369.986 190.221 368.914 192.791L368.912 192.797C367.753 195.58 366.439 198.741 365.25 205.011C364.776 207.52 364.54 209.362 364.335 210.985L364.321 211.085L364.309 211.18C363.978 213.778 363.756 215.529 362.7 218.645C361.844 221.189 360.411 225.435 356.96 230.008C354.173 233.709 349.507 239.902 343.281 240.644C342.741 240.68 341.611 240.737 341.149 240.501C323.488 231.482 308.313 224.819 303.061 223.323C296.952 221.592 297.734 208.272 298.425 196.52C298.736 191.267 299.028 186.301 298.782 182.049C297.924 167.213 295.297 150.974 282.376 143.058C274.663 138.334 264.713 136.947 255.206 136.927C256.968 136.088 258.933 134.95 261.073 133.704L261.14 133.666C266.736 130.425 273.686 126.4 280.591 125.693C282.848 125.469 285.067 125.209 287.256 124.965C301.175 123.389 313.201 122.035 325.884 126.378C331.634 128.351 343.428 134.931 346.474 141.04C348.618 145.353 352.236 148.715 359.453 155.425C363.21 158.919 365.685 160.953 367.497 162.44L367.58 162.509C370.123 164.601 370.625 165.038 371.383 166.584C373.721 171.351 372.868 176.414 371.685 183.425Z" fill="white"/>
<path d="M307.436 244.413C308.273 244.701 308.585 245.717 308.1 246.454C306.213 249.316 304.052 253.242 301.463 258.043C300.247 260.307 299.096 262.443 298.131 264.11C294.709 269.987 294.431 274.933 294.213 278.903C293.977 283.055 293.768 284.962 291.287 286.616C289.239 287.989 287.141 288.446 272.599 290.661C270.062 291.054 268.935 291.546 267.946 291.977C267.676 292.094 267.408 292.211 267.101 292.326C266.261 292.64 265.438 291.925 265.489 291.032C265.604 288.936 265.678 286.318 265.686 283.025V282.394C265.763 279.544 265.644 277.232 265.541 275.368C265.35 271.656 265.326 270.092 266.315 268.475C267.53 266.522 268.478 265.926 270.036 264.938C272.21 263.572 275.193 261.691 279.607 255.625C281.953 252.412 282.473 250.671 282.797 249.165C282.939 248.54 282.989 248.307 284.795 246.938C286.703 245.489 292.522 241.081 299.969 242.333C302.029 242.681 304.653 243.451 307.436 244.413Z" fill="white"/>
<path d="M249.577 311.456C249.261 311.87 248.89 312.061 248.356 312.087C246.836 312.152 245.768 311.775 245.061 310.924C243.561 309.098 243.763 305.43 244.113 303.286L250.263 301.647C250.744 304.902 250.97 309.645 249.577 311.456Z" fill="white"/>
<path d="M250.076 289.264C249.973 290.161 249.861 291.171 249.865 292.227C249.873 292.62 249.877 293.017 249.889 293.402C249.901 294.407 249.941 296.004 249.802 296.729C247.881 297.429 246.241 297.429 244.084 297.39C244.052 296.768 244.092 295.838 244.116 295.212C244.129 294.728 244.155 294.246 244.161 293.787C244.167 293.277 244.161 292.775 244.161 292.273C244.153 291.09 244.137 289.151 244.427 288.581C245.005 288.496 245.598 288.369 246.233 288.224C247.504 287.95 249.163 287.599 250.219 287.759C250.203 288.17 250.139 288.78 250.076 289.264Z" fill="white"/>
<path d="M238.699 309.564C238.402 312.716 237.429 316.614 234.472 317.207C233.142 317.481 232.499 317.08 232.094 316.699C230.097 314.849 229.778 309.258 230.056 305.259C231.387 305.283 233.13 304.985 235.194 304.586C236.453 304.336 237.707 304.058 238.705 303.828C238.82 305.308 238.902 307.42 238.699 309.564Z" fill="white"/>
<path d="M237.299 298.247L230.628 300.587C230.967 297.998 231.418 294.354 231.577 291.933C231.692 290.228 232.156 289.706 232.289 289.593C232.333 289.555 232.422 289.474 232.67 289.474C232.708 289.474 232.746 289.48 232.789 289.48L232.93 289.5L237.144 289.271C237.323 291.252 237.323 295.603 237.299 298.247Z" fill="white"/>
<path d="M226.523 296.173C226.146 297.177 225.701 300.021 225.422 302.022L217.066 301.768C217.538 299.18 218.191 296.546 218.909 294.448C219.634 292.362 220.416 290.798 221.136 290.359C221.974 289.855 223.82 289.742 224.951 290.708C226.789 292.276 227.297 294.069 226.523 296.173Z" fill="white"/>
<path d="M223.403 321.75C222.756 322.634 222.036 323.084 221.145 323.179C220.236 323.281 219.529 323.078 218.965 322.55C216.341 320.127 216.554 312.19 216.651 308.375C220.116 307.585 223.856 306.914 225.63 306.811C225.896 310.006 225.972 318.253 223.403 321.75Z" fill="white"/>
<path d="M212.496 301.542C212.089 302.631 211.694 303.659 211.395 304.57C210.424 304.874 207.453 304.608 204.42 303.939L206.506 290.788C209.932 289.879 213.907 289.587 214.868 290.605C216.134 291.949 213.59 298.676 212.496 301.542Z" fill="white"/>
<path d="M208.715 323.751C207.094 325.748 204.664 326.681 201.274 326.645C198.928 326.607 198.089 325.716 197.67 325.049C195.788 322.068 197.63 315.04 199.476 310.552L210.795 311.231C210.909 312.019 211.004 312.978 211.049 314.022C211.173 317.217 210.772 321.195 208.715 323.751Z" fill="white"/>
<path d="M302.252 228.319C292.062 225.433 292.939 210.533 293.787 196.133C294.088 191.038 294.372 186.219 294.14 182.28C293.358 168.801 291.091 154.12 280.25 147.476C268.588 140.345 249.512 141.969 237.742 143.467C237.732 143.469 237.722 143.475 237.712 143.477C237.705 143.477 237.701 143.477 237.697 143.479C233.386 144.785 229.353 145.631 226.227 145.466C219.282 145.107 213.879 142.183 209.12 139.617C205.408 137.606 202.169 135.869 199.12 135.869C198.958 135.869 198.789 135.869 198.622 135.875C189.498 136.467 185.304 138.696 181.494 142.096C180.537 142.943 179.368 145.4 175.543 156.422C173.612 161.993 173.255 165.04 172.897 168.003C172.574 170.71 172.246 173.493 170.807 177.645C169.805 180.511 169.065 182.982 168.35 185.364C166.463 191.695 164.972 196.681 160.491 202.61C159.965 203.312 159.314 204.344 158.561 205.519C157.545 207.119 156.287 209.108 154.629 211.412C153.458 213.034 150.769 219.107 150.916 220.957C151.136 223.904 152.093 225.731 153.189 227.866C154.28 229.97 155.521 232.352 155.747 235.641L155.785 236.176C156.184 241.394 155.441 244.012 145.515 252.878C139.168 258.557 134.659 264.027 131.618 268.042C131.35 268.397 131.699 268.923 132.142 268.886C132.245 268.872 132.348 268.866 132.442 268.866C132.634 268.85 132.823 268.844 133.013 268.844C133.202 268.844 133.394 268.85 133.581 268.858C133.773 268.866 133.956 268.88 134.143 268.909C136.544 269.183 138.884 270.198 140.573 271.948C140.867 272.252 141.325 272.335 141.715 272.178C143.332 271.504 145.107 271.615 146.805 271.775C148.901 271.968 151.017 272.595 152.407 273.947C152.827 274.356 153.425 274.564 153.998 274.433C155.64 274.06 157.363 274.094 158.962 274.675C160.223 275.144 161.284 275.886 162.126 276.819C162.715 277.472 163.759 277.597 164.496 277.122C164.956 276.825 165.462 276.575 166.024 276.386C168.178 275.654 170.563 276.071 172.655 276.823C173.685 277.194 174.765 277.525 175.694 278.145C177.401 279.282 178.443 280.943 179.108 282.799C179.485 283.845 180.894 284.208 181.748 283.496C183.284 282.219 184.5 282.003 185.725 282.547C186.35 282.829 186.785 283.216 187.077 283.702C187.587 284.546 188.625 285.242 189.574 284.976C192.91 284.047 197.086 284.53 200.111 286.151C201.179 286.711 202.229 287.568 202.995 288.862C202.997 288.862 202.997 288.862 202.997 288.864C202.999 288.87 203.005 288.868 203.005 288.862L203.094 288.287C203.134 288.027 203.318 287.811 203.57 287.733L204.271 287.517C205.924 286.991 214.344 284.565 217.619 288.013C217.761 288.154 218.006 288.168 218.143 288.021C218.589 287.531 218.952 287.263 219.183 287.13C221.316 285.836 224.974 285.756 227.406 287.84C227.896 288.251 228.69 288.102 229.059 287.578C229.287 287.257 229.545 286.973 229.835 286.729C230.69 285.992 231.772 285.639 232.971 285.713L237.597 285.463C238.76 285.399 242.375 285.153 243.514 284.913C243.601 284.895 243.689 284.879 243.78 284.865C244.262 284.79 244.834 284.667 245.433 284.542C247.676 284.053 250.221 283.502 252.311 284.468C254.319 285.397 254.065 287.684 253.823 289.702C253.728 290.52 253.626 291.375 253.634 292.187C253.648 292.566 253.656 292.947 253.662 293.336C253.692 295.075 253.728 296.681 253.384 297.915C253.384 297.917 253.384 297.921 253.384 297.923C253.384 297.925 253.384 297.927 253.384 297.929L253.595 298.884C253.605 298.921 253.615 298.967 253.628 299.023C253.817 299.898 254.756 300.386 255.52 299.92C257.132 298.937 258.827 297.659 259.339 296.923C259.378 296.867 259.408 296.808 259.43 296.744C259.501 296.559 259.632 296.157 259.775 295.319C260.061 293.6 260.381 290.107 260.41 283.015C260.41 282.64 260.41 282.372 260.418 282.247C260.476 279.615 260.373 277.502 260.27 275.638C260.081 271.793 259.926 268.767 261.834 265.688C263.693 262.691 265.497 261.558 267.23 260.46C269.245 259.196 271.521 257.761 275.352 252.507C277.23 249.919 277.462 248.875 277.646 248.041C278.063 246.088 278.708 244.913 281.608 242.72C283.97 240.936 291.155 235.49 300.85 237.121C304.028 237.661 309.181 239.356 314.266 241.359C314.268 241.361 314.27 241.361 314.275 241.361C314.277 241.361 314.279 241.361 314.281 241.361C314.47 241.418 314.665 241.484 314.845 241.579C314.909 241.613 314.976 241.646 315.044 241.674C319.587 243.488 324.007 245.513 326.839 247.132C327.498 247.508 328.342 247.291 328.806 246.688C329.733 245.485 330.745 244.788 331.835 244.133C332.244 243.885 332.559 243.695 332.859 243.439C332.962 243.353 333.063 243.268 333.161 243.187C334.008 242.502 334.006 241.037 333.036 240.537C319.374 233.473 306.505 229.529 302.252 228.319ZM205.152 231.455C202 245.249 180.632 260.411 170.919 260.411H170.728C170.575 260.403 170.405 260.389 170.224 260.359C170.041 260.331 169.843 260.286 169.634 260.228C169.531 260.198 169.42 260.161 169.311 260.133C167.548 259.577 165.107 258.223 163.259 256.405C161.987 255.157 160.985 253.684 160.671 252.098C160.612 251.82 160.554 251.543 160.494 251.265C159.969 248.919 159.316 245.989 161.386 241.192C161.673 240.549 161.926 239.949 162.16 239.4C162.235 239.219 162.315 239.036 162.388 238.86C162.608 238.342 162.803 237.867 162.981 237.435C163.273 236.706 163.513 236.085 163.71 235.557C163.791 235.351 163.865 235.154 163.93 234.972C164.522 233.314 164.595 232.693 164.676 232.05C164.75 231.546 164.823 230.929 165.028 230.053C165.635 227.465 165.949 225.272 166.227 223.319C166.725 219.808 167.157 216.777 169.049 213.991C169.372 213.518 169.728 213.085 170.131 212.706C170.27 212.575 170.403 212.45 170.547 212.325C170.694 212.2 170.841 212.091 170.984 211.98C171.443 211.658 171.935 211.373 172.467 211.132C172.651 211.051 172.834 210.97 173.015 210.906C173.39 210.767 173.783 210.648 174.194 210.545C175.934 210.124 177.988 210.057 180.348 210.356C182.929 210.561 185.32 211.049 187.438 211.641C189.208 212.129 190.788 212.702 192.124 213.234C192.263 213.286 192.396 213.336 192.527 213.395C192.783 213.498 193.031 213.601 193.273 213.711C193.64 213.865 193.974 214.012 194.289 214.149C194.706 214.338 195.087 214.507 195.423 214.659L195.738 214.806C197.229 215.485 198.511 216.231 199.605 217.013C200.145 217.41 200.651 217.811 201.103 218.218C201.258 218.351 201.405 218.49 201.54 218.635C201.687 218.776 201.826 218.915 201.957 219.054C206.063 223.377 205.859 228.378 205.152 231.455ZM215.054 179.173L214.639 181.674C213.681 187.309 211.48 195.036 203.366 197.025C195.56 198.934 193.71 199.341 188.154 199.591C188.031 199.605 187.898 199.605 187.767 199.605C183.709 199.605 175.902 197.048 174.519 190.687C173.634 186.593 175.44 183.627 178.415 178.707C178.911 177.895 179.447 177.024 180.015 176.053C183.947 169.428 185.497 164.633 186.743 160.788C187.954 157.031 188.964 153.925 191.56 151.351C192.158 150.753 192.837 150.188 193.628 149.648C194.131 149.304 194.657 148.997 195.214 148.711C195.951 148.344 196.725 148.026 197.537 147.768C199.343 147.191 201.294 146.899 203.247 146.899C207.032 146.899 210.813 147.987 213.51 150.152C214.723 151.123 216.448 153.066 217.45 158.798C217.966 161.751 217.087 167.177 215.054 179.173ZM272.944 195.212C270.15 200.006 268.622 202.647 266.21 204.626C261.423 208.558 255.838 209.553 251.239 209.553C247.936 209.553 245.13 209.044 243.478 208.741C238.725 207.873 229.881 206.264 226.935 199.283C226.358 197.902 226.352 197.025 226.352 195.913C226.352 194.815 226.352 192.968 225.84 188.573L225.812 188.28C225.576 186.291 225.314 184.04 225.885 181.152L225.951 180.807C227.618 172.33 228.07 171.034 228.444 170.303C229.307 168.636 231.353 167.979 233.02 168.835C234.634 169.676 235.307 171.633 234.547 173.277C234.378 173.759 233.904 175.565 232.616 182.123L232.55 182.468C232.183 184.318 232.344 185.721 232.558 187.498L232.586 187.799C233.14 192.571 233.14 194.734 233.14 195.905C233.14 196.112 233.14 196.338 233.149 196.473C233.151 196.526 233.177 196.594 233.193 196.644C233.745 197.955 234.991 198.948 236.508 199.712C237.451 200.186 238.437 199.285 238.227 198.251C236.718 190.78 236.801 182.065 239.654 176.679C240.59 174.892 242.319 171.965 243.961 169.234C243.967 169.226 243.972 169.22 243.976 169.212C243.98 169.204 243.986 169.198 243.99 169.19C244.157 168.914 244.322 168.642 244.487 168.368C244.627 168.132 244.766 167.908 244.895 167.688C245.618 166.487 246.297 165.385 246.842 164.508C246.914 164.383 246.987 164.258 247.061 164.141C247.112 164.053 247.164 163.972 247.214 163.899C247.331 163.708 247.434 163.533 247.531 163.381C247.573 163.309 247.617 163.242 247.654 163.176C247.676 163.148 247.692 163.117 247.706 163.095C247.756 163.007 247.809 162.926 247.853 162.861C247.94 162.722 248.006 162.62 248.043 162.553C248.047 162.547 248.049 162.543 248.051 162.537C248.059 162.523 248.075 162.501 248.083 162.487C248.089 162.477 248.091 162.475 248.097 162.464C248.663 161.64 249.224 160.856 249.768 160.118C250.508 159.117 249.651 157.805 248.498 158.276C245.725 159.407 243.83 160.852 243.445 161.156C241.976 162.327 239.84 162.086 238.679 160.616C237.516 159.149 237.758 157.007 239.227 155.836C240.975 154.463 250.236 147.707 261.327 150.88C269.318 153.153 273.506 159.258 275.084 161.553C276.356 163.418 280.254 169.077 280.129 176.978C280.036 183.004 277.523 187.339 272.944 195.212Z" fill="white"/>
<path d="M200.914 153.889C200.345 155.263 199.666 156.966 198.936 158.816C197.231 163.101 195.299 167.954 194.369 169.714C192.767 172.755 191.52 174.674 190.524 176.22C189.383 177.995 188.474 179.4 187.789 181.359C186.586 184.786 186.37 188.615 187.152 192.779C185.028 192.545 181.551 191.082 181.158 189.238C180.864 187.865 181.716 186.364 184.23 182.23C184.734 181.406 185.274 180.509 185.864 179.511C190.183 172.237 191.931 166.826 193.217 162.87C194.603 158.565 195.258 156.759 197.465 155.251C198.453 154.564 199.654 154.126 200.914 153.889Z" fill="white"/>
<path d="M196.696 306.426C194.342 311.235 191.412 315.673 189.586 317.871C188.074 313.784 185.446 304.418 186.14 296.883C186.16 296.665 186.184 296.449 186.216 296.24C186.494 293.912 187.113 291.777 188.213 290.066C188.939 288.942 190.948 288.254 193.23 288.254C194.915 288.254 196.747 288.623 198.325 289.47H198.337C199.182 289.921 200.332 290.836 200.453 293.495C200.627 297.086 198.916 301.913 196.696 306.426Z" fill="white"/>
<path d="M325.673 252.538C325.854 252.686 325.969 252.907 325.865 253.117C325.161 254.53 324.319 255.521 323.323 256.688C322.122 258.119 320.747 259.742 319.47 262.271C317.65 265.857 317.067 269.128 316.761 277.502C316.4 287.339 316.781 292.866 317.067 296.894C317.339 300.786 317.506 303.132 316.813 306.927C315.414 314.584 312.139 319.653 307.991 326.068C302.802 334.092 297.435 342.385 288.546 345.03C287.72 345.284 287.692 345.283 285.374 345.292C283.357 345.292 280.001 345.3 273.648 345.533C262.037 345.955 256.212 346.164 251.228 347.122C246 348.133 243.273 349.246 240.629 350.314C238.243 351.279 235.987 352.196 231.664 353.085C229.087 353.605 225.235 354.174 212.11 354.194C198.47 354.218 190.235 354.224 179.361 352.985C164.443 351.281 156.953 350.429 151.979 347.773C140.247 341.515 135.293 330.26 127.099 311.615C127.084 311.583 127.07 311.551 127.056 311.517C126.955 311.285 127.238 311.061 127.455 311.19C127.844 311.432 128.249 311.632 128.677 311.775C129.035 311.902 129.408 311.998 129.785 312.061C130.535 312.188 131.317 312.196 132.111 312.061C132.25 312.037 132.377 312.004 132.5 311.954C132.524 311.944 132.546 311.932 132.571 311.922C132.71 311.853 132.881 311.91 132.939 312.053C133.461 313.49 134.29 314.77 135.68 315.507C137.073 316.233 138.657 316.289 140.207 316.277C141.803 316.253 143.412 316.162 145.002 315.971C145.844 315.882 146.707 316.295 147.029 317.079C148.487 320.61 150.29 323.166 153.001 323.543C153.148 323.563 153.34 323.587 153.582 323.587C154.192 323.587 155.136 323.41 156.466 322.495C157.496 321.789 159.09 322.205 159.83 323.21C160.507 324.127 161.313 324.786 162.006 325.343C164.798 328.209 171.582 329.583 177.279 329.583C180.387 329.583 183.175 329.174 184.815 328.376C187.161 327.237 187.161 325.49 187.046 324.782C186.847 323.515 186.665 322.257 186.512 321.011C186.494 320.862 186.72 320.804 186.78 320.943C187.121 321.687 187.538 322.614 188.648 322.793C188.769 322.805 188.904 322.831 189.058 322.831C190.646 322.831 193.117 323.349 193.542 324.879C193.76 325.659 194.066 326.389 194.483 327.048C195.437 328.557 197.377 330.355 201.225 330.42H201.523C205.941 330.42 209.351 328.974 211.651 326.119C211.8 325.935 211.943 325.746 212.08 325.554C212.906 324.389 215.361 324.339 216.411 325.306C217.594 326.401 219.084 326.965 220.743 326.965C221.009 326.965 221.279 326.953 221.557 326.921C223.534 326.711 225.245 325.663 226.523 323.875C227.359 322.708 227.97 321.273 228.415 319.722C228.546 319.264 229.175 319.129 229.526 319.449C230.37 320.231 231.725 321.058 233.678 321.058C234.153 321.058 234.669 321.007 235.218 320.892C239.055 320.121 240.966 316.944 241.871 313.359C241.901 313.238 242.074 313.206 242.155 313.3C243.126 314.483 244.92 315.85 248.042 315.85C248.201 315.85 248.366 315.85 248.53 315.842C250.182 315.765 251.575 315.04 252.581 313.742C253.804 312.147 254.286 309.783 254.397 307.405C254.429 306.712 254.876 306.103 255.517 305.835C258.81 304.458 262.799 301.494 263.968 299.474C264.008 299.404 264.049 299.329 264.089 299.253C264.357 298.733 264.816 298.321 265.391 298.213C267.942 297.729 269.055 297.247 270.067 296.808C270.891 296.445 271.554 296.159 273.408 295.871C288.161 293.619 291.042 293.124 294.234 290.995C299.009 287.811 299.25 283.427 299.486 279.187C299.688 275.601 299.918 271.532 302.703 266.757C303.715 265.014 304.882 262.839 306.123 260.538C308.296 256.509 311.331 250.868 313.504 247.911C313.913 247.353 314.653 247.179 315.289 247.449C320.389 249.616 324.732 251.785 325.673 252.538Z" fill="white"/>
<path d="M182.403 296.438C181.818 301.539 181.461 308.353 182.288 317.229C182.521 319.734 182.848 322.334 183.253 324.968C182.554 325.349 180.466 325.883 176.753 325.825C171.418 325.718 166.225 324.376 164.665 322.689L164.423 322.471C163.125 321.429 162.274 320.742 162.153 318.88C162.113 318.251 162.383 317.628 162.96 316.747C163.278 316.252 163.697 315.679 164.217 314.974C165.114 313.771 166.227 312.271 167.365 310.336C170.705 304.695 171.971 302.954 173.579 300.753C173.706 300.575 173.841 300.396 173.98 300.213C174.927 298.915 176.04 297.363 177.713 294.813C178.958 292.921 179.994 291.437 180.849 290.272C182.274 288.336 183.207 287.284 183.805 286.711C183.717 287.59 183.519 288.823 183.328 289.962C183.045 291.713 182.689 293.856 182.403 296.438Z" fill="white"/>
<path d="M179.958 217.136C179.926 217.18 179.887 217.224 179.855 217.271C179.162 218.232 178.368 219.318 177.42 221.434C174.877 227.088 174.828 230.288 174.788 232.862C174.764 234.21 174.75 235.285 174.381 236.538C174.127 237.365 173.714 238.312 173.236 239.404C171.737 242.839 169.778 247.341 170.656 253.4C169.441 252.815 167.583 251.479 167.325 250.767C167.26 250.437 167.19 250.112 167.115 249.788C166.694 247.897 166.416 246.666 167.617 243.899C170.777 236.611 171.166 234.884 171.414 232.898C171.465 232.465 171.517 232.128 171.644 231.58C172.311 228.706 172.66 226.245 172.946 224.268C173.371 221.267 173.657 219.282 174.669 217.788C175.038 217.236 176.082 216.95 177.576 216.95C178.166 216.95 178.833 216.994 179.561 217.097L179.73 217.109C179.805 217.117 179.883 217.123 179.958 217.136Z" fill="white"/>
<path d="M175.788 289.027C175.617 287.279 175.311 285.528 174.676 283.881C174.631 283.799 174.442 283.378 174.402 283.297C174.287 283.087 174.156 282.89 174.033 282.682C174.025 282.674 174.021 282.674 174.021 282.668C174.013 282.656 174.009 282.656 174.009 282.65C173.938 282.573 173.874 282.499 173.805 282.426C173.702 282.323 173.591 282.225 173.481 282.134C173.46 282.11 173.442 282.09 173.424 282.082C173.374 282.039 173.297 281.979 173.215 281.93C173.079 281.86 172.953 281.783 172.821 281.717C172.781 281.691 172.686 281.652 172.598 281.62C172.598 281.62 172.592 281.62 172.592 281.614C172.572 281.606 172.551 281.602 172.535 281.594C172.515 281.582 172.503 281.574 172.491 281.57C172.471 281.562 172.459 281.558 172.447 281.558C172.435 281.558 172.435 281.55 172.435 281.55C172.394 281.529 172.37 281.525 172.352 281.517C171.334 281.144 170.302 280.735 169.222 280.576C169.216 280.576 169.198 280.57 169.184 280.57H169.159C169.039 280.57 168.791 280.546 168.779 280.546C168.627 280.538 168.48 280.538 168.333 280.546C168.263 280.546 168.194 280.546 168.13 280.552H168.073C168.049 280.552 168.019 280.56 167.986 280.56C167.974 280.572 167.954 280.572 167.946 280.572C167.94 280.572 167.934 280.572 167.934 280.572C167.692 280.643 167.438 280.707 167.196 280.782C167.094 280.834 166.981 280.884 166.878 280.949C166.791 280.999 166.701 281.064 166.612 281.108C166.606 281.114 166.594 281.126 166.58 281.126L166.562 281.146C166.447 281.261 166.326 281.368 166.211 281.483C166.173 281.523 166.066 281.654 165.989 281.751C165.969 281.763 165.957 281.775 165.957 281.787C165.951 281.793 165.951 281.793 165.945 281.799C165.939 281.806 165.939 281.812 165.925 281.818C165.919 281.826 165.919 281.832 165.913 281.832C165.882 281.886 165.85 281.933 165.838 281.959C165.429 282.594 165.016 283.224 164.59 283.851C163.611 285.353 162.607 286.846 161.589 288.33C160.66 289.672 159.733 291.014 158.81 292.354C158.294 293.106 157.786 293.848 157.278 294.6C157.19 294.727 157.107 294.854 157.024 294.981C157.627 295.095 158.232 295.214 158.842 295.329C160.209 295.579 161.569 295.819 162.956 296.008C165.81 296.397 168.712 296.577 171.604 296.474C171.743 296.466 171.882 296.474 172.011 296.498C172.707 295.507 173.525 294.324 174.569 292.739C175.147 291.855 175.7 291.036 176.22 290.278C175.986 289.916 175.839 289.482 175.788 289.027Z" fill="white"/>
<path d="M165.623 300.821C165.377 303.022 162.914 308.717 159.073 314.141C155.856 318.676 153.903 319.776 153.514 319.814C151.962 319.599 150.431 315.757 149.215 311.948C148.728 310.404 148.286 308.865 147.917 307.575C147.085 304.676 146.934 300.789 147.079 298.348C150.324 300.146 156.02 300.629 164.021 300.662H164.045C164.573 300.718 165.095 300.777 165.623 300.821Z" fill="white"/>
<path d="M159.935 282.7C159.935 282.708 159.935 282.708 159.935 282.712C159.896 282.765 159.864 282.821 159.828 282.871C158.453 284.893 157.069 286.904 155.682 288.918C154.965 289.956 154.253 290.992 153.546 292.036C153.159 292.602 152.637 293.225 152.185 293.898C151.046 293.63 149.91 293.37 148.783 293.051C147.862 292.785 146.953 292.499 146.06 292.142C145.881 292.078 145.71 292.007 145.544 291.927C145.397 291.629 145.188 291.36 144.934 291.157C144.94 291.151 144.94 291.133 144.946 291.125C145.27 290.464 145.601 289.797 145.925 289.135C146.542 287.922 147.161 286.715 147.846 285.544C149.069 283.432 150.543 281.283 152.61 279.915C152.713 279.838 152.826 279.768 152.935 279.699C153.737 279.195 154.539 278.841 155.523 278.72C155.638 278.707 156.331 278.711 156.655 278.74C156.712 278.74 156.758 278.746 156.79 278.746H156.797C156.821 278.754 156.867 278.766 156.936 278.79C157.177 278.867 157.421 278.917 157.663 279C157.746 279.04 157.82 279.076 157.905 279.121C158.115 279.248 158.33 279.362 158.528 279.522C158.209 279.28 158.967 280.062 158.967 280.005C159.578 280.85 159.763 281.557 159.935 282.7Z" fill="white"/>
<path d="M149.05 276.968C146.507 279.06 144.657 281.846 143.113 284.744C142.246 286.352 141.464 287.993 140.65 289.628C140.567 289.795 140.485 289.954 140.39 290.117C139.62 289.95 138.85 289.728 138.099 289.488C137.298 289.235 136.502 288.942 135.74 288.588C135.392 288.42 135.041 288.249 134.692 288.066C135.454 286.622 136.363 285.236 137.23 283.889C138.451 281.987 139.773 280.119 141.21 278.363C141.75 277.696 142.323 276.964 143.081 276.525C143.855 276.068 144.792 276.176 145.681 276.227C146.622 276.285 147.634 276.309 148.522 276.666C148.706 276.745 148.905 276.868 149.05 276.968Z" fill="white"/>
<path d="M145.01 311.102C144.883 311.209 144.777 311.324 144.682 311.459C144.593 311.483 144.503 311.503 144.446 311.517C143.835 311.58 143.213 311.624 142.596 311.664C141.413 311.739 140.212 311.791 139.017 311.747C138.349 311.723 137.745 311.62 137.471 311.195C137.031 310.528 136.898 309.363 136.741 308.478C135.959 304.135 135.856 299.61 136.411 295.214C138.68 296.028 141.016 296.659 143.41 297.052C142.894 301.015 143.773 306.831 144.287 308.613C144.527 309.441 144.769 310.28 145.01 311.102Z" fill="white"/>
<path d="M137.709 275.521C135.7 277.988 133.87 280.614 132.227 283.335C131.564 284.441 130.814 285.586 130.262 286.769C129.466 286.548 128.748 286.229 127.987 285.757C127.402 285.395 126.834 284.994 126.281 284.574C126.142 284.46 125.761 284.161 125.524 283.97C125.469 283.927 125.417 283.883 125.358 283.851C125.542 283.331 125.878 282.75 126.064 282.361C126.485 281.44 126.955 280.535 127.446 279.655C128.38 278.002 129.424 276.386 130.607 274.898C131.046 274.35 131.463 273.645 132.146 273.441C132.769 273.264 133.59 273.346 134.091 273.433C135.579 273.721 136.744 274.396 137.709 275.521Z" fill="white"/>
<path d="M122.227 286.229C122.255 286.125 122.392 286.11 122.454 286.199C122.982 286.951 123.718 287.604 124.508 288.219C124.861 288.487 125.209 288.753 125.566 289.005C125.611 289.037 125.631 289.091 125.619 289.146C124.786 292.594 124.218 296.256 124.228 299.864C124.228 300.023 123.988 300.055 123.952 299.9C122.934 295.7 121.551 288.698 122.227 286.229Z" fill="white"/>
<path d="M132.065 293.729C131.658 296.73 131.462 299.739 131.593 302.764C131.657 304.423 131.835 306.071 132.059 307.71C132.059 307.722 132.059 307.736 132.065 307.742V307.75C131.708 307.668 131.335 307.655 130.954 307.71C131.029 307.686 130.833 307.698 130.751 307.698H130.726C130.67 307.692 130.587 307.686 130.559 307.68C130.14 307.577 130.104 307.533 129.771 307.323C129.338 307.043 128.88 306.533 128.576 306.013C127.768 304.614 127.59 302.915 127.526 301.331C127.407 298.223 127.673 295.119 128.253 292.074C128.749 292.276 129.181 292.461 129.9 292.771C130.611 293.082 131.349 293.388 132.069 293.721V293.729H132.065Z" fill="white"/>
<g opacity="0.8" filter="url(#filter1_i_740_32669)">
<path opacity="0.8" d="M211.42 450.771C197.725 450.771 184.736 449.906 173.836 449.058L170.831 448.824L167.83 448.407C166.518 448.221 164.734 448.03 163.013 447.842C152.527 446.702 133.025 444.577 111.498 434.468L108.154 432.892L105.037 431.146C63.6633 407.954 48.1786 373.053 39.8407 354.289C39.3106 353.098 38.6657 351.647 38.0611 350.311C33.8508 341.696 31.1904 333.931 28.9331 326.822L28.4312 325.234L28.014 323.692C22.008 302.349 20.4904 283.917 23.2414 265.692C25.9986 247.391 32.7786 230.742 44.5549 213.314L50.6617 203.342C51.9012 201.328 52.7759 199.111 53.2475 196.793C57.9032 173.719 68.4682 157.373 73.66 149.567C75.0889 140.117 77.445 130.832 80.6939 121.845L81.1777 120.482L81.6956 119.154C81.7803 118.92 81.8891 118.59 82.0886 117.987C84.4205 110.963 89.8885 94.5254 103.888 77.2651L109.146 70.8963L114.503 66.0572C128.265 53.5513 144.66 44.2963 162.477 38.9755C172.425 36.0088 182.68 34.1949 193.041 33.5701L194.043 33.4955L195.553 33.425C197.344 33.3403 199.13 33.3 200.871 33.3C207.337 33.2879 213.792 33.8321 220.163 34.9245C224.146 35.5956 228.235 35.128 231.962 33.5761C243.008 28.9668 254.621 25.8489 266.49 24.3051C267.482 24.164 268.347 24.0552 269.028 23.9665C270.9 23.7327 273.875 23.382 277.471 23.0394C283.739 22.4408 293.35 21.7273 303.77 21.7273C324.118 21.7273 341.635 24.3635 357.315 29.7851L358.649 30.2486L359.953 30.7384C394.556 43.8147 412.171 62.0827 424.84 78.1983L425.441 78.9661L427.185 80.516C438.628 89.4707 448.361 100.417 455.913 112.832L458.275 116.718L460.268 120.793C477.194 155.342 471.815 187.242 469.787 199.228L469.678 199.869C468.221 208.711 465.901 217.389 462.753 225.78C461.594 233.87 459.69 241.835 457.062 249.572C452.569 263.328 445.94 276.289 437.419 287.985C432.513 294.924 426.973 301.393 420.87 307.309C418.712 309.395 417.313 312.142 416.896 315.113C416.632 316.943 416.331 318.753 415.989 320.544C411.027 347.158 399.387 365.68 394.637 373.057L380.273 393.687C362.974 415.238 342.449 429.453 317.612 437.092L311.594 438.978L305.094 440.109C297.659 441.421 290.124 442.074 282.574 442.058C281.532 442.058 280.484 442.058 279.321 442.028H278.986L277.704 442.108L276.33 442.159H276.292C273.414 442.255 270.56 442.725 267.802 443.557C251.759 448.465 233.612 450.771 211.42 450.771Z" stroke="url(#paint2_linear_740_32669)" stroke-width="1.0554" stroke-miterlimit="10"/>
<path opacity="0.8" d="M211.422 436.586C198.299 436.586 185.713 435.75 175.134 434.915L172.626 434.722L170.119 434.375C168.555 434.157 166.646 433.958 164.802 433.748C154.618 432.642 137.592 430.79 118.584 421.875L115.793 420.563L113.197 419.104C76.6867 398.627 63.1791 368.222 55.1052 350.051C54.5288 348.755 53.8214 347.162 53.1624 345.717C49.4015 338.002 46.9346 330.876 44.8526 324.319L44.4354 322.997L44.0726 321.711C38.7317 302.728 37.3511 286.53 39.7334 270.724C42.1156 254.917 48.1177 240.311 58.5859 224.915L66.4099 212.139C67.7945 209.876 68.7438 207.373 69.2094 204.763C73.1052 183.058 83.3579 167.67 88.0176 160.667L88.6061 159.78L88.8238 159.429C88.9205 159.215 89.0112 159.012 89.0999 158.79C89.3841 157.867 89.6642 156.972 89.9363 156.12C91.1617 147.215 93.3243 138.468 96.3918 130.02L96.811 128.883L97.2584 127.742C97.3995 127.379 97.5325 126.986 97.9255 125.807C100.145 119.12 104.764 105.238 116.847 90.3414L121.23 85.0347L125.68 81.0098C137.614 70.1667 151.829 62.1432 167.277 57.5298C176.049 54.9259 185.088 53.3377 194.22 52.7955L195.056 52.729L196.31 52.6706C197.836 52.598 199.357 52.5657 200.841 52.5657C207.393 52.5537 213.927 50.6672 220.346 51.9853C225.298 53.0092 230.448 52.461 235.073 50.4173C243.715 46.6061 255.351 45.0844 268.671 43.4257C269.62 43.2866 270.446 43.1838 271.089 43.1032C272.841 42.8815 275.642 42.551 279.03 42.2305C284.923 41.6662 293.993 40.9769 303.744 40.9769C322.203 40.9769 337.93 43.3128 351.826 48.1176L352.937 48.5026L354.023 48.9218C384.696 60.5107 399.854 76.0236 411.665 91.065C412.32 91.9014 412.993 92.7579 413.243 93.0542L413.523 93.3041L415.764 95.2994L416.065 95.6078C426.269 103.424 434.927 113.072 441.6 124.056L443.566 127.295L445.236 130.689C459.796 160.407 455.233 187.444 453.286 198.99L453.181 199.605C451.799 207.993 449.539 216.214 446.436 224.129C445.458 231.832 443.705 239.416 441.203 246.769C437.231 258.938 431.368 270.41 423.83 280.757C418.727 288.013 412.826 294.67 406.239 300.609C403.184 303.355 401.255 307.135 400.828 311.221C400.509 314.23 400.08 317.154 399.536 320.026C395.16 343.518 384.934 359.767 380.252 367.043L368.617 383.957C353.154 403.825 334.832 416.818 312.636 423.661L307.621 425.231L302.188 426.172C295.704 427.317 289.129 427.885 282.545 427.873C281.588 427.873 280.61 427.873 279.558 427.847H279.26H278.637C278.637 427.847 278.429 427.847 278.002 427.877L276.853 427.948L275.697 427.99L273.385 428.077C270.329 428.186 267.304 428.712 264.39 429.641C249.613 434.359 232.536 436.586 211.422 436.586Z" stroke="url(#paint3_linear_740_32669)" stroke-width="1.0554" stroke-miterlimit="10"/>
<path opacity="0.8" d="M211.423 419.878C198.885 419.878 186.689 419.064 176.425 418.265L174.423 418.11L172.426 417.834C170.616 417.584 168.58 417.362 166.611 417.145C156.879 416.087 142.18 414.486 125.698 406.755L123.46 405.707L121.37 404.54C89.7097 386.79 78.0826 360.607 70.3835 343.28C69.7285 341.797 68.9848 340.124 68.2955 338.574C64.9519 331.774 62.7188 325.289 60.8182 319.282L60.4836 318.23L60.1914 317.196C55.5135 300.581 54.278 286.61 56.2915 273.239C58.3352 259.681 63.66 247.045 73.0379 233.46L74.1544 231.848L75.3617 230.298C76.1215 229.329 76.8531 228.371 77.5727 227.434L82.2787 218.804C83.8226 215.984 84.8646 212.917 85.3584 209.741C88.3513 190.378 97.6788 176.389 101.984 169.937L102.004 169.903C102.252 169.534 102.568 169.067 102.732 168.809L103.651 167.342C104.011 166.555 104.487 165.511 104.904 164.415C105.323 163.107 105.821 161.491 106.363 159.818C107.383 151.571 109.338 143.464 112.19 135.659L112.515 134.748L112.871 133.827C113.172 133.063 113.393 132.398 113.829 131.09C115.888 124.9 119.708 113.412 129.868 100.878L133.383 96.6273L136.932 93.4228C147.031 84.2444 159.063 77.4503 172.142 73.5464C179.732 71.2931 187.558 69.9266 195.463 69.4752L196.13 69.4248L197.145 69.3784C198.399 69.32 199.653 69.2918 200.906 69.2918C207.704 69.2817 214.474 70.1423 221.051 71.8534C226.746 73.2944 232.769 72.6576 238.035 70.0597C246.466 65.9683 257.742 61.627 270.951 60.0046C271.858 59.8756 272.624 59.7748 273.247 59.6962C274.89 59.4906 277.506 59.1823 280.682 58.8598C286.21 58.3297 294.711 57.6989 303.805 57.6989C320.376 57.6989 334.313 59.7325 346.434 63.9206L347.325 64.2309L348.193 64.5554C376.365 75.2051 388.978 89.152 398.588 101.384C400.706 104.078 401.027 104.498 402.482 105.79L404.276 107.386L404.973 108.099C409.608 111.691 419.087 119.084 427.383 132.758L428.957 135.348L430.287 138.061C442.482 162.948 438.687 185.424 436.865 196.229L436.765 196.826C435.461 204.746 433.254 212.494 430.186 219.913L430.104 220.594C429.293 227.69 427.725 234.68 425.426 241.444C421.977 252.035 416.878 262.015 410.318 271.016C404.83 278.883 398.233 285.913 390.734 291.892C388.95 293.307 387.489 295.087 386.449 297.112C385.409 299.14 384.816 301.365 384.707 303.641C384.504 308.105 383.99 312.553 383.17 316.947C379.383 337.317 370.49 351.439 365.952 358.489L356.932 371.817C343.336 389.966 327.221 401.715 307.745 407.686L303.739 408.94L299.403 409.694C293.863 410.673 288.244 411.159 282.617 411.147C281.742 411.147 280.853 411.147 279.892 411.123H279.67H278.709C278.546 411.123 278.048 411.123 277.036 411.185L276.117 411.244L275.228 411.278L270.58 411.449C267.326 411.56 264.103 412.142 261.013 413.174C247.477 417.733 231.507 419.878 211.423 419.878Z" stroke="url(#paint4_linear_740_32669)" stroke-width="0.989438" stroke-miterlimit="10"/>
<path opacity="0.8" d="M211.417 403.158C199.435 403.158 187.655 402.367 177.717 401.596L176.215 401.479L174.716 401.273C172.664 400.989 170.503 400.751 168.409 400.525C159.261 399.526 146.751 398.167 132.788 391.619L131.117 390.829L129.557 389.956C102.744 374.911 92.8802 352.715 85.675 336.494C84.9272 334.824 84.1493 333.064 83.3814 331.379C80.3179 325.22 78.3669 319.305 76.7445 314.244L76.4946 313.454L76.2769 312.682C68.4368 284.818 71.3834 265.272 86.7875 242.971L87.6239 241.758L88.5308 240.597C89.5547 239.289 90.5121 238.032 91.4553 236.836C92.8762 234.972 94.3152 233.073 95.8812 231.122C96.8547 229.907 97.6387 228.551 98.209 227.102L99.9766 222.589C100.726 220.668 101.196 218.653 101.373 216.599C102.907 198.724 111.6 185.694 115.905 179.237L115.929 179.202C116.243 178.727 116.719 178.017 116.878 177.761L117.886 176.153L118.194 175.734C118.73 174.652 119.778 172.366 120.702 169.972C121.199 168.333 121.985 165.818 122.753 163.53C122.753 163.444 122.753 163.347 122.788 163.246C123.612 155.757 125.337 148.394 127.929 141.318L128.175 140.633L128.443 139.943C128.91 138.752 129.241 137.757 129.696 136.382C131.535 130.858 134.61 121.609 142.853 111.445L145.49 108.252L148.136 105.862C167.601 88.1987 189.384 86.675 196.664 86.1852L197.166 86.147L197.936 86.1107C198.925 86.0643 199.917 86.0442 200.886 86.0442C209.529 86.0744 218.08 87.8218 226.041 91.1876C227.452 91.7741 228.974 92.0402 230.499 91.9676C232.025 91.8951 233.514 91.4859 234.863 90.7704H234.905C242.306 86.4775 255.864 78.6958 273.15 76.6139C273.985 76.4889 274.755 76.3942 275.319 76.3217C276.841 76.1302 279.267 75.846 282.252 75.5578C287.418 75.064 295.35 74.4755 303.783 74.4755C318.466 74.4755 330.619 76.2128 340.942 79.7821L341.611 80.0119L342.262 80.2598C366.405 89.3817 376.817 100.83 385.409 111.771C387.721 114.696 388.753 116.054 391.34 118.336L392.685 119.535L393.763 120.643L394.599 121.305C398.691 124.471 406.301 130.368 413.055 141.477L414.238 143.42L415.236 145.456C425.057 165.516 421.985 183.709 420.335 193.488L420.24 194.068C419.075 201.179 417.052 208.12 414.212 214.739L413.974 215.307C413.95 215.43 413.916 215.61 413.865 215.872C413.736 216.545 413.662 217.081 413.573 217.762L413.472 218.53C412.803 224.526 411.485 230.431 409.54 236.141C406.616 245.15 402.282 253.639 396.706 261.292C391.189 269.124 385.004 275.503 378.063 280.552C375.015 282.777 372.526 285.681 370.793 289.033C369.06 292.384 368.129 296.095 368.074 299.868C368.016 304.574 367.554 309.266 366.698 313.893C363.497 331.149 356.133 342.835 351.549 349.956L344.995 359.781C333.259 376.177 319.415 386.647 302.751 391.748L301.87 392.024C300.456 392.47 299.013 392.818 297.553 393.07L296.495 393.254C291.898 394.068 287.238 394.473 282.571 394.461C281.78 394.461 280.978 394.461 280.108 394.441H279.967C279.57 394.441 279.13 394.441 278.663 394.441C278.336 394.441 277.475 394.441 275.92 394.537L275.23 394.578L274.557 394.604C272.322 394.687 269.543 394.783 267.064 394.892C263.668 395.033 260.312 395.69 257.113 396.843C245.119 401.128 230.441 403.158 211.417 403.158Z" stroke="url(#paint5_linear_740_32669)" stroke-width="0.923475" stroke-miterlimit="10"/>
<path opacity="0.8" d="M211.419 386.442C200.005 386.442 188.634 385.678 179.014 384.93L178.011 384.854L177.011 384.713C174.709 384.394 172.414 384.144 170.203 383.906C161.794 382.991 151.33 381.851 139.886 376.484L138.768 375.958L137.73 375.377C115.765 363.061 107.556 344.571 100.954 329.713C100.142 327.883 99.2809 325.994 98.4445 324.154C95.8587 318.993 94.1073 313.706 92.6702 309.182L92.503 308.658L92.3558 308.144C85.8862 285.157 88.0226 270.568 100.531 252.459L101.087 251.652L101.693 250.881C102.784 249.484 103.781 248.18 104.735 246.922C108 242.641 111.138 238.522 115.832 233.511C116.86 232.411 117.476 230.988 117.573 229.487L117.93 224.077L117.791 222.305L117.853 220.467C118.343 205.636 125.794 194.476 129.781 188.482C130.242 187.789 130.722 187.075 131.006 186.62L131.679 185.55L132.302 184.713C133.046 183.498 135.001 179.352 136.48 175.374C136.99 173.701 137.978 170.512 138.846 167.983C139.102 167.177 139.126 166.981 139.336 165.25C140.015 158.992 141.456 152.839 143.627 146.93L143.79 146.468L143.97 146.004C144.588 144.424 145.02 143.134 145.517 141.637C147.092 136.899 149.466 129.756 155.794 121.954L157.558 119.822L159.303 118.242C172.942 105.859 187.798 103.515 197.824 102.842L198.163 102.811H198.681C199.409 102.779 200.132 102.763 200.842 102.763C209.405 102.763 219.648 106.87 225.027 109.353C226.313 109.942 227.704 110.273 229.118 110.325C230.533 110.375 231.944 110.146 233.268 109.65C236.616 108.436 239.877 107.001 243.031 105.353C249.874 101.382 261.225 94.8261 275.321 93.1835C276.099 93.0666 276.796 92.9779 277.372 92.9033C278.789 92.728 281.026 92.4861 283.796 92.1959C288.602 91.7364 295.963 91.1902 303.74 91.1902C316.529 91.1902 326.898 92.6272 335.436 95.5778L335.879 95.733L336.296 95.8963C356.461 103.515 364.486 112.27 372.205 122.095C374.713 125.263 376.484 127.529 380.166 130.822L381.061 131.62L381.896 132.457C382.647 133.2 383.456 133.884 384.316 134.5C387.777 137.179 393.577 141.667 398.723 150.138L399.509 151.434L400.176 152.792C407.633 168.009 405.237 182.202 403.804 190.681L403.709 191.257C402.756 197.112 401.087 202.826 398.739 208.272V208.314C398.09 209.723 397.64 211.214 397.407 212.748C397.205 213.818 397.08 214.679 396.959 215.632L396.858 216.408C396.322 221.3 395.252 226.119 393.67 230.776C391.284 238.211 387.714 245.211 383.101 251.507C376.289 261.224 368.414 268.06 358.928 272.404C356.622 273.456 354.653 275.122 353.238 277.225C351.821 279.325 351.013 281.775 350.902 284.305C350.858 285.343 350.84 286.195 350.87 286.671C351.337 293.981 351.868 302.265 350.239 310.798C347.627 324.912 341.649 334.399 337.157 341.364C337.157 341.364 316.545 370.052 297.789 375.778L295.769 376.409L293.601 376.788C289.951 377.437 286.25 377.757 282.542 377.745C281.841 377.745 281.121 377.745 280.349 377.725H280.281C279.785 377.725 279.245 377.725 278.634 377.725C277.898 377.725 276.699 377.725 274.835 377.854L274.379 377.884H273.93C266.753 378.142 259.971 378.386 258.084 378.753C257.077 378.91 256.093 379.198 255.16 379.614C244.545 384.265 230.624 386.442 211.419 386.442Z" stroke="url(#paint6_linear_740_32669)" stroke-width="0.857513" stroke-miterlimit="10"/>
<path opacity="0.8" d="M211.42 369.732C200.579 369.732 189.609 368.992 180.305 368.268L179.807 368.23L179.31 368.16C176.764 367.809 174.35 367.545 172.01 367.291C164.093 366.428 155.906 365.539 146.984 361.355L146.423 361.087L145.906 360.799C128.77 351.187 122.405 336.831 116.232 322.931C115.355 320.96 114.448 318.92 113.511 316.892C111.421 312.763 109.942 308.333 108.614 304.137L108.529 303.879L108.454 303.615C103.311 285.318 104.619 275.977 114.305 261.963L114.585 261.546L114.886 261.157C116.022 259.708 117.056 258.354 118.05 257.046C122.706 250.939 126.731 245.66 135.75 237.337L135.774 237.31C136.437 236.679 136.9 235.869 137.112 234.978C137.324 234.09 137.271 233.156 136.965 232.296L135.341 227.66C135.014 226.199 134.784 224.718 134.655 223.226V223.176L134.554 221.922L134.587 221.003C134.917 210.936 140.214 202.999 143.715 197.745C144.263 196.909 144.785 196.145 145.19 195.492L145.525 194.958L145.901 194.452C147.762 191.945 150.783 185.003 152.371 180.702C152.788 179.378 153.858 175.821 154.749 173.243C155.382 171.302 155.793 169.299 155.973 167.265C156.499 162.235 157.654 157.287 159.409 152.542L159.492 152.309L159.584 152.079C160.356 150.094 160.9 148.463 161.426 146.883C162.827 142.675 164.411 137.902 168.819 132.464L169.706 131.394L170.571 130.614C180.259 121.813 190.878 120.039 199.069 119.497H199.24H199.509C199.968 119.497 200.428 119.467 200.883 119.467C208.854 119.467 214.981 122.736 219.034 124.901L219.979 125.402L220.121 125.477C221.233 126.08 222.211 126.606 223.117 127.053C225.637 128.317 228.531 128.613 231.254 127.889C236.804 126.396 245.465 123.113 251.289 119.91L251.41 119.84C257.537 116.286 266.766 110.937 277.581 109.75C278.262 109.642 278.915 109.563 279.53 109.482C280.784 109.325 282.872 109.065 285.425 108.835C289.873 108.418 296.663 107.904 303.782 107.904C314.682 107.904 323.261 109.041 330.015 111.373L330.237 111.451L330.462 111.536C346.64 117.649 352.542 124.048 359.114 132.432C361.791 135.838 364.318 139.055 369.113 143.324L369.558 143.741L369.977 144.158C371.273 145.466 372.67 146.669 374.155 147.758C377.032 149.985 380.972 153.036 384.513 158.861L384.906 159.51L385.24 160.191C390.325 170.577 388.632 180.614 387.397 187.94L387.3 188.518C386.561 193.14 385.234 197.648 383.358 201.937C382.264 204.406 381.486 207.004 381.044 209.668C380.752 211.214 380.581 212.424 380.438 213.542L380.337 214.336C379.936 218.125 379.116 221.856 377.892 225.461C376.038 231.314 373.234 236.821 369.592 241.76C363.449 250.58 356.637 256.018 347.588 258.896C343.253 260.268 339.522 263.094 337.027 266.895L336.309 268L335.515 268.907C333.216 271.523 333.865 281.66 334.262 287.713C334.679 294.354 335.126 301.22 333.885 307.686C331.845 318.739 327.111 326.2 322.872 332.76C322.872 332.76 307.134 355.466 292.933 359.779L291.899 360.106L290.812 360.293C288.108 360.779 285.365 361.017 282.618 361.005C281.999 361.005 281.364 361.005 280.691 361.005C280.094 361.005 279.437 361.005 278.71 361.005C277.744 361.005 276.203 361.005 273.855 361.168H273.629H273.403C263.878 361.515 258.132 361.718 254.956 362.337C252.817 362.716 250.731 363.339 248.736 364.197C240.231 367.968 228.354 369.732 211.42 369.732Z" stroke="url(#paint7_linear_740_32669)" stroke-width="0.857513" stroke-miterlimit="10"/>
</g>
</g>
</g>
<defs>
<filter id="filter0_d_740_32669" x="0" y="0" width="488" height="488" filterUnits="userSpaceOnUse" color-interpolation-filters="sRGB">
<feFlood flood-opacity="0" result="BackgroundImageFix"/>
<feColorMatrix in="SourceAlpha" type="matrix" values="0 0 0 0 0 0 0 0 0 0 0 0 0 0 0 0 0 0 127 0" result="hardAlpha"/>
<feOffset dy="4"/>
<feGaussianBlur stdDeviation="2"/>
<feComposite in2="hardAlpha" operator="out"/>
<feColorMatrix type="matrix" values="0 0 0 0 0 0 0 0 0 0 0 0 0 0 0 0 0 0 0.25 0"/>
<feBlend mode="normal" in2="BackgroundImageFix" result="effect1_dropShadow_740_32669"/>
<feBlend mode="normal" in="SourceGraphic" in2="effect1_dropShadow_740_32669" result="shape"/>
</filter>
<filter id="filter1_i_740_32669" x="21.3916" y="21.1996" width="451.624" height="430.495" filterUnits="userSpaceOnUse" color-interpolation-filters="sRGB">
<feFlood flood-opacity="0" result="BackgroundImageFix"/>
<feBlend mode="normal" in="SourceGraphic" in2="BackgroundImageFix" result="shape"/>
<feColorMatrix in="SourceAlpha" type="matrix" values="0 0 0 0 0 0 0 0 0 0 0 0 0 0 0 0 0 0 127 0" result="hardAlpha"/>
<feOffset dx="0.26385" dy="0.395775"/>
<feGaussianBlur stdDeviation="0.329812"/>
<feComposite in2="hardAlpha" operator="arithmetic" k2="-1" k3="1"/>
<feColorMatrix type="matrix" values="0 0 0 0 0 0 0 0 0 0 0 0 0 0 0 0 0 0 0.12 0"/>
<feBlend mode="normal" in2="shape" result="effect1_innerShadow_740_32669"/>
</filter>
<linearGradient id="paint0_linear_740_32669" x1="244" y1="0" x2="244" y2="701.818" gradientUnits="userSpaceOnUse">
<stop stop-color="#08021E"/>
<stop offset="1" stop-color="#1F0777"/>
</linearGradient>
<radialGradient id="paint1_radial_740_32669" cx="0" cy="0" r="1" gradientUnits="userSpaceOnUse" gradientTransform="translate(244.527 261.388) rotate(90) scale(210.081)">
<stop offset="0.166667" stop-color="#073183"/>
<stop offset="1" stop-color="#0054F9"/>
</radialGradient>
<linearGradient id="paint2_linear_740_32669" x1="21.9193" y1="21.7273" x2="450.461" y2="471.506" gradientUnits="userSpaceOnUse">
<stop offset="0.205697" stop-color="#89D0FF"/>
<stop offset="0.398413" stop-color="#EBBF9A"/>
<stop offset="0.601546" stop-color="#EB8280"/>
<stop offset="0.841139" stop-color="#A281FF"/>
</linearGradient>
<linearGradient id="paint3_linear_740_32669" x1="38.6087" y1="40.9769" x2="433.676" y2="457.319" gradientUnits="userSpaceOnUse">
<stop offset="0.205697" stop-color="#89D0FF"/>
<stop offset="0.398413" stop-color="#EBBF9A"/>
<stop offset="0.601546" stop-color="#EB80DA"/>
<stop offset="0.841139" stop-color="#A281FF"/>
</linearGradient>
<linearGradient id="paint4_linear_740_32669" x1="55.3603" y1="57.6968" x2="416.949" y2="440.595" gradientUnits="userSpaceOnUse">
<stop offset="0.205697" stop-color="#89D0FF"/>
<stop offset="0.398413" stop-color="#EBBF9A"/>
<stop offset="0.601546" stop-color="#EB8280"/>
<stop offset="0.841139" stop-color="#A281FF"/>
</linearGradient>
<linearGradient id="paint5_linear_740_32669" x1="72.0787" y1="74.4755" x2="400.112" y2="423.826" gradientUnits="userSpaceOnUse">
<stop offset="0.205697" stop-color="#89D0FF"/>
<stop offset="0.398413" stop-color="#EBBF9A"/>
<stop offset="0.601546" stop-color="#EB80E7"/>
<stop offset="0.841139" stop-color="#A281FF"/>
</linearGradient>
<linearGradient id="paint6_linear_740_32669" x1="88.7965" y1="91.1902" x2="383.337" y2="406.967" gradientUnits="userSpaceOnUse">
<stop offset="0.205697" stop-color="#89D0FF"/>
<stop offset="0.398413" stop-color="#EBBF9A"/>
<stop offset="0.601546" stop-color="#EB80D3"/>
<stop offset="0.841139" stop-color="#A281FF"/>
</linearGradient>
<linearGradient id="paint7_linear_740_32669" x1="105.492" y1="107.904" x2="366.513" y2="390.235" gradientUnits="userSpaceOnUse">
<stop offset="0.205697" stop-color="#89D0FF"/>
<stop offset="0.398413" stop-color="#EBBF9A"/>
<stop offset="0.601546" stop-color="#A280EB"/>
<stop offset="0.841139" stop-color="#A281FF"/>
</linearGradient>
<clipPath id="clip0_740_32669">
<rect x="60" y="56" width="368" height="368" rx="184" fill="white"/>
</clipPath>
</defs>
</svg>
