<svg xmlns="http://www.w3.org/2000/svg" width="42" height="42" fill="none"><g clip-path="url(#a)"><mask id="c" width="42" height="42" x="0" y="0" maskUnits="userSpaceOnUse" style="mask-type:alpha"><circle cx="21" cy="21" r="21" fill="url(#b)"/></mask><g mask="url(#c)"><circle cx="21" cy="21" r="21" fill="#34EDB3"/><circle cx="21" cy="21" r="18.2" fill="#fff"/></g><circle cx="21" cy="21" r="16.1" fill="#06061B"/><mask id="d" width="34" height="34" x="4" y="4" maskUnits="userSpaceOnUse" style="mask-type:alpha"><path fill="#0E052F" d="M37.1 21c0 8.892-7.208 16.1-16.1 16.1-8.892 0-16.1-7.208-16.1-16.1 0-8.892 7.208-16.1 16.1-16.1 8.892 0 16.1 7.208 16.1 16.1z"/></mask><g mask="url(#d)"><path fill="url(#e)" d="M37.408 21.157c0-9.037-7.326-16.362-16.362-16.362-9.036 0-16.362 7.325-16.362 16.362 0 9.036 7.326 16.362 16.362 16.362 9.037 0 16.362-7.326 16.362-16.362z"/><path fill="#fff" d="M32.172 16.05c-.068.4-.148.594-.242.82-.102.243-.217.52-.32 1.068a8.03 8.03 0 00-.08.523l-.002.009-.001.008c-.03.228-.049.38-.14.653-.076.223-.201.595-.503.995-.244.323-.652.865-1.197.93a.485.485 0 01-.187-.012c-1.545-.79-2.873-1.372-3.332-1.503-.535-.152-.466-1.317-.406-2.346.027-.46.053-.894.031-1.266-.075-1.298-.305-2.719-1.435-3.412-.675-.413-1.546-.534-2.378-.536.154-.073.326-.173.514-.282l.006-.003c.49-.284 1.097-.636 1.701-.698.198-.02.392-.042.584-.064 1.218-.137 2.27-.256 3.38.124.503.173 1.535.748 1.801 1.283.188.377.505.672 1.136 1.259.329.305.545.483.704.614l.007.005c.223.184.267.222.333.357.204.417.13.86.026 1.474zm-5.622 5.336a.12.12 0 01.059.179c-.165.25-.355.594-.581 1.014-.106.198-.207.385-.292.53-.3.515-.323.948-.342 1.295-.021.363-.04.53-.256.675-.18.12-.363.16-1.636.354-.222.034-.32.077-.407.115l-.074.03c-.073.028-.145-.034-.14-.113.01-.183.016-.412.017-.7v-.056a7.136 7.136 0 00-.013-.614c-.017-.325-.02-.462.067-.603a.84.84 0 01.326-.31c.19-.12.451-.284.838-.815.205-.28.25-.433.279-.565.012-.055.016-.075.175-.195.166-.127.676-.512 1.327-.403.18.03.41.098.654.182zm-5.062 5.867a.132.132 0 01-.107.055c-.133.005-.226-.028-.288-.102-.131-.16-.114-.48-.083-.668l.538-.144c.042.285.062.7-.06.859zm.044-1.943a2.193 2.193 0 00-.019.26l.002.103c.001.088.005.227-.007.29-.168.062-.312.062-.5.059-.003-.055 0-.136.002-.19l.004-.126v-.132c0-.104-.002-.273.023-.323.05-.008.103-.019.158-.031.112-.024.257-.055.35-.041-.002.036-.008.09-.013.132zm-.996 1.777c-.026.276-.11.617-.37.669-.116.024-.172-.012-.208-.045-.174-.162-.202-.65-.178-1 .116.001.269-.025.45-.06.11-.022.22-.046.307-.066a3 3 0 010 .502zm-.122-.99l-.584.204c.03-.226.069-.545.083-.757.01-.15.05-.195.062-.205.004-.003.012-.01.034-.01h.01l.012.002.369-.02c.016.174.016.554.014.786zm-.944-.182a3.612 3.612 0 00-.096.512l-.73-.022a4.53 4.53 0 01.16-.64c.064-.183.132-.32.195-.359a.32.32 0 01.334.03c.161.138.205.295.138.48zm-.272 2.238c-.057.078-.12.117-.198.125a.22.22 0 01-.19-.055c-.23-.212-.211-.906-.203-1.24.303-.07.63-.128.786-.137.023.28.03 1.001-.195 1.307zm-.955-1.768c-.035.095-.07.185-.096.265-.085.026-.345.003-.61-.055l.182-1.151c.3-.08.648-.105.732-.016.11.117-.112.706-.208.957zm-.33 1.943c-.142.175-.355.257-.652.253-.205-.003-.278-.08-.315-.14-.165-.26-.003-.875.158-1.268l.99.06c.01.069.019.153.023.244.01.28-.024.628-.204.851z"/><path fill="#fff" d="M26.097 19.978c-.892-.253-.815-1.556-.74-2.817.026-.445.05-.867.03-1.212-.068-1.179-.267-2.463-1.215-3.045-1.02-.624-2.69-.482-3.72-.35h-.004c-.377.115-.73.189-1.003.174-.608-.031-1.08-.287-1.497-.512-.325-.176-.608-.328-.875-.328l-.044.001c-.798.052-1.165.247-1.498.544-.084.074-.186.29-.521 1.254-.169.487-.2.754-.232 1.013-.028.237-.057.48-.183.844-.087.25-.152.467-.215.675-.165.554-.295.99-.687 1.51-.046.06-.103.151-.169.254-.089.14-.199.314-.344.515-.102.142-.338.674-.325.836.02.258.103.417.199.604.095.184.204.393.224.68l.003.047c.035.457-.03.686-.899 1.462-.555.497-.95.975-1.216 1.327-.023.03.008.077.046.073a.473.473 0 01.175.002.93.93 0 01.563.266.092.092 0 00.1.02c.141-.058.297-.049.445-.035.184.017.369.072.49.19a.153.153 0 00.14.043.77.77 0 01.434.021.7.7 0 01.277.188.165.165 0 00.207.026.595.595 0 01.134-.064c.189-.064.397-.028.58.038.09.032.185.061.266.116.15.1.24.244.299.407a.148.148 0 00.23.06c.135-.11.242-.13.349-.082a.255.255 0 01.118.1c.045.075.136.136.219.112a1.32 1.32 0 01.922.103.627.627 0 01.253.237l.008-.05a.06.06 0 01.041-.048l.062-.02c.144-.045.881-.258 1.168.044.012.012.034.014.046 0a.399.399 0 01.09-.077.648.648 0 01.72.062c.043.036.112.023.145-.023a.375.375 0 01.342-.163l.405-.022a5.842 5.842 0 00.54-.052c.043-.007.093-.018.145-.029.197-.042.42-.09.602-.006.176.081.154.281.133.458a1.598 1.598 0 00-.017.217l.002.1c.003.153.006.294-.024.401v.001l.018.084a.17.17 0 01.003.012c.017.077.1.12.166.079.141-.086.29-.198.334-.262a.679.679 0 00.038-.14c.025-.151.053-.457.056-1.077v-.067a7.098 7.098 0 00-.012-.579c-.017-.336-.03-.6.137-.87.162-.263.32-.362.471-.458.177-.11.376-.236.711-.696.165-.226.185-.318.2-.39.037-.171.094-.274.348-.466.206-.156.835-.633 1.683-.49.278.047.73.196 1.174.37l.001.001a.268.268 0 01.067.027c.398.16.785.336 1.032.478a.135.135 0 00.172-.039.881.881 0 01.265-.224.61.61 0 00.09-.06l.027-.022c.074-.06.073-.188-.011-.232a15.28 15.28 0 00-2.694-1.07zm-8.496.274c-.276 1.207-2.146 2.534-2.996 2.534h-.016a.378.378 0 01-.096-.016l-.028-.008a1.44 1.44 0 01-.53-.327.755.755 0 01-.242-.45 1.253 1.253 0 01.078-.88l.068-.157.02-.048a11.235 11.235 0 00.135-.34c.052-.145.058-.2.065-.256.007-.044.013-.098.03-.174.054-.227.082-.419.106-.59.043-.307.081-.572.247-.816a.676.676 0 01.13-.146l.039-.03a.812.812 0 01.13-.074l.048-.02a.972.972 0 01.103-.031c.152-.037.332-.043.538-.017.226.018.435.06.62.113a3.9 3.9 0 01.511.18l.09.039.099.045.027.012a1.71 1.71 0 01.544.372c.36.379.342.816.28 1.085zm.866-4.574l-.036.218c-.084.494-.277 1.17-.986 1.344-.683.167-.845.202-1.332.224l-.034.001c-.354 0-1.038-.223-1.159-.78-.077-.358.08-.618.341-1.048l.14-.232c.344-.58.48-1 .589-1.336.106-.329.194-.6.421-.826a1.26 1.26 0 01.523-.313c.159-.05.33-.076.5-.076.331 0 .662.095.898.284.106.085.257.255.345.757.045.258-.032.733-.21 1.783zm5.066 1.403c-.245.42-.379.65-.59.824-.419.344-.907.43-1.31.43-.289 0-.534-.044-.679-.07-.416-.076-1.19-.217-1.447-.828a.658.658 0 01-.051-.295c0-.096 0-.257-.045-.642l-.003-.026a1.858 1.858 0 01.007-.623l.006-.03c.146-.742.185-.856.218-.92a.298.298 0 01.534.26c-.015.043-.056.2-.17.775l-.005.03a1.28 1.28 0 000 .44l.003.026c.049.418.049.607.049.71v.05c0 .004.003.01.004.014.049.115.158.202.29.269.083.041.17-.038.15-.128-.131-.654-.124-1.416.126-1.888a15.19 15.19 0 01.378-.653l.001-.002.044-.072.035-.06a24.506 24.506 0 01.203-.33l.028-.046a.081.081 0 00.01-.018l.005-.007a.28.28 0 01.013-.02l.017-.028v-.001c.001-.001.003-.003.003-.005l.001-.001c.05-.073.099-.141.147-.206.064-.087-.01-.202-.111-.16a1.916 1.916 0 00-.443.251.296.296 0 01-.417-.047.299.299 0 01.048-.418c.153-.12.963-.712 1.934-.434.7.199 1.066.733 1.204.934.111.163.452.658.441 1.35-.008.527-.228.906-.629 1.595z"/><path fill="#fff" d="M17.23 13.465c-.05.12-.11.27-.173.431-.15.375-.318.8-.4.954-.14.266-.249.434-.336.57-.1.155-.18.277-.24.449-.105.3-.124.635-.055 1-.186-.021-.49-.15-.525-.31-.025-.12.05-.252.27-.614l.142-.238c.378-.636.53-1.11.643-1.456.122-.377.18-.535.372-.667a.783.783 0 01.302-.119zm-.37 13.347c-.205.42-.462.81-.621 1.002-.133-.358-.363-1.177-.302-1.837a.993.993 0 01.007-.056c.024-.204.078-.39.175-.54.063-.099.239-.159.439-.159.147 0 .307.032.445.106h.001c.074.04.175.12.186.353.015.314-.135.736-.33 1.131z"/><path fill="#fff" d="M28.146 22.097c.016.013.026.032.017.05a1.453 1.453 0 01-.222.313c-.105.125-.226.267-.337.489-.16.313-.21.6-.237 1.332-.032.861.001 1.345.026 1.697.024.34.039.546-.022.878-.122.67-.409 1.114-.772 1.675-.454.702-.923 1.428-1.701 1.66-.072.021-.075.021-.278.022-.176 0-.47 0-1.026.021-1.016.037-1.525.055-1.962.14a4.3 4.3 0 00-.927.279c-.209.084-.406.164-.784.242-.226.046-.563.095-1.711.097-1.194.002-1.914.003-2.866-.106-1.305-.149-1.96-.223-2.396-.456-1.026-.547-1.46-1.532-2.177-3.164a.171.171 0 01-.004-.008c-.008-.02.016-.04.035-.029a.51.51 0 00.204.076.608.608 0 00.238-.009l.006-.003a.023.023 0 01.032.012.527.527 0 00.24.302c.122.063.26.068.396.067.14-.002.28-.01.42-.027.073-.007.149.029.177.097.128.31.285.533.523.566.012.002.03.004.05.004a.446.446 0 00.253-.096c.09-.061.23-.025.294.063.06.08.13.138.19.187.245.25.838.37 1.337.37.272 0 .516-.035.66-.105.205-.1.205-.253.195-.315a9.756 9.756 0 01-.047-.33c-.002-.013.018-.018.023-.006.03.066.067.147.164.162.01.001.022.004.036.004.139 0 .355.045.392.179a.707.707 0 00.082.19c.084.132.254.29.59.295h.026c.387 0 .685-.127.886-.377a.585.585 0 00.038-.049c.072-.102.287-.106.379-.022a.546.546 0 00.45.142.606.606 0 00.435-.267c.073-.102.126-.228.165-.363.012-.04.067-.052.098-.024.073.068.192.14.363.14a.661.661 0 00.135-.014c.335-.067.503-.345.582-.66.002-.01.017-.012.025-.004a.635.635 0 00.515.223h.042a.462.462 0 00.355-.185c.107-.14.149-.346.159-.554a.158.158 0 01.098-.137c.288-.12.637-.38.74-.557a.497.497 0 00.01-.02.167.167 0 01.114-.09c.223-.043.32-.085.409-.123a.963.963 0 01.292-.082c1.291-.197 1.543-.24 1.822-.427.418-.279.44-.662.46-1.033.018-.314.038-.67.282-1.088.088-.152.19-.343.299-.544.19-.352.456-.846.646-1.105a.13.13 0 01.156-.04c.446.19.826.38.908.445z"/><path fill="#fff" d="M15.61 25.938a8.672 8.672 0 00-.01 1.82c.02.219.049.446.085.677-.062.033-.244.08-.57.075-.466-.01-.92-.127-1.057-.275l-.021-.019c-.114-.09-.188-.151-.199-.314-.003-.055.02-.11.07-.187.029-.043.065-.093.11-.155.08-.105.177-.236.276-.405a8.505 8.505 0 01.58-.886c.082-.114.18-.25.326-.473.109-.165.2-.295.274-.397a2.48 2.48 0 01.259-.312 4.986 4.986 0 01-.042.285c-.025.153-.056.34-.081.566zM15.396 19l-.009.011c-.06.084-.13.18-.213.364-.222.495-.226.775-.23 1-.002.118-.003.212-.036.322a2.53 2.53 0 01-.1.25c-.131.301-.302.695-.226 1.226-.106-.052-.269-.169-.291-.23a2.546 2.546 0 00-.018-.087c-.037-.165-.062-.273.043-.515.277-.638.311-.789.333-.962a.935.935 0 01.02-.116c.058-.251.089-.466.114-.64.037-.262.062-.436.15-.567.033-.048.124-.073.255-.073.052 0 .11.004.174.013l.014.001.02.002zm-.365 6.29a1.71 1.71 0 00-.097-.45l-.024-.052-.032-.053-.001-.002-.001-.001-.018-.02a.402.402 0 00-.052-.043l-.034-.019a.12.12 0 00-.02-.008c-.002-.002-.004-.002-.005-.002l-.004-.003h-.004l-.001-.001-.007-.003c-.09-.033-.18-.069-.274-.083h-.006l-.033-.002a.36.36 0 00-.039 0h-.023l-.007.001-.004.001-.065.018-.028.015-.023.014-.003.002-.002.001-.03.03a.514.514 0 00-.023.026v.002l-.003.001v.001l-.007.011a20.418 20.418 0 01-.372.557 205.05 205.05 0 00-.377.55c-.008.01-.015.022-.022.033l.159.03c.12.022.238.043.36.06.25.034.503.05.756.04a.15.15 0 01.036.003c.06-.087.132-.19.224-.33.05-.077.099-.148.144-.215a.255.255 0 01-.038-.11zm-.889 1.032c-.021.192-.237.69-.573 1.165-.282.397-.453.493-.487.497-.135-.02-.27-.355-.376-.689-.042-.135-.081-.27-.113-.382a2.694 2.694 0 01-.074-.808c.284.158.783.2 1.483.203h.002l.138.014zm-.498-1.586v.001l-.01.014a100.877 100.877 0 01-.549.802c-.034.05-.08.104-.119.163-.1-.024-.199-.046-.298-.074a2.512 2.512 0 01-.283-.098.2.2 0 00-.053-.068v-.003l.086-.174a6.02 6.02 0 01.168-.314c.107-.185.236-.373.417-.492a.535.535 0 01.255-.105c.01-.001.07 0 .1.002h.011l.013.004c.02.007.042.011.063.018a.694.694 0 01.021.011c.019.011.038.021.055.035-.028-.021.038.047.038.042.054.074.07.136.085.236zm-.952-.501c-.223.183-.385.426-.52.68-.075.14-.144.284-.215.427a.678.678 0 01-.023.043 2.186 2.186 0 01-.498-.18c.066-.126.146-.247.222-.365.106-.166.222-.33.348-.483.047-.059.097-.123.163-.161.068-.04.15-.03.228-.026.082.005.17.007.249.038a.288.288 0 01.046.027zm-.354 2.986a.16.16 0 00-.028.032l-.021.005a4.341 4.341 0 01-.475.02c-.059-.002-.111-.011-.135-.048-.039-.059-.05-.16-.064-.238a3.86 3.86 0 01-.03-1.16c.2.07.404.126.613.16-.045.347.032.856.077 1.012l.063.217zm-.638-3.113a5.966 5.966 0 00-.48.684c-.058.097-.124.197-.172.3a.748.748 0 01-.2-.088 1.909 1.909 0 01-.148-.104l-.067-.053-.014-.01c.016-.046.045-.096.062-.13a3.36 3.36 0 01.397-.653c.039-.048.075-.11.135-.128a.422.422 0 01.17 0c.13.025.232.084.317.182zm-1.355.937c.002-.01.014-.01.02-.003.046.066.11.123.18.177.03.024.06.047.092.069a.012.012 0 01.005.012 3.995 3.995 0 00-.122.938c0 .014-.021.017-.024.003-.09-.367-.21-.98-.151-1.196zm.861.656a4.45 4.45 0 00-.042.79 4.503 4.503 0 00.042.436v.001a.263.263 0 00-.098-.003c.007-.003-.01-.001-.017-.001h-.002l-.015-.002c-.037-.009-.04-.013-.07-.031a.361.361 0 01-.104-.115.885.885 0 01-.091-.41 3.61 3.61 0 01.063-.81l.144.061c.063.028.127.055.19.084z"/><g stroke-miterlimit="10" filter="url(#f)" opacity=".8"><path stroke="url(#g)" stroke-width="1.055" d="M18.15 39.442c-1.2 0-2.336-.075-3.29-.15l-.262-.02-.263-.036c-.115-.017-.27-.033-.421-.05-.918-.1-2.624-.285-4.508-1.17l-.293-.138-.272-.153C5.22 35.696 3.866 32.642 3.136 31l-.156-.348a14.493 14.493 0 01-.798-2.055l-.044-.139-.037-.135c-.525-1.867-.658-3.48-.417-5.075.24-1.601.834-3.058 1.865-4.583l.534-.873c.108-.176.185-.37.226-.573.407-2.019 1.332-3.449 1.786-4.132.125-.827.331-1.64.616-2.426l.042-.119.045-.116c.008-.02.017-.05.035-.102.204-.615.682-2.053 1.907-3.563l.46-.558.469-.423a10.864 10.864 0 014.198-2.37c.87-.26 1.767-.418 2.674-.473l.088-.006.132-.006a9.879 9.879 0 012.153.131c.349.059.707.018 1.033-.118a11.797 11.797 0 013.02-.811c.088-.013.163-.022.223-.03a25.697 25.697 0 013.04-.196c1.78 0 3.313.23 4.685.705l.117.04.114.044c3.028 1.144 4.569 2.742 5.678 4.152l.052.068.153.135a10.557 10.557 0 012.513 2.828l.207.34.174.356c1.481 3.023 1.01 5.815.833 6.864l-.01.055c-.127.774-.33 1.534-.605 2.268a11.576 11.576 0 01-.498 2.082 12.069 12.069 0 01-1.719 3.36c-.43.608-.914 1.174-1.448 1.692a1.177 1.177 0 00-.348.682c-.023.16-.05.319-.079.476-.434 2.328-1.453 3.949-1.868 4.595l-1.257 1.805c-1.514 1.885-3.31 3.13-5.483 3.797l-.526.166-.57.099c-.65.114-1.31.172-1.97.17-.091 0-.183 0-.285-.003h-.029l-.112.008-.12.004h-.003c-.252.008-.502.05-.743.122-1.404.43-2.992.631-4.934.631z" opacity=".8"/><path stroke="url(#h)" stroke-width="1.055" d="M18.15 38.201a40.41 40.41 0 01-3.176-.146l-.22-.017-.219-.03c-.136-.02-.303-.037-.465-.055-.89-.097-2.38-.259-4.044-1.039l-.244-.115-.227-.127c-3.195-1.792-4.377-4.453-5.083-6.043l-.17-.379a13.39 13.39 0 01-.727-1.872l-.037-.116-.032-.112c-.467-1.661-.588-3.079-.38-4.462.21-1.383.734-2.66 1.65-4.008l.685-1.118c.121-.198.204-.417.245-.645.34-1.9 1.238-3.246 1.645-3.859l.052-.077.019-.031a1.33 1.33 0 00.024-.056l.073-.234a11.21 11.21 0 01.565-2.283l.037-.1.04-.1.057-.169c.195-.585.599-1.8 1.656-3.103l.384-.464.389-.353a9.421 9.421 0 013.64-2.054 10.462 10.462 0 012.357-.414l.073-.006.11-.005c.134-.007.267-.01.396-.01.574 0 1.146-.166 1.707-.05.433.09.884.041 1.289-.138.756-.333 1.774-.466 2.94-.611l.211-.028a23.224 23.224 0 012.857-.186c1.616 0 2.992.204 4.208.624l.097.034.095.037c2.684 1.014 4.01 2.371 5.044 3.687.057.073.116.148.138.174l.024.022.196.175.027.027a9.061 9.061 0 012.234 2.489l.172.283.146.297c1.274 2.6.875 4.966.705 5.977l-.01.053a10.6 10.6 0 01-.59 2.146 10.106 10.106 0 01-.458 1.981 10.68 10.68 0 01-1.52 2.974 10.379 10.379 0 01-1.54 1.737 1.46 1.46 0 00-.473.929 9.38 9.38 0 01-.113.77c-.383 2.056-1.277 3.478-1.687 4.114l-1.018 1.48c-1.353 1.739-2.956 2.876-4.898 3.474l-.44.138-.475.082c-.567.1-1.142.15-1.718.149-.084 0-.17 0-.262-.002h-.08l-.056.002-.1.006-.102.004-.202.008c-.267.01-.532.055-.787.136-1.293.413-2.787.608-4.635.608z" opacity=".8"/><path stroke="url(#i)" stroke-width=".989" d="M18.15 36.74c-1.098 0-2.165-.072-3.063-.142l-.175-.013-.175-.025c-.158-.022-.336-.04-.509-.06-.851-.093-2.137-.233-3.58-.909l-.195-.092-.183-.102c-2.77-1.553-3.788-3.844-4.462-5.36l-.182-.412a11.785 11.785 0 01-.655-1.688l-.029-.092-.025-.09c-.41-1.454-.518-2.677-.342-3.847.18-1.186.645-2.292 1.466-3.48l.097-.141.106-.136.194-.25.411-.756a2.42 2.42 0 00.27-.793c.262-1.694 1.078-2.918 1.454-3.482l.002-.003.064-.096.08-.129a4.19 4.19 0 00.11-.256c.037-.114.08-.256.128-.402a9.56 9.56 0 01.51-2.114l.028-.08.031-.08c.026-.067.046-.125.084-.24.18-.541.514-1.547 1.403-2.643l.308-.372.31-.28a7.971 7.971 0 013.081-1.74 8.967 8.967 0 012.04-.356l.06-.004.088-.004a7.058 7.058 0 012.092.216c.498.126 1.025.07 1.486-.157.738-.358 1.724-.738 2.88-.88l.201-.027a21.799 21.799 0 012.674-.175c1.45 0 2.67.179 3.73.545l.078.027.076.029c2.465.931 3.568 2.152 4.41 3.222.185.236.213.272.34.386l.157.14.061.062a7.628 7.628 0 011.96 2.157l.139.227.116.237c1.067 2.178.735 4.144.576 5.09l-.01.052a9.2 9.2 0 01-.575 2.02l-.007.06a8.749 8.749 0 01-.41 1.824 9.261 9.261 0 01-1.321 2.588 8.71 8.71 0 01-1.714 1.827 1.397 1.397 0 00-.527 1.027c-.018.391-.063.78-.135 1.165-.331 1.782-1.11 3.018-1.506 3.635l-.79 1.166c-1.19 1.588-2.6 2.616-4.303 3.139l-.351.11-.38.065a8.342 8.342 0 01-1.468.127c-.077 0-.154 0-.239-.002h-.103c-.014 0-.058 0-.146.006l-.08.005-.079.003-.406.015a2.99 2.99 0 00-.838.15c-1.184.4-2.581.587-4.339.587z" opacity=".8"/><path stroke="url(#j)" stroke-width=".923" d="M18.149 35.276a38.58 38.58 0 01-2.949-.136l-.131-.01-.131-.019c-.18-.024-.369-.045-.552-.065-.8-.087-1.895-.206-3.117-.78l-.146-.069-.137-.076c-2.346-1.316-3.209-3.259-3.84-4.678-.065-.146-.133-.3-.2-.447a10.378 10.378 0 01-.58-1.5l-.023-.069-.019-.067c-.686-2.438-.428-4.149.92-6.1l.073-.106.08-.102c.09-.114.173-.224.255-.329.125-.163.25-.33.388-.5.085-.106.153-.225.203-.352l.155-.394c.066-.169.107-.345.122-.525.134-1.564.895-2.704 1.272-3.269l.002-.003.083-.126.088-.14.027-.037c.047-.095.139-.295.22-.505.043-.143.112-.363.179-.563 0-.008 0-.016.003-.025.072-.655.223-1.3.45-1.919l.021-.06.024-.06c.04-.104.07-.191.11-.312.16-.483.43-1.292 1.15-2.182l.231-.279.232-.21c1.703-1.545 3.61-1.678 4.246-1.72l.044-.004.067-.003a5.703 5.703 0 012.46.444.904.904 0 00.771-.037h.004c.648-.375 1.834-1.056 3.347-1.238a21.605 21.605 0 01.796-.092 20.374 20.374 0 011.884-.095c1.285 0 2.348.152 3.252.464l.058.02.057.022c2.113.798 3.023 1.8 3.775 2.757.203.256.293.375.52.574l.117.105.094.097.074.058a6.196 6.196 0 011.614 1.765l.104.17.087.178c.86 1.756.59 3.348.446 4.203l-.008.051a7.776 7.776 0 01-.527 1.809l-.021.05-.01.049a2.548 2.548 0 00-.025.165l-.01.067a7.28 7.28 0 01-.343 1.541 7.857 7.857 0 01-1.123 2.201 7.125 7.125 0 01-1.632 1.685 2.131 2.131 0 00-.873 1.69 7.24 7.24 0 01-.12 1.228c-.281 1.51-.925 2.532-1.326 3.155l-.574.86c-1.027 1.434-2.238 2.35-3.696 2.797l-.077.024c-.124.04-.25.07-.378.092l-.093.016c-.402.07-.81.106-1.218.105l-.216-.001h-.126c-.029 0-.104 0-.24.008l-.06.004-.06.002-.655.025a2.94 2.94 0 00-.87.17c-1.05.376-2.334.553-3.999.553z" opacity=".8"/><path stroke="url(#k)" stroke-width=".858" d="M18.15 33.814c-1 0-1.995-.067-2.836-.133l-.088-.006-.088-.013c-.201-.027-.402-.05-.595-.07-.736-.08-1.652-.18-2.653-.65l-.098-.046-.09-.05c-1.923-1.078-2.64-2.696-3.219-3.996-.07-.16-.146-.326-.22-.487a8.906 8.906 0 01-.504-1.31l-.015-.046-.013-.044c-.566-2.012-.38-3.288.715-4.873l.049-.07.053-.068c.096-.122.183-.236.266-.346.286-.375.56-.735.971-1.174a.57.57 0 00.153-.352l.03-.473-.011-.155.005-.161c.043-1.298.695-2.274 1.044-2.799.04-.06.082-.123.107-.163l.059-.093.054-.074c.065-.106.236-.469.366-.817.045-.146.131-.425.207-.647a1.02 1.02 0 00.043-.239c.06-.547.185-1.086.375-1.603l.015-.04.015-.04a8.16 8.16 0 00.136-.383c.138-.414.345-1.04.899-1.722l.154-.187.153-.138c1.193-1.083 2.493-1.288 3.37-1.347l.03-.003h.046a4.27 4.27 0 01.189-.004c.749 0 1.645.36 2.116.576a.945.945 0 00.72.026c.294-.106.58-.231.855-.376.599-.347 1.592-.92 2.826-1.064l.179-.025a18.893 18.893 0 012.307-.15c1.12 0 2.026.126 2.774.384l.038.014.037.014c1.764.667 2.466 1.433 3.142 2.292.22.277.374.476.696.764l.079.07.073.073c.066.065.136.125.212.179.302.234.81.627 1.26 1.368l.069.114.058.118c.653 1.332.443 2.574.318 3.316l-.008.05a6.326 6.326 0 01-.435 1.489v.003a1.45 1.45 0 00-.117.389 4.054 4.054 0 00-.04.252l-.008.068c-.047.428-.14.85-.279 1.257a6.354 6.354 0 01-.925 1.814c-.596.85-1.285 1.448-2.115 1.828a1.201 1.201 0 00-.702 1.042c-.004.09-.006.165-.003.207.041.64.087 1.364-.055 2.11-.229 1.236-.752 2.066-1.145 2.675 0 0-1.803 2.51-3.445 3.012l-.176.055-.19.033a5.42 5.42 0 01-.968.084c-.061 0-.124 0-.192-.002h-.15c-.064 0-.169 0-.332.011l-.04.003h-.04c-.627.022-1.22.044-1.386.076a1.008 1.008 0 00-.255.075c-.93.407-2.148.598-3.828.598z" opacity=".8"/><path stroke="url(#l)" stroke-width=".858" d="M18.15 32.352c-.95 0-1.91-.065-2.723-.128l-.044-.004-.043-.006c-.223-.03-.434-.054-.64-.076-.692-.075-1.408-.153-2.189-.52l-.049-.023-.045-.025c-1.5-.841-2.057-2.097-2.597-3.314-.076-.172-.156-.35-.238-.528a7.416 7.416 0 01-.428-1.116l-.008-.023-.006-.023c-.45-1.6-.336-2.418.512-3.644l.024-.037.026-.034c.1-.127.19-.245.277-.36.408-.534.76-.996 1.549-1.724l.002-.002a.414.414 0 00.104-.44l-.142-.405a2.954 2.954 0 01-.06-.388v-.004l-.008-.11.002-.08c.03-.881.493-1.576.799-2.035.048-.073.094-.14.13-.197l.028-.047.033-.044c.163-.22.428-.827.566-1.204.037-.115.13-.427.209-.652.055-.17.09-.345.107-.523a5.3 5.3 0 01.3-1.288l.007-.021.009-.02c.067-.174.115-.316.16-.455.123-.368.262-.786.648-1.261l.077-.094.076-.068c.848-.77 1.777-.925 2.494-.973h.038l.12-.003c.698 0 1.234.286 1.588.476l.083.044.012.006c.098.053.183.099.263.138.22.11.473.137.712.073a9.148 9.148 0 001.753-.698l.01-.006c.537-.31 1.344-.779 2.29-.883.06-.01.117-.016.17-.023a17.65 17.65 0 012.122-.138c.955 0 1.705.1 2.296.303l.02.007.02.007c1.415.535 1.931 1.095 2.506 1.829.235.298.456.58.875.953l.04.036.036.037c.113.114.236.22.366.315.251.195.596.462.906.971l.034.057.03.06c.444.909.296 1.787.188 2.428l-.008.05c-.065.405-.181.8-.345 1.174a2.801 2.801 0 00-.203.677c-.025.135-.04.241-.053.339l-.009.07a4.503 4.503 0 01-.214.973 4.893 4.893 0 01-.726 1.426c-.537.772-1.133 1.248-1.925 1.5a1.73 1.73 0 00-.924.7l-.063.096-.07.08c-.2.228-.144 1.115-.11 1.645.037.581.077 1.182-.032 1.748-.179.967-.593 1.62-.964 2.194 0 0-1.377 1.986-2.62 2.364l-.09.028-.095.017a3.953 3.953 0 01-.717.062h-.342c-.084 0-.22 0-.425.014h-.04c-.833.03-1.335.048-1.613.102-.188.034-.37.088-.545.163-.744.33-1.783.485-3.265.485z" opacity=".8"/></g></g></g><defs><linearGradient id="b" x1="21" x2="21" y1="0" y2="61.409" gradientUnits="userSpaceOnUse"><stop stop-color="#08021E"/><stop offset="1" stop-color="#1F0777"/></linearGradient><linearGradient id="g" x1="1.568" x2="39.065" y1="1.901" y2="41.257" gradientUnits="userSpaceOnUse"><stop offset=".206" stop-color="#89D0FF"/><stop offset=".398" stop-color="#EBBF9A"/><stop offset=".602" stop-color="#EB8280"/><stop offset=".841" stop-color="#A281FF"/></linearGradient><linearGradient id="h" x1="3.028" x2="37.597" y1="3.585" y2="40.015" gradientUnits="userSpaceOnUse"><stop offset=".206" stop-color="#89D0FF"/><stop offset=".398" stop-color="#EBBF9A"/><stop offset=".602" stop-color="#EB80DA"/><stop offset=".841" stop-color="#A281FF"/></linearGradient><linearGradient id="i" x1="4.494" x2="36.133" y1="5.048" y2="38.552" gradientUnits="userSpaceOnUse"><stop offset=".206" stop-color="#89D0FF"/><stop offset=".398" stop-color="#EBBF9A"/><stop offset=".602" stop-color="#EB8280"/><stop offset=".841" stop-color="#A281FF"/></linearGradient><linearGradient id="j" x1="5.957" x2="34.66" y1="6.517" y2="37.085" gradientUnits="userSpaceOnUse"><stop offset=".206" stop-color="#89D0FF"/><stop offset=".398" stop-color="#EBBF9A"/><stop offset=".602" stop-color="#EB80E7"/><stop offset=".841" stop-color="#A281FF"/></linearGradient><linearGradient id="k" x1="7.42" x2="33.192" y1="7.979" y2="35.61" gradientUnits="userSpaceOnUse"><stop offset=".206" stop-color="#89D0FF"/><stop offset=".398" stop-color="#EBBF9A"/><stop offset=".602" stop-color="#EB80D3"/><stop offset=".841" stop-color="#A281FF"/></linearGradient><linearGradient id="l" x1="8.88" x2="31.72" y1="9.442" y2="34.146" gradientUnits="userSpaceOnUse"><stop offset=".206" stop-color="#89D0FF"/><stop offset=".398" stop-color="#EBBF9A"/><stop offset=".602" stop-color="#A280EB"/><stop offset=".841" stop-color="#A281FF"/></linearGradient><radialGradient id="e" cx="0" cy="0" r="1" gradientTransform="rotate(90 -.913 21.959) scale(18.3821)" gradientUnits="userSpaceOnUse"><stop offset=".167" stop-color="#073183"/><stop offset="1" stop-color="#0054F9"/></radialGradient><clipPath id="a"><path fill="#fff" d="M0 0h42v42H0z"/></clipPath><filter id="f" width="40.721" height="38.992" x="1.04" y="1.373" color-interpolation-filters="sRGB" filterUnits="userSpaceOnUse"><feFlood flood-opacity="0" result="BackgroundImageFix"/><feBlend in="SourceGraphic" in2="BackgroundImageFix" result="shape"/><feColorMatrix in="SourceAlpha" result="hardAlpha" values="0 0 0 0 0 0 0 0 0 0 0 0 0 0 0 0 0 0 127 0"/><feOffset dx=".264" dy=".396"/><feGaussianBlur stdDeviation=".33"/><feComposite in2="hardAlpha" k2="-1" k3="1" operator="arithmetic"/><feColorMatrix values="0 0 0 0 0 0 0 0 0 0 0 0 0 0 0 0 0 0 0.12 0"/><feBlend in2="shape" result="effect1_innerShadow_7277_57976"/></filter></defs></svg>