<svg width="42" height="42" fill="none" xmlns="http://www.w3.org/2000/svg">
  <g clip-path="url(#a)">
    <mask id="c" width="42" height="42" x="0" y="0" maskUnits="userSpaceOnUse" style="mask-type:alpha">
      <circle cx="21" cy="21" r="21" fill="url(#b)"/>
    </mask>
    <g mask="url(#c)">
      <circle cx="21" cy="21" r="21" fill="#34EDB3"/>
      <circle cx="21" cy="21" r="18.2" fill="#fff"/>
    </g>
    <circle cx="21" cy="21" r="16.1" fill="#06061B"/>
    <g clip-path="url(#d)">
      <circle cx="20.9" cy="20.9" r="21" fill="#fff"/>
      <path fill="#000" d="M29.843 15.671h-2.85c-.328 0-.644-.14-.866-.388l-1.156-1.297a.9.9 0 0 0-.678-.308.9.9 0 0 0-.68.307l-.994 1.118a1.73 1.73 0 0 1-1.276.575H5.747a15.7 15.7 0 0 0-.847 3.967h14.722a.95.95 0 0 0 .686-.294l1.37-1.425a.9.9 0 0 1 .652-.281h.054a.9.9 0 0 1 .679.308l1.156 1.298c.221.247.537.388.866.388H37.1a16 16 0 0 0-.847-3.974zM13.81 27.995a.95.95 0 0 0 .686-.295l1.37-1.425a.9.9 0 0 1 .659-.28h.054c.262 0 .51.113.678.3l1.156 1.298c.222.248.538.388.867.388h16.288a16 16 0 0 0 1.324-4.014H21.255a1.16 1.16 0 0 1-.866-.388l-1.156-1.284a.917.917 0 0 0-1.357 0l-.995 1.117a1.7 1.7 0 0 1-1.283.575H5.122a16 16 0 0 0 1.324 4.015zM25.361 11.33a.95.95 0 0 0 .685-.295l1.371-1.425a.9.9 0 0 1 .659-.281h.053a.9.9 0 0 1 .68.308l1.155 1.304c.222.248.537.388.867.388h3.097A16.15 16.15 0 0 0 21.007 4.9a16.16 16.16 0 0 0-12.929 6.43zm-6.216 20.645h-4.233c-.33 0-.645-.14-.867-.388l-1.156-1.298a.917.917 0 0 0-1.357 0l-.995 1.118a1.7 1.7 0 0 1-1.283.575h-.067a16.16 16.16 0 0 0 11.82 5.118c4.67 0 8.862-1.974 11.82-5.118z"/>
    </g>
  </g>
  <defs>
    <clipPath id="a">
      <path fill="#fff" d="M0 0h42v42H0z"/>
    </clipPath>
    <clipPath id="d">
      <rect width="32.2" height="32.2" x="4.9" y="4.9" fill="#fff" rx="16.1"/>
    </clipPath>
    <linearGradient id="b" x1="21" x2="21" y1="0" y2="61.409" gradientUnits="userSpaceOnUse">
      <stop stop-color="#08021E"/>
      <stop offset="1" stop-color="#1F0777"/>
    </linearGradient>
  </defs>
</svg>
