<svg xmlns="http://www.w3.org/2000/svg" width="42" height="42" fill="none"><g clip-path="url(#a)"><mask id="c" width="42" height="42" x="0" y="0" maskUnits="userSpaceOnUse" style="mask-type:alpha"><circle cx="21" cy="21" r="21" fill="url(#b)"/></mask><g mask="url(#c)"><circle cx="21" cy="21" r="21" fill="#34EDB3"/><circle cx="21" cy="21" r="18.2" fill="#fff"/></g><circle cx="21" cy="21" r="16.1" fill="#06061B"/><g clip-path="url(#d)"><circle cx="20.9" cy="20.9" r="21" fill="#fff"/><path fill="#000" d="M29.843 15.671h-2.85c-.328 0-.644-.14-.866-.388l-1.156-1.297a.91.91 0 0 0-.678-.308.91.91 0 0 0-.68.307l-.994 1.118a1.727 1.727 0 0 1-1.276.575H5.747a15.74 15.74 0 0 0-.847 3.967h14.722a.947.947 0 0 0 .686-.294l1.37-1.425a.897.897 0 0 1 .652-.281h.054a.91.91 0 0 1 .679.308l1.156 1.298c.221.247.537.388.866.388H37.1a15.916 15.916 0 0 0-.847-3.974l-6.41.006ZM13.81 27.995a.948.948 0 0 0 .686-.295l1.37-1.425a.912.912 0 0 1 .659-.28h.054c.262 0 .51.113.678.3l1.156 1.298c.222.248.538.388.867.388h16.288a16.008 16.008 0 0 0 1.324-4.014H21.255c-.329 0-.645-.14-.866-.388l-1.156-1.284a.917.917 0 0 0-1.357 0l-.995 1.117a1.706 1.706 0 0 1-1.283.575H5.122a16.007 16.007 0 0 0 1.324 4.015l7.364-.007ZM25.361 11.33a.948.948 0 0 0 .685-.295l1.371-1.425a.901.901 0 0 1 .659-.281h.053a.91.91 0 0 1 .68.308l1.155 1.304c.222.248.537.388.867.388h3.097A16.151 16.151 0 0 0 21.007 4.9a16.164 16.164 0 0 0-12.929 6.43h17.283ZM19.145 31.975h-4.233c-.33 0-.645-.14-.867-.388l-1.156-1.298a.917.917 0 0 0-1.357 0l-.995 1.118a1.706 1.706 0 0 1-1.283.575h-.067a16.158 16.158 0 0 0 11.82 5.118c4.67 0 8.862-1.974 11.82-5.118l-13.682-.007Z"/></g></g><defs><clipPath id="a"><path fill="#fff" d="M0 0h42v42H0z"/></clipPath><clipPath id="d"><rect width="32.2" height="32.2" x="4.9" y="4.9" fill="#fff" rx="16.1"/></clipPath><linearGradient id="b" x1="21" x2="21" y1="0" y2="61.409" gradientUnits="userSpaceOnUse"><stop stop-color="#08021E"/><stop offset="1" stop-color="#1F0777"/></linearGradient></defs></svg>