<svg xmlns="http://www.w3.org/2000/svg" width="42" height="42" fill="none"><g clip-path="url(#a)"><mask id="c" width="42" height="42" x="0" y="0" maskUnits="userSpaceOnUse" style="mask-type:alpha"><circle cx="21" cy="21" r="21" fill="url(#b)" transform="matrix(-1 0 0 1 42 0)"/></mask><g mask="url(#c)"><circle cx="21" cy="21" r="21" fill="#34EDB3" transform="matrix(-1 0 0 1 42 0)"/><circle cx="18.2" cy="18.2" r="18.2" fill="#fff" transform="matrix(-1 0 0 1 39.2 2.8)"/></g><circle cx="16.1" cy="16.1" r="16.1" fill="#0B0B22" transform="matrix(-1 0 0 1 37.1 4.9)"/><circle cx="21" cy="21" r="16.1" fill="#2D374B"/><path fill="#2D374B" d="m24.135 19.846 2.027-3.44 5.463 8.51.002 1.632-.017-11.237a.845.845 0 0 0-.392-.674L21.383 8.98a.867.867 0 0 0-.84.054l-.034.022-9.548 5.532-.037.017a.844.844 0 0 0-.493.719l.015 9.156 5.088-7.887c.641-1.045 2.037-1.382 3.333-1.364l1.52.04-8.96 14.37 1.056.608 9.068-14.964 4.009-.015-9.045 15.342 3.77 2.17.45.258c.194.077.41.082.607.012l9.974-5.78-1.908 1.105-5.273-8.53Zm.773 11.137-3.807-5.975 2.324-3.943 5 7.88-3.517 2.038Z"/><path fill="#28A0F0" d="m21.101 25.008 3.808 5.975 3.516-2.038-5-7.88-2.324 3.943ZM31.628 26.548l-.003-1.632-5.463-8.51-2.028 3.44 5.274 8.529 1.908-1.105a.846.846 0 0 0 .312-.616v-.106Z"/><path fill="#fff" d="m8.735 28.088 2.692 1.552 8.961-14.37-1.52-.04c-1.296-.018-2.692.318-3.333 1.364l-5.088 7.887-1.712 2.63v.978ZM25.56 15.269l-4.008.015-9.069 14.964 3.17 1.825.862-1.462L25.56 15.27Z"/><path fill="#96BEDC" d="M33.316 15.248a2.554 2.554 0 0 0-1.198-2.052l-9.964-5.73a2.592 2.592 0 0 0-2.287 0c-.083.042-9.69 5.614-9.69 5.614a2.557 2.557 0 0 0-1.135 1.072c-.184.336-.29.71-.309 1.091v11.868l1.711-2.63-.013-9.157a.85.85 0 0 1 .353-.636C10.829 14.655 20.6 9 20.63 8.984a.867.867 0 0 1 .752-.004l9.835 5.658a.846.846 0 0 1 .392.674v11.344a.825.825 0 0 1-.294.615l-1.908 1.105-.984.57-3.516 2.038-3.567 2.067a.865.865 0 0 1-.607-.012l-4.22-2.426-.861 1.461 3.792 2.184.328.186.273.149c.317.139.66.21 1.007.207.318 0 .633-.059.928-.175l10.36-5.999a2.53 2.53 0 0 0 .975-1.907v-11.47Z"/></g><defs><linearGradient id="b" x1="21" x2="21" y1="0" y2="61.409" gradientUnits="userSpaceOnUse"><stop stop-color="#08021E"/><stop offset="1" stop-color="#1F0777"/></linearGradient><clipPath id="a"><path fill="#fff" d="M0 0h42v42H0z"/></clipPath></defs></svg>