<svg xmlns="http://www.w3.org/2000/svg" width="42" height="42" fill="none"><g clip-path="url(#a)"><mask id="c" width="42" height="42" x="0" y="0" maskUnits="userSpaceOnUse" style="mask-type:alpha"><circle cx="21" cy="21" r="21" fill="url(#b)"/></mask><g mask="url(#c)"><circle cx="21" cy="21" r="21" fill="#34EDB3"/><circle cx="21" cy="21" r="18.2" fill="#fff"/></g><circle cx="21" cy="21" r="16.1" fill="#06061B"/><g clip-path="url(#d)"><path fill="#2E3148" d="M21 37.1c8.892 0 16.1-7.208 16.1-16.1 0-8.892-7.208-16.1-16.1-16.1-8.892 0-16.1 7.208-16.1 16.1 0 8.892 7.208 16.1 16.1 16.1Z"/><path fill="#1B1E36" d="M21 30.342a9.342 9.342 0 1 0 0-18.684 9.342 9.342 0 0 0 0 18.684Z"/><path fill="#6F7390" d="M21.033 6.954c-1.738 0-3.147 6.304-3.147 14.08 0 7.775 1.41 14.078 3.147 14.078 1.738 0 3.147-6.303 3.147-14.079 0-7.776-1.409-14.079-3.147-14.079Zm.217 27.364c-.198.265-.397.066-.397.066-.8-.927-1.2-2.65-1.2-2.65-1.4-4.505-1.067-14.179-1.067-14.179.658-7.68 1.854-9.493 2.262-9.896a.248.248 0 0 1 .318-.026c.591.419 1.087 2.17 1.087 2.17 1.463 5.433 1.33 10.535 1.33 10.535.133 4.439-.732 9.408-.732 9.408-.667 3.776-1.6 4.572-1.6 4.572Z"/><path fill="#6F7390" d="M33.245 14.027c-.865-1.508-7.033.406-13.781 4.276-6.748 3.87-11.508 8.229-10.644 9.736.865 1.507 7.034-.407 13.782-4.276 6.748-3.87 11.508-8.229 10.643-9.736ZM9.62 27.832c-.332-.041-.257-.314-.257-.314.407-1.155 1.7-2.36 1.7-2.36 3.213-3.456 11.77-7.98 11.77-7.98 6.987-3.252 9.158-3.115 9.709-2.963a.249.249 0 0 1 .18.265c-.066.721-1.342 2.022-1.342 2.022-3.981 3.975-8.473 6.399-8.473 6.399-3.784 2.325-8.525 4.045-8.525 4.045-3.608 1.3-4.762.886-4.762.886Z"/><path fill="#6F7390" d="M33.215 28.09c.872-1.505-3.876-5.884-10.6-9.783C15.89 14.41 9.723 12.47 8.85 13.977c-.87 1.506 3.876 5.883 10.605 9.782 6.728 3.898 12.888 5.837 13.759 4.33ZM9.429 14.557c-.129-.305.143-.379.143-.379 1.204-.227 2.895.29 2.895.29 4.6 1.048 12.803 6.187 12.803 6.187 6.315 4.419 7.284 6.365 7.429 6.918a.248.248 0 0 1-.138.289c-.658.301-2.422-.148-2.422-.148-5.436-1.458-9.784-4.128-9.784-4.128-3.907-2.107-7.77-5.35-7.77-5.35-2.934-2.47-3.155-3.676-3.155-3.676v-.003Z"/><path fill="#B7B9C8" d="M21 22.656a1.656 1.656 0 1 0 0-3.312 1.656 1.656 0 0 0 0 3.312Zm6.791-7.023c.53 0 .96-.445.96-.993 0-.55-.43-.994-.96-.994s-.96.445-.96.993c0 .55.43.994.96.994Zm-15.769 3.379c.531 0 .961-.445.961-.993 0-.55-.43-.994-.96-.994-.531 0-.961.445-.961.994 0 .549.43.993.96.993Zm7.024 12.191c.53 0 .96-.445.96-.994 0-.548-.43-.993-.96-.993-.531 0-.961.445-.961.993 0 .55.43.994.96.994Z"/></g></g><defs><clipPath id="a"><path fill="#fff" d="M0 0h42v42H0z"/></clipPath><clipPath id="d"><path fill="#fff" d="M4.9 4.9h32.2v32.2H4.9z"/></clipPath><linearGradient id="b" x1="21" x2="21" y1="0" y2="61.409" gradientUnits="userSpaceOnUse"><stop stop-color="#08021E"/><stop offset="1" stop-color="#1F0777"/></linearGradient></defs></svg>