<svg width="42" height="42" fill="none" xmlns="http://www.w3.org/2000/svg">
  <g clip-path="url(#a)">
    <mask id="c" width="42" height="42" x="0" y="0" maskUnits="userSpaceOnUse" style="mask-type:alpha">
      <circle cx="21" cy="21" r="21" fill="url(#b)"/>
    </mask>
    <g mask="url(#c)">
      <circle cx="21" cy="21" r="21" fill="#34EDB3"/>
      <circle cx="21" cy="21" r="18.2" fill="#fff"/>
    </g>
    <circle cx="21" cy="21" r="16.1" fill="#06061B"/>
    <circle cx="21" cy="21" r="16.1" fill="#06061B"/>
    <path fill="#fff" d="M18.84 24.008h-4.535l-.835 2.489h-2.095L15.36 15.33h2.504l3.985 11.167h-2.174l-.834-2.489zm-.614-1.795-1.653-4.898-1.654 4.898zm7.832 4.237a5 5 0 0 1-1.48-.347 4.1 4.1 0 0 1-1.197-.772 3.7 3.7 0 0 1-.803-1.086q-.3-.615-.315-1.34H24.2q.031.773.535 1.292.52.504 1.323.583v-3.118l-.74-.11q-1.276-.174-2.032-.961-.74-.788-.74-2 0-.63.284-1.182.284-.567.771-.992.489-.44 1.119-.709.645-.268 1.338-.33v-1.465h1.15v1.496q.709.095 1.307.378a3.6 3.6 0 0 1 1.04.693q.441.425.693.976.267.552.3 1.182H28.61a1.5 1.5 0 0 0-.425-.977 1.93 1.93 0 0 0-.977-.583v2.883l.536.078a4.6 4.6 0 0 1 1.134.331q.535.237.929.614.41.378.63.914.236.52.236 1.181a3.08 3.08 0 0 1-.992 2.3q-.457.425-1.103.708-.63.268-1.37.347v1.622h-1.15zm1.15-1.686q.74-.126 1.15-.535.41-.425.41-1.071 0-.6-.394-.882-.394-.299-.898-.394l-.268-.047v2.93zm-1.15-7.733a2.2 2.2 0 0 0-1.134.488q-.456.378-.456 1.024 0 .552.299.835.315.268.819.346l.472.08z"/>
  </g>
  <defs>
    <linearGradient id="b" x1="21" x2="21" y1="0" y2="61.409" gradientUnits="userSpaceOnUse">
      <stop stop-color="#08021E"/>
      <stop offset="1" stop-color="#1F0777"/>
    </linearGradient>
    <clipPath id="a">
      <path fill="#fff" d="M0 0h42v42H0z"/>
    </clipPath>
  </defs>
</svg>
