<svg xmlns="http://www.w3.org/2000/svg" width="42" height="42" fill="none"><g clip-path="url(#a)"><mask id="c" width="42" height="42" x="0" y="0" maskUnits="userSpaceOnUse" style="mask-type:alpha"><circle cx="21" cy="21" r="21" fill="url(#b)"/></mask><g mask="url(#c)"><circle cx="21" cy="21" r="21" fill="#34EDB3"/><circle cx="21" cy="21" r="18.2" fill="#fff"/></g><circle cx="21" cy="21" r="16.1" fill="#06061B"/><circle cx="21" cy="21" r="16.1" fill="#06061B"/><path fill="#fff" d="M18.84 24.008h-4.535l-.835 2.489h-2.095L15.36 15.33h2.504l3.985 11.167h-2.174l-.834-2.489Zm-.614-1.795-1.653-4.898-1.654 4.898h3.307ZM26.058 26.45a4.922 4.922 0 0 1-1.48-.347 4.118 4.118 0 0 1-1.197-.772 3.7 3.7 0 0 1-.803-1.086c-.2-.41-.305-.856-.315-1.34H24.2c.02.515.2.946.535 1.292.347.336.788.53 1.323.583v-3.118l-.74-.11c-.85-.116-1.528-.436-2.032-.961-.493-.525-.74-1.192-.74-2 0-.42.095-.814.284-1.182.189-.378.446-.709.771-.992.326-.294.699-.53 1.119-.709.43-.178.876-.289 1.338-.33v-1.465h1.15v1.496c.473.063.908.189 1.307.378a3.6 3.6 0 0 1 1.04.693c.294.283.525.609.693.976.178.368.278.762.3 1.182H28.61a1.485 1.485 0 0 0-.425-.977 1.928 1.928 0 0 0-.977-.583v2.883l.536.078c.399.063.777.174 1.134.331.357.158.666.362.929.614.273.252.483.557.63.914.157.346.236.74.236 1.181a3.082 3.082 0 0 1-.992 2.3c-.305.283-.672.52-1.103.708-.42.179-.876.294-1.37.347v1.622h-1.15V26.45Zm1.15-1.686c.494-.084.877-.262 1.15-.535.273-.284.41-.64.41-1.071 0-.4-.132-.693-.394-.882-.263-.2-.562-.33-.898-.394l-.268-.047v2.93Zm-1.15-7.733a2.223 2.223 0 0 0-1.134.488c-.304.252-.456.594-.456 1.024 0 .368.1.646.299.835.21.178.483.294.819.346l.472.08V17.03Z"/></g><defs><linearGradient id="b" x1="21" x2="21" y1="0" y2="61.409" gradientUnits="userSpaceOnUse"><stop stop-color="#08021E"/><stop offset="1" stop-color="#1F0777"/></linearGradient><clipPath id="a"><path fill="#fff" d="M0 0h42v42H0z"/></clipPath></defs></svg>