<svg width="488" height="488" viewBox="0 0 488 488" fill="none" xmlns="http://www.w3.org/2000/svg">
<g filter="url(#filter0_d_2115_4971)">
<mask id="mask0_2115_4971" style="mask-type:alpha" maskUnits="userSpaceOnUse" x="4" y="0" width="480" height="480">
<circle cx="244" cy="240" r="240" fill="url(#paint0_linear_2115_4971)"/>
</mask>
<g mask="url(#mask0_2115_4971)">
<circle cx="244" cy="240" r="240" fill="#31D8A4"/>
<circle cx="244" cy="240" r="208" fill="white"/>
</g>
<circle cx="244" cy="240" r="184" fill="url(#paint1_linear_2115_4971)"/>
<path d="M357.485 119.128H130.271V325.639H357.485V119.128Z" fill="white"/>
<path fill-rule="evenodd" clip-rule="evenodd" d="M427.877 240C427.877 341.487 345.553 423.756 244 423.756C142.447 423.756 60.1221 341.487 60.1221 240C60.1221 138.515 142.447 56.2451 244 56.2451C345.553 56.2451 427.877 138.515 427.877 240ZM191.894 313.126H156.209C148.71 313.126 145.006 313.126 142.747 311.682C140.308 310.102 138.818 307.483 138.637 304.594C138.501 301.932 140.353 298.68 144.057 292.18L232.169 136.974C235.919 130.383 237.816 127.088 240.21 125.869C242.784 124.56 245.856 124.56 248.431 125.869C250.825 127.088 252.722 130.383 256.471 136.974L274.586 168.573L274.678 168.734C278.727 175.805 280.781 179.39 281.677 183.154C282.671 187.261 282.671 191.595 281.677 195.703C280.774 199.495 278.741 203.106 274.631 210.284L228.348 292.045L228.228 292.254C224.152 299.383 222.086 302.996 219.223 305.722C216.106 308.702 212.357 310.867 208.246 312.088C204.497 313.126 200.296 313.126 191.894 313.126ZM282.012 313.126H333.145C340.688 313.126 344.483 313.126 346.743 311.638C349.182 310.057 350.717 307.393 350.854 304.506C350.984 301.929 349.172 298.805 345.622 292.682C345.5 292.473 345.377 292.261 345.252 292.046L319.639 248.258L319.348 247.765C315.749 241.683 313.932 238.612 311.599 237.424C309.025 236.115 305.997 236.115 303.423 237.424C301.074 238.643 299.177 241.848 295.428 248.303L269.906 292.091L269.818 292.242C266.082 298.686 264.215 301.907 264.35 304.55C264.53 307.439 266.021 310.102 268.46 311.682C270.674 313.126 274.468 313.126 282.012 313.126Z" fill="#E84142"/>
</g>
<defs>
<filter id="filter0_d_2115_4971" x="0" y="0" width="488" height="488" filterUnits="userSpaceOnUse" color-interpolation-filters="sRGB">
<feFlood flood-opacity="0" result="BackgroundImageFix"/>
<feColorMatrix in="SourceAlpha" type="matrix" values="0 0 0 0 0 0 0 0 0 0 0 0 0 0 0 0 0 0 127 0" result="hardAlpha"/>
<feOffset dy="4"/>
<feGaussianBlur stdDeviation="2"/>
<feComposite in2="hardAlpha" operator="out"/>
<feColorMatrix type="matrix" values="0 0 0 0 0 0 0 0 0 0 0 0 0 0 0 0 0 0 0.25 0"/>
<feBlend mode="normal" in2="BackgroundImageFix" result="effect1_dropShadow_2115_4971"/>
<feBlend mode="normal" in="SourceGraphic" in2="effect1_dropShadow_2115_4971" result="shape"/>
</filter>
<linearGradient id="paint0_linear_2115_4971" x1="244" y1="0" x2="244" y2="701.818" gradientUnits="userSpaceOnUse">
<stop stop-color="#08021E"/>
<stop offset="1" stop-color="#1F0777"/>
</linearGradient>
<linearGradient id="paint1_linear_2115_4971" x1="293" y1="179" x2="185" y2="297" gradientUnits="userSpaceOnUse">
<stop stop-color="#76F8A4"/>
<stop offset="0.540761" stop-color="#678FD3"/>
<stop offset="1" stop-color="#904BF7"/>
</linearGradient>
</defs>
</svg>
