<svg xmlns="http://www.w3.org/2000/svg" width="42" height="42" fill="none"><g clip-path="url(#a)"><mask id="c" width="42" height="42" x="0" y="0" maskUnits="userSpaceOnUse" style="mask-type:alpha"><circle cx="21" cy="21" r="21" fill="url(#b)"/></mask><g mask="url(#c)"><circle cx="21" cy="21" r="21" fill="#34EDB3"/><circle cx="21" cy="21" r="18.2" fill="#fff"/></g><circle cx="21" cy="21" r="16.1" fill="#06061B"/><g fill-rule="evenodd" clip-path="url(#d)" clip-rule="evenodd"><path fill="#0055D5" d="M21 4.9c8.89 0 16.1 7.21 16.1 16.1S29.89 37.1 21 37.1 4.9 29.89 4.9 21 12.11 4.9 21 4.9Z"/><path fill="#fff" d="M13.658 15.552s-1.732-1.385-1.851 2.035c-.12 2.65-.116 7.796 1.11 10.227.52.914 1.212.634 2.5-.277 1.12-.828 5.174-4.563 6.89-6.202 1.717-1.64 5.197-6.34 5.922-3.146.287 1.343.64 2.483.37 5.461-.084.918-.476 1.613-2.267.37-1.352-.869-2.637-1.803-2.637-1.803s-.248-.444-.834.277c-.46.576-.692.718.045 1.156.74.438 4.486 3.02 5.922 3.423 1.185.345 1.861.338 1.896-1.99-.006-1.848-.112-7.139-.785-9.393-.509-1.404-1.256-2.041-2.87-.463-1.613 1.577-6.7 6.51-9.482 8.745-1.845 1.385-2.634 2.634-3.33.325-.49-1.748-1.123-7.19.88-6.153 1.252.599 1.877.596 1.387.972-.49.374-1.896 1.665-1.896 1.665s-.435.351-.232 1.111c.203.531.203.795 1.294-.232 1.092-1.027 1.897-1.803 1.897-1.803s.174-.274.692.232c.519.505.602.647.602.647s.139.377.693-.277c.557-.654.914-1.053-.139-1.665-1.05-.618-5.777-3.242-5.777-3.242Z"/></g></g><defs><clipPath id="a"><path fill="#fff" d="M0 0h42v42H0z"/></clipPath><clipPath id="d"><path fill="#fff" d="M4.9 4.9h32.2v32.2H4.9z"/></clipPath><linearGradient id="b" x1="21" x2="21" y1="0" y2="61.409" gradientUnits="userSpaceOnUse"><stop stop-color="#08021E"/><stop offset="1" stop-color="#1F0777"/></linearGradient></defs></svg>