<svg width="480" height="480" viewBox="0 0 480 480" fill="none" xmlns="http://www.w3.org/2000/svg">
<mask id="mask0" mask-type="alpha" maskUnits="userSpaceOnUse" x="0" y="0" width="480" height="480">
<circle cx="240" cy="240" r="240" fill="url(#paint0_linear)"/>
</mask>
<g mask="url(#mask0)">
<circle cx="240" cy="240" r="240" fill="#31D8A4"/>
<circle cx="240" cy="240" r="208" fill="white"/>
</g>
<circle cx="240" cy="240" r="184" fill="#0E052F"/>
<path d="M240 424C341.62 424 424 341.62 424 240C424 138.38 341.62 56 240 56C138.38 56 56 138.38 56 240C56 341.62 138.38 424 240 424Z" fill="#8DC351"/>
<path d="M299.876 177.141C290.952 154.463 268.573 152.416 242.514 157.476L233.233 125.127L213.545 130.773L222.584 162.283C217.409 163.755 212.142 165.388 206.91 166.998L197.825 135.281L178.148 140.916L187.406 173.266C183.174 174.577 179.011 175.865 174.928 177.038L174.894 176.923L147.731 184.708L153.768 205.753C153.768 205.753 168.235 201.291 168.063 201.636C176.044 199.348 179.965 203.235 181.863 207.018L192.443 243.864C192.983 243.715 193.708 243.531 194.559 243.404L192.477 244.002L207.278 295.637C207.646 298.248 207.324 302.675 201.758 304.285C202.068 304.435 187.429 308.379 187.429 308.379L190.269 333.024L215.891 325.664C220.664 324.318 225.379 323.053 229.99 321.754L239.386 354.471L259.051 348.836L249.77 316.464C255.045 315.064 260.305 313.608 265.548 312.094L274.771 344.328L294.471 338.682L285.11 306.022C317.666 294.625 338.447 279.641 332.409 247.717C327.556 222.026 312.583 214.229 292.493 215.103C302.245 206.018 306.442 193.736 299.876 177.153V177.141ZM292.401 254.996C299.416 279.457 256.751 288.68 243.411 292.521L230.979 249.166C244.319 245.336 285.075 229.501 292.389 255.008L292.401 254.996ZM265.698 196.461C272.069 218.714 236.407 226.131 225.287 229.317L214.017 189.998C225.126 186.813 259.039 173.266 265.698 196.473V196.461Z" fill="white"/>
<defs>
<linearGradient id="paint0_linear" x1="240" y1="0" x2="240" y2="701.818" gradientUnits="userSpaceOnUse">
<stop stop-color="#08021E"/>
<stop offset="1" stop-color="#1F0777"/>
</linearGradient>
</defs>
</svg>
