<svg xmlns="http://www.w3.org/2000/svg" width="42" height="42" fill="none"><g clip-path="url(#a)"><mask id="c" width="42" height="42" x="0" y="0" maskUnits="userSpaceOnUse" style="mask-type:alpha"><circle cx="21" cy="21" r="21" fill="url(#b)"/></mask><g mask="url(#c)"><circle cx="21" cy="21" r="21" fill="#34EDB3"/><circle cx="21" cy="21" r="18.2" fill="#fff"/></g><circle cx="21" cy="21" r="16.1" fill="#06061B"/><g clip-path="url(#d)"><path fill="#8DC351" d="M21 37.268c8.984 0 16.268-7.284 16.268-16.268 0-8.984-7.284-16.268-16.268-16.268-8.984 0-16.268 7.284-16.268 16.268 0 8.984 7.284 16.268 16.268 16.268Z"/><path fill="#fff" d="M26.294 15.443c-.79-2.005-2.768-2.186-5.072-1.739l-.82-2.86-1.74.5.798 2.785c-.457.13-.923.275-1.386.417l-.803-2.804-1.74.498.82 2.86c-.375.116-.743.23-1.104.334l-.003-.01-2.402.688.534 1.86s1.28-.394 1.264-.364c.706-.202 1.052.142 1.22.476l.935 3.258c.048-.014.112-.03.188-.041l-.184.053 1.308 4.565c.033.23.004.622-.488.765.027.013-1.267.361-1.267.361l.251 2.18 2.265-.651c.423-.12.84-.231 1.247-.346l.83 2.893 1.74-.499-.821-2.862a67.26 67.26 0 0 0 1.395-.386l.815 2.85 1.742-.5-.828-2.887c2.879-1.008 4.716-2.332 4.182-5.155-.43-2.271-1.753-2.96-3.53-2.883.863-.803 1.234-1.89.654-3.355v-.001Zm-.661 6.883c.62 2.162-3.152 2.978-4.331 3.317l-1.1-3.833c1.18-.338 4.783-1.738 5.43.517v-.001Zm-2.361-5.175c.563 1.967-2.59 2.623-3.573 2.904l-.996-3.476c.982-.281 3.98-1.479 4.569.573v-.001Z"/></g></g><defs><clipPath id="a"><path fill="#fff" d="M0 0h42v42H0z"/></clipPath><clipPath id="d"><path fill="#fff" d="M4.732 4.732h32.535v32.535H4.732z"/></clipPath><linearGradient id="b" x1="21" x2="21" y1="0" y2="61.409" gradientUnits="userSpaceOnUse"><stop stop-color="#08021E"/><stop offset="1" stop-color="#1F0777"/></linearGradient></defs></svg>