<svg width="42" height="42" viewBox="0 0 42 42" fill="none" xmlns="http://www.w3.org/2000/svg">
<g clip-path="url(#clip0_7277_57868)">
<mask id="mask0_7277_57868" style="mask-type:alpha" maskUnits="userSpaceOnUse" x="0" y="0" width="42" height="42">
<circle cx="21" cy="21" r="21" transform="matrix(-1 0 0 1 42 0)" fill="url(#paint0_linear_7277_57868)"/>
</mask>
<g mask="url(#mask0_7277_57868)">
<circle cx="21" cy="21" r="21" transform="matrix(-1 0 0 1 42 0)" fill="#34EDB3"/>
<circle cx="18.2" cy="18.2" r="18.2" transform="matrix(-1 0 0 1 39.2 2.80005)" fill="white"/>
</g>
<circle cx="16.1" cy="16.1" r="16.1" transform="matrix(-1 0 0 1 37.1 4.90002)" fill="#0B0B22"/>
<g clip-path="url(#clip1_7277_57868)">
<circle cx="20.9999" cy="21" r="16.1" fill="#0D0808"/>
<g filter="url(#filter0_f_7277_57868)">
<g filter="url(#filter1_f_7277_57868)">
<path d="M19.2279 15.4639L18.9541 15.7961L19.2419 16.1162L19.9203 16.871V18.2082L18.409 19.6472H11.9757V11.9167H18.4267L19.9203 13.3781V14.624L19.2279 15.4639ZM17.4808 19.089H17.5899L17.6891 19.0435C18.2367 18.7926 18.5868 18.243 18.5955 17.6425L18.5955 17.6424C18.6041 17.0264 18.2513 16.4542 17.6889 16.1968L17.5898 16.1514H17.4808H13.7611H13.2611V16.6514V18.589V19.089H13.7611H17.4808ZM17.4808 15.468H17.5899L17.6891 15.4226C18.2367 15.1717 18.5868 14.622 18.5955 14.0216L18.5955 14.0214C18.6041 13.4054 18.2513 12.8333 17.6889 12.5758L17.5898 12.5304H17.4808H13.7611H13.2611V13.0304V14.968V15.468H13.7611H17.4808Z" stroke="#A01400"/>
</g>
<g filter="url(#filter2_f_7277_57868)">
<path d="M22.166 18.1731V11.9167H23.5026V17.5515V17.7586L23.649 17.905L24.5785 18.835L24.725 18.9816H24.9322H30.0972V19.6472H23.6418L22.166 18.1731Z" stroke="#A01400"/>
</g>
<g filter="url(#filter3_f_7277_57868)">
<path d="M11.9715 21.4879H13.2879V27.1967V27.4119L13.4442 27.5598L14.3828 28.4481L14.5274 28.585H14.7265H17.0801H17.2789L17.4234 28.4485L18.3403 27.5826L18.497 27.4347V27.2191V21.4879H19.9203V27.8761L18.4616 29.3168H13.4122L11.9184 27.8029L11.9715 21.4879Z" stroke="#A01400"/>
</g>
<g filter="url(#filter4_f_7277_57868)">
<path d="M28.625 21.4879L30.0975 22.8757V24.3051L29.3723 25.0552L29.0375 25.4015L29.3711 25.749L30.0975 26.5056V29.3168H28.7645L28.7419 26.6638L28.7397 26.4034L28.525 26.2559L27.8945 25.823L27.769 25.7368L27.6168 25.7352L23.9523 25.6958L23.4469 25.6904V26.1958V29.3168H22.1663V21.4879H28.625ZM27.723 25.029H27.8321L27.9313 24.9835C28.4788 24.7326 28.829 24.1829 28.8376 23.5825L28.8376 23.5823C28.8463 22.9663 28.4935 22.3942 27.9311 22.1367L27.832 22.0914H27.723H24.0033H23.5033V22.5914V24.529V25.029H24.0033H27.723Z" stroke="#A01400"/>
</g>
</g>
<g filter="url(#filter5_f_7277_57868)">
<g filter="url(#filter6_f_7277_57868)">
<path d="M19.2279 15.4639L18.9541 15.7961L19.2419 16.1162L19.9203 16.871V18.2082L18.409 19.6472H11.9757V11.9167H18.4267L19.9203 13.3781V14.624L19.2279 15.4639ZM17.4808 19.089H17.5899L17.6891 19.0435C18.2367 18.7926 18.5868 18.243 18.5955 17.6425L18.5955 17.6424C18.6041 17.0264 18.2513 16.4542 17.6889 16.1968L17.5898 16.1514H17.4808H13.7611H13.2611V16.6514V18.589V19.089H13.7611H17.4808ZM17.4808 15.468H17.5899L17.6891 15.4226C18.2367 15.1717 18.5868 14.622 18.5955 14.0216L18.5955 14.0214C18.6041 13.4054 18.2513 12.8333 17.6889 12.5758L17.5898 12.5304H17.4808H13.7611H13.2611V13.0304V14.968V15.468H13.7611H17.4808Z" stroke="#A01400"/>
</g>
<g filter="url(#filter7_f_7277_57868)">
<path d="M22.166 18.1731V11.9167H23.5026V17.5515V17.7586L23.649 17.905L24.5785 18.835L24.725 18.9816H24.9322H30.0972V19.6472H23.6418L22.166 18.1731Z" stroke="#A01400"/>
</g>
<g filter="url(#filter8_f_7277_57868)">
<path d="M11.9715 21.4879H13.2879V27.1967V27.4119L13.4442 27.5598L14.3828 28.4481L14.5274 28.585H14.7265H17.0801H17.2789L17.4234 28.4485L18.3403 27.5826L18.497 27.4347V27.2191V21.4879H19.9203V27.8761L18.4616 29.3168H13.4122L11.9184 27.8029L11.9715 21.4879Z" stroke="#A01400"/>
</g>
<g filter="url(#filter9_f_7277_57868)">
<path d="M28.625 21.4879L30.0975 22.8757V24.3051L29.3723 25.0552L29.0375 25.4015L29.3711 25.749L30.0975 26.5056V29.3168H28.7645L28.7419 26.6638L28.7397 26.4034L28.525 26.2559L27.8945 25.823L27.769 25.7368L27.6168 25.7352L23.9523 25.6958L23.4469 25.6904V26.1958V29.3168H22.1663V21.4879H28.625ZM27.723 25.029H27.8321L27.9313 24.9835C28.4788 24.7326 28.829 24.1829 28.8376 23.5825L28.8376 23.5823C28.8463 22.9663 28.4935 22.3942 27.9311 22.1367L27.832 22.0914H27.723H24.0033H23.5033V22.5914V24.529V25.029H24.0033H27.723Z" stroke="#A01400"/>
</g>
</g>
<mask id="mask1_7277_57868" style="mask-type:luminance" maskUnits="userSpaceOnUse" x="11" y="11" width="10" height="10">
<path d="M20.4203 13.1856L18.6306 11.4364H11.4757V20.1575H18.6089L20.4203 18.4347V16.6934L19.6137 15.797L20.4203 14.8196V13.1856ZM17.4808 18.601H13.7611V16.6655H17.4808C17.8591 16.8385 18.1014 17.2265 18.0955 17.6484C18.0896 18.0596 17.8492 18.4323 17.4808 18.601ZM17.4808 14.9839H13.7611V13.0484H17.4808C17.8591 13.2214 18.1014 13.6094 18.0955 14.0313C18.0896 14.4425 17.8492 14.8152 17.4808 14.9839Z" fill="white"/>
</mask>
<g mask="url(#mask1_7277_57868)">
<path d="M31.0592 11.4167H10.5103V12.0851H31.0592V11.4167Z" fill="#FF8300"/>
<path d="M31.0592 12.321H10.5103V12.9894H31.0592V12.321Z" fill="#FF8300"/>
<path d="M31.0592 13.2253H10.5103V13.8937H31.0592V13.2253Z" fill="#FF8300"/>
<path d="M31.0592 14.1295H10.5103V14.7979H31.0592V14.1295Z" fill="#FF8300"/>
<path d="M31.0592 15.0338H10.5103V15.7022H31.0592V15.0338Z" fill="#FF8300"/>
<path d="M31.0592 15.9381H10.5103V16.6065H31.0592V15.9381Z" fill="#FF8300"/>
<path d="M31.0592 16.8424H10.5103V17.5108H31.0592V16.8424Z" fill="#FF8300"/>
<path d="M31.0592 17.7467H10.5103V18.4151H31.0592V17.7467Z" fill="#FF8300"/>
<path d="M31.0592 18.6509H10.5103V19.3193H31.0592V18.6509Z" fill="#FF8300"/>
<path d="M31.0592 19.5552H10.5103V20.2236H31.0592V19.5552Z" fill="#FF8300"/>
</g>
<mask id="mask2_7277_57868" style="mask-type:luminance" maskUnits="userSpaceOnUse" x="21" y="11" width="10" height="10">
<path d="M21.666 11.4364H24.0026V17.5646L24.9322 18.4937H30.5972V20.1575H23.4348L21.666 18.3926V11.4364Z" fill="white"/>
</mask>
<g mask="url(#mask2_7277_57868)">
<path d="M31.0593 11.4167H10.5104V12.0851H31.0593V11.4167Z" fill="#FF8300"/>
<path d="M31.0593 12.321H10.5104V12.9894H31.0593V12.321Z" fill="#FF8300"/>
<path d="M31.0593 13.2253H10.5104V13.8937H31.0593V13.2253Z" fill="#FF8300"/>
<path d="M31.0593 14.1295H10.5104V14.7979H31.0593V14.1295Z" fill="#FF8300"/>
<path d="M31.0593 15.0338H10.5104V15.7022H31.0593V15.0338Z" fill="#FF8300"/>
<path d="M31.0593 15.9381H10.5104V16.6065H31.0593V15.9381Z" fill="#FF8300"/>
<path d="M31.0593 16.8424H10.5104V17.5108H31.0593V16.8424Z" fill="#FF8300"/>
<path d="M31.0593 17.7467H10.5104V18.4151H31.0593V17.7467Z" fill="#FF8300"/>
<path d="M31.0593 18.6509H10.5104V19.3193H31.0593V18.6509Z" fill="#FF8300"/>
<path d="M31.0593 19.5552H10.5104V20.2236H31.0593V19.5552Z" fill="#FF8300"/>
</g>
<mask id="mask3_7277_57868" style="mask-type:luminance" maskUnits="userSpaceOnUse" x="11" y="20" width="10" height="10">
<path d="M11.4757 20.9973H13.7879V27.1995L14.7265 28.0868H17.0801L17.997 27.2219V20.9973H20.4203V28.0868L18.6669 29.8167H13.2032L11.4166 28.0082L11.4757 20.9973Z" fill="white"/>
</mask>
<g mask="url(#mask3_7277_57868)">
<path d="M30.9824 20.9902H10.4335V21.6586H30.9824V20.9902Z" fill="#FF8300"/>
<path d="M30.9823 21.8945H10.4333V22.5629H30.9823V21.8945Z" fill="#FF8300"/>
<path d="M30.9823 22.7988H10.4333V23.4672H30.9823V22.7988Z" fill="#FF8300"/>
<path d="M30.9823 23.703H10.4333V24.3714H30.9823V23.703Z" fill="#FF8300"/>
<path d="M30.9823 24.6073H10.4333V25.2757H30.9823V24.6073Z" fill="#FF8300"/>
<path d="M30.9823 25.5116H10.4333V26.18H30.9823V25.5116Z" fill="#FF8300"/>
<path d="M30.9823 26.4159H10.4333V27.0843H30.9823V26.4159Z" fill="#FF8300"/>
<path d="M30.9823 27.3202H10.4333V27.9886H30.9823V27.3202Z" fill="#FF8300"/>
<path d="M30.9823 28.2245H10.4333V28.8929H30.9823V28.2245Z" fill="#FF8300"/>
<path d="M30.9823 29.1287H10.4333V29.797H30.9823V29.1287Z" fill="#FF8300"/>
</g>
<mask id="mask4_7277_57868" style="mask-type:luminance" maskUnits="userSpaceOnUse" x="21" y="20" width="10" height="10">
<path d="M30.5971 22.6671L28.8235 20.9973H21.6663V29.8167H23.9469V26.1996L27.6115 26.239L28.2419 26.6714L28.2687 29.8167H30.5975V26.3082L29.7318 25.4074L30.5975 24.513V22.6675L30.5971 22.6671ZM27.723 24.5346H24.0033V22.5991H27.723C28.1013 22.7721 28.3436 23.1601 28.3377 23.582C28.3318 23.9932 28.0914 24.3659 27.723 24.5346Z" fill="white"/>
</mask>
<g mask="url(#mask4_7277_57868)">
<path d="M30.9824 20.9902H10.4335V21.6586H30.9824V20.9902Z" fill="#FF8300"/>
<path d="M30.9823 21.8945H10.4333V22.5629H30.9823V21.8945Z" fill="#FF8300"/>
<path d="M30.9823 22.7988H10.4333V23.4672H30.9823V22.7988Z" fill="#FF8300"/>
<path d="M30.9823 23.703H10.4333V24.3714H30.9823V23.703Z" fill="#FF8300"/>
<path d="M30.9823 24.6073H10.4333V25.2757H30.9823V24.6073Z" fill="#FF8300"/>
<path d="M30.9823 25.5116H10.4333V26.18H30.9823V25.5116Z" fill="#FF8300"/>
<path d="M30.9823 26.4159H10.4333V27.0843H30.9823V26.4159Z" fill="#FF8300"/>
<path d="M30.9823 27.3202H10.4333V27.9886H30.9823V27.3202Z" fill="#FF8300"/>
<path d="M30.9823 28.2245H10.4333V28.8929H30.9823V28.2245Z" fill="#FF8300"/>
<path d="M30.9823 29.1287H10.4333V29.797H30.9823V29.1287Z" fill="#FF8300"/>
</g>
</g>
</g>
<defs>
<filter id="filter0_f_7277_57868" x="10.4166" y="10.4167" width="21.1809" height="20.4" filterUnits="userSpaceOnUse" color-interpolation-filters="sRGB">
<feFlood flood-opacity="0" result="BackgroundImageFix"/>
<feBlend mode="normal" in="SourceGraphic" in2="BackgroundImageFix" result="shape"/>
<feGaussianBlur stdDeviation="0.5" result="effect1_foregroundBlur_7277_57868"/>
</filter>
<filter id="filter1_f_7277_57868" x="10.4757" y="10.4167" width="10.9446" height="10.7305" filterUnits="userSpaceOnUse" color-interpolation-filters="sRGB">
<feFlood flood-opacity="0" result="BackgroundImageFix"/>
<feBlend mode="normal" in="SourceGraphic" in2="BackgroundImageFix" result="shape"/>
<feGaussianBlur stdDeviation="0.5" result="effect1_foregroundBlur_7277_57868"/>
</filter>
<filter id="filter2_f_7277_57868" x="20.666" y="10.4167" width="10.9313" height="10.7305" filterUnits="userSpaceOnUse" color-interpolation-filters="sRGB">
<feFlood flood-opacity="0" result="BackgroundImageFix"/>
<feBlend mode="normal" in="SourceGraphic" in2="BackgroundImageFix" result="shape"/>
<feGaussianBlur stdDeviation="0.5" result="effect1_foregroundBlur_7277_57868"/>
</filter>
<filter id="filter3_f_7277_57868" x="10.4166" y="19.9879" width="11.0037" height="10.8289" filterUnits="userSpaceOnUse" color-interpolation-filters="sRGB">
<feFlood flood-opacity="0" result="BackgroundImageFix"/>
<feBlend mode="normal" in="SourceGraphic" in2="BackgroundImageFix" result="shape"/>
<feGaussianBlur stdDeviation="0.5" result="effect1_foregroundBlur_7277_57868"/>
</filter>
<filter id="filter4_f_7277_57868" x="20.6663" y="19.9879" width="10.9313" height="10.8289" filterUnits="userSpaceOnUse" color-interpolation-filters="sRGB">
<feFlood flood-opacity="0" result="BackgroundImageFix"/>
<feBlend mode="normal" in="SourceGraphic" in2="BackgroundImageFix" result="shape"/>
<feGaussianBlur stdDeviation="0.5" result="effect1_foregroundBlur_7277_57868"/>
</filter>
<filter id="filter5_f_7277_57868" x="10.4166" y="10.4167" width="21.1809" height="20.4" filterUnits="userSpaceOnUse" color-interpolation-filters="sRGB">
<feFlood flood-opacity="0" result="BackgroundImageFix"/>
<feBlend mode="normal" in="SourceGraphic" in2="BackgroundImageFix" result="shape"/>
<feGaussianBlur stdDeviation="0.5" result="effect1_foregroundBlur_7277_57868"/>
</filter>
<filter id="filter6_f_7277_57868" x="10.4757" y="10.4167" width="10.9446" height="10.7305" filterUnits="userSpaceOnUse" color-interpolation-filters="sRGB">
<feFlood flood-opacity="0" result="BackgroundImageFix"/>
<feBlend mode="normal" in="SourceGraphic" in2="BackgroundImageFix" result="shape"/>
<feGaussianBlur stdDeviation="0.5" result="effect1_foregroundBlur_7277_57868"/>
</filter>
<filter id="filter7_f_7277_57868" x="20.666" y="10.4167" width="10.9313" height="10.7305" filterUnits="userSpaceOnUse" color-interpolation-filters="sRGB">
<feFlood flood-opacity="0" result="BackgroundImageFix"/>
<feBlend mode="normal" in="SourceGraphic" in2="BackgroundImageFix" result="shape"/>
<feGaussianBlur stdDeviation="0.5" result="effect1_foregroundBlur_7277_57868"/>
</filter>
<filter id="filter8_f_7277_57868" x="10.4166" y="19.9879" width="11.0037" height="10.8289" filterUnits="userSpaceOnUse" color-interpolation-filters="sRGB">
<feFlood flood-opacity="0" result="BackgroundImageFix"/>
<feBlend mode="normal" in="SourceGraphic" in2="BackgroundImageFix" result="shape"/>
<feGaussianBlur stdDeviation="0.5" result="effect1_foregroundBlur_7277_57868"/>
</filter>
<filter id="filter9_f_7277_57868" x="20.6663" y="19.9879" width="10.9313" height="10.8289" filterUnits="userSpaceOnUse" color-interpolation-filters="sRGB">
<feFlood flood-opacity="0" result="BackgroundImageFix"/>
<feBlend mode="normal" in="SourceGraphic" in2="BackgroundImageFix" result="shape"/>
<feGaussianBlur stdDeviation="0.5" result="effect1_foregroundBlur_7277_57868"/>
</filter>
<linearGradient id="paint0_linear_7277_57868" x1="21" y1="0" x2="21" y2="61.4091" gradientUnits="userSpaceOnUse">
<stop stop-color="#08021E"/>
<stop offset="1" stop-color="#1F0777"/>
</linearGradient>
<clipPath id="clip0_7277_57868">
<rect width="42" height="42" fill="white"/>
</clipPath>
<clipPath id="clip1_7277_57868">
<rect x="4.8999" y="4.90002" width="32.2" height="32.2" rx="16.1" fill="white"/>
</clipPath>
</defs>
</svg>
