<svg xmlns="http://www.w3.org/2000/svg" width="42" height="42" fill="none"><g clip-path="url(#a)"><mask id="c" width="42" height="42" x="0" y="0" maskUnits="userSpaceOnUse" style="mask-type:alpha"><circle cx="21" cy="21" r="21" fill="url(#b)" transform="matrix(-1 0 0 1 42 0)"/></mask><g mask="url(#c)"><circle cx="21" cy="21" r="21" fill="#34EDB3" transform="matrix(-1 0 0 1 42 0)"/><circle cx="18.2" cy="18.2" r="18.2" fill="#fff" transform="matrix(-1 0 0 1 39.2 2.8)"/></g><circle cx="16.1" cy="16.1" r="16.1" fill="#0B0B22" transform="matrix(-1 0 0 1 37.1 4.9)"/><g clip-path="url(#d)"><circle cx="21" cy="21" r="16.1" fill="#0D0808"/><g filter="url(#e)"><g filter="url(#f)"><path stroke="#A01400" d="M19.228 15.464l-.274.332.288.32.678.755v1.337l-1.511 1.44h-6.433v-7.731h6.45l1.494 1.461v1.246l-.692.84zm-1.747 3.625h.109l.1-.045c.547-.251.897-.801.905-1.402a1.566 1.566 0 00-.906-1.445l-.1-.046h-4.328v2.939h4.22zm0-3.621h.109l.1-.045c.547-.251.897-.801.905-1.401a1.566 1.566 0 00-.906-1.446l-.1-.046h-4.328v2.938h4.22z"/></g><g filter="url(#g)"><path stroke="#A01400" d="M22.166 18.173v-6.256h1.337v5.842l.146.146.93.93.146.147h5.372v.665h-6.455l-1.476-1.474z"/></g><g filter="url(#h)"><path stroke="#A01400" d="M11.972 21.488h1.316v5.924l.156.148.939.888.144.137h2.753l.144-.137.917-.865.157-.148v-5.947h1.423v6.388l-1.458 1.44h-5.05l-1.494-1.513.054-6.315z"/></g><g filter="url(#i)"><path stroke="#A01400" d="M28.625 21.488l1.473 1.388v1.43l-.726.75-.334.345.333.348.727.757v2.81h-1.333l-.023-2.652-.002-.26-.215-.148-.63-.433-.126-.086-.152-.002-3.665-.04-.505-.005v3.626h-1.28v-7.828h6.458zm-.902 3.541h.11l.098-.046c.548-.25.898-.8.907-1.4a1.566 1.566 0 00-.907-1.446l-.099-.046h-4.329v2.939h4.22z"/></g></g><g filter="url(#j)"><g filter="url(#k)"><path stroke="#A01400" d="M19.228 15.464l-.274.332.288.32.678.755v1.337l-1.511 1.44h-6.433v-7.731h6.45l1.494 1.461v1.246l-.692.84zm-1.747 3.625h.109l.1-.045c.547-.251.897-.801.905-1.402a1.566 1.566 0 00-.906-1.445l-.1-.046h-4.328v2.939h4.22zm0-3.621h.109l.1-.045c.547-.251.897-.801.905-1.401a1.566 1.566 0 00-.906-1.446l-.1-.046h-4.328v2.938h4.22z"/></g><g filter="url(#l)"><path stroke="#A01400" d="M22.166 18.173v-6.256h1.337v5.842l.146.146.93.93.146.147h5.372v.665h-6.455l-1.476-1.474z"/></g><g filter="url(#m)"><path stroke="#A01400" d="M11.972 21.488h1.316v5.924l.156.148.939.888.144.137h2.753l.144-.137.917-.865.157-.148v-5.947h1.423v6.388l-1.458 1.44h-5.05l-1.494-1.513.054-6.315z"/></g><g filter="url(#n)"><path stroke="#A01400" d="M28.625 21.488l1.473 1.388v1.43l-.726.75-.334.345.333.348.727.757v2.81h-1.333l-.023-2.652-.002-.26-.215-.148-.63-.433-.126-.086-.152-.002-3.665-.04-.505-.005v3.626h-1.28v-7.828h6.458zm-.902 3.541h.11l.098-.046c.548-.25.898-.8.907-1.4a1.566 1.566 0 00-.907-1.446l-.099-.046h-4.329v2.939h4.22z"/></g></g><mask id="o" width="10" height="10" x="11" y="11" maskUnits="userSpaceOnUse" style="mask-type:luminance"><path fill="#fff" d="M20.42 13.186l-1.79-1.75h-7.154v8.721h7.133l1.811-1.722v-1.742l-.806-.896.806-.977v-1.634zM17.48 18.6h-3.719v-1.935h3.72c.378.172.62.56.614.982a1.064 1.064 0 01-.614.953zm0-3.617h-3.719v-1.936h3.72c.378.173.62.561.614.983a1.064 1.064 0 01-.614.953z"/></mask><g fill="#FF8300" mask="url(#o)"><path d="M31.06 11.417H10.51v.668h20.55v-.668zm0 .904H10.51v.668h20.55v-.668zm0 .904H10.51v.669h20.55v-.669zm0 .905H10.51v.668h20.55v-.668zm0 .904H10.51v.668h20.55v-.668zm0 .904H10.51v.668h20.55v-.668zm0 .904H10.51v.669h20.55v-.669zm0 .905H10.51v.668h20.55v-.668zm0 .903H10.51v.67h20.55v-.67zm0 .905H10.51v.669h20.55v-.669z"/></g><mask id="p" width="10" height="10" x="21" y="11" maskUnits="userSpaceOnUse" style="mask-type:luminance"><path fill="#fff" d="M21.666 11.436h2.337v6.129l.93.929h5.664v1.663h-7.162l-1.769-1.764v-6.957z"/></mask><g fill="#FF8300" mask="url(#p)"><path d="M31.06 11.417H10.51v.668h20.55v-.668zm0 .904H10.51v.668h20.55v-.668zm0 .904H10.51v.669h20.55v-.669zm0 .905H10.51v.668h20.55v-.668zm0 .904H10.51v.668h20.55v-.668zm0 .904H10.51v.668h20.55v-.668zm0 .904H10.51v.669h20.55v-.669zm0 .905H10.51v.668h20.55v-.668zm0 .903H10.51v.67h20.55v-.67zm0 .905H10.51v.669h20.55v-.669z"/></g><mask id="q" width="10" height="10" x="11" y="20" maskUnits="userSpaceOnUse" style="mask-type:luminance"><path fill="#fff" d="M11.476 20.997h2.312V27.2l.938.887h2.354l.917-.865v-6.225h2.423v7.09l-1.753 1.73h-5.464l-1.786-1.809.059-7.01z"/></mask><g fill="#FF8300" mask="url(#q)"><path d="M30.982 20.99H10.434v.669h20.548v-.669zm0 .905H10.433v.668h20.55v-.668zm0 .904H10.433v.668h20.55V22.8zm0 .904H10.433v.668h20.55v-.668zm0 .904H10.433v.669h20.55v-.669zm0 .905H10.433v.668h20.55v-.668zm0 .904H10.433v.668h20.55v-.668zm0 .904H10.433v.669h20.55v-.669zm0 .904H10.433v.669h20.55v-.669zm0 .905H10.433v.668h20.55v-.668z"/></g><mask id="r" width="10" height="10" x="21" y="20" maskUnits="userSpaceOnUse" style="mask-type:luminance"><path fill="#fff" d="M30.597 22.667l-1.774-1.67h-7.157v8.82h2.28V26.2l3.665.039.63.432.028 3.146h2.329v-3.509l-.866-.9.866-.895v-1.846zm-2.874 1.868h-3.72v-1.936h3.72c.378.173.62.561.615.983a1.064 1.064 0 01-.615.953z"/></mask><g fill="#FF8300" mask="url(#r)"><path d="M30.982 20.99H10.434v.669h20.548v-.669zm0 .905H10.433v.668h20.55v-.668zm0 .904H10.433v.668h20.55V22.8zm0 .904H10.433v.668h20.55v-.668zm0 .904H10.433v.669h20.55v-.669zm0 .905H10.433v.668h20.55v-.668zm0 .904H10.433v.668h20.55v-.668zm0 .904H10.433v.669h20.55v-.669zm0 .904H10.433v.669h20.55v-.669zm0 .905H10.433v.668h20.55v-.668z"/></g></g></g><defs><filter id="e" width="21.181" height="20.4" x="10.417" y="10.417" color-interpolation-filters="sRGB" filterUnits="userSpaceOnUse"><feFlood flood-opacity="0" result="BackgroundImageFix"/><feBlend in="SourceGraphic" in2="BackgroundImageFix" result="shape"/><feGaussianBlur result="effect1_foregroundBlur_7277_57868" stdDeviation=".5"/></filter><filter id="f" width="10.945" height="10.73" x="10.476" y="10.417" color-interpolation-filters="sRGB" filterUnits="userSpaceOnUse"><feFlood flood-opacity="0" result="BackgroundImageFix"/><feBlend in="SourceGraphic" in2="BackgroundImageFix" result="shape"/><feGaussianBlur result="effect1_foregroundBlur_7277_57868" stdDeviation=".5"/></filter><filter id="g" width="10.931" height="10.73" x="20.666" y="10.417" color-interpolation-filters="sRGB" filterUnits="userSpaceOnUse"><feFlood flood-opacity="0" result="BackgroundImageFix"/><feBlend in="SourceGraphic" in2="BackgroundImageFix" result="shape"/><feGaussianBlur result="effect1_foregroundBlur_7277_57868" stdDeviation=".5"/></filter><filter id="h" width="11.004" height="10.829" x="10.417" y="19.988" color-interpolation-filters="sRGB" filterUnits="userSpaceOnUse"><feFlood flood-opacity="0" result="BackgroundImageFix"/><feBlend in="SourceGraphic" in2="BackgroundImageFix" result="shape"/><feGaussianBlur result="effect1_foregroundBlur_7277_57868" stdDeviation=".5"/></filter><filter id="i" width="10.931" height="10.829" x="20.666" y="19.988" color-interpolation-filters="sRGB" filterUnits="userSpaceOnUse"><feFlood flood-opacity="0" result="BackgroundImageFix"/><feBlend in="SourceGraphic" in2="BackgroundImageFix" result="shape"/><feGaussianBlur result="effect1_foregroundBlur_7277_57868" stdDeviation=".5"/></filter><filter id="j" width="21.181" height="20.4" x="10.417" y="10.417" color-interpolation-filters="sRGB" filterUnits="userSpaceOnUse"><feFlood flood-opacity="0" result="BackgroundImageFix"/><feBlend in="SourceGraphic" in2="BackgroundImageFix" result="shape"/><feGaussianBlur result="effect1_foregroundBlur_7277_57868" stdDeviation=".5"/></filter><filter id="k" width="10.945" height="10.73" x="10.476" y="10.417" color-interpolation-filters="sRGB" filterUnits="userSpaceOnUse"><feFlood flood-opacity="0" result="BackgroundImageFix"/><feBlend in="SourceGraphic" in2="BackgroundImageFix" result="shape"/><feGaussianBlur result="effect1_foregroundBlur_7277_57868" stdDeviation=".5"/></filter><filter id="l" width="10.931" height="10.73" x="20.666" y="10.417" color-interpolation-filters="sRGB" filterUnits="userSpaceOnUse"><feFlood flood-opacity="0" result="BackgroundImageFix"/><feBlend in="SourceGraphic" in2="BackgroundImageFix" result="shape"/><feGaussianBlur result="effect1_foregroundBlur_7277_57868" stdDeviation=".5"/></filter><filter id="m" width="11.004" height="10.829" x="10.417" y="19.988" color-interpolation-filters="sRGB" filterUnits="userSpaceOnUse"><feFlood flood-opacity="0" result="BackgroundImageFix"/><feBlend in="SourceGraphic" in2="BackgroundImageFix" result="shape"/><feGaussianBlur result="effect1_foregroundBlur_7277_57868" stdDeviation=".5"/></filter><filter id="n" width="10.931" height="10.829" x="20.666" y="19.988" color-interpolation-filters="sRGB" filterUnits="userSpaceOnUse"><feFlood flood-opacity="0" result="BackgroundImageFix"/><feBlend in="SourceGraphic" in2="BackgroundImageFix" result="shape"/><feGaussianBlur result="effect1_foregroundBlur_7277_57868" stdDeviation=".5"/></filter><clipPath id="a"><path fill="#fff" d="M0 0h42v42H0z"/></clipPath><clipPath id="d"><rect width="32.2" height="32.2" x="4.9" y="4.9" fill="#fff" rx="16.1"/></clipPath><linearGradient id="b" x1="21" x2="21" y1="0" y2="61.409" gradientUnits="userSpaceOnUse"><stop stop-color="#08021E"/><stop offset="1" stop-color="#1F0777"/></linearGradient></defs></svg>