<svg xmlns="http://www.w3.org/2000/svg" width="42" height="42" fill="none"><g clip-path="url(#a)"><mask id="c" width="42" height="42" x="0" y="0" maskUnits="userSpaceOnUse" style="mask-type:alpha"><circle cx="21" cy="21" r="21" fill="url(#b)" transform="matrix(-1 0 0 1 42 0)"/></mask><g mask="url(#c)"><circle cx="21" cy="21" r="21" fill="#34EDB3" transform="matrix(-1 0 0 1 42 0)"/><circle cx="18.2" cy="18.2" r="18.2" fill="#fff" transform="matrix(-1 0 0 1 39.2 2.8)"/></g><circle cx="16.1" cy="16.1" r="16.1" fill="#0B0B22" transform="matrix(-1 0 0 1 37.1 4.9)"/><g clip-path="url(#d)"><path fill="#F3BA2F" d="M21 37.1c8.892 0 16.1-7.208 16.1-16.1 0-8.892-7.208-16.1-16.1-16.1-8.892 0-16.1 7.208-16.1 16.1 0 8.892 7.208 16.1 16.1 16.1z"/><path fill="#fff" d="M17.092 19.394L21 15.486l3.91 3.91 2.274-2.274L21 10.938l-6.182 6.182 2.274 2.274zM10.938 21l2.274-2.274L15.486 21l-2.274 2.274L10.938 21zm6.154 1.606L21 26.514l3.91-3.91 2.274 2.273L21 31.063l-6.182-6.183-.003-.003 2.277-2.271zM26.514 21l2.274-2.274L31.062 21l-2.274 2.274L26.514 21zm-3.208-.002h.002V21L21 23.308l-2.305-2.304L18.69 21l.004-.003.403-.404.196-.197L21 18.692l2.307 2.307v-.001z"/></g></g><defs><clipPath id="a"><path fill="#fff" d="M0 0h42v42H0z"/></clipPath><clipPath id="d"><path fill="#fff" d="M4.9 4.9h32.2v32.2H4.9z"/></clipPath><linearGradient id="b" x1="21" x2="21" y1="0" y2="61.409" gradientUnits="userSpaceOnUse"><stop stop-color="#08021E"/><stop offset="1" stop-color="#1F0777"/></linearGradient></defs></svg>