<svg width="42" height="42" viewBox="0 0 42 42" fill="none" xmlns="http://www.w3.org/2000/svg">
<g clip-path="url(#clip0_7277_57961)">
<mask id="mask0_7277_57961" style="mask-type:alpha" maskUnits="userSpaceOnUse" x="0" y="0" width="42" height="42">
<circle cx="21" cy="21" r="21" transform="matrix(-1 0 0 1 42 0)" fill="url(#paint0_linear_7277_57961)"/>
</mask>
<g mask="url(#mask0_7277_57961)">
<circle cx="21" cy="21" r="21" transform="matrix(-1 0 0 1 42 0)" fill="#34EDB3"/>
<circle cx="18.2" cy="18.2" r="18.2" transform="matrix(-1 0 0 1 39.2 2.80005)" fill="white"/>
</g>
<circle cx="16.1" cy="16.1" r="16.1" transform="matrix(-1 0 0 1 37.1 4.90002)" fill="#0B0B22"/>
<g clip-path="url(#clip1_7277_57961)">
<path d="M21 37.1C29.8918 37.1 37.1 29.8918 37.1 21C37.1 12.1082 29.8918 4.90002 21 4.90002C12.1082 4.90002 4.90002 12.1082 4.90002 21C4.90002 29.8918 12.1082 37.1 21 37.1Z" fill="#F3BA2F"/>
<path d="M17.0917 19.394L21 15.4858L24.9103 19.396L27.1844 17.1219L21 10.9375L14.8176 17.1199L17.0917 19.394ZM10.9375 21L13.2116 18.7259L15.4858 21L13.2116 23.2741L10.9375 21ZM17.0917 22.606L21 26.5142L24.9103 22.604L27.1844 24.8771L21 31.0625L14.8176 24.8801L14.8146 24.8771L17.0917 22.606ZM26.5142 21L28.7884 18.7259L31.0625 21L28.7884 23.2741L26.5142 21ZM23.3063 20.998H23.3083V21L21 23.3083L18.6947 21.004L18.6907 21L18.6947 20.997L19.0982 20.5925L19.2944 20.3962L21 18.6917L23.3073 20.999L23.3063 20.998Z" fill="white"/>
</g>
</g>
<defs>
<linearGradient id="paint0_linear_7277_57961" x1="21" y1="0" x2="21" y2="61.4091" gradientUnits="userSpaceOnUse">
<stop stop-color="#08021E"/>
<stop offset="1" stop-color="#1F0777"/>
</linearGradient>
<clipPath id="clip0_7277_57961">
<rect width="42" height="42" fill="white"/>
</clipPath>
<clipPath id="clip1_7277_57961">
<rect width="32.2" height="32.2" fill="white" transform="translate(4.90002 4.90002)"/>
</clipPath>
</defs>
</svg>
