<svg width="42" height="42" viewBox="0 0 42 42" fill="none" xmlns="http://www.w3.org/2000/svg">
<g clip-path="url(#clip0_7277_57958)">
<mask id="mask0_7277_57958" style="mask-type:alpha" maskUnits="userSpaceOnUse" x="0" y="0" width="42" height="42">
<circle cx="21" cy="21" r="21" fill="url(#paint0_linear_7277_57958)"/>
</mask>
<g mask="url(#mask0_7277_57958)">
<circle cx="21" cy="21" r="21" fill="#34EDB3"/>
<circle cx="21" cy="21" r="18.2" fill="white"/>
</g>
<circle cx="21" cy="21" r="16.1" fill="#06061B"/>
<path d="M21 37.1C29.8918 37.1 37.1 29.8918 37.1 21C37.1 12.1082 29.8918 4.90002 21 4.90002C12.1082 4.90002 4.90002 12.1082 4.90002 21C4.90002 29.8918 12.1082 37.1 21 37.1Z" fill="black"/>
<path d="M20.6386 11.0333L16.0923 13.6969L20.6386 16.3614L25.2703 13.6969L20.6386 11.0333ZM21.3862 25.2557V30.5838L27.5616 27.0609V21.7318L21.3862 25.2557V25.2557ZM26.018 15.3723V20.7014L21.3852 23.3659V18.0368L26.018 15.3723ZM14.8667 20.7014L19.4995 23.3659V18.0368L14.8667 15.3723V20.7014ZM14.8667 27.9202L19.4995 30.5838V25.2557L14.8667 22.5921V27.9192V27.9202Z" fill="white"/>
</g>
<defs>
<linearGradient id="paint0_linear_7277_57958" x1="21" y1="0" x2="21" y2="61.4091" gradientUnits="userSpaceOnUse">
<stop stop-color="#08021E"/>
<stop offset="1" stop-color="#1F0777"/>
</linearGradient>
<clipPath id="clip0_7277_57958">
<rect width="42" height="42" fill="white"/>
</clipPath>
</defs>
</svg>
