<svg xmlns="http://www.w3.org/2000/svg" width="42" height="42" fill="none"><g clip-path="url(#a)"><mask id="c" width="42" height="42" x="0" y="0" maskUnits="userSpaceOnUse" style="mask-type:alpha"><circle cx="21" cy="21" r="21" fill="url(#b)" transform="matrix(-1 0 0 1 42 0)"/></mask><g mask="url(#c)"><circle cx="21" cy="21" r="21" fill="#34EDB3" transform="matrix(-1 0 0 1 42 0)"/><circle cx="18.2" cy="18.2" r="18.2" fill="#fff" transform="matrix(-1 0 0 1 39.2 2.8)"/></g><circle cx="16.1" cy="16.1" r="16.1" fill="#0B0B22" transform="matrix(-1 0 0 1 37.1 4.9)"/><g clip-path="url(#d)"><path fill="#F7931A" d="M21 37.1c8.892 0 16.1-7.208 16.1-16.1 0-8.892-7.208-16.1-16.1-16.1-8.892 0-16.1 7.208-16.1 16.1 0 8.892 7.208 16.1 16.1 16.1Z"/><path fill="#fff" d="M28.234 19.008c.316-2.11-1.29-3.243-3.487-4l.713-2.858-1.739-.433-.694 2.783a60.603 60.603 0 0 0-1.394-.328l.7-2.8-1.74-.434-.712 2.856c-.378-.086-.75-.17-1.11-.261l.001-.01-2.398-.598-.463 1.857s1.29.296 1.263.314c.705.176.832.642.81 1.013l-.81 3.255c.048.012.11.03.18.057l-.184-.045-1.137 4.56c-.086.214-.305.535-.798.413.019.025-1.263-.315-1.263-.315l-.864 1.99 2.264.565c.42.105.834.216 1.239.32l-.72 2.89 1.738.432.713-2.857c.475.127.936.246 1.386.359l-.71 2.845 1.739.433.72-2.884c2.966.562 5.195.335 6.134-2.347.757-2.16-.037-3.407-1.598-4.219 1.137-.261 1.993-1.009 2.221-2.553ZM24.26 24.58c-.536 2.16-4.173.992-5.353.7l.956-3.83c1.18.296 4.96.878 4.398 3.13Zm.539-5.604c-.49 1.966-3.517.966-4.498.722l.865-3.472c.981.245 4.144.7 3.633 2.75Z"/></g></g><defs><clipPath id="a"><path fill="#fff" d="M0 0h42v42H0z"/></clipPath><clipPath id="d"><path fill="#fff" d="M4.9 4.9h32.2v32.2H4.9z"/></clipPath><linearGradient id="b" x1="21" x2="21" y1="0" y2="61.409" gradientUnits="userSpaceOnUse"><stop stop-color="#08021E"/><stop offset="1" stop-color="#1F0777"/></linearGradient></defs></svg>