<svg xmlns="http://www.w3.org/2000/svg" width="42" height="42" fill="none"><g clip-path="url(#a)"><mask id="c" width="42" height="42" x="0" y="0" maskUnits="userSpaceOnUse" style="mask-type:alpha"><circle cx="21" cy="21" r="21" fill="url(#b)"/></mask><g mask="url(#c)"><circle cx="21" cy="21" r="21" fill="#34EDB3"/><circle cx="21" cy="21" r="18.2" fill="#fff"/></g><circle cx="21" cy="21" r="16.1" fill="#06061B"/><circle cx="21" cy="21" r="16.1" fill="#06061B"/><path fill="#fff" d="M16.489 26.717c-.64 0-1.245-.094-1.812-.283a4.017 4.017 0 01-1.496-.96c-.598-.61-1.008-1.292-1.228-2.048-.21-.756-.315-1.596-.315-2.52 0-.924.105-1.76.315-2.505.22-.756.635-1.438 1.244-2.047a3.85 3.85 0 011.496-.945 5.37 5.37 0 011.796-.3c.598 0 1.155.1 1.67.3.514.189.965.462 1.354.819.388.357.698.782.929 1.276.23.483.367 1.018.41 1.606h-2.08c-.052-.682-.283-1.213-.693-1.59-.41-.379-.96-.568-1.653-.568a2.67 2.67 0 00-1.008.19c-.315.125-.583.31-.804.55a3.074 3.074 0 00-.74 1.37c-.115.515-.173 1.13-.173 1.844 0 .714.058 1.333.173 1.858.126.515.373.971.74 1.37.462.494 1.066.74 1.812.74.661 0 1.197-.183 1.606-.55.41-.379.656-.904.74-1.576h2.08a4.657 4.657 0 01-.473 1.654 4.113 4.113 0 01-2.284 2.048 4.777 4.777 0 01-1.606.267zm9.198-.267a4.922 4.922 0 01-1.48-.347 4.118 4.118 0 01-1.198-.772 3.7 3.7 0 01-.803-1.086 3.18 3.18 0 01-.315-1.34h1.937c.021.515.2.946.536 1.292.346.336.787.53 1.323.583v-3.118l-.74-.11c-.85-.116-1.528-.436-2.032-.961-.494-.525-.74-1.192-.74-2 0-.42.094-.814.283-1.182a3.21 3.21 0 01.772-.992c.325-.294.698-.53 1.118-.709.43-.178.877-.289 1.339-.33v-1.465h1.15v1.496c.472.063.908.189 1.307.378a3.6 3.6 0 011.04.693c.293.283.524.609.692.976.179.368.279.762.3 1.182h-1.938a1.485 1.485 0 00-.425-.977 1.928 1.928 0 00-.976-.583v2.883l.535.078c.4.063.777.174 1.134.331.357.158.667.362.93.614.272.252.482.557.63.914.157.346.236.74.236 1.181a3.082 3.082 0 01-.992 2.3c-.305.283-.673.52-1.103.708-.42.179-.877.294-1.37.347v1.622h-1.15V26.45zm1.15-1.686c.493-.084.876-.262 1.15-.535.272-.284.409-.64.409-1.071 0-.4-.131-.693-.394-.882-.262-.2-.562-.33-.898-.394l-.267-.047v2.93zm-1.15-7.733a2.223 2.223 0 00-1.134.488c-.305.252-.457.594-.457 1.024 0 .368.1.646.3.835.21.178.482.294.818.346l.473.08V17.03z"/></g><defs><linearGradient id="b" x1="21" x2="21" y1="0" y2="61.409" gradientUnits="userSpaceOnUse"><stop stop-color="#08021E"/><stop offset="1" stop-color="#1F0777"/></linearGradient><clipPath id="a"><path fill="#fff" d="M0 0h42v42H0z"/></clipPath></defs></svg>