<svg width="480" height="480" viewBox="0 0 480 480" fill="none" xmlns="http://www.w3.org/2000/svg"><mask id="mask0-138385" maskUnits="userSpaceOnUse" x="0" y="0" width="480" height="480"><circle cx="240" cy="240" r="240" fill="url(#paint0_linear-696039)"/></mask><g mask="url(#mask0-138385)"><circle cx="240" cy="240" r="240" fill="#31D8A4"/><circle cx="240" cy="240" r="208" fill="#fff"/></g><circle cx="240" cy="240" r="184" fill="#0E052F"/><path d="M188.44 305.34c-7.32 0-14.22-1.08-20.7-3.24-6.36-2.28-12.06-5.94-17.1-10.98-6.84-6.96-11.52-14.76-14.04-23.4-2.4-8.64-3.6-18.24-3.6-28.8 0-10.56 1.2-20.1 3.6-28.62 2.52-8.64 7.26-16.44 14.22-23.4 5.04-5.04 10.74-8.64 17.1-10.8 6.48-2.28 13.32-3.42 20.52-3.42 6.84 0 13.2 1.14 19.08 3.42 5.88 2.16 11.04 5.28 15.48 9.36 4.44 4.08 7.98 8.94 10.62 14.58 2.64 5.52 4.2 11.64 4.68 18.36h-23.76c-.6-7.8-3.24-13.86-7.92-18.18s-10.98-6.48-18.9-6.48c-4.08 0-7.92.72-11.52 2.16-3.6 1.44-6.66 3.54-9.18 6.3-4.2 4.56-7.02 9.78-8.46 15.66-1.32 5.88-1.98 12.9-1.98 21.06 0 8.16.66 15.24 1.98 21.24 1.44 5.88 4.26 11.1 8.46 15.66 5.28 5.64 12.18 8.46 20.7 8.46 7.56 0 13.68-2.1 18.36-6.3 4.68-4.32 7.5-10.32 8.46-18h23.76c-.72 6.96-2.52 13.26-5.4 18.9-2.76 5.52-6.36 10.26-10.8 14.22-4.44 3.96-9.54 7.02-15.3 9.18-5.76 2.04-11.88 3.06-18.36 3.06zm105.123-3.06c-6-.48-11.64-1.8-16.92-3.96-5.28-2.28-9.84-5.22-13.68-8.82-3.84-3.6-6.9-7.74-9.18-12.42-2.28-4.68-3.48-9.78-3.6-15.3h22.14c.24 5.88 2.28 10.8 6.12 14.76 3.96 3.84 9 6.06 15.12 6.66v-35.64l-8.46-1.26c-9.72-1.32-17.46-4.98-23.22-10.98-5.64-6-8.46-13.62-8.46-22.86 0-4.8 1.08-9.3 3.24-13.5 2.16-4.32 5.1-8.1 8.82-11.34 3.72-3.36 7.98-6.06 12.78-8.1a52.02 52.02 0 0115.3-3.78V159h13.14v17.1c5.4.72 10.38 2.16 14.94 4.32 4.56 2.04 8.52 4.68 11.88 7.92 3.36 3.24 6 6.96 7.92 11.16 2.04 4.2 3.18 8.7 3.42 13.5h-22.14c-.24-4.32-1.86-8.04-4.86-11.16-2.88-3.24-6.6-5.46-11.16-6.66v32.94l6.12.9c4.56.72 8.88 1.98 12.96 3.78 4.08 1.8 7.62 4.14 10.62 7.02 3.12 2.88 5.52 6.36 7.2 10.44 1.8 3.96 2.7 8.46 2.7 13.5 0 5.4-1.02 10.32-3.06 14.76-1.92 4.32-4.68 8.16-8.28 11.52-3.48 3.24-7.68 5.94-12.6 8.1-4.8 2.04-10.02 3.36-15.66 3.96v18.54h-13.14v-18.36zm13.14-19.26c5.64-.96 10.02-3 13.14-6.12 3.12-3.24 4.68-7.32 4.68-12.24 0-4.56-1.5-7.92-4.5-10.08-3-2.28-6.42-3.78-10.26-4.5l-3.06-.54v33.48zm-13.14-88.38c-5.04.72-9.36 2.58-12.96 5.58-3.48 2.88-5.22 6.78-5.22 11.7 0 4.2 1.14 7.38 3.42 9.54 2.4 2.04 5.52 3.36 9.36 3.96l5.4.9v-31.68z" fill="#fff"/><defs><linearGradient id="paint0_linear-696039" x1="240" y1="0" x2="240" y2="701.818" gradientUnits="userSpaceOnUse"><stop stop-color="#08021E"/><stop offset="1" stop-color="#1F0777"/></linearGradient></defs></svg>