<svg width="42" height="42" fill="none" xmlns="http://www.w3.org/2000/svg">
  <g clip-path="url(#a)">
    <mask id="c" width="42" height="42" x="0" y="0" maskUnits="userSpaceOnUse" style="mask-type:alpha">
      <circle cx="21" cy="21" r="21" fill="url(#b)"/>
    </mask>
    <g mask="url(#c)">
      <circle cx="21" cy="21" r="21" fill="#34EDB3"/>
      <circle cx="21" cy="21" r="18.2" fill="#fff"/>
    </g>
    <circle cx="21" cy="21" r="16.1" fill="#06061B"/>
    <circle cx="21" cy="21" r="16.1" fill="#06061B"/>
    <path fill="#fff" d="M16.489 26.717q-.96 0-1.812-.283a4 4 0 0 1-1.496-.96q-.898-.915-1.228-2.048-.315-1.134-.315-2.52t.315-2.505q.33-1.134 1.244-2.047a3.85 3.85 0 0 1 1.496-.945 5.4 5.4 0 0 1 1.796-.3q.897 0 1.67.3.77.284 1.354.819.582.535.929 1.276.345.724.41 1.606h-2.08q-.078-1.024-.693-1.59-.614-.568-1.653-.568a2.7 2.7 0 0 0-1.008.19q-.473.189-.804.55a3.1 3.1 0 0 0-.74 1.37q-.173.773-.173 1.844 0 1.07.173 1.858.19.772.74 1.37.693.74 1.812.74.992 0 1.606-.55.614-.568.74-1.576h2.08a4.7 4.7 0 0 1-.473 1.654 4.1 4.1 0 0 1-2.284 2.048 4.8 4.8 0 0 1-1.606.267m9.198-.267a5 5 0 0 1-1.48-.347 4.1 4.1 0 0 1-1.198-.772 3.7 3.7 0 0 1-.803-1.086 3.2 3.2 0 0 1-.315-1.34h1.937q.032.773.536 1.292.519.504 1.323.583v-3.118l-.74-.11q-1.276-.174-2.032-.961-.74-.788-.74-2 0-.63.283-1.182a3.2 3.2 0 0 1 .772-.992q.488-.44 1.118-.709.646-.268 1.339-.33v-1.465h1.15v1.496q.708.095 1.307.378a3.6 3.6 0 0 1 1.04.693q.44.425.692.976.268.552.3 1.182h-1.938a1.5 1.5 0 0 0-.425-.977 1.93 1.93 0 0 0-.976-.583v2.883l.535.078q.6.095 1.134.331.535.236.93.614.408.378.63.914.236.52.236 1.181a3.08 3.08 0 0 1-.992 2.3q-.458.425-1.103.708-.63.268-1.37.347v1.622h-1.15zm1.15-1.686q.74-.126 1.15-.535.408-.425.409-1.071 0-.6-.394-.882-.393-.299-.898-.394l-.267-.047zm-1.15-7.733a2.2 2.2 0 0 0-1.134.488q-.457.378-.457 1.024 0 .552.3.835.315.268.818.346l.473.08z"/>
  </g>
  <defs>
    <linearGradient id="b" x1="21" x2="21" y1="0" y2="61.409" gradientUnits="userSpaceOnUse">
      <stop stop-color="#08021E"/>
      <stop offset="1" stop-color="#1F0777"/>
    </linearGradient>
    <clipPath id="a">
      <path fill="#fff" d="M0 0h42v42H0z"/>
    </clipPath>
  </defs>
</svg>
