<svg width="480" height="480" viewBox="0 0 480 480" fill="none" xmlns="http://www.w3.org/2000/svg">
<circle cx="240" cy="240" r="240" fill="url(#paint0_linear)"/>
<mask id="mask0" mask-type="alpha" maskUnits="userSpaceOnUse" x="0" y="0" width="480" height="480">
<circle cx="240" cy="240" r="240" fill="url(#paint1_linear)"/>
</mask>
<g mask="url(#mask0)">
<path fill-rule="evenodd" clip-rule="evenodd" d="M123.924 146.839L138.76 165H173.312L196.192 137.076L174.636 110.748C156.805 90.694 136.027 81 112.011 81H12V138.71H106.428C113.355 138.71 119.293 141.538 123.848 146.752L123.924 146.839ZM179.963 106.205L205.24 137.078L176.626 172H135.439L118.576 151.357C115.289 147.595 111.243 145.71 106.428 145.71H7.95094C7.07626 145.71 6.36061 145.433 5.82167 144.879C5.27389 144.334 5 143.717 5 143.056V76.6539C5 75.9927 5.27389 75.385 5.82167 74.831C6.36061 74.277 7.07626 74 7.95094 74H112.011C138.27 74 160.923 84.7408 179.963 106.205ZM123.852 332.909L123.701 333.071C119.042 338.081 113.205 340.951 106.428 340.951H12.3269V399H111.685C135.94 399 156.82 389.299 174.636 369.252L219.1 315H138.518L123.852 332.909ZM135.203 308H233.888L179.963 373.795C160.923 395.268 138.164 406 111.685 406H7.95094C7.07626 406 6.41363 405.723 5.9807 405.169C5.53894 404.615 5.3269 403.9 5.3269 403.007V336.605C5.3269 335.943 5.53894 335.336 5.9807 334.782C6.41363 334.228 7.07626 333.951 7.95094 333.951H106.428C111.022 333.951 115.068 332.074 118.576 328.303L135.203 308ZM362.153 328.643C365.439 332.19 369.371 333.96 373.974 333.96H472.451C473.325 333.96 473.979 334.237 474.421 334.791C474.854 335.345 475.075 336.069 475.075 336.944V403.346C475.075 404.007 474.854 404.624 474.421 405.169C473.979 405.723 473.325 406 472.451 406H368.717C342.238 406 319.585 395.268 300.766 373.795L246.848 308H345.245L362.153 328.643ZM341.93 315H261.635L306.106 369.268C323.696 389.299 344.46 399 368.717 399H468.075V340.96H373.974C367.312 340.96 361.552 338.295 357.018 333.4L356.872 333.244L341.93 315ZM361.826 151.357C365.112 147.595 369.159 145.71 373.974 145.71H472.451C473.325 145.71 473.979 145.433 474.421 144.879C474.854 144.334 475.075 143.717 475.075 143.056V76.6539C475.075 75.7693 474.854 75.108 474.421 74.6612C473.979 74.2234 473.325 74 472.451 74H368.717C342.238 74 319.479 84.6246 300.439 105.874L246.427 172H344.868L361.826 151.357ZM341.559 165L356.484 146.832L356.554 146.752C361.109 141.538 367.047 138.71 373.974 138.71H468.075V81H368.717C344.443 81 323.562 90.6107 305.758 110.428L261.183 165H341.559Z" fill="#00D1FF"/>
</g>
<path d="M133.985 275.304C124.897 275.304 116.929 273.832 110.081 270.888C103.297 267.944 98.0486 263.752 94.3366 258.312C90.6246 252.872 88.7686 246.536 88.7686 239.304C88.7686 232.2 90.7206 225.864 94.6246 220.296C98.5286 214.728 103.969 210.376 110.945 207.24C117.921 204.104 125.857 202.536 134.753 202.536C142.177 202.536 148.929 203.592 155.009 205.704C161.153 207.752 166.241 210.696 170.273 214.536C174.369 218.376 177.185 222.888 178.721 228.072L153.281 232.872C152.257 228.904 150.177 225.896 147.041 223.848C143.905 221.8 139.809 220.776 134.753 220.776C128.545 220.776 123.649 222.408 120.065 225.672C116.481 228.936 114.689 233.352 114.689 238.92C114.689 244.552 116.449 248.968 119.969 252.168C123.553 255.368 128.481 256.968 134.753 256.968C139.809 256.968 143.937 255.944 147.137 253.896C150.337 251.848 152.417 248.872 153.377 244.968L178.529 250.536C175.777 258.344 170.497 264.424 162.689 268.776C154.881 273.128 145.313 275.304 133.985 275.304Z" fill="white"/>
<path d="M258.174 273L252.894 260.04H220.926L215.646 273H189.246L220.926 204.84H252.798L284.478 273H258.174ZM246.942 245.256L242.142 233.448C239.71 227.432 238.014 222.536 237.054 218.76H236.766C236.19 220.744 235.39 223.208 234.366 226.152C233.342 229.096 232.446 231.528 231.678 233.448L226.878 245.256H246.942Z" fill="white"/>
<path d="M350.234 204.84C358.746 204.84 366.042 206.12 372.122 208.68C378.266 211.24 382.97 214.984 386.234 219.912C389.498 224.84 391.13 230.792 391.13 237.768C391.13 244.68 389.402 250.792 385.946 256.104C382.49 261.416 377.626 265.576 371.354 268.584C365.082 271.528 357.85 273 349.658 273H304.442V204.84H350.234ZM345.626 257.064C351.706 257.064 356.474 255.368 359.93 251.976C363.45 248.584 365.21 244.008 365.21 238.248C365.21 232.744 363.482 228.456 360.026 225.384C356.57 222.248 351.962 220.68 346.202 220.68H329.018V257.064H345.626Z" fill="white"/>
<defs>
<linearGradient id="paint0_linear" x1="240" y1="0" x2="240" y2="701.818" gradientUnits="userSpaceOnUse">
<stop stop-color="#08021E"/>
<stop offset="1" stop-color="#1F0777"/>
</linearGradient>
<linearGradient id="paint1_linear" x1="240" y1="0" x2="240" y2="701.818" gradientUnits="userSpaceOnUse">
<stop stop-color="#08021E"/>
<stop offset="1" stop-color="#1F0777"/>
</linearGradient>
</defs>
</svg>
