<svg width="300" height="300" viewBox="0 0 300 300" fill="none" xmlns="http://www.w3.org/2000/svg"><path d="M150 300c82.843 0 150-67.157 150-150S232.843 0 150 0 0 67.157 0 150s67.157 150 150 150z" fill="#10BA97"/><path d="M200 209.984c-4.28 0-8.02-.82-11.22-2.46-3.24-1.68-5.74-4.06-7.5-7.14-1.76-3.12-2.64-6.78-2.64-10.98 0-3.28.64-6.22 1.92-8.82 1.28-2.6 3.08-4.7 5.4-6.3 2.32-1.6 5-2.56 8.04-2.88v9c-2.4.52-4.28 1.62-5.64 3.3-1.4 1.64-2.1 3.7-2.1 6.18 0 3.36 1.26 6.02 3.78 7.98 2.52 1.96 5.84 2.94 9.96 2.94 4.08 0 7.4-.98 9.96-2.94 2.52-1.96 3.78-4.62 3.78-7.98 0-2.48-.68-4.54-2.04-6.18-1.4-1.68-3.3-2.78-5.7-3.3v-9c3.04.32 5.72 1.28 8.04 2.88 2.32 1.6 4.12 3.7 5.4 6.3 1.28 2.6 1.92 5.54 1.92 8.82 0 4.2-.88 7.86-2.64 10.98-1.76 3.08-4.24 5.46-7.44 7.14-3.24 1.64-7 2.46-11.28 2.46zm21-38.925l-42-15.36v-10.8l42-15.24v9.66l-9.18 3.24v15.96l9.18 3.24v9.3zm-16.44-14.94v-11.1l-15.96 5.58 15.96 5.52zM179 125.804v-14.58c0-4.2.9-7.9 2.7-11.1 1.76-3.24 4.24-5.72 7.44-7.44 3.16-1.76 6.78-2.64 10.86-2.64 4.08 0 7.72.88 10.92 2.64 3.16 1.72 5.64 4.2 7.44 7.44 1.76 3.2 2.64 6.9 2.64 11.1v14.58h-42zm34.5-14.58c0-3.8-1.22-6.74-3.66-8.82-2.48-2.12-5.76-3.18-9.84-3.18s-7.34 1.06-9.78 3.18c-2.48 2.08-3.72 5.02-3.72 8.82v5.58h27v-5.58z" fill="#1E1A31"/><path opacity=".5" fill-rule="evenodd" clip-rule="evenodd" d="M81.424 208.528l-12.484-8.906 78.517-109.094 12.483 8.906-78.516 109.094z" fill="#1E1A31"/><path fill-rule="evenodd" clip-rule="evenodd" d="M121.868 142.349h4.191c19.298 0 34.941 15.592 34.941 34.826C161 196.408 145.357 212 126.059 212H74.676c-4.24 0-7.676-3.425-7.676-7.651 0-4.225 3.437-7.65 7.676-7.65h51.383c10.819 0 19.589-8.741 19.589-19.524 0-10.783-8.77-19.524-19.589-19.524h-24.118C82.643 157.651 67 142.059 67 122.825 67 103.592 82.643 88 101.941 88h51.383c4.239 0 7.676 3.425 7.676 7.65 0 4.226-3.437 7.651-7.676 7.651h-51.383c-10.82 0-19.59 8.741-19.59 19.524 0 10.783 8.77 19.524 19.59 19.524h19.927z" fill="#1E1A31"/></svg>