<svg width="480" height="480" viewBox="0 0 480 480" fill="none" xmlns="http://www.w3.org/2000/svg"><mask id="mask0-787354" maskUnits="userSpaceOnUse" x="0" y="0" width="480" height="480"><circle cx="240" cy="240" r="240" fill="url(#paint0_linear-692540)"/></mask><g mask="url(#mask0-787354)"><circle cx="240" cy="240" r="240" fill="#31D8A4"/><circle cx="240" cy="240" r="208" fill="#fff"/></g><circle cx="240" cy="240" r="184" fill="#0E052F"/><circle cx="240" cy="240" r="184" fill="#0E052F"/><path d="M221.485 147.256l25.075-25.075 25.088 25.088 14.591-14.59L246.56 93l-39.666 39.666 14.591 14.59zM182 157.56l14.591-14.59 14.59 14.59-14.59 14.591L182 157.56zm39.485 10.304l25.075 25.075 25.088-25.088 14.591 14.584-39.679 39.685-39.666-39.665-.019-.02 14.61-14.571zm60.454-10.304l14.591-14.59 14.59 14.59-14.59 14.591-14.591-14.591zm-20.582-.013h.013v.013l-14.81 14.81-14.791-14.784-.025-.026.025-.019 2.589-2.596 1.259-1.258 10.943-10.937 14.804 14.804-.007-.007z" fill="#F3BA2F"/><path fill="#02A6C2" d="M142.255 245h83.732v28.204h-83.732z"/><path fill="#5FCADE" d="M142.256 282.018h59.934v28.204h-59.934z"/><path fill="#ABEBF4" d="M142.255 319.037h28.204v28.204h-28.204z"/><path fill="#5FCADE" d="M107 282.018h28.204v28.204H107z"/><path d="M289.268 259.733c11.693-7.526 24.616-13.132 38.108-16.64 10.494-2.729 34.241-6.147 44.555-3.658-4.438 5.577-9.295 11.483-13.942 16.88-10.734 11.483-21.948 22.637-34.6 31.992-18.11 13.702-39.038 24.885-61.885 27.524-.42-8.695.27-17.54 3.148-25.815 2.489-7.496 6.656-14.422 12.203-20.029 3.628-3.957 7.796-7.495 12.413-10.254z" fill="#709B30"/><path d="M372.082 239.831c10.853 53.879-26.505 126.228-92.467 103.801-5.457-1.859-10.075-5.847-13.912-10.195 23.596-3.568 43.295-15.801 60.715-31.482 19.579-17.629 32.231-39.757 45.664-62.124z" fill="#98C455"/><defs><linearGradient id="paint0_linear-692540" x1="240" y1="0" x2="240" y2="701.818" gradientUnits="userSpaceOnUse"><stop stop-color="#08021E"/><stop offset="1" stop-color="#1F0777"/></linearGradient></defs></svg>