<svg width="300" height="300" viewBox="0 0 300 300" fill="none" xmlns="http://www.w3.org/2000/svg"><path d="M150 300c82.843 0 150-67.157 150-150S232.843 0 150 0 0 67.157 0 150s67.157 150 150 150z" fill="#B2A1FB"/><path d="M200 206.586c-4.28 0-8.02-.82-11.22-2.46-3.24-1.68-5.74-4.06-7.5-7.14-1.76-3.12-2.64-6.78-2.64-10.98 0-3.28.64-6.22 1.92-8.82 1.28-2.6 3.08-4.7 5.4-6.3 2.32-1.6 5-2.56 8.04-2.88v9c-2.4.52-4.28 1.62-5.64 3.3-1.4 1.64-2.1 3.7-2.1 6.18 0 3.36 1.26 6.02 3.78 7.98 2.52 1.96 5.84 2.94 9.96 2.94 4.08 0 7.4-.98 9.96-2.94 2.52-1.96 3.78-4.62 3.78-7.98 0-2.48-.68-4.54-2.04-6.18-1.4-1.68-3.3-2.78-5.7-3.3v-9c3.04.32 5.72 1.28 8.04 2.88 2.32 1.6 4.12 3.7 5.4 6.3 1.28 2.6 1.92 5.54 1.92 8.82 0 4.2-.88 7.86-2.64 10.98-1.76 3.08-4.24 5.46-7.44 7.14-3.24 1.64-7 2.46-11.28 2.46zm-21-43.809v-28.2h7.74v19.2h9.42v-15.6h7.38v15.6h9.72v-19.86H221v28.86h-42zm20.58-45.317L179 130.54v-10.92l13.2-8.28-13.2-8.46v-9.84l20.58 13.08L221 92.38v10.98l-14.1 8.94 14.1 9.12v9.78l-21.42-13.74z" fill="#1E1A31"/><path opacity=".5" fill-rule="evenodd" clip-rule="evenodd" d="M81.424 208.528l-12.483-8.906 78.516-109.094 12.484 8.906-78.517 109.094z" fill="#1E1A31"/><path fill-rule="evenodd" clip-rule="evenodd" d="M121.868 142.349h4.191c19.298 0 34.941 15.592 34.941 34.826C161 196.408 145.357 212 126.059 212H74.676c-4.24 0-7.676-3.425-7.676-7.651 0-4.225 3.437-7.65 7.676-7.65h51.383c10.819 0 19.589-8.741 19.589-19.524 0-10.783-8.77-19.524-19.589-19.524h-24.118C82.643 157.651 67 142.059 67 122.825 67 103.592 82.643 88 101.941 88h51.383c4.239 0 7.676 3.425 7.676 7.65 0 4.226-3.437 7.651-7.676 7.651h-51.383c-10.82 0-19.59 8.741-19.59 19.524 0 10.783 8.77 19.524 19.59 19.524h19.927z" fill="#1E1A31"/></svg>