<svg xmlns="http://www.w3.org/2000/svg" width="42" height="42" fill="none"><g clip-path="url(#a)"><mask id="c" width="42" height="42" x="0" y="0" maskUnits="userSpaceOnUse" style="mask-type:alpha"><circle cx="21" cy="21" r="21" fill="url(#b)"/></mask><g mask="url(#c)"><circle cx="21" cy="21" r="21" fill="#34EDB3"/><circle cx="21" cy="21" r="18.2" fill="#fff"/></g><circle cx="21" cy="21" r="16.1" fill="#06061B"/><circle cx="21" cy="21" r="16.1" fill="#06061B"/><path fill="#F3BA2F" d="M19.38 12.885l2.194-2.194 2.195 2.195 1.277-1.276-3.472-3.472-3.47 3.47 1.276 1.277zm-3.455.902l1.277-1.277 1.276 1.277-1.276 1.276-1.277-1.276zm3.455.901l2.194 2.194 2.195-2.195 1.277 1.276-3.472 3.473-3.47-3.471-.002-.002 1.278-1.275zm5.29-.901l1.276-1.277 1.277 1.277-1.277 1.276-1.276-1.276zm-1.801-.002v.002l-1.295 1.295-1.294-1.293-.002-.002.002-.002.226-.227.11-.11.958-.957 1.295 1.295z"/><path fill="#02A6C2" d="M12.447 21.438h7.327v2.468h-7.327z"/><path fill="#5FCADE" d="M12.447 24.677h5.244v2.468h-5.244z"/><path fill="#ABEBF4" d="M12.447 27.916h2.468v2.468h-2.468z"/><path fill="#5FCADE" d="M9.363 24.677h2.468v2.468H9.363z"/><path fill="#709B30" d="M25.311 22.727a11.528 11.528 0 013.334-1.456c.919-.24 2.997-.538 3.899-.32a50.611 50.611 0 01-1.22 1.477c-.94 1.004-1.92 1.98-3.027 2.799-1.585 1.199-3.416 2.177-5.415 2.408-.037-.76.023-1.535.275-2.259a4.523 4.523 0 011.068-1.752 4.89 4.89 0 011.086-.897z"/><path fill="#98C455" d="M32.557 20.985c.95 4.715-2.319 11.045-8.09 9.083-.478-.163-.882-.512-1.218-.892 2.065-.312 3.788-1.383 5.313-2.755 1.713-1.543 2.82-3.479 3.995-5.436z"/></g><defs><linearGradient id="b" x1="21" x2="21" y1="0" y2="61.409" gradientUnits="userSpaceOnUse"><stop stop-color="#08021E"/><stop offset="1" stop-color="#1F0777"/></linearGradient><clipPath id="a"><path fill="#fff" d="M0 0h42v42H0z"/></clipPath></defs></svg>