<svg width="42" height="42" fill="none" xmlns="http://www.w3.org/2000/svg">
  <g clip-path="url(#a)">
    <mask id="c" width="42" height="42" x="0" y="0" maskUnits="userSpaceOnUse" style="mask-type:alpha">
      <circle cx="21" cy="21" r="21" fill="url(#b)"/>
    </mask>
    <g mask="url(#c)">
      <circle cx="21" cy="21" r="21" fill="#34EDB3"/>
      <circle cx="21" cy="21" r="18.2" fill="#fff"/>
    </g>
    <circle cx="21" cy="21" r="16.1" fill="#06061B"/>
    <circle cx="21" cy="21" r="16.1" fill="#0052FF"/>
    <path fill="#fff" fill-rule="evenodd" d="M23.583 10.342c1.473.382 2.436.816 3.656 1.65 1.398.955 2.79 2.553 3.559 4.084.482.96.939 2.466 1.096 3.617l.057.417-2.775-.023-2.775-.023-.144-.526c-.385-1.396-1.43-2.693-2.704-3.356-.852-.443-1.585-.622-2.55-.622-2.348 0-4.273 1.365-5.15 3.651-.2.523-.226.72-.229 1.728-.003 1.212.082 1.61.546 2.537.679 1.356 2 2.394 3.56 2.797.661.17 1.851.17 2.575 0 1.284-.303 2.646-1.3 3.324-2.435.318-.533.71-1.532.71-1.81 0-.166.08-.17 2.799-.17h2.798l-.049.415c-.078.661-.457 2.14-.703 2.746a11.04 11.04 0 0 1-6.93 6.411c-3.037.953-6.32.524-9.091-1.187-1.03-.636-2.635-2.216-3.31-3.258-2.073-3.203-2.364-7.167-.779-10.617 1.005-2.188 3.126-4.31 5.313-5.314a13.4 13.4 0 0 1 2.77-.88c1.075-.203 3.32-.118 4.426.168" clip-rule="evenodd"/>
  </g>
  <defs>
    <linearGradient id="b" x1="21" x2="21" y1="0" y2="61.409" gradientUnits="userSpaceOnUse">
      <stop stop-color="#08021E"/>
      <stop offset="1" stop-color="#1F0777"/>
    </linearGradient>
    <clipPath id="a">
      <path fill="#fff" d="M0 0h42v42H0z"/>
    </clipPath>
  </defs>
</svg>
