<svg width="480" height="480" viewBox="0 0 480 480" fill="none" xmlns="http://www.w3.org/2000/svg"><mask id="mask0-808285" maskUnits="userSpaceOnUse" x="0" y="0" width="480" height="480"><circle cx="240" cy="240" r="240" fill="url(#paint0_linear-847024)"/></mask><g mask="url(#mask0-808285)"><circle cx="240" cy="240" r="240" fill="#31D8A4"/><circle cx="240" cy="240" r="208" fill="#fff"/></g><circle cx="240" cy="240" r="184" fill="#0052FF"/><path fill-rule="evenodd" clip-rule="evenodd" d="M269.525 118.198c16.829 4.36 27.835 9.328 41.779 18.858 15.971 10.914 31.878 29.168 40.672 46.67 5.513 10.973 10.728 28.183 12.525 41.335l.651 4.764-31.712-.264-31.711-.264-1.653-6c-4.397-15.957-16.341-30.786-30.898-38.36-9.743-5.068-18.115-7.11-29.153-7.11-26.823 0-48.822 15.601-58.839 41.728-2.29 5.975-2.589 8.222-2.623 19.742-.041 13.856.938 18.404 6.241 29 7.754 15.495 22.856 27.36 40.681 31.961 7.555 1.951 21.161 1.952 29.426.004 14.681-3.461 30.243-14.86 37.991-27.829 3.639-6.091 8.123-17.507 8.123-20.681 0-1.899.915-1.955 31.981-1.955h31.981l-.561 4.75c-.893 7.558-5.22 24.459-8.035 31.389-14.321 35.242-43.218 61.976-79.195 73.265-34.712 10.891-72.243 5.993-103.905-13.562-11.778-7.275-30.117-25.329-37.826-37.241-23.693-36.605-27.018-81.908-8.905-121.34 11.481-24.996 35.73-49.245 60.726-60.726 8.967-4.119 21.683-8.155 31.661-10.05 12.279-2.331 37.936-1.359 50.578 1.916z" fill="#fff"/><defs><linearGradient id="paint0_linear-847024" x1="240" y1="0" x2="240" y2="701.818" gradientUnits="userSpaceOnUse"><stop stop-color="#08021E"/><stop offset="1" stop-color="#1F0777"/></linearGradient></defs></svg>