<svg width="256" height="256" viewBox="0 0 256 256" fill="none" xmlns="http://www.w3.org/2000/svg">
<mask id="mask0-950368" mask-type="alpha" maskUnits="userSpaceOnUse" x="0" y="0" width="256" height="256">
<circle cx="128" cy="128" r="128" fill="url(#paint0_linear-798248)"/>
</mask>
<g mask="url(#mask0-950368)">
<circle cx="128" cy="128" r="128" fill="#31D8A4"/>
<circle cx="128" cy="128" r="110.933" fill="white"/>
</g>
<circle cx="128.001" cy="128" r="98.1333" fill="#0052FF"/>
<path fill-rule="evenodd" clip-rule="evenodd" d="M143.747 63.0384C152.723 65.3638 158.593 68.0134 166.029 73.096C174.547 78.9168 183.031 88.6523 187.721 97.9867C190.661 103.839 193.443 113.018 194.401 120.032L194.748 122.573L177.835 122.432L160.923 122.291L160.041 119.091C157.696 110.581 151.326 102.672 143.562 98.6326C138.366 95.9296 133.901 94.8406 128.014 94.8406C113.708 94.8406 101.975 103.161 96.633 117.096C95.4117 120.282 95.2522 121.481 95.2341 127.625C95.2122 135.014 95.7344 137.44 98.5627 143.091C102.698 151.355 110.753 157.683 120.259 160.137C124.289 161.178 131.545 161.178 135.953 160.139C143.783 158.293 152.083 152.214 156.215 145.297C158.156 142.049 160.547 135.96 160.547 134.267C160.547 133.254 161.035 133.225 177.604 133.225H194.66L194.361 135.758C193.885 139.789 191.577 148.803 190.076 152.499C182.438 171.294 167.026 185.553 147.838 191.573C129.325 197.382 109.309 194.77 92.4224 184.34C86.1408 180.46 76.36 170.832 72.2485 164.478C59.6123 144.956 57.8389 120.794 67.4992 99.7638C73.6224 86.4326 86.5552 73.4998 99.8864 67.3766C104.669 65.1798 111.451 63.0272 116.772 62.0166C123.321 60.7734 137.005 61.2918 143.747 63.0384Z" fill="white"/>
<defs>
<linearGradient id="paint0_linear-798248" x1="128" y1="0" x2="128" y2="374.303" gradientUnits="userSpaceOnUse">
<stop stop-color="#08021E"/>
<stop offset="1" stop-color="#1F0777"/>
</linearGradient>
</defs>
</svg>