<svg xmlns="http://www.w3.org/2000/svg" width="42" height="42" fill="none"><g clip-path="url(#a)"><mask id="c" width="42" height="42" x="0" y="0" maskUnits="userSpaceOnUse" style="mask-type:alpha"><circle cx="21" cy="21" r="21" fill="url(#b)" transform="matrix(-1 0 0 1 42 0)"/></mask><g mask="url(#c)"><circle cx="21" cy="21" r="21" fill="#34EDB3" transform="matrix(-1 0 0 1 42 0)"/><circle cx="18.2" cy="18.2" r="18.2" fill="#fff" transform="matrix(-1 0 0 1 39.2 2.8)"/></g><circle cx="16.1" cy="16.1" r="16.1" fill="#0B0B22" transform="matrix(-1 0 0 1 37.1 4.9)"/><g clip-path="url(#d)"><path fill="#F5AC37" d="M21 4.9c8.893 0 16.1 7.209 16.1 16.1 0 8.893-7.207 16.1-16.1 16.1-8.891 0-16.1-7.208-16.1-16.1 0-8.891 7.209-16.1 16.1-16.1Z"/><path fill="#FEFEFD" d="M21.915 22.137h6.118c.13 0 .192 0 .202-.171.05-.623.05-1.248 0-1.872 0-.12-.06-.17-.192-.17H15.868c-.15 0-.191.05-.191.19v1.792c0 .23 0 .23.24.23h5.998Zm5.636-4.307a.196.196 0 0 0 0-.14 3.985 3.985 0 0 0-.363-.634 5.132 5.132 0 0 0-.745-.936 2.47 2.47 0 0 0-.463-.453 7.233 7.233 0 0 0-3.02-1.53 7.507 7.507 0 0 0-1.71-.18h-5.403c-.15 0-.171.06-.171.19v3.572c0 .151 0 .192.191.192H27.48s.1-.02.12-.08h-.048Zm0 6.4a2.353 2.353 0 0 0-.514 0H15.878c-.15 0-.201 0-.201.201v3.492c0 .161 0 .202.201.202h5.152c.246.019.493.001.734-.05a7.67 7.67 0 0 0 2.184-.483 4 4 0 0 0 .734-.342h.07a6.538 6.538 0 0 0 2.808-2.827s.07-.152-.009-.192v-.001Zm-13.896 5.705v-5.564c0-.13 0-.15-.161-.15H11.31c-.12 0-.17 0-.17-.161v-1.912h2.333c.13 0 .182 0 .182-.171v-1.892c0-.121 0-.15-.161-.15H11.31c-.12 0-.17 0-.17-.162v-1.77c0-.111 0-.14.16-.14h2.163c.151 0 .192 0 .192-.192v-5.424c0-.16 0-.201.201-.201h7.546c.548.022 1.092.082 1.63.181a9.838 9.838 0 0 1 3.15 1.167c.646.38 1.241.84 1.77 1.369.4.414.759.861 1.077 1.338.317.483.58 1 .786 1.54.026.14.16.235.301.211h1.801c.231 0 .231 0 .241.222v1.65c0 .161-.06.202-.221.202h-1.39c-.14 0-.18 0-.17.18.055.614.055 1.229 0 1.842 0 .17 0 .191.192.191h1.589c.07.09 0 .181 0 .272.01.117.01.235 0 .352v1.218c0 .17-.05.221-.202.221h-1.901a.252.252 0 0 0-.292.192 8.048 8.048 0 0 1-2.114 3.079c-.342.308-.701.598-1.076.865-.403.232-.795.473-1.208.664-.76.342-1.557.594-2.375.755-.777.139-1.564.202-2.355.19h-6.983v-.01l.003-.002Z"/></g></g><defs><clipPath id="a"><path fill="#fff" d="M0 0h42v42H0z"/></clipPath><clipPath id="d"><path fill="#fff" d="M4.9 4.9h32.2v32.2H4.9z"/></clipPath><linearGradient id="b" x1="21" x2="21" y1="0" y2="61.409" gradientUnits="userSpaceOnUse"><stop stop-color="#08021E"/><stop offset="1" stop-color="#1F0777"/></linearGradient></defs></svg>