<svg width="42" height="42" fill="none" xmlns="http://www.w3.org/2000/svg">
  <g clip-path="url(#a)">
    <mask id="c" width="42" height="42" x="0" y="0" maskUnits="userSpaceOnUse" style="mask-type:alpha">
      <circle cx="21" cy="21" r="21" fill="url(#b)" transform="matrix(-1 0 0 1 42 0)"/>
    </mask>
    <g mask="url(#c)">
      <circle cx="21" cy="21" r="21" fill="#34EDB3" transform="matrix(-1 0 0 1 42 0)"/>
      <circle cx="18.2" cy="18.2" r="18.2" fill="#fff" transform="matrix(-1 0 0 1 39.2 2.8)"/>
    </g>
    <circle cx="16.1" cy="16.1" r="16.1" fill="#0B0B22" transform="matrix(-1 0 0 1 37.1 4.9)"/>
    <g clip-path="url(#d)">
      <path fill="#F5AC37" d="M21 4.9c8.893 0 16.1 7.209 16.1 16.1 0 8.893-7.207 16.1-16.1 16.1-8.891 0-16.1-7.208-16.1-16.1 0-8.891 7.209-16.1 16.1-16.1"/>
      <path fill="#FEFEFD" d="M21.915 22.137h6.118c.13 0 .192 0 .202-.171a12 12 0 0 0 0-1.872c0-.12-.06-.17-.192-.17H15.868c-.15 0-.191.05-.191.19v1.792c0 .23 0 .23.24.23zm5.636-4.307a.2.2 0 0 0 0-.14 4 4 0 0 0-.363-.634 5 5 0 0 0-.745-.936 2.5 2.5 0 0 0-.463-.453 7.2 7.2 0 0 0-3.02-1.53 7.5 7.5 0 0 0-1.71-.18h-5.403c-.15 0-.171.06-.171.19v3.572c0 .151 0 .192.191.192H27.48s.1-.02.12-.08h-.048zm0 6.4a2.4 2.4 0 0 0-.514 0H15.878c-.15 0-.201 0-.201.201v3.492c0 .161 0 .202.201.202h5.152q.37.027.734-.05a7.7 7.7 0 0 0 2.184-.483 4 4 0 0 0 .734-.342h.07a6.54 6.54 0 0 0 2.808-2.827s.07-.152-.009-.192zm-13.896 5.705v-5.564c0-.13 0-.15-.161-.15H11.31c-.12 0-.17 0-.17-.161v-1.912h2.333c.13 0 .182 0 .182-.171v-1.892c0-.121 0-.15-.161-.15H11.31c-.12 0-.17 0-.17-.162v-1.77c0-.111 0-.14.16-.14h2.163c.151 0 .192 0 .192-.192v-5.424c0-.16 0-.201.201-.201h7.546q.823.033 1.63.181a9.8 9.8 0 0 1 3.15 1.167c.646.38 1.241.84 1.77 1.369q.6.622 1.077 1.338c.317.483.58 1 .786 1.54.026.14.16.235.301.211h1.801c.231 0 .231 0 .241.222v1.65c0 .161-.06.202-.221.202h-1.39c-.14 0-.18 0-.17.18q.082.922 0 1.842c0 .17 0 .191.192.191h1.589c.07.09 0 .181 0 .272q.015.176 0 .352v1.218c0 .17-.05.221-.202.221h-1.901a.25.25 0 0 0-.292.192 8.05 8.05 0 0 1-2.114 3.079q-.513.463-1.076.865c-.403.232-.795.473-1.208.664-.76.342-1.557.594-2.375.755a12.3 12.3 0 0 1-2.355.19h-6.983v-.01z"/>
    </g>
  </g>
  <defs>
    <clipPath id="a">
      <path fill="#fff" d="M0 0h42v42H0z"/>
    </clipPath>
    <clipPath id="d">
      <path fill="#fff" d="M4.9 4.9h32.2v32.2H4.9z"/>
    </clipPath>
    <linearGradient id="b" x1="21" x2="21" y1="0" y2="61.409" gradientUnits="userSpaceOnUse">
      <stop stop-color="#08021E"/>
      <stop offset="1" stop-color="#1F0777"/>
    </linearGradient>
  </defs>
</svg>
