<svg xmlns="http://www.w3.org/2000/svg" width="42" height="42" fill="none"><g clip-path="url(#a)"><mask id="c" width="42" height="42" x="0" y="0" maskUnits="userSpaceOnUse" style="mask-type:alpha"><circle cx="21" cy="21" r="21" fill="url(#b)" transform="matrix(-1 0 0 1 42 0)"/></mask><g mask="url(#c)"><circle cx="21" cy="21" r="21" fill="#34EDB3" transform="matrix(-1 0 0 1 42 0)"/><circle cx="18.2" cy="18.2" r="18.2" fill="#fff" transform="matrix(-1 0 0 1 39.2 2.8)"/></g><circle cx="16.1" cy="16.1" r="16.1" fill="#0B0B22" transform="matrix(-1 0 0 1 37.1 4.9)"/><g clip-path="url(#d)"><path fill="#008CE7" d="M21 37.1c8.892 0 16.1-7.208 16.1-16.1 0-8.892-7.208-16.1-16.1-16.1-8.892 0-16.1 7.208-16.1 16.1 0 8.892 7.208 16.1 16.1 16.1Z"/><path fill="#fff" d="M24.105 12.954h-7.321l-.606 3.388 6.603.01c3.251 0 4.216 1.18 4.185 3.14-.014 1.004-.452 2.702-.637 3.25-.5 1.469-1.53 3.141-5.392 3.136l-6.418-.004-.606 3.392h7.302c2.575 0 3.672-.3 4.83-.835 2.57-1.185 4.1-3.724 4.716-7.038.911-4.93-.226-8.439-6.657-8.439h.001Z"/><path fill="#fff" d="M20.806 20.797c.238-.991.314-1.389.314-1.389h-7.493c-1.916 0-2.19 1.248-2.372 2.002-.238.988-.314 1.39-.314 1.39h7.494c1.915 0 2.189-1.248 2.37-2.003Z"/></g></g><defs><clipPath id="a"><path fill="#fff" d="M0 0h42v42H0z"/></clipPath><clipPath id="d"><path fill="#fff" d="M4.9 4.9h32.2v32.2H4.9z"/></clipPath><linearGradient id="b" x1="21" x2="21" y1="0" y2="61.409" gradientUnits="userSpaceOnUse"><stop stop-color="#08021E"/><stop offset="1" stop-color="#1F0777"/></linearGradient></defs></svg>