<svg width="300" height="300" viewBox="0 0 300 300" fill="none" xmlns="http://www.w3.org/2000/svg"><path d="M150 300c82.843 0 150-67.157 150-150S232.843 0 150 0 0 67.157 0 150s67.157 150 150 150z" fill="#6E97FF"/><path d="M183.8 217.433v-13.608c0-3.92.84-7.373 2.52-10.36 1.643-3.024 3.957-5.339 6.944-6.944 2.949-1.643 6.328-2.464 10.136-2.464 3.808 0 7.205.821 10.192 2.464 2.949 1.605 5.264 3.92 6.944 6.944 1.643 2.987 2.464 6.44 2.464 10.36v13.608h-39.2zm32.2-13.608c0-3.547-1.139-6.291-3.416-8.232-2.315-1.979-5.376-2.968-9.184-2.968-3.808 0-6.851.989-9.128 2.968-2.315 1.941-3.472 4.685-3.472 8.232v5.208H216v-5.208zm7-20.116l-39.2-14.336v-10.08l39.2-14.224v9.016l-8.568 3.024v14.896l8.568 3.024v8.68zm-15.344-13.944v-10.36l-14.896 5.208 14.896 5.152zm2.576-33.535c1.941-.15 3.509-.934 4.704-2.352 1.157-1.456 1.736-3.379 1.736-5.768 0-1.979-.411-3.584-1.232-4.816-.859-1.27-2.035-1.904-3.528-1.904-1.045 0-1.867.354-2.464 1.064-.635.672-1.12 1.642-1.456 2.912-.373 1.232-.821 3.154-1.344 5.768-.485 2.576-1.101 4.741-1.848 6.496-.784 1.754-1.923 3.192-3.416 4.312-1.531 1.082-3.547 1.624-6.048 1.624-2.277 0-4.312-.616-6.104-1.848-1.792-1.27-3.192-3.006-4.2-5.208-1.045-2.24-1.568-4.76-1.568-7.56 0-2.875.541-5.451 1.624-7.728 1.045-2.315 2.501-4.126 4.368-5.432 1.867-1.344 3.976-2.035 6.328-2.072v8.232c-1.68.186-3.024.896-4.032 2.128-1.045 1.232-1.568 2.856-1.568 4.872 0 1.866.392 3.36 1.176 4.48.784 1.12 1.904 1.68 3.36 1.68 1.045 0 1.867-.336 2.464-1.008.56-.672 1.027-1.624 1.4-2.856.336-1.232.747-3.136 1.232-5.712.485-2.614 1.101-4.816 1.848-6.608.709-1.792 1.811-3.23 3.304-4.312 1.456-1.12 3.416-1.68 5.88-1.68 2.389 0 4.536.653 6.44 1.96 1.867 1.306 3.341 3.136 4.424 5.488 1.083 2.314 1.624 4.928 1.624 7.84 0 3.136-.56 5.936-1.68 8.4-1.157 2.426-2.744 4.33-4.76 5.712-2.016 1.381-4.275 2.09-6.776 2.128l.112-8.232zM183.8 107.894v-8.4h15.736V83.926H183.8v-8.4H223v8.4h-16.184v15.568H223v8.4h-39.2z" fill="#1E1A31"/><path opacity=".5" fill-rule="evenodd" clip-rule="evenodd" d="M81.424 208.528l-12.484-8.906 78.517-109.094 12.483 8.906-78.516 109.094z" fill="#1E1A31"/><path fill-rule="evenodd" clip-rule="evenodd" d="M121.868 142.349h4.191c19.298 0 34.941 15.592 34.941 34.826C161 196.408 145.357 212 126.059 212H74.676c-4.24 0-7.676-3.425-7.676-7.651 0-4.225 3.437-7.65 7.676-7.65h51.383c10.819 0 19.589-8.741 19.589-19.524 0-10.783-8.77-19.524-19.589-19.524h-24.118C82.643 157.651 67 142.059 67 122.825 67 103.592 82.643 88 101.941 88h51.383c4.239 0 7.676 3.425 7.676 7.65 0 4.226-3.437 7.651-7.676 7.651h-51.383c-10.82 0-19.59 8.741-19.59 19.524 0 10.783 8.77 19.524 19.59 19.524h19.927z" fill="#1E1A31"/></svg>