<svg width="74" height="73" viewBox="0 0 74 73" fill="none" xmlns="http://www.w3.org/2000/svg">
<g filter="url(#filter0_d_1912_35849)">
<mask id="mask0_1912_35849" style="mask-type:alpha" maskUnits="userSpaceOnUse" x="1" y="0" width="72" height="71">
<circle cx="37" cy="35.5" r="35.5" fill="url(#paint0_linear_1912_35849)"/>
</mask>
<g mask="url(#mask0_1912_35849)">
<circle cx="37" cy="35.5" r="35.5" fill="#34EDB3"/>
<circle cx="37" cy="35.5" r="30.7667" fill="white"/>
</g>
<ellipse cx="37" cy="35.5" rx="27.2167" ry="27.2167" fill="#0B0B22"/>
<path fill-rule="evenodd" clip-rule="evenodd" d="M37 8C52.1855 8 64.5 20.3145 64.5 35.5C64.5 50.6855 52.1855 63 37 63C21.8145 63 9.5 50.6855 9.5 35.5C9.5 20.3145 21.8145 8 37 8Z" fill="#0036C1"/>
<path d="M25.9177 33.3225C25.9177 32.0503 24.8401 31.0476 23.6279 31.0476H16.3095V41.5238H23.6279C24.9 41.5238 25.9177 40.4612 25.9177 39.249V33.3225ZM23.6279 38.9497C23.6279 39.3089 23.3435 39.6082 22.9843 39.6082H18.5843V32.9633H22.9843C23.3435 32.9633 23.6279 33.2626 23.6279 33.6218V38.9497Z" fill="white"/>
<path d="M36.5226 39.6082H30.0723V37.1538H35.3702V35.2381H30.0723V32.9633H36.5226V31.0476H27.7825V41.5238H36.5226V39.6082Z" fill="white"/>
<path d="M45.7115 31.0476H38.3931V41.5238H45.7115C46.9836 41.5238 48.0013 40.4612 48.0013 39.249V38.1565C48.0013 37.3782 47.5972 36.7048 46.9985 36.2857C47.6122 35.8667 48.0013 35.1782 48.0013 34.415V33.3225C48.0013 32.0503 46.9237 31.0476 45.7115 31.0476ZM45.7115 34.6694C45.7115 35.0286 45.4271 35.3279 45.0679 35.3279H40.6679V32.9633H45.0679C45.7414 32.9633 45.7115 33.6367 45.7115 34.1456V34.6694ZM45.7115 38.9497C45.7115 39.3089 45.4271 39.5932 45.0679 39.5932H40.6679V37.2435H45.0679C45.4271 37.2435 45.7115 37.5429 45.7115 37.8871V38.9497Z" fill="white"/>
<path d="M58.8456 31.0476H49.1926V32.9633H52.8892V41.5238H55.164V32.9633H58.8456V31.0476Z" fill="white"/>
</g>
<defs>
<filter id="filter0_d_1912_35849" x="0.916036" y="0" width="72.1679" height="72.1679" filterUnits="userSpaceOnUse" color-interpolation-filters="sRGB">
<feFlood flood-opacity="0" result="BackgroundImageFix"/>
<feColorMatrix in="SourceAlpha" type="matrix" values="0 0 0 0 0 0 0 0 0 0 0 0 0 0 0 0 0 0 127 0" result="hardAlpha"/>
<feOffset dy="0.583964"/>
<feGaussianBlur stdDeviation="0.291982"/>
<feComposite in2="hardAlpha" operator="out"/>
<feColorMatrix type="matrix" values="0 0 0 0 0 0 0 0 0 0 0 0 0 0 0 0 0 0 0.25 0"/>
<feBlend mode="normal" in2="BackgroundImageFix" result="effect1_dropShadow_1912_35849"/>
<feBlend mode="normal" in="SourceGraphic" in2="effect1_dropShadow_1912_35849" result="shape"/>
</filter>
<linearGradient id="paint0_linear_1912_35849" x1="37" y1="0" x2="37" y2="103.811" gradientUnits="userSpaceOnUse">
<stop stop-color="#08021E"/>
<stop offset="1" stop-color="#1F0777"/>
</linearGradient>
</defs>
</svg>
