<svg width="42" height="42" fill="none" xmlns="http://www.w3.org/2000/svg">
  <g clip-path="url(#a)">
    <mask id="c" width="42" height="42" x="0" y="0" maskUnits="userSpaceOnUse" style="mask-type:alpha">
      <circle cx="21" cy="21" r="21" fill="url(#b)" transform="matrix(-1 0 0 1 42 0)"/>
    </mask>
    <g mask="url(#c)">
      <circle cx="21" cy="21" r="21" fill="#34EDB3" transform="matrix(-1 0 0 1 42 0)"/>
      <circle cx="18.2" cy="18.2" r="18.2" fill="#fff" transform="matrix(-1 0 0 1 39.2 2.8)"/>
    </g>
    <circle cx="16.1" cy="16.1" r="16.1" fill="#0B0B22" transform="matrix(-1 0 0 1 37.1 4.9)"/>
    <path fill="#0E052F" fill-rule="evenodd" d="M21 4.9c8.89 0 16.1 7.21 16.1 16.1S29.89 37.1 21 37.1 4.9 29.89 4.9 21 12.11 4.9 21 4.9" clip-rule="evenodd"/>
    <path fill="#fff" d="M14.512 19.725c0-.745-.631-1.332-1.34-1.332H8.886v6.134h4.284a1.35 1.35 0 0 0 1.34-1.332v-3.47zm-1.34 3.295c0 .21-.167.385-.378.385H10.22v-3.89h2.575c.21 0 .377.175.377.385zm7.548.385h-3.776v-1.437h3.102v-1.121h-3.102v-1.332h3.777v-1.122h-5.117v6.134h5.117v-1.122zm5.38-5.012h-4.284v6.134H26.1a1.35 1.35 0 0 0 1.34-1.332v-.64c0-.455-.236-.85-.586-1.095.359-.245.587-.648.587-1.095v-.64c0-.745-.631-1.332-1.34-1.332zm0 2.12a.38.38 0 0 1-.377.386h-2.576v-1.384h2.576c.395 0 .377.394.377.692v.307zm0 2.507c0 .21-.166.376-.377.376h-2.576v-1.375h2.576a.38.38 0 0 1 .377.377zm7.69-4.627h-5.652v1.122h2.164v5.012h1.332v-5.012h2.156z"/>
  </g>
  <defs>
    <linearGradient id="b" x1="21" x2="21" y1="0" y2="61.409" gradientUnits="userSpaceOnUse">
      <stop stop-color="#08021E"/>
      <stop offset="1" stop-color="#1F0777"/>
    </linearGradient>
    <clipPath id="a">
      <path fill="#fff" d="M0 0h42v42H0z"/>
    </clipPath>
  </defs>
</svg>
