<svg xmlns="http://www.w3.org/2000/svg" width="42" height="42" fill="none"><g clip-path="url(#a)"><mask id="c" width="42" height="42" x="0" y="0" maskUnits="userSpaceOnUse" style="mask-type:alpha"><circle cx="21" cy="21" r="21" fill="url(#b)"/></mask><g mask="url(#c)"><circle cx="21" cy="21" r="21" fill="#34EDB3"/><circle cx="21" cy="21" r="18.2" fill="#fff"/></g><circle cx="21" cy="21" r="16.1" fill="#06061B"/><circle cx="21" cy="21" r="16.1" fill="#06061B"/><path fill="#00D1FF" d="M18.15 11.7a.364.364 0 0 0-.285-.132h-2.308a.067.067 0 0 1-.05-.02.06.06 0 0 1-.02-.043V9.95a.06.06 0 0 1 .02-.043.067.067 0 0 1 .05-.02h2.44c.615 0 1.146.252 1.592.755l.593.724-1.155 1.407-.877-1.073Zm4.263-1.066c.447-.498.98-.746 1.6-.746h2.433c.02 0 .035.005.046.015.01.01.015.026.015.047v1.556c0 .015-.005.03-.015.042-.01.013-.026.02-.046.02h-2.309a.364.364 0 0 0-.285.132l-1.7 2.07 1.708 2.084c.077.083.17.124.277.124h2.309c.02 0 .035.007.046.02a.08.08 0 0 1 .015.05v1.556c0 .015-.005.03-.015.043-.01.013-.026.02-.046.02h-2.432c-.62 0-1.152-.252-1.593-.755l-1.416-1.727-1.416 1.727c-.446.503-.98.754-1.6.754h-2.432c-.02 0-.036-.006-.046-.02a.079.079 0 0 1-.016-.05V16.04c0-.015.005-.03.016-.042.01-.013.025-.02.046-.02h2.308a.378.378 0 0 0 .285-.132l1.67-2.038 2.593-3.174Z"/><path fill="#00D395" fill-rule="evenodd" d="M11.368 28.688a.903.903 0 0 1-.43-.77v-1.75a.374.374 0 0 1 .564-.324l3.94 2.303c.23.135.371.382.371.65v1.814a.45.45 0 0 1-.685.385l-3.76-2.308Zm5.872-3.324c.23.135.372.382.372.65v3.68a.3.3 0 0 1-.152.262l-.863.487a.168.168 0 0 1-.034.014v-2.043a.754.754 0 0 0-.365-.646l-3.46-2.076v-2.307a.374.374 0 0 1 .564-.324l3.938 2.303Zm1.724-2.718a.752.752 0 0 1 .373.65v5.376c0 .11-.06.212-.157.265l-.817.442v-3.742a.754.754 0 0 0-.364-.645l-3.536-2.127v-2.189a.375.375 0 0 1 .563-.326l3.938 2.296Z" clip-rule="evenodd"/><path fill="url(#d)" d="M23.976 23.867a.394.394 0 0 0-.001.027v6.33a.387.387 0 0 0 .386.387.386.386 0 0 0 .386-.386v-1.122a.386.386 0 1 1 .771 0v.532a.386.386 0 1 0 .772 0v-.532a.386.386 0 1 1 .772 0v.145a.386.386 0 0 0 .771 0v-.145a.386.386 0 0 1 .772 0v.532a.385.385 0 0 0 .772 0v-.532a.386.386 0 1 1 .771 0v1.122a.386.386 0 1 0 .772 0v-6.331l-.001-.027a3.472 3.472 0 0 0-6.943 0Zm4.134-.152c0-.392.277-.709.618-.709.341 0 .618.317.618.709 0 .39-.277.708-.618.708-.341 0-.618-.317-.618-.708Zm-2.56 0c0-.392.276-.709.617-.709.341 0 .618.317.618.709 0 .39-.277.708-.618.708-.341 0-.618-.317-.618-.708Zm2.486 1.296c0 .228-.251.412-.56.412-.31 0-.562-.184-.562-.412 0-.228.251-.09.561-.09.31 0 .56-.138.56.09Z"/></g><defs><linearGradient id="b" x1="21" x2="21" y1="0" y2="61.409" gradientUnits="userSpaceOnUse"><stop stop-color="#08021E"/><stop offset="1" stop-color="#1F0777"/></linearGradient><linearGradient id="d" x1="23.975" x2="29.837" y1="30.625" y2="21.569" gradientUnits="userSpaceOnUse"><stop stop-color="#50B5AC"/><stop offset="1" stop-color="#B22F92"/></linearGradient><clipPath id="a"><path fill="#fff" d="M0 0h42v42H0z"/></clipPath></defs></svg>