<svg width="42" height="42" fill="none" xmlns="http://www.w3.org/2000/svg">
  <g clip-path="url(#a)">
    <mask id="c" width="42" height="42" x="0" y="0" maskUnits="userSpaceOnUse" style="mask-type:alpha">
      <circle cx="21" cy="21" r="21" fill="url(#b)"/>
    </mask>
    <g mask="url(#c)">
      <circle cx="21" cy="21" r="21" fill="#34EDB3"/>
      <circle cx="21" cy="21" r="18.2" fill="#fff"/>
    </g>
    <circle cx="21" cy="21" r="16.1" fill="#06061B"/>
    <circle cx="21" cy="21" r="16.1" fill="#06061B"/>
    <path fill="#00D1FF" d="M18.15 11.7a.36.36 0 0 0-.285-.132h-2.308a.07.07 0 0 1-.05-.02.06.06 0 0 1-.02-.043V9.95a.06.06 0 0 1 .02-.043.07.07 0 0 1 .05-.02h2.44q.923 0 1.592.755l.593.724-1.155 1.407zm4.263-1.066q.67-.746 1.6-.746h2.433q.03 0 .046.015.015.015.015.047v1.556q0 .023-.015.042-.016.02-.046.02h-2.309a.36.36 0 0 0-.285.132l-1.7 2.07 1.708 2.084q.116.124.277.124h2.309q.03 0 .046.02a.1.1 0 0 1 .015.05v1.556a.07.07 0 0 1-.015.043q-.016.02-.046.02h-2.432q-.93 0-1.593-.755l-1.416-1.727-1.416 1.727q-.67.754-1.6.754h-2.432q-.03 0-.046-.02a.1.1 0 0 1-.016-.05V16.04q0-.023.016-.042.015-.02.046-.02h2.308a.38.38 0 0 0 .285-.132l1.67-2.038z"/>
    <path fill="#00D395" fill-rule="evenodd" d="M11.368 28.688a.9.9 0 0 1-.43-.77v-1.75a.374.374 0 0 1 .564-.324l3.94 2.303c.23.135.371.382.371.65v1.814a.45.45 0 0 1-.685.385zm5.872-3.324c.23.135.372.382.372.65v3.68a.3.3 0 0 1-.152.262l-.863.487-.034.014v-2.043a.75.75 0 0 0-.365-.646l-3.46-2.076v-2.307a.374.374 0 0 1 .564-.324zm1.724-2.718a.75.75 0 0 1 .373.65v5.376c0 .11-.06.212-.157.265l-.817.442v-3.742a.75.75 0 0 0-.364-.645l-3.536-2.127v-2.189a.375.375 0 0 1 .563-.326z" clip-rule="evenodd"/>
    <path fill="url(#d)" d="m23.976 23.867-.001.027v6.33a.387.387 0 0 0 .386.387.386.386 0 0 0 .386-.386v-1.122a.386.386 0 1 1 .771 0v.532a.386.386 0 1 0 .772 0v-.532a.386.386 0 1 1 .772 0v.145a.386.386 0 0 0 .771 0v-.145a.386.386 0 0 1 .772 0v.532a.385.385 0 0 0 .772 0v-.532a.386.386 0 1 1 .771 0v1.122a.386.386 0 1 0 .772 0v-6.331l-.001-.027a3.472 3.472 0 0 0-6.943 0m4.134-.152c0-.392.277-.709.618-.709s.618.317.618.709c0 .39-.277.708-.618.708s-.618-.317-.618-.708m-2.56 0c0-.392.276-.709.617-.709s.618.317.618.709c0 .39-.277.708-.618.708s-.618-.317-.618-.708zm2.486 1.296c0 .228-.251.412-.56.412s-.562-.184-.562-.412.251-.09.561-.09.56-.138.56.09z"/>
  </g>
  <defs>
    <linearGradient id="b" x1="21" x2="21" y1="0" y2="61.409" gradientUnits="userSpaceOnUse">
      <stop stop-color="#08021E"/>
      <stop offset="1" stop-color="#1F0777"/>
    </linearGradient>
    <linearGradient id="d" x1="23.975" x2="29.837" y1="30.625" y2="21.569" gradientUnits="userSpaceOnUse">
      <stop stop-color="#50B5AC"/>
      <stop offset="1" stop-color="#B22F92"/>
    </linearGradient>
    <clipPath id="a">
      <path fill="#fff" d="M0 0h42v42H0z"/>
    </clipPath>
  </defs>
</svg>
