<svg width="300" height="300" viewBox="0 0 300 300" fill="none" xmlns="http://www.w3.org/2000/svg"><path d="M150 300c82.843 0 150-67.157 150-150S232.843 0 150 0 0 67.157 0 150s67.157 150 150 150z" fill="#B2A1FB"/><path d="M179 208.068v-14.58c0-4.2.9-7.9 2.7-11.1 1.76-3.24 4.24-5.72 7.44-7.44 3.16-1.76 6.78-2.64 10.86-2.64 4.08 0 7.72.88 10.92 2.64 3.16 1.72 5.64 4.2 7.44 7.44 1.76 3.2 2.64 6.9 2.64 11.1v14.58h-42zm34.5-14.58c0-3.8-1.22-6.74-3.66-8.82-2.48-2.12-5.76-3.18-9.84-3.18s-7.34 1.06-9.78 3.18c-2.48 2.08-3.72 5.02-3.72 8.82v5.58h27v-5.58zM179 166.759v-28.2h7.74v19.2h9.42v-15.6h7.38v15.6h9.72v-19.86H221v28.86h-42zm0-34.277v-27.72h7.74v18.72h9.84v-15.36h7.38v15.36H221v9h-42zm0-32.637v-9h42v9h-42z" fill="#1E1A31"/><path opacity=".5" fill-rule="evenodd" clip-rule="evenodd" d="M81.424 208.528l-12.484-8.906 78.517-109.094 12.483 8.906-78.516 109.094z" fill="#1E1A31"/><path fill-rule="evenodd" clip-rule="evenodd" d="M121.868 142.349h4.191c19.298 0 34.941 15.592 34.941 34.826C161 196.408 145.357 212 126.059 212H74.676c-4.24 0-7.676-3.425-7.676-7.651 0-4.225 3.437-7.65 7.676-7.65h51.383c10.819 0 19.589-8.741 19.589-19.524 0-10.783-8.77-19.524-19.589-19.524h-24.118C82.643 157.651 67 142.059 67 122.825 67 103.592 82.643 88 101.941 88h51.383c4.239 0 7.676 3.425 7.676 7.65 0 4.226-3.437 7.651-7.676 7.651h-51.383c-10.82 0-19.59 8.741-19.59 19.524 0 10.783 8.77 19.524 19.59 19.524h19.927z" fill="#1E1A31"/></svg>