<svg width="480" height="480" viewBox="0 0 480 480" fill="none" xmlns="http://www.w3.org/2000/svg"><mask id="mask0-291169" maskUnits="userSpaceOnUse" x="0" y="0" width="480" height="480"><circle cx="240" cy="240" r="240" fill="url(#paint0_linear-799373)"/></mask><g mask="url(#mask0-291169)"><circle cx="240" cy="240" r="240" fill="#31D8A4"/><circle cx="240" cy="240" r="208" fill="#fff"/></g><circle cx="240" cy="240" r="184" fill="#0E052F"/><circle cx="240" cy="240" r="184" fill="#0E052F"/><path d="M207.428 133.714c-.88-1.008-1.964-1.513-3.254-1.513h-26.383a.765.765 0 01-.571-.222.677.677 0 01-.22-.488v-17.78a.68.68 0 01.22-.488.762.762 0 01.571-.223h27.879c7.035 0 13.104 2.876 18.205 8.623l6.772 8.267-13.192 16.091-10.027-12.267zm48.724-12.179c5.101-5.69 11.198-8.535 18.293-8.535h27.791c.234 0 .41.06.528.177.116.12.175.297.175.534v17.78a.771.771 0 01-.175.488c-.118.148-.294.222-.528.222h-26.383c-1.29 0-2.374.505-3.255 1.513l-19.436 23.647 19.524 23.824c.88.95 1.934 1.423 3.167 1.423h26.383c.234 0 .41.074.528.223.116.148.175.342.175.576v17.781a.771.771 0 01-.175.488c-.118.148-.294.222-.528.222h-27.791c-7.095 0-13.164-2.873-18.205-8.623l-16.182-19.735-16.183 19.735c-5.101 5.75-11.199 8.623-18.293 8.623h-27.791c-.235 0-.412-.074-.528-.222-.119-.149-.175-.34-.175-.579v-17.78a.76.76 0 01.175-.489c.116-.148.293-.222.528-.222h26.383c1.231 0 2.315-.503 3.254-1.512l19.084-23.291 29.64-36.268z" fill="#00D1FF"/><path fill-rule="evenodd" clip-rule="evenodd" d="M129.922 327.862a10.328 10.328 0 01-4.922-8.793v-20.005c0-.766.205-1.504.586-2.161a4.272 4.272 0 015.863-1.545l45.021 26.323a8.605 8.605 0 014.254 7.425v20.73c0 .943-.259 1.887-.75 2.694a5.134 5.134 0 01-7.076 1.709l-42.976-26.377zm67.109-37.987a8.604 8.604 0 014.253 7.425v42.061a3.428 3.428 0 01-1.745 2.995l-9.857 5.566a2.027 2.027 0 01-.396.164V324.73a8.616 8.616 0 00-4.172-7.384l-39.54-23.724v-26.364c0-.766.205-1.504.587-2.161a4.27 4.27 0 015.862-1.545l45.008 26.323zm19.701-31.068a8.596 8.596 0 014.268 7.439v61.438a3.45 3.45 0 01-1.8 3.022l-9.34 5.059v-42.772a8.612 8.612 0 00-4.158-7.371L165.29 261.31V236.3c0-.766.204-1.504.572-2.161a4.289 4.289 0 015.863-1.559l45.007 26.227z" fill="#00D395"/><path d="M274.012 272.771a3.842 3.842 0 00-.012.304v72.352a4.405 4.405 0 002.722 4.074 4.41 4.41 0 006.097-4.074v-12.822a4.41 4.41 0 118.819 0v6.079a4.41 4.41 0 008.819 0v-6.079a4.41 4.41 0 118.819 0v1.659a4.408 4.408 0 108.818 0v-1.659a4.41 4.41 0 018.82 0v6.079a4.418 4.418 0 001.291 3.118 4.398 4.398 0 003.117 1.291 4.42 4.42 0 003.119-1.291 4.418 4.418 0 001.291-3.118v-6.079a4.409 4.409 0 014.41-4.41 4.41 4.41 0 014.409 4.41v12.822a4.41 4.41 0 108.819 0v-72.352c0-.103-.005-.204-.012-.304-.487-21.495-18.062-38.771-39.673-38.771s-39.187 17.276-39.673 38.771zm47.245-1.748c0-4.471 3.161-8.096 7.061-8.096s7.061 3.625 7.061 8.096c0 4.472-3.161 8.097-7.061 8.097s-7.061-3.625-7.061-8.097zm-29.266 0c0-4.471 3.161-8.096 7.061-8.096s7.062 3.625 7.062 8.096c0 4.472-3.162 8.097-7.062 8.097-3.9 0-7.061-3.625-7.061-8.097zm28.419 14.816c0 2.602-2.869 4.711-6.409 4.711-3.539 0-6.408-2.109-6.408-4.711 0-2.601 2.869-1.032 6.408-1.032 3.54 0 6.409-1.569 6.409 1.032z" fill="url(#paint1_linear-391700)"/><defs><linearGradient id="paint0_linear-799373" x1="240" y1="0" x2="240" y2="701.818" gradientUnits="userSpaceOnUse"><stop stop-color="#08021E"/><stop offset="1" stop-color="#1F0777"/></linearGradient><linearGradient id="paint1_linear-391700" x1="274" y1="350" x2="341" y2="246.5" gradientUnits="userSpaceOnUse"><stop stop-color="#50B5AC"/><stop offset="1" stop-color="#B22F92"/></linearGradient></defs></svg>