<svg xmlns="http://www.w3.org/2000/svg" width="42" height="42" fill="none"><g clip-path="url(#a)"><mask id="c" width="42" height="42" x="0" y="0" maskUnits="userSpaceOnUse" style="mask-type:alpha"><circle cx="21" cy="21" r="21" fill="url(#b)" transform="matrix(-1 0 0 1 42 0)"/></mask><g mask="url(#c)"><circle cx="21" cy="21" r="21" fill="#34EDB3" transform="matrix(-1 0 0 1 42 0)"/><circle cx="18.2" cy="18.2" r="18.2" fill="#fff" transform="matrix(-1 0 0 1 39.2 2.8)"/></g><circle cx="16.1" cy="16.1" r="16.1" fill="#0B0B22" transform="matrix(-1 0 0 1 37.1 4.9)"/><path fill="#988430" d="M21 37.1c8.892 0 16.1-7.208 16.1-16.1 0-8.892-7.208-16.1-16.1-16.1-8.892 0-16.1 7.208-16.1 16.1 0 8.892 7.208 16.1 16.1 16.1Z"/><path fill="#7A6A2A" d="M21 36.584c8.607 0 15.584-6.977 15.584-15.584S29.607 5.416 21 5.416 5.416 12.393 5.416 21 12.393 36.584 21 36.584Z"/><path fill="#BA9F33" d="M21 36.256c8.426 0 15.256-6.83 15.256-15.256 0-8.425-6.83-15.256-15.256-15.256S5.744 12.574 5.744 21 12.574 36.256 21 36.256Z"/><path fill="#CFB66C" fill-rule="evenodd" d="M11.94 19.28c-.092-.083-.188-.166-.277-.25l-.27-.25-.272-.257c-.044-.044-.091-.083-.135-.128-.045-.039-.097-.083-.14-.122-.36-.341-.722-.683-1.077-1.024.367.336.727.67 1.095 1.01l.127.128c.044.045.091.084.136.128l.27.25c.092.083.18.167.271.258.092.09.18.174.271.257Zm-4.773-.05s1.307.134 1.946.226c.59.083 2.44.367 2.44.367l-4.386-.594Zm0 0c.367.03.734.07 1.102.109.187.018.367.039.547.057l.276.031.27.04 1.095.174.547.09c.18.032.36.066.547.097a12.95 12.95 0 0 1-.547-.07l-.547-.078-1.094-.162c-.092-.013-.18-.031-.271-.044l-.276-.032c-.18-.018-.368-.044-.548-.065a31.751 31.751 0 0 1-1.102-.148Zm4.257.934s-1.397.354-1.868.49c-.464.127-1.868.555-1.868.555l3.735-1.045Z" clip-rule="evenodd"/><path fill="#CFB66C" fill-rule="evenodd" d="M11.423 20.164c-.31.09-.618.18-.932.263l-.933.25-.927.271-.464.128c-.154.044-.31.083-.469.127.154-.051.31-.104.464-.148l.463-.149c.31-.096.619-.187.928-.284.315-.078.625-.161.94-.237.3-.075.615-.15.93-.221Zm-3.54 1.904c.154-.057 1.925-.883 2.337-1.076.206-.096.805-.309.805-.309l-3.142 1.385Z" clip-rule="evenodd"/><path fill="#CFB66C" fill-rule="evenodd" d="M7.883 22.068c.135-.051.263-.114.393-.174l.386-.18.774-.372c.257-.123.508-.258.773-.373.136-.057.271-.104.407-.149l.206-.065c.07-.018.135-.039.206-.057-.258.122-.529.227-.787.346-.257.128-.52.232-.787.347l-.786.346c-.265.107-.522.222-.785.331Zm.172.721s1.604-.94 2.157-1.242a47.392 47.392 0 0 1 1.224-.625l-3.381 1.867Z" clip-rule="evenodd"/><path fill="#CFB66C" fill-rule="evenodd" d="M8.055 22.79c.27-.167.547-.336.823-.508l.412-.25c.14-.084.276-.162.42-.245.14-.084.276-.167.42-.245a1.5 1.5 0 0 1 .213-.11l.219-.109c.289-.14.578-.284.883-.406-.276.174-.56.323-.844.476-.14.079-.284.149-.425.227-.14.078-.276.162-.42.237-.14.084-.276.162-.419.237l-.425.232-.857.464Zm3.368-1.662s-.998.766-1.32 1.01c-.324.245-1.274.933-1.274.933l2.594-1.943Z" clip-rule="evenodd"/><path fill="#E2CC85" fill-rule="evenodd" d="m17.15 27.305-.511-.967.297-1.209 2.118-.818-.901-1.85.445-1.867.836-1.673 2.585-.406 1.899-1.81 4.1.31.805 4.384-1.55 5.52-.883 2.858-3.58.136-1.661-1.152-1.947-.813-2.052-.643Z" clip-rule="evenodd"/><path fill="#F1D789" fill-rule="evenodd" d="M23.428 27.273s-.495.227-1.34.175c-.244-.328-1.955-.482-1.955-.482s-.214-.065-.592.091c-.38.155-.74.136-1.076.219-.336.083-.67-.354-.927-.446-.258-.096-.6-.328-.6-.328l-.72-.07-1.449-.612-2.3-2.293-.626.979-.193 1.211.696 1.436 1.873 1.706 3.652.928 2.165-.638 2.712-1.146.68-.73Z" clip-rule="evenodd"/><path fill="#F4ECB4" fill-rule="evenodd" d="m10.452 19.171.463-1.404.553-.907 1.779-.148-.534 1.558-1.487 2.647.617 2.363-1.094.546-.337-.515-.27-1.183-.018-1.329.328-1.628Z" clip-rule="evenodd"/><path fill="#F3E19D" fill-rule="evenodd" d="m12.447 27.177-.341-.477s-.091-.226-.039-.424c.051-.201.044-.214.018-.29-.026-.075-.245-.336-.232-.56.013-.227-.018-.302.149-.482.174-.174.122-.476.122-.476l.227.14.051-.078s.084.065.084.167c.018-.14-.058-.792.114-.94.172-.15.477.695.477.695l-.188-1.225-.482-1.255-.857-1.146-.051-1.264v-.11s-.394.605-.503 1.082c-.078.329.11.727.07 1.199-.031.469-.07.432.044.618.115.186.394.568.285.844-.097.237-.425.07-.425.07s-.065.193-.154.264a.584.584 0 0 0-.128-.258c-.005.044-.018.104-.018.104s-.057-.18-.114-.406c-.078-.302-.162-.7-.237-.915-.032.123-.11.495-.11.495l.045.574.213.786.206.515.2.631.175.424.14.323.123.726.591.626.316.14.229-.117Z" clip-rule="evenodd"/><path fill="#F2E8B0" fill-rule="evenodd" d="M10.762 18.025s-.425.721-.547 1.448c-.123.728-.232 1.496-.155 2.486.078.998.227 1.61.347 2.047.206.727.74 1.738.74 1.738l.018-.039a2.749 2.749 0 0 1-.214-.534c-.07-.276-.097-.604-.162-.753-.057-.148-.153-.276-.2-.459-.044-.174-.052-.45-.188-.656-.057-.083-.127-.302-.148-.52-.026-.33.013-.697-.018-.999-.058-.502-.097-.844-.045-1.107.052-.263.324-1.01.49-1.605.11-.38.044-.7.245-1.031.2-.329.323-.618.367-.818.052-.183-.531.802-.531.802Z" clip-rule="evenodd"/><path fill="#F5EEC0" fill-rule="evenodd" d="M12.775 17.736s-.218.065-.322.18c-.105.109-.149.2-.29.385-.14.185-.148.336-.263.568-.114.227-.367.568-.399.69-.03.123-.083.696-.148.967-.057.27.065.604.065.604l.149-.031s0 .193.148.323c.149.128.175-.432.175-.432l.554-1.873.837-.569.09-.458-.596-.354Z" clip-rule="evenodd"/><path fill="#E6DB9D" fill-rule="evenodd" d="M13.182 18.585s-.394.026-.586.167c-.078.057-.11.104-.193.174-.154.128-.31.245-.386.412-.083.167-.174.42-.237.896-.026.201-.026.386-.044.548-.026.218-.065.393-.044.515.026.25.284.38.309.664l.534-.27.503-1.983 1.068-.67-.604-.677-.32.223v.001Z" clip-rule="evenodd"/><path fill="#E5CB7A" fill-rule="evenodd" d="m10.364 31.936.007-.06c.078-.67.091-1.177.148-1.495.084-.45.141-.618.128-.787-.018-.27-.04-.469-.013-.677.039-.276.31-.604.302-.831-.005-.18-.096-.297-.174-.406-.079-.11-.141-.2-.141-.2s.534-.368.529-1.848c.01.003.021.007.031.013l.263.748.18.218.69 1.287.889.863 1.313.883.823.896.083 2.389-1.076 1.396-.176.32a15.306 15.306 0 0 1-3.806-2.71Z" clip-rule="evenodd"/><path fill="#D8C173" fill-rule="evenodd" d="M13.65 34.221s.02-.297.264-.49c.04.066.065.128.057.175a1.553 1.553 0 0 1 1.055-.709c.701-.127.87-.638.87-.638l1.488-1.352 1.701-1.566 2.069-.726.966-.238s.019.07-.018.227c.18-.013.578-.104.993-.25.166-.065.323-.091.406-.005.123.114.14.385.148.547.201-.045.433-.237.619-.219.297.031.56.38.862.38.399 0 .578-.244.857-.437.167-.115.407-.258.542-.355.323-.237 3.741-1.281 3.741-1.281l1.198.078.193 1.287-.103 3.364-.038.037-5.449 2.846-7.553 1.158a15.149 15.149 0 0 1-4.828-1.661l-.039-.172Z" clip-rule="evenodd"/><path fill="#F1D789" fill-rule="evenodd" d="M10.822 32.364c.108-.225.204-.412.221-.48.014.136.038.433.088.748a16.693 16.693 0 0 1-.309-.268Z" clip-rule="evenodd"/><path fill="#E0CD81" fill-rule="evenodd" d="m16.34 35.53.976-.272.084.026s.044.026.044.115c.122-.07.227-.057.302-.104.04.083.078.36.25.393.18.04.373-.078.568-.226.193-.154.412-.347.578-.425.061.112.115.228.162.346.219-.174.6-.883 1.141-.87.157-.37.418-.686.753-.91.502-.34.817-.366 1.21-.335.157-.203.35-.375.569-.508.065.026.245.135.469.031.226-.104.482-.508.818-.56a.79.79 0 0 1 .52.11s.98-.972 1.655-1.295c-.026-.078-.078-.373.714-1.024.044.039.013.148.044.154.013 0 .206-.083.45-.27.303-.227.665-.464.884-.53.412-.122.85.128.85.128a.39.39 0 0 1 .122-.057c.104-.018.18-.031.237-.052-.005.136.07.368 0 .568.081.046.168.083.257.11-.044.096-.14.34-.302.458.136.065.154.14.347.206-.079.11-.207.297-.264.412-.057.123-.263.63-.354.823-.096.193-.226.548-.29.619-.062.07-.288.372-.463.52.155-.057.787-.25 1.055-.322l-.873 1.295a15.286 15.286 0 0 1-12.515 1.448l.002-.002Z" clip-rule="evenodd"/><path fill="#DFC57C" fill-rule="evenodd" d="M13.246 18.515s-.226 0-.27.031c-.045.031.226.096.31.128.083.031.263.174.31.289.044.11 1.628.747 1.628.747l1.12-.057.386-.533-.735-.644.516-1.519-.683.11-1.641.979-.823.315-.118.154Z" clip-rule="evenodd"/><path fill="#E5CC7C" fill-rule="evenodd" d="M15.706 19.018a.175.175 0 0 0 .155.083c.232 0 .445.057.534.174.148.188.56.787.56.787l.985.354.063-1.159-1.076-.748-1.224.451v.057h.003Z" clip-rule="evenodd"/><path fill="#D2C281" fill-rule="evenodd" d="M15.513 19.447s.18.014.406-.07c.227-.083.6-.263.761-.193.227.097.18.399.425.67.148.167.42.162.573.341.154.18.682.097.682.097l.201 1.082-.805 1.032-.263 1.281h-1.089l-.994-.394-.49-1.185.245-1.199.348-1.462Z" clip-rule="evenodd"/><path fill="#E2C270" fill-rule="evenodd" d="M17.619 19.5a.298.298 0 0 0 .083.012c-.031.027-.097.084-.07.232.026.149.109.336.039.45a.564.564 0 0 1 .122.215c.044.127.057.245.347.263a.611.611 0 0 0-.115.091s.2.174.302.336c.104-.005.38-.09.38-.09l.058.039.122-.052s-.114-.044-.031-.323c.078-.245.148-.232.154-.25.006-.018.058-.276.058-.38.039-.136.07-.547.07-.547l-.083-.91-.469-.283-.381-.368-.36.677-.237.236-.018.586.029.065Z" clip-rule="evenodd"/><path fill="#CCB360" fill-rule="evenodd" d="M18.747 18.739s.083.237.114.42a.405.405 0 0 0 .018-.11s.066.36.078.508c.026-.005.052-.013.058.013.006.026.065.315.051.477a1.3 1.3 0 0 1 .438-.438c.104-.065.227-.136.354-.14.2-.006.347.127.587.127.578 0 1.102-.425 1.487-.555.284-.096.529-.167.7-.323a1.81 1.81 0 0 0 .368-.459c.18-.309.367-.578.555-.612a1.164 1.164 0 0 1-.258.019s.058-.058.155-.136c.097-.078.214-.174.38-.174.297 0 .446.044.613.044a.836.836 0 0 0 .263-.044s.174.122.568.122c.393.005.656.039.862.057.206.019.896-.057 1.094-.051a.96.96 0 0 1 .373.091l-.639-1.855-2.293-2.004-1.365.967-2.1 2.1-2.032.752-.424.477v.727h-.005Z" clip-rule="evenodd"/><path fill="#D5B457" fill-rule="evenodd" d="M23.306 17.676s.057-.057.153-.136c.096-.078.214-.174.38-.174.298 0 .446.044.613.044.167-.005.263-.044.263-.044s.175.122.568.122c.393.005.656.039.862.057.206.018.896-.057 1.094-.051.13.005.256.036.373.09l-.29-.835-.335-.639-.959-1.05-1.16-.682c-.005-.005-.398-.11-.398-.11l-1.042.631-.946 2.446-.018.515.612.29c.154-.258.323-.464.482-.49-.143.016-.252.016-.252.016Z" clip-rule="evenodd"/><path fill="#D2B257" fill-rule="evenodd" d="M23.293 17.85c-.091.006-.167-.013-.188-.078-.078-.218-.14-.25-.206-.25-.065 0-.154.14-.206.154-.052.013-.115-.162-.115-.162l-.057-.026s-.336.22-.573.477c-.237.258-.625.696-.8.774-.174.078-.774.104-.979.148a1.268 1.268 0 0 0-.463.227c-.032.034.091.07.11.104.017.031-.201.018-.22.052-.013.026.052.174.084.25a.427.427 0 0 1 .18-.045c.2-.005.346.128.585.128.579 0 1.102-.425 1.488-.555.284-.096.529-.167.7-.323a1.81 1.81 0 0 0 .368-.459c.1-.158.196-.307.292-.416Z" clip-rule="evenodd"/><path fill="#D2B159" fill-rule="evenodd" d="M14.998 30.743s-.052-.192-.529-.69c-.135-.14-.219-.258-.31-.341-.227-.214-.36-.271-.521-.394-.354-.263-.74-.263-1.037-.586-.297-.323-.643-.94-.883-1.57-.237-.631-.302-.832-.302-.85 0-.018.065-.14.148-.122.083.018.083.18.104.218.042.064.089.124.141.18.123.14.297.31.386.56-.019-.213-.092-.45-.092-.45s.459.289.85.59c.393.303.555.407.67.6.114.193.385.7.515.85.13.148 1.906.708 1.906.708l.845.63.42.92-.329.515-.63.135-1.024-.458-.328-.445Z" clip-rule="evenodd"/><path fill="#C2A44D" fill-rule="evenodd" d="M12.723 27.576s.214.34.735.664c.469.284 1.211.542 1.873.696.38.09.76.16 1.102.166.92.013 1.553-.25 2.337-.336.425-.044.946-.078 1.488-.206.695-.167 1.107-.354 1.667-.618.406-.188.779-.328 1.081-.508.425-.25.735-.529 1.094-.612-.044.122-.09.341-.445.568.187-.006.445-.018.445-.018s-.25.148-.69.481c-.271.206-.63.555-.998.787-.237.149-.495.258-.664.347-.412.226-.579.34-.85.618a.365.365 0 0 1 .105 0s-.342.044-.586.174c-.052 0-.141-.018-.298.026-.122.04-.284.128-.45.175-.237.07-.315.04-.315.04l.039.077s-.31-.005-.412.005c.018.006.013.014.013.014a.156.156 0 0 0-.052.018.537.537 0 0 1-.161.07c-.031.005-.058.005-.097.013.013.031.115.206.162.31-.04.025-.625.468-.625.468.018.029.033.06.044.091.018.057.026.14.044.18.044.078.07.091.07.091s-.07.013-.193.044c-.104.026-.231.07-.412.097a1.63 1.63 0 0 1-.166.013c.026.057.14.276-.07.529-.212.252-.277.289-.342.45a.696.696 0 0 0-.104-.065c-.07-.031-.167-.078-.2-.14-.02.083-.047.165-.079.244-.065.175-.161.347-.18.477-.07-.078-.2-.232-.38-.2-.18.03-.323.276-.354.346 0-.044-.032-.078-.04-.026-.005.057-.104.656-.656 1.14-.005-.121-.005-.392-.018-.481-.052.052-.115.128-.49.29-.367.16-.309.322-.309.322s-.031-.257.167-.529c.2-.27.323-.398.323-.419a.115.115 0 0 0-.026-.057c-.026-.027-.078-.058-.078-.079.03-.012.34-.161.323-.469a.831.831 0 0 0-.22-.52c-.012-.014.123-.11.105-.141-.013-.018-.18-.14-.2-.206a.6.6 0 0 1 .026-.115.345.345 0 0 0 .026-.135 1.089 1.089 0 0 0-.105-.263c.019.005.149 0 .149 0s-.104-.167-.123-.245c-.018-.078-.057-.284-.078-.323.045.005.154.013.154 0 .005-.04-.096-.104-.052-.155.032.005.092.032.149.105-.031-.084-.084-.245-.193-.31a.473.473 0 0 1 .38.025c.154.092.206.22.206.22l.232.174c.162.128.368.309.696.438.07.039.25.039.38.012a.582.582 0 0 0 .162-.065.3.3 0 0 1 .057-.026 1.255 1.255 0 0 0-.096-.161c.044 0 .096.005.096.005s.031-.07-.11-.206c.032-.031.071-.052.071-.104-.044-.005-.122-.07-.14-.097.025-.018.065-.078.109-.096-.04-.031-.136-.162-.18-.174a.822.822 0 0 0 .122-.058s-.218-.057-.289-.104c-.07-.052-.174-.14-.237-.167-.065-.026-.18-.039-.226-.091.044.013.114 0 .166 0 .04 0 .058.005.07.005-.005-.018-.005-.057.097-.07a.473.473 0 0 0 .14-.044s-.096-.006-.205-.11c-.11-.104-.2-.187-.263-.2-.066-.013-.188.044-.264.039-.104-.013-.148-.066-.148-.066s-.346.032-1.115-.437c-.664-.407-.954-.766-.954-.766a1.144 1.144 0 0 1-.18-.083c-.25-.13-.596-.402-.585-.756l-.002.003Z" clip-rule="evenodd"/><path fill="#CAA13E" fill-rule="evenodd" d="M22.308 11.94c.06.019.114.055.154.103.123.141.2.407-.078.69.11.04.155.052.25.04-.096.114-.315.36-.328.573-.013.175.096.227.096.227s-.166.192-.174.515a2.1 2.1 0 0 1 .257-.245c.193-.154.46-.328.639-.438a.365.365 0 0 0 .018.136s.336-.276.618-.154c.128.058.07.237.07.237s.175-.065.298.058c.122.122.295.438.384.56.039.058.14.167.245.336.142.237.26.488.354.748.005-.136.04-.347.425-.214.385.136.823.42 1.19.98.368.559.459 1.19.644 1.43.187.232.38.618.393.78.013.161-.057.682.328 2.091.11-.437.276-1.41.276-1.41l.092-.856.104-2.652-2.77-2.301-2.164-1.571-1.41.135.089.201Z" clip-rule="evenodd"/><path fill="#B59544" fill-rule="evenodd" d="M27.453 15.886s-.04-.258-.69-.696c-.652-.432-1.16-.432-1.629-.8-.36-.289-.734-.953-.978-1.172-.237-.216-.276-.841-.276-.841l.8-.67 1.189-1.72 1.005-1.106.482.67.67.786.372 1.579.136 2.31-1.082 1.66h.001Z" clip-rule="evenodd"/><path fill="#C89D3A" fill-rule="evenodd" d="M28.258 18.656c.02-.35-.023-.702-.128-1.037a19.113 19.113 0 0 0-.72-1.837c-.071-.394-.02-.425.056-.47.076-.044.36-.205.516-.773.155-.568.638-.586.638-.586l.297-.219.45 1.128.394 1.019.122.779.092.664-.214 1.404-1.055.954-.448-1.026Z" clip-rule="evenodd"/><path fill="#CEB052" fill-rule="evenodd" d="M13.536 34.307v-.028a.221.221 0 0 0 .058-.052c.018-.026.03-.057.044-.065a.49.49 0 0 1 .213-.04c.065.013.238.084.329.079.187-.005.406-.149.753-.083.52.096.643.45.945.65.206.142.42.08.451.08h.07c.013 0 .11-.11.162-.105.104.005.114.091.18.096.153.019.45-.078.599-.039a.286.286 0 0 1 .117.477c-.161.148-.315.29-.346.412.04.03.078.063.114.097a15.168 15.168 0 0 1-3.689-1.477v-.002Z" clip-rule="evenodd"/><path fill="#CCA847" fill-rule="evenodd" d="M27.409 29.102s.406-.541.547-.81c.14-.277-.446-3.78-.446-3.78l1.178-3.858-.031-1.256s.057-1.16.192-1.662c.162.29.665.638.774.823.052-.354.227-1.102.2-1.899.097.148.329 1.641.329 1.641l.232 1.006.302 1.068.336 1.128.2.78.115.187.097.328.091.354.263.831.155.683.122 1.237c.027.095.046.192.058.29.005.135-.019.213-.019.237 0 .023.045.297.026.502-.026.207-.026.368-.187.516-.162.148-.263 1.031-.263 1.031l-.29-.192s.058-.264-.078-.503a.508.508 0 0 0-.547-.25c-.148.03-.445.078-.542.161-.09.083-.315.341-.52.459-.258.154-.678.166-.902.218-.227.052-.477.206-.74.386a4.138 4.138 0 0 1-.651.343l-.001.001Z" clip-rule="evenodd"/><path fill="#C39D3C" fill-rule="evenodd" d="m27.409 34.795.05.029a15.3 15.3 0 0 0 4.877-3.615 25.079 25.079 0 0 0-.055-1.268c-.044-.425-.013-.857-.026-1.107a16.056 16.056 0 0 0-.22-1.532c-.07-.263-.205-.393-.226-.393-.018.005-.128.495-.128.618s-.026.42-.026.495c-.018-.005-.026-.052-.026-.07-.026.065-.057.18-.07.192-.013.013.018-.109 0-.135-.018-.026-.052-.013-.044-.078a.75.75 0 0 1 .018-.115s-.078.115-.135.407c-.058.289-.058.297-.078.323-.019.031-.123.135-.128.174-.006.07.096.14.104.18.005.065-.091.367-.122.515-.032.148-.019.438-.052.586-.026.136-.052.214-.14.271.064.013.127.031.127.031s.091.386-.14.714c-.084.115-.105.167-.193.271-.175.193-.31.412-.324.555a.932.932 0 0 1-.018-.128s-.27.316-.385.495c-.149.232-.355.22-.412.276-.058.058-.07.162-.052.245-.052.013-.148.032-.214.232a.487.487 0 0 1-.231.276c-.123.07-.271.092-.347.11.065.018.091.018.122.039-.039.065-.218.166-.419.297a.877.877 0 0 0-.347.42c-.051.109-.127.179-.25.192.052.031.128.104.167.128-.057.013-.154.013-.328.161-.182.151-.245.196-.328.209h-.001Z" clip-rule="evenodd"/><path fill="#D2BA6B" fill-rule="evenodd" d="M23.784 36.002c.1-.07.208-.127.322-.17.406-.162.836-.193 1.005-.245.162-.052.29-.123.49-.162l-.015.13c-.591.185-1.193.334-1.803.447Z" clip-rule="evenodd"/><path fill="#C0993A" fill-rule="evenodd" d="M31.278 25.314s-.083.45-.232.735c-.148.284-.309.677-.309.677a1.24 1.24 0 0 1 .032-.263c-.188.11-.644.373-.773.49-.123.11-.329.302-.38.393.122-.36.25-.682.27-.83-.187.135-1.063.856-1.518 1.333l-1.42 1.149a4.93 4.93 0 0 1-.506.237c-.244.104-.534.192-.747.276.057-.154.148-.29.276-.42.135-.127.542-.568.604-.773.058-.213.07-.34-.005-.52-.07.018-.232.026-.341.057-.11.031-.227.148-.227.148s.083-.477.263-.927c-.135.005-.367.044-.367.044s.323-.542.876-.92a2.84 2.84 0 0 0-.495.154c-.323.135-.678.336-.94.445.148-.206 1.19-1.693 1.81-3.079.618-1.383.85-1.737.985-2.48.07-.367.051-.91.07-1.396.018-.482.078-.915.039-1.204.162.2.766.766.787 2.03.018 1.263-.579 2.97-1.212 3.889.155.044.555.096.967-.618.411-.715.406-.915.555-1.212.018.149.013.2.013.2s.6-.726.883-1.64c.057.393.227.74-.04 1.461-.236.651-.546.81-.546.81s.154-.026.38-.161c.04.096.031.206.097.245.065.039.153.104.166.167.07-.105.18-.238.214-.337-.026.207-.044 1.108.051 1.566.201-.018.407-.031.548-.393-.097.354-.097.568-.032.87.107-.073.204-.203.204-.203Z" clip-rule="evenodd"/><path fill="#A88F33" fill-rule="evenodd" d="M24.51 10.954s-.201.084-.543.084c-.296 0-.213-.115-.677-.115-.714 0-3.207.412-3.645.406-.284-.005.959.123.959.123l3.176.044.638-.051.237-.483-.146-.008Z" clip-rule="evenodd"/><path fill="#E3C571" fill-rule="evenodd" d="M16.274 17.163s-.406.31-.578.547c-.172.237-.263.393-.459.586a.401.401 0 0 0 .136-.018s0 .051-.031.065a.181.181 0 0 1 .148.051c-.057.032-.214.188-.091.373.091.14.284.154.284.154s-.044.127.14.114c.4-.018.845-.193 1.05-.148.206.051.323.07.47.323.154.25.288.29.288.29s.092-.233.07-.58a1.72 1.72 0 0 0 .123-.585l-.135-.998-.591-.748-.766.425-.058.148Z" clip-rule="evenodd"/><path fill="#D8B65B" fill-rule="evenodd" d="M17.001 17.014s.057.136.297.148c-.026.058-.026.066-.018.11l.013.11a.242.242 0 0 0 .07-.052c.013.057-.013.148 0 .213.008.04.021.079.04.115a.234.234 0 0 1 .012-.026c.005-.013.052.14.18.258 0-.018.004-.036.013-.052a.18.18 0 0 0 .031.091.094.094 0 0 1-.026-.018s.013.412.084.625a.297.297 0 0 0 .03-.044c0-.013-.004.115-.017.206-.019.091-.006.219-.006.219a.681.681 0 0 1 .154-.091c.078-.032.206-.128.284-.342.045-.12.08-.245.104-.372.026.048.043.1.052.154.005.065.128.032.128.032l.026-.284.154-.644.14-.399.678-1.055 1.224-.942 1.068.245.901-1.224-1.552-.933-1.47.154-1.333 1.847-1.068 1.675-.193.276Z" clip-rule="evenodd"/><path fill="#D3AE4D" fill-rule="evenodd" d="M24.697 14.341s-.091.019-.354.155c-.264.136-.446.18-.548.38-.101.2-.11.36-.11.36s.18-.079.285-.105c.11-.026.232-.018.219.027a.302.302 0 0 1-.052.083s.206-.005.2.096a.538.538 0 0 1-.077.263c-.04.052-.2.128-.219.188-.044.123.018.128-.005.227-.019.096-.104.284-.386.612-.289.328-.412.56-.412.56s-.14-.263-.214-.49c-.051.026-.328.18-.328.18l-.64-2.233.012-.148s.058-.07.07-.2c-.096-.032-.109-.058-.237-.18-.127-.123-.231-.271-.445-.373-.031-.057-.07-.135-.227-.167a4.06 4.06 0 0 1-.25-.057s.084-.031.123-.097c-.097.014-.175.045-.386.04-.213-.006-.237-.013-.354.005-.117.018-.258.07-.31-.11-.057-.044-.18-.005-.284.149-.104.153-.14.276-.341.336a.7.7 0 0 1-.091.25c-.058.096-.149.193-.271.336-.193.227-.162.6-.47.883-.31.284.052-.787.052-.787l.495-1.185 1.41-1.378 2.188-.148.213 1.133 1.069.368.674 1.029v-.002Z" clip-rule="evenodd"/><path fill="#CAA13E" fill-rule="evenodd" d="m25.043 14.591-.92-1.326-.643-.495s-.458-.844-.49-.87c-.026-.018-.458-.065-.734-.083l.051.127c.06.02.114.056.155.105.122.14.2.406-.078.69.11.04.154.052.25.04-.097.114-.315.359-.329.572-.012.175.097.227.097.227s-.167.193-.175.515c.08-.089.165-.17.258-.245.193-.154.459-.328.638-.438a.368.368 0 0 0 .018.136s.336-.276.619-.154c.127.058.07.237.07.237s.175-.065.297.058c.123.122.297.437.386.56.039.057.14.167.244.336.143.237.261.487.355.748.005-.105.026-.25.206-.25l-.274-.49Z" clip-rule="evenodd"/><path fill="#F4EFC8" fill-rule="evenodd" d="M11.257 18.358s-.065-.161 0-.476c.065-.316.167-.464.2-.928.034-.463.336-1.042.336-1.042l.837-.38.591.161.175.792-.748.413s-.04.174-.25.315c-.211.14-.503.25-.573.393-.042.088-.073.18-.091.276 0 0-.214-.044-.342.097-.135.143-.13.27-.135.38Z" clip-rule="evenodd"/><path fill="#EBCC73" fill-rule="evenodd" d="M12.945 18.147s-.07.045-.123.155c-.051-.083-.174-.578-.18-1.024-.005-.445-.031-.556.072-.71.103-.153.507-.315.45-.591-.058-.263-.297-.373-.592-.297-.206.051-.36.49-.573.708-.161.167-.354.141-.406.232-.07.123-.005.245-.026.323a1.56 1.56 0 0 1-.188.336c-.237.342-.638.824-.69 1.256.018-.245.005-.25.07-.52l-.04-.066.258-.844.167-.696.373-1.164.656-1.19.639-.715.664.045.078.997.38 1.874.8.984-1.282.863-.508.044Z" clip-rule="evenodd"/><path fill="#E5C66B" fill-rule="evenodd" d="M13.344 18.501s-.11.026-.15.006c-.038-.021-.077-.045-.064-.07.013-.027.083-.071.083-.092a.073.073 0 0 0-.065-.078c-.06-.008-.078.031-.078.031s-.058-.044-.104-.051a.726.726 0 0 1 .083-.006.815.815 0 0 0-.227-.065c.066-.039.193-.153.277-.153.083 0 .135-.013.122-.058-.013-.044-.078-.11-.148-.135.026-.031.044-.078-.019-.206-.065-.128-.039-.214-.018-.245.018-.04.084-.11.115-.154s.057-.104.11-.135c.025-.018.109-.052.192-.084.091-.03.167-.07.219-.03.057.038.031.09.031.09s.18-.065.341.019c.162.078.555.127.555.127l.141.284-.932.8-.386.193-.078.013Z" clip-rule="evenodd"/><path fill="#E6BD62" fill-rule="evenodd" d="M14.638 17.194s-.289.193-.354.263c.039.005.104.031.078.07-.031.04-.219.175-.323.303a1.99 1.99 0 0 0-.25.367c-.04.07-.336.276-.438.302.214 0 .644-.263.805-.263-.005.078.044.167.136.174.09.008.354.058.708-.161.354-.214.237-.373.386-.477.284-.187.398-.354.555-.458.156-.104.237-.128.237-.128s.005-.078.051-.07a.07.07 0 0 1 .058.044s.27-.193.618-.245a.036.036 0 0 1-.018-.018s.026-.013.03-.026c0 0 .02-.026.032-.013.013.013.031.11.057.148.058-.026.167-.27.167-.27l.264-.754v-.687l-.207.039-1.545.656-.938.972-.11.232h.001Z" clip-rule="evenodd"/><path fill="#B6933F" fill-rule="evenodd" d="M19.088 13.82a.874.874 0 0 0 .238-.096c-.032.083-.032.174-.167.372-.136.198-.14.227-.25.433-.11.213-.123.52-.227.656a.477.477 0 0 1 .149-.044s-.105.091-.149.188c-.044.096-.122.296-.315.42-.193.122-.438.2-.7.489-.264.284-.535.643-.67.773a1.93 1.93 0 0 0 .192-.53c.026-.16-.005-.354.04-.567.044-.213.044-.367.257-.74.213-.373.578-1.667.578-1.667l.787-.25.237.562v.001Z" clip-rule="evenodd"/><path fill="#C49937" fill-rule="evenodd" d="M18.52 13.344s-.237.34-.302.643c-.065.302-.006.276-.044.425a.552.552 0 0 0 0 .276.98.98 0 0 1 .327-.323c.224-.136.407-.232.515-.347.11-.122.201-.323.438-.477-.096-.013-.232-.057-.258-.051.097-.11.386-.276.678-.477.289-.206.27-.289.74-.495-.154.026-.227-.013-.355 0 .052-.11.232-.161.413-.341.18-.18-.115-.445-.115-.445l-1.374.83-.664.782Z" clip-rule="evenodd"/><path fill="#DFC068" fill-rule="evenodd" d="m14.792 12.723.031-.25.394-.63.411-1.107V9.222l-.031-.875.065-.574.05-.182.052-.07.336.174.463.63.045 1.218-.451 1.92-1.287 1.404-.078-.144Z" clip-rule="evenodd"/><path fill="#A88F33" fill-rule="evenodd" d="M15.816 7.45s-.206.006-.25.863c-.044.857-.066 1.308-.097 1.732-.031.425-.104.683-.14.933-.037.25-.058.591-.175.8-.052.096-.162.398-.42.625-.289.25-.72.425-.786.438-.115.026-.696.083-.933.213-.083.045-.227.097-.385.245a4.922 4.922 0 0 0-1.037 1.404c-.464.915-.928 3.497-.928 3.497l.105-.175s.013-.232.244-.638c.227-.407.162-.863.477-1.642.123-.296.276-.682.464-1.01.297-.534.656-.993 1.019-1.243a3.22 3.22 0 0 1 1.242-.495l.701-.464s.123-.237.284-.508c.227-.38.515-.805.578-1.422.097-.914-.135-1.514-.122-2.055.013-.542.018-.94.128-1.037.11-.097.03-.06.03-.06Z" clip-rule="evenodd"/><path fill="#C99E3D" fill-rule="evenodd" d="M15.816 11.54s.309-.76.45-1.435c.027-.135.079-.27.092-.38.065-.638.083-.902 0-1.25-.066-.258-.316-.49-.446-.67-.128-.188-.187-.258-.161-.297a.289.289 0 0 1 .226-.097.776.776 0 0 1 .555.258c.2.232.36 1.018.36 1.018l.167 1.039.424 1.307-1.667.509v-.001Z" clip-rule="evenodd"/><path fill="#B58634" fill-rule="evenodd" d="M18.72 10.749s-.057.026-.161 0a.233.233 0 0 1-.104.218c-.11-.044-1.134.045-1.134.045s-.476-.084-.625-.714c-.104-.42.078-.998.018-1.378-.091-.56-.218-.67-.232-.844-.013-.175-.026-.22-.026-.328-.057-.014-.09-.032-.148-.032-.013-.051.013-.096-.044-.187.03.013.245.039.495.276.206.193.206.263.237.302.039.039.354.31.49.578.135.27.398 1.128.458 1.269.018.057.057.115.155.245.15.188.372.498.622.55Z" clip-rule="evenodd"/><path fill="#A88F33" fill-rule="evenodd" d="M17.032 8.12c.158.255.3.52.425.792.154.346.245.63.438.862-.104-.302-.29-.896-.399-1.107-.122-.223-.372-.464-.463-.547Z" clip-rule="evenodd"/><path fill="#E6C367" fill-rule="evenodd" d="M15.26 12.403s-.262.065-.752.323a8.093 8.093 0 0 1-.464.219c-.386.174-.8.336-1.128.425a.745.745 0 0 0 .04.044s0 .127.07.2c-.04.04-.56.394-.407 1.579.104-.039.227-.091.245-.091.031.005.04.091.078.091.04 0 .167-.051.302-.227-.005.07-.083.78.337 1.256.078-.091.276-.393.276-.393l.005-.097s.018-.336.127-.643c.11-.308.324-.534.324-.534l1.114-1.592-.166-.56Z" clip-rule="evenodd"/><path fill="#DCBA5A" fill-rule="evenodd" d="M14.219 14.74a.618.618 0 0 1-.167.084.645.645 0 0 1 .11-.508c.18-.264.572-.605.682-.876.07-.175.039-.612.664-1.173.626-.56.87-.752.87-.752l1.011-.508 1.243.49-.618 2.419-.479 1.133-1.906-.359-1.41.05Z" clip-rule="evenodd"/><path fill="#E9CE77" fill-rule="evenodd" d="m14.946 14.083.238-.297v-.21s.263-.071.546-.36c.284-.29.678-.844 1.024-.81.347.039.38.752.394.953.013.2.057.656.128.902.078.244-.845 1.172-.845 1.172l-.626.476-.859-1.826Z" clip-rule="evenodd"/><path fill="#CDAE50" fill-rule="evenodd" d="M15.68 16.555s.193-.302.052-.367c.083-.187.237-.385.237-.385s.11-.271.463-.605c.355-.333.574-.555.631-.779.035-.146.055-.295.057-.445.039.031.08.059.123.083.057.026.328.25.289.701-.039.45-.206.638-.206.638s-.162.162-.276.245c-.123.084-.167.18-.373.188a.246.246 0 0 1 .07-.04s-.213-.025-.328.079c-.114.104-.358.424-.48.521-.123.078-.258.167-.258.167Z" clip-rule="evenodd"/><path fill="#D2A83E" fill-rule="evenodd" d="M24.343 11.488a3.14 3.14 0 0 0-.96-.187c-.546-.018-1.346.013-2.13.018-.844.005-1.61-.29-2.673-.341-.174-.104-.618-.56-2.003.406.083-.005 1.005-.213 1.325.188.323.399.232 1.076.188 1.237-.083.36-.354.884-.463 1.25-.11.368-.084.561-.162.819-.078.257-.25.385-.149.682.136-.083.206-.083.433-.591.226-.508.18-.87.555-1.3.367-.433.979-1.024 1.211-1.173.233-.148 2.079-1.107 4.012-.192.466-.05.816-.816.816-.816Z" clip-rule="evenodd"/><path fill="#C29637" fill-rule="evenodd" d="M17.355 11.134a.236.236 0 0 0-.013-.057.416.416 0 0 0-.07-.105s-.458-.083-.69-.057c-.407.044-.774.547-.946.805-.172.258-.386.656-.617.862a.085.085 0 0 0-.014-.057s.013.018-.012.044c-.026.026-.027.04-.013.052l.039.039c.013 0 .372-.162.862-.618.521-.477.92-.722 1.128-.806a1.59 1.59 0 0 1 .346-.102Z" clip-rule="evenodd"/><path fill="#AC8132" fill-rule="evenodd" d="M26.25 9.175s-.084.104-.188.219c-.232.245-.534.52-.792.805-.245.27-.521.482-.831.836-.31.354-.67.748-.761.863a.849.849 0 0 0-.148.398l-.097-.065c.022.04.048.08.079.115.064.09.166.206.218.276.064.09.11.19.136.297.03.005.231.044.482-.368.25-.411.578-.862.578-.862l.52-.774.33-.656.411-.735.063-.349Z" clip-rule="evenodd"/><path fill="#A88F33" fill-rule="evenodd" d="M26.784 8.649s-.316.258-.438.412c-.122.155-.412.56-.412.56l.104-.013.529-.469.206-.367.01-.122v-.001Z" clip-rule="evenodd"/><path fill="#A67A2E" fill-rule="evenodd" d="M26.687 29.352s-.005-.213.115-.341c.122-.128.432-.315.735-1.019.302-.703.335-.862.335-.862s-.541.464-.875.573c.078-.162.122-.276.161-.36-.044-.038-.232-.083-.25-.104.104-.104.162-.36.373-.529.27-.206.766-.56 1.15-.875.385-.316 1.141-1.05 1.238-1.264.057.083.07.135.07.135s-.38.496-.578.81c-.175.272-.162.425-.162.425l.36-.154s.104.385-.368.972c.207-.078.29-.032.407-.097-.193.123-.459.29-.709.748-.245.458-.578.992-1.14 1.326-.548.352-.863.615-.863.615l.001.001Z" clip-rule="evenodd"/><path fill="#8C6228" fill-rule="evenodd" d="M25.275 11.76s-.213.445-.245.792c-.005.083-.026.148-.026.244-.005.31.018.657-.051.818-.026-.065-.04-.11-.066-.135-.039.11-.109.45-.166.578a2.717 2.717 0 0 1-.078-.713c.005-.342.012-.407.012-.477-.012.104-.083.245-.109.328-.039-.07-.083-.162-.135-.237-.032.051-.07.127-.104.167a2.39 2.39 0 0 1-.026-.232c-.006-.136-.014-.31-.006-.347.013-.07.123-.346.355-.599.276-.302.56-.883.643-1.063.083-.18.438-.927.438-.927h.27l-.393.896s-.237.49-.36.67c-.122.18-.38.696-.494.896.083-.11.153-.167.237-.27.08-.074.305-.39.305-.39Z" clip-rule="evenodd"/><path fill="#CBA94C" fill-rule="evenodd" d="M26.789 8.615a1.12 1.12 0 0 1-.206.373c-.162.193-.508.45-.678.656-.154.2-.463.748-.323 1.396.052-.14.149-.419.407-.734.258-.316.534-.678.67-.959.135-.284.153-.508.153-.508l.051-.065-.03-.149-.045-.01Z" clip-rule="evenodd"/><path fill="#A88F33" fill-rule="evenodd" d="M32.064 25.895s-.104-.284-.135-.542c-.031-.258.051-.309-.044-.604-.058-.18-.162-.155-.188-.18-.026-.025-.044-.297-.04-.445a1.67 1.67 0 0 0-.03-.425c-.04-.031-.066-.057-.123-.25-.065-.193-.096-.29-.128-.346-.03-.058-.122-.11-.122-.167 0-.115.104-.175.104-.206-.005-.065-.083-.013-.104-.032-.026-.03.065-.218.031-.244-.013-.013-.104.096-.128.065-.026-.032-.057-.342-.104-.547-.044-.2-.09-.347-.096-.407-.005-.057-.36-1.068-.445-1.313a6.199 6.199 0 0 1-.175-.63c-.026-.123-.044-.373-.057-.347-.013.026-.006.154-.027.149-.018-.005-.083-.45-.104-.521-.018-.07-.127-.31-.154-.482-.026-.175-.083-.63-.123-.94-.039-.31-.057-.438-.057-.516.006-.19-.004-.38-.031-.568a5.287 5.287 0 0 0-.245-.958c-.175-.438-.638-1.558-.721-1.837 0-.07.09-.031.09-.031s.227.568.394 1.005c.162.438.315.823.355.863.03.039.276.468.385 1.172.11.703.148 1.352.214 1.784.031.206.057.425.122.644.07.237.18.482.323.857.123.315.214.578.263.805.058.29.058.508.091.651.032.123.079.368.188.722.11.354.271.81.38 1.094.214.568.31 1.042.342 1.295.028.26.125 1.162.099 1.432Z" clip-rule="evenodd"/><path fill="#BE9C44" fill-rule="evenodd" d="m26.802 8.584-.013.031s.039.013.031.065c0 .072-.004.143-.013.214-.013.091-.039.161-.044.219 0 .122.018.263-.155.612-.051.096-.083.18-.11.237a.701.701 0 0 1-.135.227c.092-.052.42-.258.587-.227-.115.065-.29.193-.399.36a.895.895 0 0 0 .31 0c.288-.045.611-.149.895-.128.31.018.188-.373.188-.373l-.358-.786-.677-.477-.107.026Z" clip-rule="evenodd"/><path fill="#A17C34" fill-rule="evenodd" d="M28.568 14.477s-.302-.303-.425-1.34c-.122-1.042-.096-2.576-.096-2.576l-.245-.599s-.051-.399-.18-.547c-.128-.148-.38-.399-.494-.52-.115-.123-.245-.29-.324-.316.04-.065.214-.433.884-.438.669-.005.875.367.945.503.07.136.386.721.503 1.838.11 1.114.115 1.198.096 1.583a8.962 8.962 0 0 1-.206 1.238c-.112.448-.234.948-.458 1.175v-.001Z" clip-rule="evenodd"/><path fill="#8C6228" fill-rule="evenodd" d="M27.62 15.365a.515.515 0 0 0 .29-.065c.096-.005.445.039.713-.302.018.078.066.289-.057.477.065-.066.162-.092.175-.11.005.096.096.393-.29 1.115.104-.114.227-.11.336-.122.006.135.078.59-.114.836-.128.167-.336.114-.336.114a.666.666 0 0 0 0-.109c-.006-.07-.032-.14-.013-.188a.932.932 0 0 1-.271-.187c-.227-.214-.521-.578-.542-.85-.026-.302.245-.367.245-.367a.29.29 0 0 1-.058-.07c-.013-.044-.026-.115-.078-.172Z" clip-rule="evenodd"/><path fill="#92723A" fill-rule="evenodd" d="M25.611 12.088s-.013-.018-.083.065c.013-.084.026-.162.031-.237a.819.819 0 0 1 .128-.193c-.04.078-.066.148-.066.148s.097-.18.238-.289c.096-.078.218-.114.27-.187.058-.079.045-.092.058-.105 0 0 .128-.083.323-.328.026-.031.065-.065.091-.096.044-.018.149-.065.271-.128.128-.07.271-.167.36-.206.174-.078.36-.07.445-.193.065-.018.136-.214.123-.38.096.039.59.346.76 1.018.123.477-.096 1.212-.187 1.566-.091.355-.104.618-.232.779-.162.214-.683.515-.81.664-.11.123-.438.433-.425.657.013.166.219.257.263.289.045.032.044.07.128.051.083-.018.114-.057.148-.057.04.005.04.013.058.013a.192.192 0 0 0 .039-.005s-.013.237-.568.309c-.04.005-.078.018-.128.026.065-.031.104-.031.175-.127-.079-.014-.303-.027-.36-.045a.694.694 0 0 1 .128-.153c.044-.04-.006-.052-.045-.032a2.098 2.098 0 0 0-.192.149c-.065.057-.123.135-.227.206a.508.508 0 0 1 .097-.446c-.032.005-.092.097-.15.078a.83.83 0 0 1 .02-.284c.03-.117.2-.323.2-.323l.818-1.461.174-1.107-1.873.363Z" clip-rule="evenodd"/><path fill="#B18E3E" fill-rule="evenodd" d="M25.567 12.15s-.044.032.044.091c-.013.019-.044.084-.083.128-.044.052-.091.084-.11.128-.039.091-.07.154-.07.193 0 .039-.013.289-.122.45-.04.058-.084.154-.115.22-.065.114-.123.205-.136.257-.025.09-.044.341-.044.341l.078-.096a.7.7 0 0 1-.114.187c.031-.026.122-.091.276-.226.214-.18.547-.482.954-.722-.123.044-.227.044-.31.058.065-.066.65-.753.958-.818a.123.123 0 0 0 .026-.084l-.263-.026-.534.115-.078-.412-.357.216Z" clip-rule="evenodd"/><path fill="#543E26" fill-rule="evenodd" d="M26.416 14.495s-.07.07-.135.245a.824.824 0 0 1-.128-.175c-.096-.161-.245-.367-.591-.25-.005-.11-.013-.167 0-.245.057-.013.232-.153.406-.36.123-.14.237-.301.315-.507a4.17 4.17 0 0 1 .258-.18c.167-.114.367-.271.399-.445-.079.03-.245.109-.495.096.096-.044.244-.091.226-.284l.07-.044a.257.257 0 0 0-.09-.013c-.006-.018-.014-.044-.058-.032-.044.013-.052.014-.057.032-.019.005-.079 0-.123.031s-.166.135-.213.154l.044-.078s-.128.013-.22.051c-.166.058-.358.162-.554.263.018-.031.026-.051.039-.057.013-.006.044-.013.044-.018 0-.006-.012-.052-.005-.07a2.39 2.39 0 0 1 .206-.355.695.695 0 0 0 .11-.297l.398-.2 1.12-.258.727.044-.09.503-.43.878-.367.8-.42.49-.386.281Z" clip-rule="evenodd"/><path fill="#806031" fill-rule="evenodd" d="M28.232 12.319s-.438.542-.56.625c.078-.167.56-1.16.735-1.435-.04-.032-.092-.032.03-.516-.103.245-.14.373-.226.438s-.096.044-.154.044a.108.108 0 0 0 .013-.065s-.368-.044-.619-.044c-.25 0-.747.135-1.024.245-.218.091-.34.091-.419.148-.078.065-.122.136-.162.154-.03.018-.18.065-.213.114-.031.052-.083.11-.083.123 0 .013-.013.031.026.018a3.62 3.62 0 0 0 .218-.122c.149-.084.329-.18.459-.237.372-.149.49-.123.656-.154.175-.031.425-.104.592-.104.166-.005.482 0 .555.013-.032.026-.058.057-.045.166 0 .032-.026.066-.051.141-.078.214-.227.568-.31.748-.114.245-.244.45-.308.578-.065.128-.206.464-.347.644-.14.18-.213.289-.257.328-.044.04-.36.27-.336.354a1.74 1.74 0 0 0 .682-.45c.263-.296.315-.477.521-.639.206-.161.367-.432.464-.656.08-.209.062-.274.164-.459Z" clip-rule="evenodd"/><path fill="#B6903C" fill-rule="evenodd" d="M18.799 16.363s-.058.237-.188.354c-.128.115-.354.214-.38.407-.031.192.226.289.226.289s-.14.232-.14.406c0 .18-.006.214.013.386a.173.173 0 0 0-.052.051s.013.167.14.271c.129.104.238.167.303.14a.59.59 0 0 1 .026.066s.097-.245.162-.459c.065-.218.122-.187.148-.482.026-.294.31-.8.31-.8l.192-.431-.315-.245-.445.047Z" clip-rule="evenodd"/><path fill="#685026" fill-rule="evenodd" d="M19.385 16.787a1.897 1.897 0 0 0-.18.214c-.083.115-.148.219-.27.263-.123.045-.201.044-.193.167.008.123.122.174.187.237.07.065.128.175.097.297.039-.018.11-.04.174-.18.065-.14.52-.997.52-.997h-.335Z" clip-rule="evenodd"/><path fill="#D4B968" fill-rule="evenodd" d="M21.18 14.81s.04-.104 0-.18c-.039-.078-.276-.104-.393-.192-.122-.092-.271-.155-.393-.115.018-.044.09-.14.03-.162-.057-.018-.27.079-.328.123-.057.044-.187.096-.213.128-.026.031-.07.09-.097.065-.026-.018-.039-.065-.083-.04-.044.027-.258.201-.297.303-.04.101-.128.328-.393.586-.266.258-.38.425-.303.521.079.096.115.026.128.11a.7.7 0 0 1-.013.244c-.031.136-.083.263-.013.29.18.057.355-.052.394-.019.078.07-.045.323.14.373a.575.575 0 0 0 .373-.044l.682-.368.657-.346.336-.665-.18-.555-.035-.057h.001Z" clip-rule="evenodd"/><path fill="#CCA849" fill-rule="evenodd" d="M20.536 16.397s-.114-.175.026-.329c.141-.154.342-.218.42-.315a.12.12 0 0 0-.058-.039.519.519 0 0 1 .227-.213.217.217 0 0 0-.148-.07c-.128 0-.206.077-.323.077-.115 0-.128-.057-.128-.057s.193-.018.174-.104c-.018-.091-.051-.091-.051-.091s.372-.155.438-.237c.065-.083.057-.18.07-.22.044 0 .302-.135.406-.077.105.057.032.213.032.213s.315-.237.476-.47c.14.014.206-.096.309-.096.128 0 .328.175.367.547.026.214.065.336.026.714-.018.214-.013.67.052.896.044.18.148.162.148.162a.292.292 0 0 1-.091.14c-.07.066-.078.238-.07.303.01.047.023.094.039.14 0 0-.084.097-.104.162-.019.065-.105.11-.167.11-.063 0-.032-.006-.115 0-.083.005-.11.018-.161 0-.053-.019-.092-.04-.07-.207.017-.166-.644-.555-.644-.555l-1.082-.385h.002Z" clip-rule="evenodd"/><path fill="#585136" fill-rule="evenodd" d="M19.294 18.043s.237.315 1.211.315c.464 0 .625-.044.721-.07.105-.026.495-.18.889-.643.354-.42.276-.592.276-.592l-.206-.031-.67.091-1.982.844-.24.086Z" clip-rule="evenodd"/><path fill="#252211" fill-rule="evenodd" d="M20.02 18.121s-.844.188-.844-.346c0-.521.521-1.068.652-1.165.135-.096.458-.206.458-.206h.78l.148.394-.065.849-1.129.474Z" clip-rule="evenodd"/><path fill="#C3B378" fill-rule="evenodd" d="M20.8 16.563s-.162-.148-.53.052c-.367.2-.664.618-.682.998-.018.336.276.586.735.6.34.012.547-.027.651-.053-.026-.03-.162-.2-.162-.2l-.012-1.396Z" clip-rule="evenodd"/><path fill="#E6D89C" fill-rule="evenodd" d="M20.64 16.647s-.038-.032-.154.03c-.096.052-.237.189-.346.285-.07.057-.115.083-.155.128-.162.192-.297.508-.219.664.079.156.336.336.993.214l-.12-1.321h.002Z" clip-rule="evenodd"/><path fill="#252211" fill-rule="evenodd" d="M20.427 16.97s-.104.161-.104.42c0 .262.148.682.695.713.42.026.701-.604 1.006-.85.232-.187.372-.192.372-.192s-.237-.258-.87-.591c-.625-.336-1.326-.38-1.706.135.18-.013.76-.161.76-.161l.285.09-.438.436Z" clip-rule="evenodd"/><path fill="#6F674D" fill-rule="evenodd" d="M21.245 17.311c-.018-.039-.031-.091.044-.104.076-.013.11-.005.136.052.026.056.051.104.013.127-.04.021-.141 0-.193-.075Zm-.123-.367s-.026.018-.013-.018c.006-.045.04-.123.123-.104.083.018.065.109.051.135-.013.026-.083.07-.135.052a.044.044 0 0 1-.03-.026.044.044 0 0 1 .004-.04Z" clip-rule="evenodd"/><path fill="#AC924C" fill-rule="evenodd" d="M14.07 17.11s.207.155.446.149c.237-.006.542-.25.682-.407.084-.09.155-.187.232-.263.066-.065.11-.096.141-.14.044-.052.091-.149.115-.18-.058.044-.14.122-.227.175a2.684 2.684 0 0 1-.336.174c-.07.026-.8.412-.8.412l-.252.08Z" clip-rule="evenodd"/><path fill="#9F8E57" fill-rule="evenodd" d="M14.386 15.185s.114-.078.336-.128c.213-.051.643-.09.643-.09l.354.154.141.534-.258.555-.328.206-.372-.6-.516-.63Z" clip-rule="evenodd"/><path fill="#EAC970" fill-rule="evenodd" d="m13.922 15.662-.123.092s.032-.058.058-.232c.026-.175.161-.6.36-.844.197-.245.192-.232.192-.232a.129.129 0 0 0-.104.026c.026-.058.193-.264.36-.367.166-.103.231-.136.406-.052.174.084.219.128.346.123.128-.005.237-.14.237-.14s.026.082-.07.275-.477.587-.477.587l-.792.541-.393.224Z" clip-rule="evenodd"/><path fill="#D7BC6B" fill-rule="evenodd" d="M14.508 15.12s.573.078.748-.083c.005.018.026.018.026.031a.045.045 0 0 1-.013.026.41.41 0 0 1 .057-.005.343.343 0 0 0 .07.013c.02 0 .039-.002.058-.005a.098.098 0 0 1-.04.065c.027 0 .052.005.052.026 0 .02.005.083-.026.096a.118.118 0 0 1-.078-.005.32.32 0 0 0 .039.14c.052.097.161.207.31.175 0 0 .077.188-.251.605-.044.057-.091.135-.149.2a.773.773 0 0 0-.051.154s.555-.214.714-.7c.162-.49.193-.973.162-1.423a.732.732 0 0 0-.058-.284c-.078-.162-.297-.136-.385-.045-.128.128-.342.446-.639.665-.302.219-.315.257-.547.354Z" clip-rule="evenodd"/><path fill="#585136" fill-rule="evenodd" d="M13.82 15.824s-.11.065-.167.309c-.057.25.052.555.115.651.063.096.206.36.503.373a.553.553 0 0 0 .213-.045c.104-.047.201-.108.29-.18.127-.096.232-.18.218-.187-.03-.013-.786-.638-.786-.638l-.284-.317-.102.034Z" clip-rule="evenodd"/><path fill="#453A25" fill-rule="evenodd" d="M14.534 16.86s.154-.012.245-.07c.091-.057-.534-.677-.534-.677l.044.67.245.077Z" clip-rule="evenodd"/><path fill="#84754B" fill-rule="evenodd" d="M13.87 15.777s-.079.148-.079.187c-.013.128.027.529.058.657.031.135.2.34.42.34.135 0 .322-.082.322-.103 0-.026-.192-.052-.244-.149-.032-.051-.045-.18-.052-.309-.005-.083-.005-.174.026-.206.07-.078.083-.302.083-.302l.25-.465h-.328l-.394.245-.062.105Z" clip-rule="evenodd"/><path fill="#252211" fill-rule="evenodd" d="M13.773 15.92s.258-.341.49-.42c.232-.078.336-.03.336-.03l-.135.346-.193.213.013.11s-.032.289.161.49c.193.2.336.192.42.192.083 0 .323-.07.445-.36.11-.27.2-.617-.018-.966-.214-.346-.591-.36-.664-.36-.073 0-.646.03-.855.784v.001Z" clip-rule="evenodd"/><path fill="#F7F7E7" fill-rule="evenodd" d="M20.388 17.08c-.097-.045-.005-.316.091-.4a.68.68 0 0 1 .433-.192c.078-.005.153.044.14.096-.018.096-.154.232-.276.328-.17.133-.279.217-.388.167Z" clip-rule="evenodd"/><path fill="#F8F6DE" fill-rule="evenodd" d="M15.177 15.602c.07-.005.162.052.18.128.018.083-.044.25-.18.25-.109 0-.166-.136-.166-.175a.198.198 0 0 1 .026-.09c.005-.009.018-.1.14-.113Z" clip-rule="evenodd"/><path fill="#D4C38B" fill-rule="evenodd" d="M14.161 15.662s-.18.083-.263.258a.683.683 0 0 0-.051.412c.013.065.078.226.122.284.045.057.104.096.149.09.044-.005.135-.122.135-.192s.005-.367.091-.529c.076-.161-.182-.323-.182-.323Z" clip-rule="evenodd"/><path fill="#E2D59D" fill-rule="evenodd" d="M14.188 15.649c-.032.018-.084.044-.07.078.012.031.122.052.16.128a.273.273 0 0 1 .032.2.316.316 0 0 0 .091-.065c.058-.065.128-.153.188-.153.039 0 .078.018.114.018.058 0 .115-.018.123-.078.013-.078-.11-.149-.18-.136.013-.051.031-.127-.026-.18-.057-.052-.237.04-.276.066-.04.026-.156.122-.156.122Z" clip-rule="evenodd"/><path fill="#CBAC5A" fill-rule="evenodd" d="m18.327 21.122.386-.113.11.078s.077.167.2.187c-.04.084-.141.155-.136.214a.18.18 0 0 0 .058.104s-.347.573.336 1.15c-.162.066-.368.155-.477.207.078.018.245.051.315.115.07.063.07.083.136.122.065.04.104.091.09.115-.044-.026-.192-.104-.218-.032-.026.073-.643.045-.643.045l-1.043.2s.04-.104-.07-.2c-.128-.115-.284.005-.45-.123-.22-.166-.227-.36-.298-.432.07-.044.214-.11.555-.155-.013-.026-.057-.104-.031-.174.031-.091.162-.149.123-.258.057-.013.083-.013.226-.193.136-.18.219-.218.323-.232.104-.013.167 0 .36-.18.135-.127.091-.236.091-.236s.088-.029.057-.209Z" clip-rule="evenodd"/><path fill="#D6BC6F" fill-rule="evenodd" d="M17.189 21.18c.005-.026.026-.039.166-.026.141.013 1.032-.083 1.274-.096.245-.018 1.108-.005 1.527.083.42.089.844.193 1.05.245.206.057.27.078.263.104-.005.026-.052.052-.078.045-.026-.006-.709-.214-.92-.258-.21-.044-.94-.162-1.34-.155-.372.006-.52-.005-.835.032-.316.039-.837.09-.993.07-.154-.018-.123-.018-.115-.044Z" clip-rule="evenodd"/><path fill="#DFC677" fill-rule="evenodd" d="M19.286 23.222s.534.29.727.644c.14.263-.084.393-.084.393s.303 0 .264.167c-.019.104-.521.385-.858.534-.34.148-.328.14-.495.167-.161.026-.604-.052-.695.078-.091.13-.052.263-.026.284.026.018.237.044.237.044s-.045.122-.482.136c-.438.013-.547.044-.573.09-.026.045.083.019.284.052.2.032.482.052.482.052s-.091.078-.329.14c-.27.07-.695.136-.823.214.065.044.162.11.206.115-.11.026-.263.083-.289.104.039.026.091.057.091.057s-.219.263-.346.329c-.128.065-.863.406-1.115.34-.63-.166-.709-.856-.863-.908-.232-.079-.34.078-.547-.032.091-.065.141-.104.237-.148a18.011 18.011 0 0 1-.643-.394 4.018 4.018 0 0 0-.188-.359c-.104-.18-.257-.42-.372-.63-.25-.464-.263-.678-.49-.941.04-.052.174-.044.174-.044l1.9.625 3.368.098.875-1.25.373.043Z" clip-rule="evenodd"/><path fill="#C4A859" fill-rule="evenodd" d="M14.297 25.13c.02.022.044.041.07.056.065.045.162.097.227.175.026-.039.091-.11.206 0 .115.11.257.031.346.057.091.032.097.045.097.045s.051-.045.166-.091c.07-.027.154-.045.245-.07.084-.019.175-.045.238-.045.057.039.263.258 1.088-.065.78-.302.96-.336 1.09-.29.012-.03.026-.09.226-.083 0-.083-.167-.367-.167-.367l-.92-.315h-.502l-1.509.276-.835.477-.066.24Z" clip-rule="evenodd"/><path fill="#927D49" fill-rule="evenodd" d="M13.794 24.6s.018.141.227.29c.206.148.27.237.27.237s.04-.052.071-.104c.031-.058.057-.123.11-.141.104-.044.34.039.393.026.044-.013.031-.104.078-.104.11-.006.18.07.219.07.039 0 .135-.005.148-.026.013-.02.018-.237.167-.341a.445.445 0 0 1 .412-.04c0 .04.005.136.11.141.104.005.114-.013.205.018.092.032.201-.005.25.149.045-.013.15-.026.123-.175.052-.039.097-.065.206-.218.026-.04.07-.084.104-.141.091 0 .2-.018.347.11-.045.03-.07.05-.084.083a.934.934 0 0 1 .105.122c.039.052.065.115.114.128.11.031.29-.013.49 0a.984.984 0 0 1 .425.127c.026-.012.026-.018.09-.005.066.013.116.018.045-.065.04.018.084.058.123.018.039-.039.07-.096.18-.109.109-.013.148.005.192-.11.057-.14-.14-.14-.14-.14s.09-.083.192-.193c.123-.114.264-.263.297-.445.058-.336-.27-.38-.27-.38l-1.592.49-1.946-.097-1.66.826Z" clip-rule="evenodd"/><path fill="#6E6342" fill-rule="evenodd" d="M12.364 20.002s-.052.065-.083.22c-.032.153-.019.135-.045.244-.026.11-.346 1.198-.226 1.566.12.367.328.503.458.8.026.064.052.104.065.161.045.193.006.341.058.534.018.065.065.14.135.219.155.161.407.315.515.424.154.162.373.49.652.521.148.019.36-.044.534-.148.154-.096.25-.232.412-.309.114-.057.237-.078.346-.104.227-.045.433-.052.555-.026.188.039.63.174.876.174.192-.003.383-.03.568-.078.373-.11.823-.297 1.12-.38.175-.052.315-.065.459-.097.245-.057.45-.135.568-.284-.078-.09-.175-.232-.696-.226-.591.013-1.274.34-1.61.393-.336.052-.482.096-.857-.04-.368-.136-.38-.226-.38-.226s-.386-.27-.548-.96c-.162-.688 0-1.19.42-1.667.109-.122.083-.231.083-.231s.276-.373.2-.722c-.083-.346-.617-.276-.617-.276l-2.962.518Z" clip-rule="evenodd"/><path fill="#39331F" fill-rule="evenodd" d="M12.81 21.162a.27.27 0 0 0-.032.14c.005.07.026.162.237.368.18.18.14.38.14.38s.091.018.337-.097c.193-.091.257.07.257.07a.544.544 0 0 1 .18-.057.395.395 0 0 0 .162-.051s.226.232.424.34c.18.097.284.163.373.097.083-.057.083-.174.078-.226a.676.676 0 0 0-.078-.136c-.057-.083-.149-.18-.155-.257-.013-.18.136-.394.104-.446-.03-.052-.148-.065-.437.04-.3.098-1.592-.165-1.592-.165h.001Z" clip-rule="evenodd"/><path fill="#292311" fill-rule="evenodd" d="M13.492 22.326s-.149-.14-.097-.823a.85.85 0 0 1 .188.018s.08.529-.091.805Z" clip-rule="evenodd"/><path fill="#252211" fill-rule="evenodd" d="M12.434 19.481a.406.406 0 0 0 .058-.051c-.052.096-.29.482-.097 1.089.193.604.678 1.055 1.274 1.076.597.02.91-.271 1.269-.709.14-.174.302-.393.445-.542.214-.232.38-.297.38-.52 0-.46-.468-.665-1.159-.871-.69-.206-1.313-.18-1.636-.04-.315.154-.45.316-.534.568Z" clip-rule="evenodd"/><path fill="#3F3824" fill-rule="evenodd" d="m14.651 22.532.052-.026s.013-.206.096-.2c.083.012.123.122.115.16-.005.04-.026.105-.11.097-.11.003-.153-.031-.153-.031Z" clip-rule="evenodd"/><path fill="#2D2815" fill-rule="evenodd" d="M14.42 21.657s.05-.019.114.044c.051 0 .276-.026.346.018.07.044.092.083.092.083s-.263.058-.407 0c-.146-.05-.146-.145-.146-.145Z" clip-rule="evenodd"/><path fill="#82764F" fill-rule="evenodd" d="M15.579 21.695a.65.65 0 0 0-.29-.14c-.025-.006-.03.013-.051.013-.013-.005-.018-.045-.018-.045l-.085.045s-.013.018.032.051c.039.032.104.058.122.11.018.052.018.07.026.078a.28.28 0 0 0 .14-.026c.045-.026.129-.069.123-.086Z" clip-rule="evenodd"/><path fill="#2D2816" fill-rule="evenodd" d="M14.263 22.224s.026-.18.2-.187c.18-.013.214.161.214.161l-.104.105c0-.003-.078-.112-.309-.079Z" clip-rule="evenodd"/><path fill="#574F35" fill-rule="evenodd" d="M15.396 21.45s-.096.105-.31.136c-.018-.026-.057-.078 0-.161.058-.084.123-.11.188-.084a.152.152 0 0 1 .122.11Z" clip-rule="evenodd"/><path fill="#82764F" fill-rule="evenodd" d="M15.79 21.578c.005-.026-.013-.03 0-.044.013-.013.083-.039.096-.026.005.005 0 .026 0 .052 0 .025 0 .051-.013.07-.018.026-.07.039-.096.031-.026-.008-.031-.044-.031-.051.012-.005.044-.019.044-.032Zm.444-.28c0-.014.045-.04.07-.04.04 0 .04.031.045.04.013.004.013-.006.026.017.013.024.032.065.018.091-.013.027-.065.045-.078.04a.699.699 0 0 1-.08-.149Z" clip-rule="evenodd"/><path fill="#6E6342" fill-rule="evenodd" d="M15.339 21.638s.057.013.136.078a.79.79 0 0 1-.066.04s-.005-.06-.07-.118Z" clip-rule="evenodd"/><path fill="#585136" fill-rule="evenodd" d="M15.211 21.065c-.013-.013.04-.044.07-.039.032.005.045.026.079.031.034.006.039-.013.051-.026.013-.013.058-.005.065 0 .005.006.01.012.013.018a.083.083 0 0 1 .008-.028.072.072 0 0 1 .018-.023.08.08 0 0 1 .07-.013c.006.018.032.083.027.096-.005.013-.083.032-.097.018.013.032.07.097.079.11.007.013-.058.044-.084.039a1.063 1.063 0 0 1-.3-.182h.001Zm.342-.432a.06.06 0 0 0-.027-.032c-.018-.005-.078 0-.078.032 0 .03.052.206.11.297.065.091.11.166.153.187a.06.06 0 0 0 .078-.026c.006-.013.019-.11.014-.336-.006-.227-.013-.445-.026-.458-.013-.013-.066-.013-.084.013a2.429 2.429 0 0 0-.14.323Z" clip-rule="evenodd"/><path fill="#574F35" fill-rule="evenodd" d="M15.32 21.967s-.09-.058-.179-.019c-.083.04-.078.193-.078.193a.122.122 0 0 0 .115-.013c.057-.039.13-.104.143-.161Z" clip-rule="evenodd"/><path fill="#82764F" fill-rule="evenodd" d="M15.493 22.172c-.005-.051-.052-.051-.052-.078a.059.059 0 0 1 .057-.044c.027 0 .052.031.084.052.031.018.078.051.083.09.005.04-.051.15-.114.15s-.045-.118-.058-.17Zm.502-.07s-.104.031-.096 0c.008-.031.032-.039.065-.039a.104.104 0 0 1 .065-.031.057.057 0 0 1 .04.013s.07-.032.09-.013c.021.018.006.018.019.039.016.023.027.05.031.078 0 .02-.078.065-.14.057-.073-.015-.06-.09-.073-.104Zm.607-.117s.032.018.006.039a.424.424 0 0 1-.188.057c-.078 0-.148.013-.148-.013s.065-.078.104-.091a.083.083 0 0 1 .065-.031 2.1 2.1 0 0 0 .188-.019c.03-.005.057.013.038.04-.007.018-.065.018-.065.018Zm.18-.805s-.039.084-.083.084c-.044-.005-.044-.019-.044-.032 0-.018.044-.065.039-.078-.013 0-.045 0-.04-.031 0-.026.045-.057.084-.052a.17.17 0 0 1 .104-.039c.045 0 .084.013.084.04 0 .026-.052.083-.07.096-.022.02-.048.034-.074.013Zm-.594 1.54s-.051.005-.051.031c0 .013.013.013.031.005.01 0 .021-.002.031-.005.005.005.005.031.044.031a.246.246 0 0 0 .092-.03c.031-.014.057-.027.057-.052-.013-.045-.04-.066-.078-.066a.103.103 0 0 0-.057.014s-.014-.027-.058 0c-.044.026-.039.026-.026.039.024.02.016.034.016.034v-.001Zm-.294.27c0-.012.065-.038.083-.03.018.005.07.104.07.114 0 .013-.065.044-.09.044-.027 0-.071-.044-.071-.051 0-.005.031-.013.031-.018.008-.013-.023-.044-.023-.058Zm-.206-.38c.013-.005.013-.018.031-.03a.045.045 0 0 1 .04-.005.065.065 0 0 1 .043-.032c.032-.005.058 0 .052.013 0 .039.026.065.026.096s-.018.07-.083.097a.463.463 0 0 1-.167.013c-.013-.006-.026-.058-.013-.084a.217.217 0 0 1 .07-.068Z" clip-rule="evenodd"/><path fill="#6E6342" fill-rule="evenodd" d="M15.77 22.628s-.044.026-.044.04a.117.117 0 0 0-.005.038c0 .008.058-.005.065-.013.003-.005-.015-.051-.015-.065Z" clip-rule="evenodd"/><path fill="#585136" fill-rule="evenodd" d="M15.383 22.506c.026.005.07 0 .104.013.027.013.045.039.019.07-.027.032-.052.078-.11.07-.065-.005-.127-.038-.127-.065a.124.124 0 0 1 .03-.09c.027-.021.04-.009.084.002Z" clip-rule="evenodd"/><path fill="#574F35" fill-rule="evenodd" d="M15.352 22.532s-.083.065-.104.096c-.026.032-.154.193-.193.227a.494.494 0 0 1 .044-.065.266.266 0 0 0-.11.14c-.03.097.175.149.31.188.136.04.189.052.189.052a1.451 1.451 0 0 1-.128-.237c-.052-.123-.078-.136-.044-.193.026-.057.065-.096.065-.14a.821.821 0 0 0-.029-.068Z" clip-rule="evenodd"/><path fill="#252211" fill-rule="evenodd" d="M12.382 22.738a.158.158 0 0 0 .058 0c.039-.005.445-.155.87-.128.318.02.633.071.94.155.534.14 1.198.419 1.628.578.115.044.227.122.31.154.328.127.34.127.534.161.226.031.458-.044.7-.096.297-.066.805-.097 1.25-.162a2.54 2.54 0 0 0 .425-.096s-.354.354-1.203.482a3.77 3.77 0 0 1-1.037.013 3.162 3.162 0 0 1-.586-.104c-.154-.045-.47-.162-.857-.258-.271-.07-.573-.123-.92-.188-.854-.156-1.782-.336-2.112-.51v-.001Z" clip-rule="evenodd"/><path fill="#CFB66C" fill-rule="evenodd" d="M11.423 21.128c-.206.174-.424.341-.638.503l-.643.494c-.22.161-.433.328-.652.49-.219.161-.437.315-.67.463.207-.174.425-.336.644-.495.219-.158.446-.314.657-.475l.643-.495c.222-.162.435-.329.66-.485Zm-1.138 1.823s.232-.192.52-.463c.36-.336.8-.766.941-.844l-1.461 1.308Z" clip-rule="evenodd"/><path fill="#CFB66C" fill-rule="evenodd" d="M10.285 22.951c.115-.114.237-.226.36-.336l.187-.161c.057-.052.123-.11.18-.167.114-.115.226-.237.341-.354.057-.06.117-.115.18-.167a.486.486 0 0 1 .104-.07c.031-.019.065-.052.11-.058-.027.04-.058.057-.084.091-.031.027-.057.058-.083.084-.058.057-.123.11-.18.161-.123.104-.25.206-.373.315-.122.11-.236.227-.36.336-.132.113-.254.222-.382.327Zm1.558-1.042s-.85.831-1.024.967l1.024-.967Z" clip-rule="evenodd"/><path fill="#CFB66C" fill-rule="evenodd" d="M11.843 21.91a2.77 2.77 0 0 1-.245.25l-.258.244c-.083.083-.162.167-.25.25-.091.078-.175.155-.271.227l.25-.245c.083-.083.175-.154.263-.237l.25-.245c.086-.086.17-.17.26-.245Zm.039.45a5.42 5.42 0 0 1-.276.638c-.22.438-.547.985-.69 1.264l.966-1.902Z" clip-rule="evenodd"/><path fill="#CFB66C" fill-rule="evenodd" d="M11.882 22.36c0 .096-.026.18-.057.263a2.776 2.776 0 0 1-.105.245 4.1 4.1 0 0 1-.127.237c-.045.076-.097.154-.136.232l-.263.464c-.091.154-.18.31-.276.458.065-.167.154-.323.237-.477.091-.154.175-.309.258-.469.04-.08.077-.16.11-.244.038-.084.077-.162.109-.237.038-.084.07-.162.109-.237.044-.081.08-.16.14-.235Z" clip-rule="evenodd"/><path fill="#DEC270" fill-rule="evenodd" d="M12.81 24.496s-.258.341-.232.774c.07-.227.158-.573.231-.774Zm.244.342s-.09.928-.167 1.384c.107-.527.128-.483.167-1.384Zm1.707 1.438s-.386 1.134-.394 1.449c.084-.324.245-.986.394-1.45v.001Z" clip-rule="evenodd"/><path fill="#CBAF59" fill-rule="evenodd" d="M15.662 24.426s.625 1.032 1.094 1.912c-.127-.443-.419-1.256-1.094-1.912Z" clip-rule="evenodd"/><path fill="#E3C677" fill-rule="evenodd" d="M17.342 25.945c.344.607.653 1.232.928 1.873-.052-.443-.193-1.201-.928-1.873Z" clip-rule="evenodd"/><path fill="#ECD592" fill-rule="evenodd" d="M22.282 27.466c.104-.065.31-.42.49-.508.18-.091.315-.11.476-.29.162-.187.206-.302.56-.45.495-.214.155-.49.155-.49a1.53 1.53 0 0 1 .174-.148c.128-.097.277-.214.264-.42-.018-.346-.084-.85-.368-1.14.276-.058.805-.097 1.134-.18.38-.097.555-.233.555-.233s-.22-.372.135-.747.644-.6.857-1.019c-.245-.031-.618-.161-1.57.2.05.025.1.053.148.084 0 0-.586.162-.8.341-.373.316-.42.573-.823.766-.404.193-.81.141-1.146.297-.336.157-.386.29-.508.347.026.031-.006.083.044.127-.032.045-.214.342-.399.342.018.07.175.122.175.122s-.115.084-.407.104c.149.155.29.323.678.568-.032.065-.162.162-.11.284.058.123.206.29.8.425-.302.013-.656.083-1.133.018-.477-.057-.555-.091-.85-.018.032.031.115.031.188.115-.078.005-.568-.058-.735.161-.174.227-.25.6-.237.85-.091.044-.18.122-.135.283.044.162.276.214.424.316.149.109.162.148.303.122.148-.031.367-.18.495-.18.127 0 .218.097.218.097s.347-.167.38-.136c.032.032.006.232.04.263.034.024.424-.208.529-.273h-.001Z" clip-rule="evenodd"/><path fill="#fff" fill-opacity=".8" fill-rule="evenodd" d="M29.855 17.04c-1.628-4.204-5.653-4.983-5.653-4.983H12.718l.044 4.282h2.287v9.564h-2.331v4.275h11.166c2.691 0 4.848-2.704 4.848-2.704 3.455-4.903 1.123-10.434 1.123-10.434Zm-5.911 7.553s-.876 1.263-1.829 1.263H20.21l-.045-9.506h2.446s1.134.237 1.925 2.48c0 0 1.05 3.211-.591 5.763Z" clip-rule="evenodd"/></g><defs><linearGradient id="b" x1="21" x2="21" y1="0" y2="61.409" gradientUnits="userSpaceOnUse"><stop stop-color="#08021E"/><stop offset="1" stop-color="#1F0777"/></linearGradient><clipPath id="a"><path fill="#fff" d="M0 0h42v42H0z"/></clipPath></defs></svg>