<svg width="488" height="488" viewBox="0 0 488 488" fill="none" xmlns="http://www.w3.org/2000/svg">
<g filter="url(#filter0_d_1431_33950)">
<mask id="mask0_1431_33950" style="mask-type:alpha" maskUnits="userSpaceOnUse" x="4" y="0" width="480" height="480">
<circle cx="244" cy="240" r="240" fill="url(#paint0_linear_1431_33950)"/>
</mask>
<g mask="url(#mask0_1431_33950)">
<circle cx="244" cy="240" r="240" fill="#31D8A4"/>
<circle cx="243.996" cy="240" r="208" fill="white"/>
</g>
<circle cx="243.999" cy="240" r="184" fill="#0E052F"/>
<path d="M244 424C345.62 424 428 341.62 428 240C428 138.38 345.62 56 244 56C142.38 56 60 138.38 60 240C60 341.62 142.38 424 244 424Z" fill="#988430"/>
<path d="M244 418.106C342.365 418.106 422.106 338.365 422.106 240C422.106 141.635 342.365 61.8939 244 61.8939C145.634 61.8939 65.8936 141.635 65.8936 240C65.8936 338.365 145.634 418.106 244 418.106Z" fill="#7A6A2A"/>
<path d="M244 414.353C340.293 414.353 418.353 336.293 418.353 240C418.353 143.707 340.293 65.6465 244 65.6465C147.707 65.6465 69.6465 143.707 69.6465 240C69.6465 336.293 147.707 414.353 244 414.353Z" fill="#BA9F33"/>
<path fill-rule="evenodd" clip-rule="evenodd" d="M140.448 220.35C139.406 219.398 138.305 218.444 137.292 217.492C136.279 216.54 135.239 215.586 134.197 214.635L131.1 211.691C130.593 211.184 130.057 210.739 129.551 210.23C129.045 209.785 128.45 209.278 127.944 208.831C123.834 204.931 119.7 201.031 115.648 197.13C119.846 200.97 123.956 204.784 128.154 208.682L129.612 210.142C130.118 210.646 130.654 211.094 131.16 211.6L134.256 214.458C135.298 215.41 136.31 216.364 137.353 217.402C138.395 218.44 139.408 219.396 140.45 220.346L140.448 220.35ZM85.9033 219.761C85.9033 219.761 100.849 221.308 108.144 222.35C114.902 223.304 136.042 226.548 136.042 226.548L85.9033 219.761ZM85.9033 219.761C90.1015 220.118 94.2996 220.564 98.4978 221.011C100.641 221.219 102.696 221.457 104.751 221.665L107.905 222.024C108.947 222.171 109.96 222.32 111.002 222.47L123.508 224.464L129.759 225.506C131.814 225.863 133.869 226.252 136.012 226.609C133.957 226.401 131.814 226.102 129.759 225.804L123.508 224.911L111.002 223.066C109.96 222.917 108.947 222.707 107.905 222.56L104.749 222.197C102.694 221.989 100.551 221.69 98.4958 221.451C94.2977 220.946 90.0995 220.409 85.9014 219.755L85.9033 219.761ZM134.554 230.442C134.554 230.442 118.595 234.493 113.206 236.041C107.907 237.5 91.8581 242.383 91.8581 242.383L134.552 230.444L134.554 230.442Z" fill="#CFB66C"/>
<path fill-rule="evenodd" clip-rule="evenodd" d="M134.552 230.442C131.009 231.484 127.486 232.497 123.892 233.451L113.233 236.308C109.691 237.35 106.168 238.363 102.635 239.405L97.3356 240.864C95.579 241.37 93.793 241.815 91.9775 242.324C93.7322 241.735 95.5202 241.132 97.2767 240.626L102.576 238.93C106.119 237.827 109.642 236.785 113.174 235.684C116.776 234.791 120.32 233.837 123.922 232.974C127.345 232.11 130.948 231.248 134.552 230.444V230.442ZM94.0913 252.208C95.846 251.552 116.093 242.116 120.797 239.912C123.153 238.809 129.998 236.379 129.998 236.379L94.0913 252.208Z" fill="#CFB66C"/>
<path fill-rule="evenodd" clip-rule="evenodd" d="M94.0918 252.208C95.6384 251.619 97.0986 250.899 98.5863 250.214L102.993 248.159L111.836 243.902C114.78 242.502 117.642 240.958 120.678 239.643C122.227 238.989 123.775 238.453 125.322 237.947L127.677 237.203C128.48 236.995 129.226 236.756 130.032 236.548C127.088 237.947 123.989 239.138 121.041 240.506C118.097 241.967 115.086 243.158 112.048 244.467L103.057 248.426C100.039 249.648 97.0947 250.958 94.0898 252.208H94.0918ZM96.0545 260.451C96.0545 260.451 114.394 249.703 120.706 246.249C124.011 244.404 134.699 239.103 134.699 239.103L96.0545 260.451Z" fill="#CFB66C"/>
<path fill-rule="evenodd" clip-rule="evenodd" d="M96.0557 260.455C99.1508 258.549 102.307 256.614 105.463 254.649L110.173 251.79C111.781 250.838 113.329 249.945 114.968 248.993C116.575 248.039 118.124 247.087 119.761 246.194C120.54 245.713 121.356 245.295 122.202 244.944L124.703 243.694C128.008 242.086 131.313 240.447 134.797 239.048C131.641 241.044 128.395 242.742 125.15 244.496C123.543 245.389 121.904 246.194 120.297 247.087C118.689 247.98 117.141 248.934 115.502 249.798C113.894 250.75 112.346 251.643 110.709 252.506L105.855 255.156L96.0596 260.455H96.0557ZM134.551 241.458C134.551 241.458 123.148 250.212 119.457 253.01C115.765 255.809 104.897 263.67 104.897 263.67L134.551 241.458V241.458Z" fill="#CFB66C"/>
<path fill-rule="evenodd" clip-rule="evenodd" d="M199.995 312.051L194.16 301.006L197.554 287.19L221.759 277.842L211.457 256.704L216.548 235.356L226.106 216.24L255.643 211.596L277.346 190.904L324.21 194.447L333.409 244.555L315.694 307.645L305.602 340.308L264.693 341.857L245.698 328.697L223.457 319.406L199.995 312.051Z" fill="#E2CC85"/>
<path fill-rule="evenodd" clip-rule="evenodd" d="M271.75 311.694C271.75 311.694 266.092 314.285 256.441 313.688C253.648 309.938 234.088 308.181 234.088 308.181C234.088 308.181 231.647 307.437 227.329 309.223C222.984 310.99 218.874 310.772 215.033 311.724C211.192 312.676 207.379 307.675 204.435 306.633C201.491 305.531 197.587 302.882 197.587 302.882L189.344 302.077L172.79 295.08L146.493 268.881L139.347 280.068L137.143 293.912L145.093 310.318L166.5 329.819L208.242 340.418L232.984 333.128L263.978 320.028L271.75 311.692V311.694Z" fill="#F1D789"/>
<path fill-rule="evenodd" clip-rule="evenodd" d="M123.447 219.1L128.746 203.053L135.06 192.69L155.393 190.992L149.289 208.798L132.291 239.048L139.347 266.052L126.842 272.304L122.999 266.41L119.904 252.893L119.696 237.708L123.447 219.1Z" fill="#F4ECB4"/>
<path fill-rule="evenodd" clip-rule="evenodd" d="M146.253 310.593L142.353 305.145C142.353 305.145 141.311 302.554 141.908 300.291C142.497 297.999 142.412 297.85 142.116 296.986C141.82 296.122 139.317 293.145 139.466 290.584C139.614 287.993 139.258 287.13 141.162 285.077C143.156 283.083 142.561 279.628 142.561 279.628L145.152 281.236L145.741 280.343C145.741 280.343 146.693 281.087 146.693 282.248C146.901 280.641 146.037 273.197 148.002 271.501C149.967 269.805 153.45 279.45 153.45 279.45L151.307 265.456L145.798 251.107L136.002 238.006L135.413 223.565V222.314C135.413 222.314 130.917 229.223 129.667 234.679C128.774 238.43 130.917 242.985 130.471 248.375C130.112 253.735 129.667 253.317 130.976 255.44C132.285 257.564 135.472 261.931 134.222 265.087C133.121 267.797 129.368 265.892 129.368 265.892C129.368 265.892 128.625 268.094 127.612 268.898C127.255 267.589 126.868 266.755 126.154 265.954C126.093 266.461 125.946 267.146 125.946 267.146C125.946 267.146 125.29 265.091 124.634 262.5C123.743 259.048 122.79 254.492 121.926 252.051C121.569 253.45 120.676 257.707 120.676 257.707L121.182 264.259L123.624 273.25L125.979 279.138L128.271 286.343L130.263 291.182L131.871 294.874L133.27 303.182L140.028 310.326L143.631 311.936L146.249 310.595L146.253 310.593Z" fill="#F3E19D"/>
<path fill-rule="evenodd" clip-rule="evenodd" d="M126.99 205.999C126.99 205.999 122.136 214.242 120.739 222.552C119.341 230.862 118.089 239.643 118.972 250.956C119.866 262.361 121.563 269.356 122.933 274.358C125.288 282.666 131.388 294.219 131.388 294.219L131.596 293.771C130.571 291.828 129.753 289.782 129.155 287.667C128.35 284.511 128.052 280.761 127.308 279.063C126.652 277.367 125.551 275.907 125.016 273.823C124.509 271.829 124.427 268.673 122.872 266.321C122.217 265.367 121.412 262.867 121.175 260.367C120.876 256.614 121.324 252.416 120.967 248.963C120.311 243.217 119.865 239.317 120.46 236.308C121.055 233.299 124.154 224.758 126.06 217.969C127.31 213.622 126.564 209.959 128.856 206.177C131.149 202.427 132.55 199.122 133.055 196.829C133.643 194.745 126.982 205.999 126.982 205.999H126.99Z" fill="#F2E8B0"/>
<path fill-rule="evenodd" clip-rule="evenodd" d="M150.006 202.694C150.006 202.694 147.505 203.439 146.314 204.749C145.123 205.999 144.616 207.041 143.009 209.155C141.401 211.269 141.311 212.996 140 215.645C138.691 218.236 135.802 222.136 135.445 223.535C135.088 224.935 134.493 231.484 133.749 234.581C133.093 237.678 134.493 241.49 134.493 241.49L136.189 241.13C136.189 241.13 136.189 243.335 137.886 244.824C139.582 246.282 139.88 239.88 139.88 239.88L146.222 218.473L155.778 211.983L156.82 206.743L150.002 202.694H150.006Z" fill="#F5EEC0"/>
<path fill-rule="evenodd" clip-rule="evenodd" d="M154.65 212.401C154.65 212.401 150.153 212.697 147.951 214.307C147.058 214.96 146.701 215.496 145.749 216.301C143.993 217.759 142.205 219.1 141.343 221.011C140.389 222.915 139.347 225.804 138.633 231.252C138.334 233.545 138.334 235.659 138.126 237.505C137.828 240.006 137.382 242 137.62 243.393C137.918 246.251 140.866 247.741 141.153 250.985L147.257 247.89L153.003 225.231L165.211 217.577L158.302 209.836L154.642 212.387L154.65 212.401Z" fill="#E6DB9D"/>
<path fill-rule="evenodd" clip-rule="evenodd" d="M122.448 364.981C122.474 364.757 122.499 364.533 122.525 364.303C123.416 356.649 123.567 350.847 124.221 347.215C125.172 342.065 125.828 340.149 125.679 338.222C125.471 335.126 125.233 332.864 125.532 330.481C125.977 327.325 129.074 323.574 128.986 320.984C128.925 318.929 127.883 317.59 126.99 316.34C126.097 315.09 125.382 314.047 125.382 314.047C125.382 314.047 131.486 309.849 131.427 292.937C131.552 292.972 131.672 293.022 131.785 293.086L134.791 301.63L136.846 304.13L144.736 318.838L154.889 328.695L169.894 338.787L179.303 349.026L180.255 376.329L167.959 392.287L165.945 395.934C149.947 387.902 135.276 377.462 122.446 364.979L122.448 364.981Z" fill="#E5CB7A"/>
<path fill-rule="evenodd" clip-rule="evenodd" d="M160.01 391.1C160.01 391.1 160.218 387.706 163.017 385.502C163.464 386.246 163.76 386.963 163.672 387.496C164.178 386.605 167.721 380.888 175.731 379.398C183.74 377.94 185.676 372.105 185.676 372.105L202.674 356.653L222.116 338.759L245.757 330.451L256.805 327.741C256.805 327.741 257.013 328.546 256.597 330.332C258.649 330.185 263.205 329.142 267.939 327.474C269.845 326.73 271.633 326.432 272.584 327.415C273.984 328.724 274.192 331.821 274.28 333.666C276.573 333.16 279.222 330.958 281.346 331.166C284.741 331.523 287.748 335.513 291.202 335.513C295.758 335.513 297.811 332.714 300.998 330.51C302.904 329.201 305.642 327.566 307.19 326.461C310.882 323.751 349.945 311.812 349.945 311.812L363.64 312.705L365.844 327.413L364.667 365.862C364.522 366.001 364.376 366.146 364.229 366.286L301.958 398.809L215.64 412.041C196.304 408.882 177.645 402.464 160.457 393.061L160.016 391.098L160.01 391.1Z" fill="#D8C173"/>
<path fill-rule="evenodd" clip-rule="evenodd" d="M127.683 369.872C128.909 367.306 130.012 365.161 130.207 364.394C130.36 365.94 130.64 369.334 131.206 372.941C130.019 371.932 128.845 370.909 127.683 369.87V369.872Z" fill="#F1D789"/>
<path fill-rule="evenodd" clip-rule="evenodd" d="M190.737 406.055L201.901 402.95L202.853 403.249C202.853 403.249 203.359 403.547 203.359 404.558C204.759 403.755 205.95 403.902 206.814 403.368C207.259 404.32 207.705 407.476 209.671 407.863C211.724 408.31 213.928 406.97 216.162 405.274C218.364 403.518 220.872 401.313 222.77 400.42C223.466 401.701 224.083 403.023 224.617 404.379C227.117 402.385 231.465 394.287 237.657 394.434C239.447 390.205 242.437 386.593 246.257 384.044C252.004 380.144 255.605 379.846 260.102 380.203C261.888 377.883 264.089 375.915 266.592 374.397C267.336 374.696 269.391 375.946 271.953 374.755C274.543 373.565 277.46 368.949 281.301 368.354C283.37 368.07 285.475 368.511 287.255 369.605C287.255 369.605 298.443 358.498 306.162 354.806C305.863 353.913 305.269 350.549 314.319 343.105C314.825 343.552 314.468 344.802 314.825 344.871C314.972 344.871 317.18 343.919 319.975 341.774C323.429 339.185 327.567 336.475 330.067 335.731C334.777 334.332 339.774 337.189 339.774 337.189C340.199 336.891 340.673 336.669 341.174 336.534C342.363 336.326 343.227 336.177 343.882 335.945C343.823 337.493 344.687 340.143 343.882 342.435C344.814 342.96 345.802 343.379 346.826 343.686C346.322 344.787 345.219 347.586 343.374 348.926C344.921 349.67 345.129 350.533 347.333 351.281C346.44 352.531 344.977 354.677 344.326 355.992C343.67 357.391 341.317 363.197 340.275 365.399C339.174 367.603 337.686 371.652 336.97 372.464C336.253 373.277 333.665 376.721 331.671 378.417C333.437 377.762 340.664 375.559 343.729 374.725C342.817 376.064 338.191 382.927 333.743 389.528C312.449 402.291 288.68 410.369 264.018 413.224C239.357 416.079 214.37 413.645 190.724 406.085L190.737 406.055Z" fill="#E0CD81"/>
<path fill-rule="evenodd" clip-rule="evenodd" d="M155.386 211.596C155.386 211.596 152.797 211.596 152.291 211.953C151.785 212.311 154.882 213.057 155.834 213.414C156.785 213.771 158.84 215.408 159.376 216.719C159.882 217.969 177.984 225.262 177.984 225.262L190.787 224.607L195.201 218.509L186.804 211.155L192.692 193.797L184.893 195.047L166.136 206.234L156.727 209.838L155.386 211.596Z" fill="#DFC57C"/>
<path fill-rule="evenodd" clip-rule="evenodd" d="M183.501 217.343C183.686 217.643 183.947 217.888 184.257 218.055C184.567 218.222 184.916 218.305 185.268 218.295C187.917 218.295 190.357 218.95 191.37 220.289C193.067 222.434 197.772 229.282 197.772 229.282L209.026 233.331L209.752 220.079L197.456 211.535L183.462 216.685V217.341H183.493L183.501 217.343Z" fill="#E5CC7C"/>
<path fill-rule="evenodd" clip-rule="evenodd" d="M181.293 222.255C181.293 222.255 183.346 222.405 185.936 221.451C188.527 220.497 192.784 218.444 194.631 219.249C197.22 220.35 196.684 223.804 199.485 226.903C201.18 228.809 204.277 228.75 206.034 230.805C207.791 232.86 213.834 231.906 213.834 231.906L216.126 244.271L206.927 256.062L203.918 270.71H191.479L180.115 266.202L174.518 252.659L177.316 238.964L181.293 222.255Z" fill="#D2C281"/>
<path fill-rule="evenodd" clip-rule="evenodd" d="M205.355 222.85C205.664 222.945 205.984 222.996 206.307 222.999C205.95 223.298 205.204 223.951 205.502 225.649C205.801 227.347 206.753 229.49 205.95 230.799C206.591 231.5 207.068 232.334 207.349 233.241C207.856 234.701 208.005 236.039 211.308 236.249C210.831 236.543 210.392 236.893 209.999 237.292C209.999 237.292 212.291 239.286 213.453 241.131C214.642 241.08 217.798 240.098 217.798 240.098L218.454 240.546L219.853 239.957C219.853 239.957 218.544 239.45 219.496 236.265C220.389 233.466 221.194 233.615 221.263 233.407C221.331 233.199 221.918 230.251 221.918 229.06C222.364 227.514 222.721 222.809 222.721 222.809L221.769 212.419L216.411 209.172L212.054 204.966L207.944 212.707L205.237 215.406L205.029 222.104L205.355 222.85Z" fill="#E2C270"/>
<path fill-rule="evenodd" clip-rule="evenodd" d="M218.246 214.158C218.246 214.158 219.198 216.866 219.557 218.95C219.684 218.545 219.754 218.125 219.765 217.7C219.765 217.7 220.509 221.81 220.656 223.508C220.955 223.447 221.245 223.359 221.312 223.655C221.379 223.951 222.058 227.258 221.901 229.103C223.14 227.058 224.856 225.342 226.901 224.102C228.093 223.357 229.492 222.554 230.952 222.493C233.245 222.434 234.911 223.953 237.651 223.953C244.259 223.953 250.245 219.1 254.652 217.612C257.896 216.509 260.695 215.706 262.659 213.918C263.613 213.115 265.311 211.329 266.857 208.678C268.912 205.145 271.056 202.07 273.201 201.683C272.23 201.861 271.243 201.931 270.257 201.891C270.257 201.891 270.912 201.235 272.023 200.342C273.134 199.449 274.465 198.348 276.369 198.348C279.764 198.348 281.46 198.853 283.365 198.853C285.271 198.794 286.372 198.348 286.372 198.348C286.372 198.348 288.368 199.748 292.863 199.748C297.359 199.807 300.366 200.193 302.719 200.403C305.073 200.613 312.96 199.748 315.223 199.814C316.699 199.871 318.147 200.226 319.482 200.857L312.187 179.66L285.982 156.755L270.38 167.801L246.381 191.799L223.159 200.403L218.305 205.852V214.158H218.246Z" fill="#CCB360"/>
<path fill-rule="evenodd" clip-rule="evenodd" d="M270.35 202.009C270.35 202.009 271.006 201.355 272.105 200.462C273.204 199.569 274.549 198.466 276.452 198.466C279.846 198.466 281.544 198.972 283.449 198.972C285.355 198.914 286.456 198.466 286.456 198.466C286.456 198.466 288.454 199.863 292.947 199.863C297.443 199.922 300.45 200.309 302.803 200.517C305.156 200.725 313.044 199.863 315.307 199.928C316.782 199.984 318.231 200.338 319.564 200.97L316.259 191.412L312.42 184.119L301.463 172.119C301.463 172.119 288.313 164.378 288.213 164.32C288.154 164.261 283.657 163.069 283.657 163.069L271.748 170.274L260.941 198.232L260.733 204.12L267.728 207.426C269.485 204.482 271.422 202.126 273.238 201.828C271.599 202.007 270.349 202.007 270.349 202.007L270.35 202.009Z" fill="#D5B457"/>
<path fill-rule="evenodd" clip-rule="evenodd" d="M270.201 204.005C269.159 204.064 268.297 203.856 268.058 203.112C267.165 200.611 266.45 200.254 265.703 200.254C264.955 200.254 263.946 201.862 263.347 202.009C262.749 202.156 262.038 200.164 262.038 200.164L261.383 199.865C261.383 199.865 257.542 202.366 254.833 205.314C252.125 208.262 247.687 213.265 245.693 214.156C243.699 215.047 236.85 215.347 234.506 215.853C232.163 216.36 229.564 218.057 229.207 218.444C228.85 218.831 230.251 219.247 230.459 219.633C230.667 219.991 228.165 219.841 227.957 220.222C227.809 220.521 228.545 222.216 228.911 223.08C229.549 222.762 230.25 222.589 230.964 222.574C233.256 222.515 234.924 224.034 237.662 224.034C244.272 224.034 250.257 219.18 254.663 217.69C257.909 216.589 260.708 215.785 262.672 213.999C263.624 213.196 265.322 211.408 266.87 208.758C268.001 206.943 269.104 205.245 270.207 203.995L270.201 204.005Z" fill="#D2B257"/>
<path fill-rule="evenodd" clip-rule="evenodd" d="M175.405 351.354C175.405 351.354 174.816 349.15 169.36 343.464C167.812 341.857 166.86 340.52 165.817 339.564C163.227 337.121 161.708 336.467 159.863 335.068C155.814 332.061 151.408 332.061 148.014 328.369C144.621 324.677 140.666 317.624 137.918 310.415C135.21 303.21 134.464 300.917 134.464 300.709C134.464 300.501 135.21 299.102 136.162 299.31C137.113 299.518 137.113 301.363 137.353 301.81C137.827 302.541 138.365 303.228 138.96 303.863C140.36 305.473 142.354 307.396 143.367 310.265C143.158 307.824 142.324 305.115 142.324 305.115C142.324 305.115 147.565 308.421 152.03 311.873C156.526 315.327 158.371 316.519 159.684 318.721C160.997 320.923 164.09 326.73 165.572 328.428C167.054 330.126 187.358 336.526 187.358 336.526L197.016 343.727L201.811 354.237L198.058 360.125L190.853 361.674L179.152 356.433L175.405 351.352V351.354Z" fill="#D2B159"/>
<path fill-rule="evenodd" clip-rule="evenodd" d="M149.409 315.149C149.409 315.149 151.851 319.048 157.805 322.74C163.166 325.986 171.65 328.934 179.214 330.691C183.56 331.733 187.907 332.536 191.807 332.597C202.317 332.744 209.551 329.739 218.515 328.756C223.368 328.249 229.323 327.863 235.515 326.401C243.464 324.495 248.169 322.35 254.571 319.335C259.214 317.192 263.473 315.584 266.926 313.529C271.779 310.672 275.322 307.486 279.432 306.534C278.926 307.934 278.39 310.434 274.341 313.025C276.484 312.964 279.432 312.817 279.432 312.817C279.432 312.817 276.574 314.513 271.542 318.324C268.445 320.679 264.337 324.666 260.139 327.315C257.428 329.013 254.481 330.259 252.545 331.276C247.835 333.867 245.935 335.176 242.84 338.341C243.941 338.283 244.031 338.341 244.031 338.341C244.031 338.341 240.13 338.848 237.333 340.335C236.744 340.335 235.723 340.127 233.937 340.634C232.538 341.079 230.691 342.094 228.787 342.628C226.077 343.433 225.186 343.075 225.186 343.075L225.631 343.968C225.631 343.968 222.098 343.908 220.921 344.027C221.129 344.086 221.07 344.176 221.07 344.176C220.863 344.211 220.664 344.281 220.481 344.384C219.915 344.752 219.291 345.023 218.636 345.187C218.279 345.246 217.981 345.246 217.533 345.336C217.683 345.694 218.844 347.692 219.38 348.869C218.935 349.167 212.234 354.229 212.234 354.229C212.442 354.556 212.612 354.906 212.741 355.271C212.949 355.925 213.039 356.879 213.247 357.324C213.751 358.217 214.05 358.366 214.05 358.366C214.05 358.366 213.247 358.516 211.846 358.873C210.656 359.171 209.196 359.676 207.135 359.974C206.503 360.056 205.867 360.106 205.229 360.123C205.528 360.779 206.837 363.279 204.425 366.166C202.013 369.053 201.269 369.473 200.525 371.318C200.15 371.035 199.752 370.785 199.334 370.572C198.531 370.215 197.428 369.681 197.041 368.965C196.816 369.919 196.517 370.855 196.148 371.764C195.404 373.758 194.303 375.724 194.095 377.212C193.29 376.319 191.803 374.562 189.748 374.92C187.693 375.277 186.056 378.076 185.699 378.88C185.699 378.374 185.342 377.987 185.253 378.582C185.193 379.237 184.062 386.083 177.75 391.622C177.691 390.223 177.691 387.125 177.542 386.115C176.953 386.703 176.233 387.573 171.945 389.42C167.746 391.265 168.412 393.112 168.412 393.112C168.412 393.112 168.055 390.168 170.317 387.067C172.61 383.971 174.009 382.511 174.009 382.274C173.972 382.032 173.869 381.805 173.711 381.618C173.413 381.32 172.818 380.963 172.818 380.725C173.175 380.578 176.718 378.88 176.51 375.365C176.302 372.211 174.963 370.572 174.009 369.412C173.862 369.263 175.411 368.162 175.201 367.805C175.051 367.597 173.148 366.196 172.908 365.45C172.964 365.005 173.064 364.566 173.207 364.141C173.415 363.485 173.564 363.038 173.505 362.592C173.356 361.848 172.551 359.793 172.314 359.585C172.522 359.644 174.009 359.585 174.009 359.585C174.009 359.585 172.82 357.68 172.61 356.787C172.4 355.894 171.954 353.54 171.717 353.095C172.223 353.154 173.473 353.242 173.473 353.095C173.534 352.647 172.372 351.903 172.885 351.328C173.242 351.387 173.927 351.686 174.58 352.52C174.223 351.566 173.628 349.721 172.376 348.977C172.965 348.769 174.967 348.231 176.724 349.273C178.48 350.316 179.079 351.774 179.079 351.774C179.079 351.774 180.121 352.579 181.73 353.77C183.575 355.228 185.927 357.303 189.679 358.771C190.484 359.218 192.537 359.218 194.026 358.92C194.675 358.765 195.297 358.515 195.871 358.176C196.079 358.054 196.299 357.954 196.527 357.878C196.207 357.235 195.839 356.618 195.426 356.031C195.932 356.031 196.527 356.092 196.527 356.092C196.527 356.092 196.884 355.287 195.277 353.737C195.634 353.379 196.081 353.148 196.081 352.545C195.575 352.486 194.682 351.742 194.474 351.444C194.77 351.236 195.218 350.551 195.724 350.343C195.277 349.986 194.176 348.496 193.669 348.349C194.153 348.169 194.621 347.95 195.069 347.694C195.069 347.694 192.568 347.038 191.764 346.502C190.959 345.913 189.769 344.895 189.055 344.596C188.309 344.298 187 344.151 186.464 343.554C186.969 343.703 187.773 343.554 188.37 343.554C188.816 343.554 189.026 343.613 189.173 343.613C189.114 343.405 189.114 342.958 190.276 342.81C190.835 342.726 191.377 342.555 191.883 342.304C191.883 342.304 190.78 342.245 189.528 341.054C188.276 339.862 187.236 338.911 186.521 338.761C185.777 338.612 184.378 339.268 183.514 339.207C182.323 339.06 181.817 338.463 181.817 338.463C181.817 338.463 177.858 338.82 169.075 333.462C161.482 328.817 158.176 324.709 158.176 324.709C157.466 324.451 156.779 324.132 156.123 323.755C153.266 322.267 149.305 319.17 149.425 315.119L149.409 315.149Z" fill="#C2A44D"/>
<path fill-rule="evenodd" clip-rule="evenodd" d="M258.945 136.448C259.634 136.672 260.246 137.084 260.712 137.639C262.111 139.247 263.004 142.283 259.819 145.529C261.069 145.975 261.585 146.118 262.676 145.975C261.575 147.286 259.075 150.084 258.926 152.526C258.777 154.52 260.027 155.117 260.027 155.117C260.027 155.117 258.121 157.319 258.033 161.005C258.933 159.99 259.918 159.053 260.977 158.206C263.181 156.449 266.217 154.455 268.272 153.205C268.244 153.729 268.315 154.254 268.48 154.752C268.48 154.752 272.319 151.596 275.546 152.997C277.004 153.652 276.348 155.705 276.348 155.705C276.348 155.705 278.344 154.962 279.744 156.361C281.143 157.76 283.121 161.37 284.136 162.769C284.582 163.425 285.744 164.675 286.933 166.61C288.558 169.319 289.915 172.181 290.984 175.154C291.043 173.605 291.429 171.195 295.838 172.712C300.244 174.26 305.245 177.507 309.443 183.899C313.641 190.292 314.681 197.508 316.795 200.256C318.938 202.906 321.142 207.312 321.291 209.159C321.441 211.006 320.636 216.958 325.042 233.066C326.292 228.065 328.198 216.958 328.198 216.958L329.24 207.163L330.432 176.853L298.782 150.559L274.04 132.605L257.933 134.153L258.943 136.446L258.945 136.448Z" fill="#CAA13E"/>
<path fill-rule="evenodd" clip-rule="evenodd" d="M317.749 181.554C317.749 181.554 317.302 178.61 309.859 173.605C302.415 168.663 296.609 168.663 291.251 164.465C287.142 161.16 282.855 153.566 280.064 151.066C277.354 148.595 276.908 141.449 276.908 141.449L286.048 133.794L299.642 114.146L311.133 101.493L316.64 109.147L324.295 118.138L328.552 136.181L330.1 162.59L317.736 181.556L317.749 181.554Z" fill="#B59544"/>
<path fill-rule="evenodd" clip-rule="evenodd" d="M326.95 213.21C327.175 209.205 326.681 205.192 325.49 201.361C323.527 195.257 319.239 184.419 317.247 180.36C316.442 175.864 317.039 175.507 317.902 175C318.766 174.494 322.012 172.645 323.79 166.159C325.569 159.672 331.086 159.46 331.086 159.46L334.479 156.96L339.631 169.85L344.126 181.493L345.525 190.396L346.567 197.987L344.126 214.036L332.069 224.933L326.948 213.21H326.95Z" fill="#C89D3A"/>
<path fill-rule="evenodd" clip-rule="evenodd" d="M158.7 392.085V391.755C158.951 391.599 159.172 391.399 159.354 391.167C159.562 390.868 159.713 390.511 159.86 390.423C160.158 390.274 161.558 389.834 162.302 389.975C163.046 390.117 165.012 390.927 166.054 390.868C168.198 390.809 170.698 389.171 174.659 389.916C180.613 391.017 182.013 395.066 185.467 397.359C187.822 398.968 190.26 398.252 190.617 398.252H191.42C191.569 398.252 192.67 397.002 193.267 397.062C194.458 397.121 194.576 398.105 195.32 398.163C197.076 398.372 200.472 397.27 202.169 397.718C202.673 397.876 203.131 398.153 203.504 398.526C203.877 398.898 204.154 399.356 204.313 399.859C204.67 400.96 204.371 402.36 203.508 403.164C201.663 404.86 199.906 406.469 199.549 407.875C200.004 408.221 200.44 408.591 200.856 408.982C186.125 405.228 171.951 399.553 158.7 392.103V392.085Z" fill="#CEB052"/>
<path fill-rule="evenodd" clip-rule="evenodd" d="M317.243 332.597C317.243 332.597 321.887 326.404 323.496 323.337C325.104 320.175 318.405 280.137 318.405 280.137L331.863 236.043L331.504 221.692C331.504 221.692 332.159 208.442 333.708 202.696C335.555 206.001 341.302 209.991 342.552 212.105C343.141 208.054 345.141 199.51 344.844 190.4C345.945 192.095 348.595 209.157 348.595 209.157L351.244 220.648L354.699 232.856L358.54 245.749L360.832 254.651L362.141 256.795L363.244 260.545L364.286 264.596L367.293 274.094L369.06 281.893L370.459 296.036C370.763 297.119 370.982 298.224 371.114 299.341C371.173 300.89 370.906 301.783 370.906 302.052C370.906 302.321 371.413 305.445 371.205 307.798C370.906 310.154 370.906 311.997 369.06 313.686C367.213 315.376 366.053 325.476 366.053 325.476L362.748 323.274C362.748 323.274 363.403 320.265 361.855 317.527C360.306 314.789 357.299 314.222 355.602 314.67C353.906 315.027 350.512 315.561 349.409 316.515C348.367 317.466 345.808 320.414 343.455 321.755C340.511 323.521 335.714 323.661 333.154 324.255C330.564 324.844 327.706 326.611 324.697 328.662C322.338 330.189 319.848 331.503 317.255 332.587V332.587L317.243 332.597Z" fill="#CCA847"/>
<path fill-rule="evenodd" clip-rule="evenodd" d="M317.243 397.651C317.243 397.651 317.439 397.779 317.818 397.987C338.971 388.076 357.924 374.029 373.558 356.673C373.387 350.647 373.165 344.471 372.922 342.182C372.418 337.329 372.775 332.387 372.626 329.529C372.477 326.671 370.869 315.029 370.125 312.022C369.321 309.015 367.77 307.526 367.535 307.526C367.326 307.586 366.074 313.184 366.074 314.591C366.074 315.998 365.776 319.386 365.776 320.249C365.568 320.189 365.48 319.661 365.48 319.445C365.181 320.189 364.824 321.5 364.675 321.649C364.526 321.798 364.883 320.399 364.675 320.1C364.467 319.802 364.086 319.951 364.169 319.207C364.204 318.766 364.273 318.328 364.377 317.898C364.377 317.898 363.484 319.207 362.83 322.542C362.174 325.847 362.174 325.937 361.937 326.234C361.729 326.593 360.538 327.782 360.477 328.23C360.418 329.032 361.58 329.837 361.668 330.283C361.727 331.028 360.626 334.481 360.269 336.171C359.912 337.86 360.061 341.171 359.68 342.869C359.382 344.418 359.091 345.311 358.073 345.964C358.816 346.113 359.531 346.322 359.531 346.322C359.531 346.322 360.573 350.728 357.923 354.48C356.971 355.789 356.734 356.386 355.721 357.577C353.725 359.78 352.177 362.288 352.028 363.919C351.925 363.437 351.855 362.95 351.819 362.459C351.819 362.459 348.724 366.062 347.413 368.117C345.718 370.767 343.364 370.617 342.703 371.273C342.041 371.928 341.898 373.118 342.114 374.072C341.525 374.219 340.418 374.429 339.673 376.721C339.315 377.911 338.422 379.076 337.023 379.877C335.624 380.678 333.926 380.919 333.062 381.127C333.806 381.335 334.104 381.335 334.462 381.573C334.016 382.317 331.961 383.479 329.669 384.968C327.376 386.368 326.273 388.421 325.708 389.761C325.119 391.011 324.25 391.816 322.85 391.965C323.439 392.322 324.311 393.155 324.756 393.424C324.101 393.573 322.99 393.573 321.006 395.27C318.921 396.998 318.207 397.504 317.253 397.653L317.243 397.651Z" fill="#C39D3C"/>
<path fill-rule="evenodd" clip-rule="evenodd" d="M275.814 411.449C276.955 410.65 278.189 409.995 279.491 409.5C284.134 407.655 289.047 407.298 290.982 406.703C292.829 406.114 294.287 405.302 296.58 404.856C296.519 405.378 296.468 405.869 296.413 406.332C289.654 408.457 282.772 410.166 275.805 411.449H275.814Z" fill="#D2BA6B"/>
<path fill-rule="evenodd" clip-rule="evenodd" d="M361.466 289.306C361.466 289.306 360.514 294.456 358.816 297.702C357.118 300.949 355.283 305.443 355.283 305.443C355.294 304.43 355.414 303.422 355.641 302.434C353.497 303.685 348.286 306.693 346.809 308.032C345.409 309.282 343.056 311.486 342.461 312.528C343.861 308.421 345.319 304.729 345.558 303.031C343.415 304.58 333.409 312.827 328.201 318.275L311.973 331.405C310.101 332.416 308.172 333.319 306.197 334.11C303.4 335.299 300.095 336.312 297.654 337.266C298.309 335.509 299.349 333.959 300.81 332.471C302.358 331.013 307.002 325.981 307.716 323.639C308.372 321.198 308.521 319.739 307.657 317.684C306.853 317.892 305.008 317.983 303.757 318.34C302.507 318.697 301.167 320.036 301.167 320.036C301.167 320.036 302.119 314.587 304.174 309.437C302.625 309.496 299.975 309.942 299.975 309.942C299.975 309.942 303.667 303.749 309.985 299.433C308.05 299.845 306.157 300.433 304.329 301.188C300.637 302.737 296.588 305.029 293.581 306.279C295.277 303.924 307.186 286.927 314.273 271.087C321.339 255.277 323.979 251.228 325.527 242.744C326.33 238.546 326.116 232.342 326.33 226.785C326.538 221.276 327.223 216.334 326.778 213.029C328.623 215.321 335.531 221.783 335.769 236.224C335.977 250.663 329.16 270.166 321.924 280.674C323.69 281.181 328.267 281.777 332.97 273.609C337.672 265.44 337.615 263.159 339.313 259.764C339.521 261.462 339.46 262.056 339.46 262.056C339.46 262.056 346.31 253.75 349.554 243.299C350.21 247.796 352.145 251.756 349.107 260.004C346.398 267.446 342.856 269.263 342.856 269.263C342.856 269.263 344.612 268.965 347.201 267.416C347.649 268.518 347.56 269.772 348.304 270.215C349.048 270.659 350.061 271.407 350.21 272.121C351.013 270.93 352.263 269.411 352.651 268.28C352.353 270.635 352.145 280.933 353.24 286.174C355.535 285.966 357.886 285.817 359.493 281.677C358.392 285.728 358.392 288.168 359.136 291.622C360.357 290.79 361.458 289.3 361.458 289.3L361.466 289.306Z" fill="#C0993A"/>
<path fill-rule="evenodd" clip-rule="evenodd" d="M284.105 125.194C284.105 125.194 281.813 126.146 277.913 126.146C274.519 126.146 275.471 124.837 270.172 124.837C262.015 124.837 233.521 129.547 228.518 129.48C225.272 129.421 239.474 130.88 239.474 130.88L275.77 131.386L283.063 130.797L285.773 125.282L284.105 125.194Z" fill="#A88F33"/>
<path fill-rule="evenodd" clip-rule="evenodd" d="M189.991 196.144C189.991 196.144 185.346 199.687 183.381 202.397C181.416 205.108 180.374 206.892 178.141 209.096C178.665 209.116 179.189 209.045 179.689 208.888C179.689 208.888 179.689 209.477 179.332 209.632C179.641 209.597 179.953 209.632 180.247 209.734C180.54 209.836 180.807 210.002 181.028 210.22C180.372 210.578 178.586 212.366 179.986 214.479C181.028 216.087 183.232 216.234 183.232 216.234C183.232 216.234 182.725 217.694 184.839 217.545C189.395 217.337 194.486 215.341 196.837 215.847C199.192 216.436 200.531 216.652 202.197 219.541C203.963 222.399 205.502 222.846 205.502 222.846C205.502 222.846 206.544 220.195 206.307 216.236C207.161 214.102 207.635 211.835 207.706 209.537L206.158 198.134L199.4 189.589L190.647 194.443L189.991 196.138V196.144Z" fill="#E3C571"/>
<path fill-rule="evenodd" clip-rule="evenodd" d="M198.297 194.447C198.297 194.447 198.952 195.995 201.692 196.142C201.394 196.798 201.394 196.888 201.484 197.392C201.543 197.899 201.631 198.643 201.631 198.643C201.933 198.497 202.206 198.297 202.436 198.054C202.585 198.709 202.287 199.75 202.436 200.495C202.528 200.949 202.678 201.389 202.882 201.805C202.925 201.703 202.975 201.604 203.031 201.508C203.09 201.359 203.62 203.116 205.086 204.452C205.084 204.247 205.135 204.044 205.233 203.863C205.255 204.237 205.379 204.597 205.59 204.906C205.48 204.853 205.38 204.783 205.294 204.698C205.294 204.698 205.441 209.408 206.246 211.844C206.38 211.686 206.5 211.517 206.603 211.337C206.603 211.19 206.544 212.648 206.395 213.692C206.187 214.735 206.336 216.193 206.336 216.193C206.873 215.77 207.463 215.42 208.091 215.151C208.984 214.792 210.446 213.69 211.337 211.249C211.854 209.866 212.252 208.442 212.528 206.992C212.816 207.546 213.015 208.142 213.117 208.758C213.178 209.502 214.577 209.115 214.577 209.115L214.876 205.869L216.642 198.515L218.249 193.96L225.99 181.903L239.976 171.132L252.184 173.931L262.484 159.937L244.739 149.278L227.947 151.034L212.707 172.143L200.501 191.289L198.297 194.445V194.447Z" fill="#D8B65B"/>
<path fill-rule="evenodd" clip-rule="evenodd" d="M286.249 163.9C286.249 163.9 285.207 164.108 282.2 165.666C279.193 167.224 277.109 167.719 275.947 170.011C274.785 172.304 274.696 174.121 274.696 174.121C274.696 174.121 276.751 173.228 277.943 172.93C279.193 172.633 280.592 172.722 280.443 173.228C280.3 173.575 280.101 173.897 279.854 174.18C279.854 174.18 282.21 174.121 282.147 175.283C282.084 176.445 281.701 177.725 281.256 178.29C280.808 178.879 278.963 179.75 278.755 180.435C278.249 181.834 278.963 181.893 278.694 183.024C278.486 184.127 277.505 186.27 274.288 190.021C270.983 193.773 269.578 196.423 269.578 196.423C269.578 196.423 267.97 193.416 267.136 190.825C266.547 191.122 263.386 192.878 263.386 192.878L256.061 167.364L256.208 165.666C256.208 165.666 256.864 164.863 257.013 163.374C255.912 163.016 255.763 162.718 254.302 161.321C252.842 159.923 251.653 158.223 249.213 157.062C248.856 156.406 248.408 155.515 246.622 155.156C244.836 154.797 243.765 154.502 243.765 154.502C243.765 154.502 244.717 154.143 245.164 153.399C244.061 153.548 243.17 153.906 240.758 153.847C238.316 153.786 238.048 153.698 236.709 153.906C235.37 154.114 233.765 154.71 233.166 152.655C232.511 152.149 231.112 152.597 229.92 154.351C228.729 156.106 228.313 157.507 226.02 158.192C225.859 159.203 225.505 160.173 224.978 161.05C224.323 162.153 223.28 163.254 221.881 164.891C219.677 167.481 220.034 171.738 216.521 174.985C212.978 178.229 217.11 165.992 217.11 165.992L222.766 152.449L238.874 136.699L263.884 135.003L266.326 147.957L278.533 152.155L286.245 163.915L286.249 163.9Z" fill="#D3AE4D"/>
<path fill-rule="evenodd" clip-rule="evenodd" d="M290.209 166.757L279.699 151.603L272.345 145.945C272.345 145.945 267.105 136.301 266.747 136.002C266.449 135.794 261.507 135.258 258.351 135.05L258.94 136.509C259.629 136.732 260.241 137.145 260.706 137.7C262.106 139.307 262.999 142.344 259.813 145.59C261.064 146.035 261.58 146.179 262.671 146.035C261.57 147.346 259.07 150.145 258.92 152.587C258.771 154.581 260.021 155.175 260.021 155.175C260.021 155.175 258.116 157.38 258.027 161.063C258.927 160.049 259.912 159.112 260.971 158.265C263.175 156.498 266.212 154.512 268.267 153.262C268.239 153.787 268.309 154.312 268.475 154.81C268.475 154.81 272.314 151.654 275.54 153.054C276.998 153.709 276.343 155.764 276.343 155.764C276.343 155.764 278.339 155.02 279.738 156.42C281.138 157.819 283.132 161.421 284.145 162.822C284.59 163.478 285.752 164.728 286.941 166.661C288.567 169.371 289.923 172.233 290.992 175.206C291.051 174.015 291.291 172.349 293.348 172.349L290.221 166.751L290.209 166.757Z" fill="#CAA13E"/>
<path fill-rule="evenodd" clip-rule="evenodd" d="M132.648 209.81C132.648 209.81 131.904 207.963 132.648 204.362C133.392 200.76 134.554 199.063 134.94 193.763C135.327 188.464 138.781 181.854 138.781 181.854L148.338 177.509L155.097 179.354L157.091 188.405L148.546 193.116C148.546 193.116 148.1 195.11 145.688 196.717C143.276 198.325 139.941 199.575 139.139 201.214C138.659 202.217 138.308 203.278 138.096 204.37C138.096 204.37 135.655 203.863 134.197 205.471C132.648 207.11 132.707 208.568 132.648 209.818V209.81Z" fill="#F4EFC8"/>
<path fill-rule="evenodd" clip-rule="evenodd" d="M151.941 207.398C151.941 207.398 151.136 207.905 150.541 209.165C149.953 208.213 148.545 202.554 148.486 197.463C148.428 192.372 148.123 191.11 149.301 189.355C150.479 187.601 155.097 185.752 154.441 182.592C153.786 179.585 151.046 178.335 147.682 179.199C145.327 179.787 143.574 184.796 141.132 187.297C139.286 189.202 137.083 188.904 136.489 189.946C135.684 191.346 136.428 192.745 136.19 193.638C136.13 193.936 135.386 195.544 134.045 197.479C131.337 201.379 126.752 206.888 126.155 211.83C126.363 209.031 126.216 208.972 126.96 205.875L126.512 205.131L129.456 195.485L131.362 187.536L135.621 174.225L143.123 160.62L150.418 152.461L158.009 152.968L158.902 164.371L163.25 185.779L172.39 197.033L157.74 206.892L151.935 207.398H151.941Z" fill="#EBCC73"/>
<path fill-rule="evenodd" clip-rule="evenodd" d="M156.497 211.443C156.497 211.443 155.247 211.741 154.799 211.504C154.352 211.267 153.908 210.998 154.055 210.699C154.202 210.401 155.007 209.897 155.007 209.657C155.024 209.441 154.955 209.226 154.816 209.06C154.677 208.893 154.479 208.787 154.263 208.764C153.578 208.676 153.37 209.121 153.37 209.121C153.37 209.121 152.715 208.617 152.181 208.533C152.497 208.494 152.815 208.474 153.133 208.472C152.31 208.099 151.437 207.848 150.542 207.728C151.286 207.282 152.746 205.971 153.698 205.971C154.65 205.971 155.247 205.824 155.097 205.318C154.948 204.811 154.204 204.067 153.402 203.769C153.698 203.412 153.908 202.876 153.194 201.414C152.448 199.956 152.746 198.972 152.986 198.617C153.194 198.17 153.937 197.367 154.295 196.861C154.652 196.354 154.95 195.669 155.545 195.312C155.843 195.104 156.795 194.723 157.749 194.36C158.791 194.003 159.655 193.555 160.249 194.003C160.905 194.448 160.607 195.045 160.607 195.045C160.607 195.045 162.661 194.299 164.506 195.253C166.353 196.144 170.85 196.711 170.85 196.711L172.461 199.958L161.802 209.098L157.396 211.302L156.503 211.449L156.497 211.443Z" fill="#E5C66B"/>
<path fill-rule="evenodd" clip-rule="evenodd" d="M171.293 196.501C171.293 196.501 167.988 198.705 167.244 199.508C167.69 199.569 168.434 199.867 168.135 200.313C167.778 200.758 165.635 202.307 164.443 203.767C163.193 205.225 162.002 207.072 161.586 207.965C161.14 208.768 157.745 211.121 156.585 211.418C159.027 211.418 163.939 208.411 165.784 208.411C165.725 209.304 166.29 210.317 167.333 210.405C168.375 210.493 171.382 211.06 175.43 208.56C179.479 206.118 178.141 204.301 179.837 203.112C183.083 200.966 184.392 199.061 186.178 197.871C187.964 196.682 188.888 196.411 188.888 196.411C188.888 196.411 188.947 195.518 189.477 195.608C189.622 195.625 189.76 195.681 189.876 195.77C189.991 195.859 190.08 195.979 190.133 196.115C190.133 196.115 193.23 193.911 197.198 193.316C197.106 193.275 197.032 193.201 196.99 193.108C196.99 193.108 197.287 192.959 197.348 192.81C197.348 192.81 197.556 192.511 197.705 192.66C197.854 192.81 198.062 193.911 198.36 194.358C199.016 194.06 200.266 191.261 200.266 191.261L203.275 182.657V174.796L200.92 175.244L183.256 182.745L172.536 193.852L171.285 196.501H171.293Z" fill="#E6BD62"/>
<path fill-rule="evenodd" clip-rule="evenodd" d="M222.146 157.945C223.101 157.713 224.017 157.341 224.864 156.842C224.507 157.796 224.507 158.838 222.958 161.101C221.41 163.364 221.351 163.692 220.1 166.043C218.85 168.484 218.701 171.998 217.51 173.544C218.044 173.285 218.616 173.114 219.205 173.04C219.205 173.04 218.016 174.082 217.51 175.183C217.003 176.284 216.11 178.576 213.908 179.978C211.706 181.379 208.905 182.27 205.899 185.575C202.89 188.82 199.795 192.929 198.244 194.407C199.049 193.008 200.15 190.209 200.448 188.364C200.747 186.519 200.387 184.313 200.894 181.874C201.4 179.434 201.4 177.676 203.838 173.417C206.275 169.158 210.448 154.361 210.448 154.361L219.439 151.503L222.149 157.935L222.146 157.945Z" fill="#B6933F"/>
<path fill-rule="evenodd" clip-rule="evenodd" d="M215.656 152.497C215.656 152.497 212.947 156.396 212.203 159.851C211.459 163.305 212.142 163.007 211.697 164.704C211.43 165.739 211.43 166.825 211.697 167.86C212.635 166.349 213.919 165.083 215.444 164.167C218.005 162.62 220.089 161.517 221.332 160.208C222.582 158.808 223.624 156.516 226.333 154.759C225.231 154.61 223.683 154.104 223.389 154.171C224.492 152.92 227.795 151.015 231.129 148.722C234.434 146.367 234.226 145.417 239.586 143.066C237.83 143.364 236.996 142.917 235.535 143.066C236.124 141.816 238.185 141.219 240.246 139.166C242.307 137.113 238.937 134.075 238.937 134.075L223.235 143.572L215.644 152.504L215.656 152.497Z" fill="#C49937"/>
<path fill-rule="evenodd" clip-rule="evenodd" d="M173.05 145.409L173.407 142.552L177.903 135.347L182.608 122.693V105.394L182.251 95.3907L182.995 88.8394L183.56 86.757L184.157 85.9523L187.996 87.9463L193.297 95.1513L193.803 109.057L188.651 130.999L173.943 147.048L173.05 145.409Z" fill="#DFC068"/>
<path fill-rule="evenodd" clip-rule="evenodd" d="M184.751 85.1475C184.751 85.1475 182.396 85.2084 181.893 95.004C181.391 104.8 181.148 109.95 180.79 114.803C180.433 119.657 179.601 122.603 179.183 125.463C178.765 128.322 178.527 132.22 177.189 134.603C176.6 135.704 175.342 139.158 172.394 141.749C169.089 144.607 164.151 146.603 163.403 146.752C162.092 147.048 155.452 147.704 152.744 149.193C151.792 149.7 150.153 150.294 148.338 151.992C144.734 155.236 139.941 161.042 136.487 168.039C131.188 178.49 125.889 207.995 125.889 207.995L127.08 206.001C127.08 206.001 127.229 203.351 129.879 198.705C132.469 194.062 131.726 188.851 135.327 179.948C136.727 176.555 138.483 172.149 140.626 168.396C144.022 162.292 148.13 157.052 152.269 154.194C159.026 149.55 166.471 148.538 166.471 148.538L174.48 143.239C174.48 143.239 175.88 140.53 177.727 137.433C180.315 133.088 183.615 128.234 184.335 121.178C185.438 110.727 182.786 103.879 182.936 97.687C183.085 91.4948 183.144 86.9394 184.396 85.8364C185.648 84.7334 184.753 85.1514 184.753 85.1514L184.751 85.1475Z" fill="#A88F33"/>
<path fill-rule="evenodd" clip-rule="evenodd" d="M184.751 131.892C184.751 131.892 188.284 123.198 189.901 115.487C190.199 113.938 190.794 112.391 190.943 111.141C191.687 103.846 191.895 100.839 190.943 96.849C190.199 93.905 187.342 91.2515 185.852 89.1946C184.394 87.0495 183.709 86.2506 184.007 85.7992C184.305 85.3478 185.465 84.6099 186.596 84.6982C187.798 84.7332 188.98 85.0122 190.07 85.5183C191.161 86.0244 192.137 86.747 192.939 87.6422C195.232 90.2918 197.047 99.2847 197.047 99.2847L198.957 111.151L203.81 126.097L184.755 131.904L184.751 131.892Z" fill="#C99E3D"/>
<path fill-rule="evenodd" clip-rule="evenodd" d="M217.948 122.842C217.948 122.842 217.292 123.139 216.103 122.842C216.154 123.329 216.069 123.819 215.859 124.26C215.649 124.702 215.321 125.076 214.912 125.343C213.662 124.837 201.958 125.849 201.958 125.849C201.958 125.849 196.51 124.895 194.812 117.69C193.623 112.896 195.705 106.287 195.02 101.94C193.978 95.5379 192.52 94.2857 192.371 92.2936C192.221 90.3015 192.072 89.7931 192.072 88.5429C191.417 88.3938 191.03 88.1857 190.376 88.1857C190.227 87.5969 190.524 87.0827 189.87 86.0405C190.227 86.1897 192.669 86.488 195.527 89.1965C197.882 91.4006 197.882 92.2033 198.237 92.6508C198.682 93.0963 202.286 96.1836 203.834 99.261C205.383 102.339 208.39 112.152 209.075 113.759C209.283 114.415 209.73 115.07 210.841 116.558C212.568 118.703 215.098 122.25 217.956 122.839L217.948 122.842Z" fill="#B58634"/>
<path fill-rule="evenodd" clip-rule="evenodd" d="M198.656 92.8C200.46 95.7136 202.08 98.7368 203.508 101.852C205.265 105.811 206.307 109.057 208.511 111.706C207.319 108.254 205.206 101.465 203.955 99.0531C202.556 96.5016 199.698 93.7539 198.656 92.802V92.8Z" fill="#A88F33"/>
<path fill-rule="evenodd" clip-rule="evenodd" d="M178.41 141.749C178.41 141.749 175.403 142.493 169.806 145.441C167.959 146.393 166.204 147.195 164.506 147.941C160.096 149.935 155.366 151.778 151.614 152.795C151.912 153.152 152.059 153.299 152.059 153.299C152.059 153.299 152.059 154.759 152.864 155.592C152.418 156.039 146.462 160.088 148.22 173.634C149.41 173.189 150.809 172.592 151.017 172.592C151.376 172.653 151.465 173.634 151.91 173.634C152.356 173.634 153.816 173.046 155.364 171.044C155.306 171.848 154.412 179.946 159.205 185.395C160.098 184.353 162.361 180.898 162.361 180.898L162.42 179.797C162.42 179.797 162.628 175.956 163.88 172.443C165.133 168.93 167.572 166.339 167.572 166.339L180.312 148.147L178.406 141.747L178.41 141.749Z" fill="#E6C367"/>
<path fill-rule="evenodd" clip-rule="evenodd" d="M166.5 168.461C165.917 168.873 165.274 169.194 164.594 169.413C164.386 168.669 164.088 166.108 165.845 163.607C167.899 160.598 172.394 156.698 173.644 153.597C174.449 151.601 174.092 146.601 181.238 140.198C188.384 133.796 191.181 131.594 191.181 131.594L202.733 125.788L216.935 131.386L209.879 159.04L204.401 171.994L182.616 167.886L166.498 168.461H166.5Z" fill="#DCBA5A"/>
<path fill-rule="evenodd" clip-rule="evenodd" d="M174.816 160.952L177.527 157.558V155.146C177.527 155.146 180.534 154.341 183.778 151.036C187.022 147.731 191.519 141.39 195.479 141.776C199.44 142.224 199.827 150.381 199.976 152.675C200.125 154.969 200.631 160.176 201.434 162.977C202.327 165.776 191.788 176.374 191.788 176.374L184.63 181.823L174.816 160.952Z" fill="#E9CE77"/>
<path fill-rule="evenodd" clip-rule="evenodd" d="M183.202 189.206C183.202 189.206 185.406 185.752 183.791 185.008C184.743 182.865 186.499 180.602 186.499 180.602C186.499 180.602 187.75 177.507 191.799 173.695C195.848 169.884 198.35 167.352 199.006 164.793C199.41 163.125 199.629 161.417 199.661 159.701C200.099 160.059 200.567 160.378 201.06 160.653C201.716 160.952 204.811 163.511 204.366 168.663C203.92 173.815 202.01 175.958 202.01 175.958C202.01 175.958 200.165 177.803 198.856 178.757C197.455 179.709 196.951 180.81 194.597 180.9C194.839 180.708 195.111 180.557 195.402 180.453C195.402 180.453 192.961 180.156 191.649 181.346C190.338 182.535 187.551 186.199 186.152 187.302C184.753 188.195 183.208 189.208 183.208 189.208L183.202 189.206Z" fill="#CDAE50"/>
<path fill-rule="evenodd" clip-rule="evenodd" d="M282.199 131.296C278.681 130.014 274.985 129.291 271.243 129.152C264.99 128.944 255.85 129.302 246.889 129.361C237.242 129.419 228.489 126.055 216.342 125.461C214.348 124.269 209.276 119.059 193.445 130.104C194.397 130.046 204.939 127.663 208.599 132.25C212.291 136.805 211.249 144.546 210.744 146.391C209.79 150.5 206.693 156.485 205.445 160.683C204.197 164.881 204.491 167.087 203.598 170.031C202.705 172.975 200.741 174.437 201.9 177.831C203.449 176.879 204.256 176.879 206.842 171.073C209.429 165.268 208.897 161.128 213.186 156.216C217.384 151.274 224.373 144.514 227.03 142.817C229.688 141.119 250.789 130.163 272.882 140.614C278.211 140.049 282.201 131.294 282.201 131.294L282.199 131.296Z" fill="#D2A83E"/>
<path fill-rule="evenodd" clip-rule="evenodd" d="M202.347 127.245C202.325 127.021 202.275 126.801 202.199 126.589C201.993 126.154 201.721 125.752 201.395 125.398C201.395 125.398 196.154 124.446 193.505 124.742C188.859 125.249 184.661 130.995 182.696 133.943C180.732 136.891 178.29 141.445 175.641 143.798C175.67 143.569 175.617 143.337 175.491 143.142C175.491 143.142 175.641 143.35 175.344 143.649C175.048 143.947 175.046 144.094 175.195 144.238L175.643 144.683C175.79 144.683 179.9 142.836 185.497 137.617C191.452 132.169 196.007 129.374 198.39 128.416C199.66 127.876 200.989 127.483 202.349 127.245V127.245H202.347Z" fill="#C29637"/>
<path fill-rule="evenodd" clip-rule="evenodd" d="M303.994 104.859C303.994 104.859 303.041 106.048 301.849 107.359C299.2 110.158 295.745 113.312 292.797 116.558C290.001 119.655 286.845 122.067 283.3 126.116C279.755 130.165 275.646 134.66 274.605 135.971C273.653 137.282 272.91 139.425 272.91 140.526C272.403 140.169 271.809 139.782 271.809 139.782C272.059 140.25 272.358 140.689 272.702 141.093C273.445 142.136 274.605 143.449 275.202 144.249C275.934 145.269 276.459 146.422 276.749 147.643C277.106 147.702 279.398 148.149 282.258 143.445C285.117 138.74 288.866 133.59 288.866 133.59L294.821 124.746L298.573 117.245L303.284 108.849L304 104.859H303.994Z" fill="#AC8132"/>
<path fill-rule="evenodd" clip-rule="evenodd" d="M310.099 98.845C310.099 98.845 306.496 101.789 305.096 103.555C303.697 105.322 300.386 109.958 300.386 109.958L301.577 109.808L307.622 104.45L309.977 100.252L310.097 98.8528L310.099 98.845Z" fill="#A88F33"/>
<path fill-rule="evenodd" clip-rule="evenodd" d="M308.996 335.454C308.996 335.454 308.937 333.013 310.307 331.554C311.707 330.094 315.249 327.951 318.704 319.912C322.158 311.873 322.543 310.057 322.543 310.057C322.543 310.057 316.35 315.357 312.533 316.607C313.426 314.76 313.932 313.451 314.38 312.497C313.873 312.051 311.73 311.545 311.522 311.308C312.712 310.116 313.367 307.198 315.779 305.263C318.876 302.907 324.533 298.86 328.929 295.253C333.325 291.646 341.969 283.255 343.072 280.814C343.728 281.765 343.875 282.36 343.875 282.36C343.875 282.36 339.529 288.019 337.266 291.62C335.27 294.717 335.42 296.474 335.42 296.474L339.529 294.707C339.529 294.707 340.719 299.114 335.331 305.814C337.686 304.921 338.636 305.457 339.975 304.711C337.771 306.112 334.735 308.018 331.877 313.256C329.078 318.497 325.267 324.601 318.837 328.41C312.584 332.43 308.98 335.437 308.98 335.437L308.996 335.454Z" fill="#A67A2E"/>
<path fill-rule="evenodd" clip-rule="evenodd" d="M292.858 134.395C292.858 134.395 290.417 139.484 290.06 143.445C290.001 144.399 289.761 145.142 289.761 146.243C289.702 149.786 289.969 153.747 289.173 155.592C288.874 154.848 288.725 154.341 288.427 154.045C287.981 155.295 287.177 159.195 286.521 160.653C286.225 159.701 285.569 156.396 285.63 152.497C285.691 148.597 285.777 147.851 285.777 147.048C285.63 148.238 284.825 149.847 284.527 150.799C284.081 149.996 283.575 148.954 282.978 148.09C282.621 148.679 282.176 149.549 281.789 149.996C281.728 149.639 281.581 148.685 281.491 147.346C281.432 145.798 281.342 143.804 281.432 143.386C281.579 142.583 282.831 139.427 285.481 136.538C288.637 133.084 291.883 126.446 292.835 124.391C293.787 122.336 297.836 113.793 297.836 113.793H300.933L296.436 124.034C296.436 124.034 293.728 129.631 292.329 131.688C290.929 133.745 287.981 139.639 286.67 141.931C287.622 140.681 288.427 140.026 289.381 138.834C290.303 138 292.862 134.399 292.862 134.399L292.858 134.395Z" fill="#8C6228"/>
<path fill-rule="evenodd" clip-rule="evenodd" d="M310.158 98.4564C309.652 100.013 308.852 101.459 307.802 102.715C305.955 104.919 301.995 107.865 300.062 110.217C298.295 112.509 294.762 118.762 296.368 126.175C296.957 124.568 298.066 121.382 301.013 117.779C303.961 114.175 307.117 110.038 308.668 106.823C310.214 103.577 310.422 101.018 310.422 101.018L311.011 100.274L310.654 98.5761L310.148 98.4564H310.158Z" fill="#CBA94C"/>
<path fill-rule="evenodd" clip-rule="evenodd" d="M370.449 295.944C370.449 295.944 369.258 292.7 368.9 289.752C368.543 286.804 369.489 286.219 368.394 282.845C367.739 280.79 366.549 281.079 366.251 280.79C365.952 280.502 365.744 277.397 365.803 275.699C365.862 274.001 365.744 271.799 365.446 270.845C365.001 270.488 364.702 270.19 364.047 267.988C363.303 265.784 362.946 264.683 362.588 264.029C362.231 263.375 361.187 262.779 361.187 262.123C361.187 260.812 362.378 260.129 362.378 259.768C362.32 259.024 361.427 259.621 361.187 259.411C360.891 259.054 361.933 256.91 361.546 256.612C361.397 256.465 360.355 257.715 360.086 257.358C359.788 256.999 359.431 253.456 358.895 251.105C358.39 248.812 357.853 247.146 357.794 246.461C357.735 245.806 353.684 234.253 352.703 231.455C351.912 229.09 351.246 226.685 350.708 224.25C350.41 222.85 350.202 219.991 350.053 220.289C349.904 220.587 349.994 222.046 349.755 221.987C349.547 221.926 348.803 216.837 348.565 216.032C348.357 215.227 347.105 212.499 346.799 210.525C346.5 208.529 345.847 203.318 345.399 199.775C344.952 196.233 344.744 194.774 344.744 193.887C344.817 191.717 344.698 189.545 344.387 187.397C343.798 183.644 342.62 179.089 341.588 176.441C339.594 171.438 334.293 158.636 333.345 155.45C333.345 154.646 334.387 155.093 334.387 155.093C334.387 155.093 336.976 161.584 338.881 166.584C340.728 171.587 342.485 175.993 342.932 176.441C343.29 176.887 346.088 181.799 347.339 189.838C348.589 197.877 349.034 205.29 349.78 210.232C350.137 212.587 350.436 215.086 351.179 217.586C351.982 220.297 353.232 223.096 354.871 227.382C356.271 230.985 357.313 233.992 357.878 236.583C358.534 239.888 358.534 242.389 358.92 244.027C359.279 245.427 359.813 248.224 361.065 252.271C362.318 256.318 364.161 261.53 365.411 264.775C367.854 271.265 368.944 276.684 369.313 279.573C369.638 282.551 370.741 292.853 370.443 295.948L370.449 295.944Z" fill="#A88F33"/>
<path fill-rule="evenodd" clip-rule="evenodd" d="M310.307 98.0992L310.157 98.4564C310.157 98.4564 310.603 98.6056 310.515 99.2022C310.521 100.019 310.471 100.834 310.365 101.644C310.218 102.686 309.92 103.489 309.861 104.144C309.861 105.544 310.069 107.151 308.095 111.141C307.506 112.242 307.143 113.194 306.844 113.85C306.101 115.457 305.951 115.696 305.296 116.44C306.338 115.852 310.091 113.496 311.994 113.85C310.685 114.593 308.689 116.054 307.439 117.959C307.737 118.018 308.988 118.258 310.972 117.959C314.277 117.453 317.969 116.262 321.213 116.499C324.758 116.707 323.358 112.242 323.358 112.242L319.268 103.251L311.527 97.8048L310.307 98.1012V98.0992Z" fill="#BE9C44"/>
<path fill-rule="evenodd" clip-rule="evenodd" d="M330.493 165.448C330.493 165.448 327.038 161.994 325.639 150.139C324.239 138.23 324.538 120.699 324.538 120.699L321.739 113.852C321.739 113.852 321.15 109.296 319.684 107.6C318.218 105.905 315.339 103.045 314.028 101.646C312.717 100.246 311.229 98.3406 310.336 98.0423C310.781 97.2984 312.778 93.1003 320.428 93.0414C328.078 92.9825 330.438 97.2395 331.236 98.7881C332.035 100.337 335.643 107.031 336.981 119.789C338.231 132.53 338.292 133.484 338.084 137.89C337.935 140.332 337.13 145.988 335.729 152.031C334.449 157.154 333.05 162.871 330.489 165.46L330.493 165.448Z" fill="#A17C34"/>
<path fill-rule="evenodd" clip-rule="evenodd" d="M319.661 175.601C320.812 175.684 321.962 175.425 322.966 174.855C324.067 174.796 328.057 175.303 331.123 171.403C331.331 172.294 331.869 174.708 330.468 176.851C331.213 176.105 332.314 175.809 332.464 175.601C332.522 176.702 333.565 180.095 329.158 188.343C330.348 187.034 331.747 187.092 332.997 186.943C333.058 188.492 333.89 193.701 331.688 196.501C330.23 198.407 327.847 197.811 327.847 197.811C327.882 197.394 327.882 196.976 327.847 196.56C327.788 195.756 327.49 194.953 327.7 194.417C326.549 193.891 325.5 193.165 324.603 192.272C322.012 189.83 318.648 185.664 318.411 182.566C318.113 179.112 321.21 178.368 321.21 178.368C320.95 178.136 320.729 177.865 320.554 177.564C320.405 177.059 320.256 176.255 319.661 175.601V175.601Z" fill="#8C6228"/>
<path fill-rule="evenodd" clip-rule="evenodd" d="M296.698 138.146C296.698 138.146 296.549 137.937 295.746 138.889C295.895 137.937 296.044 137.042 296.103 136.179C296.483 135.379 296.975 134.638 297.564 133.977C297.116 134.868 296.818 135.673 296.818 135.673C296.818 135.673 297.921 133.618 299.528 132.367C300.629 131.474 302.029 131.058 302.623 130.224C303.279 129.331 303.13 129.182 303.279 129.033C303.279 129.033 304.739 128.081 306.973 125.28C307.269 124.923 307.716 124.536 308.015 124.179C308.519 123.971 309.71 123.435 311.11 122.719C312.57 121.916 314.207 120.815 315.22 120.364C317.214 119.471 319.33 119.561 320.311 118.16C321.055 117.952 321.857 115.718 321.71 113.814C322.811 114.26 328.468 117.773 330.405 125.455C331.804 130.903 329.302 139.3 328.26 143.351C327.217 147.401 327.07 150.406 325.61 152.251C323.763 154.695 317.81 158.139 316.35 159.845C315.1 161.244 311.349 164.787 311.496 167.346C311.646 169.252 313.997 170.29 314.505 170.651C315.014 171.012 315.01 171.456 315.964 171.24C316.917 171.024 317.273 170.584 317.661 170.584C318.107 170.643 318.107 170.734 318.315 170.734C318.466 170.729 318.616 170.709 318.762 170.673C318.762 170.673 318.613 173.383 312.272 174.206C311.824 174.266 311.379 174.414 310.812 174.504C311.557 174.147 312.003 174.147 312.808 173.046C311.915 172.896 309.353 172.747 308.698 172.539C308.906 172.182 309.591 171.228 310.156 170.783C310.662 170.337 310.097 170.194 309.652 170.425C308.885 170.947 308.149 171.514 307.448 172.121C306.704 172.777 306.048 173.67 304.857 174.476C304.5 173.285 304.558 171.022 305.96 169.385C305.601 169.444 304.916 170.486 304.262 170.278C304.144 169.192 304.214 168.094 304.47 167.032C304.827 165.692 306.763 163.34 306.763 163.34L316.111 146.636L318.105 133.983L296.698 138.142V138.146Z" fill="#92723A"/>
<path fill-rule="evenodd" clip-rule="evenodd" d="M296.194 138.86C296.194 138.86 295.687 139.217 296.7 139.902C296.551 140.11 296.194 140.854 295.746 141.36C295.242 141.949 294.704 142.314 294.496 142.82C294.05 143.863 293.693 144.577 293.693 145.025C293.693 145.472 293.544 148.33 292.294 150.175C291.846 150.83 291.34 151.931 290.983 152.675C290.239 153.984 289.583 155.03 289.434 155.619C289.138 156.661 288.93 159.519 288.93 159.519C288.93 159.519 289.585 158.714 289.823 158.418C289.464 159.162 289.077 159.964 288.512 160.561C288.869 160.263 289.911 159.519 291.668 157.97C294.109 155.917 297.921 152.463 302.566 149.727C301.165 150.233 299.976 150.233 299.024 150.383C299.768 149.639 306.466 141.778 309.979 141.034C310.193 140.764 310.299 140.424 310.278 140.081L307.269 139.784L301.165 141.093L300.274 136.383L296.194 138.854V138.86Z" fill="#B18E3E"/>
<path fill-rule="evenodd" clip-rule="evenodd" d="M305.9 165.656C305.9 165.656 305.096 166.459 304.352 168.455C303.779 167.857 303.288 167.186 302.891 166.459C301.79 164.614 300.095 162.261 296.134 163.601C296.075 162.351 295.985 161.696 296.134 160.803C296.79 160.655 298.784 159.048 300.778 156.695C302.179 155.087 303.488 153.24 304.381 150.889C304.97 150.442 305.989 149.698 307.325 148.834C309.231 147.525 311.523 145.737 311.88 143.743C310.987 144.1 309.082 144.993 306.222 144.846C307.325 144.34 309.021 143.804 308.813 141.6C309.26 141.301 309.618 141.093 309.618 141.093C309.282 140.982 308.929 140.931 308.575 140.944C308.515 140.736 308.426 140.44 307.92 140.587C307.413 140.734 307.331 140.736 307.264 140.944C307.056 141.005 306.371 140.944 305.865 141.303C305.359 141.663 303.959 142.85 303.423 143.058C303.631 142.701 303.928 142.167 303.928 142.167C303.928 142.167 302.469 142.314 301.427 142.756C299.522 143.411 297.319 144.603 295.086 145.763C295.294 145.405 295.384 145.174 295.531 145.107C295.679 145.04 296.038 144.96 296.038 144.899C296.038 144.838 295.891 144.31 295.979 144.096C296.647 142.682 297.435 141.327 298.334 140.047C299.376 138.646 299.584 136.652 299.584 136.652L304.14 134.36L316.942 131.416L325.25 131.922L324.208 137.669L319.301 147.702L315.103 156.842L310.308 162.441L305.902 165.656H305.9Z" fill="#543E26"/>
<path fill-rule="evenodd" clip-rule="evenodd" d="M326.651 140.787C326.651 140.787 321.649 146.979 320.249 147.933C321.142 146.028 326.651 134.683 328.645 131.527C328.2 131.17 327.603 131.17 329.003 125.639C327.813 128.436 327.395 129.896 326.414 130.64C325.433 131.384 325.311 131.147 324.648 131.147C324.773 130.92 324.824 130.66 324.795 130.403C324.795 130.403 320.597 129.896 317.729 129.896C314.862 129.896 309.186 131.445 306.028 132.695C303.527 133.737 302.128 133.737 301.235 134.391C300.342 135.135 299.835 135.939 299.388 136.148C299.031 136.356 297.335 136.891 296.946 137.457C296.589 138.045 295.995 138.707 295.995 138.856C295.995 139.005 295.845 139.215 296.293 139.064C296.44 139.005 297.543 138.409 298.793 137.665C300.489 136.713 302.544 135.612 304.034 134.956C308.291 133.258 309.631 133.557 311.535 133.2C313.529 132.842 316.389 132.008 318.292 132.008C320.198 131.949 323.802 132.008 324.636 132.157C324.279 132.456 323.98 132.813 324.129 134.063C324.129 134.42 323.831 134.807 323.541 135.671C322.65 138.112 320.952 142.161 320.008 144.216C318.699 147.013 317.211 149.366 316.475 150.824C315.739 152.283 314.12 156.124 312.516 158.178C310.913 160.233 310.075 161.484 309.572 161.931C309.07 162.379 305.462 165.026 305.731 165.98C306.387 165.772 310.526 164.214 313.531 160.83C316.536 157.446 317.134 155.382 319.486 153.535C321.837 151.688 323.684 148.593 324.785 146.033C325.707 143.651 325.499 142.907 326.659 140.793L326.651 140.787Z" fill="#806031"/>
<path fill-rule="evenodd" clip-rule="evenodd" d="M218.843 187.004C218.843 187.004 218.187 189.713 216.698 191.053C215.239 192.364 212.649 193.495 212.352 195.699C211.995 197.901 214.943 199.004 214.943 199.004C214.943 199.004 213.334 201.653 213.334 203.647C213.334 205.702 213.275 206.089 213.483 208.054C213.247 208.206 213.046 208.406 212.894 208.642C212.894 208.642 213.041 210.548 214.501 211.738C215.962 212.927 217.21 213.643 217.954 213.345C218.067 213.588 218.167 213.837 218.252 214.091C218.252 214.091 219.355 211.292 220.099 208.851C220.843 206.35 221.498 206.705 221.795 203.341C222.091 199.977 225.327 194.201 225.327 194.201L227.535 189.265L223.934 186.466L218.843 187.002V187.004Z" fill="#B6903C"/>
<path fill-rule="evenodd" clip-rule="evenodd" d="M225.541 191.856C224.798 192.618 224.113 193.434 223.49 194.297C222.538 195.608 221.794 196.798 220.395 197.306C218.995 197.814 218.102 197.81 218.191 199.212C218.279 200.613 219.59 201.206 220.334 201.92C221.138 202.664 221.794 203.914 221.437 205.316C221.882 205.108 222.687 204.868 223.431 203.261C224.175 201.653 229.378 191.858 229.378 191.858H225.541V191.856Z" fill="#685026"/>
<path fill-rule="evenodd" clip-rule="evenodd" d="M246.061 169.258C246.061 169.258 246.507 168.068 246.061 167.205C245.614 166.312 242.905 166.013 241.565 165.001C240.165 163.958 238.468 163.234 237.068 163.692C237.276 163.185 238.11 162.082 237.425 161.845C236.77 161.637 234.33 162.738 233.675 163.244C233.019 163.75 231.53 164.345 231.233 164.704C230.937 165.063 230.429 165.746 230.13 165.448C229.832 165.24 229.685 164.704 229.178 165.001C228.672 165.297 226.234 167.293 225.785 168.455C225.335 169.617 224.325 172.208 221.288 175.154C218.252 178.099 216.941 180.007 217.834 181.108C218.727 182.209 219.145 181.407 219.294 182.358C219.409 183.293 219.359 184.24 219.145 185.157C218.788 186.706 218.193 188.164 218.996 188.462C221.051 189.118 223.047 187.874 223.492 188.254C224.385 189.057 222.986 191.946 225.1 192.511C227.245 193.1 229.359 192.005 229.359 192.005L237.158 187.807L244.662 183.848L248.501 176.255L246.442 169.913L246.049 169.258H246.061Z" fill="#D4B968"/>
<path fill-rule="evenodd" clip-rule="evenodd" d="M238.701 187.391C238.701 187.391 237.39 185.397 238.999 183.638C240.608 181.88 242.899 181.138 243.792 180.037C243.622 179.827 243.394 179.672 243.136 179.591C243.729 178.53 244.633 177.677 245.727 177.148C245.282 176.702 244.685 176.345 244.031 176.345C242.571 176.345 241.676 177.238 240.338 177.238C239.028 177.238 238.879 176.582 238.879 176.582C238.879 176.582 241.083 176.374 240.873 175.391C240.665 174.349 240.285 174.349 240.285 174.349C240.285 174.349 244.542 172.582 245.285 171.64C246.029 170.698 245.941 169.585 246.09 169.14C246.595 169.14 249.542 167.591 250.734 168.247C251.925 168.902 251.091 170.688 251.091 170.688C251.091 170.688 254.696 167.978 256.533 165.321C258.141 165.47 258.889 164.219 260.066 164.219C261.527 164.219 263.819 166.214 264.264 170.471C264.563 172.912 265.008 174.312 264.563 178.629C264.355 181.071 264.414 186.284 265.152 188.871C265.656 190.925 266.847 190.717 266.847 190.717C266.665 191.344 266.302 191.902 265.805 192.325C265 193.069 264.912 195.035 265 195.779C265.119 196.323 265.268 196.86 265.448 197.387C265.448 197.387 264.496 198.488 264.257 199.233C264.049 199.977 263.067 200.484 262.351 200.484C261.634 200.484 261.994 200.423 261.042 200.484C260.09 200.545 259.792 200.692 259.195 200.484C258.598 200.276 258.153 200.036 258.392 198.128C258.6 196.223 251.038 191.787 251.038 191.787L238.673 187.381L238.701 187.391Z" fill="#CCA849"/>
<path fill-rule="evenodd" clip-rule="evenodd" d="M224.499 206.207C224.499 206.207 227.208 209.81 238.344 209.81C243.643 209.81 245.49 209.304 246.587 209.006C247.778 208.707 252.243 206.953 256.74 201.651C260.789 196.859 259.896 194.894 259.896 194.894L257.541 194.537L249.886 195.579L227.237 205.225L224.489 206.207H224.499Z" fill="#585136"/>
<path fill-rule="evenodd" clip-rule="evenodd" d="M232.805 207.1C232.805 207.1 223.158 209.245 223.158 203.141C223.158 197.186 229.113 190.933 230.603 189.832C232.151 188.729 235.843 187.477 235.843 187.477H244.746L246.441 191.974L245.697 201.679L232.805 207.098V207.1Z" fill="#252211"/>
<path fill-rule="evenodd" clip-rule="evenodd" d="M241.707 189.296C241.707 189.296 239.862 187.599 235.664 189.885C231.466 192.172 228.071 196.951 227.863 201.29C227.655 205.129 231.019 207.989 236.259 208.138C240.159 208.285 242.512 207.84 243.703 207.549C243.405 207.192 241.856 205.257 241.856 205.257L241.709 189.298L241.707 189.296Z" fill="#C3B378"/>
<path fill-rule="evenodd" clip-rule="evenodd" d="M239.893 190.246C239.893 190.246 239.447 189.889 238.126 190.604C237.025 191.192 235.418 192.749 234.167 193.85C233.363 194.505 232.856 194.802 232.401 195.308C230.554 197.512 229.006 201.116 229.901 202.902C230.796 204.688 233.742 206.743 241.245 205.343L239.871 190.248L239.893 190.246Z" fill="#E6D89C"/>
<path fill-rule="evenodd" clip-rule="evenodd" d="M237.451 193.94C237.451 193.94 236.259 195.787 236.259 198.735C236.259 201.742 237.957 206.535 244.21 206.892C249.003 207.19 252.218 199.985 255.702 197.186C258.351 195.043 259.959 194.982 259.959 194.982C259.959 194.982 257.25 192.038 250.016 188.225C242.87 184.384 234.86 183.878 230.513 189.773C232.568 189.624 239.207 187.926 239.207 187.926L242.454 188.969L237.451 193.942V193.94Z" fill="#252211"/>
<path fill-rule="evenodd" clip-rule="evenodd" d="M246.798 197.84C246.59 197.394 246.441 196.798 247.305 196.651C248.168 196.503 248.555 196.59 248.853 197.239C249.152 197.889 249.442 198.431 249 198.7C248.555 198.937 247.393 198.7 246.796 197.836L246.798 197.84ZM245.399 193.642C245.399 193.642 245.101 193.85 245.25 193.434C245.309 192.929 245.697 192.034 246.649 192.244C247.601 192.454 247.395 193.495 247.238 193.793C247.081 194.091 246.286 194.596 245.689 194.382C245.614 194.362 245.544 194.325 245.485 194.274C245.426 194.223 245.381 194.158 245.352 194.085C245.322 194.013 245.311 193.935 245.318 193.857C245.325 193.779 245.35 193.704 245.391 193.638L245.399 193.642Z" fill="#6F674D"/>
<path fill-rule="evenodd" clip-rule="evenodd" d="M164.807 195.546C164.807 195.546 167.162 197.312 169.898 197.243C172.606 197.182 176.09 194.386 177.697 192.598C178.649 191.555 179.464 190.454 180.347 189.591C181.093 188.847 181.597 188.49 181.954 187.983C182.461 187.395 182.997 186.288 183.266 185.928C182.61 186.435 181.658 187.33 180.675 187.924C179.723 188.513 177.668 189.62 176.834 189.919C176.031 190.217 167.694 194.629 167.694 194.629L164.807 195.546Z" fill="#AC924C"/>
<path fill-rule="evenodd" clip-rule="evenodd" d="M168.406 173.546C168.406 173.546 169.715 172.653 172.247 172.086C174.689 171.497 179.601 171.044 179.601 171.044L183.65 172.81L185.258 178.914L182.314 185.257L178.563 187.613L174.304 180.765L168.416 173.558L168.406 173.546Z" fill="#9F8E57"/>
<path fill-rule="evenodd" clip-rule="evenodd" d="M163.106 178.994L161.705 180.041C161.705 180.041 162.064 179.385 162.361 177.391C162.657 175.397 164.207 170.543 166.47 167.744C168.733 164.946 168.675 165.095 168.675 165.095C168.466 165.057 168.252 165.063 168.047 165.115C167.841 165.166 167.649 165.26 167.483 165.391C167.781 164.732 169.687 162.377 171.593 161.199C173.499 160.021 174.243 159.65 176.237 160.61C178.231 161.57 178.737 162.068 180.197 162.01C181.658 161.951 182.906 160.402 182.906 160.402C182.906 160.402 183.204 161.354 182.103 163.558C181.002 165.762 176.655 170.257 176.655 170.257L167.603 176.449L163.106 179V178.994Z" fill="#EAC970"/>
<path fill-rule="evenodd" clip-rule="evenodd" d="M169.804 172.802C169.804 172.802 176.355 173.695 178.349 171.85C178.408 172.058 178.648 172.058 178.648 172.207C178.631 172.32 178.579 172.424 178.498 172.504C178.715 172.469 178.934 172.45 179.154 172.445C179.416 172.523 179.686 172.573 179.959 172.594C180.178 172.589 180.397 172.569 180.614 172.533C180.593 172.681 180.543 172.824 180.466 172.952C180.389 173.08 180.287 173.191 180.167 173.279C180.465 173.279 180.755 173.338 180.755 173.575C180.755 173.813 180.814 174.529 180.457 174.678C180.161 174.76 179.846 174.739 179.564 174.618C179.588 175.181 179.741 175.732 180.012 176.227C180.6 177.328 181.856 178.582 183.544 178.221C183.544 178.221 184.435 180.364 180.685 185.128C180.18 185.783 179.643 186.676 178.989 187.42C178.731 187.983 178.533 188.572 178.4 189.177C178.4 189.177 184.744 186.735 186.559 181.167C188.406 175.57 188.763 170.062 188.406 164.912C188.345 163.452 188.108 162.412 187.75 161.666C186.857 159.819 184.355 160.117 183.344 161.16C181.884 162.62 179.442 166.251 176.049 168.751C172.595 171.252 172.447 171.695 169.796 172.802H169.804Z" fill="#D7BC6B"/>
<path fill-rule="evenodd" clip-rule="evenodd" d="M161.945 180.841C161.945 180.841 160.695 181.585 160.039 184.374C159.384 187.232 160.628 190.715 161.348 191.816C162.069 192.918 163.704 195.926 167.095 196.075C167.934 196.071 168.765 195.899 169.537 195.569C170.721 195.026 171.831 194.336 172.842 193.514C174.302 192.413 175.491 191.461 175.342 191.371C174.985 191.222 166.351 184.076 166.351 184.076L163.105 180.453L161.943 180.845L161.945 180.841Z" fill="#585136"/>
<path fill-rule="evenodd" clip-rule="evenodd" d="M170.106 192.69C170.106 192.69 171.863 192.543 172.905 191.887C173.947 191.232 166.801 184.146 166.801 184.146L167.307 191.801L170.106 192.69Z" fill="#453A25"/>
<path fill-rule="evenodd" clip-rule="evenodd" d="M162.51 180.304C162.51 180.304 161.617 182.001 161.617 182.449C161.468 183.907 161.916 188.492 162.273 189.95C162.63 191.499 164.565 193.85 167.068 193.85C168.614 193.85 170.759 192.898 170.759 192.661C170.759 192.362 168.555 192.072 167.961 190.963C167.604 190.374 167.454 188.91 167.372 187.43C167.313 186.478 167.313 185.436 167.67 185.075C168.475 184.182 168.622 181.621 168.622 181.621L171.48 176.312H167.721L163.225 179.11L162.51 180.304Z" fill="#84754B"/>
<path fill-rule="evenodd" clip-rule="evenodd" d="M161.409 181.942C161.409 181.942 164.353 178.043 167.007 177.148C169.66 176.253 170.848 176.79 170.848 176.79L169.299 180.751L167.095 183.193L167.244 184.443C167.244 184.443 166.885 187.748 169.089 190.04C171.293 192.333 172.93 192.244 173.884 192.244C174.838 192.244 177.576 191.44 178.975 188.135C180.225 185.039 181.267 181.069 178.767 177.089C176.323 173.128 172.008 172.975 171.173 172.975C170.339 172.975 163.79 173.303 161.409 181.937V181.942Z" fill="#252211"/>
<path fill-rule="evenodd" clip-rule="evenodd" d="M237.003 195.19C235.902 194.684 236.944 191.589 238.045 190.635C239.146 189.681 240.545 188.582 242.989 188.431C243.88 188.372 244.743 188.937 244.596 189.534C244.388 190.635 242.84 192.184 241.44 193.285C239.505 194.804 238.253 195.756 237.003 195.19Z" fill="#F7F7E7"/>
<path fill-rule="evenodd" clip-rule="evenodd" d="M177.456 178.31C178.26 178.251 179.302 178.898 179.51 179.77C179.719 180.722 179.004 182.627 177.456 182.627C176.205 182.627 175.55 181.079 175.55 180.633C175.564 180.267 175.666 179.909 175.848 179.591C175.907 179.501 176.056 178.459 177.456 178.31V178.31Z" fill="#F8F6DE"/>
<path fill-rule="evenodd" clip-rule="evenodd" d="M165.844 178.994C165.844 178.994 163.789 179.946 162.837 181.938C162.157 183.409 161.951 185.056 162.249 186.649C162.398 187.393 163.142 189.238 163.648 189.893C164.154 190.549 164.839 190.996 165.346 190.935C165.852 190.874 166.892 189.536 166.892 188.733C166.892 187.93 166.953 184.535 167.934 182.688C168.798 180.843 165.85 178.996 165.85 178.996L165.844 178.994Z" fill="#D4C38B"/>
<path fill-rule="evenodd" clip-rule="evenodd" d="M166.143 178.845C165.786 179.053 165.191 179.352 165.338 179.738C165.488 180.095 166.738 180.327 167.185 181.198C167.692 182.092 167.692 183.043 167.542 183.491C167.931 183.306 168.284 183.054 168.585 182.745C169.24 182.001 170.043 180.99 170.728 180.99C171.175 180.99 171.621 181.198 172.039 181.198C172.694 181.198 173.348 180.99 173.438 180.305C173.586 179.412 172.188 178.608 171.383 178.757C171.533 178.168 171.741 177.299 171.085 176.702C170.43 176.105 168.377 177.15 167.929 177.448C167.482 177.746 166.143 178.847 166.143 178.847V178.845Z" fill="#E2D59D"/>
<path fill-rule="evenodd" clip-rule="evenodd" d="M213.453 241.399L217.859 240.098L219.109 240.991C219.109 240.991 220.001 242.897 221.402 243.134C220.954 244.086 219.792 244.901 219.853 245.576C219.914 246.251 220.509 246.767 220.509 246.767C220.509 246.767 216.548 253.317 224.35 259.917C222.503 260.661 220.152 261.684 218.901 262.272C219.792 262.48 221.698 262.861 222.503 263.583C223.308 264.306 223.308 264.535 224.051 264.983C224.795 265.43 225.241 266.025 225.094 266.292C224.587 265.994 222.89 265.103 222.593 265.935C222.297 266.767 215.239 266.441 215.239 266.441L203.33 268.733C203.33 268.733 203.775 267.542 202.525 266.441C201.067 265.132 199.281 266.5 197.375 265.042C194.874 263.136 194.784 260.932 193.981 260.1C194.784 259.593 196.423 258.849 200.323 258.333C200.174 258.035 199.667 257.142 199.966 256.339C200.323 255.297 201.811 254.642 201.365 253.395C202.021 253.246 202.317 253.246 203.956 251.191C205.504 249.136 206.456 248.691 207.647 248.542C208.839 248.392 209.553 248.542 211.757 246.487C213.304 245.028 212.799 243.778 212.799 243.778C212.799 243.778 213.81 243.45 213.455 241.395L213.453 241.399Z" fill="#CBAC5A"/>
<path fill-rule="evenodd" clip-rule="evenodd" d="M200.442 242.061C200.501 241.762 200.741 241.613 202.348 241.762C203.956 241.912 214.138 240.811 216.907 240.661C219.706 240.453 229.561 240.601 234.355 241.613C239.15 242.626 244.002 243.817 246.353 244.412C248.708 245.068 249.45 245.303 249.36 245.601C249.301 245.9 248.771 246.19 248.467 246.108C248.171 246.049 240.369 243.666 237.959 243.164C235.549 242.661 227.209 241.317 222.65 241.397C218.393 241.458 216.695 241.339 213.094 241.755C209.49 242.202 203.536 242.797 201.75 242.559C199.983 242.351 200.348 242.351 200.439 242.053L200.442 242.061Z" fill="#D6BC6F"/>
<path fill-rule="evenodd" clip-rule="evenodd" d="M224.409 265.397C224.409 265.397 230.513 268.702 232.717 272.751C234.324 275.758 231.765 277.247 231.765 277.247C231.765 277.247 235.219 277.247 234.772 279.153C234.564 280.343 228.817 283.557 224.976 285.255C221.076 286.953 221.225 286.865 219.32 287.161C217.473 287.459 212.411 286.572 211.369 288.054C210.327 289.536 210.78 291.063 211.071 291.3C211.369 291.508 213.781 291.807 213.781 291.807C213.781 291.807 213.275 293.206 208.274 293.355C203.273 293.504 202.021 293.859 201.722 294.397C201.424 294.902 202.674 294.605 204.969 294.986C207.261 295.343 210.476 295.575 210.476 295.575C210.476 295.575 209.434 296.468 206.725 297.182C203.628 297.985 198.774 298.731 197.316 299.624C198.06 300.13 199.163 300.874 199.671 300.933C198.421 301.231 196.663 301.887 196.366 302.124C196.812 302.423 197.408 302.78 197.408 302.78C197.408 302.78 194.906 305.787 193.448 306.532C191.989 307.278 183.593 311.176 180.704 310.432C173.499 308.526 172.606 300.637 170.85 300.042C168.2 299.149 166.95 300.933 164.597 299.683C165.639 298.939 166.206 298.493 167.307 297.987C166.116 297.398 159.953 293.49 159.953 293.49C159.308 292.086 158.593 290.715 157.81 289.383C156.618 287.328 154.866 284.588 153.551 282.176C150.693 276.877 150.544 274.435 147.953 271.428C148.401 270.839 149.947 270.922 149.947 270.922L171.654 278.068L210.144 279.183L220.154 264.892L224.411 265.399L224.409 265.397Z" fill="#DFC677"/>
<path fill-rule="evenodd" clip-rule="evenodd" d="M167.394 287.19C167.626 287.449 167.897 287.67 168.196 287.846C168.942 288.352 170.043 288.949 170.787 289.84C171.085 289.394 171.829 288.59 173.142 289.84C174.455 291.09 176.086 290.199 177.101 290.496C178.143 290.855 178.202 291.002 178.202 291.002C178.202 291.002 178.791 290.496 180.108 289.96C180.912 289.661 181.864 289.453 182.906 289.157C183.858 288.949 184.901 288.651 185.617 288.651C186.272 289.096 188.624 291.595 198.062 287.907C206.965 284.452 209.018 284.066 210.507 284.6C210.657 284.242 210.806 283.558 213.098 283.648C213.098 282.696 211.192 279.45 211.192 279.45L200.682 275.848H194.934L177.696 279.004L168.143 284.454L167.399 287.202L167.394 287.19Z" fill="#C4A859"/>
<path fill-rule="evenodd" clip-rule="evenodd" d="M161.646 281.147C161.646 281.147 161.855 282.755 164.237 284.452C166.592 286.148 167.332 287.161 167.332 287.161C167.332 287.161 167.78 286.572 168.137 285.972C168.494 285.316 168.793 284.572 169.387 284.364C170.579 283.858 173.287 284.81 173.884 284.66C174.39 284.513 174.241 283.471 174.777 283.471C176.027 283.41 176.83 284.274 177.277 284.274C177.725 284.274 178.824 284.215 178.973 283.977C179.122 283.74 179.181 281.267 180.879 280.076C182.726 278.767 184.988 279.332 185.589 279.63C185.589 280.076 185.648 281.179 186.839 281.238C188.031 281.296 188.148 281.088 189.194 281.446C190.241 281.803 191.487 281.387 192.052 283.141C192.558 282.994 193.75 282.845 193.452 281.147C194.04 280.702 194.555 280.403 195.807 278.647C196.105 278.201 196.609 277.695 196.998 277.039C198.04 277.039 199.29 276.831 200.957 278.29C200.45 278.647 200.152 278.878 200.005 279.242C200.441 279.673 200.839 280.141 201.194 280.641C201.642 281.23 201.94 281.952 202.505 282.101C203.756 282.458 205.81 281.952 208.103 282.101C210.307 282.25 212.152 283.053 212.956 283.559C213.255 283.412 213.255 283.351 213.999 283.501C214.743 283.65 215.308 283.709 214.505 282.757C214.951 282.965 215.457 283.412 215.904 282.965C216.352 282.517 216.707 281.864 217.957 281.715C219.208 281.565 219.655 281.773 220.161 280.464C220.817 278.857 218.554 278.857 218.554 278.857C218.554 278.857 219.596 277.903 220.758 276.653C222.157 275.344 223.765 273.646 224.152 271.562C224.807 267.721 221.056 267.216 221.056 267.216L202.864 272.814L180.624 271.711L161.658 281.149L161.646 281.147Z" fill="#927D49"/>
<path fill-rule="evenodd" clip-rule="evenodd" d="M145.301 228.597C145.301 228.597 144.713 229.341 144.349 231.097C143.986 232.854 144.141 232.646 143.843 233.896C143.545 235.146 139.88 247.592 141.254 251.79C142.628 255.988 145.007 257.536 146.495 260.93C146.793 261.674 147.083 262.121 147.238 262.777C147.745 264.979 147.299 266.677 147.894 268.881C148.102 269.625 148.64 270.488 149.443 271.381C151.209 273.226 154.088 274.983 155.331 276.233C157.085 278.08 159.588 281.832 162.773 282.188C164.471 282.396 166.883 281.681 168.877 280.492C170.643 279.389 171.735 277.842 173.587 276.959C174.896 276.303 176.296 276.066 177.546 275.768C180.137 275.261 182.49 275.179 183.889 275.469C186.033 275.917 191.094 277.465 193.899 277.465C196.09 277.43 198.27 277.13 200.389 276.572C204.646 275.322 209.797 273.177 213.192 272.225C215.186 271.636 216.793 271.481 218.432 271.124C221.231 270.468 223.582 269.575 224.923 267.878C224.03 266.836 222.929 265.228 216.972 265.287C210.215 265.436 202.413 269.187 198.572 269.784C194.731 270.38 193.065 270.885 188.776 269.336C184.572 267.772 184.433 266.737 184.433 266.737C184.433 266.737 180.019 263.65 178.172 255.78C176.325 247.91 178.172 242.175 182.967 236.724C184.217 235.325 183.919 234.075 183.919 234.075C183.919 234.075 187.075 229.818 186.211 225.832C185.259 221.871 179.155 222.676 179.155 222.676L145.303 228.597H145.301Z" fill="#6E6342"/>
<path fill-rule="evenodd" clip-rule="evenodd" d="M150.393 241.847C150.13 242.34 150.007 242.896 150.035 243.454C150.094 244.257 150.334 245.299 152.744 247.652C154.799 249.705 154.351 251.998 154.351 251.998C154.351 251.998 155.386 252.206 158.192 250.893C160.396 249.851 161.136 251.697 161.136 251.697C161.778 251.361 162.473 251.139 163.191 251.042C163.842 250.982 164.471 250.781 165.036 250.453C165.036 250.453 167.627 253.103 169.89 254.353C171.945 255.456 173.136 256.2 174.149 255.456C175.101 254.8 175.101 253.46 175.04 252.865C174.804 252.316 174.505 251.797 174.149 251.317C173.493 250.365 172.451 249.262 172.382 248.373C172.233 246.32 173.931 243.876 173.572 243.282C173.212 242.687 171.876 242.538 168.571 243.729C165.148 244.86 150.379 241.853 150.379 241.853L150.393 241.847Z" fill="#39331F"/>
<path fill-rule="evenodd" clip-rule="evenodd" d="M158.192 255.156C158.192 255.156 156.497 253.548 157.091 245.747C157.811 245.736 158.53 245.806 159.235 245.955C159.235 245.955 160.159 252 158.192 255.156Z" fill="#292311"/>
<path fill-rule="evenodd" clip-rule="evenodd" d="M146.107 222.642C146.343 222.467 146.563 222.27 146.762 222.053C146.173 223.154 143.455 227.561 145.659 234.499C147.863 241.405 153.4 246.555 160.218 246.795C167.036 247.034 170.62 243.698 174.718 238.697C176.326 236.703 178.173 234.2 179.809 232.505C182.251 229.853 184.157 229.109 184.157 226.55C184.157 221.31 178.797 218.956 170.907 216.605C163.017 214.254 155.9 214.544 152.208 216.154C148.607 217.908 147.058 219.755 146.105 222.644L146.107 222.642Z" fill="#252211"/>
<path fill-rule="evenodd" clip-rule="evenodd" d="M171.442 257.507L172.031 257.209C172.031 257.209 172.178 254.853 173.132 254.916C174.084 255.065 174.532 256.318 174.441 256.763C174.382 257.209 174.145 257.954 173.191 257.864C171.941 257.894 171.437 257.507 171.437 257.507H171.442Z" fill="#3F3824"/>
<path fill-rule="evenodd" clip-rule="evenodd" d="M168.793 247.503C168.793 247.503 169.382 247.295 170.102 248.01C170.691 248.01 173.258 247.711 174.063 248.218C174.867 248.724 175.105 249.17 175.105 249.17C175.105 249.17 172.098 249.825 170.459 249.17C168.793 248.604 168.793 247.503 168.793 247.503V247.503Z" fill="#2D2815"/>
<path fill-rule="evenodd" clip-rule="evenodd" d="M182.042 247.949C182.042 247.8 180.435 246.699 178.737 246.339C178.439 246.281 178.378 246.489 178.148 246.489C177.999 246.43 177.94 245.982 177.94 245.982L176.975 246.491C176.975 246.491 176.825 246.699 177.332 247.079C177.777 247.437 178.523 247.735 178.731 248.33C178.939 248.924 178.939 249.132 179.03 249.223C179.088 249.281 180.131 249.223 180.637 248.924C181.143 248.626 182.097 248.139 182.036 247.943L182.042 247.949Z" fill="#82764F"/>
<path fill-rule="evenodd" clip-rule="evenodd" d="M167.007 253.994C167.007 253.994 167.303 251.941 169.299 251.851C171.352 251.701 171.741 253.696 171.741 253.696L170.549 254.887C170.549 254.857 169.656 253.607 167.017 253.994H167.007Z" fill="#2D2816"/>
<path fill-rule="evenodd" clip-rule="evenodd" d="M179.958 245.15C179.958 245.15 178.855 246.341 176.416 246.699C176.208 246.4 175.76 245.806 176.416 244.854C177.071 243.902 177.815 243.603 178.559 243.9C178.887 243.953 179.193 244.099 179.441 244.32C179.689 244.542 179.868 244.83 179.958 245.15V245.15Z" fill="#574F35"/>
<path fill-rule="evenodd" clip-rule="evenodd" d="M184.453 246.61C184.513 246.312 184.305 246.253 184.453 246.104C184.6 245.955 185.406 245.658 185.556 245.806C185.615 245.866 185.556 246.104 185.556 246.394C185.556 246.685 185.556 246.983 185.407 247.197C185.198 247.495 184.604 247.645 184.305 247.556C184.007 247.468 183.948 247.05 183.948 246.967C184.095 246.909 184.453 246.759 184.453 246.61ZM189.536 243.395C189.536 243.246 190.042 242.948 190.341 242.948C190.786 242.948 190.786 243.305 190.847 243.395C190.994 243.454 190.994 243.335 191.143 243.603C191.293 243.872 191.503 244.347 191.351 244.646C191.2 244.944 190.608 245.15 190.46 245.091C190.252 244.942 189.597 243.603 189.536 243.395V243.395Z" fill="#82764F"/>
<path fill-rule="evenodd" clip-rule="evenodd" d="M179.303 247.295C179.303 247.295 179.958 247.442 180.851 248.188C180.553 248.396 180.105 248.634 180.105 248.634C180.105 248.634 180.047 247.949 179.303 247.293V247.295Z" fill="#6E6342"/>
<path fill-rule="evenodd" clip-rule="evenodd" d="M177.845 240.744C177.696 240.597 178.29 240.239 178.648 240.298C179.005 240.357 179.154 240.597 179.541 240.656C179.927 240.714 179.988 240.506 180.129 240.357C180.271 240.208 180.785 240.298 180.873 240.357C180.928 240.423 180.978 240.492 181.022 240.565C181.029 240.452 181.058 240.341 181.109 240.24C181.16 240.139 181.231 240.049 181.319 239.976C181.433 239.893 181.565 239.836 181.704 239.81C181.843 239.784 181.987 239.79 182.123 239.827C182.182 240.035 182.481 240.779 182.422 240.928C182.363 241.077 181.47 241.288 181.319 241.136C181.468 241.496 182.123 242.239 182.212 242.387C182.3 242.534 181.556 242.893 181.26 242.834C180.844 242.805 178.283 241.315 177.837 240.75L177.845 240.744ZM181.745 235.802C181.69 235.652 181.584 235.526 181.446 235.445C181.238 235.386 180.553 235.445 180.553 235.802C180.553 236.159 181.142 238.157 181.804 239.197C182.549 240.239 183.054 241.101 183.56 241.341C183.719 241.413 183.9 241.422 184.065 241.367C184.231 241.312 184.37 241.196 184.453 241.042C184.512 240.893 184.661 239.792 184.602 237.201C184.543 234.611 184.453 232.11 184.304 231.961C184.155 231.812 183.56 231.814 183.352 232.11C183.144 232.406 181.804 235.356 181.743 235.802H181.745Z" fill="#585136"/>
<path fill-rule="evenodd" clip-rule="evenodd" d="M179.094 251.046C179.094 251.046 178.052 250.39 177.039 250.838C176.087 251.285 176.146 253.042 176.146 253.042C176.36 253.126 176.592 253.156 176.82 253.13C177.049 253.104 177.267 253.023 177.457 252.893C178.113 252.447 178.945 251.703 179.094 251.048V251.046Z" fill="#574F35"/>
<path fill-rule="evenodd" clip-rule="evenodd" d="M181.06 253.399C181.001 252.81 180.471 252.81 180.471 252.506C180.507 252.361 180.591 252.232 180.71 252.14C180.828 252.048 180.974 251.999 181.124 252C181.423 252 181.713 252.357 182.078 252.589C182.435 252.797 182.971 253.177 183.03 253.631C183.089 254.084 182.441 255.326 181.721 255.326C181.001 255.326 181.215 253.986 181.065 253.391L181.06 253.399ZM186.806 252.594C186.806 252.594 185.615 252.952 185.703 252.594C185.791 252.237 186.062 252.149 186.449 252.149C186.645 251.943 186.91 251.816 187.193 251.79C187.355 251.782 187.514 251.835 187.638 251.939C187.638 251.939 188.443 251.582 188.681 251.79C188.918 251.998 188.741 251.998 188.889 252.237C189.076 252.503 189.199 252.809 189.248 253.13C189.248 253.368 188.355 253.874 187.638 253.786C186.806 253.607 186.953 252.744 186.806 252.594V252.594ZM193.742 251.254C193.742 251.254 194.099 251.462 193.803 251.701C193.595 251.909 192.553 252.29 191.658 252.357C190.765 252.357 189.962 252.504 189.962 252.208C189.962 251.911 190.706 251.315 191.152 251.166C191.241 251.054 191.354 250.963 191.484 250.902C191.613 250.84 191.754 250.808 191.897 250.808C192.255 250.808 193.652 250.659 194.041 250.6C194.398 250.54 194.696 250.748 194.486 251.046C194.398 251.254 193.742 251.254 193.742 251.254V251.254ZM195.797 242.061C195.797 242.061 195.35 243.013 194.845 243.013C194.339 242.954 194.339 242.805 194.339 242.656C194.339 242.447 194.845 241.912 194.784 241.762C194.637 241.762 194.278 241.762 194.339 241.405C194.339 241.107 194.845 240.75 195.291 240.816C195.627 240.54 196.047 240.383 196.482 240.371C196.989 240.371 197.434 240.518 197.434 240.816C197.434 241.115 196.845 241.768 196.629 241.92C196.392 242.157 196.094 242.312 195.797 242.067V242.061ZM189.008 259.656C189.008 259.656 188.42 259.717 188.42 260.013C188.42 260.163 188.567 260.163 188.777 260.074C188.898 260.067 189.018 260.047 189.134 260.013C189.193 260.074 189.193 260.371 189.64 260.371C190.008 260.321 190.362 260.2 190.682 260.013C191.04 259.866 191.338 259.715 191.338 259.425C191.189 258.918 190.891 258.679 190.445 258.679C190.217 258.664 189.989 258.716 189.789 258.828C189.789 258.828 189.64 258.53 189.134 258.828C188.628 259.126 188.686 259.126 188.836 259.275C189.103 259.513 189.014 259.668 189.014 259.668L189.008 259.656ZM185.644 262.753C185.644 262.604 186.388 262.306 186.596 262.396C186.804 262.455 187.399 263.585 187.399 263.705C187.399 263.854 186.655 264.211 186.357 264.211C186.058 264.211 185.554 263.705 185.554 263.623C185.554 263.564 185.911 263.475 185.911 263.415C186 263.267 185.644 262.908 185.644 262.759V262.753ZM183.289 258.406C183.438 258.347 183.438 258.198 183.646 258.049C183.711 258.005 183.786 257.978 183.863 257.967C183.941 257.957 184.02 257.965 184.094 257.99C184.146 257.896 184.219 257.815 184.307 257.753C184.394 257.691 184.494 257.649 184.6 257.631C184.957 257.572 185.256 257.631 185.189 257.78C185.189 258.227 185.487 258.524 185.487 258.881C185.487 259.238 185.279 259.686 184.535 259.984C183.792 260.192 182.779 260.192 182.63 260.133C182.48 260.074 182.331 259.478 182.48 259.179C182.63 258.881 183.046 258.555 183.285 258.406H183.289Z" fill="#82764F"/>
<path fill-rule="evenodd" clip-rule="evenodd" d="M184.237 258.608C184.237 258.608 183.731 258.906 183.731 259.056C183.686 259.2 183.666 259.35 183.672 259.501C183.672 259.589 184.327 259.442 184.416 259.352C184.445 259.293 184.237 258.763 184.237 258.608Z" fill="#6E6342"/>
<path fill-rule="evenodd" clip-rule="evenodd" d="M179.809 257.209C180.106 257.269 180.612 257.209 180.999 257.358C181.297 257.507 181.505 257.805 181.207 258.163C180.908 258.52 180.618 259.056 179.956 258.965C179.213 258.906 178.498 258.52 178.498 258.221C178.486 258.033 178.511 257.843 178.572 257.664C178.634 257.486 178.73 257.321 178.855 257.179C179.154 256.942 179.301 257.091 179.807 257.209H179.809Z" fill="#585136"/>
<path fill-rule="evenodd" clip-rule="evenodd" d="M179.452 257.507C179.452 257.507 178.5 258.251 178.261 258.61C177.962 258.967 176.504 260.812 176.059 261.199C176.207 260.938 176.375 260.689 176.563 260.455C175.974 260.831 175.533 261.399 175.313 262.062C174.956 263.165 177.309 263.76 178.855 264.208C180.402 264.655 181.001 264.796 181.001 264.796C180.431 263.941 179.942 263.034 179.54 262.088C178.952 260.688 178.647 260.539 179.034 259.884C179.332 259.228 179.78 258.783 179.78 258.276C179.601 257.805 179.452 257.507 179.452 257.507Z" fill="#574F35"/>
<path fill-rule="evenodd" clip-rule="evenodd" d="M145.51 259.86C145.726 259.9 145.949 259.9 146.165 259.86C146.611 259.799 151.256 258.094 156.11 258.4C159.744 258.62 163.345 259.211 166.858 260.166C172.962 261.774 180.553 264.959 185.466 266.777C186.775 267.281 188.056 268.176 188.999 268.531C192.751 269.992 192.898 269.992 195.102 270.378C197.693 270.735 200.343 269.872 203.112 269.277C206.506 268.531 212.311 268.174 217.402 267.43C219.049 267.202 220.672 266.834 222.256 266.329C222.256 266.329 218.207 270.378 208.5 271.836C204.576 272.432 200.589 272.482 196.651 271.986C193.554 271.687 191.501 271.24 189.952 270.794C188.196 270.288 184.592 268.947 180.157 267.85C177.06 267.046 173.605 266.451 169.647 265.707C159.88 263.919 149.282 261.866 145.506 259.872L145.51 259.86Z" fill="#252211"/>
<path fill-rule="evenodd" clip-rule="evenodd" d="M134.552 241.46C132.197 243.454 129.698 245.36 127.259 247.205L119.904 252.855C117.404 254.7 114.962 256.606 112.46 258.453C109.958 260.3 107.459 262.054 104.806 263.752C107.161 261.758 109.659 259.911 112.16 258.096C114.66 256.28 117.253 254.5 119.665 252.659L127.019 247.001C129.549 245.156 131.991 243.25 134.552 241.464V241.46ZM121.541 262.302C121.541 262.302 124.191 260.098 127.496 257.003C131.604 253.164 136.636 248.249 138.244 247.358L121.539 262.304L121.541 262.302Z" fill="#CFB66C"/>
<path fill-rule="evenodd" clip-rule="evenodd" d="M121.541 262.3C122.852 260.991 124.251 259.711 125.651 258.459L127.794 256.614C128.45 256.025 129.195 255.364 129.849 254.708C131.158 253.399 132.44 251.998 133.749 250.659C134.398 249.986 135.084 249.35 135.804 248.753C136.164 248.435 136.563 248.164 136.993 247.949C137.352 247.741 137.739 247.36 138.243 247.293C137.947 247.741 137.59 247.949 137.291 248.335C136.934 248.634 136.636 248.991 136.34 249.287C135.684 249.943 134.94 250.537 134.285 251.134C132.885 252.325 131.427 253.489 130.028 254.736C128.628 255.982 127.319 257.326 125.918 258.577C124.401 259.858 123.001 261.108 121.541 262.306V262.3ZM139.346 250.39C139.346 250.39 129.641 259.89 127.645 261.436L139.346 250.39Z" fill="#CFB66C"/>
<path fill-rule="evenodd" clip-rule="evenodd" d="M139.347 250.39C138.474 251.401 137.538 252.355 136.544 253.248L133.6 256.047C132.648 256.999 131.753 257.953 130.743 258.904C129.7 259.797 128.749 260.671 127.646 261.495L130.503 258.696C131.457 257.744 132.499 256.942 133.512 255.988L136.37 253.189C137.351 252.208 138.305 251.254 139.347 250.39V250.39ZM139.792 255.54C138.898 258.037 137.844 260.474 136.636 262.836C134.136 267.838 130.385 274.09 128.747 277.277L139.792 255.54Z" fill="#CFB66C"/>
<path fill-rule="evenodd" clip-rule="evenodd" d="M139.792 255.542C139.792 256.643 139.494 257.597 139.136 258.549C138.788 259.502 138.391 260.436 137.947 261.348C137.499 262.241 136.993 263.195 136.487 264.058C135.98 264.922 135.386 265.813 134.938 266.708L131.931 272.007C130.889 273.774 129.876 275.55 128.775 277.247C129.519 275.342 130.532 273.556 131.486 271.799C132.528 270.033 133.48 268.266 134.43 266.439C134.894 265.529 135.311 264.595 135.68 263.642C136.126 262.688 136.571 261.795 136.93 260.932C137.376 259.98 137.733 259.085 138.18 258.223C138.685 257.299 139.103 256.406 139.788 255.542H139.792Z" fill="#CFB66C"/>
<path fill-rule="evenodd" clip-rule="evenodd" d="M150.393 279.956C150.393 279.956 147.449 283.856 147.743 288.798C148.546 286.209 149.559 282.248 150.393 279.956ZM153.192 283.866C153.192 283.866 152.15 294.464 151.286 299.675C152.507 293.651 152.744 294.158 153.192 283.866ZM172.693 300.301C172.693 300.301 168.287 313.255 168.196 316.854C169.15 313.152 170.995 305.59 172.693 300.291V300.301Z" fill="#DEC270"/>
<path fill-rule="evenodd" clip-rule="evenodd" d="M182.994 279.155C182.994 279.155 190.14 290.945 195.5 301.007C194.05 295.944 190.713 286.656 182.994 279.155Z" fill="#CBAF59"/>
<path fill-rule="evenodd" clip-rule="evenodd" d="M202.199 296.511C206.123 303.447 209.661 310.593 212.798 317.918C212.203 312.856 210.594 304.193 202.199 296.511Z" fill="#E3C677"/>
<path fill-rule="evenodd" clip-rule="evenodd" d="M258.649 313.894C259.838 313.151 262.192 309.1 264.247 308.089C266.3 307.047 267.848 306.839 269.695 304.784C271.54 302.638 272.05 301.329 276.095 299.634C281.754 297.19 277.862 294.034 277.862 294.034C278.485 293.422 279.151 292.855 279.856 292.338C281.316 291.237 283.012 289.897 282.864 287.544C282.656 283.585 281.913 277.838 278.666 274.504C281.822 273.848 287.865 273.403 291.62 272.451C295.965 271.348 297.961 269.799 297.961 269.799C297.961 269.799 295.461 265.542 299.51 261.256C303.559 256.969 306.864 254.408 309.305 249.613C306.507 249.256 302.24 247.768 291.351 251.906C291.939 252.182 292.506 252.5 293.049 252.857C293.049 252.857 286.35 254.704 283.909 256.759C279.65 260.361 279.114 263.309 274.5 265.513C269.885 267.717 265.24 267.12 261.401 268.906C257.562 270.692 256.994 272.211 255.593 272.867C255.891 273.224 255.534 273.819 256.1 274.325C255.742 274.831 253.658 278.225 251.544 278.225C251.752 279.03 253.538 279.624 253.538 279.624C253.538 279.624 252.229 280.578 248.895 280.816C250.59 282.582 252.2 284.507 256.635 287.306C256.278 288.05 254.788 289.153 255.385 290.552C256.041 291.952 257.74 293.858 264.525 295.406C261.071 295.553 257.024 296.358 251.572 295.614C246.123 294.959 245.23 294.572 241.866 295.406C242.223 295.763 243.175 295.763 244.009 296.715C243.116 296.774 237.519 296.06 235.613 298.562C233.619 301.151 232.756 305.41 232.905 308.267C231.863 308.774 230.85 309.667 231.356 311.514C231.863 313.361 234.512 313.955 236.21 315.115C237.906 316.365 238.055 316.811 239.664 316.515C241.36 316.157 243.86 314.462 245.321 314.462C246.781 314.462 247.821 315.563 247.821 315.563C247.821 315.563 251.782 313.657 252.168 314.014C252.526 314.371 252.227 316.664 252.614 317.021C253.006 317.29 257.467 314.64 258.659 313.894H258.649Z" fill="#ECD592"/>
<path fill-rule="evenodd" clip-rule="evenodd" d="M345.201 194.745C326.593 146.691 280.592 137.788 280.592 137.788H149.351L149.857 186.735H175.994V296.034H149.349V344.893H276.959C307.714 344.893 332.367 313.987 332.367 313.987C371.846 257.954 345.199 194.745 345.199 194.745H345.201ZM277.644 281.057C277.644 281.057 267.635 295.498 256.744 295.498H234.958L234.442 186.855H262.4C262.4 186.855 275.354 189.563 284.404 215.198C284.404 215.198 296.401 251.9 277.644 281.057V281.057Z" fill="white" fill-opacity="0.8"/>
</g>
<defs>
<filter id="filter0_d_1431_33950" x="0" y="0" width="488" height="488" filterUnits="userSpaceOnUse" color-interpolation-filters="sRGB">
<feFlood flood-opacity="0" result="BackgroundImageFix"/>
<feColorMatrix in="SourceAlpha" type="matrix" values="0 0 0 0 0 0 0 0 0 0 0 0 0 0 0 0 0 0 127 0" result="hardAlpha"/>
<feOffset dy="4"/>
<feGaussianBlur stdDeviation="2"/>
<feComposite in2="hardAlpha" operator="out"/>
<feColorMatrix type="matrix" values="0 0 0 0 0 0 0 0 0 0 0 0 0 0 0 0 0 0 0.25 0"/>
<feBlend mode="normal" in2="BackgroundImageFix" result="effect1_dropShadow_1431_33950"/>
<feBlend mode="normal" in="SourceGraphic" in2="effect1_dropShadow_1431_33950" result="shape"/>
</filter>
<linearGradient id="paint0_linear_1431_33950" x1="244" y1="0" x2="244" y2="701.818" gradientUnits="userSpaceOnUse">
<stop stop-color="#08021E"/>
<stop offset="1" stop-color="#1F0777"/>
</linearGradient>
</defs>
</svg>
