<svg width="42" height="42" viewBox="0 0 42 42" fill="none" xmlns="http://www.w3.org/2000/svg">
<g clip-path="url(#clip0_7277_58000)">
<mask id="mask0_7277_58000" style="mask-type:alpha" maskUnits="userSpaceOnUse" x="0" y="0" width="42" height="42">
<circle cx="21" cy="21" r="21" transform="matrix(-1 0 0 1 42 0)" fill="url(#paint0_linear_7277_58000)"/>
</mask>
<g mask="url(#mask0_7277_58000)">
<circle cx="21" cy="21" r="21" transform="matrix(-1 0 0 1 42 0)" fill="#34EDB3"/>
<circle cx="18.2" cy="18.2" r="18.2" transform="matrix(-1 0 0 1 39.2 2.80005)" fill="white"/>
</g>
<circle cx="16.1" cy="16.1" r="16.1" transform="matrix(-1 0 0 1 37.1 4.90002)" fill="#0B0B22"/>
<path d="M21 37.1C29.8918 37.1 37.1 29.8918 37.1 21C37.1 12.1082 29.8918 4.90002 21 4.90002C12.1082 4.90002 4.90002 12.1082 4.90002 21C4.90002 29.8918 12.1082 37.1 21 37.1Z" fill="#988430"/>
<path d="M21 36.5843C29.607 36.5843 36.5843 29.607 36.5843 21.0001C36.5843 12.3931 29.607 5.41577 21 5.41577C12.3931 5.41577 5.41574 12.3931 5.41574 21.0001C5.41574 29.607 12.3931 36.5843 21 36.5843Z" fill="#7A6A2A"/>
<path d="M21 36.256C29.4257 36.256 36.256 29.4257 36.256 21.0001C36.256 12.5745 29.4257 5.74414 21 5.74414C12.5744 5.74414 5.74411 12.5745 5.74411 21.0001C5.74411 29.4257 12.5744 36.256 21 36.256Z" fill="#BA9F33"/>
<path fill-rule="evenodd" clip-rule="evenodd" d="M11.9392 19.2807C11.848 19.1974 11.7517 19.1139 11.663 19.0306C11.5744 18.9473 11.4834 18.8639 11.3922 18.7806L11.1212 18.523C11.0769 18.4787 11.03 18.4397 10.9857 18.3952C10.9414 18.3562 10.8894 18.3119 10.8451 18.2728C10.4855 17.9315 10.1238 17.5903 9.76917 17.2489C10.1365 17.585 10.4961 17.9187 10.8635 18.2597L10.9911 18.3875C11.0354 18.4316 11.0822 18.4708 11.1266 18.5151L11.3974 18.7651C11.4886 18.8484 11.5772 18.9319 11.6684 19.0227C11.7596 19.1136 11.8482 19.1972 11.9394 19.2803L11.9392 19.2807ZM7.16655 19.2292C7.16655 19.2292 8.4743 19.3645 9.11264 19.4557C9.70391 19.5391 11.5537 19.823 11.5537 19.823L7.16655 19.2292ZM7.16655 19.2292C7.53389 19.2604 7.90123 19.2994 8.26857 19.3386C8.4561 19.3568 8.6359 19.3775 8.81571 19.3957L9.09168 19.4272C9.18287 19.44 9.27149 19.4531 9.36268 19.4662L10.457 19.6406L11.0039 19.7318C11.1837 19.7631 11.3635 19.7971 11.5511 19.8283C11.3713 19.8101 11.1837 19.784 11.0039 19.7579L10.457 19.6798L9.36268 19.5184C9.27149 19.5053 9.18287 19.4869 9.09168 19.4741L8.81554 19.4423C8.63573 19.4241 8.4482 19.398 8.26839 19.377C7.90106 19.3329 7.53372 19.2858 7.16638 19.2286L7.16655 19.2292ZM11.4235 20.1637C11.4235 20.1637 10.0271 20.5182 9.55554 20.6537C9.09186 20.7813 7.68759 21.2086 7.68759 21.2086L11.4233 20.1639L11.4235 20.1637Z" fill="#CFB66C"/>
<path fill-rule="evenodd" clip-rule="evenodd" d="M11.4233 20.1637C11.1133 20.2549 10.8051 20.3435 10.4906 20.427L9.55793 20.677C9.24795 20.7682 8.93969 20.8568 8.63057 20.948L8.16689 21.0756C8.01319 21.1199 7.85691 21.1589 7.69806 21.2034C7.85159 21.1519 8.00804 21.0991 8.16174 21.0548L8.62542 20.9064C8.9354 20.8099 9.24366 20.7187 9.55278 20.6224C9.86791 20.5443 10.1781 20.4608 10.4932 20.3852C10.7927 20.3097 11.108 20.2343 11.4233 20.1639V20.1637ZM7.88302 22.0682C8.03655 22.0109 9.80815 21.1852 10.2198 20.9923C10.4259 20.8958 11.0249 20.6832 11.0249 20.6832L7.88302 22.0682Z" fill="#CFB66C"/>
<path fill-rule="evenodd" clip-rule="evenodd" d="M7.88305 22.0683C8.01837 22.0167 8.14614 21.9537 8.27631 21.8938L8.66186 21.714L9.43569 21.3415C9.69329 21.219 9.94367 21.0839 10.2093 20.9688C10.3448 20.9116 10.4803 20.8648 10.6157 20.8204L10.8217 20.7554C10.892 20.7372 10.9572 20.7162 11.0278 20.698C10.7702 20.8204 10.4991 20.9247 10.2411 21.0444C9.98352 21.1722 9.72008 21.2764 9.45423 21.3909L8.66752 21.7373C8.4034 21.8443 8.1458 21.9589 7.88287 22.0683H7.88305ZM8.05478 22.7895C8.05478 22.7895 9.65945 21.8491 10.2117 21.5469C10.5009 21.3854 11.4362 20.9216 11.4362 20.9216L8.05478 22.7895Z" fill="#CFB66C"/>
<path fill-rule="evenodd" clip-rule="evenodd" d="M8.05493 22.7898C8.32576 22.6231 8.6019 22.4538 8.87805 22.2819L9.29021 22.0316C9.43086 21.9484 9.56636 21.8702 9.70975 21.7869C9.8504 21.7035 9.9859 21.6202 10.1291 21.542C10.1973 21.4999 10.2687 21.4633 10.3428 21.4326L10.5616 21.3232C10.8508 21.1826 11.1399 21.0392 11.4448 20.9167C11.1686 21.0914 10.8846 21.2399 10.6007 21.3935C10.4601 21.4716 10.3167 21.542 10.176 21.6202C10.0354 21.6983 9.89986 21.7818 9.75647 21.8573C9.61582 21.9406 9.48032 22.0188 9.33709 22.0943L8.9124 22.3262L8.05527 22.7898H8.05493ZM11.4233 21.1276C11.4233 21.1276 10.4255 21.8936 10.1025 22.1385C9.77948 22.3834 8.82859 23.0711 8.82859 23.0711L11.4233 21.1276V21.1276Z" fill="#CFB66C"/>
<path fill-rule="evenodd" clip-rule="evenodd" d="M17.1496 27.3045L16.639 26.338L16.9359 25.1292L19.0539 24.3112L18.1525 22.4616L18.598 20.5937L19.4343 18.921L22.0187 18.5147L23.9178 16.7041L28.0184 17.0141L28.8233 21.3986L27.2733 26.919L26.3902 29.777L22.8106 29.9125L21.1486 28.761L19.2025 27.948L17.1496 27.3045Z" fill="#E2CC85"/>
<path fill-rule="evenodd" clip-rule="evenodd" d="M23.4282 27.2733C23.4282 27.2733 22.933 27.5 22.0886 27.4478C21.8443 27.1196 20.1328 26.9659 20.1328 26.9659C20.1328 26.9659 19.9191 26.9008 19.5413 27.0571C19.1611 27.2116 18.8015 27.1926 18.4654 27.2759C18.1293 27.3592 17.7956 26.9216 17.538 26.8304C17.2804 26.734 16.9389 26.5022 16.9389 26.5022L16.2176 26.4318L14.7692 25.8196L12.4681 23.5271L11.8429 24.506L11.65 25.7174L12.3457 27.1529L14.2188 28.8592L17.8712 29.7866L20.0361 29.1488L22.7481 28.0025L23.4282 27.2731V27.2733Z" fill="#F1D789"/>
<path fill-rule="evenodd" clip-rule="evenodd" d="M10.4517 19.1712L10.9153 17.7671L11.4678 16.8603L13.247 16.7118L12.7129 18.2698L11.2255 20.9167L11.8429 23.2796L10.7488 23.8265L10.4125 23.3108L10.1417 22.1281L10.1235 20.7994L10.4517 19.1712Z" fill="#F4ECB4"/>
<path fill-rule="evenodd" clip-rule="evenodd" d="M12.4472 27.1769L12.106 26.7002C12.106 26.7002 12.0148 26.4735 12.067 26.2755C12.1185 26.0749 12.1111 26.0618 12.0852 25.9863C12.0593 25.9107 11.8403 25.6502 11.8533 25.4261C11.8662 25.1994 11.8351 25.1238 12.0017 24.9442C12.1762 24.7697 12.1242 24.4675 12.1242 24.4675L12.3509 24.6081L12.4024 24.53C12.4024 24.53 12.4857 24.5951 12.4857 24.6967C12.5039 24.5561 12.4283 23.9047 12.6002 23.7563C12.7721 23.6079 13.0769 24.4518 13.0769 24.4518L12.8894 23.2274L12.4074 21.9718L11.5502 20.8255L11.4987 19.5619V19.4525C11.4987 19.4525 11.1053 20.057 10.9959 20.5344C10.9177 20.8626 11.1053 21.2612 11.0663 21.7328C11.0349 22.2018 10.9959 22.1652 11.1104 22.351C11.225 22.5368 11.5039 22.919 11.3945 23.1951C11.2981 23.4323 10.9698 23.2655 10.9698 23.2655C10.9698 23.2655 10.9047 23.4582 10.8161 23.5286C10.7848 23.4141 10.751 23.3411 10.6885 23.271C10.6832 23.3153 10.6703 23.3752 10.6703 23.3752C10.6703 23.3752 10.6129 23.1954 10.5556 22.9688C10.4776 22.6667 10.3941 22.2681 10.3186 22.0544C10.2873 22.1769 10.2092 22.5494 10.2092 22.5494L10.2535 23.1226L10.4671 23.9093L10.6732 24.4245L10.8738 25.055L11.0481 25.4785L11.1887 25.8015L11.3112 26.5284L11.9025 27.1536L12.2178 27.2944L12.4469 27.1771L12.4472 27.1769Z" fill="#F3E19D"/>
<path fill-rule="evenodd" clip-rule="evenodd" d="M10.7616 18.0249C10.7616 18.0249 10.3369 18.7462 10.2147 19.4733C10.0924 20.2005 9.98281 20.9688 10.0601 21.9587C10.1382 22.9566 10.2868 23.5687 10.4067 24.0064C10.6127 24.7334 11.1465 25.7442 11.1465 25.7442L11.1647 25.705C11.075 25.535 11.0034 25.356 10.951 25.1709C10.8806 24.8948 10.8545 24.5666 10.7894 24.4181C10.7321 24.2697 10.6357 24.1419 10.5889 23.9595C10.5446 23.7851 10.5373 23.5089 10.4013 23.3032C10.344 23.2197 10.2736 23.0009 10.2528 22.7821C10.2267 22.4538 10.2658 22.0864 10.2346 21.7844C10.1772 21.2815 10.1382 20.9403 10.1903 20.677C10.2423 20.4138 10.5135 19.6664 10.6802 19.0723C10.7896 18.692 10.7244 18.3715 10.9249 18.0406C11.1255 17.7124 11.2481 17.4232 11.2923 17.2226C11.3438 17.0402 10.7609 18.0249 10.7609 18.0249H10.7616Z" fill="#F2E8B0"/>
<path fill-rule="evenodd" clip-rule="evenodd" d="M12.7755 17.7357C12.7755 17.7357 12.5567 17.801 12.4525 17.9155C12.3483 18.0249 12.304 18.1161 12.1633 18.3011C12.0227 18.486 12.0148 18.6371 11.9 18.869C11.7855 19.0957 11.5327 19.4369 11.5014 19.5594C11.4702 19.6818 11.4182 20.2549 11.3531 20.5259C11.2957 20.7969 11.4182 21.1304 11.4182 21.1304L11.5665 21.0989C11.5665 21.0989 11.5665 21.2918 11.7151 21.4221C11.8635 21.5497 11.8896 20.9896 11.8896 20.9896L12.4444 19.1165L13.2806 18.5485L13.3718 18.09L12.7752 17.7357H12.7755Z" fill="#F5EEC0"/>
<path fill-rule="evenodd" clip-rule="evenodd" d="M13.1819 18.5851C13.1819 18.5851 12.7884 18.611 12.5957 18.7518C12.5176 18.809 12.4863 18.8559 12.403 18.9263C12.2493 19.0539 12.0929 19.1712 12.0175 19.3384C11.934 19.505 11.8429 19.7578 11.7803 20.2345C11.7542 20.4351 11.7542 20.6201 11.736 20.7817C11.7099 21.0005 11.671 21.175 11.6917 21.2969C11.7178 21.5469 11.9758 21.6773 12.0009 21.9612L12.5349 21.6903L13.0378 19.7077L14.106 19.0379L13.5015 18.3606L13.1812 18.5838L13.1819 18.5851Z" fill="#E6DB9D"/>
<path fill-rule="evenodd" clip-rule="evenodd" d="M10.3642 31.9358C10.3665 31.9162 10.3687 31.8966 10.3709 31.8765C10.4489 31.2068 10.4621 30.6991 10.5193 30.3812C10.6026 29.9306 10.66 29.763 10.6469 29.5944C10.6287 29.3235 10.6079 29.1255 10.634 28.917C10.673 28.6409 10.944 28.3127 10.9363 28.086C10.931 27.9062 10.8398 27.7891 10.7616 27.6797C10.6835 27.5703 10.621 27.4791 10.621 27.4791C10.621 27.4791 11.1551 27.1118 11.1499 25.632C11.1608 25.635 11.1713 25.6394 11.1812 25.645L11.4443 26.3926L11.6241 26.6114L12.3144 27.8983L13.2028 28.7608L14.5157 29.6438L15.339 30.5398L15.4223 32.9287L14.3464 34.3251L14.1702 34.6442C12.7704 33.9414 11.4867 33.0279 10.3641 31.9356L10.3642 31.9358Z" fill="#E5CB7A"/>
<path fill-rule="evenodd" clip-rule="evenodd" d="M13.6508 34.2213C13.6508 34.2213 13.6691 33.9243 13.9139 33.7315C13.9531 33.7966 13.979 33.8592 13.9713 33.9059C14.0156 33.828 14.3256 33.3277 15.0264 33.1974C15.7273 33.0698 15.8966 32.5592 15.8966 32.5592L17.384 31.2072L19.0852 29.6415L21.1537 28.9145L22.1204 28.6774C22.1204 28.6774 22.1386 28.7478 22.1022 28.904C22.2818 28.8912 22.6804 28.8 23.0946 28.654C23.2614 28.5889 23.4178 28.5628 23.5011 28.6488C23.6236 28.7634 23.6418 29.0344 23.6495 29.1958C23.8501 29.1515 24.0819 28.9588 24.2677 28.977C24.5648 29.0083 24.8279 29.3574 25.1302 29.3574C25.5288 29.3574 25.7084 29.1125 25.9873 28.9197C26.1541 28.8051 26.3936 28.6621 26.5291 28.5654C26.8522 28.3282 30.2702 27.2836 30.2702 27.2836L31.4685 27.3617L31.6614 28.6487L31.5583 32.0129C31.5456 32.0251 31.5329 32.0378 31.52 32.05L26.0713 34.8958L18.5185 36.0536C16.8266 35.7772 15.1939 35.2156 13.69 34.3928L13.6514 34.2211L13.6508 34.2213Z" fill="#D8C173"/>
<path fill-rule="evenodd" clip-rule="evenodd" d="M10.8222 32.3638C10.9296 32.1394 11.0261 31.9517 11.0431 31.8845C11.0565 32.0198 11.081 32.3168 11.1305 32.6324C11.0267 32.5441 10.9239 32.4546 10.8222 32.3637V32.3638Z" fill="#F1D789"/>
<path fill-rule="evenodd" clip-rule="evenodd" d="M16.3395 35.5299L17.3163 35.2582L17.3996 35.2843C17.3996 35.2843 17.4439 35.3104 17.4439 35.3989C17.5664 35.3286 17.6706 35.3415 17.7462 35.2948C17.7852 35.3781 17.8242 35.6542 17.9962 35.6881C18.1759 35.7272 18.3687 35.6099 18.5642 35.4616C18.7568 35.3079 18.9763 35.115 19.1424 35.0369C19.2033 35.1489 19.2573 35.2646 19.304 35.3832C19.5228 35.2088 19.9032 34.5002 20.445 34.5131C20.6016 34.143 20.8632 33.8269 21.1975 33.6039C21.7003 33.2627 22.0155 33.2366 22.4089 33.2678C22.5652 33.0648 22.7578 32.8926 22.9768 32.7598C23.0419 32.786 23.2217 32.8953 23.4458 32.7911C23.6725 32.687 23.9277 32.2831 24.2638 32.2311C24.4449 32.2062 24.6291 32.2448 24.7849 32.3405C24.7849 32.3405 25.7637 31.3686 26.4392 31.0456C26.4131 30.9675 26.361 30.6731 27.1529 30.0217C27.1972 30.0609 27.1659 30.1703 27.1972 30.1763C27.2101 30.1763 27.4033 30.093 27.6478 29.9053C27.9501 29.6788 28.3121 29.4416 28.5309 29.3765C28.943 29.2541 29.3803 29.5041 29.3803 29.5041C29.4174 29.4781 29.4589 29.4586 29.5027 29.4468C29.6068 29.4286 29.6823 29.4155 29.7397 29.3952C29.7345 29.5307 29.8101 29.7626 29.7397 29.9632C29.8213 30.009 29.9077 30.0457 29.9973 30.0726C29.9532 30.1689 29.8566 30.4138 29.6952 30.5311C29.8305 30.5962 29.8488 30.6717 30.0416 30.7372C29.9635 30.8466 29.8355 31.0343 29.7785 31.1493C29.7212 31.2718 29.5152 31.7798 29.4241 31.9725C29.3277 32.1653 29.1975 32.5196 29.1349 32.5907C29.0722 32.6618 28.8457 32.9632 28.6712 33.1116C28.8257 33.0542 29.4581 32.8615 29.7263 32.7885C29.6464 32.9056 29.2417 33.5062 28.8525 34.0837C26.9893 35.2005 24.9095 35.9074 22.7516 36.1572C20.5937 36.407 18.4074 36.194 16.3383 35.5325L16.3395 35.5299Z" fill="#E0CD81"/>
<path fill-rule="evenodd" clip-rule="evenodd" d="M13.2463 18.5147C13.2463 18.5147 13.0197 18.5147 12.9754 18.546C12.9311 18.5772 13.2021 18.6425 13.2854 18.6737C13.3687 18.705 13.5485 18.8482 13.5954 18.9629C13.6397 19.0723 15.2236 19.7105 15.2236 19.7105L16.3438 19.6531L16.73 19.1196L15.9954 18.4761L16.5106 16.9573L15.8281 17.0667L14.1868 18.0455L13.3636 18.3609L13.2463 18.5147Z" fill="#DFC57C"/>
<path fill-rule="evenodd" clip-rule="evenodd" d="M15.7063 19.0176C15.7225 19.0438 15.7453 19.0653 15.7725 19.0799C15.7996 19.0945 15.8301 19.1017 15.8609 19.1008C16.0927 19.1008 16.3062 19.1582 16.3948 19.2753C16.5434 19.463 16.955 20.0622 16.955 20.0622L17.9397 20.4165L18.0033 19.257L16.9274 18.5094L15.7029 18.96V19.0174H15.7057L15.7063 19.0176Z" fill="#E5CC7C"/>
<path fill-rule="evenodd" clip-rule="evenodd" d="M15.5131 19.4474C15.5131 19.4474 15.6928 19.4605 15.9195 19.377C16.1462 19.2936 16.5186 19.1139 16.6802 19.1843C16.9068 19.2807 16.8599 19.5829 17.1049 19.8541C17.2533 20.0209 17.5243 20.0157 17.678 20.1955C17.8317 20.3753 18.3605 20.2919 18.3605 20.2919L18.5611 21.3738L17.7562 22.4056L17.4929 23.6872H16.4044L15.4101 23.2927L14.9203 22.1078L15.1652 20.9094L15.5131 19.4474Z" fill="#D2C281"/>
<path fill-rule="evenodd" clip-rule="evenodd" d="M17.6186 19.4994C17.6456 19.5077 17.6736 19.5121 17.7019 19.5125C17.6706 19.5386 17.6054 19.5957 17.6315 19.7443C17.6576 19.8928 17.7409 20.0804 17.6706 20.1949C17.7267 20.2562 17.7685 20.3292 17.7931 20.4086C17.8374 20.5363 17.8504 20.6535 18.1395 20.6718C18.0978 20.6975 18.0593 20.7281 18.0249 20.763C18.0249 20.763 18.2255 20.9375 18.3272 21.0989C18.4312 21.0945 18.7074 21.0086 18.7074 21.0086L18.7647 21.0478L18.8872 20.9962C18.8872 20.9962 18.7726 20.9519 18.8559 20.6732C18.9341 20.4283 19.0045 20.4414 19.0105 20.4232C19.0165 20.405 19.0679 20.147 19.0679 20.0428C19.1068 19.9074 19.1381 19.4958 19.1381 19.4958L19.0548 18.5866L18.586 18.3026L18.2047 17.9346L17.8451 18.6119L17.6083 18.848L17.5901 19.4341L17.6186 19.4994Z" fill="#E2C270"/>
<path fill-rule="evenodd" clip-rule="evenodd" d="M18.7466 18.7389C18.7466 18.7389 18.8298 18.9759 18.8613 19.1582C18.8723 19.1228 18.8785 19.086 18.8795 19.0489C18.8795 19.0489 18.9446 19.4085 18.9574 19.557C18.9835 19.5517 19.009 19.544 19.0148 19.5699C19.0206 19.5958 19.0801 19.8852 19.0663 20.0466C19.1748 19.8676 19.3249 19.7175 19.5039 19.609C19.6081 19.5438 19.7306 19.4735 19.8584 19.4682C20.0589 19.4631 20.2047 19.596 20.4445 19.596C21.0227 19.596 21.5465 19.1713 21.932 19.0411C22.2159 18.9446 22.4608 18.8744 22.6327 18.7179C22.7162 18.6477 22.8647 18.4914 23 18.2594C23.1798 17.9503 23.3674 17.6812 23.5551 17.6473C23.4702 17.6629 23.3838 17.669 23.2975 17.6655C23.2975 17.6655 23.3548 17.6082 23.452 17.53C23.5492 17.4519 23.6657 17.3556 23.8323 17.3556C24.1294 17.3556 24.2777 17.3997 24.4445 17.3997C24.6112 17.3945 24.7076 17.3556 24.7076 17.3556C24.7076 17.3556 24.8822 17.478 25.2755 17.478C25.6689 17.4832 25.932 17.517 26.138 17.5354C26.3439 17.5537 27.0341 17.478 27.2321 17.4838C27.3612 17.4888 27.4879 17.5198 27.6047 17.575L26.9664 15.7203L24.6734 13.7162L23.3083 14.6827L21.2083 16.7825L19.1764 17.5354L18.7517 18.0121V18.7389H18.7466Z" fill="#CCB360"/>
<path fill-rule="evenodd" clip-rule="evenodd" d="M23.3057 17.6757C23.3057 17.6757 23.3631 17.6186 23.4593 17.5404C23.5554 17.4623 23.6731 17.3658 23.8396 17.3658C24.1366 17.3658 24.2851 17.4101 24.4519 17.4101C24.6186 17.4049 24.715 17.3658 24.715 17.3658C24.715 17.3658 24.8898 17.488 25.2829 17.488C25.6763 17.4932 25.9394 17.527 26.1453 17.5452C26.3512 17.5634 27.0414 17.488 27.2394 17.4937C27.3685 17.4986 27.4952 17.5296 27.6119 17.5849L27.3227 16.7486L26.9868 16.1104L26.028 15.0604C26.028 15.0604 24.8774 14.3831 24.8687 14.3779C24.8635 14.3728 24.4701 14.2686 24.4701 14.2686L23.428 14.899L22.4824 17.3453L22.4642 17.8605L23.0763 18.1497C23.23 17.8921 23.3995 17.686 23.5583 17.6599C23.4149 17.6756 23.3056 17.6756 23.3056 17.6756L23.3057 17.6757Z" fill="#D5B457"/>
<path fill-rule="evenodd" clip-rule="evenodd" d="M23.2927 17.8505C23.2015 17.8556 23.1261 17.8374 23.1051 17.7723C23.027 17.5535 22.9645 17.5223 22.8991 17.5223C22.8336 17.5223 22.7454 17.6629 22.693 17.6758C22.6406 17.6887 22.5784 17.5144 22.5784 17.5144L22.5211 17.4883C22.5211 17.4883 22.185 17.7071 21.948 17.965C21.711 18.223 21.3227 18.6607 21.1482 18.7387C20.9738 18.8166 20.3744 18.8429 20.1694 18.8872C19.9643 18.9315 19.7369 19.0801 19.7057 19.1139C19.6744 19.1477 19.797 19.1841 19.8152 19.218C19.8334 19.2492 19.6145 19.2362 19.5963 19.2695C19.5834 19.2956 19.6478 19.444 19.6797 19.5195C19.7356 19.4918 19.797 19.4766 19.8594 19.4752C20.06 19.4701 20.2059 19.603 20.4455 19.603C21.0239 19.603 21.5475 19.1783 21.9331 19.048C22.2171 18.9516 22.462 18.8812 22.6339 18.7249C22.7172 18.6547 22.8657 18.4982 23.0012 18.2664C23.1002 18.1076 23.1967 17.959 23.2932 17.8496L23.2927 17.8505Z" fill="#D2B257"/>
<path fill-rule="evenodd" clip-rule="evenodd" d="M14.9979 30.7434C14.9979 30.7434 14.9464 30.5506 14.469 30.0531C14.3335 29.9124 14.2502 29.7955 14.159 29.7118C13.9323 29.498 13.7994 29.4408 13.638 29.3184C13.2837 29.0553 12.8982 29.0553 12.6012 28.7323C12.3043 28.4092 11.9583 27.792 11.7178 27.1613C11.4808 26.5308 11.4156 26.3302 11.4156 26.312C11.4156 26.2938 11.4808 26.1714 11.5641 26.1896C11.6474 26.2078 11.6474 26.3692 11.6684 26.4084C11.7099 26.4723 11.7569 26.5324 11.809 26.588C11.9315 26.7288 12.106 26.8971 12.1946 27.1482C12.1764 26.9346 12.1034 26.6976 12.1034 26.6976C12.1034 26.6976 12.5619 26.9868 12.9526 27.2888C13.346 27.5911 13.5075 27.6953 13.6224 27.888C13.7373 28.0807 14.0079 28.5889 14.1376 28.7374C14.2672 28.886 16.0438 29.446 16.0438 29.446L16.8889 30.0761L17.3084 30.9957L16.9801 31.5109L16.3497 31.6464L15.3258 31.1879L14.9979 30.7433V30.7434Z" fill="#D2B159"/>
<path fill-rule="evenodd" clip-rule="evenodd" d="M12.7233 27.5755C12.7233 27.5755 12.937 27.9167 13.458 28.2398C13.927 28.5238 14.6694 28.7818 15.3313 28.9355C15.7115 29.0267 16.0919 29.0969 16.4331 29.1022C17.3527 29.1151 17.9858 28.8522 18.7701 28.7661C19.1948 28.7218 19.7158 28.688 20.2576 28.5601C20.9531 28.3933 21.3648 28.2056 21.925 27.9418C22.3313 27.7543 22.704 27.6136 23.006 27.4338C23.4307 27.1838 23.7407 26.9051 24.1003 26.8218C24.056 26.9442 24.0091 27.163 23.6548 27.3897C23.8424 27.3844 24.1003 27.3715 24.1003 27.3715C24.1003 27.3715 23.8503 27.5199 23.4099 27.8534C23.139 28.0595 22.7795 28.4083 22.4122 28.6401C22.175 28.7886 21.9171 28.8977 21.7477 28.9866C21.3356 29.2133 21.1693 29.3279 20.8985 29.6049C20.9949 29.5997 21.0028 29.6049 21.0028 29.6049C21.0028 29.6049 20.6614 29.6492 20.4166 29.7794C20.3651 29.7794 20.2758 29.7612 20.1195 29.8055C19.9971 29.8445 19.8355 29.9332 19.6689 29.98C19.4317 30.0504 19.3538 30.0191 19.3538 30.0191L19.3928 30.0972C19.3928 30.0972 19.0836 30.0919 18.9806 30.1024C18.9988 30.1076 18.9937 30.1155 18.9937 30.1155C18.9756 30.1185 18.9581 30.1246 18.9421 30.1337C18.8926 30.1658 18.838 30.1895 18.7807 30.2039C18.7495 30.209 18.7233 30.209 18.6842 30.2169C18.6972 30.2482 18.7989 30.423 18.8458 30.5261C18.8068 30.5522 18.2205 30.9951 18.2205 30.9951C18.2387 31.0237 18.2536 31.0543 18.2648 31.0863C18.283 31.1434 18.2909 31.2269 18.3091 31.2659C18.3533 31.344 18.3794 31.3571 18.3794 31.3571C18.3794 31.3571 18.3091 31.3701 18.1865 31.4014C18.0824 31.4275 17.9547 31.4716 17.7743 31.4977C17.719 31.5049 17.6634 31.5093 17.6076 31.5108C17.6337 31.5681 17.7482 31.7869 17.5372 32.0396C17.3261 32.2922 17.261 32.3289 17.196 32.4904C17.1632 32.4656 17.1283 32.4437 17.0917 32.4251C17.0215 32.3938 16.925 32.3471 16.8911 32.2844C16.8714 32.368 16.8453 32.4498 16.813 32.5293C16.7479 32.7038 16.6516 32.8759 16.6334 33.0061C16.5629 32.9279 16.4328 32.7742 16.253 32.8055C16.0732 32.8367 15.9299 33.0816 15.8987 33.152C15.8987 33.1077 15.8674 33.0739 15.8597 33.1259C15.8544 33.1833 15.7555 33.7823 15.2032 34.2669C15.198 34.1445 15.198 33.8735 15.185 33.785C15.1334 33.8366 15.0704 33.9126 14.6952 34.0743C14.3278 34.2357 14.3861 34.3973 14.3861 34.3973C14.3861 34.3973 14.3548 34.1397 14.5528 33.8683C14.7534 33.5975 14.8758 33.4697 14.8758 33.449C14.8726 33.4278 14.8636 33.408 14.8497 33.3916C14.8236 33.3655 14.7716 33.3343 14.7716 33.3135C14.8028 33.3006 15.1128 33.152 15.0946 32.8445C15.0764 32.5685 14.9593 32.4251 14.8758 32.3236C14.863 32.3105 14.9985 32.2142 14.9801 32.183C14.967 32.1647 14.8004 32.0421 14.7795 31.9769C14.7844 31.9379 14.7932 31.8996 14.8056 31.8623C14.8238 31.805 14.8369 31.7658 14.8317 31.7268C14.8186 31.6617 14.7482 31.4819 14.7275 31.4637C14.7457 31.4689 14.8758 31.4637 14.8758 31.4637C14.8758 31.4637 14.7718 31.297 14.7534 31.2188C14.735 31.1407 14.696 30.9348 14.6752 30.8958C14.7196 30.901 14.8289 30.9087 14.8289 30.8958C14.8343 30.8567 14.7326 30.7916 14.7774 30.7412C14.8087 30.7464 14.8686 30.7725 14.9258 30.8455C14.8946 30.762 14.8425 30.6006 14.733 30.5355C14.7845 30.5173 14.9596 30.4703 15.1133 30.5614C15.267 30.6526 15.3194 30.7802 15.3194 30.7802C15.3194 30.7802 15.4106 30.8506 15.5514 30.9549C15.7129 31.0825 15.9186 31.264 16.247 31.3925C16.3174 31.4316 16.497 31.4316 16.6273 31.4055C16.6841 31.392 16.7385 31.3701 16.7888 31.3404C16.8069 31.3297 16.8261 31.321 16.8461 31.3143C16.8181 31.2581 16.7859 31.2041 16.7498 31.1527C16.7941 31.1527 16.8461 31.158 16.8461 31.158C16.8461 31.158 16.8774 31.0876 16.7367 30.952C16.768 30.9207 16.8071 30.9004 16.8071 30.8477C16.7628 30.8426 16.6847 30.7775 16.6665 30.7514C16.6924 30.7332 16.7316 30.6732 16.7759 30.655C16.7367 30.6238 16.6404 30.4934 16.5961 30.4806C16.6384 30.4648 16.6794 30.4457 16.7185 30.4232C16.7185 30.4232 16.4997 30.3658 16.4293 30.319C16.3589 30.2674 16.2549 30.1783 16.1923 30.1522C16.1271 30.1261 16.0125 30.1132 15.9657 30.061C16.0098 30.0741 16.0802 30.061 16.1324 30.061C16.1714 30.061 16.1898 30.0662 16.2026 30.0662C16.1975 30.048 16.1975 30.0088 16.2992 29.9959C16.3481 29.9886 16.3955 29.9736 16.4398 29.9516C16.4398 29.9516 16.3433 29.9465 16.2337 29.8422C16.1242 29.738 16.0331 29.6547 15.9706 29.6416C15.9055 29.6286 15.7831 29.6859 15.7075 29.6806C15.6033 29.6677 15.559 29.6155 15.559 29.6155C15.559 29.6155 15.2126 29.6468 14.4441 29.178C13.7797 28.7715 13.4905 28.412 13.4905 28.412C13.4283 28.3895 13.3682 28.3615 13.3108 28.3286C13.0608 28.1984 12.7142 27.9274 12.7247 27.5729L12.7233 27.5755Z" fill="#C2A44D"/>
<path fill-rule="evenodd" clip-rule="evenodd" d="M22.3078 11.9392C22.3681 11.9587 22.4216 11.9949 22.4624 12.0434C22.5848 12.1841 22.6629 12.4497 22.3842 12.7338C22.4936 12.7728 22.5388 12.7853 22.6343 12.7728C22.5379 12.8875 22.3191 13.1324 22.3061 13.346C22.293 13.5205 22.4024 13.5727 22.4024 13.5727C22.4024 13.5727 22.2357 13.7654 22.2279 14.0879C22.3067 13.9991 22.3929 13.9172 22.4855 13.843C22.6784 13.6893 22.9441 13.5148 23.1239 13.4054C23.1214 13.4513 23.1276 13.4972 23.1421 13.5407C23.1421 13.5407 23.478 13.2646 23.7603 13.3872C23.8879 13.4446 23.8306 13.6242 23.8306 13.6242C23.8306 13.6242 24.0052 13.5591 24.1277 13.6816C24.2501 13.804 24.4232 14.1198 24.512 14.2423C24.551 14.2996 24.6526 14.409 24.7567 14.5784C24.8989 14.8154 25.0176 15.0658 25.1112 15.3259C25.1163 15.1904 25.1502 14.9795 25.5359 15.1123C25.9214 15.2478 26.359 15.5318 26.7263 16.0912C27.0937 16.6505 27.1847 17.282 27.3696 17.5224C27.5572 17.7542 27.75 18.1398 27.7631 18.3014C27.7761 18.463 27.7057 18.9838 28.0913 20.3932C28.2007 19.9557 28.3674 18.9838 28.3674 18.9838L28.4586 18.1267L28.5628 15.4746L25.7935 13.1739L23.6286 11.6029L22.2192 11.7384L22.3076 11.939L22.3078 11.9392Z" fill="#CAA13E"/>
<path fill-rule="evenodd" clip-rule="evenodd" d="M27.4531 15.886C27.4531 15.886 27.4139 15.6284 26.7627 15.1904C26.1113 14.758 25.6033 14.758 25.1345 14.3907C24.7749 14.1015 24.3998 13.437 24.1556 13.2183C23.9185 13.002 23.8795 12.3768 23.8795 12.3768L24.6792 11.707L25.8687 9.98778L26.8742 8.88062L27.3561 9.55038L28.0258 10.3371L28.3983 11.9158L28.5338 14.2267L27.4519 15.8861L27.4531 15.886Z" fill="#B59544"/>
<path fill-rule="evenodd" clip-rule="evenodd" d="M28.2582 18.6559C28.2779 18.3054 28.2346 17.9543 28.1304 17.6191C27.9586 17.085 27.5834 16.1367 27.4091 15.7816C27.3387 15.3881 27.3909 15.3569 27.4665 15.3126C27.542 15.2683 27.8261 15.1065 27.9817 14.5389C28.1373 13.9713 28.62 13.9528 28.62 13.9528L28.9169 13.734L29.3677 14.862L29.761 15.8807L29.8834 16.6597L29.9746 17.3239L29.761 18.7282L28.706 19.6816L28.258 18.6559H28.2582Z" fill="#C89D3A"/>
<path fill-rule="evenodd" clip-rule="evenodd" d="M13.5363 34.3075V34.2786C13.5582 34.2649 13.5776 34.2475 13.5935 34.2271C13.6117 34.201 13.6249 34.1697 13.6378 34.162C13.6639 34.149 13.7864 34.1105 13.8514 34.1229C13.9165 34.1352 14.0886 34.2061 14.1798 34.201C14.3673 34.1958 14.5861 34.0524 14.9327 34.1177C15.4537 34.214 15.5762 34.5683 15.8784 34.7689C16.0845 34.9097 16.2978 34.8471 16.329 34.8471H16.3993C16.4123 34.8471 16.5087 34.7377 16.5609 34.743C16.6651 34.7481 16.6754 34.8342 16.7405 34.8393C16.8942 34.8575 17.1913 34.7612 17.3399 34.8003C17.3839 34.8141 17.424 34.8384 17.4566 34.871C17.4893 34.9036 17.5136 34.9437 17.5274 34.9877C17.5587 35.084 17.5325 35.2065 17.457 35.2769C17.2956 35.4253 17.1419 35.5661 17.1106 35.6891C17.1504 35.7194 17.1885 35.7517 17.225 35.7859C15.936 35.4575 14.6958 34.9609 13.5363 34.309V34.3075Z" fill="#CEB052"/>
<path fill-rule="evenodd" clip-rule="evenodd" d="M27.4088 29.1023C27.4088 29.1023 27.8151 28.5605 27.9559 28.292C28.0965 28.0154 27.5104 24.512 27.5104 24.512L28.688 20.6539L28.6566 19.3981C28.6566 19.3981 28.7139 18.2388 28.8494 17.7359C29.011 18.0251 29.5139 18.3743 29.6233 18.5592C29.6748 18.2048 29.8498 17.4572 29.8238 16.66C29.9202 16.8084 30.152 18.3013 30.152 18.3013L30.3839 19.3068L30.6861 20.375L31.0222 21.5031L31.2228 22.2821L31.3373 22.4696L31.4338 22.7978L31.525 23.1522L31.7881 23.9833L31.9427 24.6657L32.0651 25.9032C32.0918 25.998 32.1109 26.0947 32.1225 26.1924C32.1276 26.3279 32.1043 26.4061 32.1043 26.4296C32.1043 26.4531 32.1486 26.7265 32.1304 26.9324C32.1043 27.1385 32.1043 27.2998 31.9427 27.4476C31.7811 27.5955 31.6796 28.4792 31.6796 28.4792L31.3904 28.2866C31.3904 28.2866 31.4477 28.0233 31.3122 27.7837C31.1768 27.5441 30.9137 27.4945 30.7651 27.5337C30.6167 27.5649 30.3198 27.6116 30.2233 27.6951C30.1321 27.7784 29.9082 28.0363 29.7022 28.1536C29.4446 28.3082 29.0249 28.3204 28.801 28.3724C28.5743 28.4239 28.3243 28.5785 28.061 28.758C27.8546 28.8916 27.6366 29.0065 27.4098 29.1014V29.1014L27.4088 29.1023Z" fill="#CCA847"/>
<path fill-rule="evenodd" clip-rule="evenodd" d="M27.4088 34.7946C27.4088 34.7946 27.4259 34.8057 27.4591 34.8239C29.3099 33.9568 30.9683 32.7276 32.3363 31.2089C32.3214 30.6817 32.3019 30.1413 32.2807 29.941C32.2365 29.5163 32.2678 29.0839 32.2547 28.8339C32.2417 28.5838 32.101 27.5651 32.0359 27.302C31.9655 27.0389 31.8299 26.9086 31.8092 26.9086C31.791 26.9139 31.6815 27.4037 31.6815 27.5268C31.6815 27.6499 31.6554 27.9464 31.6554 28.0219C31.6372 28.0166 31.6294 27.9704 31.6294 27.9515C31.6033 28.0166 31.5721 28.1313 31.559 28.1444C31.546 28.1574 31.5772 28.035 31.559 28.0089C31.5408 27.9828 31.5075 27.9958 31.5147 27.9307C31.5178 27.8921 31.5239 27.8538 31.5329 27.8162C31.5329 27.8162 31.4548 27.9307 31.3976 28.2225C31.3402 28.5117 31.3402 28.5196 31.3195 28.5455C31.3013 28.577 31.197 28.681 31.1917 28.7202C31.1865 28.7904 31.2882 28.8608 31.2959 28.8998C31.3011 28.9651 31.2047 29.2672 31.1735 29.415C31.1422 29.5629 31.1553 29.8526 31.122 30.0011C31.0959 30.1366 31.0704 30.2148 30.9813 30.272C31.0464 30.285 31.1089 30.3032 31.1089 30.3032C31.1089 30.3032 31.2001 30.6888 30.9683 31.0171C30.885 31.1317 30.8642 31.1839 30.7756 31.2881C30.6009 31.4808 30.4654 31.7003 30.4524 31.843C30.4434 31.8009 30.4373 31.7582 30.4342 31.7152C30.4342 31.7152 30.1634 32.0305 30.0486 32.2103C29.9003 32.4422 29.6944 32.4291 29.6365 32.4865C29.5786 32.5438 29.5661 32.6479 29.585 32.7314C29.5334 32.7442 29.4366 32.7626 29.3713 32.9632C29.3401 33.0673 29.2619 33.1693 29.1395 33.2393C29.017 33.3094 28.8685 33.3305 28.7929 33.3487C28.858 33.3669 28.8841 33.3669 28.9154 33.3877C28.8764 33.4528 28.6966 33.5545 28.496 33.6848C28.2954 33.8073 28.1989 33.9869 28.1494 34.1042C28.0979 34.2136 28.0218 34.284 27.8994 34.2971C27.9509 34.3283 28.0272 34.4011 28.0661 34.4246C28.0088 34.4377 27.9116 34.4377 27.738 34.5863C27.5556 34.7374 27.4931 34.7817 27.4096 34.7947L27.4088 34.7946Z" fill="#C39D3C"/>
<path fill-rule="evenodd" clip-rule="evenodd" d="M23.7838 36.0018C23.8836 35.9319 23.9916 35.8746 24.1055 35.8312C24.5118 35.6698 24.9416 35.6386 25.111 35.5865C25.2726 35.535 25.4002 35.4639 25.6008 35.4249C25.5954 35.4706 25.591 35.5135 25.5862 35.5541C24.9948 35.74 24.3926 35.8895 23.783 36.0018H23.7838Z" fill="#D2BA6B"/>
<path fill-rule="evenodd" clip-rule="evenodd" d="M31.2783 25.3143C31.2783 25.3143 31.195 25.7649 31.0464 26.0489C30.8979 26.333 30.7373 26.7263 30.7373 26.7263C30.7383 26.6376 30.7488 26.5494 30.7686 26.463C30.581 26.5724 30.1251 26.8356 29.9958 26.9528C29.8733 27.0622 29.6674 27.255 29.6154 27.3462C29.7378 26.9868 29.8654 26.6637 29.8864 26.5152C29.6988 26.6507 28.8233 27.3723 28.3676 27.849L26.9477 28.9979C26.7838 29.0863 26.6151 29.1653 26.4423 29.2346C26.1975 29.3387 25.9083 29.4273 25.6947 29.5107C25.7521 29.357 25.8431 29.2214 25.9708 29.0912C26.1063 28.9636 26.5127 28.5233 26.5752 28.3184C26.6325 28.1048 26.6456 27.9772 26.57 27.7974C26.4996 27.8156 26.3382 27.8235 26.2288 27.8547C26.1194 27.886 26.0021 28.0031 26.0021 28.0031C26.0021 28.0031 26.0854 27.5264 26.2652 27.0757C26.1297 27.0809 25.8979 27.1199 25.8979 27.1199C25.8979 27.1199 26.2209 26.578 26.7737 26.2004C26.6044 26.2364 26.4387 26.2878 26.2788 26.3539C25.9557 26.4894 25.6014 26.69 25.3383 26.7994C25.4867 26.5933 26.5288 25.1061 27.1489 23.7201C27.7672 22.3367 27.9982 21.9825 28.1337 21.2401C28.2039 20.8727 28.1852 20.3299 28.2039 19.8437C28.2221 19.3616 28.282 18.9292 28.243 18.64C28.4045 18.8406 29.009 19.4059 29.0298 20.6696C29.048 21.933 28.4515 23.6395 27.8184 24.559C27.9729 24.6033 28.3734 24.6555 28.7849 23.9407C29.1963 23.226 29.1914 23.0264 29.3399 22.7293C29.3581 22.8779 29.3528 22.9299 29.3528 22.9299C29.3528 22.9299 29.9521 22.2031 30.236 21.2887C30.2934 21.6821 30.4627 22.0287 30.1969 22.7503C29.9599 23.4015 29.6499 23.5605 29.6499 23.5605C29.6499 23.5605 29.8036 23.5344 30.0301 23.3989C30.0693 23.4953 30.0615 23.605 30.1266 23.6438C30.1917 23.6826 30.2803 23.7481 30.2934 23.8106C30.3636 23.7063 30.473 23.5734 30.507 23.4745C30.4809 23.6806 30.4627 24.5816 30.5585 25.0402C30.7593 25.022 30.965 25.0089 31.1057 24.6467C31.0093 25.0012 31.0093 25.2147 31.0744 25.5169C31.1812 25.4441 31.2776 25.3137 31.2776 25.3137L31.2783 25.3143Z" fill="#C0993A"/>
<path fill-rule="evenodd" clip-rule="evenodd" d="M24.5092 10.9545C24.5092 10.9545 24.3086 11.0378 23.9674 11.0378C23.6705 11.0378 23.7538 10.9232 23.2901 10.9232C22.5764 10.9232 20.0831 11.3354 19.6454 11.3295C19.3613 11.3244 20.604 11.452 20.604 11.452L23.7799 11.4963L24.418 11.4448L24.6552 10.9622L24.5092 10.9545Z" fill="#A88F33"/>
<path fill-rule="evenodd" clip-rule="evenodd" d="M16.2743 17.1627C16.2743 17.1627 15.8678 17.4727 15.6959 17.7098C15.524 17.947 15.4328 18.1031 15.2373 18.296C15.2832 18.2977 15.329 18.2916 15.3728 18.2778C15.3728 18.2778 15.3728 18.3293 15.3416 18.3429C15.3686 18.3398 15.3959 18.3429 15.4216 18.3518C15.4473 18.3607 15.4706 18.3753 15.49 18.3944C15.4326 18.4256 15.2763 18.5821 15.3988 18.767C15.49 18.9077 15.6828 18.9206 15.6828 18.9206C15.6828 18.9206 15.6385 19.0483 15.8235 19.0353C16.2221 19.0171 16.6675 18.8424 16.8733 18.8867C17.0793 18.9383 17.1965 18.9571 17.3423 19.2099C17.4968 19.46 17.6315 19.4991 17.6315 19.4991C17.6315 19.4991 17.7227 19.2671 17.7019 18.9207C17.7766 18.734 17.8181 18.5356 17.8243 18.3346L17.6888 17.3368L17.0976 16.5891L16.3316 17.0138L16.2743 17.1622V17.1627Z" fill="#E3C571"/>
<path fill-rule="evenodd" clip-rule="evenodd" d="M17.001 17.014C17.001 17.014 17.0584 17.1495 17.2981 17.1624C17.272 17.2198 17.272 17.2277 17.2799 17.2718C17.2851 17.3161 17.2928 17.3812 17.2928 17.3812C17.3192 17.3684 17.3431 17.351 17.3632 17.3297C17.3763 17.387 17.3502 17.4781 17.3632 17.5433C17.3713 17.583 17.3844 17.6215 17.4022 17.6579C17.406 17.649 17.4104 17.6403 17.4153 17.6319C17.4204 17.6189 17.4668 17.7726 17.5951 17.8895C17.595 17.8716 17.5994 17.8538 17.6079 17.838C17.6099 17.8707 17.6207 17.9022 17.6392 17.9292C17.6296 17.9246 17.6208 17.9185 17.6133 17.911C17.6133 17.911 17.6261 18.3232 17.6966 18.5363C17.7083 18.5225 17.7188 18.5077 17.7278 18.492C17.7278 18.4791 17.7227 18.6067 17.7096 18.6981C17.6914 18.7892 17.7045 18.9168 17.7045 18.9168C17.7514 18.8799 17.803 18.8492 17.858 18.8257C17.9361 18.7942 18.0641 18.6979 18.142 18.4842C18.1873 18.3633 18.2221 18.2386 18.2463 18.1118C18.2715 18.1603 18.2889 18.2124 18.2978 18.2663C18.3031 18.3314 18.4256 18.2976 18.4256 18.2976L18.4517 18.0135L18.6062 17.37L18.7469 16.9714L19.4242 15.9165L20.648 14.974L21.7161 15.2189L22.6174 13.9945L21.0648 13.0618L19.5954 13.2155L18.2619 15.0625L17.1939 16.7377L17.001 17.0139V17.014Z" fill="#D8B65B"/>
<path fill-rule="evenodd" clip-rule="evenodd" d="M24.6967 14.3413C24.6967 14.3413 24.6056 14.3595 24.3425 14.4959C24.0794 14.6322 23.897 14.6755 23.7953 14.8761C23.6937 15.0767 23.6859 15.2357 23.6859 15.2357C23.6859 15.2357 23.8657 15.1575 23.97 15.1314C24.0794 15.1055 24.2018 15.1132 24.1888 15.1575C24.1762 15.1879 24.1588 15.2161 24.1372 15.2408C24.1372 15.2408 24.3433 15.2357 24.3378 15.3373C24.3323 15.439 24.2988 15.551 24.2599 15.6004C24.2207 15.652 24.0593 15.7282 24.0411 15.7881C23.9968 15.9106 24.0593 15.9157 24.0357 16.0147C24.0175 16.1112 23.9317 16.2987 23.6502 16.6269C23.361 16.9552 23.238 17.1871 23.238 17.1871C23.238 17.1871 23.0974 16.924 23.0244 16.6973C22.9729 16.7232 22.6962 16.8769 22.6962 16.8769L22.0553 14.6444L22.0682 14.4959C22.0682 14.4959 22.1256 14.4256 22.1386 14.2953C22.0423 14.264 22.0292 14.2379 21.9014 14.1156C21.7737 13.9934 21.6696 13.8446 21.4561 13.743C21.4249 13.6856 21.3857 13.6077 21.2294 13.5762C21.0732 13.5448 20.9794 13.519 20.9794 13.519C20.9794 13.519 21.0627 13.4876 21.1019 13.4225C21.0053 13.4356 20.9274 13.4668 20.7163 13.4617C20.5027 13.4564 20.4791 13.4486 20.362 13.4668C20.2449 13.485 20.1044 13.5372 20.052 13.3574C19.9947 13.3131 19.8722 13.3523 19.768 13.5058C19.6638 13.6593 19.6273 13.782 19.4268 13.8419C19.4127 13.9303 19.3817 14.0152 19.3356 14.0919C19.2782 14.1885 19.187 14.2848 19.0646 14.428C18.8717 14.6547 18.903 15.0272 18.5956 15.3112C18.2856 15.5951 18.6471 14.5244 18.6471 14.5244L19.142 13.3394L20.5514 11.9612L22.7398 11.8129L22.9535 12.9463L24.0217 13.3136L24.6964 14.3427L24.6967 14.3413Z" fill="#D3AE4D"/>
<path fill-rule="evenodd" clip-rule="evenodd" d="M25.0433 14.5912L24.1237 13.2653L23.4802 12.7702C23.4802 12.7702 23.0217 11.9263 22.9904 11.9002C22.9643 11.882 22.5319 11.8351 22.2557 11.8169L22.3072 11.9445C22.3675 11.9641 22.4211 12.0002 22.4618 12.0487C22.5842 12.1894 22.6624 12.4551 22.3837 12.7391C22.4931 12.7781 22.5382 12.7906 22.6337 12.7781C22.5374 12.8928 22.3186 13.1377 22.3055 13.3513C22.2925 13.5258 22.4019 13.5778 22.4019 13.5778C22.4019 13.5778 22.2351 13.7707 22.2274 14.093C22.3061 14.0042 22.3923 13.9223 22.485 13.8482C22.6778 13.6936 22.9435 13.5198 23.1233 13.4104C23.1209 13.4563 23.127 13.5023 23.1415 13.5459C23.1415 13.5459 23.4774 13.2698 23.7598 13.3922C23.8874 13.4496 23.83 13.6294 23.83 13.6294C23.83 13.6294 24.0047 13.5643 24.1271 13.6867C24.2495 13.8092 24.424 14.1243 24.5126 14.2469C24.5516 14.3043 24.6533 14.4137 24.7574 14.5828C24.8996 14.8199 25.0183 15.0704 25.1118 15.3306C25.117 15.2263 25.1379 15.0805 25.3179 15.0805L25.0443 14.5907L25.0433 14.5912Z" fill="#CAA13E"/>
<path fill-rule="evenodd" clip-rule="evenodd" d="M11.2567 18.3584C11.2567 18.3584 11.1917 18.1968 11.2567 17.8816C11.3218 17.5665 11.4235 17.418 11.4573 16.9543C11.4912 16.4906 11.7934 15.9122 11.7934 15.9122L12.6296 15.532L13.221 15.6934L13.3955 16.4854L12.6478 16.8976C12.6478 16.8976 12.6088 17.0721 12.3977 17.2127C12.1867 17.3534 11.8949 17.4628 11.8247 17.6062C11.7827 17.694 11.752 17.7868 11.7335 17.8823C11.7335 17.8823 11.5198 17.838 11.3922 17.9787C11.2567 18.1221 11.2619 18.2497 11.2567 18.3591V18.3584Z" fill="#F4EFC8"/>
<path fill-rule="evenodd" clip-rule="evenodd" d="M12.9449 18.1473C12.9449 18.1473 12.8745 18.1916 12.8224 18.3019C12.7709 18.2186 12.6478 17.7235 12.6426 17.278C12.6375 16.8325 12.6109 16.7221 12.7139 16.5686C12.817 16.415 13.221 16.2533 13.1637 15.9768C13.1063 15.7137 12.8666 15.6043 12.5722 15.6799C12.3662 15.7314 12.2128 16.1696 11.9992 16.3884C11.8376 16.5552 11.6449 16.5291 11.5928 16.6203C11.5224 16.7427 11.5875 16.8652 11.5667 16.9433C11.5614 16.9694 11.4963 17.1101 11.379 17.2794C11.142 17.6206 10.7409 18.1027 10.6887 18.5351C10.7069 18.2902 10.694 18.2851 10.7591 18.0141L10.7199 17.949L10.9775 17.1049L11.1443 16.4094L11.5169 15.2447L12.1733 14.0542L12.8116 13.3403L13.4759 13.3846L13.554 14.3824L13.9344 16.2557L14.7342 17.2404L13.4524 18.103L12.9444 18.1473H12.9449Z" fill="#EBCC73"/>
<path fill-rule="evenodd" clip-rule="evenodd" d="M13.3435 18.5013C13.3435 18.5013 13.2341 18.5274 13.1949 18.5066C13.1558 18.4859 13.1169 18.4623 13.1298 18.4362C13.1427 18.4101 13.2131 18.366 13.2131 18.345C13.2146 18.3261 13.2086 18.3073 13.1964 18.2928C13.1843 18.2782 13.1669 18.2689 13.148 18.2669C13.0881 18.2592 13.0699 18.2981 13.0699 18.2981C13.0699 18.2981 13.0125 18.254 12.9658 18.2466C12.9935 18.2432 13.0213 18.2415 13.0491 18.2413C12.9771 18.2087 12.9007 18.1868 12.8224 18.1762C12.8875 18.1372 13.0153 18.0225 13.0986 18.0225C13.1819 18.0225 13.2341 18.0096 13.221 17.9653C13.208 17.921 13.1429 17.8559 13.0726 17.8298C13.0986 17.7986 13.1169 17.7517 13.0544 17.6238C12.9892 17.4962 13.0153 17.4101 13.0362 17.379C13.0544 17.3399 13.1195 17.2696 13.1508 17.2253C13.182 17.181 13.2081 17.1211 13.2602 17.0898C13.2863 17.0716 13.3696 17.0383 13.453 17.0065C13.5442 16.9753 13.6198 16.9361 13.6718 16.9753C13.7292 17.0143 13.7031 17.0665 13.7031 17.0665C13.7031 17.0665 13.8829 17.0012 14.0443 17.0847C14.2059 17.1626 14.5993 17.2123 14.5993 17.2123L14.7403 17.4963L13.8077 18.2961L13.4221 18.4889L13.344 18.5018L13.3435 18.5013Z" fill="#E5C66B"/>
<path fill-rule="evenodd" clip-rule="evenodd" d="M14.6382 17.1939C14.6382 17.1939 14.349 17.3867 14.2839 17.457C14.3229 17.4623 14.388 17.4884 14.3618 17.5274C14.3306 17.5664 14.1431 17.7019 14.0388 17.8296C13.9294 17.9572 13.8252 18.1188 13.7888 18.197C13.7498 18.2672 13.4527 18.4731 13.3512 18.4991C13.5648 18.4991 13.9947 18.236 14.1561 18.236C14.151 18.3141 14.2004 18.4027 14.2916 18.4104C14.3828 18.4182 14.6459 18.4678 15.0002 18.249C15.3545 18.0354 15.2373 17.8763 15.3857 17.7723C15.6698 17.5846 15.7843 17.4178 15.9406 17.3137C16.0969 17.2097 16.1778 17.186 16.1778 17.186C16.1778 17.186 16.1829 17.1078 16.2293 17.1157C16.242 17.1172 16.254 17.1221 16.2641 17.1299C16.2742 17.1377 16.282 17.1481 16.2866 17.16C16.2866 17.16 16.5576 16.9672 16.9049 16.9152C16.8968 16.9115 16.8903 16.9051 16.8867 16.8969C16.8867 16.8969 16.9126 16.8839 16.9179 16.8708C16.9179 16.8708 16.9361 16.8447 16.9492 16.8578C16.9622 16.8708 16.9804 16.9672 17.0065 17.0063C17.0639 16.9802 17.1733 16.7353 17.1733 16.7353L17.4366 15.9825V15.2947L17.2305 15.3338L15.6849 15.9902L14.7469 16.962L14.6375 17.1939H14.6382Z" fill="#E6BD62"/>
<path fill-rule="evenodd" clip-rule="evenodd" d="M19.0878 13.8202C19.1714 13.7999 19.2515 13.7674 19.3256 13.7237C19.2944 13.8072 19.2944 13.8984 19.1589 14.0964C19.0234 14.2944 19.0182 14.3231 18.9088 14.5288C18.7994 14.7424 18.7864 15.0498 18.6821 15.1852C18.7289 15.1625 18.779 15.1475 18.8305 15.141C18.8305 15.141 18.7264 15.2322 18.6821 15.3286C18.6378 15.4249 18.5597 15.6255 18.367 15.7481C18.1743 15.8707 17.9293 15.9487 17.6662 16.2379C17.4029 16.5218 17.1321 16.8814 16.9964 17.0107C17.0668 16.8882 17.1632 16.6433 17.1893 16.4819C17.2154 16.3205 17.1839 16.1275 17.2282 15.914C17.2725 15.7005 17.2725 15.5467 17.4858 15.174C17.6991 14.8013 18.0642 13.5066 18.0642 13.5066L18.8509 13.2566L19.0881 13.8194L19.0878 13.8202Z" fill="#B6933F"/>
<path fill-rule="evenodd" clip-rule="evenodd" d="M18.5198 13.3435C18.5198 13.3435 18.2829 13.6847 18.2178 13.9869C18.1527 14.2892 18.2124 14.2631 18.1735 14.4116C18.1501 14.5022 18.1501 14.5972 18.1735 14.6878C18.2555 14.5556 18.3679 14.4448 18.5013 14.3646C18.7254 14.2293 18.9078 14.1327 19.0165 14.0182C19.1259 13.8958 19.2171 13.6952 19.4541 13.5415C19.3577 13.5284 19.2222 13.4841 19.1965 13.4899C19.293 13.3806 19.582 13.2138 19.8738 13.0132C20.163 12.8071 20.1448 12.724 20.6138 12.5183C20.4601 12.5444 20.3871 12.5052 20.2593 12.5183C20.3109 12.4089 20.4912 12.3567 20.6715 12.177C20.8518 11.9974 20.557 11.7316 20.557 11.7316L19.1831 12.5626L18.5188 13.3441L18.5198 13.3435Z" fill="#C49937"/>
<path fill-rule="evenodd" clip-rule="evenodd" d="M14.7919 12.7234L14.8231 12.4733L15.2166 11.8429L15.6282 10.7357V9.22206L15.597 8.34674L15.662 7.77349L15.7115 7.59128L15.7637 7.52087L16.0996 7.69536L16.5635 8.32579L16.6078 9.54252L16.157 11.4625L14.87 12.8668L14.7919 12.7234Z" fill="#DFC068"/>
<path fill-rule="evenodd" clip-rule="evenodd" d="M15.8157 7.45043C15.8157 7.45043 15.6097 7.45575 15.5657 8.31287C15.5217 9.16999 15.5004 9.62062 15.4692 10.0453C15.4379 10.47 15.3651 10.7278 15.3285 10.978C15.292 11.2282 15.2712 11.5693 15.1541 11.7778C15.1025 11.8741 14.9924 12.1764 14.7345 12.403C14.4453 12.6531 14.0132 12.8277 13.9478 12.8408C13.8331 12.8667 13.2521 12.9241 13.0151 13.0544C12.9318 13.0987 12.7884 13.1508 12.6296 13.2993C12.3143 13.5832 11.8949 14.0912 11.5926 14.7034C11.129 15.6179 10.6653 18.1996 10.6653 18.1996L10.7695 18.0251C10.7695 18.0251 10.7826 17.7932 11.0144 17.3867C11.2411 16.9804 11.176 16.5245 11.4911 15.7455C11.6136 15.4486 11.7673 15.063 11.9548 14.7347C12.2519 14.2006 12.6114 13.742 12.9736 13.492C13.5648 13.0857 14.2162 12.9971 14.2162 12.9971L14.9171 12.5334C14.9171 12.5334 15.0395 12.2964 15.2011 12.0254C15.4276 11.6452 15.7163 11.2205 15.7793 10.6031C15.8758 9.68863 15.6438 9.08945 15.6569 8.54763C15.6699 8.00581 15.6751 7.60722 15.7847 7.51071C15.8942 7.41419 15.8159 7.45077 15.8159 7.45077L15.8157 7.45043Z" fill="#A88F33"/>
<path fill-rule="evenodd" clip-rule="evenodd" d="M15.8158 11.5407C15.8158 11.5407 16.1249 10.7799 16.2664 10.1051C16.2925 9.96964 16.3445 9.83432 16.3576 9.72492C16.4227 9.08659 16.4409 8.82349 16.3576 8.47436C16.2925 8.21676 16.0424 7.98458 15.9121 7.8046C15.7845 7.61689 15.7246 7.547 15.7507 7.5075C15.7768 7.468 15.8783 7.40343 15.9772 7.41116C16.0823 7.41422 16.1858 7.43863 16.2812 7.48292C16.3766 7.5272 16.462 7.59043 16.5322 7.66876C16.7328 7.9006 16.8917 8.68748 16.8917 8.68748L17.0588 9.72578L17.4835 11.0335L15.8161 11.5417L15.8158 11.5407Z" fill="#C99E3D"/>
<path fill-rule="evenodd" clip-rule="evenodd" d="M18.7204 10.7487C18.7204 10.7487 18.6631 10.7747 18.559 10.7487C18.5634 10.7913 18.5561 10.8342 18.5377 10.8728C18.5193 10.9114 18.4906 10.9442 18.4548 10.9675C18.3454 10.9232 17.3213 11.0118 17.3213 11.0118C17.3213 11.0118 16.8446 10.9284 16.696 10.2979C16.592 9.87839 16.7742 9.30017 16.7142 8.91978C16.623 8.35958 16.4955 8.25002 16.4824 8.07571C16.4693 7.9014 16.4563 7.85692 16.4563 7.74752C16.3989 7.73447 16.3651 7.71627 16.3079 7.71627C16.2949 7.66475 16.3208 7.61975 16.2636 7.52856C16.2949 7.54162 16.5085 7.56772 16.7585 7.80471C16.9646 7.99757 16.9646 8.06781 16.9957 8.10696C17.0347 8.14595 17.35 8.41608 17.4855 8.68536C17.621 8.95464 17.8841 9.81331 17.944 9.95395C17.9622 10.0113 18.0014 10.0687 18.0986 10.1988C18.2497 10.3866 18.4711 10.6969 18.7211 10.7484L18.7204 10.7487Z" fill="#B58634"/>
<path fill-rule="evenodd" clip-rule="evenodd" d="M17.0325 8.12C17.1903 8.37493 17.3321 8.63946 17.457 8.91203C17.6107 9.25842 17.7019 9.54246 17.8947 9.7743C17.7905 9.47222 17.6055 8.8782 17.4962 8.66714C17.3737 8.44388 17.1237 8.20346 17.0325 8.12017V8.12Z" fill="#A88F33"/>
<path fill-rule="evenodd" clip-rule="evenodd" d="M15.2609 12.403C15.2609 12.403 14.9978 12.4681 14.508 12.726C14.3464 12.8093 14.1929 12.8796 14.0443 12.9448C13.6584 13.1193 13.2446 13.2806 12.9162 13.3695C12.9423 13.4008 12.9552 13.4137 12.9552 13.4137C12.9552 13.4137 12.9552 13.5414 13.0256 13.6142C12.9866 13.6534 12.4654 14.0077 12.6193 15.193C12.7233 15.154 12.8458 15.1018 12.864 15.1018C12.8954 15.1071 12.9032 15.193 12.9421 15.193C12.9811 15.193 13.1089 15.1415 13.2444 14.9663C13.2392 15.0367 13.1611 15.7453 13.5805 16.222C13.6586 16.1308 13.8566 15.8286 13.8566 15.8286L13.8618 15.7322C13.8618 15.7322 13.88 15.3961 13.9895 15.0887C14.0991 14.7813 14.3126 14.5547 14.3126 14.5547L15.4273 12.9629L15.2605 12.4028L15.2609 12.403Z" fill="#E6C367"/>
<path fill-rule="evenodd" clip-rule="evenodd" d="M14.2188 14.7403C14.1677 14.7764 14.1115 14.8044 14.052 14.8236C14.0338 14.7585 14.0077 14.5344 14.1614 14.3156C14.3412 14.0523 14.7345 13.7111 14.8439 13.4398C14.9143 13.2651 14.883 12.8275 15.5083 12.2673C16.1336 11.7071 16.3783 11.5145 16.3783 11.5145L17.3892 11.0065L18.6318 11.4963L18.0144 13.916L17.5351 15.0494L15.6289 14.69L14.2186 14.7403H14.2188Z" fill="#DCBA5A"/>
<path fill-rule="evenodd" clip-rule="evenodd" d="M14.9464 14.0832L15.1836 13.7863V13.5753C15.1836 13.5753 15.4467 13.5048 15.7305 13.2156C16.0144 12.9264 16.4079 12.3716 16.7544 12.4054C17.101 12.4446 17.1348 13.1583 17.1479 13.359C17.1609 13.5598 17.2052 14.0154 17.2755 14.2605C17.3536 14.5054 16.4314 15.4327 16.4314 15.4327L15.8051 15.9095L14.9464 14.0832Z" fill="#E9CE77"/>
<path fill-rule="evenodd" clip-rule="evenodd" d="M15.6802 16.5555C15.6802 16.5555 15.8731 16.2533 15.7318 16.1882C15.815 16.0007 15.9687 15.8027 15.9687 15.8027C15.9687 15.8027 16.0781 15.5318 16.4324 15.1983C16.7867 14.8648 17.0057 14.6433 17.063 14.4194C17.0984 14.2734 17.1176 14.124 17.1204 13.9739C17.1587 14.0052 17.1997 14.033 17.2428 14.0572C17.3002 14.0833 17.571 14.3072 17.532 14.758C17.4931 15.2088 17.326 15.3963 17.326 15.3963C17.326 15.3963 17.1645 15.5578 17.05 15.6412C16.9274 15.7245 16.8832 15.8209 16.6773 15.8288C16.6985 15.8119 16.7223 15.7987 16.7477 15.7896C16.7477 15.7896 16.5341 15.7637 16.4194 15.8678C16.3047 15.9718 16.0608 16.2924 15.9384 16.389C15.8159 16.4671 15.6808 16.5557 15.6808 16.5557L15.6802 16.5555Z" fill="#CDAE50"/>
<path fill-rule="evenodd" clip-rule="evenodd" d="M24.3425 11.4884C24.0347 11.3763 23.7112 11.313 23.3838 11.3009C22.8367 11.2827 22.0369 11.314 21.2528 11.3191C20.4087 11.3243 19.6428 11.0299 18.5799 10.9779C18.4055 10.8736 17.9617 10.4177 16.5765 11.3842C16.6598 11.3791 17.5822 11.1706 17.9025 11.5719C18.2255 11.9705 18.1343 12.6478 18.0902 12.8092C18.0067 13.1689 17.7357 13.6925 17.6265 14.0598C17.5173 14.4271 17.543 14.6202 17.4649 14.8778C17.3867 15.1354 17.2148 15.2633 17.3163 15.5602C17.4518 15.477 17.5224 15.477 17.7488 14.969C17.9751 14.461 17.9286 14.0988 18.3038 13.6689C18.6711 13.2365 19.2827 12.6451 19.5152 12.4965C19.7477 12.348 21.594 11.3894 23.5272 12.3038C23.9935 12.2544 24.3426 11.4883 24.3426 11.4883L24.3425 11.4884Z" fill="#D2A83E"/>
<path fill-rule="evenodd" clip-rule="evenodd" d="M17.3553 11.134C17.3534 11.1144 17.3491 11.0952 17.3424 11.0766C17.3244 11.0385 17.3006 11.0034 17.272 10.9724C17.272 10.9724 16.8135 10.8891 16.5817 10.915C16.1752 10.9593 15.8078 11.4622 15.6359 11.7201C15.464 11.9781 15.2504 12.3765 15.0185 12.5824C15.0211 12.5623 15.0165 12.542 15.0055 12.525C15.0055 12.525 15.0185 12.5432 14.9926 12.5693C14.9667 12.5954 14.9665 12.6083 14.9796 12.6209L15.0187 12.6598C15.0316 12.6598 15.3912 12.4982 15.881 12.0416C16.402 11.5649 16.8006 11.3203 17.0091 11.2365C17.1203 11.1893 17.2365 11.1549 17.3555 11.134V11.134H17.3553Z" fill="#C29637"/>
<path fill-rule="evenodd" clip-rule="evenodd" d="M26.2496 9.17517C26.2496 9.17517 26.1661 9.27924 26.0619 9.39396C25.83 9.63885 25.5278 9.91483 25.2698 10.1989C25.0251 10.4699 24.749 10.6809 24.4388 11.0352C24.1287 11.3895 23.7691 11.7828 23.678 11.8975C23.5947 12.0122 23.5297 12.1997 23.5297 12.2961C23.4854 12.2648 23.4333 12.231 23.4333 12.231C23.4552 12.2719 23.4814 12.3103 23.5115 12.3457C23.5765 12.4369 23.678 12.5518 23.7302 12.6219C23.7943 12.7111 23.8403 12.8119 23.8656 12.9188C23.8968 12.9239 24.0974 12.9631 24.3476 12.5514C24.5978 12.1398 24.9259 11.6892 24.9259 11.6892L25.4469 10.9153L25.7752 10.259L26.1874 9.5243L26.2501 9.17517H26.2496Z" fill="#AC8132"/>
<path fill-rule="evenodd" clip-rule="evenodd" d="M26.7837 8.64893C26.7837 8.64893 26.4684 8.90653 26.3459 9.06109C26.2235 9.21565 25.9337 9.62128 25.9337 9.62128L26.038 9.60823L26.5669 9.1394L26.773 8.77206L26.7835 8.64961L26.7837 8.64893Z" fill="#A88F33"/>
<path fill-rule="evenodd" clip-rule="evenodd" d="M26.6871 29.3522C26.6871 29.3522 26.682 29.1386 26.8019 29.011C26.9243 28.8832 27.2343 28.6957 27.5365 27.9923C27.8388 27.2888 27.8724 27.13 27.8724 27.13C27.8724 27.13 27.3306 27.5937 26.9966 27.7031C27.0747 27.5415 27.119 27.4269 27.1582 27.3435C27.1139 27.3045 26.9264 27.2602 26.9082 27.2394C27.0122 27.1351 27.0696 26.8798 27.2806 26.7105C27.5516 26.5044 28.0466 26.1503 28.4313 25.8346C28.8159 25.519 29.5723 24.7848 29.6688 24.5712C29.7261 24.6545 29.739 24.7065 29.739 24.7065C29.739 24.7065 29.3588 25.2016 29.1608 25.5167C28.9861 25.7877 28.9992 25.9414 28.9992 25.9414L29.3588 25.7869C29.3588 25.7869 29.4629 26.1724 28.9915 26.7587C29.1975 26.6806 29.2807 26.7275 29.3978 26.6622C29.2049 26.7848 28.9392 26.9516 28.6892 27.4099C28.4443 27.8684 28.1108 28.4025 27.5482 28.7359C27.0011 29.0876 26.6858 29.3507 26.6858 29.3507L26.6871 29.3522Z" fill="#A67A2E"/>
<path fill-rule="evenodd" clip-rule="evenodd" d="M25.2751 11.7596C25.2751 11.7596 25.0615 12.2049 25.0303 12.5515C25.0251 12.6349 25.0042 12.7 25.0042 12.7963C24.999 13.1063 25.0224 13.4529 24.9526 13.6143C24.9265 13.5492 24.9135 13.5049 24.8874 13.479C24.8484 13.5884 24.778 13.9296 24.7206 14.0572C24.6947 13.9739 24.6373 13.6847 24.6427 13.3435C24.648 13.0023 24.6555 12.937 24.6555 12.8668C24.6427 12.9708 24.5722 13.1117 24.5461 13.1949C24.5072 13.1247 24.4629 13.0335 24.4106 12.9579C24.3794 13.0095 24.3404 13.0855 24.3066 13.1247C24.3013 13.0934 24.2884 13.01 24.2805 12.8929C24.2753 12.7574 24.2674 12.5829 24.2753 12.5463C24.2882 12.4761 24.3978 12.1999 24.6296 11.9471C24.9058 11.6449 25.1898 11.0641 25.2731 10.8843C25.3564 10.7045 25.7107 9.95691 25.7107 9.95691H25.9817L25.5882 10.853C25.5882 10.853 25.3512 11.3428 25.2288 11.5228C25.1063 11.7028 24.8484 12.2185 24.7337 12.419C24.817 12.3097 24.8874 12.2523 24.9708 12.1481C25.0516 12.0751 25.2755 11.7599 25.2755 11.7599L25.2751 11.7596Z" fill="#8C6228"/>
<path fill-rule="evenodd" clip-rule="evenodd" d="M26.7888 8.61499C26.7446 8.75123 26.6746 8.87773 26.5827 8.98765C26.4211 9.18051 26.0746 9.43828 25.9054 9.64402C25.7509 9.8446 25.4417 10.3917 25.5822 11.0404C25.6337 10.8997 25.7308 10.621 25.9887 10.3057C26.2467 9.9904 26.5228 9.62839 26.6585 9.34709C26.7938 9.06304 26.812 8.8391 26.812 8.8391L26.8635 8.77402L26.8323 8.62547L26.788 8.61499H26.7888Z" fill="#CBA94C"/>
<path fill-rule="evenodd" clip-rule="evenodd" d="M32.0643 25.8951C32.0643 25.8951 31.96 25.6112 31.9288 25.3533C31.8975 25.0954 31.9803 25.0442 31.8845 24.749C31.8271 24.5692 31.723 24.5944 31.6969 24.5692C31.6708 24.5439 31.6526 24.2722 31.6578 24.1237C31.6629 23.9751 31.6526 23.7825 31.6265 23.699C31.5875 23.6677 31.5614 23.6416 31.5041 23.4489C31.439 23.2561 31.4077 23.1597 31.3765 23.1026C31.3452 23.0454 31.2539 22.9932 31.2539 22.9358C31.2539 22.8211 31.3581 22.7613 31.3581 22.7297C31.353 22.6646 31.2748 22.7168 31.2539 22.6985C31.2279 22.6672 31.3191 22.4797 31.2853 22.4536C31.2722 22.4407 31.1811 22.5501 31.1575 22.5188C31.1314 22.4874 31.1002 22.1774 31.0533 21.9717C31.0091 21.7711 30.9621 21.6253 30.9569 21.5654C30.9518 21.508 30.5973 20.4972 30.5115 20.2523C30.4423 20.0454 30.384 19.8349 30.337 19.6219C30.3109 19.4994 30.2927 19.2492 30.2796 19.2753C30.2666 19.3014 30.2745 19.429 30.2535 19.4239C30.2353 19.4185 30.1702 18.9732 30.1495 18.9028C30.1312 18.8324 30.0217 18.5937 29.9949 18.4209C29.9688 18.2463 29.9116 17.7903 29.8724 17.4804C29.8333 17.1704 29.8151 17.0428 29.8151 16.9652C29.8215 16.7753 29.811 16.5852 29.7838 16.3972C29.7323 16.0689 29.6293 15.6703 29.5389 15.4386C29.3645 15.0009 28.9006 13.8806 28.8177 13.6019C28.8177 13.5315 28.9088 13.5707 28.9088 13.5707C28.9088 13.5707 29.1354 14.1386 29.3021 14.5762C29.4637 15.0139 29.6174 15.3995 29.6566 15.4386C29.6878 15.4776 29.9327 15.9074 30.0421 16.6109C30.1515 17.3143 30.1905 17.9629 30.2558 18.3953C30.287 18.6014 30.3131 18.82 30.3782 19.0388C30.4484 19.276 30.5578 19.5209 30.7012 19.896C30.8237 20.2113 30.9149 20.4744 30.9643 20.701C31.0217 20.9902 31.0217 21.209 31.0555 21.3524C31.0869 21.4749 31.1337 21.7196 31.2432 22.0737C31.3528 22.4278 31.514 22.8839 31.6234 23.1678C31.8372 23.7357 31.9326 24.2099 31.9648 24.4627C31.9934 24.7232 32.0899 25.6246 32.0638 25.8955L32.0643 25.8951Z" fill="#A88F33"/>
<path fill-rule="evenodd" clip-rule="evenodd" d="M26.8019 8.58374L26.7888 8.615C26.7888 8.615 26.8278 8.62805 26.8201 8.68026C26.8206 8.75168 26.8163 8.82307 26.807 8.89389C26.7941 8.98508 26.768 9.05532 26.7629 9.11268C26.7629 9.23513 26.7811 9.37578 26.6083 9.72491C26.5568 9.82125 26.525 9.90454 26.4989 9.9619C26.4338 10.1026 26.4208 10.1235 26.3634 10.1886C26.4546 10.1371 26.783 9.93099 26.9496 9.9619C26.835 10.027 26.6604 10.1548 26.551 10.3215C26.5771 10.3267 26.6865 10.3476 26.8601 10.3215C27.1493 10.2772 27.4723 10.173 27.7562 10.1937C28.0663 10.2119 27.9439 9.82125 27.9439 9.82125L27.586 9.03454L26.9087 8.55798L26.8019 8.58392V8.58374Z" fill="#BE9C44"/>
<path fill-rule="evenodd" clip-rule="evenodd" d="M28.5681 14.4768C28.5681 14.4768 28.2659 14.1745 28.1434 13.1372C28.021 12.0952 28.0471 10.5612 28.0471 10.5612L27.8022 9.96206C27.8022 9.96206 27.7507 9.56346 27.6224 9.41508C27.4941 9.26671 27.2422 9.01649 27.1275 8.89405C27.0128 8.7716 26.8826 8.60485 26.8044 8.57874C26.8434 8.51366 27.0181 8.14632 27.6875 8.14117C28.3569 8.13601 28.5633 8.5085 28.6332 8.644C28.7031 8.7795 29.0188 9.36528 29.1359 10.4815C29.2453 11.5964 29.2506 11.6799 29.2324 12.0654C29.2194 12.2791 29.1489 12.774 29.0263 13.3028C28.9144 13.751 28.7919 14.2513 28.5678 14.4778L28.5681 14.4768Z" fill="#A17C34"/>
<path fill-rule="evenodd" clip-rule="evenodd" d="M27.6204 15.3651C27.7211 15.3724 27.8217 15.3497 27.9096 15.2999C28.0059 15.2947 28.355 15.339 28.6233 14.9978C28.6415 15.0758 28.6885 15.287 28.5659 15.4745C28.6312 15.4093 28.7275 15.3833 28.7406 15.3651C28.7457 15.4615 28.8369 15.7584 28.4514 16.48C28.5554 16.3655 28.6779 16.3706 28.7873 16.3576C28.7926 16.4931 28.8654 16.9489 28.6727 17.1939C28.5451 17.3607 28.3367 17.3085 28.3367 17.3085C28.3397 17.2721 28.3397 17.2355 28.3367 17.1991C28.3315 17.1287 28.3054 17.0584 28.3238 17.0115C28.223 16.9655 28.1313 16.902 28.0528 16.8238C27.8261 16.6102 27.5317 16.2456 27.511 15.9746C27.4849 15.6724 27.7558 15.6073 27.7558 15.6073C27.7331 15.587 27.7138 15.5632 27.6985 15.5369C27.6854 15.4927 27.6724 15.4223 27.6204 15.3651V15.3651Z" fill="#8C6228"/>
<path fill-rule="evenodd" clip-rule="evenodd" d="M25.6111 12.0877C25.6111 12.0877 25.598 12.0695 25.5278 12.1528C25.5408 12.0695 25.5539 11.9912 25.559 11.9156C25.5923 11.8457 25.6353 11.7808 25.6868 11.723C25.6476 11.8009 25.6215 11.8713 25.6215 11.8713C25.6215 11.8713 25.7181 11.6915 25.8587 11.5821C25.955 11.504 26.0775 11.4676 26.1295 11.3946C26.1869 11.3165 26.1738 11.3034 26.1869 11.2904C26.1869 11.2904 26.3147 11.2071 26.5101 10.962C26.536 10.9308 26.5752 10.8969 26.6013 10.8657C26.6454 10.8475 26.7497 10.8006 26.8721 10.7379C26.9999 10.6677 27.1431 10.5713 27.2317 10.5318C27.4062 10.4537 27.5913 10.4616 27.6772 10.339C27.7423 10.3208 27.8125 10.1253 27.7996 9.95874C27.896 9.99772 28.3909 10.3051 28.5604 10.9773C28.6829 11.454 28.4639 12.1887 28.3727 12.5432C28.2815 12.8976 28.2686 13.1605 28.1409 13.322C27.9793 13.5358 27.4584 13.8372 27.3306 13.9864C27.2212 14.1088 26.8931 14.4188 26.9059 14.6428C26.919 14.8095 27.1247 14.9004 27.1692 14.932C27.2137 14.9636 27.2133 15.0024 27.2968 14.9835C27.3803 14.9646 27.4113 14.9261 27.4453 14.9261C27.4843 14.9313 27.4843 14.9392 27.5025 14.9392C27.5157 14.9388 27.5289 14.937 27.5417 14.9339C27.5417 14.9339 27.5286 15.171 26.9738 15.243C26.9346 15.2483 26.8956 15.2612 26.846 15.2691C26.9113 15.2378 26.9502 15.2378 27.0206 15.1415C26.9425 15.1284 26.7184 15.1154 26.661 15.0972C26.6792 15.0659 26.7392 14.9825 26.7886 14.9435C26.8329 14.9045 26.7835 14.892 26.7445 14.9122C26.6774 14.9579 26.613 15.0074 26.5516 15.0606C26.4866 15.118 26.4292 15.1961 26.325 15.2667C26.2937 15.1624 26.2989 14.9644 26.4215 14.8212C26.39 14.8264 26.3301 14.9175 26.2729 14.8993C26.2626 14.8043 26.2687 14.7082 26.2911 14.6153C26.3224 14.498 26.4917 14.2923 26.4917 14.2923L27.3097 12.8306L27.4842 11.7235L25.6111 12.0874V12.0877Z" fill="#92723A"/>
<path fill-rule="evenodd" clip-rule="evenodd" d="M25.5669 12.1503C25.5669 12.1503 25.5226 12.1816 25.6112 12.2415C25.5982 12.2597 25.5669 12.3248 25.5278 12.3691C25.4836 12.4206 25.4366 12.4526 25.4184 12.4969C25.3794 12.5881 25.3481 12.6506 25.3481 12.6897C25.3481 12.7289 25.3351 12.9789 25.2257 13.1404C25.1866 13.1977 25.1422 13.2941 25.111 13.3592C25.0459 13.4737 24.9885 13.5652 24.9755 13.6168C24.9496 13.7079 24.9314 13.958 24.9314 13.958C24.9314 13.958 24.9887 13.8876 25.0095 13.8616C24.9781 13.9267 24.9442 13.997 24.8948 14.0492C24.926 14.0231 25.0172 13.958 25.1709 13.8225C25.3846 13.6429 25.7181 13.3406 26.1246 13.1012C26.0019 13.1455 25.8979 13.1455 25.8146 13.1586C25.8797 13.0935 26.4658 12.4057 26.7732 12.3406C26.7919 12.3169 26.8011 12.2872 26.7993 12.2571L26.536 12.2312L26.0019 12.3458L25.924 11.9336L25.5669 12.1498V12.1503Z" fill="#B18E3E"/>
<path fill-rule="evenodd" clip-rule="evenodd" d="M26.4163 14.495C26.4163 14.495 26.3459 14.5652 26.2808 14.7399C26.2307 14.6875 26.1877 14.6288 26.153 14.5652C26.0567 14.4038 25.9083 14.1979 25.5618 14.3152C25.5566 14.2058 25.5487 14.1484 25.5618 14.0703C25.6191 14.0574 25.7936 13.9167 25.9681 13.7108C26.0907 13.5702 26.2053 13.4086 26.2834 13.2028C26.3349 13.1637 26.424 13.0986 26.541 13.023C26.7077 12.9085 26.9083 12.752 26.9396 12.5776C26.8614 12.6088 26.6947 12.687 26.4445 12.6741C26.541 12.6298 26.6894 12.5829 26.6712 12.39C26.7103 12.3639 26.7416 12.3457 26.7416 12.3457C26.7122 12.3359 26.6813 12.3315 26.6504 12.3327C26.6451 12.3145 26.6373 12.2885 26.593 12.3014C26.5487 12.3143 26.5415 12.3145 26.5357 12.3327C26.5175 12.338 26.4575 12.3327 26.4132 12.3641C26.3689 12.3955 26.2465 12.4994 26.1996 12.5176C26.2178 12.4864 26.2437 12.4397 26.2437 12.4397C26.2437 12.4397 26.1161 12.4525 26.0249 12.4912C25.8582 12.5485 25.6655 12.6528 25.4701 12.7543C25.4883 12.723 25.4962 12.7028 25.509 12.6969C25.5219 12.6911 25.5534 12.684 25.5534 12.6787C25.5534 12.6734 25.5405 12.6272 25.5482 12.6085C25.6066 12.4847 25.6756 12.3662 25.7543 12.2542C25.8455 12.1316 25.8637 11.9571 25.8637 11.9571L26.2623 11.7565L27.3825 11.4989L28.1094 11.5432L28.0182 12.046L27.5889 12.9239L27.2216 13.7237L26.802 14.2137L26.4165 14.495H26.4163Z" fill="#543E26"/>
<path fill-rule="evenodd" clip-rule="evenodd" d="M28.2321 12.3188C28.2321 12.3188 27.7943 12.8607 27.6719 12.9441C27.75 12.7774 28.2321 11.7848 28.4066 11.5086C28.3676 11.4774 28.3154 11.4774 28.4378 10.9934C28.3337 11.2381 28.2972 11.3659 28.2113 11.431C28.1254 11.4961 28.1148 11.4753 28.0567 11.4753C28.0677 11.4555 28.0722 11.4327 28.0696 11.4102C28.0696 11.4102 27.7023 11.3659 27.4514 11.3659C27.2005 11.3659 26.7038 11.5014 26.4275 11.6108C26.2087 11.702 26.0863 11.702 26.0081 11.7592C25.93 11.8243 25.8857 11.8947 25.8465 11.9129C25.8153 11.9311 25.6669 11.978 25.6329 12.0274C25.6016 12.0789 25.5496 12.1368 25.5496 12.1499C25.5496 12.1629 25.5366 12.1813 25.5757 12.1681C25.5886 12.1629 25.6851 12.1107 25.7945 12.0456C25.9429 11.9623 26.1227 11.866 26.253 11.8086C26.6255 11.6601 26.7428 11.6862 26.9094 11.6549C27.0839 11.6237 27.3341 11.5507 27.5007 11.5507C27.6674 11.5455 27.9827 11.5507 28.0557 11.5637C28.0245 11.5898 27.9984 11.6211 28.0114 11.7305C28.0114 11.7617 27.9853 11.7956 27.9599 11.8711C27.8819 12.0848 27.7334 12.4391 27.6508 12.6189C27.5362 12.8636 27.406 13.0695 27.3416 13.1971C27.2772 13.3247 27.1356 13.6608 26.9953 13.8406C26.8549 14.0204 26.7816 14.1298 26.7377 14.1689C26.6937 14.2081 26.378 14.4398 26.4016 14.5232C26.4589 14.505 26.8211 14.3687 27.084 14.0726C27.347 13.7765 27.3993 13.5959 27.6051 13.4343C27.8108 13.2727 27.9724 13.0018 28.0688 12.7779C28.1495 12.5694 28.1313 12.5043 28.2328 12.3194L28.2321 12.3188Z" fill="#806031"/>
<path fill-rule="evenodd" clip-rule="evenodd" d="M18.7987 16.3629C18.7987 16.3629 18.7414 16.5998 18.611 16.7171C18.4834 16.8319 18.2567 16.9308 18.2308 17.1236C18.1996 17.3163 18.4575 17.4128 18.4575 17.4128C18.4575 17.4128 18.3167 17.6447 18.3167 17.8192C18.3167 17.999 18.3115 18.0328 18.3297 18.2047C18.3091 18.218 18.2915 18.2356 18.2782 18.2562C18.2782 18.2562 18.2911 18.423 18.4189 18.527C18.5466 18.6311 18.6558 18.6938 18.7209 18.6677C18.7309 18.6889 18.7396 18.7107 18.747 18.7329C18.747 18.7329 18.8436 18.4881 18.9086 18.2744C18.9737 18.0556 19.0311 18.0867 19.057 17.7924C19.0829 17.498 19.3661 16.9926 19.3661 16.9926L19.5593 16.5607L19.2442 16.3158L18.7987 16.3627V16.3629Z" fill="#B6903C"/>
<path fill-rule="evenodd" clip-rule="evenodd" d="M19.3849 16.7874C19.3199 16.8541 19.2599 16.9255 19.2054 17.001C19.1221 17.1157 19.057 17.2198 18.9346 17.2643C18.8121 17.3087 18.734 17.3084 18.7417 17.431C18.7495 17.5536 18.8642 17.6055 18.9293 17.668C18.9997 17.7331 19.057 17.8425 19.0258 17.9651C19.0648 17.9469 19.1352 17.9259 19.2003 17.7853C19.2654 17.6446 19.7206 16.7875 19.7206 16.7875H19.3849V16.7874Z" fill="#685026"/>
<path fill-rule="evenodd" clip-rule="evenodd" d="M21.1803 14.8101C21.1803 14.8101 21.2193 14.706 21.1803 14.6304C21.1412 14.5523 20.9042 14.5262 20.7869 14.4376C20.6645 14.3464 20.5159 14.283 20.3935 14.323C20.4117 14.2787 20.4847 14.1822 20.4247 14.1614C20.3674 14.1432 20.1539 14.2396 20.0965 14.2839C20.0392 14.3282 19.9088 14.3802 19.8829 14.4117C19.857 14.4431 19.8125 14.5028 19.7864 14.4767C19.7603 14.4585 19.7474 14.4117 19.7031 14.4376C19.6588 14.4635 19.4455 14.6382 19.4062 14.7398C19.3668 14.8415 19.2784 15.0682 19.0127 15.326C18.7471 15.5837 18.6323 15.7507 18.7105 15.847C18.7886 15.9433 18.8252 15.8731 18.8382 15.9564C18.8483 16.0382 18.8439 16.1211 18.8252 16.2013C18.7939 16.3368 18.7419 16.4644 18.8121 16.4905C18.9919 16.5478 19.1666 16.439 19.2056 16.4723C19.2837 16.5425 19.1613 16.7953 19.3462 16.8448C19.5339 16.8963 19.7189 16.8005 19.7189 16.8005L20.4014 16.4331L21.0579 16.0867L21.3938 15.4223L21.2137 14.8674L21.1793 14.8101H21.1803Z" fill="#D4B968"/>
<path fill-rule="evenodd" clip-rule="evenodd" d="M20.5363 16.3967C20.5363 16.3967 20.4216 16.2223 20.5624 16.0684C20.7033 15.9145 20.9037 15.8496 20.9818 15.7533C20.9669 15.7349 20.947 15.7214 20.9244 15.7143C20.9763 15.6215 21.0554 15.5468 21.1511 15.5005C21.1122 15.4615 21.0599 15.4302 21.0028 15.4302C20.875 15.4302 20.7967 15.5084 20.6796 15.5084C20.565 15.5084 20.552 15.451 20.552 15.451C20.552 15.451 20.7448 15.4328 20.7264 15.3468C20.7082 15.2556 20.6749 15.2556 20.6749 15.2556C20.6749 15.2556 21.0474 15.101 21.1125 15.0186C21.1776 14.9362 21.1699 14.8388 21.1829 14.7998C21.227 14.7998 21.485 14.6643 21.5892 14.7217C21.6935 14.779 21.6205 14.9353 21.6205 14.9353C21.6205 14.9353 21.936 14.6981 22.0967 14.4656C22.2373 14.4787 22.3028 14.3693 22.4058 14.3693C22.5336 14.3693 22.7342 14.5437 22.7732 14.9162C22.7993 15.1299 22.8382 15.2523 22.7993 15.6301C22.7811 15.8438 22.7862 16.2999 22.8508 16.5262C22.8949 16.706 22.9992 16.6878 22.9992 16.6878C22.9832 16.7426 22.9515 16.7915 22.908 16.8285C22.8376 16.8936 22.8298 17.0656 22.8376 17.1307C22.8479 17.1783 22.861 17.2253 22.8767 17.2714C22.8767 17.2714 22.7934 17.3677 22.7725 17.433C22.7543 17.4981 22.6684 17.5424 22.6057 17.5424C22.543 17.5424 22.5745 17.5371 22.4912 17.5424C22.4079 17.5477 22.3818 17.5606 22.3296 17.5424C22.2774 17.5242 22.2384 17.5032 22.2593 17.3363C22.2775 17.1695 21.6158 16.7814 21.6158 16.7814L20.5339 16.3959L20.5363 16.3967Z" fill="#CCA849"/>
<path fill-rule="evenodd" clip-rule="evenodd" d="M19.2937 18.0431C19.2937 18.0431 19.5307 18.3584 20.5051 18.3584C20.9688 18.3584 21.1304 18.3141 21.2264 18.288C21.3306 18.2619 21.7213 18.1084 22.1147 17.6445C22.469 17.2251 22.3909 17.0532 22.3909 17.0532L22.1848 17.022L21.515 17.1132L19.5332 17.9572L19.2928 18.0431H19.2937Z" fill="#585136"/>
<path fill-rule="evenodd" clip-rule="evenodd" d="M20.0205 18.1213C20.0205 18.1213 19.1764 18.309 19.1764 17.7749C19.1764 17.2539 19.6974 16.7067 19.8278 16.6104C19.9633 16.5139 20.2863 16.4043 20.2863 16.4043H21.0653L21.2137 16.7977L21.1486 17.647L20.0205 18.1211V18.1213Z" fill="#252211"/>
<path fill-rule="evenodd" clip-rule="evenodd" d="M20.7994 16.5634C20.7994 16.5634 20.638 16.4149 20.2707 16.6149C19.9033 16.815 19.6062 17.2332 19.588 17.6129C19.5698 17.9488 19.8642 18.199 20.3227 18.2121C20.6639 18.2249 20.8698 18.186 20.9741 18.1605C20.948 18.1293 20.8125 17.96 20.8125 17.96L20.7996 16.5636L20.7994 16.5634Z" fill="#C3B378"/>
<path fill-rule="evenodd" clip-rule="evenodd" d="M20.6406 16.6466C20.6406 16.6466 20.6016 16.6154 20.486 16.6779C20.3897 16.7294 20.249 16.8656 20.1396 16.9619C20.0692 17.0193 20.0249 17.0452 19.9851 17.0895C19.8235 17.2824 19.688 17.5977 19.7663 17.7539C19.8446 17.9102 20.1024 18.09 20.7589 17.9676L20.6387 16.6468L20.6406 16.6466Z" fill="#E6D89C"/>
<path fill-rule="evenodd" clip-rule="evenodd" d="M20.427 16.9698C20.427 16.9698 20.3227 17.1314 20.3227 17.3893C20.3227 17.6524 20.4713 18.0718 21.0184 18.1031C21.4378 18.1292 21.7191 17.4987 22.0239 17.2538C22.2558 17.0663 22.3964 17.061 22.3964 17.061C22.3964 17.061 22.1594 16.8034 21.5264 16.4697C20.9011 16.1336 20.2003 16.0893 19.8199 16.6052C19.9997 16.5921 20.5807 16.4436 20.5807 16.4436L20.8647 16.5348L20.427 16.97V16.9698Z" fill="#252211"/>
<path fill-rule="evenodd" clip-rule="evenodd" d="M21.2449 17.3111C21.2267 17.2721 21.2137 17.2199 21.2892 17.207C21.3648 17.1941 21.3986 17.2017 21.4247 17.2585C21.4508 17.3154 21.4763 17.3628 21.4376 17.3863C21.3986 17.4071 21.297 17.3863 21.2448 17.3107L21.2449 17.3111ZM21.1225 16.9437C21.1225 16.9437 21.0964 16.9619 21.1094 16.9255C21.1146 16.8814 21.1486 16.8031 21.2319 16.8215C21.3152 16.8398 21.2971 16.9309 21.2834 16.957C21.2697 16.9831 21.2001 17.0272 21.1479 17.0085C21.1413 17.0068 21.1352 17.0036 21.13 16.9991C21.1249 16.9946 21.1209 16.9889 21.1183 16.9826C21.1158 16.9762 21.1148 16.9694 21.1154 16.9626C21.116 16.9558 21.1182 16.9492 21.1218 16.9434L21.1225 16.9437Z" fill="#6F674D"/>
<path fill-rule="evenodd" clip-rule="evenodd" d="M14.0706 17.1103C14.0706 17.1103 14.2767 17.2649 14.5161 17.2588C14.7531 17.2535 15.0579 17.0088 15.1985 16.8523C15.2818 16.7612 15.3531 16.6648 15.4304 16.5893C15.4956 16.5242 15.5398 16.4929 15.571 16.4486C15.6153 16.3971 15.6622 16.3002 15.6857 16.2688C15.6284 16.3131 15.5451 16.3914 15.4591 16.4435C15.3758 16.495 15.196 16.5918 15.123 16.6179C15.0527 16.644 14.3232 17.0301 14.3232 17.0301L14.0706 17.1103Z" fill="#AC924C"/>
<path fill-rule="evenodd" clip-rule="evenodd" d="M14.3855 15.1853C14.3855 15.1853 14.5001 15.1071 14.7216 15.0575C14.9352 15.006 15.3651 14.9663 15.3651 14.9663L15.7194 15.1209L15.86 15.655L15.6024 16.21L15.2742 16.4161L14.9016 15.8169L14.3864 15.1863L14.3855 15.1853Z" fill="#9F8E57"/>
<path fill-rule="evenodd" clip-rule="evenodd" d="M13.9219 15.6621L13.7993 15.7536C13.7993 15.7536 13.8307 15.6963 13.8566 15.5218C13.8825 15.3473 14.0182 14.9226 14.2162 14.6777C14.4142 14.4328 14.4091 14.4459 14.4091 14.4459C14.3909 14.4425 14.3721 14.4431 14.3542 14.4476C14.3362 14.4521 14.3194 14.4603 14.3048 14.4718C14.3309 14.4141 14.4977 14.208 14.6644 14.105C14.8312 14.0019 14.8963 13.9695 15.0708 14.0535C15.2453 14.1374 15.2896 14.1811 15.4173 14.1759C15.5451 14.1708 15.6543 14.0353 15.6543 14.0353C15.6543 14.0353 15.6804 14.1185 15.5841 14.3114C15.4877 14.5043 15.1073 14.8975 15.1073 14.8975L14.3153 15.4393L13.9219 15.6626V15.6621Z" fill="#EAC970"/>
<path fill-rule="evenodd" clip-rule="evenodd" d="M14.5078 15.1202C14.5078 15.1202 15.0811 15.1983 15.2556 15.0369C15.2607 15.0551 15.2817 15.0551 15.2817 15.0681C15.2803 15.078 15.2757 15.0871 15.2686 15.0941C15.2876 15.091 15.3068 15.0893 15.326 15.0889C15.3489 15.0957 15.3725 15.1001 15.3964 15.102C15.4156 15.1016 15.4348 15.0998 15.4537 15.0966C15.4519 15.1096 15.4475 15.122 15.4408 15.1333C15.4341 15.1445 15.4252 15.1542 15.4146 15.1619C15.4407 15.1619 15.4661 15.1671 15.4661 15.1878C15.4661 15.2086 15.4713 15.2713 15.44 15.2844C15.4141 15.2915 15.3865 15.2896 15.3619 15.279C15.3639 15.3284 15.3773 15.3765 15.401 15.4199C15.4525 15.5162 15.5624 15.6259 15.7101 15.5943C15.7101 15.5943 15.7881 15.7819 15.4599 16.1987C15.4158 16.256 15.3687 16.3342 15.3115 16.3992C15.2889 16.4485 15.2717 16.5 15.26 16.5529C15.26 16.5529 15.8151 16.3393 15.9739 15.8521C16.1355 15.3623 16.1668 14.8804 16.1355 14.4298C16.1302 14.302 16.1094 14.211 16.0782 14.1458C16 13.9842 15.7811 14.0103 15.6926 14.1015C15.5648 14.2292 15.3512 14.5469 15.0543 14.7657C14.752 14.9845 14.7392 15.0233 14.5071 15.1202H14.5078Z" fill="#D7BC6B"/>
<path fill-rule="evenodd" clip-rule="evenodd" d="M13.8202 15.8237C13.8202 15.8237 13.7108 15.8888 13.6534 16.1328C13.5961 16.3828 13.705 16.6877 13.768 16.784C13.831 16.8804 13.9741 17.1436 14.2708 17.1567C14.3443 17.1563 14.4169 17.1412 14.4845 17.1124C14.588 17.0649 14.6852 17.0044 14.7737 16.9326C14.9014 16.8362 15.0055 16.7529 14.9924 16.745C14.9612 16.732 14.2057 16.1067 14.2057 16.1067L13.9217 15.7897L13.82 15.824L13.8202 15.8237Z" fill="#585136"/>
<path fill-rule="evenodd" clip-rule="evenodd" d="M14.5343 16.8603C14.5343 16.8603 14.688 16.8475 14.7791 16.7901C14.8703 16.7328 14.2451 16.1128 14.2451 16.1128L14.2894 16.7826L14.5343 16.8603Z" fill="#453A25"/>
<path fill-rule="evenodd" clip-rule="evenodd" d="M13.8697 15.7766C13.8697 15.7766 13.7915 15.9251 13.7915 15.9643C13.7785 16.0919 13.8176 16.493 13.8489 16.6206C13.8801 16.7561 14.0495 16.9619 14.2684 16.9619C14.4037 16.9619 14.5915 16.8786 14.5915 16.8578C14.5915 16.8317 14.3986 16.8063 14.3466 16.7092C14.3153 16.6577 14.3023 16.5296 14.295 16.4001C14.2899 16.3168 14.2899 16.2256 14.3211 16.194C14.3916 16.1159 14.4044 15.8918 14.4044 15.8918L14.6545 15.4272H14.3256L13.9322 15.6721L13.8697 15.7766Z" fill="#84754B"/>
<path fill-rule="evenodd" clip-rule="evenodd" d="M13.7733 15.92C13.7733 15.92 14.0309 15.5788 14.2631 15.5005C14.4953 15.4222 14.5992 15.4692 14.5992 15.4692L14.4637 15.8158L14.2708 16.0294L14.2839 16.1388C14.2839 16.1388 14.2525 16.428 14.4453 16.6286C14.6382 16.8292 14.7814 16.8215 14.8649 16.8215C14.9483 16.8215 15.1879 16.751 15.3103 16.4618C15.4197 16.191 15.5109 15.8436 15.2921 15.4953C15.0783 15.1488 14.7007 15.1354 14.6277 15.1354C14.5547 15.1354 13.9816 15.1641 13.7733 15.9195V15.92Z" fill="#252211"/>
<path fill-rule="evenodd" clip-rule="evenodd" d="M20.3878 17.0791C20.2915 17.0348 20.3826 16.764 20.479 16.6805C20.5753 16.5971 20.6978 16.5009 20.9116 16.4877C20.9896 16.4825 21.0651 16.532 21.0522 16.5842C21.034 16.6805 20.8985 16.816 20.7761 16.9124C20.6068 17.0453 20.4972 17.1286 20.3878 17.0791Z" fill="#F7F7E7"/>
<path fill-rule="evenodd" clip-rule="evenodd" d="M15.1774 15.6021C15.2478 15.597 15.339 15.6537 15.3572 15.7299C15.3754 15.8132 15.3129 15.9799 15.1774 15.9799C15.068 15.9799 15.0107 15.8444 15.0107 15.8055C15.0119 15.7734 15.0208 15.7421 15.0368 15.7143C15.0419 15.7064 15.055 15.6152 15.1774 15.6021V15.6021Z" fill="#F8F6DE"/>
<path fill-rule="evenodd" clip-rule="evenodd" d="M14.1614 15.662C14.1614 15.662 13.9816 15.7453 13.8983 15.9196C13.8388 16.0483 13.8208 16.1923 13.8468 16.3317C13.8599 16.3968 13.925 16.5583 13.9693 16.6156C14.0136 16.673 14.0735 16.7121 14.1178 16.7068C14.1621 16.7015 14.2531 16.5844 14.2531 16.5141C14.2531 16.4439 14.2585 16.1468 14.3443 15.9852C14.4199 15.8238 14.162 15.6622 14.162 15.6622L14.1614 15.662Z" fill="#D4C38B"/>
<path fill-rule="evenodd" clip-rule="evenodd" d="M14.1875 15.6489C14.1563 15.6671 14.1042 15.6932 14.1171 15.7271C14.1302 15.7583 14.2396 15.7786 14.2787 15.8548C14.323 15.933 14.323 16.0163 14.31 16.0554C14.344 16.0393 14.3749 16.0172 14.4012 15.9902C14.4585 15.9251 14.5288 15.8366 14.5887 15.8366C14.6279 15.8366 14.6668 15.8548 14.7034 15.8548C14.7608 15.8548 14.818 15.8366 14.8259 15.7767C14.8387 15.6986 14.7165 15.6281 14.6461 15.6412C14.6591 15.5897 14.6773 15.5136 14.62 15.4614C14.5626 15.4092 14.383 15.5006 14.3438 15.5267C14.3047 15.5528 14.1875 15.6491 14.1875 15.6491V15.6489Z" fill="#E2D59D"/>
<path fill-rule="evenodd" clip-rule="evenodd" d="M18.3272 21.1225L18.7127 21.0087L18.8221 21.0868C18.8221 21.0868 18.9001 21.2536 19.0227 21.2743C18.9835 21.3576 18.8819 21.4289 18.8872 21.488C18.8925 21.5471 18.9446 21.5922 18.9446 21.5922C18.9446 21.5922 18.598 22.1653 19.2806 22.7428C19.119 22.8079 18.9133 22.8974 18.8039 22.9489C18.8819 22.9671 19.0486 23.0004 19.119 23.0636C19.1895 23.1268 19.1895 23.1469 19.2545 23.1861C19.3196 23.2252 19.3586 23.2773 19.3457 23.3006C19.3014 23.2745 19.1529 23.1966 19.1269 23.2694C19.101 23.3422 18.4835 23.3137 18.4835 23.3137L17.4414 23.5143C17.4414 23.5143 17.4804 23.41 17.371 23.3137C17.2434 23.1991 17.0871 23.3188 16.9203 23.1912C16.7016 23.0245 16.6937 22.8316 16.6234 22.7588C16.6937 22.7145 16.837 22.6494 17.1783 22.6042C17.1652 22.5781 17.1209 22.5 17.147 22.4298C17.1783 22.3386 17.3085 22.2812 17.2695 22.1722C17.3268 22.1591 17.3528 22.1591 17.4962 21.9793C17.6317 21.7995 17.715 21.7605 17.8192 21.7475C17.9234 21.7344 17.9859 21.7475 18.1788 21.5677C18.3141 21.4401 18.27 21.3307 18.27 21.3307C18.27 21.3307 18.3584 21.302 18.3274 21.1222L18.3272 21.1225Z" fill="#CBAC5A"/>
<path fill-rule="evenodd" clip-rule="evenodd" d="M17.1888 21.1804C17.1939 21.1543 17.2149 21.1412 17.3555 21.1543C17.4962 21.1673 18.3871 21.071 18.6294 21.0579C18.8743 21.0397 19.7366 21.0526 20.1561 21.1412C20.5757 21.2298 21.0002 21.3341 21.2059 21.3861C21.412 21.4434 21.4769 21.4641 21.469 21.4902C21.4639 21.5163 21.4175 21.5417 21.3909 21.5345C21.365 21.5293 20.6823 21.3208 20.4714 21.2769C20.2606 21.2329 19.5309 21.1153 19.1319 21.1223C18.7594 21.1276 18.6109 21.1172 18.2958 21.1536C17.9805 21.1927 17.4594 21.2448 17.3031 21.224C17.1486 21.2058 17.1805 21.2058 17.1884 21.1797L17.1888 21.1804Z" fill="#D6BC6F"/>
<path fill-rule="evenodd" clip-rule="evenodd" d="M19.2858 23.2222C19.2858 23.2222 19.8199 23.5114 20.0127 23.8657C20.1534 24.1288 19.9294 24.2592 19.9294 24.2592C19.9294 24.2592 20.2317 24.2592 20.1925 24.4259C20.1743 24.53 19.6715 24.8113 19.3354 24.9598C18.9942 25.1084 19.0072 25.1007 18.8405 25.1266C18.6789 25.1527 18.236 25.0751 18.1448 25.2047C18.0536 25.3344 18.0933 25.468 18.1187 25.4888C18.1448 25.507 18.3559 25.5331 18.3559 25.5331C18.3559 25.5331 18.3115 25.6555 17.874 25.6686C17.4364 25.6816 17.3268 25.7127 17.3007 25.7598C17.2746 25.8039 17.384 25.778 17.5848 25.8113C17.7854 25.8425 18.0667 25.8628 18.0667 25.8628C18.0667 25.8628 17.9755 25.9409 17.7385 26.0035C17.4675 26.0737 17.0428 26.139 16.9152 26.2171C16.9803 26.2614 17.0768 26.3265 17.1213 26.3316C17.0119 26.3577 16.858 26.4151 16.8321 26.4359C16.871 26.462 16.9233 26.4932 16.9233 26.4932C16.9233 26.4932 16.7043 26.7563 16.5767 26.8216C16.4491 26.8869 15.7144 27.2279 15.4616 27.1628C14.8312 26.9961 14.7531 26.3057 14.5994 26.2537C14.3675 26.1755 14.2581 26.3316 14.0522 26.2222C14.1434 26.1572 14.193 26.1182 14.2894 26.0739C14.1851 26.0223 13.6459 25.6804 13.6459 25.6804C13.5895 25.5575 13.5269 25.4376 13.4584 25.321C13.3541 25.1412 13.2008 24.9014 13.0857 24.6904C12.8357 24.2267 12.8226 24.0131 12.5959 23.75C12.6351 23.6985 12.7704 23.7057 12.7704 23.7057L14.6698 24.3309L18.0376 24.4285L18.9135 23.1781L19.286 23.2224L19.2858 23.2222Z" fill="#DFC677"/>
<path fill-rule="evenodd" clip-rule="evenodd" d="M14.2969 25.1292C14.3173 25.1518 14.341 25.1711 14.3672 25.1865C14.4324 25.2308 14.5288 25.283 14.5939 25.361C14.62 25.322 14.6851 25.2516 14.7999 25.361C14.9148 25.4704 15.0575 25.3924 15.1463 25.4184C15.2375 25.4498 15.2427 25.4627 15.2427 25.4627C15.2427 25.4627 15.2942 25.4184 15.4094 25.3715C15.4798 25.3454 15.5631 25.3272 15.6543 25.3012C15.7376 25.283 15.8288 25.2569 15.8915 25.2569C15.9488 25.2959 16.1546 25.5145 16.9804 25.1918C17.7594 24.8896 17.9391 24.8558 18.0694 24.9025C18.0825 24.8712 18.0955 24.8113 18.2961 24.8192C18.2961 24.7359 18.1293 24.4518 18.1293 24.4518L17.2097 24.1367H16.7067L15.1984 24.4129L14.3625 24.8898L14.2975 25.1302L14.2969 25.1292Z" fill="#C4A859"/>
<path fill-rule="evenodd" clip-rule="evenodd" d="M13.7941 24.6004C13.7941 24.6004 13.8123 24.7411 14.0208 24.8896C14.2269 25.038 14.2916 25.1266 14.2916 25.1266C14.2916 25.1266 14.3308 25.0751 14.362 25.0226C14.3933 24.9652 14.4194 24.9001 14.4714 24.8819C14.5757 24.8376 14.8126 24.9209 14.8649 24.9078C14.9092 24.895 14.8961 24.8038 14.943 24.8038C15.0524 24.7984 15.1226 24.874 15.1618 24.874C15.2009 24.874 15.2971 24.8689 15.3102 24.8481C15.3232 24.8273 15.3284 24.6109 15.4769 24.5067C15.6385 24.3921 15.8365 24.4416 15.8891 24.4677C15.8891 24.5067 15.8942 24.6032 15.9985 24.6083C16.1027 24.6135 16.113 24.5953 16.2045 24.6265C16.2961 24.6578 16.4051 24.6214 16.4546 24.7749C16.4989 24.762 16.6031 24.749 16.577 24.6004C16.6286 24.5615 16.6736 24.5353 16.7831 24.3816C16.8092 24.3427 16.8534 24.2984 16.8874 24.241C16.9785 24.241 17.0879 24.2228 17.2337 24.3504C17.1894 24.3816 17.1633 24.4019 17.1505 24.4337C17.1886 24.4714 17.2234 24.5124 17.2545 24.5561C17.2937 24.6076 17.3198 24.6708 17.3692 24.6839C17.4786 24.7152 17.6584 24.6708 17.859 24.6839C18.0519 24.6969 18.2133 24.7672 18.2837 24.8115C18.3098 24.7986 18.3098 24.7933 18.3749 24.8063C18.44 24.8194 18.4895 24.8245 18.4192 24.7413C18.4582 24.7595 18.5025 24.7986 18.5417 24.7595C18.5808 24.7203 18.6119 24.6631 18.7213 24.6501C18.8307 24.637 18.8698 24.6552 18.9142 24.5407C18.9715 24.4 18.7735 24.4 18.7735 24.4C18.7735 24.4 18.8647 24.3166 18.9664 24.2072C19.0888 24.0926 19.2295 23.9441 19.2633 23.7617C19.3206 23.4256 18.9925 23.3815 18.9925 23.3815L17.4007 23.8713L15.4546 23.7747L13.7951 24.6006L13.7941 24.6004Z" fill="#927D49"/>
<path fill-rule="evenodd" clip-rule="evenodd" d="M12.3639 20.0023C12.3639 20.0023 12.3124 20.0674 12.2806 20.2211C12.2488 20.3748 12.2624 20.3566 12.2363 20.4659C12.2102 20.5753 11.8896 21.6643 12.0098 22.0316C12.13 22.399 12.3381 22.5345 12.4683 22.8314C12.4944 22.8965 12.5198 22.9356 12.5334 22.993C12.5777 23.1857 12.5387 23.3342 12.5908 23.5271C12.609 23.5922 12.656 23.6677 12.7262 23.7459C12.8808 23.9073 13.1327 24.061 13.2414 24.1704C13.395 24.332 13.6139 24.6604 13.8927 24.6914C14.0412 24.7097 14.2523 24.6471 14.4268 24.5431C14.5813 24.4466 14.6768 24.3112 14.8389 24.234C14.9535 24.1766 15.0759 24.1558 15.1853 24.1297C15.412 24.0854 15.6179 24.0782 15.7403 24.1036C15.9279 24.1428 16.3708 24.2783 16.6162 24.2783C16.8079 24.2752 16.9986 24.2489 17.1841 24.2001C17.5566 24.0907 18.0072 23.903 18.3043 23.8197C18.4788 23.7682 18.6194 23.7546 18.7628 23.7234C19.0077 23.666 19.2135 23.5879 19.3308 23.4393C19.2526 23.3482 19.1563 23.2075 18.6351 23.2127C18.0438 23.2257 17.3612 23.5539 17.0251 23.6061C16.689 23.6583 16.5432 23.7024 16.168 23.5669C15.8001 23.4301 15.7879 23.3396 15.7879 23.3396C15.7879 23.3396 15.4017 23.0694 15.2401 22.3808C15.0785 21.6921 15.2401 21.1903 15.6596 20.7134C15.769 20.591 15.7429 20.4816 15.7429 20.4816C15.7429 20.4816 16.0191 20.1091 15.9435 19.7603C15.8602 19.4137 15.3261 19.4841 15.3261 19.4841L12.3641 20.0023H12.3639Z" fill="#6E6342"/>
<path fill-rule="evenodd" clip-rule="evenodd" d="M12.8094 21.1616C12.7864 21.2048 12.7756 21.2534 12.7781 21.3023C12.7832 21.3725 12.8042 21.4637 13.0151 21.6696C13.1949 21.8492 13.1557 22.0498 13.1557 22.0498C13.1557 22.0498 13.2462 22.068 13.4918 21.9531C13.6847 21.862 13.7494 22.0236 13.7494 22.0236C13.8056 21.9941 13.8664 21.9747 13.9292 21.9662C13.9861 21.9609 14.0412 21.9434 14.0907 21.9147C14.0907 21.9147 14.3173 22.1465 14.5154 22.2559C14.6952 22.3524 14.7994 22.4175 14.888 22.3524C14.9713 22.2951 14.9713 22.1778 14.966 22.1257C14.9453 22.0777 14.9192 22.0322 14.888 21.9902C14.8307 21.9069 14.7395 21.8104 14.7335 21.7326C14.7204 21.553 14.869 21.3392 14.8375 21.2872C14.8061 21.2351 14.6891 21.2221 14.3999 21.3263C14.1004 21.4252 12.8082 21.1621 12.8082 21.1621L12.8094 21.1616Z" fill="#39331F"/>
<path fill-rule="evenodd" clip-rule="evenodd" d="M13.4918 22.3262C13.4918 22.3262 13.3435 22.1855 13.3955 21.5029C13.4585 21.502 13.5214 21.5081 13.583 21.5211C13.583 21.5211 13.6639 22.05 13.4918 22.3262Z" fill="#292311"/>
<path fill-rule="evenodd" clip-rule="evenodd" d="M12.4343 19.4812C12.455 19.4659 12.4742 19.4487 12.4917 19.4297C12.4402 19.5261 12.2023 19.9116 12.3952 20.5187C12.588 21.123 13.0725 21.5736 13.6691 21.5946C14.2657 21.6155 14.5793 21.3236 14.9378 20.886C15.0785 20.7115 15.2401 20.4926 15.3833 20.3442C15.597 20.1122 15.7637 20.0471 15.7637 19.8232C15.7637 19.3646 15.2947 19.1587 14.6043 18.953C13.914 18.7472 13.2913 18.7727 12.9682 18.9135C12.6531 19.067 12.5176 19.2286 12.4341 19.4814L12.4343 19.4812Z" fill="#252211"/>
<path fill-rule="evenodd" clip-rule="evenodd" d="M14.6512 22.5318L14.7027 22.5057C14.7027 22.5057 14.7156 22.2997 14.7991 22.3052C14.8824 22.3182 14.9215 22.4278 14.9136 22.4668C14.9085 22.5057 14.8877 22.571 14.8042 22.5631C14.6948 22.5657 14.6507 22.5318 14.6507 22.5318H14.6512Z" fill="#3F3824"/>
<path fill-rule="evenodd" clip-rule="evenodd" d="M14.4194 21.6565C14.4194 21.6565 14.4709 21.6383 14.5339 21.7008C14.5854 21.7008 14.8101 21.6747 14.8805 21.719C14.9509 21.7633 14.9717 21.8023 14.9717 21.8023C14.9717 21.8023 14.7086 21.8597 14.5652 21.8023C14.4194 21.7529 14.4194 21.6565 14.4194 21.6565V21.6565Z" fill="#2D2815"/>
<path fill-rule="evenodd" clip-rule="evenodd" d="M15.5788 21.6955C15.5788 21.6825 15.4381 21.5861 15.2896 21.5547C15.2635 21.5495 15.2581 21.5677 15.238 21.5677C15.225 21.5626 15.2198 21.5234 15.2198 21.5234L15.1353 21.5679C15.1353 21.5679 15.1223 21.5861 15.1666 21.6194C15.2056 21.6507 15.2708 21.6768 15.289 21.7288C15.3072 21.7809 15.3072 21.7991 15.3151 21.807C15.3203 21.8121 15.4115 21.807 15.4558 21.7809C15.5001 21.7548 15.5836 21.7122 15.5782 21.695L15.5788 21.6955Z" fill="#82764F"/>
<path fill-rule="evenodd" clip-rule="evenodd" d="M14.2631 22.2245C14.2631 22.2245 14.289 22.0449 14.4637 22.037C14.6433 22.0239 14.6773 22.1984 14.6773 22.1984L14.5731 22.3026C14.5731 22.3 14.4949 22.1907 14.264 22.2245H14.2631Z" fill="#2D2816"/>
<path fill-rule="evenodd" clip-rule="evenodd" d="M15.3964 21.4507C15.3964 21.4507 15.2998 21.5549 15.0864 21.5862C15.0682 21.5601 15.029 21.508 15.0864 21.4247C15.1437 21.3415 15.2088 21.3153 15.2739 21.3413C15.3026 21.3459 15.3294 21.3587 15.3511 21.3781C15.3728 21.3975 15.3885 21.4227 15.3964 21.4507V21.4507Z" fill="#574F35"/>
<path fill-rule="evenodd" clip-rule="evenodd" d="M15.7896 21.5784C15.795 21.5523 15.7768 21.5471 15.7896 21.5341C15.8025 21.521 15.8731 21.4951 15.8862 21.508C15.8913 21.5133 15.8862 21.5341 15.8862 21.5595C15.8862 21.5849 15.8862 21.611 15.8731 21.6297C15.8549 21.6558 15.8029 21.6689 15.7768 21.6612C15.7507 21.6534 15.7455 21.6169 15.7455 21.6096C15.7584 21.6045 15.7896 21.5914 15.7896 21.5784ZM16.2344 21.2971C16.2344 21.284 16.2787 21.2579 16.3048 21.2579C16.3438 21.2579 16.3438 21.2892 16.3492 21.2971C16.362 21.3022 16.362 21.2918 16.3751 21.3153C16.3881 21.3388 16.4065 21.3804 16.3933 21.4065C16.3801 21.4326 16.3282 21.4506 16.3153 21.4455C16.2971 21.4324 16.2398 21.3153 16.2344 21.2971V21.2971Z" fill="#82764F"/>
<path fill-rule="evenodd" clip-rule="evenodd" d="M15.339 21.6384C15.339 21.6384 15.3964 21.6512 15.4745 21.7165C15.4484 21.7347 15.4093 21.7555 15.4093 21.7555C15.4093 21.7555 15.4041 21.6955 15.339 21.6382V21.6384Z" fill="#6E6342"/>
<path fill-rule="evenodd" clip-rule="evenodd" d="M15.2114 21.0651C15.1984 21.0522 15.2504 21.021 15.2816 21.0261C15.3129 21.0313 15.326 21.0522 15.3598 21.0574C15.3936 21.0625 15.3989 21.0443 15.4113 21.0313C15.4237 21.0182 15.4687 21.0261 15.4764 21.0313C15.4812 21.037 15.4856 21.0431 15.4894 21.0495C15.49 21.0396 15.4926 21.0299 15.497 21.021C15.5015 21.0122 15.5077 21.0043 15.5154 20.998C15.5254 20.9906 15.5369 20.9856 15.5491 20.9834C15.5613 20.9811 15.5738 20.9816 15.5858 20.9849C15.5909 21.0031 15.617 21.0682 15.6119 21.0813C15.6067 21.0943 15.5286 21.1127 15.5154 21.0995C15.5284 21.1309 15.5858 21.196 15.5935 21.2089C15.6012 21.2217 15.5362 21.2532 15.5102 21.248C15.4738 21.2454 15.2497 21.1151 15.2107 21.0656L15.2114 21.0651ZM15.5526 20.6327C15.5478 20.6196 15.5386 20.6085 15.5265 20.6014C15.5083 20.5963 15.4484 20.6014 15.4484 20.6327C15.4484 20.6639 15.4999 20.8388 15.5578 20.9298C15.6231 21.021 15.6672 21.0964 15.7115 21.1173C15.7254 21.1237 15.7412 21.1245 15.7557 21.1196C15.7702 21.1148 15.7823 21.1046 15.7896 21.0912C15.7948 21.0782 15.8078 20.9818 15.8027 20.7551C15.7975 20.5284 15.7896 20.3097 15.7766 20.2966C15.7635 20.2836 15.7115 20.2837 15.6933 20.3097C15.6751 20.3356 15.5578 20.5937 15.5525 20.6327H15.5526Z" fill="#585136"/>
<path fill-rule="evenodd" clip-rule="evenodd" d="M15.3208 21.9666C15.3208 21.9666 15.2296 21.9092 15.141 21.9484C15.0577 21.9875 15.0629 22.1412 15.0629 22.1412C15.0816 22.1486 15.1019 22.1512 15.1218 22.1489C15.1418 22.1467 15.161 22.1395 15.1776 22.1282C15.2349 22.0892 15.3078 22.0241 15.3208 21.9667V21.9666Z" fill="#574F35"/>
<path fill-rule="evenodd" clip-rule="evenodd" d="M15.4927 22.1724C15.4876 22.1209 15.4412 22.1209 15.4412 22.0943C15.4444 22.0816 15.4518 22.0703 15.4621 22.0623C15.4725 22.0542 15.4853 22.0499 15.4984 22.05C15.5245 22.05 15.5499 22.0812 15.5818 22.1015C15.6131 22.1197 15.66 22.153 15.6651 22.1927C15.6703 22.2324 15.6136 22.3411 15.5506 22.3411C15.4876 22.3411 15.5063 22.2238 15.4932 22.1717L15.4927 22.1724ZM15.9955 22.102C15.9955 22.102 15.8913 22.1333 15.899 22.102C15.9068 22.0708 15.9305 22.063 15.9643 22.063C15.9815 22.0451 16.0046 22.0339 16.0294 22.0316C16.0436 22.0309 16.0575 22.0356 16.0684 22.0447C16.0684 22.0447 16.1388 22.0134 16.1596 22.0316C16.1803 22.0498 16.1649 22.0498 16.1778 22.0708C16.1942 22.094 16.2049 22.1208 16.2092 22.1489C16.2092 22.1697 16.131 22.214 16.0684 22.2063C15.9955 22.1906 16.0084 22.1151 15.9955 22.102V22.102ZM16.6025 21.9847C16.6025 21.9847 16.6337 22.0029 16.6078 22.0239C16.5896 22.0421 16.4984 22.0754 16.4201 22.0812C16.3419 22.0812 16.2717 22.0941 16.2717 22.0682C16.2717 22.0423 16.3368 21.9901 16.3758 21.977C16.3836 21.9672 16.3935 21.9593 16.4048 21.9539C16.4161 21.9485 16.4285 21.9457 16.441 21.9457C16.4723 21.9457 16.5946 21.9327 16.6286 21.9275C16.6598 21.9222 16.6859 21.9404 16.6675 21.9665C16.6598 21.9847 16.6025 21.9847 16.6025 21.9847V21.9847ZM16.7823 21.1803C16.7823 21.1803 16.7431 21.2636 16.699 21.2636C16.6547 21.2585 16.6547 21.2454 16.6547 21.2324C16.6547 21.2142 16.699 21.1673 16.6936 21.1542C16.6808 21.1542 16.6493 21.1542 16.6547 21.123C16.6547 21.0969 16.699 21.0656 16.738 21.0715C16.7674 21.0472 16.8041 21.0335 16.8422 21.0325C16.8865 21.0325 16.9255 21.0453 16.9255 21.0715C16.9255 21.0976 16.874 21.1547 16.8551 21.168C16.8343 21.1887 16.8082 21.2023 16.7823 21.1808V21.1803ZM16.1882 22.7199C16.1882 22.7199 16.1367 22.7252 16.1367 22.7512C16.1367 22.7642 16.1496 22.7642 16.168 22.7565C16.1786 22.7559 16.189 22.7541 16.1992 22.7512C16.2044 22.7565 16.2044 22.7824 16.2435 22.7824C16.2757 22.7781 16.3067 22.7675 16.3347 22.7512C16.366 22.7383 16.3921 22.7251 16.3921 22.6997C16.379 22.6553 16.3529 22.6344 16.3139 22.6344C16.294 22.6331 16.274 22.6377 16.2566 22.6475C16.2566 22.6475 16.2435 22.6213 16.1992 22.6475C16.1549 22.6736 16.1601 22.6736 16.1731 22.6866C16.1965 22.7074 16.1887 22.721 16.1887 22.721L16.1882 22.7199ZM15.8939 22.9909C15.8939 22.9779 15.959 22.9518 15.9772 22.9597C15.9954 22.9648 16.0474 23.0637 16.0474 23.0742C16.0474 23.0873 15.9823 23.1185 15.9562 23.1185C15.9301 23.1185 15.886 23.0742 15.886 23.067C15.886 23.0618 15.9172 23.0541 15.9172 23.0488C15.925 23.0359 15.8939 23.0045 15.8939 22.9914V22.9909ZM15.6878 22.6105C15.7009 22.6054 15.7009 22.5923 15.7191 22.5793C15.7248 22.5755 15.7312 22.573 15.738 22.5722C15.7448 22.5713 15.7517 22.5719 15.7582 22.5741C15.7628 22.5659 15.7692 22.5589 15.7768 22.5534C15.7845 22.548 15.7933 22.5443 15.8025 22.5427C15.8338 22.5375 15.8599 22.5427 15.854 22.5557C15.854 22.5949 15.8801 22.6208 15.8801 22.6521C15.8801 22.6833 15.8619 22.7225 15.7969 22.7486C15.7318 22.7668 15.6432 22.7668 15.6301 22.7617C15.617 22.7565 15.604 22.7043 15.617 22.6782C15.6301 22.6521 15.6665 22.6236 15.6875 22.6105H15.6878Z" fill="#82764F"/>
<path fill-rule="evenodd" clip-rule="evenodd" d="M15.7707 22.6282C15.7707 22.6282 15.7264 22.6543 15.7264 22.6673C15.7225 22.6799 15.7208 22.6931 15.7213 22.7063C15.7213 22.714 15.7786 22.7012 15.7864 22.6933C15.7889 22.6881 15.7707 22.6417 15.7707 22.6282Z" fill="#6E6342"/>
<path fill-rule="evenodd" clip-rule="evenodd" d="M15.3833 22.5058C15.4092 22.5111 15.4535 22.5058 15.4874 22.5189C15.5135 22.5319 15.5317 22.558 15.5056 22.5893C15.4795 22.6205 15.4541 22.6674 15.3962 22.6595C15.3311 22.6544 15.2686 22.6205 15.2686 22.5944C15.2675 22.5779 15.2697 22.5613 15.2751 22.5457C15.2804 22.53 15.2888 22.5156 15.2998 22.5032C15.3259 22.4825 15.3388 22.4955 15.3831 22.5058H15.3833Z" fill="#585136"/>
<path fill-rule="evenodd" clip-rule="evenodd" d="M15.3521 22.5319C15.3521 22.5319 15.2688 22.5969 15.2478 22.6284C15.2217 22.6596 15.0941 22.8211 15.0551 22.8549C15.0681 22.8321 15.0828 22.8103 15.0993 22.7898C15.0478 22.8227 15.0091 22.8724 14.9899 22.9305C14.9586 23.027 15.1645 23.079 15.2999 23.1182C15.4352 23.1573 15.4876 23.1697 15.4876 23.1697C15.4377 23.0948 15.395 23.0155 15.3598 22.9327C15.3083 22.8102 15.2817 22.7972 15.3155 22.7398C15.3416 22.6825 15.3807 22.6435 15.3807 22.5992C15.3651 22.558 15.3521 22.5319 15.3521 22.5319Z" fill="#574F35"/>
<path fill-rule="evenodd" clip-rule="evenodd" d="M12.3821 22.7378C12.4011 22.7413 12.4205 22.7413 12.4395 22.7378C12.4785 22.7325 12.885 22.5832 13.3097 22.61C13.6276 22.6292 13.9427 22.681 14.2501 22.7646C14.7842 22.9052 15.4484 23.184 15.8783 23.343C15.9928 23.3871 16.105 23.4654 16.1874 23.4965C16.5157 23.6243 16.5286 23.6243 16.7215 23.6581C16.9482 23.6894 17.18 23.6138 17.4223 23.5618C17.7192 23.4965 18.2272 23.4653 18.6727 23.4002C18.8168 23.3802 18.9588 23.348 19.0974 23.3038C19.0974 23.3038 18.7431 23.6581 17.8937 23.7857C17.5504 23.8378 17.2015 23.8422 16.857 23.7988C16.586 23.7727 16.4063 23.7335 16.2708 23.6945C16.1171 23.6502 15.8018 23.5329 15.4137 23.4369C15.1427 23.3665 14.8405 23.3145 14.4941 23.2494C13.6395 23.0929 12.7122 22.9133 12.3818 22.7388L12.3821 22.7378Z" fill="#252211"/>
<path fill-rule="evenodd" clip-rule="evenodd" d="M11.4233 21.1278C11.2172 21.3023 10.9986 21.469 10.7852 21.6305L10.1417 22.1249C9.92288 22.2863 9.70925 22.4531 9.49029 22.6147C9.27133 22.7763 9.05271 22.9298 8.82053 23.0784C9.02661 22.9039 9.24522 22.7423 9.46401 22.5834C9.6828 22.4246 9.90966 22.2688 10.1207 22.1077L10.7642 21.6126C10.9856 21.4512 11.1992 21.2844 11.4233 21.1282V21.1278ZM10.2849 22.9514C10.2849 22.9514 10.5167 22.7586 10.8059 22.4878C11.1654 22.1519 11.6057 21.7218 11.7463 21.6439L10.2847 22.9516L10.2849 22.9514Z" fill="#CFB66C"/>
<path fill-rule="evenodd" clip-rule="evenodd" d="M10.2849 22.9513C10.3996 22.8367 10.522 22.7247 10.6445 22.6152L10.832 22.4537C10.8894 22.4022 10.9546 22.3444 11.0118 22.287C11.1264 22.1724 11.2385 22.0498 11.3531 21.9327C11.4098 21.8738 11.4699 21.8181 11.5329 21.766C11.5644 21.7381 11.5993 21.7144 11.6369 21.6955C11.6684 21.6773 11.7022 21.644 11.7463 21.6382C11.7204 21.6773 11.6891 21.6955 11.663 21.7294C11.6318 21.7555 11.6057 21.7867 11.5798 21.8127C11.5224 21.87 11.4573 21.9221 11.3999 21.9743C11.2775 22.0785 11.1499 22.1803 11.0275 22.2894C10.905 22.3984 10.7905 22.5161 10.6678 22.6255C10.5351 22.7376 10.4127 22.847 10.2849 22.9518V22.9513ZM11.8428 21.9092C11.8428 21.9092 10.9936 22.7404 10.819 22.8757L11.8428 21.9092Z" fill="#CFB66C"/>
<path fill-rule="evenodd" clip-rule="evenodd" d="M11.8429 21.9092C11.7665 21.9976 11.6846 22.0811 11.5976 22.1592L11.34 22.4041C11.2567 22.4874 11.1784 22.5709 11.09 22.6542C10.9988 22.7323 10.9155 22.8087 10.819 22.8808L11.069 22.636C11.1525 22.5527 11.2437 22.4824 11.3323 22.399L11.5824 22.1541C11.6682 22.0682 11.7517 21.9847 11.8429 21.9092V21.9092ZM11.8819 22.3598C11.8036 22.5783 11.7113 22.7915 11.6057 22.9981C11.3869 23.4359 11.0587 23.9829 10.9153 24.2618L11.8819 22.3598Z" fill="#CFB66C"/>
<path fill-rule="evenodd" clip-rule="evenodd" d="M11.8818 22.36C11.8818 22.4563 11.8557 22.5398 11.8245 22.6231C11.794 22.7064 11.7593 22.7882 11.7204 22.868C11.6813 22.9461 11.637 23.0296 11.5926 23.1051C11.5483 23.1807 11.4963 23.2587 11.4572 23.337L11.1941 23.8007C11.1029 23.9552 11.0143 24.1106 10.9179 24.2592C10.983 24.0924 11.0716 23.9362 11.1551 23.7825C11.2463 23.6279 11.3296 23.4733 11.4127 23.3134C11.4533 23.2338 11.4898 23.1521 11.5221 23.0687C11.561 22.9853 11.6 22.9071 11.6315 22.8316C11.6704 22.7483 11.7017 22.67 11.7409 22.5946C11.785 22.5137 11.8216 22.4355 11.8815 22.36H11.8818Z" fill="#CFB66C"/>
<path fill-rule="evenodd" clip-rule="evenodd" d="M12.8094 24.4962C12.8094 24.4962 12.5518 24.8375 12.5775 25.2699C12.6478 25.0434 12.7364 24.6968 12.8094 24.4962ZM13.0543 24.8383C13.0543 24.8383 12.9631 25.7657 12.8875 26.2216C12.9943 25.6946 13.0151 25.7389 13.0543 24.8383ZM14.7606 26.2764C14.7606 26.2764 14.3751 27.4098 14.3672 27.7248C14.4506 27.4009 14.6121 26.7392 14.7606 26.2755V26.2764Z" fill="#DEC270"/>
<path fill-rule="evenodd" clip-rule="evenodd" d="M15.662 24.4261C15.662 24.4261 16.2873 25.4577 16.7563 26.3382C16.6294 25.8952 16.3375 25.0825 15.662 24.4261Z" fill="#CBAF59"/>
<path fill-rule="evenodd" clip-rule="evenodd" d="M17.3424 25.9447C17.6857 26.5515 17.9953 27.1769 18.2698 27.8178C18.2178 27.3749 18.0769 26.6169 17.3424 25.9447Z" fill="#E3C677"/>
<path fill-rule="evenodd" clip-rule="evenodd" d="M22.2819 27.4658C22.3859 27.4007 22.5918 27.0462 22.7716 26.9578C22.9513 26.8666 23.0868 26.8484 23.2484 26.6686C23.4098 26.4809 23.4544 26.3663 23.8084 26.2179C24.3035 26.0041 23.9629 25.728 23.9629 25.728C24.0175 25.6744 24.0758 25.6248 24.1374 25.5796C24.2652 25.4833 24.4136 25.366 24.4007 25.1601C24.3825 24.8137 24.3174 24.3108 24.0334 24.0191C24.3095 23.9617 24.8383 23.9227 25.1668 23.8394C25.547 23.7429 25.7217 23.6074 25.7217 23.6074C25.7217 23.6074 25.5029 23.2349 25.8572 22.8599C26.2115 22.4848 26.5007 22.2607 26.7143 21.8411C26.4694 21.8099 26.096 21.6797 25.1433 22.0417C25.1947 22.0659 25.2443 22.0938 25.2918 22.125C25.2918 22.125 24.7057 22.2866 24.4921 22.4664C24.1194 22.7816 24.0725 23.0395 23.6688 23.2324C23.265 23.4252 22.8585 23.373 22.5226 23.5293C22.1867 23.6856 22.1371 23.8185 22.0145 23.8758C22.0406 23.9071 22.0093 23.9591 22.0588 24.0034C22.0275 24.0478 21.8451 24.3447 21.6602 24.3447C21.6784 24.4151 21.8347 24.4671 21.8347 24.4671C21.8347 24.4671 21.7201 24.5506 21.4283 24.5714C21.5767 24.7259 21.7175 24.8944 22.1057 25.1393C22.0744 25.2044 21.9441 25.3009 21.9963 25.4233C22.0536 25.5458 22.2023 25.7125 22.796 25.848C22.4938 25.8609 22.1397 25.9313 21.6626 25.8662C21.1858 25.8089 21.1077 25.775 20.8134 25.848C20.8446 25.8793 20.9279 25.8793 21.0009 25.9626C20.9228 25.9677 20.433 25.9052 20.2662 26.1242C20.0917 26.3507 20.0162 26.7234 20.0292 26.9734C19.938 27.0177 19.8494 27.0958 19.8937 27.2574C19.938 27.419 20.1699 27.4711 20.3184 27.5726C20.4668 27.682 20.4799 27.721 20.6207 27.695C20.7691 27.6638 20.9878 27.5154 21.1156 27.5154C21.2434 27.5154 21.3344 27.6117 21.3344 27.6117C21.3344 27.6117 21.681 27.445 21.7148 27.4762C21.746 27.5075 21.7199 27.7081 21.7538 27.7393C21.7881 27.7629 22.1785 27.531 22.2827 27.4658H22.2819Z" fill="#ECD592"/>
<path fill-rule="evenodd" clip-rule="evenodd" d="M29.8551 17.0402C28.2269 12.8355 24.2018 12.0565 24.2018 12.0565H12.7182L12.7625 16.3394H15.0495V25.903H12.718V30.1782H23.8839C26.575 30.1782 28.7322 27.4739 28.7322 27.4739C32.1866 22.5711 29.8549 17.0402 29.8549 17.0402H29.8551ZM23.9439 24.5925C23.9439 24.5925 23.068 25.8562 22.1151 25.8562H20.2089L20.1637 16.3499H22.61C22.61 16.3499 23.7435 16.5868 24.5353 18.8299C24.5353 18.8299 25.5851 22.0413 23.9439 24.5925V24.5925Z" fill="white" fill-opacity="0.8"/>
</g>
<defs>
<linearGradient id="paint0_linear_7277_58000" x1="21" y1="0" x2="21" y2="61.4091" gradientUnits="userSpaceOnUse">
<stop stop-color="#08021E"/>
<stop offset="1" stop-color="#1F0777"/>
</linearGradient>
<clipPath id="clip0_7277_58000">
<rect width="42" height="42" fill="white"/>
</clipPath>
</defs>
</svg>
