<svg width="42" height="42" viewBox="0 0 42 42" fill="none" xmlns="http://www.w3.org/2000/svg">
<g clip-path="url(#clip0_7277_58003)">
<mask id="mask0_7277_58003" style="mask-type:alpha" maskUnits="userSpaceOnUse" x="0" y="0" width="43" height="42">
<ellipse cx="21.1479" cy="21" rx="21.1479" ry="21" fill="url(#paint0_linear_7277_58003)"/>
</mask>
<g mask="url(#mask0_7277_58003)">
<ellipse cx="21.1479" cy="21" rx="21.1479" ry="21" fill="#34EDB3"/>
<ellipse cx="21.1479" cy="21" rx="18.3282" ry="18.2" fill="white"/>
</g>
<ellipse cx="21.1479" cy="21" rx="16.2134" ry="16.1" fill="#06061B"/>
<ellipse cx="21.1479" cy="21" rx="16.2134" ry="16.1" fill="#F5F5FF"/>
<g clip-path="url(#clip1_7277_58003)">
<path d="M21.1903 12.3281C24.1528 12.3281 26.5544 10.9491 26.5544 9.24798C26.5544 7.54687 24.1528 6.16785 21.1903 6.16785C18.2278 6.16785 15.8263 7.54687 15.8263 9.24798C15.8263 10.9491 18.2278 12.3281 21.1903 12.3281Z" fill="#E6007A"/>
<path d="M21.1903 35.5364C24.1528 35.5364 26.5544 34.1573 26.5544 32.4562C26.5544 30.7551 24.1528 29.3761 21.1903 29.3761C18.2278 29.3761 15.8263 30.7551 15.8263 32.4562C15.8263 34.1573 18.2278 35.5364 21.1903 35.5364Z" fill="#E6007A"/>
<path d="M13.7151 16.5917C15.1964 14.0587 15.1868 11.3154 13.6937 10.4643C12.2006 9.61313 9.78936 10.9765 8.30811 13.5095C6.82686 16.0425 6.83647 18.7858 8.32958 19.6369C9.82269 20.4881 12.2339 19.1247 13.7151 16.5917Z" fill="#E6007A"/>
<path d="M34.0703 28.1945C35.5515 25.6615 35.5427 22.9186 34.0506 22.0681C32.5585 21.2175 30.1482 22.5814 28.6669 25.1143C27.1857 27.6473 27.1945 30.3902 28.6866 31.2408C30.1787 32.0913 32.589 30.7274 34.0703 28.1945Z" fill="#E6007A"/>
<path d="M13.6944 31.2401C15.1875 30.389 15.1971 27.6456 13.7159 25.1126C12.2346 22.5797 9.82345 21.2163 8.33034 22.0674C6.83724 22.9185 6.82762 25.6619 8.30887 28.1949C9.79012 30.7278 12.2013 32.0912 13.6944 31.2401Z" fill="#E6007A"/>
<path d="M34.0519 19.6376C35.544 18.7871 35.5528 16.0442 34.0715 13.5112C32.5903 10.9782 30.1799 9.61438 28.6878 10.4649C27.1957 11.3155 27.1869 14.0584 28.6682 16.5913C30.1494 19.1243 32.5598 20.4882 34.0519 19.6376Z" fill="#E6007A"/>
</g>
</g>
<defs>
<linearGradient id="paint0_linear_7277_58003" x1="21.1479" y1="0" x2="21.1479" y2="61.4091" gradientUnits="userSpaceOnUse">
<stop stop-color="#08021E"/>
<stop offset="1" stop-color="#1F0777"/>
</linearGradient>
<clipPath id="clip0_7277_58003">
<rect width="42" height="42" fill="white"/>
</clipPath>
<clipPath id="clip1_7277_58003">
<rect width="27.9721" height="29.3706" fill="white" transform="translate(7.20535 6.16785)"/>
</clipPath>
</defs>
</svg>
