<svg width="42" height="42" fill="none" xmlns="http://www.w3.org/2000/svg">
  <g clip-path="url(#a)">
    <mask id="c" width="43" height="42" x="0" y="0" maskUnits="userSpaceOnUse" style="mask-type:alpha">
      <ellipse cx="21.148" cy="21" fill="url(#b)" rx="21.148" ry="21"/>
    </mask>
    <g mask="url(#c)">
      <ellipse cx="21.148" cy="21" fill="#34EDB3" rx="21.148" ry="21"/>
      <ellipse cx="21.148" cy="21" fill="#fff" rx="18.328" ry="18.2"/>
    </g>
    <ellipse cx="21.148" cy="21" fill="#06061B" rx="16.213" ry="16.1"/>
    <ellipse cx="21.148" cy="21" fill="#F5F5FF" rx="16.213" ry="16.1"/>
    <g fill="#E6007A" clip-path="url(#d)">
      <path d="M21.19 12.328c2.963 0 5.364-1.379 5.364-3.08s-2.401-3.08-5.364-3.08-5.364 1.379-5.364 3.08 2.402 3.08 5.364 3.08m0 23.208c2.963 0 5.364-1.379 5.364-3.08 0-1.7-2.401-3.08-5.364-3.08s-5.364 1.38-5.364 3.08 2.402 3.08 5.364 3.08m-7.475-18.944c1.481-2.533 1.472-5.277-.021-6.128-1.493-.85-3.905.512-5.386 3.045s-1.472 5.277.022 6.128 3.904-.512 5.385-3.045M34.07 28.195c1.481-2.534 1.473-5.276-.02-6.127-1.491-.85-3.902.513-5.383 3.046s-1.473 5.276.02 6.127c1.492.85 3.902-.514 5.383-3.046M13.694 31.24c1.493-.851 1.503-3.594.022-6.127s-3.893-3.897-5.386-3.046c-1.493.852-1.502 3.595-.021 6.128s3.892 3.896 5.385 3.045m20.358-11.602c1.492-.85 1.5-3.594.02-6.127-1.482-2.533-3.892-3.897-5.384-3.046-1.492.85-1.501 3.593-.02 6.126s3.892 3.897 5.384 3.047"/>
    </g>
  </g>
  <defs>
    <clipPath id="a">
      <path fill="#fff" d="M0 0h42v42H0z"/>
    </clipPath>
    <clipPath id="d">
      <path fill="#fff" d="M7.205 6.168h27.972v29.37H7.205z"/>
    </clipPath>
    <linearGradient id="b" x1="21.148" x2="21.148" y1="0" y2="61.409" gradientUnits="userSpaceOnUse">
      <stop stop-color="#08021E"/>
      <stop offset="1" stop-color="#1F0777"/>
    </linearGradient>
  </defs>
</svg>
