<svg width="480" height="480" viewBox="0 0 480 480" fill="none" xmlns="http://www.w3.org/2000/svg"><mask id="mask0-027456" maskUnits="userSpaceOnUse" x="0" y="0" width="480" height="480"><circle cx="240" cy="240" r="240" fill="url(#paint0_linear-595899)"/></mask><g mask="url(#mask0-027456)"><circle cx="240" cy="240" r="240" fill="#31D8A4"/><circle cx="240" cy="240" r="208" fill="#fff"/></g><circle cx="240" cy="240" r="184" fill="#0E052F"/><path d="M240 424c101.62 0 184-82.38 184-184S341.62 56 240 56 56 138.38 56 240s82.38 184 184 184z" fill="#fff"/><path d="M240.94 117.333c-51.244.206-92.734 41.696-92.94 92.94a95.45 95.45 0 004.901 30.189c2.421 6.626 9.606 10.194 16.349 8.145 6.518-2.499 9.978-9.625 7.9-16.29a61.344 61.344 0 01-3.617-23.691c1.118-37.011 32.023-66.112 69.034-64.995 37.011 1.117 66.112 32.022 64.995 69.033-1.049 34.649-28.337 62.79-62.947 64.897 0 0-13.046.794-19.534 1.588a67.449 67.449 0 00-7.107 1.412.855.855 0 01-1.215.01l-.01-.01a.854.854 0 010-1.039l2.019-11.017 12.252-55.106c1.471-6.88-2.911-13.653-9.791-15.124-6.881-1.47-13.654 2.912-15.125 9.792 0 0-29.14 134.882-29.14 136.107-1.666 6.557 2.294 13.222 8.851 14.889.069.019.147.039.216.049h.676c6.547 1.695 13.232-2.245 14.918-8.793.03-.107.059-.215.079-.333a3.088 3.088 0 010-.608c.362-1.587 4.038-19.534 4.038-19.534a33.063 33.063 0 0127.366-26.024c2.813-.431 14.634-1.225 14.634-1.225 51.047-5.087 88.304-50.596 83.207-101.644-4.646-46.558-43.216-82.403-90.009-83.618z" fill="#1E1E1E"/><path d="M246.576 331.627c-8.381-1.744-16.575 3.637-18.319 12.007-.02.079-.03.157-.049.236-1.814 8.321 3.46 16.545 11.791 18.358.01 0 .02 0 .029.01h.432c8.155 1.97 16.359-3.048 18.319-11.194.02-.058.029-.127.049-.186v-.853c1.441-8.409-3.93-16.476-12.252-18.378z" fill="#E6007A"/><defs><linearGradient id="paint0_linear-595899" x1="240" y1="0" x2="240" y2="701.818" gradientUnits="userSpaceOnUse"><stop stop-color="#08021E"/><stop offset="1" stop-color="#1F0777"/></linearGradient></defs></svg>