<svg xmlns="http://www.w3.org/2000/svg" width="42" height="42" fill="none"><g clip-path="url(#a)"><mask id="c" width="42" height="42" x="0" y="0" maskUnits="userSpaceOnUse" style="mask-type:alpha"><circle cx="21" cy="21" r="21" fill="url(#b)" transform="matrix(-1 0 0 1 42 0)"/></mask><g mask="url(#c)"><circle cx="21" cy="21" r="21" fill="#34EDB3" transform="matrix(-1 0 0 1 42 0)"/><circle cx="18.2" cy="18.2" r="18.2" fill="#fff" transform="matrix(-1 0 0 1 39.2 2.8)"/></g><circle cx="16.1" cy="16.1" r="16.1" fill="#0B0B22" transform="matrix(-1 0 0 1 37.1 4.9)"/><path fill="#0E052F" d="M37.1 21c0 8.892-7.208 16.1-16.1 16.1-8.892 0-16.1-7.208-16.1-16.1 0-8.892 7.208-16.1 16.1-16.1 8.892 0 16.1 7.208 16.1 16.1Z"/><path fill="#fff" d="M25.378 11.586 12.114 30.588h4.072l13.332-19.002h-4.14Z"/><path fill="url(#d)" d="m16.61 11.586 3.903 5.6-2.036 3.054-6.023-8.654h4.157Z"/><path fill="url(#e)" d="m25.773 30.59-4.327-6.193 2.036-2.97 6.363 9.163h-4.072Z"/></g><defs><linearGradient id="b" x1="21" x2="21" y1="0" y2="61.409" gradientUnits="userSpaceOnUse"><stop stop-color="#08021E"/><stop offset="1" stop-color="#1F0777"/></linearGradient><linearGradient id="d" x1="15.677" x2="21.264" y1="12.774" y2="19.518" gradientUnits="userSpaceOnUse"><stop stop-color="#fff"/><stop offset="1" stop-color="#fff" stop-opacity=".55"/></linearGradient><linearGradient id="e" x1="26.706" x2="19.842" y1="29.148" y2="19.894" gradientUnits="userSpaceOnUse"><stop stop-color="#6966FF"/><stop offset="1" stop-color="#6966FF" stop-opacity=".36"/></linearGradient><clipPath id="a"><path fill="#fff" d="M0 0h42v42H0z"/></clipPath></defs></svg>