<svg width="42" height="42" viewBox="0 0 42 42" fill="none" xmlns="http://www.w3.org/2000/svg">
<g clip-path="url(#clip0_7277_57940)">
<mask id="mask0_7277_57940" style="mask-type:alpha" maskUnits="userSpaceOnUse" x="0" y="0" width="42" height="42">
<circle cx="21" cy="21" r="21" transform="matrix(-1 0 0 1 42 0)" fill="url(#paint0_linear_7277_57940)"/>
</mask>
<g mask="url(#mask0_7277_57940)">
<circle cx="21" cy="21" r="21" transform="matrix(-1 0 0 1 42 0)" fill="#34EDB3"/>
<circle cx="18.2" cy="18.2" r="18.2" transform="matrix(-1 0 0 1 39.2 2.80005)" fill="white"/>
</g>
<circle cx="16.1" cy="16.1" r="16.1" transform="matrix(-1 0 0 1 37.1 4.90002)" fill="#0B0B22"/>
<path d="M37.1 21C37.1 29.8918 29.8917 37.1 21 37.1C12.1082 37.1 4.89996 29.8918 4.89996 21C4.89996 12.1082 12.1082 4.90002 21 4.90002C29.8917 4.90002 37.1 12.1082 37.1 21Z" fill="#0E052F"/>
<path d="M25.3777 11.5864L12.1142 30.5881H16.1864L29.5184 11.5864H25.3777Z" fill="white"/>
<path d="M16.6106 11.5864L20.513 17.1856L18.477 20.2397L12.4536 11.5864H16.6106Z" fill="url(#paint1_linear_7277_57940)"/>
<path d="M25.7728 30.5897L21.4462 24.3967L23.4822 21.4274L29.845 30.5897H25.7728Z" fill="url(#paint2_linear_7277_57940)"/>
</g>
<defs>
<linearGradient id="paint0_linear_7277_57940" x1="21" y1="0" x2="21" y2="61.4091" gradientUnits="userSpaceOnUse">
<stop stop-color="#08021E"/>
<stop offset="1" stop-color="#1F0777"/>
</linearGradient>
<linearGradient id="paint1_linear_7277_57940" x1="15.6774" y1="12.7741" x2="21.2639" y2="19.5183" gradientUnits="userSpaceOnUse">
<stop stop-color="white"/>
<stop offset="1" stop-color="white" stop-opacity="0.55"/>
</linearGradient>
<linearGradient id="paint2_linear_7277_57940" x1="26.7061" y1="29.1475" x2="19.8423" y2="19.8944" gradientUnits="userSpaceOnUse">
<stop stop-color="#6966FF"/>
<stop offset="1" stop-color="#6966FF" stop-opacity="0.36"/>
</linearGradient>
<clipPath id="clip0_7277_57940">
<rect width="42" height="42" fill="white"/>
</clipPath>
</defs>
</svg>
