<svg width="488" height="488" viewBox="0 0 488 488" fill="none" xmlns="http://www.w3.org/2000/svg">
<g filter="url(#filter0_d_740_32403)">
<mask id="mask0_740_32403" style="mask-type:alpha" maskUnits="userSpaceOnUse" x="4" y="0" width="480" height="480">
<circle cx="244" cy="240" r="240" fill="url(#paint0_linear_740_32403)"/>
</mask>
<g mask="url(#mask0_740_32403)">
<circle cx="244" cy="240" r="240" fill="#31D8A4"/>
<circle cx="243.996" cy="240" r="208" fill="white"/>
</g>
<circle cx="243.999" cy="240" r="184" fill="#0E052F"/>
<circle cx="244" cy="240" r="184" fill="#111320"/>
<path d="M294.03 132.415L142.448 349.577H188.987L341.353 132.415H294.03Z" fill="white"/>
<path d="M193.834 132.415L238.434 196.406L215.165 231.31L146.326 132.415H193.834Z" fill="url(#paint1_linear_740_32403)"/>
<path d="M298.547 349.596L249.1 278.819L272.369 244.884L345.086 349.596H298.547Z" fill="url(#paint2_linear_740_32403)"/>
</g>
<defs>
<filter id="filter0_d_740_32403" x="0" y="0" width="488" height="488" filterUnits="userSpaceOnUse" color-interpolation-filters="sRGB">
<feFlood flood-opacity="0" result="BackgroundImageFix"/>
<feColorMatrix in="SourceAlpha" type="matrix" values="0 0 0 0 0 0 0 0 0 0 0 0 0 0 0 0 0 0 127 0" result="hardAlpha"/>
<feOffset dy="4"/>
<feGaussianBlur stdDeviation="2"/>
<feComposite in2="hardAlpha" operator="out"/>
<feColorMatrix type="matrix" values="0 0 0 0 0 0 0 0 0 0 0 0 0 0 0 0 0 0 0.25 0"/>
<feBlend mode="normal" in2="BackgroundImageFix" result="effect1_dropShadow_740_32403"/>
<feBlend mode="normal" in="SourceGraphic" in2="effect1_dropShadow_740_32403" result="shape"/>
</filter>
<linearGradient id="paint0_linear_740_32403" x1="244" y1="0" x2="244" y2="701.818" gradientUnits="userSpaceOnUse">
<stop stop-color="#08021E"/>
<stop offset="1" stop-color="#1F0777"/>
</linearGradient>
<linearGradient id="paint1_linear_740_32403" x1="183.169" y1="145.989" x2="247.015" y2="223.065" gradientUnits="userSpaceOnUse">
<stop stop-color="white"/>
<stop offset="1" stop-color="white" stop-opacity="0.55"/>
</linearGradient>
<linearGradient id="paint2_linear_740_32403" x1="309.213" y1="333.114" x2="230.769" y2="227.364" gradientUnits="userSpaceOnUse">
<stop stop-color="#6966FF"/>
<stop offset="1" stop-color="#6966FF" stop-opacity="0.36"/>
</linearGradient>
</defs>
</svg>
