<svg width="300" height="300" viewBox="0 0 300 300" fill="none" xmlns="http://www.w3.org/2000/svg"><path d="M150 300c82.843 0 150-67.157 150-150S232.843 0 150 0 0 67.157 0 150s67.157 150 150 150z" fill="#6E97FF"/><path d="M179 203.966v-28.2h7.74v19.2h9.42v-15.6h7.38v15.6h9.72v-19.86H221v28.86h-42zm21-73.182c4.04 0 7.7.88 10.98 2.64 3.24 1.76 5.78 4.22 7.62 7.38 1.84 3.16 2.76 6.76 2.76 10.8 0 4.04-.92 7.64-2.76 10.8-1.84 3.16-4.38 5.62-7.62 7.38-3.28 1.76-6.94 2.64-10.98 2.64s-7.68-.88-10.92-2.64c-3.28-1.76-5.84-4.22-7.68-7.38-1.84-3.16-2.76-6.76-2.76-10.8 0-4.04.92-7.64 2.76-10.8 1.84-3.16 4.4-5.62 7.68-7.38 3.24-1.76 6.88-2.64 10.92-2.64zm0 32.46c2.64 0 5-.48 7.08-1.44s3.72-2.32 4.92-4.08c1.16-1.76 1.74-3.8 1.74-6.12 0-2.28-.58-4.3-1.74-6.06-1.2-1.76-2.84-3.12-4.92-4.08s-4.44-1.44-7.08-1.44c-2.64 0-5 .48-7.08 1.44s-3.7 2.32-4.86 4.08c-1.2 1.76-1.8 3.78-1.8 6.06 0 2.32.6 4.36 1.8 6.12 1.16 1.76 2.78 3.12 4.86 4.08 2.08.96 4.44 1.44 7.08 1.44zm7.32-45.051c2.08-.16 3.76-1 5.04-2.52 1.24-1.56 1.86-3.62 1.86-6.18 0-2.12-.44-3.84-1.32-5.16-.92-1.36-2.18-2.04-3.78-2.04-1.12 0-2 .38-2.64 1.14-.68.72-1.2 1.76-1.56 3.12-.4 1.32-.88 3.38-1.44 6.18-.52 2.76-1.18 5.08-1.98 6.96-.84 1.88-2.06 3.42-3.66 4.62-1.64 1.16-3.8 1.74-6.48 1.74-2.44 0-4.62-.66-6.54-1.98-1.92-1.36-3.42-3.22-4.5-5.58-1.12-2.4-1.68-5.1-1.68-8.1 0-3.08.58-5.84 1.74-8.28 1.12-2.48 2.68-4.42 4.68-5.82 2-1.44 4.26-2.18 6.78-2.22v8.82c-1.8.2-3.24.96-4.32 2.28-1.12 1.32-1.68 3.06-1.68 5.22 0 2 .42 3.6 1.26 4.8.84 1.2 2.04 1.8 3.6 1.8 1.12 0 2-.36 2.64-1.08.6-.72 1.1-1.74 1.5-3.06.36-1.32.8-3.36 1.32-6.12.52-2.8 1.18-5.16 1.98-7.08.76-1.92 1.94-3.46 3.54-4.62 1.56-1.2 3.66-1.8 6.3-1.8 2.56 0 4.86.7 6.9 2.1 2 1.4 3.58 3.36 4.74 5.88 1.16 2.48 1.74 5.28 1.74 8.4 0 3.36-.6 6.36-1.8 9-1.24 2.6-2.94 4.64-5.1 6.12-2.16 1.481-4.58 2.24-7.26 2.28l.12-8.82z" fill="#1E1A31"/><path opacity=".5" fill-rule="evenodd" clip-rule="evenodd" d="M81.424 208.528l-12.484-8.906 78.517-109.094 12.483 8.906-78.516 109.094z" fill="#1E1A31"/><path fill-rule="evenodd" clip-rule="evenodd" d="M121.868 142.349h4.191c19.298 0 34.941 15.592 34.941 34.826C161 196.408 145.357 212 126.059 212H74.676c-4.24 0-7.676-3.425-7.676-7.651 0-4.225 3.437-7.65 7.676-7.65h51.383c10.819 0 19.589-8.741 19.589-19.524 0-10.783-8.77-19.524-19.589-19.524h-24.118C82.643 157.651 67 142.059 67 122.825 67 103.592 82.643 88 101.941 88h51.383c4.239 0 7.676 3.425 7.676 7.65 0 4.226-3.437 7.651-7.676 7.651h-51.383c-10.82 0-19.59 8.741-19.59 19.524 0 10.783 8.77 19.524 19.59 19.524h19.927z" fill="#1E1A31"/></svg>