<svg xmlns="http://www.w3.org/2000/svg" width="42" height="42" fill="none"><g clip-path="url(#a)"><mask id="c" width="42" height="42" x="0" y="0" maskUnits="userSpaceOnUse" style="mask-type:alpha"><circle cx="21" cy="21" r="21" fill="url(#b)" transform="matrix(-1 0 0 1 42 0)"/></mask><g mask="url(#c)"><circle cx="21" cy="21" r="21" fill="#34EDB3" transform="matrix(-1 0 0 1 42 0)"/><circle cx="18.2" cy="18.2" r="18.2" fill="#fff" transform="matrix(-1 0 0 1 39.2 2.8)"/></g><circle cx="16.1" cy="16.1" r="16.1" fill="#0B0B22" transform="matrix(-1 0 0 1 37.1 4.9)"/><g clip-path="url(#d)"><path fill="#000" d="M21 37.1c8.892 0 16.1-7.208 16.1-16.1 0-8.892-7.208-16.1-16.1-16.1-8.892 0-16.1 7.208-16.1 16.1 0 8.892 7.208 16.1 16.1 16.1Z"/><path fill="#fff" fill-rule="evenodd" d="M21.003 9.123a.43.43 0 0 1 .35.176l5.145 7.03a.43.43 0 0 1 .073.162l2.49 11.373a.43.43 0 0 1-.191.456l-7.636 4.783a.428.428 0 0 1-.231.066.43.43 0 0 1-.231-.066l-7.636-4.783a.43.43 0 0 1-.191-.456l2.49-11.373a.429.429 0 0 1 .072-.162l5.146-7.03a.43.43 0 0 1 .35-.176Zm-.433 1.743L16.33 16.66l1.059 3.325 3.182-5.615v-3.504Zm.433 4.482-3.26 5.752 2.047 6.427h2.426l2.047-6.428-3.26-5.751Zm3.837 6.77-1.723 5.409h4.788l-3.065-5.41Zm2.308 6.267h-4.304l-1.073 3.37 5.377-3.37Zm-6.145 2.95.94-2.95h-1.88l.94 2.95Zm-2.114-3.808-1.723-5.409-3.065 5.409h4.788Zm-4.498-2.253 2.42-4.27-.88-2.765-1.54 7.035Zm.467 3.111h4.304l1.073 3.37-5.377-3.37Zm12.757-3.112-2.42-4.27.88-2.764 1.54 7.034Zm-1.939-8.613-1.058 3.324-3.182-5.614v-3.504l4.24 5.794Z" clip-rule="evenodd"/></g></g><defs><clipPath id="a"><path fill="#fff" d="M0 0h42v42H0z"/></clipPath><clipPath id="d"><path fill="#fff" d="M4.9 4.9h32.2v32.2H4.9z"/></clipPath><linearGradient id="b" x1="21" x2="21" y1="0" y2="61.409" gradientUnits="userSpaceOnUse"><stop stop-color="#08021E"/><stop offset="1" stop-color="#1F0777"/></linearGradient></defs></svg>