<svg width="42" height="42" fill="none" xmlns="http://www.w3.org/2000/svg">
  <g clip-path="url(#a)">
    <mask id="c" width="42" height="42" x="0" y="0" maskUnits="userSpaceOnUse" style="mask-type:alpha">
      <circle cx="21" cy="21" r="21" fill="url(#b)"/>
    </mask>
    <g mask="url(#c)">
      <circle cx="21" cy="21" r="21" fill="#34EDB3"/>
      <circle cx="21" cy="21" r="18.2" fill="#fff"/>
    </g>
    <circle cx="21" cy="21" r="16.1" fill="#06061B"/>
    <g clip-path="url(#d)">
      <path fill="#627EEA" d="M21 37.268c8.984 0 16.268-7.284 16.268-16.268S29.984 4.732 21 4.732 4.732 12.016 4.732 21 12.016 37.268 21 37.268"/>
      <path fill="#fff" fill-opacity=".602" d="M21.506 8.8v9.018l7.623 3.406-7.623-12.425z"/>
      <path fill="#fff" d="m21.506 8.8-7.623 12.424 7.623-3.406V8.799z"/>
      <path fill="#fff" fill-opacity=".602" d="M21.506 27.068v6.128l7.628-10.553z"/>
      <path fill="#fff" d="M21.506 33.196v-6.13l-7.623-4.423z"/>
      <path fill="#fff" fill-opacity=".2" d="m21.506 25.65 7.623-4.426-7.623-3.404z"/>
      <path fill="#fff" fill-opacity=".602" d="m13.883 21.224 7.623 4.425v-7.83z"/>
    </g>
  </g>
  <defs>
    <clipPath id="a">
      <path fill="#fff" d="M0 0h42v42H0z"/>
    </clipPath>
    <clipPath id="d">
      <path fill="#fff" d="M4.732 4.732h32.535v32.535H4.732z"/>
    </clipPath>
    <linearGradient id="b" x1="21" x2="21" y1="0" y2="61.409" gradientUnits="userSpaceOnUse">
      <stop stop-color="#08021E"/>
      <stop offset="1" stop-color="#1F0777"/>
    </linearGradient>
  </defs>
</svg>
