<svg xmlns="http://www.w3.org/2000/svg" width="42" height="42" fill="none"><g clip-path="url(#a)"><mask id="c" width="42" height="42" x="0" y="0" maskUnits="userSpaceOnUse" style="mask-type:alpha"><circle cx="21" cy="21" r="21" fill="url(#b)"/></mask><g mask="url(#c)"><circle cx="21" cy="21" r="21" fill="#34EDB3"/><circle cx="21" cy="21" r="18.2" fill="#fff"/></g><circle cx="21" cy="21" r="16.1" fill="#06061B"/><g clip-path="url(#d)"><path fill="#627EEA" d="M21 37.268c8.984 0 16.268-7.284 16.268-16.268 0-8.984-7.284-16.268-16.268-16.268-8.984 0-16.268 7.284-16.268 16.268 0 8.984 7.284 16.268 16.268 16.268z"/><path fill="#fff" fill-opacity=".602" d="M21.506 8.8v9.018l7.623 3.406-7.623-12.425z"/><path fill="#fff" d="M21.506 8.8l-7.623 12.424 7.623-3.406V8.799z"/><path fill="#fff" fill-opacity=".602" d="M21.506 27.068v6.128l7.628-10.553-7.628 4.425z"/><path fill="#fff" d="M21.506 33.196v-6.13l-7.623-4.423 7.623 10.553z"/><path fill="#fff" fill-opacity=".2" d="M21.506 25.65l7.623-4.426-7.623-3.404v7.83z"/><path fill="#fff" fill-opacity=".602" d="M13.883 21.224l7.623 4.425v-7.83l-7.623 3.405z"/></g></g><defs><clipPath id="a"><path fill="#fff" d="M0 0h42v42H0z"/></clipPath><clipPath id="d"><path fill="#fff" d="M4.732 4.732h32.535v32.535H4.732z"/></clipPath><linearGradient id="b" x1="21" x2="21" y1="0" y2="61.409" gradientUnits="userSpaceOnUse"><stop stop-color="#08021E"/><stop offset="1" stop-color="#1F0777"/></linearGradient></defs></svg>