<svg width="42" height="42" viewBox="0 0 42 42" fill="none" xmlns="http://www.w3.org/2000/svg">
<g clip-path="url(#clip0_7277_57931)">
<mask id="mask0_7277_57931" style="mask-type:alpha" maskUnits="userSpaceOnUse" x="0" y="0" width="42" height="42">
<circle cx="21" cy="21" r="21" fill="url(#paint0_linear_7277_57931)"/>
</mask>
<g mask="url(#mask0_7277_57931)">
<circle cx="21" cy="21" r="21" fill="#34EDB3"/>
<circle cx="21" cy="21" r="18.2" fill="white"/>
</g>
<circle cx="21" cy="21" r="16.1" fill="#06061B"/>
<g clip-path="url(#clip1_7277_57931)">
<path d="M21 37.2676C29.9844 37.2676 37.2676 29.9844 37.2676 21C37.2676 12.0157 29.9844 4.73242 21 4.73242C12.0156 4.73242 4.73239 12.0157 4.73239 21C4.73239 29.9844 12.0156 37.2676 21 37.2676Z" fill="#627EEA"/>
<path d="M21.5064 8.79932V17.8177L29.1288 21.2237L21.5064 8.79932Z" fill="white" fill-opacity="0.602"/>
<path d="M21.5063 8.79932L13.8829 21.2237L21.5063 17.8177V8.79932Z" fill="white"/>
<path d="M21.5064 27.0677V33.1955L29.1339 22.6429L21.5064 27.0677Z" fill="white" fill-opacity="0.602"/>
<path d="M21.5063 33.1955V27.0667L13.8829 22.6429L21.5063 33.1955Z" fill="white"/>
<path d="M21.5064 25.6495L29.1288 21.2237L21.5064 17.8197V25.6495Z" fill="white" fill-opacity="0.2"/>
<path d="M13.8829 21.2237L21.5063 25.6495V17.8197L13.8829 21.2237Z" fill="white" fill-opacity="0.602"/>
</g>
</g>
<defs>
<linearGradient id="paint0_linear_7277_57931" x1="21" y1="0" x2="21" y2="61.4091" gradientUnits="userSpaceOnUse">
<stop stop-color="#08021E"/>
<stop offset="1" stop-color="#1F0777"/>
</linearGradient>
<clipPath id="clip0_7277_57931">
<rect width="42" height="42" fill="white"/>
</clipPath>
<clipPath id="clip1_7277_57931">
<rect width="32.5352" height="32.5352" fill="white" transform="translate(4.73239 4.73242)"/>
</clipPath>
</defs>
</svg>
