<svg width="480" height="480" viewBox="0 0 480 480" fill="none" xmlns="http://www.w3.org/2000/svg"><mask id="mask0-113404" maskUnits="userSpaceOnUse" x="0" y="0" width="480" height="480"><circle cx="240" cy="240" r="240" fill="url(#paint0_linear-610315)"/></mask><g mask="url(#mask0-113404)"><circle cx="240" cy="240" r="240" fill="#31D8A4"/><circle cx="240" cy="240" r="208" fill="#fff"/></g><circle cx="240" cy="240" r="184" fill="#0E052F"/><path d="M240 424c101.62 0 184-82.38 184-184S341.62 56 240 56 56 138.38 56 240s82.38 184 184 184z" fill="#627EEA"/><path d="M245.728 102v102.005l86.216 38.525L245.728 102z" fill="#fff" fill-opacity=".602"/><path d="M245.727 102L159.5 242.53l86.227-38.525V102z" fill="#fff"/><path d="M245.728 308.631v69.311l86.273-119.359-86.273 50.048z" fill="#fff" fill-opacity=".602"/><path d="M245.727 377.942V308.62L159.5 258.583l86.227 119.359z" fill="#fff"/><path d="M245.728 292.59l86.216-50.06-86.216-38.502v88.562z" fill="#fff" fill-opacity=".2"/><path d="M159.5 242.53l86.227 50.06v-88.562L159.5 242.53z" fill="#fff" fill-opacity=".602"/><defs><linearGradient id="paint0_linear-610315" x1="240" y1="0" x2="240" y2="701.818" gradientUnits="userSpaceOnUse"><stop stop-color="#08021E"/><stop offset="1" stop-color="#1F0777"/></linearGradient></defs></svg>