<svg width="42" height="42" fill="none" xmlns="http://www.w3.org/2000/svg">
  <g clip-path="url(#a)">
    <mask id="c" width="42" height="42" x="0" y="0" maskUnits="userSpaceOnUse" style="mask-type:alpha">
      <circle cx="21" cy="21" r="21" fill="url(#b)"/>
    </mask>
    <g mask="url(#c)">
      <circle cx="21" cy="21" r="21" fill="#34EDB3"/>
      <circle cx="21" cy="21" r="18.2" fill="#fff"/>
    </g>
    <circle cx="21" cy="21" r="16.1" fill="#06061B"/>
    <path fill="#627EEA" d="M4.732 21c0 8.984 7.284 16.268 16.268 16.268V4.732C12.016 4.732 4.732 12.016 4.732 21"/>
    <path fill="#F7931A" d="M21 37.268c8.984 0 16.268-7.284 16.268-16.268S29.984 4.732 21 4.732z"/>
    <path fill="#fff" d="M33.377 18.126c-.154-1.639-1.57-2.19-3.36-2.35l.005-2.274h-1.386l-.007 2.213c-.364-.001-.736.006-1.108.013l.007-2.229-1.386-.002-.007 2.273q-.451.01-.883.01v-.007l-1.913-.003-.004 1.478s1.024-.018 1.007 0c.562.002.744.327.796.608l-.006 2.59q.058-.001.146.01h-.146l-.01 3.628c-.026.176-.13.457-.524.457.019.016-1.008 0-1.008 0l-.28 1.65 1.806.003.99.01-.006 2.3h1.386l.006-2.273q.57.011 1.109.012l-.007 2.264 1.386.002.007-2.295c2.333-.13 3.966-.713 4.175-2.898.169-1.758-.658-2.545-1.981-2.864.806-.407 1.31-1.126 1.196-2.326m-1.955 4.914c-.003 1.718-2.953 1.518-3.893 1.517l.01-3.046c.94.002 3.888-.263 3.883 1.529m-.633-4.3c-.005 1.564-2.464 1.377-3.246 1.376l.007-2.762c.783.001 3.243-.244 3.239 1.387z"/>
    <path fill="#fff" fill-opacity=".602" d="M13.197 13.573v5.463l4.617 2.063z"/>
    <path fill="#fff" d="M13.197 13.573 8.58 21.1l4.618-2.063v-5.463z"/>
    <path fill="#fff" fill-opacity=".602" d="M13.197 24.639v3.712l4.62-6.392z"/>
    <path fill="#fff" d="M13.197 28.35v-3.712l-4.618-2.68 4.618 6.393z"/>
    <path fill="#fff" fill-opacity=".2" d="m13.197 23.78 4.617-2.68-4.617-2.063z"/>
    <path fill="#fff" fill-opacity=".602" d="m8.58 21.1 4.617 2.68v-4.743z"/>
  </g>
  <defs>
    <linearGradient id="b" x1="21" x2="21" y1="0" y2="61.409" gradientUnits="userSpaceOnUse">
      <stop stop-color="#08021E"/>
      <stop offset="1" stop-color="#1F0777"/>
    </linearGradient>
    <clipPath id="a">
      <path fill="#fff" d="M0 0h42v42H0z"/>
    </clipPath>
  </defs>
</svg>
