<svg width="300" height="300" viewBox="0 0 300 300" fill="none" xmlns="http://www.w3.org/2000/svg"><path d="M150 300c82.843 0 150-67.157 150-150S232.843 0 150 0 0 67.157 0 150s67.157 150 150 150z" fill="#10BA97"/><path d="M179 203.324v-28.2h7.74v19.2h9.42v-15.6h7.38v15.6h9.72v-19.86H221v28.86h-42zm0-42.978h24.36c3.4 0 5.96-.66 7.68-1.98 1.72-1.32 2.58-3.4 2.58-6.24 0-2.84-.86-4.92-2.58-6.24-1.72-1.36-4.28-2.04-7.68-2.04H179v-9h23.88c6 0 10.58 1.48 13.74 4.44 3.16 2.92 4.74 7.2 4.74 12.84s-1.58 9.92-4.74 12.84-7.74 4.38-13.74 4.38H179v-9zm0-49.474c0-3.04.58-5.72 1.74-8.04 1.12-2.36 2.74-4.18 4.86-5.46 2.12-1.28 4.58-1.92 7.38-1.92 2.68 0 5.06.64 7.14 1.92 2.04 1.28 3.6 3.04 4.68 5.28l16.2-8.28v9.96l-14.1 7.02v7.62H221v9h-42v-17.1zm20.4 8.1v-7.38c0-2.12-.58-3.8-1.74-5.04-1.16-1.28-2.72-1.92-4.68-1.92-2 0-3.58.64-4.74 1.92-1.16 1.24-1.74 2.92-1.74 5.04v7.38h12.9z" fill="#1E1A31"/><path opacity=".5" fill-rule="evenodd" clip-rule="evenodd" d="M81.424 208.528l-12.484-8.906 78.517-109.094 12.483 8.906-78.516 109.094z" fill="#1E1A31"/><path fill-rule="evenodd" clip-rule="evenodd" d="M121.868 142.349h4.191c19.298 0 34.941 15.592 34.941 34.826C161 196.408 145.357 212 126.059 212H74.676c-4.24 0-7.676-3.425-7.676-7.651 0-4.225 3.437-7.65 7.676-7.65h51.383c10.819 0 19.589-8.741 19.589-19.524 0-10.783-8.77-19.524-19.589-19.524h-24.118C82.643 157.651 67 142.059 67 122.825 67 103.592 82.643 88 101.941 88h51.383c4.239 0 7.676 3.425 7.676 7.65 0 4.226-3.437 7.651-7.676 7.651h-51.383c-10.82 0-19.59 8.741-19.59 19.524 0 10.783 8.77 19.524 19.59 19.524h19.927z" fill="#1E1A31"/></svg>