<svg xmlns="http://www.w3.org/2000/svg" width="42" height="42" fill="none"><g clip-path="url(#a)"><mask id="c" width="42" height="42" x="0" y="0" maskUnits="userSpaceOnUse" style="mask-type:alpha"><circle cx="21" cy="21" r="21" fill="url(#b)"/></mask><g mask="url(#c)"><circle cx="21" cy="21" r="21" fill="#34EDB3"/><circle cx="21" cy="21" r="18.2" fill="#fff"/></g><circle cx="21" cy="21" r="16.1" fill="#06061B"/><circle cx="21" cy="21" r="16.1" fill="#06061B"/><path fill="#fff" d="M23.1 28.595a7.33 7.33 0 0 1-2.33-.357 6.236 6.236 0 0 1-1.912-1.071 6.388 6.388 0 0 1-1.386-1.659 7.36 7.36 0 0 1-.777-2.184H14.7v-1.533h1.827a2.23 2.23 0 0 1-.02-.315v-.798a4.34 4.34 0 0 0 .02-.378H14.7v-1.533h1.974c.154-.826.42-1.568.798-2.226a6.09 6.09 0 0 1 1.428-1.659 6.115 6.115 0 0 1 1.953-1.05 7.526 7.526 0 0 1 2.352-.357c.966 0 1.771.126 2.415.378.644.252 1.19.567 1.638.945l-1.05 2.016c-.476-.364-.952-.616-1.428-.756a5.35 5.35 0 0 0-1.554-.21c-1.022 0-1.876.252-2.562.756-.686.504-1.127 1.225-1.323 2.163h6.111l-.735 1.533h-5.544c0 .126-.007.252-.02.378v.735c.013.126.02.252.02.378h5.124l-.735 1.533h-4.22c.195.924.63 1.638 1.301 2.142.686.504 1.533.756 2.541.756.63 0 1.176-.077 1.638-.231a4.528 4.528 0 0 0 1.218-.63l1.218 1.911a5.15 5.15 0 0 1-1.785.987c-.672.224-1.463.336-2.373.336Z"/></g><defs><linearGradient id="b" x1="21" x2="21" y1="0" y2="61.409" gradientUnits="userSpaceOnUse"><stop stop-color="#08021E"/><stop offset="1" stop-color="#1F0777"/></linearGradient><clipPath id="a"><path fill="#fff" d="M0 0h42v42H0z"/></clipPath></defs></svg>