<svg width="256" height="256" viewBox="0 0 256 256" fill="none" xmlns="http://www.w3.org/2000/svg">
<mask id="mask0-911575" mask-type="alpha" maskUnits="userSpaceOnUse" x="0" y="0" width="256" height="256">
<circle cx="128" cy="128" r="128" fill="url(#paint0_linear-173738)"/>
</mask>
<g mask="url(#mask0-911575)">
<circle cx="128" cy="128" r="128" fill="#31D8A4"/>
<circle cx="128" cy="128" r="110.933" fill="white"/>
</g>
<circle cx="128.001" cy="128" r="98.1333" fill="#0E052F"/>
<path d="M226.134 128C226.134 73.802 182.198 29.8662 128.001 29.8662C73.8029 29.8662 29.8672 73.802 29.8672 128C29.8672 176.981 65.7531 217.579 112.667 224.941V156.366H87.7506V128H112.667V106.38C112.667 81.7848 127.318 68.1996 149.734 68.1996C160.47 68.1996 171.701 70.1162 171.701 70.1162V94.2662H159.326C147.136 94.2662 143.334 101.831 143.334 109.591V128H170.551L166.2 156.366H143.334V224.941C190.248 217.579 226.134 176.981 226.134 128Z" fill="#1877F2"/>
<path d="M166.199 156.366L170.55 127.999H143.333V109.591C143.333 101.83 147.135 94.2658 159.326 94.2658H171.7V70.1158C171.7 70.1158 160.47 68.1992 149.733 68.1992C127.317 68.1992 112.667 81.7845 112.667 106.379V127.999H87.75V156.366H112.667V224.94C117.739 225.735 122.866 226.134 128 226.132C133.216 226.132 138.337 225.724 143.333 224.94V156.366H166.199Z" fill="white"/>
<defs>
<linearGradient id="paint0_linear-173738" x1="128" y1="0" x2="128" y2="374.303" gradientUnits="userSpaceOnUse">
<stop stop-color="#08021E"/>
<stop offset="1" stop-color="#1F0777"/>
</linearGradient>
</defs>
</svg>