<svg width="480" height="480" viewBox="0 0 480 480" fill="none" xmlns="http://www.w3.org/2000/svg"><mask id="mask0-342211" maskUnits="userSpaceOnUse" x="0" y="0" width="480" height="480"><circle cx="240" cy="240" r="240" fill="url(#paint0_linear-329117)"/></mask><g mask="url(#mask0-342211)"><circle cx="240" cy="240" r="240" fill="#31D8A4"/><circle cx="240" cy="240" r="208" fill="#fff"/></g><circle cx="240" cy="240" r="184" fill="#0E052F"/><path d="M424 240c0-101.62-82.38-184-184-184S56 138.38 56 240c0 91.84 67.286 167.961 155.25 181.765V293.187h-46.719V240h46.719v-40.537c0-46.116 27.47-71.588 69.499-71.588 20.132 0 41.189 3.594 41.189 3.594v45.281h-23.203c-22.857 0-29.985 14.184-29.985 28.735V240h51.031l-8.158 53.187H268.75v128.578C356.714 407.961 424 331.84 424 240z" fill="#1877F2"/><path d="M311.624 293.187L319.781 240H268.75v-34.516c0-14.551 7.128-28.734 29.986-28.734h23.202v-45.281s-21.057-3.594-41.188-3.594c-42.03 0-69.5 25.472-69.5 71.588V240h-46.719v53.187h46.719v128.578A185.503 185.503 0 00240 424c9.781 0 19.382-.766 28.75-2.235V293.187h42.874z" fill="#fff"/><defs><linearGradient id="paint0_linear-329117" x1="240" y1="0" x2="240" y2="701.818" gradientUnits="userSpaceOnUse"><stop stop-color="#08021E"/><stop offset="1" stop-color="#1F0777"/></linearGradient></defs></svg>