<svg xmlns="http://www.w3.org/2000/svg" width="42" height="42" fill="none"><g clip-path="url(#a)"><mask id="c" width="42" height="42" x="0" y="0" maskUnits="userSpaceOnUse" style="mask-type:alpha"><circle cx="21" cy="21" r="21" fill="url(#b)"/></mask><g mask="url(#c)"><circle cx="21" cy="21" r="21" fill="#34EDB3"/><circle cx="21" cy="21" r="18.2" fill="#fff"/></g><circle cx="21" cy="21" r="16.1" fill="#06061B"/><path fill="#1877F2" d="M37.1 21c0-8.892-7.208-16.1-16.1-16.1-8.892 0-16.1 7.208-16.1 16.1 0 8.036 5.888 14.697 13.584 15.904v-11.25h-4.088V21h4.088v-3.547c0-4.035 2.404-6.264 6.082-6.264 1.761 0 3.604.315 3.604.315v3.962h-2.03c-2 0-2.624 1.24-2.624 2.514V21h4.465l-.714 4.654h-3.751v11.25C31.213 35.697 37.1 29.036 37.1 21"/><path fill="#fff" d="M27.267 25.654 27.981 21h-4.465v-3.02c0-1.273.623-2.514 2.623-2.514h2.03v-3.962s-1.842-.315-3.603-.315c-3.678 0-6.082 2.229-6.082 6.264V21h-4.088v4.654h4.088v11.25a16.226 16.226 0 0 0 5.032 0v-11.25h3.751Z"/></g><defs><linearGradient id="b" x1="21" x2="21" y1="0" y2="61.409" gradientUnits="userSpaceOnUse"><stop stop-color="#08021E"/><stop offset="1" stop-color="#1F0777"/></linearGradient><clipPath id="a"><path fill="#fff" d="M0 0h42v42H0z"/></clipPath></defs></svg>