<svg xmlns="http://www.w3.org/2000/svg" width="42" height="42" fill="none"><g clip-path="url(#a)"><mask id="c" width="42" height="42" x="0" y="0" maskUnits="userSpaceOnUse" style="mask-type:alpha"><circle cx="21" cy="21" r="21" fill="url(#b)"/></mask><g mask="url(#c)"><circle cx="21" cy="21" r="21" fill="#34EDB3"/><circle cx="21" cy="21" r="18.2" fill="#fff"/></g><circle cx="21" cy="21" r="16.1" fill="#06061B"/><path fill="#0090FF" fill-rule="evenodd" d="M21 37.268c-8.947 0-16.268-7.32-16.268-16.349.082-8.947 7.32-16.267 16.35-16.186 8.947.081 16.186 7.32 16.186 16.43-.082 8.866-7.32 16.105-16.268 16.105z" clip-rule="evenodd"/><path fill="#fff" fill-rule="evenodd" d="M22.545 19.049l-.488 2.602 4.637.651-.326 1.22-4.555-.65c-.325 1.057-.488 2.196-.894 3.172-.407 1.138-.814 2.277-1.302 3.334-.65 1.383-1.79 2.36-3.335 2.603-.894.163-1.87.082-2.602-.488-.244-.162-.488-.488-.488-.732 0-.325.162-.732.406-.895.163-.08.57 0 .814.082a3.6 3.6 0 01.65.895c.488.65 1.14.732 1.79.244.732-.651 1.139-1.546 1.383-2.44.488-1.953.976-3.823 1.382-5.775v-.326l-4.31-.65.162-1.22 4.474.65.569-2.521-4.636-.732.162-1.302 4.8.65c.162-.487.243-.894.406-1.3.407-1.465.813-2.929 1.79-4.23.976-1.302 2.114-2.115 3.822-2.034.732 0 1.464.244 1.952.814.082.081.244.244.244.407 0 .325 0 .732-.244.976-.325.243-.732.162-1.057-.163-.244-.244-.407-.488-.65-.732-.489-.65-1.22-.732-1.79-.163a5.21 5.21 0 00-1.058 1.545c-.569 1.709-.976 3.498-1.545 5.287l4.474.651-.326 1.22-4.31-.65" clip-rule="evenodd"/></g><defs><linearGradient id="b" x1="21" x2="21" y1="0" y2="61.409" gradientUnits="userSpaceOnUse"><stop stop-color="#08021E"/><stop offset="1" stop-color="#1F0777"/></linearGradient><clipPath id="a"><path fill="#fff" d="M0 0h42v42H0z"/></clipPath></defs></svg>