<svg width="42" height="42" fill="none" xmlns="http://www.w3.org/2000/svg">
  <g clip-path="url(#a)">
    <mask id="c" width="43" height="42" x="0" y="0" maskUnits="userSpaceOnUse" style="mask-type:alpha">
      <ellipse cx="21.148" cy="21" fill="url(#b)" rx="21.148" ry="21"/>
    </mask>
    <g mask="url(#c)">
      <ellipse cx="21.148" cy="21" fill="#34EDB3" rx="21.148" ry="21"/>
      <ellipse cx="21.148" cy="21" fill="#fff" rx="18.328" ry="18.2"/>
    </g>
    <ellipse cx="21.148" cy="21" fill="#06061B" rx="16.213" ry="16.1"/>
    <ellipse cx="21.148" cy="21" fill="#F5F5FF" rx="16.213" ry="16.1"/>
    <path fill="#F4A427" d="M29.813 26.346c-.239 2.79-3.575 5.14-8.579 5.022-4.706-.118-8.012-2.056-8.25-4.846-.03-.353 0-.705.03-1.087a8 8 0 0 1 1.102-3.054l.357.146a16 16 0 0 1 2.86-.793 19 19 0 0 1 3.872-.117 19 19 0 0 1 3.872.117q1.474.264 2.86.793l.357-.146.238-.118c.566.94.953 1.968 1.162 3.054.06.324.089.676.06 1"/>
    <path fill="#fff" d="M29.813 26.346c-.239 2.76-3.545 5.022-8.579 4.992-4.706-.117-8.012-2.055-8.25-4.846-.03-.352 0-.704.03-1.086a3.8 3.8 0 0 1 1.519-.03c.953.147 1.489.735 2.174 1.028.387.177.774-.117 1.132-.44a5.34 5.34 0 0 1 3.544-1.469c1.34-.03 2.443.5 3.604 1.557.239.235.566.382.894.352.298-.088.596-.235.834-.44a4.37 4.37 0 0 1 3.008-.676c.09.382.12.705.09 1.058"/>
    <path fill="#F79422" d="M15.962 19.473a2.4 2.4 0 0 1-1.191.646l-.179.03a1.8 1.8 0 0 1-.566.087h-.119c-.09-.029-.208-.058-.298-.088a3.5 3.5 0 0 1-.893-.558c-.536-.44-1.043-.94-1.43-1.527-1.638-2.35-1.132-5.522 1.132-7.284.149-.088.327-.088.447.059.06.088.089.176.06.264-.21.94-.388 2.409.505 3.671.775 1.058 2.383 2.086 3.366 2.086.209 1.175-.119 1.968-.834 2.614"/>
    <path fill="#221F1F" fill-rule="evenodd" d="M12.51 11.2c-1.98 1.659-2.39 4.516-.907 6.645l.006.008c.358.544.833 1.015 1.353 1.442l.01.008c.227.2.483.354.777.487l.114.034h.005l.098.03h.06c.168 0 .306-.024.445-.07a.4.4 0 0 1 .058-.014l.172-.028a2 2 0 0 0 1.001-.553c.32-.289.538-.596.658-.948a2.4 2.4 0 0 0 .096-1.028c-.522-.085-1.101-.347-1.627-.676-.653-.41-1.289-.962-1.71-1.538l-.004-.005c-.933-1.319-.802-2.821-.606-3.795zm.12-.098h-.001zm.059-.763a.7.7 0 0 1 .496.285c.083.124.185.332.113.576-.202.918-.342 2.234.447 3.35.352.48.907.97 1.496 1.338.601.377 1.174.587 1.555.587.188 0 .348.134.38.317.113.637.085 1.196-.085 1.695-.17.497-.47.908-.863 1.264a2.76 2.76 0 0 1-1.382.744l-.012.002-.15.025c-.21.065-.42.098-.658.098h-.118a.4.4 0 0 1-.122-.02l-.133-.039-.004-.001c-.05-.014-.108-.03-.161-.048a3.9 3.9 0 0 1-1.023-.63c-.55-.453-1.085-.978-1.5-1.605-1.752-2.518-1.206-5.915 1.215-7.8a.78.78 0 0 1 .51-.139z" clip-rule="evenodd"/>
    <path fill="#5A595C" d="m20.251 15.42-.387 3.759h-.03c-.595.088-1.4.206-2.502.382-1.012.147-2.382.852-3.187 1.322l-.089-.617c.179-.03.387-.059.566-.088l.179-.03a2.4 2.4 0 0 0 1.191-.646c.685-.675 1.043-1.44.804-2.643l.12.03a4.3 4.3 0 0 1 1.25-.911c.626-.353 1.34-.53 2.085-.558"/>
    <path fill="#221F1F" fill-rule="evenodd" d="M20.533 15.157a.38.38 0 0 1 .102.302l-.387 3.759a.385.385 0 0 1-.384.344h-.001l-.134.02c-.577.085-1.333.197-2.335.357l-.006.001c-.454.066-1.01.262-1.57.51-.553.246-1.083.533-1.477.763a.388.388 0 0 1-.578-.276l-.09-.617a.384.384 0 0 1 .32-.432l.286-.045h.002l.278-.044.172-.028a2 2 0 0 0 .99-.54c.314-.311.534-.622.654-.975.12-.351.151-.774.043-1.323a.382.382 0 0 1 .364-.457 4.7 4.7 0 0 1 1.203-.837c.686-.384 1.46-.571 2.251-.602a.4.4 0 0 1 .297.12m-3.305 1.96c.063.515.02.97-.122 1.385-.103.3-.253.568-.437.814q.311-.091.605-.134c.946-.151 1.674-.26 2.237-.343l.31-2.999a4 4 0 0 0-1.483.481 3.9 3.9 0 0 0-1.11.796" clip-rule="evenodd"/>
    <path fill="#929497" d="m28.949 22.175-.238.117-.239.118-.357.147a16 16 0 0 0-2.86-.793 21.3 21.3 0 0 0-3.872-.353c-1.31 0-2.591.088-3.872.353a16 16 0 0 0-2.86.793 1.7 1.7 0 0 0-.357-.147l-.506-.235c.03-.411 0-.646 0-1.058a12 12 0 0 1 .387-.235l.03-.029c.774-.47 2.144-1.145 3.157-1.322 1.102-.176 1.877-.293 2.502-.381.387-.03.804-.03 1.221-.03.626 0 1.192 0 1.758.03.596.088 1.4.205 2.532.381 1.042.147 2.412.852 3.216 1.322h.03c.15.088.268.147.358.235-.03.44-.06.676-.03 1.087"/>
    <path fill="#221F1F" fill-rule="evenodd" d="M19.906 19.53c-.62.088-1.388.205-2.48.38-.924.161-2.215.787-2.982 1.247a.4.4 0 0 1-.071.055l-.196.116q0 .069.004.136c.004.152.008.304.005.472l.241.112c.086.025.17.058.243.092a16 16 0 0 1 2.772-.753c1.309-.24 2.614-.33 3.941-.33 1.334 0 2.636.12 3.934.328l.007.001a16.3 16.3 0 0 1 2.785.758l.203-.083.24-.118c-.005-.238.01-.435.026-.67l-.083-.049a.4.4 0 0 1-.1-.04c-.805-.471-2.116-1.138-3.075-1.273h-.005a273 273 0 0 0-2.51-.38 34 34 0 0 0-1.72-.027c-.415 0-.813 0-1.18.027zm1.171-.793h.014a34 34 0 0 1 1.809.034l.223.032c.569.084 1.312.194 2.309.35 1.093.154 2.471.859 3.285 1.329q.053.014.102.042l.064.037c.11.062.257.146.368.255.079.078.12.187.113.298l-.016.22a5 5 0 0 0-.014.813.38.38 0 0 1-.213.371l-.477.235-.024.011-.358.147a.4.4 0 0 1-.286.003 15.6 15.6 0 0 0-2.786-.773 24 24 0 0 0-3.807-.317c-1.293 0-2.55.087-3.802.317h-.001q-1.44.258-2.79.773a.4.4 0 0 1-.31-.014 1.5 1.5 0 0 0-.279-.118.4.4 0 0 1-.07-.025l-.507-.235a.38.38 0 0 1-.221-.375c.018-.25.013-.412.007-.612a12 12 0 0 1-.008-.418c0-.128.065-.248.173-.32.09-.058.229-.14.362-.22a.4.4 0 0 1 .067-.051c.786-.477 2.206-1.183 3.292-1.372l.005-.001a138 138 0 0 1 2.534-.386c.402-.03.831-.03 1.242-.03" clip-rule="evenodd"/>
    <path fill="#929497" d="M22.813 19.179a17 17 0 0 0-1.757-.03c-.417 0-.834.03-1.222.03h.03l.387-3.76.09-.763c.298-.176.655-.264.983-.264h.06q.535 0 .982.264l.09.764v.029z"/>
    <path fill="#221F1F" fill-rule="evenodd" d="m20.7 14.903-.065.558-.342 3.325.12-.004h.007c.201-.008.413-.015.627-.016.47-.021.922-.011 1.34.008l-.316-3.289-.001-.036v-.007l-.064-.54a1.5 1.5 0 0 0-.623-.127h-.06c-.204 0-.425.044-.622.128zm-1.205 4.093.373-3.62.09-.764a.38.38 0 0 1 .185-.285 2.36 2.36 0 0 1 1.18-.319h.06c.425 0 .821.106 1.18.319a.38.38 0 0 1 .187.285l.09.763.002.045v.01l.355 3.713a.38.38 0 0 1-.106.302.4.4 0 0 1-.3.117 17 17 0 0 0-1.735-.029q-.3.002-.608.014l-.015.001a17 17 0 0 1-.56.014h-.039a.385.385 0 0 1-.339-.566m1.739 2.032c1.334 0 2.638.12 3.942.359q1.436.257 2.79.76l.232-.089.222-.109c.18-.089.4-.025.503.147a9.7 9.7 0 0 1 1.207 3.169c.101.405.099.8.067 1.144-.133 1.557-1.2 2.906-2.788 3.852-1.593.949-3.75 1.52-6.175 1.52h-.01c-2.398-.06-4.47-.584-5.983-1.475-1.516-.892-2.495-2.171-2.612-3.725-.031-.37-.003-.737.025-1.093l.004-.053.003-.022a8.4 8.4 0 0 1 1.153-3.2.39.39 0 0 1 .479-.157l.216.088a16 16 0 0 1 2.784-.757c1.308-.24 2.611-.33 3.933-.359zm.005.767c-1.298.029-2.555.116-3.807.346h-.001q-1.44.258-2.79.774a.4.4 0 0 1-.286-.004l-.043-.018a7.6 7.6 0 0 0-.885 2.612l-.001.017c-.03.378-.054.69-.028.997v.004c.093 1.236.87 2.32 2.236 3.124 1.368.805 3.3 1.309 5.605 1.367 2.309 0 4.32-.546 5.773-1.41 1.457-.868 2.31-2.03 2.416-3.261v-.003a2.7 2.7 0 0 0-.054-.921 9 9 0 0 0-.94-2.63l-.33.126a.4.4 0 0 1-.276 0 15.4 15.4 0 0 0-2.79-.774h-.002a21 21 0 0 0-3.797-.346" clip-rule="evenodd"/>
    <path fill="#F79422" d="M31.272 18.063c-.417.558-.893 1.087-1.46 1.527a3.5 3.5 0 0 1-.893.558l-.149.059-.09.03c-.208.058-.327 0-.714-.06l-.179-.029a2.4 2.4 0 0 1-1.191-.646c-.685-.675-1.043-1.44-.804-2.643.953.03 2.591-.999 3.365-2.086.864-1.262.686-2.731.477-3.67-.03-.177.06-.324.238-.383.09-.03.209 0 .268.059 2.264 1.762 2.77 4.964 1.132 7.284"/>
    <path fill="#221F1F" fill-rule="evenodd" d="M30.05 11.2c1.978 1.66 2.387 4.54.909 6.639a7.6 7.6 0 0 1-1.384 1.45 3.1 3.1 0 0 1-.806.507l-.13.05-.07.023a.3.3 0 0 1-.124.003l-.147-.026-.015-.003a8 8 0 0 0-.256-.044l-.17-.028a2 2 0 0 1-.99-.54c-.314-.311-.534-.622-.654-.975a2.3 2.3 0 0 1-.088-1.036c.517-.075 1.097-.334 1.622-.66.657-.41 1.302-.971 1.726-1.565l.004-.006c.9-1.318.768-2.817.572-3.79zm.341-.712a.65.65 0 0 0-.287-.145.67.67 0 0 0-.353.013.74.74 0 0 0-.405.31.7.7 0 0 0-.089.519c.204.918.35 2.246-.417 3.37-.351.492-.912.987-1.503 1.355-.607.377-1.174.577-1.533.566a.386.386 0 0 0-.391.309c-.13.655-.102 1.216.069 1.717.17.498.472.907.842 1.272.375.37.859.646 1.388.75l.012.002.179.03h.005q.133.021.232.04l.02.004c.058.011.12.023.176.03.142.02.28.023.45-.025l.016-.005.09-.03.02-.007.15-.058a3.9 3.9 0 0 0 .998-.62 8.3 8.3 0 0 0 1.522-1.594l.006-.008c1.756-2.487 1.214-5.908-1.197-7.796z" clip-rule="evenodd"/>
    <path fill="#5A595C" d="m28.68 20.236-.118.646c-.805-.47-2.175-1.174-3.217-1.321a184 184 0 0 0-2.532-.382l-.387-3.76c.685.03 1.37.236 1.996.559a4.9 4.9 0 0 1 1.25.91l.12-.03c-.239 1.175.119 1.968.804 2.644.328.323.744.558 1.191.646.03 0 .15.059.179.059.238.088.476.088.715.03z"/>
    <path fill="#221F1F" fill-rule="evenodd" d="M22.145 15.157a.4.4 0 0 1 .297-.12c.75.032 1.488.255 2.154.599.455.225.855.52 1.201.84a.382.382 0 0 1 .373.459c-.108.532-.077.954.043 1.31.121.359.342.677.655.985.278.274.626.468.989.541l.17.028q.152.024.256.044l.015.003.147.026a.3.3 0 0 0 .13-.004.39.39 0 0 1 .366.085.38.38 0 0 1 .12.352l-.12.647a.388.388 0 0 1-.576.261c-.805-.47-2.116-1.138-3.074-1.273h-.006a184 184 0 0 0-2.526-.381.385.385 0 0 1-.33-.341l-.387-3.76a.38.38 0 0 1 .103-.301m3.752 4.125a3 3 0 0 1-.415-.792 3.1 3.1 0 0 1-.123-1.37 4.4 4.4 0 0 0-1.11-.799l-.006-.003a4.7 4.7 0 0 0-1.385-.469l.308 2.993c.575.083 1.278.19 2.236.34q.24.034.495.1" clip-rule="evenodd"/>
    <path fill="#221F1F" fill-rule="evenodd" d="M22.307 15.036h.119v.767h-.12v-.767z" clip-rule="evenodd"/>
    <path fill="#F79422" d="M28.71 20.09c.21.234.15.587-.089.793l-.06.058"/>
    <path fill="#221F1F" fill-rule="evenodd" d="M28.45 20.448a.13.13 0 0 0-.029-.105l.58-.507c.374.423.241 1.01-.116 1.326l-.051.051-.544-.544.068-.067.01-.009a.24.24 0 0 0 .083-.145z" clip-rule="evenodd"/>
    <path fill="#F79422" d="M14.026 20.09c-.208.234-.149.587.09.793l.06.058"/>
    <path fill="#221F1F" fill-rule="evenodd" d="M13.852 21.162c-.357-.317-.49-.903-.115-1.326l.579.507a.13.13 0 0 0-.03.105.24.24 0 0 0 .083.145l.01.009.068.067-.544.544-.051-.05z" clip-rule="evenodd"/>
    <path fill="#171717" fill-rule="evenodd" d="M21.413 26.226c.2 0 .368.153.385.352q.006.08.003.157a.39.39 0 0 0 .27.315c.148.063.286.08.42.061a.384.384 0 1 1 .108.759c-.28.04-.556 0-.821-.11a1.2 1.2 0 0 1-.365-.218c-.1.087-.215.16-.344.21a1.25 1.25 0 0 1-.923.108.383.383 0 1 1 .21-.738.48.48 0 0 0 .36-.053.4.4 0 0 1 .06-.027.39.39 0 0 0 .25-.308 1 1 0 0 1 .002-.156.385.385 0 0 1 .385-.352" clip-rule="evenodd"/>
    <path fill="#171717" d="M22.575 25.611c0 .353-.536.822-1.192.822s-1.191-.47-1.191-.822.536-.47 1.191-.47c.656 0 1.192.147 1.192.47"/>
    <path fill="#fff" d="M21.86 25.494c0 .088-.238.205-.506.205s-.507-.117-.507-.176.238-.059.506-.059c.269 0 .507-.058.507.03"/>
    <path fill="#171717" fill-rule="evenodd" d="M19.535 26.227a.384.384 0 0 1 .357.41.415.415 0 0 0 .316.441h.044c.213 0 .386.172.386.384a.385.385 0 0 1-.387.383h-.089a.4.4 0 0 1-.08-.008 1.185 1.185 0 0 1-.96-1.255c.015-.21.2-.37.413-.355m1.878-.412c.213 0 .386.172.386.384v.41a.385.385 0 0 1-.386.384.385.385 0 0 1-.386-.383v-.411c0-.212.173-.384.386-.384m1.851.445a.386.386 0 0 1 .438.324c.093.65-.382 1.16-.958 1.282a.4.4 0 0 1-.08.008h-.09a.385.385 0 0 1-.385-.383c0-.212.172-.383.386-.383h.044c.234-.064.342-.249.318-.414a.384.384 0 0 1 .327-.434" clip-rule="evenodd"/>
    <path fill="#221F1F" fill-rule="evenodd" d="M30.926 17.814c1.52-2.153 1.08-5.096-1.024-6.733l.476-.604c2.425 1.887 2.937 5.288 1.18 7.777zM12.51 11.2c-1.98 1.659-2.39 4.516-.907 6.645l.006.008c.358.544.833 1.015 1.353 1.442l.01.008c.227.2.483.354.777.487l.114.034h.005l.098.03h.06c.168 0 .306-.024.445-.07a.4.4 0 0 1 .058-.014l.172-.028a2 2 0 0 0 1.001-.553c.32-.289.538-.596.658-.948a2.4 2.4 0 0 0 .096-1.028c-.522-.085-1.101-.347-1.627-.676-.653-.41-1.289-.962-1.71-1.538l-.004-.005c-.933-1.319-.802-2.821-.606-3.795zm.179-.861a.7.7 0 0 1 .496.285c.083.124.185.332.113.576-.202.918-.342 2.234.447 3.35.352.48.907.97 1.496 1.338.601.377 1.174.587 1.555.587.188 0 .348.134.38.317.113.637.085 1.196-.085 1.695-.17.497-.47.908-.863 1.264a2.76 2.76 0 0 1-1.382.744l-.012.002-.15.025c-.21.065-.42.098-.658.098h-.118a.4.4 0 0 1-.122-.02l-.133-.039-.004-.001c-.05-.014-.108-.03-.161-.048a3.9 3.9 0 0 1-1.023-.63c-.55-.453-1.085-.978-1.5-1.605-1.752-2.518-1.206-5.915 1.215-7.8a.78.78 0 0 1 .51-.139z" clip-rule="evenodd"/>
    <path fill="#221F1F" d="M19.209 23.702c0 .646-.387 1.146-.864 1.146-.476 0-.864-.53-.864-1.146 0-.558.298-1.028.685-1.145l.954.705q.09.22.089.44"/>
    <path fill="#fff" d="M18.881 23.555c0 .235-.149.411-.298.411-.148 0-.297-.176-.297-.41 0-.236.148-.412.297-.412.15 0 .298.176.298.411"/>
    <path fill="#221F1F" d="M18.166 24.583a6.3 6.3 0 0 0-.893.881 2.3 2.3 0 0 0-.328.529 2 2 0 0 0-.178.587c-.03.089-.03.206-.03.294v.94c.03.206.06.44.09.646.029.118.029.206.059.323.03.088.06.206.119.294-.06-.088-.09-.206-.15-.294-.029-.088-.088-.205-.118-.294-.06-.205-.12-.41-.179-.646-.03-.205-.06-.44-.09-.646v-.646c.03-.235.06-.47.15-.675.089-.206.178-.412.297-.617.268-.382.537-.735.864-1.028a.316.316 0 0 1 .387 0c.09.058.12.235 0 .352"/>
    <path fill="#221F1F" d="M17.958 24.495h-.149l-.149-.03c-.09-.029-.179-.029-.268-.029-.179 0-.387 0-.566.06l-.268.087a1.5 1.5 0 0 0-.655.558c.09-.205.178-.382.327-.528a.8.8 0 0 1 .239-.206l.268-.176c.178-.118.387-.177.625-.235.12-.03.209-.03.328-.03h.298c.149 0 .268.118.298.265s-.15.264-.328.264m7.357-.793c0 .646-.387 1.146-.834 1.146s-.864-.53-.864-1.146c0-.147.03-.294.06-.44l.953-.705c.387.117.685.587.685 1.145"/>
    <path fill="#fff" d="M23.915 23.555c0 .235.149.411.298.411s.298-.176.298-.41c0-.236-.15-.412-.298-.412-.149 0-.298.176-.298.411"/>
    <path fill="#221F1F" d="M25.017 24.172c.328.323.596.646.834 1.028.12.176.238.382.328.587.09.206.149.441.179.647.03.235.03.44 0 .675-.03.206-.06.44-.09.646s-.09.412-.149.617c-.03.088-.06.206-.119.294-.03.088-.09.205-.149.293.03-.088.09-.205.12-.293s.059-.206.089-.294c.03-.206.089-.411.089-.617.03-.205.03-.41.03-.646 0-.206-.03-.411-.06-.617a3 3 0 0 0-.208-.558 2 2 0 0 0-.358-.499 6.3 6.3 0 0 0-.893-.881c-.12-.118-.12-.264 0-.382a.274.274 0 0 1 .357-.03z"/>
    <path fill="#221F1F" d="M24.838 23.966h.328c.12 0 .238 0 .357.03.239.03.447.088.656.176.208.088.387.235.566.382.149.147.268.352.357.529a1.6 1.6 0 0 0-.447-.441 1.4 1.4 0 0 0-.566-.235c-.208-.03-.416-.03-.625-.03-.09 0-.208.03-.298.03l-.149.03h-.149c-.149.029-.298-.089-.298-.236a.25.25 0 0 1 .239-.293h.06"/>
  </g>
  <defs>
    <linearGradient id="b" x1="21.148" x2="21.148" y1="0" y2="61.409" gradientUnits="userSpaceOnUse">
      <stop stop-color="#08021E"/>
      <stop offset="1" stop-color="#1F0777"/>
    </linearGradient>
    <clipPath id="a">
      <path fill="#fff" d="M0 0h42v42H0z"/>
    </clipPath>
  </defs>
</svg>
