<svg width="42" height="42" viewBox="0 0 42 42" fill="none" xmlns="http://www.w3.org/2000/svg">
<g clip-path="url(#clip0_7277_58009)">
<mask id="mask0_7277_58009" style="mask-type:alpha" maskUnits="userSpaceOnUse" x="0" y="0" width="43" height="42">
<ellipse cx="21.1479" cy="21" rx="21.1479" ry="21" fill="url(#paint0_linear_7277_58009)"/>
</mask>
<g mask="url(#mask0_7277_58009)">
<ellipse cx="21.1479" cy="21" rx="21.1479" ry="21" fill="#34EDB3"/>
<ellipse cx="21.1479" cy="21" rx="18.3282" ry="18.2" fill="white"/>
</g>
<ellipse cx="21.1479" cy="21" rx="16.2134" ry="16.1" fill="#06061B"/>
<ellipse cx="21.1479" cy="21" rx="16.2134" ry="16.1" fill="#F5F5FF"/>
<path d="M29.8127 26.3455C29.5744 29.1357 26.2384 31.4854 21.2344 31.3679C16.5282 31.2504 13.222 29.3119 12.9837 26.5217C12.9539 26.1693 12.9837 25.8168 13.0135 25.435C13.1624 24.3483 13.5496 23.3203 14.1156 22.3805L14.473 22.5273C15.3964 22.1749 16.3495 21.9105 17.3324 21.7343C18.6132 21.5581 19.9238 21.5287 21.2046 21.6168C22.4854 21.5287 23.7959 21.5581 25.0767 21.7343C26.0597 21.9105 27.0128 22.1749 27.9362 22.5273L28.2936 22.3805L28.5319 22.263C29.0978 23.2029 29.485 24.2308 29.6935 25.3175C29.7531 25.6406 29.7829 25.9931 29.7531 26.3161" fill="#F4A427"/>
<path d="M29.8127 26.3455C29.5744 29.1064 26.2682 31.3679 21.2344 31.3385C16.5282 31.2211 13.222 29.2826 12.9837 26.4924C12.9539 26.1399 12.9837 25.7875 13.0135 25.4057C13.5199 25.2882 14.0262 25.2882 14.5326 25.3763C15.4857 25.5232 16.0219 26.1106 16.7069 26.4043C17.0941 26.5805 17.4814 26.2868 17.8388 25.9637C18.7919 25.0532 20.0727 24.5245 21.3833 24.4952C22.7237 24.4658 23.8257 24.9945 24.9874 26.0518C25.2257 26.2868 25.5533 26.4336 25.8809 26.4043C26.1788 26.3162 26.4767 26.1693 26.7149 25.9637C27.6085 25.3763 28.6808 25.1413 29.7233 25.2882C29.8127 25.67 29.8425 25.9931 29.8127 26.3455Z" fill="white"/>
<path d="M15.9623 19.4727C15.6346 19.7958 15.2176 20.0308 14.7709 20.1189L14.5921 20.1482C14.4134 20.207 14.2347 20.2363 14.0262 20.2363C13.9964 20.2363 13.9369 20.2363 13.9071 20.2363C13.8177 20.207 13.6986 20.1776 13.6092 20.1482C13.2816 20.0014 12.9837 19.8252 12.7156 19.5902C12.1795 19.1496 11.6731 18.6503 11.2859 18.0629C9.6477 15.7133 10.1541 12.5412 12.4178 10.779C12.5667 10.6909 12.7454 10.6909 12.8646 10.8377C12.9241 10.9259 12.9539 11.014 12.9241 11.1021C12.7156 12.0419 12.5369 13.5105 13.4305 14.7734C14.2049 15.8308 15.8134 16.8587 16.7963 16.8587C17.0048 18.0336 16.6771 18.8266 15.9623 19.4727Z" fill="#F79422"/>
<path fill-rule="evenodd" clip-rule="evenodd" d="M12.5091 11.1994C10.5297 12.8587 10.1191 15.716 11.6033 17.8448L11.609 17.853C11.9675 18.3967 12.4424 18.8682 12.9618 19.2949L12.9711 19.3029C13.1987 19.5023 13.4552 19.657 13.7488 19.7902C13.7805 19.8001 13.8183 19.8108 13.8635 19.8236L13.8676 19.8247C13.898 19.8333 13.9321 19.8429 13.9662 19.8531H14.0257C14.1942 19.8531 14.3324 19.8299 14.4708 19.7844C14.4899 19.7781 14.5094 19.7733 14.5291 19.7701L14.7014 19.7418C15.0639 19.669 15.4121 19.4751 15.6903 19.2008C15.6943 19.1968 15.6983 19.193 15.7024 19.1893C16.0223 18.9002 16.2399 18.593 16.3599 18.2411C16.4579 17.9538 16.4969 17.6186 16.4564 17.2131C15.9339 17.1282 15.3545 16.8656 14.8294 16.5369C14.1759 16.1279 13.5404 15.5753 13.1183 14.9989L13.1146 14.9939C12.1816 13.6752 12.313 12.1727 12.5091 11.1994ZM12.6298 11.1017C12.6303 11.1016 12.6298 11.1017 12.6298 11.1017C12.6298 11.1017 12.6295 11.1017 12.629 11.1019ZM12.6887 10.3387C12.8722 10.3559 13.0413 10.4446 13.1652 10.5973C13.1722 10.606 13.1788 10.6149 13.1851 10.6241C13.2685 10.7476 13.3696 10.9556 13.2978 11.1999C13.0958 12.1179 12.9564 13.4343 13.7446 14.5505C14.097 15.0307 14.652 15.5196 15.2411 15.8883C15.8423 16.2647 16.4145 16.4754 16.7963 16.4754C16.9836 16.4754 17.144 16.609 17.1765 16.7922C17.2894 17.4288 17.2614 17.9878 17.0912 18.487C16.9217 18.9842 16.6203 19.3949 16.2283 19.7507C15.8535 20.1181 15.3723 20.3911 14.8461 20.4949L14.8339 20.4971L14.6835 20.5218C14.4744 20.5873 14.2634 20.6197 14.0262 20.6197H13.9078C13.8666 20.6197 13.8249 20.6132 13.7858 20.6003C13.7506 20.5888 13.7071 20.5764 13.6528 20.5611L13.6486 20.56C13.5995 20.5461 13.5406 20.5295 13.4879 20.5122C13.4752 20.508 13.4626 20.5032 13.4504 20.4977C13.0986 20.34 12.7673 20.1458 12.4649 19.8818C11.9148 19.4293 11.3801 18.9045 10.9657 18.2771C9.21294 15.7586 9.75875 12.362 12.1796 10.4774C12.1925 10.4673 12.2061 10.4581 12.2202 10.4497C12.3505 10.3727 12.5135 10.3222 12.6887 10.3387Z" fill="#221F1F"/>
<path d="M20.2514 15.4196L19.8642 19.179H19.8344C19.2387 19.2671 18.4345 19.3846 17.3324 19.5608C16.3197 19.7077 14.9496 20.4126 14.1454 20.8825L14.056 20.2657C14.2347 20.2363 14.4432 20.207 14.6219 20.1776L14.8006 20.1482C15.2474 20.0601 15.6644 19.8251 15.9921 19.5021C16.6771 18.8265 17.0346 18.0629 16.7963 16.8587L16.9154 16.8881C17.2729 16.5063 17.6899 16.2126 18.1664 15.9776C18.7919 15.6251 19.5068 15.4489 20.2514 15.4196Z" fill="#5A595C"/>
<path fill-rule="evenodd" clip-rule="evenodd" d="M20.5328 15.1571C20.6094 15.2381 20.6469 15.3481 20.6355 15.4586L20.2483 19.218C20.2281 19.4136 20.0622 19.5624 19.8642 19.5624H19.863C19.8194 19.5688 19.7748 19.5754 19.729 19.5822C19.1517 19.6674 18.3964 19.779 17.3938 19.9393L17.3882 19.9402L17.3882 19.9402C16.9345 20.006 16.3771 20.202 15.8185 20.4504C15.2653 20.6964 14.7347 20.9829 14.3411 21.2129C14.2302 21.2777 14.0941 21.2834 13.9781 21.228C13.8622 21.1727 13.7816 21.0636 13.7633 20.9371L13.6739 20.3203C13.644 20.1139 13.7858 19.9216 13.993 19.8876C14.0847 19.8725 14.1834 19.8575 14.2792 19.843L14.2807 19.8427C14.378 19.828 14.4723 19.8137 14.5589 19.7994L14.7312 19.7711C15.0937 19.6983 15.4418 19.5044 15.7201 19.2301C16.0349 18.9196 16.2545 18.6087 16.3748 18.2557C16.4945 17.9047 16.5262 17.4821 16.4175 16.9327C16.3921 16.8041 16.4345 16.6715 16.5301 16.5811C16.5991 16.5159 16.6888 16.4792 16.7816 16.4757C17.1374 16.1311 17.5403 15.8594 17.9853 15.639C18.6707 15.255 19.4444 15.0678 20.2361 15.0366C20.3479 15.0321 20.4561 15.0761 20.5328 15.1571ZM17.2284 17.1173C17.2907 17.6325 17.2472 18.0878 17.1061 18.5016C17.0035 18.8024 16.8531 19.0704 16.6686 19.3159C16.8758 19.2567 17.0793 19.2103 17.2738 19.182C18.2204 19.0306 18.9479 18.9225 19.5112 18.8392L19.8201 15.84C19.293 15.9085 18.7976 16.0627 18.357 16.311C18.3508 16.3145 18.3445 16.3178 18.3381 16.321C17.9108 16.5316 17.5431 16.7892 17.2284 17.1173Z" fill="#221F1F"/>
<path d="M28.9489 22.1748L28.7106 22.2923L28.4723 22.4098L28.1149 22.5566C27.1915 22.2042 26.2384 21.9398 25.2555 21.7636C23.9747 21.5286 22.6939 21.4111 21.3833 21.4111C20.0727 21.4111 18.7919 21.4993 17.5112 21.7636C16.5282 21.9398 15.5751 22.2042 14.6517 22.5566C14.5326 22.4979 14.4134 22.4391 14.2943 22.4098L13.7879 22.1748C13.8177 21.7636 13.7879 21.5286 13.7879 21.1174C13.8773 21.0587 14.0262 20.9706 14.1751 20.8825L14.2049 20.8531C14.9794 20.3832 16.3495 19.7077 17.3622 19.5314C18.4643 19.3552 19.2387 19.2377 19.8642 19.1496C20.2514 19.1202 20.6684 19.1202 21.0854 19.1202C21.7109 19.1202 22.2769 19.1202 22.8428 19.1496C23.4385 19.2377 24.2427 19.3552 25.3746 19.5314C26.4171 19.6783 27.7872 20.3832 28.5915 20.8531H28.6212C28.7702 20.9412 28.8893 21 28.9787 21.0881C28.9489 21.5286 28.9191 21.7636 28.9489 22.1748Z" fill="#929497"/>
<path fill-rule="evenodd" clip-rule="evenodd" d="M19.9059 19.5309C19.2864 19.6183 18.5183 19.7349 17.4263 19.9095C16.5019 20.0711 15.2114 20.6968 14.4444 21.1572C14.4228 21.1781 14.3987 21.1965 14.3727 21.2118C14.3031 21.253 14.2364 21.2925 14.1768 21.3283C14.1779 21.3741 14.1792 21.4193 14.1805 21.4644C14.1849 21.6165 14.1893 21.7676 14.1855 21.9362L14.4272 22.0483C14.5134 22.0728 14.5962 22.1063 14.6703 22.1398C15.5672 21.8081 16.4911 21.557 17.4418 21.3865C18.7508 21.1465 20.0556 21.0572 21.3833 21.0572C22.7174 21.0572 24.0189 21.1768 25.317 21.3852L25.324 21.3863C26.2794 21.5576 27.2076 21.8103 28.1086 22.1444L28.3125 22.0606L28.5515 21.9427C28.5467 21.7051 28.5611 21.5076 28.5784 21.2726C28.5693 21.2673 28.5594 21.2616 28.5488 21.2555C28.5327 21.2462 28.5149 21.2359 28.495 21.2243C28.4603 21.2154 28.4268 21.2017 28.3957 21.1835C27.5901 20.7128 26.2791 20.046 25.3204 19.911L25.3148 19.9102C24.3199 19.7553 23.5789 19.6459 23.009 19.5618C22.9382 19.5513 22.87 19.5412 22.8043 19.5315C22.2563 19.5037 21.7059 19.5036 21.0854 19.5036C20.6698 19.5036 20.2724 19.5038 19.9059 19.5309ZM21.0773 18.7369H21.0911C21.7125 18.7369 22.2869 18.7369 22.8629 18.7668C22.8752 18.7675 22.8875 18.7687 22.8997 18.7705C22.9709 18.781 23.0451 18.792 23.1225 18.8034C23.6919 18.8875 24.435 18.9972 25.4317 19.1523C26.5251 19.3073 27.9032 20.0118 28.7165 20.4817C28.7523 20.4907 28.7868 20.5049 28.8188 20.5238C28.838 20.5352 28.8595 20.5474 28.8827 20.5606C28.9927 20.6232 29.1402 20.7072 29.2507 20.8161C29.33 20.8944 29.3713 21.003 29.3638 21.1138C29.3584 21.1942 29.3531 21.2667 29.3482 21.3336C29.3254 21.6454 29.3114 21.8365 29.3339 22.1473C29.3452 22.3025 29.2609 22.449 29.1206 22.5182L28.644 22.7531C28.6361 22.757 28.628 22.7606 28.6199 22.764L28.2625 22.9108C28.1711 22.9484 28.0687 22.9497 27.9764 22.9144C27.077 22.5711 26.1484 22.3135 25.1903 22.1415C23.928 21.939 22.6692 21.8239 21.3833 21.8239C20.0901 21.8239 18.8336 21.9108 17.5813 22.1406L17.5797 22.1409C16.6204 22.3129 15.6907 22.5707 14.7902 22.9144C14.6893 22.9529 14.5768 22.9477 14.48 22.9C14.3521 22.8369 14.2719 22.7992 14.2013 22.7818C14.177 22.7759 14.1535 22.7676 14.1309 22.7571L13.6245 22.5221C13.4796 22.4548 13.3914 22.3058 13.4029 22.1473C13.421 21.8977 13.4159 21.7353 13.4097 21.5353C13.406 21.4175 13.4019 21.2867 13.4019 21.1175C13.4019 20.9889 13.4668 20.8688 13.5748 20.7978C13.6646 20.7388 13.8036 20.6561 13.9369 20.5772C13.9572 20.5578 13.9796 20.5406 14.0036 20.526C14.79 20.0488 16.2102 19.3428 17.2956 19.1539L17.3008 19.153C18.4042 18.9765 19.1812 18.8587 19.81 18.7701C19.8182 18.7689 19.8265 18.7681 19.8348 18.7674C20.2368 18.7369 20.666 18.7369 21.0773 18.7369Z" fill="#221F1F"/>
<path d="M22.813 19.179C22.2769 19.1496 21.6812 19.1203 21.0557 19.1496C20.6387 19.1496 20.2217 19.179 19.8344 19.179H19.8642L20.2514 15.4196L20.3408 14.6559C20.6387 14.4797 20.9961 14.3916 21.3237 14.3916H21.3833C21.7407 14.3916 22.0684 14.4797 22.3662 14.6559L22.4556 15.4196V15.4489L22.813 19.179Z" fill="#929497"/>
<path fill-rule="evenodd" clip-rule="evenodd" d="M20.7005 14.9034L20.6352 15.4612L20.2928 18.7858C20.3321 18.7844 20.3719 18.783 20.4122 18.7816L20.42 18.7813C20.621 18.7741 20.8331 18.7666 21.0465 18.7663C21.5167 18.7447 21.9689 18.755 22.3864 18.7736L22.0713 15.4853C22.0702 15.4732 22.0696 15.4611 22.0696 15.449V15.4418L22.0064 14.9018C21.8148 14.8175 21.6084 14.775 21.3833 14.775H21.3237C21.1186 14.775 20.8983 14.8187 20.7005 14.9034ZM19.495 18.9963L19.868 15.3754L19.9574 14.6117C19.9712 14.4931 20.04 14.3878 20.1432 14.3267C20.5053 14.1125 20.9319 14.0083 21.3237 14.0083H21.3833C21.8081 14.0083 22.2043 14.1139 22.5638 14.3267C22.6671 14.3878 22.7358 14.4931 22.7497 14.6117L22.8391 15.3754C22.8408 15.39 22.8416 15.4048 22.8416 15.4196V15.4308L23.1973 19.1427C23.208 19.2539 23.1693 19.3642 23.0914 19.4447C23.0135 19.5252 22.9041 19.5679 22.7918 19.5618C22.2556 19.5324 21.6776 19.5042 21.0739 19.5326C21.0678 19.5329 21.0618 19.533 21.0557 19.533C20.8552 19.533 20.6535 19.5401 20.4478 19.5474L20.4334 19.548C20.2476 19.5546 20.0577 19.5614 19.8726 19.5623C19.8698 19.5624 19.867 19.5624 19.8642 19.5624H19.8345C19.6213 19.5624 19.4484 19.3908 19.4484 19.179C19.4484 19.1129 19.4653 19.0506 19.495 18.9963Z" fill="#221F1F"/>
<path fill-rule="evenodd" clip-rule="evenodd" d="M21.2344 21.0278V21.0279C22.5683 21.0279 23.8724 21.1475 25.1759 21.3866C26.133 21.5583 27.0629 21.8116 27.9655 22.1466L28.1981 22.0583L28.4198 21.949C28.6003 21.86 28.8194 21.9239 28.9228 22.0957C29.5109 23.0724 29.9131 24.1393 30.1303 25.2645C30.2313 25.6702 30.2288 26.0656 30.1972 26.4086C30.0637 27.9662 28.9968 29.3154 27.4087 30.2612C25.816 31.2096 23.6598 31.7806 21.2344 31.7806H21.2247L21.2247 31.7805C18.8257 31.7206 16.7532 31.1966 15.2405 30.3062C13.7254 29.4145 12.7455 28.1349 12.6287 26.5813C12.5976 26.2109 12.6263 25.8439 12.6543 25.4875C12.6557 25.4699 12.6571 25.4523 12.6584 25.4348C12.659 25.4274 12.6598 25.4201 12.6608 25.4127C12.8175 24.2695 13.2243 23.1926 13.8141 22.2131C13.9123 22.05 14.1161 21.983 14.293 22.0557L14.5091 22.1444C15.4098 21.8105 16.3378 21.5579 17.2929 21.3866C18.6013 21.1466 19.9043 21.0576 21.2257 21.028L21.2344 21.0278ZM21.2387 21.7946C19.9408 21.8238 18.6839 21.9111 17.4324 22.1407L17.4308 22.1409L17.4308 22.1409C16.4715 22.3129 15.5418 22.5708 14.6413 22.9145C14.549 22.9498 14.4466 22.9485 14.3552 22.9109L14.3116 22.893C13.8616 23.71 13.5546 24.5873 13.4273 25.5052L13.426 25.5222C13.3965 25.8996 13.3722 26.2112 13.3982 26.5191L13.3985 26.5228L13.3985 26.5228C13.4908 27.7586 14.2681 28.8427 15.6342 29.6467C17.0023 30.452 18.9342 30.9558 21.2393 31.0139C23.5478 31.0132 25.5597 30.4683 27.0116 29.6037C28.4686 28.736 29.3228 27.5745 29.428 26.3425L29.4283 26.34C29.4559 26.0402 29.4535 25.7353 29.3788 25.4405C29.3769 25.4333 29.3753 25.426 29.3739 25.4187C29.1956 24.4895 28.8818 23.607 28.4332 22.7899L28.1037 22.9148C28.0147 22.9486 27.9164 22.9485 27.8275 22.9145C26.927 22.5708 25.9972 22.3129 25.0379 22.1409L25.0364 22.1407C23.78 21.9102 22.5241 21.7949 21.2387 21.7946Z" fill="#221F1F"/>
<path d="M31.2722 18.0629C30.8552 18.621 30.3786 19.1496 29.8127 19.5902C29.5446 19.8252 29.2467 20.0014 28.9191 20.1482L28.7702 20.207L28.6808 20.2363C28.4723 20.2951 28.3532 20.2363 27.966 20.1776L27.7872 20.1482C27.3405 20.0601 26.9235 19.8252 26.5958 19.5021C25.9107 18.8266 25.5533 18.0629 25.7916 16.8587C26.7447 16.8881 28.383 15.8601 29.1574 14.7734C30.0212 13.5105 29.8425 12.0419 29.634 11.1021C29.6042 10.9259 29.6935 10.779 29.8722 10.7203C29.9616 10.6909 30.0807 10.7203 30.1403 10.779C32.404 12.5412 32.9104 15.7426 31.2722 18.0629Z" fill="#F79422"/>
<path fill-rule="evenodd" clip-rule="evenodd" d="M30.0491 11.1994C32.0278 12.8595 32.4373 15.7404 30.959 17.8387C30.5566 18.3767 30.1043 18.8761 29.5745 19.2885C29.5686 19.2931 29.5628 19.2979 29.5572 19.3028C29.3267 19.5048 29.0665 19.6609 28.7682 19.7953L28.6382 19.8466L28.5686 19.8695C28.5332 19.8789 28.5071 19.8803 28.4446 19.8715C28.4061 19.8661 28.3626 19.858 28.2979 19.8459L28.283 19.8431C28.2135 19.8302 28.129 19.8146 28.0266 19.7991L27.8567 19.7711C27.4942 19.6983 27.146 19.5044 26.8678 19.2301C26.553 18.9196 26.3334 18.6087 26.2131 18.2558C26.1152 17.9686 26.0761 17.6335 26.1247 17.2203C26.6421 17.1448 27.222 16.8858 27.7465 16.5595C28.4045 16.1501 29.0493 15.5887 29.4725 14.9949L29.4726 14.9949L29.4767 14.9888C30.3778 13.6714 30.2451 12.172 30.0491 11.1994ZM30.3915 10.4875C30.3024 10.4081 30.1963 10.364 30.1037 10.343C30.0021 10.3199 29.8763 10.3152 29.7509 10.3564C29.5873 10.4101 29.441 10.5131 29.3462 10.6662C29.251 10.8198 29.2247 10.9964 29.2533 11.1656C29.2543 11.1719 29.2556 11.1783 29.257 11.1846C29.4608 12.1035 29.6068 13.4313 28.8401 14.555C28.4888 15.0469 27.9284 15.5416 27.3366 15.9098C26.7304 16.2869 26.1634 16.4867 25.8036 16.4756C25.6146 16.4698 25.4493 16.6007 25.4128 16.7848C25.2833 17.4396 25.3111 18.0009 25.4818 18.5016C25.6519 19.0004 25.9536 19.409 26.3238 19.7741C26.6994 20.1445 27.183 20.4199 27.712 20.5243L27.7242 20.5265L27.9029 20.5558L27.9029 20.5559L27.9077 20.5566C27.9978 20.5702 28.0726 20.584 28.1404 20.5966C28.1467 20.5978 28.153 20.599 28.1594 20.6001C28.2183 20.6112 28.2794 20.6226 28.3362 20.6306C28.4782 20.6506 28.6168 20.6529 28.7862 20.6052C28.7915 20.6036 28.7968 20.602 28.8021 20.6003L28.8915 20.5709C28.8986 20.5686 28.9057 20.566 28.9127 20.5633L29.0616 20.5045C29.0671 20.5024 29.0725 20.5001 29.0779 20.4977C29.4283 20.3406 29.7582 20.1474 30.0596 19.8851C30.6564 19.4189 31.1535 18.8651 31.5822 18.2914L31.5823 18.2915L31.5883 18.283C33.3438 15.7965 32.8019 12.3747 30.3915 10.4875Z" fill="#221F1F"/>
<path d="M28.6808 20.2363L28.5617 20.8825C27.7575 20.4126 26.3873 19.7077 25.3448 19.5608C24.213 19.3846 23.4385 19.2671 22.813 19.179L22.4258 15.4196C23.1109 15.4489 23.796 15.6545 24.4215 15.9776C24.898 16.2126 25.315 16.5356 25.6725 16.8881L25.7916 16.8587C25.5533 18.0335 25.9107 18.8265 26.5958 19.5021C26.9235 19.8251 27.3405 20.0601 27.7872 20.1482C27.817 20.1482 27.9362 20.207 27.966 20.207C28.2043 20.2951 28.4425 20.2951 28.6808 20.2363Z" fill="#5A595C"/>
<path fill-rule="evenodd" clip-rule="evenodd" d="M22.1449 15.1566C22.2218 15.0756 22.3304 15.0318 22.4425 15.0366C23.1917 15.0687 23.9304 15.2924 24.5964 15.6359C25.0509 15.8605 25.4509 16.1556 25.7971 16.4754C25.8934 16.4768 25.9871 16.514 26.0584 16.5817C26.154 16.6725 26.1961 16.8056 26.17 16.9344C26.062 17.4668 26.093 17.8895 26.2134 18.2457C26.3345 18.6038 26.5551 18.9217 26.8678 19.2301C27.146 19.5044 27.4942 19.6983 27.8567 19.7711L28.0267 19.7991C28.1291 19.8146 28.2135 19.8302 28.283 19.8431L28.2978 19.8459C28.3625 19.858 28.4061 19.8661 28.4446 19.8715C28.5111 19.8809 28.5363 19.8786 28.5754 19.8676C28.7038 19.8314 28.8418 19.8636 28.9405 19.9527C29.0392 20.0418 29.0846 20.1751 29.0605 20.3054L28.9414 20.9516C28.9187 21.0747 28.8369 21.1791 28.7222 21.2311C28.6076 21.2832 28.4745 21.2764 28.3659 21.2129C27.5603 20.7422 26.2493 20.0754 25.2906 19.9404L25.285 19.9396L25.285 19.9396C24.1534 19.7634 23.3813 19.6463 22.7588 19.5586C22.5831 19.5338 22.447 19.3933 22.429 19.218L22.0418 15.4586C22.0304 15.3478 22.068 15.2376 22.1449 15.1566ZM25.8966 19.2824C25.7219 19.042 25.5796 18.78 25.4815 18.4897C25.3418 18.0764 25.2976 17.6239 25.3585 17.1192C25.0331 16.805 24.6631 16.5248 24.2498 16.321L24.2433 16.3178L24.2433 16.3177C23.7998 16.0887 23.3298 15.9258 22.8581 15.849L23.1664 18.8422C23.7408 18.9253 24.4441 19.0326 25.4019 19.1817C25.5616 19.2043 25.7274 19.2387 25.8966 19.2824Z" fill="#221F1F"/>
<path fill-rule="evenodd" clip-rule="evenodd" d="M22.3067 15.0363H22.4258V15.8029H22.3067V15.0363Z" fill="#221F1F"/>
<path d="M28.7106 20.0895C28.9191 20.3244 28.8595 20.6769 28.6212 20.8825C28.5915 20.9119 28.5915 20.9119 28.5617 20.9412" fill="#F79422"/>
<path fill-rule="evenodd" clip-rule="evenodd" d="M28.4506 20.4479C28.4563 20.4042 28.4453 20.3703 28.421 20.3429L29.0002 19.8361C29.3755 20.259 29.2421 20.8452 28.8853 21.1624L28.8337 21.2132L28.2897 20.6692L28.3584 20.6015L28.3681 20.5931C28.4179 20.5502 28.4445 20.4953 28.4506 20.4479Z" fill="#221F1F"/>
<path d="M14.0262 20.0895C13.8177 20.3244 13.8773 20.6769 14.1156 20.8825C14.1454 20.9119 14.1454 20.9119 14.1751 20.9412" fill="#F79422"/>
<path fill-rule="evenodd" clip-rule="evenodd" d="M13.8516 21.1624C13.4948 20.8452 13.3613 20.259 13.7366 19.8361L14.3159 20.3429C14.2916 20.3703 14.2805 20.4042 14.2862 20.4479C14.2924 20.4953 14.319 20.5502 14.3688 20.5931L14.3785 20.6015L14.4472 20.6692L13.9032 21.2132L13.8516 21.1624Z" fill="#221F1F"/>
<path fill-rule="evenodd" clip-rule="evenodd" d="M21.4131 26.2264C21.6138 26.2264 21.781 26.3791 21.7978 26.5777C21.8022 26.6305 21.8031 26.6828 21.8005 26.7345C21.8213 26.8767 21.9175 26.9945 22.0506 27.0422C22.0573 27.0447 22.064 27.0473 22.0706 27.0501C22.2195 27.113 22.3572 27.1302 22.4907 27.1114C22.7018 27.0816 22.8972 27.2274 22.9272 27.4371C22.9571 27.6467 22.8103 27.8407 22.5992 27.8704C22.3191 27.9099 22.043 27.8698 21.7778 27.7595C21.6406 27.7088 21.5177 27.6342 21.4131 27.5416C21.3137 27.6295 21.1979 27.7012 21.069 27.7517C20.7826 27.9039 20.4502 27.9453 20.1461 27.8597C19.941 27.8019 19.8219 27.5899 19.8801 27.3863C19.9383 27.1826 20.1517 27.0643 20.3568 27.1221C20.4597 27.1511 20.5918 27.1395 20.7162 27.0694C20.7352 27.0587 20.7551 27.0496 20.7756 27.0422C20.9087 26.9945 21.0049 26.8767 21.0257 26.7345C21.0231 26.6828 21.024 26.6305 21.0284 26.5777C21.0452 26.3791 21.2124 26.2264 21.4131 26.2264Z" fill="#171717"/>
<path d="M22.5747 25.6112C22.5747 25.9636 22.0386 26.4335 21.3833 26.4335C20.728 26.4335 20.1919 25.9636 20.1919 25.6112C20.1919 25.2587 20.728 25.1412 21.3833 25.1412C22.0386 25.1412 22.5747 25.2881 22.5747 25.6112Z" fill="#171717"/>
<path d="M21.8599 25.4937C21.8599 25.5819 21.6216 25.6993 21.3535 25.6993C21.0855 25.6993 20.8472 25.5819 20.8472 25.5231C20.8472 25.4644 21.0855 25.4644 21.3535 25.4644C21.6216 25.4644 21.8599 25.4056 21.8599 25.4937Z" fill="white"/>
<path fill-rule="evenodd" clip-rule="evenodd" d="M19.5345 26.2274C19.7472 26.2426 19.9071 26.4261 19.8918 26.6373C19.877 26.8427 19.9968 27.0189 20.2082 27.0782H20.2515C20.4647 27.0782 20.6375 27.2498 20.6375 27.4615C20.6375 27.6732 20.4647 27.8449 20.2515 27.8449H20.1621C20.1351 27.8449 20.1082 27.8421 20.0817 27.8365C19.4804 27.7094 19.0779 27.1885 19.1218 26.5823C19.1371 26.3711 19.3219 26.2123 19.5345 26.2274Z" fill="#171717"/>
<path fill-rule="evenodd" clip-rule="evenodd" d="M21.4131 25.8153C21.6263 25.8153 21.7991 25.9869 21.7991 26.1986V26.6098C21.7991 26.8215 21.6263 26.9932 21.4131 26.9932C21.1999 26.9932 21.0271 26.8215 21.0271 26.6098V26.1986C21.0271 25.9869 21.1999 25.8153 21.4131 25.8153Z" fill="#171717"/>
<path fill-rule="evenodd" clip-rule="evenodd" d="M23.2644 26.2597C23.4754 26.2295 23.6711 26.375 23.7015 26.5845C23.7955 27.2337 23.3197 27.7443 22.7444 27.8658C22.718 27.8714 22.6911 27.8742 22.6641 27.8742H22.5747C22.3615 27.8742 22.1887 27.7026 22.1887 27.4909C22.1887 27.2792 22.3615 27.1075 22.5747 27.1075H22.6185C22.8532 27.0435 22.9612 26.859 22.9373 26.6937C22.9069 26.4842 23.0534 26.2898 23.2644 26.2597Z" fill="#171717"/>
<path fill-rule="evenodd" clip-rule="evenodd" d="M30.9263 17.8135C32.4459 15.6612 32.0055 12.7181 29.9022 11.0807L30.3785 10.4773C32.8026 12.3644 33.3153 15.7653 31.5585 18.2536L30.9263 17.8135Z" fill="#221F1F"/>
<path fill-rule="evenodd" clip-rule="evenodd" d="M12.5091 11.1994C10.5297 12.8587 10.1191 15.716 11.6033 17.8448L11.609 17.853C11.9675 18.3967 12.4424 18.8682 12.9618 19.2949L12.9711 19.3029C13.1987 19.5023 13.4552 19.657 13.7488 19.7902C13.7805 19.8001 13.8183 19.8108 13.8635 19.8236L13.8676 19.8247C13.898 19.8333 13.9321 19.8429 13.9662 19.8531H14.0257C14.1942 19.8531 14.3324 19.8299 14.4708 19.7844C14.4899 19.7781 14.5094 19.7733 14.5291 19.7701L14.7014 19.7418C15.0639 19.669 15.4121 19.4751 15.6903 19.2008C15.6943 19.1968 15.6983 19.193 15.7024 19.1893C16.0223 18.9002 16.2399 18.593 16.3599 18.2411C16.4579 17.9538 16.4969 17.6186 16.4564 17.2131C15.9339 17.1282 15.3545 16.8656 14.8294 16.5369C14.1759 16.1279 13.5404 15.5753 13.1183 14.9989L13.1146 14.9939C12.1816 13.6752 12.313 12.1727 12.5091 11.1994ZM12.6298 11.1017C12.6303 11.1016 12.6298 11.1017 12.6298 11.1017C12.6298 11.1017 12.6295 11.1017 12.629 11.1019ZM12.6887 10.3387C12.8722 10.3559 13.0413 10.4446 13.1652 10.5973C13.1722 10.606 13.1788 10.6149 13.1851 10.6241C13.2685 10.7476 13.3696 10.9556 13.2978 11.1999C13.0958 12.1179 12.9564 13.4343 13.7446 14.5505C14.097 15.0307 14.652 15.5196 15.2411 15.8883C15.8423 16.2647 16.4145 16.4754 16.7963 16.4754C16.9836 16.4754 17.144 16.609 17.1765 16.7922C17.2894 17.4288 17.2614 17.9878 17.0912 18.487C16.9217 18.9842 16.6203 19.3949 16.2283 19.7507C15.8535 20.1181 15.3723 20.3911 14.8461 20.4949L14.8339 20.4971L14.6835 20.5218C14.4744 20.5873 14.2634 20.6197 14.0262 20.6197H13.9078C13.8666 20.6197 13.8249 20.6132 13.7858 20.6003C13.7506 20.5888 13.7071 20.5764 13.6528 20.5611L13.6486 20.56C13.5995 20.5461 13.5406 20.5295 13.4879 20.5122C13.4752 20.508 13.4626 20.5032 13.4504 20.4977C13.0986 20.34 12.7673 20.1458 12.4649 19.8818C11.9148 19.4293 11.3801 18.9045 10.9657 18.2771C9.21294 15.7586 9.75875 12.362 12.1796 10.4774C12.1925 10.4673 12.2061 10.4581 12.2202 10.4497C12.3505 10.3727 12.5135 10.3222 12.6887 10.3387Z" fill="#221F1F"/>
<path d="M19.2089 23.7021C19.2089 24.3483 18.8217 24.8476 18.3451 24.8476C17.8686 24.8476 17.4814 24.3189 17.4814 23.7021C17.4814 23.1441 17.7792 22.6741 18.1664 22.5566L19.1196 23.2615C19.1791 23.4084 19.2089 23.5552 19.2089 23.7021Z" fill="#221F1F"/>
<path d="M18.8813 23.5552C18.8813 23.7902 18.7324 23.9664 18.5834 23.9664C18.4345 23.9664 18.2856 23.7902 18.2856 23.5552C18.2856 23.3203 18.4345 23.144 18.5834 23.144C18.7324 23.144 18.8813 23.3203 18.8813 23.5552Z" fill="white"/>
<path d="M18.1664 24.5832C17.8388 24.8475 17.5409 25.1412 17.2729 25.4643C17.1537 25.6112 17.0346 25.7874 16.9452 25.993C16.8559 26.1692 16.7963 26.3748 16.7665 26.5804C16.7367 26.6685 16.7367 26.786 16.7367 26.8741V27.021V27.1678C16.7367 27.3734 16.7367 27.579 16.7367 27.814C16.7665 28.0196 16.7963 28.2545 16.8261 28.4601C16.8559 28.5776 16.8559 28.6657 16.8857 28.7832C16.9154 28.8713 16.9452 28.9888 17.0048 29.0769C16.9452 28.9888 16.9154 28.8713 16.8559 28.7832C16.8261 28.6951 16.7665 28.5776 16.7367 28.4895C16.6772 28.2839 16.6176 28.0783 16.558 27.8433C16.5282 27.6378 16.4984 27.4028 16.4687 27.1972V27.0503V26.8741C16.4687 26.7566 16.4687 26.6391 16.4687 26.551C16.4984 26.3161 16.5282 26.0811 16.6176 25.8755C16.7069 25.6699 16.7963 25.4643 16.9154 25.2587C17.1835 24.8769 17.4516 24.5245 17.7792 24.2308C17.8984 24.1426 18.0473 24.1426 18.1664 24.2308C18.2558 24.2895 18.2856 24.4657 18.1664 24.5832Z" fill="#221F1F"/>
<path d="M17.9579 24.4951C17.9281 24.4951 17.9281 24.4951 17.8984 24.4951H17.8686H17.809L17.6601 24.4657C17.5707 24.4364 17.4814 24.4364 17.392 24.4364C17.2133 24.4364 17.0048 24.4364 16.8261 24.4951C16.7367 24.5245 16.6474 24.5538 16.558 24.5832C16.2899 24.7007 16.0516 24.9063 15.9027 25.1413C15.9921 24.9357 16.0814 24.7594 16.2304 24.6126C16.2899 24.5245 16.3793 24.4657 16.4686 24.407C16.558 24.3482 16.6474 24.2895 16.7367 24.2308C16.9154 24.1133 17.1239 24.0545 17.3622 23.9958C17.4814 23.9664 17.5707 23.9664 17.6899 23.9664C17.7494 23.9664 17.809 23.9664 17.8686 23.9664H17.9877C18.1366 23.9664 18.2558 24.0839 18.2856 24.2308C18.3154 24.3776 18.1366 24.4951 17.9579 24.4951Z" fill="#221F1F"/>
<path d="M25.315 23.7021C25.315 24.3483 24.9278 24.8476 24.481 24.8476C24.0342 24.8476 23.6172 24.3189 23.6172 23.7021C23.6172 23.5552 23.647 23.4084 23.6768 23.2615L24.63 22.5566C25.0172 22.6741 25.315 23.1441 25.315 23.7021Z" fill="#221F1F"/>
<path d="M23.9151 23.5552C23.9151 23.7902 24.064 23.9664 24.213 23.9664C24.3619 23.9664 24.5108 23.7902 24.5108 23.5552C24.5108 23.3203 24.3619 23.144 24.213 23.144C24.064 23.144 23.9151 23.3203 23.9151 23.5552Z" fill="white"/>
<path d="M25.0172 24.172C25.3448 24.4951 25.6129 24.8182 25.8512 25.2C25.9703 25.3762 26.0894 25.5818 26.1788 25.7874C26.2682 25.993 26.3277 26.228 26.3575 26.4336C26.3873 26.6686 26.3873 26.8741 26.3575 27.1091C26.3277 27.3147 26.2979 27.5497 26.2682 27.7553C26.2384 27.9609 26.1788 28.1665 26.1192 28.3721C26.0894 28.4602 26.0597 28.5776 26.0001 28.6658C25.9703 28.7539 25.9107 28.8714 25.8512 28.9595C25.8809 28.8714 25.9405 28.7539 25.9703 28.6658C26.0001 28.5776 26.0299 28.4602 26.0597 28.3721C26.0894 28.1665 26.149 27.9609 26.149 27.7553C26.1788 27.5497 26.1788 27.3441 26.1788 27.1091C26.1788 26.9035 26.149 26.6979 26.1192 26.4923C26.0597 26.2867 26.0001 26.1105 25.9107 25.9343C25.8214 25.7581 25.7022 25.5818 25.5533 25.435C25.2852 25.1119 24.9874 24.8182 24.6597 24.5539C24.5406 24.4364 24.5406 24.2895 24.6597 24.172C24.7491 24.0839 24.898 24.0546 25.0172 24.1427V24.172Z" fill="#221F1F"/>
<path d="M24.8385 23.9665H24.9874C25.047 23.9665 25.1065 23.9665 25.1661 23.9665C25.2852 23.9665 25.4044 23.9665 25.5235 23.9958C25.7618 24.0252 25.9703 24.0839 26.1788 24.172C26.3873 24.2602 26.566 24.407 26.7448 24.5539C26.8937 24.7007 27.0128 24.9063 27.1022 25.0825C26.983 24.9063 26.8341 24.7595 26.6554 24.642C26.4767 24.5245 26.298 24.4364 26.0895 24.407C25.881 24.3776 25.6725 24.3776 25.464 24.3776C25.3746 24.3776 25.2555 24.407 25.1661 24.407L25.0172 24.4364H24.9576H24.9278H24.898H24.8682C24.7193 24.4658 24.5704 24.3483 24.5704 24.2014C24.5406 24.0546 24.6597 23.9077 24.8087 23.9077C24.8385 23.9077 24.8385 23.9077 24.8682 23.9077" fill="#221F1F"/>
</g>
<defs>
<linearGradient id="paint0_linear_7277_58009" x1="21.1479" y1="0" x2="21.1479" y2="61.4091" gradientUnits="userSpaceOnUse">
<stop stop-color="#08021E"/>
<stop offset="1" stop-color="#1F0777"/>
</linearGradient>
<clipPath id="clip0_7277_58009">
<rect width="42" height="42" fill="white"/>
</clipPath>
</defs>
</svg>
