<svg width="42" height="42" fill="none" xmlns="http://www.w3.org/2000/svg">
  <g clip-path="url(#a)">
    <mask id="c" width="42" height="42" x="0" y="0" maskUnits="userSpaceOnUse" style="mask-type:alpha">
      <circle cx="21" cy="21" r="21" fill="url(#b)"/>
    </mask>
    <g mask="url(#c)">
      <circle cx="21" cy="21" r="21" fill="#34EDB3"/>
      <circle cx="21" cy="21" r="18.2" fill="#fff"/>
    </g>
    <circle cx="21" cy="21" r="16.1" fill="#06061B"/>
    <g clip-path="url(#d)">
      <g clip-path="url(#e)">
        <path fill="#00EF8B" d="M21 37.268c8.984 0 16.268-7.284 16.268-16.268S29.984 4.732 21 4.732 4.732 12.016 4.732 21 12.016 37.268 21 37.268"/>
        <path fill="#fff" d="M28.125 18.462h-4.587v4.588h4.587zm-9.175 6.312c0 .944-.78 1.724-1.724 1.724s-1.724-.78-1.724-1.724c0-.943.78-1.724 1.724-1.724h1.724v-4.588h-1.724a6.32 6.32 0 0 0-6.312 6.312 6.32 6.32 0 0 0 6.312 6.312 6.32 6.32 0 0 0 6.312-6.312V23.05H18.95z"/>
        <path fill="#fff" d="M25.262 16.152h5.173v-4.587h-5.173a6.32 6.32 0 0 0-6.312 6.312v.585h4.588v-.585c0-.944.78-1.725 1.724-1.725"/>
        <path fill="#16FF99" d="M23.538 18.462H18.95v4.588h4.588z"/>
      </g>
    </g>
  </g>
  <defs>
    <clipPath id="a">
      <path fill="#fff" d="M0 0h42v42H0z"/>
    </clipPath>
    <clipPath id="d">
      <path fill="#fff" d="M4.732 4.732h32.535v32.535H4.732z"/>
    </clipPath>
    <clipPath id="e">
      <path fill="#fff" d="M4.732 4.732h32.535v32.535H4.732z"/>
    </clipPath>
    <linearGradient id="b" x1="21" x2="21" y1="0" y2="61.409" gradientUnits="userSpaceOnUse">
      <stop stop-color="#08021E"/>
      <stop offset="1" stop-color="#1F0777"/>
    </linearGradient>
  </defs>
</svg>
