<svg xmlns="http://www.w3.org/2000/svg" width="42" height="42" fill="none"><g clip-path="url(#a)"><mask id="c" width="43" height="42" x="0" y="0" maskUnits="userSpaceOnUse" style="mask-type:alpha"><ellipse cx="21.148" cy="21" fill="url(#b)" rx="21.148" ry="21"/></mask><g mask="url(#c)"><ellipse cx="21.148" cy="21" fill="#34EDB3" rx="21.148" ry="21"/><ellipse cx="21.148" cy="21" fill="#fff" rx="18.328" ry="18.2"/></g><ellipse cx="21.148" cy="21" fill="#06061B" rx="16.213" ry="16.1"/><ellipse cx="21.148" cy="21" fill="#F5F5FF" rx="16.213" ry="16.1"/><path fill="#F4A427" d="M29.813 26.346c-.239 2.79-3.575 5.14-8.579 5.022-4.706-.118-8.012-2.056-8.25-4.846-.03-.353 0-.705.03-1.087a8.031 8.031 0 011.102-3.054l.357.146a15.84 15.84 0 012.86-.793 18.986 18.986 0 013.872-.117 18.985 18.985 0 013.872.117c.983.176 1.936.44 2.86.793l.357-.146.238-.118c.566.94.953 1.968 1.162 3.054.06.324.089.676.06 1"/><path fill="#fff" d="M29.813 26.346c-.239 2.76-3.545 5.022-8.579 4.992-4.706-.117-8.012-2.055-8.25-4.846-.03-.352 0-.704.03-1.086a3.782 3.782 0 011.519-.03c.953.147 1.489.735 2.174 1.028.387.177.774-.117 1.132-.44a5.338 5.338 0 013.544-1.469c1.34-.03 2.443.5 3.604 1.557.239.235.566.382.894.352.298-.088.596-.235.834-.44a4.37 4.37 0 013.008-.676c.09.382.12.705.09 1.058z"/><path fill="#F79422" d="M15.962 19.473a2.375 2.375 0 01-1.191.646l-.179.03a1.755 1.755 0 01-.566.087h-.119c-.09-.029-.208-.058-.298-.088a3.5 3.5 0 01-.893-.558c-.536-.44-1.043-.94-1.43-1.527-1.638-2.35-1.132-5.522 1.132-7.284.149-.088.327-.088.447.059.06.088.089.176.06.264-.21.94-.388 2.409.505 3.671.775 1.058 2.383 2.086 3.366 2.086.209 1.175-.119 1.968-.834 2.614z"/><path fill="#221F1F" fill-rule="evenodd" d="M12.51 11.2c-1.98 1.659-2.39 4.516-.907 6.645l.006.008c.358.544.833 1.015 1.353 1.442l.01.008c.227.2.483.354.777.487l.114.034h.005l.098.03h.06c.168 0 .306-.024.445-.07a.381.381 0 01.058-.014l.172-.028a1.99 1.99 0 001.001-.553c.32-.289.538-.596.658-.948a2.4 2.4 0 00.096-1.028c-.522-.085-1.101-.347-1.627-.676-.653-.41-1.289-.962-1.71-1.538l-.004-.005c-.933-1.319-.802-2.821-.606-3.795zm.12-.098h-.001zm.059-.763a.692.692 0 01.496.285c.083.124.185.332.113.576-.202.918-.342 2.234.447 3.35.352.48.907.97 1.496 1.338.601.377 1.174.587 1.555.587.188 0 .348.134.38.317.113.637.085 1.196-.085 1.695-.17.497-.47.908-.863 1.264a2.76 2.76 0 01-1.382.744l-.012.002-.15.025c-.21.065-.42.098-.658.098h-.118a.392.392 0 01-.122-.02 3.612 3.612 0 00-.133-.039l-.004-.001c-.05-.014-.108-.03-.161-.048a3.892 3.892 0 01-1.023-.63c-.55-.453-1.085-.978-1.5-1.605-1.752-2.518-1.206-5.915 1.215-7.8a.78.78 0 01.51-.139z" clip-rule="evenodd"/><path fill="#5A595C" d="M20.251 15.42l-.387 3.759h-.03c-.595.088-1.4.206-2.502.382-1.012.147-2.382.852-3.187 1.322l-.089-.617c.179-.03.387-.059.566-.088l.179-.03a2.375 2.375 0 001.191-.646c.685-.675 1.043-1.44.804-2.643l.12.03a4.264 4.264 0 011.25-.911c.626-.353 1.34-.53 2.085-.558z"/><path fill="#221F1F" fill-rule="evenodd" d="M20.533 15.157a.382.382 0 01.102.302l-.387 3.759a.385.385 0 01-.384.344h-.001l-.134.02c-.577.085-1.333.197-2.335.357l-.006.001c-.454.066-1.01.262-1.57.51-.553.246-1.083.533-1.477.763a.388.388 0 01-.578-.276l-.09-.617a.384.384 0 01.32-.432c.092-.016.19-.03.286-.045h.002l.278-.044.172-.028a1.99 1.99 0 00.99-.54c.314-.311.534-.622.654-.975.12-.351.151-.774.043-1.323a.382.382 0 01.364-.457 4.714 4.714 0 011.203-.837c.686-.384 1.46-.571 2.251-.602a.39.39 0 01.297.12zm-3.305 1.96c.063.515.02.97-.122 1.385-.103.3-.253.568-.437.814.207-.06.41-.106.605-.134.946-.151 1.674-.26 2.237-.343l.31-2.999a4.02 4.02 0 00-1.483.481 3.89 3.89 0 00-1.11.796z" clip-rule="evenodd"/><path fill="#929497" d="M28.949 22.175l-.238.117-.239.118-.357.147a15.84 15.84 0 00-2.86-.793 21.332 21.332 0 00-3.872-.353c-1.31 0-2.591.088-3.872.353a15.84 15.84 0 00-2.86.793 1.715 1.715 0 00-.357-.147l-.506-.235c.03-.411 0-.646 0-1.058a11.8 11.8 0 01.387-.235l.03-.029c.774-.47 2.144-1.145 3.157-1.322 1.102-.176 1.877-.293 2.502-.381.387-.03.804-.03 1.221-.03.626 0 1.192 0 1.758.03.596.088 1.4.205 2.532.381 1.042.147 2.412.852 3.216 1.322h.03c.15.088.268.147.358.235-.03.44-.06.676-.03 1.087z"/><path fill="#221F1F" fill-rule="evenodd" d="M19.906 19.53c-.62.088-1.388.205-2.48.38-.924.161-2.215.787-2.982 1.247a.382.382 0 01-.071.055l-.196.116c0 .046.002.091.004.136.004.152.008.304.005.472l.241.112c.086.025.17.058.243.092a16.164 16.164 0 012.772-.753c1.309-.24 2.614-.33 3.941-.33 1.334 0 2.636.12 3.934.328l.007.001a16.32 16.32 0 012.785.758l.203-.083.24-.118c-.005-.238.01-.435.026-.67a6.75 6.75 0 00-.083-.049.387.387 0 01-.1-.04c-.805-.471-2.116-1.138-3.075-1.273h-.005a273.113 273.113 0 00-2.51-.38 33.974 33.974 0 00-1.72-.027c-.415 0-.813 0-1.18.027zm1.171-.793h.014a34.131 34.131 0 011.809.034l.223.032c.569.084 1.312.194 2.309.35 1.093.154 2.471.859 3.285 1.329.035.009.07.023.102.042l.064.037c.11.062.257.146.368.255.079.078.12.187.113.298-.006.08-.01.153-.016.22a4.802 4.802 0 00-.014.813.383.383 0 01-.213.371l-.477.235a.434.434 0 01-.024.011l-.358.147a.388.388 0 01-.286.003 15.55 15.55 0 00-2.786-.773 23.913 23.913 0 00-3.807-.317c-1.293 0-2.55.087-3.802.317h-.001c-.96.172-1.89.43-2.79.773a.389.389 0 01-.31-.014 1.507 1.507 0 00-.279-.118.38.38 0 01-.07-.025l-.507-.235a.383.383 0 01-.221-.375c.018-.25.013-.412.007-.612a12.389 12.389 0 01-.008-.418c0-.128.065-.248.173-.32.09-.058.229-.14.362-.22a.39.39 0 01.067-.051c.786-.477 2.206-1.183 3.292-1.372l.005-.001a137.518 137.518 0 012.534-.386c.402-.03.831-.03 1.242-.03z" clip-rule="evenodd"/><path fill="#929497" d="M22.813 19.179a17.095 17.095 0 00-1.757-.03c-.417 0-.834.03-1.222.03h.03l.387-3.76.09-.763c.298-.176.655-.264.983-.264h.06c.357 0 .684.088.982.264l.09.764v.029l.357 3.73z"/><path fill="#221F1F" fill-rule="evenodd" d="M20.7 14.903l-.065.558-.342 3.325.12-.004h.007c.201-.008.413-.015.627-.016.47-.021.922-.011 1.34.008l-.316-3.289a.4.4 0 01-.001-.036v-.007l-.064-.54a1.526 1.526 0 00-.623-.127h-.06c-.204 0-.425.044-.622.128zm-1.205 4.093l.373-3.62.09-.764a.383.383 0 01.185-.285 2.362 2.362 0 011.18-.319h.06c.425 0 .821.106 1.18.319a.383.383 0 01.187.285l.09.763.002.045v.01l.355 3.713a.382.382 0 01-.106.302.388.388 0 01-.3.117 16.692 16.692 0 00-1.735-.029c-.2 0-.402.007-.608.014l-.015.001a17.44 17.44 0 01-.56.014h-.039a.385.385 0 01-.339-.566zm1.739 2.032c1.334 0 2.638.12 3.942.359.957.171 1.887.425 2.79.76l.232-.089.222-.109c.18-.089.4-.025.503.147a9.67 9.67 0 011.207 3.169c.101.405.099.8.067 1.144-.133 1.557-1.2 2.906-2.788 3.852-1.593.949-3.75 1.52-6.175 1.52h-.01c-2.398-.06-4.47-.584-5.983-1.475-1.516-.892-2.495-2.171-2.612-3.725-.031-.37-.003-.737.025-1.093l.004-.053.003-.022a8.416 8.416 0 011.153-3.2.387.387 0 01.479-.157l.216.088a16.24 16.24 0 012.784-.757c1.308-.24 2.611-.33 3.933-.359h.008zm.005.767c-1.298.029-2.555.116-3.807.346h-.001c-.96.172-1.89.43-2.79.774a.388.388 0 01-.286-.004l-.043-.018a7.564 7.564 0 00-.885 2.612l-.001.017c-.03.378-.054.69-.028.997v.004c.093 1.236.87 2.32 2.236 3.124 1.368.805 3.3 1.309 5.605 1.367 2.309 0 4.32-.546 5.773-1.41 1.457-.868 2.31-2.03 2.416-3.261v-.003a2.66 2.66 0 00-.054-.921 8.946 8.946 0 00-.94-2.63l-.33.126a.388.388 0 01-.276 0 15.429 15.429 0 00-2.79-.774h-.002a20.948 20.948 0 00-3.797-.346z" clip-rule="evenodd"/><path fill="#F79422" d="M31.272 18.063c-.417.558-.893 1.087-1.46 1.527a3.5 3.5 0 01-.893.558l-.149.059-.09.03c-.208.058-.327 0-.714-.06l-.179-.029a2.375 2.375 0 01-1.191-.646c-.685-.675-1.043-1.44-.804-2.643.953.03 2.591-.999 3.365-2.086.864-1.262.686-2.731.477-3.67-.03-.177.06-.324.238-.383.09-.03.209 0 .268.059 2.264 1.762 2.77 4.964 1.132 7.284z"/><path fill="#221F1F" fill-rule="evenodd" d="M30.05 11.2c1.978 1.66 2.387 4.54.909 6.639a7.55 7.55 0 01-1.384 1.45 3.109 3.109 0 01-.806.507l-.13.05-.07.023a.272.272 0 01-.124.003 3.462 3.462 0 01-.147-.026l-.015-.003a7.448 7.448 0 00-.256-.044l-.17-.028a1.99 1.99 0 01-.99-.54c-.314-.311-.534-.622-.654-.975a2.312 2.312 0 01-.088-1.036c.517-.075 1.097-.334 1.622-.66.657-.41 1.302-.971 1.726-1.565l.004-.006c.9-1.318.768-2.817.572-3.79zm.341-.712a.651.651 0 00-.287-.145.666.666 0 00-.353.013.74.74 0 00-.405.31.714.714 0 00-.089.519c.204.918.35 2.246-.417 3.37-.351.492-.912.987-1.503 1.355-.607.377-1.174.577-1.533.566a.386.386 0 00-.391.309c-.13.655-.102 1.216.069 1.717.17.498.472.907.842 1.272.375.37.859.646 1.388.75l.012.002.179.03h.005c.09.014.165.028.232.04l.02.004c.058.011.12.023.176.03.142.02.28.023.45-.025l.016-.005.09-.03a.412.412 0 00.02-.007l.15-.058a3.896 3.896 0 00.998-.62 8.292 8.292 0 001.522-1.594l.006-.008c1.756-2.487 1.214-5.908-1.197-7.796z" clip-rule="evenodd"/><path fill="#5A595C" d="M28.68 20.236l-.118.646c-.805-.47-2.175-1.174-3.217-1.321a183.84 183.84 0 00-2.532-.382l-.387-3.76c.685.03 1.37.236 1.996.559a4.87 4.87 0 011.25.91l.12-.03c-.239 1.175.119 1.968.804 2.644.328.323.744.558 1.191.646.03 0 .15.059.179.059.238.088.476.088.715.03z"/><path fill="#221F1F" fill-rule="evenodd" d="M22.145 15.157a.387.387 0 01.297-.12c.75.032 1.488.255 2.154.599.455.225.855.52 1.201.84a.382.382 0 01.373.459c-.108.532-.077.954.043 1.31.121.359.342.677.655.985.278.274.626.468.989.541l.17.028c.102.016.186.031.256.044l.015.003.147.026a.269.269 0 00.13-.004.388.388 0 01.366.085.382.382 0 01.12.352l-.12.647a.388.388 0 01-.576.261c-.805-.47-2.116-1.138-3.074-1.273h-.006a183.45 183.45 0 00-2.526-.381.385.385 0 01-.33-.341l-.387-3.76a.382.382 0 01.103-.301zm3.752 4.125a2.95 2.95 0 01-.415-.792 3.07 3.07 0 01-.123-1.37 4.44 4.44 0 00-1.11-.799l-.006-.003a4.68 4.68 0 00-1.385-.469l.308 2.993c.575.083 1.278.19 2.236.34.16.022.325.057.495.1z" clip-rule="evenodd"/><path fill="#221F1F" fill-rule="evenodd" d="M22.307 15.036h.119v.767h-.12v-.767z" clip-rule="evenodd"/><path fill="#F79422" d="M28.71 20.09c.21.234.15.587-.089.793l-.06.058"/><path fill="#221F1F" fill-rule="evenodd" d="M28.45 20.448a.125.125 0 00-.029-.105l.58-.507c.374.423.241 1.01-.116 1.326l-.051.051-.544-.544.068-.067.01-.009a.237.237 0 00.083-.145z" clip-rule="evenodd"/><path fill="#F79422" d="M14.026 20.09c-.208.234-.149.587.09.793l.06.058"/><path fill="#221F1F" fill-rule="evenodd" d="M13.852 21.162c-.357-.317-.49-.903-.115-1.326l.579.507a.125.125 0 00-.03.105.238.238 0 00.083.145l.01.009.068.067-.544.544-.051-.05z" clip-rule="evenodd"/><path fill="#171717" fill-rule="evenodd" d="M21.413 26.226c.2 0 .368.153.385.352.004.053.005.105.003.157a.385.385 0 00.27.315c.148.063.286.08.42.061a.384.384 0 11.108.759c-.28.04-.556 0-.821-.11a1.152 1.152 0 01-.365-.218c-.1.087-.215.16-.344.21a1.253 1.253 0 01-.923.108.383.383 0 11.21-.738.479.479 0 00.36-.053.393.393 0 01.06-.027.385.385 0 00.25-.308 1.176 1.176 0 01.002-.156.385.385 0 01.385-.352z" clip-rule="evenodd"/><path fill="#171717" d="M22.575 25.611c0 .353-.536.822-1.192.822-.655 0-1.191-.47-1.191-.822s.536-.47 1.191-.47c.656 0 1.192.147 1.192.47z"/><path fill="#fff" d="M21.86 25.494c0 .088-.238.205-.506.205s-.507-.117-.507-.176c0-.059.238-.059.506-.059.269 0 .507-.058.507.03z"/><path fill="#171717" fill-rule="evenodd" d="M19.535 26.227a.384.384 0 01.357.41.415.415 0 00.316.441h.044c.213 0 .386.172.386.384a.385.385 0 01-.387.383h-.089a.389.389 0 01-.08-.008 1.185 1.185 0 01-.96-1.255c.015-.21.2-.37.413-.355zm1.878-.412c.213 0 .386.172.386.384v.41a.385.385 0 01-.386.384.385.385 0 01-.386-.383v-.411c0-.212.173-.384.386-.384zm1.851.445a.386.386 0 01.438.324c.093.65-.382 1.16-.958 1.282a.387.387 0 01-.08.008h-.09a.385.385 0 01-.385-.383c0-.212.172-.383.386-.383h.044c.234-.064.342-.249.318-.414a.384.384 0 01.327-.434z" clip-rule="evenodd"/><path fill="#221F1F" fill-rule="evenodd" d="M30.926 17.814c1.52-2.153 1.08-5.096-1.024-6.733l.476-.604c2.425 1.887 2.937 5.288 1.18 7.777l-.632-.44zM12.51 11.2c-1.98 1.659-2.39 4.516-.907 6.645l.006.008c.358.544.833 1.015 1.353 1.442l.01.008c.227.2.483.354.777.487l.114.034h.005l.098.03h.06c.168 0 .306-.024.445-.07a.381.381 0 01.058-.014l.172-.028a1.99 1.99 0 001.001-.553c.32-.289.538-.596.658-.948a2.4 2.4 0 00.096-1.028c-.522-.085-1.101-.347-1.627-.676-.653-.41-1.289-.962-1.71-1.538l-.004-.005c-.933-1.319-.802-2.821-.606-3.795zm.12-.098h-.001zm.059-.763a.692.692 0 01.496.285c.083.124.185.332.113.576-.202.918-.342 2.234.447 3.35.352.48.907.97 1.496 1.338.601.377 1.174.587 1.555.587.188 0 .348.134.38.317.113.637.085 1.196-.085 1.695-.17.497-.47.908-.863 1.264a2.76 2.76 0 01-1.382.744l-.012.002-.15.025c-.21.065-.42.098-.658.098h-.118a.392.392 0 01-.122-.02 3.612 3.612 0 00-.133-.039l-.004-.001c-.05-.014-.108-.03-.161-.048a3.892 3.892 0 01-1.023-.63c-.55-.453-1.085-.978-1.5-1.605-1.752-2.518-1.206-5.915 1.215-7.8a.78.78 0 01.51-.139z" clip-rule="evenodd"/><path fill="#221F1F" d="M19.209 23.702c0 .646-.387 1.146-.864 1.146-.476 0-.864-.53-.864-1.146 0-.558.298-1.028.685-1.145l.954.705c.06.146.089.293.089.44z"/><path fill="#fff" d="M18.881 23.555c0 .235-.149.411-.298.411-.148 0-.297-.176-.297-.41 0-.236.148-.412.297-.412.15 0 .298.176.298.411z"/><path fill="#221F1F" d="M18.166 24.583a6.286 6.286 0 00-.893.881 2.3 2.3 0 00-.328.529 1.93 1.93 0 00-.178.587c-.03.089-.03.206-.03.294v.94c.03.206.06.44.09.646.029.118.029.206.059.323.03.088.06.206.119.294-.06-.088-.09-.206-.15-.294-.029-.088-.088-.205-.118-.294-.06-.205-.12-.41-.179-.646-.03-.205-.06-.44-.09-.646v-.646c.03-.235.06-.47.15-.675.089-.206.178-.412.297-.617.268-.382.537-.735.864-1.028a.316.316 0 01.387 0c.09.058.12.235 0 .352z"/><path fill="#221F1F" d="M17.958 24.495h-.149l-.149-.03c-.09-.029-.179-.029-.268-.029-.179 0-.387 0-.566.06l-.268.087a1.512 1.512 0 00-.655.558c.09-.205.178-.382.327-.528a.799.799 0 01.239-.206l.268-.176c.178-.118.387-.177.625-.235.12-.03.209-.03.328-.03h.298c.149 0 .268.118.298.265.03.147-.15.264-.328.264zm7.357-.793c0 .646-.387 1.146-.834 1.146-.447 0-.864-.53-.864-1.146 0-.147.03-.294.06-.44l.953-.705c.387.117.685.587.685 1.145z"/><path fill="#fff" d="M23.915 23.555c0 .235.149.411.298.411s.298-.176.298-.41c0-.236-.15-.412-.298-.412-.149 0-.298.176-.298.411z"/><path fill="#221F1F" d="M25.017 24.172c.328.323.596.646.834 1.028.12.176.238.382.328.587.09.206.149.441.179.647.03.235.03.44 0 .675-.03.206-.06.44-.09.646-.03.206-.09.412-.149.617-.03.088-.06.206-.119.294-.03.088-.09.205-.149.293.03-.088.09-.205.12-.293s.059-.206.089-.294c.03-.206.089-.411.089-.617.03-.205.03-.41.03-.646 0-.206-.03-.411-.06-.617a3.094 3.094 0 00-.208-.558 1.928 1.928 0 00-.358-.499 6.286 6.286 0 00-.893-.881c-.12-.118-.12-.264 0-.382a.274.274 0 01.357-.03v.03z"/><path fill="#221F1F" d="M24.838 23.966h.328c.12 0 .238 0 .357.03.239.03.447.088.656.176.208.088.387.235.566.382.149.147.268.352.357.529a1.586 1.586 0 00-.447-.441 1.366 1.366 0 00-.566-.235c-.208-.03-.416-.03-.625-.03-.09 0-.208.03-.298.03l-.149.03h-.149c-.149.029-.298-.089-.298-.236a.25.25 0 01.239-.293h.06"/></g><defs><linearGradient id="b" x1="21.148" x2="21.148" y1="0" y2="61.409" gradientUnits="userSpaceOnUse"><stop stop-color="#08021E"/><stop offset="1" stop-color="#1F0777"/></linearGradient><clipPath id="a"><path fill="#fff" d="M0 0h42v42H0z"/></clipPath></defs></svg>