<svg width="42" height="42" viewBox="0 0 42 42" fill="none" xmlns="http://www.w3.org/2000/svg">
<g clip-path="url(#clip0_7277_57919)">
<mask id="mask0_7277_57919" style="mask-type:alpha" maskUnits="userSpaceOnUse" x="0" y="0" width="42" height="42">
<circle cx="21" cy="21" r="21" transform="matrix(-1 0 0 1 42 0)" fill="url(#paint0_linear_7277_57919)"/>
</mask>
<g mask="url(#mask0_7277_57919)">
<circle cx="21" cy="21" r="21" transform="matrix(-1 0 0 1 42 0)" fill="#34EDB3"/>
<circle cx="18.2" cy="18.2" r="18.2" transform="matrix(-1 0 0 1 39.2 2.80005)" fill="white"/>
</g>
<circle cx="16.1" cy="16.1" r="16.1" transform="matrix(-1 0 0 1 37.1 4.90002)" fill="#0B0B22"/>
<g clip-path="url(#clip1_7277_57919)">
<path d="M21 37.1C29.8918 37.1 37.1 29.8918 37.1 21C37.1 12.1082 29.8918 4.90002 21 4.90002C12.1082 4.90002 4.90002 12.1082 4.90002 21C4.90002 29.8918 12.1082 37.1 21 37.1Z" fill="#13B5EC"/>
<path fill-rule="evenodd" clip-rule="evenodd" d="M22.2075 17.8806L25.83 15.7675V19.9938L22.2075 17.8806ZM25.83 26.9369L21 29.7544L16.17 26.9369V22.0063L21 24.8237L25.83 22.0063V26.9369ZM16.17 15.7675L19.7925 17.8806L16.17 19.9938V15.7675ZM21.6038 18.8869L25.2263 21L21.6038 23.1131V18.8869ZM20.3963 23.1131L16.7738 21L20.3963 18.8869V23.1131ZM25.2263 14.7613L21 17.1762L16.7738 14.7613L21 12.2456L25.2263 14.7613ZM14.9625 14.3587V27.5406L21 30.9619L27.0375 27.5406V14.3587L21 10.9375L14.9625 14.3587Z" fill="white"/>
</g>
</g>
<defs>
<linearGradient id="paint0_linear_7277_57919" x1="21" y1="0" x2="21" y2="61.4091" gradientUnits="userSpaceOnUse">
<stop stop-color="#08021E"/>
<stop offset="1" stop-color="#1F0777"/>
</linearGradient>
<clipPath id="clip0_7277_57919">
<rect width="42" height="42" fill="white"/>
</clipPath>
<clipPath id="clip1_7277_57919">
<rect width="32.2" height="32.2" fill="white" transform="translate(4.90002 4.90002)"/>
</clipPath>
</defs>
</svg>
