<svg width="42" height="42" fill="none" xmlns="http://www.w3.org/2000/svg">
  <g clip-path="url(#a)">
    <mask id="c" width="42" height="42" x="0" y="0" maskUnits="userSpaceOnUse" style="mask-type:alpha">
      <circle cx="21" cy="21" r="21" fill="url(#b)" transform="matrix(-1 0 0 1 42 0)"/>
    </mask>
    <g mask="url(#c)">
      <circle cx="21" cy="21" r="21" fill="#34EDB3" transform="matrix(-1 0 0 1 42 0)"/>
      <circle cx="18.2" cy="18.2" r="18.2" fill="#fff" transform="matrix(-1 0 0 1 39.2 2.8)"/>
    </g>
    <circle cx="16.1" cy="16.1" r="16.1" fill="#0B0B22" transform="matrix(-1 0 0 1 37.1 4.9)"/>
    <g clip-path="url(#d)">
      <path fill="#13B5EC" d="M21 37.1c8.892 0 16.1-7.208 16.1-16.1S29.892 4.9 21 4.9 4.9 12.108 4.9 21 12.108 37.1 21 37.1"/>
      <path fill="#fff" fill-rule="evenodd" d="m22.207 17.88 3.623-2.112v4.226l-3.622-2.113zm3.623 9.057L21 29.754l-4.83-2.817v-4.93L21 24.823l4.83-2.818v4.93zm-9.66-11.17 3.622 2.114-3.622 2.113zm5.434 3.12L25.226 21l-3.622 2.113zm-1.208 4.226L16.774 21l3.622-2.113zm4.83-8.352L21 17.176l-4.226-2.415L21 12.246zm-10.263-.402V27.54L21 30.96l6.038-3.42V14.359L21 10.938z" clip-rule="evenodd"/>
    </g>
  </g>
  <defs>
    <clipPath id="a">
      <path fill="#fff" d="M0 0h42v42H0z"/>
    </clipPath>
    <clipPath id="d">
      <path fill="#fff" d="M4.9 4.9h32.2v32.2H4.9z"/>
    </clipPath>
    <linearGradient id="b" x1="21" x2="21" y1="0" y2="61.409" gradientUnits="userSpaceOnUse">
      <stop stop-color="#08021E"/>
      <stop offset="1" stop-color="#1F0777"/>
    </linearGradient>
  </defs>
</svg>
