<svg width="480" height="480" viewBox="0 0 480 480" fill="none" xmlns="http://www.w3.org/2000/svg">
<circle cx="240" cy="240" r="240" fill="url(#paint0_linear)"/>
<mask id="mask0" mask-type="alpha" maskUnits="userSpaceOnUse" x="0" y="0" width="480" height="480">
<circle cx="240" cy="240" r="240" fill="url(#paint1_linear)"/>
</mask>
<g mask="url(#mask0)">
<path fill-rule="evenodd" clip-rule="evenodd" d="M123.924 146.839L138.76 165H173.312L196.192 137.076L174.636 110.748C156.805 90.694 136.027 81 112.011 81H12V138.71H106.428C113.355 138.71 119.293 141.538 123.848 146.752L123.924 146.839ZM179.963 106.205L205.24 137.078L176.626 172H135.439L118.576 151.357C115.289 147.595 111.243 145.71 106.428 145.71H7.95094C7.07626 145.71 6.36061 145.433 5.82167 144.879C5.27389 144.334 5 143.717 5 143.056V76.6539C5 75.9927 5.27389 75.385 5.82167 74.831C6.36061 74.277 7.07626 74 7.95094 74H112.011C138.27 74 160.923 84.7408 179.963 106.205ZM123.852 332.909L123.701 333.071C119.042 338.081 113.205 340.951 106.428 340.951H12.3269V399H111.685C135.94 399 156.82 389.299 174.636 369.252L219.1 315H138.518L123.852 332.909ZM135.203 308H233.888L179.963 373.795C160.923 395.268 138.164 406 111.685 406H7.95094C7.07626 406 6.41363 405.723 5.9807 405.169C5.53894 404.615 5.3269 403.9 5.3269 403.007V336.605C5.3269 335.943 5.53894 335.336 5.9807 334.782C6.41363 334.228 7.07626 333.951 7.95094 333.951H106.428C111.022 333.951 115.068 332.074 118.576 328.303L135.203 308ZM362.153 328.643C365.439 332.19 369.371 333.96 373.974 333.96H472.451C473.325 333.96 473.979 334.237 474.421 334.791C474.854 335.345 475.075 336.069 475.075 336.944V403.346C475.075 404.007 474.854 404.624 474.421 405.169C473.979 405.723 473.325 406 472.451 406H368.717C342.238 406 319.585 395.268 300.766 373.795L246.848 308H345.245L362.153 328.643ZM341.93 315H261.635L306.106 369.268C323.696 389.299 344.46 399 368.717 399H468.075V340.96H373.974C367.312 340.96 361.552 338.295 357.018 333.4L356.872 333.244L341.93 315ZM361.826 151.357C365.112 147.595 369.159 145.71 373.974 145.71H472.451C473.325 145.71 473.979 145.433 474.421 144.879C474.854 144.334 475.075 143.717 475.075 143.056V76.6539C475.075 75.7693 474.854 75.108 474.421 74.6612C473.979 74.2234 473.325 74 472.451 74H368.717C342.238 74 319.479 84.6246 300.439 105.874L246.427 172H344.868L361.826 151.357ZM341.559 165L356.484 146.832L356.554 146.752C361.109 141.538 367.047 138.71 373.974 138.71H468.075V81H368.717C344.443 81 323.562 90.6107 305.758 110.428L261.183 165H341.559Z" fill="#00D1FF"/>
</g>
<path d="M135.204 221.832H88.5482V232.008H133.572V248.52H88.5482V273H63.9722V204.84H135.204V221.832Z" fill="white"/>
<path d="M230.999 204.84V223.56H204.695V273H180.215V223.56H154.007V204.84H230.999Z" fill="white"/>
<path d="M284.052 275.304C275.22 275.304 266.804 273.992 258.804 271.368C250.868 268.68 244.788 265.32 240.564 261.288L256.404 247.464C259.988 250.664 264.34 253.32 269.46 255.432C274.58 257.48 279.924 258.504 285.492 258.504C295.476 258.504 300.468 256.68 300.468 253.032C300.468 251.752 299.924 250.824 298.836 250.248C297.812 249.608 295.86 249.128 292.98 248.808L272.628 246.408C263.86 245.32 257.364 243.08 253.14 239.688C248.98 236.232 246.9 231.24 246.9 224.712C246.9 220.104 248.372 216.136 251.316 212.808C254.324 209.48 258.676 206.952 264.372 205.224C270.068 203.432 276.916 202.536 284.916 202.536C292.66 202.536 299.924 203.4 306.708 205.128C313.492 206.792 319.412 209.384 324.468 212.904L310.932 227.304C308.052 224.808 304.148 222.792 299.22 221.256C294.292 219.72 289.076 218.952 283.572 218.952C279.476 218.952 276.372 219.368 274.26 220.2C272.148 220.968 271.092 222.12 271.092 223.656C271.092 225 271.7 225.992 272.916 226.632C274.196 227.272 276.532 227.784 279.924 228.168L297.492 229.896C304.148 230.6 309.46 231.752 313.428 233.352C317.46 234.888 320.404 237.064 322.26 239.88C324.116 242.696 325.044 246.28 325.044 250.632C325.044 258.504 321.428 264.584 314.196 268.872C307.028 273.16 296.98 275.304 284.052 275.304Z" fill="white"/>
<path d="M371.017 256.488H418.345V273H346.441V204.84H417.673V221.352H371.017V231.048H416.041V246.216H371.017V256.488Z" fill="white"/>
<defs>
<linearGradient id="paint0_linear" x1="240" y1="0" x2="240" y2="701.818" gradientUnits="userSpaceOnUse">
<stop stop-color="#08021E"/>
<stop offset="1" stop-color="#1F0777"/>
</linearGradient>
<linearGradient id="paint1_linear" x1="240" y1="0" x2="240" y2="701.818" gradientUnits="userSpaceOnUse">
<stop stop-color="#08021E"/>
<stop offset="1" stop-color="#1F0777"/>
</linearGradient>
</defs>
</svg>
