<svg width="42" height="42" fill="none" xmlns="http://www.w3.org/2000/svg">
  <g clip-path="url(#a)">
    <mask id="c" width="42" height="42" x="0" y="0" maskUnits="userSpaceOnUse" style="mask-type:alpha">
      <circle cx="21" cy="21" r="21" fill="url(#b)"/>
    </mask>
    <g mask="url(#c)">
      <circle cx="21" cy="21" r="21" fill="#34EDB3"/>
      <circle cx="21" cy="21" r="18.2" fill="#fff"/>
    </g>
    <circle cx="21" cy="21" r="16.1" fill="#06061B"/>
    <g clip-path="url(#d)">
      <path fill="#FEFEFE" d="M21 4.866c8.91 0 16.134 7.223 16.134 16.133S29.911 37.134 21 37.134C12.09 37.134 4.867 29.91 4.867 21S12.09 4.866 21 4.866"/>
      <path fill="#012169" d="M15.594 15.3V5.795a16.2 16.2 0 0 0-7.624 5.692zm0 11.4v9.505a16.2 16.2 0 0 1-7.624-5.692zm10.777 0v9.518a16.2 16.2 0 0 0 7.65-5.692zm0-11.4V5.782a16.2 16.2 0 0 1 7.65 5.692z"/>
      <path fill="#C8102E" d="M35.337 26.38H31.75l3.68 1.843q.358-.718.647-1.473zm-.697-13.998-6.443 3.23h3.587l3.65-1.826a16 16 0 0 0-.794-1.404M17.75 24.225v12.581a16.3 16.3 0 0 0 6.465.008V24.225h12.596a16.2 16.2 0 0 0-.003-6.466H24.215V5.187a16.2 16.2 0 0 0-6.465.007v12.565H5.192a16.2 16.2 0 0 0-.002 6.466zM6.62 15.62h3.587l-3.645-1.825q-.359.718-.647 1.473zm7.148 10.768H10.18L6.56 28.2q.363.726.797 1.413l6.443-3.225z"/>
    </g>
  </g>
  <defs>
    <clipPath id="a">
      <path fill="#fff" d="M0 0h42v42H0z"/>
    </clipPath>
    <clipPath id="d">
      <path fill="#fff" d="M4.9 4.9h32.2v32.2H4.9z"/>
    </clipPath>
    <linearGradient id="b" x1="21" x2="21" y1="0" y2="61.409" gradientUnits="userSpaceOnUse">
      <stop stop-color="#08021E"/>
      <stop offset="1" stop-color="#1F0777"/>
    </linearGradient>
  </defs>
</svg>
