<svg width="42" height="42" fill="none" xmlns="http://www.w3.org/2000/svg">
  <g clip-path="url(#a)">
    <mask id="c" width="42" height="42" x="0" y="0" maskUnits="userSpaceOnUse" style="mask-type:alpha">
      <circle cx="21" cy="21" r="21" fill="url(#b)"/>
    </mask>
    <g mask="url(#c)">
      <circle cx="21" cy="21" r="21" fill="#34EDB3"/>
      <circle cx="21" cy="21" r="18.2" fill="#fff"/>
    </g>
    <circle cx="21" cy="21" r="16.1" fill="#06061B"/>
    <circle cx="21" cy="21" r="16.1" fill="#06061B"/>
    <path fill="#fff" d="M15.313 26.1q1.008 0 1.512-.462.504-.483.504-1.512v-2.142h-1.995V19.82h1.995v-1.89q0-.987.315-1.785a3.9 3.9 0 0 1 .882-1.386 4 4 0 0 1 1.365-.882 4.8 4.8 0 0 1 1.785-.315q.882 0 1.638.273.777.273 1.344.798t.882 1.26q.336.735.336 1.638H23.25q0-.714-.4-1.197-.398-.504-1.175-.504-.861 0-1.281.546t-.42 1.428v2.016h3.003v2.163h-3.003v2.163q0 .272-.042.567a2 2 0 0 1-.168.567q-.105.273-.294.483a.95.95 0 0 1-.483.252v.042h3.38q.988 0 1.387-.462.42-.462.42-1.428h2.499q0 2.1-1.092 3.17-1.092 1.072-3.171 1.072h-7.098z"/>
  </g>
  <defs>
    <linearGradient id="b" x1="21" x2="21" y1="0" y2="61.409" gradientUnits="userSpaceOnUse">
      <stop stop-color="#08021E"/>
      <stop offset="1" stop-color="#1F0777"/>
    </linearGradient>
    <clipPath id="a">
      <path fill="#fff" d="M0 0h42v42H0z"/>
    </clipPath>
  </defs>
</svg>
