<svg width="300" height="300" viewBox="0 0 300 300" fill="none" xmlns="http://www.w3.org/2000/svg"><path d="M150 300c82.843 0 150-67.157 150-150S232.843 0 150 0 0 67.157 0 150s67.157 150 150 150z" fill="#10BA97"/><path d="M200 208.607c-4.28 0-8.02-.84-11.22-2.52-3.24-1.68-5.74-4.08-7.5-7.2-1.76-3.16-2.64-6.86-2.64-11.1 0-3.32.64-6.3 1.92-8.94 1.28-2.64 3.08-4.76 5.4-6.36 2.32-1.64 4.98-2.64 7.98-3v8.88c-2.36.56-4.22 1.68-5.58 3.36-1.4 1.68-2.1 3.78-2.1 6.3 0 2.32.58 4.34 1.74 6.06 1.16 1.72 2.78 3.04 4.86 3.96 2.08.92 4.46 1.38 7.14 1.38 4.12 0 7.44-1 9.96-3 2.52-2.04 3.78-4.84 3.78-8.4 0-2.6-.7-4.9-2.1-6.9-1.44-2-3.54-3.2-6.3-3.6h-.54v10.44h-7.14v-18.78H221v6.24l-5.22.96c1.64 1.24 2.98 2.9 4.02 4.98 1.04 2.08 1.56 4.5 1.56 7.26 0 3.96-.88 7.46-2.64 10.5-1.76 3-4.26 5.34-7.5 7.02-3.24 1.64-6.98 2.46-11.22 2.46zm-21-62.581c0-4.88.96-8.66 2.88-11.34 1.92-2.68 4.64-4.02 8.16-4.02 2.6 0 4.7.72 6.3 2.16 1.6 1.44 2.64 3.48 3.12 6.12.4-3.12 1.4-5.52 3-7.2 1.6-1.72 3.84-2.58 6.72-2.58 3.68 0 6.58 1.4 8.7 4.2 2.08 2.8 3.12 6.76 3.12 11.88v16.74h-42v-15.96zm17.28 6.96v-7.2c0-1.92-.46-3.42-1.38-4.5-.92-1.08-2.16-1.62-3.72-1.62s-2.8.54-3.72 1.62c-.92 1.08-1.38 2.58-1.38 4.5v7.2h10.2zm17.58 0v-7.8c0-2.16-.46-3.82-1.38-4.98-.92-1.2-2.2-1.8-3.84-1.8-1.72 0-3.04.6-3.96 1.8-.96 1.2-1.44 2.86-1.44 4.98v7.8h10.62zM179 106.097c0-3 .58-5.64 1.74-7.92 1.12-2.32 2.74-4.1 4.86-5.34 2.12-1.28 4.58-1.92 7.38-1.92s5.26.64 7.38 1.92c2.08 1.24 3.7 3.02 4.86 5.34 1.12 2.28 1.68 4.92 1.68 7.92v8.1H221v9h-42v-17.1zm20.4 8.1v-7.26c0-2.12-.58-3.8-1.74-5.04-1.16-1.24-2.72-1.86-4.68-1.86-2 0-3.58.62-4.74 1.86-1.16 1.24-1.74 2.92-1.74 5.04v7.26h12.9z" fill="#1E1A31"/><path opacity=".5" fill-rule="evenodd" clip-rule="evenodd" d="M81.424 208.528l-12.484-8.906 78.517-109.094 12.483 8.906-78.516 109.094z" fill="#1E1A31"/><path fill-rule="evenodd" clip-rule="evenodd" d="M121.868 142.349h4.191c19.298 0 34.941 15.592 34.941 34.826C161 196.408 145.357 212 126.059 212H74.676c-4.24 0-7.676-3.425-7.676-7.651 0-4.225 3.437-7.65 7.676-7.65h51.383c10.819 0 19.589-8.741 19.589-19.524 0-10.783-8.77-19.524-19.589-19.524h-24.118C82.643 157.651 67 142.059 67 122.825 67 103.592 82.643 88 101.941 88h51.383c4.239 0 7.676 3.425 7.676 7.65 0 4.226-3.437 7.651-7.676 7.651h-51.383c-10.82 0-19.59 8.741-19.59 19.524 0 10.783 8.77 19.524 19.59 19.524h19.927z" fill="#1E1A31"/></svg>