<svg width="480" height="480" viewBox="0 0 480 480" fill="none" xmlns="http://www.w3.org/2000/svg"><mask id="mask0-385257" maskUnits="userSpaceOnUse" x="0" y="0" width="480" height="480"><circle cx="240" cy="240" r="240" fill="url(#paint0_linear-136787)"/></mask><g mask="url(#mask0-385257)"><circle cx="240" cy="240" r="240" fill="#31D8A4"/><circle cx="240" cy="240" r="208" fill="#fff"/></g><circle cx="240" cy="240" r="184" fill="#0E052F"/><path d="M175 298.28c7.68 0 13.44-1.76 17.28-5.28 3.84-3.68 5.76-9.44 5.76-17.28v-24.48h-22.8v-24.72h22.8v-21.6c0-7.52 1.2-14.32 3.6-20.4 2.4-6.24 5.76-11.52 10.08-15.84s9.52-7.68 15.6-10.08c6.08-2.4 12.88-3.6 20.4-3.6 6.72 0 12.96 1.04 18.72 3.12 5.92 2.08 11.04 5.12 15.36 9.12 4.32 4 7.68 8.8 10.08 14.4 2.56 5.6 3.84 11.84 3.84 18.72h-30c0-5.44-1.52-10-4.56-13.68-3.04-3.84-7.52-5.76-13.44-5.76-6.56 0-11.44 2.08-14.64 6.24-3.2 4.16-4.8 9.6-4.8 16.32v23.04h34.32v24.72h-34.32v24.72c0 2.08-.16 4.24-.48 6.48-.32 2.24-.96 4.4-1.92 6.48a17.63 17.63 0 01-3.36 5.52c-1.44 1.44-3.28 2.4-5.52 2.88v.48h38.64c7.52 0 12.8-1.76 15.84-5.28 3.2-3.52 4.8-8.96 4.8-16.32h28.56c0 16-4.16 28.08-12.48 36.24-8.32 8.16-20.4 12.24-36.24 12.24H175v-26.4z" fill="#fff"/><defs><linearGradient id="paint0_linear-136787" x1="240" y1="0" x2="240" y2="701.818" gradientUnits="userSpaceOnUse"><stop stop-color="#08021E"/><stop offset="1" stop-color="#1F0777"/></linearGradient></defs></svg>