<svg xmlns="http://www.w3.org/2000/svg" width="42" height="42" fill="none"><g clip-path="url(#a)"><mask id="c" width="42" height="42" x="0" y="0" maskUnits="userSpaceOnUse" style="mask-type:alpha"><circle cx="21" cy="21" r="21" fill="url(#b)"/></mask><g mask="url(#c)"><circle cx="21" cy="21" r="21" fill="#34EDB3"/><circle cx="21" cy="21" r="18.2" fill="#fff"/></g><circle cx="21" cy="21" r="16.1" fill="#06061B"/><g clip-path="url(#d)"><circle cx="21" cy="21" r="16.1" fill="#E2E2F0"/><g clip-path="url(#e)"><path fill="url(#f)" d="M32.375 27.162l-11.12-16.261-11.192 16.261h15.583l-4.391-6.203-2.196 3.258h-2.338l4.534-6.507 6.506 9.452h4.614z"/></g></g></g><defs><clipPath id="a"><path fill="#fff" d="M0 0h42v42H0z"/></clipPath><clipPath id="d"><rect width="32.2" height="32.2" x="4.9" y="4.9" fill="#fff" rx="16.1"/></clipPath><clipPath id="e"><path fill="#fff" d="M10.063 7.875h22.313v22.313H10.063z"/></clipPath><linearGradient id="b" x1="21" x2="21" y1="0" y2="61.409" gradientUnits="userSpaceOnUse"><stop stop-color="#08021E"/><stop offset="1" stop-color="#1F0777"/></linearGradient><linearGradient id="f" x1="19.639" x2="12.687" y1="9.964" y2="27.671" gradientUnits="userSpaceOnUse"><stop stop-color="#03D1CF" stop-opacity=".988"/><stop offset="1" stop-color="#4E09F8"/></linearGradient></defs></svg>