<svg xmlns="http://www.w3.org/2000/svg" width="42" height="42" fill="none"><g clip-path="url(#a)"><mask id="c" width="42" height="42" x="0" y="0" maskUnits="userSpaceOnUse" style="mask-type:alpha"><circle cx="21" cy="21" r="21" fill="url(#b)"/></mask><g mask="url(#c)"><circle cx="21" cy="21" r="21" fill="#34EDB3"/><circle cx="21" cy="21" r="18.2" fill="#fff"/></g><circle cx="21" cy="21" r="16.1" fill="#06061B"/><circle cx="21" cy="21" r="16.1" fill="#fff"/><path fill="#4285F4" d="M33.023 21.272c0-1.007-.082-1.742-.26-2.504h-11.5v4.546h6.75c-.136 1.13-.87 2.831-2.504 3.974l-.023.152 3.637 2.818.252.025c2.314-2.137 3.648-5.281 3.648-9.01"/><path fill="#34A853" d="M21.262 33.25c3.308 0 6.085-1.089 8.113-2.967l-3.866-2.995c-1.034.722-2.423 1.225-4.247 1.225-3.239 0-5.988-2.137-6.968-5.09l-.144.012-3.781 2.926-.05.138c2.015 4.002 6.152 6.751 10.943 6.751Z"/><path fill="#FBBC05" d="M14.294 23.423A7.541 7.541 0 0 1 13.885 21c0-.844.15-1.66.395-2.423l-.007-.162-3.829-2.973-.125.06A12.262 12.262 0 0 0 9.013 21c0 1.974.476 3.838 1.306 5.499l3.975-3.076"/><path fill="#EB4335" d="M21.262 13.487c2.3 0 3.852.993 4.737 1.824l3.457-3.376C27.333 9.961 24.57 8.75 21.262 8.75c-4.79 0-8.928 2.75-10.943 6.751l3.961 3.076c.994-2.953 3.743-5.09 6.982-5.09"/></g><defs><linearGradient id="b" x1="21" x2="21" y1="0" y2="61.409" gradientUnits="userSpaceOnUse"><stop stop-color="#08021E"/><stop offset="1" stop-color="#1F0777"/></linearGradient><clipPath id="a"><path fill="#fff" d="M0 0h42v42H0z"/></clipPath></defs></svg>