<svg width="42" height="42" viewBox="0 0 42 42" fill="none" xmlns="http://www.w3.org/2000/svg">
<g clip-path="url(#clip0_7277_57844)">
<mask id="mask0_7277_57844" style="mask-type:alpha" maskUnits="userSpaceOnUse" x="0" y="0" width="42" height="42">
<circle cx="21" cy="21" r="21" fill="url(#paint0_linear_7277_57844)"/>
</mask>
<g mask="url(#mask0_7277_57844)">
<circle cx="21" cy="21" r="21" fill="#34EDB3"/>
<circle cx="21" cy="21" r="18.2" fill="white"/>
</g>
<circle cx="21" cy="21" r="16.1" fill="#06061B"/>
<circle cx="21" cy="21" r="16.1" fill="white"/>
<path d="M33.0225 21.2722C33.0225 20.265 32.9408 19.53 32.7639 18.7678H21.2625V23.3139H28.0136C27.8775 24.4436 27.1425 26.145 25.5091 27.2883L25.4862 27.4405L29.1228 30.2577L29.3747 30.2828C31.6886 28.1458 33.0225 25.0017 33.0225 21.2722" fill="#4285F4"/>
<path d="M21.2625 33.2501C24.57 33.2501 27.3466 32.1611 29.3747 30.2828L25.5091 27.2883C24.4747 28.0097 23.0864 28.5133 21.2625 28.5133C18.0231 28.5133 15.2737 26.3765 14.2936 23.4229L14.1499 23.4351L10.3686 26.3614L10.3192 26.4989C12.3336 30.5005 16.4714 33.2501 21.2625 33.2501Z" fill="#34A853"/>
<path d="M14.2936 23.4228C14.035 22.6606 13.8853 21.8439 13.8853 21C13.8853 20.1561 14.035 19.3395 14.28 18.5773L14.2731 18.4149L10.4444 15.4415L10.3191 15.5011C9.48891 17.1617 9.01251 19.0264 9.01251 21C9.01251 22.9737 9.48891 24.8383 10.3191 26.4989L14.2936 23.4228" fill="#FBBC05"/>
<path d="M21.2625 13.4866C23.5627 13.4866 25.1144 14.4802 25.9991 15.3106L29.4563 11.935C27.3331 9.96139 24.57 8.75 21.2625 8.75C16.4714 8.75 12.3336 11.4994 10.3192 15.5011L14.28 18.5772C15.2737 15.6236 18.0231 13.4866 21.2625 13.4866" fill="#EB4335"/>
</g>
<defs>
<linearGradient id="paint0_linear_7277_57844" x1="21" y1="0" x2="21" y2="61.4091" gradientUnits="userSpaceOnUse">
<stop stop-color="#08021E"/>
<stop offset="1" stop-color="#1F0777"/>
</linearGradient>
<clipPath id="clip0_7277_57844">
<rect width="42" height="42" fill="white"/>
</clipPath>
</defs>
</svg>
