<svg width="256" height="256" viewBox="0 0 256 256" fill="none" xmlns="http://www.w3.org/2000/svg">
<mask id="mask0-592480" mask-type="alpha" maskUnits="userSpaceOnUse" x="0" y="0" width="256" height="256">
<circle cx="128" cy="128" r="128" fill="url(#paint0_linear-610945)"/>
</mask>
<g mask="url(#mask0-592480)">
<circle cx="128" cy="128" r="128" fill="#31D8A4"/>
<circle cx="128" cy="128" r="110.933" fill="white"/>
</g>
<circle cx="128.001" cy="128" r="98.1333" fill="white"/>
<path d="M201.28 129.66C201.28 123.52 200.781 119.04 199.703 114.395H129.6V142.104H170.749C169.92 148.99 165.44 159.36 155.484 166.329L155.344 167.257L177.51 184.428L179.045 184.581C193.149 171.556 201.28 152.391 201.28 129.66Z" fill="#4285F4"/>
<path d="M129.601 202.667C149.76 202.667 166.685 196.029 179.047 184.581L155.485 166.329C149.18 170.726 140.718 173.795 129.601 173.795C109.856 173.795 93.0974 160.77 87.1235 142.768L86.2478 142.842L63.1998 160.679L62.8984 161.517C75.1768 185.908 100.398 202.667 129.601 202.667Z" fill="#34A853"/>
<path d="M87.1229 142.767C85.5466 138.121 84.6344 133.143 84.6344 128C84.6344 122.856 85.5466 117.878 87.0399 113.232L86.9982 112.243L63.6614 94.1191L62.8978 94.4823C57.8373 104.604 54.9336 115.97 54.9336 128C54.9336 140.029 57.8373 151.395 62.8978 161.516L87.1229 142.767Z" fill="#FBBC05"/>
<path d="M129.601 82.2039C143.621 82.2039 153.079 88.2602 158.472 93.3212L179.544 72.7463C166.602 60.7167 149.76 53.333 129.601 53.333C100.398 53.333 75.1768 70.0914 62.8984 94.4823L87.0405 113.232C93.0974 95.2292 109.856 82.2039 129.601 82.2039Z" fill="#EB4335"/>
<defs>
<linearGradient id="paint0_linear-610945" x1="128" y1="0" x2="128" y2="374.303" gradientUnits="userSpaceOnUse">
<stop stop-color="#08021E"/>
<stop offset="1" stop-color="#1F0777"/>
</linearGradient>
</defs>
</svg>