<svg xmlns="http://www.w3.org/2000/svg" width="42" height="42" fill="none"><g clip-path="url(#a)"><mask id="c" width="43" height="42" x="0" y="0" maskUnits="userSpaceOnUse" style="mask-type:alpha"><ellipse cx="21.148" cy="21" fill="url(#b)" rx="21.148" ry="21"/></mask><g mask="url(#c)"><ellipse cx="21.148" cy="21" fill="#34EDB3" rx="21.148" ry="21"/><ellipse cx="21.148" cy="21" fill="#fff" rx="18.328" ry="18.2"/></g><ellipse cx="21.148" cy="21" fill="#06061B" rx="16.213" ry="16.1"/><ellipse cx="21.148" cy="21" fill="#F5F5FF" rx="16.213" ry="16.1"/><path fill="url(#d)" d="M9.923 11.535c.187-.227.38-.447.574-.668.007-.007.03-.015.037-.022.015-.022.045-.037.067-.059l.015-.022c.134-.124.283-.257.447-.381a7.034 7.034 0 011.854-1.006c2.085-.72 4.4-.28 6.218 1.417 2.539 2.342 2.308 6.123.282 8.635-2.561 3.745-6.954 8.965-.87 13.642 1.094.845 1.906 1.535 5.353 2.519-2.256.411-4.348.279-6.672-.301-1.645-.918-4.237-2.879-5.115-5.53-1.333-4.016 2.345-10.03 4.117-12.342 2.436-3.202-1.504-6.667-4.415-2.798-1.505 2.02-4.163 7.725-3.24 11.962.537 2.4 1.259 4.148 4.111 6.557a12.958 12.958 0 01-1.541-1.05C4.525 26 5.292 16.587 9.923 11.534z"/><path fill="url(#e)" d="M32.486 30.759c-.186.227-.38.447-.573.668-.008.007-.03.014-.038.022-.015.022-.044.036-.067.058l-.014.022a4.58 4.58 0 01-.447.375 7.032 7.032 0 01-1.855 1.006c-2.085.72-4.4.279-6.217-1.417-2.54-2.343-2.309-6.124-.283-8.635 2.561-3.745 6.955-8.966.871-13.643-1.095-.844-1.906-1.534-5.354-2.518 2.256-.412 4.349-.28 6.672.3 1.646.918 4.237 2.879 5.116 5.53 1.333 4.016-2.346 10.03-4.118 12.343-2.435 3.201 1.504 6.667 4.416 2.797 1.519-2.019 4.177-7.724 3.254-11.961-.536-2.401-1.259-4.149-4.11-6.557a12.96 12.96 0 011.54 1.05c6.606 6.094 5.839 15.508 1.207 20.56z"/></g><defs><linearGradient id="b" x1="21.148" x2="21.148" y1="0" y2="61.409" gradientUnits="userSpaceOnUse"><stop stop-color="#08021E"/><stop offset="1" stop-color="#1F0777"/></linearGradient><linearGradient id="d" x1="6.312" x2="36.098" y1="22.442" y2="22.442" gradientUnits="userSpaceOnUse"><stop stop-color="#0082FA"/><stop offset="1" stop-color="#00F2FE"/></linearGradient><linearGradient id="e" x1="6.312" x2="36.097" y1="19.852" y2="19.852" gradientUnits="userSpaceOnUse"><stop stop-color="#0082FA"/><stop offset="1" stop-color="#00F2FE"/></linearGradient><clipPath id="a"><path fill="#fff" d="M0 0h42v42H0z"/></clipPath></defs></svg>