<svg width="42" height="42" fill="none" xmlns="http://www.w3.org/2000/svg">
  <g clip-path="url(#a)">
    <mask id="c" width="42" height="42" x="0" y="0" maskUnits="userSpaceOnUse" style="mask-type:alpha">
      <circle cx="21" cy="21" r="21" fill="url(#b)"/>
    </mask>
    <g mask="url(#c)">
      <circle cx="21" cy="21" r="21" fill="#34EDB3"/>
      <circle cx="21" cy="21" r="18.2" fill="#fff"/>
    </g>
    <circle cx="21" cy="21" r="16.1" fill="#06061B"/>
    <circle cx="21.1" cy="21.1" r="16.1" fill="#06061B"/>
    <path fill="#fff" d="M16.435 20.153h1.169a7 7 0 0 1 .312-.01q.434 0 .837-.01t.765-.111c.363-.101.47-.175.686-.323a2.3 2.3 0 0 0 .594-.665h-4.827q.12-.293.312-.645a23 23 0 0 1 .857-1.431h3.296q0-.13-.131-.302a1.5 1.5 0 0 0-.323-.323 1.8 1.8 0 0 0-.443-.262 1 1 0 0 0-.444-.11H15.85q.08-.121.232-.333.151-.222.332-.474t.363-.514l.343-.484q.161-.221.262-.352a1 1 0 0 1 .12-.141h8.073q.01.01-.06.181t-.182.423q-.1.252-.231.555a27 27 0 0 1-.424.967l-.08.171h-1.119q.021.06.06.202.051.131.101.292.05.162.091.302.04.142.05.202h2.64l-1.239 2.076h-1.31q-.171.806-.554 1.34a3.4 3.4 0 0 1-.907.877 4.8 4.8 0 0 1-1.139.524 10 10 0 0 1-1.23.283l4.112 5.663v.817h-2.842l-4.877-6.5z"/>
  </g>
  <defs>
    <linearGradient id="b" x1="21" x2="21" y1="0" y2="61.409" gradientUnits="userSpaceOnUse">
      <stop stop-color="#08021E"/>
      <stop offset="1" stop-color="#1F0777"/>
    </linearGradient>
    <clipPath id="a">
      <path fill="#fff" d="M0 0h42v42H0z"/>
    </clipPath>
  </defs>
</svg>
