<svg xmlns="http://www.w3.org/2000/svg" width="42" height="42" fill="none"><g clip-path="url(#a)"><mask id="c" width="42" height="42" x="0" y="0" maskUnits="userSpaceOnUse" style="mask-type:alpha"><circle cx="21" cy="21" r="21" fill="url(#b)"/></mask><g mask="url(#c)"><circle cx="21" cy="21" r="21" fill="#34EDB3"/><circle cx="21" cy="21" r="18.2" fill="#fff"/></g><circle cx="21" cy="21" r="16.1" fill="#06061B"/><circle cx="21.1" cy="21.1" r="16.1" fill="#06061B"/><path fill="#fff" d="M16.435 20.153h1.169a7.32 7.32 0 0 1 .312-.01c.289 0 .568-.004.837-.01.268-.007.523-.044.765-.111s.47-.175.686-.323c.215-.154.413-.376.594-.665h-4.827c.08-.195.185-.41.312-.645a22.69 22.69 0 0 1 .857-1.431h3.296c0-.087-.044-.188-.131-.302a1.465 1.465 0 0 0-.323-.323 1.838 1.838 0 0 0-.443-.262 1.028 1.028 0 0 0-.444-.11H15.85c.054-.081.131-.192.232-.333.1-.148.212-.306.332-.474.121-.168.242-.34.363-.514l.343-.484c.107-.147.195-.265.262-.352a.888.888 0 0 1 .12-.141h8.073c.007.006-.013.067-.06.181-.047.114-.108.255-.182.423-.067.168-.144.353-.231.555a27.434 27.434 0 0 1-.424.967l-.08.171h-1.119c.014.04.034.108.06.202.034.087.068.185.101.292.034.108.064.209.091.302.027.095.044.162.05.202h2.64l-1.239 2.076h-1.31c-.114.538-.299.984-.554 1.34a3.406 3.406 0 0 1-.907.877 4.75 4.75 0 0 1-1.139.524 9.58 9.58 0 0 1-1.23.283l4.112 5.663v.817h-2.842l-4.877-6.5v-1.885Z"/></g><defs><linearGradient id="b" x1="21" x2="21" y1="0" y2="61.409" gradientUnits="userSpaceOnUse"><stop stop-color="#08021E"/><stop offset="1" stop-color="#1F0777"/></linearGradient><clipPath id="a"><path fill="#fff" d="M0 0h42v42H0z"/></clipPath></defs></svg>