<svg width="480" height="480" viewBox="0 0 480 480" fill="none" xmlns="http://www.w3.org/2000/svg">
<mask id="mask0_748_33179" style="mask-type:alpha" maskUnits="userSpaceOnUse" x="0" y="0" width="480" height="480">
<circle cx="240" cy="240" r="240" fill="url(#paint0_linear_748_33179)"/>
</mask>
<g mask="url(#mask0_748_33179)">
<circle cx="240" cy="240" r="240" fill="#31D8A4"/>
<circle cx="239.997" cy="240" r="208" fill="white"/>
</g>
<circle cx="240" cy="240" r="184" fill="#0E052F"/>
<path d="M186.68 229.173C187.448 229.173 188.6 229.173 190.136 229.173C191.748 229.173 193.399 229.173 195.088 229.173C196.854 229.173 198.505 229.173 200.041 229.173C201.653 229.097 202.843 229.058 203.611 229.058C206.913 229.058 210.099 229.02 213.171 228.943C216.242 228.866 219.16 228.444 221.924 227.676C224.688 226.908 227.299 225.68 229.756 223.991C232.213 222.224 234.478 219.691 236.551 216.389H181.382C182.304 214.162 183.494 211.705 184.953 209.018C186.488 206.253 187.986 203.643 189.444 201.186C191.134 198.345 192.9 195.504 194.743 192.663H232.405C232.405 191.664 231.906 190.513 230.908 189.207C229.986 187.902 228.758 186.673 227.222 185.522C225.687 184.293 223.997 183.295 222.154 182.527C220.388 181.682 218.699 181.26 217.087 181.26H180C180.614 180.339 181.497 179.072 182.649 177.459C183.801 175.77 185.068 173.966 186.45 172.046C187.832 170.126 189.214 168.168 190.596 166.172C192.055 164.099 193.36 162.256 194.512 160.644C195.741 158.954 196.739 157.611 197.507 156.612C198.351 155.537 198.812 155 198.889 155H291.145C291.222 155.077 290.991 155.768 290.454 157.073C289.916 158.379 289.225 159.991 288.381 161.911C287.613 163.83 286.73 165.942 285.732 168.245C284.81 170.472 283.927 172.545 283.083 174.465C282.238 176.384 281.509 177.997 280.894 179.302C280.28 180.607 279.973 181.26 279.973 181.26H267.188C267.342 181.721 267.572 182.489 267.879 183.564C268.263 184.562 268.647 185.675 269.031 186.904C269.415 188.132 269.761 189.284 270.068 190.359C270.375 191.434 270.567 192.202 270.644 192.663H300.82L286.653 216.389H271.68C270.375 222.532 268.263 227.638 265.346 231.707C262.428 235.777 258.972 239.117 254.98 241.728C250.987 244.262 246.649 246.258 241.965 247.717C237.358 249.099 232.674 250.174 227.913 250.942L274.905 315.671V325H242.425L186.68 250.711V229.173Z" fill="white"/>
<defs>
<linearGradient id="paint0_linear_748_33179" x1="240" y1="0" x2="240" y2="701.818" gradientUnits="userSpaceOnUse">
<stop stop-color="#08021E"/>
<stop offset="1" stop-color="#1F0777"/>
</linearGradient>
</defs>
</svg>
