<svg width="300" height="300" viewBox="0 0 300 300" fill="none" xmlns="http://www.w3.org/2000/svg"><path d="M150 300c82.843 0 150-67.157 150-150S232.843 0 150 0 0 67.157 0 150s67.157 150 150 150z" fill="#10BA97"/><path d="M179 179.35h30.84c3.52 0 6.26.98 8.22 2.94 1.96 1.92 2.94 4.66 2.94 8.22v7.74h-7.8v-4.98c0-1.76-.4-3.02-1.2-3.78-.84-.76-2.14-1.14-3.9-1.14H179v-9zm0-24.327c0-3 .58-5.64 1.74-7.92 1.12-2.32 2.74-4.1 4.86-5.34 2.12-1.28 4.58-1.92 7.38-1.92s5.26.64 7.38 1.92c2.08 1.24 3.7 3.02 4.86 5.34 1.12 2.28 1.68 4.92 1.68 7.92v8.1H221v9h-42v-17.1zm20.4 8.1v-7.26c0-2.12-.58-3.8-1.74-5.04-1.16-1.24-2.72-1.86-4.68-1.86-2 0-3.58.62-4.74 1.86-1.16 1.24-1.74 2.92-1.74 5.04v7.26h12.9zm-20.4-22.85v-10.5l17.22-9.42-17.22-9.9v-10.02l26.4 15.42H221v9h-15.6l-26.4 15.42z" fill="#1E1A31"/><path opacity=".5" fill-rule="evenodd" clip-rule="evenodd" d="M81.424 208.528l-12.484-8.906 78.517-109.094 12.483 8.906-78.516 109.094z" fill="#1E1A31"/><path fill-rule="evenodd" clip-rule="evenodd" d="M121.868 142.349h4.191c19.298 0 34.941 15.592 34.941 34.826C161 196.408 145.357 212 126.059 212H74.676c-4.24 0-7.676-3.425-7.676-7.651 0-4.225 3.437-7.65 7.676-7.65h51.383c10.819 0 19.589-8.741 19.589-19.524 0-10.783-8.77-19.524-19.589-19.524h-24.118C82.643 157.651 67 142.059 67 122.825 67 103.592 82.643 88 101.941 88h51.383c4.239 0 7.676 3.425 7.676 7.65 0 4.226-3.437 7.651-7.676 7.651h-51.383c-10.82 0-19.59 8.741-19.59 19.524 0 10.783 8.77 19.524 19.59 19.524h19.927z" fill="#1E1A31"/></svg>