<svg width="42" height="42" fill="none" xmlns="http://www.w3.org/2000/svg">
  <g clip-path="url(#a)">
    <mask id="c" width="42" height="42" x="0" y="0" maskUnits="userSpaceOnUse" style="mask-type:alpha">
      <circle cx="21" cy="21" r="21" fill="url(#b)"/>
    </mask>
    <g mask="url(#c)">
      <circle cx="21" cy="21" r="21" fill="#34EDB3"/>
      <circle cx="21" cy="21" r="18.2" fill="#fff"/>
    </g>
    <circle cx="21" cy="21" r="16.1" fill="#06061B"/>
    <circle cx="21" cy="21" r="16.1" fill="#06061B"/>
    <path fill="#fff" d="M29.2 21.424h-2.204l-.82 6.909H23.07l-1.03-6.91h-1.806l-1.134 6.91h-3.17l-.84-6.91h-2.226v-1.89h1.995l-.694-5.796h2.5l.482 5.796h1.723l.965-5.649h2.794l.902 5.65h1.639l.503-5.796h2.226l-.692 5.796H29.2zm-7.433-1.89-.588-3.927-.651 3.927zm-3.213 1.89h-1.24l.42 4.893zm6.447 0h-1.177l.756 4.85.42-4.85z"/>
  </g>
  <defs>
    <linearGradient id="b" x1="21" x2="21" y1="0" y2="61.409" gradientUnits="userSpaceOnUse">
      <stop stop-color="#08021E"/>
      <stop offset="1" stop-color="#1F0777"/>
    </linearGradient>
    <clipPath id="a">
      <path fill="#fff" d="M0 0h42v42H0z"/>
    </clipPath>
  </defs>
</svg>
