<svg width="42" height="42" fill="none" xmlns="http://www.w3.org/2000/svg">
  <g clip-path="url(#a)">
    <mask id="c" width="42" height="42" x="0" y="0" maskUnits="userSpaceOnUse" style="mask-type:alpha">
      <circle cx="21" cy="21" r="21" fill="url(#b)" transform="matrix(-1 0 0 1 42 0)"/>
    </mask>
    <g mask="url(#c)">
      <circle cx="21" cy="21" r="21" fill="#34EDB3" transform="matrix(-1 0 0 1 42 0)"/>
      <circle cx="18.2" cy="18.2" r="18.2" fill="#fff" transform="matrix(-1 0 0 1 39.2 2.8)"/>
    </g>
    <circle cx="16.1" cy="16.1" r="16.1" fill="#0B0B22" transform="matrix(-1 0 0 1 37.1 4.9)"/>
    <circle cx="21" cy="21" r="16.1" fill="#31CB9E"/>
    <path fill="#fff" fill-rule="evenodd" d="m22.306 9.399 5.974 4.388a.44.44 0 0 1-.052.751l-8.85 4.888 2.18-9.776a.475.475 0 0 1 .748-.251m6.16 16.604-8.74-5 8.74-5.002a.459.459 0 0 1 .699.394v9.21a.46.46 0 0 1-.467.464.46.46 0 0 1-.233-.066zm-6.167 6.602 5.981-4.388a.446.446 0 0 0-.049-.761l-8.854-4.888 2.181 9.775a.47.47 0 0 0 .741.27zM19.727 10.21l-2.273 10.613 2.245 10.62a.45.45 0 0 1-.7.458l-5.792-4.444a1.2 1.2 0 0 1-.472-.974V15.17a1.2 1.2 0 0 1 .472-.96l5.82-4.459a.451.451 0 0 1 .7.458z" clip-rule="evenodd"/>
  </g>
  <defs>
    <linearGradient id="b" x1="21" x2="21" y1="0" y2="61.409" gradientUnits="userSpaceOnUse">
      <stop stop-color="#08021E"/>
      <stop offset="1" stop-color="#1F0777"/>
    </linearGradient>
    <clipPath id="a">
      <path fill="#fff" d="M0 0h42v42H0z"/>
    </clipPath>
  </defs>
</svg>
