<svg width="42" height="42" viewBox="0 0 42 42" fill="none" xmlns="http://www.w3.org/2000/svg">
<g clip-path="url(#clip0_7277_58021)">
<mask id="mask0_7277_58021" style="mask-type:alpha" maskUnits="userSpaceOnUse" x="0" y="0" width="42" height="42">
<circle cx="21" cy="21" r="21" fill="url(#paint0_linear_7277_58021)"/>
</mask>
<g mask="url(#mask0_7277_58021)">
<circle cx="21" cy="21" r="21" fill="#34EDB3"/>
<circle cx="21" cy="21" r="18.2" fill="white"/>
</g>
<circle cx="21" cy="21" r="16.1" fill="#06061B"/>
<g clip-path="url(#clip1_7277_58021)">
<mask id="mask1_7277_58021" style="mask-type:luminance" maskUnits="userSpaceOnUse" x="4" y="4" width="34" height="34">
<path d="M21.0001 4.90002C29.8873 4.90002 37.1001 12.1128 37.1001 21C37.1001 29.8872 29.8873 37.1 21.0001 37.1C12.1129 37.1 4.90005 29.8872 4.90005 21C4.90005 12.1128 12.1129 4.90002 21.0001 4.90002Z" fill="white"/>
</mask>
<g mask="url(#mask1_7277_58021)">
<path d="M4.90005 4.90002L37.1001 37.1M37.1001 4.90002L4.90005 37.1" stroke="black" stroke-miterlimit="22.9256"/>
</g>
<path d="M21.0001 4.90002C29.8873 4.90002 37.1001 12.1128 37.1001 21C37.1001 29.8872 29.8873 37.1 21.0001 37.1C12.1129 37.1 4.90005 29.8872 4.90005 21C4.90005 12.1128 12.1129 4.90002 21.0001 4.90002Z" fill="url(#paint1_linear_7277_58021)"/>
<mask id="mask2_7277_58021" style="mask-type:luminance" maskUnits="userSpaceOnUse" x="12" y="19" width="18" height="15">
<path d="M20.9872 23.8594L13.8131 19.7635L13.6199 20.0598C11.4174 23.4472 11.9068 27.8779 14.8048 30.7244C18.218 34.0732 23.7564 34.0732 27.1696 30.7244C30.0676 27.8779 30.5571 23.4472 28.3546 20.0598L28.1614 19.7635L20.9872 23.8594Z" fill="white"/>
</mask>
<g mask="url(#mask2_7277_58021)">
<path d="M20.987 33.4936C25.8171 33.4936 29.7326 29.5781 29.7326 24.7481C29.7326 19.9181 25.8171 16.0026 20.987 16.0026C16.157 16.0026 12.2415 19.9181 12.2415 24.7481C12.2415 29.5781 16.157 33.4936 20.987 33.4936Z" fill="url(#paint2_radial_7277_58021)"/>
</g>
<path d="M20.9871 14.7146L14.8047 18.2437L20.9871 21.7728L27.1695 18.2437L20.9871 14.7146Z" fill="url(#paint3_radial_7277_58021)"/>
<path d="M21.0003 15.6292L13.8133 19.7636L20.9874 23.8595L28.1487 19.7636L21.0003 15.6292Z" fill="url(#paint4_radial_7277_58021)"/>
<path d="M20.9871 8.76404L14.8047 18.2437L20.9871 21.7728V8.76404Z" fill="url(#paint5_linear_7277_58021)"/>
<path d="M20.9872 21.7728L27.1696 18.2437L20.9872 8.76404V21.7728Z" fill="url(#paint6_linear_7277_58021)"/>
</g>
</g>
<defs>
<linearGradient id="paint0_linear_7277_58021" x1="21" y1="0" x2="21" y2="61.4091" gradientUnits="userSpaceOnUse">
<stop stop-color="#08021E"/>
<stop offset="1" stop-color="#1F0777"/>
</linearGradient>
<linearGradient id="paint1_linear_7277_58021" x1="21.0001" y1="4.90002" x2="21.0001" y2="37.1" gradientUnits="userSpaceOnUse">
<stop stop-color="#F89791"/>
<stop offset="1" stop-color="#F7C882"/>
</linearGradient>
<radialGradient id="paint2_radial_7277_58021" cx="0" cy="0" r="1" gradientUnits="userSpaceOnUse" gradientTransform="translate(20.9705 31.9063) rotate(-90.4664) scale(11.6792 13.9209)">
<stop stop-color="#C5C6AB"/>
<stop offset="1" stop-color="#7985AB"/>
</radialGradient>
<radialGradient id="paint3_radial_7277_58021" cx="0" cy="0" r="1" gradientUnits="userSpaceOnUse" gradientTransform="translate(20.9871 18.2437) scale(0.30912)">
<stop stop-color="#0066FF" stop-opacity="0"/>
<stop offset="1" stop-color="#00C2FF" stop-opacity="0.4"/>
</radialGradient>
<radialGradient id="paint4_radial_7277_58021" cx="0" cy="0" r="1" gradientUnits="userSpaceOnUse" gradientTransform="translate(20.981 19.7443) scale(0.360743)">
<stop stop-color="#AEE6F9" stop-opacity="0.8588"/>
<stop offset="1" stop-color="#C8D6DC"/>
</radialGradient>
<linearGradient id="paint5_linear_7277_58021" x1="17.8959" y1="8.12004" x2="17.8959" y2="21" gradientUnits="userSpaceOnUse">
<stop stop-color="#77D4FF"/>
<stop offset="1" stop-color="#93D6F2" stop-opacity="0.898"/>
</linearGradient>
<linearGradient id="paint6_linear_7277_58021" x1="24.0784" y1="8.12004" x2="24.0784" y2="21" gradientUnits="userSpaceOnUse">
<stop stop-color="#506AAC"/>
<stop offset="1" stop-color="#96CFEF" stop-opacity="0.8196"/>
</linearGradient>
<clipPath id="clip0_7277_58021">
<rect width="42" height="42" fill="white"/>
</clipPath>
<clipPath id="clip1_7277_58021">
<rect x="4.90002" y="4.90002" width="32.2" height="32.2" rx="16.1" fill="white"/>
</clipPath>
</defs>
</svg>
