<svg width="42" height="42" fill="none" xmlns="http://www.w3.org/2000/svg">
  <g clip-path="url(#a)">
    <mask id="c" width="42" height="42" x="0" y="0" maskUnits="userSpaceOnUse" style="mask-type:alpha">
      <circle cx="21" cy="21" r="21" fill="url(#b)"/>
    </mask>
    <g mask="url(#c)">
      <circle cx="21" cy="21" r="21" fill="#34EDB3"/>
      <circle cx="21" cy="21" r="18.2" fill="#fff"/>
    </g>
    <circle cx="21" cy="21" r="16.1" fill="#06061B"/>
    <g clip-path="url(#d)">
      <mask id="e" width="34" height="34" x="4" y="4" maskUnits="userSpaceOnUse" style="mask-type:luminance">
        <path fill="#fff" d="M21 4.9c8.887 0 16.1 7.213 16.1 16.1S29.887 37.1 21 37.1 4.9 29.887 4.9 21 12.113 4.9 21 4.9"/>
      </mask>
      <g mask="url(#e)">
        <path stroke="#000" stroke-miterlimit="22.926" d="m4.9 4.9 32.2 32.2m0-32.2L4.9 37.1"/>
      </g>
      <path fill="url(#f)" d="M21 4.9c8.887 0 16.1 7.213 16.1 16.1S29.887 37.1 21 37.1 4.9 29.887 4.9 21 12.113 4.9 21 4.9"/>
      <mask id="g" width="18" height="15" x="12" y="19" maskUnits="userSpaceOnUse" style="mask-type:luminance">
        <path fill="#fff" d="m20.987 23.86-7.174-4.096-.193.296c-2.203 3.387-1.713 7.818 1.185 10.664 3.413 3.35 8.951 3.35 12.365 0 2.898-2.846 3.387-7.277 1.185-10.664l-.194-.296-7.174 4.095z"/>
      </mask>
      <g mask="url(#g)">
        <path fill="url(#h)" d="M20.987 33.494a8.746 8.746 0 1 0 0-17.491 8.746 8.746 0 0 0 0 17.49z"/>
      </g>
      <path fill="url(#i)" d="m20.987 14.715-6.182 3.529 6.182 3.529 6.183-3.53z"/>
      <path fill="url(#j)" d="m21 15.63-7.187 4.134 7.174 4.096 7.162-4.096L21 15.629z"/>
      <path fill="url(#k)" d="m20.987 8.764-6.182 9.48 6.182 3.529z"/>
      <path fill="url(#l)" d="m20.987 21.773 6.183-3.53-6.183-9.479z"/>
    </g>
  </g>
  <defs>
    <linearGradient id="b" x1="21" x2="21" y1="0" y2="61.409" gradientUnits="userSpaceOnUse">
      <stop stop-color="#08021E"/>
      <stop offset="1" stop-color="#1F0777"/>
    </linearGradient>
    <linearGradient id="f" x1="21" x2="21" y1="4.9" y2="37.1" gradientUnits="userSpaceOnUse">
      <stop stop-color="#F89791"/>
      <stop offset="1" stop-color="#F7C882"/>
    </linearGradient>
    <linearGradient id="k" x1="17.896" x2="17.896" y1="8.12" y2="21" gradientUnits="userSpaceOnUse">
      <stop stop-color="#77D4FF"/>
      <stop offset="1" stop-color="#93D6F2" stop-opacity=".898"/>
    </linearGradient>
    <linearGradient id="l" x1="24.078" x2="24.078" y1="8.12" y2="21" gradientUnits="userSpaceOnUse">
      <stop stop-color="#506AAC"/>
      <stop offset="1" stop-color="#96CFEF" stop-opacity=".82"/>
    </linearGradient>
    <radialGradient id="h" cx="0" cy="0" r="1" gradientTransform="matrix(-.09507 -11.67881 13.92044 -.11332 20.97 31.906)" gradientUnits="userSpaceOnUse">
      <stop stop-color="#C5C6AB"/>
      <stop offset="1" stop-color="#7985AB"/>
    </radialGradient>
    <radialGradient id="i" cx="0" cy="0" r="1" gradientTransform="translate(20.987 18.244)scale(.30912)" gradientUnits="userSpaceOnUse">
      <stop stop-color="#06F" stop-opacity="0"/>
      <stop offset="1" stop-color="#00C2FF" stop-opacity=".4"/>
    </radialGradient>
    <radialGradient id="j" cx="0" cy="0" r="1" gradientTransform="translate(20.981 19.744)scale(.36074)" gradientUnits="userSpaceOnUse">
      <stop stop-color="#AEE6F9" stop-opacity=".859"/>
      <stop offset="1" stop-color="#C8D6DC"/>
    </radialGradient>
    <clipPath id="a">
      <path fill="#fff" d="M0 0h42v42H0z"/>
    </clipPath>
    <clipPath id="d">
      <rect width="32.2" height="32.2" x="4.9" y="4.9" fill="#fff" rx="16.1"/>
    </clipPath>
  </defs>
</svg>
