<svg width="42" height="42" fill="none" xmlns="http://www.w3.org/2000/svg">
  <g clip-path="url(#a)">
    <mask id="c" width="42" height="42" x="0" y="0" maskUnits="userSpaceOnUse" style="mask-type:alpha">
      <circle cx="21" cy="21" r="21" fill="url(#b)"/>
    </mask>
    <g mask="url(#c)">
      <circle cx="21" cy="21" r="21" fill="#34EDB3"/>
      <circle cx="21" cy="21" r="18.2" fill="#fff"/>
    </g>
    <circle cx="21" cy="21" r="16.1" fill="#06061B"/>
    <g clip-path="url(#d)">
      <path fill="#2A5ADA" d="M21 37.268c8.984 0 16.268-7.284 16.268-16.268S29.984 4.732 21 4.732 4.732 12.016 4.732 21 12.016 37.268 21 37.268"/>
      <g clip-path="url(#e)">
        <path fill="#fff" d="m21 9.954 2.008 1.155 5.473 3.163 2.008 1.155v10.946l-2.008 1.154-5.523 3.163-2.008 1.155-2.009-1.154-5.422-3.164-2.008-1.154V15.427l2.008-1.155 5.473-3.163zm5.473 14.109v-6.326L21 14.574l-5.473 3.163v6.326L21 27.226z"/>
      </g>
    </g>
  </g>
  <defs>
    <clipPath id="a">
      <path fill="#fff" d="M0 0h42v42H0z"/>
    </clipPath>
    <clipPath id="d">
      <path fill="#fff" d="M4.732 4.732h32.535v32.535H4.732z"/>
    </clipPath>
    <clipPath id="e">
      <path fill="#fff" d="M30.49 9.954H11.51v21.891h18.98z"/>
    </clipPath>
    <linearGradient id="b" x1="21" x2="21" y1="0" y2="61.409" gradientUnits="userSpaceOnUse">
      <stop stop-color="#08021E"/>
      <stop offset="1" stop-color="#1F0777"/>
    </linearGradient>
  </defs>
</svg>
