<svg width="42" height="42" viewBox="0 0 42 42" fill="none" xmlns="http://www.w3.org/2000/svg">
<g clip-path="url(#clip0_7277_57913)">
<mask id="mask0_7277_57913" style="mask-type:alpha" maskUnits="userSpaceOnUse" x="0" y="0" width="42" height="42">
<circle cx="21" cy="21" r="21" fill="url(#paint0_linear_7277_57913)"/>
</mask>
<g mask="url(#mask0_7277_57913)">
<circle cx="21" cy="21" r="21" fill="#34EDB3"/>
<circle cx="21" cy="21" r="18.2" fill="white"/>
</g>
<circle cx="21" cy="21" r="16.1" fill="#06061B"/>
<g clip-path="url(#clip1_7277_57913)">
<path d="M21 37.2676C29.9844 37.2676 37.2676 29.9844 37.2676 21C37.2676 12.0157 29.9844 4.73242 21 4.73242C12.0157 4.73242 4.73242 12.0157 4.73242 21C4.73242 29.9844 12.0157 37.2676 21 37.2676Z" fill="#2A5ADA"/>
<g clip-path="url(#clip2_7277_57913)">
<path d="M21 9.95435L23.0083 11.1091L28.4811 14.2723L30.4894 15.4271V26.3726L28.4811 27.5274L22.9581 30.6905L20.9498 31.8453L18.9414 30.6905L13.5189 27.5274L11.5106 26.3726V15.4271L13.5189 14.2723L18.9916 11.1091L21 9.95435V9.95435ZM26.4727 24.063V17.7367L21 14.5735L15.5272 17.7367V24.063L21 27.2261L26.4727 24.063Z" fill="white"/>
</g>
</g>
</g>
<defs>
<linearGradient id="paint0_linear_7277_57913" x1="21" y1="0" x2="21" y2="61.4091" gradientUnits="userSpaceOnUse">
<stop stop-color="#08021E"/>
<stop offset="1" stop-color="#1F0777"/>
</linearGradient>
<clipPath id="clip0_7277_57913">
<rect width="42" height="42" fill="white"/>
</clipPath>
<clipPath id="clip1_7277_57913">
<rect width="32.5352" height="32.5352" fill="white" transform="translate(4.73242 4.73242)"/>
</clipPath>
<clipPath id="clip2_7277_57913">
<rect width="18.9789" height="21.891" fill="white" transform="matrix(-1 0 0 1 30.4894 9.95435)"/>
</clipPath>
</defs>
</svg>
