<svg xmlns="http://www.w3.org/2000/svg" width="42" height="42" fill="none"><g clip-path="url(#a)"><mask id="c" width="42" height="42" x="0" y="0" maskUnits="userSpaceOnUse" style="mask-type:alpha"><circle cx="21" cy="21" r="21" fill="url(#b)"/></mask><g mask="url(#c)"><circle cx="21" cy="21" r="21" fill="#34EDB3"/><circle cx="21" cy="21" r="18.2" fill="#fff"/></g><circle cx="21" cy="21" r="16.1" fill="#06061B"/><g clip-path="url(#d)"><path fill="#BFBBBB" d="M21 37.268c8.984 0 16.268-7.284 16.268-16.268 0-8.984-7.284-16.268-16.268-16.268-8.984 0-16.268 7.284-16.268 16.268 0 8.984 7.284 16.268 16.268 16.268z"/><path fill="#fff" fill-rule="evenodd" d="M15.334 24.268l-1.451.563.7-2.805 1.468-.59 2.115-8.57h5.215l-1.544 6.3 1.433-.58-.691 2.795-1.45.58-.863 3.542h7.851l-.887 3.63H14.14l1.194-4.865z" clip-rule="evenodd"/></g></g><defs><clipPath id="a"><path fill="#fff" d="M0 0h42v42H0z"/></clipPath><clipPath id="d"><path fill="#fff" d="M4.732 4.732h32.535v32.535H4.732z"/></clipPath><linearGradient id="b" x1="21" x2="21" y1="0" y2="61.409" gradientUnits="userSpaceOnUse"><stop stop-color="#08021E"/><stop offset="1" stop-color="#1F0777"/></linearGradient></defs></svg>