<svg xmlns="http://www.w3.org/2000/svg" width="42" height="42" fill="none"><g clip-path="url(#a)"><mask id="c" width="42" height="42" x="0" y="0" maskUnits="userSpaceOnUse" style="mask-type:alpha"><circle cx="21" cy="21" r="21" fill="url(#b)" transform="matrix(-1 0 0 1 42 0)"/></mask><g mask="url(#c)"><circle cx="21" cy="21" r="21" fill="#34EDB3" transform="matrix(-1 0 0 1 42 0)"/><circle cx="18.2" cy="18.2" r="18.2" fill="#fff" transform="matrix(-1 0 0 1 39.2 2.8)"/></g><circle cx="16.1" cy="16.1" r="16.1" fill="#0B0B22" transform="matrix(-1 0 0 1 37.1 4.9)"/><g clip-path="url(#d)"><path fill="url(#e)" d="M21 37.1c8.861 0 16.1-7.251 16.1-16.1 0-8.861-7.251-16.1-16.1-16.1-8.861 0-16.1 7.252-16.1 16.1 0 8.861 7.252 16.1 16.1 16.1Z"/><path fill="#fff" d="m25.663 24.478 4.56-2.628a.778.778 0 0 0 .386-.683v-5.255a.806.806 0 0 0-.387-.682l-4.56-2.628a.78.78 0 0 0-.785 0l-4.56 2.628a.778.778 0 0 0-.386.682v9.403l-3.194 1.842-3.194-1.842V21.63l3.194-1.842L18.849 21v-2.473l-1.713-.992a.826.826 0 0 0-.386-.103.787.787 0 0 0-.387.103l-4.56 2.628a.778.778 0 0 0-.386.682v5.256c0 .283.155.54.387.682l4.56 2.628a.78.78 0 0 0 .785 0l4.56-2.628a.778.778 0 0 0 .386-.683v-9.402l.051-.039 3.143-1.816 3.194 1.842v3.684L25.29 22.21 23.19 21v2.473l1.714.992c.244.141.54.141.785 0l-.025.013Z"/></g></g><defs><linearGradient id="b" x1="21" x2="21" y1="0" y2="61.409" gradientUnits="userSpaceOnUse"><stop stop-color="#08021E"/><stop offset="1" stop-color="#1F0777"/></linearGradient><linearGradient id="e" x1="-.989" x2="32.215" y1="7.515" y2="27.878" gradientUnits="userSpaceOnUse"><stop stop-color="#A229C5"/><stop offset="1" stop-color="#7B3FE4"/></linearGradient><clipPath id="a"><path fill="#fff" d="M0 0h42v42H0z"/></clipPath><clipPath id="d"><path fill="#fff" d="M4.9 4.9h32.2v32.2H4.9z"/></clipPath></defs></svg>