<svg width="42" height="42" viewBox="0 0 42 42" fill="none" xmlns="http://www.w3.org/2000/svg">
<g clip-path="url(#clip0_7277_57904)">
<mask id="mask0_7277_57904" style="mask-type:alpha" maskUnits="userSpaceOnUse" x="0" y="0" width="42" height="42">
<circle cx="21" cy="21" r="21" fill="url(#paint0_linear_7277_57904)"/>
</mask>
<g mask="url(#mask0_7277_57904)">
<circle cx="21" cy="21" r="21" fill="#34EDB3"/>
<circle cx="21" cy="21" r="18.2" fill="white"/>
</g>
<circle cx="21" cy="21" r="16.1" fill="#06061B"/>
<g clip-path="url(#clip1_7277_57904)">
<path d="M21 37.2676C29.9844 37.2676 37.2676 29.9844 37.2676 21C37.2676 12.0157 29.9844 4.73242 21 4.73242C12.0157 4.73242 4.73242 12.0157 4.73242 21C4.73242 29.9844 12.0157 37.2676 21 37.2676Z" fill="#1ABC9C"/>
<path d="M12.7015 16.9901V27.6088H10.8328V13.3746L20.7031 20.5192V27.6088H18.8344V21.4301L12.7015 16.9901ZM23.1656 21.4301V27.6088H21.2969V20.5192L31.1673 13.3746V27.6088H29.2985V16.9901L23.1656 21.4301Z" fill="white"/>
</g>
</g>
<defs>
<linearGradient id="paint0_linear_7277_57904" x1="21" y1="0" x2="21" y2="61.4091" gradientUnits="userSpaceOnUse">
<stop stop-color="#08021E"/>
<stop offset="1" stop-color="#1F0777"/>
</linearGradient>
<clipPath id="clip0_7277_57904">
<rect width="42" height="42" fill="white"/>
</clipPath>
<clipPath id="clip1_7277_57904">
<rect width="32.5352" height="32.5352" fill="white" transform="translate(4.73242 4.73242)"/>
</clipPath>
</defs>
</svg>
