<svg width="42" height="42" fill="none" xmlns="http://www.w3.org/2000/svg">
  <g clip-path="url(#a)">
    <mask id="c" width="42" height="42" x="0" y="0" maskUnits="userSpaceOnUse" style="mask-type:alpha">
      <circle cx="21" cy="21" r="21" fill="url(#b)" transform="matrix(-1 0 0 1 42 0)"/>
    </mask>
    <g mask="url(#c)">
      <circle cx="21" cy="21" r="21" fill="#34EDB3" transform="matrix(-1 0 0 1 42 0)"/>
      <circle cx="18.2" cy="18.2" r="18.2" fill="#fff" transform="matrix(-1 0 0 1 39.2 2.8)"/>
    </g>
    <circle cx="16.1" cy="16.1" r="16.1" fill="#0B0B22" transform="matrix(-1 0 0 1 37.1 4.9)"/>
    <circle cx="21" cy="21" r="16.1" fill="#DBDBDB"/>
    <path fill="#000" d="m26.59 12.673-3.87 5.75c-.269.392.246.866.617.537l3.809-3.319c.102-.082.247-.02.247.124v10.367c0 .144-.186.206-.268.103l-11.53-13.81c-.37-.453-.905-.7-1.502-.7h-.412c-1.07 0-1.956.886-1.956 1.979v14.592a1.978 1.978 0 0 0 3.665 1.031l3.87-5.75c.268-.392-.247-.866-.617-.537l-3.81 3.298c-.102.083-.246.02-.246-.123V15.868c0-.145.185-.206.267-.103l11.53 13.81c.37.453.926.7 1.503.7h.412a1.98 1.98 0 0 0 1.976-1.979V13.704a1.98 1.98 0 0 0-1.976-1.979c-.7 0-1.339.35-1.71.948z"/>
  </g>
  <defs>
    <linearGradient id="b" x1="21" x2="21" y1="0" y2="61.409" gradientUnits="userSpaceOnUse">
      <stop stop-color="#08021E"/>
      <stop offset="1" stop-color="#1F0777"/>
    </linearGradient>
    <clipPath id="a">
      <path fill="#fff" d="M0 0h42v42H0z"/>
    </clipPath>
  </defs>
</svg>
