<svg width="256" height="256" viewBox="0 0 256 256" fill="none" xmlns="http://www.w3.org/2000/svg">
<mask id="mask0-399538" mask-type="alpha" maskUnits="userSpaceOnUse" x="0" y="0" width="256" height="256">
<circle cx="128" cy="128" r="128" fill="url(#paint0_linear-038068)"/>
</mask>
<g mask="url(#mask0-399538)">
<circle cx="128" cy="128" r="128" fill="#31D8A4"/>
<circle cx="128" cy="128" r="110.933" fill="white"/>
</g>
<circle cx="128.001" cy="128" r="98.1333" fill="black"/>
<path fill-rule="evenodd" clip-rule="evenodd" d="M138.179 64.084L138.129 92.3715L138.079 120.659L135.752 114.092C135.751 114.09 135.748 114.082 135.748 114.079L132.74 177.055C135.697 185.405 137.281 189.863 137.299 189.88C137.322 189.904 139.007 190.005 141.044 190.106C147.213 190.412 154.858 191.068 160.658 191.789C162 191.956 163.156 192.041 163.226 191.979C163.295 191.917 163.333 163.115 163.31 127.975L163.267 64.084H150.723H138.179Z" fill="#B1060F" stroke="black" stroke-width="0.0820533"/>
<path fill-rule="evenodd" clip-rule="evenodd" d="M92.8008 64V127.956C92.8008 163.131 92.8352 191.946 92.8773 191.988C92.9195 192.03 95.0979 191.824 97.7182 191.531C100.339 191.237 103.96 190.873 105.766 190.72C108.536 190.486 116.805 189.955 117.762 189.949C118.041 189.947 118.059 188.51 118.099 162.86L118.142 135.773L120.142 141.434C120.452 142.309 120.549 142.582 120.85 143.434L123.857 80.4742C123.219 78.6731 123.553 79.6186 122.823 77.5544C120.367 70.6088 118.282 64.7177 118.191 64.463L118.025 64H105.413H92.8008Z" fill="#B1060F" stroke="black" stroke-width="0.0820533"/>
<path fill-rule="evenodd" clip-rule="evenodd" d="M92.8008 64V99.9001L118.091 166.985C118.093 165.448 118.096 164.617 118.099 162.86L118.142 135.773L120.142 141.434C131.28 172.948 137.263 189.845 137.299 189.881C137.322 189.904 139.007 190.005 141.043 190.107C147.213 190.413 154.858 191.069 160.657 191.789C162 191.956 163.156 192.042 163.225 191.979C163.273 191.936 163.304 177.814 163.313 157.892L138.141 85.5235L138.129 92.3717L138.079 120.659L135.752 114.092C133.478 107.676 131.959 103.385 122.823 77.5544C120.367 70.6088 118.282 64.7177 118.191 64.463L118.025 64H105.413H92.8008H92.8008Z" fill="url(#paint1_radial-450075)"/>
<path fill-rule="evenodd" clip-rule="evenodd" d="M92.8008 64L118.141 135.805V135.773L120.142 141.434C131.279 172.948 137.263 189.845 137.298 189.881C137.321 189.904 139.006 190.006 141.043 190.107C147.212 190.413 154.857 191.069 160.657 191.789C161.993 191.955 163.142 192.041 163.223 191.98L138.078 120.646V120.659L135.751 114.093C133.477 107.676 131.959 103.385 122.823 77.5544C120.366 70.6088 118.282 64.7177 118.19 64.463L118.024 64H105.412H92.8008V64Z" fill="#E50914"/>
<path fill-rule="evenodd" clip-rule="evenodd" d="M138.179 64.084L138.129 92.3715L138.079 120.659L135.752 114.092C135.751 114.09 135.748 114.082 135.748 114.079L132.74 177.055C135.697 185.405 137.281 189.863 137.299 189.88C137.322 189.904 139.007 190.005 141.044 190.106C147.213 190.412 154.858 191.068 160.658 191.789C162 191.956 163.156 192.041 163.226 191.979C163.295 191.917 163.333 163.115 163.31 127.975L163.267 64.084H150.723H138.179Z" fill="#B1060F" stroke="black" stroke-width="0.0820533"/>
<path fill-rule="evenodd" clip-rule="evenodd" d="M92.8008 64V127.956C92.8008 163.131 92.8352 191.946 92.8773 191.988C92.9195 192.03 95.0979 191.824 97.7182 191.531C100.339 191.237 103.96 190.873 105.766 190.72C108.536 190.486 116.805 189.955 117.762 189.949C118.041 189.947 118.059 188.51 118.099 162.86L118.142 135.773L120.142 141.434C120.452 142.309 120.549 142.582 120.85 143.434L123.857 80.4742C123.219 78.6731 123.553 79.6186 122.823 77.5544C120.367 70.6088 118.282 64.7177 118.191 64.463L118.025 64H105.413H92.8008Z" fill="#B1060F" stroke="black" stroke-width="0.0820533"/>
<path fill-rule="evenodd" clip-rule="evenodd" d="M92.8008 64V99.9001L118.091 166.985C118.093 165.448 118.096 164.617 118.099 162.86L118.142 135.773L120.142 141.434C131.28 172.948 137.263 189.845 137.299 189.881C137.322 189.904 139.007 190.005 141.043 190.107C147.213 190.413 154.858 191.069 160.657 191.789C162 191.956 163.156 192.042 163.225 191.979C163.273 191.936 163.304 177.814 163.313 157.892L138.141 85.5235L138.129 92.3717L138.079 120.659L135.752 114.092C133.478 107.676 131.959 103.385 122.823 77.5544C120.367 70.6088 118.282 64.7177 118.191 64.463L118.025 64H105.413H92.8008H92.8008Z" fill="url(#paint2_radial-727527)"/>
<path fill-rule="evenodd" clip-rule="evenodd" d="M92.8008 64L118.141 135.805V135.773L120.142 141.434C131.279 172.948 137.263 189.845 137.298 189.881C137.321 189.904 139.006 190.006 141.043 190.107C147.212 190.413 154.857 191.069 160.657 191.789C161.993 191.955 163.142 192.041 163.223 191.98L138.078 120.646V120.659L135.751 114.093C133.477 107.676 131.959 103.385 122.823 77.5544C120.366 70.6088 118.282 64.7177 118.19 64.463L118.024 64H105.412H92.8008V64Z" fill="#E50914"/>
<defs>
<linearGradient id="paint0_linear-038068" x1="128" y1="0" x2="128" y2="374.303" gradientUnits="userSpaceOnUse">
<stop stop-color="#08021E"/>
<stop offset="1" stop-color="#1F0777"/>
</linearGradient>
<radialGradient id="paint1_radial-450075" cx="0" cy="0" r="1" gradientUnits="userSpaceOnUse" gradientTransform="translate(126.886 127.256) rotate(-19.0982) scale(15.9819 585.402)">
<stop/>
<stop offset="1" stop-opacity="0"/>
</radialGradient>
<radialGradient id="paint2_radial-727527" cx="0" cy="0" r="1" gradientUnits="userSpaceOnUse" gradientTransform="translate(126.886 127.256) rotate(-19.0982) scale(15.9819 585.402)">
<stop/>
<stop offset="1" stop-opacity="0"/>
</radialGradient>
</defs>
</svg>