<svg width="42" height="42" fill="none" xmlns="http://www.w3.org/2000/svg">
  <g clip-path="url(#a)">
    <mask id="c" width="42" height="42" x="0" y="0" maskUnits="userSpaceOnUse" style="mask-type:alpha">
      <circle cx="21" cy="21" r="21" fill="url(#b)"/>
    </mask>
    <g mask="url(#c)">
      <circle cx="21" cy="21" r="21" fill="#34EDB3"/>
      <circle cx="21" cy="21" r="18.2" fill="#fff"/>
    </g>
    <circle cx="21" cy="21" r="16.1" fill="#06061B"/>
    <circle cx="21" cy="21" r="16.1" fill="#000"/>
    <path fill="#B1060F" fill-rule="evenodd" stroke="#000" stroke-width=".082" d="m22.67 10.514-.008 4.64-.008 4.642-.382-1.078-.001-.002-.494 10.332c.486 1.37.745 2.101.748 2.104s.28.02.615.037a48 48 0 0 1 3.218.276c.22.028.41.042.421.032s.018-4.736.014-10.501l-.007-10.482zm-7.445-.014v10.493c0 5.77.006 10.498.013 10.505s.364-.027.794-.075 1.024-.108 1.32-.133a70 70 0 0 1 1.968-.127c.046 0 .049-.236.055-4.444l.008-4.444.328.929.116.328.493-10.33-.17-.478c-.402-1.14-.744-2.106-.76-2.148l-.027-.076z" clip-rule="evenodd"/>
    <path fill="url(#d)" fill-rule="evenodd" d="M15.225 10.5v5.89l4.15 11.006v-.677l.008-4.444.328.929c1.827 5.17 2.809 7.942 2.815 7.948.003.004.28.02.614.037 1.012.05 2.266.158 3.218.276.22.028.41.042.421.032.008-.007.013-2.324.014-5.593l-4.13-11.873-.001 1.124-.008 4.64-.382-1.077-2.881-8.142-.028-.076z" clip-rule="evenodd"/>
    <path fill="#E50914" fill-rule="evenodd" d="m15.225 10.5 4.158 11.78v-.005l.328.929c1.827 5.17 2.809 7.942 2.814 7.948.004.004.28.02.615.037 1.012.05 2.266.158 3.218.276.219.028.407.042.42.032l-4.124-11.703v.002l-.382-1.078-2.881-8.142-.028-.076z" clip-rule="evenodd"/>
    <path fill="#B1060F" fill-rule="evenodd" stroke="#000" stroke-width=".082" d="m22.67 10.514-.008 4.64-.008 4.642-.382-1.078-.001-.002-.494 10.332c.486 1.37.745 2.101.748 2.104s.28.02.615.037a48 48 0 0 1 3.218.276c.22.028.41.042.421.032s.018-4.736.014-10.501l-.007-10.482zm-7.445-.014v10.493c0 5.77.006 10.498.013 10.505s.364-.027.794-.075 1.024-.108 1.32-.133a70 70 0 0 1 1.968-.127c.046 0 .049-.236.055-4.444l.008-4.444.328.929.116.328.493-10.33-.17-.478c-.402-1.14-.744-2.106-.76-2.148l-.027-.076z" clip-rule="evenodd"/>
    <path fill="url(#e)" fill-rule="evenodd" d="M15.225 10.5v5.89l4.15 11.006v-.677l.008-4.444.328.929c1.827 5.17 2.809 7.942 2.815 7.948.003.004.28.02.614.037 1.012.05 2.266.158 3.218.276.22.028.41.042.421.032.008-.007.013-2.324.014-5.593l-4.13-11.873-.001 1.124-.008 4.64-.382-1.077-2.881-8.142-.028-.076z" clip-rule="evenodd"/>
    <path fill="#E50914" fill-rule="evenodd" d="m15.225 10.5 4.158 11.78v-.005l.328.929c1.827 5.17 2.809 7.942 2.814 7.948.004.004.28.02.615.037 1.012.05 2.266.158 3.218.276.219.028.407.042.42.032l-4.124-11.703v.002l-.382-1.078-2.881-8.142-.028-.076z" clip-rule="evenodd"/>
  </g>
  <defs>
    <radialGradient id="d" cx="0" cy="0" r="1" gradientTransform="matrix(2.4777 -.8579 31.42397 90.75624 20.817 20.878)" gradientUnits="userSpaceOnUse">
      <stop/>
      <stop offset="1" stop-opacity="0"/>
    </radialGradient>
    <radialGradient id="e" cx="0" cy="0" r="1" gradientTransform="matrix(2.4777 -.8579 31.42397 90.75624 20.817 20.878)" gradientUnits="userSpaceOnUse">
      <stop/>
      <stop offset="1" stop-opacity="0"/>
    </radialGradient>
    <linearGradient id="b" x1="21" x2="21" y1="0" y2="61.409" gradientUnits="userSpaceOnUse">
      <stop stop-color="#08021E"/>
      <stop offset="1" stop-color="#1F0777"/>
    </linearGradient>
    <clipPath id="a">
      <path fill="#fff" d="M0 0h42v42H0z"/>
    </clipPath>
  </defs>
</svg>
