<svg width="480" height="480" viewBox="0 0 480 480" fill="none" xmlns="http://www.w3.org/2000/svg"><mask id="mask0" maskUnits="userSpaceOnUse" x="0" y="0" width="480" height="480"><circle cx="240" cy="240" r="240" fill="url(#paint0_linear)"/></mask><g mask="url(#mask0)"><circle cx="240" cy="240" r="240" fill="#31D8A4"/><circle cx="240" cy="240" r="208" fill="#fff"/></g><circle cx="240" cy="240" r="184" fill="#000"/><path fill-rule="evenodd" clip-rule="evenodd" d="M259.084 120.158l-.094 53.039-.093 53.039-4.364-12.312a.225.225 0 01-.008-.024l-5.639 118.079c5.544 15.656 8.514 24.014 8.548 24.047.043.044 3.203.235 7.021.424 11.567.574 25.902 1.804 36.776 3.155 2.518.313 4.684.473 4.815.356.13-.116.201-54.12.158-120.008l-.08-119.795h-47.04zM174 120v119.917c0 65.954.065 119.981.144 120.06.079.079 4.163-.306 9.076-.857 4.913-.55 11.704-1.234 15.09-1.52 5.193-.438 20.697-1.435 22.493-1.446.522-.004.556-2.698.631-50.792l.08-50.788 3.752 10.614c.579 1.641.761 2.153 1.326 3.751l5.638-118.05c-1.195-3.377-.569-1.604-1.938-5.474a40333.372 40333.372 0 00-8.686-24.547l-.311-.868H174z" fill="#B1060F" stroke="#000" stroke-width=".082"/><path fill-rule="evenodd" clip-rule="evenodd" d="M174 120v67.313l47.419 125.784c.004-2.882.01-4.44.015-7.735l.08-50.788 3.752 10.614c20.882 59.09 32.102 90.772 32.168 90.838.043.044 3.203.234 7.021.424 11.567.574 25.902 1.804 36.776 3.155 2.518.313 4.684.473 4.815.356.089-.08.148-26.559.164-63.914l-47.197-135.691-.023 12.841-.093 53.039-4.364-12.313c-4.264-12.03-7.111-20.076-24.241-68.508a40333.372 40333.372 0 00-8.686-24.547l-.311-.868H174z" fill="url(#paint1_radial)"/><path fill-rule="evenodd" clip-rule="evenodd" d="M174 120l47.514 134.635v-.061l3.751 10.614c20.883 59.09 32.102 90.772 32.168 90.838.043.044 3.203.234 7.021.424 11.567.574 25.902 1.804 36.776 3.155 2.505.311 4.661.471 4.811.358l-47.145-133.752v.025l-4.364-12.313c-4.264-12.03-7.11-20.076-24.24-68.508a50241.002 50241.002 0 00-8.686-24.547l-.312-.868H174z" fill="#E50914"/><path fill-rule="evenodd" clip-rule="evenodd" d="M259.084 120.158l-.094 53.039-.093 53.039-4.364-12.312a.225.225 0 01-.008-.024l-5.639 118.079c5.544 15.656 8.514 24.014 8.548 24.047.043.044 3.203.235 7.021.424 11.567.574 25.902 1.804 36.776 3.155 2.518.313 4.684.473 4.815.356.13-.116.201-54.12.158-120.008l-.08-119.795h-47.04zM174 120v119.917c0 65.954.065 119.981.144 120.06.079.079 4.163-.306 9.076-.857 4.913-.55 11.704-1.234 15.09-1.52 5.193-.438 20.697-1.435 22.493-1.446.522-.004.556-2.698.631-50.792l.08-50.788 3.752 10.614c.579 1.641.761 2.153 1.326 3.751l5.638-118.05c-1.195-3.377-.569-1.604-1.938-5.474a40333.372 40333.372 0 00-8.686-24.547l-.311-.868H174z" fill="#B1060F" stroke="#000" stroke-width=".082"/><path fill-rule="evenodd" clip-rule="evenodd" d="M174 120v67.313l47.419 125.784c.004-2.882.01-4.44.015-7.735l.08-50.788 3.752 10.614c20.882 59.09 32.102 90.772 32.168 90.838.043.044 3.203.234 7.021.424 11.567.574 25.902 1.804 36.776 3.155 2.518.313 4.684.473 4.815.356.089-.08.148-26.559.164-63.914l-47.197-135.691-.023 12.841-.093 53.039-4.364-12.313c-4.264-12.03-7.111-20.076-24.241-68.508a40333.372 40333.372 0 00-8.686-24.547l-.311-.868H174z" fill="url(#paint2_radial)"/><path fill-rule="evenodd" clip-rule="evenodd" d="M174 120l47.514 134.635v-.061l3.751 10.614c20.883 59.09 32.102 90.772 32.168 90.838.043.044 3.203.234 7.021.424 11.567.574 25.902 1.804 36.776 3.155 2.505.311 4.661.471 4.811.358l-47.145-133.752v.025l-4.364-12.313c-4.264-12.03-7.11-20.076-24.24-68.508a50241.002 50241.002 0 00-8.686-24.547l-.312-.868H174z" fill="#E50914"/><defs><radialGradient id="paint1_radial" cx="0" cy="0" r="1" gradientUnits="userSpaceOnUse" gradientTransform="matrix(28.31665 -9.80452 359.1316 1037.21556 237.91 238.604)"><stop/><stop offset="1" stop-opacity="0"/></radialGradient><radialGradient id="paint2_radial" cx="0" cy="0" r="1" gradientUnits="userSpaceOnUse" gradientTransform="matrix(28.31665 -9.80452 359.1316 1037.21556 237.91 238.604)"><stop/><stop offset="1" stop-opacity="0"/></radialGradient><linearGradient id="paint0_linear" x1="240" y1="0" x2="240" y2="701.818" gradientUnits="userSpaceOnUse"><stop stop-color="#08021E"/><stop offset="1" stop-color="#1F0777"/></linearGradient></defs></svg>