<svg width="300" height="300" viewBox="0 0 300 300" fill="none" xmlns="http://www.w3.org/2000/svg"><path d="M150 300c82.843 0 150-67.157 150-150S232.843 0 150 0 0 67.157 0 150s67.157 150 150 150z" fill="#FFA14A"/><path d="M220 221.792h-33.6v-6.528l21.168-14.256H186.4v-7.104H220v6.576l-21.168 14.256H220v7.056zm-33.6-33.609v-7.2H220v7.2h-33.6zm.048-12.891v-7.2h15.072l-15.072-13.44v-8.736l13.824 12.336L220 145.1v8.64l-14.16 9.6 5.328 4.752H220v7.2h-33.552zm0-32.766v-7.2h15.072l-15.072-13.44v-8.736l13.824 12.336L220 112.334v8.64l-14.16 9.6 5.328 4.752H220v7.2h-33.552zm-.048-32.765v-22.56h6.192v15.36h7.536v-12.48h5.904v12.48h7.776V86.673H220v23.088h-33.6zm0-27.422v-7.2H220v7.2h-33.6z" fill="#1E1A31"/><path opacity=".5" fill-rule="evenodd" clip-rule="evenodd" d="M81.424 208.528l-12.484-8.906 78.517-109.094 12.483 8.906-78.516 109.094z" fill="#1E1A31"/><path fill-rule="evenodd" clip-rule="evenodd" d="M121.868 142.349h4.191c19.298 0 34.941 15.592 34.941 34.826C161 196.408 145.357 212 126.059 212H74.676c-4.24 0-7.676-3.425-7.676-7.651 0-4.225 3.437-7.65 7.676-7.65h51.383c10.819 0 19.589-8.741 19.589-19.524 0-10.783-8.77-19.524-19.589-19.524h-24.118C82.643 157.651 67 142.059 67 122.825 67 103.592 82.643 88 101.941 88h51.383c4.239 0 7.676 3.425 7.676 7.65 0 4.226-3.437 7.651-7.676 7.651h-51.383c-10.82 0-19.59 8.741-19.59 19.524 0 10.783 8.77 19.524 19.59 19.524h19.927z" fill="#1E1A31"/></svg>