<svg width="480" height="480" viewBox="0 0 480 480" fill="none" xmlns="http://www.w3.org/2000/svg"><mask id="mask0-231610" maskUnits="userSpaceOnUse" x="0" y="0" width="480" height="480"><circle cx="240" cy="240" r="240" fill="url(#paint0_linear-893941)"/></mask><g mask="url(#mask0-231610)"><circle cx="240" cy="240" r="240" fill="#31D8A4"/><circle cx="240" cy="240" r="208" fill="#fff"/></g><circle cx="240" cy="240" r="184" fill="#0E052F"/><circle cx="240" cy="240" r="184" fill="#0E052F"/><path fill-rule="evenodd" clip-rule="evenodd" d="M170.028 127h140.781v71.648h5.028v10.056h-5.028v61.592h5.028v10.055h-5.028v71.648H170.028v-71.648H165v-10.055h5.028v-61.592H165v-10.056h5.028V127zm119.703 113.128c0 27.234-22.078 49.312-49.312 49.312-27.235 0-49.313-22.078-49.313-49.312 0-27.235 22.078-49.312 49.313-49.312 27.234 0 49.312 22.077 49.312 49.312zm-48.829 30.94c12.015 0 21.755-9.604 21.755-21.451 0-10.487-10.078-24.348-18.559-36.012a687.144 687.144 0 01-3.196-4.419 545.514 545.514 0 01-3.705 5.182c-8.106 11.243-18.05 25.037-18.05 35.249 0 11.847 9.74 21.451 21.755 21.451z" fill="url(#paint1_radial-560707)"/><path fill="#8898BE" stroke="#3D4664" stroke-width="2" d="M166 128h148.837v8.056H166zm0 215h148.837v8.056H166z"/><defs><radialGradient id="paint1_radial-560707" cx="0" cy="0" r="1" gradientUnits="userSpaceOnUse" gradientTransform="matrix(-91.3726 0 0 -209.964 240.419 249.797)"><stop stop-color="#8999BF"/><stop offset="1" stop-color="#43526A"/></radialGradient><linearGradient id="paint0_linear-893941" x1="240" y1="0" x2="240" y2="701.818" gradientUnits="userSpaceOnUse"><stop stop-color="#08021E"/><stop offset="1" stop-color="#1F0777"/></linearGradient></defs></svg>