<svg fill="none" height="480" viewBox="0 0 480 480" width="480" xmlns="http://www.w3.org/2000/svg" xmlns:xlink="http://www.w3.org/1999/xlink"><linearGradient id="a" gradientUnits="userSpaceOnUse" x1="240" x2="240" y1="0" y2="701.818"><stop offset="0" stop-color="#08021e"/><stop offset="1" stop-color="#1f0777"/></linearGradient><mask id="b" height="480" maskUnits="userSpaceOnUse" width="480" x="0" y="0"><circle cx="240" cy="240" fill="url(#a)" r="240"/></mask><mask id="c" height="368" maskUnits="userSpaceOnUse" width="368" x="56" y="56"><circle cx="240" cy="240" fill="#0e052f" r="184"/></mask><g mask="url(#b)"><circle cx="240" cy="240" fill="#31d8a4" r="240"/><circle cx="240" cy="240" fill="#fff" r="208"/></g><g mask="url(#c)"><path d="m240 424c101.62 0 184-82.38 184-184s-82.38-184-184-184-184 82.38-184 184 82.38 184 184 184z" fill="#ff0420"/><g fill="#fff"><path d="m186.37 288.904c-10.956 0-19.932-2.578-26.93-7.734-6.905-5.247-10.357-12.704-10.357-22.372 0-2.025.23-4.512.69-7.458 1.197-6.628 2.901-14.592 5.11-23.891 6.26-25.318 22.419-37.978 48.474-37.978 7.089 0 13.441 1.197 19.058 3.591 5.616 2.301 10.035 5.8 13.257 10.496 3.223 4.603 4.834 10.127 4.834 16.571 0 1.934-.23 4.374-.691 7.32-1.38 8.194-3.038 16.158-4.971 23.891-3.223 12.614-8.793 22.051-16.711 28.311-7.917 6.169-18.505 9.253-31.763 9.253zm1.933-19.886c5.157 0 9.529-1.52 13.12-4.558 3.683-3.038 6.307-7.687 7.872-13.948 2.117-8.654 3.729-16.204 4.834-22.649.368-1.933.552-3.912.552-5.938 0-8.378-4.373-12.568-13.119-12.568-5.157 0-9.576 1.519-13.259 4.558-3.59 3.039-6.168 7.688-7.733 13.948-1.657 6.169-3.315 13.719-4.971 22.649-.369 1.841-.553 3.774-.553 5.8 0 8.471 4.419 12.706 13.257 12.706z"/><path d="m246.847 287.524c-1.013 0-1.796-.323-2.348-.968-.461-.736-.598-1.564-.414-2.485l19.058-89.766c.184-1.013.69-1.842 1.519-2.487.829-.644 1.703-.966 2.624-.966h36.735c10.219 0 18.413 2.118 24.582 6.353 6.261 4.235 9.391 10.357 9.391 18.367 0 2.302-.276 4.696-.829 7.181-2.301 10.588-6.951 18.414-13.948 23.478-6.905 5.064-16.388 7.596-28.449 7.596h-18.644l-6.352 30.244c-.185 1.013-.691 1.841-1.519 2.485-.829.645-1.704.968-2.624.968zm48.888-52.755c3.866 0 7.227-1.06 10.081-3.177 2.946-2.118 4.88-5.156 5.8-9.115.276-1.565.415-2.946.415-4.143 0-2.67-.783-4.695-2.348-6.076-1.565-1.474-4.235-2.21-8.01-2.21h-16.572l-5.248 24.721z"/></g></g></svg>