<svg width="42" height="42" viewBox="0 0 42 42" fill="none" xmlns="http://www.w3.org/2000/svg">
<g clip-path="url(#clip0_7277_57874)">
<mask id="mask0_7277_57874" style="mask-type:alpha" maskUnits="userSpaceOnUse" x="0" y="0" width="42" height="42">
<circle cx="21" cy="21" r="21" transform="matrix(-1 0 0 1 42 0)" fill="url(#paint0_linear_7277_57874)"/>
</mask>
<g mask="url(#mask0_7277_57874)">
<circle cx="21" cy="21" r="21" transform="matrix(-1 0 0 1 42 0)" fill="#34EDB3"/>
<circle cx="18.2" cy="18.2" r="18.2" transform="matrix(-1 0 0 1 39.2 2.80005)" fill="white"/>
</g>
<circle cx="16.1" cy="16.1" r="16.1" transform="matrix(-1 0 0 1 37.1 4.90002)" fill="#0B0B22"/>
<g clip-path="url(#clip1_7277_57874)">
<circle cx="20.9999" cy="21" r="16.1" fill="#242235"/>
<g clip-path="url(#clip2_7277_57874)">
<path d="M37.0659 4.93372H1.86719V38.5997H37.0659V4.93372Z" fill="#609543"/>
<path d="M4.88828 28.6346C4.85702 28.9484 4.80674 29.2648 4.81217 29.5786C4.82576 30.3516 5.00108 31.0922 5.27424 31.8194C5.46179 32.319 5.72136 32.7634 6.06655 33.1661C6.12091 33.224 6.17528 33.2819 6.22828 33.3398C6.60065 33.6104 6.97302 33.8798 7.34539 34.1505C7.46227 34.211 7.57915 34.273 7.69602 34.3349C7.86182 34.4063 8.02762 34.4777 8.19478 34.5491C8.41223 34.6554 8.63103 34.7618 8.84983 34.8669C9.0034 34.918 9.15833 34.9679 9.3119 35.019C9.37985 35.0392 9.44916 35.0608 9.51711 35.081C9.5606 35.0944 9.60545 35.1079 9.64894 35.12C9.77805 35.1591 9.90715 35.1968 10.0349 35.2345C10.5377 35.3355 11.0392 35.4351 11.5407 35.5348L11.9892 35.6156C12.5192 35.6695 13.0479 35.7449 13.5792 35.7731C14.1962 35.8082 14.8159 35.8243 15.4343 35.8068C15.929 35.792 16.4223 35.7166 16.917 35.6695C17.0121 35.6614 17.1073 35.6641 17.2038 35.6614C17.3043 35.6506 17.4049 35.6385 17.5055 35.6264C17.5177 35.6264 17.5313 35.625 17.5435 35.625C17.5761 35.625 17.6101 35.6223 17.6427 35.621C17.6876 35.6196 17.7338 35.6183 17.7786 35.6156C17.9132 35.6142 18.0463 35.6142 18.1809 35.6116C18.859 35.5981 19.5372 35.5819 20.2153 35.5671C20.6339 35.5644 21.0511 35.5604 21.4684 35.5577L22.5855 35.2507C22.7554 35.1941 22.9252 35.1389 23.0938 35.0823C23.1807 35.0446 23.2677 35.0056 23.3547 34.9665C23.4797 34.8467 23.6048 34.7268 23.7298 34.6056L23.7991 34.5046C23.8195 34.4817 23.8399 34.4575 23.8602 34.4332C23.8725 34.4117 23.8861 34.3902 23.8997 34.3686C23.9703 34.2178 24.06 34.2474 24.1293 34.3592C24.1837 34.4454 24.2068 34.5504 24.2421 34.6474C24.3563 34.7591 24.4691 34.8709 24.5819 34.984C24.7327 35.0796 24.8836 35.1739 25.0344 35.2695C25.3429 35.4715 25.6392 35.6924 25.9599 35.8688C26.3364 36.0761 26.7332 36.2431 27.1205 36.4276C27.2931 36.4451 27.4657 36.4572 27.637 36.4815C27.8082 36.5071 27.9781 36.5475 28.148 36.5798C29.0245 36.6108 29.9025 36.6417 30.779 36.6714C31.1704 36.6094 31.5659 36.569 31.9505 36.4788C32.3691 36.3818 32.7836 36.2593 33.1845 36.1098C33.4876 35.9967 33.7662 35.823 34.0556 35.6762C34.1467 35.6102 34.2378 35.5429 34.3288 35.4769C34.708 35.1389 34.7297 34.7403 34.5231 34.308C34.3152 33.873 34.1019 33.4394 33.8912 33.0058C33.8368 32.9358 33.7825 32.8671 33.7295 32.7984C33.6248 32.5655 33.5215 32.3325 33.4169 32.0995C33.406 32.0874 33.3952 32.0766 33.3829 32.0658C33.3693 32.0457 33.3557 32.0241 33.3422 32.0039C33.3109 31.9568 33.2796 31.911 33.2484 31.8639C33.2429 31.8558 33.2402 31.8463 33.2389 31.8369C33.2212 31.8113 33.2022 31.7858 33.1845 31.7602C33.1804 31.7521 33.1777 31.7427 33.175 31.7346L33.0445 31.5972C33.0119 31.5622 32.9779 31.5272 32.9453 31.4922C32.8325 31.3696 32.7197 31.2471 32.6069 31.1232C32.5607 31.0464 32.5132 30.971 32.4669 30.8943C32.4235 30.8364 32.3813 30.7771 32.3378 30.7192C32.278 30.6559 32.2182 30.5913 32.1598 30.5266C32.1272 30.4916 32.0959 30.4553 32.0647 30.4203L31.8975 30.2506C31.8404 30.2075 31.7834 30.163 31.7263 30.12H31.7249C31.6787 30.0769 31.6311 30.0338 31.5849 29.9907C31.2194 29.7389 30.8551 29.4857 30.4868 29.2379C30.2042 29.0467 29.9147 28.8622 29.6279 28.675C29.541 28.5727 29.4214 28.4797 29.5491 28.3289C29.7081 28.0986 29.8685 27.867 30.0261 27.6354L29.8834 27.5398C29.7978 27.6691 29.6973 27.7916 29.594 27.9142C29.3575 28.1902 29.3548 28.197 29.0558 27.9653C29.0082 27.9236 28.9607 27.8818 28.9131 27.8387C28.837 27.7674 28.7595 27.6973 28.6834 27.626C28.6345 27.5977 28.5869 27.5694 28.538 27.5398C28.379 27.5223 28.2078 27.4563 28.0637 27.494C27.6873 27.595 27.323 27.7404 26.9534 27.8684C26.9412 27.8765 26.9289 27.8832 26.9167 27.8913C26.8882 27.8993 26.8583 27.9061 26.8297 27.9142C26.7794 27.9546 26.7305 27.995 26.6816 28.034C26.6734 28.038 26.6639 28.0407 26.6544 28.0421L26.581 28.1027C26.5674 28.1135 26.5552 28.1242 26.543 28.135C26.5321 28.1431 26.5212 28.1512 26.5103 28.1606C26.2059 28.4151 25.9029 28.671 25.5944 28.9228C25.3987 29.0817 25.1975 29.2325 24.9978 29.3874C24.9638 29.421 24.9298 29.4534 24.8958 29.487C24.8102 29.5382 24.7096 29.5746 24.6417 29.6432C24.4025 29.887 24.1851 29.8412 23.9676 29.6204C23.8901 29.5961 23.814 29.5719 23.7379 29.5463L23.4688 29.5382C23.4444 29.5396 23.4213 29.5396 23.3968 29.5409C23.0421 29.588 22.7608 29.7644 22.5828 30.0661C22.3653 30.4297 22.4591 30.8552 22.822 31.2619C22.985 31.445 23.1617 31.6161 23.3329 31.7911C23.3547 31.8154 23.3751 31.8383 23.3955 31.8625C23.4077 31.8841 23.4213 31.9056 23.4349 31.9258C23.4648 31.9729 23.4933 32.0201 23.5232 32.0672L23.5395 32.1238C23.6279 32.249 23.7148 32.3742 23.8032 32.4995C23.829 32.5412 23.8562 32.583 23.8834 32.6234C23.8915 32.6489 23.901 32.6745 23.9092 32.7001L23.9622 33.197C23.9554 33.2334 23.9486 33.2684 23.9418 33.3034C23.9391 33.5148 23.935 33.7263 23.9309 33.9377C23.9228 33.9498 23.916 33.9633 23.9078 33.9754L23.814 34.0845C23.6985 34.2474 23.5816 34.4117 23.4648 34.576L23.3628 34.677C23.3506 34.6864 23.3397 34.6958 23.3289 34.7053C23.299 34.7107 23.2691 34.7174 23.2405 34.7241C23.1576 34.7645 23.0747 34.8063 22.9932 34.8467C22.9049 34.8722 22.8179 34.8992 22.7309 34.9248C22.7173 34.9328 22.7037 34.9409 22.6901 34.9504C22.6657 34.9598 22.6426 34.9706 22.6181 34.98C22.5284 35.0244 22.4387 35.0702 22.349 35.1146C22.1696 35.1591 21.993 35.2318 21.8108 35.2439C21.1041 35.2884 20.3961 35.3207 19.6894 35.3436C18.7449 35.3759 17.799 35.3907 16.8545 35.423C15.9901 35.454 15.1244 35.4998 14.2601 35.5388C14.2465 35.5334 14.2329 35.5281 14.218 35.5227C13.2272 35.4298 12.2365 35.3382 11.2458 35.2453C11.2336 35.2439 11.22 35.2426 11.2077 35.2412C11.1887 35.2372 11.1683 35.2331 11.1493 35.2305C11.1208 35.2183 11.0936 35.2049 11.065 35.1927C10.9495 35.182 10.8286 35.186 10.7171 35.1564C10.3285 35.054 9.94385 34.9409 9.55788 34.8305C9.49537 34.8063 9.43285 34.782 9.3717 34.7591C9.20726 34.7039 9.04417 34.6501 8.87973 34.5948C8.85255 34.5814 8.82537 34.5666 8.79819 34.5531L8.74111 34.541L8.63103 34.4844C8.57803 34.4588 8.52367 34.4332 8.46931 34.4077L8.15537 34.2501C8.14722 34.2474 8.13771 34.2447 8.12955 34.2407C8.03578 34.1908 7.94065 34.141 7.84552 34.0912C7.50032 33.9067 7.15377 33.7236 6.80858 33.5391C6.7746 33.5162 6.74063 33.4946 6.70665 33.4717C6.69442 33.461 6.68219 33.4502 6.67132 33.4394C6.60065 33.364 6.53134 33.2873 6.46067 33.2118C6.38321 33.1324 6.30438 33.0529 6.22692 32.9735L6.16576 32.9008C6.15217 32.8698 6.13858 32.8375 6.12499 32.8065C6.0584 32.7378 5.99317 32.6678 5.92793 32.5991C5.90211 32.5574 5.87493 32.5156 5.84911 32.4739C5.80834 32.4039 5.76893 32.3325 5.72816 32.2625C5.72272 32.2436 5.71728 32.2261 5.71185 32.2072C5.68331 32.1588 5.65477 32.1089 5.62759 32.0605C5.55692 31.8625 5.48897 31.6632 5.41558 31.4652C5.1696 30.8054 5.05544 30.1226 5.06495 29.4184C5.07311 29.3833 5.08126 29.3483 5.08806 29.312C5.09077 29.2918 5.09213 29.2702 5.09349 29.25C5.10165 29.1692 5.1098 29.0898 5.11795 29.0103C5.12339 28.978 5.12747 28.947 5.1329 28.9147C5.1397 28.8676 5.14649 28.8204 5.15465 28.7733C5.15737 28.7316 5.16144 28.6885 5.16416 28.6467C5.17639 28.5956 5.18862 28.5457 5.20086 28.4946C5.25114 27.898 5.30278 27.3001 5.35442 26.7022C5.36937 26.5365 5.38161 26.3696 5.40743 26.2053C5.57187 25.1185 5.74039 24.0305 5.90755 22.9437C5.9157 22.9087 5.92386 22.8737 5.93201 22.8373C5.93337 22.8171 5.93473 22.7956 5.93745 22.774C5.97414 22.6246 6.01219 22.4737 6.05024 22.3243C6.21469 21.7923 6.38049 21.2591 6.54493 20.7271C6.56124 20.7002 6.57619 20.6733 6.5925 20.6477C6.68083 20.4174 6.76917 20.1885 6.85751 19.9596C6.88604 19.9111 6.91458 19.8639 6.94312 19.8168C7.01515 19.6485 7.07767 19.4748 7.16329 19.3132C7.73272 18.2291 8.30758 17.1478 8.87973 16.0651C8.8974 16.0381 8.91371 16.0112 8.93138 15.9856C9.10261 15.6624 9.27385 15.3392 9.44373 15.0174C9.45324 15.0039 9.46411 14.9918 9.47363 14.9797C9.65438 14.6726 9.8392 14.3697 10.0145 14.0599C10.5255 13.155 11.273 12.4372 11.9307 11.6494C12.1305 11.4097 12.3466 11.1795 12.5178 10.9209C12.7448 10.5789 12.9337 10.2126 13.1403 9.85572C13.1702 9.81936 13.2001 9.78165 13.2286 9.74529C13.3591 9.581 13.4882 9.41806 13.6173 9.25377C13.6961 9.18778 13.7736 9.12045 13.8524 9.05312C14.0712 8.92115 14.2873 8.78379 14.5115 8.65721C14.6705 8.56833 14.8309 8.45386 15.0049 8.41885C15.509 8.31785 16.0187 8.27341 16.5297 8.27341V8.11316C16.1328 8.11316 15.7374 8.11182 15.3405 8.11182L14.9451 8.19261C14.8853 8.22089 14.8241 8.24917 14.7643 8.27745C13.8986 8.62219 13.249 9.21337 12.7597 9.99038C12.5382 10.3378 12.3181 10.6852 12.0965 11.0327C11.8315 11.3599 11.5679 11.6885 11.3042 12.0171C10.8558 12.5719 10.4073 13.1254 9.9588 13.6802C9.87726 13.8041 9.78756 13.9226 9.71553 14.0505C9.35267 14.6861 8.9871 15.319 8.63919 15.9614C8.11324 16.931 7.59953 17.9073 7.08174 18.8809C7.06272 18.9173 7.04369 18.9536 7.02467 18.9886C7.02195 18.9994 7.01923 19.0075 7.01515 19.0169C6.94041 19.1543 6.86566 19.2903 6.79091 19.4276C6.75694 19.5461 6.7216 19.6633 6.68763 19.7818C6.68219 19.7912 6.6754 19.802 6.66996 19.8114C6.63463 19.8788 6.59929 19.9474 6.56396 20.0161C6.42126 20.439 6.28128 20.8645 6.13179 21.286C6.09237 21.3964 6.02306 21.4961 5.96734 21.6011C5.96463 21.6213 5.96327 21.6415 5.96055 21.6617C5.9524 21.6846 5.9456 21.7075 5.93745 21.7304C5.93337 21.7519 5.92793 21.7735 5.9225 21.7937C5.89396 21.8651 5.86678 21.9364 5.83824 22.0078C5.78931 22.2502 5.74039 22.4939 5.6901 22.7363C5.68331 22.7592 5.67651 22.7821 5.66836 22.8037C5.66156 22.8252 5.65613 22.8454 5.64933 22.867C5.64118 22.902 5.63167 22.937 5.62215 22.972C5.49712 23.8311 5.37073 24.6916 5.2457 25.5508C5.23755 25.5858 5.22804 25.6208 5.21988 25.6558L5.21173 25.7205L5.18319 25.8902C5.15737 26.2012 5.1329 26.5137 5.10708 26.8247C5.08262 26.9648 5.0568 27.1035 5.03098 27.2435C4.98341 27.7068 4.93313 28.17 4.88828 28.6346ZM23.1495 31.2094C22.9144 30.9495 22.735 30.6882 22.7703 30.3246C22.7853 30.2964 22.8002 30.2694 22.8138 30.2425C23.0027 29.9233 23.3628 29.7537 23.708 29.8183C23.973 29.8681 24.1959 30.1509 24.2381 30.4862C24.2476 30.5105 24.2557 30.5347 24.2639 30.559L24.2843 30.6196C24.2924 30.6425 24.3019 30.6653 24.3114 30.6882C24.4446 30.8256 24.5792 30.963 24.7137 31.1017C24.817 31.1299 24.9203 31.1596 25.0249 31.1892C25.2098 31.2511 25.4761 31.2013 25.4816 31.5137C25.4911 31.542 25.5019 31.5703 25.5115 31.5986C25.555 31.8746 25.5984 32.1493 25.6419 32.4254C25.6582 32.4618 25.6745 32.4995 25.6909 32.5372C25.6963 32.5547 25.7017 32.5735 25.7072 32.5924C25.8417 32.7297 25.9695 32.8738 26.1122 33.0004C26.331 33.1957 26.5606 33.3802 26.7862 33.5687H26.7876C26.7985 33.5808 26.808 33.5929 26.8188 33.6051C27.2429 34.0737 27.7253 34.4184 28.4089 34.3592C28.4442 34.3565 28.5135 34.4279 28.5217 34.4723C28.5937 34.8601 28.8615 34.9948 29.2162 35.0271C29.5247 35.0338 29.8332 35.054 30.1417 35.0406C30.3183 35.0338 30.4692 35.0029 30.4692 35.252C30.4692 35.2951 30.5303 35.3409 30.5697 35.3772C30.7858 35.5765 31.0604 35.5334 31.3199 35.5483C31.3553 35.5429 31.3892 35.5375 31.4246 35.5308L31.9872 35.1712C32.0239 35.1402 32.0592 35.1093 32.0959 35.0769C32.119 35.0554 32.1421 35.0325 32.1639 35.0096C32.1761 34.9988 32.187 34.9881 32.1992 34.9773C32.2645 34.8978 32.331 34.8184 32.3963 34.7389C32.4873 34.6272 32.5784 34.5167 32.6694 34.405C32.7727 34.2824 32.8747 34.1599 32.9779 34.0387C32.9915 34.0144 33.0078 33.9915 33.0187 33.966C33.0472 33.9013 33.0731 33.8353 33.1003 33.7694C33.0228 33.772 32.9426 33.7667 32.8692 33.7828C32.8244 33.7936 32.7822 33.8353 32.7523 33.873C32.5295 34.1451 32.3242 34.4332 32.0851 34.6905C31.8051 34.9881 31.5713 35.3947 31.0617 35.3072C30.9258 35.283 30.7451 35.2089 30.6893 35.1039C30.5929 34.9261 30.4868 34.6985 30.7138 34.5127C30.7464 34.4885 30.7777 34.4642 30.8103 34.44C30.8538 34.405 30.8973 34.3686 30.9394 34.3336C31.0549 34.2124 31.1691 34.0912 31.2832 33.97C31.4789 33.7559 31.6787 33.5472 31.8649 33.325C31.9152 33.2644 31.922 33.1687 31.9478 33.088C31.8513 33.1082 31.7249 33.096 31.6638 33.1526C31.4382 33.36 31.2343 33.5902 31.0223 33.8111L30.9897 33.8434L30.987 33.8461C30.9761 33.8569 30.9652 33.869 30.9544 33.8798C30.885 33.9552 30.8144 34.0306 30.7437 34.1074C30.6227 34.2326 30.5018 34.3578 30.3808 34.4844C30.2626 34.7255 30.0628 34.8076 29.8019 34.7847C29.6687 34.7726 29.526 34.8063 29.3996 34.7713C29.2175 34.7214 29.0463 34.6285 28.8696 34.5531C28.8615 34.541 28.8533 34.5302 28.8451 34.5181L28.8424 34.514C28.8343 34.5019 28.8275 34.4885 28.8193 34.4763C28.8085 34.444 28.7976 34.4104 28.7867 34.378C28.7854 34.3659 28.7854 34.3538 28.784 34.3417C28.7854 34.2878 28.7867 34.2326 28.7881 34.1787C28.8954 33.9727 29.0014 33.7667 29.1088 33.5606C29.2406 33.3654 29.3724 33.1687 29.5056 32.9735L29.5953 32.8684C29.7013 32.7648 29.8033 32.657 29.9161 32.5601C30.0125 32.4752 30.1294 32.4133 30.2191 32.3244C30.2558 32.2894 30.2463 32.2072 30.2572 32.1466C30.1974 32.1466 30.1253 32.1211 30.0791 32.1466C29.3589 32.5089 28.9389 33.1257 28.6291 33.834C28.6141 33.8609 28.5992 33.8865 28.5842 33.9134C28.5815 33.9215 28.5788 33.9309 28.5747 33.939C28.5394 33.9673 28.5054 33.9969 28.4701 34.0252C28.0053 34.1154 27.6071 34.001 27.2877 33.6455C27.1559 33.4744 27.0241 33.3034 26.8922 33.1337C26.8053 32.9721 26.8093 32.8173 26.9235 32.6691C26.9547 32.6328 26.9846 32.5964 27.0159 32.5601C27.0186 32.552 27.0213 32.5439 27.0254 32.5358C27.1138 32.4106 27.2021 32.2854 27.2891 32.1615C27.3475 32.0955 27.4059 32.0308 27.4644 31.9649C27.5323 31.911 27.6003 31.8558 27.6682 31.8019C27.8028 31.7427 27.9373 31.6834 28.0705 31.6255C28.2064 31.5487 28.3437 31.4733 28.4796 31.3966C28.6359 31.3158 28.7908 31.2336 28.9471 31.1528C29.1387 30.9845 29.3303 30.8175 29.5219 30.6492C29.5926 30.5953 29.6633 30.5428 29.7326 30.4889C29.8427 30.396 29.9514 30.3031 30.0615 30.2115C30.1118 30.0553 30.0275 30.0284 29.8984 30.0445C29.8753 30.0567 29.8522 30.0688 29.8291 30.0796C29.6361 30.2263 29.4445 30.3718 29.2515 30.5172C29.1129 30.6344 28.9743 30.7529 28.8356 30.87C28.8302 30.7219 28.9036 30.6155 28.9145 30.5037C28.9308 30.3314 29.2379 30.2425 29.0476 30.0217C28.9919 29.9961 28.9362 29.9732 28.8818 29.9449C28.4252 29.6971 27.9563 29.6082 27.4617 29.8291C27.3924 29.8789 27.3244 29.9301 27.2565 29.9799C27.0512 30.1348 26.8555 30.3004 26.6408 30.4405C26.3921 30.6021 26.1271 30.7408 25.8702 30.8889C25.8363 30.8997 25.8023 30.9118 25.7697 30.9226C25.6963 30.9266 25.6202 30.936 25.5454 30.9428C25.419 30.9562 25.2927 30.9656 25.1717 30.9454C24.9216 30.9037 24.6634 30.8296 24.5411 30.563C24.5302 30.5037 24.5207 30.4445 24.5112 30.3852C24.5221 30.1105 24.6553 29.9274 24.9053 29.7968C25.1948 29.6446 25.6936 29.8856 25.7235 30.2129C25.6827 30.2708 25.6419 30.3287 25.5998 30.3866C25.5889 30.3987 25.5781 30.4095 25.5672 30.4216C25.5427 30.4418 25.5196 30.462 25.4952 30.4822L25.3769 30.7812C25.4258 30.7865 25.487 30.8094 25.5318 30.8094C25.5482 30.8094 25.5631 30.8067 25.574 30.7987C26.0265 30.4809 26.2698 30.1496 25.7221 29.7133C25.6732 29.6756 25.6202 29.6446 25.5685 29.6096C25.2397 29.4345 25.5781 29.3833 25.6311 29.2783H25.6324C25.9926 28.9753 26.3527 28.6723 26.7142 28.3707C26.9181 28.2481 27.1219 28.1269 27.3271 28.0044C27.3516 27.9882 27.376 27.9707 27.4005 27.9532C27.5378 27.9047 27.6723 27.8482 27.8123 27.8078C28.0882 27.7297 28.3518 27.7256 28.5869 27.9303C28.7799 28.0986 28.9892 28.2495 29.1808 28.4191C29.2542 28.4824 29.2977 28.5794 29.3629 28.6548C29.5165 28.8299 29.6483 29.0386 29.8359 29.1625C30.2368 29.4264 30.6676 29.6446 31.0862 29.8816C31.1677 29.9462 31.2479 30.0109 31.3294 30.0755C31.339 30.0782 31.3471 30.0809 31.3553 30.0849C31.392 30.1159 31.4273 30.1469 31.464 30.1779C31.6896 30.4135 31.9138 30.6492 32.1381 30.8848C32.1584 30.9091 32.1802 30.9333 32.2006 30.9576C32.8067 31.5972 33.2593 32.3433 33.6955 33.0987C33.705 33.1122 33.7145 33.1243 33.724 33.1378C33.9442 33.6482 34.1861 34.1531 34.3737 34.6756C34.4294 34.8318 34.4022 35.1295 34.2962 35.2103C33.9279 35.4904 33.5338 35.7691 33.1057 35.9307C32.2685 36.2445 31.4001 36.4667 30.4882 36.429C29.8128 36.4007 29.136 36.4061 28.4633 36.3509C27.9346 36.3064 27.3828 36.2701 26.8936 36.0896C26.3717 35.8984 25.9124 35.5415 25.4245 35.256C25.1907 35.116 24.9434 34.9934 24.7273 34.8292C24.586 34.7214 24.4487 34.5693 24.3808 34.4077C24.2177 34.0158 24.1742 33.6037 24.1973 33.1714C24.2122 32.8819 24.0845 32.5857 24.0206 32.2921C23.7325 31.9298 23.4593 31.5541 23.1495 31.2107V31.2094ZM25.8023 31.4922C25.7792 31.4127 25.7574 31.3346 25.7343 31.2565C25.7574 31.2471 25.7806 31.239 25.8037 31.2296C25.8254 31.2269 25.8485 31.2242 25.8702 31.2215C25.892 31.2175 25.9178 31.2175 25.9355 31.2053C26.3867 30.905 26.8338 30.5967 27.2931 30.3071C27.4943 30.1792 27.7212 30.089 27.936 29.9813H28.186C28.08 30.1173 28.0121 30.2048 27.9441 30.2923C27.671 30.5805 27.3964 30.8687 27.1233 31.1569C27.111 31.1676 27.1002 31.1771 27.0893 31.1878L26.3473 31.8625C26.335 31.8733 26.3228 31.8841 26.3119 31.8962C26.1679 32.0079 26.0225 32.1211 25.8336 32.2678V31.9635C25.824 31.8288 25.8159 31.6928 25.8064 31.5582C25.805 31.5366 25.8037 31.5137 25.8023 31.4922ZM26.1081 32.6301C26.089 32.6072 26.07 32.583 26.0496 32.5601C26.0809 32.4981 26.0958 32.42 26.1448 32.3783C26.35 32.1992 26.5647 32.0308 26.7767 31.8571L27.3353 31.3602C27.4426 31.2471 27.5541 31.138 27.656 31.0222C27.8762 30.7731 28.0855 30.5159 28.3111 30.2721C28.3831 30.1954 28.4932 30.1536 28.5842 30.0944C28.6209 30.1981 28.7174 30.3422 28.6807 30.3974C28.4619 30.7179 28.2105 31.0182 27.9699 31.3252C27.9591 31.3346 27.9468 31.3454 27.9346 31.3548C27.8694 31.3912 27.8041 31.4262 27.7403 31.4612C27.6927 31.4787 27.6451 31.4949 27.5976 31.511L27.4956 31.5595L26.9901 32.0322C26.9643 32.0807 26.9384 32.1291 26.914 32.1776C26.7971 32.416 26.6789 32.6543 26.562 32.8927C26.5375 32.9344 26.5144 32.9775 26.4913 33.0193C26.4655 32.9896 26.4397 32.9614 26.4152 32.9317C26.3581 32.8752 26.3024 32.8186 26.2453 32.7621L26.1787 32.6961C26.1556 32.6745 26.1325 32.653 26.1081 32.6301Z" fill="#131715"/>
<path d="M5.065 29.4183C5.05549 30.1225 5.16965 30.8053 5.41563 31.4651C5.48902 31.6631 5.55697 31.8624 5.62764 32.0604C5.65482 32.1088 5.68336 32.1587 5.7119 32.2071C5.71733 32.226 5.72277 32.2435 5.7282 32.2624C5.76898 32.3324 5.80839 32.4038 5.84916 32.4738C5.87498 32.5155 5.90216 32.5573 5.92798 32.599C5.99321 32.6677 6.05845 32.7377 6.12504 32.8064C6.13863 32.8374 6.15222 32.8697 6.16581 32.9007L6.22697 32.9734C6.30443 33.0528 6.38325 33.1323 6.46072 33.2117C6.53139 33.2872 6.6007 33.3639 6.67137 33.4393C6.68224 33.4501 6.69447 33.4609 6.7067 33.4716C6.74068 33.4945 6.77465 33.5161 6.80863 33.539C7.15382 33.7235 7.50037 33.9066 7.84556 34.0911C7.9407 34.1409 8.03583 34.1907 8.1296 34.2406C8.13775 34.2446 8.14727 34.2473 8.15542 34.25L8.46936 34.4076C8.52372 34.4331 8.57808 34.4587 8.63108 34.4843L8.74116 34.5409L8.79824 34.553C8.82542 34.5665 8.8526 34.5813 8.87978 34.5947C9.04422 34.65 9.20731 34.7038 9.37175 34.759C9.4329 34.7819 9.49542 34.8062 9.55793 34.8304C9.9439 34.9408 10.3285 35.0539 10.7172 35.1563C10.8286 35.1859 10.9496 35.1819 11.0651 35.1926C11.0936 35.2048 11.1208 35.2182 11.1494 35.2304C11.1684 35.233 11.1888 35.2371 11.2078 35.2411C11.22 35.2425 11.2336 35.2438 11.2458 35.2452C12.2366 35.3381 13.2273 35.4297 14.218 35.5226C14.233 35.528 14.2466 35.5333 14.2602 35.5387C15.1245 35.4997 15.9902 35.4539 16.8545 35.4229C17.7991 35.3906 18.7449 35.3758 19.6895 35.3435C20.3961 35.3206 21.1042 35.2883 21.8109 35.2438C21.993 35.2317 22.1697 35.159 22.3491 35.1145C22.4388 35.0701 22.5285 35.0243 22.6182 34.9799C22.6426 34.9705 22.6657 34.9597 22.6902 34.9503C22.7038 34.9408 22.7174 34.9327 22.731 34.9247C22.8179 34.8991 22.9049 34.8721 22.9932 34.8466C23.0748 34.8062 23.1577 34.7644 23.2406 34.724C23.2691 34.7173 23.299 34.7106 23.3289 34.7052C23.3398 34.6957 23.3507 34.6863 23.3629 34.6769L23.4648 34.5759C23.5817 34.4116 23.6986 34.2473 23.8141 34.0844L23.9079 33.9753C23.916 33.9632 23.9228 33.9497 23.931 33.9376C23.935 33.7262 23.9391 33.5147 23.9418 33.3033C23.9486 33.2683 23.9554 33.2333 23.9622 33.1969L23.9092 32.7C23.9011 32.6744 23.8916 32.6488 23.8834 32.6233C23.8562 32.5829 23.829 32.5411 23.8032 32.4994C23.7149 32.3741 23.6279 32.2489 23.5396 32.1237L23.5233 32.0671C23.4934 32.02 23.4648 31.9728 23.4349 31.9257C23.4213 31.9055 23.4077 31.884 23.3955 31.8624C23.3751 31.8382 23.3547 31.8153 23.333 31.791C23.1618 31.616 22.9851 31.4449 22.822 31.2618C22.4591 30.8551 22.3654 30.4296 22.5828 30.066C22.7608 29.7643 23.0422 29.5879 23.3969 29.5408C23.4213 29.5395 23.4444 29.5395 23.4689 29.5381L23.738 29.5462C23.8141 29.5718 23.8902 29.596 23.9677 29.6203C24.1851 29.8411 24.4025 29.8869 24.6417 29.6431C24.7097 29.5745 24.8103 29.5381 24.8959 29.4869C24.9299 29.4533 24.9638 29.4209 24.9978 29.3873C25.1976 29.2324 25.3987 29.0816 25.5944 28.9227C25.9029 28.6709 26.206 28.415 26.5104 28.1605C26.5213 28.1511 26.5321 28.143 26.543 28.1349C26.5552 28.1241 26.5675 28.1134 26.5811 28.1026L26.6545 28.042C26.664 28.0406 26.6735 28.0379 26.6816 28.0339C26.7306 27.9949 26.7795 27.9545 26.8298 27.9141C26.8583 27.906 26.8882 27.8992 26.9167 27.8912C26.929 27.8831 26.9412 27.8764 26.9534 27.8683C27.3231 27.7403 27.6873 27.5949 28.0638 27.4939C28.2078 27.4562 28.3791 27.5222 28.5381 27.5397C28.587 27.5693 28.6346 27.5976 28.6835 27.6259C28.7596 27.6972 28.837 27.7673 28.9131 27.8386C28.9607 27.8817 29.0083 27.9235 29.0558 27.9652C29.3548 28.1969 29.3576 28.1901 29.594 27.9141C29.6973 27.7915 29.7979 27.669 29.8835 27.5397C30.0262 27.3242 30.1295 27.0899 30.1499 26.8125C30.1539 26.7533 30.1458 26.6927 30.1431 26.6321C30.1431 26.5957 30.1431 26.5607 30.1431 26.5243C30.1417 26.4785 30.1417 26.4328 30.1417 26.3883C30.1281 26.3802 30.1159 26.3735 30.1023 26.3654C29.9555 26.4476 29.7992 26.5136 29.666 26.6119C29.3643 26.8354 29.0205 26.9229 28.659 26.9324C27.4943 26.9606 26.3296 26.9903 25.1636 26.9903C24.0941 26.9903 23.0245 26.9566 21.9549 26.9243C21.8041 26.9202 21.6546 26.8394 21.5051 26.795C21.4467 26.7721 21.3869 26.7479 21.3284 26.725C21.1395 26.7142 20.9493 26.7048 20.7604 26.694L20.422 26.6374C20.2969 26.6159 20.1719 26.5944 20.0469 26.5742L19.9816 26.5701C19.9246 26.5593 19.8661 26.5499 19.8091 26.5391C19.7873 26.5378 19.7656 26.5364 19.7452 26.5351C19.6976 26.527 19.6514 26.5176 19.6052 26.5082C19.5835 26.5055 19.5631 26.5028 19.5413 26.5001C19.4747 26.4866 19.4068 26.4718 19.3402 26.457C19.3171 26.4503 19.294 26.4422 19.2709 26.4341C19.2478 26.4314 19.226 26.4287 19.2029 26.426C18.9991 26.325 18.7952 26.2254 18.5927 26.1244C18.291 25.987 17.9893 25.8483 17.689 25.7096C17.583 25.6584 17.4783 25.6073 17.3723 25.5561C17.3411 25.5426 17.3098 25.5278 17.2785 25.5143C17.0502 25.4066 16.8206 25.2989 16.5922 25.1898C16.4604 25.1292 16.3299 25.0673 16.1981 25.0067C15.9684 24.8666 15.7374 24.7279 15.5077 24.5892C15.4778 24.5825 15.4493 24.5757 15.4208 24.569C15.3922 24.5542 15.365 24.538 15.3379 24.5232C14.7698 24.1583 14.1841 23.8176 13.6418 23.419C13.2463 23.1281 13.2966 22.3444 13.688 22.0427C13.756 21.9902 13.8701 21.9538 13.953 21.9686C14.4966 22.0602 15.0375 22.1693 15.5784 22.2716L16.19 22.4656C16.6303 22.5773 17.0693 22.6891 17.5096 22.8009C17.6292 22.8386 17.7474 22.8884 17.8697 22.914C18.378 23.019 18.8876 23.1187 19.3973 23.2183C19.4204 23.2224 19.4476 23.2116 19.4734 23.2076C19.4924 23.2102 19.5128 23.2116 19.5332 23.2143C19.9871 23.3005 20.441 23.3867 20.8949 23.4742C21.0077 23.4944 21.1205 23.5146 21.2347 23.5361C21.5051 23.5698 21.7756 23.6048 22.046 23.6398C22.0881 23.6439 22.1316 23.6479 22.1738 23.6506C22.379 23.6735 22.5855 23.695 22.7907 23.7179C23.2501 23.7422 23.7094 23.7651 24.1688 23.7893C24.23 23.8028 24.2925 23.8176 24.3536 23.831C24.7355 23.8553 25.1174 23.8809 25.5006 23.9051C25.6012 23.9294 25.7018 23.9671 25.8037 23.9724C26.1421 23.9886 26.4819 23.9926 26.8216 24.0021C26.9331 23.9994 27.0445 23.998 27.1573 23.9967C27.1818 23.9913 27.2062 23.9873 27.2293 23.9832C27.3299 23.9805 27.4291 23.9778 27.5297 23.9751C27.5867 23.9644 27.6425 23.9536 27.6995 23.9442C28.2907 23.9536 28.8697 23.8688 29.4282 23.6802C29.5505 23.6385 29.6525 23.5442 29.7653 23.4728C29.8998 23.3651 30.0724 23.2816 30.1635 23.1456C30.4244 22.7537 30.6568 22.3444 30.8892 21.9336C30.9367 21.8474 30.9299 21.7316 30.949 21.6293C30.9503 21.461 30.9517 21.294 30.953 21.127C30.9503 21.1041 30.949 21.0826 30.9462 21.0597C30.9422 21.0287 30.9381 20.9964 30.934 20.9654C30.9191 20.9263 30.9055 20.8886 30.8919 20.8496C30.7655 20.6449 30.6473 20.4348 30.5114 20.2369C30.4244 20.1103 30.3102 19.9999 30.2083 19.8813C30.158 19.8733 30.0819 19.841 30.0615 19.8612C29.9243 19.9985 29.7992 20.148 29.6701 20.2921C29.454 20.35 29.238 20.4065 29.0219 20.4644H28.8506C28.7949 20.4644 28.7392 20.4618 28.6835 20.4591C28.6712 20.4577 28.6604 20.4564 28.6481 20.455C28.5979 20.424 28.5476 20.3931 28.4959 20.3621C28.5 20.3244 28.5027 20.288 28.5068 20.2517C28.7473 20.218 28.9879 20.183 29.2298 20.1547C29.4568 20.1278 29.628 20.0241 29.7394 19.8248C29.753 19.8073 29.7666 19.7911 29.7802 19.7736C29.7625 19.7696 29.7449 19.7655 29.7258 19.7615C29.4554 19.7588 29.1836 19.7602 28.9131 19.7507C28.8601 19.7507 28.7691 19.7103 28.7664 19.682C28.7609 19.6188 28.7976 19.5501 28.818 19.4841C28.8302 19.4827 28.8411 19.4814 28.852 19.4787C28.9648 19.4787 29.0762 19.4774 29.189 19.476C29.2339 19.4774 29.2801 19.4787 29.3263 19.4801C29.8726 19.4949 30.438 19.1299 30.6622 18.6142C30.7451 18.4202 30.8212 18.225 30.896 18.0284C30.9109 17.9866 30.9041 17.9355 30.9136 17.8008C30.7954 17.9179 30.7302 17.9759 30.6731 18.0405C30.3374 18.4176 29.9759 18.7636 29.454 18.8593C29.189 18.9091 28.9186 18.9225 28.6509 18.9522C28.6373 18.9535 28.625 18.9549 28.6114 18.9562H27.6642C27.1423 18.9333 26.6164 18.9333 26.0986 18.8781C25.7561 18.8417 25.4191 18.7394 25.0902 18.6357C24.8701 18.567 24.8157 18.3529 24.8796 18.1657C24.9013 18.0997 24.9244 18.0324 24.9502 17.9664L24.5697 17.8897C24.5452 17.9476 24.5072 18.0055 24.4827 18.0634C24.4338 17.992 24.3509 17.926 24.3428 17.852C24.2816 17.2877 23.9745 16.8824 23.5559 16.5215C23.4145 16.4003 23.2759 16.2777 23.1387 16.1525L22.9633 16.3316C23.2148 16.5471 23.4213 16.8083 23.5695 17.1356L23.5939 17.176C23.6075 17.219 23.6225 17.2621 23.6361 17.3039C23.6429 17.3173 23.651 17.3308 23.6592 17.3443C23.7298 17.553 23.7774 17.7739 23.8793 17.9664C23.9704 18.1388 24.0981 18.3152 24.2544 18.427C24.5099 18.6101 24.533 19.134 24.2653 19.2781C24.1049 19.3656 23.9568 19.4774 23.8032 19.5797C23.7326 19.6201 23.6619 19.6618 23.5926 19.7022C23.3887 19.8665 23.1862 20.0308 22.9837 20.1965C22.9294 20.2409 22.8804 20.2934 22.8274 20.3419C22.8206 20.3473 22.8125 20.354 22.8057 20.3594C22.769 20.3971 22.731 20.4348 22.6943 20.4739C22.6888 20.4793 22.6834 20.486 22.6793 20.4914C22.5923 20.6031 22.5054 20.7149 22.4197 20.8267C22.3953 20.8469 22.3695 20.8671 22.345 20.8859C22.3137 20.9034 22.2838 20.9196 22.2526 20.9371C22.2417 20.9452 22.2295 20.9533 22.2186 20.9614C22.0039 21.1176 21.7878 21.2751 21.5731 21.4327C21.55 21.4421 21.5282 21.4529 21.5051 21.4623C21.4834 21.4663 21.463 21.469 21.4412 21.4731C21.2686 21.535 21.096 21.5956 20.9235 21.6576C20.5157 21.8111 20.1121 21.9808 19.6949 22.1114C19.4856 22.1774 19.2546 22.1787 19.0317 22.1949C18.9923 22.1976 18.9175 22.1329 18.9135 22.0939C18.9094 22.0548 18.9678 21.9835 19.0113 21.9713C19.366 21.8703 19.7221 21.7788 20.0795 21.6858L20.1121 21.6616C20.1692 21.6374 20.2249 21.6131 20.282 21.5889C20.3866 21.5498 20.4926 21.5108 20.5973 21.4731C21.4018 21.3074 22.0243 20.8536 22.5543 20.2557C22.6616 20.1561 22.769 20.0578 22.8777 19.9581C22.8641 19.9379 22.8519 19.9164 22.8383 19.8962H22.5488C22.5271 19.8948 22.5067 19.8935 22.485 19.8935C22.4496 19.8854 22.4129 19.8787 22.3776 19.8719C22.0188 19.8665 21.66 19.8612 21.3013 19.8544C21.2646 19.8517 21.2292 19.849 21.1925 19.845C21.0254 19.8248 20.8582 19.8046 20.6911 19.783C20.6462 19.7736 20.6 19.7642 20.5538 19.7548C20.5212 19.7534 20.4886 19.7521 20.4546 19.7494L20.3527 19.7453C20.1719 19.7359 19.9912 19.7265 19.8118 19.7171C19.3864 19.6618 18.961 19.6093 18.5356 19.5501C18.3929 19.5299 18.253 19.4949 18.1116 19.4666C18.0722 19.4572 18.0314 19.4477 17.992 19.4383C17.9649 19.4248 17.9363 19.4114 17.9091 19.3979C17.2351 19.2228 16.8505 18.6546 16.3354 18.2627C16.2131 18.1698 16.1098 18.0526 15.9983 17.9462C16.0636 17.9045 16.1288 17.8627 16.1954 17.821C16.5311 18.1024 16.86 18.3933 17.2065 18.6613C17.4022 18.8121 17.6278 18.9239 17.8412 19.0545C17.9119 19.0828 17.9825 19.1124 18.0546 19.1407C18.094 19.1474 18.1347 19.1555 18.1755 19.1622C18.2027 19.1771 18.2299 19.1919 18.257 19.208C18.2869 19.2134 18.3168 19.2201 18.3454 19.2269C18.3834 19.243 18.4228 19.2579 18.4609 19.274C18.4826 19.2767 18.503 19.2781 18.5248 19.2807L18.6308 19.305C18.6525 19.3077 18.6729 19.3104 18.6947 19.3117C18.73 19.3198 18.7653 19.3265 18.802 19.3346C18.9012 19.34 19.0004 19.344 19.0996 19.3494C19.169 19.3589 19.2383 19.3669 19.3062 19.3764C19.3388 19.3777 19.3728 19.3791 19.4054 19.3804C19.4285 19.3831 19.4503 19.3858 19.4734 19.3885C20.4206 19.4531 21.3692 19.5178 22.3164 19.5824C22.3396 19.5837 22.3627 19.5851 22.3844 19.5864C22.4863 19.5959 22.5883 19.6053 22.6888 19.6161H22.9593C23.3969 19.538 23.7828 19.3521 24.075 19.0208C24.1348 18.9535 24.1199 18.8054 24.1022 18.7003C24.0995 18.6775 23.931 18.6519 23.8521 18.6748C23.3955 18.804 22.943 18.9481 22.489 19.0882C22.33 19.0976 22.1724 19.1084 22.0134 19.1192C21.9346 19.1218 21.8557 19.1245 21.7769 19.1259C21.7633 19.1313 21.7497 19.1367 21.7361 19.1407L21.6464 19.1367C21.6329 19.1313 21.6179 19.1259 21.6043 19.1205C21.0077 19.0316 20.4097 18.9427 19.8131 18.8539C19.8009 18.8539 19.7887 18.8539 19.7751 18.8539L19.5753 18.7771C19.3565 18.6896 19.1404 18.5967 18.9189 18.5172C18.5153 18.3704 18.1008 18.2506 17.7066 18.0836C17.5272 18.0068 17.3873 17.8425 17.2283 17.72C17.1766 17.6809 17.1195 17.6473 17.0665 17.6109C16.599 17.3995 16.1315 17.1867 15.6627 16.9766C15.6029 16.9484 15.539 16.9255 15.4778 16.9012C15.4656 16.8958 15.4534 16.8905 15.4411 16.8837C15.4194 16.8783 15.399 16.873 15.3773 16.8662C15.3297 16.8366 15.2835 16.807 15.2359 16.776C14.9954 16.6683 14.763 16.578 14.479 16.6211C14.1637 16.6696 14.0101 16.4043 14.0373 16.0906C14.0685 15.7445 14.3363 15.5748 14.4953 15.3243C14.5741 15.2462 14.6529 15.1668 14.7304 15.0887C14.8201 15.0052 14.9166 14.9271 14.9967 14.8355C15.3922 14.3844 15.9195 14.1904 16.4876 14.0719C16.648 14.045 16.8083 14.0181 16.9673 13.9911C17.848 13.9885 18.7286 13.9858 19.6079 13.9831C19.6201 13.9831 19.631 13.9817 19.6419 13.9817C19.9681 13.9736 20.2929 13.9656 20.6177 13.9575C20.6652 13.9642 20.7114 13.9723 20.759 13.9804C21.1531 13.979 21.5472 13.9763 21.9414 13.9736C21.9549 13.9669 21.9672 13.9588 21.9794 13.9521C22.0705 13.9588 22.1602 13.9656 22.2512 13.9723C22.3083 13.9817 22.3667 13.9898 22.4252 13.9992C22.4795 14.0019 22.5339 14.006 22.5883 14.0087C22.6249 14.0154 22.6603 14.0221 22.6956 14.0289C22.9117 14.1676 23.1278 14.3036 23.3412 14.445C23.4009 14.484 23.4512 14.5379 23.5056 14.5837C23.5491 14.5998 23.5939 14.616 23.6374 14.6308V14.4194C23.4349 14.0491 23.2324 13.6801 23.0313 13.3097C22.8601 13.0647 22.6888 12.8209 22.5189 12.5758C22.4741 12.5314 22.4292 12.4856 22.3844 12.4398C22.3613 12.4183 22.3396 12.3954 22.3164 12.3738C22.2254 12.285 22.1343 12.1947 22.0433 12.1058C21.9998 12.0601 21.9563 12.0143 21.9128 11.9671L21.713 11.7975C21.6872 11.7786 21.6628 11.7584 21.6369 11.7396C21.535 11.6615 21.4331 11.5847 21.3312 11.5079C21.3216 11.5039 21.3121 11.5012 21.3026 11.4985L21.1966 11.4379C21.1885 11.4352 21.1789 11.4325 21.1708 11.4298C21.145 11.411 21.1191 11.3921 21.0947 11.3733C21.039 11.3477 20.9846 11.3208 20.9289 11.2952L20.8637 11.2629C20.8419 11.2521 20.8188 11.24 20.7971 11.2292C20.7835 11.2211 20.7712 11.2117 20.7576 11.2036L20.6924 11.1955C20.2616 11.1322 19.8322 11.0689 19.4013 11.0056C18.5316 10.9908 17.6632 10.9262 16.7961 11.1201C16.1791 11.2588 15.717 11.6103 15.259 12.0008C15.1123 12.126 14.9424 12.2284 14.7739 12.3254C14.7263 12.3523 14.6448 12.3186 14.5795 12.3132C14.5904 12.2674 14.5836 12.2001 14.6121 12.1799C15.1911 11.7705 15.6409 11.1874 16.3626 10.9666C17.3873 10.6542 18.4283 10.6946 19.4747 10.7538C19.5998 10.77 19.7261 10.7875 19.8525 10.805C20.0401 10.8238 20.229 10.8387 20.4165 10.8629C20.5552 10.8818 20.6217 10.8373 20.5946 10.6946C20.5701 10.5626 20.5375 10.4306 20.5089 10.2987L20.3255 9.95123C20.1624 9.55935 19.9137 9.23885 19.5495 9.00992L19.472 8.95336C18.961 8.46049 18.3019 8.40663 17.6455 8.34334C17.5762 8.33526 17.5082 8.32718 17.4389 8.3191C17.1359 8.29082 16.8328 8.27466 16.5311 8.27466C16.0201 8.27466 15.5105 8.3191 15.0063 8.4201C14.8323 8.45511 14.6719 8.56957 14.5129 8.65845C14.2887 8.78503 14.0726 8.92239 13.8538 9.05436C13.775 9.12169 13.6975 9.18903 13.6187 9.25501C13.4896 9.4193 13.3605 9.58225 13.23 9.74654C13.2015 9.7829 13.1716 9.8206 13.1417 9.85696C12.9351 10.2138 12.7462 10.5801 12.5192 10.9222C12.348 11.1807 12.1319 11.411 11.9321 11.6507C11.2744 12.4385 10.5269 13.1562 10.0159 14.0612C9.84061 14.3709 9.65578 14.6739 9.47503 14.9809C9.46552 14.993 9.45465 15.0052 9.44513 15.0186C9.27526 15.3405 9.10402 15.6637 8.93278 15.9869C8.91512 16.0125 8.89881 16.0394 8.88114 16.0663C8.30899 17.149 7.73412 18.2304 7.16469 19.3144C7.07907 19.476 7.01656 19.6497 6.94453 19.8181C6.91599 19.8652 6.88745 19.9123 6.85891 19.9608C6.77058 20.1897 6.68224 20.4187 6.5939 20.6489C6.57759 20.6745 6.56265 20.7015 6.54634 20.7284C6.3819 21.2603 6.21609 21.7936 6.05165 22.3255C6.0136 22.475 5.97555 22.6258 5.93885 22.7753C5.93614 22.7968 5.93478 22.8184 5.93342 22.8386C5.92526 22.8749 5.91711 22.9099 5.90896 22.945C5.7418 24.0317 5.57328 25.1198 5.40883 26.2065C5.38301 26.3708 5.37078 26.5378 5.35583 26.7034C5.30419 27.3013 5.25255 27.8992 5.20226 28.4958C5.19003 28.547 5.1778 28.5968 5.16557 28.648C5.16285 28.6897 5.15877 28.7328 5.15606 28.7746C5.1479 28.8217 5.14111 28.8688 5.13431 28.916C5.12888 28.9483 5.1248 28.9793 5.11936 29.0116C5.11121 29.091 5.10305 29.1705 5.0949 29.2513C5.09354 29.2715 5.09218 29.293 5.08946 29.3132C5.08267 29.3496 5.07451 29.3846 5.06636 29.4196L5.065 29.4183ZM12.7394 22.4763C12.7516 22.374 12.7557 22.2716 12.7775 22.172C12.7856 22.1329 12.8318 22.1033 12.8604 22.0683C13.3564 21.4798 14.0386 21.3613 14.7562 21.3357C14.8799 21.3357 15.0049 21.3223 15.1259 21.3438C15.1721 21.3519 15.2251 21.4354 15.2346 21.4906C15.24 21.5202 15.1585 21.5929 15.1123 21.597C14.8772 21.6158 14.638 21.5997 14.4056 21.632C13.8606 21.7101 13.336 21.834 13.0017 22.339C12.9541 22.4103 12.8291 22.4319 12.7394 22.4763ZM13.4828 20.7849C13.5412 20.7015 13.5834 20.5708 13.6622 20.5439C13.9122 20.4564 14.1759 20.4065 14.4341 20.3419C14.4382 20.3554 14.4409 20.3688 14.445 20.3823C14.5129 20.3823 14.5836 20.3688 14.6461 20.3863C14.7168 20.4052 14.7793 20.4537 14.8445 20.4887C14.7888 20.5358 14.7385 20.6099 14.6733 20.626C14.3662 20.7001 14.0563 20.7661 13.7451 20.82C13.6622 20.8348 13.5698 20.7984 13.4828 20.7849ZM25.3294 19.5487C25.3267 19.4814 25.324 19.4154 25.3212 19.3481C25.3851 19.3467 25.4517 19.3306 25.5102 19.3467C25.7086 19.4006 25.9029 19.4652 26.1 19.5258C26.2712 19.5784 26.4438 19.6309 26.615 19.6834C27.0064 19.6942 27.3978 19.7009 27.7892 19.7184C27.8518 19.7211 27.9129 19.7682 27.9741 19.7965C27.9197 19.849 27.8708 19.9433 27.8123 19.9487C27.5066 19.977 27.1981 19.9823 26.8909 19.9958C26.8352 20.0052 26.7795 20.0133 26.7238 20.0227L26.7768 20.0914C27.0037 20.3513 27.2456 20.6018 27.4536 20.8752C27.6017 21.0691 27.7118 21.294 27.8273 21.5108C27.8436 21.5391 27.8028 21.6293 27.7689 21.6428C27.7308 21.6576 27.6628 21.6279 27.6221 21.5983C27.5799 21.5673 27.5568 21.5094 27.5201 21.4677C27.1641 21.0502 26.8067 20.6341 26.4492 20.218C26.437 20.2072 26.4248 20.1978 26.4125 20.187C26.3473 20.1399 26.2807 20.0941 26.2155 20.047C26.1679 20.0147 26.1217 19.9837 26.0741 19.9527C25.9736 19.8948 25.8744 19.8369 25.7738 19.779L25.3294 19.5487Z" fill="#609543"/>
<path d="M12.7774 22.1721C12.7557 22.2717 12.7516 22.3741 12.7394 22.4764C12.8291 22.432 12.9541 22.4104 13.0017 22.3391C13.336 21.8341 13.8606 21.7102 14.4055 21.6321C14.6379 21.5998 14.8771 21.6159 15.1122 21.5971C15.1584 21.593 15.24 21.5203 15.2345 21.4907C15.225 21.4355 15.172 21.352 15.1258 21.3439C15.0049 21.3224 14.8798 21.3358 14.7562 21.3358C14.0386 21.3614 13.3564 21.4799 12.8603 22.0684C12.8318 22.1034 12.7856 22.133 12.7774 22.1721Z" fill="#131715"/>
<path d="M13.6866 22.0427C13.2952 22.3444 13.2449 23.1281 13.6404 23.419C14.1826 23.8176 14.7684 24.1583 15.3365 24.5233C15.3636 24.5381 15.3908 24.5542 15.4194 24.569C15.4479 24.5758 15.4764 24.5825 15.5063 24.5892C15.736 24.7279 15.967 24.8666 16.1967 25.0067C16.3285 25.0673 16.459 25.1292 16.5908 25.1898C16.8191 25.2989 17.0488 25.4067 17.2771 25.5144C17.3084 25.5279 17.3397 25.5427 17.3709 25.5561C17.4769 25.6073 17.5816 25.6585 17.6876 25.7096C17.9879 25.8484 18.2896 25.9871 18.5913 26.1244C18.7938 26.2254 18.9977 26.3251 19.2015 26.4261C19.2246 26.4288 19.2464 26.4314 19.2695 26.4341C19.2926 26.4422 19.3157 26.4503 19.3388 26.457C19.4054 26.4718 19.4733 26.4867 19.5399 26.5001C19.5617 26.5028 19.582 26.5055 19.6038 26.5082C19.65 26.5176 19.6962 26.5271 19.7438 26.5351C19.7642 26.5365 19.7859 26.5378 19.8076 26.5392C19.8647 26.55 19.9232 26.5594 19.9802 26.5701L20.0455 26.5742C20.1705 26.5944 20.2955 26.6159 20.4206 26.6375L20.759 26.694C20.9479 26.7048 21.1381 26.7142 21.327 26.725C21.3855 26.7479 21.4453 26.7721 21.5037 26.795C21.6532 26.8395 21.8027 26.9203 21.9535 26.9243C23.0231 26.9566 24.0926 26.9903 25.1622 26.9903C26.3282 26.9903 27.4929 26.9607 28.6576 26.9324C29.0191 26.923 29.3629 26.8354 29.6646 26.6119C29.7978 26.5136 29.9541 26.4476 30.1009 26.3655C30.1145 26.3735 30.1267 26.3803 30.1403 26.3884C30.1403 26.4328 30.1403 26.4786 30.1417 26.5244C30.1417 26.5607 30.1417 26.5957 30.1417 26.6321C30.1444 26.6927 30.1525 26.7533 30.1485 26.8125C30.1281 27.09 30.0248 27.3243 29.8821 27.5397L30.0248 27.6353C30.1158 27.5047 30.2042 27.3741 30.2925 27.2435C30.3251 27.195 30.3292 27.1277 30.3469 27.0684C30.3564 27.0442 30.3645 27.0213 30.3727 26.997C30.3523 26.7062 30.3319 26.4153 30.3102 26.1244C30.2218 25.9211 30.4067 25.8591 30.5072 25.7554C30.6391 25.5831 30.7722 25.412 30.9014 25.2397C31.0875 24.9905 31.1446 24.7212 31.0332 24.425C30.9965 24.3536 30.9584 24.2809 30.9217 24.2081C30.9177 24.1879 30.9136 24.1691 30.9109 24.1489C30.8837 24.091 30.8171 24.0129 30.8361 23.9806C30.9285 23.8163 31.0427 23.6641 31.1487 23.5065C31.3716 23.2386 31.6026 22.976 31.8119 22.6986C31.9804 22.4777 31.9695 22.2313 31.854 21.9862C31.7738 21.8138 31.6909 21.6441 31.6094 21.4731L31.5564 21.3964C31.464 21.3075 31.3729 21.2186 31.2819 21.1297C31.252 21.0718 31.2207 21.0139 31.1895 20.956C31.1759 20.9021 31.1623 20.8469 31.1487 20.7917L31.1202 20.723L31.112 20.6948C31.0454 20.583 30.9775 20.4699 30.9109 20.3581C30.9068 20.3487 30.9041 20.3406 30.9027 20.3312C30.8157 20.2275 30.7301 20.1238 30.6445 20.0187C30.6323 19.9972 30.62 19.9757 30.6078 19.9528C30.5616 19.9097 30.5154 19.8666 30.4678 19.8235C30.4474 19.7992 30.4271 19.775 30.4067 19.7494C30.3727 19.7171 30.3387 19.6834 30.3047 19.6511C30.2925 19.6296 30.2789 19.6067 30.2653 19.5851C30.2653 19.5366 30.2477 19.472 30.2721 19.4424C30.389 19.305 30.5167 19.1757 30.6418 19.0438C30.6513 19.033 30.6608 19.0222 30.6717 19.0115C30.741 18.901 30.8117 18.7893 30.8823 18.6788C31.1433 18.1712 31.1745 17.6352 31.0903 17.0817C31.0699 16.9471 31.0875 16.8057 31.0875 16.667C31.0889 16.6548 31.0889 16.6427 31.0903 16.6306C31.0903 16.3747 31.0862 16.1202 31.0943 15.8657C31.0957 15.8105 31.1351 15.7135 31.1691 15.7082C31.4871 15.6543 31.3702 15.4388 31.3512 15.2584C31.3063 15.2032 31.2615 15.1466 31.2166 15.0914L31.112 15.2436C31.1242 15.2516 31.1351 15.2597 31.1473 15.2678C31.1256 15.2988 31.1038 15.3297 31.0821 15.3621C30.8429 15.2059 30.6051 15.0496 30.3673 14.8934C30.3455 14.8907 30.3251 14.888 30.3034 14.8854C30.2789 14.8786 30.2531 14.8719 30.2273 14.8652L29.9704 14.845C29.9229 14.8382 29.8766 14.8315 29.8304 14.8248C28.9634 14.6887 28.095 14.6874 27.2238 14.787C27.145 14.8086 27.0662 14.8301 26.986 14.8517C26.7305 14.9796 26.4737 15.1062 26.2182 15.2341C26.1801 15.2624 26.1421 15.2907 26.104 15.3203C26.0918 15.3311 26.0795 15.3432 26.0687 15.354C26.0252 15.389 25.983 15.4254 25.9396 15.4604C25.7887 15.6072 25.6311 15.7472 25.4911 15.9021C25.4557 15.9411 25.4748 16.0273 25.468 16.0919C25.5414 16.0919 25.6324 16.1189 25.6827 16.0852C25.7819 16.0179 25.858 15.9169 25.9423 15.8293C25.9531 15.8199 25.9627 15.8091 25.9735 15.7997C25.9858 15.7876 25.998 15.7741 26.0116 15.762C26.0211 15.7526 26.0306 15.7432 26.0415 15.7337C26.263 15.595 26.4859 15.455 26.7088 15.3163L26.7862 15.2638C26.9914 15.1924 27.1939 15.0698 27.4019 15.0591C28.0053 15.0268 28.6114 15.0389 29.2162 15.0335C29.3983 15.051 29.5804 15.0685 29.7625 15.0873C29.931 15.1224 30.1009 15.1574 30.2694 15.1937C30.3931 15.2597 30.5168 15.3257 30.6391 15.393C30.6499 15.3971 30.6608 15.4011 30.6703 15.4052C30.7057 15.4348 30.741 15.4644 30.775 15.4927C30.9367 15.8159 30.8783 16.1498 30.8252 16.5013C30.4896 15.9559 30.1607 15.428 29.4282 15.4146C29.0544 15.4065 28.6821 15.3944 28.3083 15.3903C28.114 15.389 27.9197 15.4025 27.7253 15.4092C27.5609 15.4536 27.3869 15.4806 27.2333 15.5479C27.0635 15.622 26.9126 15.7337 26.7523 15.8293C26.6816 15.8805 26.6109 15.9317 26.5402 15.9815C26.5307 15.9869 26.5212 15.9909 26.5103 15.9936C26.4791 16.0179 26.4465 16.0421 26.4139 16.0664C26.0197 16.5107 25.6066 16.9417 25.2397 17.409C25.1119 17.5706 25.0209 17.7658 24.9475 17.9665C24.9216 18.0325 24.8985 18.0998 24.8768 18.1658C24.8129 18.353 24.8673 18.5671 25.0874 18.6357C25.4163 18.7394 25.7534 18.8418 26.0958 18.8781C26.6136 18.9334 27.1396 18.9334 27.6614 18.9562H28.6087C28.6223 18.9549 28.6345 18.9536 28.6481 18.9522C28.9158 18.9226 29.1863 18.9091 29.4513 18.8593C29.9731 18.7637 30.3346 18.4176 30.6703 18.0405C30.7274 17.9759 30.7926 17.918 30.9109 17.8008C30.9014 17.9355 30.9081 17.9867 30.8932 18.0284C30.8185 18.225 30.7423 18.4203 30.6594 18.6142C30.4352 19.13 29.8699 19.4949 29.3235 19.4801C29.2773 19.4787 29.2311 19.4774 29.1863 19.476C29.0735 19.4774 28.962 19.4787 28.8492 19.4787C28.8384 19.4814 28.8275 19.4828 28.8153 19.4841C28.7949 19.5501 28.7582 19.6188 28.7636 19.6821C28.7663 19.7104 28.8574 19.7494 28.9104 19.7508C29.1808 19.7602 29.4526 19.7588 29.7231 19.7615C29.7421 19.7656 29.7598 19.7696 29.7774 19.7737C29.7638 19.7912 29.7503 19.8073 29.7367 19.8248C29.6252 20.0241 29.454 20.1278 29.227 20.1548C28.9851 20.183 28.7446 20.218 28.504 20.2517C28.5 20.2881 28.4972 20.3244 28.4932 20.3621C28.5448 20.3931 28.5951 20.4241 28.6454 20.4551C28.6576 20.4564 28.6685 20.4578 28.6807 20.4591C28.7364 20.4618 28.7921 20.4631 28.8479 20.4645H29.0191C29.2352 20.4066 29.4513 20.35 29.6674 20.2921C29.7965 20.148 29.9215 19.9985 30.0588 19.8612C30.0791 19.841 30.1553 19.8733 30.2055 19.8814C30.3075 19.9999 30.4216 20.1103 30.5086 20.2369C30.6445 20.4349 30.7627 20.6449 30.8891 20.8496C30.9027 20.8887 30.9163 20.9264 30.9313 20.9654C30.9353 20.9964 30.9394 21.0287 30.9435 21.0597C30.9462 21.0826 30.9476 21.1041 30.9503 21.127C30.9489 21.294 30.9476 21.461 30.9462 21.6293C30.9272 21.7317 30.934 21.8475 30.8864 21.9337C30.654 22.3444 30.4216 22.7538 30.1607 23.1456C30.0696 23.2817 29.897 23.3651 29.7625 23.4729C29.6497 23.5442 29.5478 23.6385 29.4255 23.6803C28.8669 23.8688 28.288 23.9536 27.6968 23.9442C27.6397 23.9536 27.584 23.9644 27.5269 23.9752C27.4263 23.9779 27.3271 23.9806 27.2266 23.9833C27.2035 23.9873 27.179 23.9913 27.1545 23.9967C27.0417 23.9981 26.9303 23.9994 26.8188 24.0021C26.4791 23.9927 26.1393 23.9886 25.8009 23.9725C25.699 23.9671 25.5984 23.9294 25.4979 23.9051C25.1146 23.8809 24.7327 23.8553 24.3509 23.8311C24.2897 23.8176 24.2272 23.8028 24.166 23.7893C23.7067 23.7651 23.2473 23.7422 22.788 23.718C22.5828 23.6951 22.3762 23.6735 22.171 23.6506C22.1289 23.6479 22.0854 23.6439 22.0432 23.6399C21.7728 23.6048 21.5023 23.5698 21.2319 23.5362C21.1177 23.5146 21.0049 23.4944 20.8921 23.4742C20.4382 23.3867 19.9843 23.3005 19.5304 23.2143C19.51 23.2116 19.4896 23.2103 19.4706 23.2076C19.4448 23.2116 19.4176 23.2224 19.3945 23.2184C18.8849 23.1187 18.3752 23.0191 17.867 22.914C17.7446 22.8884 17.6264 22.8386 17.5068 22.8009C17.0665 22.6891 16.6275 22.5774 16.1872 22.4656L15.5756 22.2717C15.0347 22.1693 14.4939 22.0603 13.9502 21.9687C13.8673 21.9539 13.7532 21.9902 13.6852 22.0427H13.6866ZM13.6798 22.7915C13.6553 22.537 13.8959 22.2474 14.1514 22.2663C14.3906 22.2851 14.6311 22.3215 14.8608 22.3861C15.4438 22.5491 16.016 22.7605 16.6044 22.9019C17.4022 23.0945 18.2108 23.2453 19.018 23.4042C19.6323 23.5254 20.2493 23.6412 20.8677 23.7449C22.1316 23.9536 23.3982 24.126 24.6825 24.1475C25.7439 24.165 26.8039 24.2216 27.8653 24.2418C28.4782 24.2539 29.0721 24.1502 29.6279 23.8769C30.2028 23.5927 30.5765 23.1214 30.8429 22.5639C31.0101 22.2151 31.1419 21.8502 31.2914 21.4839C31.6842 21.7074 31.8024 22.405 31.4898 22.7861C31.2805 23.0393 31.0169 23.2534 30.8375 23.5241C30.5426 23.9711 30.158 24.3186 29.7394 24.635C29.5845 24.7522 29.42 24.9151 29.2461 24.9367C28.6889 25.004 28.1262 25.0363 27.5649 25.0417C26.9982 25.0484 26.4302 25.0013 25.8621 24.9892C25.3688 24.9798 24.8727 25.0094 24.3794 24.9784C23.81 24.9421 23.2324 24.9111 22.6793 24.7845C21.7592 24.5731 20.8378 24.4209 19.8946 24.4478C18.9705 24.4734 18.1252 24.1651 17.2744 23.8755C16.936 23.7611 16.599 23.6426 16.2619 23.5254C15.967 23.4231 15.6667 23.3382 15.3827 23.213C15.2019 23.1335 15.0538 22.9867 14.8812 22.8884C14.8309 22.8602 14.7453 22.8952 14.676 22.9006C14.7045 22.9625 14.7154 23.0446 14.7629 23.081C15.1081 23.3463 15.471 23.5806 15.8991 23.7045C16.5066 23.8823 17.1181 24.0533 17.7093 24.2755C18.4513 24.5542 19.2056 24.701 20.0006 24.7266C20.6829 24.7495 21.3637 24.8478 22.0419 24.938C22.8913 25.0511 23.7325 25.2343 24.5833 25.307C25.3905 25.3757 26.2059 25.3609 27.0173 25.3447C27.656 25.3326 28.2934 25.2504 28.9335 25.2275C29.2664 25.2154 29.545 25.1037 29.7978 24.9057C30.0357 24.7185 30.2653 24.5219 30.5113 24.3468C30.5589 24.3118 30.7165 24.3293 30.7342 24.3644C30.8579 24.6269 30.8701 24.9044 30.6934 25.1441C30.4542 25.4659 30.2232 25.8053 29.9256 26.0665C29.6646 26.2941 29.3262 26.5486 29.0055 26.5728C27.7552 26.6711 26.4995 26.694 25.2451 26.7223C24.5928 26.7371 23.9377 26.7156 23.2854 26.686C22.7391 26.6617 22.1941 26.6132 21.6505 26.554C21.1993 26.5042 20.7522 26.422 20.3023 26.3547C20.0156 26.3102 19.7071 26.317 19.4434 26.2119C18.768 25.9399 18.1048 25.6356 17.4511 25.3151C16.724 24.9582 16.0078 24.5785 15.297 24.1906C14.9084 23.9779 14.5469 23.7207 14.1636 23.5012C13.8796 23.3382 13.7124 23.1174 13.6798 22.7915ZM25.313 18.4028C25.2478 18.3732 25.1826 18.2398 25.1935 18.1631C25.2546 17.7173 25.5808 17.4345 25.8743 17.1342C25.8866 17.1262 25.8974 17.1181 25.9083 17.11C25.9165 17.1006 25.926 17.0925 25.9341 17.0844C25.9436 17.0777 25.9518 17.0696 25.9613 17.0629L25.9681 17.0588C25.9926 17.0279 26.017 16.9969 26.0415 16.9673C26.0537 16.974 26.0673 16.9807 26.0809 16.9888C26.0632 17.0279 26.0469 17.0669 26.0293 17.1046C25.8308 17.5638 25.7343 18.0351 25.8811 18.5657C25.6637 18.5065 25.4788 18.4768 25.313 18.4028ZM26.6191 17.2083C26.6136 17.1679 26.6082 17.1275 26.6041 17.0871C26.6816 17.0252 26.7604 16.9147 26.8392 16.9161C26.9221 16.9161 27.005 17.0211 27.0866 17.0804C27.0105 17.1652 26.948 17.2756 26.8515 17.3228C26.8039 17.3457 26.6979 17.2501 26.6191 17.2083ZM26.9099 18.2924C26.7917 18.1671 26.7224 18.0944 26.6544 18.0217C26.7414 17.953 26.8202 17.856 26.9194 17.8264C26.967 17.8129 27.1138 17.9382 27.107 17.9853C27.0934 18.0755 27.0037 18.155 26.9099 18.2924ZM26.8868 16.1835C26.8977 16.1552 26.9099 16.127 26.9208 16.0987C27.1817 15.9627 27.429 15.7714 27.7049 15.7082C28.0392 15.6341 28.3994 15.6691 28.7487 15.6556C28.7813 15.6583 28.8153 15.6597 28.8492 15.661C29.0286 15.6664 29.2067 15.6718 29.3847 15.6772C29.6796 15.7553 30.0465 15.6987 30.1729 16.0906V16.0946C30.1974 16.127 30.2191 16.1593 30.2422 16.1916L30.9027 17.0642C30.8837 17.0858 30.8647 17.1087 30.8456 17.1302C30.5942 17.0306 30.336 16.9417 30.09 16.8286C29.7639 16.6777 29.4472 16.5067 29.1278 16.3451C28.9158 16.3316 28.7038 16.3222 28.4932 16.3007C28.3858 16.2899 28.2798 16.2535 28.1724 16.2293C28.1154 16.2266 28.0596 16.2239 28.0026 16.2212C27.9468 16.2185 27.8925 16.2158 27.8368 16.2131C27.5989 16.2051 27.3597 16.197 27.1219 16.1876C27.0431 16.1862 26.9656 16.1849 26.8868 16.1835ZM28.2798 17.9719C27.9591 17.9719 27.8585 17.8924 27.8816 17.6231C27.8966 17.444 27.9047 17.2325 28.1874 17.2379C28.5489 17.2447 28.6046 17.3012 28.6141 17.6473C28.6223 17.9045 28.5054 18.0028 28.2798 17.9719ZM28.7622 16.5956C28.9049 16.605 28.9797 16.5915 29.0354 16.6171C29.5804 16.869 30.1254 17.1221 30.6622 17.3888C30.6961 17.4063 30.7084 17.5652 30.6717 17.6069C30.4814 17.8237 30.2776 18.0311 30.0669 18.2277C29.7312 18.5415 29.3127 18.6263 28.9389 18.6411C29.0232 18.3058 29.1469 17.9678 29.1863 17.6204C29.2284 17.2514 29.0504 16.9242 28.7622 16.5956Z" fill="#131715"/>
<path d="M13.6622 20.5439C13.5834 20.5708 13.5412 20.7015 13.4828 20.785C13.5698 20.7984 13.6622 20.8348 13.7451 20.82C14.0563 20.7661 14.3662 20.7001 14.6733 20.6261C14.7385 20.6099 14.7888 20.5358 14.8445 20.4887C14.7793 20.4537 14.7168 20.4052 14.6461 20.3864C14.5836 20.3689 14.5129 20.3823 14.445 20.3823C14.4409 20.3689 14.4382 20.3554 14.4341 20.3419C14.1759 20.4066 13.9122 20.4564 13.6622 20.5439Z" fill="#131715"/>
<path d="M14.1514 22.2663C13.8959 22.2474 13.6554 22.537 13.6798 22.7915C13.7124 23.1174 13.8796 23.3382 14.1636 23.5012C14.5469 23.7207 14.9084 23.9779 15.2971 24.1906C16.0078 24.5785 16.724 24.9582 17.4511 25.3151C18.1048 25.6356 18.768 25.9399 19.4434 26.2119C19.7071 26.317 20.0156 26.3102 20.3023 26.3547C20.7522 26.422 21.1993 26.5042 21.6505 26.554C22.1941 26.6132 22.7391 26.6617 23.2854 26.686C23.9377 26.7156 24.5928 26.7371 25.2451 26.7223C26.4995 26.694 27.7552 26.6711 29.0055 26.5728C29.3263 26.5486 29.6647 26.2941 29.9256 26.0665C30.2232 25.8053 30.4543 25.4659 30.6934 25.1441C30.8701 24.9044 30.8579 24.6269 30.7342 24.3643C30.7165 24.3293 30.5589 24.3118 30.5113 24.3468C30.2653 24.5219 30.0357 24.7185 29.7978 24.9057C29.5451 25.1037 29.2665 25.2154 28.9335 25.2275C28.2934 25.2504 27.656 25.3326 27.0173 25.3447C26.2059 25.3609 25.3905 25.3757 24.5833 25.307C23.7325 25.2343 22.8913 25.0511 22.0419 24.938C21.3637 24.8478 20.6829 24.7495 20.0006 24.7266C19.2056 24.701 18.4514 24.5542 17.7093 24.2755C17.1181 24.0533 16.5066 23.8823 15.8991 23.7045C15.471 23.5806 15.1082 23.3463 14.763 23.081C14.7154 23.0446 14.7045 22.9625 14.676 22.9006C14.7453 22.8952 14.8309 22.8602 14.8812 22.8884C15.0538 22.9867 15.2019 23.1335 15.3827 23.213C15.6667 23.3382 15.9671 23.423 16.262 23.5254C16.599 23.6426 16.936 23.7611 17.2744 23.8755C18.1252 24.165 18.9705 24.4734 19.8946 24.4478C20.8378 24.4209 21.7592 24.5731 22.6793 24.7845C23.2324 24.9111 23.81 24.9421 24.3794 24.9784C24.8727 25.0094 25.3688 24.9798 25.8621 24.9892C26.4302 25.0013 26.9983 25.0484 27.565 25.0417C28.1262 25.0363 28.6889 25.004 29.2461 24.9367C29.42 24.9151 29.5845 24.7522 29.7394 24.635C30.158 24.3186 30.5426 23.9711 30.8375 23.524C31.0169 23.2534 31.2805 23.0393 31.4898 22.7861C31.8024 22.405 31.6842 21.7074 31.2914 21.4839C31.1419 21.8502 31.0101 22.2151 30.8429 22.5639C30.5766 23.1214 30.2028 23.5927 29.628 23.8769C29.0721 24.1502 28.4782 24.2539 27.8653 24.2418C26.8039 24.2216 25.7439 24.165 24.6825 24.1475C23.3982 24.126 22.1316 23.9536 20.8677 23.7449C20.2493 23.6412 19.6323 23.5254 19.0181 23.4042C18.2108 23.2453 17.4022 23.0945 16.6044 22.9019C16.016 22.7605 15.4438 22.5491 14.8608 22.3861C14.6311 22.3215 14.3906 22.2851 14.1514 22.2663Z" fill="#933E21"/>
<path d="M14.0359 16.0893C14.0087 16.4031 14.1623 16.6684 14.4776 16.6199C14.7616 16.5768 14.994 16.667 15.2346 16.7747C15.2821 16.8057 15.3283 16.8353 15.3759 16.865C15.3977 16.8717 15.418 16.8771 15.4398 16.8825C15.452 16.8892 15.4642 16.8946 15.4765 16.9C15.5376 16.9242 15.6015 16.9471 15.6613 16.9754C16.1302 17.1855 16.5977 17.3982 17.0652 17.6097C17.1182 17.646 17.1753 17.6797 17.2269 17.7187C17.3859 17.8413 17.5259 18.0056 17.7053 18.0823C18.0994 18.2493 18.5139 18.3692 18.9175 18.516C19.139 18.5954 19.3551 18.6883 19.5739 18.7759L19.7737 18.8526C19.7873 18.8526 19.7995 18.8526 19.8118 18.8526C20.4084 18.9415 21.0063 19.0304 21.603 19.1192C21.6165 19.1246 21.6315 19.13 21.6451 19.1354L21.7348 19.1394C21.7484 19.1354 21.762 19.13 21.7756 19.1246C21.8544 19.1233 21.9332 19.1206 22.012 19.1179C22.171 19.1071 22.3287 19.0964 22.4877 19.0869C22.9416 18.9469 23.3941 18.8028 23.8508 18.6735C23.9296 18.6506 24.0981 18.6762 24.1008 18.6991C24.1185 18.8041 24.1335 18.9523 24.0737 19.0196C23.7815 19.3509 23.3955 19.5367 22.9579 19.6148H22.6875C22.5869 19.604 22.485 19.5946 22.383 19.5852C22.3613 19.5838 22.3382 19.5825 22.3151 19.5811C21.3678 19.5165 20.4192 19.4519 19.472 19.3872C19.4489 19.3845 19.4272 19.3818 19.4041 19.3791C19.3714 19.3791 19.3375 19.3765 19.3048 19.3751C19.2369 19.3657 19.1676 19.3576 19.0983 19.3482C18.9991 19.3428 18.8999 19.3388 18.8006 19.3334C18.764 19.3253 18.7286 19.3186 18.6933 19.3105C18.6715 19.3091 18.6512 19.3064 18.6294 19.3037L18.5234 19.2795C18.5017 19.2768 18.4813 19.2755 18.4595 19.2728C18.4215 19.2566 18.3821 19.2418 18.344 19.2256C18.3155 19.2189 18.2856 19.2122 18.2557 19.2068C18.2285 19.1906 18.2013 19.1758 18.1741 19.161C18.1334 19.1543 18.0926 19.1462 18.0532 19.1394C17.9812 19.1112 17.9105 19.0815 17.8398 19.0533C17.6265 18.9226 17.4009 18.8109 17.2052 18.66C16.8586 18.3921 16.5297 18.1012 16.194 17.8197C16.1274 17.8615 16.0622 17.9032 15.997 17.945C16.1084 18.0514 16.2117 18.1685 16.334 18.2614C16.8491 18.6533 17.2337 19.2216 17.9078 19.3967C17.9349 19.4101 17.9635 19.4236 17.9907 19.4371C18.0301 19.4465 18.0709 19.4559 18.1103 19.4653C18.2516 19.4936 18.3916 19.5286 18.5343 19.5488C18.9597 19.6081 19.385 19.6606 19.8104 19.7158C19.9898 19.7252 20.1705 19.7347 20.3513 19.7441L20.4532 19.7481C20.4872 19.7508 20.5198 19.7522 20.5524 19.7535C20.5986 19.7629 20.6448 19.7724 20.6897 19.7818C20.8568 19.8033 21.024 19.8235 21.1912 19.8437C21.2279 19.8478 21.2632 19.8505 21.2999 19.8532C21.6587 19.8599 22.0175 19.8653 22.3762 19.8707C22.4116 19.8774 22.4483 19.8841 22.4836 19.8922C22.5053 19.8922 22.5257 19.8936 22.5475 19.8949H22.8369C22.8505 19.9151 22.8628 19.9367 22.8764 19.9569C22.7676 20.0565 22.6603 20.1548 22.5529 20.2545C22.0229 20.8524 21.4005 21.3062 20.5959 21.4718C20.4913 21.5095 20.3853 21.5486 20.2806 21.5876C20.2235 21.6119 20.1678 21.6361 20.1107 21.6604L20.0781 21.6846C19.7207 21.7775 19.3646 21.8691 19.0099 21.9701C18.9664 21.9822 18.908 22.0536 18.9121 22.0926C18.9162 22.1317 18.9909 22.1963 19.0303 22.1936C19.2532 22.1775 19.4842 22.1761 19.6935 22.1101C20.1107 21.9795 20.5144 21.8098 20.9221 21.6563C21.0947 21.5944 21.2673 21.5338 21.4399 21.4718C21.4616 21.4678 21.482 21.4651 21.5037 21.4611C21.5268 21.4516 21.5486 21.4409 21.5717 21.4314C21.7864 21.2739 22.0025 21.1163 22.2172 20.9601C22.2281 20.952 22.2403 20.9439 22.2512 20.9359C22.2825 20.9184 22.3124 20.9022 22.3436 20.8847C22.3681 20.8658 22.3939 20.8456 22.4184 20.8254C22.504 20.7137 22.591 20.6019 22.6779 20.4901C22.682 20.4847 22.6875 20.478 22.6929 20.4726C22.7296 20.4336 22.7676 20.3959 22.8043 20.3582C22.8111 20.3528 22.8193 20.346 22.8261 20.3407C22.8791 20.2922 22.928 20.2397 22.9824 20.1952C23.1849 20.0296 23.3874 19.8653 23.5912 19.701C23.6605 19.6606 23.7312 19.6189 23.8019 19.5785C23.9554 19.4761 24.1036 19.3643 24.2639 19.2768C24.5316 19.1327 24.5085 18.6089 24.253 18.4257C24.0968 18.314 23.969 18.1375 23.878 17.9652C23.776 17.7726 23.7285 17.5518 23.6578 17.343C23.6496 17.3296 23.6415 17.3161 23.6347 17.3026C23.6211 17.2609 23.6062 17.2178 23.5926 17.1747L23.5681 17.1343C23.42 16.8071 23.2134 16.5458 22.962 16.3304C22.7119 16.1162 22.4184 15.9479 22.0963 15.8106C21.872 15.7136 21.6519 15.6032 21.4385 15.4833C21.1178 15.3015 20.8066 15.1036 20.4899 14.9137C20.3662 14.8571 20.2412 14.8006 20.1162 14.744L19.8512 14.6996C19.8145 14.6915 19.7791 14.6848 19.7438 14.6767C19.6772 14.6713 19.612 14.6659 19.5468 14.6605C19.5223 14.6551 19.4965 14.6497 19.472 14.6444C19.067 14.6538 18.6607 14.6632 18.2557 14.6726C18.2421 14.674 18.2285 14.674 18.2163 14.6753C17.5354 14.7144 16.8695 14.8329 16.2212 15.0389C15.6613 15.2167 15.2155 15.5399 14.8948 16.0408C14.8051 16.1809 14.6216 16.2644 14.4722 16.3573C14.4558 16.3681 14.3349 16.2778 14.3281 16.2267C14.286 15.9196 14.4953 15.7378 14.6991 15.5574C14.7317 15.5237 14.7657 15.4901 14.7983 15.4564H14.7997C14.8309 15.4214 14.8636 15.3864 14.8962 15.3513C14.9641 15.284 15.0307 15.2167 15.0987 15.1494C15.1775 15.0712 15.255 14.9918 15.3338 14.9123C15.6042 14.7656 15.8733 14.6188 16.1438 14.4706C16.3286 14.4222 16.5134 14.3723 16.6982 14.3239C16.8722 14.3117 17.0448 14.2929 17.2174 14.2889C17.7488 14.274 18.2815 14.2511 18.8129 14.2579C19.3361 14.266 19.8702 14.1528 20.3785 14.3683L20.6272 14.4774C20.8161 14.5393 21.005 14.5999 21.1939 14.6619C21.251 14.6821 21.3094 14.7023 21.3665 14.7225C21.501 14.7911 21.6356 14.8598 21.7688 14.9285C21.8163 14.9595 21.8625 14.9891 21.9087 15.0201C22.3192 15.3958 22.7228 15.7796 23.1373 16.1513C23.2746 16.2765 23.4132 16.399 23.5545 16.5202C23.9731 16.8811 24.2802 17.2865 24.3414 17.8507C24.3495 17.9248 24.4324 17.9908 24.4814 18.0621C24.5058 18.0042 24.5439 17.9463 24.5683 17.8884C24.5847 17.8534 24.5955 17.817 24.5942 17.782C24.5901 17.6124 24.5412 17.4427 24.5113 17.273C24.4542 17.172 24.3985 17.0683 24.3427 16.9673C24.336 16.9539 24.3278 16.9417 24.321 16.9283C24.0478 16.6401 23.7733 16.3506 23.4988 16.0624C23.4757 16.0408 23.4512 16.0193 23.4281 15.9964C23.3941 15.9641 23.3588 15.9318 23.3248 15.8994L23.2922 15.8631C23.049 15.649 22.788 15.451 22.5665 15.218C22.2322 14.8639 21.8598 14.5865 21.3842 14.4545C21.2605 14.4208 21.1436 14.3602 21.024 14.3131L21.0403 14.2485C21.5078 14.2485 21.9753 14.2309 22.4415 14.2538C22.822 14.2727 23.0721 14.5461 23.3276 14.7898C23.3955 14.8666 23.4635 14.9447 23.5314 15.0214C23.7584 15.245 23.9853 15.4672 24.2123 15.6907C24.2463 15.7688 24.2802 15.8469 24.3156 15.9264C24.3468 16.2617 24.3781 16.597 24.4093 16.931C24.4555 17.0118 24.5031 17.0926 24.5493 17.1734C24.6064 17.1383 24.7151 17.102 24.7151 17.0683C24.711 16.7236 24.6907 16.3802 24.6743 16.0368C24.6377 15.9412 24.6023 15.8469 24.567 15.7526C24.5615 15.7203 24.5548 15.6894 24.5493 15.657C24.5289 15.6341 24.5072 15.6113 24.4854 15.5884C24.4447 15.5439 24.408 15.4901 24.3604 15.4537C24.0261 15.1965 23.8453 14.8787 23.9051 14.4437C23.9174 14.3535 23.8549 14.2525 23.8277 14.1569C23.7801 14.0626 23.7312 13.9683 23.6836 13.8741C23.5966 13.7111 23.511 13.5482 23.424 13.3839C23.3058 13.2008 23.1876 13.0176 23.0693 12.8358C23.0082 12.7389 22.9457 12.6419 22.8832 12.545L22.822 12.4722C22.6779 12.3228 22.5352 12.1746 22.3912 12.0251L22.4075 11.9322C23.0204 11.8097 23.632 11.6871 24.2449 11.5646C24.2571 11.5646 24.2694 11.5633 24.2802 11.5633C24.6173 11.5686 24.9529 11.5727 25.2886 11.5781C25.3362 11.5875 25.3824 11.5983 25.4286 11.6077C25.7887 11.6858 26.1502 11.7626 26.5104 11.8407C26.5335 11.8487 26.558 11.8582 26.5811 11.8662C26.6014 11.8716 26.6232 11.877 26.6436 11.8811C27.0554 11.9174 27.3761 12.145 27.6982 12.3699C28.4388 12.8453 29.2189 13.2802 29.6565 14.1703C29.4758 14.1421 29.3521 14.1232 29.2271 14.1044C29.1917 14.0976 29.1564 14.0909 29.1211 14.0828C28.2948 14.0667 27.4753 14.0869 26.6925 14.3939C26.6327 14.4249 26.5743 14.4545 26.5158 14.4855C26.4941 14.5568 26.4723 14.6282 26.4329 14.7588C26.5892 14.7265 26.7047 14.7117 26.8134 14.6794C26.9983 14.6242 27.179 14.5568 27.3625 14.4949C27.3951 14.4922 27.4277 14.4882 27.4617 14.4855C27.493 14.4828 27.5242 14.4787 27.5568 14.476C27.6058 14.4612 27.656 14.4478 27.705 14.4329C27.7267 14.4316 27.7471 14.4289 27.7675 14.4262C27.8042 14.4181 27.8395 14.41 27.8748 14.402C28.3111 14.3925 28.746 14.3845 29.1809 14.375C29.2176 14.3804 29.2529 14.3858 29.2896 14.3898C29.3766 14.3966 29.4649 14.402 29.5532 14.4087C29.5777 14.4154 29.6022 14.4208 29.6266 14.4276C29.9188 14.5609 30.2096 14.6928 30.5018 14.8262C30.7057 14.9649 30.9109 15.1036 31.1134 15.2423L31.218 15.0901C31.1474 15.0241 31.0781 14.9595 31.0088 14.8948C30.9068 14.8289 30.8035 14.7629 30.7016 14.6982C30.4828 14.573 30.2491 14.468 30.052 14.3144C29.9392 14.2269 29.8876 14.0599 29.8047 13.932C29.7354 13.8243 29.662 13.7206 29.5913 13.6155C29.4758 13.4822 29.3616 13.3502 29.2475 13.2183C29.2257 13.1954 29.2026 13.1725 29.1809 13.1496C29.1143 13.0809 29.0477 13.0136 28.9797 12.9463C28.9362 12.9207 28.8941 12.8964 28.8506 12.8722C28.8248 12.8547 28.799 12.8372 28.7718 12.8183C28.4823 12.6284 28.1929 12.4399 27.9047 12.2473C27.8721 12.2245 27.8477 12.18 27.8327 12.1396C27.7389 11.8959 27.6479 11.6494 27.5568 11.403C27.5283 11.3666 27.4984 11.3303 27.4699 11.2926C27.3761 11.1269 27.2837 10.96 27.1913 10.793C27.0907 10.6368 26.9915 10.4806 26.8909 10.3243C26.8719 10.2839 26.8542 10.2422 26.8352 10.2018C26.8067 10.1654 26.7781 10.1277 26.7496 10.0914H26.7482C26.6028 9.88938 26.456 9.68873 26.3093 9.48808C26.3052 9.47865 26.3011 9.47057 26.2984 9.46115C26.1638 9.32917 26.0279 9.1972 25.892 9.06523C25.5985 8.8996 25.3036 8.73261 25.01 8.56698C24.991 8.5589 24.9733 8.55082 24.9557 8.54274C24.9434 8.53331 24.9298 8.52388 24.9176 8.51446C24.5289 8.30573 24.109 8.21954 23.67 8.2155C23.3316 8.21146 22.9932 8.20877 22.6548 8.20473C22.2376 8.26668 21.8381 8.37575 21.5065 8.65182C21.1776 8.90902 20.8514 9.17027 20.5144 9.41671C20.4627 9.45441 20.3594 9.42209 20.2793 9.42209C20.1447 9.26723 20.0115 9.11102 19.877 8.95616C19.8539 8.94269 19.8308 8.93057 19.8077 8.9171C19.7628 8.88344 19.718 8.85112 19.6718 8.81745C19.4611 8.67875 19.2491 8.5387 19.0371 8.39999C18.9094 8.33939 18.7816 8.27745 18.6539 8.2155C18.465 8.18992 18.2761 8.16433 18.0872 8.1374C18.0287 8.12932 17.9716 8.12124 17.9132 8.11316C17.4525 8.11316 16.9904 8.11316 16.5297 8.11316V8.27341C16.8314 8.27341 17.1345 8.28957 17.4375 8.31785C17.5069 8.32593 17.5748 8.33401 17.6441 8.34209C18.3005 8.40538 18.9597 8.45925 19.4706 8.95212L19.5481 9.00867C19.9123 9.2376 20.161 9.5581 20.3241 9.94998L20.5076 10.2974C20.5361 10.4294 20.5687 10.5614 20.5932 10.6933C20.6204 10.8361 20.5538 10.8805 20.4152 10.8617C20.2276 10.8374 20.0387 10.8226 19.8512 10.8037C19.7248 10.7862 19.5984 10.7687 19.4734 10.7526C18.4269 10.6933 17.3859 10.6529 16.3612 10.9653C15.6396 11.1862 15.1897 11.7693 14.6108 12.1787C14.5822 12.1989 14.589 12.2662 14.5782 12.312C14.6434 12.3174 14.7249 12.351 14.7725 12.3241C14.941 12.2271 15.1109 12.1248 15.2577 11.9996C15.7157 11.609 16.1777 11.2576 16.7947 11.1189C17.6618 10.9249 18.5302 10.9896 19.4 11.0044C19.8308 11.0677 20.2602 11.131 20.691 11.1943L20.7563 11.2024C20.7699 11.2104 20.7821 11.2199 20.7957 11.2279C20.8174 11.2387 20.8405 11.2508 20.8623 11.2616L20.9275 11.2939C20.9832 11.3195 21.0376 11.3464 21.0933 11.372C21.1178 11.3909 21.1436 11.4097 21.1694 11.4286C21.1776 11.4313 21.1871 11.434 21.1952 11.4367L21.3013 11.4973C21.3108 11.5 21.3203 11.5027 21.3298 11.5067L21.6356 11.737C21.6614 11.7572 21.6859 11.7774 21.7117 11.7962L21.9115 11.9659C21.9549 12.013 21.9984 12.0588 22.0419 12.1046C22.133 12.1935 22.224 12.2837 22.3151 12.3726C22.3382 12.3941 22.3599 12.417 22.383 12.4386C22.4279 12.4844 22.4727 12.5301 22.5176 12.5746C22.6875 12.8197 22.8587 13.0634 23.0299 13.3085C23.2311 13.6788 23.4336 14.0478 23.6361 14.4181V14.6296C23.5926 14.6147 23.5477 14.5986 23.5042 14.5824C23.4499 14.5366 23.3996 14.4828 23.3398 14.4437C23.1264 14.3023 22.9103 14.1663 22.6942 14.0276C22.6589 14.0209 22.6236 14.0141 22.5869 14.0074C22.5325 14.0047 22.4782 14.0007 22.4238 13.998C22.3654 13.9885 22.3069 13.9805 22.2498 13.971C22.1588 13.9643 22.0691 13.9576 21.978 13.9508C21.9658 13.9576 21.9536 13.9657 21.94 13.9724C21.5459 13.9751 21.1518 13.9778 20.7576 13.9791C20.7101 13.971 20.6639 13.963 20.6163 13.9562C20.2915 13.9643 19.9667 13.9724 19.6405 13.9805C19.6297 13.9805 19.6188 13.9818 19.6065 13.9818C18.7273 13.9845 17.8466 13.9872 16.966 13.9899C16.807 14.0168 16.6466 14.0438 16.4862 14.0707C15.9182 14.1892 15.3909 14.3831 14.9954 14.8342C14.9152 14.9258 14.8187 15.0039 14.729 15.0874C14.6515 15.1655 14.5727 15.245 14.4939 15.3231C14.3349 15.5735 14.0672 15.7432 14.0359 16.0893ZM15.0674 16.4125C15.1041 16.3209 15.1258 16.2186 15.1816 16.1391C15.4072 15.8132 15.6803 15.5358 16.0744 15.4106C16.3965 15.3069 16.7173 15.2019 17.038 15.0982C17.0597 15.0955 17.0801 15.0928 17.1019 15.0901C17.1372 15.082 17.1725 15.0726 17.2079 15.0645C17.2391 15.0605 17.2717 15.0578 17.3044 15.0551C17.3506 15.0457 17.3968 15.0376 17.4443 15.0295C17.5775 15.0174 17.7121 15.0053 17.8466 14.9931C17.9146 14.9891 17.9825 14.9864 18.0505 14.9824C18.0926 14.9824 18.1361 14.9824 18.1782 14.9824C18.2135 14.9595 18.2489 14.9137 18.2829 14.915C18.8469 14.9272 19.4108 14.9325 19.9721 14.9729C20.1053 14.9824 20.2276 15.113 20.3554 15.1871C20.3975 15.2032 20.4396 15.218 20.4831 15.2342C20.5089 15.2504 20.5348 15.2679 20.5606 15.2854C20.5701 15.2854 20.5783 15.2908 20.5878 15.2934C20.6122 15.3136 20.638 15.3325 20.6639 15.3513C21.058 15.5816 21.4521 15.8119 21.8612 16.0516C21.7076 16.0745 21.5595 16.1122 21.4113 16.1135C20.3934 16.123 19.3742 16.123 18.3549 16.127H18.0491C18.0043 16.127 17.9594 16.127 17.9146 16.1297C17.8915 16.1311 17.8684 16.1324 17.8466 16.1337L17.7855 16.1378C17.7719 16.1539 17.7583 16.1836 17.7433 16.1849C17.3941 16.2024 17.0448 16.2186 16.6942 16.2334C16.6493 16.2401 16.6031 16.2469 16.5583 16.2536C16.3775 16.2792 16.1981 16.3048 16.0187 16.329C15.8366 16.3896 15.6599 16.4758 15.4738 16.4987C15.3447 16.5148 15.2033 16.4448 15.0674 16.4138V16.4125ZM15.7945 16.7128C15.7958 16.6926 15.7986 16.6737 15.7999 16.6549C16.4903 16.5781 17.1793 16.5027 17.848 16.4287C17.6482 16.7478 17.4525 17.0616 17.2826 17.3323C16.8042 17.133 16.3 16.9229 15.7945 16.7128ZM18.253 16.9565L18.2448 16.8313C18.3481 16.7653 18.4514 16.6522 18.5574 16.6495C18.6335 16.6468 18.7137 16.7923 18.7925 16.8704C18.6987 16.9471 18.6131 17.0562 18.5057 17.0872C18.4391 17.106 18.3386 17.005 18.253 16.9565ZM18.4595 17.7336C18.4459 17.5962 18.4949 17.4508 18.6865 17.4763C18.7572 17.4858 18.8224 17.5396 18.8903 17.572C18.8958 17.6151 18.9012 17.6595 18.9053 17.7026C18.8265 17.7591 18.7531 17.8507 18.6675 17.8628C18.6022 17.8723 18.4663 17.7874 18.4595 17.7336ZM20.0319 17.9005C19.7248 17.8978 19.6011 17.7618 19.6079 17.4359C19.612 17.2111 19.9055 16.9781 20.2004 17.005C20.5089 17.0333 20.653 17.1262 20.6204 17.374C20.6149 17.7174 20.4057 17.9046 20.0319 17.9005ZM20.6544 9.95536C20.528 9.76145 20.5429 9.62274 20.7604 9.49077C20.9955 9.35072 21.198 9.1595 21.4276 9.01002C21.6994 8.83226 21.9699 8.58718 22.2716 8.53196C22.7473 8.44443 23.246 8.49291 23.7353 8.48214C24.5466 8.46463 25.1717 8.90364 25.8064 9.31571C25.9396 9.46249 26.0728 9.60928 26.206 9.75741C26.3337 9.94324 26.4615 10.1304 26.5892 10.3176L26.7482 10.5277C26.7523 10.5358 26.7564 10.5438 26.7577 10.5533C26.7781 10.5789 26.7971 10.6031 26.8162 10.6287C26.8447 10.692 26.8732 10.7539 26.9018 10.8172C26.9303 10.8536 26.9602 10.8913 26.9888 10.9276C27.1763 11.2387 27.3625 11.5484 27.5446 11.8514C26.8529 11.6723 26.1924 11.5 25.5319 11.3289C25.4952 11.3222 25.4585 11.3141 25.4218 11.3074C25.3797 11.3047 25.3376 11.302 25.2954 11.298C25.2506 11.2966 25.2057 11.2939 25.1609 11.2926C24.393 11.2589 23.6374 11.3222 22.8981 11.5417C22.8043 11.57 22.7106 11.5996 22.6168 11.6292C22.557 11.6414 22.4918 11.6427 22.4374 11.6683C22.2702 11.7437 22.1221 11.7572 21.9563 11.6373C21.6695 11.4299 21.3638 11.2454 21.0661 11.0502C21.0566 11.0434 21.0458 11.0354 21.0362 11.0273C21.0063 10.9869 20.9778 10.9465 20.9493 10.9061C20.8772 10.6435 20.8052 10.3822 20.7332 10.1197C20.7074 10.0644 20.6883 10.0052 20.6544 9.95536ZM21.3583 18.8136C21.1912 18.7893 21.024 18.7664 20.831 18.7395C21.3665 18.1699 21.482 16.7909 20.9221 16.426C21.0757 16.4125 21.1789 16.4044 21.2822 16.3963C21.4372 16.3856 21.5962 16.3923 21.7484 16.364C22.4197 16.2347 22.841 16.4017 23.1781 16.9983C23.352 17.3053 23.4689 17.6447 23.598 17.9746C23.7461 18.3476 23.7325 18.3315 23.3507 18.485C22.7092 18.7435 22.0582 18.9146 21.3583 18.8136Z" fill="#131715"/>
<path d="M14.6991 15.5586C14.4952 15.7391 14.286 15.9209 14.3281 16.2279C14.3349 16.2791 14.4558 16.3693 14.4721 16.3585C14.6216 16.2656 14.8051 16.1821 14.8948 16.0421C15.2155 15.5411 15.6613 15.2179 16.2212 15.0402C16.8695 14.8341 17.5354 14.7156 18.2163 14.6766C18.2285 14.6752 18.2421 14.6752 18.2557 14.6739C18.6607 14.6645 19.067 14.655 19.472 14.6456C19.4965 14.651 19.5223 14.6564 19.5467 14.6618C19.612 14.6672 19.6772 14.6726 19.7438 14.6779C19.7791 14.686 19.8145 14.6927 19.8512 14.7008L20.1162 14.7453C20.2412 14.8018 20.3662 14.8584 20.4899 14.9149C20.8066 15.1048 21.1178 15.3028 21.4385 15.4846C21.6519 15.6044 21.872 15.7148 22.0963 15.8118C22.4184 15.9492 22.7119 16.1175 22.962 16.3316L23.1373 16.1525C22.7228 15.7808 22.3191 15.397 21.9087 15.0213C21.8625 14.9904 21.8163 14.9607 21.7687 14.9298C21.6356 14.8611 21.501 14.7924 21.3665 14.7237C21.3094 14.7035 21.251 14.6833 21.1939 14.6631C21.005 14.6012 20.8161 14.5406 20.6272 14.4786L20.3785 14.3696C19.8702 14.1541 19.3361 14.2672 18.8129 14.2591C18.2815 14.2524 17.7487 14.2753 17.2174 14.2901C17.0448 14.2941 16.8722 14.313 16.6982 14.3251C16.5134 14.3736 16.3286 14.4234 16.1437 14.4719C15.8733 14.62 15.6042 14.7668 15.3338 14.9136C15.2549 14.9931 15.1775 15.0725 15.0987 15.1506C15.0307 15.2179 14.9641 15.2853 14.8962 15.3526C14.8635 15.3876 14.8309 15.4226 14.7997 15.4576H14.7983C14.7657 15.4913 14.7317 15.525 14.6991 15.5586Z" fill="#609543"/>
<path d="M15.1815 16.139C15.1258 16.2185 15.1041 16.3208 15.0674 16.4124C15.2033 16.4434 15.3446 16.5134 15.4737 16.4973C15.6599 16.4744 15.8366 16.3882 16.0187 16.3276C16.1981 16.3033 16.3775 16.2778 16.5582 16.2522C16.6031 16.2454 16.6493 16.2387 16.6941 16.232C17.0448 16.2172 17.394 16.201 17.7433 16.1835C17.7583 16.1821 17.7718 16.1525 17.7854 16.1364L17.8466 16.1323C17.8683 16.1323 17.8914 16.1296 17.9145 16.1283C17.9594 16.1269 18.0042 16.1256 18.0491 16.1256H18.3549C19.3741 16.1215 20.3934 16.1215 21.4113 16.1121C21.5594 16.1108 21.7076 16.0731 21.8611 16.0502C21.4521 15.8105 21.058 15.5802 20.6638 15.3499C20.638 15.3311 20.6122 15.3122 20.5877 15.292C20.5782 15.2893 20.5701 15.2853 20.5606 15.2839C20.5347 15.2664 20.5089 15.2489 20.4831 15.2328C20.4396 15.2166 20.3975 15.2018 20.3553 15.1856C20.2276 15.1116 20.1053 14.9809 19.9721 14.9715C19.4108 14.9311 18.8468 14.9257 18.2828 14.9136C18.2489 14.9123 18.2135 14.958 18.1782 14.9809C18.1361 14.9809 18.0926 14.9809 18.0504 14.9809C17.9825 14.985 17.9145 14.9877 17.8466 14.9917C17.712 15.0038 17.5775 15.0159 17.4443 15.0281C17.3968 15.0361 17.3505 15.0442 17.3043 15.0537C17.2717 15.0563 17.2391 15.059 17.2078 15.0631C17.1725 15.0712 17.1372 15.0806 17.1018 15.0887C17.0801 15.0914 17.0597 15.0941 17.038 15.0967C16.7172 15.2004 16.3965 15.3055 16.0744 15.4092C15.6803 15.5344 15.4071 15.8118 15.1815 16.1377V16.139Z" fill="#609543"/>
<path d="M15.8 16.6548C15.8 16.6737 15.7959 16.6925 15.7946 16.7127C16.3001 16.9228 16.8043 17.1329 17.2827 17.3322C17.4526 17.0615 17.6483 16.7477 17.848 16.4286C17.1794 16.5027 16.4904 16.5781 15.8 16.6548Z" fill="white"/>
<path d="M18.2449 16.8312L18.253 16.9565C18.3386 17.005 18.4392 17.106 18.5058 17.0871C18.6132 17.0561 18.6988 16.9471 18.7926 16.8703C18.7137 16.7922 18.6336 16.6468 18.5574 16.6495C18.4514 16.6521 18.3482 16.7653 18.2449 16.8312Z" fill="white"/>
<path d="M18.6865 17.4763C18.4949 17.4508 18.4459 17.5962 18.4595 17.7335C18.4663 17.7874 18.6022 17.8723 18.6675 17.8628C18.7531 17.8507 18.8265 17.7591 18.9053 17.7026C18.9012 17.6595 18.8958 17.615 18.8903 17.572C18.8224 17.5396 18.7571 17.4858 18.6865 17.4763Z" fill="white"/>
<path d="M19.6079 17.4359C19.6011 17.7618 19.7248 17.8978 20.0319 17.9005C20.4057 17.9045 20.615 17.7173 20.6204 17.3739C20.653 17.1261 20.509 17.0332 20.2005 17.0049C19.9056 16.978 19.612 17.211 19.6079 17.4359Z" fill="white"/>
<path d="M20.7604 9.49078C20.543 9.62275 20.528 9.76145 20.6544 9.95537C20.6884 10.0052 20.7074 10.0644 20.7333 10.1197C20.8053 10.3823 20.8773 10.6435 20.9493 10.9061C20.9779 10.9465 21.0064 10.9869 21.0363 11.0273C21.0458 11.0354 21.0567 11.0435 21.0662 11.0502C21.3638 11.2455 21.6696 11.4299 21.9564 11.6373C22.1222 11.7572 22.2703 11.7437 22.4375 11.6683C22.4918 11.6427 22.5571 11.6414 22.6169 11.6292C22.7106 11.5996 22.8044 11.57 22.8982 11.5417C23.6375 11.3222 24.3931 11.2589 25.161 11.2926C25.2058 11.2939 25.2506 11.2966 25.2955 11.298C25.3376 11.302 25.3798 11.3047 25.4219 11.3074C25.4586 11.3141 25.4953 11.3222 25.532 11.3289C26.1925 11.5 26.8529 11.6723 27.5447 11.8514C27.3626 11.5484 27.1764 11.2387 26.9888 10.9276C26.9603 10.8913 26.9304 10.8536 26.9019 10.8172C26.8733 10.7539 26.8448 10.692 26.8162 10.6287C26.7972 10.6031 26.7782 10.5789 26.7578 10.5533C26.7564 10.5439 26.7524 10.5358 26.7483 10.5277L26.5893 10.3176C26.4615 10.1304 26.3338 9.94325 26.206 9.75741C26.0729 9.60928 25.9397 9.4625 25.8065 9.31572C25.1718 8.90364 24.5467 8.46464 23.7353 8.48215C23.2461 8.49292 22.7473 8.44444 22.2717 8.53197C21.97 8.58718 21.6995 8.83227 21.4277 9.01003C21.198 9.15951 20.9955 9.35073 20.7604 9.49078Z" fill="#609543"/>
<path d="M21.0404 14.2497L21.024 14.3143C21.1436 14.3615 21.2605 14.4221 21.3842 14.4557C21.8598 14.5877 22.2322 14.8651 22.5665 15.2193C22.7881 15.4522 23.049 15.6502 23.2923 15.8643L23.3249 15.9007C23.3589 15.933 23.3942 15.9653 23.4282 15.9976C23.4513 16.0205 23.4757 16.0421 23.4988 16.0636C23.7734 16.3518 24.0479 16.6413 24.321 16.9295C24.3278 16.943 24.336 16.9551 24.3428 16.9686L24.4094 16.9322C24.3781 16.5982 24.3469 16.2629 24.3156 15.9276C24.2803 15.8481 24.2463 15.77 24.2123 15.6919C23.9854 15.4684 23.7584 15.2462 23.5314 15.0227C23.4635 14.9459 23.3955 14.8678 23.3276 14.791C23.0721 14.5473 22.822 14.2739 22.4415 14.2551C21.9754 14.2322 21.5079 14.2497 21.0404 14.2497Z" fill="#609543"/>
<path d="M20.8311 18.7395C21.024 18.7664 21.1912 18.7893 21.3584 18.8136C22.0583 18.9146 22.7092 18.7435 23.3507 18.485C23.7326 18.3315 23.7462 18.3476 23.598 17.9746C23.4689 17.6447 23.352 17.3053 23.1781 16.9983C22.8411 16.4017 22.4198 16.2347 21.7484 16.364C21.5962 16.3923 21.4372 16.3856 21.2823 16.3963C21.179 16.4044 21.0757 16.4125 20.9221 16.426C21.482 16.7909 21.3665 18.1699 20.8311 18.7395Z" fill="white"/>
<path d="M22.4075 11.9336L22.3912 12.0265C22.5353 12.1759 22.678 12.3241 22.822 12.4736L22.8832 12.5463C22.9457 12.6432 23.0082 12.7402 23.0694 12.8371C23.1876 13.0189 23.3059 13.2021 23.4241 13.3852C23.5111 13.5495 23.5967 13.7125 23.6837 13.8754C23.7312 13.9697 23.7802 14.0639 23.8277 14.1582C23.8549 14.2538 23.9174 14.3548 23.9052 14.445C23.8454 14.88 24.0261 15.1978 24.3605 15.455C24.408 15.4914 24.4447 15.5452 24.4855 15.5897C24.5072 15.6126 24.529 15.6355 24.5494 15.6584C24.5548 15.6907 24.5616 15.7217 24.567 15.754C24.6024 15.8482 24.6377 15.9425 24.6744 16.0381C24.6907 16.3815 24.7111 16.7249 24.7152 17.0696C24.7152 17.1033 24.6064 17.1397 24.5494 17.1747C24.5032 17.0939 24.4556 17.0131 24.4094 16.9323L24.3428 16.9686C24.3985 17.0696 24.4542 17.1733 24.5113 17.2743C24.5412 17.444 24.5901 17.6137 24.5942 17.7834C24.5956 17.8184 24.5847 17.8547 24.5684 17.8897L24.9489 17.9665C25.0223 17.7659 25.1134 17.5706 25.2411 17.409C25.608 16.9417 26.0212 16.5108 26.4153 16.0664C26.4479 16.0422 26.4805 16.0179 26.5118 15.9937C26.5227 15.991 26.5322 15.9869 26.5417 15.9816C26.6124 15.9317 26.683 15.8806 26.7537 15.8294C26.9141 15.7338 27.0649 15.622 27.2348 15.5479C27.3884 15.4806 27.5623 15.4537 27.7268 15.4092C27.9211 15.4025 28.1154 15.389 28.3098 15.3904C28.6835 15.3944 29.0559 15.4065 29.4296 15.4146C30.1621 15.4281 30.491 15.956 30.8267 16.5014C30.8797 16.1499 30.9381 15.8159 30.7764 15.4927C30.7424 15.4644 30.7071 15.4348 30.6718 15.4052C30.6623 15.4012 30.6514 15.3971 30.6405 15.3931C30.5182 15.3257 30.3945 15.2598 30.2709 15.1938C30.1023 15.1574 29.9325 15.1224 29.7639 15.0874C29.5818 15.0685 29.3997 15.051 29.2176 15.0335C28.6128 15.0389 28.0067 15.0268 27.4033 15.0591C27.1954 15.0699 26.9929 15.1924 26.7877 15.2638L26.7102 15.3163C26.4873 15.455 26.2645 15.5951 26.0429 15.7338C26.0321 15.7432 26.0225 15.7526 26.013 15.7621C25.9994 15.7742 25.9872 15.7876 25.975 15.7998C25.9641 15.8092 25.9546 15.82 25.9437 15.8294C25.8595 15.9169 25.7834 16.0179 25.6841 16.0852C25.6339 16.1189 25.5428 16.092 25.4694 16.092C25.4762 16.0273 25.4572 15.9412 25.4925 15.9021C25.6325 15.7472 25.7902 15.6072 25.941 15.4604C25.9845 15.4254 26.0266 15.389 26.0701 15.354C26.081 15.3432 26.0932 15.3311 26.1054 15.3204C26.1435 15.2907 26.1816 15.2624 26.2196 15.2342C26.4751 15.1062 26.732 14.9797 26.9875 14.8517C27.0676 14.8302 27.1465 14.8086 27.2253 14.7871C28.0964 14.6874 28.9648 14.6888 29.8319 14.8248C29.8781 14.8315 29.9243 14.8383 29.9719 14.845L30.2287 14.8652C30.2545 14.8719 30.2804 14.8787 30.3048 14.8854C30.3266 14.8881 30.347 14.8908 30.3687 14.8935C30.6065 15.0497 30.8444 15.2059 31.0836 15.3621C31.1053 15.3298 31.127 15.2988 31.1488 15.2678C31.1366 15.2598 31.1257 15.2517 31.1134 15.2436C30.911 15.1049 30.7057 14.9662 30.5019 14.8275C30.2097 14.6942 29.9189 14.5622 29.6267 14.4289C29.6022 14.4221 29.5778 14.4168 29.5533 14.41C29.465 14.4033 29.3766 14.3979 29.2896 14.3912C29.2529 14.3871 29.2176 14.3817 29.1809 14.3764C28.746 14.3858 28.3111 14.3939 27.8749 14.4033C27.8396 14.4114 27.8042 14.4195 27.7675 14.4275C27.7471 14.4302 27.7268 14.4329 27.705 14.4343C27.6561 14.4491 27.6058 14.4625 27.5569 14.4774C27.5243 14.4801 27.493 14.4841 27.4618 14.4868C27.4278 14.4895 27.3952 14.4935 27.3625 14.4962C27.1791 14.5582 26.9983 14.6255 26.8135 14.6807C26.7048 14.713 26.5893 14.7278 26.433 14.7602C26.4724 14.6295 26.4941 14.5582 26.5159 14.4868C26.5743 14.4558 26.6327 14.4262 26.6925 14.3952C27.4753 14.0882 28.2948 14.068 29.1211 14.0841C29.1565 14.0922 29.1918 14.099 29.2271 14.1057C29.3522 14.1245 29.4758 14.1434 29.6566 14.1717C29.219 13.2815 28.4389 12.8466 27.6982 12.3712C27.3761 12.1463 27.0554 11.9187 26.6436 11.8824C26.6232 11.8783 26.6015 11.873 26.5811 11.8676C26.558 11.8595 26.5335 11.8501 26.5104 11.842C26.1503 11.7639 25.7888 11.6871 25.4287 11.609C25.3824 11.5996 25.3362 11.5888 25.2887 11.5794C24.953 11.574 24.6173 11.57 24.2803 11.5646C24.2694 11.5646 24.2572 11.5659 24.2449 11.5659C23.632 11.6885 23.0205 11.811 22.4075 11.9336Z" fill="#609543"/>
<path d="M22.7703 30.3245C22.735 30.6881 22.9144 30.9494 23.1495 31.2093C23.4593 31.5527 23.7325 31.9284 24.0206 32.2906C24.0845 32.5842 24.2122 32.8805 24.1973 33.17C24.1742 33.6023 24.2177 34.0143 24.3808 34.4062C24.4487 34.5678 24.586 34.72 24.7273 34.8277C24.9434 34.992 25.1907 35.1145 25.4245 35.2546C25.9124 35.5401 26.3717 35.8969 26.8936 36.0881C27.3828 36.2686 27.9346 36.305 28.4633 36.3494C29.136 36.4046 29.8128 36.3992 30.4882 36.4275C31.4001 36.4652 32.2685 36.243 33.1057 35.9292C33.5338 35.7676 33.9279 35.4889 34.2962 35.2088C34.4022 35.128 34.4294 34.8304 34.3737 34.6742C34.1861 34.1517 33.9442 33.6467 33.7241 33.1363C33.7145 33.1228 33.705 33.1107 33.6955 33.0973C33.2593 32.3418 32.8067 31.5958 32.2006 30.9561C32.1802 30.9319 32.1585 30.9076 32.1381 30.8834C31.9138 30.6477 31.6896 30.4121 31.464 30.1764C31.4273 30.1454 31.392 30.1145 31.3553 30.0835C31.3471 30.0794 31.339 30.0767 31.3295 30.0741C31.2479 30.0094 31.1677 29.9448 31.0862 29.8801C30.6676 29.6431 30.2368 29.425 29.8359 29.161C29.6483 29.0371 29.5165 28.8284 29.3629 28.6533C29.2977 28.5779 29.2542 28.481 29.1808 28.4177C28.9892 28.248 28.7799 28.0972 28.5869 27.9289C28.3518 27.7242 28.0882 27.7282 27.8123 27.8063C27.6723 27.8467 27.5378 27.9033 27.4005 27.9517C27.3761 27.9693 27.3516 27.9868 27.3271 28.0029C27.1219 28.1255 26.9181 28.2467 26.7142 28.3692C26.3527 28.6709 25.9926 28.9738 25.6324 29.2755H25.6311C25.5781 29.3819 25.2397 29.4331 25.5686 29.6081C25.6202 29.6431 25.6732 29.6741 25.7221 29.7118C26.2698 30.1481 26.0265 30.4794 25.574 30.7972C25.5631 30.8053 25.5482 30.808 25.5319 30.808L25.5454 30.9413C25.6202 30.9346 25.6963 30.9251 25.7697 30.9211C25.8023 30.9103 25.8363 30.8982 25.8703 30.8874C26.1271 30.7393 26.3921 30.6006 26.6408 30.439C26.8555 30.2989 27.0512 30.1333 27.2565 29.9784C27.3244 29.9286 27.3924 29.8774 27.4617 29.8276C27.9564 29.6068 28.4252 29.6956 28.8819 29.9434C28.9362 29.9717 28.9919 29.9946 29.0477 30.0202C29.2379 30.241 28.9308 30.3299 28.9145 30.5023C28.9036 30.6141 28.8302 30.7204 28.8356 30.8686C28.9743 30.7514 29.1129 30.6329 29.2515 30.5158C29.4445 30.3703 29.6361 30.2249 29.8291 30.0781C29.8522 30.0673 29.8753 30.0552 29.8984 30.0431C30.0275 30.0269 30.1118 30.0539 30.0615 30.2101C29.9514 30.3016 29.8427 30.3946 29.7326 30.4875C29.6633 30.5413 29.5926 30.5939 29.522 30.6477C29.3303 30.8161 29.1387 30.983 28.9471 31.1514C28.7908 31.2322 28.6359 31.3143 28.4796 31.3951C28.3437 31.4719 28.2064 31.5473 28.0705 31.624C27.9373 31.6819 27.8028 31.7412 27.6682 31.8004C27.6003 31.8543 27.5323 31.9095 27.4644 31.9634C27.406 32.0294 27.3475 32.094 27.2891 32.16C27.2021 32.2839 27.1138 32.4091 27.0254 32.5344C27.0213 32.5424 27.0186 32.5505 27.0159 32.5586C26.9847 32.595 26.9548 32.6313 26.9235 32.6677C26.8093 32.8158 26.8053 32.9707 26.8922 33.1323C27.0241 33.3019 27.1559 33.473 27.2877 33.644C27.6071 33.9995 28.0053 34.114 28.4701 34.0237C28.5054 33.9955 28.5394 33.9658 28.5747 33.9376C28.5788 33.9295 28.5815 33.9201 28.5842 33.912C28.5992 33.885 28.6141 33.8595 28.6291 33.8325C28.9389 33.1242 29.3589 32.5074 30.0792 32.1452C30.1254 32.1209 30.1974 32.1452 30.2572 32.1452C30.2463 32.2058 30.2558 32.2879 30.2191 32.3229C30.1294 32.4118 30.0126 32.4738 29.9161 32.5586C29.8033 32.6556 29.7013 32.7633 29.5953 32.867L29.5056 32.972C29.3725 33.1673 29.2406 33.3639 29.1088 33.5592C29.0014 33.7652 28.8954 33.9712 28.7881 34.1773C28.7867 34.2311 28.7854 34.2863 28.784 34.3402C28.7854 34.3523 28.7854 34.3644 28.7867 34.3766C28.7976 34.4089 28.8085 34.4426 28.8193 34.4749C28.8275 34.487 28.8343 34.5005 28.8424 34.5126L28.8452 34.5166C28.8533 34.5287 28.8615 34.5395 28.8696 34.5516C29.0463 34.627 29.2175 34.72 29.3996 34.7698C29.526 34.8048 29.6687 34.7698 29.8019 34.7833C30.0628 34.8061 30.2626 34.724 30.3809 34.483C30.5018 34.3564 30.6228 34.2311 30.7437 34.1059C30.8144 34.0291 30.8851 33.9537 30.9544 33.8783C30.9652 33.8675 30.9761 33.8554 30.987 33.8446L30.9897 33.842L31.0223 33.8096C31.2343 33.5888 31.4382 33.3585 31.6638 33.1511C31.7249 33.0946 31.8513 33.1067 31.9478 33.0865C31.922 33.1673 31.9152 33.2629 31.8649 33.3235C31.6787 33.5457 31.4789 33.7544 31.2832 33.9685C31.1691 34.0897 31.0549 34.2109 30.9394 34.3321C30.8973 34.3671 30.8538 34.4035 30.8103 34.4385C30.7777 34.4628 30.7464 34.487 30.7138 34.5112C30.4869 34.6971 30.5929 34.9247 30.6894 35.1024C30.7451 35.2074 30.9258 35.2815 31.0617 35.3057C31.5714 35.3933 31.8051 34.9866 32.0851 34.689C32.3243 34.4318 32.5295 34.1436 32.7524 33.8716C32.7823 33.8339 32.8244 33.7921 32.8692 33.7814C32.9426 33.7652 33.0228 33.7706 33.1003 33.7679C33.0731 33.8339 33.0473 33.8999 33.0187 33.9645C33.0078 33.9901 32.9915 34.013 32.978 34.0372C32.8747 34.1584 32.7727 34.281 32.6695 34.4035C32.5784 34.5153 32.4873 34.6257 32.3963 34.7375C32.3311 34.8169 32.2645 34.8964 32.1992 34.9758C32.187 34.9866 32.1761 34.9974 32.1639 35.0081C32.1422 35.031 32.119 35.0539 32.0959 35.0755C32.0593 35.1078 32.0239 35.1388 31.9872 35.1697L31.4246 35.5293C31.3893 35.536 31.3553 35.5414 31.3199 35.5468C31.0604 35.532 30.7858 35.5751 30.5698 35.3758C30.5303 35.3394 30.4692 35.2936 30.4692 35.2505C30.4692 35.0014 30.3183 35.0324 30.1417 35.0391C29.8332 35.0526 29.5247 35.0324 29.2162 35.0257C28.8615 34.9933 28.5937 34.8587 28.5217 34.4708C28.5136 34.4264 28.4442 34.355 28.4089 34.3577C27.7253 34.417 27.2429 34.0722 26.8189 33.6036C26.808 33.5915 26.7985 33.5794 26.7876 33.5672H26.7862C26.5606 33.3787 26.331 33.1942 26.1122 32.999C25.9695 32.8724 25.8417 32.7283 25.7072 32.5909C25.7017 32.5721 25.6963 32.5532 25.6909 32.5357C25.6746 32.498 25.6582 32.4603 25.6419 32.4239C25.5985 32.1479 25.555 31.8732 25.5115 31.5971C25.502 31.5688 25.4911 31.5405 25.4816 31.5123C25.4761 31.1998 25.2098 31.2497 25.0249 31.1877C24.9203 31.1581 24.817 31.1285 24.7137 31.1002C24.5792 30.9615 24.4446 30.8241 24.3115 30.6868C24.3019 30.6639 24.2924 30.641 24.2843 30.6181L24.2639 30.5575C24.2557 30.5333 24.2476 30.509 24.2381 30.4848C24.1959 30.1495 23.9731 29.8667 23.7081 29.8168C23.3629 29.7522 23.0027 29.9219 22.8138 30.241C22.8002 30.268 22.7853 30.2949 22.7703 30.3232V30.3245Z" fill="#609543"/>
<path d="M24.5112 30.3838C24.5207 30.4431 24.5303 30.5023 24.5411 30.5616C24.6634 30.8282 24.9217 30.9023 25.1717 30.944C25.2927 30.9642 25.4191 30.9548 25.5454 30.9413L25.5319 30.808C25.487 30.808 25.4259 30.7851 25.3769 30.7797L25.4952 30.4808C25.5196 30.4606 25.5427 30.4404 25.5672 30.4202C25.5781 30.4081 25.5889 30.3973 25.5998 30.3852C25.6419 30.3273 25.6827 30.2694 25.7235 30.2115C25.6936 29.8842 25.1948 29.6432 24.9053 29.7953C24.6553 29.926 24.5221 30.1091 24.5112 30.3838Z" fill="#609543"/>
<path d="M25.1935 18.1631C25.1826 18.2399 25.2478 18.3732 25.313 18.4028C25.4789 18.4769 25.6637 18.5065 25.8811 18.5657C25.7343 18.0352 25.8308 17.5638 26.0293 17.1046C26.0469 17.0669 26.0632 17.0279 26.0809 16.9888C26.0673 16.9808 26.0537 16.974 26.0415 16.9673C26.017 16.9969 25.9926 17.0279 25.9681 17.0589L25.9613 17.0629C25.9518 17.0696 25.9436 17.0777 25.9341 17.0844C25.926 17.0925 25.9165 17.1006 25.9083 17.11C25.8974 17.1181 25.8866 17.1262 25.8743 17.1343C25.5808 17.4346 25.2546 17.7174 25.1935 18.1631Z" fill="white"/>
<path d="M25.3213 19.3481C25.324 19.4154 25.3267 19.4814 25.3294 19.5487L25.7738 19.779C25.8744 19.8369 25.9736 19.8948 26.0742 19.9527C26.1218 19.9837 26.168 20.0147 26.2155 20.047C26.2808 20.0941 26.3474 20.1399 26.4126 20.187C26.4248 20.1978 26.437 20.2072 26.4493 20.218C26.8067 20.6341 27.1641 21.0502 27.5202 21.4677C27.5569 21.5094 27.58 21.5673 27.6221 21.5983C27.6629 21.6279 27.7308 21.6576 27.7689 21.6428C27.8029 21.6293 27.8436 21.5391 27.8273 21.5108C27.7118 21.294 27.6017 21.0691 27.4536 20.8752C27.2457 20.6018 27.0038 20.3513 26.7768 20.0914L26.7238 20.0227C26.7795 20.0133 26.8352 20.0052 26.891 19.9958C27.1981 19.9823 27.5066 19.977 27.8124 19.9487C27.8708 19.9433 27.9197 19.849 27.9741 19.7965C27.9129 19.7682 27.8518 19.7211 27.7893 19.7184C27.3979 19.7009 27.0065 19.6942 26.6151 19.6834C26.4438 19.6309 26.2712 19.5784 26.1 19.5258C25.903 19.4652 25.7086 19.4006 25.5102 19.3467C25.4518 19.3306 25.3852 19.3467 25.3213 19.3481Z" fill="#131715"/>
<path d="M25.7344 31.2565C25.7575 31.3346 25.7792 31.4127 25.8023 31.4921C25.8037 31.5137 25.805 31.5366 25.8064 31.5581C25.8159 31.6928 25.8241 31.8288 25.8336 31.9635V32.2678C26.0225 32.121 26.1679 32.0079 26.312 31.8961C26.3228 31.884 26.3351 31.8732 26.3473 31.8625L27.0893 31.1878C27.1002 31.177 27.1111 31.1676 27.1233 31.1568C27.3965 30.8686 27.671 30.5805 27.9441 30.2923C28.0121 30.2047 28.0801 30.1172 28.1861 29.9812H27.936C27.7213 30.0889 27.4943 30.1792 27.2932 30.3071C26.8338 30.5966 26.3867 30.905 25.9355 31.2053C25.9178 31.2174 25.892 31.2174 25.8703 31.2215C25.8485 31.2242 25.8254 31.2268 25.8037 31.2295C25.7806 31.239 25.7575 31.247 25.7344 31.2565Z" fill="#609543"/>
<path d="M26.0497 32.5601C26.0701 32.583 26.0891 32.6072 26.1081 32.6301C26.1326 32.653 26.1557 32.6745 26.1788 32.6961L26.2454 32.7621C26.3025 32.8186 26.3582 32.8752 26.4153 32.9317C26.4397 32.9614 26.4655 32.9896 26.4914 33.0193C26.5145 32.9775 26.5376 32.9344 26.562 32.8927C26.6789 32.6543 26.7971 32.416 26.914 32.1776C26.9385 32.1291 26.9643 32.0807 26.9901 32.0322L27.4957 31.5595L27.5976 31.511C27.6452 31.4949 27.6927 31.4787 27.7403 31.4612C27.8042 31.4262 27.8694 31.3912 27.9346 31.3548C27.9469 31.3454 27.9591 31.3346 27.97 31.3252C28.2105 31.0182 28.4619 30.7179 28.6808 30.3974C28.7174 30.3421 28.621 30.1981 28.5843 30.0944C28.4932 30.1536 28.3831 30.1954 28.3111 30.2721C28.0855 30.5159 27.8762 30.7731 27.656 31.0222C27.5541 31.138 27.4427 31.2471 27.3353 31.3602L26.7768 31.8571C26.5648 32.0308 26.35 32.1992 26.1448 32.3783C26.0959 32.42 26.0809 32.4981 26.0497 32.5601Z" fill="#609543"/>
<path d="M26.6041 17.0872C26.6082 17.1276 26.6136 17.168 26.6191 17.2084C26.6979 17.2501 26.8039 17.3457 26.8515 17.3228C26.948 17.2757 27.0105 17.1653 27.0866 17.0804C27.005 17.0212 26.9221 16.9161 26.8392 16.9161C26.7604 16.9148 26.6816 17.0252 26.6041 17.0872Z" fill="white"/>
<path d="M26.6544 18.0217C26.7224 18.0944 26.7917 18.1671 26.9099 18.2924C27.0037 18.155 27.0934 18.0756 27.107 17.9853C27.1138 17.9382 26.967 17.813 26.9194 17.8264C26.8202 17.8561 26.7414 17.953 26.6544 18.0217Z" fill="white"/>
<path d="M26.9208 16.0987C26.9099 16.127 26.8977 16.1552 26.8868 16.1835C26.9657 16.1849 27.0431 16.1862 27.122 16.1876C27.3598 16.197 27.599 16.2051 27.8368 16.2131C27.8925 16.2158 27.9469 16.2185 28.0026 16.2212C28.0597 16.2239 28.1154 16.2266 28.1725 16.2293C28.2798 16.2535 28.3858 16.2899 28.4932 16.3007C28.7039 16.3222 28.9159 16.3317 29.1279 16.3451C29.4472 16.5067 29.7639 16.6777 30.0901 16.8286C30.336 16.9417 30.5943 17.0306 30.8457 17.1302C30.8647 17.1087 30.8837 17.0858 30.9028 17.0642L30.2423 16.1916C30.2192 16.1593 30.1974 16.127 30.1743 16.0946V16.0906C30.0466 15.6987 29.6796 15.7553 29.3847 15.6772C29.2067 15.6718 29.0287 15.6664 28.8493 15.661C28.8153 15.661 28.7813 15.6583 28.7487 15.6556C28.3994 15.6691 28.0393 15.6341 27.705 15.7082C27.4291 15.7715 27.1817 15.9627 26.9208 16.0987Z" fill="#609543"/>
<path d="M27.8817 17.623C27.8586 17.8924 27.9592 17.9718 28.2799 17.9718C28.5055 18.0028 28.6224 17.9045 28.6142 17.6473C28.6047 17.3012 28.549 17.2446 28.1875 17.2379C27.9048 17.2325 27.8967 17.4439 27.8817 17.623Z" fill="white"/>
<path d="M29.0355 16.6171C28.9798 16.5915 28.905 16.605 28.7623 16.5956C29.0504 16.9242 29.2285 17.2514 29.1863 17.6204C29.1469 17.9678 29.0233 18.3058 28.939 18.6411C29.3127 18.6263 29.7313 18.5415 30.067 18.2277C30.2776 18.0311 30.4815 17.8237 30.6718 17.6069C30.7085 17.5652 30.6962 17.4063 30.6622 17.3888C30.1254 17.1221 29.5805 16.8689 29.0355 16.6171Z" fill="white"/>
</g>
</g>
</g>
<defs>
<linearGradient id="paint0_linear_7277_57874" x1="21" y1="0" x2="21" y2="61.4091" gradientUnits="userSpaceOnUse">
<stop stop-color="#08021E"/>
<stop offset="1" stop-color="#1F0777"/>
</linearGradient>
<clipPath id="clip0_7277_57874">
<rect width="42" height="42" fill="white"/>
</clipPath>
<clipPath id="clip1_7277_57874">
<rect x="4.8999" y="4.90002" width="32.2" height="32.2" rx="16.1" fill="white"/>
</clipPath>
<clipPath id="clip2_7277_57874">
<rect width="35.2667" height="33.7333" fill="white" transform="translate(1.83325 4.90002)"/>
</clipPath>
</defs>
</svg>
