<svg width="42" height="42" fill="none" xmlns="http://www.w3.org/2000/svg">
  <g clip-path="url(#a)">
    <mask id="c" width="42" height="42" x="0" y="0" maskUnits="userSpaceOnUse" style="mask-type:alpha">
      <circle cx="21" cy="21" r="21" fill="url(#b)" transform="matrix(-1 0 0 1 42 0)"/>
    </mask>
    <g mask="url(#c)">
      <circle cx="21" cy="21" r="21" fill="#34EDB3" transform="matrix(-1 0 0 1 42 0)"/>
      <circle cx="18.2" cy="18.2" r="18.2" fill="#fff" transform="matrix(-1 0 0 1 39.2 2.8)"/>
    </g>
    <circle cx="16.1" cy="16.1" r="16.1" fill="#0B0B22" transform="matrix(-1 0 0 1 37.1 4.9)"/>
    <g clip-path="url(#d)">
      <circle cx="21" cy="21" r="16.1" fill="#242235"/>
      <g clip-path="url(#e)">
        <path fill="#609543" d="M37.066 4.934H1.867V38.6h35.199z"/>
        <path fill="#131715" d="M4.888 28.635c-.031.313-.081.63-.076.944.014.773.19 1.513.462 2.24.188.5.447.944.793 1.347l.161.174 1.117.81.351.185.499.214q.326.16.655.318l.462.152.205.062.132.039q.195.06.386.114.754.152 1.506.3l.448.082c.53.053 1.059.129 1.59.157a22 22 0 0 0 1.855.034c.495-.015.988-.09 1.483-.138.095-.008.19-.005.287-.008q.15-.016.302-.035l.038-.001.099-.004.136-.005.402-.004 2.034-.045 1.253-.01 1.117-.306.509-.169q.13-.056.26-.115l.376-.361.07-.101.06-.072.04-.064c.07-.151.16-.122.23-.01.054.086.077.191.112.288l.34.337.452.285c.309.203.605.423.926.6.376.207.773.374 1.16.559.173.017.346.03.517.053.171.026.341.066.511.099l2.631.091c.391-.062.787-.102 1.172-.192.418-.097.833-.22 1.233-.37.304-.112.582-.286.872-.433l.273-.2c.379-.337.4-.736.194-1.168q-.314-.652-.632-1.302l-.161-.208-.313-.699-.034-.033-.04-.062-.095-.14a.1.1 0 0 1-.01-.027l-.053-.077q-.006-.012-.01-.025l-.13-.138-.1-.105-.338-.369-.14-.229-.13-.175-.177-.192q-.049-.053-.095-.107l-.167-.17-.172-.13h-.001l-.14-.13q-.547-.378-1.098-.752-.426-.284-.86-.563c-.086-.102-.206-.195-.078-.346q.24-.346.477-.694l-.143-.095c-.085.13-.186.252-.289.374-.236.276-.24.283-.538.051l-.143-.126-.23-.213-.145-.086c-.159-.018-.33-.084-.474-.046-.377.101-.741.246-1.11.374l-.037.023-.087.023-.148.12a.1.1 0 0 1-.028.008l-.073.06-.038.033-.033.026q-.454.383-.916.762c-.195.159-.396.31-.596.464l-.102.1c-.086.051-.186.088-.254.156-.24.244-.457.198-.674-.023l-.23-.074-.27-.008-.071.003a1.07 1.07 0 0 0-.814.525c-.218.364-.124.79.239 1.196.163.183.34.354.51.53q.034.034.063.07l.04.064.088.141.017.057.263.375q.04.064.08.124l.026.077.053.497-.02.106-.011.635-.023.037-.094.11-.35.491-.101.101-.034.028q-.046.008-.088.02l-.248.122q-.132.038-.262.078l-.04.025-.073.03-.269.135c-.18.044-.356.117-.538.129q-1.061.066-2.122.1c-.944.032-1.89.047-2.834.079-.865.031-1.73.077-2.595.116l-.042-.016-2.972-.278-.038-.004-.059-.01q-.041-.02-.084-.038c-.115-.011-.236-.007-.348-.037-.389-.102-.773-.215-1.16-.325l-.185-.072-.492-.164-.082-.042-.057-.012-.11-.057-.162-.076-.314-.158-.025-.01-.284-.149q-.52-.275-1.037-.552l-.102-.067-.036-.033-.21-.227-.234-.239-.061-.072-.041-.095q-.1-.103-.197-.207l-.079-.125-.12-.211-.017-.056-.084-.147q-.104-.297-.212-.595a5.6 5.6 0 0 1-.351-2.047l.023-.106q.004-.031.005-.062l.025-.24.015-.095.022-.142.01-.126.036-.152.153-1.793c.015-.166.028-.332.053-.497l.5-3.261.025-.107.005-.063.113-.45.495-1.597.048-.08.265-.687.085-.143c.072-.169.135-.342.22-.504q.857-1.625 1.717-3.248l.051-.08.513-.968.03-.037c.18-.307.365-.61.54-.92.511-.905 1.259-1.623 1.917-2.41.2-.24.416-.47.587-.73.227-.341.416-.707.622-1.064l.089-.11.388-.492.235-.2c.22-.133.435-.27.66-.397.159-.089.319-.203.493-.238a8 8 0 0 1 1.525-.146v-.16l-1.19-.001-.395.08-.18.085c-.866.345-1.516.936-2.005 1.713l-.663 1.043q-.398.49-.793.984L9.96 13.68c-.082.124-.171.243-.243.37-.363.636-.729 1.269-1.077 1.911-.526.97-1.04 1.946-1.557 2.92l-.057.108-.01.028-.224.41-.103.355-.018.03-.106.204c-.143.423-.283.849-.432 1.27-.04.11-.109.21-.165.315l-.006.06-.024.07-.014.063-.085.214-.148.728-.022.068-.019.063-.027.105-.376 2.579-.026.105-.008.065-.029.17-.076.934q-.037.21-.076.419-.074.694-.143 1.39zm18.262 2.574c-.236-.26-.415-.52-.38-.884l.044-.082a.87.87 0 0 1 .894-.425c.265.05.488.333.53.668q.015.037.026.073l.02.06.027.07.403.413.31.087c.186.062.452.012.458.325l.03.085.13.826.049.112.016.055c.135.138.262.282.405.408.219.196.449.38.674.569h.002l.03.036c.425.469.907.813 1.59.754.036-.003.105.069.114.113.072.388.34.523.694.555.309.007.617.027.926.014.176-.007.327-.038.327.211 0 .043.061.089.1.125.217.2.491.156.75.171q.053-.007.106-.017l.562-.36q.055-.045.109-.094l.068-.067.035-.033.197-.238.273-.334.309-.366q.023-.036.04-.073.043-.097.082-.197c-.077.003-.157-.002-.23.014-.046.01-.088.052-.118.09-.223.272-.428.56-.667.818-.28.297-.514.704-1.023.616-.136-.024-.317-.098-.373-.203-.096-.178-.202-.405.025-.591l.096-.073.13-.106.343-.364c.196-.214.396-.423.582-.645.05-.06.057-.156.083-.237-.097.02-.223.008-.284.065-.226.207-.43.437-.642.658l-.032.032-.003.003-.033.034-.21.227-.363.377c-.118.241-.318.324-.58.3-.132-.011-.275.022-.401-.013-.182-.05-.354-.142-.53-.218l-.025-.035-.003-.004q-.01-.019-.023-.038l-.032-.098-.003-.036.004-.163.32-.618q.198-.294.398-.587l.09-.106c.105-.103.207-.211.32-.308.096-.085.213-.147.303-.236.037-.035.027-.117.038-.177-.06 0-.132-.026-.178 0-.72.362-1.14.979-1.45 1.687l-.045.08q-.003.013-.01.025l-.104.086c-.465.09-.863-.024-1.182-.38l-.396-.511c-.087-.162-.083-.317.032-.465q.044-.055.092-.109l.01-.024.263-.375.175-.196.204-.163.402-.177.41-.228.467-.244.575-.504.21-.16q.165-.14.33-.277c.05-.157-.035-.184-.164-.168l-.069.036q-.288.22-.578.437l-.415.353c-.006-.148.068-.255.079-.366.016-.173.323-.262.133-.482q-.084-.037-.166-.077c-.457-.248-.926-.337-1.42-.116l-.206.15c-.205.156-.4.321-.615.462-.249.161-.514.3-.77.448q-.053.016-.101.034-.112.008-.225.02a1.4 1.4 0 0 1-.373.002c-.25-.041-.509-.115-.63-.382a4 4 0 0 1-.03-.178c.01-.275.143-.458.393-.588.29-.152.789.089.819.416l-.124.174-.033.035-.072.06-.118.3c.049.005.11.027.155.027a.07.07 0 0 0 .042-.01c.452-.318.696-.65.148-1.086-.049-.037-.102-.068-.154-.103-.328-.175.01-.227.063-.332h.001q.54-.455 1.082-.907l.613-.367.073-.05c.138-.05.272-.106.412-.146.276-.078.54-.082.775.122.193.169.402.32.594.49.073.062.117.16.182.235.154.175.285.384.473.508.4.263.832.482 1.25.719q.122.096.243.194l.026.009.109.093q.338.353.674.707l.063.073c.606.64 1.058 1.385 1.495 2.14l.028.04c.22.51.462 1.015.65 1.538.055.156.028.453-.078.534-.368.28-.762.56-1.19.72-.837.315-1.706.537-2.618.499-.675-.028-1.352-.023-2.025-.078-.528-.045-1.08-.08-1.57-.261-.521-.192-.98-.549-1.469-.834-.233-.14-.48-.263-.697-.427a1.1 1.1 0 0 1-.346-.421c-.163-.392-.207-.804-.184-1.237.015-.29-.113-.585-.176-.879-.288-.362-.562-.738-.872-1.081v-.002zm2.652.283-.068-.236.07-.026.066-.009c.022-.003.048-.003.066-.016.45-.3.898-.608 1.357-.898.201-.128.428-.218.643-.326h.25l-.242.311-.82.865-.035.03-.742.675-.035.034-.478.372v-.305l-.028-.405zm.306 1.138-.058-.07c.03-.062.046-.14.095-.182.205-.179.42-.347.632-.52l.558-.498c.108-.113.22-.222.321-.338.22-.249.43-.506.655-.75.072-.077.182-.118.273-.178.037.104.133.248.097.303-.22.32-.47.621-.711.928l-.035.03-.195.106-.142.05-.102.049-.506.472q-.04.073-.076.146l-.352.715-.07.126-.077-.087-.17-.17-.066-.066-.07-.066z"/>
        <path fill="#609543" d="M5.065 29.418q-.016 1.056.35 2.047c.074.198.142.397.213.595q.04.074.084.147l.016.055.121.212.079.125q.097.104.197.207l.04.095.062.072.234.239.21.227.036.033.102.067 1.037.552.284.15.025.009.314.158q.083.037.162.076l.11.057.057.012.082.042.492.164.186.071c.386.11.77.224 1.16.326.11.03.232.026.347.037l.084.037.059.011.038.004 2.972.278.042.016c.864-.04 1.73-.085 2.595-.116.944-.032 1.89-.047 2.834-.08a70 70 0 0 0 2.122-.1c.182-.011.359-.084.538-.129l.27-.134.071-.03.041-.025q.13-.04.262-.078l.248-.123.088-.019.034-.028.102-.101.35-.492.093-.109.023-.037q.007-.318.01-.635l.021-.106-.053-.497-.026-.077-.08-.124-.263-.375-.017-.057-.088-.141-.04-.064-.062-.071c-.171-.175-.348-.346-.511-.53-.363-.406-.457-.831-.24-1.195a1.07 1.07 0 0 1 .815-.525l.072-.003.269.008q.114.039.23.074c.217.221.434.267.674.023.068-.069.168-.105.254-.156l.102-.1c.2-.155.4-.305.596-.464q.462-.38.916-.762l.033-.026.038-.032.073-.061a.1.1 0 0 0 .028-.008l.148-.12.087-.023.036-.023c.37-.128.734-.273 1.11-.374.145-.038.316.028.475.046l.145.086q.116.106.23.213l.143.126c.299.232.302.225.538-.05.103-.123.204-.246.29-.375a1.5 1.5 0 0 0 .266-.727c.004-.06-.004-.12-.007-.18v-.109l-.001-.136-.04-.023c-.146.083-.303.149-.436.247-.302.223-.646.31-1.007.32-1.165.029-2.33.058-3.495.058-1.07 0-2.14-.033-3.21-.066-.15-.004-.3-.085-.449-.129l-.177-.07-.568-.031-.338-.057-.375-.063-.065-.004-.173-.03-.064-.005-.14-.027-.064-.008-.2-.043-.07-.023-.068-.008q-.306-.15-.61-.302-.453-.206-.904-.414l-.317-.154-.093-.042-.687-.324-.394-.183-.69-.418-.087-.02-.083-.046c-.568-.365-1.154-.705-1.696-1.104-.396-.29-.345-1.075.046-1.376a.38.38 0 0 1 .265-.074c.544.091 1.085.2 1.625.303l.612.194 1.32.335c.12.038.237.087.36.113q.763.157 1.527.304c.023.004.05-.006.076-.01l.06.006 1.362.26.34.062.811.104q.064.007.128.01.308.035.617.068l1.378.071q.092.022.185.042l1.147.074c.1.024.2.062.303.067.338.017.678.02 1.018.03q.167-.004.335-.005.038-.009.072-.014l.3-.008.17-.03a5.1 5.1 0 0 0 1.73-.265c.122-.041.224-.136.336-.207.135-.108.307-.191.398-.327.261-.392.494-.802.726-1.212.048-.087.04-.202.06-.305l.004-.502-.007-.067-.012-.095-.042-.115c-.127-.205-.245-.415-.38-.613-.088-.127-.202-.237-.304-.356-.05-.008-.126-.04-.146-.02-.138.137-.263.287-.392.431l-.648.172h-.171a3 3 0 0 1-.168-.005l-.035-.004-.152-.093.01-.11q.361-.053.724-.097a.63.63 0 0 0 .51-.33l.04-.051q-.026-.007-.054-.012c-.27-.003-.542-.002-.813-.011-.053 0-.144-.04-.147-.069-.005-.063.032-.132.052-.198l.034-.005q.169 0 .337-.003l.137.004c.547.015 1.112-.35 1.336-.866q.124-.29.234-.586c.015-.041.008-.092.018-.227-.119.117-.184.175-.24.24-.337.377-.698.723-1.22.818-.265.05-.535.063-.803.093l-.04.004h-.947c-.522-.023-1.048-.023-1.565-.078-.343-.036-.68-.139-1.009-.242-.22-.069-.274-.283-.21-.47q.031-.1.07-.2l-.38-.076c-.025.058-.063.116-.087.173-.05-.071-.132-.137-.14-.211-.061-.564-.369-.97-.787-1.33q-.212-.182-.417-.37l-.176.18c.252.215.458.476.607.804l.024.04.042.128.023.04c.07.209.118.43.22.622.091.173.22.35.375.461.256.183.279.707.011.851-.16.088-.308.2-.462.302l-.21.122-.61.494c-.054.045-.103.097-.156.146l-.021.017-.112.115-.275.353-.074.059-.092.051-.034.024-.646.472-.068.03-.064.01-.517.185c-.408.153-.812.323-1.23.453-.208.066-.44.068-.662.084-.04.003-.114-.062-.119-.101s.055-.11.098-.123c.355-.1.711-.192 1.069-.285l.032-.024.17-.073q.158-.06.315-.116c.805-.166 1.427-.62 1.957-1.217l.324-.298-.04-.062h-.29l-.063-.003-.107-.021q-.54-.008-1.077-.018l-.108-.009q-.252-.03-.502-.062l-.137-.028-.1-.006-.101-.004-.541-.028q-.639-.08-1.276-.167c-.143-.02-.283-.055-.424-.083l-.12-.029-.083-.04c-.674-.175-1.058-.743-1.574-1.135-.122-.093-.225-.21-.337-.317l.197-.125c.336.281.665.572 1.011.84.196.151.422.263.635.393l.214.087.12.021.082.046q.046.008.088.019l.116.047.064.007.106.024.064.007q.052.01.107.023l.298.014.206.027.1.004.067.009 2.843.193.068.004.305.03h.27c.438-.078.824-.264 1.116-.595.06-.068.045-.216.027-.32-.003-.024-.171-.05-.25-.026-.457.129-.909.273-1.363.413l-.476.031-.236.007-.04.015-.09-.004-.043-.017-1.79-.266h-.039l-.2-.077c-.218-.087-.435-.18-.656-.26-.404-.147-.818-.266-1.212-.433-.18-.077-.32-.241-.479-.364-.051-.04-.109-.073-.162-.11q-.7-.317-1.403-.633-.092-.042-.185-.076-.019-.007-.037-.017l-.064-.018-.141-.09c-.24-.108-.473-.198-.757-.155-.315.049-.469-.217-.442-.53.031-.347.3-.516.458-.767q.12-.117.235-.235c.09-.084.187-.162.267-.254.395-.45.922-.645 1.49-.763l.48-.08 2.64-.009.035-.001.976-.024.141.022 1.182-.006.038-.022.272.02.174.027.163.01.108.02q.325.207.645.416c.06.039.11.093.165.139l.131.047v-.212q-.304-.554-.606-1.11l-.512-.733-.135-.136q-.033-.034-.068-.066l-.273-.268-.13-.139-.2-.17-.076-.057-.306-.232-.028-.01-.106-.06-.026-.008-.076-.057-.166-.078-.065-.032q-.034-.016-.067-.034l-.04-.025-.065-.009-1.29-.19c-.87-.014-1.739-.079-2.606.115-.617.139-1.079.49-1.537.88a3 3 0 0 1-.485.325c-.048.027-.13-.006-.194-.012.01-.046.004-.113.032-.133.58-.41 1.029-.993 1.75-1.213 1.025-.313 2.066-.272 3.113-.213l.377.051c.188.019.377.034.564.058.14.019.206-.026.179-.168-.025-.132-.057-.264-.086-.396l-.183-.348a1.97 1.97 0 0 0-.777-.941l-.077-.057c-.511-.493-1.17-.546-1.827-.61l-.206-.024a10 10 0 0 0-.908-.044c-.51 0-1.02.044-1.525.145-.174.035-.334.15-.493.238-.224.127-.44.264-.66.396q-.116.102-.234.201l-.477.602c-.207.357-.396.723-.623 1.065-.171.259-.387.489-.587.729-.658.787-1.405 1.505-1.916 2.41-.175.31-.36.613-.541.92l-.03.038-.512.968q-.026.038-.052.08c-.572 1.082-1.147 2.163-1.716 3.247-.086.162-.148.336-.22.504l-.086.143-.265.688-.048.08-.494 1.597-.113.45q-.004.03-.006.063l-.024.106q-.252 1.631-.5 3.261c-.026.165-.038.332-.053.497l-.154 1.793-.036.152-.01.127-.022.141-.015.096-.024.24a.6.6 0 0 1-.029.168zm7.674-6.942c.013-.102.017-.204.038-.304.009-.04.055-.069.083-.104.496-.588 1.179-.707 1.896-.732.124 0 .249-.014.37.008.046.008.1.091.109.147.005.03-.076.102-.123.106-.235.019-.474.003-.706.035-.545.078-1.07.202-1.404.707-.048.071-.173.093-.263.137m.744-1.691c.058-.084.1-.214.18-.241.25-.088.513-.137.771-.202l.011.04c.068 0 .139-.013.201.004.07.02.133.068.198.103-.055.047-.105.12-.17.137q-.462.112-.929.194c-.083.015-.175-.022-.262-.035m11.846-1.236-.008-.2c.064-.002.13-.018.19-.002.198.054.392.118.589.179l.515.157c.391.011.783.018 1.174.035.063.003.124.05.185.079-.054.052-.103.146-.162.152-.305.028-.614.033-.921.047l-.167.027.053.068c.227.26.469.51.677.784.148.194.258.419.373.636.017.028-.024.118-.058.132-.038.015-.106-.015-.147-.045-.042-.03-.065-.089-.102-.13q-.534-.626-1.07-1.25l-.037-.031-.198-.14-.14-.094-.301-.174z"/>
        <path fill="#131715" d="M12.777 22.172c-.021.1-.025.202-.038.304.09-.044.215-.066.263-.137.334-.505.859-.629 1.403-.707.233-.032.472-.016.707-.035.046-.004.128-.077.123-.106-.01-.055-.063-.139-.11-.147-.12-.022-.245-.008-.369-.008-.717.025-1.4.144-1.896.732-.028.035-.074.065-.083.104"/>
        <path fill="#131715" d="M13.687 22.043c-.392.301-.442 1.085-.047 1.376.543.399 1.128.74 1.696 1.104l.083.046.087.02q.346.208.69.418.198.09.395.183l.686.324.094.042.317.154.903.414.61.302.069.008.069.023q.1.023.2.043l.065.008q.068.016.14.027l.064.004.172.031.066.004.375.063.338.057.568.031.177.07c.15.044.299.125.45.13 1.07.032 2.139.065 3.208.065 1.166 0 2.33-.03 3.496-.058.361-.009.705-.097 1.007-.32.133-.098.29-.164.436-.246l.04.022v.244c.003.06.012.121.008.18a1.5 1.5 0 0 1-.267.728l.143.095q.136-.194.268-.392c.032-.048.036-.115.054-.175l.026-.071-.063-.873c-.088-.203.097-.265.197-.369q.2-.258.394-.515c.186-.25.244-.519.132-.815l-.111-.217-.011-.06c-.027-.057-.094-.135-.075-.167.093-.165.207-.317.313-.475.223-.267.454-.53.663-.807.168-.221.157-.468.042-.713q-.121-.257-.245-.513l-.053-.077-.274-.266-.093-.174-.04-.164-.029-.069-.008-.028-.201-.337-.008-.027-.258-.312-.037-.066-.14-.13-.061-.074-.102-.098-.04-.066c0-.048-.017-.113.007-.143.117-.137.245-.266.37-.398l.03-.032.21-.333c.261-.508.292-1.044.208-1.597-.02-.135-.003-.276-.003-.415l.003-.036c0-.256-.004-.51.004-.765.002-.056.041-.152.075-.158.318-.054.201-.27.182-.45l-.134-.167-.105.153.035.024-.065.094q-.359-.234-.715-.469l-.064-.008-.076-.02-.257-.02a9.7 9.7 0 0 0-2.747-.058l-.237.065-.768.382-.114.086-.035.034-.13.106c-.15.147-.308.287-.448.442-.035.04-.016.125-.023.19.073 0 .164.027.215-.007.099-.067.175-.168.26-.256l.03-.03.039-.037.03-.028.667-.418.077-.052c.205-.072.408-.194.616-.205.603-.032 1.21-.02 1.814-.025q.273.025.546.053.254.052.507.107.187.099.37.199l.031.012.105.088c.162.323.103.657.05 1.008-.335-.545-.664-1.073-1.397-1.086-.374-.008-.746-.02-1.12-.025-.194-.001-.388.012-.583.02-.164.044-.338.07-.492.138-.17.074-.32.186-.48.281q-.107.078-.213.152a.1.1 0 0 1-.03.013q-.046.036-.096.072c-.394.445-.807.876-1.174 1.343a2 2 0 0 0-.292.558 4 4 0 0 0-.071.199c-.064.187-.01.401.21.47.33.103.666.206 1.009.242.518.055 1.044.055 1.565.078h.948l.04-.004c.267-.03.537-.043.802-.093.522-.095.884-.441 1.22-.819.056-.064.122-.122.24-.24-.01.136-.003.187-.018.228-.075.197-.15.392-.234.586-.224.516-.79.88-1.335.866l-.138-.004-.337.003-.034.005c-.02.066-.057.135-.051.198.002.028.093.067.146.069.27.01.543.008.813.01l.054.013-.04.05a.63.63 0 0 1-.51.33q-.362.045-.723.098l-.01.11.151.093.036.004q.083.004.167.006h.171l.648-.173c.13-.144.255-.294.392-.43.02-.021.096.011.146.02.103.118.217.228.304.355.136.198.254.408.38.613l.042.115.012.095.007.067-.004.502c-.019.103-.012.218-.06.305-.232.41-.464.82-.725 1.212-.091.136-.264.22-.399.327-.112.071-.214.166-.337.207a5.1 5.1 0 0 1-1.728.264l-.17.031-.3.008-.073.014q-.168.001-.335.005c-.34-.01-.68-.013-1.018-.03-.102-.005-.203-.043-.303-.067l-1.147-.074-.185-.042-1.378-.071-.617-.067-.128-.011-.811-.104-.34-.062-1.362-.26-.06-.006c-.025.004-.052.014-.075.01q-.766-.148-1.528-.304c-.122-.026-.24-.075-.36-.113l-1.32-.335-.611-.194c-.541-.103-1.082-.212-1.626-.303a.38.38 0 0 0-.265.074zm-.007.748c-.025-.254.216-.544.471-.525.24.02.48.056.71.12.583.163 1.155.375 1.743.516.798.192 1.607.343 2.414.502.614.121 1.231.237 1.85.34 1.264.21 2.53.382 3.815.404 1.06.017 2.12.074 3.182.094.613.012 1.207-.092 1.763-.365.575-.284.948-.756 1.215-1.313.167-.349.299-.714.448-1.08.393.223.511.921.199 1.302-.21.253-.473.467-.652.738-.295.447-.68.795-1.099 1.111-.155.117-.319.28-.493.302-.557.067-1.12.1-1.681.105-.567.006-1.135-.04-1.703-.053-.493-.01-.99.02-1.483-.01-.569-.037-1.147-.068-1.7-.194-.92-.212-1.841-.364-2.784-.337-.924.025-1.77-.283-2.62-.573a86 86 0 0 1-1.013-.35c-.295-.102-.595-.187-.88-.312-.18-.08-.328-.226-.5-.325-.051-.028-.137.007-.206.013.028.061.04.144.087.18.345.265.708.5 1.136.623.608.178 1.22.35 1.81.572a7.1 7.1 0 0 0 2.292.45c.682.024 1.363.122 2.04.212.85.113 1.692.296 2.542.369.808.069 1.623.054 2.434.038.639-.012 1.276-.095 1.916-.117a1.44 1.44 0 0 0 .865-.322c.238-.188.467-.384.713-.56.048-.034.206-.017.223.018.124.263.136.54-.04.78-.24.322-.47.661-.768.923-.261.227-.6.482-.92.506-1.25.098-2.506.121-3.76.15a29 29 0 0 1-3.595-.169c-.452-.05-.899-.132-1.349-.2-.286-.044-.595-.037-.859-.142a30 30 0 0 1-1.992-.897 56 56 0 0 1-2.154-1.124c-.389-.213-.75-.47-1.133-.69-.284-.163-.452-.384-.484-.71m11.633-4.388c-.065-.03-.13-.163-.12-.24.062-.446.388-.729.681-1.029l.034-.024.026-.026.027-.021.007-.004.073-.092.04.022-.052.116c-.198.459-.295.93-.148 1.46-.217-.059-.402-.088-.568-.162m1.306-1.195-.015-.12c.078-.063.156-.173.235-.172.083 0 .166.105.248.164-.076.085-.139.196-.235.243-.048.023-.154-.073-.233-.115m.29 1.084-.255-.27c.087-.069.166-.166.265-.196.048-.013.195.112.188.16-.014.09-.103.169-.197.306zm-.022-2.109.034-.084c.26-.136.508-.328.784-.39.334-.075.694-.04 1.044-.053l.636.022c.295.077.662.02.788.413v.004l.07.097.66.872-.057.066c-.252-.1-.51-.188-.756-.301-.326-.151-.643-.322-.962-.484-.212-.013-.424-.023-.635-.044-.107-.011-.213-.047-.32-.072l-.17-.008-.166-.008-.715-.025zm1.393 1.789c-.32 0-.422-.08-.398-.349.015-.179.023-.39.305-.385.362.007.418.063.427.41.008.256-.109.355-.334.324m.482-1.376c.143.009.218-.005.273.021a64 64 0 0 1 1.627.772c.034.017.046.176.01.218q-.287.326-.605.62c-.336.314-.754.4-1.128.414.084-.335.208-.673.247-1.02.042-.37-.136-.697-.424-1.025m-15.1 3.948c-.079.027-.12.157-.18.241.088.013.18.05.263.035q.467-.082.928-.194c.066-.016.116-.09.171-.137-.065-.035-.127-.084-.198-.103-.062-.017-.133-.004-.201-.004l-.01-.04c-.26.065-.523.114-.773.202"/>
        <path fill="#933E21" d="M14.151 22.266c-.255-.019-.496.271-.471.526.032.325.2.546.484.71.383.219.744.476 1.133.689.71.387 1.427.767 2.154 1.124.654.32 1.317.625 1.992.897.264.105.573.098.86.143.45.067.896.15 1.348.199a29 29 0 0 0 3.595.168c1.253-.028 2.51-.05 3.76-.15.32-.023.659-.278.92-.505.297-.262.528-.601.767-.923.177-.24.165-.517.041-.78-.018-.035-.175-.052-.223-.017-.246.175-.475.371-.713.559a1.44 1.44 0 0 1-.864.322c-.64.022-1.278.105-1.917.117-.811.016-1.627.03-2.434-.038-.85-.073-1.692-.256-2.541-.369-.678-.09-1.36-.188-2.041-.211a7.1 7.1 0 0 1-2.292-.451c-.59-.223-1.202-.394-1.81-.572-.428-.123-.79-.358-1.136-.623-.048-.036-.059-.119-.087-.18.07-.006.155-.04.205-.013.173.099.32.245.502.325.284.125.584.21.879.312q.505.178 1.012.35c.851.29 1.697.598 2.62.573.944-.027 1.865.125 2.785.337.553.126 1.131.157 1.7.193.494.031.99.002 1.483.011.568.012 1.136.06 1.703.053a15 15 0 0 0 1.681-.105c.174-.022.338-.185.493-.302.419-.316.804-.664 1.098-1.111.18-.27.444-.485.653-.738.312-.381.194-1.079-.199-1.302-.15.366-.28.731-.448 1.08-.266.557-.64 1.029-1.215 1.313-.556.273-1.15.377-1.763.365-1.061-.02-2.121-.077-3.182-.095-1.285-.021-2.551-.193-3.815-.402a66 66 0 0 1-1.85-.34c-.807-.16-1.616-.31-2.414-.503-.588-.142-1.16-.353-1.743-.516a3.7 3.7 0 0 0-.71-.12"/>
        <path fill="#131715" d="M14.036 16.09c-.027.313.126.578.442.53.284-.043.516.047.757.155l.14.09.065.018.037.017q.092.034.184.075.704.316 1.404.635c.053.036.11.07.162.109.159.122.299.287.478.363.394.167.809.287 1.213.434.221.08.437.172.656.26l.2.077h.038l1.791.266.042.016.09.004.04-.014.237-.007.476-.031c.454-.14.906-.284 1.363-.413.079-.023.247.002.25.025.018.105.033.253-.027.32-.293.332-.679.518-1.116.596h-.27q-.152-.016-.305-.03l-.068-.004-2.843-.194-.068-.008-.1-.004-.206-.027-.297-.015-.108-.022-.064-.007-.106-.024-.064-.007-.115-.047-.088-.02-.082-.045-.12-.022-.214-.086c-.213-.13-.44-.242-.635-.393-.346-.268-.675-.559-1.011-.84q-.1.062-.197.125c.111.106.215.224.337.316.515.392.9.96 1.574 1.136l.083.04.12.028c.14.029.28.064.423.084.426.06.851.112 1.276.167l.541.028.102.004q.05.004.1.005l.137.029.501.062.109.01 1.076.017.108.021.063.003h.29l.04.062-.324.297c-.53.598-1.152 1.052-1.957 1.218q-.157.056-.315.116l-.17.072-.033.025c-.357.093-.713.184-1.068.285-.044.012-.102.084-.098.123s.079.103.118.1c.223-.016.454-.017.663-.083.418-.13.821-.3 1.23-.454l.517-.184.064-.01.068-.03q.322-.238.645-.472l.034-.024.093-.051.074-.06.26-.335.015-.017.111-.115.022-.017c.053-.049.102-.101.156-.146q.303-.248.61-.494l.21-.123c.153-.102.302-.214.462-.301.268-.144.245-.668-.011-.851a1.34 1.34 0 0 1-.375-.46c-.102-.193-.15-.414-.22-.623l-.023-.04q-.022-.063-.042-.128l-.025-.04a2.3 2.3 0 0 0-.606-.805 3.3 3.3 0 0 0-.866-.52 7 7 0 0 1-.657-.327c-.321-.181-.632-.38-.95-.57l-.373-.169-.265-.044-.107-.023-.197-.016-.075-.017-1.216.029-.04.002a8 8 0 0 0-1.995.364 2.37 2.37 0 0 0-1.326 1.002c-.09.14-.273.223-.423.316-.016.011-.137-.08-.144-.13-.042-.307.167-.49.371-.67l.1-.1.097-.106.203-.202q.118-.117.235-.237l.81-.441.554-.147c.174-.012.347-.031.52-.035.53-.015 1.064-.038 1.595-.031.523.008 1.057-.105 1.566.11l.248.11.567.184.172.06.403.207.14.091c.41.376.814.76 1.228 1.131q.206.187.418.37c.418.36.725.765.786 1.33.008.074.091.14.14.211.025-.058.063-.116.087-.174a.24.24 0 0 0 .026-.106c-.004-.17-.053-.34-.083-.509l-.168-.306-.022-.039-.822-.866q-.036-.032-.07-.066l-.104-.097-.033-.036c-.243-.214-.504-.412-.726-.645-.334-.354-.706-.632-1.182-.764-.123-.033-.24-.094-.36-.14l.016-.066c.468 0 .935-.017 1.402.006.38.019.63.292.886.536l.203.231.681.67.104.235.093 1.005.14.242c.057-.035.166-.071.166-.105-.004-.344-.024-.688-.04-1.031l-.108-.284-.018-.096-.064-.069c-.04-.044-.077-.098-.125-.134-.334-.258-.515-.575-.455-1.01.012-.09-.05-.192-.077-.287l-.144-.283-.26-.49-.355-.548-.186-.291-.061-.073-.43-.447.015-.093 1.838-.367.035-.002 1.009.015.14.03 1.081.233.071.025q.03.009.063.015c.411.036.732.264 1.054.489.74.475 1.52.91 1.959 1.8l-.43-.066-.106-.021c-.826-.016-1.646.004-2.428.31l-.177.092-.083.274c.156-.033.272-.047.38-.08.185-.055.366-.122.55-.184l.099-.01.095-.009.148-.043.063-.007.107-.024 1.306-.027.109.015.263.019.074.019.875.398.611.416.105-.152-.21-.195-.306-.197c-.22-.125-.453-.23-.65-.384-.113-.087-.164-.254-.247-.382q-.106-.16-.214-.316l-.344-.398-.066-.068-.201-.204-.13-.074-.078-.054q-.436-.283-.867-.57a.23.23 0 0 1-.072-.108q-.14-.366-.276-.737l-.087-.11-.279-.5-.3-.469-.056-.122-.085-.11h-.002q-.218-.303-.439-.604l-.01-.027-.407-.396-.882-.498-.054-.024-.038-.029a2.64 2.64 0 0 0-1.248-.298l-1.015-.011c-.417.062-.817.17-1.149.447-.328.257-.655.518-.992.765-.051.037-.155.005-.235.005l-.402-.466-.07-.039-.135-.1-.635-.417-.383-.184-.567-.079-.174-.024H16.53v.16q.452.001.907.045l.207.024c.657.063 1.316.117 1.827.61l.077.057c.364.229.613.55.776.941l.184.347c.028.132.06.264.085.396.027.143-.04.188-.178.169-.187-.025-.376-.04-.564-.058l-.378-.051c-1.046-.06-2.087-.1-3.112.212-.721.221-1.171.804-1.75 1.214-.029.02-.022.087-.033.133.065.005.147.039.195.012.168-.097.338-.2.485-.324.458-.391.92-.742 1.537-.881.867-.194 1.735-.13 2.605-.115l1.291.19.065.008.04.026.066.034.066.032.165.078.076.057.026.008.106.06.029.01.306.23.076.06.2.169.13.139.273.268.068.066.135.136.512.734.606 1.11v.21l-.132-.047c-.054-.045-.104-.1-.164-.138q-.321-.211-.646-.416l-.107-.02-.163-.01-.174-.027-.272-.02-.038.021q-.591.005-1.182.007l-.142-.023-.976.024-.034.002-2.64.008-.48.08c-.568.12-1.095.313-1.49.764-.08.092-.177.17-.267.253q-.116.119-.235.236c-.16.25-.427.42-.458.766zm1.031.323c.037-.092.059-.194.115-.274.225-.326.498-.603.892-.728l.964-.313.064-.008.106-.025q.047-.007.096-.01.07-.014.14-.025l.403-.037.203-.01h.128c.035-.024.07-.07.105-.068.564.012 1.128.018 1.69.058.132.01.255.14.382.214l.128.047.078.051c.01 0 .017.006.027.008q.037.03.076.058l1.197.7c-.153.024-.302.061-.45.063-1.018.009-2.037.009-3.056.013h-.306q-.068 0-.134.003l-.068.004-.062.004c-.013.016-.027.046-.042.047q-.523.026-1.049.048l-.136.02q-.27.04-.54.076c-.181.06-.358.147-.544.17-.13.016-.27-.054-.407-.085zm.727.3.006-.058 2.048-.226-.565.903-1.489-.62zm2.459.243-.008-.125c.103-.066.206-.179.312-.181.077-.003.157.142.236.22-.094.077-.18.186-.287.217-.067.019-.167-.082-.253-.13zm.206.778c-.013-.138.036-.283.227-.258.071.01.136.064.204.096q.009.066.015.13c-.079.057-.152.149-.238.16-.065.01-.2-.075-.208-.128m1.573.166c-.307-.002-.43-.138-.424-.464.004-.225.297-.458.592-.431.309.028.453.121.42.369-.005.343-.214.53-.588.527zm.622-7.945c-.126-.194-.111-.332.106-.464.235-.14.438-.332.668-.481.271-.178.542-.423.844-.478.475-.088.974-.04 1.463-.05.812-.017 1.437.422 2.071.834q.2.219.4.441l.383.56.16.21.009.026.058.076.086.188.087.11.556.924-2.013-.522-.11-.022-.127-.009-.134-.005c-.768-.034-1.524.03-2.263.249l-.281.087c-.06.012-.125.014-.18.04-.167.075-.315.088-.48-.032-.288-.207-.593-.392-.89-.587l-.03-.023q-.046-.06-.088-.12l-.216-.787c-.026-.056-.045-.115-.079-.165m.704 8.859c-.167-.025-.334-.048-.527-.075.535-.57.651-1.948.091-2.313l.36-.03c.155-.01.314-.004.466-.032.672-.13 1.093.038 1.43.634.174.307.29.647.42.977.148.373.135.356-.247.51-.642.259-1.293.43-1.993.329"/>
        <path fill="#609543" d="M14.7 15.559c-.205.18-.414.362-.372.669.007.051.128.141.144.13.15-.092.333-.176.423-.316.32-.5.766-.824 1.326-1.002a8 8 0 0 1 1.995-.363l.04-.003 1.216-.028.075.016.197.016.107.023.265.044.374.17c.317.19.628.388.949.57q.32.18.657.327c.322.137.616.306.866.52l.175-.18c-.414-.371-.818-.755-1.228-1.13l-.14-.092-.402-.206-.173-.06-.567-.185-.248-.11c-.509-.215-1.043-.102-1.566-.11-.531-.007-1.064.016-1.596.031-.172.004-.345.023-.519.035l-.554.147-.81.442-.235.237-.203.202-.096.105h-.002z"/>
        <path fill="#609543" d="M15.181 16.139c-.055.08-.077.182-.114.273.136.031.278.101.407.085.186-.023.363-.109.545-.17l.54-.075.135-.02q.525-.022 1.05-.049c.014 0 .028-.03.041-.047l.062-.004q.032 0 .067-.004l.135-.002h.306c1.02-.005 2.038-.005 3.056-.014.148-.001.297-.039.45-.062l-1.197-.7-.076-.058q-.014-.006-.027-.008l-.078-.051-.128-.047c-.127-.074-.25-.205-.383-.214-.561-.04-1.125-.046-1.69-.058-.033-.002-.069.044-.104.067h-.128l-.203.01-.403.037-.14.026-.096.01-.106.025-.064.008-.964.312c-.394.125-.667.403-.893.729z"/>
        <path fill="#fff" d="m15.8 16.655-.005.058 1.488.62.565-.904zm2.445.176.008.125c.086.049.186.15.253.131.107-.03.193-.14.287-.217-.08-.078-.16-.223-.236-.22-.106.002-.209.115-.312.181m.441.645c-.191-.025-.24.12-.227.258.007.053.143.138.209.129.085-.012.159-.104.237-.16l-.015-.131c-.068-.032-.133-.086-.204-.096m.922-.04c-.007.326.117.462.424.465.374.003.583-.184.588-.527.033-.248-.111-.34-.42-.37-.294-.026-.588.207-.592.432"/>
        <path fill="#609543" d="M20.76 9.49c-.217.133-.232.271-.106.465.034.05.053.11.08.165l.215.786.087.121q.015.013.03.023c.298.195.604.38.89.587.166.12.314.107.482.031.054-.025.12-.027.179-.039q.14-.045.281-.087c.74-.22 1.495-.283 2.263-.25l.134.006.127.01.11.02c.66.172 1.32.344 2.013.523l-.556-.923-.087-.11-.086-.19-.058-.075-.01-.025-.159-.21-.383-.56-.4-.442c-.634-.412-1.26-.851-2.07-.834-.49.01-.989-.038-1.464.05-.302.055-.572.3-.844.478-.23.15-.433.34-.668.48m.28 4.76-.016.064c.12.047.236.108.36.142.476.132.848.41 1.183.763.221.233.482.431.725.645l.033.037.103.097.07.066q.413.432.823.866l.022.039.066-.037-.093-1.004-.104-.236-.68-.67-.204-.231c-.256-.244-.506-.517-.886-.536-.467-.023-.934-.005-1.402-.005"/>
        <path fill="#fff" d="M20.831 18.74c.193.026.36.05.527.074.7.1 1.351-.07 1.993-.329.382-.154.395-.137.247-.51-.13-.33-.246-.67-.42-.977-.337-.596-.758-.763-1.43-.634-.152.028-.31.022-.466.032l-.36.03c.56.365.444 1.744-.09 2.314z"/>
        <path fill="#609543" d="m22.407 11.934-.016.093.431.447.061.072.186.291.355.548.26.49q.071.142.144.283c.027.096.09.197.077.287-.06.435.121.753.455 1.01.048.036.085.09.125.135l.064.068.018.096q.052.141.107.284c.017.343.037.687.041 1.032 0 .033-.109.07-.166.105l-.14-.243-.066.037.168.305c.03.17.08.34.083.51a.24.24 0 0 1-.026.106l.38.076c.074-.2.165-.395.293-.557.367-.467.78-.898 1.174-1.343l.097-.072a.1.1 0 0 0 .03-.012l.212-.153c.16-.095.31-.207.48-.281.154-.067.328-.094.493-.139.194-.007.388-.02.583-.019.373.004.746.016 1.12.025.732.013 1.061.541 1.397 1.086.053-.351.111-.685-.05-1.008l-.105-.088-.032-.012-.37-.2-.506-.106-.546-.053c-.605.005-1.211-.007-1.815.025-.208.01-.41.133-.615.205l-.078.052-.667.418-.03.028-.038.038-.031.03c-.084.087-.16.188-.26.255-.05.034-.141.007-.215.007.007-.065-.012-.15.023-.19.14-.155.298-.295.449-.442l.13-.106.034-.034.115-.086.768-.382.237-.065c.871-.1 1.74-.098 2.607.038l.14.02.257.02.076.02.064.008.715.47q.032-.049.065-.095l-.036-.024q-.304-.21-.611-.416l-.875-.4q-.038-.008-.074-.018l-.263-.019-.11-.015-1.305.027-.108.024q-.03.005-.062.007l-.148.043-.095.01-.1.01c-.183.061-.364.129-.548.184-.11.032-.225.047-.381.08l.083-.274.177-.092c.782-.307 1.602-.327 2.428-.31l.106.02.43.067c-.438-.89-1.218-1.325-1.959-1.8-.322-.226-.643-.453-1.054-.49l-.063-.014-.07-.026-1.082-.233-.14-.03-1.009-.014h-.035zm.363 18.391c-.035.363.144.624.38.884.31.344.583.72.87 1.082.064.293.192.59.177.879-.023.432.02.844.184 1.236.068.162.205.314.346.422.216.164.464.286.697.427.488.285.948.642 1.47.833.489.18 1.04.217 1.57.261.672.056 1.349.05 2.024.079.912.037 1.78-.185 2.618-.499.428-.161.822-.44 1.19-.72.106-.081.133-.379.078-.535-.188-.522-.43-1.027-.65-1.538l-.028-.039c-.437-.755-.89-1.501-1.495-2.14l-.063-.074-.674-.707-.109-.092-.026-.01q-.12-.098-.243-.194c-.418-.237-.85-.455-1.25-.719-.188-.124-.32-.333-.473-.508-.065-.075-.109-.172-.182-.235-.192-.17-.401-.32-.594-.49-.235-.204-.499-.2-.775-.122-.14.04-.274.097-.412.146l-.073.05-.613.367-1.082.907c-.054.106-.392.157-.063.332.051.035.104.066.153.104.548.436.304.767-.148 1.085a.07.07 0 0 1-.042.011l.013.133c.075-.006.151-.016.225-.02l.1-.034c.257-.148.522-.286.77-.448.215-.14.411-.306.616-.46q.101-.076.206-.151c.494-.221.963-.132 1.42.115q.081.041.166.077c.19.221-.117.31-.133.482-.011.112-.085.218-.08.367l.416-.353.578-.438.07-.035c.128-.016.213.01.162.167l-.328.277-.211.16q-.287.253-.575.504l-.467.244-.41.229-.402.176-.204.163-.175.197q-.13.187-.264.374l-.01.025-.091.109c-.115.148-.119.303-.032.464l.396.512c.32.355.717.47 1.182.38l.105-.086.01-.026.044-.08c.31-.708.73-1.325 1.45-1.687.046-.024.118 0 .178 0-.01.06-.001.143-.038.178-.09.089-.206.15-.303.236-.113.097-.215.204-.32.308l-.09.105q-.2.293-.397.587l-.32.618-.005.163.003.037.032.098.023.038.003.004.025.035c.176.075.348.168.53.218.126.035.269 0 .402.013.26.023.46-.059.579-.3q.18-.19.363-.377l.21-.228.033-.033.003-.003.032-.032c.212-.221.416-.452.642-.659.06-.056.187-.044.284-.065-.026.081-.033.177-.083.238-.186.222-.386.43-.582.645l-.344.363q-.063.054-.129.106l-.096.073c-.227.186-.121.414-.025.591.056.105.237.18.373.204.51.087.743-.32 1.023-.617.24-.257.444-.545.667-.817.03-.038.072-.08.117-.09.074-.017.154-.011.231-.014q-.04.1-.081.197-.018.037-.041.072l-.309.367-.273.333-.197.239-.035.032a2 2 0 0 1-.177.162l-.562.36-.105.017c-.26-.015-.534.028-.75-.171-.04-.037-.1-.082-.1-.125 0-.25-.152-.219-.328-.212-.309.014-.617-.007-.926-.013-.355-.033-.622-.167-.694-.555-.008-.045-.078-.116-.113-.113-.684.059-1.166-.286-1.59-.754l-.031-.037h-.002c-.225-.188-.455-.373-.674-.568-.142-.127-.27-.27-.405-.408l-.016-.055-.05-.112q-.063-.413-.13-.827l-.03-.085c-.005-.312-.271-.262-.456-.324l-.311-.088-.402-.413-.028-.069-.02-.06-.026-.073c-.042-.335-.265-.618-.53-.668a.87.87 0 0 0-.894.424l-.044.082z"/>
        <path fill="#609543" d="m24.511 30.384.03.178c.122.266.38.34.63.382.122.02.248.01.374-.003l-.013-.133c-.045 0-.106-.023-.155-.028l.118-.3.072-.06.033-.035.123-.174c-.03-.327-.528-.568-.818-.416-.25.131-.383.314-.394.589"/>
        <path fill="#fff" d="M25.194 18.163c-.011.077.054.21.119.24.166.074.35.104.568.163-.147-.53-.05-1.002.148-1.461l.052-.116-.04-.022-.073.092-.007.004-.027.021-.026.026-.034.024c-.293.3-.62.583-.68 1.03z"/>
        <path fill="#131715" d="m25.321 19.348.008.2.445.231.3.174q.071.046.141.094l.198.14.036.031q.537.624 1.071 1.25c.037.041.06.1.102.13.04.03.109.06.147.045.034-.014.075-.104.058-.132-.115-.217-.225-.442-.373-.636-.208-.273-.45-.524-.677-.784l-.053-.068.167-.027c.307-.014.616-.019.921-.047.059-.006.108-.1.162-.152-.061-.029-.122-.076-.185-.079-.391-.017-.783-.024-1.174-.035l-.515-.157c-.197-.06-.391-.125-.59-.18-.058-.015-.125 0-.189.002"/>
        <path fill="#609543" d="m25.734 31.256.068.236.004.066.028.405v.305l.478-.372.035-.034.742-.674.034-.031.821-.865.242-.31h-.25c-.215.107-.442.197-.643.325-.46.29-.906.598-1.357.898-.018.012-.044.012-.066.017l-.066.008zm.316 1.304.058.07.07.066.067.066.17.17.076.087.071-.126.352-.715.076-.146.506-.472.102-.049.142-.05.195-.106.035-.03c.24-.307.492-.607.71-.928.037-.055-.059-.199-.096-.303-.09.06-.2.101-.273.178-.226.244-.435.501-.655.75-.102.116-.213.225-.32.338l-.56.497c-.211.174-.426.342-.631.521-.05.042-.064.12-.095.182"/>
        <path fill="#fff" d="m26.604 17.087.015.121c.079.042.185.138.233.115.096-.047.159-.158.235-.243-.082-.059-.165-.164-.248-.164-.079-.001-.157.11-.235.171m.05.935.256.27c.094-.137.183-.216.197-.307.007-.047-.14-.172-.188-.159-.099.03-.178.127-.265.196"/>
        <path fill="#609543" d="m26.92 16.099-.033.084.235.005.715.025.166.008.17.008c.107.024.213.06.32.072.21.021.423.03.635.044.32.162.636.333.962.484.246.113.504.202.756.301l.057-.066-.66-.872-.069-.097v-.004c-.127-.392-.494-.336-.79-.414l-.635-.021c-.35.013-.71-.022-1.044.052-.276.063-.523.255-.784.39z"/>
        <path fill="#fff" d="M27.882 17.623c-.023.27.077.349.398.349.226.03.342-.068.334-.325-.01-.346-.065-.402-.427-.41-.282-.004-.29.207-.305.386m1.153-1.006c-.055-.026-.13-.012-.273-.021.288.328.466.655.424 1.024-.04.348-.163.686-.247 1.021.374-.015.792-.1 1.128-.413a9 9 0 0 0 .605-.621c.037-.042.024-.2-.01-.218a64 64 0 0 0-1.627-.772"/>
      </g>
    </g>
  </g>
  <defs>
    <clipPath id="a">
      <path fill="#fff" d="M0 0h42v42H0z"/>
    </clipPath>
    <clipPath id="d">
      <rect width="32.2" height="32.2" x="4.9" y="4.9" fill="#fff" rx="16.1"/>
    </clipPath>
    <clipPath id="e">
      <path fill="#fff" d="M1.833 4.9H37.1v33.733H1.833z"/>
    </clipPath>
    <linearGradient id="b" x1="21" x2="21" y1="0" y2="61.409" gradientUnits="userSpaceOnUse">
      <stop stop-color="#08021E"/>
      <stop offset="1" stop-color="#1F0777"/>
    </linearGradient>
  </defs>
</svg>
