<svg xmlns="http://www.w3.org/2000/svg" width="42" height="42" fill="none"><g clip-path="url(#a)"><mask id="c" width="42" height="42" x="0" y="0" maskUnits="userSpaceOnUse" style="mask-type:alpha"><circle cx="21" cy="21" r="21" fill="url(#b)" transform="matrix(-1 0 0 1 42 0)"/></mask><g mask="url(#c)"><circle cx="21" cy="21" r="21" fill="#34EDB3" transform="matrix(-1 0 0 1 42 0)"/><circle cx="18.2" cy="18.2" r="18.2" fill="#fff" transform="matrix(-1 0 0 1 39.2 2.8)"/></g><circle cx="16.1" cy="16.1" r="16.1" fill="#0B0B22" transform="matrix(-1 0 0 1 37.1 4.9)"/><circle cx="21" cy="21" r="16.1" fill="#000"/><path fill="#fff" d="m14.078 14.932-.23-.377-2.815 1.62v-.245l9.804-5.663.212.13.444.246.441.262-6.007 3.47-.229-.377-1.62.934Zm0 3.567-.23-.377-2.815 1.62v-.262l12.897-7.43.215.132.44.244.442.262-6.024 3.471-.211-.377-4.714 2.717Zm0 1.783-.23-.39-2.815 1.634v-.26l14.436-8.333.211.131.445.263.44.247-6.024 3.469-.21-.375-6.253 3.614Zm0 1.769-.23-.376-2.815 1.62v-.245l15.975-9.216.21.116.444.26.442.247-5.973 3.454-.214-.378-7.839 4.518Zm0 1.783-.23-.375-2.815 1.62v-.246L28.546 14.72l.23.128.423.248.445.261-5.974 3.455-.215-.394-9.377 5.416Zm16.234-8.1.328.196v.639l-6.97 4.009-.215-.377-9.377 5.417-.23-.376-2.815 1.62v-.245l19.053-11.014.226.13Zm-18.068 12.21-.211-.131L30.64 17.076v1.259l-7.005 4.059-.228-.391-9.36 5.416-.231-.376-1.572.9Zm11.163-4.157-7.792 4.5-.228-.376-1.604.933-.21-.13 17.067-9.855v1.262l-7.005 4.06-.228-.394Zm-8.085 5.94-.214-.13 15.532-8.969v1.276l-7.005 4.042-.228-.376-6.254 3.617-.21-.392-1.621.933Zm1.554.883-.23-.113 13.994-8.086v1.277l-7.005 4.041-.228-.375-4.714 2.717-.212-.377-1.605.916Zm1.31.77 12.454-7.185v1.276l-7.005 4.045-.228-.38-3.175 1.835-.212-.393-1.605.933-.23-.131Zm1.768 1.014-.215-.113 10.901-6.303v1.277L23.635 31.3l-.228-.393-1.622.948-.226-.375-1.605.915Zm3.535-20.606-6.023 3.472-.214-.377-3.174 1.832-.23-.376-2.815 1.62v-.246l11.343-6.565.23.131.441.264.442.244v.001Z"/></g><defs><linearGradient id="b" x1="21" x2="21" y1="0" y2="61.409" gradientUnits="userSpaceOnUse"><stop stop-color="#08021E"/><stop offset="1" stop-color="#1F0777"/></linearGradient><clipPath id="a"><path fill="#fff" d="M0 0h42v42H0z"/></clipPath></defs></svg>