<svg xmlns="http://www.w3.org/2000/svg" width="42" height="42" fill="none"><g clip-path="url(#a)"><mask id="c" width="42" height="42" x="0" y="0" maskUnits="userSpaceOnUse" style="mask-type:alpha"><circle cx="21" cy="21" r="21" fill="url(#b)" transform="matrix(-1 0 0 1 42 0)"/></mask><g mask="url(#c)"><circle cx="21" cy="21" r="21" fill="#34EDB3" transform="matrix(-1 0 0 1 42 0)"/><circle cx="18.2" cy="18.2" r="18.2" fill="#fff" transform="matrix(-1 0 0 1 39.2 2.8)"/></g><circle cx="16.1" cy="16.1" r="16.1" fill="#0B0B22" transform="matrix(-1 0 0 1 37.1 4.9)"/><g clip-path="url(#d)"><circle cx="21" cy="21" r="16.1" fill="#0F1821"/><path fill="url(#e)" fill-rule="evenodd" d="M28.398 12.714c-4.717 5.75-6.416 7.79-6.52 7.827-.065.023-1.116-.958-2.336-2.18l-2.218-2.222 5.467-2.292a642.265 642.265 0 0 0 6.133-2.593c.366-.166.728-.309.804-.316.076-.008-.523.791-1.33 1.776Zm-1.944 12.475c-.039.039-7.138 2.997-12.151 5.064l-1.965.81 1.215-1.317c.669-.724 2.827-3.073 4.796-5.219l3.58-3.9 2.285 2.259c1.256 1.243 2.264 2.28 2.24 2.303Z" clip-rule="evenodd"/></g></g><defs><linearGradient id="b" x1="21" x2="21" y1="0" y2="61.409" gradientUnits="userSpaceOnUse"><stop stop-color="#08021E"/><stop offset="1" stop-color="#1F0777"/></linearGradient><linearGradient id="e" x1="28.491" x2="12.354" y1="13.685" y2="31.073" gradientUnits="userSpaceOnUse"><stop stop-color="#4DF6A7"/><stop offset="1" stop-color="#12D1E8"/></linearGradient><clipPath id="a"><path fill="#fff" d="M0 0h42v42H0z"/></clipPath><clipPath id="d"><rect width="32.2" height="32.2" x="4.9" y="4.9" fill="#fff" rx="16.1"/></clipPath></defs></svg>