<svg width="480" height="480" viewBox="0 0 480 480" fill="none" xmlns="http://www.w3.org/2000/svg"><mask id="mask0-193879" maskUnits="userSpaceOnUse" x="0" y="0" width="480" height="480"><circle cx="240" cy="240" r="240" fill="url(#paint0_linear-445986)"/></mask><g mask="url(#mask0-193879)"><circle cx="240" cy="240" r="240" fill="#31D8A4"/><circle cx="240" cy="240" r="208" fill="#fff"/></g><circle cx="240" cy="240" r="184" fill="#0E052F"/><circle cx="240" cy="240" r="184" fill="#0F1821"/><path fill-rule="evenodd" clip-rule="evenodd" d="M324.547 145.3c-53.906 65.719-73.322 89.027-74.521 89.455-.741.267-12.752-10.945-26.693-24.914l-25.346-25.4 62.479-26.186c34.362-14.403 65.904-27.741 70.091-29.64 4.187-1.9 8.322-3.525 9.192-3.614.868-.088-5.974 9.045-15.202 20.299zm-22.214 142.573c-.446.445-81.576 34.253-138.875 57.87L141 355l13.893-15.048c7.641-8.277 32.307-35.114 54.812-59.639l40.918-44.585 26.102 25.824c14.356 14.205 25.88 26.049 25.608 26.321z" fill="url(#paint1_linear-520484)"/><defs><linearGradient id="paint0_linear-445986" x1="240" y1="0" x2="240" y2="701.818" gradientUnits="userSpaceOnUse"><stop stop-color="#08021E"/><stop offset="1" stop-color="#1F0777"/></linearGradient><linearGradient id="paint1_linear-520484" x1="325.609" y1="156.402" x2="141.19" y2="355.125" gradientUnits="userSpaceOnUse"><stop stop-color="#4DF6A7"/><stop offset="1" stop-color="#12D1E8"/></linearGradient></defs></svg>