<svg width="42" height="42" viewBox="0 0 42 42" fill="none" xmlns="http://www.w3.org/2000/svg">
<g clip-path="url(#clip0_7277_58015)">
<mask id="mask0_7277_58015" style="mask-type:alpha" maskUnits="userSpaceOnUse" x="0" y="0" width="42" height="42">
<circle cx="21" cy="21" r="21" fill="url(#paint0_linear_7277_58015)"/>
</mask>
<g mask="url(#mask0_7277_58015)">
<circle cx="21" cy="21" r="21" fill="#34EDB3"/>
<circle cx="21" cy="21" r="18.2" fill="white"/>
</g>
<circle cx="21" cy="21" r="16.1" fill="#06061B"/>
<g clip-path="url(#clip1_7277_58015)">
<ellipse cx="21" cy="21" rx="16.1" ry="16.1" fill="#1C2951"/>
<g clip-path="url(#clip2_7277_58015)">
<path d="M26.4858 12.141C25.871 12.7489 25.3077 13.4078 24.807 14.1103L24.6487 14.0594C23.7356 13.7645 22.7895 13.5825 21.8359 13.5206C21.5488 13.4988 20.4774 13.4988 20.1276 13.5206C19.071 13.5898 18.2611 13.7463 17.3407 14.063C17.3038 14.0776 17.2707 14.0885 17.2376 14.0994C16.7185 13.4005 16.1404 12.7453 15.5035 12.1446C18.5593 10.5975 22.1341 10.4119 25.3335 11.6314C25.6759 11.7588 26.0109 11.908 26.3386 12.0682L26.4858 12.141Z" fill="#F00500"/>
<path d="M32.185 25.9483C31.7211 27.2551 31.0253 28.4673 30.1233 29.523C29.6336 30.0909 29.0924 30.6114 28.5107 31.0846C27.1485 32.1694 25.5581 32.9448 23.8608 33.3525C21.9832 33.8002 20.0246 33.8002 18.1469 33.3525C16.446 32.9448 14.8592 32.1694 13.497 31.0846C12.9153 30.6114 12.3741 30.0909 11.8845 29.523C9.28894 26.4907 8.50107 22.3263 9.82278 18.5732C10.0731 17.8779 10.3861 17.2081 10.7616 16.5711C10.9346 16.2799 11.1482 15.9523 11.2513 15.8176C11.6047 17.321 12.0391 18.6424 12.2011 19.1193C12.1901 19.1447 12.1753 19.1739 12.1606 19.1993C11.3028 20.9175 10.8389 22.5738 10.7285 24.3357C10.7285 24.3575 10.7248 24.383 10.7248 24.4048C10.6953 24.9327 10.7101 25.1839 10.7984 25.5151C11.0745 26.5526 11.925 27.6956 13.2577 28.8168C15.4409 30.6515 18.401 31.9765 20.6431 32.1294C22.9809 32.2859 26.4306 30.9354 28.7279 28.9624C29.0887 28.6457 29.4274 28.3108 29.7441 27.9541C29.9723 27.692 30.311 27.2406 30.2853 27.2406C30.2779 27.2406 30.2853 27.2333 30.3 27.226C30.311 27.2187 30.3221 27.2078 30.3147 27.2005C30.311 27.1969 30.3184 27.186 30.3294 27.1823C30.3405 27.1787 30.3479 27.1714 30.3442 27.1641C30.3405 27.1568 30.3442 27.1496 30.3589 27.1459C30.3699 27.1423 30.3736 27.1314 30.3699 27.1241C30.3663 27.1168 30.3699 27.1095 30.3773 27.1095C30.3847 27.1095 30.392 27.0986 30.392 27.0913C30.392 27.084 30.3994 27.0731 30.4068 27.0731C30.4141 27.0731 30.4215 27.0658 30.4215 27.0586C30.4325 27.0294 30.4509 27.0003 30.4693 26.9748C30.5246 26.8911 30.7455 26.5016 30.7749 26.4361C30.9848 25.9665 31.1173 25.5479 31.1799 25.1292C31.2093 24.929 31.2278 24.5614 31.213 24.474C31.2094 24.4594 31.2094 24.434 31.2057 24.3939C31.1983 24.3211 31.1946 24.2119 31.1873 24.1027C31.1799 23.9389 31.1652 23.7096 31.1541 23.5967C30.9958 21.9441 30.5687 20.5935 29.7588 19.1629C29.7257 19.1083 29.6962 19.0537 29.6778 19.01C29.6704 18.9991 29.6667 18.9882 29.6631 18.9809C29.7772 18.6424 30.2448 17.2263 30.6166 15.6064L30.624 15.6137L30.6792 15.6865C30.7749 15.8139 31.029 16.1925 31.1431 16.3745C31.6622 17.2118 32.0672 18.1109 32.3543 19.0501C33.0207 21.3107 32.9655 23.7205 32.185 25.9483Z" fill="#F00500"/>
<path d="M27.4062 21.5983C27.3952 21.6565 27.2222 21.8312 27.0491 21.9586C26.5411 22.3263 25.6317 22.6685 24.7076 22.8323C24.1811 22.9269 23.6547 22.9415 23.4963 22.865C23.3933 22.8141 23.3785 22.774 23.4154 22.643C23.4927 22.37 23.743 22.0715 24.1333 21.7912C24.3321 21.6492 25.1384 21.1651 25.5139 20.9612C26.1324 20.6263 26.6331 20.4261 26.9718 20.3788C27.0786 20.3642 27.2074 20.3606 27.2479 20.3788C27.3142 20.4043 27.3878 20.5972 27.4173 20.8302C27.432 20.9539 27.4246 21.5 27.4062 21.5983Z" fill="black"/>
<path d="M18.7323 22.8032C18.7102 22.8469 18.5998 22.8942 18.4746 22.9124C18.3494 22.9306 17.9665 22.9197 17.7493 22.8942C16.9688 22.7923 16.1405 22.5557 15.5367 22.2644C15.198 22.1006 14.955 21.9368 14.7746 21.7585L14.6715 21.6529L14.6604 21.5146C14.642 21.2743 14.6457 20.8957 14.6752 20.761C14.6936 20.6482 14.7341 20.539 14.7893 20.4407C14.8187 20.4043 14.8187 20.4043 14.9513 20.4043C15.1133 20.4043 15.2495 20.4298 15.4704 20.4989C15.9232 20.6373 16.597 20.9722 17.418 21.46C18.0954 21.8604 18.3494 22.057 18.5446 22.3263C18.6771 22.4938 18.7655 22.7304 18.7323 22.8032Z" fill="black"/>
<path d="M23.9455 27.8703C23.9455 27.8812 23.9013 28.056 23.8461 28.2635C23.7909 28.4709 23.7467 28.6384 23.7467 28.6457C23.7062 28.6493 23.6694 28.653 23.6289 28.6493H23.5111L23.3491 29.0279C23.2607 29.2354 23.1797 29.4283 23.1687 29.4574L23.1466 29.5084L23.0693 29.3846L22.992 29.2609V28.2525L22.9625 28.2598C22.8999 28.2744 22.4544 28.3326 22.2593 28.3508C21.453 28.4309 20.6431 28.4127 19.8405 28.2999C19.7116 28.2817 19.6012 28.2671 19.5975 28.2707C19.5938 28.2744 19.5975 28.5073 19.6049 28.7949L19.6159 29.3118L19.5533 29.4065C19.5202 29.4574 19.4871 29.5011 19.4871 29.5048C19.476 29.5157 19.4392 29.4574 19.3545 29.29C19.2625 29.1153 19.1962 28.9296 19.1483 28.7367L19.1226 28.6311L19.0084 28.6384L18.8943 28.6493L18.8649 28.5146C18.8501 28.4418 18.8317 28.329 18.8244 28.2671L18.8133 28.1506L18.7176 28.0669C18.6624 28.0196 18.6071 27.9722 18.5961 27.965C18.5777 27.9504 18.5703 27.9249 18.5703 27.9031V27.8594L19.0305 27.863L19.4907 27.8667L19.5055 27.914L19.5202 27.9613L19.6785 27.9686C19.7669 27.9722 20.0467 27.9795 20.297 27.9868L20.7572 27.9977L20.875 27.8157L20.9965 27.6337H21.1512L21.1475 27.2551L21.1438 26.8765L20.9413 26.7892C20.2896 26.5052 19.9068 26.1813 19.7632 25.7881C19.7337 25.708 19.7337 25.6789 19.7264 25.3149C19.7227 24.9545 19.7227 24.9217 19.7484 24.8417C19.8 24.6596 19.9436 24.5177 20.1277 24.4703C20.1902 24.4521 20.3559 24.4521 21.2248 24.4521L22.2483 24.4558L22.3624 24.5104C22.4986 24.5759 22.5612 24.6232 22.6385 24.7252C22.7269 24.8417 22.7527 24.9327 22.7527 25.1547C22.7527 25.4714 22.7306 25.7444 22.6974 25.8536C22.6496 26.0029 22.5759 26.1448 22.4839 26.2723C22.2998 26.5052 21.9648 26.7382 21.6592 26.8438L21.5709 26.8765L21.5745 27.2588L21.5782 27.641L21.6592 27.6483L21.7402 27.6555L21.8507 27.8193L21.9574 27.9832H22.4508C22.7232 27.9832 22.9625 27.9868 22.9846 27.9904C23.0214 27.9977 23.0288 27.9941 23.0656 27.9322L23.1098 27.8667H23.5332C23.8498 27.8521 23.9455 27.8594 23.9455 27.8703Z" fill="black"/>
<path d="M22.0016 28.9151C21.9317 28.9552 21.8838 28.9734 21.8727 28.9661C21.8617 28.9625 21.8102 28.9188 21.7549 28.8787L21.6555 28.7986L21.5524 28.9079C21.3279 29.1481 21.3205 29.159 21.2542 29.1627C21.1511 29.1736 21.1291 29.1554 21.0039 28.9697C20.9376 28.8751 20.8861 28.795 20.8861 28.795C20.8861 28.795 20.8382 28.7877 20.783 28.7841L20.6799 28.7732L20.632 28.8714L20.5842 28.9697L20.4995 28.9443C20.4332 28.9224 20.367 28.8969 20.3044 28.8678L20.1939 28.8132V28.6057L21.1732 28.6094L22.1525 28.613L22.1562 28.7113C22.1599 28.8278 22.1636 28.8241 22.0016 28.9151Z" fill="black"/>
<path d="M31.2057 24.474C31.202 24.4594 31.202 24.434 31.1983 24.3939C30.3147 24.2993 27.7928 24.241 25.4513 26.1521C25.4513 26.1521 24.6965 22.7303 21.1622 22.7303C17.6278 22.7303 16.3172 26.1521 16.3172 26.1521C14.3364 24.0445 11.6857 24.1974 10.7285 24.3357C10.7285 24.3575 10.7248 24.383 10.7248 24.4048C10.6953 24.9327 10.71 25.1839 10.7984 25.5151C11.0745 26.5526 11.925 27.6956 13.2577 28.8168C15.4409 30.6515 18.401 31.9765 20.6431 32.1294C22.9809 32.2859 26.4306 30.9354 28.7279 28.9624C29.0887 28.6457 29.4274 28.3108 29.7441 27.9541C29.9723 27.692 30.311 27.2406 30.2853 27.2406C30.2779 27.2406 30.2853 27.2333 30.3 27.226C30.311 27.2187 30.3221 27.2078 30.3147 27.2005C30.311 27.1969 30.3184 27.186 30.3294 27.1823C30.3405 27.1787 30.3478 27.1714 30.3442 27.1641C30.3405 27.1568 30.3442 27.1496 30.3589 27.1459C30.3699 27.1423 30.3736 27.1314 30.3699 27.1241C30.3662 27.1168 30.3699 27.1095 30.3773 27.1095C30.3847 27.1095 30.392 27.0986 30.392 27.0913C30.392 27.084 30.3994 27.0731 30.4067 27.0731C30.4141 27.0731 30.4215 27.0658 30.4215 27.0586C30.4325 27.0294 30.4509 27.0003 30.4693 26.9748C30.5246 26.8911 30.7455 26.5016 30.7749 26.4361C30.9848 25.9665 31.1173 25.5479 31.1799 25.1292C31.202 24.929 31.2204 24.5614 31.2057 24.474ZM22.0016 28.9151C21.9316 28.9551 21.8838 28.9733 21.8727 28.966C21.8617 28.9624 21.8101 28.9187 21.7549 28.8787L21.6555 28.7986L21.5524 28.9078C21.3279 29.148 21.3205 29.159 21.2542 29.1626C21.1511 29.1735 21.129 29.1553 21.0039 28.9697C20.9376 28.875 20.8861 28.7949 20.8861 28.7949C20.8861 28.7949 20.8382 28.7877 20.783 28.784L20.6799 28.7731L20.632 28.8714L20.5842 28.9697L20.4995 28.9442C20.4332 28.9224 20.367 28.8969 20.3044 28.8677L20.1939 28.8131V28.6057L21.1732 28.6093L22.1525 28.6129L22.1562 28.7112C22.1599 28.8277 22.1636 28.8241 22.0016 28.9151ZM23.8424 28.2598C23.7872 28.4673 23.743 28.6348 23.743 28.6421C23.7025 28.6457 23.6657 28.6493 23.6252 28.6457H23.5074L23.3491 29.0279C23.2607 29.2354 23.1797 29.4283 23.1687 29.4575L23.1466 29.5084L23.0693 29.3847L22.992 29.2609V28.2526L22.9625 28.2598C22.8999 28.2744 22.4544 28.3326 22.2593 28.3508C21.453 28.4309 20.6431 28.4127 19.8405 28.2999C19.7116 28.2817 19.6012 28.2671 19.5975 28.2708C19.5938 28.2744 19.5975 28.5074 19.6049 28.7949L19.6159 29.3119L19.5533 29.4065C19.5202 29.4575 19.487 29.5011 19.487 29.5048C19.476 29.5157 19.4392 29.4575 19.3545 29.29C19.2625 29.1153 19.1962 28.9296 19.1483 28.7367L19.1226 28.6311L19.0084 28.6384L18.8943 28.6493L18.8648 28.5146C18.8501 28.4418 18.8317 28.329 18.8243 28.2671L18.8133 28.1506L18.7176 28.0669C18.6624 28.0196 18.6071 27.9723 18.5961 27.965C18.5777 27.9504 18.5703 27.9249 18.5703 27.9031V27.8594L19.0305 27.8631L19.4907 27.8667L19.5054 27.914L19.5202 27.9613L19.6785 27.9686C19.7668 27.9723 20.0466 27.9795 20.297 27.9868L20.7572 27.9977L20.875 27.8157L20.9965 27.6337H21.1511L21.1475 27.2551L21.1438 26.8766L20.9413 26.7892C20.2896 26.5053 19.9067 26.1813 19.7632 25.7881C19.7337 25.708 19.7337 25.6789 19.7263 25.3149C19.7227 24.9545 19.7227 24.9218 19.7484 24.8417C19.8 24.6597 19.9436 24.5177 20.1276 24.4704C20.1902 24.4522 20.3559 24.4522 21.2248 24.4522L22.2483 24.4558L22.3624 24.5104C22.4986 24.5759 22.5612 24.6233 22.6385 24.7252C22.7269 24.8417 22.7526 24.9327 22.7526 25.1547C22.7526 25.4714 22.7306 25.7444 22.6974 25.8537C22.6496 26.0029 22.5759 26.1449 22.4839 26.2723C22.2998 26.5052 21.9648 26.7382 21.6592 26.8438L21.5708 26.8766L21.5745 27.2588L21.5782 27.641L21.6592 27.6483L21.7402 27.6556L21.8506 27.8194L21.9574 27.9832H22.4508C22.7232 27.9832 22.9625 27.9868 22.9846 27.9905C23.0214 27.9977 23.0288 27.9941 23.0656 27.9322L23.1098 27.8667H23.5332C23.8608 27.8667 23.9565 27.8703 23.9565 27.8813C23.9455 27.8776 23.8976 28.056 23.8424 28.2598Z" fill="white"/>
<path d="M31.1762 24.1027C31.1689 23.9389 31.1541 23.7096 31.1431 23.5967C30.9848 21.9441 30.5577 20.5935 29.7478 19.1629C29.7146 19.1083 29.6852 19.0537 29.6668 19.01C29.6594 18.9991 29.6557 18.9882 29.652 18.9809C29.7662 18.6424 30.2337 17.2263 30.6056 15.6064C31.11 13.4078 31.4303 10.8378 30.4509 10.066C30.4509 10.066 28.7574 9.94227 26.4895 12.141C25.8747 12.7489 25.3114 13.4078 24.8107 14.1103L24.6524 14.0594C23.7393 13.7645 22.7932 13.5825 21.8396 13.5206C21.5524 13.4988 20.4811 13.4988 20.1313 13.5206C19.0747 13.5898 18.2648 13.7463 17.3443 14.063C17.3075 14.0776 17.2744 14.0885 17.2413 14.0994C16.7222 13.4005 16.1441 12.7452 15.5072 12.1446C13.1473 9.93499 11.3912 10.0624 11.3912 10.0624C10.3529 10.8596 10.7064 13.5461 11.2439 15.8176C11.5973 17.321 12.0318 18.6424 12.1938 19.1193C12.1827 19.1447 12.168 19.1739 12.1533 19.1993C11.2954 20.9175 10.8315 22.5738 10.7211 24.3357C11.682 24.1974 14.3291 24.0408 16.3135 26.1521C16.3135 26.1521 17.6242 22.7303 21.1585 22.7303C24.6929 22.7303 25.4476 26.1521 25.4476 26.1521C27.7891 24.241 30.311 24.3029 31.1946 24.3939C31.1909 24.3211 31.1836 24.2119 31.1762 24.1027ZM12.8896 17.7469C12.8896 17.7469 11.5126 14.3433 11.8661 12.3994C11.925 12.0718 12.0354 11.7842 12.2085 11.5658C12.2085 11.5658 13.7695 11.7187 16.2877 14.4853C16.2877 14.4853 15.8091 14.7146 15.1685 15.2024C15.1685 15.2024 15.1648 15.206 15.1611 15.206C14.4653 15.7339 13.5744 16.5711 12.8896 17.7469ZM18.7323 22.8032C18.7102 22.8468 18.5998 22.8942 18.4746 22.9124C18.3494 22.9306 17.9665 22.9196 17.7493 22.8942C16.9688 22.7922 16.1405 22.5556 15.5367 22.2644C15.198 22.1006 14.955 21.9368 14.7746 21.7584L14.6715 21.6528L14.6604 21.5145C14.642 21.2743 14.6457 20.8957 14.6752 20.761C14.6936 20.6481 14.7341 20.5389 14.7893 20.4407C14.8188 20.4042 14.8188 20.4042 14.9513 20.4042C15.1133 20.4042 15.2495 20.4297 15.4704 20.4989C15.9232 20.6372 16.597 20.9721 17.418 21.4599C18.0954 21.8603 18.3494 22.0569 18.5446 22.3263C18.6771 22.4937 18.7655 22.7303 18.7323 22.8032ZM27.4062 21.5982C27.3952 21.6565 27.2222 21.8312 27.0491 21.9586C26.5411 22.3263 25.6317 22.6685 24.7076 22.8323C24.1811 22.9269 23.6547 22.9415 23.4963 22.865C23.3933 22.8141 23.3785 22.774 23.4154 22.643C23.4927 22.37 23.743 22.0715 24.1333 21.7912C24.3321 21.6492 25.1384 21.1651 25.5139 20.9612C26.1324 20.6263 26.6331 20.4261 26.9718 20.3788C27.0786 20.3642 27.2074 20.3606 27.2479 20.3788C27.3142 20.4043 27.3878 20.5972 27.4173 20.8302C27.432 20.9539 27.4246 21.5 27.4062 21.5982ZM26.7951 15.2024L26.7877 15.1987C26.1692 14.711 25.7053 14.4816 25.7053 14.4816C28.1389 11.7151 29.6447 11.5622 29.6447 11.5622C29.8103 11.7842 29.9171 12.0682 29.976 12.3958C30.3184 14.3397 28.9893 17.7469 28.9893 17.7469C28.4334 16.7677 27.686 15.9013 26.7951 15.2024Z" fill="#FFA409"/>
<path d="M29.9797 12.3957C29.6925 12.3593 28.334 12.3521 26.7951 15.2023L26.7877 15.1987C26.1692 14.7109 25.7053 14.4816 25.7053 14.4816C28.1389 11.715 29.6447 11.5621 29.6447 11.5621C29.814 11.7842 29.9208 12.0681 29.9797 12.3957Z" fill="#FF9300"/>
<path d="M28.993 17.7469C28.4334 16.764 27.6897 15.9013 26.7951 15.2024C28.334 12.3521 29.6888 12.3594 29.9797 12.3958C30.3221 14.3433 28.993 17.7469 28.993 17.7469Z" fill="#FF8300"/>
<path d="M30.0349 12.4067C30.0165 12.403 29.9981 12.3994 29.9797 12.3958L30.0349 12.4067Z" fill="#FF8300"/>
<path d="M16.2877 14.4816C16.2877 14.4816 15.8091 14.7109 15.1685 15.1987C15.1685 15.1987 15.1648 15.2023 15.1611 15.2023C13.567 12.3484 12.1643 12.3593 11.8624 12.3957C11.9213 12.0681 12.0318 11.7805 12.2048 11.5621C12.2085 11.5621 13.7695 11.715 16.2877 14.4816Z" fill="#FF9300"/>
<path d="M15.1648 15.2024C14.4653 15.7339 13.5744 16.5675 12.8896 17.7469C12.8896 17.7469 11.5126 14.3433 11.8661 12.3958C12.1643 12.3594 13.5707 12.3521 15.1648 15.2024Z" fill="#FF8300"/>
<path d="M11.8661 12.3958C11.8477 12.3994 11.8256 12.403 11.8072 12.4067L11.8661 12.3958Z" fill="#FF8300"/>
<path d="M25.2672 19.6362C25.2672 19.6362 24.0891 19.709 24.2363 18.7989C24.3836 17.8889 25.304 17.7797 25.5617 17.8161C25.8194 17.8525 26.8503 18.2165 26.6662 18.9809C26.4821 19.7454 26.2244 19.5998 26.0772 19.6362C25.9299 19.6726 25.2672 19.6362 25.2672 19.6362Z" fill="white"/>
<path d="M16.5786 19.6362C16.5786 19.6362 15.4004 19.709 15.5477 18.7989C15.695 17.8889 16.6154 17.7797 16.8731 17.8161C17.1308 17.8525 18.1617 18.2165 17.9776 18.9809C17.7935 19.7454 17.5358 19.5998 17.3885 19.6362C17.2413 19.6726 16.5786 19.6362 16.5786 19.6362Z" fill="white"/>
</g>
</g>
</g>
<defs>
<linearGradient id="paint0_linear_7277_58015" x1="21" y1="0" x2="21" y2="61.4091" gradientUnits="userSpaceOnUse">
<stop stop-color="#08021E"/>
<stop offset="1" stop-color="#1F0777"/>
</linearGradient>
<clipPath id="clip0_7277_58015">
<rect width="42" height="42" fill="white"/>
</clipPath>
<clipPath id="clip1_7277_58015">
<rect x="4.90002" y="4.90002" width="32.2" height="32.2" rx="16.1" fill="white"/>
</clipPath>
<clipPath id="clip2_7277_58015">
<rect width="23.625" height="23.625" fill="white" transform="translate(9.18762 10.0625)"/>
</clipPath>
</defs>
</svg>
