<svg width="42" height="42" fill="none" xmlns="http://www.w3.org/2000/svg">
  <g clip-path="url(#a)">
    <mask id="c" width="42" height="42" x="0" y="0" maskUnits="userSpaceOnUse" style="mask-type:alpha">
      <circle cx="21" cy="21" r="21" fill="url(#b)"/>
    </mask>
    <g mask="url(#c)">
      <circle cx="21" cy="21" r="21" fill="#34EDB3"/>
      <circle cx="21" cy="21" r="18.2" fill="#fff"/>
    </g>
    <circle cx="21" cy="21" r="16.1" fill="#06061B"/>
    <g clip-path="url(#d)">
      <circle cx="21" cy="21" r="16.1" fill="#1C2951"/>
      <g clip-path="url(#e)">
        <path fill="#F00500" d="M26.486 12.141a15 15 0 0 0-1.679 1.97l-.158-.052a11.6 11.6 0 0 0-2.813-.538 22 22 0 0 0-1.708 0c-1.057.069-1.867.225-2.787.542l-.103.036a15 15 0 0 0-1.734-1.954 12.18 12.18 0 0 1 10.835-.077zm5.699 13.807a11.3 11.3 0 0 1-2.062 3.575c-.49.568-1.03 1.088-1.612 1.562a11.95 11.95 0 0 1-4.65 2.267 12.3 12.3 0 0 1-5.714 0 11.9 11.9 0 0 1-4.65-2.267 13 13 0 0 1-1.613-1.562 11.14 11.14 0 0 1-2.061-10.95q.375-1.044.939-2.002a10 10 0 0 1 .49-.753c.353 1.503.787 2.824.95 3.301a1 1 0 0 1-.041.08c-.858 1.718-1.322 3.375-1.432 5.137l-.004.069c-.03.528-.015.779.073 1.11.277 1.038 1.127 2.18 2.46 3.302 2.183 1.834 5.143 3.16 7.385 3.312 2.338.157 5.788-1.194 8.085-3.167q.541-.473 1.016-1.008c.228-.262.567-.713.541-.713-.007 0 0-.008.015-.015.011-.007.022-.018.015-.025-.004-.004.003-.015.014-.019.011-.003.019-.01.015-.018q-.007-.011.015-.018c.01-.004.015-.015.01-.022q-.004-.012.008-.014c.012-.002.015-.011.015-.019 0-.007.007-.018.015-.018.007 0 .015-.007.015-.014a.4.4 0 0 1 .047-.084 9 9 0 0 0 .306-.539c.21-.47.342-.888.405-1.307.03-.2.048-.568.033-.655q-.004-.021-.007-.08c-.008-.073-.011-.182-.019-.291a12 12 0 0 0-.033-.506c-.158-1.653-.585-3.004-1.395-4.434a1 1 0 0 1-.081-.153q-.01-.017-.015-.03a38 38 0 0 0 .954-3.374l.007.008.055.072a11.4 11.4 0 0 1 1.675 3.364c.667 2.26.611 4.67-.169 6.898"/>
        <path fill="#000" d="M27.406 21.598c-.01.059-.184.233-.357.36-.508.368-1.417.71-2.341.874-.527.095-1.053.11-1.212.033-.103-.05-.117-.091-.08-.222.077-.273.327-.572.717-.852a23 23 0 0 1 1.38-.83c.62-.335 1.12-.535 1.459-.582.107-.015.235-.018.276 0 .066.025.14.218.17.451.014.124.007.67-.012.768m-8.674 1.205c-.022.044-.132.091-.257.11a4 4 0 0 1-.726-.019c-.78-.102-1.608-.338-2.212-.63-.339-.163-.582-.327-.762-.505l-.104-.106-.01-.138c-.019-.24-.015-.62.014-.754a1 1 0 0 1 .114-.32c.03-.037.03-.037.162-.037.162 0 .298.026.52.095.452.138 1.126.473 1.947.961.677.4.931.597 1.127.866.132.168.22.404.187.477m5.213 5.067c0 .011-.044.186-.099.393s-.1.375-.1.383c-.04.003-.077.007-.117.003h-.118l-.162.379c-.088.207-.17.4-.18.43l-.022.05-.078-.123-.077-.124v-1.008l-.03.007a12 12 0 0 1-.703.09c-.806.08-1.616.063-2.419-.05a3 3 0 0 0-.242-.03c-.004.004 0 .237.007.525l.01.517-.062.095c-.033.05-.066.094-.066.098-.011.01-.048-.048-.132-.215a2.5 2.5 0 0 1-.207-.553l-.025-.106-.115.007-.114.011-.03-.134a4 4 0 0 1-.04-.248l-.01-.116-.096-.084c-.056-.047-.11-.095-.122-.102a.08.08 0 0 1-.026-.062v-.044l.46.004.46.004.016.047.014.047.159.008.618.018.46.01.118-.181.122-.182h.154l-.003-.379-.004-.378-.203-.088c-.651-.284-1.034-.608-1.178-1-.03-.081-.03-.11-.037-.474-.003-.36-.003-.393.022-.473a.53.53 0 0 1 .38-.372c.062-.018.228-.018 1.097-.018l1.023.004.114.054a.64.64 0 0 1 .277.215c.088.117.114.208.114.43 0 .316-.022.59-.056.699-.047.149-.121.29-.213.418a1.97 1.97 0 0 1-.825.572l-.088.032.003.383.004.382.081.007.081.008.11.163.107.164h.494c.272 0 .511.004.534.007.036.008.044.004.08-.058l.045-.065h.423c.317-.015.412-.008.412.003"/>
        <path fill="#000" d="M22.002 28.915c-.07.04-.118.058-.13.051-.01-.004-.062-.047-.117-.087l-.1-.08-.103.109c-.224.24-.232.251-.298.255-.103.01-.125-.008-.25-.193-.066-.095-.118-.175-.118-.175s-.048-.007-.103-.01l-.103-.012-.048.098-.048.099-.084-.026a2 2 0 0 1-.196-.076l-.11-.055v-.207l.98.003.979.004.003.098c.004.117.008.113-.154.204"/>
        <path fill="#fff" d="M31.206 24.474c-.004-.015-.004-.04-.008-.08a7.9 7.9 0 0 0-5.747 1.758s-.755-3.422-4.289-3.422-4.845 3.422-4.845 3.422c-1.98-2.108-4.631-1.955-5.588-1.816 0 .022-.004.047-.004.069-.03.528-.015.779.073 1.11.277 1.038 1.127 2.18 2.46 3.302 2.183 1.834 5.143 3.16 7.385 3.312 2.338.157 5.788-1.194 8.085-3.167q.541-.473 1.016-1.008c.228-.262.567-.713.541-.713-.007 0 0-.008.015-.015.011-.007.022-.018.015-.025-.004-.004.003-.015.014-.019.011-.003.019-.01.015-.018q-.007-.011.015-.018c.01-.004.015-.015.01-.022q-.004-.012.008-.014c.012-.002.015-.011.015-.019 0-.007.007-.018.015-.018.007 0 .015-.007.015-.014a.4.4 0 0 1 .047-.084 9 9 0 0 0 .306-.539c.21-.47.342-.888.405-1.307.022-.2.04-.568.026-.655m-9.204 4.441c-.07.04-.118.058-.13.051-.01-.004-.062-.047-.117-.087l-.1-.08-.103.109c-.224.24-.232.251-.298.255-.103.01-.125-.008-.25-.193l-.118-.175s-.048-.007-.103-.011l-.103-.01-.048.097-.048.099-.084-.026a2 2 0 0 1-.196-.076l-.11-.055v-.207l.98.003.979.004.003.098c.004.117.008.113-.154.204m1.84-.655a14 14 0 0 0-.099.382q-.058.007-.118.004h-.118l-.158.382c-.088.207-.17.4-.18.43l-.022.05-.078-.123-.077-.124v-1.008l-.03.007a12 12 0 0 1-.703.09c-.806.08-1.616.063-2.419-.05a3 3 0 0 0-.242-.03c-.004.004 0 .237.007.525l.01.517-.062.095c-.033.05-.066.094-.066.098-.011.01-.048-.047-.132-.215a2.5 2.5 0 0 1-.207-.553l-.025-.106-.115.007-.114.011-.03-.134a4 4 0 0 1-.04-.248l-.01-.116-.096-.084-.122-.102a.08.08 0 0 1-.026-.062v-.044l.46.004.46.004.015.047.015.047.159.008.618.018.46.01.118-.181.122-.182h.154l-.003-.379-.004-.378-.203-.088c-.651-.284-1.034-.608-1.178-1-.03-.081-.03-.11-.037-.474-.003-.36-.003-.393.022-.473a.53.53 0 0 1 .38-.372c.062-.018.228-.018 1.097-.018l1.023.004.114.054a.64.64 0 0 1 .277.215c.088.117.114.208.114.43 0 .316-.022.59-.056.699-.047.149-.121.29-.213.418a1.97 1.97 0 0 1-.825.572l-.088.033.003.382.004.382.081.007.081.008.11.163.107.164h.494c.272 0 .511.004.534.008.036.007.044.003.08-.059l.045-.065h.423c.328 0 .423.003.423.014-.01-.003-.058.175-.114.379"/>
        <path fill="#FFA409" d="M31.176 24.103a12 12 0 0 0-.033-.506c-.158-1.653-.585-3.004-1.395-4.434a1 1 0 0 1-.081-.153q-.01-.017-.015-.03a38 38 0 0 0 .954-3.374c.504-2.198.824-4.768-.155-5.54 0 0-1.694-.124-3.962 2.075a15 15 0 0 0-1.678 1.97l-.159-.052a11.6 11.6 0 0 0-2.812-.538 22 22 0 0 0-1.709 0c-1.056.069-1.866.225-2.787.542q-.055.021-.103.036a15 15 0 0 0-1.734-1.954c-2.36-2.21-4.116-2.083-4.116-2.083-1.038.798-.685 3.484-.147 5.756a37 37 0 0 0 .95 3.301 1 1 0 0 1-.04.08c-.859 1.718-1.322 3.375-1.433 5.137.961-.139 3.608-.295 5.593 1.816 0 0 1.31-3.422 4.845-3.422s4.289 3.422 4.289 3.422a7.9 7.9 0 0 1 5.747-1.758zM12.89 17.747s-1.377-3.404-1.024-5.348c.059-.327.17-.615.343-.833 0 0 1.56.153 4.079 2.92 0 0-.479.229-1.12.716q0 .002-.007.004a8.8 8.8 0 0 0-2.271 2.54zm5.842 5.056c-.022.044-.132.091-.257.11a4 4 0 0 1-.726-.019c-.78-.102-1.608-.338-2.212-.63-.339-.163-.582-.327-.762-.506l-.104-.105-.01-.138c-.019-.24-.015-.62.014-.754a1 1 0 0 1 .114-.32c.03-.037.03-.037.162-.037.162 0 .298.026.52.095.452.138 1.126.473 1.947.96.677.401.931.598 1.127.867.132.168.22.404.187.477m8.674-1.205c-.01.059-.184.233-.357.36-.508.368-1.417.71-2.341.874-.527.095-1.053.11-1.212.033-.103-.05-.117-.091-.08-.222.077-.273.327-.572.717-.852a23 23 0 0 1 1.38-.83c.62-.335 1.12-.535 1.459-.582.107-.015.235-.018.276 0 .066.025.14.218.17.451.014.124.007.67-.012.768m-.61-6.396-.008-.003c-.619-.488-1.083-.717-1.083-.717 2.434-2.767 3.94-2.92 3.94-2.92.165.222.272.506.331.834.342 1.944-.987 5.35-.987 5.35a8.7 8.7 0 0 0-2.194-2.544z"/>
        <path fill="#FF9300" d="M29.98 12.396c-.288-.037-1.646-.044-3.185 2.806l-.007-.003c-.619-.488-1.083-.717-1.083-.717 2.434-2.767 3.94-2.92 3.94-2.92.169.222.276.506.335.834"/>
        <path fill="#FF8300" d="M28.993 17.747a8.7 8.7 0 0 0-2.198-2.545c1.539-2.85 2.894-2.843 3.185-2.806.342 1.947-.987 5.35-.987 5.35zm1.042-5.34-.055-.011z"/>
        <path fill="#FF9300" d="M16.288 14.482s-.479.229-1.12.717q0 .002-.007.003c-1.594-2.854-2.997-2.843-3.299-2.806.06-.328.17-.616.343-.834.004 0 1.565.153 4.083 2.92"/>
        <path fill="#FF8300" d="M15.165 15.202a8.8 8.8 0 0 0-2.275 2.545s-1.377-3.404-1.024-5.351c.298-.037 1.705-.044 3.299 2.806"/>
        <path fill="#FF8300" d="m11.866 12.396-.059.01.06-.01z"/>
        <path fill="#fff" d="M25.267 19.636s-1.178.073-1.03-.837 1.067-1.02 1.325-.983c.257.037 1.288.4 1.104 1.165-.184.764-.442.619-.589.655s-.81 0-.81 0m-8.688 0s-1.179.073-1.031-.837c.147-.91 1.067-1.02 1.325-.983s1.289.4 1.105 1.165c-.184.764-.442.619-.59.655s-.81 0-.81 0z"/>
      </g>
    </g>
  </g>
  <defs>
    <clipPath id="a">
      <path fill="#fff" d="M0 0h42v42H0z"/>
    </clipPath>
    <clipPath id="d">
      <rect width="32.2" height="32.2" x="4.9" y="4.9" fill="#fff" rx="16.1"/>
    </clipPath>
    <clipPath id="e">
      <path fill="#fff" d="M9.188 10.063h23.625v23.624H9.188z"/>
    </clipPath>
    <linearGradient id="b" x1="21" x2="21" y1="0" y2="61.409" gradientUnits="userSpaceOnUse">
      <stop stop-color="#08021E"/>
      <stop offset="1" stop-color="#1F0777"/>
    </linearGradient>
  </defs>
</svg>
