<svg xmlns="http://www.w3.org/2000/svg" width="42" height="42" fill="none"><g clip-path="url(#a)"><mask id="c" width="42" height="42" x="0" y="0" maskUnits="userSpaceOnUse" style="mask-type:alpha"><circle cx="21" cy="21" r="21" fill="url(#b)" transform="matrix(-1 0 0 1 42 0)"/></mask><g mask="url(#c)"><circle cx="21" cy="21" r="21" fill="#34EDB3" transform="matrix(-1 0 0 1 42 0)"/><circle cx="18.2" cy="18.2" r="18.2" fill="#fff" transform="matrix(-1 0 0 1 39.2 2.8)"/></g><circle cx="16.1" cy="16.1" r="16.1" fill="#0B0B22" transform="matrix(-1 0 0 1 37.1 4.9)"/><g clip-path="url(#d)"><circle cx="21" cy="21" r="16.1" fill="#4CA3FF"/><path fill="#fff" fill-rule="evenodd" d="M25.602 19.027a5.635 5.635 0 01-.036 7.19l-.071.085-.019-.108a5.023 5.023 0 00-.056-.278c-.411-1.765-1.75-3.28-3.954-4.506-1.488-.825-2.34-1.82-2.563-2.949-.144-.73-.037-1.464.17-2.092.208-.629.516-1.155.779-1.472l.857-1.025c.15-.18.432-.18.582 0l4.311 5.155zm1.356-1.024l-5.746-6.871a.278.278 0 00-.424 0l-5.746 6.87-.019.024a7.345 7.345 0 00-1.69 4.688c0 4.135 3.433 7.486 7.667 7.486s7.667-3.351 7.667-7.486a7.345 7.345 0 00-1.69-4.688l-.02-.023zm-10.541 1.002l.514-.615.015.113c.013.09.027.18.045.271.333 1.707 1.52 3.13 3.507 4.231 1.726.961 2.731 2.066 3.02 3.278.121.506.143 1.003.09 1.438l-.003.027-.024.012a5.972 5.972 0 01-2.581.581c-3.247 0-5.88-2.57-5.88-5.74 0-1.361.486-2.612 1.297-3.596z" clip-rule="evenodd"/></g></g><defs><clipPath id="a"><path fill="#fff" d="M0 0h42v42H0z"/></clipPath><clipPath id="d"><rect width="32.2" height="32.2" x="4.9" y="4.9" fill="#fff" rx="16.1"/></clipPath><linearGradient id="b" x1="21" x2="21" y1="0" y2="61.409" gradientUnits="userSpaceOnUse"><stop stop-color="#08021E"/><stop offset="1" stop-color="#1F0777"/></linearGradient></defs></svg>