<svg width="42" height="42" fill="none" viewBox="0 0 42 42" xmlns="http://www.w3.org/2000/svg">
  <g clip-path="url(#a)">
    <path fill="#6F91E9" d="M21 42c11.598 0 21-9.402 21-21S32.598 0 21 0 0 9.402 0 21s9.402 21 21 21"/>
    <path fill="#fff" d="M29.517 16.087c-.268-2.769-2.661-3.694-5.68-3.955l-.004-3.842-2.337.004.004 3.74c-.615 0-1.242.013-1.867.027l-.003-3.765-2.338.002.004 3.84c-.506.011-1.004.022-1.488.022v-.012l-3.226.003.004 2.497s1.727-.035 1.698-.004c.947 0 1.255.549 1.346 1.024l.006 4.376c.065 0 .15.003.247.015l-.247.001.007 6.13c-.042.298-.216.773-.879.775.03.027-1.699.003-1.699.003l-.461 2.792 3.043-.004c.566 0 1.123.01 1.669.012l.006 3.885 2.336-.004-.005-3.841q.961.016 1.868.015l.004 3.825 2.337-.003-.004-3.877c3.931-.23 6.68-1.224 7.018-4.915.273-2.972-1.127-4.298-3.359-4.83 1.356-.692 2.201-1.91 2-3.936m-3.262 8.31c.006 2.904-4.966 2.58-6.551 2.583l-.005-5.148c1.586 0 6.554-.462 6.556 2.566m-1.095-7.26c.003 2.642-4.144 2.337-5.463 2.339l-.005-4.667c1.319-.002 5.465-.428 5.468 2.328"/>
  </g>
  <defs>
    <clipPath id="a">
      <path fill="#fff" d="M0 0h42v42H0z"/>
    </clipPath>
  </defs>
</svg>
