<svg xmlns="http://www.w3.org/2000/svg" width="42" height="42" fill="none"><g clip-path="url(#a)"><mask id="c" width="42" height="42" x="0" y="0" maskUnits="userSpaceOnUse" style="mask-type:alpha"><circle cx="21" cy="21" r="21" fill="url(#b)"/></mask><g mask="url(#c)"><circle cx="21" cy="21" r="21" fill="#34EDB3"/><circle cx="21" cy="21" r="18.2" fill="#fff"/></g><circle cx="21" cy="21" r="16.1" fill="#06061B"/><g clip-path="url(#d)"><path fill="#000" d="M21 37.268c8.984 0 16.268-7.284 16.268-16.268 0-8.984-7.284-16.268-16.268-16.268-8.984 0-16.268 7.284-16.268 16.268 0 8.984 7.284 16.268 16.268 16.268Z"/><path fill="#fff" d="M29.891 17.203c-.812-.576-1.681-1.191-2.531-1.801-.02-.014-.038-.029-.061-.043a1.139 1.139 0 0 0-.334-.19l-.01-.005a3245.82 3245.82 0 0 1-6.821-1.682l-6.084-1.501-.16-.043c-.183-.052-.394-.11-.62-.082a.429.429 0 0 0-.173.068l-.057.047a.702.702 0 0 0-.16.258l-.014.038v.219l.01.033c1.282 3.645 2.597 7.343 3.866 10.921.977 2.755 1.993 5.608 2.983 8.41.061.19.235.316.451.334h.047a.527.527 0 0 0 .47-.262l3.721-5.504c.906-1.339 1.813-2.682 2.72-4.021l1.113-1.65c.61-.904 1.24-1.838 1.866-2.748l.032-.047v-.058c.015-.167.019-.51-.254-.691Zm-4.36 2.006c-.874.462-1.765.939-2.663 1.41l1.57-1.705c.652-.715 1.334-1.454 2-2.178l.015-.015c.056-.076.127-.147.202-.223.05-.052.108-.105.16-.167.347.244.7.491 1.038.734.244.176.493.353.747.529-1.026.532-2.05 1.07-3.068 1.615Zm-2.244-.228c-.672.738-1.368 1.495-2.058 2.244-1.34-1.649-2.684-3.294-4.031-4.937l-1.81-2.206-.003-.005c-.137-.156-.269-.328-.4-.49-.084-.11-.174-.214-.263-.324.545.142 1.095.276 1.635.404.474.115.968.234 1.451.358l8.18 2.015c-.907.983-1.819 1.978-2.701 2.94Zm-2.364 9.286c.052-.5.109-1.014.155-1.52l.127-1.215c.066-.634.137-1.29.194-1.934l.013-.114c.047-.411.093-.834.122-1.259a1.4 1.4 0 0 1 .17-.081c.07-.033.14-.061.21-.104a621.905 621.905 0 0 1 3.26-1.725c1.087-.572 2.2-1.164 3.304-1.75-1.002 1.472-2 2.947-2.993 4.424-.841 1.242-1.705 2.524-2.565 3.787-.338.505-.69 1.02-1.024 1.515-.376.553-.762 1.12-1.137 1.688.047-.573.103-1.15.164-1.712Zm-6.548-13.88c-.061-.172-.128-.348-.184-.514 1.269 1.553 2.546 3.116 3.791 4.63.644.787 1.288 1.569 1.931 2.36.127.147.254.305.376.457.16.195.32.4.493.596-.056.49-.103.986-.155 1.462-.033.334-.065.668-.103 1.007v.004c-.014.213-.043.429-.066.638l-.108.949-.005.032c-.084.963-.188 1.935-.287 2.879-.041.39-.079.79-.122 1.191-.023-.07-.05-.143-.075-.21-.071-.194-.14-.39-.206-.586l-.503-1.415-4.778-13.48"/></g></g><defs><clipPath id="a"><path fill="#fff" d="M0 0h42v42H0z"/></clipPath><clipPath id="d"><path fill="#fff" d="M4.732 4.732h32.535v32.535H4.732z"/></clipPath><linearGradient id="b" x1="21" x2="21" y1="0" y2="61.409" gradientUnits="userSpaceOnUse"><stop stop-color="#08021E"/><stop offset="1" stop-color="#1F0777"/></linearGradient></defs></svg>