<svg width="480" height="480" viewBox="0 0 480 480" fill="none" xmlns="http://www.w3.org/2000/svg"><mask id="mask0-702413" maskUnits="userSpaceOnUse" x="0" y="0" width="480" height="480"><circle cx="240" cy="240" r="240" fill="url(#paint0_linear-146694)"/></mask><g mask="url(#mask0-702413)"><circle cx="240" cy="240" r="240" fill="#31D8A4"/><circle cx="240" cy="240" r="208" fill="#fff"/></g><circle cx="240" cy="240" r="184" fill="#0E052F"/><path d="M241.053 187.825l23.914-29.252c29.963 1.633 57.867 8.777 83.279 20.445l-1.42-.589c-8.001 10.421-18.552 18.512-30.726 23.394l-.493.174c-1.411-13.911-11.15-17.304-42.069-17.304L241.063 368l-32.668-183.346c-30.726 0-40.466 3.423-41.886 17.324-12.657-5.017-23.199-13.07-31.074-23.288l-.125-.165c23.972-11.097 51.876-18.261 81.249-19.885l.59-.029 23.914 29.214h-.01zm0-37.701c1.034-.02 2.251-.02 3.469-.02 38.33 0 74.766 8.121 107.676 22.737l-1.691-.667c2.29-3.809 4.474-8.246 6.28-12.867l.213-.609c-34.311-14.143-74.119-22.456-115.85-22.698h-.097c-41.818.232-81.636 8.546-118.053 23.472l2.106-.764c2.165 5.365 4.339 9.812 6.793 14.095l-.3-.561c31.287-13.998 67.8-22.147 106.227-22.147 1.14 0 2.271.009 3.401.019h-.174v.01z" fill="#fff"/><defs><linearGradient id="paint0_linear-146694" x1="240" y1="0" x2="240" y2="701.818" gradientUnits="userSpaceOnUse"><stop stop-color="#08021E"/><stop offset="1" stop-color="#1F0777"/></linearGradient></defs></svg>