<svg width="42" height="42" fill="none" xmlns="http://www.w3.org/2000/svg">
  <g clip-path="url(#a)">
    <mask id="c" width="42" height="42" x="0" y="0" maskUnits="userSpaceOnUse" style="mask-type:alpha">
      <circle cx="21" cy="21" r="21" fill="url(#b)"/>
    </mask>
    <g mask="url(#c)">
      <circle cx="21" cy="21" r="21" fill="#34EDB3"/>
      <circle cx="21" cy="21" r="18.2" fill="#fff"/>
    </g>
    <circle cx="21" cy="21" r="16.1" fill="#06061B"/>
    <circle cx="21" cy="21" r="16.1" fill="#06061B"/>
    <path fill="#fff" d="m21.092 16.435 2.093-2.56c2.621.143 5.063.768 7.287 1.79l-.125-.052a6.4 6.4 0 0 1-2.688 2.047l-.043.015c-.124-1.217-.976-1.514-3.681-1.514L21.093 32.2l-2.858-16.043c-2.689 0-3.541.3-3.665 1.516a6.37 6.37 0 0 1-2.72-2.038l-.01-.014c2.097-.971 4.539-1.598 7.109-1.74l.052-.002zm0-3.3h.304c3.354 0 6.542.71 9.421 1.989l-.148-.059c.2-.333.392-.721.55-1.126l.019-.053C28.235 12.65 24.752 11.921 21.1 11.9h-.009a27.6 27.6 0 0 0-10.33 2.054l.185-.067c.19.47.38.858.594 1.233l-.026-.049c2.738-1.225 5.933-1.938 9.295-1.938l.297.002z"/>
  </g>
  <defs>
    <linearGradient id="b" x1="21" x2="21" y1="0" y2="61.409" gradientUnits="userSpaceOnUse">
      <stop stop-color="#08021E"/>
      <stop offset="1" stop-color="#1F0777"/>
    </linearGradient>
    <clipPath id="a">
      <path fill="#fff" d="M0 0h42v42H0z"/>
    </clipPath>
  </defs>
</svg>
