<svg xmlns:xlink="http://www.w3.org/1999/xlink" width="42" height="42" fill="none" xmlns="http://www.w3.org/2000/svg">
  <g clip-path="url(#a)">
    <mask id="c" width="42" height="42" x="0" y="0" maskUnits="userSpaceOnUse" style="mask-type:alpha">
      <circle cx="21" cy="21" r="21" fill="url(#b)" transform="matrix(-1 0 0 1 42 0)"/>
    </mask>
    <g mask="url(#c)">
      <circle cx="21" cy="21" r="21" fill="#34EDB3" transform="matrix(-1 0 0 1 42 0)"/>
      <circle cx="18.2" cy="18.2" r="18.2" fill="#fff" transform="matrix(-1 0 0 1 39.2 2.8)"/>
    </g>
    <circle cx="16.1" cy="16.1" r="16.1" fill="#0B0B22" transform="matrix(-1 0 0 1 37.1 4.9)"/>
    <circle cx="21" cy="21" r="16.1" fill="url(#d)"/>
    <mask id="e" width="30" height="30" x="6" y="6" maskUnits="userSpaceOnUse" style="mask-type:alpha">
      <circle cx="21" cy="21" r="14.49" fill="#fff"/>
    </mask>
    <g mask="url(#e)">
      <path fill="url(#f)" fill-opacity=".5" d="M56.251 10.806h60.321v33.917H56.251z" transform="rotate(135 56.25 10.806)"/>
      <circle cx="21" cy="21" r="14.49" fill="#fff" opacity=".5"/>
      <path fill="#FF007A" d="M17.63 13.028c-.25-.039-.26-.043-.143-.062.225-.034.756.013 1.123.1.855.203 1.633.724 2.463 1.649l.22.245.316-.05c1.33-.214 2.683-.044 3.814.479.312.143.802.43.864.503.02.024.055.174.08.335.083.558.041.985-.13 1.303-.092.174-.097.229-.035.377.05.119.189.207.326.206.281 0 .584-.454.724-1.087l.056-.251.11.125c.605.686 1.08 1.62 1.163 2.286l.02.174-.1-.158a1.95 1.95 0 0 0-.577-.605c-.406-.269-.836-.36-1.973-.42-1.027-.054-1.608-.142-2.184-.33-.981-.32-1.475-.745-2.64-2.274-.518-.678-.837-1.054-1.155-1.357-.723-.687-1.433-1.047-2.343-1.188z"/>
      <path fill="#FF007A" d="M26.518 14.543c.026-.454.088-.754.212-1.028.049-.109.095-.198.102-.198a.7.7 0 0 1-.047.178c-.09.266-.105.63-.043 1.053.078.537.123.614.69 1.194.267.272.577.616.689.763l.204.268-.204-.192c-.25-.234-.824-.69-.95-.756-.085-.043-.098-.043-.15.01-.049.048-.059.12-.066.462-.01.532-.083.874-.258 1.215-.095.185-.11.146-.024-.063.064-.156.07-.224.07-.74 0-1.035-.124-1.284-.845-1.71a8 8 0 0 0-.668-.347 2.5 2.5 0 0 1-.327-.16c.02-.02.723.185 1.006.294.421.162.49.183.542.164.034-.013.05-.113.067-.406zm-8.404 1.772c-.506-.698-.82-1.767-.752-2.567l.02-.247.116.021c.217.04.59.178.765.285.48.291.688.675.899 1.66.062.289.143.615.18.726.06.178.288.594.473.864.133.194.045.286-.25.26-.45-.041-1.058-.461-1.45-1.002zm7.79 5.192c-2.368-.954-3.202-1.781-3.202-3.178 0-.205.007-.373.015-.373s.1.068.204.15c.48.386 1.018.55 2.506.767.876.128 1.37.231 1.824.382 1.445.48 2.34 1.452 2.553 2.777.062.385.025 1.107-.075 1.488-.08.3-.322.842-.386.863-.017.005-.035-.063-.04-.156-.024-.497-.275-.982-.697-1.344-.48-.413-1.126-.741-2.702-1.376m-1.663.396a4 4 0 0 0-.114-.501l-.06-.18.112.126c.155.174.278.397.382.694.08.227.088.294.087.663 0 .362-.01.438-.083.642a2 2 0 0 1-.5.794c-.433.44-.989.685-1.791.786-.14.017-.546.047-.904.065-.9.047-1.494.144-2.026.331-.077.027-.145.043-.152.036-.022-.021.341-.237.64-.382.423-.203.844-.314 1.786-.471.465-.078.946-.172 1.068-.21 1.152-.352 1.745-1.264 1.555-2.393"/>
      <path fill="#FF007A" d="M25.327 23.83c-.315-.676-.387-1.329-.215-1.938.019-.065.048-.118.066-.118s.092.04.165.09c.145.097.436.261 1.21.683.967.527 1.518.936 1.893 1.402.328.408.531.873.63 1.44.055.322.022 1.095-.06 1.418-.26 1.02-.864 1.821-1.726 2.289a2 2 0 0 1-.252.125c-.012 0 .034-.117.103-.26.29-.606.323-1.196.103-1.852-.134-.401-.407-.891-.96-1.72-.642-.962-.8-1.219-.957-1.558zm-8.894 3.65c.878-.742 1.972-1.27 2.968-1.431.429-.07 1.144-.042 1.541.06.637.162 1.207.528 1.504.963.29.425.414.796.543 1.62.051.325.107.652.123.726.098.427.287.769.52.94.373.273 1.014.29 1.644.044a1 1 0 0 1 .207-.065c.023.023-.295.236-.519.348-.301.15-.54.208-.86.208-.577 0-1.056-.293-1.456-.892a7 7 0 0 1-.393-.785c-.422-.963-.63-1.256-1.121-1.578-.427-.279-.977-.329-1.391-.126-.544.267-.696.962-.306 1.402.155.175.443.326.68.355a.725.725 0 0 0 .82-.726c0-.29-.11-.455-.391-.582-.383-.172-.794.03-.792.389.001.153.068.25.221.319.099.044.101.048.02.031-.35-.072-.432-.496-.15-.776.339-.338 1.04-.189 1.28.271.101.194.113.579.025.811-.197.52-.773.795-1.356.646-.397-.102-.56-.212-1.038-.705-.832-.857-1.155-1.023-2.355-1.21l-.23-.036z"/>
      <path fill="#FF007A" fill-rule="evenodd" d="M12.5 11.638c2.78 3.373 4.721 5.263 4.934 5.557.175.243.11.461-.192.633a1.8 1.8 0 0 1-.683.191.88.88 0 0 1-.574-.245c-.113-.108-.569-.788-1.621-2.421-.806-1.25-1.48-2.287-1.498-2.304-.043-.04-.042-.039 1.415 2.569.915 1.637 1.224 2.216 1.224 2.293 0 .158-.043.24-.237.457-.324.362-.468.767-.573 1.607-.117.942-.446 1.607-1.36 2.746-.534.666-.621.788-.756 1.057-.17.338-.216.527-.235.955-.02.451.019.743.157 1.175.12.378.247.627.569 1.127.278.43.438.75.438.876 0 .1.02.1.45.002 1.032-.233 1.87-.643 2.34-1.145.292-.31.36-.482.363-.908 0-.278-.009-.337-.084-.497-.123-.26-.346-.477-.838-.814-.644-.44-.92-.795-.995-1.282-.063-.4.01-.683.366-1.43.37-.773.46-1.103.523-1.882.04-.504.095-.702.24-.862.15-.166.286-.222.66-.273.608-.084.996-.241 1.315-.535.276-.254.392-.5.41-.87l.013-.28-.154-.18c-.56-.652-5.991-5.83-6.026-5.83-.007 0 .177.231.41.513zm1.322 13.606a.495.495 0 0 0-.152-.653c-.2-.133-.51-.07-.51.103 0 .053.029.091.095.125.11.057.118.121.031.252-.088.133-.081.25.02.33.164.127.395.057.516-.157m4.833-6.277c-.286.087-.563.39-.65.708-.052.194-.022.534.057.639.127.17.25.214.582.211.65-.004 1.217-.283 1.282-.632.054-.286-.194-.683-.537-.857-.176-.09-.552-.125-.734-.07zm.761.595c.1-.143.057-.297-.114-.402-.325-.198-.817-.034-.817.273 0 .153.257.32.492.32.156 0 .37-.093.44-.192z" clip-rule="evenodd"/>
    </g>
  </g>
  <defs>
    <linearGradient id="b" x1="21" x2="21" y1="0" y2="61.409" gradientUnits="userSpaceOnUse">
      <stop stop-color="#08021E"/>
      <stop offset="1" stop-color="#1F0777"/>
    </linearGradient>
    <linearGradient id="d" x1="10.589" x2="32.592" y1="8.12" y2="33.665" gradientUnits="userSpaceOnUse">
      <stop stop-color="#F8EEF4"/>
      <stop offset="1" stop-color="#FBCCE2"/>
    </linearGradient>
    <clipPath id="a">
      <path fill="#fff" d="M0 0h42v42H0z"/>
    </clipPath>
    <pattern id="f" width="1" height="1" patternContentUnits="objectBoundingBox">
      <use xlink:href="#g" transform="scale(.00083 .00148)"/>
    </pattern>
  </defs>
</svg>
