<svg width="42" height="42" fill="none" xmlns="http://www.w3.org/2000/svg">
  <g clip-path="url(#a)">
    <mask id="c" width="43" height="42" x="0" y="0" maskUnits="userSpaceOnUse" style="mask-type:alpha">
      <ellipse cx="21.148" cy="21" fill="url(#b)" rx="21.148" ry="21"/>
    </mask>
    <g mask="url(#c)">
      <ellipse cx="21.148" cy="21" fill="#34EDB3" rx="21.148" ry="21"/>
      <ellipse cx="21.148" cy="21" fill="#fff" rx="18.328" ry="18.2"/>
    </g>
    <ellipse cx="21.148" cy="21" fill="#06061B" rx="16.213" ry="16.1"/>
    <g clip-path="url(#d)">
      <path fill="#000" fill-rule="evenodd" d="M5.707 21.383c0-8.68 7.086-15.716 15.827-15.716s15.827 7.036 15.827 15.716S30.275 37.1 21.534 37.1 5.707 30.063 5.707 21.384z" clip-rule="evenodd"/>
      <path fill="#fff" d="M18.876 7.494C12.303 8.68 7.32 14.394 7.32 21.262c0 6.87 4.984 12.583 11.557 13.77v-2.79c-5.043-1.143-8.806-5.625-8.806-10.98 0-5.354 3.763-9.836 8.806-10.98V7.494Zm5.095 2.794v-2.79c6.562 1.195 11.534 6.903 11.534 13.764 0 6.862-4.972 12.57-11.534 13.765v-2.79c5.032-1.152 8.783-5.628 8.783-10.975s-3.751-9.822-8.783-10.974"/>
      <path fill="#fff" d="M23.393 20.925q1.503.292 2.331 1.125.828.813.828 2.083v1.334q0 1.52-1.078 2.458-1.08.917-2.832.917h-.405v2.125H20.85v-2.125h-.424q-1.155 0-2.042-.521a3.76 3.76 0 0 1-1.387-1.5q-.482-.98-.482-2.25h1.388q0 1.29.693 2.104.712.792 1.869.792h2.138q1.137 0 1.83-.542a1.79 1.79 0 0 0 .694-1.458v-1.334q0-.708-.52-1.208-.502-.5-1.387-.646l-3.468-.625q-1.464-.27-2.273-1.125t-.81-2.146v-1.125q0-1.521 1.04-2.416 1.06-.917 2.794-.917h.347V11.8h1.387v2.125h.443q1.638 0 2.64 1.083 1 1.063 1.001 2.813h-1.387q0-1.146-.616-1.834-.617-.687-1.638-.687h-2.177q-1.098 0-1.753.542-.654.521-.655 1.416v1.125q0 .729.482 1.23.501.5 1.368.666z"/>
    </g>
  </g>
  <defs>
    <clipPath id="a">
      <path fill="#fff" d="M0 0h42v42H0z"/>
    </clipPath>
    <clipPath id="d">
      <path fill="#fff" d="M4.935 4.9h32.427v32.2H4.935z"/>
    </clipPath>
    <linearGradient id="b" x1="21.148" x2="21.148" y1="0" y2="61.409" gradientUnits="userSpaceOnUse">
      <stop stop-color="#08021E"/>
      <stop offset="1" stop-color="#1F0777"/>
    </linearGradient>
  </defs>
</svg>
