<svg width="480" height="480" viewBox="0 0 480 480" fill="none" xmlns="http://www.w3.org/2000/svg">
<circle cx="240" cy="240" r="240" fill="url(#paint0_linear)"/>
<mask id="mask0" mask-type="alpha" maskUnits="userSpaceOnUse" x="0" y="0" width="480" height="480">
<circle cx="240" cy="240" r="240" fill="url(#paint1_linear)"/>
</mask>
<g mask="url(#mask0)">
<path fill-rule="evenodd" clip-rule="evenodd" d="M123.924 146.839L138.76 165H173.312L196.192 137.076L174.636 110.748C156.805 90.694 136.027 81 112.011 81H12V138.71H106.428C113.355 138.71 119.293 141.538 123.848 146.752L123.924 146.839ZM179.963 106.205L205.24 137.078L176.626 172H135.439L118.576 151.357C115.289 147.595 111.243 145.71 106.428 145.71H7.95094C7.07626 145.71 6.36061 145.433 5.82167 144.879C5.27389 144.334 5 143.717 5 143.056V76.6539C5 75.9927 5.27389 75.385 5.82167 74.831C6.36061 74.277 7.07626 74 7.95094 74H112.011C138.27 74 160.923 84.7408 179.963 106.205ZM123.852 332.909L123.701 333.071C119.042 338.081 113.205 340.951 106.428 340.951H12.3269V399H111.685C135.94 399 156.82 389.299 174.636 369.252L219.1 315H138.518L123.852 332.909ZM135.203 308H233.888L179.963 373.795C160.923 395.268 138.164 406 111.685 406H7.95094C7.07626 406 6.41363 405.723 5.9807 405.169C5.53894 404.615 5.3269 403.9 5.3269 403.007V336.605C5.3269 335.943 5.53894 335.336 5.9807 334.782C6.41363 334.228 7.07626 333.951 7.95094 333.951H106.428C111.022 333.951 115.068 332.074 118.576 328.303L135.203 308ZM362.153 328.643C365.439 332.19 369.371 333.96 373.974 333.96H472.451C473.325 333.96 473.979 334.237 474.421 334.791C474.854 335.345 475.075 336.069 475.075 336.944V403.346C475.075 404.007 474.854 404.624 474.421 405.169C473.979 405.723 473.325 406 472.451 406H368.717C342.238 406 319.585 395.268 300.766 373.795L246.848 308H345.245L362.153 328.643ZM341.93 315H261.635L306.106 369.268C323.696 389.299 344.46 399 368.717 399H468.075V340.96H373.974C367.312 340.96 361.552 338.295 357.018 333.4L356.872 333.244L341.93 315ZM361.826 151.357C365.112 147.595 369.159 145.71 373.974 145.71H472.451C473.325 145.71 473.979 145.433 474.421 144.879C474.854 144.334 475.075 143.717 475.075 143.056V76.6539C475.075 75.7693 474.854 75.108 474.421 74.6612C473.979 74.2234 473.325 74 472.451 74H368.717C342.238 74 319.479 84.6246 300.439 105.874L246.427 172H344.868L361.826 151.357ZM341.559 165L356.484 146.832L356.554 146.752C361.109 141.538 367.047 138.71 373.974 138.71H468.075V81H368.717C344.443 81 323.562 90.6107 305.758 110.428L261.183 165H341.559Z" fill="#00D1FF"/>
</g>
<path d="M122.407 241.44C122.407 246.624 123.783 250.656 126.535 253.536C129.351 256.416 133.479 257.856 138.919 257.856C144.039 257.856 148.039 256.384 150.919 253.44C153.863 250.496 155.335 246.496 155.335 241.44V206.304H179.911V244.416C179.911 251.008 178.311 256.736 175.111 261.6C171.975 266.464 167.335 270.208 161.191 272.832C155.047 275.456 147.623 276.768 138.919 276.768C130.215 276.768 122.791 275.456 116.647 272.832C110.503 270.144 105.831 266.336 102.631 261.408C99.4311 256.48 97.8311 250.72 97.8311 244.128V206.304H122.407V241.44Z" fill="white"/>
<path d="M237.349 276.768C228.517 276.768 220.101 275.456 212.101 272.832C204.165 270.144 198.085 266.784 193.861 262.752L209.701 248.928C213.285 252.128 217.637 254.784 222.757 256.896C227.877 258.944 233.221 259.968 238.789 259.968C248.773 259.968 253.765 258.144 253.765 254.496C253.765 253.216 253.221 252.288 252.133 251.712C251.109 251.072 249.157 250.592 246.277 250.272L225.925 247.872C217.157 246.784 210.661 244.544 206.437 241.152C202.277 237.696 200.197 232.704 200.197 226.176C200.197 221.568 201.669 217.6 204.613 214.272C207.621 210.944 211.973 208.416 217.669 206.688C223.365 204.896 230.213 204 238.213 204C245.957 204 253.221 204.864 260.005 206.592C266.789 208.256 272.709 210.848 277.765 214.368L264.229 228.768C261.349 226.272 257.445 224.256 252.517 222.72C247.589 221.184 242.373 220.416 236.869 220.416C232.773 220.416 229.669 220.832 227.557 221.664C225.445 222.432 224.389 223.584 224.389 225.12C224.389 226.464 224.997 227.456 226.213 228.096C227.493 228.736 229.829 229.248 233.221 229.632L250.789 231.36C257.445 232.064 262.757 233.216 266.725 234.816C270.757 236.352 273.701 238.528 275.557 241.344C277.413 244.16 278.341 247.744 278.341 252.096C278.341 259.968 274.725 266.048 267.493 270.336C260.325 274.624 250.277 276.768 237.349 276.768Z" fill="white"/>
<path d="M345.53 206.304C354.042 206.304 361.338 207.584 367.418 210.144C373.562 212.704 378.266 216.448 381.53 221.376C384.794 226.304 386.426 232.256 386.426 239.232C386.426 246.144 384.698 252.256 381.242 257.568C377.786 262.88 372.922 267.04 366.65 270.048C360.378 272.992 353.146 274.464 344.954 274.464H299.738V206.304H345.53ZM340.922 258.528C347.002 258.528 351.77 256.832 355.226 253.44C358.746 250.048 360.506 245.472 360.506 239.712C360.506 234.208 358.778 229.92 355.322 226.848C351.866 223.712 347.258 222.144 341.498 222.144H324.314V258.528H340.922Z" fill="white"/>
<defs>
<linearGradient id="paint0_linear" x1="240" y1="0" x2="240" y2="701.818" gradientUnits="userSpaceOnUse">
<stop stop-color="#08021E"/>
<stop offset="1" stop-color="#1F0777"/>
</linearGradient>
<linearGradient id="paint1_linear" x1="240" y1="0" x2="240" y2="701.818" gradientUnits="userSpaceOnUse">
<stop stop-color="#08021E"/>
<stop offset="1" stop-color="#1F0777"/>
</linearGradient>
</defs>
</svg>
