<svg width="42" height="42" fill="none" xmlns="http://www.w3.org/2000/svg"><g clip-path="url(#a)"><mask id="c" style="mask-type:alpha" maskUnits="userSpaceOnUse" x="0" y="0" width="43" height="42"><ellipse cx="21.148" cy="21" rx="21.148" ry="21" fill="url(#b)"/></mask><g mask="url(#c)"><ellipse cx="21.148" cy="21" rx="21.148" ry="21" fill="#34EDB3"/><ellipse cx="21.148" cy="21" rx="18.328" ry="18.2" fill="#fff"/></g><ellipse cx="21.148" cy="21" rx="16.213" ry="16.1" fill="#06061B"/><g clip-path="url(#d)"><path fill-rule="evenodd" clip-rule="evenodd" d="M5.707 21.383c0-8.68 7.086-15.716 15.827-15.716s15.827 7.036 15.827 15.716S30.275 37.1 21.534 37.1 5.707 30.063 5.707 21.384v-.001Z" fill="#000"/><path d="M18.876 7.494C12.303 8.68 7.32 14.394 7.32 21.262c0 6.87 4.984 12.583 11.557 13.77v-2.79c-5.043-1.143-8.806-5.625-8.806-10.98 0-5.354 3.763-9.836 8.806-10.98V7.494ZM23.971 10.288v-2.79c6.562 1.195 11.534 6.903 11.534 13.764 0 6.862-4.972 12.57-11.534 13.765v-2.79c5.032-1.152 8.783-5.628 8.783-10.975 0-5.346-3.751-9.822-8.783-10.974Z" fill="#fff"/><path d="M23.393 20.925c1.002.194 1.779.57 2.331 1.125.552.542.828 1.236.828 2.083v1.334c0 1.014-.36 1.833-1.078 2.458-.72.611-1.664.917-2.832.917h-.405v2.125H20.85v-2.125h-.424c-.77 0-1.451-.174-2.042-.521a3.759 3.759 0 0 1-1.387-1.5c-.321-.653-.482-1.403-.482-2.25h1.388c0 .86.23 1.562.693 2.104.475.528 1.098.792 1.869.792h2.138c.758 0 1.368-.18 1.83-.542a1.79 1.79 0 0 0 .694-1.458v-1.334c0-.472-.174-.875-.52-1.208-.334-.333-.797-.549-1.387-.646l-3.468-.625c-.976-.18-1.734-.555-2.273-1.125-.54-.57-.81-1.285-.81-2.146v-1.125c0-1.014.347-1.82 1.04-2.416.707-.612 1.638-.917 2.794-.917h.347V11.8h1.387v2.125h.443c1.092 0 1.972.361 2.64 1.083.667.709 1.001 1.646 1.001 2.813h-1.387c0-.764-.205-1.375-.616-1.834-.411-.458-.957-.687-1.638-.687h-2.177c-.732 0-1.316.18-1.753.542-.436.347-.655.82-.655 1.416v1.125c0 .486.16.896.482 1.23.334.333.79.555 1.368.666l3.448.646Z" fill="#fff"/></g></g><defs><clipPath id="a"><path fill="#fff" d="M0 0h42v42H0z"/></clipPath><clipPath id="d"><path fill="#fff" transform="translate(4.935 4.9)" d="M0 0h32.427v32.2H0z"/></clipPath><linearGradient id="b" x1="21.148" y1="0" x2="21.148" y2="61.409" gradientUnits="userSpaceOnUse"><stop stop-color="#08021E"/><stop offset="1" stop-color="#1F0777"/></linearGradient></defs></svg>