<svg width="480" height="480" viewBox="0 0 480 480" fill="none" xmlns="http://www.w3.org/2000/svg"><mask id="mask0-890804" maskUnits="userSpaceOnUse" x="0" y="0" width="480" height="480"><circle cx="240" cy="240" r="240" fill="url(#paint0_linear-136939)"/></mask><g mask="url(#mask0-890804)"><circle cx="240" cy="240" r="240" fill="#31D8A4"/><circle cx="240" cy="240" r="208" fill="#fff"/></g><circle cx="240" cy="240" r="184" fill="#0E052F"/><circle cx="240" cy="240" r="184" fill="#0E052F"/><circle cx="196.565" cy="180.469" r="53.265" transform="rotate(28.842 196.565 180.469)" fill="#DFDFDF"/><path stroke="#C4C4C4" stroke-width="5" d="M223.385 134.432l-51.39 93.314m63.055-84.08l-73.79 76.835m81.967-65.569l-91.162 55.119m96.144-42.12l-102.321 29.645m103.769-15.801l-106.508 2.153m104.323 11.594l-103.435-25.487m6.864-17.568l93.315 51.39m-84.549-62.203l76.834 73.79m-64.307-82.628l52.663 92.602m-40.926-96.922l29.646 102.321m-15.181-103.749l.913 106.526m12.214-104.361l-25.486 103.436"/><circle cx="196.235" cy="180.565" r="41.279" transform="rotate(28.842 196.235 180.565)" fill="url(#paint1_linear-137112)" stroke="#A9A9A9" stroke-width="5"/><circle cx="311.565" cy="221.469" r="53.265" transform="rotate(28.842 311.565 221.469)" fill="#DFDFDF"/><path stroke="#C4C4C4" stroke-width="5" d="M338.385 175.432l-51.39 93.314m63.055-84.08l-73.79 76.835m81.967-65.569l-91.162 55.119m96.144-42.12l-102.321 29.645m103.769-15.801l-106.508 2.153m104.323 11.594l-103.435-25.487m6.864-17.568l93.315 51.39m-84.549-62.203l76.834 73.79m-64.307-82.628l52.663 92.602m-40.926-96.922l29.646 102.321m-15.181-103.749l.913 106.526m12.214-104.361l-25.486 103.436"/><circle cx="311.235" cy="221.565" r="41.279" transform="rotate(28.842 311.235 221.565)" fill="url(#paint2_linear-127116)" stroke="#A9A9A9" stroke-width="5"/><circle cx="217.565" cy="300.469" r="53.265" transform="rotate(28.842 217.565 300.469)" fill="#DFDFDF"/><path stroke="#C4C4C4" stroke-width="5" d="M244.385 254.432l-51.39 93.314m63.055-84.08l-73.79 76.835m81.967-65.569l-91.162 55.119m96.144-42.12l-102.321 29.645m103.769-15.801l-106.508 2.153m104.323 11.594l-103.435-25.487m6.864-17.568l93.315 51.39m-84.549-62.203l76.834 73.79m-64.307-82.628l52.663 92.602m-40.926-96.922l29.646 102.321m-15.181-103.749l.913 106.526m12.214-104.361l-25.486 103.436"/><circle cx="217.235" cy="300.565" r="41.279" transform="rotate(28.842 217.235 300.565)" fill="url(#paint3_linear-874081)" stroke="#A9A9A9" stroke-width="5"/><defs><linearGradient id="paint0_linear-136939" x1="240" y1="0" x2="240" y2="701.818" gradientUnits="userSpaceOnUse"><stop stop-color="#08021E"/><stop offset="1" stop-color="#1F0777"/></linearGradient><linearGradient id="paint1_linear-137112" x1="151.915" y1="154.735" x2="224.792" y2="225.824" gradientUnits="userSpaceOnUse"><stop stop-color="#888"/><stop offset="1" stop-color="#FEFEFE"/></linearGradient><linearGradient id="paint2_linear-127116" x1="266.915" y1="195.735" x2="339.792" y2="266.824" gradientUnits="userSpaceOnUse"><stop stop-color="#888"/><stop offset="1" stop-color="#FEFEFE"/></linearGradient><linearGradient id="paint3_linear-874081" x1="172.915" y1="274.735" x2="245.792" y2="345.824" gradientUnits="userSpaceOnUse"><stop stop-color="#888"/><stop offset="1" stop-color="#FEFEFE"/></linearGradient></defs></svg>