<svg width="300" height="300" viewBox="0 0 300 300" fill="none" xmlns="http://www.w3.org/2000/svg"><path d="M150 300c82.843 0 150-67.157 150-150S232.843 0 150 0 0 67.157 0 150s67.157 150 150 150z" fill="#F4C14D"/><path d="M199.58 198.173L179 211.253v-10.92l13.2-8.28-13.2-8.46v-9.84l20.58 13.08 21.42-13.74v10.98l-14.1 8.94 14.1 9.12v9.78l-21.42-13.74zM221 171.967l-42-15.36v-10.8l42-15.24v9.66l-9.18 3.24v15.96l9.18 3.24v9.3zm-16.44-14.94v-11.1l-15.96 5.58 15.96 5.52zM200 130.209c-4.28 0-8.02-.84-11.22-2.52-3.24-1.68-5.74-4.08-7.5-7.2-1.76-3.16-2.64-6.86-2.64-11.1 0-3.32.64-6.3 1.92-8.94 1.28-2.64 3.08-4.76 5.4-6.36 2.32-1.64 4.98-2.64 7.98-3v8.88c-2.36.56-4.22 1.68-5.58 3.36-1.4 1.68-2.1 3.78-2.1 6.3 0 2.32.58 4.34 1.74 6.06 1.16 1.72 2.78 3.04 4.86 3.96 2.08.92 4.46 1.38 7.14 1.38 4.12 0 7.44-1 9.96-3 2.52-2.04 3.78-4.84 3.78-8.4 0-2.6-.7-4.9-2.1-6.9-1.44-2-3.54-3.2-6.3-3.6h-.54v10.44h-7.14v-18.78H221v6.24l-5.22.96c1.64 1.24 2.98 2.9 4.02 4.98 1.04 2.08 1.56 4.5 1.56 7.26 0 3.96-.88 7.46-2.64 10.5-1.76 3-4.26 5.34-7.5 7.02-3.24 1.64-6.98 2.46-11.22 2.46z" fill="#1E1A31"/><path opacity=".5" fill-rule="evenodd" clip-rule="evenodd" d="M81.424 208.528l-12.483-8.906 78.516-109.094 12.484 8.906-78.517 109.094z" fill="#1E1A31"/><path fill-rule="evenodd" clip-rule="evenodd" d="M121.868 142.349h4.191c19.298 0 34.941 15.592 34.941 34.826C161 196.408 145.357 212 126.059 212H74.676c-4.24 0-7.676-3.425-7.676-7.651 0-4.225 3.437-7.65 7.676-7.65h51.383c10.819 0 19.589-8.741 19.589-19.524 0-10.783-8.77-19.524-19.589-19.524h-24.118C82.643 157.651 67 142.059 67 122.825 67 103.592 82.643 88 101.941 88h51.383c4.239 0 7.676 3.425 7.676 7.65 0 4.226-3.437 7.651-7.676 7.651h-51.383c-10.82 0-19.59 8.741-19.59 19.524 0 10.783 8.77 19.524 19.59 19.524h19.927z" fill="#1E1A31"/></svg>