<svg xmlns="http://www.w3.org/2000/svg" width="42" height="42" fill="none"><g clip-path="url(#a)"><mask id="c" width="42" height="42" x="0" y="0" maskUnits="userSpaceOnUse" style="mask-type:alpha"><circle cx="21" cy="21" r="21" fill="url(#b)"/></mask><g mask="url(#c)"><circle cx="21" cy="21" r="21" fill="#34EDB3"/><circle cx="21" cy="21" r="18.2" fill="#fff"/></g><circle cx="21" cy="21" r="16.1" fill="#06061B"/><path fill="#06061B" d="M21 37.1c8.892 0 16.1-7.208 16.1-16.1 0-8.892-7.208-16.1-16.1-16.1-8.892 0-16.1 7.208-16.1 16.1 0 8.892 7.208 16.1 16.1 16.1Z"/><g opacity=".4" style="mix-blend-mode:multiply"><path fill="#B1BFBF" d="m9.406 18.908-1.071 3.64L14.8 26.4l-.3-4.667-5.095-2.826Z" opacity=".4" style="mix-blend-mode:multiply"/><path fill="#B1BFBF" d="m20.11 12.785 4.967 2.869-10.576 6.08-5.095-2.826 10.704-6.123ZM26.361 19.55l-1.284-3.896-10.576 6.08.3 4.667 11.56-6.85Z" opacity=".4" style="mix-blend-mode:multiply"/><path fill="#B1BFBF" d="M12.886 16.917v3.922l.89.493h.305v-5.098l-1.194.683ZM22.263 17.272l.712-.41V14.44l-.712-.411v3.243ZM14.888 21.512l1.426-.82v-5.735l-1.426.815v5.74Z" opacity=".4" style="mix-blend-mode:multiply"/><path stroke="#B1BFBF" stroke-linecap="round" stroke-miterlimit="10" stroke-width=".25" d="m14.8 26.401-.299-4.667-5.095-2.826" opacity=".4" style="mix-blend-mode:multiply"/><path fill="#B1BFBF" d="M14.479 21.774c-1.115-.645-4.014-2.249-5.073-2.865 1.07.564 3.992 2.19 5.116 2.787a.045.045 0 0 1 .018.06.045.045 0 0 1-.061.018Z" opacity=".4" style="mix-blend-mode:multiply"/><path fill="#B1BFBF" d="M25.077 15.654c-.004-.026-10.672 6.253-10.526 6.077l.25 4.67-.35-4.663v-.032c.02-.015 10.605-6.035 10.628-6.052h-.002Z" opacity=".4" style="mix-blend-mode:multiply"/></g><path fill="#B1BFBF" d="m9.406 18.468-1.071 3.64L14.8 25.96l-.3-4.667-5.095-2.825Z"/><path fill="#CAD8D9" d="m20.11 12.345 4.967 2.869-10.576 6.08-5.095-2.826 10.704-6.123Z"/><path fill="#C4D3D6" d="m26.361 19.11-1.284-3.896-10.576 6.08.3 4.666 11.56-6.85Z"/><path fill="#E3ECE9" d="M12.886 16.476v3.922l.89.493h.305v-5.098l-1.194.683ZM22.263 16.831l.712-.41V14l-.712-.412v3.243ZM14.888 21.07l1.426-.819v-5.735l-1.426.815v5.74Z"/><path stroke="#fff" stroke-linecap="round" stroke-miterlimit="10" stroke-width=".25" d="m14.8 25.96-.299-4.667-5.095-2.825"/><path fill="#fff" d="M14.479 21.333c-1.115-.645-4.014-2.248-5.073-2.865 1.07.564 3.992 2.19 5.116 2.787a.045.045 0 0 1-.043.079v-.001Z"/><path fill="#fff" d="M25.077 15.214c-.004-.027-10.672 6.252-10.526 6.076l.25 4.67-.35-4.663v-.032c.02-.015 10.605-6.035 10.628-6.051h-.002Z"/><g opacity=".4" style="mix-blend-mode:multiply"><path fill="#B1BFBF" d="m16.672 23.488-1.07 3.64 6.465 3.853-.3-4.667-5.095-2.826ZM27.376 17.365l4.967 2.868-10.576 6.08-5.095-2.825 10.704-6.123ZM33.628 24.13l-1.285-3.897-10.576 6.08.3 4.668 11.56-6.851Z" opacity=".4" style="mix-blend-mode:multiply"/><path fill="#B1BFBF" d="M20.153 21.497v3.921l.889.493h.305v-5.097l-1.194.683ZM29.53 21.852l.712-.41V19.02l-.713-.412v3.244ZM22.155 26.091l1.425-.82v-5.735l-1.425.816v5.74Z" opacity=".4" style="mix-blend-mode:multiply"/><path stroke="#B1BFBF" stroke-linecap="round" stroke-miterlimit="10" stroke-width=".25" d="m22.067 30.98-.3-4.666-5.095-2.826" opacity=".4" style="mix-blend-mode:multiply"/><path fill="#B1BFBF" d="M21.746 26.353c-1.115-.645-4.015-2.248-5.074-2.864 1.07.564 3.993 2.19 5.117 2.786a.045.045 0 0 1 .013.059.045.045 0 0 1-.056.02Z" opacity=".4" style="mix-blend-mode:multiply"/><path fill="#B1BFBF" d="M32.343 20.233c-.004-.026-10.672 6.253-10.526 6.078l.25 4.67-.35-4.664v-.031c.02-.016 10.605-6.036 10.628-6.053h-.002Z" opacity=".4" style="mix-blend-mode:multiply"/></g><path fill="#B1BFBF" d="m16.672 23.047-1.07 3.64 6.465 3.853-.3-4.667-5.095-2.826Z"/><path fill="#CAD8D9" d="m27.376 16.924 4.967 2.869-10.576 6.08-5.095-2.826 10.704-6.123Z"/><path fill="#C4D3D6" d="m33.628 23.69-1.285-3.897-10.576 6.08.3 4.667 11.56-6.85Z"/><path fill="#E3ECE9" d="M20.153 21.056v3.922l.889.492h.305v-5.097l-1.194.683ZM29.53 21.41l.712-.409v-2.422l-.713-.412v3.244ZM22.155 25.65l1.425-.82v-5.735l-1.425.816v5.74Z"/><path stroke="#fff" stroke-linecap="round" stroke-miterlimit="10" stroke-width=".25" d="m22.067 30.54-.3-4.667-5.095-2.826"/><path fill="#fff" d="M21.746 25.913c-1.115-.645-4.015-2.249-5.074-2.865 1.07.564 3.993 2.19 5.117 2.786a.046.046 0 0 1-.043.08v-.001Z"/><path fill="#fff" d="M32.343 19.793c-.004-.027-10.672 6.252-10.526 6.077l.25 4.67-.35-4.664v-.03c.02-.016 10.605-6.036 10.628-6.053h-.002Z"/><g opacity=".4" style="mix-blend-mode:multiply"><path fill="#B1BFBF" d="m13.205 17.69-1.07 3.64 6.465 3.853-.3-4.668-5.095-2.825Z" opacity=".4" style="mix-blend-mode:multiply"/><path fill="#B1BFBF" d="m23.91 11.566 4.967 2.87-10.576 6.08-5.096-2.826 10.705-6.124Z" opacity=".4" style="mix-blend-mode:multiply"/><path fill="#B1BFBF" d="m30.162 18.332-1.285-3.897-10.576 6.08.3 4.668 11.56-6.851ZM16.686 15.698v3.922l.889.493h.306v-5.098l-1.195.683Z" opacity=".4" style="mix-blend-mode:multiply"/><path fill="#B1BFBF" d="m26.063 16.053.712-.41v-2.421l-.712-.412v3.243ZM18.689 20.293l1.425-.82v-5.736l-1.425.816v5.74Z" opacity=".4" style="mix-blend-mode:multiply"/><path stroke="#B1BFBF" stroke-linecap="round" stroke-miterlimit="10" stroke-width=".25" d="m18.6 25.183-.3-4.668-5.095-2.825" opacity=".4" style="mix-blend-mode:multiply"/><path fill="#B1BFBF" d="M18.278 20.555c-1.115-.646-4.014-2.248-5.073-2.865 1.07.564 3.992 2.19 5.117 2.787a.045.045 0 0 1 .014.06.045.045 0 0 1-.058.019v-.001Z" opacity=".4" style="mix-blend-mode:multiply"/><path fill="#B1BFBF" d="M28.877 14.435c-.004-.026-10.672 6.252-10.526 6.077l.25 4.67-.35-4.664v-.03c.02-.016 10.606-6.037 10.63-6.053h-.004Z" opacity=".4" style="mix-blend-mode:multiply"/></g><path fill="#B1BFBF" d="m13.205 17.249-1.07 3.64 6.465 3.853-.3-4.667-5.095-2.826Z"/><path fill="#CAD8D9" d="m23.91 11.125 4.967 2.87-10.576 6.08-5.096-2.826 10.705-6.124Z"/><path fill="#C4D3D6" d="m30.162 17.891-1.285-3.897-10.576 6.08.3 4.668 11.56-6.851Z"/><path fill="#E3ECE9" d="M16.686 15.258v3.921l.889.493h.306v-5.097l-1.195.683ZM26.063 15.613l.712-.41V12.78l-.712-.412v3.244ZM18.689 19.852l1.425-.82v-5.735l-1.425.816v5.74Z"/><path stroke="#fff" stroke-linecap="round" stroke-miterlimit="10" stroke-width=".25" d="m18.6 24.742-.3-4.667-5.095-2.826"/><path fill="#fff" d="M18.278 20.114c-1.115-.645-4.014-2.248-5.073-2.864 1.07.564 3.992 2.19 5.117 2.786a.045.045 0 0 1 .014.06.046.046 0 0 1-.058.02v-.002Z"/><path fill="#fff" d="M28.877 13.994c-.004-.026-10.672 6.253-10.526 6.078l.25 4.67-.35-4.664v-.031c.02-.016 10.606-6.037 10.63-6.053h-.004Z"/></g><defs><linearGradient id="b" x1="21" x2="21" y1="0" y2="61.409" gradientUnits="userSpaceOnUse"><stop stop-color="#08021E"/><stop offset="1" stop-color="#1F0777"/></linearGradient><clipPath id="a"><path fill="#fff" d="M0 0h42v42H0z"/></clipPath></defs></svg>