<svg width="480" height="480" viewBox="0 0 480 480" fill="none" xmlns="http://www.w3.org/2000/svg"><mask id="mask0-032441" maskUnits="userSpaceOnUse" x="0" y="0" width="480" height="480"><circle cx="240" cy="240" r="240" fill="url(#paint0_linear-024359)"/></mask><g mask="url(#mask0-032441)"><circle cx="240" cy="240" r="240" fill="#31D8A4"/><circle cx="240" cy="240" r="208" fill="#fff"/></g><circle cx="240" cy="240" r="184" fill="#0E052F"/><circle cx="240" cy="240" r="184" fill="#0E052F"/><path fill-rule="evenodd" clip-rule="evenodd" d="M218.311 130.263a10 10 0 019.618-7.263h32.048a10 10 0 019.695 7.547l13.253 52.389h-79.606l14.992-52.673zm51.547 59.785a10 10 0 00-9.618 7.262l-14.991 52.674h79.606l-13.254-52.389a10 10 0 00-9.694-7.547h-32.049zm-87.669.264a10 10 0 00-9.618 7.262l-14.991 52.673h79.606l-13.254-52.388a9.999 9.999 0 00-9.694-7.547h-32.049zm-42.58 65.643a10.001 10.001 0 00-9.618 7.263L115 315.891h79.606l-13.254-52.388a9.999 9.999 0 00-9.694-7.548h-32.049zm74.925 7.263a10.001 10.001 0 019.618-7.263h32.049a9.999 9.999 0 019.694 7.548l13.254 52.388h-79.606l14.991-52.673zm95.469-7.154a10 10 0 00-9.618 7.263L285.394 316H365l-13.254-52.388a10 10 0 00-9.694-7.548h-32.049z" fill="url(#paint1_linear-527252)"/><defs><linearGradient id="paint0_linear-024359" x1="240" y1="0" x2="240" y2="701.818" gradientUnits="userSpaceOnUse"><stop stop-color="#08021E"/><stop offset="1" stop-color="#1F0777"/></linearGradient><linearGradient id="paint1_linear-527252" x1="240" y1="123" x2="240" y2="316" gradientUnits="userSpaceOnUse"><stop stop-color="#F2DE82"/><stop offset="1" stop-color="#D1A866"/></linearGradient></defs></svg>