<svg xmlns="http://www.w3.org/2000/svg" width="42" height="42" fill="none"><g clip-path="url(#a)"><mask id="c" width="42" height="42" x="0" y="0" maskUnits="userSpaceOnUse" style="mask-type:alpha"><circle cx="21" cy="21" r="21" fill="url(#b)" transform="matrix(-1 0 0 1 42 0)"/></mask><g mask="url(#c)"><circle cx="21" cy="21" r="21" fill="#34EDB3" transform="matrix(-1 0 0 1 42 0)"/><circle cx="18.2" cy="18.2" r="18.2" fill="#fff" transform="matrix(-1 0 0 1 39.2 2.8)"/></g><circle cx="16.1" cy="16.1" r="16.1" fill="#0B0B22" transform="matrix(-1 0 0 1 37.1 4.9)"/><g clip-path="url(#d)"><path fill="#F60" d="M21.1 37.2c8.892 0 16.1-7.208 16.1-16.1C37.2 12.208 29.992 5 21.1 5 12.208 5 5 12.208 5 21.1c0 8.892 7.208 16.1 16.1 16.1z"/><path fill="#fff" d="M21.07 10.268c6.022 0 10.892 4.87 10.892 10.892a11.14 11.14 0 01-.561 3.453h-3.246v-9.15l-7.084 7.083-7.084-7.084v9.15h-3.248a11.139 11.139 0 01-.56-3.452c0-6.022 4.87-10.892 10.892-10.892h-.001zm-1.622 13.871l1.652 1.625 1.623-1.624 3.07-3.1v5.757h4.575a10.874 10.874 0 01-9.297 5.224c-3.927 0-7.38-2.095-9.298-5.224h4.574V21.04l3.1 3.099v-.001z"/></g></g><defs><clipPath id="a"><path fill="#fff" d="M0 0h42v42H0z"/></clipPath><clipPath id="d"><path fill="#fff" d="M5 5h32.2v32.2H5z"/></clipPath><linearGradient id="b" x1="21" x2="21" y1="0" y2="61.409" gradientUnits="userSpaceOnUse"><stop stop-color="#08021E"/><stop offset="1" stop-color="#1F0777"/></linearGradient></defs></svg>