<svg width="42" height="42" viewBox="0 0 42 42" fill="none" xmlns="http://www.w3.org/2000/svg">
<g clip-path="url(#clip0_7277_58006)">
<mask id="mask0_7277_58006" style="mask-type:alpha" maskUnits="userSpaceOnUse" x="0" y="0" width="43" height="42">
<ellipse cx="21.1479" cy="21" rx="21.1479" ry="21" fill="url(#paint0_linear_7277_58006)"/>
</mask>
<g mask="url(#mask0_7277_58006)">
<ellipse cx="21.1479" cy="21" rx="21.1479" ry="21" fill="#34EDB3"/>
<ellipse cx="21.1479" cy="21" rx="18.3282" ry="18.2" fill="white"/>
</g>
<ellipse cx="21.1479" cy="21" rx="16.2134" ry="16.1" fill="#06061B"/>
<ellipse cx="21.1479" cy="21" rx="16.2134" ry="16.1" fill="#F5F5FF"/>
<g clip-path="url(#clip1_7277_58006)">
<path d="M28.8346 12.042H31.9772L25.4372 18.485C23.0687 20.8171 19.2288 20.8171 16.8586 18.485L10.316 12.042H13.4612L18.43 16.9364C19.1539 17.6463 20.1295 18.0443 21.146 18.0443C22.1625 18.0443 23.1381 17.6463 23.862 16.9364L28.8346 12.042Z" fill="#23292F"/>
<path d="M13.4209 29.9581H10.2761L16.8586 23.4754C19.2271 21.1433 23.067 21.1433 25.4372 23.4754L32.0197 29.9581H28.8771L23.8659 25.024C23.1419 24.3141 22.1663 23.9161 21.1498 23.9161C20.1334 23.9161 19.1577 24.3141 18.4338 25.024L13.4209 29.9581Z" fill="#23292F"/>
</g>
</g>
<defs>
<linearGradient id="paint0_linear_7277_58006" x1="21.1479" y1="0" x2="21.1479" y2="61.4091" gradientUnits="userSpaceOnUse">
<stop stop-color="#08021E"/>
<stop offset="1" stop-color="#1F0777"/>
</linearGradient>
<clipPath id="clip0_7277_58006">
<rect width="42" height="42" fill="white"/>
</clipPath>
<clipPath id="clip1_7277_58006">
<rect width="21.7436" height="17.9161" fill="white" transform="translate(10.2761 12.042)"/>
</clipPath>
</defs>
</svg>
