<svg xmlns="http://www.w3.org/2000/svg" width="42" height="42" fill="none"><g clip-path="url(#a)"><mask id="c" width="43" height="42" x="0" y="0" maskUnits="userSpaceOnUse" style="mask-type:alpha"><ellipse cx="21.148" cy="21" fill="url(#b)" rx="21.148" ry="21"/></mask><g mask="url(#c)"><ellipse cx="21.148" cy="21" fill="#34EDB3" rx="21.148" ry="21"/><ellipse cx="21.148" cy="21" fill="#fff" rx="18.328" ry="18.2"/></g><ellipse cx="21.148" cy="21" fill="#06061B" rx="16.213" ry="16.1"/><ellipse cx="21.148" cy="21" fill="#F5F5FF" rx="16.213" ry="16.1"/><g fill="#23292F" clip-path="url(#d)"><path d="M28.835 12.042h3.142l-6.54 6.443c-2.368 2.332-6.208 2.332-8.578 0l-6.543-6.443h3.145l4.969 4.894a3.88 3.88 0 005.432 0l4.973-4.894zM13.42 29.958h-3.144l6.583-6.483c2.368-2.332 6.208-2.332 8.578 0l6.583 6.483h-3.143l-5.011-4.934a3.88 3.88 0 00-5.432 0l-5.013 4.934z"/></g></g><defs><clipPath id="a"><path fill="#fff" d="M0 0h42v42H0z"/></clipPath><clipPath id="d"><path fill="#fff" d="M10.276 12.042H32.02v17.916H10.276z"/></clipPath><linearGradient id="b" x1="21.148" x2="21.148" y1="0" y2="61.409" gradientUnits="userSpaceOnUse"><stop stop-color="#08021E"/><stop offset="1" stop-color="#1F0777"/></linearGradient></defs></svg>