<svg width="42" height="42" fill="none" xmlns="http://www.w3.org/2000/svg">
  <g clip-path="url(#a)">
    <mask id="c" width="42" height="42" x="0" y="0" maskUnits="userSpaceOnUse" style="mask-type:alpha">
      <circle cx="21" cy="21" r="21" fill="url(#b)"/>
    </mask>
    <g mask="url(#c)">
      <circle cx="21" cy="21" r="21" fill="#34EDB3"/>
      <circle cx="21" cy="21" r="18.2" fill="#fff"/>
    </g>
    <circle cx="21" cy="21" r="16.1" fill="#06061B"/>
    <g clip-path="url(#d)">
      <path fill="#A6E000" d="M21 37.268c8.984 0 16.268-7.284 16.268-16.268S29.984 4.732 21 4.732 4.732 12.016 4.732 21 12.016 37.268 21 37.268"/>
      <path fill="#fff" fill-rule="evenodd" d="M23.227 31.167q-2.228 0-3.246-1.047-1.017-1.05-1.017-2.26 0-.443.178-.745c.116-.2.283-.365.485-.478a1.5 1.5 0 0 1 .757-.175q.45 0 .758.175t.485.478q.179.301.178.745 0 .535-.26.873c-.152.21-.368.365-.616.442q.308.42.97.594.664.187 1.327.187a3 3 0 0 0 1.67-.489q.746-.49 1.1-1.443.356-.957.356-2.167 0-1.316-.39-2.248-.38-.944-1.126-1.398a3.04 3.04 0 0 0-1.61-.453q-.567 0-1.42.465l-1.043.513v-.513l4.69-6.149h-6.49v6.382q0 .793.356 1.304.355.513 1.088.513.569 0 1.09-.373c.349-.25.653-.557.9-.908a.35.35 0 0 1 .119-.153.24.24 0 0 1 .154-.057q.13 0 .308.127a.63.63 0 0 1 .165.431 3 3 0 0 1-.059.327q-.403.885-1.113 1.351a2.8 2.8 0 0 1-1.563.466q-2.108 0-2.913-.816-.805-.814-.805-2.212v-6.382h-3.315v-1.189h3.314v-2.7l-.756-.746v-.606h2.202l.829.419v3.633l8.572-.023.854.839-5.259 5.17c.319-.124.654-.203.994-.233q.854 0 1.919.537 1.078.523 1.657 1.444.582.909.747 1.747c.11.49.17.99.177 1.49a6.1 6.1 0 0 1-.639 2.772 4.1 4.1 0 0 1-1.942 1.91 6.4 6.4 0 0 1-2.817.63z" clip-rule="evenodd"/>
    </g>
  </g>
  <defs>
    <clipPath id="a">
      <path fill="#fff" d="M0 0h42v42H0z"/>
    </clipPath>
    <clipPath id="d">
      <path fill="#fff" d="M4.732 4.732h32.535v32.535H4.732z"/>
    </clipPath>
    <linearGradient id="b" x1="21" x2="21" y1="0" y2="61.409" gradientUnits="userSpaceOnUse">
      <stop stop-color="#08021E"/>
      <stop offset="1" stop-color="#1F0777"/>
    </linearGradient>
  </defs>
</svg>
