<svg xmlns="http://www.w3.org/2000/svg" width="42" height="42" fill="none"><g clip-path="url(#a)"><mask id="c" width="42" height="42" x="0" y="0" maskUnits="userSpaceOnUse" style="mask-type:alpha"><circle cx="21" cy="21" r="21" fill="url(#b)"/></mask><g mask="url(#c)"><circle cx="21" cy="21" r="21" fill="#34EDB3"/><circle cx="21" cy="21" r="18.2" fill="#fff"/></g><circle cx="21" cy="21" r="16.1" fill="#06061B"/><g clip-path="url(#d)"><path fill="#A6E000" d="M21 37.268c8.984 0 16.268-7.284 16.268-16.268 0-8.984-7.284-16.268-16.268-16.268-8.984 0-16.268 7.284-16.268 16.268 0 8.984 7.284 16.268 16.268 16.268z"/><path fill="#fff" fill-rule="evenodd" d="M23.227 31.167c-1.485 0-2.567-.35-3.246-1.047-.678-.7-1.017-1.453-1.017-2.26 0-.295.059-.544.178-.745.116-.2.283-.365.485-.478a1.52 1.52 0 01.757-.175c.3 0 .553.059.758.175.206.117.366.275.485.478.12.2.178.45.178.745 0 .357-.086.648-.26.873-.152.21-.368.365-.616.442.205.28.529.478.97.594.443.125.885.187 1.327.187a2.98 2.98 0 001.67-.489c.497-.326.864-.808 1.1-1.443.237-.638.356-1.36.356-2.167 0-.877-.13-1.627-.39-2.248-.253-.63-.629-1.095-1.126-1.398a3.04 3.04 0 00-1.61-.453c-.378 0-.852.154-1.42.465l-1.043.513v-.513l4.69-6.149h-6.49v6.382c0 .529.118.963.356 1.304.236.342.6.513 1.088.513.38 0 .742-.124 1.09-.373.349-.25.653-.557.9-.908a.347.347 0 01.119-.153.24.24 0 01.154-.057c.087 0 .189.043.308.127a.63.63 0 01.165.431 2.96 2.96 0 01-.059.327c-.268.59-.64 1.04-1.113 1.351a2.794 2.794 0 01-1.563.466c-1.405 0-2.376-.272-2.913-.816-.536-.543-.805-1.28-.805-2.212v-6.382h-3.315v-1.189h3.314v-2.7l-.756-.746v-.606h2.202l.829.419v3.633l8.572-.023.854.839-5.259 5.17c.319-.124.654-.203.994-.233.57 0 1.208.179 1.919.537.719.349 1.271.83 1.657 1.444.388.606.637 1.188.747 1.747.11.49.17.99.177 1.49a6.12 6.12 0 01-.639 2.772 4.104 4.104 0 01-1.942 1.91 6.396 6.396 0 01-2.817.63z" clip-rule="evenodd"/></g></g><defs><clipPath id="a"><path fill="#fff" d="M0 0h42v42H0z"/></clipPath><clipPath id="d"><path fill="#fff" d="M4.732 4.732h32.535v32.535H4.732z"/></clipPath><linearGradient id="b" x1="21" x2="21" y1="0" y2="61.409" gradientUnits="userSpaceOnUse"><stop stop-color="#08021E"/><stop offset="1" stop-color="#1F0777"/></linearGradient></defs></svg>