<svg width="42" height="42" fill="none" xmlns="http://www.w3.org/2000/svg">
  <g clip-path="url(#a)">
    <mask id="c" width="42" height="42" x="0" y="0" maskUnits="userSpaceOnUse" style="mask-type:alpha">
      <circle cx="21" cy="21" r="21" fill="url(#b)" transform="matrix(-1 0 0 1 42 0)"/>
    </mask>
    <g mask="url(#c)">
      <circle cx="21" cy="21" r="21" fill="#34EDB3" transform="matrix(-1 0 0 1 42 0)"/>
      <circle cx="18.2" cy="18.2" r="18.2" fill="#fff" transform="matrix(-1 0 0 1 39.2 2.8)"/>
    </g>
    <circle cx="16.1" cy="16.1" r="16.1" fill="#0B0B22" transform="matrix(-1 0 0 1 37.1 4.9)"/>
    <path fill="#006AE3" fill-rule="evenodd" d="M21.1 5c8.89 0 16.1 7.21 16.1 16.1s-7.21 16.1-16.1 16.1S5 29.99 5 21.1 12.21 5 21.1 5" clip-rule="evenodd"/>
    <path fill="#fff" d="m27.862 18.956-4.505 1.194-1.005-4.675 1.34-.303.528 2.215s1.217-1.996-.406-4.063c-.956-1.063-1.41-1.108-2.482-1.275-.944-.136-3.137.183-3.79 2.743-.277 1.649.035 2.869 2.16 4.466l-.119 1.778s-2.373-1.672-2.985-2.844c-.473-.927-1.284-2.76.18-5.31.79-1.275 2.345-2.498 5.085-2.37 1.378.059 4.743 1.743 4.221 5.677-.09.738-.473 1.72-.473 1.72l1.848-.412zM25.29 29.437c-.825 1.252-2.412 2.434-5.146 2.234-1.378-.093-4.695-1.867-4.07-5.786.11-.734.518-1.704.518-1.704l-1.858.361-.364-1.465 4.537-1.075.883 4.7-1.35.268-.47-2.231s-1.268 1.96.296 4.073c.928 1.088 1.379 1.143 2.45 1.34.938.16 3.14-.104 3.862-2.644.318-1.64.038-2.87-2.042-4.524l.168-1.775s2.328 1.733 2.907 2.921c.445.944 1.208 2.798-.322 5.307z"/>
  </g>
  <defs>
    <linearGradient id="b" x1="21" x2="21" y1="0" y2="61.409" gradientUnits="userSpaceOnUse">
      <stop stop-color="#08021E"/>
      <stop offset="1" stop-color="#1F0777"/>
    </linearGradient>
    <clipPath id="a">
      <path fill="#fff" d="M0 0h42v42H0z"/>
    </clipPath>
  </defs>
</svg>
