<svg width="480" height="480" viewBox="0 0 480 480" fill="none" xmlns="http://www.w3.org/2000/svg"><mask id="mask0-358211" maskUnits="userSpaceOnUse" x="0" y="0" width="480" height="480"><circle cx="240" cy="240" r="240" fill="url(#paint0_linear-907730)"/></mask><g mask="url(#mask0-358211)"><circle cx="240" cy="240" r="240" fill="#31D8A4"/><circle cx="240" cy="240" r="208" fill="#fff"/></g><circle cx="240" cy="240" r="184" fill="#0E052F"/><path d="M238.484 56.28c-101.043 0-183.226 82.29-183.226 183.464 0 101.175 82.183 183.465 183.226 183.465 101.042 0 183.226-82.29 183.226-183.465 0-101.174-82.184-183.465-183.226-183.465zm0 336.65c-84.378 0-152.987-68.697-152.987-153.186 0-84.488 68.609-153.186 152.987-153.186S391.47 155.256 391.47 239.744c0 84.489-68.608 153.186-152.986 153.186z" fill="#231F20"/><path d="M238.484 384.303c79.733 0 144.37-64.721 144.37-144.558 0-79.838-64.637-144.559-144.37-144.559s-144.37 64.721-144.37 144.559c0 79.837 64.637 144.558 144.37 144.558z" fill="#F4B728"/><path d="M173.127 296.802v28h49.993v30.686h30.727v-30.686h49.993v-37.035h-77.55l77.55-105.325v-28h-49.993v-30.605H223.12v30.605h-49.993v37.116h77.55l-77.55 105.244z" fill="#231F20"/><defs><linearGradient id="paint0_linear-907730" x1="240" y1="0" x2="240" y2="701.818" gradientUnits="userSpaceOnUse"><stop stop-color="#08021E"/><stop offset="1" stop-color="#1F0777"/></linearGradient></defs></svg>