<svg width="42" height="42" viewBox="0 0 42 42" fill="none" xmlns="http://www.w3.org/2000/svg">
<g clip-path="url(#clip0_7277_57862)">
<mask id="mask0_7277_57862" style="mask-type:alpha" maskUnits="userSpaceOnUse" x="0" y="0" width="42" height="42">
<circle cx="21" cy="21" r="21" transform="matrix(-1 0 0 1 42 0)" fill="url(#paint0_linear_7277_57862)"/>
</mask>
<g mask="url(#mask0_7277_57862)">
<circle cx="21" cy="21" r="21" transform="matrix(-1 0 0 1 42 0)" fill="#34EDB3"/>
<circle cx="18.2" cy="18.2" r="18.2" transform="matrix(-1 0 0 1 39.2 2.80005)" fill="white"/>
</g>
<circle cx="16.1" cy="16.1" r="16.1" transform="matrix(-1 0 0 1 37.1 4.90002)" fill="#0B0B22"/>
<g clip-path="url(#clip1_7277_57862)">
<ellipse cx="21.1323" cy="21.1" rx="16.0676" ry="16.1" fill="#06061B"/>
<path d="M21.0002 5.02441C12.1767 5.02441 5.00012 12.2248 5.00012 21.0776C5.00012 29.9304 12.1767 37.1308 21.0002 37.1308C29.8236 37.1308 37.0002 29.9304 37.0002 21.0776C37.0002 12.2248 29.8236 5.02441 21.0002 5.02441ZM21.0002 34.4814C13.6319 34.4814 7.64077 28.4703 7.64077 21.0776C7.64077 13.6849 13.6319 7.67383 21.0002 7.67383C28.3684 7.67383 34.3596 13.6849 34.3596 21.0776C34.3596 28.4703 28.3684 34.4814 21.0002 34.4814V34.4814Z" fill="#231F20"/>
<path d="M21.0003 33.7265C27.9629 33.7265 33.6072 28.0634 33.6072 21.0777C33.6072 14.0919 27.9629 8.42883 21.0003 8.42883C14.0376 8.42883 8.39331 14.0919 8.39331 21.0777C8.39331 28.0634 14.0376 33.7265 21.0003 33.7265Z" fill="#F4B728"/>
<path d="M15.2927 26.0701V28.5201H19.6583V31.2051H22.3415V28.5201H26.7071V25.2796H19.9352L26.7071 16.0636V13.6136H22.3415V10.9357H19.6583V13.6136H15.2927V16.8612H22.0647L15.2927 26.0701Z" fill="#231F20"/>
</g>
</g>
<defs>
<linearGradient id="paint0_linear_7277_57862" x1="21" y1="0" x2="21" y2="61.4091" gradientUnits="userSpaceOnUse">
<stop stop-color="#08021E"/>
<stop offset="1" stop-color="#1F0777"/>
</linearGradient>
<clipPath id="clip0_7277_57862">
<rect width="42" height="42" fill="white"/>
</clipPath>
<clipPath id="clip1_7277_57862">
<rect x="5" y="5" width="32.2" height="32.2" rx="16.1" fill="white"/>
</clipPath>
</defs>
</svg>
