<svg xmlns="http://www.w3.org/2000/svg" width="42" height="42" fill="none"><g clip-path="url(#a)"><mask id="c" width="42" height="42" x="0" y="0" maskUnits="userSpaceOnUse" style="mask-type:alpha"><circle cx="21" cy="21" r="21" fill="url(#b)" transform="matrix(-1 0 0 1 42 0)"/></mask><g mask="url(#c)"><circle cx="21" cy="21" r="21" fill="#34EDB3" transform="matrix(-1 0 0 1 42 0)"/><circle cx="18.2" cy="18.2" r="18.2" fill="#fff" transform="matrix(-1 0 0 1 39.2 2.8)"/></g><circle cx="16.1" cy="16.1" r="16.1" fill="#0B0B22" transform="matrix(-1 0 0 1 37.1 4.9)"/><g clip-path="url(#d)"><ellipse cx="21.132" cy="21.1" fill="#06061B" rx="16.068" ry="16.1"/><path fill="#231F20" d="M21 5.024c-8.823 0-16 7.2-16 16.054C5 29.93 12.177 37.13 21 37.13c8.824 0 16-7.2 16-16.053 0-8.853-7.176-16.054-16-16.054zm0 29.457c-7.368 0-13.36-6.01-13.36-13.403 0-7.393 5.992-13.404 13.36-13.404 7.368 0 13.36 6.01 13.36 13.404 0 7.392-5.992 13.403-13.36 13.403z"/><path fill="#F4B728" d="M21 33.727c6.963 0 12.607-5.664 12.607-12.65C33.607 14.093 27.963 8.43 21 8.43c-6.962 0-12.607 5.663-12.607 12.649 0 6.985 5.645 12.649 12.607 12.649z"/><path fill="#231F20" d="M15.293 26.07v2.45h4.365v2.685h2.683V28.52h4.366v-3.24h-6.772l6.772-9.216v-2.45h-4.366v-2.678h-2.683v2.678h-4.365v3.247h6.772l-6.772 9.21z"/></g></g><defs><clipPath id="a"><path fill="#fff" d="M0 0h42v42H0z"/></clipPath><clipPath id="d"><rect width="32.2" height="32.2" x="5" y="5" fill="#fff" rx="16.1"/></clipPath><linearGradient id="b" x1="21" x2="21" y1="0" y2="61.409" gradientUnits="userSpaceOnUse"><stop stop-color="#08021E"/><stop offset="1" stop-color="#1F0777"/></linearGradient></defs></svg>