<svg width="42" height="42" viewBox="0 0 42 42" fill="none" xmlns="http://www.w3.org/2000/svg">
<circle cx="21" cy="21" r="21" fill="#06061B"/>
<path d="M20.9727 38.1185C30.0343 38.1185 37.3801 30.7725 37.3801 21.711C37.3801 12.6494 30.0343 5.30347 20.9727 5.30347C11.911 5.30347 4.56519 12.6494 4.56519 21.711C4.56519 30.7725 11.911 38.1185 20.9727 38.1185Z" fill="#ECF3FF"/>
<path d="M16.5427 11.7035L10.8 9.40651V10.2269L15.7223 14.6569L15.3942 19.251L13.9175 25.4858L11.9486 28.2751L12.4408 32.2129L14.9019 32.5411L16.8708 32.2129L18.8397 32.5411L22.2853 30.4081L22.9416 26.9625L27.0435 23.0247L28.8483 24.3373L30.6531 26.9625V32.2129L33.1142 31.5566L35.5753 26.1421L36.2316 19.251L27.3716 6.28908L25.8949 5.96094L16.5427 11.7035Z" fill="white"/>
<path d="M7.84661 21.186C7.91224 20.6282 7.94505 20.0703 8.10913 19.5453C8.56854 17.3795 9.45454 15.3121 10.7672 13.6386C10.9969 13.3433 11.1938 13.0807 11.4562 12.8182L9.9796 11.4399C9.71706 11.8338 9.45454 12.2275 9.22483 12.6213C8.01068 14.7215 7.35438 17.0841 7.19031 19.414C7.12468 20.0047 7.15749 20.5953 7.15749 21.1532C7.15749 21.7439 7.22312 22.3017 7.32157 22.8924C7.48565 24.0409 7.78098 25.1566 8.17476 26.2067C7.91224 25.091 7.78098 23.9753 7.74816 22.8268C7.74816 22.3017 7.74816 21.7439 7.84661 21.186Z" fill="#94A6C4"/>
<path d="M14.5738 10.5549C13.7534 10.1612 12.6049 9.63611 11.7845 9.24233C12.5393 8.5204 13.9175 7.76566 15.066 7.27344C14.2457 7.92973 14.2457 9.30796 14.5738 10.5549Z" fill="#94A6C4"/>
<path d="M11.2594 16.1323C10.8 17.2809 10.5047 18.495 10.4063 19.6763C10.3734 19.9717 10.3407 20.2671 10.3734 20.5624C10.3734 20.8577 10.3734 21.1531 10.4063 21.4484L10.4391 21.9078C10.4391 22.039 10.4719 22.2031 10.5047 22.3344L10.636 23.2204L10.6688 22.3344C10.6688 22.2031 10.6688 22.039 10.7016 21.9078L10.7673 21.4812C10.8 21.1858 10.8657 20.8905 10.8985 20.628C10.9313 20.3326 11.0297 20.0702 11.0954 19.8076C11.3907 18.6919 11.8829 17.6747 12.4736 16.723C12.8674 16.0995 13.3268 15.5417 13.819 15.0167L12.5392 13.8025C11.9814 14.5572 11.5876 15.312 11.2594 16.1323Z" fill="#94A6C4"/>
<path d="M30.2593 10.521C28.5201 9.89756 27.831 10.0944 27.831 10.0944C27.831 10.0944 26.7481 13.015 22.6134 13.2119C22.6462 13.2446 26.3543 15.4104 30.2593 10.521Z" fill="#94A6C4"/>
<path d="M31.4407 16.3293C31.2766 19.939 28.4873 21.2844 26.3215 21.0219C25.1402 20.8578 23.401 21.4157 23.401 21.4157L21.2024 25.2222L20.4804 25.4847L21.7274 23.1877C21.7274 23.1877 18.774 24.2706 18.5443 24.3691C18.3147 24.4675 17.3958 25.8129 16.6411 27.2239C16.477 26.2394 15.8535 25.5504 15.8535 25.5175C15.8535 25.6816 16.1817 28.635 15.8208 29.4553C15.4598 30.3085 13.8518 30.8664 13.8518 30.8664L16.2145 31.7524L16.3786 31.818L18.1506 30.1445L18.8069 27.6505L19.6272 27.0599C19.6272 27.0599 21.6618 26.8302 21.3664 28.6678C21.2352 29.5538 20.2508 29.4881 19.135 30.1773C18.4787 30.571 17.6256 31.1945 17.199 31.6211L18.3803 32.4743C18.3803 32.4743 19.7914 32.2446 21.793 30.6695C23.8275 29.0287 22.8103 27.2568 22.8103 27.2568L26.1246 23.2862L28.2904 23.4502C28.2904 23.4502 32.0313 24.4018 33.2455 27.9459C35.6738 21.1532 31.7688 16.6575 31.4407 16.3293Z" fill="#94A6C4"/>
<path d="M35.2472 13.5083C35.8379 13.7708 36.2972 14.1634 36.7238 14.5244C33.7705 4.28614 24.1886 5.43466 23.9917 5.50029C24.2214 5.13932 25.0746 4.58147 25.8621 4.28614C25.8621 4.28614 21.793 2.84228 18.085 5.40184C18.1506 4.81118 18.8725 3.92517 18.8725 3.92517C13.7534 6.12493 13.4252 8.75012 14.4097 10.3241C13.5893 9.93031 12.7689 9.56935 11.9486 9.17556C9.4218 7.96141 7.25602 6.94415 7.12476 6.91134C6.89505 6.8457 6.7966 6.94415 6.7966 6.94415C6.7966 6.94415 6.69816 7.04259 6.89505 7.23948C9.88121 10.2256 11.7845 12.0316 14.9675 14.951C14.4425 16.1323 14.3769 16.723 14.6394 17.3465C15.0003 18.1997 14.9675 18.6263 14.8363 19.1842C14.6722 19.742 13.3596 24.697 13.1299 25.2549C12.9002 25.8456 11.161 27.8145 11.1282 28.4707C11.0954 29.127 11.6204 32.0148 12.3423 32.4414C12.9002 32.7367 14.2456 33.3602 15.23 33.4915C15.5582 33.5571 15.8864 33.5242 16.0504 33.393C16.7067 32.9664 16.8708 32.9008 17.2974 32.9336L17.3958 32.9664C17.5599 32.9992 17.7568 33.0649 18.0193 33.0976C18.5772 33.1633 19.2991 33.1633 19.8898 32.7695C20.743 32.1132 22.1868 31.2928 22.6791 30.8662C23.2697 30.2756 23.6635 29.4552 23.6635 28.5364C23.6635 27.716 24.2214 27.0597 24.8449 26.4034C25.4355 25.8127 26.9122 24.3689 27.5028 23.7454C29.0123 24.2704 29.5702 26.4362 29.5702 27.6176C29.5702 30.8991 26.9122 35.69 20.8086 36.051C20.5789 36.051 20.3492 36.0839 20.0867 36.0839C12.1455 36.0839 5.64808 29.0614 5.64808 20.8249C5.64808 14.3275 9.552 9.92772 9.58482 9.89491C6.43457 12.8811 4.56519 17.0511 4.56519 21.7109C4.56519 30.7678 11.9158 38.1195 20.9727 38.1195C30.0296 38.1195 37.3801 30.7678 37.3801 21.7109C37.3801 18.7576 36.6254 15.9038 35.2472 13.5083ZM12.8345 11.407C12.3752 11.0132 11.9158 10.6194 11.4563 10.2256C12.0798 10.5538 12.7033 10.882 13.2611 11.1773C14.9675 12.0633 16.3786 12.8508 16.6411 13.0478C16.6411 13.0478 16.6739 13.0805 16.7067 13.1134C16.8708 13.3102 17.0348 13.6384 16.7395 14.065C16.5755 14.2947 16.3786 14.2291 16.0832 14.0322C15.8207 13.8681 14.4097 12.7524 12.8345 11.407ZM22.3838 28.4707C22.3838 29.0286 22.1212 29.5209 21.793 29.8818C21.629 30.0459 20.9727 30.4725 20.5133 30.7678C20.0538 31.096 19.5616 31.3913 19.1678 31.6866C19.0038 31.7851 18.7412 31.8507 18.3146 31.7851L17.2974 31.6538C17.9209 31.0304 19.6272 29.6849 20.1851 29.4224C20.8414 29.0943 21.2352 28.7333 20.9399 27.9785C20.6773 27.191 19.6601 27.2238 19.6601 27.2238C19.6601 27.2238 20.2835 27.0597 20.7758 27.1254C20.1523 26.8628 19.2991 26.9285 18.8725 27.2238C18.4131 27.552 18.2819 28.8973 17.9865 29.7178C17.6912 30.5709 17.0348 30.9319 16.0504 31.621C15.4926 31.982 15.1316 32.0804 14.8691 32.0476C14.3113 31.8836 13.655 31.5882 13.1955 31.3585C12.933 30.8662 12.6048 29.3239 12.5721 28.7004C12.7033 28.3723 13.2284 27.716 13.4908 27.3222C14.0159 26.6003 14.3113 26.1737 14.4425 25.7799C14.6722 25.2221 15.6238 21.7109 15.9848 20.2342C16.3458 20.8577 16.838 21.9077 16.6083 22.4985C17.7896 21.2515 17.2646 19.7748 17.0021 19.1842C16.7724 18.5934 16.5098 17.445 17.0348 16.3292C17.5271 15.2135 19.2335 12.1946 19.2335 12.1946C19.2335 12.1946 19.5288 12.9821 20.1523 12.9165C20.743 12.8508 26.4199 6.48474 26.4199 6.48474C26.4199 6.48474 27.306 9.43809 25.6652 11.2429C24.0244 13.0478 22.6462 13.2446 22.6462 13.2446C22.6462 13.2446 24.4839 13.8353 26.3871 12.8508C26.8794 14.6228 27.306 16.4605 27.306 16.6902C27.1747 16.9199 25.337 20.0045 25.173 20.2014C25.1073 20.267 24.5823 20.3327 24.2541 20.3327C23.6635 20.4311 23.3025 20.4639 23.1385 20.5624C22.8759 20.7264 21.3664 23.5814 20.6445 24.9596C19.9882 25.058 19.3319 25.2877 18.8069 25.9112C19.0694 25.7799 19.8241 25.7799 20.382 25.7799C20.8743 25.8127 22.2196 26.7972 22.3838 28.3395C22.3838 28.438 22.3838 28.438 22.3838 28.4707ZM18.5443 29.849C18.9053 29.4552 18.9709 28.7004 19.0366 28.4707C19.1022 28.2411 19.2335 27.8145 19.5288 27.7817C19.8241 27.7488 20.4477 27.9457 20.382 28.438C20.3164 28.8973 19.8241 28.9302 19.4304 29.1599C19.1678 29.3239 18.61 29.7833 18.5443 29.849ZM32.8189 30.2756C32.4251 26.0753 29.5374 24.1064 28.2576 23.4501C29.7342 23.286 33.5408 22.1375 31.4407 16.3292C31.5063 16.5918 32.0969 19.4795 30.4234 20.989C28.717 22.5313 26.2231 21.875 25.9278 21.875C25.6652 21.8421 24.4183 23.0563 22.7119 25.3862C22.5478 25.2877 21.8587 25.0252 21.0055 25.058C21.8587 23.4501 23.1385 21.153 23.3354 20.9561C23.401 20.8905 23.9588 20.8249 24.287 20.7921C24.9433 20.7264 25.2715 20.6608 25.4027 20.5295C25.4683 20.4311 25.9278 19.7092 26.3871 18.9216C26.6825 18.9544 27.47 19.02 27.5685 18.9872C27.6341 18.9216 28.5201 17.3465 28.5529 17.1496C28.5857 17.0184 27.9623 14.5573 27.5685 12.9821C35.6738 16.8215 36.9535 25.2877 32.8189 30.2756Z" fill="#1C324F"/>
<path d="M25.009 10.7507C25.9278 9.93033 25.7965 8.51929 25.7965 8.51929L23.0401 11.5711C23.0072 11.5711 23.8605 11.7351 25.009 10.7507Z" fill="#1C324F"/>
<path d="M14.705 28.11L15.1645 26.7974C15.1645 26.7974 13.7534 28.6022 13.6221 28.8647C13.4908 29.1601 13.5565 29.7179 14.0159 29.7507C14.4753 29.7836 15.0988 29.1928 15.1645 28.7335C15.2629 28.1099 14.705 28.11 14.705 28.11Z" fill="#1C324F"/>
<path d="M19.0366 20.1687C20.0211 20.0702 21.7931 19.2827 22.5478 18.6592C23.3025 18.0029 23.1713 16.559 21.99 16.1324C22.3838 15.4761 23.0401 14.0979 23.0401 14.0979C23.0401 14.0979 18.8069 19.053 18.4787 19.1186C18.1506 19.1843 18.0194 17.9372 18.0194 17.9372C17.0349 20.3328 18.7085 20.9234 19.0366 20.1687Z" fill="#1C324F"/>
<path d="M19.3976 19.5452L21.5962 16.7559C21.5962 16.7559 22.5478 17.4122 21.9243 18.1669C21.1368 19.0529 19.3976 19.5452 19.3976 19.5452Z" fill="#FFD925"/>
<path d="M25.2386 7.10815L23.7291 8.7489C22.515 9.10987 21.3336 9.76617 20.2179 10.849C20.2179 10.2256 22.0227 7.50193 25.2386 7.10815Z" fill="#D82423"/>
<path d="M27.1418 8.51934C27.1747 8.09275 27.1418 7.60053 27.0762 7.14111C29.0451 7.40363 31.375 8.55216 34.033 11.1445C31.8343 9.93038 29.5045 8.81468 27.1418 8.51934Z" fill="#D82423"/>
<path d="M27.7325 10.6523C27.7325 10.6523 35.0503 13.8682 36.3957 22.8923C36.5925 11.1445 28.2576 10.5539 27.7325 10.6523Z" fill="#D82423"/>
<path d="M17.0677 5.46753C16.9692 5.73005 12.8346 10.1601 17.9866 11.8993C15.1644 9.37251 17.0349 5.50035 17.0677 5.46753Z" fill="#D82423"/>
<path d="M19.2662 11.2101C19.2662 11.2101 19.6928 6.18941 22.7118 4.84399C22.4821 4.90962 16.3457 6.78008 19.2662 11.2101Z" fill="#D82423"/>
</svg>
