<svg xmlns="http://www.w3.org/2000/svg" width="42" height="42" fill="none"><circle cx="21" cy="21" r="21" fill="#06061B"/><path fill="#ECF3FF" d="M20.973 38.118c9.061 0 16.407-7.346 16.407-16.407 0-9.062-7.346-16.408-16.407-16.408-9.062 0-16.408 7.346-16.408 16.408 0 9.062 7.346 16.407 16.408 16.407z"/><path fill="#fff" d="M16.543 11.704 10.8 9.405v.82l4.922 4.43-.328 4.595-1.476 6.235-1.97 2.79.493 3.937 2.46.328 1.97-.328 1.969.328 3.445-2.133.657-3.446 4.102-3.937 1.804 1.312 1.805 2.625v5.25l2.461-.656 2.461-5.414.657-6.891-8.86-12.962-1.477-.328-9.352 5.742z"/><path fill="#94A6C4" d="M7.847 21.186c.065-.558.098-1.116.262-1.64.46-2.167 1.346-4.234 2.658-5.907.23-.296.427-.558.69-.82l-1.477-1.38c-.263.395-.525.788-.755 1.182-1.214 2.1-1.87 4.463-2.035 6.793-.065.59-.033 1.181-.033 1.74 0 .59.066 1.148.165 1.738.164 1.149.459 2.265.853 3.315a16.718 16.718 0 0 1-.427-3.38c0-.525 0-1.083.099-1.641zm6.727-10.631c-.82-.394-1.97-.919-2.79-1.313.755-.722 2.133-1.476 3.282-1.969-.82.657-.82 2.035-.492 3.282zm-3.314 5.577a12.416 12.416 0 0 0-.854 3.544c-.033.296-.065.591-.033.887 0 .295 0 .59.033.885l.033.46c0 .131.033.295.066.426l.131.886.033-.886c0-.13 0-.295.033-.426l.065-.427c.033-.295.099-.59.132-.853.032-.295.13-.558.196-.82.296-1.116.788-2.133 1.379-3.085a11.41 11.41 0 0 1 1.345-1.706l-1.28-1.214a10.154 10.154 0 0 0-1.28 2.33zm19-5.611c-1.74-.623-2.429-.427-2.429-.427s-1.083 2.921-5.218 3.118c.033.033 3.741 2.198 7.646-2.691zm1.18 5.809c-.163 3.609-2.953 4.954-5.119 4.692-1.18-.164-2.92.394-2.92.394l-2.199 3.806-.722.263 1.247-2.297s-2.953 1.082-3.183 1.181c-.23.098-1.148 1.444-1.903 2.855-.164-.985-.787-1.674-.787-1.707 0 .165.328 3.118-.033 3.938-.361.854-1.97 1.411-1.97 1.411l2.364.886.164.066 1.772-1.674.656-2.493.82-.591s2.035-.23 1.74 1.608c-.132.886-1.116.82-2.232 1.51-.656.393-1.51 1.017-1.936 1.443l1.181.853s1.411-.23 3.413-1.804c2.035-1.641 1.017-3.413 1.017-3.413l3.315-3.97 2.165.163s3.741.952 4.956 4.496c2.428-6.793-1.477-11.289-1.805-11.617z"/><path fill="#1C324F" d="M35.247 13.508c.59.263 1.05.656 1.477 1.017C33.77 4.285 24.189 5.434 23.992 5.5c.23-.36 1.083-.918 1.87-1.214 0 0-4.069-1.444-7.777 1.116.066-.59.787-1.477.787-1.477-5.119 2.2-5.447 4.825-4.462 6.4-.82-.395-1.641-.756-2.461-1.15-2.527-1.214-4.693-2.23-4.824-2.264-.23-.065-.328.033-.328.033s-.099.099.098.296c2.986 2.986 4.89 4.792 8.073 7.711-.525 1.181-.591 1.772-.329 2.395.361.854.329 1.28.197 1.838-.164.558-1.476 5.513-1.706 6.071-.23.59-1.969 2.56-2.002 3.216-.033.656.492 3.544 1.214 3.97.558.296 1.904.92 2.888 1.05.328.066.656.033.82-.098.657-.426.82-.492 1.247-.46l.099.034c.164.032.36.098.623.13.558.066 1.28.066 1.87-.327.854-.657 2.298-1.477 2.79-1.904a3.3 3.3 0 0 0 .985-2.33c0-.82.557-1.476 1.18-2.133.591-.59 2.068-2.034 2.659-2.657 1.51.524 2.067 2.69 2.067 3.872 0 3.281-2.658 8.072-8.761 8.433-.23 0-.46.033-.722.033-7.941 0-14.439-7.023-14.439-15.26 0-6.497 3.904-10.896 3.937-10.929-3.15 2.986-5.02 7.156-5.02 11.816 0 9.057 7.35 16.409 16.408 16.409 9.057 0 16.407-7.352 16.407-16.409 0-2.953-.755-5.807-2.133-8.203zm-22.413-2.101-1.378-1.181 1.805.951c1.707.886 3.118 1.674 3.38 1.87l.066.066c.164.197.328.526.032.952-.163.23-.36.164-.656-.033-.262-.164-1.673-1.28-3.248-2.625zm9.55 17.064c0 .558-.263 1.05-.591 1.41-.164.165-.82.591-1.28.887-.46.328-.951.623-1.345.919-.164.098-.427.164-.853.098l-1.018-.131c.624-.624 2.33-1.969 2.888-2.232.656-.328 1.05-.689.755-1.443-.263-.788-1.28-.755-1.28-.755s.623-.164 1.116-.099c-.624-.262-1.477-.197-1.904.099-.459.328-.59 1.673-.886 2.494-.295.853-.951 1.214-1.936 1.903-.557.361-.918.46-1.18.427-.559-.164-1.215-.46-1.675-.69-.262-.492-.59-2.034-.623-2.657.131-.329.656-.985.919-1.379.525-.722.82-1.148.952-1.542.23-.558 1.18-4.069 1.542-5.546.36.624.853 1.674.623 2.264 1.182-1.247.657-2.723.394-3.314-.23-.59-.492-1.739.033-2.855.492-1.115 2.198-4.134 2.198-4.134s.296.787.92.721c.59-.065 6.267-6.431 6.267-6.431s.886 2.953-.755 4.758c-1.64 1.805-3.019 2.002-3.019 2.002s1.838.59 3.741-.394c.492 1.772.919 3.61.919 3.84-.131.229-1.969 3.314-2.133 3.51-.066.066-.59.132-.919.132-.59.098-.952.13-1.116.23-.262.164-1.772 3.018-2.494 4.397-.656.098-1.312.328-1.837.951.262-.131 1.017-.131 1.575-.131.492.033 1.838 1.017 2.002 2.56v.13zm-3.84 1.378c.361-.394.427-1.148.493-1.378.065-.23.197-.657.492-.69.295-.032.919.165.853.657-.066.46-.558.492-.952.722-.262.164-.82.623-.886.689zm14.275.427c-.394-4.2-3.282-6.17-4.561-6.826 1.476-.164 5.283-1.312 3.183-7.12.065.262.656 3.15-1.018 4.659-1.706 1.542-4.2.886-4.495.886-.263-.033-1.51 1.181-3.216 3.511-.164-.098-.853-.36-1.706-.328.853-1.608 2.133-3.905 2.33-4.102.065-.066.623-.131.951-.164.656-.066.985-.131 1.116-.262.065-.099.525-.82.984-1.608.296.032 1.083.098 1.181.065.066-.065.952-1.64.985-1.837.033-.132-.59-2.593-.985-4.168 8.106 3.84 9.385 12.306 5.25 17.294z"/><path fill="#1C324F" d="M25.009 10.75c.919-.82.788-2.23.788-2.23l-2.757 3.05c-.033 0 .82.164 1.969-.82zM14.705 28.11l.46-1.313s-1.412 1.805-1.543 2.068c-.131.295-.066.853.394.886.46.032 1.083-.558 1.149-1.018.098-.623-.46-.623-.46-.623zm4.332-7.941c.984-.099 2.756-.886 3.51-1.51.755-.656.624-2.1-.557-2.527.394-.656 1.05-2.034 1.05-2.034s-4.233 4.955-4.561 5.02c-.328.066-.46-1.18-.46-1.18-.984 2.395.69 2.985 1.018 2.23z"/><path fill="#FFD925" d="m19.398 19.545 2.198-2.79s.952.657.328 1.412c-.787.886-2.526 1.378-2.526 1.378z"/><path fill="#D82423" d="m25.239 7.108-1.51 1.641c-1.214.36-2.395 1.017-3.511 2.1 0-.623 1.805-3.347 5.02-3.74zm1.903 1.412a6.57 6.57 0 0 0-.066-1.379c1.97.263 4.299 1.411 6.957 4.004-2.199-1.215-4.529-2.33-6.891-2.626zm.591 2.132s7.317 3.216 8.663 12.24c.197-11.747-8.138-12.338-8.663-12.24zM17.068 5.468c-.099.262-4.233 4.692.919 6.431-2.823-2.526-.952-6.399-.92-6.431zm2.198 5.742s.427-5.02 3.446-6.366c-.23.066-6.366 1.936-3.446 6.366z"/></svg>