<svg width="42" height="42" fill="none" xmlns="http://www.w3.org/2000/svg">
  <circle cx="21" cy="21" r="21" fill="#06061B"/>
  <path fill="#fff" fill-rule="evenodd" d="M25.934 6.627c0 .005-.018.008-.04.008s-.04.004-.04.008c0 .005-.014.008-.032.008-.017 0-.032.004-.032.008 0 .005-.014.008-.031.008s-.032.004-.032.008c0 .005-.015.008-.032.008s-.032.004-.032.008-.01.008-.024.008c-.013 0-.024.004-.024.008s-.014.008-.032.008c-.017 0-.032.004-.032.008s-.014.008-.032.008c-.017 0-.031.004-.031.008s-.011.008-.024.008q-.022 0-.024.008c0 .004-.015.008-.032.008s-.032.003-.032.008q-.002.007-.024.008c-.013 0-.024.003-.024.008 0 .004-.014.008-.032.008-.017 0-.032.003-.032.008q-.001.007-.024.008c-.013 0-.024.003-.024.008q-.001.007-.024.008-.021 0-.023.008c0 .004-.011.008-.024.008s-.024.003-.024.008c0 .004-.011.008-.024.008s-.024.003-.024.008q-.002.007-.024.008c-.013 0-.024.003-.024.008q-.002.006-.024.007c-.013 0-.024.004-.024.008q-.002.008-.024.008-.021.001-.023.008c0 .005-.011.008-.024.008q-.023.001-.024.008c0 .005-.011.008-.024.008s-.024.004-.024.008c0 .005-.011.008-.024.008s-.024.004-.024.008q-.001.008-.016.008-.015.001-.016.008-.002.008-.024.008c-.013 0-.024.004-.024.008q-.002.008-.024.008c-.013 0-.024.004-.024.008q-.001.008-.016.008-.013.001-.015.008-.004.01-.024.008-.022.001-.024.008-.003.01-.016.008-.015.001-.016.008-.002.01-.024.008c-.013 0-.024.004-.024.008s-.007.008-.016.008q-.015 0-.016.008-.002.007-.024.008c-.013 0-.024.003-.024.008q-.001.007-.016.008-.014 0-.016.008-.002.007-.015.008-.016 0-.017.008-.002.007-.023.008-.023 0-.024.008-.002.007-.016.008-.015 0-.016.008-.001.007-.016.008-.015 0-.016.008-.001.007-.016.008-.015 0-.016.008-.002.007-.024.008c-.013 0-.024.003-.024.008q-.001.006-.016.007c-.008 0-.016.004-.016.008q-.001.008-.016.008c-.008 0-.016.004-.016.008q-.001.008-.016.008-.013.001-.015.008c0 .005-.008.008-.016.008q-.015.001-.016.008c0 .005-.008.008-.016.008q-.015.001-.016.008-.001.008-.016.008-.015.001-.016.008-.001.008-.016.008-.015.001-.016.008-.001.008-.016.008-.015.001-.016.008-.001.008-.016.008-.015.001-.016.008-.002.01-.016.008-.015.001-.016.008-.002.01-.014.008c-.012-.002-.02.007-.026.016q-.011.015-.025.016c-.014.001-.014.003-.014.008 0 .004-.008.008-.016.008q-.016 0-.016.008-.001.007-.016.008-.015 0-.016.008-.002.007-.014.008c-.008 0-.02.007-.026.016-.006.008-.018.016-.026.016s-.014.003-.014.008q-.001.007-.016.008-.015 0-.016.008-.001.007-.014.008-.018.002-.026.016c-.006.008-.018.015-.025.015q-.013.001-.014.008-.002.008-.015.008c-.013 0-.019.008-.025.016q-.012.015-.024.016c-.007 0-.018.008-.024.016-.006.01-.017.016-.024.016s-.018.007-.024.016-.017.016-.024.016q-.012.001-.024.016c-.006.009-.017.016-.024.016q-.012.001-.024.016c-.006.009-.017.016-.024.016s-.017.007-.023.016c-.007.009-.018.016-.024.016s-.018.007-.024.016q-.012.015-.023.016c-.006 0-.02.01-.033.024-.012.013-.027.024-.032.024s-.02.01-.032.024c-.012.013-.026.023-.032.023-.005 0-.02.011-.032.024s-.026.024-.031.024-.024.015-.04.032c-.017.018-.035.032-.04.032a.2.2 0 0 0-.048.04.2.2 0 0 1-.048.04.5.5 0 0 0-.08.072.5.5 0 0 1-.08.071 3 3 0 0 0-.318.327.4.4 0 0 0-.064.072.2.2 0 0 1-.04.048.2.2 0 0 0-.04.048c0 .005-.014.023-.032.04a.1.1 0 0 0-.031.04c0 .005-.011.02-.024.032s-.024.026-.024.032c0 .005-.011.02-.024.031-.013.013-.024.028-.024.034s-.007.016-.016.022q-.015.012-.016.024c0 .007-.007.018-.016.024s-.016.017-.016.023-.01.02-.024.033c-.013.012-.024.028-.024.035q0 .012-.008.013-.007.001-.008.014-.002.018-.016.026c-.008.006-.016.017-.016.024s-.007.017-.015.024c-.01.006-.017.017-.017.024s-.007.017-.015.023c-.01.007-.016.018-.016.024s-.008.018-.016.024q-.016.012-.016.026c0 .014-.004.014-.008.014q-.008.002-.008.014c0 .008-.007.02-.016.026s-.016.018-.016.026-.004.014-.008.014-.008.007-.008.016q-.001.015-.008.016-.01.002-.008.014c.002.012-.007.02-.016.026s-.016.018-.016.025q0 .014-.008.015-.007.001-.008.016c0 .008-.003.016-.008.016q-.007.001-.008.014a.03.03 0 0 1-.016.025q-.014.012-.016.026c-.002.014-.003.014-.008.014q-.007.001-.008.016 0 .015-.008.016-.007.001-.008.016 0 .015-.008.016-.006.001-.007.016t-.008.016q-.008.001-.008.016-.001.015-.008.016-.008.001-.008.016-.001.015-.008.016-.008.001-.008.016-.001.015-.008.016-.008.001-.008.016c0 .008-.004.016-.008.016q-.008.001-.008.016-.001.014-.008.016-.008.001-.008.015-.001.015-.008.016-.008.002-.008.016-.001.015-.008.016-.01.003-.008.016-.001.015-.008.016-.01.003-.008.024c0 .013-.003.024-.008.024q-.007.001-.008.016 0 .015-.008.016-.007.001-.008.016 0 .015-.008.016-.007.001-.008.016 0 .015-.008.016-.007.002-.008.024c0 .013-.003.024-.008.024q-.007.001-.008.016c0 .008-.003.016-.008.016q-.007.001-.008.016c0 .008-.003.016-.008.016q-.007.002-.008.023 0 .022-.008.024c-.004 0-.008.008-.008.016q0 .016-.008.016c-.004 0-.007.011-.007.024s-.004.024-.008.024q-.008.001-.008.016-.001.015-.008.016-.008.002-.008.024c0 .013-.004.024-.008.024q-.008.001-.008.024c0 .013-.004.024-.008.024q-.008.001-.008.016-.001.014-.008.016-.008.001-.008.024c0 .013-.004.024-.008.024q-.008.002-.008.023-.001.022-.008.024-.01.004-.008.024c0 .013-.004.024-.008.024s-.008.011-.008.024-.004.024-.008.024-.008.01-.008.024c0 .013-.004.024-.008.024s-.008.01-.008.024c0 .013-.003.024-.008.024-.004 0-.008.014-.008.032 0 .017-.003.032-.008.032q-.007.002-.008.024 0 .021-.008.023c-.004 0-.008.011-.008.024q0 .023-.008.024c-.004 0-.008.015-.008.032s-.003.032-.008.032c-.004 0-.008.014-.008.032s-.003.032-.008.032c-.004 0-.008.014-.008.032 0 .017-.003.032-.008.032q-.007.002-.008.024c0 .013-.003.024-.007.024-.005 0-.008.018-.008.04 0 .021-.004.04-.008.04-.005 0-.008.014-.008.031s-.004.032-.008.032c-.005 0-.008.014-.008.032s-.004.032-.008.032c-.005 0-.008.018-.008.04s-.004.04-.008.04c-.005 0-.008.018-.008.04 0 .021-.004.04-.008.04-.005 0-.008.017-.008.04 0 .021-.004.04-.008.04-.005 0-.008.02-.008.047s-.004.048-.008.048c-.005 0-.008.021-.008.048 0 .026-.003.048-.008.048s-.008.024-.008.056c0 .031-.003.055-.008.055s-.008.024-.008.056-.003.056-.008.056-.008.027-.008.064-.003.064-.008.064-.008.032-.008.08c0 .047-.003.08-.008.08s-.008.036-.008.095c0 .058-.003.096-.008.096a.5.5 0 0 0-.008.135.5.5 0 0 1-.008.136.4.4 0 0 0-.008.127v.128h.064c.037 0 .064-.003.064-.008s.032-.008.08-.008c.047 0 .08-.003.08-.008s.031-.008.08-.008c.047 0 .079-.003.079-.008 0-.004.026-.008.064-.008.037 0 .063-.003.063-.008 0-.004.027-.008.064-.008s.064-.003.064-.008c0-.004.024-.008.056-.008s.055-.003.055-.008c0-.004.024-.008.056-.008s.056-.003.056-.008c0-.004.021-.008.048-.008.026 0 .048-.003.048-.008 0-.004.021-.008.048-.008.026 0 .047-.003.047-.008 0-.004.018-.008.04-.008s.04-.003.04-.008c0-.004.018-.008.04-.008s.04-.003.04-.008c0-.004.018-.008.04-.008s.04-.003.04-.008c0-.004.014-.007.032-.007.017 0 .031-.004.031-.008 0-.005.015-.008.032-.008s.032-.004.032-.008c0-.005.014-.008.032-.008.017 0 .032-.004.032-.008 0-.005.014-.008.032-.008.017 0 .032-.004.032-.008q.002-.008.024-.008c.013 0 .024-.004.024-.008q.002-.008.023-.008.023-.001.024-.008.002-.008.016-.008.015-.001.016-.008c0-.005.011-.008.024-.008s.024-.004.024-.008q.001-.008.016-.008.015-.001.016-.008.002-.01.024-.008c.013 0 .024-.004.024-.008s.007-.008.016-.008q.015 0 .016-.008.001-.007.016-.008c.008 0 .016-.003.016-.008q.002-.007.023-.008.022 0 .024-.008c0-.004.008-.008.016-.008q.015 0 .016-.008.001-.007.016-.008.015 0 .016-.008.001-.007.016-.008.015 0 .016-.008.001-.007.016-.008.015 0 .016-.008.001-.007.014-.008.018-.002.026-.016c.006-.008.018-.016.025-.016q.013 0 .015-.008.001-.007.016-.008.014 0 .015-.008.002-.007.016-.007.016-.001.016-.008.002-.008.015-.008c.007 0 .019-.008.025-.016q.012-.015.026-.016c.014-.001.014-.004.014-.008q.001-.008.014-.008.018-.001.026-.016c.006-.009.017-.016.024-.016q.012-.001.024-.016c.006-.009.018-.016.025-.016q.014-.001.015-.008.002-.01.014-.008c.012.002.02-.007.026-.016s.017-.016.023-.016c.007 0 .018-.007.024-.016q.012-.015.023-.016c.006 0 .02-.01.033-.024.012-.013.027-.024.034-.024.006 0 .016-.007.022-.016q.011-.014.022-.016c.006 0 .021-.01.034-.024.012-.013.026-.023.032-.023.005 0 .02-.011.032-.024s.026-.024.031-.024a.1.1 0 0 0 .04-.032c.017-.018.035-.032.04-.032a.2.2 0 0 0 .048-.04.2.2 0 0 1 .048-.04c.005 0 .03-.021.056-.048a.3.3 0 0 1 .055-.048.6.6 0 0 0 .088-.08 1 1 0 0 1 .087-.08 3 3 0 0 0 .272-.27c0-.005.036-.044.08-.088a.6.6 0 0 0 .08-.088c0-.005.024-.033.055-.064a.3.3 0 0 0 .056-.063c0-.005.018-.027.04-.048a.2.2 0 0 0 .04-.048.1.1 0 0 1 .031-.04c.018-.017.032-.035.032-.04s.011-.02.024-.032.024-.026.024-.031.015-.024.032-.04c.018-.017.032-.036.032-.042q.001-.011.016-.022.015-.012.016-.023c0-.006.01-.02.024-.033.013-.012.024-.027.024-.032s.01-.02.024-.032c.013-.012.024-.027.024-.033s.007-.017.015-.023c.01-.006.016-.017.016-.024s.008-.017.016-.024c.01-.006.016-.017.016-.024s.007-.017.016-.024.016-.017.016-.024.007-.017.016-.023c.009-.007.016-.018.016-.024s.007-.018.016-.024q.015-.012.016-.026c.001-.014.004-.014.008-.014s.008-.007.008-.014c0-.008.007-.02.016-.026s.016-.017.016-.024.007-.018.016-.024c.008-.006.016-.018.016-.026q0-.012.008-.014.007-.001.008-.016 0-.014.008-.016.007-.001.008-.014a.03.03 0 0 1 .015-.026c.01-.006.016-.017.016-.025s.004-.014.008-.014q.008-.002.008-.016.001-.015.008-.016.008-.002.008-.014c0-.008.008-.02.016-.026q.015-.012.016-.026c.001-.014.004-.014.008-.014q.008-.001.008-.016.001-.015.008-.016.008-.001.008-.016.001-.015.008-.016.01-.002.008-.016.001-.015.008-.016.01-.002.008-.016 0-.015.008-.016.007-.001.008-.016c0-.008.003-.016.008-.016q.007-.001.008-.016c0-.008.003-.016.008-.016q.007-.002.008-.015 0-.016.008-.016.007-.002.008-.016 0-.015.008-.016c.004 0 .008-.008.008-.016q0-.016.008-.016.007-.001.008-.016 0-.015.008-.016.007-.001.008-.016 0-.015.008-.016.007-.002.008-.024c0-.013.003-.024.008-.024q.006-.001.007-.016t.008-.016q.008-.001.008-.016.001-.015.008-.016.008-.001.008-.016c0-.008.004-.016.008-.016q.008-.002.008-.024.001-.021.008-.023.008-.002.008-.016.001-.015.008-.016c.005 0 .008-.011.008-.024s.004-.024.008-.024q.008-.001.008-.016.001-.015.008-.016.01-.002.008-.024c0-.013.004-.024.008-.024s.008-.01.008-.024c0-.013.004-.024.008-.024s.008-.007.008-.016q.001-.015.008-.016.01-.002.008-.024c0-.013.003-.024.008-.024q.007-.002.008-.024 0-.021.008-.023.007-.002.008-.016 0-.015.008-.016c.004 0 .008-.011.008-.024s.003-.024.008-.024c.004 0 .008-.011.008-.024s.003-.024.008-.024q.007-.001.008-.024c0-.013.003-.024.008-.024q.007-.002.008-.024c0-.013.003-.024.008-.024q.007-.001.008-.024c0-.013.003-.024.007-.024.005 0 .008-.014.008-.032 0-.017.004-.031.008-.031.005 0 .008-.011.008-.024q.001-.022.008-.024c.005 0 .008-.011.008-.024s.004-.024.008-.024c.005 0 .008-.015.008-.032s.004-.032.008-.032q.008-.002.008-.024c0-.013.004-.024.008-.024.005 0 .008-.014.008-.032 0-.017.004-.032.008-.032.005 0 .008-.014.008-.032 0-.017.004-.031.008-.031s.008-.015.008-.032.004-.032.008-.032.008-.015.008-.032.004-.032.008-.032.008-.018.008-.04.003-.04.008-.04c.004 0 .008-.014.008-.032 0-.017.003-.032.008-.032.004 0 .008-.018.008-.04 0-.021.003-.04.008-.04.004 0 .008-.02.008-.047s.003-.048.008-.048c.004 0 .008-.021.008-.048s.003-.048.008-.048c.004 0 .008-.024.008-.056s.003-.056.008-.056c.004 0 .008-.029.008-.071 0-.043.003-.072.008-.072.004 0 .008-.037.008-.096 0-.058.003-.096.008-.096s.007-.09.007-.255-.002-.255-.008-.255c-.004 0-.008-.03-.008-.072s-.003-.072-.008-.072c-.004 0-.007-.018-.007-.04 0-.021-.004-.04-.008-.04-.005 0-.008-.017-.008-.04 0-.021-.004-.04-.008-.04q-.008-.002-.008-.031c0-.018-.004-.032-.008-.032-.005 0-.008-.01-.008-.02a.05.05 0 0 0-.012-.032c-.013-.013-.036-.016-.036-.004m-.032 6.014c0 .005-.037.008-.096.008-.058 0-.095.003-.095.008s-.032.008-.08.008-.08.003-.08.008-.026.008-.063.008-.064.004-.064.008c0 .005-.024.008-.056.008s-.056.004-.056.008c0 .005-.021.008-.048.008-.026 0-.048.004-.048.008 0 .005-.02.008-.047.008s-.048.004-.048.008-.018.008-.04.008-.04.004-.04.008-.021.008-.048.008c-.026 0-.048.004-.048.008s-.014.008-.032.008c-.017 0-.031.004-.031.008s-.018.008-.04.008-.04.003-.04.008c0 .004-.018.008-.04.008s-.04.003-.04.008c0 .004-.014.008-.032.008-.017 0-.032.003-.032.008 0 .004-.014.008-.032.008-.017 0-.031.003-.031.008 0 .004-.015.008-.032.008s-.032.003-.032.008c0 .004-.014.008-.032.008-.017 0-.032.003-.032.008 0 .004-.014.008-.032.008-.017 0-.032.003-.032.008 0 .004-.014.008-.031.008s-.032.003-.032.008c0 .004-.015.008-.032.008s-.032.003-.032.007c0 .005-.011.008-.024.008s-.024.004-.024.008c0 .005-.014.008-.032.008s-.032.004-.032.008q-.002.008-.024.008c-.013 0-.024.004-.024.008 0 .005-.014.008-.032.008-.017 0-.031.004-.031.008 0 .005-.011.008-.024.008q-.023.001-.024.008c0 .005-.015.008-.032.008s-.032.004-.032.008q-.002.008-.024.008c-.013 0-.024.004-.024.008q-.002.008-.024.008c-.013 0-.024.004-.024.008q-.002.008-.024.008c-.013 0-.024.004-.024.008s-.01.008-.023.008q-.023.001-.024.008-.003.01-.024.008c-.013 0-.024.004-.024.008s-.015.008-.032.008-.032.004-.032.008-.007.008-.016.008q-.015 0-.016.008-.001.007-.024.008c-.013 0-.024.003-.024.008q-.001.007-.024.008-.021 0-.023.008c0 .004-.011.008-.024.008s-.024.003-.024.008c0 .004-.011.008-.024.008s-.024.003-.024.008q-.002.007-.024.008c-.013 0-.024.003-.024.008q-.002.007-.024.008c-.013 0-.024.003-.024.008q-.002.007-.024.008c-.013 0-.024.003-.024.008q-.002.007-.024.008-.021 0-.023.007c0 .005-.011.008-.024.008q-.023.001-.024.008c0 .005-.011.008-.024.008s-.024.004-.024.008c0 .005-.015.008-.032.008s-.032.004-.032.008q-.002.008-.024.008c-.013 0-.024.004-.024.008q-.002.008-.024.008c-.013 0-.024.004-.024.008q-.002.008-.023.008-.023.001-.024.008c0 .005-.011.008-.024.008s-.024.004-.024.008c0 .005-.011.008-.024.008s-.024.004-.024.008c0 .005-.014.008-.032.008-.017 0-.032.004-.032.008s-.01.008-.024.008c-.013 0-.024.004-.024.008s-.01.008-.024.008q-.021.001-.023.008-.005.01-.032.008c-.018 0-.032.004-.032.008s-.011.008-.024.008-.024.003-.024.008c0 .004-.014.008-.032.008-.017 0-.032.003-.032.008 0 .004-.014.008-.032.008-.017 0-.032.003-.032.008q-.002.007-.023.008-.023 0-.024.008c0 .004-.015.008-.032.008s-.032.003-.032.008c0 .004-.015.008-.032.008s-.032.003-.032.008c0 .004-.014.008-.032.008-.017 0-.032.003-.032.008 0 .004-.014.008-.032.008-.017 0-.032.003-.032.008 0 .004-.014.008-.031.008s-.032.003-.032.007c0 .005-.018.008-.04.008s-.04.004-.04.008c0 .005-.014.008-.032.008s-.032.004-.032.008c0 .005-.018.008-.04.008s-.04.004-.04.008c0 .005-.02.008-.047.008s-.048.004-.048.008c0 .005-.018.008-.04.008s-.04.004-.04.008c0 .005-.024.008-.056.008s-.056.004-.056.008c0 .005-.029.008-.071.008-.043 0-.072.003-.072.008s-.074.008-.207.008-.208-.003-.208-.008-.026-.008-.063-.008-.064-.003-.064-.008c0-.004-.021-.008-.048-.008-.026 0-.048-.003-.048-.008 0-.004-.021-.008-.048-.008-.026 0-.047-.003-.047-.008 0-.004-.018-.008-.04-.008s-.04-.003-.04-.008c0-.004-.018-.008-.04-.008s-.04-.003-.04-.008c0-.004-.018-.008-.04-.008s-.04-.003-.04-.008c0-.004-.017-.008-.04-.008-.021 0-.04-.003-.04-.008 0-.004-.014-.008-.031-.008s-.032-.003-.032-.008c0-.004-.018-.008-.04-.008s-.04-.003-.04-.008c0-.004-.014-.007-.032-.007-.017 0-.032-.004-.032-.008 0-.005-.014-.008-.031-.008s-.032-.004-.032-.008c0-.005-.015-.008-.032-.008s-.032-.004-.032-.008c0-.005-.014-.008-.032-.008-.017 0-.032-.004-.032-.008 0-.005-.014-.008-.032-.008-.017 0-.032-.004-.032-.008 0-.005-.014-.008-.031-.008s-.032-.004-.032-.008c0-.005-.015-.008-.032-.008s-.032-.004-.032-.008c0-.005-.014-.008-.032-.008s-.032-.004-.032-.008c0-.005-.014-.008-.032-.008-.017 0-.032-.004-.032-.008s-.01-.008-.024-.008q-.021-.001-.023-.008-.005-.01-.032-.008c-.018 0-.032-.003-.032-.008 0-.004-.015-.008-.032-.008s-.032-.003-.032-.008q-.002-.007-.024-.008c-.013 0-.024-.004-.024-.008s-.014-.008-.032-.008c-.017 0-.032-.003-.032-.008q-.002-.007-.024-.008-.021 0-.023-.008c0-.004-.015-.008-.032-.008s-.032-.003-.032-.008c0-.004-.011-.008-.024-.008s-.024-.003-.024-.008c0-.004-.015-.008-.032-.008s-.032-.003-.032-.008q-.002-.007-.024-.008c-.013 0-.024-.003-.024-.008 0-.004-.014-.008-.032-.008-.017 0-.031-.003-.031-.008 0-.004-.011-.008-.024-.008q-.023 0-.024-.008c0-.004-.015-.007-.032-.007s-.032-.004-.032-.008q-.002-.008-.024-.008c-.013 0-.024-.004-.024-.008 0-.005-.014-.008-.032-.008-.017 0-.032-.004-.032-.008 0-.005-.014-.008-.032-.008-.017 0-.032-.004-.032-.008q-.002-.008-.023-.008-.022-.001-.024-.008c0-.005-.015-.008-.032-.008s-.032-.004-.032-.008c0-.005-.014-.008-.032-.008-.017 0-.032-.004-.032-.008s-.014-.008-.032-.008c-.017 0-.032-.004-.032-.008s-.01-.008-.023-.008q-.023-.001-.024-.008c-.001-.007-.015-.008-.032-.008s-.032-.004-.032-.008-.015-.008-.032-.008-.032-.004-.032-.008-.018-.008-.04-.008-.04-.004-.04-.008-.014-.008-.032-.008c-.017 0-.032-.004-.032-.008s-.014-.008-.031-.008-.032-.003-.032-.008c0-.004-.015-.008-.032-.008s-.032-.003-.032-.008c0-.004-.018-.008-.04-.008s-.04-.003-.04-.008c0-.004-.018-.008-.04-.008-.021 0-.04-.003-.04-.008 0-.004-.014-.008-.031-.008s-.032-.003-.032-.008c0-.004-.021-.008-.048-.008s-.048-.003-.048-.008c0-.004-.018-.008-.04-.008s-.04-.003-.04-.008c0-.004-.018-.008-.04-.008-.021 0-.04-.003-.04-.008 0-.004-.02-.007-.047-.007s-.048-.004-.048-.008c0-.005-.021-.008-.048-.008-.026 0-.048-.004-.048-.008 0-.005-.02-.008-.047-.008s-.048-.004-.048-.008c0-.005-.024-.008-.056-.008s-.056-.004-.056-.008c0-.005-.024-.008-.056-.008s-.056-.004-.056-.008c0-.005-.026-.008-.063-.008s-.064-.003-.064-.008-.032-.008-.08-.008-.08-.003-.08-.008-.04-.008-.103-.008c-.064 0-.104-.003-.104-.008s-.138-.008-.398-.008-.399.003-.399.008-.04.008-.104.008c-.063 0-.103.003-.103.008s-.03.008-.072.008-.072.003-.072.008c0 .004-.024.008-.056.008-.031 0-.055.003-.055.008 0 .004-.024.008-.056.008s-.056.003-.056.008c0 .004-.021.008-.048.008-.026 0-.048.003-.048.008 0 .004-.018.008-.04.008-.021 0-.04.003-.04.008 0 .004-.017.008-.04.008-.021 0-.039.003-.039.008 0 .004-.014.008-.032.008-.017 0-.032.003-.032.008 0 .004-.018.008-.04.008s-.04.003-.04.008c0 .004-.014.008-.031.008s-.032.003-.032.007c0 .005-.011.008-.024.008s-.024.004-.024.008c0 .005-.014.008-.032.008s-.032.004-.032.008c0 .005-.014.008-.032.008-.017 0-.032.004-.032.008q-.002.008-.024.008-.021.001-.023.008c0 .005-.011.008-.024.008s-.024.004-.024.008c0 .005-.011.008-.024.008s-.024.004-.024.008q-.002.008-.024.008c-.013 0-.024.004-.024.008q-.001.008-.024.008c-.013 0-.024.004-.024.008q-.002.008-.024.008c-.013 0-.024.004-.024.008s-.01.008-.024.008q-.021.001-.023.008-.004.01-.024.008-.022.001-.024.008-.003.01-.016.008-.015.001-.016.008-.002.01-.024.008c-.013 0-.024.003-.024.008q-.001.007-.016.008-.015 0-.016.008-.002.007-.024.008c-.013 0-.024.003-.024.008q-.001.007-.016.008c-.008 0-.016.003-.016.008q-.001.007-.016.008-.014 0-.015.008c0 .004-.011.008-.024.008s-.024.003-.024.008q-.001.007-.016.008-.015 0-.016.008-.001.007-.016.008-.015 0-.016.008-.001.007-.016.008-.015 0-.016.007-.001.008-.016.008-.015.001-.016.008-.001.008-.016.008c-.008 0-.016.004-.016.008q-.001.008-.016.008-.014.001-.016.008c0 .005-.01.008-.022.008a.04.04 0 0 0-.033.016q-.012.015-.026.016c-.014.001-.014.004-.014.008q-.001.008-.016.008-.015.001-.016.008-.001.008-.016.008-.015.001-.016.008-.001.008-.016.008-.015.001-.016.008-.002.01-.016.008-.015.001-.016.008-.002.01-.014.008c-.012-.002-.02.007-.026.016s-.018.016-.025.016q-.013 0-.014.008-.002.007-.017.008-.013 0-.015.008-.002.007-.015.008c-.007 0-.019.007-.025.016q-.012.015-.024.016c-.007 0-.018.007-.024.016-.006.008-.018.016-.026.016s-.014.003-.014.008q-.001.007-.014.008-.018.002-.026.016c-.006.008-.017.015-.024.015q-.012.002-.024.016c-.006.01-.017.016-.024.016s-.017.008-.024.016c-.006.01-.017.016-.023.016-.007 0-.018.007-.024.016q-.012.015-.024.016c-.007 0-.018.007-.024.016s-.017.016-.023.016-.02.01-.033.024c-.012.013-.027.024-.032.024s-.02.01-.032.024c-.012.013-.026.024-.032.024-.005 0-.02.01-.031.024-.013.013-.027.024-.032.024s-.02.01-.032.024c-.013.013-.027.024-.032.024a.2.2 0 0 0-.048.04.2.2 0 0 1-.048.04.2.2 0 0 0-.048.04.2.2 0 0 1-.047.039.5.5 0 0 0-.08.072 5 5 0 0 0-.502.502.5.5 0 0 0-.072.08.3.3 0 0 1-.048.056.3.3 0 0 0-.048.056.2.2 0 0 1-.04.048.2.2 0 0 0-.04.048.1.1 0 0 1-.031.04c-.018.016-.032.034-.032.04s-.011.019-.024.031-.024.027-.024.032a.1.1 0 0 1-.032.04c-.018.017-.032.035-.032.04s-.01.02-.024.032c-.013.012-.024.027-.024.033q-.001.01-.016.023c-.008.006-.016.016-.016.022s-.01.021-.024.033c-.013.013-.023.028-.023.034q-.002.011-.016.022-.015.012-.016.024c0 .007-.008.018-.016.024s-.016.017-.016.024-.007.018-.016.024-.016.017-.016.024q-.001.012-.016.024c-.009.006-.016.017-.016.024s-.007.017-.016.024-.016.017-.016.024-.007.017-.016.023c-.009.007-.016.018-.016.024s-.007.018-.016.024q-.014.012-.016.024c0 .007-.007.018-.016.024-.008.006-.015.018-.015.026s-.004.014-.008.014q-.008.001-.008.014-.002.018-.016.026a.03.03 0 0 0-.016.026q-.001.012-.008.014-.008.001-.008.014-.001.018-.016.026c-.009.006-.016.018-.016.025q-.001.014-.008.015-.008.001-.008.014-.001.018-.016.025-.015.012-.016.026c-.001.014-.004.014-.008.014s-.008.008-.008.016q0 .015-.008.016-.007.001-.008.016 0 .015-.008.016-.007.001-.008.014-.002.018-.016.026c-.008.006-.016.018-.016.026s-.003.014-.008.014q-.007.001-.008.016 0 .015-.008.016-.007.001-.008.016 0 .014-.008.016-.007.001-.008.016 0 .014-.007.016-.008.001-.008.016-.001.014-.008.015-.008.002-.008.016-.001.016-.008.016-.008.002-.008.016-.001.016-.008.016-.008.002-.008.016-.001.016-.008.016-.008.001-.008.016-.001.015-.008.016-.008.001-.008.016-.001.015-.008.016-.008.001-.008.016-.001.015-.008.016-.008.001-.008.016-.001.015-.008.016-.008.001-.008.016-.001.015-.008.016-.01.002-.008.016-.001.015-.008.016-.01.002-.008.016-.001.014-.008.016-.01.003-.008.015-.001.016-.008.017-.01.003-.008.023 0 .022-.008.024c-.004 0-.008.008-.008.016q0 .015-.008.016-.007.001-.008.016 0 .015-.008.016-.007.001-.008.016 0 .015-.008.016-.007.002-.008.024c0 .013-.003.024-.008.024q-.006.001-.007.016t-.008.016-.008.016-.008.016-.008.024c0 .013-.004.024-.008.024q-.008.002-.008.015-.001.016-.008.017-.008.002-.008.023-.001.023-.008.024-.008.002-.008.016-.001.016-.008.016c-.005 0-.008.011-.008.024s-.004.024-.008.024q-.008.001-.008.016-.001.015-.008.016-.008.002-.008.024c0 .013-.004.024-.008.024s-.008.01-.008.024c0 .013-.004.024-.008.024s-.008.01-.008.024c0 .013-.004.024-.008.024s-.008.007-.008.015q0 .016-.008.017-.007.002-.008.023 0 .022-.008.024c-.004 0-.008.011-.008.024s-.003.024-.008.024c-.004 0-.008.011-.008.024s-.003.024-.008.024q-.007.002-.008.024c0 .013-.003.024-.008.024q-.007.002-.008.024c0 .013-.003.024-.008.024q-.007.002-.008.024c0 .013-.003.024-.007.024q-.008.002-.008.024-.001.021-.008.023c-.005 0-.008.011-.008.024q-.001.023-.008.024c-.005 0-.008.015-.008.032s-.004.032-.008.032q-.008.002-.008.024c0 .013-.004.024-.008.024-.005 0-.008.014-.008.032 0 .017-.004.032-.008.032q-.008.002-.008.024c0 .013-.004.024-.008.024-.005 0-.008.014-.008.032 0 .017-.004.031-.008.031-.005 0-.008.011-.008.024q-.001.022-.008.024c-.005 0-.008.015-.008.032s-.004.032-.008.032-.008.015-.008.032-.004.032-.008.032-.008.014-.008.032c0 .017-.004.032-.008.032s-.008.014-.008.032c0 .017-.004.032-.008.032s-.008.018-.008.04c0 .021-.003.04-.008.04-.004 0-.008.014-.008.031s-.003.032-.008.032c-.004 0-.008.015-.008.032s-.003.032-.008.032c-.004 0-.008.018-.008.04s-.003.04-.008.04c-.004 0-.008.018-.008.04 0 .021-.003.04-.008.04-.004 0-.007.017-.007.04 0 .021-.004.04-.008.04-.005 0-.008.02-.008.047s-.004.048-.008.048c-.005 0-.008.018-.008.04s-.004.04-.008.04c-.005 0-.008.021-.008.048 0 .026-.004.047-.008.047-.005 0-.008.022-.008.048s-.004.048-.008.048c-.005 0-.008.024-.008.056s-.004.056-.008.056c-.005 0-.008.024-.008.056s-.004.055-.008.055c-.005 0-.008.027-.008.064s-.003.064-.008.064-.008.03-.008.072-.003.072-.008.072-.008.029-.008.071c0 .043-.003.072-.008.072s-.008.035-.008.088-.003.088-.008.088-.008.04-.008.103c0 .064-.003.104-.008.104a.5.5 0 0 0-.008.136.5.5 0 0 1-.008.135 3 3 0 0 0-.008.335c0 .26-.002.335-.01.339q-.012.004 0 .009c.008.004.01.074.01.315 0 .202.003.31.008.31s.008.054.008.144.003.143.008.143.008.04.008.104.003.104.008.104.008.035.008.088.003.087.008.087.008.03.008.072c0 .043.003.072.008.072s.008.03.008.072.003.072.008.072.008.026.008.063.003.064.008.064c.004 0 .008.027.008.064s.003.064.008.064c.004 0 .008.024.008.056 0 .031.003.055.008.055.004 0 .008.022.008.048s.003.048.008.048c.004 0 .008.024.008.056s.003.056.008.056c.004 0 .008.021.008.048 0 .026.003.047.008.047.004 0 .008.022.008.048s.003.048.008.048c.004 0 .008.018.008.04s.003.04.007.04c.005 0 .008.021.008.048 0 .026.004.048.008.048.005 0 .008.018.008.04 0 .021.004.04.008.04.005 0 .008.017.008.04 0 .021.004.04.008.04.005 0 .008.017.008.04 0 .021.004.039.008.039.005 0 .008.018.008.04s.004.04.008.04c.005 0 .008.014.008.032 0 .017.004.032.008.032.005 0 .008.018.008.04 0 .021.004.04.008.04s.008.014.008.031.004.032.008.032.008.018.008.04.003.04.008.04c.004 0 .008.014.008.032 0 .017.003.032.008.032.004 0 .008.014.008.032 0 .017.003.031.008.031.004 0 .008.015.008.032s.003.032.008.032c.004 0 .008.015.008.032s.003.032.008.032c.004 0 .008.014.008.032s.003.032.008.032c.004 0 .008.014.008.032 0 .017.003.032.008.032.004 0 .008.014.008.032 0 .017.003.032.008.032.004 0 .008.014.008.031s.003.032.008.032c.004 0 .007.015.007.032s.004.032.008.032c.005 0 .008.011.008.024s.004.024.008.024c.005 0 .008.014.008.032 0 .017.004.032.008.032q.008.002.008.024c0 .013.004.024.008.024.005 0 .008.014.008.032 0 .017.004.032.008.032q.008.002.008.023.001.023.008.024c.005 0 .008.015.008.032s.004.032.008.032.008.011.008.024.004.024.008.024.008.01.008.024c0 .013.004.024.008.024s.008.01.008.024c0 .013.004.024.008.024s.008.014.008.032c0 .017.004.032.008.032s.008.01.008.024q0 .021.008.023c.004 0 .008.011.008.024q0 .023.008.024c.004 0 .008.011.008.024s.003.024.008.024q.007.002.008.024c0 .013.003.024.008.024q.007.002.008.024c0 .013.003.024.008.024q.007.002.008.024c0 .013.003.024.008.024q.007.002.008.024c0 .013.003.024.007.024q.008.002.008.023.001.022.008.024c.005 0 .008.011.008.024s.004.024.008.024c.005 0 .008.011.008.024s.004.024.008.024q.008.002.008.024c0 .013.004.024.008.024q.008.002.008.024c0 .013.004.024.008.024q.008.002.008.024c0 .013.004.024.008.024q.008.001.008.016.001.014.008.016.01.003.008.024.001.021.008.023.01.004.008.024 0 .022.008.024c.004 0 .008.011.008.024s.003.024.008.024q.007.001.008.016 0 .015.008.016.007.002.008.024c0 .013.003.024.008.024q.007.002.008.024c0 .013.003.024.008.024q.007.001.008.016 0 .014.008.016.007.001.008.024c0 .013.003.024.008.024q.007.002.008.023 0 .023.008.024.007.002.008.016 0 .016.008.016c.004 0 .007.011.007.024s.004.024.008.024q.008.001.008.016.001.015.008.016.008.002.008.024c0 .013.004.024.008.024q.008.001.008.016.001.015.008.016.008.002.008.024c0 .013.004.024.008.024q.008.001.008.016c0 .008.004.016.008.016q.008.002.008.023.001.023.008.024.008.002.008.016.001.016.008.016c.007 0 .008.011.008.024q.001.023.008.024.01.002.008.016.001.015.008.016.01.002.008.016.001.015.008.016.01.002.008.024c0 .013.003.024.008.024q.007.001.008.016 0 .015.008.016.007.001.008.016 0 .015.008.016.007.002.008.024c0 .013.003.024.008.024q.007.002.008.015 0 .016.008.017.007.002.008.015 0 .016.008.016c.004 0 .008.011.008.024q0 .023.008.024.006.001.007.016t.008.016.008.016.008.016.008.016.008.016.008.024c0 .013.004.024.008.024q.008.001.008.016c0 .008.004.016.008.016q.008.001.008.016c0 .008.004.016.008.016q.008.001.008.016.001.013.008.015.01.004.008.024.001.022.008.024.01.003.008.016.001.016.008.016.01.002.008.016.001.015.008.016.01.002.008.016 0 .015.008.016.007.001.008.016 0 .015.008.016.007.001.008.016 0 .015.008.016.007.002.008.024c0 .013.003.024.008.024q.007.001.008.016 0 .015.008.016.007.001.008.016 0 .014.008.016.007.002.008.015 0 .016.008.017.007.001.008.015 0 .015.007.016.008.002.008.016.001.016.008.016.008.002.008.016.001.015.008.016.008.001.008.016.001.015.008.016.008.001.008.016.001.015.008.016.008.001.008.016.001.015.008.016.008.001.008.016.001.015.008.016.008.001.008.016.001.015.008.016.01.002.008.016.001.014.008.016.01.003.008.016c0 .008.003.016.008.016q.007.002.008.015 0 .015.008.016c.004 0 .008.008.008.016q0 .015.008.016c.004 0 .008.008.008.016q0 .015.008.016.007.001.008.016 0 .015.008.016.007.001.008.016 0 .015.008.016.007.001.008.016 0 .015.008.016.007.001.008.016 0 .015.008.016.007.001.008.016 0 .015.008.016.007.001.007.016.001.014.008.016.008.001.008.016.001.014.008.016.008.002.008.015.001.016.008.017.008.002.008.015.001.015.008.016.008.002.008.015c0 .007.007.019.016.025q.015.012.016.026c.001.014.004.014.008.014s.008.007.008.016q.001.015.008.016.01.002.008.016.001.015.008.016.01.002.008.016.001.015.008.016.01.002.008.016.001.015.008.016.01.002.008.014c-.002.012.007.02.016.026.008.006.016.018.016.025q0 .013.008.014.007.002.008.017 0 .014.008.015.007.002.008.016 0 .016.008.016.006.002.007.016.001.016.008.016.008.002.008.014c0 .008.008.02.016.026.01.006.016.018.016.026s.004.014.008.014q.008.001.008.016.001.015.008.016.008.001.008.014.001.018.016.026c.009.006.016.018.016.026q.001.012.008.014.008.001.008.016c0 .008.004.016.008.016s.008.007.008.015q.001.016.008.016.01.002.008.015c-.002.013.007.019.016.025q.015.012.016.026c.001.014.003.014.008.014q.007.001.008.016 0 .015.008.016.007.002.008.014c0 .008.007.02.016.026.008.006.016.018.016.026s.003.014.008.014q.007.001.008.016 0 .015.007.016.008.001.008.014.002.018.017.026c.008.006.015.018.015.025q.001.013.008.015.008.001.008.014.002.019.016.025.015.012.016.026c.001.014.004.014.008.014q.008.002.008.015c0 .007.007.019.016.025q.015.012.016.026c.001.014.004.014.008.014s.008.006.008.014.007.02.016.026.016.018.016.026.004.014.008.014.008.006.008.014.007.02.016.026c.008.006.016.018.016.025q0 .013.008.015.007.001.008.014.002.018.016.026c.008.006.015.017.015.023 0 .007.008.018.016.024q.015.012.016.026c.001.014.004.014.008.014q.008.002.008.014c0 .008.008.02.016.026.01.006.016.017.016.024s.007.018.016.024.016.018.016.026.004.014.008.014q.008.001.008.014.001.018.016.026c.009.006.016.017.016.024s.007.017.016.024.016.017.016.023c0 .007.007.018.016.024q.015.012.016.024c0 .007.007.018.016.024.008.007.016.017.016.024s.007.018.016.024c.008.006.015.017.015.024s.008.018.017.024c.008.006.015.017.015.024s.008.017.016.024c.01.006.016.017.016.024q.002.012.016.024c.009.006.016.017.016.024s.007.017.016.024.016.017.016.024.007.017.016.023c.009.007.016.018.016.024s.007.018.016.024q.015.012.016.023c0 .006.01.02.024.033.013.012.024.027.024.033s.007.017.016.023c.008.006.016.016.016.023s.01.02.024.033c.013.012.023.027.023.033q.002.01.016.023.015.011.016.022.003.015.024.034c.013.012.024.026.024.031s.01.02.024.032c.013.013.024.027.024.032s.01.02.024.032c.013.012.024.027.024.032s.01.02.024.032c.013.012.024.026.024.032 0 .005.01.02.024.032.013.012.023.026.023.031s.015.024.032.04c.018.017.032.035.032.04s.014.023.032.04.032.035.032.04.018.027.04.048.04.043.04.048.018.026.04.048c.021.021.04.043.04.048 0 .004.02.03.047.055a.2.2 0 0 1 .048.056c0 .005.032.04.072.08a.5.5 0 0 1 .072.08c0 .01.467.478.478.478a.4.4 0 0 1 .064.056.3.3 0 0 0 .063.056c.005 0 .03.022.056.048a.3.3 0 0 0 .056.048c.005 0 .023.014.04.032a.1.1 0 0 0 .04.032c.005 0 .02.01.032.023.012.014.026.024.031.024s.024.015.04.032c.017.018.036.032.042.032s.016.007.022.016.017.016.023.016.02.01.033.024c.012.013.027.024.033.024q.01.001.023.016c.006.009.017.016.024.016q.012.001.024.016c.006.009.017.016.023.016.007 0 .018.007.024.016.007.008.018.016.024.016s.018.007.024.016q.012.014.026.016c.014.002.014.003.014.007q.001.008.014.008.018.002.026.017c.006.008.018.015.026.015q.012.001.014.008.001.008.014.008c.013 0 .02.008.026.016.006.01.018.016.025.016q.013.001.014.008c0 .005.008.008.016.008q.016.001.016.008.002.008.015.008c.007 0 .019.007.025.016q.012.015.026.016c.014.001.014.004.014.008q.001.008.016.008.015.001.016.008.002.01.016.008.015.001.016.008.002.01.016.008.015.001.016.008.002.01.016.008.014 0 .016.008.001.007.016.008.013 0 .015.008c0 .004.011.008.024.008q.023 0 .024.008.002.007.016.008.015 0 .016.008.001.007.016.008.015 0 .016.008.001.007.016.008.015 0 .016.008.001.007.024.008c.013 0 .024.003.024.008q.001.007.016.008.015 0 .016.008.001.007.024.008c.013 0 .024.003.024.008q.002.007.024.008.021 0 .023.007c0 .005.011.008.024.008q.022.001.024.008c0 .005.011.008.024.008s.024.004.024.008q.002.008.024.008c.013 0 .024.004.024.008q.002.008.024.008c.013 0 .024.004.024.008 0 .005.014.008.032.008.017 0 .032.004.032.008 0 .005.014.008.031.008s.032.004.032.008c0 .005.015.008.032.008s.032.004.032.008c0 .005.018.008.04.008s.04.004.04.008.018.008.04.008c.021 0 .04.004.04.008 0 .005.023.008.055.008s.056.003.056.008.035.008.088.008.087.003.087.008.067.008.184.008a1 1 0 0 0 .183-.008c0-.005.035-.008.088-.008s.088-.003.088-.008.023-.008.055-.008.056-.003.056-.008c0-.004.021-.008.048-.008.026 0 .048-.004.048-.008s.018-.008.04-.008.04-.004.04-.008.017-.008.04-.008c.021 0 .04-.003.04-.008 0-.004.017-.008.04-.008.021 0 .039-.003.039-.008 0-.004.014-.008.032-.008.017 0 .032-.003.032-.008 0-.004.014-.008.032-.008.017 0 .031-.003.031-.008 0-.004.015-.008.032-.008s.032-.003.032-.008c0-.004.015-.008.032-.008s.032-.003.032-.008q.002-.007.024-.008c.013 0 .024-.003.024-.008 0-.004.014-.008.032-.008.017 0 .032-.003.032-.008q.002-.007.024-.008c.013 0 .024-.003.024-.008q.002-.006.023-.007.022-.001.024-.008c0-.005.011-.008.024-.008s.024-.004.024-.008c0-.005.015-.008.032-.008s.032-.004.032-.008q.002-.008.024-.008c.013 0 .024-.004.024-.008q.002-.008.024-.008c.013 0 .024-.004.024-.008q.002-.008.015-.008.015-.001.016-.008c0-.005.011-.008.024-.008q.022-.001.024-.008c0-.005.011-.008.024-.008s.024-.004.024-.008q.002-.008.024-.008c.013 0 .024-.004.024-.008s.01-.008.024-.008c.013 0 .024-.004.024-.008s.007-.008.016-.008q.015-.001.016-.008.002-.01.024-.008c.013 0 .024-.004.024-.008s.01-.008.023-.008q.023 0 .024-.008c0-.004.008-.008.016-.008q.015 0 .016-.008c0-.004.011-.008.024-.008s.024-.003.024-.008q.001-.007.016-.008.015 0 .016-.008.002-.007.024-.008c.013 0 .024-.003.024-.008q.001-.007.016-.008.015 0 .016-.008.002-.007.023-.008.023 0 .024-.008.002-.007.016-.008.016 0 .016-.008c0-.004.011-.008.024-.008s.024-.003.024-.008q.001-.006.016-.007t.016-.008.024-.008c.013 0 .024-.004.024-.008q.001-.008.016-.008.015-.001.016-.008.002-.008.024-.008c.013 0 .024-.004.024-.008q.001-.008.016-.008.013-.001.015-.008c0-.005.011-.008.024-.008q.022-.001.024-.008c0-.005.011-.008.024-.008s.024-.004.024-.008q.001-.008.016-.008.015-.001.016-.008.002-.008.024-.008c.013 0 .024-.004.024-.008s.01-.008.024-.008c.013 0 .024-.004.024-.008s.01-.008.024-.008c.013 0 .024-.004.024-.008s.01-.008.023-.008q.023-.001.024-.008.003-.01.024-.008c.013 0 .024-.004.024-.008s.011-.008.024-.008.024-.003.024-.008q.002-.007.024-.008c.013 0 .024-.003.024-.008q.002-.007.024-.008c.013 0 .024-.003.024-.008q.002-.007.024-.008c.013 0 .024-.003.024-.008q.002-.007.023-.008.023 0 .024-.008c0-.004.015-.008.032-.008s.032-.003.032-.008q.002-.007.024-.008c.013 0 .024-.003.024-.008 0-.004.014-.008.032-.008.017 0 .032-.003.032-.008q.002-.006.024-.007c.013 0 .024-.004.024-.008 0-.005.014-.008.031-.008s.032-.004.032-.008c0-.005.015-.008.032-.008s.032-.004.032-.008c0-.005.018-.008.04-.008s.04-.004.04-.008c0-.005.014-.008.032-.008.017 0 .032-.004.032-.008 0-.005.017-.008.04-.008.021 0 .04-.004.04-.008 0-.005.017-.008.04-.008.021 0 .039-.004.039-.008 0-.005.021-.008.048-.008.026 0 .048-.004.048-.008 0-.005.02-.008.047-.008s.048-.004.048-.008c0-.005.024-.008.056-.008s.056-.003.056-.008.032-.008.08-.008c.047 0 .08-.003.08-.008s.119-.008.342-.008.343.003.343.008.032.008.08.008c.047 0 .08.003.08.008s.026.008.063.008.064.003.064.008.024.008.056.008.056.003.056.008c0 .004.02.008.047.008s.048.003.048.008c0 .004.018.008.04.008s.04.003.04.008c0 .004.018.008.04.008s.04.003.04.008c0 .004.018.008.04.008.021 0 .04.003.04.008 0 .004.017.008.04.008.021 0 .039.003.039.008 0 .004.014.008.032.008s.032.003.032.008c0 .004.014.008.032.008.017 0 .032.003.032.008 0 .004.014.008.032.008.017 0 .031.003.031.008 0 .004.015.008.032.008s.032.003.032.008c0 .004.014.007.032.007s.032.004.032.008c0 .005.014.008.032.008.017 0 .032.004.032.008 0 .005.014.008.032.008.017 0 .031.004.031.008 0 .005.011.008.024.008q.022.001.024.008c0 .005.015.008.032.008s.032.004.032.008q.002.008.024.008c.013 0 .024.004.024.008q.002.008.024.008c.013 0 .024.004.024.008 0 .005.014.008.032.008.017 0 .032.004.032.008q.002.008.023.008.022.001.024.008c0 .005.011.008.024.008s.024.004.024.008.01.008.024.008c.013 0 .024.004.024.008s.01.008.024.008c.013 0 .024.003.024.008q.001.007.024.008c.013 0 .024.003.024.008q.001.007.024.008.021 0 .023.008c0 .004.011.008.024.008q.023 0 .024.008c0 .004.011.008.024.008s.024.003.024.008q.002.007.024.008c.013 0 .024.003.024.008q.001.007.016.008.015 0 .016.008.002.007.024.008c.013 0 .024.003.024.008q.002.007.024.008.021 0 .023.007c0 .005.011.008.024.008q.023 0 .024.009c0 .004.011.008.024.008s.024.003.024.007q.002.008.024.008c.013 0 .024.004.024.008q.002.008.024.008c.013 0 .024.004.024.008q.001.008.016.008.015.001.016.008.002.008.024.008.021.001.023.008c0 .005.011.008.024.008q.022.001.024.008c0 .005.011.008.024.008s.024.004.024.008c0 .005.011.008.024.008s.024.004.024.008c0 .005.014.008.032.008.017 0 .032.004.032.008q.002.008.024.008c.013 0 .024.004.024.008s.01.008.023.008q.023.001.024.008.003.01.024.008.023.001.024.008.003.01.024.008c.013 0 .024.003.024.008 0 .004.015.008.032.008s.032.003.032.008q.001.007.024.008c.013 0 .024.003.024.008 0 .004.014.008.032.008.017 0 .031.003.031.008 0 .004.011.008.024.008q.022 0 .024.008c0 .004.015.008.032.008s.032.003.032.008c0 .004.014.008.032.008.017 0 .032.003.032.008 0 .004.014.008.032.008.017 0 .032.003.032.008 0 .004.014.008.031.008s.032.003.032.008c0 .004.015.008.032.008s.032.003.032.007c0 .005.014.008.032.008s.032.004.032.008c0 .005.018.008.04.008s.04.004.04.008c0 .005.018.008.04.008.021 0 .04.004.04.008 0 .005.017.008.04.008.021 0 .04.004.04.008 0 .005.02.008.047.008s.048.004.048.008c0 .005.021.008.048.008.026 0 .047.004.047.008 0 .005.027.008.064.008s.064.004.064.008c0 .005.032.008.08.008s.08.003.08.008.071.008.199.008c.127 0 .199-.003.199-.008s.032-.008.08-.008.08-.003.08-.008c0-.004.023-.008.055-.008s.056-.003.056-.008c0-.004.018-.008.04-.008s.04-.003.04-.008c0-.004.018-.008.04-.008s.04-.003.04-.008c0-.004.014-.008.031-.008s.032-.003.032-.008c0-.004.015-.008.032-.008s.032-.003.032-.008q.002-.007.024-.008c.013 0 .024-.003.024-.008q.002-.007.024-.008c.013 0 .024-.003.024-.008q.002-.007.024-.008.021 0 .023-.008c0-.004.011-.008.024-.008q.022 0 .024-.008c0-.004.011-.007.024-.007s.024-.004.024-.008q.002-.008.024-.008c.013 0 .024-.004.024-.008q.001-.008.016-.008.015-.001.016-.008.002-.008.024-.008c.013 0 .024-.004.024-.008q.001-.008.016-.008.014-.001.016-.008.002-.008.015-.008.016-.001.016-.008c0-.005.011-.008.024-.008q.023-.001.024-.008c0-.005.008-.008.016-.008q.015-.001.016-.008.001-.008.016-.008.015-.001.016-.008.002-.01.016-.008.015-.001.016-.008.002-.01.016-.008.015-.001.016-.008.002-.01.016-.008.015-.001.016-.008.002-.01.016-.008c.008 0 .016-.003.016-.008q.001-.007.014-.008a.03.03 0 0 0 .025-.016c.007-.008.018-.016.026-.016s.014-.003.014-.008q.002-.007.016-.008.015 0 .016-.008.001-.007.016-.008.015 0 .016-.008.002-.007.014-.008c.008 0 .02-.007.026-.016.006-.008.018-.016.026-.016q.012 0 .014-.008.001-.006.014-.007.018-.003.026-.016c.006-.01.017-.016.024-.016s.017-.008.023-.016c.007-.01.018-.016.024-.016s.018-.007.024-.016q.012-.015.024-.016c.007 0 .018-.007.024-.016s.017-.016.024-.016.018-.007.024-.016q.01-.015.023-.016c.006 0 .02-.01.033-.024.012-.013.026-.024.032-.024.005 0 .02-.01.032-.024.012-.013.026-.024.032-.024.005 0 .02-.01.031-.024.013-.013.027-.024.032-.024a.1.1 0 0 0 .04-.031c.017-.018.035-.032.04-.032a.1.1 0 0 0 .04-.032c.017-.018.035-.032.04-.032s.03-.022.056-.048a.3.3 0 0 1 .055-.048.6.6 0 0 0 .088-.08 5 5 0 0 0 .407-.399c0-.004.043-.05.095-.103a1 1 0 0 0 .096-.104c0-.005.021-.03.048-.056a.3.3 0 0 0 .047-.056c0-.004.022-.03.048-.055a.3.3 0 0 0 .048-.056c0-.005.018-.027.04-.048a.2.2 0 0 0 .04-.048c0-.005.014-.023.032-.04a.1.1 0 0 0 .032-.04c0-.005.014-.023.032-.04.017-.016.031-.034.031-.04s.015-.022.032-.04c.018-.016.032-.034.032-.04s.011-.019.024-.031.024-.027.024-.032.01-.02.024-.032c.013-.012.024-.026.024-.032 0-.005.01-.02.024-.032.013-.012.024-.026.024-.032 0-.005.01-.02.024-.031.013-.013.024-.027.024-.032s.01-.02.023-.032c.014-.013.024-.028.024-.034q.002-.011.016-.022c.01-.006.016-.017.016-.023s.011-.02.024-.033c.013-.012.024-.027.024-.033s.007-.017.016-.023.016-.017.016-.024q.001-.012.016-.024c.009-.006.016-.016.016-.022s.01-.021.024-.034c.013-.012.024-.027.024-.033s.007-.016.016-.022q.014-.012.015-.024c0-.007.008-.018.017-.024.008-.006.015-.017.015-.024s.008-.018.016-.024c.01-.006.016-.017.016-.024s.008-.018.016-.024.016-.017.016-.024q.001-.012.016-.024c.009-.006.016-.017.016-.024s.007-.017.016-.024.016-.017.016-.023c0-.007.007-.018.016-.024s.016-.018.016-.024.007-.018.016-.024q.015-.012.016-.024c0-.007.007-.018.016-.024.008-.006.016-.018.016-.026s.003-.014.008-.014q.007-.001.008-.014a.03.03 0 0 1 .015-.026c.01-.006.016-.017.016-.024q.002-.012.016-.024c.01-.006.016-.017.016-.024q.002-.012.016-.024c.01-.006.016-.018.016-.025q.001-.013.008-.014.008-.002.008-.015.001-.019.016-.025c.009-.007.016-.018.016-.024s.007-.018.016-.024q.015-.012.016-.026c.001-.014.003-.014.008-.014q.007-.001.008-.014.002-.018.016-.026c.009-.006.016-.018.016-.026s.003-.014.008-.014q.007-.001.008-.014.002-.018.016-.026c.008-.006.016-.017.016-.024q.001-.012.016-.024.014-.011.015-.025c.001-.014.004-.015.008-.015q.008-.001.008-.014c0-.013.008-.02.016-.025q.015-.012.016-.026c.001-.014.004-.014.008-.014q.008-.002.008-.015c0-.007.008-.019.016-.025q.015-.012.016-.026c.001-.014.004-.014.008-.014q.008-.001.008-.016.001-.015.008-.016.008-.001.008-.014.001-.018.016-.026c.009-.006.016-.018.016-.026q0-.012.008-.014.007-.001.008-.014.002-.018.016-.026c.009-.006.016-.018.016-.025q0-.013.008-.014.007-.002.008-.016 0-.015.008-.016.007-.002.008-.015c0-.007.007-.019.016-.025q.014-.012.015-.026c.001-.014.004-.014.008-.014q.008-.001.008-.016t.009-.016q.006-.001.007-.016t.008-.016q.008-.001.008-.014c0-.013.008-.02.016-.026.01-.006.016-.018.016-.025q.001-.013.008-.015.008-.001.008-.016c0-.008.004-.016.008-.016q.008-.001.008-.016.001-.014.008-.015.008-.002.008-.017.001-.014.008-.015.01-.002.008-.015c0-.007.007-.019.016-.025q.015-.012.016-.026c.001-.014.003-.014.008-.014q.007-.001.008-.016 0-.015.008-.016.007-.001.008-.016 0-.015.008-.016.007-.001.008-.016 0-.015.008-.016.007-.001.008-.016 0-.015.008-.016.007-.001.008-.016 0-.015.008-.016.007-.001.008-.014a.03.03 0 0 1 .015-.026c.01-.006.017-.017.017-.025s.003-.015.007-.015q.008-.002.008-.015.001-.015.008-.016c.005 0 .008-.008.008-.016q.001-.015.008-.016c.005 0 .008-.008.008-.016q.001-.015.008-.016.008-.001.008-.016.001-.015.008-.016.008-.001.008-.016.001-.015.008-.016.008-.001.008-.016.001-.015.008-.016.008-.001.008-.016.001-.015.008-.016.01-.002.008-.016.001-.014.008-.016.01-.003.008-.016 0-.014.008-.016.007-.001.008-.016t.008-.015q.01-.003.008-.016 0-.016.008-.016.007-.002.008-.016 0-.015.008-.016.007-.002.008-.016 0-.016.008-.016.007-.001.008-.016 0-.015.008-.016.007-.002.008-.024c0-.013.003-.024.008-.024q.007-.001.008-.016 0-.015.008-.016.007-.001.008-.016 0-.015.008-.016.007-.001.007-.016c0-.008.004-.016.008-.016q.008-.001.008-.016c0-.008.004-.016.008-.016q.008-.001.008-.016.001-.013.008-.015.008-.002.008-.017.001-.014.008-.015c.005 0 .008-.011.008-.024q.001-.023.008-.024c.005 0 .008-.008.008-.016q.001-.015.008-.016.008-.001.008-.016.001-.015.008-.016.008-.001.008-.016.001-.015.008-.016.01-.002.008-.016.001-.015.008-.016.01-.002.008-.024c0-.013.003-.024.008-.024q.007-.001.008-.016c0-.008.003-.016.008-.016q.007-.001.008-.016c0-.008.003-.016.008-.016q.007-.002.008-.024 0-.021.008-.023.007-.002.008-.016 0-.015.008-.016.007-.002.008-.016 0-.016.008-.016c.004 0 .008-.011.008-.024s.003-.024.008-.024q.007-.001.008-.016 0-.015.008-.016.007-.002.008-.024c0-.013.003-.024.007-.024q.008-.001.008-.016.001-.015.008-.016.008-.001.008-.016c0-.008.004-.016.008-.016q.008-.002.008-.024.001-.021.008-.023.008-.002.008-.017.001-.013.008-.015c.005 0 .008-.011.008-.024s.004-.024.008-.024c.005 0 .008-.008.008-.016q.001-.015.008-.016c.005 0 .008-.011.008-.024s.004-.024.008-.024.008-.01.008-.024c0-.013.004-.024.008-.024s.008-.007.008-.016q.001-.015.008-.016.01-.002.008-.024c0-.013.004-.024.008-.024s.008-.01.008-.024q0-.021.008-.023c.004 0 .008-.008.008-.016q0-.016.008-.016c.004 0 .008-.011.008-.024q0-.023.008-.024c.004 0 .008-.011.008-.024s.003-.024.008-.024q.007-.002.008-.024c0-.013.003-.024.008-.024q.007-.002.008-.024c0-.013.003-.024.008-.024q.007-.001.008-.016 0-.015.008-.016.007-.002.008-.024c0-.013.003-.024.007-.024q.008-.002.008-.024.001-.021.008-.023c.005 0 .008-.011.008-.024q.001-.023.008-.024c.005 0 .008-.011.008-.024s.004-.024.008-.024c.005 0 .008-.011.008-.024s.004-.024.008-.024c.005 0 .008-.014.008-.032s.004-.032.008-.032q.008-.002.008-.023c0-.021.005-.025.01-.027.016-.005-.014-.03-.037-.03q-.019 0-.02-.008c0-.004-.012-.008-.025-.008s-.024-.003-.024-.008q-.002-.007-.024-.008-.021 0-.023-.008c0-.004-.011-.008-.024-.008s-.024-.003-.024-.008q-.001-.006-.016-.007t-.016-.008q-.001-.008-.024-.008c-.013 0-.024-.004-.024-.008q-.001-.008-.024-.008c-.013 0-.024-.004-.024-.008q-.001-.008-.016-.008-.015-.001-.016-.008-.001-.008-.016-.008-.014-.001-.015-.008c0-.005-.011-.008-.024-.008q-.023-.001-.024-.008-.002-.008-.016-.008-.016-.001-.016-.008-.001-.008-.016-.008-.015-.001-.016-.008-.001-.008-.016-.008-.015-.001-.016-.008-.002-.01-.016-.008-.015-.001-.016-.008-.002-.01-.016-.008-.015 0-.016-.008-.001-.007-.016-.008c-.008 0-.016-.003-.016-.008q-.001-.007-.016-.008c-.008 0-.016-.003-.016-.008q-.002-.007-.015-.008-.015 0-.016-.008c0-.004-.008-.008-.016-.008q-.015 0-.016-.008-.002-.007-.014-.008c-.008 0-.02-.007-.026-.016-.006-.008-.018-.016-.026-.016s-.014-.003-.014-.008q-.001-.007-.016-.008-.015 0-.016-.008-.001-.007-.014-.008a.03.03 0 0 1-.026-.015c-.006-.01-.017-.016-.024-.016s-.017-.008-.024-.016q-.011-.015-.025-.016c-.014-.001-.015-.004-.015-.008q-.001-.008-.014-.008c-.013 0-.019-.008-.025-.016q-.012-.015-.024-.016c-.007 0-.018-.007-.024-.016s-.017-.016-.023-.016-.02-.01-.033-.024c-.012-.013-.027-.024-.033-.024q-.01-.001-.023-.016-.011-.015-.022-.016c-.006 0-.021-.01-.034-.024-.012-.013-.026-.024-.031-.024s-.023-.014-.04-.032a.1.1 0 0 0-.04-.032.1.1 0 0 1-.04-.031c-.017-.018-.035-.032-.04-.032a.3.3 0 0 1-.064-.056 4 4 0 0 1-.291-.275 4 4 0 0 1-.275-.291.3.3 0 0 1-.055-.064.2.2 0 0 0-.04-.048.2.2 0 0 1-.04-.048.1.1 0 0 0-.032-.04c-.018-.017-.032-.035-.032-.04s-.01-.02-.024-.032c-.013-.012-.024-.026-.024-.032 0-.005-.01-.02-.024-.032-.013-.012-.024-.026-.024-.031s-.01-.02-.024-.032c-.013-.013-.023-.027-.023-.032s-.011-.02-.024-.032-.024-.027-.024-.032-.011-.02-.024-.032-.024-.027-.024-.033q-.001-.01-.016-.023c-.009-.006-.016-.017-.016-.024s-.007-.017-.016-.024-.016-.017-.016-.023c0-.007-.007-.018-.016-.024s-.016-.018-.016-.024-.007-.018-.016-.024c-.008-.007-.016-.017-.016-.024s-.007-.018-.016-.024q-.014-.012-.015-.024c0-.007-.008-.018-.016-.024-.01-.006-.016-.017-.016-.024s-.008-.018-.016-.024a.03.03 0 0 1-.016-.026q-.001-.012-.008-.014-.008-.001-.008-.014-.001-.018-.016-.026-.015-.011-.016-.025c-.001-.014-.004-.015-.008-.015q-.008-.001-.008-.014-.001-.019-.016-.025-.015-.012-.016-.026c-.001-.014-.003-.014-.008-.014-.004 0-.008-.008-.008-.016q0-.015-.008-.016-.007-.002-.008-.014c0-.008-.007-.02-.016-.026s-.016-.018-.016-.026-.003-.014-.008-.014q-.007-.001-.008-.016 0-.015-.008-.016-.007-.001-.008-.016 0-.015-.008-.016-.007-.001-.008-.016 0-.015-.008-.016-.007-.001-.008-.016c0-.008-.003-.016-.008-.016q-.006-.001-.007-.016-.001-.013-.008-.015c-.005 0-.008-.008-.008-.016q-.001-.016-.008-.016-.008-.002-.008-.016-.001-.015-.008-.016c-.005 0-.008-.008-.008-.016q-.001-.015-.008-.016-.008-.001-.008-.016-.001-.015-.008-.016-.008-.001-.008-.016-.001-.015-.008-.016-.008-.001-.008-.016-.001-.015-.008-.016-.01-.002-.008-.016-.001-.015-.008-.016-.01-.002-.008-.016-.001-.015-.008-.016-.01-.002-.008-.016c0-.008-.003-.016-.008-.016q-.007-.002-.008-.024c0-.013-.004-.024-.008-.024s-.008-.007-.008-.015q0-.016-.008-.016c-.004 0-.008-.008-.008-.016q0-.016-.008-.016c-.004 0-.008-.011-.008-.024s-.003-.024-.008-.024q-.007-.001-.008-.016 0-.015-.008-.016-.007-.002-.008-.024c0-.013-.003-.024-.008-.024q-.007-.001-.008-.016 0-.015-.008-.016-.007-.002-.008-.024c0-.013-.003-.024-.008-.024q-.007-.001-.007-.016c0-.008-.004-.016-.008-.016q-.008-.002-.008-.023-.001-.023-.008-.024c-.005 0-.008-.011-.008-.024s-.004-.024-.008-.024c-.005 0-.008-.011-.008-.024s-.004-.024-.008-.024q-.008-.002-.008-.024c0-.013-.004-.024-.008-.024q-.008-.002-.008-.024c0-.013-.004-.024-.008-.024q-.008-.002-.008-.024c0-.013-.004-.024-.008-.024s-.008-.01-.008-.024c0-.013-.004-.024-.008-.024s-.008-.01-.008-.023q-.001-.023-.008-.024c-.007-.001-.008-.015-.008-.032s-.003-.032-.008-.032c-.004 0-.008-.011-.008-.024s-.003-.024-.008-.024c-.004 0-.008-.015-.008-.032s-.003-.032-.008-.032c-.004 0-.008-.014-.008-.032 0-.017-.003-.032-.008-.032-.004 0-.008-.014-.008-.032 0-.017-.003-.032-.008-.032-.004 0-.008-.014-.008-.031s-.003-.032-.008-.032c-.004 0-.008-.018-.008-.04s-.003-.04-.008-.04c-.004 0-.008-.014-.008-.032s-.003-.032-.007-.032c-.005 0-.009-.018-.009-.04s-.003-.04-.007-.04c-.005 0-.008-.02-.008-.047s-.004-.048-.008-.048c-.005 0-.008-.022-.008-.048s-.004-.048-.008-.048c-.005 0-.008-.024-.008-.056s-.004-.056-.008-.056c-.005 0-.008-.024-.008-.056 0-.031-.004-.055-.008-.055-.005 0-.008-.03-.008-.072 0-.043-.003-.072-.008-.072s-.008-.037-.008-.096c0-.058-.003-.095-.008-.095s-.008-.077-.008-.216c0-.138-.003-.215-.008-.215s-.008-.021-.008-.048.003-.048.008-.048.008-.072.008-.2c0-.127.003-.199.008-.199s.008-.034.008-.087c0-.054.003-.088.008-.088s.008-.03.008-.072c0-.043.003-.072.008-.072.004 0 .008-.024.008-.056s.003-.055.008-.055c.004 0 .008-.022.008-.048s.003-.048.008-.048c.004 0 .008-.021.008-.048 0-.026.003-.048.008-.048.004 0 .008-.018.008-.04s.003-.04.008-.04c.004 0 .008-.017.008-.04 0-.021.003-.04.008-.04.004 0 .008-.014.008-.031s.003-.032.008-.032c.004 0 .007-.018.007-.04s.004-.04.008-.04c.005 0 .008-.014.008-.032 0-.017.004-.032.008-.032q.008-.002.008-.024c0-.013.004-.024.008-.024.005 0 .008-.014.008-.032 0-.017.004-.031.008-.031.005 0 .008-.015.008-.032s.004-.032.008-.032c.005 0 .008-.011.008-.024s.004-.024.008-.024q.008-.002.008-.024c0-.013.004-.024.008-.024s.008-.01.008-.024c0-.013.004-.024.008-.024s.008-.01.008-.024c0-.013.004-.024.008-.024s.008-.01.008-.024c0-.013.004-.024.008-.024s.008-.01.008-.023q0-.022.008-.024c.004 0 .008-.011.008-.024s.003-.024.008-.024c.004 0 .008-.011.008-.024s.003-.024.008-.024q.007-.001.008-.016 0-.015.008-.016.007-.002.008-.024c0-.013.003-.024.008-.024q.007-.002.008-.024c0-.013.003-.024.008-.024q.007-.001.008-.016 0-.014.008-.016.007-.002.008-.015 0-.016.007-.016c.005 0 .008-.011.008-.024q.001-.023.008-.024.008-.002.008-.016.001-.016.008-.016.008-.001.008-.016.001-.015.008-.016.008-.002.008-.024c0-.013.004-.024.008-.024q.008-.001.008-.016.001-.015.008-.016.008-.001.008-.016.001-.015.008-.016.008-.001.008-.016c0-.008.004-.016.008-.016s.008-.007.008-.016c0-.008.004-.016.008-.016s.008-.007.008-.016q.001-.013.008-.015.01-.003.008-.017 0-.014.008-.015c.004 0 .008-.008.008-.016q0-.016.008-.016c.004 0 .008-.008.008-.016q0-.016.008-.016.007-.001.008-.016 0-.015.008-.016.007-.001.008-.016 0-.015.008-.016.007-.001.008-.016 0-.015.008-.016.007-.001.008-.016 0-.015.008-.016.007-.001.008-.014a.03.03 0 0 1 .015-.026c.01-.006.016-.018.016-.025q.001-.014.008-.015.008-.001.008-.016c0-.008.004-.016.008-.016q.008-.001.008-.014.001-.019.016-.025.015-.012.016-.026c.001-.014.004-.014.008-.014q.008-.002.008-.014c0-.008.007-.02.016-.026s.016-.018.016-.026.004-.014.008-.014.008-.006.008-.014.007-.02.016-.026.016-.017.016-.024.007-.018.016-.024.016-.017.016-.024q.001-.012.016-.024c.008-.006.016-.017.016-.024s.007-.017.016-.024c.008-.006.015-.017.015-.023 0-.007.008-.018.016-.024q.015-.012.016-.024c0-.007.008-.018.016-.024.01-.006.016-.017.016-.024s.007-.018.016-.024q.015-.01.016-.023c0-.006.01-.02.024-.033.013-.012.024-.027.024-.032s.01-.02.024-.032c.013-.012.024-.026.024-.032 0-.005.01-.02.024-.032.013-.012.024-.026.024-.031s.014-.023.032-.04a.1.1 0 0 0 .031-.04c0-.005.018-.027.04-.048a.2.2 0 0 0 .04-.048c0-.005.022-.03.048-.056a.3.3 0 0 0 .048-.055c0-.005.029-.038.064-.072a.4.4 0 0 0 .063-.072c0-.01.707-.718.718-.718a1 1 0 0 0 .088-.08 1 1 0 0 1 .087-.08.4.4 0 0 0 .072-.063.4.4 0 0 1 .072-.064.3.3 0 0 0 .063-.056.3.3 0 0 1 .064-.056.3.3 0 0 0 .06-.052l.053-.052-.025-.023c-.013-.012-.024-.027-.024-.032a.2.2 0 0 0-.04-.048.2.2 0 0 1-.04-.048.3.3 0 0 0-.048-.056.3.3 0 0 1-.047-.056.4.4 0 0 0-.064-.072.4.4 0 0 1-.064-.071 1 1 0 0 0-.096-.104 1 1 0 0 1-.095-.104 5 5 0 0 0-.43-.422 1 1 0 0 0-.097-.088.3.3 0 0 1-.055-.048.3.3 0 0 0-.056-.048.3.3 0 0 1-.056-.048.3.3 0 0 0-.056-.048c-.005 0-.023-.014-.04-.032-.016-.017-.034-.031-.04-.031s-.019-.011-.031-.024-.027-.024-.032-.024a.1.1 0 0 1-.04-.032c-.017-.018-.035-.032-.041-.032q-.01-.001-.023-.016-.011-.015-.022-.016c-.006 0-.021-.01-.034-.024-.012-.013-.027-.024-.033-.024q-.011-.001-.022-.016c-.007-.008-.017-.016-.024-.016s-.018-.007-.024-.016c-.007-.008-.017-.016-.024-.016s-.018-.007-.024-.016c-.006-.008-.017-.015-.024-.015s-.017-.008-.024-.016c-.006-.01-.017-.016-.024-.016q-.012-.002-.024-.016c-.006-.01-.017-.016-.024-.016s-.017-.007-.023-.016q-.012-.016-.026-.016c-.014 0-.014-.004-.014-.008q-.002-.008-.015-.008c-.007 0-.019-.007-.025-.016q-.012-.015-.026-.016c-.014-.001-.014-.004-.014-.008q-.001-.008-.014-.008-.018-.001-.026-.016c-.006-.009-.018-.016-.026-.016q-.012 0-.014-.008-.001-.007-.016-.008-.015 0-.016-.008-.001-.007-.016-.008t-.016-.008q-.002-.01-.014-.008c-.012.002-.02-.007-.025-.016q-.012-.015-.026-.016c-.014-.001-.014-.003-.014-.008 0-.004-.008-.008-.016-.008q-.015 0-.016-.008-.001-.007-.016-.008-.015 0-.016-.008-.001-.007-.016-.008-.015 0-.016-.008-.001-.007-.016-.008-.015 0-.016-.008-.001-.007-.016-.008-.015 0-.016-.008-.001-.007-.016-.007-.014-.001-.016-.008-.002-.008-.015-.008-.016-.001-.016-.008-.002-.008-.016-.008-.015-.001-.016-.008-.002-.008-.016-.008-.016-.001-.016-.008c0-.005-.011-.008-.024-.008s-.024-.004-.024-.008q-.001-.008-.016-.008-.015-.001-.016-.008-.001-.008-.016-.008-.015-.001-.016-.008-.002-.01-.016-.008-.015-.001-.016-.008-.002-.01-.024-.008c-.013 0-.024-.004-.024-.008s-.007-.008-.015-.008q-.016-.001-.017-.008-.003-.01-.023-.008-.022-.001-.024-.008-.003-.01-.016-.008-.015-.001-.016-.008-.002-.01-.024-.008c-.013 0-.024-.004-.024-.008s-.007-.008-.016-.008q-.015 0-.016-.008-.001-.007-.024-.008c-.013 0-.024-.003-.024-.008q-.001-.007-.024-.008c-.013 0-.024-.003-.024-.008q-.001-.007-.024-.008-.021 0-.023-.008c0-.004-.011-.008-.024-.008q-.023 0-.024-.008c0-.004-.011-.008-.024-.008s-.024-.003-.024-.008q-.002-.007-.024-.008c-.013 0-.024-.003-.024-.008q-.002-.007-.024-.008c-.013 0-.024-.003-.024-.008q-.002-.007-.024-.007-.021-.001-.023-.008c0-.005-.015-.008-.032-.008s-.032-.004-.032-.008c0-.005-.011-.008-.024-.008s-.024-.004-.024-.008c0-.005-.015-.008-.032-.008s-.032-.004-.032-.008c0-.005-.014-.008-.032-.008-.017 0-.032-.004-.032-.008 0-.005-.014-.008-.032-.008-.017 0-.032-.004-.032-.008 0-.005-.014-.008-.031-.008s-.032-.004-.032-.008c0-.005-.018-.008-.04-.008s-.04-.004-.04-.008c0-.005-.018-.008-.04-.008s-.04-.004-.04-.008-.018-.008-.04-.008c-.021 0-.04-.004-.04-.008s-.02-.008-.047-.008-.048-.003-.048-.008c0-.004-.021-.008-.048-.008-.026 0-.048-.003-.048-.008 0-.004-.024-.008-.056-.008-.031 0-.055-.003-.055-.008s-.027-.008-.064-.008-.064-.003-.064-.008-.032-.008-.08-.008c-.047 0-.08-.003-.08-.008s-.042-.008-.11-.008c-.07 0-.113-.003-.113-.008s-.122-.008-.35-.008c-.229 0-.351.003-.351.008" clip-rule="evenodd"/>
</svg>
