<svg xmlns="http://www.w3.org/2000/svg" width="42" height="42" fill="none"><circle cx="21" cy="21" r="21" fill="#06061B"/><path fill="#fff" fill-rule="evenodd" d="M25.934 6.627c0 .005-.018.008-.04.008-.022 0-.04.004-.04.008 0 .005-.014.008-.032.008-.017 0-.032.004-.032.008 0 .005-.014.008-.031.008-.018 0-.032.004-.032.008 0 .005-.015.008-.032.008-.018 0-.032.004-.032.008s-.01.008-.024.008c-.013 0-.024.004-.024.008s-.014.008-.032.008c-.017 0-.032.004-.032.008s-.014.008-.032.008c-.017 0-.031.004-.031.008s-.011.008-.024.008c-.014 0-.024.003-.024.008 0 .004-.015.008-.032.008-.018 0-.032.003-.032.008 0 .004-.01.008-.024.008-.013 0-.024.003-.024.008 0 .004-.014.008-.032.008-.017 0-.032.003-.032.008 0 .004-.01.008-.024.008-.013 0-.024.003-.024.008 0 .004-.01.008-.024.008-.013 0-.023.003-.023.008 0 .004-.011.008-.024.008-.013 0-.024.003-.024.008 0 .004-.011.008-.024.008-.013 0-.024.003-.024.008 0 .004-.01.008-.024.008-.013 0-.024.003-.024.008 0 .004-.01.007-.024.007-.013 0-.024.004-.024.008 0 .005-.01.008-.024.008-.013 0-.023.004-.023.008 0 .005-.011.008-.024.008-.014 0-.024.004-.024.008 0 .005-.011.008-.024.008-.013 0-.024.004-.024.008 0 .005-.011.008-.024.008-.013 0-.024.004-.024.008 0 .005-.007.008-.016.008-.009 0-.016.004-.016.008 0 .005-.01.008-.024.008-.013 0-.024.004-.024.008 0 .005-.01.008-.024.008-.013 0-.024.004-.024.008 0 .005-.007.008-.016.008-.008 0-.015.004-.015.008s-.011.008-.024.008c-.014 0-.024.004-.024.008s-.008.008-.016.008c-.009 0-.016.004-.016.008s-.01.008-.024.008c-.013 0-.024.004-.024.008s-.007.008-.016.008c-.009 0-.016.003-.016.008 0 .004-.01.008-.024.008-.013 0-.024.003-.024.008 0 .004-.007.008-.016.008-.008 0-.016.003-.016.008 0 .004-.007.008-.015.008-.01 0-.017.003-.017.008 0 .004-.01.008-.023.008-.014 0-.024.003-.024.008 0 .004-.008.008-.016.008-.009 0-.016.003-.016.008 0 .004-.007.008-.016.008-.009 0-.016.003-.016.008 0 .004-.007.008-.016.008-.009 0-.016.003-.016.008 0 .004-.01.008-.024.008-.013 0-.024.003-.024.008 0 .004-.007.007-.016.007-.008 0-.016.004-.016.008 0 .005-.007.008-.016.008-.008 0-.016.004-.016.008 0 .005-.007.008-.016.008-.008 0-.015.004-.015.008 0 .005-.008.008-.016.008-.01 0-.016.004-.016.008 0 .005-.008.008-.016.008-.01 0-.016.004-.016.008 0 .005-.007.008-.016.008-.009 0-.016.004-.016.008 0 .005-.007.008-.016.008-.009 0-.016.004-.016.008 0 .005-.007.008-.016.008-.009 0-.016.004-.016.008 0 .005-.007.008-.016.008-.009 0-.016.004-.016.008s-.007.008-.016.008c-.009 0-.016.004-.016.008s-.006.008-.014.008-.02.007-.026.016c-.006.009-.017.016-.025.016s-.014.003-.014.008c0 .004-.008.008-.016.008-.01 0-.016.003-.016.008 0 .004-.007.008-.016.008-.009 0-.016.003-.016.008 0 .004-.007.008-.014.008-.008 0-.02.007-.026.016-.006.008-.018.016-.026.016s-.014.003-.014.008c0 .004-.007.008-.016.008-.009 0-.016.003-.016.008 0 .004-.006.008-.014.008s-.02.007-.026.016c-.006.008-.018.015-.025.015-.008 0-.014.004-.014.008 0 .005-.007.008-.015.008s-.019.008-.025.016c-.007.01-.017.016-.024.016-.007 0-.018.008-.024.016-.006.01-.017.016-.024.016-.007 0-.018.007-.024.016-.006.009-.017.016-.024.016-.007 0-.017.007-.024.016-.006.009-.017.016-.024.016-.007 0-.017.007-.024.016-.006.009-.017.016-.024.016-.006 0-.017.007-.023.016-.007.009-.018.016-.024.016-.007 0-.018.007-.024.016-.007.009-.017.016-.023.016-.006 0-.02.01-.033.024-.012.013-.027.024-.032.024-.005 0-.02.01-.032.024-.012.013-.026.023-.032.023-.005 0-.02.011-.032.024-.012.014-.026.024-.031.024-.006 0-.024.015-.04.032-.017.018-.035.032-.04.032a.184.184 0 0 0-.048.04.189.189 0 0 1-.048.04.514.514 0 0 0-.08.072.543.543 0 0 1-.08.071 2.821 2.821 0 0 0-.318.327.419.419 0 0 0-.064.072.185.185 0 0 1-.04.048.183.183 0 0 0-.04.048c0 .005-.014.023-.032.04a.13.13 0 0 0-.031.04c0 .005-.011.02-.024.032-.014.012-.024.026-.024.032 0 .005-.011.02-.024.031-.013.013-.024.028-.024.034 0 .006-.007.016-.016.022-.009.007-.016.017-.016.024 0 .007-.007.018-.016.024-.009.006-.016.017-.016.023 0 .006-.01.02-.024.033-.013.012-.024.028-.024.035 0 .007-.003.013-.008.013-.004 0-.008.006-.008.014s-.007.02-.016.026c-.008.006-.016.017-.016.024 0 .006-.007.017-.015.024-.01.006-.017.017-.017.024 0 .006-.007.017-.015.023-.01.007-.016.018-.016.024 0 .007-.008.018-.016.024-.01.007-.016.018-.016.026s-.004.014-.008.014c-.005 0-.008.007-.008.014 0 .008-.007.02-.016.026-.009.006-.016.018-.016.026s-.004.014-.008.014-.008.007-.008.016c0 .009-.004.016-.008.016s-.008.006-.008.014-.007.02-.016.026c-.009.006-.016.018-.016.025 0 .008-.003.015-.008.015-.004 0-.008.007-.008.016 0 .008-.003.016-.008.016-.004 0-.008.006-.008.014s-.007.02-.016.025c-.008.007-.016.018-.016.026s-.003.014-.008.014c-.004 0-.008.007-.008.016 0 .009-.003.016-.008.016-.004 0-.008.007-.008.016 0 .009-.003.016-.008.016-.004 0-.007.007-.007.016 0 .009-.004.016-.008.016-.005 0-.008.007-.008.016 0 .009-.004.016-.008.016-.005 0-.008.007-.008.016 0 .009-.004.016-.008.016-.005 0-.008.007-.008.016 0 .009-.004.016-.008.016-.005 0-.008.007-.008.016 0 .008-.004.016-.008.016-.005 0-.008.007-.008.016 0 .008-.004.016-.008.016-.005 0-.008.007-.008.015 0 .01-.004.016-.008.016-.005 0-.008.008-.008.016 0 .01-.004.016-.008.016s-.008.008-.008.016c0 .01-.004.016-.008.016s-.008.011-.008.024c0 .013-.003.024-.008.024-.004 0-.008.007-.008.016 0 .009-.003.016-.008.016-.004 0-.008.007-.008.016 0 .009-.003.016-.008.016-.004 0-.008.007-.008.016 0 .009-.003.016-.008.016-.004 0-.008.01-.008.024 0 .013-.003.024-.008.024-.004 0-.008.007-.008.016 0 .008-.003.016-.008.016-.004 0-.008.007-.008.016 0 .008-.003.016-.008.016-.004 0-.008.01-.008.023 0 .014-.003.024-.008.024-.004 0-.008.008-.008.016 0 .01-.003.016-.008.016-.004 0-.007.011-.007.024 0 .013-.004.024-.008.024-.005 0-.008.007-.008.016 0 .009-.004.016-.008.016-.005 0-.008.01-.008.024 0 .013-.004.024-.008.024-.005 0-.008.01-.008.024 0 .013-.004.024-.008.024-.005 0-.008.007-.008.016 0 .008-.004.016-.008.016-.005 0-.008.01-.008.024 0 .013-.004.024-.008.024-.005 0-.008.01-.008.023 0 .014-.004.024-.008.024s-.008.011-.008.024c0 .013-.004.024-.008.024s-.008.011-.008.024c0 .013-.004.024-.008.024s-.008.01-.008.024c0 .013-.004.024-.008.024s-.008.01-.008.024c0 .013-.003.024-.008.024-.004 0-.008.014-.008.032 0 .017-.003.032-.008.032-.004 0-.008.01-.008.024 0 .013-.003.023-.008.023-.004 0-.008.011-.008.024 0 .014-.003.024-.008.024-.004 0-.008.015-.008.032 0 .018-.003.032-.008.032-.004 0-.008.014-.008.032 0 .018-.003.032-.008.032-.004 0-.008.014-.008.032 0 .017-.003.032-.008.032-.004 0-.008.01-.008.024 0 .013-.003.024-.007.024-.005 0-.008.018-.008.04 0 .021-.004.04-.008.04-.005 0-.008.014-.008.031 0 .018-.004.032-.008.032-.005 0-.008.014-.008.032 0 .018-.004.032-.008.032-.005 0-.008.018-.008.04 0 .022-.004.04-.008.04-.005 0-.008.018-.008.04 0 .021-.004.04-.008.04-.005 0-.008.017-.008.04 0 .021-.004.04-.008.04-.005 0-.008.02-.008.047s-.004.048-.008.048c-.005 0-.008.021-.008.048 0 .026-.003.048-.008.048s-.008.024-.008.056c0 .031-.003.055-.008.055s-.008.024-.008.056-.003.056-.008.056-.008.027-.008.064c0 .037-.003.064-.008.064s-.008.032-.008.08c0 .047-.003.08-.008.08s-.008.036-.008.095c0 .058-.003.096-.008.096a.483.483 0 0 0-.008.135.487.487 0 0 1-.008.136.43.43 0 0 0-.008.127v.128h.064c.037 0 .064-.003.064-.008s.032-.008.08-.008c.047 0 .08-.003.08-.008s.031-.008.08-.008c.047 0 .079-.003.079-.008 0-.004.026-.008.064-.008.037 0 .063-.003.063-.008 0-.004.027-.008.064-.008.037 0 .064-.003.064-.008 0-.004.024-.008.056-.008s.055-.003.055-.008c0-.004.024-.008.056-.008s.056-.003.056-.008c0-.004.021-.008.048-.008.026 0 .048-.003.048-.008 0-.004.021-.008.048-.008.026 0 .047-.003.047-.008 0-.004.018-.008.04-.008.022 0 .04-.003.04-.008 0-.004.018-.008.04-.008.022 0 .04-.003.04-.008 0-.004.018-.008.04-.008.022 0 .04-.003.04-.008 0-.004.014-.007.032-.007.017 0 .031-.004.031-.008 0-.005.015-.008.032-.008.018 0 .032-.004.032-.008 0-.005.014-.008.032-.008.017 0 .032-.004.032-.008 0-.005.014-.008.032-.008.017 0 .032-.004.032-.008 0-.005.01-.008.024-.008.013 0 .024-.004.024-.008 0-.005.01-.008.023-.008.014 0 .024-.004.024-.008 0-.005.008-.008.016-.008.009 0 .016-.004.016-.008 0-.005.011-.008.024-.008.013 0 .024-.004.024-.008 0-.005.007-.008.016-.008.009 0 .016-.004.016-.008s.01-.008.024-.008c.013 0 .024-.004.024-.008s.007-.008.016-.008c.009 0 .016-.003.016-.008 0-.004.007-.008.016-.008.008 0 .016-.003.016-.008 0-.004.01-.008.023-.008.014 0 .024-.003.024-.008 0-.004.008-.008.016-.008.01 0 .016-.003.016-.008 0-.004.007-.008.016-.008.009 0 .016-.003.016-.008 0-.004.007-.008.016-.008.009 0 .016-.003.016-.008 0-.004.007-.008.016-.008.009 0 .016-.003.016-.008 0-.004.006-.008.014-.008s.02-.007.026-.016c.006-.008.018-.016.025-.016.008 0 .015-.003.015-.008 0-.004.007-.008.016-.008.008 0 .015-.003.015-.008 0-.004.008-.007.016-.007.01 0 .016-.004.016-.008 0-.005.007-.008.015-.008.007 0 .019-.008.025-.016.007-.01.018-.016.026-.016s.014-.004.014-.008c0-.005.006-.008.014-.008s.02-.007.026-.016c.006-.009.017-.016.024-.016.007 0 .017-.007.024-.016.006-.009.018-.016.025-.016.008 0 .015-.004.015-.008s.006-.008.014-.008.02-.007.026-.016c.006-.009.017-.016.023-.016.007 0 .018-.007.024-.016.007-.009.017-.016.023-.016.006 0 .02-.01.033-.024.012-.013.027-.024.034-.024.006 0 .016-.007.022-.016.006-.008.016-.016.022-.016.006 0 .021-.01.034-.024.012-.013.026-.023.032-.023.005 0 .02-.011.032-.024.012-.014.026-.024.031-.024a.14.14 0 0 0 .04-.032c.017-.018.035-.032.04-.032a.183.183 0 0 0 .048-.04.186.186 0 0 1 .048-.04c.005 0 .03-.021.056-.048a.257.257 0 0 1 .055-.048.637.637 0 0 0 .088-.08.66.66 0 0 1 .087-.08 3.3 3.3 0 0 0 .272-.27c0-.005.036-.044.08-.088a.63.63 0 0 0 .08-.088c0-.005.024-.033.055-.064a.33.33 0 0 0 .056-.063c0-.005.018-.027.04-.048a.184.184 0 0 0 .04-.048.13.13 0 0 1 .031-.04c.018-.017.032-.035.032-.04 0-.005.011-.02.024-.032.013-.012.024-.026.024-.031 0-.006.015-.024.032-.04.018-.017.032-.036.032-.042 0-.006.007-.016.016-.022.009-.007.016-.017.016-.023 0-.006.01-.02.024-.033.013-.012.024-.027.024-.032 0-.005.01-.02.024-.032.013-.012.024-.027.024-.033 0-.006.007-.017.015-.023.01-.006.016-.017.016-.024 0-.007.008-.017.016-.024.01-.006.016-.017.016-.024 0-.006.007-.017.016-.024.009-.006.016-.017.016-.024 0-.006.007-.017.016-.023.009-.007.016-.018.016-.024 0-.007.007-.018.016-.024.009-.007.016-.018.016-.026s.004-.014.008-.014.008-.007.008-.014c0-.008.007-.02.016-.026.009-.006.016-.017.016-.024 0-.007.007-.018.016-.024.008-.006.016-.018.016-.026 0-.007.003-.014.008-.014.004 0 .008-.007.008-.016 0-.008.003-.016.008-.016.004 0 .008-.006.008-.014s.007-.02.015-.026c.01-.006.016-.017.016-.025s.004-.014.008-.014c.005 0 .008-.008.008-.016 0-.01.004-.016.008-.016.005 0 .008-.007.008-.014 0-.008.008-.02.016-.026.009-.007.016-.018.016-.026s.004-.014.008-.014c.005 0 .008-.007.008-.016 0-.009.004-.016.008-.016.005 0 .008-.007.008-.016 0-.009.004-.016.008-.016s.008-.007.008-.016c0-.009.004-.016.008-.016s.008-.007.008-.016c0-.009.003-.016.008-.016.004 0 .008-.007.008-.016 0-.008.003-.016.008-.016.004 0 .008-.007.008-.016 0-.008.003-.016.008-.016.004 0 .008-.007.008-.015 0-.01.003-.016.008-.016.004 0 .008-.008.008-.016 0-.01.003-.016.008-.016.004 0 .008-.008.008-.016 0-.01.003-.016.008-.016.004 0 .008-.007.008-.016 0-.009.003-.016.008-.016.004 0 .008-.007.008-.016 0-.009.003-.016.008-.016.004 0 .008-.01.008-.024 0-.013.003-.024.008-.024.004 0 .007-.007.007-.016 0-.009.004-.016.008-.016.005 0 .008-.007.008-.016 0-.009.004-.016.008-.016.005 0 .008-.007.008-.016 0-.008.004-.016.008-.016.005 0 .008-.01.008-.024 0-.013.004-.023.008-.023.005 0 .008-.008.008-.016 0-.01.004-.016.008-.016.005 0 .008-.011.008-.024 0-.013.004-.024.008-.024.005 0 .008-.007.008-.016 0-.009.004-.016.008-.016s.008-.01.008-.024c0-.013.004-.024.008-.024s.008-.01.008-.024c0-.013.004-.024.008-.024s.008-.007.008-.016c0-.009.004-.016.008-.016s.008-.01.008-.024c0-.013.003-.024.008-.024.004 0 .008-.01.008-.024 0-.013.003-.023.008-.023.004 0 .008-.008.008-.016 0-.01.003-.016.008-.016.004 0 .008-.011.008-.024 0-.013.003-.024.008-.024.004 0 .008-.011.008-.024 0-.013.003-.024.008-.024.004 0 .008-.01.008-.024 0-.013.003-.024.008-.024.004 0 .008-.01.008-.024 0-.013.003-.024.008-.024.004 0 .008-.01.008-.024 0-.013.003-.024.007-.024.005 0 .008-.014.008-.032 0-.017.004-.031.008-.031.005 0 .008-.011.008-.024 0-.014.004-.024.008-.024.005 0 .008-.011.008-.024 0-.013.004-.024.008-.024.005 0 .008-.015.008-.032 0-.018.004-.032.008-.032.005 0 .008-.01.008-.024 0-.013.004-.024.008-.024.005 0 .008-.014.008-.032 0-.017.004-.032.008-.032.005 0 .008-.014.008-.032 0-.017.004-.031.008-.031s.008-.015.008-.032c0-.018.004-.032.008-.032s.008-.015.008-.032c0-.018.004-.032.008-.032s.008-.018.008-.04c0-.022.003-.04.008-.04.004 0 .008-.014.008-.032 0-.017.003-.032.008-.032.004 0 .008-.018.008-.04 0-.021.003-.04.008-.04.004 0 .008-.02.008-.047s.003-.048.008-.048c.004 0 .008-.021.008-.048s.003-.048.008-.048c.004 0 .008-.024.008-.056s.003-.056.008-.056c.004 0 .008-.029.008-.071 0-.043.003-.072.008-.072.004 0 .008-.037.008-.096 0-.058.003-.096.008-.096s.007-.09.007-.255-.002-.255-.008-.255c-.004 0-.008-.03-.008-.072 0-.042-.003-.072-.008-.072-.004 0-.007-.018-.007-.04 0-.021-.004-.04-.008-.04-.005 0-.008-.017-.008-.04 0-.021-.004-.04-.008-.04-.005 0-.008-.013-.008-.031 0-.018-.004-.032-.008-.032-.005 0-.008-.01-.008-.02a.051.051 0 0 0-.012-.032c-.013-.013-.036-.016-.036-.004zm-.032 6.014c0 .005-.037.008-.096.008-.058 0-.095.003-.095.008s-.032.008-.08.008-.08.003-.08.008-.026.008-.063.008c-.038 0-.064.004-.064.008 0 .005-.024.008-.056.008s-.056.004-.056.008c0 .005-.021.008-.048.008-.026 0-.048.004-.048.008 0 .005-.02.008-.047.008s-.048.004-.048.008-.018.008-.04.008c-.022 0-.04.004-.04.008s-.021.008-.048.008c-.026 0-.048.004-.048.008s-.014.008-.032.008c-.017 0-.031.004-.031.008s-.018.008-.04.008c-.022 0-.04.003-.04.008 0 .004-.018.008-.04.008-.022 0-.04.003-.04.008 0 .004-.014.008-.032.008-.017 0-.032.003-.032.008 0 .004-.014.008-.032.008-.017 0-.031.003-.031.008 0 .004-.015.008-.032.008-.018 0-.032.003-.032.008 0 .004-.014.008-.032.008-.017 0-.032.003-.032.008 0 .004-.014.008-.032.008-.017 0-.032.003-.032.008 0 .004-.014.008-.031.008-.018 0-.032.003-.032.008 0 .004-.015.008-.032.008-.018 0-.032.003-.032.007 0 .005-.011.008-.024.008-.013 0-.024.004-.024.008 0 .005-.014.008-.032.008-.018 0-.032.004-.032.008 0 .005-.01.008-.024.008-.013 0-.024.004-.024.008 0 .005-.014.008-.032.008-.017 0-.031.004-.031.008 0 .005-.011.008-.024.008-.014 0-.024.004-.024.008 0 .005-.015.008-.032.008-.018 0-.032.004-.032.008 0 .005-.01.008-.024.008-.013 0-.024.004-.024.008 0 .005-.01.008-.024.008-.013 0-.024.004-.024.008 0 .005-.01.008-.024.008-.013 0-.024.004-.024.008s-.01.008-.023.008c-.014 0-.024.004-.024.008s-.011.008-.024.008c-.013 0-.024.004-.024.008s-.015.008-.032.008c-.018 0-.032.004-.032.008s-.007.008-.016.008c-.009 0-.016.003-.016.008 0 .004-.01.008-.024.008-.013 0-.024.003-.024.008 0 .004-.01.008-.024.008-.013 0-.023.003-.023.008 0 .004-.011.008-.024.008-.013 0-.024.003-.024.008 0 .004-.011.008-.024.008-.013 0-.024.003-.024.008 0 .004-.01.008-.024.008-.013 0-.024.003-.024.008 0 .004-.01.008-.024.008-.013 0-.024.003-.024.008 0 .004-.01.008-.024.008-.013 0-.024.003-.024.008 0 .004-.01.008-.024.008-.013 0-.023.003-.023.007 0 .005-.011.008-.024.008-.014 0-.024.004-.024.008 0 .005-.011.008-.024.008-.013 0-.024.004-.024.008 0 .005-.015.008-.032.008-.018 0-.032.004-.032.008 0 .005-.01.008-.024.008-.013 0-.024.004-.024.008 0 .005-.01.008-.024.008-.013 0-.024.004-.024.008 0 .005-.01.008-.023.008-.014 0-.024.004-.024.008 0 .005-.011.008-.024.008-.013 0-.024.004-.024.008 0 .005-.011.008-.024.008-.013 0-.024.004-.024.008 0 .005-.014.008-.032.008-.017 0-.032.004-.032.008s-.01.008-.024.008c-.013 0-.024.004-.024.008s-.01.008-.024.008c-.013 0-.023.004-.023.008s-.015.008-.032.008c-.018 0-.032.004-.032.008s-.011.008-.024.008c-.013 0-.024.003-.024.008 0 .004-.014.008-.032.008-.017 0-.032.003-.032.008 0 .004-.014.008-.032.008-.017 0-.032.003-.032.008 0 .004-.01.008-.023.008-.014 0-.024.003-.024.008 0 .004-.015.008-.032.008-.018 0-.032.003-.032.008 0 .004-.015.008-.032.008-.018 0-.032.003-.032.008 0 .004-.014.008-.032.008-.017 0-.032.003-.032.008 0 .004-.014.008-.032.008-.017 0-.032.003-.032.008 0 .004-.014.008-.031.008-.018 0-.032.003-.032.007 0 .005-.018.008-.04.008-.022 0-.04.004-.04.008 0 .005-.014.008-.032.008-.018 0-.032.004-.032.008 0 .005-.018.008-.04.008-.022 0-.04.004-.04.008 0 .005-.02.008-.047.008s-.048.004-.048.008c0 .005-.018.008-.04.008-.022 0-.04.004-.04.008 0 .005-.024.008-.056.008s-.056.004-.056.008c0 .005-.029.008-.071.008-.043 0-.072.003-.072.008s-.074.008-.207.008-.208-.003-.208-.008-.026-.008-.063-.008c-.038 0-.064-.003-.064-.008 0-.004-.021-.008-.048-.008-.026 0-.048-.003-.048-.008 0-.004-.021-.008-.048-.008-.026 0-.047-.003-.047-.008 0-.004-.018-.008-.04-.008-.022 0-.04-.003-.04-.008 0-.004-.018-.008-.04-.008-.022 0-.04-.003-.04-.008 0-.004-.018-.008-.04-.008-.022 0-.04-.003-.04-.008 0-.004-.017-.008-.04-.008-.021 0-.04-.003-.04-.008 0-.004-.014-.008-.031-.008-.018 0-.032-.003-.032-.008 0-.004-.018-.008-.04-.008-.022 0-.04-.003-.04-.008 0-.004-.014-.007-.032-.007-.017 0-.032-.004-.032-.008 0-.005-.014-.008-.031-.008-.018 0-.032-.004-.032-.008 0-.005-.015-.008-.032-.008-.018 0-.032-.004-.032-.008 0-.005-.014-.008-.032-.008-.017 0-.032-.004-.032-.008 0-.005-.014-.008-.032-.008-.017 0-.032-.004-.032-.008 0-.005-.014-.008-.031-.008-.018 0-.032-.004-.032-.008 0-.005-.015-.008-.032-.008-.018 0-.032-.004-.032-.008 0-.005-.014-.008-.032-.008-.018 0-.032-.004-.032-.008 0-.005-.014-.008-.032-.008-.017 0-.032-.004-.032-.008s-.01-.008-.024-.008c-.013 0-.023-.004-.023-.008s-.015-.008-.032-.008c-.018 0-.032-.003-.032-.008 0-.004-.015-.008-.032-.008-.018 0-.032-.003-.032-.008 0-.004-.01-.008-.024-.008-.013 0-.024-.004-.024-.008s-.014-.008-.032-.008c-.017 0-.032-.003-.032-.008 0-.004-.01-.008-.024-.008-.013 0-.023-.003-.023-.008 0-.004-.015-.008-.032-.008-.018 0-.032-.003-.032-.008 0-.004-.011-.008-.024-.008-.013 0-.024-.003-.024-.008 0-.004-.015-.008-.032-.008-.018 0-.032-.003-.032-.008 0-.004-.01-.008-.024-.008-.013 0-.024-.003-.024-.008 0-.004-.014-.008-.032-.008-.017 0-.031-.003-.031-.008 0-.004-.011-.008-.024-.008-.014 0-.024-.003-.024-.008 0-.004-.015-.007-.032-.007-.018 0-.032-.004-.032-.008 0-.005-.01-.008-.024-.008-.013 0-.024-.004-.024-.008 0-.005-.014-.008-.032-.008-.017 0-.032-.004-.032-.008 0-.005-.014-.008-.032-.008-.017 0-.032-.004-.032-.008 0-.005-.01-.008-.023-.008-.014 0-.024-.004-.024-.008 0-.005-.015-.008-.032-.008-.018 0-.032-.004-.032-.008 0-.005-.014-.008-.032-.008-.017 0-.032-.004-.032-.008s-.014-.008-.032-.008c-.017 0-.032-.004-.032-.008s-.01-.008-.023-.008c-.014 0-.024-.004-.024-.008s-.015-.008-.032-.008c-.018 0-.032-.004-.032-.008s-.015-.008-.032-.008c-.018 0-.032-.004-.032-.008s-.018-.008-.04-.008c-.022 0-.04-.004-.04-.008s-.014-.008-.032-.008c-.017 0-.032-.004-.032-.008s-.014-.008-.031-.008c-.018 0-.032-.003-.032-.008 0-.004-.015-.008-.032-.008-.018 0-.032-.003-.032-.008 0-.004-.018-.008-.04-.008-.022 0-.04-.003-.04-.008 0-.004-.018-.008-.04-.008-.021 0-.04-.003-.04-.008 0-.004-.014-.008-.031-.008-.018 0-.032-.003-.032-.008 0-.004-.021-.008-.048-.008s-.048-.003-.048-.008c0-.004-.018-.008-.04-.008-.022 0-.04-.003-.04-.008 0-.004-.018-.008-.04-.008-.021 0-.04-.003-.04-.008 0-.004-.02-.007-.047-.007s-.048-.004-.048-.008c0-.005-.021-.008-.048-.008-.026 0-.048-.004-.048-.008 0-.005-.02-.008-.047-.008s-.048-.004-.048-.008c0-.005-.024-.008-.056-.008s-.056-.004-.056-.008c0-.005-.024-.008-.056-.008s-.056-.004-.056-.008c0-.005-.026-.008-.063-.008-.037 0-.064-.003-.064-.008s-.032-.008-.08-.008-.08-.003-.08-.008-.04-.008-.103-.008c-.064 0-.104-.003-.104-.008s-.138-.008-.398-.008-.399.003-.399.008-.04.008-.104.008c-.063 0-.103.003-.103.008s-.03.008-.072.008c-.042 0-.072.003-.072.008 0 .004-.024.008-.056.008-.031 0-.055.003-.055.008 0 .004-.024.008-.056.008s-.056.003-.056.008c0 .004-.021.008-.048.008-.026 0-.048.003-.048.008 0 .004-.018.008-.04.008-.021 0-.04.003-.04.008 0 .004-.017.008-.04.008-.021 0-.039.003-.039.008 0 .004-.014.008-.032.008-.017 0-.032.003-.032.008 0 .004-.018.008-.04.008-.022 0-.04.003-.04.008 0 .004-.014.008-.031.008-.018 0-.032.003-.032.007 0 .005-.011.008-.024.008-.013 0-.024.004-.024.008 0 .005-.014.008-.032.008-.018 0-.032.004-.032.008 0 .005-.014.008-.032.008-.017 0-.032.004-.032.008 0 .005-.01.008-.024.008-.013 0-.023.004-.023.008 0 .005-.011.008-.024.008-.013 0-.024.004-.024.008 0 .005-.011.008-.024.008-.013 0-.024.004-.024.008 0 .005-.01.008-.024.008-.013 0-.024.004-.024.008 0 .005-.01.008-.024.008-.013 0-.024.004-.024.008 0 .005-.01.008-.024.008-.013 0-.024.004-.024.008s-.01.008-.024.008c-.013 0-.023.004-.023.008s-.011.008-.024.008c-.014 0-.024.004-.024.008s-.007.008-.016.008c-.009 0-.016.004-.016.008s-.01.008-.024.008c-.013 0-.024.003-.024.008 0 .004-.007.008-.016.008-.009 0-.016.003-.016.008 0 .004-.01.008-.024.008-.013 0-.024.003-.024.008 0 .004-.007.008-.016.008-.008 0-.016.003-.016.008 0 .004-.007.008-.016.008-.008 0-.015.003-.015.008 0 .004-.011.008-.024.008-.013 0-.024.003-.024.008 0 .004-.007.008-.016.008-.009 0-.016.003-.016.008 0 .004-.007.008-.016.008-.009 0-.016.003-.016.008 0 .004-.007.008-.016.008-.009 0-.016.003-.016.007 0 .005-.007.008-.016.008-.009 0-.016.004-.016.008 0 .005-.007.008-.016.008-.008 0-.016.004-.016.008 0 .005-.007.008-.016.008-.008 0-.016.004-.016.008 0 .005-.01.008-.022.008a.044.044 0 0 0-.033.016c-.007.009-.018.016-.026.016s-.014.004-.014.008c0 .005-.007.008-.016.008-.009 0-.016.004-.016.008 0 .005-.007.008-.016.008-.009 0-.016.004-.016.008 0 .005-.007.008-.016.008-.009 0-.016.004-.016.008s-.007.008-.016.008c-.009 0-.016.004-.016.008s-.006.008-.014.008-.02.007-.026.016c-.006.009-.018.016-.025.016-.008 0-.014.003-.014.008 0 .004-.008.008-.017.008-.008 0-.015.003-.015.008 0 .004-.007.008-.015.008-.007 0-.019.007-.025.016-.007.009-.017.016-.024.016-.007 0-.018.007-.024.016-.006.008-.018.016-.026.016s-.014.003-.014.008c0 .004-.006.008-.014.008s-.02.007-.026.016c-.006.008-.017.015-.024.015-.007 0-.017.008-.024.016-.006.01-.017.016-.024.016-.006 0-.017.008-.024.016-.006.01-.017.016-.023.016-.007 0-.018.007-.024.016-.007.009-.017.016-.024.016-.007 0-.018.007-.024.016-.006.009-.017.016-.023.016-.006 0-.02.01-.033.024-.012.013-.027.024-.032.024-.005 0-.02.01-.032.024-.012.013-.026.024-.032.024-.005 0-.02.01-.031.024-.013.013-.027.024-.032.024-.006 0-.02.01-.032.024-.013.013-.027.024-.032.024a.18.18 0 0 0-.048.04.182.182 0 0 1-.048.04.185.185 0 0 0-.048.04.19.19 0 0 1-.047.039.518.518 0 0 0-.08.072 5.334 5.334 0 0 0-.502.502.522.522 0 0 0-.072.08.26.26 0 0 1-.048.056.251.251 0 0 0-.048.056.186.186 0 0 1-.04.048.181.181 0 0 0-.04.048.143.143 0 0 1-.031.04c-.018.016-.032.034-.032.04 0 .005-.011.019-.024.031-.013.012-.024.027-.024.032a.14.14 0 0 1-.032.04c-.018.017-.032.035-.032.04 0 .005-.01.02-.024.032-.013.012-.024.027-.024.033 0 .006-.007.016-.016.023-.008.006-.016.016-.016.022 0 .006-.01.021-.024.033-.013.013-.023.028-.023.034 0 .006-.008.016-.016.022-.01.007-.016.017-.016.024 0 .007-.008.018-.016.024-.009.006-.016.017-.016.024 0 .007-.007.018-.016.024-.009.006-.016.017-.016.024 0 .007-.007.017-.016.024-.009.006-.016.017-.016.024 0 .006-.007.017-.016.024-.009.006-.016.017-.016.024 0 .006-.007.017-.016.023-.009.007-.016.018-.016.024 0 .007-.007.018-.016.024-.008.007-.016.017-.016.024 0 .007-.007.018-.016.024-.008.006-.015.018-.015.026s-.004.014-.008.014c-.005 0-.008.006-.008.014s-.008.02-.016.026a.034.034 0 0 0-.016.026c0 .007-.004.014-.008.014-.005 0-.008.006-.008.014s-.007.02-.016.026c-.009.006-.016.018-.016.025 0 .008-.004.015-.008.015-.005 0-.008.006-.008.014s-.007.02-.016.025c-.009.007-.016.018-.016.026s-.004.014-.008.014-.008.008-.008.016c0 .01-.003.016-.008.016-.004 0-.008.007-.008.016 0 .009-.003.016-.008.016-.004 0-.008.006-.008.014s-.007.02-.016.026c-.008.006-.016.018-.016.026s-.003.014-.008.014c-.004 0-.008.007-.008.016 0 .009-.003.016-.008.016-.004 0-.008.007-.008.016 0 .008-.003.016-.008.016-.004 0-.008.007-.008.016 0 .008-.003.016-.007.016-.005 0-.008.007-.008.016 0 .008-.004.015-.008.015-.005 0-.008.008-.008.016 0 .01-.004.016-.008.016-.005 0-.008.008-.008.016 0 .01-.004.016-.008.016-.005 0-.008.008-.008.016 0 .01-.004.016-.008.016-.005 0-.008.007-.008.016 0 .009-.004.016-.008.016-.005 0-.008.007-.008.016 0 .009-.004.016-.008.016-.005 0-.008.007-.008.016 0 .009-.004.016-.008.016-.005 0-.008.007-.008.016 0 .009-.004.016-.008.016-.005 0-.008.007-.008.016 0 .009-.004.016-.008.016s-.008.007-.008.016c0 .009-.004.016-.008.016s-.008.007-.008.016c0 .008-.004.016-.008.016s-.008.007-.008.015c0 .01-.004.017-.008.017s-.008.01-.008.023c0 .014-.003.024-.008.024-.004 0-.008.008-.008.016 0 .01-.003.016-.008.016-.004 0-.008.007-.008.016 0 .009-.003.016-.008.016-.004 0-.008.007-.008.016 0 .009-.003.016-.008.016-.004 0-.008.01-.008.024 0 .013-.003.024-.008.024-.004 0-.007.007-.007.016 0 .009-.004.016-.008.016-.005 0-.008.007-.008.016 0 .009-.004.016-.008.016-.005 0-.008.01-.008.024 0 .013-.004.024-.008.024-.005 0-.008.007-.008.015 0 .01-.004.017-.008.017-.005 0-.008.01-.008.023 0 .014-.004.024-.008.024-.005 0-.008.008-.008.016 0 .01-.004.016-.008.016-.005 0-.008.011-.008.024 0 .013-.004.024-.008.024-.005 0-.008.007-.008.016 0 .009-.004.016-.008.016-.005 0-.008.01-.008.024 0 .013-.004.024-.008.024s-.008.01-.008.024c0 .013-.004.024-.008.024s-.008.01-.008.024c0 .013-.004.024-.008.024s-.008.007-.008.015c0 .01-.003.017-.008.017-.004 0-.008.01-.008.023 0 .014-.003.024-.008.024-.004 0-.008.011-.008.024 0 .013-.003.024-.008.024-.004 0-.008.011-.008.024 0 .013-.003.024-.008.024-.004 0-.008.01-.008.024 0 .013-.003.024-.008.024-.004 0-.008.01-.008.024 0 .013-.003.024-.008.024-.004 0-.008.01-.008.024 0 .013-.003.024-.007.024-.005 0-.008.01-.008.024 0 .013-.004.023-.008.023-.005 0-.008.011-.008.024 0 .014-.004.024-.008.024-.005 0-.008.015-.008.032 0 .018-.004.032-.008.032-.005 0-.008.01-.008.024 0 .013-.004.024-.008.024-.005 0-.008.014-.008.032 0 .017-.004.032-.008.032-.005 0-.008.01-.008.024 0 .013-.004.024-.008.024-.005 0-.008.014-.008.032 0 .017-.004.031-.008.031-.005 0-.008.011-.008.024 0 .014-.004.024-.008.024-.005 0-.008.015-.008.032 0 .018-.004.032-.008.032s-.008.015-.008.032c0 .018-.004.032-.008.032s-.008.014-.008.032c0 .017-.004.032-.008.032s-.008.014-.008.032c0 .017-.004.032-.008.032s-.008.018-.008.04c0 .021-.003.04-.008.04-.004 0-.008.014-.008.031 0 .018-.003.032-.008.032-.004 0-.008.015-.008.032 0 .018-.003.032-.008.032-.004 0-.008.018-.008.04 0 .022-.003.04-.008.04-.004 0-.008.018-.008.04 0 .021-.003.04-.008.04-.004 0-.007.017-.007.04 0 .021-.004.04-.008.04-.005 0-.008.02-.008.047s-.004.048-.008.048c-.005 0-.008.018-.008.04 0 .022-.004.04-.008.04-.005 0-.008.021-.008.048 0 .026-.004.047-.008.047-.005 0-.008.022-.008.048 0 .027-.004.048-.008.048-.005 0-.008.024-.008.056s-.004.056-.008.056c-.005 0-.008.024-.008.056s-.004.055-.008.055c-.005 0-.008.027-.008.064 0 .038-.003.064-.008.064s-.008.03-.008.072c0 .042-.003.072-.008.072s-.008.029-.008.071c0 .043-.003.072-.008.072s-.008.035-.008.088c0 .053-.003.088-.008.088s-.008.04-.008.103c0 .064-.003.104-.008.104a.485.485 0 0 0-.008.136.484.484 0 0 1-.008.135 2.8 2.8 0 0 0-.008.335c0 .26-.002.335-.01.339-.008.003-.008.005 0 .009.008.004.01.074.01.315 0 .202.003.31.008.31s.008.054.008.144.003.143.008.143.008.04.008.104.003.104.008.104.008.035.008.088c0 .053.003.087.008.087s.008.03.008.072c0 .043.003.072.008.072s.008.03.008.072c0 .042.003.072.008.072s.008.026.008.063c0 .038.003.064.008.064.004 0 .008.027.008.064 0 .037.003.064.008.064.004 0 .008.024.008.056 0 .031.003.055.008.055.004 0 .008.022.008.048 0 .027.003.048.008.048.004 0 .008.024.008.056s.003.056.008.056c.004 0 .008.021.008.048 0 .026.003.047.008.047.004 0 .008.022.008.048 0 .027.003.048.008.048.004 0 .008.018.008.04 0 .022.003.04.007.04.005 0 .008.021.008.048 0 .026.004.048.008.048.005 0 .008.018.008.04 0 .021.004.04.008.04.005 0 .008.017.008.04 0 .021.004.04.008.04.005 0 .008.017.008.04 0 .021.004.039.008.039.005 0 .008.018.008.04 0 .022.004.04.008.04.005 0 .008.014.008.032 0 .017.004.032.008.032.005 0 .008.018.008.04 0 .021.004.04.008.04s.008.014.008.031c0 .018.004.032.008.032s.008.018.008.04c0 .022.003.04.008.04.004 0 .008.014.008.032 0 .017.003.032.008.032.004 0 .008.014.008.032 0 .017.003.031.008.031.004 0 .008.015.008.032 0 .018.003.032.008.032.004 0 .008.015.008.032 0 .018.003.032.008.032.004 0 .008.014.008.032 0 .018.003.032.008.032.004 0 .008.014.008.032 0 .017.003.032.008.032.004 0 .008.014.008.032 0 .017.003.032.008.032.004 0 .008.014.008.031 0 .018.003.032.008.032.004 0 .007.015.007.032 0 .018.004.032.008.032.005 0 .008.011.008.024 0 .013.004.024.008.024.005 0 .008.014.008.032 0 .017.004.032.008.032.005 0 .008.01.008.024 0 .013.004.024.008.024.005 0 .008.014.008.032 0 .017.004.032.008.032.005 0 .008.01.008.023 0 .014.004.024.008.024.005 0 .008.015.008.032 0 .018.004.032.008.032s.008.011.008.024c0 .013.004.024.008.024s.008.01.008.024c0 .013.004.024.008.024s.008.01.008.024c0 .013.004.024.008.024s.008.014.008.032c0 .017.004.032.008.032s.008.01.008.024c0 .013.003.023.008.023.004 0 .008.011.008.024 0 .014.003.024.008.024.004 0 .008.011.008.024 0 .013.003.024.008.024.004 0 .008.01.008.024 0 .013.003.024.008.024.004 0 .008.01.008.024 0 .013.003.024.008.024.004 0 .008.01.008.024 0 .013.003.024.008.024.004 0 .008.01.008.024 0 .013.003.024.007.024.005 0 .008.01.008.023 0 .014.004.024.008.024.005 0 .008.011.008.024 0 .013.004.024.008.024.005 0 .008.011.008.024 0 .013.004.024.008.024.005 0 .008.01.008.024 0 .013.004.024.008.024.005 0 .008.01.008.024 0 .013.004.024.008.024.005 0 .008.01.008.024 0 .013.004.024.008.024.005 0 .008.007.008.016 0 .008.004.016.008.016s.008.01.008.024c0 .013.004.023.008.023s.008.011.008.024c0 .014.003.024.008.024.004 0 .008.011.008.024 0 .013.003.024.008.024.004 0 .008.007.008.016 0 .009.003.016.008.016.004 0 .008.01.008.024 0 .013.003.024.008.024.004 0 .008.01.008.024 0 .013.003.024.008.024.004 0 .008.007.008.016 0 .008.003.016.008.016.004 0 .008.01.008.024 0 .013.003.024.008.024.004 0 .008.01.008.023 0 .014.003.024.008.024.004 0 .008.008.008.016 0 .01.003.016.008.016.004 0 .007.011.007.024 0 .013.004.024.008.024.005 0 .008.007.008.016 0 .009.004.016.008.016.005 0 .008.01.008.024 0 .013.004.024.008.024.005 0 .008.007.008.016 0 .009.004.016.008.016.005 0 .008.01.008.024 0 .013.004.024.008.024.005 0 .008.007.008.016 0 .008.004.016.008.016.005 0 .008.01.008.023 0 .014.004.024.008.024.005 0 .008.008.008.016 0 .01.004.016.008.016s.008.011.008.024c0 .014.004.024.008.024s.008.007.008.016c0 .009.004.016.008.016s.008.007.008.016c0 .009.004.016.008.016s.008.01.008.024c0 .013.003.024.008.024.004 0 .008.007.008.016 0 .009.003.016.008.016.004 0 .008.007.008.016 0 .009.003.016.008.016.004 0 .008.01.008.024 0 .013.003.024.008.024.004 0 .008.007.008.015 0 .01.003.017.008.017.004 0 .008.007.008.015 0 .01.003.016.008.016.004 0 .008.011.008.024 0 .014.003.024.008.024.004 0 .007.007.007.016 0 .009.004.016.008.016.005 0 .008.007.008.016 0 .009.004.016.008.016.005 0 .008.007.008.016 0 .009.004.016.008.016.005 0 .008.01.008.024 0 .013.004.024.008.024.005 0 .008.007.008.016 0 .008.004.016.008.016.005 0 .008.007.008.016 0 .008.004.016.008.016.005 0 .008.007.008.016 0 .008.004.015.008.015s.008.011.008.024c0 .014.004.024.008.024s.008.008.008.016c0 .01.004.016.008.016s.008.008.008.016c0 .009.004.016.008.016s.008.007.008.016c0 .009.003.016.008.016.004 0 .008.007.008.016 0 .009.003.016.008.016.004 0 .008.007.008.016 0 .009.003.016.008.016.004 0 .008.01.008.024 0 .013.003.024.008.024.004 0 .008.007.008.016 0 .009.003.016.008.016.004 0 .008.007.008.016 0 .008.003.016.008.016.004 0 .008.007.008.015 0 .01.003.017.008.017.004 0 .008.007.008.015 0 .01.003.016.007.016.005 0 .008.008.008.016 0 .01.004.016.008.016.005 0 .008.008.008.016 0 .009.004.016.008.016.005 0 .008.007.008.016 0 .009.004.016.008.016.005 0 .008.007.008.016 0 .009.004.016.008.016.005 0 .008.007.008.016 0 .009.004.016.008.016.005 0 .008.007.008.016 0 .009.004.016.008.016.005 0 .008.007.008.016 0 .009.004.016.008.016s.008.007.008.016c0 .008.004.016.008.016s.008.007.008.016c0 .008.003.016.008.016.004 0 .008.007.008.015 0 .01.003.016.008.016.004 0 .008.008.008.016 0 .01.003.016.008.016.004 0 .008.008.008.016 0 .01.003.016.008.016.004 0 .008.007.008.016 0 .009.003.016.008.016.004 0 .008.007.008.016 0 .009.003.016.008.016.004 0 .008.007.008.016 0 .009.003.016.008.016.004 0 .008.007.008.016 0 .009.003.016.008.016.004 0 .008.007.008.016 0 .009.003.016.008.016.004 0 .007.007.007.016 0 .008.004.016.008.016.005 0 .008.007.008.016 0 .008.004.016.008.016.005 0 .008.007.008.015 0 .01.004.017.008.017.005 0 .008.007.008.015 0 .01.004.016.008.016.005 0 .008.007.008.015 0 .007.007.019.016.025.009.007.016.018.016.026s.004.014.008.014.008.007.008.016c0 .009.004.016.008.016s.008.007.008.016c0 .009.004.016.008.016s.008.007.008.016c0 .009.004.016.008.016s.008.007.008.016c0 .009.004.016.008.016s.008.006.008.014.007.02.016.026c.008.006.016.018.016.025 0 .008.003.014.008.014.004 0 .008.008.008.017 0 .008.003.015.008.015.004 0 .008.008.008.016 0 .01.003.016.008.016.004 0 .007.008.007.016 0 .01.004.016.008.016.005 0 .008.007.008.014 0 .008.008.02.016.026.01.006.016.018.016.026s.004.014.008.014c.005 0 .008.007.008.016 0 .009.004.016.008.016.005 0 .008.006.008.014s.007.02.016.026c.009.006.016.018.016.026 0 .007.004.014.008.014.005 0 .008.007.008.016 0 .008.004.016.008.016s.008.007.008.015c0 .01.004.016.008.016s.008.007.008.015.007.019.016.025c.009.007.016.018.016.026s.003.014.008.014c.004 0 .008.007.008.016 0 .009.003.016.008.016.004 0 .008.007.008.014 0 .008.007.02.016.026.008.006.016.018.016.026s.003.014.008.014c.004 0 .008.007.008.016 0 .009.003.016.007.016.005 0 .008.006.008.014s.008.02.017.026c.008.006.015.018.015.025 0 .008.004.015.008.015.005 0 .008.006.008.014s.008.02.016.025c.01.007.016.018.016.026s.004.014.008.014c.005 0 .008.007.008.015 0 .007.007.019.016.025.009.007.016.018.016.026s.004.014.008.014.008.006.008.014.007.02.016.026c.009.006.016.018.016.026s.004.014.008.014.008.006.008.014.007.02.016.026c.008.006.016.018.016.025 0 .008.003.015.008.015.004 0 .008.006.008.014s.007.02.016.026c.008.006.015.017.015.023 0 .007.008.018.016.024.01.007.016.018.016.026s.004.014.008.014c.005 0 .008.007.008.014 0 .008.008.02.016.026.01.006.016.017.016.024 0 .007.007.018.016.024.009.006.016.018.016.026s.004.014.008.014c.005 0 .008.006.008.014s.007.02.016.026c.009.006.016.017.016.024 0 .006.007.017.016.024.009.006.016.017.016.023 0 .007.007.018.016.024.009.007.016.017.016.024 0 .007.007.018.016.024.008.007.016.017.016.024 0 .007.007.018.016.024.008.006.015.017.015.024 0 .007.008.018.017.024.008.006.015.017.015.024 0 .007.008.017.016.024.01.006.016.017.016.024 0 .007.008.017.016.024.009.006.016.017.016.024 0 .006.007.017.016.024.009.006.016.017.016.024 0 .006.007.017.016.023.009.007.016.018.016.024 0 .007.007.018.016.024.009.007.016.017.016.023 0 .006.01.02.024.033.013.012.024.027.024.033 0 .006.007.017.016.023.008.006.016.016.016.023 0 .006.01.02.024.033.013.012.023.027.023.033 0 .006.008.016.016.023.01.006.016.016.016.022 0 .006.011.021.024.034.013.012.024.026.024.031 0 .006.01.02.024.032.013.013.024.027.024.032 0 .005.01.02.024.032.013.012.024.027.024.032 0 .005.01.02.024.032.013.012.024.026.024.032 0 .005.01.02.024.032.013.012.023.026.023.031 0 .006.015.024.032.04.018.017.032.035.032.04 0 .005.014.023.032.04.018.017.032.035.032.04 0 .005.018.027.04.048.022.021.04.043.04.048 0 .005.018.026.04.048.021.021.04.043.04.048 0 .004.02.03.047.055a.236.236 0 0 1 .048.056c0 .005.032.04.072.08a.53.53 0 0 1 .072.08c0 .01.467.478.478.478a.39.39 0 0 1 .064.056.33.33 0 0 0 .063.056c.005 0 .03.022.056.048a.247.247 0 0 0 .056.048c.005 0 .023.014.04.032a.14.14 0 0 0 .04.032c.005 0 .02.01.032.023.012.014.026.024.031.024.005 0 .024.015.04.032.017.018.036.032.042.032.006 0 .016.007.022.016.006.009.017.016.023.016.006 0 .02.01.033.024.012.013.027.024.033.024.006 0 .016.007.023.016.006.009.017.016.024.016.007 0 .017.007.024.016.006.009.017.016.023.016.007 0 .018.007.024.016.007.008.018.016.024.016.007 0 .018.007.024.016.007.008.018.016.026.016s.014.003.014.007c0 .005.006.008.014.008s.02.008.026.017c.006.008.018.015.026.015.007 0 .014.004.014.008 0 .005.006.008.014.008s.02.008.026.016c.006.01.018.016.025.016.008 0 .014.004.014.008 0 .005.008.008.016.008.01 0 .016.004.016.008 0 .005.007.008.015.008.007 0 .019.007.025.016.007.009.018.016.026.016s.014.004.014.008c0 .005.007.008.016.008.009 0 .016.004.016.008s.007.008.016.008c.009 0 .016.004.016.008s.007.008.016.008c.009 0 .016.004.016.008s.007.008.016.008c.008 0 .016.003.016.008 0 .004.007.008.016.008.008 0 .015.003.015.008 0 .004.011.008.024.008.014 0 .024.003.024.008 0 .004.008.008.016.008.01 0 .016.003.016.008 0 .004.007.008.016.008.009 0 .016.003.016.008 0 .004.007.008.016.008.009 0 .016.003.016.008 0 .004.01.008.024.008.013 0 .024.003.024.008 0 .004.007.008.016.008.009 0 .016.003.016.008 0 .004.01.008.024.008.013 0 .024.003.024.008 0 .004.01.008.024.008.013 0 .023.003.023.007 0 .005.011.008.024.008.014 0 .024.004.024.008 0 .005.011.008.024.008.013 0 .024.004.024.008 0 .005.01.008.024.008.013 0 .024.004.024.008 0 .005.01.008.024.008.013 0 .024.004.024.008 0 .005.014.008.032.008.017 0 .032.004.032.008 0 .005.014.008.031.008.018 0 .032.004.032.008 0 .005.015.008.032.008.018 0 .032.004.032.008 0 .005.018.008.04.008.022 0 .04.004.04.008s.018.008.04.008c.021 0 .04.004.04.008 0 .005.023.008.055.008s.056.003.056.008.035.008.088.008c.053 0 .087.003.087.008s.067.008.184.008a.855.855 0 0 0 .183-.008c0-.005.035-.008.088-.008.053 0 .088-.003.088-.008s.023-.008.055-.008.056-.003.056-.008c0-.004.021-.008.048-.008.026 0 .048-.004.048-.008s.018-.008.04-.008c.022 0 .04-.004.04-.008s.017-.008.04-.008c.021 0 .04-.003.04-.008 0-.004.017-.008.04-.008.021 0 .039-.003.039-.008 0-.004.014-.008.032-.008.017 0 .032-.003.032-.008 0-.004.014-.008.032-.008.017 0 .031-.003.031-.008 0-.004.015-.008.032-.008.018 0 .032-.003.032-.008 0-.004.015-.008.032-.008.018 0 .032-.003.032-.008 0-.004.01-.008.024-.008.013 0 .024-.003.024-.008 0-.004.014-.008.032-.008.017 0 .032-.003.032-.008 0-.004.01-.008.024-.008.013 0 .024-.003.024-.008 0-.004.01-.007.023-.007.014 0 .024-.004.024-.008 0-.005.011-.008.024-.008.013 0 .024-.004.024-.008 0-.005.015-.008.032-.008.018 0 .032-.004.032-.008 0-.005.01-.008.024-.008.013 0 .024-.004.024-.008 0-.005.01-.008.024-.008.013 0 .024-.004.024-.008 0-.005.007-.008.015-.008.01 0 .016-.004.016-.008 0-.005.011-.008.024-.008.014 0 .024-.004.024-.008 0-.005.011-.008.024-.008.013 0 .024-.004.024-.008 0-.005.01-.008.024-.008.013 0 .024-.004.024-.008s.01-.008.024-.008c.013 0 .024-.004.024-.008s.007-.008.016-.008c.009 0 .016-.004.016-.008s.01-.008.024-.008c.013 0 .024-.004.024-.008s.01-.008.023-.008c.014 0 .024-.003.024-.008 0-.004.008-.008.016-.008.009 0 .016-.003.016-.008 0-.004.011-.008.024-.008.013 0 .024-.003.024-.008 0-.004.007-.008.016-.008.009 0 .016-.003.016-.008 0-.004.01-.008.024-.008.013 0 .024-.003.024-.008 0-.004.007-.008.016-.008.009 0 .016-.003.016-.008 0-.004.01-.008.023-.008.014 0 .024-.003.024-.008 0-.004.008-.008.016-.008.01 0 .016-.003.016-.008 0-.004.011-.008.024-.008.013 0 .024-.003.024-.008 0-.004.007-.007.016-.007.009 0 .016-.004.016-.008 0-.005.01-.008.024-.008.013 0 .024-.004.024-.008 0-.005.007-.008.016-.008.009 0 .016-.004.016-.008 0-.005.01-.008.024-.008.013 0 .024-.004.024-.008 0-.005.007-.008.016-.008.008 0 .015-.004.015-.008 0-.005.011-.008.024-.008.014 0 .024-.004.024-.008 0-.005.011-.008.024-.008.013 0 .024-.004.024-.008 0-.005.007-.008.016-.008.009 0 .016-.004.016-.008 0-.005.01-.008.024-.008.013 0 .024-.004.024-.008s.01-.008.024-.008c.013 0 .024-.004.024-.008s.01-.008.024-.008c.013 0 .024-.004.024-.008s.01-.008.023-.008c.014 0 .024-.004.024-.008s.011-.008.024-.008c.013 0 .024-.004.024-.008s.011-.008.024-.008c.013 0 .024-.003.024-.008 0-.004.01-.008.024-.008.013 0 .024-.003.024-.008 0-.004.01-.008.024-.008.013 0 .024-.003.024-.008 0-.004.01-.008.024-.008.013 0 .024-.003.024-.008 0-.004.01-.008.023-.008.014 0 .024-.003.024-.008 0-.004.015-.008.032-.008.018 0 .032-.003.032-.008 0-.004.01-.008.024-.008.013 0 .024-.003.024-.008 0-.004.014-.008.032-.008.017 0 .032-.003.032-.008 0-.004.01-.007.024-.007.013 0 .024-.004.024-.008 0-.005.014-.008.031-.008.018 0 .032-.004.032-.008 0-.005.015-.008.032-.008.018 0 .032-.004.032-.008 0-.005.018-.008.04-.008.022 0 .04-.004.04-.008 0-.005.014-.008.032-.008.017 0 .032-.004.032-.008 0-.005.017-.008.04-.008.021 0 .04-.004.04-.008 0-.005.017-.008.04-.008.021 0 .039-.004.039-.008 0-.005.021-.008.048-.008.026 0 .048-.004.048-.008 0-.005.02-.008.047-.008s.048-.004.048-.008c0-.005.024-.008.056-.008s.056-.003.056-.008.032-.008.08-.008c.047 0 .08-.003.08-.008s.119-.008.342-.008c.223 0 .343.003.343.008s.032.008.08.008c.047 0 .08.003.08.008s.026.008.063.008c.037 0 .064.003.064.008s.024.008.056.008.056.003.056.008c0 .004.02.008.047.008s.048.003.048.008c0 .004.018.008.04.008.022 0 .04.003.04.008 0 .004.018.008.04.008.022 0 .04.003.04.008 0 .004.018.008.04.008.021 0 .04.003.04.008 0 .004.017.008.04.008.021 0 .039.003.039.008 0 .004.014.008.032.008.018 0 .032.003.032.008 0 .004.014.008.032.008.017 0 .032.003.032.008 0 .004.014.008.032.008.017 0 .031.003.031.008 0 .004.015.008.032.008.018 0 .032.003.032.008 0 .004.014.007.032.007.018 0 .032.004.032.008 0 .005.014.008.032.008.017 0 .032.004.032.008 0 .005.014.008.032.008.017 0 .031.004.031.008 0 .005.011.008.024.008.014 0 .024.004.024.008 0 .005.015.008.032.008.018 0 .032.004.032.008 0 .005.01.008.024.008.013 0 .024.004.024.008 0 .005.01.008.024.008.013 0 .024.004.024.008 0 .005.014.008.032.008.017 0 .032.004.032.008 0 .005.01.008.023.008.014 0 .024.004.024.008 0 .005.011.008.024.008.013 0 .024.004.024.008s.01.008.024.008c.013 0 .024.004.024.008s.01.008.024.008c.013 0 .024.003.024.008 0 .004.01.008.024.008.013 0 .024.003.024.008 0 .004.01.008.024.008.013 0 .023.003.023.008 0 .004.011.008.024.008.014 0 .024.003.024.008 0 .004.011.008.024.008.013 0 .024.003.024.008 0 .004.01.008.024.008.013 0 .024.003.024.008 0 .004.007.008.016.008.009 0 .016.003.016.008 0 .004.01.008.024.008.013 0 .024.003.024.008 0 .004.01.008.024.008.013 0 .023.003.023.007 0 .005.011.008.024.008.014 0 .024.004.024.009 0 .004.011.008.024.008.013 0 .024.003.024.007 0 .005.01.008.024.008.013 0 .024.004.024.008 0 .005.01.008.024.008.013 0 .024.004.024.008 0 .005.007.008.016.008.009 0 .016.004.016.008 0 .005.01.008.024.008.013 0 .023.004.023.008 0 .005.011.008.024.008.014 0 .024.004.024.008 0 .005.011.008.024.008.013 0 .024.004.024.008 0 .005.011.008.024.008.013 0 .024.004.024.008 0 .005.014.008.032.008.017 0 .032.004.032.008 0 .005.01.008.024.008.013 0 .024.004.024.008s.01.008.023.008c.014 0 .024.004.024.008s.011.008.024.008c.014 0 .024.004.024.008s.011.008.024.008c.013 0 .024.003.024.008 0 .004.015.008.032.008.018 0 .032.003.032.008 0 .004.01.008.024.008.013 0 .024.003.024.008 0 .004.014.008.032.008.017 0 .031.003.031.008 0 .004.011.008.024.008.014 0 .024.003.024.008 0 .004.015.008.032.008.018 0 .032.003.032.008 0 .004.014.008.032.008.017 0 .032.003.032.008 0 .004.014.008.032.008.017 0 .032.003.032.008 0 .004.014.008.031.008.018 0 .032.003.032.008 0 .004.015.008.032.008.018 0 .032.003.032.007 0 .005.014.008.032.008.018 0 .032.004.032.008 0 .005.018.008.04.008.022 0 .04.004.04.008 0 .005.018.008.04.008.021 0 .04.004.04.008 0 .005.017.008.04.008.021 0 .04.004.04.008 0 .005.02.008.047.008s.048.004.048.008c0 .005.021.008.048.008.026 0 .047.004.047.008 0 .005.027.008.064.008.037 0 .064.004.064.008 0 .005.032.008.08.008s.08.003.08.008.071.008.199.008c.127 0 .199-.003.199-.008s.032-.008.08-.008.08-.003.08-.008c0-.004.023-.008.055-.008s.056-.003.056-.008c0-.004.018-.008.04-.008.022 0 .04-.003.04-.008 0-.004.018-.008.04-.008.022 0 .04-.003.04-.008 0-.004.014-.008.031-.008.018 0 .032-.003.032-.008 0-.004.015-.008.032-.008.018 0 .032-.003.032-.008 0-.004.01-.008.024-.008.013 0 .024-.003.024-.008 0-.004.01-.008.024-.008.013 0 .024-.003.024-.008 0-.004.01-.008.024-.008.013 0 .023-.003.023-.008 0-.004.011-.008.024-.008.014 0 .024-.003.024-.008 0-.004.011-.007.024-.007.013 0 .024-.004.024-.008 0-.005.01-.008.024-.008.013 0 .024-.004.024-.008 0-.005.007-.008.016-.008.009 0 .016-.004.016-.008 0-.005.01-.008.024-.008.013 0 .024-.004.024-.008 0-.005.007-.008.016-.008.008 0 .016-.004.016-.008 0-.005.007-.008.015-.008.01 0 .016-.004.016-.008 0-.005.011-.008.024-.008.014 0 .024-.004.024-.008 0-.005.008-.008.016-.008.009 0 .016-.004.016-.008 0-.005.007-.008.016-.008.009 0 .016-.004.016-.008s.007-.008.016-.008c.009 0 .016-.004.016-.008s.007-.008.016-.008c.009 0 .016-.004.016-.008s.007-.008.016-.008c.009 0 .016-.004.016-.008s.007-.008.016-.008c.008 0 .016-.003.016-.008 0-.004.006-.008.014-.008s.02-.007.025-.016c.007-.008.018-.016.026-.016s.014-.003.014-.008c0-.004.008-.008.016-.008.009 0 .016-.003.016-.008 0-.004.007-.008.016-.008.009 0 .016-.003.016-.008 0-.004.007-.008.014-.008.008 0 .02-.007.026-.016.006-.008.018-.016.026-.016.007 0 .014-.003.014-.008 0-.004.006-.007.014-.007s.02-.008.026-.016c.006-.01.017-.016.024-.016.006 0 .017-.008.023-.016.007-.01.018-.016.024-.016.007 0 .018-.007.024-.016.007-.009.017-.016.024-.016.007 0 .018-.007.024-.016.006-.009.017-.016.024-.016.007 0 .018-.007.024-.016.006-.009.016-.016.023-.016.006 0 .02-.01.033-.024.012-.013.026-.024.032-.024.005 0 .02-.01.032-.024.012-.013.026-.024.032-.024.005 0 .02-.01.031-.024.013-.013.027-.024.032-.024a.13.13 0 0 0 .04-.031c.017-.018.035-.032.04-.032a.14.14 0 0 0 .04-.032c.017-.018.035-.032.04-.032.005 0 .03-.022.056-.048a.257.257 0 0 1 .055-.048.637.637 0 0 0 .088-.08 4.449 4.449 0 0 0 .407-.399c0-.004.043-.05.095-.103a.892.892 0 0 0 .096-.104c0-.005.021-.03.048-.056a.254.254 0 0 0 .047-.056c0-.004.022-.03.048-.055a.255.255 0 0 0 .048-.056c0-.005.018-.027.04-.048a.185.185 0 0 0 .04-.048c0-.005.014-.023.032-.04a.14.14 0 0 0 .032-.04c0-.005.014-.023.032-.04.017-.016.031-.034.031-.04 0-.005.015-.022.032-.04.018-.016.032-.034.032-.04 0-.005.011-.019.024-.031.013-.012.024-.027.024-.032 0-.005.01-.02.024-.032.013-.012.024-.026.024-.032 0-.005.01-.02.024-.032.013-.012.024-.026.024-.032 0-.005.01-.02.024-.031.013-.013.024-.027.024-.032 0-.006.01-.02.023-.032.014-.013.024-.028.024-.034 0-.006.008-.016.016-.022.01-.006.016-.017.016-.023 0-.006.011-.02.024-.033.013-.012.024-.027.024-.033 0-.006.007-.017.016-.023.009-.006.016-.017.016-.024 0-.007.007-.017.016-.024.009-.006.016-.016.016-.022 0-.006.01-.021.024-.034.013-.012.024-.027.024-.033 0-.006.007-.016.016-.022.008-.007.015-.017.015-.024 0-.007.008-.018.017-.024.008-.006.015-.017.015-.024 0-.007.008-.018.016-.024.01-.006.016-.017.016-.024 0-.007.008-.018.016-.024.009-.006.016-.017.016-.024 0-.007.007-.017.016-.024.009-.006.016-.017.016-.024 0-.006.007-.017.016-.024.009-.006.016-.017.016-.023 0-.007.007-.018.016-.024.009-.007.016-.018.016-.024 0-.007.007-.018.016-.024.009-.007.016-.017.016-.024 0-.007.007-.018.016-.024.008-.006.016-.018.016-.026s.003-.014.008-.014c.004 0 .008-.006.008-.014s.007-.02.015-.026c.01-.006.016-.017.016-.024 0-.007.008-.017.016-.024.01-.006.016-.017.016-.024 0-.007.008-.017.016-.024.01-.006.016-.018.016-.025 0-.008.004-.014.008-.014.005 0 .008-.007.008-.015s.007-.02.016-.025c.009-.007.016-.018.016-.024 0-.007.007-.018.016-.024.009-.007.016-.018.016-.026s.003-.014.008-.014c.004 0 .008-.006.008-.014s.007-.02.016-.026c.009-.006.016-.018.016-.026s.003-.014.008-.014c.004 0 .008-.006.008-.014s.007-.02.016-.026c.008-.006.016-.017.016-.024 0-.007.007-.017.016-.024.008-.006.015-.017.015-.025s.004-.015.008-.015c.005 0 .008-.006.008-.014s.008-.02.016-.025c.01-.007.016-.018.016-.026s.004-.014.008-.014c.005 0 .008-.007.008-.015 0-.007.008-.019.016-.025.009-.007.016-.018.016-.026s.004-.014.008-.014c.005 0 .008-.007.008-.016 0-.009.004-.016.008-.016.005 0 .008-.006.008-.014s.007-.02.016-.026c.009-.006.016-.018.016-.026 0-.007.003-.014.008-.014.004 0 .008-.006.008-.014s.007-.02.016-.026c.009-.006.016-.018.016-.025 0-.008.003-.014.008-.014.004 0 .008-.008.008-.016 0-.01.003-.016.008-.016.004 0 .008-.007.008-.015 0-.007.007-.019.016-.025.008-.007.015-.018.015-.026s.004-.014.008-.014c.005 0 .008-.007.008-.016 0-.009.004-.016.009-.016.004 0 .007-.007.007-.016 0-.009.004-.016.008-.016.005 0 .008-.006.008-.014s.008-.02.016-.026c.01-.006.016-.018.016-.025 0-.008.004-.015.008-.015.005 0 .008-.007.008-.016 0-.008.004-.016.008-.016.005 0 .008-.007.008-.016 0-.008.004-.015.008-.015.005 0 .008-.008.008-.017 0-.008.004-.015.008-.015s.008-.007.008-.015c0-.007.007-.019.016-.025.009-.007.016-.018.016-.026s.003-.014.008-.014c.004 0 .008-.007.008-.016 0-.009.003-.016.008-.016.004 0 .008-.007.008-.016 0-.009.003-.016.008-.016.004 0 .008-.007.008-.016 0-.009.003-.016.008-.016.004 0 .008-.007.008-.016 0-.009.003-.016.008-.016.004 0 .008-.007.008-.016 0-.009.003-.016.008-.016.004 0 .008-.006.008-.014s.007-.02.015-.026c.01-.006.017-.017.017-.025s.003-.015.007-.015c.005 0 .008-.007.008-.015 0-.01.004-.016.008-.016.005 0 .008-.008.008-.016 0-.01.004-.016.008-.016.005 0 .008-.008.008-.016 0-.009.004-.016.008-.016.005 0 .008-.007.008-.016 0-.009.004-.016.008-.016.005 0 .008-.007.008-.016 0-.009.004-.016.008-.016.005 0 .008-.007.008-.016 0-.009.004-.016.008-.016.005 0 .008-.007.008-.016 0-.009.004-.016.008-.016s.008-.007.008-.016c0-.008.004-.016.008-.016s.008-.007.008-.016c0-.008.003-.016.008-.016.004 0 .008-.007.008-.016 0-.008.004-.015.008-.015s.008-.008.008-.016c0-.01.003-.016.008-.016.004 0 .008-.008.008-.016 0-.01.003-.016.008-.016.004 0 .008-.008.008-.016 0-.01.003-.016.008-.016.004 0 .008-.007.008-.016 0-.009.003-.016.008-.016.004 0 .008-.01.008-.024 0-.013.003-.024.008-.024.004 0 .008-.007.008-.016 0-.009.003-.016.008-.016.004 0 .008-.007.008-.016 0-.009.003-.016.008-.016.004 0 .007-.007.007-.016 0-.008.004-.016.008-.016.005 0 .008-.007.008-.016 0-.008.004-.016.008-.016.005 0 .008-.007.008-.016 0-.008.004-.015.008-.015.005 0 .008-.008.008-.017 0-.008.004-.015.008-.015.005 0 .008-.011.008-.024 0-.014.004-.024.008-.024.005 0 .008-.008.008-.016 0-.009.004-.016.008-.016.005 0 .008-.007.008-.016 0-.009.004-.016.008-.016.005 0 .008-.007.008-.016 0-.009.004-.016.008-.016s.008-.007.008-.016c0-.009.004-.016.008-.016s.008-.01.008-.024c0-.013.003-.024.008-.024.004 0 .008-.007.008-.016 0-.008.003-.016.008-.016.004 0 .008-.007.008-.016 0-.008.003-.016.008-.016.004 0 .008-.01.008-.024 0-.013.003-.023.008-.023.004 0 .008-.008.008-.016 0-.01.003-.016.008-.016.004 0 .008-.008.008-.016 0-.01.003-.016.008-.016.004 0 .008-.011.008-.024 0-.013.003-.024.008-.024.004 0 .008-.007.008-.016 0-.009.003-.016.008-.016.004 0 .008-.01.008-.024 0-.013.003-.024.007-.024.005 0 .008-.007.008-.016 0-.009.004-.016.008-.016.005 0 .008-.007.008-.016 0-.008.004-.016.008-.016.005 0 .008-.01.008-.024 0-.013.004-.023.008-.023.005 0 .008-.008.008-.017 0-.008.004-.015.008-.015.005 0 .008-.011.008-.024 0-.013.004-.024.008-.024.005 0 .008-.008.008-.016 0-.009.004-.016.008-.016.005 0 .008-.011.008-.024 0-.013.004-.024.008-.024s.008-.01.008-.024c0-.013.004-.024.008-.024s.008-.007.008-.016c0-.009.004-.016.008-.016s.008-.01.008-.024c0-.013.004-.024.008-.024s.008-.01.008-.024c0-.013.003-.023.008-.023.004 0 .008-.008.008-.016 0-.01.003-.016.008-.016.004 0 .008-.011.008-.024 0-.014.003-.024.008-.024.004 0 .008-.011.008-.024 0-.013.003-.024.008-.024.004 0 .008-.01.008-.024 0-.013.003-.024.008-.024.004 0 .008-.01.008-.024 0-.013.003-.024.008-.024.004 0 .008-.007.008-.016 0-.009.003-.016.008-.016.004 0 .008-.01.008-.024 0-.013.003-.024.007-.024.005 0 .008-.01.008-.024 0-.013.004-.023.008-.023.005 0 .008-.011.008-.024 0-.014.004-.024.008-.024.005 0 .008-.011.008-.024 0-.013.004-.024.008-.024.005 0 .008-.011.008-.024 0-.013.004-.024.008-.024.005 0 .008-.014.008-.032 0-.018.004-.032.008-.032.005 0 .008-.01.008-.023s.005-.025.01-.027c.016-.005-.014-.03-.037-.03-.012 0-.02-.003-.02-.008 0-.004-.012-.008-.025-.008-.013 0-.024-.003-.024-.008 0-.004-.01-.008-.024-.008-.013 0-.023-.003-.023-.008 0-.004-.011-.008-.024-.008-.013 0-.024-.003-.024-.008 0-.004-.007-.007-.016-.007-.009 0-.016-.004-.016-.008 0-.005-.01-.008-.024-.008-.013 0-.024-.004-.024-.008 0-.005-.01-.008-.024-.008-.013 0-.024-.004-.024-.008 0-.005-.007-.008-.016-.008-.009 0-.016-.004-.016-.008 0-.005-.007-.008-.016-.008-.008 0-.015-.004-.015-.008 0-.005-.011-.008-.024-.008-.014 0-.024-.004-.024-.008 0-.005-.008-.008-.016-.008-.01 0-.016-.004-.016-.008 0-.005-.007-.008-.016-.008-.009 0-.016-.004-.016-.008 0-.005-.007-.008-.016-.008-.009 0-.016-.004-.016-.008s-.007-.008-.016-.008c-.009 0-.016-.004-.016-.008s-.007-.008-.016-.008c-.009 0-.016-.003-.016-.008 0-.004-.007-.008-.016-.008-.008 0-.016-.003-.016-.008 0-.004-.007-.008-.016-.008-.008 0-.016-.003-.016-.008 0-.004-.007-.008-.015-.008-.01 0-.016-.003-.016-.008 0-.004-.008-.008-.016-.008-.01 0-.016-.003-.016-.008 0-.004-.007-.008-.014-.008-.008 0-.02-.007-.026-.016-.006-.008-.018-.016-.026-.016s-.014-.003-.014-.008c0-.004-.007-.008-.016-.008-.009 0-.016-.003-.016-.008 0-.004-.006-.008-.014-.008s-.02-.007-.026-.015c-.006-.01-.017-.016-.024-.016-.006 0-.017-.008-.024-.016-.006-.01-.017-.016-.025-.016s-.015-.004-.015-.008c0-.005-.006-.008-.014-.008s-.019-.008-.025-.016c-.007-.009-.017-.016-.024-.016-.007 0-.018-.007-.024-.016-.006-.009-.017-.016-.023-.016-.006 0-.02-.01-.033-.024-.012-.013-.027-.024-.033-.024-.006 0-.016-.007-.023-.016-.006-.009-.016-.016-.022-.016-.006 0-.021-.01-.034-.024-.012-.013-.026-.024-.031-.024-.005 0-.023-.014-.04-.032a.14.14 0 0 0-.04-.032.13.13 0 0 1-.04-.031c-.017-.018-.035-.032-.04-.032a.332.332 0 0 1-.064-.056 4.414 4.414 0 0 1-.291-.275 4.384 4.384 0 0 1-.275-.291.334.334 0 0 1-.055-.064.184.184 0 0 0-.04-.048.185.185 0 0 1-.04-.048.14.14 0 0 0-.032-.04c-.018-.017-.032-.035-.032-.04 0-.005-.01-.02-.024-.032-.013-.012-.024-.026-.024-.032 0-.005-.01-.02-.024-.032-.013-.012-.024-.026-.024-.031 0-.006-.01-.02-.024-.032-.013-.013-.023-.027-.023-.032 0-.006-.011-.02-.024-.032-.014-.012-.024-.027-.024-.032 0-.005-.011-.02-.024-.032-.013-.012-.024-.027-.024-.033 0-.006-.007-.016-.016-.023-.009-.006-.016-.017-.016-.024 0-.006-.007-.017-.016-.024-.009-.006-.016-.017-.016-.023 0-.007-.007-.018-.016-.024-.009-.007-.016-.018-.016-.024 0-.007-.007-.018-.016-.024-.008-.007-.016-.017-.016-.024 0-.007-.007-.018-.016-.024-.008-.007-.015-.017-.015-.024 0-.007-.008-.018-.016-.024-.01-.006-.016-.017-.016-.024 0-.007-.008-.018-.016-.024a.034.034 0 0 1-.016-.026c0-.007-.004-.014-.008-.014-.005 0-.008-.006-.008-.014s-.007-.02-.016-.026c-.009-.006-.016-.017-.016-.025s-.004-.015-.008-.015c-.005 0-.008-.006-.008-.014s-.007-.02-.016-.025c-.009-.007-.016-.018-.016-.026s-.003-.014-.008-.014c-.004 0-.008-.008-.008-.016 0-.009-.003-.016-.008-.016-.004 0-.008-.007-.008-.014 0-.008-.007-.02-.016-.026-.009-.006-.016-.018-.016-.026s-.003-.014-.008-.014c-.004 0-.008-.007-.008-.016 0-.009-.003-.016-.008-.016-.004 0-.008-.007-.008-.016 0-.009-.003-.016-.008-.016-.004 0-.008-.007-.008-.016 0-.009-.003-.016-.008-.016-.004 0-.008-.007-.008-.016 0-.008-.003-.016-.008-.016-.004 0-.007-.007-.007-.016 0-.008-.004-.015-.008-.015-.005 0-.008-.008-.008-.016 0-.01-.004-.016-.008-.016-.005 0-.008-.008-.008-.016 0-.01-.004-.016-.008-.016-.005 0-.008-.008-.008-.016 0-.009-.004-.016-.008-.016-.005 0-.008-.007-.008-.016 0-.009-.004-.016-.008-.016-.005 0-.008-.007-.008-.016 0-.009-.004-.016-.008-.016-.005 0-.008-.007-.008-.016 0-.009-.004-.016-.008-.016s-.008-.007-.008-.016c0-.009-.004-.016-.008-.016s-.008-.007-.008-.016c0-.009-.004-.016-.008-.016s-.008-.007-.008-.016c0-.008-.003-.016-.008-.016-.004 0-.008-.01-.008-.024 0-.013-.004-.024-.008-.024s-.008-.007-.008-.015c0-.01-.003-.016-.008-.016-.004 0-.008-.008-.008-.016 0-.01-.003-.016-.008-.016-.004 0-.008-.011-.008-.024 0-.013-.003-.024-.008-.024-.004 0-.008-.007-.008-.016 0-.009-.003-.016-.008-.016-.004 0-.008-.01-.008-.024 0-.013-.003-.024-.008-.024-.004 0-.008-.007-.008-.016 0-.009-.003-.016-.008-.016-.004 0-.008-.01-.008-.024 0-.013-.003-.024-.008-.024-.004 0-.007-.007-.007-.016 0-.008-.004-.016-.008-.016-.005 0-.008-.01-.008-.023 0-.014-.004-.024-.008-.024-.005 0-.008-.011-.008-.024 0-.013-.004-.024-.008-.024-.005 0-.008-.011-.008-.024 0-.013-.004-.024-.008-.024-.005 0-.008-.01-.008-.024 0-.013-.004-.024-.008-.024-.005 0-.008-.01-.008-.024 0-.013-.004-.024-.008-.024-.005 0-.008-.01-.008-.024 0-.013-.004-.024-.008-.024s-.008-.01-.008-.024c0-.013-.004-.024-.008-.024s-.008-.01-.008-.023c0-.014-.004-.024-.008-.024s-.008-.015-.008-.032c0-.018-.003-.032-.008-.032-.004 0-.008-.011-.008-.024 0-.013-.003-.024-.008-.024-.004 0-.008-.015-.008-.032 0-.018-.003-.032-.008-.032-.004 0-.008-.014-.008-.032 0-.017-.003-.032-.008-.032-.004 0-.008-.014-.008-.032 0-.017-.003-.032-.008-.032-.004 0-.008-.014-.008-.031 0-.018-.003-.032-.008-.032-.004 0-.008-.018-.008-.04 0-.022-.003-.04-.008-.04-.004 0-.008-.014-.008-.032 0-.018-.003-.032-.007-.032-.005 0-.009-.018-.009-.04 0-.022-.003-.04-.007-.04-.005 0-.008-.02-.008-.047s-.004-.048-.008-.048c-.005 0-.008-.022-.008-.048 0-.027-.004-.048-.008-.048-.005 0-.008-.024-.008-.056s-.004-.056-.008-.056c-.005 0-.008-.024-.008-.056 0-.031-.004-.055-.008-.055-.005 0-.008-.03-.008-.072 0-.043-.003-.072-.008-.072s-.008-.037-.008-.096c0-.058-.003-.095-.008-.095s-.008-.077-.008-.216c0-.138-.003-.215-.008-.215s-.008-.021-.008-.048.003-.048.008-.048.008-.072.008-.2c0-.127.003-.199.008-.199s.008-.034.008-.087c0-.054.003-.088.008-.088s.008-.03.008-.072c0-.043.003-.072.008-.072.004 0 .008-.024.008-.056s.003-.055.008-.055c.004 0 .008-.022.008-.048 0-.027.003-.048.008-.048.004 0 .008-.021.008-.048 0-.026.003-.048.008-.048.004 0 .008-.018.008-.04 0-.022.003-.04.008-.04.004 0 .008-.017.008-.04 0-.021.003-.04.008-.04.004 0 .008-.014.008-.031 0-.018.003-.032.008-.032.004 0 .007-.018.007-.04 0-.022.004-.04.008-.04.005 0 .008-.014.008-.032 0-.017.004-.032.008-.032.005 0 .008-.01.008-.024 0-.013.004-.024.008-.024.005 0 .008-.014.008-.032 0-.017.004-.031.008-.031.005 0 .008-.015.008-.032 0-.018.004-.032.008-.032.005 0 .008-.011.008-.024 0-.013.004-.024.008-.024.005 0 .008-.01.008-.024 0-.013.004-.024.008-.024s.008-.01.008-.024c0-.013.004-.024.008-.024s.008-.01.008-.024c0-.013.004-.024.008-.024s.008-.01.008-.024c0-.013.004-.024.008-.024s.008-.01.008-.023c0-.014.003-.024.008-.024.004 0 .008-.011.008-.024 0-.013.003-.024.008-.024.004 0 .008-.011.008-.024 0-.013.003-.024.008-.024.004 0 .008-.007.008-.016 0-.009.003-.016.008-.016.004 0 .008-.01.008-.024 0-.013.003-.024.008-.024.004 0 .008-.01.008-.024 0-.013.003-.024.008-.024.004 0 .008-.007.008-.016 0-.008.003-.016.008-.016.004 0 .008-.007.008-.015 0-.01.003-.016.007-.016.005 0 .008-.011.008-.024 0-.014.004-.024.008-.024.005 0 .008-.008.008-.016 0-.01.004-.016.008-.016.005 0 .008-.007.008-.016 0-.009.004-.016.008-.016.005 0 .008-.01.008-.024 0-.013.004-.024.008-.024.005 0 .008-.007.008-.016 0-.009.004-.016.008-.016.005 0 .008-.007.008-.016 0-.009.004-.016.008-.016.005 0 .008-.007.008-.016 0-.008.004-.016.008-.016s.008-.007.008-.016c0-.008.004-.016.008-.016s.008-.007.008-.016c0-.008.004-.015.008-.015s.008-.008.008-.017c0-.008.003-.015.008-.015.004 0 .008-.008.008-.016 0-.01.003-.016.008-.016.004 0 .008-.008.008-.016 0-.01.003-.016.008-.016.004 0 .008-.007.008-.016 0-.009.003-.016.008-.016.004 0 .008-.007.008-.016 0-.009.003-.016.008-.016.004 0 .008-.007.008-.016 0-.009.003-.016.008-.016.004 0 .008-.007.008-.016 0-.009.003-.016.008-.016.004 0 .008-.006.008-.014s.007-.02.015-.026c.01-.006.016-.018.016-.025 0-.008.004-.015.008-.015.005 0 .008-.007.008-.016 0-.008.004-.016.008-.016.005 0 .008-.006.008-.014s.007-.02.016-.025c.009-.007.016-.018.016-.026s.004-.014.008-.014c.005 0 .008-.007.008-.014 0-.008.007-.02.016-.026.009-.006.016-.018.016-.026s.004-.014.008-.014.008-.006.008-.014.007-.02.016-.026c.009-.006.016-.017.016-.024 0-.007.007-.018.016-.024.009-.006.016-.017.016-.024 0-.007.007-.017.016-.024.008-.006.016-.017.016-.024 0-.006.007-.017.016-.024.008-.006.015-.017.015-.023 0-.007.008-.018.016-.024.01-.007.016-.017.016-.024 0-.007.008-.018.016-.024.01-.006.016-.017.016-.024 0-.007.007-.018.016-.024.009-.006.016-.016.016-.023 0-.006.01-.02.024-.033.013-.012.024-.027.024-.032 0-.005.01-.02.024-.032.013-.012.024-.026.024-.032 0-.005.01-.02.024-.032.013-.012.024-.026.024-.031 0-.005.014-.023.032-.04a.13.13 0 0 0 .031-.04c0-.005.018-.027.04-.048a.184.184 0 0 0 .04-.048c0-.005.022-.03.048-.056a.258.258 0 0 0 .048-.055c0-.005.029-.038.064-.072a.437.437 0 0 0 .063-.072c0-.01.707-.718.718-.718a.657.657 0 0 0 .088-.08.642.642 0 0 1 .087-.08.428.428 0 0 0 .072-.063.422.422 0 0 1 .072-.064.338.338 0 0 0 .063-.056.344.344 0 0 1 .064-.056.31.31 0 0 0 .06-.052l.053-.052-.025-.023c-.013-.012-.024-.027-.024-.032a.183.183 0 0 0-.04-.048.187.187 0 0 1-.04-.048.251.251 0 0 0-.048-.056.255.255 0 0 1-.047-.056.421.421 0 0 0-.064-.072.428.428 0 0 1-.064-.071.896.896 0 0 0-.096-.104.923.923 0 0 1-.095-.104 4.904 4.904 0 0 0-.43-.422.744.744 0 0 0-.097-.088.257.257 0 0 1-.055-.048.256.256 0 0 0-.056-.048.252.252 0 0 1-.056-.048.25.25 0 0 0-.056-.048c-.005 0-.023-.014-.04-.032-.016-.017-.034-.031-.04-.031-.005 0-.019-.011-.031-.024-.012-.013-.027-.024-.032-.024a.14.14 0 0 1-.04-.032c-.017-.018-.035-.032-.041-.032-.006 0-.016-.007-.023-.016-.006-.009-.016-.016-.022-.016-.006 0-.021-.01-.034-.024-.012-.013-.027-.024-.033-.024-.006 0-.016-.007-.022-.016-.007-.008-.017-.016-.024-.016-.007 0-.018-.007-.024-.016-.007-.008-.017-.016-.024-.016-.007 0-.018-.007-.024-.016-.006-.008-.017-.015-.024-.015-.007 0-.017-.008-.024-.016-.006-.01-.017-.016-.024-.016-.007 0-.017-.008-.024-.016-.006-.01-.017-.016-.024-.016-.006 0-.017-.007-.023-.016-.007-.01-.018-.016-.026-.016s-.014-.004-.014-.008c0-.005-.007-.008-.015-.008-.007 0-.019-.007-.025-.016-.007-.009-.018-.016-.026-.016s-.014-.004-.014-.008c0-.005-.006-.008-.014-.008s-.02-.007-.026-.016c-.006-.009-.018-.016-.026-.016-.007 0-.014-.003-.014-.008 0-.004-.007-.008-.016-.008-.009 0-.016-.003-.016-.008 0-.004-.007-.008-.016-.008-.008 0-.016-.004-.016-.008s-.006-.008-.014-.008-.02-.007-.025-.016c-.007-.009-.018-.016-.026-.016s-.014-.003-.014-.008c0-.004-.008-.008-.016-.008-.009 0-.016-.003-.016-.008 0-.004-.007-.008-.016-.008-.009 0-.016-.003-.016-.008 0-.004-.007-.008-.016-.008-.009 0-.016-.003-.016-.008 0-.004-.007-.008-.016-.008-.009 0-.016-.003-.016-.008 0-.004-.007-.008-.016-.008-.009 0-.016-.003-.016-.008 0-.004-.007-.007-.016-.007-.008 0-.016-.004-.016-.008 0-.005-.007-.008-.015-.008-.01 0-.016-.004-.016-.008 0-.005-.008-.008-.016-.008-.01 0-.016-.004-.016-.008 0-.005-.008-.008-.016-.008-.01 0-.016-.004-.016-.008 0-.005-.011-.008-.024-.008-.013 0-.024-.004-.024-.008 0-.005-.007-.008-.016-.008-.009 0-.016-.004-.016-.008 0-.005-.007-.008-.016-.008-.009 0-.016-.004-.016-.008s-.007-.008-.016-.008c-.009 0-.016-.004-.016-.008s-.01-.008-.024-.008c-.013 0-.024-.004-.024-.008s-.007-.008-.015-.008c-.01 0-.017-.004-.017-.008s-.01-.008-.023-.008c-.014 0-.024-.004-.024-.008s-.008-.008-.016-.008c-.009 0-.016-.004-.016-.008s-.01-.008-.024-.008c-.013 0-.024-.004-.024-.008s-.007-.008-.016-.008c-.009 0-.016-.003-.016-.008 0-.004-.01-.008-.024-.008-.013 0-.024-.003-.024-.008 0-.004-.01-.008-.024-.008-.013 0-.024-.003-.024-.008 0-.004-.01-.008-.024-.008-.013 0-.023-.003-.023-.008 0-.004-.011-.008-.024-.008-.014 0-.024-.003-.024-.008 0-.004-.011-.008-.024-.008-.013 0-.024-.003-.024-.008 0-.004-.01-.008-.024-.008-.013 0-.024-.003-.024-.008 0-.004-.01-.008-.024-.008-.013 0-.024-.003-.024-.008 0-.004-.01-.007-.024-.007-.013 0-.023-.004-.023-.008 0-.005-.015-.008-.032-.008-.018 0-.032-.004-.032-.008 0-.005-.011-.008-.024-.008-.013 0-.024-.004-.024-.008 0-.005-.015-.008-.032-.008-.018 0-.032-.004-.032-.008 0-.005-.014-.008-.032-.008-.017 0-.032-.004-.032-.008 0-.005-.014-.008-.032-.008-.017 0-.032-.004-.032-.008 0-.005-.014-.008-.031-.008-.018 0-.032-.004-.032-.008 0-.005-.018-.008-.04-.008-.022 0-.04-.004-.04-.008 0-.005-.018-.008-.04-.008-.022 0-.04-.004-.04-.008s-.018-.008-.04-.008c-.021 0-.04-.004-.04-.008s-.02-.008-.047-.008-.048-.003-.048-.008c0-.004-.021-.008-.048-.008-.026 0-.048-.003-.048-.008 0-.004-.024-.008-.056-.008-.031 0-.055-.003-.055-.008s-.027-.008-.064-.008c-.037 0-.064-.003-.064-.008s-.032-.008-.08-.008c-.047 0-.08-.003-.08-.008s-.042-.008-.11-.008c-.07 0-.113-.003-.113-.008s-.122-.008-.35-.008c-.229 0-.351.003-.351.008z" clip-rule="evenodd"/></svg>