<svg width="42" height="42" fill="none" viewBox="0 0 42 42" xmlns="http://www.w3.org/2000/svg">
  <path fill="#9391F7" d="M21 42c11.598 0 21-9.402 21-21S32.598 0 21 0 0 9.402 0 21s9.402 21 21 21"/>
  <path fill="#fff" d="M17.096 22.024a3.303 3.303 0 1 0-1.059-6.521 3.303 3.303 0 0 0 1.059 6.521m8.634 0a3.303 3.303 0 1 0-1.06-6.521 3.303 3.303 0 0 0 1.06 6.521"/>
  <path fill="#fff" d="M20.878 5.128c-8.97 0-16.24 7.41-16.238 16.548h4.148c0-6.848 5.37-12.4 12.09-12.4s12.09 5.552 12.09 12.4h4.148c.002-9.138-7.27-16.548-16.238-16.548"/>
</svg>
