<svg xmlns="http://www.w3.org/2000/svg" width="43" height="43" fill="none"><path fill="url(#a)" d="M21.294 42.498c11.598 0 21-9.401 21-21 0-11.597-9.402-21-21-21s-21 9.403-21 21c0 11.598 9.402 21 21 21z"/><path fill="#fff" d="m30.446 29.782-7.062-17.05c-.399-.882-.989-1.313-1.77-1.313h-.624c-.781 0-1.371.431-1.77 1.312l-3.071 7.429h-2.325a1.272 1.272 0 0 0-1.267 1.26v.018a1.27 1.27 0 0 0 1.267 1.261h1.249l-2.932 7.083a1.492 1.492 0 0 0-.087.484c0 .397.121.708.347.95.225.242.538.362.937.362a1.27 1.27 0 0 0 .728-.241c.226-.156.382-.38.504-.64l3.227-7.998h2.238a1.272 1.272 0 0 0 1.267-1.261v-.035a1.27 1.27 0 0 0-1.267-1.26h-1.197l2.464-6.133 6.715 16.687c.121.26.278.484.503.64.212.154.467.238.729.241.399 0 .711-.12.937-.362.226-.242.347-.553.347-.95a1.14 1.14 0 0 0-.087-.484z"/><defs><linearGradient id="a" x1="38.388" x2="7.14" y1="10.033" y2="36.325" gradientUnits="userSpaceOnUse"><stop stop-color="#B6509E"/><stop offset="1" stop-color="#2EBAC6"/></linearGradient></defs></svg>