<svg width="48" height="50" viewBox="0 0 48 50" fill="none" xmlns="http://www.w3.org/2000/svg">
<path d="M24.0108 49.0571C37.1093 49.0571 47.7278 38.1869 47.7278 24.7778C47.7278 11.3687 37.1093 0.498505 24.0108 0.498505C10.9123 0.498505 0.293823 11.3687 0.293823 24.7778C0.293823 38.1869 10.9123 49.0571 24.0108 49.0571Z" fill="url(#paint0_linear_5735_50589)"/>
<path d="M34.3472 34.3546L26.3715 14.6417C25.9208 13.623 25.2546 13.1237 24.3727 13.1237H23.6673C22.7855 13.1237 22.1192 13.623 21.6685 14.6417L18.2002 23.2301H15.5741C15.196 23.2316 14.8338 23.3855 14.5659 23.6585C14.2981 23.9315 14.1464 24.3014 14.1436 24.6881V24.7081C14.1464 25.0948 14.2981 25.4647 14.5659 25.7377C14.8338 26.0107 15.196 26.1646 15.5741 26.1661H16.9848L13.6733 34.3546C13.6107 34.5343 13.5776 34.7233 13.5753 34.914C13.5753 35.3734 13.7125 35.7329 13.9673 36.0125C14.222 36.2922 14.5747 36.4318 15.0255 36.4318C15.3214 36.4277 15.6088 36.33 15.8483 36.1521C16.103 35.9723 16.2794 35.7127 16.4166 35.4131L20.0615 26.1658H22.5894C22.9675 26.1643 23.3298 26.0104 23.5976 25.7374C23.8654 25.4644 24.0171 25.0945 24.0199 24.7078V24.6678C24.0171 24.2811 23.8654 23.9111 23.5976 23.6382C23.3298 23.3652 22.9675 23.2113 22.5894 23.2098H21.2374L24.02 16.1196L31.6037 35.4132C31.7409 35.7128 31.9173 35.9726 32.172 36.1521C32.4116 36.3301 32.6991 36.4278 32.9951 36.4318C33.4458 36.4318 33.7985 36.292 34.0533 36.0124C34.3081 35.7327 34.4452 35.3733 34.4452 34.9139C34.4526 34.7224 34.4191 34.5316 34.3472 34.3546Z" fill="white"/>
<defs>
<linearGradient id="paint0_linear_5735_50589" x1="43.3164" y1="11.5213" x2="7.34286" y2="41.0883" gradientUnits="userSpaceOnUse">
<stop stop-color="#B6509E"/>
<stop offset="1" stop-color="#2EBAC6"/>
</linearGradient>
</defs>
</svg>
