<svg xmlns="http://www.w3.org/2000/svg" width="42" height="42" fill="none"><g clip-path="url(#a)"><path fill="#0D1E30" d="M21 42c11.598 0 21-9.402 21-21S32.598 0 21 0 0 9.402 0 21s9.402 21 21 21z"/><g filter="url(#b)"><path fill="#000" d="M20.639 7.954c.628-.324 1.396.425 1.063 1.043-.196.504-.932.638-1.308.254-.397-.368-.267-1.098.245-1.298zm-6.766.717c.382-.155.866.189.826.6.04.443-.511.771-.901.56-.516-.197-.457-1.021.075-1.16zM27.73 9.843c-.597-.071-.692-.995-.118-1.182.446-.212.856.188.921.604-.094.354-.396.68-.803.578zm-12.318 1.66c.64-.398 1.55.194 1.452.925-.033.737-1.028 1.164-1.59.666-.543-.391-.46-1.29.138-1.591zm9.752.423c.285-.722 1.44-.746 1.764-.042.322.547-.073 1.225-.645 1.412-.757.139-1.475-.667-1.119-1.37zm-5.34 1.33c-.007-.623.568-1.085 1.167-1.128.4.078.833.245 1.003.64.32.546.036 1.296-.538 1.546-.262.145-.575.09-.86.074-.438-.21-.807-.626-.773-1.133zm-10.062.905c.584-.355 1.371.289 1.15.913-.121.54-.859.759-1.28.415-.45-.323-.38-1.099.131-1.33l-.001.002zm21.606-.003c.495-.378 1.313.057 1.252.67.034.561-.673.985-1.164.696-.54-.24-.597-1.059-.088-1.365zm-8.715 1.117c.817-.289 1.788.056 2.252.774.615.876.29 2.21-.665 2.712-.987.595-2.43.092-2.796-.995-.413-.971.19-2.186 1.208-2.49h.001zm-4.794.096c.905-.42 2.124-.068 2.562.842.514.888.116 2.123-.804 2.58-.921.517-2.222.126-2.667-.826-.5-.921-.056-2.172.909-2.596zm-4.8 1.613c.07-.574.62-.948 1.175-.987a1.286 1.286 0 0 1 1.141 1.125c-.039.59-.502 1.165-1.138 1.163-.7.059-1.312-.626-1.178-1.301zm14.177-.861c.718-.41 1.715.186 1.683.997.049.86-1.054 1.465-1.768.961-.743-.42-.685-1.601.085-1.958zM15.91 19.15c.838-.227 1.799.161 2.21.92.45.764.266 1.824-.434 2.386-.899.822-2.554.49-3.031-.63-.55-1.028.118-2.406 1.254-2.677h.002zm9.092-.004c.815-.23 1.773.079 2.212.81.58.836.303 2.084-.56 2.622-.905.626-2.304.298-2.803-.681-.604-1.012.004-2.443 1.151-2.751zm-14.49.953c.725-.27 1.528.517 1.234 1.224-.178.643-1.101.882-1.578.407-.557-.446-.351-1.437.344-1.631zm19.647 1.026a1.098 1.098 0 0 1 1.034-1.147c.496.079.98.473.94 1.004.046.702-.814 1.179-1.423.85-.285-.144-.43-.431-.551-.707zm-23.21-.677c.436-.188.975.184.875.66-.023.54-.833.748-1.13.297-.262-.314-.105-.796.255-.958zm27.495-.012c.308-.214.801-.06.922.293.206.386-.172.913-.613.849-.62.055-.82-.873-.309-1.142zm-16.166 2.59c1.147-.293 2.381.648 2.389 1.81.073 1.176-1.142 2.216-2.315 1.946-.909-.144-1.621-1.005-1.591-1.907-.003-.864.659-1.667 1.517-1.85zm4.544-.002c1.164-.32 2.435.638 2.416 1.827.062 1.153-1.115 2.16-2.265 1.93-1.083-.137-1.88-1.306-1.579-2.34.152-.688.738-1.247 1.428-1.418v.001zm-8.762.716c.806-.136 1.562.748 1.235 1.501-.239.803-1.425 1.02-1.95.365-.615-.63-.155-1.78.715-1.866zm13.327.035c.72-.296 1.601.315 1.546 1.083.029.844-1.06 1.427-1.762.933-.797-.442-.652-1.745.216-2.016zm3.725 3.675c-.281-.516.23-1.2.814-1.104.288-.005.492.22.677.409.038.305.102.67-.156.905-.35.437-1.145.313-1.335-.21zM9.76 26.49c.545-.356 1.328.175 1.205.8-.066.555-.774.872-1.24.556-.502-.284-.483-1.097.035-1.357zm10.753 1.158c.713-.308 1.621.302 1.553 1.074.053.853-1.07 1.444-1.767.932-.774-.44-.644-1.734.215-2.006zm-4.98 1.143c.607-.313 1.421.229 1.366.898.018.549-.525 1.016-1.076.935-.456-.01-.752-.412-.9-.794.008-.416.183-.88.61-1.037v-.002zm10.089.011c.625-.38 1.512.165 1.453.88.015.747-.987 1.225-1.569.734-.561-.384-.493-1.308.116-1.614zm1.755 4.266c-.279-.413.048-.91.498-1.004.364.072.748.34.671.753-.053.56-.885.731-1.17.252v-.001zm-13.927-.359c.11-.328.378-.652.77-.567.571.04.74.888.24 1.149-.449.298-.971-.11-1.01-.582zm6.72.377c.108-.486.745-.72 1.165-.463.278.118.36.422.43.682-.037.135-.072.27-.104.407-.172.2-.394.4-.68.394-.532.062-1.012-.53-.813-1.02h.002z"/></g><path fill="#fff" d="M20.639 7.954c.628-.324 1.396.425 1.063 1.043-.196.504-.932.638-1.308.254-.397-.368-.267-1.098.245-1.298zm-6.766.717c.382-.155.866.189.826.6.04.443-.511.771-.901.56-.516-.197-.457-1.021.075-1.16zM27.73 9.843c-.597-.071-.692-.995-.118-1.182.446-.212.856.188.921.604-.094.354-.396.68-.803.578zm-12.318 1.66c.64-.398 1.55.194 1.452.925-.033.737-1.028 1.164-1.59.666-.543-.391-.46-1.29.138-1.591zm9.752.423c.285-.722 1.44-.746 1.764-.042.322.547-.073 1.225-.645 1.412-.757.139-1.475-.667-1.119-1.37zm-5.34 1.33c-.007-.623.568-1.085 1.167-1.128.4.078.833.245 1.003.64.32.546.036 1.296-.538 1.546-.262.145-.575.09-.86.074-.438-.21-.807-.626-.773-1.133zm-10.062.905c.584-.355 1.371.289 1.15.913-.121.54-.859.759-1.28.415-.45-.323-.38-1.099.131-1.33l-.001.002zm21.606-.003c.495-.378 1.313.057 1.252.67.034.561-.673.985-1.164.696-.54-.24-.597-1.059-.088-1.365zm-8.715 1.117c.817-.289 1.788.056 2.252.774.615.876.29 2.21-.665 2.712-.987.595-2.43.092-2.796-.995-.413-.971.19-2.186 1.208-2.49h.001zm-4.794.096c.905-.42 2.124-.068 2.562.842.514.888.116 2.123-.804 2.58-.921.517-2.222.126-2.667-.826-.5-.921-.056-2.172.909-2.596zm-4.8 1.613c.07-.574.62-.948 1.175-.987a1.286 1.286 0 0 1 1.141 1.125c-.039.59-.502 1.165-1.138 1.163-.7.059-1.312-.626-1.178-1.301zm14.177-.861c.718-.41 1.715.186 1.683.997.049.86-1.054 1.465-1.768.961-.743-.42-.685-1.601.085-1.958zM15.91 19.15c.838-.227 1.799.161 2.21.92.45.764.266 1.824-.434 2.386-.899.822-2.554.49-3.031-.63-.55-1.028.118-2.406 1.254-2.677h.002zm9.092-.004c.815-.23 1.773.079 2.212.81.58.836.303 2.084-.56 2.622-.905.626-2.304.298-2.803-.681-.604-1.012.004-2.443 1.151-2.751zm-14.49.953c.725-.27 1.528.517 1.234 1.224-.178.643-1.101.882-1.578.407-.557-.446-.351-1.437.344-1.631zm19.647 1.026a1.098 1.098 0 0 1 1.034-1.147c.496.079.98.473.94 1.004.046.702-.814 1.179-1.423.85-.285-.144-.43-.431-.551-.707zm-23.21-.677c.436-.188.975.184.875.66-.023.54-.833.748-1.13.297-.262-.314-.105-.796.255-.958zm27.495-.012c.308-.214.801-.06.922.293.206.386-.172.913-.613.849-.62.055-.82-.873-.309-1.142zm-16.166 2.59c1.147-.293 2.381.648 2.389 1.81.073 1.176-1.142 2.216-2.315 1.946-.909-.144-1.621-1.005-1.591-1.907-.003-.864.659-1.667 1.517-1.85zm4.544-.002c1.164-.32 2.435.638 2.416 1.827.062 1.153-1.115 2.16-2.265 1.93-1.083-.137-1.88-1.306-1.579-2.34.152-.688.738-1.247 1.428-1.418v.001zm-8.762.716c.806-.136 1.562.748 1.235 1.501-.239.803-1.425 1.02-1.95.365-.615-.63-.155-1.78.715-1.866zm13.327.035c.72-.296 1.601.315 1.546 1.083.029.844-1.06 1.427-1.762.933-.797-.442-.652-1.745.216-2.016zm3.725 3.675c-.281-.516.23-1.2.814-1.104.288-.005.492.22.677.409.038.305.102.67-.156.905-.35.437-1.145.313-1.335-.21zM9.76 26.49c.545-.356 1.328.175 1.205.8-.066.555-.774.872-1.24.556-.502-.284-.483-1.097.035-1.357zm10.753 1.158c.713-.308 1.621.302 1.553 1.074.053.853-1.07 1.444-1.767.932-.774-.44-.644-1.734.215-2.006zm-4.98 1.143c.607-.313 1.421.229 1.366.898.018.549-.525 1.016-1.076.935-.456-.01-.752-.412-.9-.794.008-.416.183-.88.61-1.037v-.002zm10.089.011c.625-.38 1.512.165 1.453.88.015.747-.987 1.225-1.569.734-.561-.384-.493-1.308.116-1.614zm1.755 4.266c-.279-.413.048-.91.498-1.004.364.072.748.34.671.753-.053.56-.885.731-1.17.252v-.001zm-13.927-.359c.11-.328.378-.652.77-.567.571.04.74.888.24 1.149-.449.298-.971-.11-1.01-.582zm6.72.377c.108-.486.745-.72 1.165-.463.278.118.36.422.43.682-.037.135-.072.27-.104.407-.172.2-.394.4-.68.394-.532.062-1.012-.53-.813-1.02h.002z"/></g><defs><clipPath id="a"><path fill="#fff" d="M0 0h42v42H0z"/></clipPath><filter id="b" width="29.152" height="26.528" x="6.417" y="7.803" color-interpolation-filters="sRGB" filterUnits="userSpaceOnUse"><feFlood flood-opacity="0" result="BackgroundImageFix"/><feColorMatrix in="SourceAlpha" result="hardAlpha" values="0 0 0 0 0 0 0 0 0 0 0 0 0 0 0 0 0 0 127 0"/><feOffset dy=".073"/><feGaussianBlur stdDeviation=".073"/><feColorMatrix values="0 0 0 0 0 0 0 0 0 0 0 0 0 0 0 0 0 0 0.204257 0"/><feBlend in2="BackgroundImageFix" result="effect1_dropShadow_7277_57346"/><feBlend in="SourceGraphic" in2="effect1_dropShadow_7277_57346" result="shape"/></filter></defs></svg>