<svg width="42" height="42" viewBox="0 0 42 42" fill="none" xmlns="http://www.w3.org/2000/svg">
<g clip-path="url(#clip0_1097_26634)">
<path d="M21 42C32.598 42 42 32.598 42 21C42 9.40202 32.598 0 21 0C9.40202 0 0 9.40202 0 21C0 32.598 9.40202 42 21 42Z" fill="#0D1E30"/>
<g filter="url(#filter0_d_1097_26634)">
<path d="M20.6385 7.95403C21.2672 7.62984 22.035 8.37928 21.7017 8.99746C21.5061 9.50146 20.7698 9.63534 20.3944 9.25078C19.9967 8.88328 20.1267 8.15353 20.6385 7.95271V7.95403ZM13.8726 8.67065C14.2545 8.51578 14.7389 8.85965 14.6995 9.27046C14.7389 9.71409 14.1876 10.0422 13.7978 9.8309C13.282 9.63403 13.341 8.80978 13.8726 8.67065V8.67065ZM27.73 9.84271C27.1328 9.77184 27.0383 8.84784 27.6119 8.66146C28.0581 8.44884 28.4676 8.84915 28.5332 9.26521C28.4387 9.61959 28.1369 9.94509 27.73 9.84271V9.84271ZM15.4122 11.503C16.0514 11.1053 16.9622 11.6973 16.8638 12.4283C16.831 13.1647 15.8361 13.5925 15.2744 13.0938C14.731 12.7027 14.8137 11.8049 15.4122 11.503ZM25.164 11.9257C25.4489 11.2038 26.6039 11.1802 26.928 11.8837C27.2496 12.431 26.8545 13.1095 26.2836 13.2959C25.5263 13.435 24.8084 12.6292 25.164 11.9257ZM19.8235 13.2552C19.8169 12.6331 20.3918 12.1711 20.9916 12.1278C21.3906 12.2065 21.8237 12.3732 21.9944 12.7683C22.3133 13.3143 22.0298 14.0637 21.4562 14.3144C21.1937 14.4588 20.8814 14.405 20.5952 14.3879C20.1582 14.1779 19.7894 13.7618 19.8235 13.2552ZM9.76185 14.1608C10.3459 13.8065 11.1334 14.4496 10.9116 15.0743C10.7909 15.6138 10.0532 15.833 9.63192 15.4891C9.18173 15.1662 9.2526 14.3905 9.76317 14.1595L9.76185 14.1608ZM31.3682 14.1582C31.863 13.7802 32.6807 14.2147 32.6204 14.8289C32.6545 15.3893 31.947 15.8133 31.4562 15.5245C30.9154 15.2843 30.859 14.4653 31.3682 14.1595V14.1582ZM22.6532 15.2752C23.4696 14.9864 24.4409 15.3316 24.9055 16.0495C25.5197 16.925 25.1942 18.2585 24.24 18.7612C23.253 19.3557 21.8106 18.853 21.4444 17.7663C21.031 16.795 21.6347 15.5797 22.6519 15.2752H22.6532ZM17.8587 15.371C18.7643 14.951 19.9836 15.3027 20.4207 16.2136C20.9352 17.1008 20.5375 18.3359 19.6174 18.794C18.696 19.3098 17.3954 18.9187 16.9504 17.9671C16.4504 17.0457 16.894 15.7949 17.8587 15.371V15.371ZM13.0589 16.984C13.1284 16.4105 13.6784 16.0364 14.2335 15.997C14.5231 16.0276 14.7937 16.1555 15.0011 16.3598C15.2085 16.5641 15.3405 16.8328 15.3754 17.1218C15.336 17.7125 14.8727 18.2873 14.2375 18.2847C13.5379 18.3438 12.925 17.6587 13.0589 16.984V16.984ZM27.2365 16.123C27.9544 15.7122 28.9506 16.3094 28.9191 17.1205C28.9677 17.9802 27.8652 18.5853 27.1512 18.0813C26.4083 17.6613 26.466 16.48 27.2365 16.123ZM15.9096 19.151C16.747 18.9239 17.7077 19.3124 18.1185 20.071C18.5687 20.8349 18.385 21.8954 17.6854 22.4572C16.7864 23.2788 15.1313 22.948 14.6535 21.8271C14.1036 20.7995 14.7717 19.4213 15.9083 19.1497L15.9096 19.151ZM25.0013 19.147C25.8164 18.9173 26.7745 19.2258 27.2128 19.9568C27.793 20.7929 27.516 22.0411 26.6537 22.5792C25.7481 23.2053 24.349 22.8772 23.8502 21.898C23.2465 20.8861 23.8542 19.4555 25.0013 19.147V19.147ZM10.5113 20.0999C11.2358 19.8308 12.039 20.617 11.745 21.3245C11.5665 21.9676 10.6439 22.2065 10.1674 21.7313C9.6096 21.2851 9.81566 20.2942 10.5113 20.0999V20.0999ZM30.1581 21.1263C30.1445 20.8374 30.2455 20.5547 30.4392 20.3399C30.6329 20.1251 30.9036 19.9954 31.1924 19.9792C31.6885 20.0579 32.1715 20.4517 32.1321 20.9832C32.178 21.6854 31.3184 22.1618 30.7094 21.8324C30.4245 21.6893 30.2789 21.4019 30.1581 21.1263ZM6.94785 20.449C7.3836 20.2613 7.92304 20.6328 7.82329 21.1092C7.79967 21.6487 6.98985 21.8573 6.69323 21.4058C6.43073 21.0922 6.58823 20.6105 6.94785 20.4477V20.449ZM34.4434 20.4372C34.7505 20.2233 35.244 20.3768 35.3648 20.7299C35.5708 21.1158 35.1929 21.6434 34.7519 21.5791C34.1324 21.6342 33.9329 20.7063 34.4434 20.4372ZM18.2774 23.0268C19.4245 22.7341 20.6582 23.6752 20.6661 24.838C20.7396 26.0127 19.5242 27.0535 18.3509 26.7832C17.4426 26.6388 16.7299 25.7778 16.7601 24.8761C16.7575 24.0125 17.419 23.2092 18.2774 23.0268V23.0268ZM22.8212 23.0255C23.9854 22.7052 25.2559 23.6633 25.2375 24.8525C25.2992 26.0048 24.1219 27.0115 22.9722 26.7818C21.8894 26.6453 21.0914 25.4759 21.3932 24.4417C21.5455 23.7539 22.1309 23.1948 22.8212 23.0242V23.0255ZM14.059 23.7408C14.8649 23.6056 15.6209 24.4889 15.294 25.2423C15.0552 26.0455 13.8687 26.2621 13.3437 25.6072C12.7294 24.9772 13.1888 23.8274 14.059 23.7408V23.7408ZM27.3861 23.7762C28.1053 23.4796 28.9874 24.0912 28.9322 24.859C28.9611 25.703 27.8717 26.2857 27.1695 25.7922C26.3729 25.3499 26.5185 24.0466 27.3861 23.7762V23.7762ZM31.111 27.4512C30.8301 26.9354 31.3407 26.2516 31.9247 26.3474C32.2135 26.3421 32.4169 26.5666 32.602 26.7556C32.64 27.0614 32.7044 27.4263 32.4458 27.6612C32.0954 28.0983 31.3013 27.9736 31.111 27.4512V27.4512ZM9.75923 26.4905C10.3039 26.1348 11.0875 26.6663 10.9641 27.2911C10.8985 27.8463 10.1897 28.1626 9.72379 27.8476C9.22241 27.5628 9.24079 26.7503 9.75923 26.4905V26.4905ZM20.5125 27.6494C21.2252 27.341 22.1335 27.9513 22.0652 28.723C22.1177 29.5762 20.9955 30.1668 20.2986 29.6549C19.5242 29.2152 19.6542 27.9211 20.5125 27.6494V27.6494ZM15.5329 28.7926C16.1393 28.4789 16.953 29.021 16.8979 29.6903C16.9163 30.239 16.3729 30.7062 15.8217 30.6248C15.3662 30.6157 15.0696 30.2127 14.9226 29.8308C14.9305 29.4147 15.105 28.9514 15.5329 28.7939V28.7926ZM25.6208 28.8031C26.2455 28.4225 27.1328 28.9685 27.0737 29.6825C27.0895 30.4306 26.0867 30.9083 25.5053 30.4175C24.9435 30.0329 25.0118 29.1089 25.6208 28.8031ZM27.3756 33.0687C27.0974 32.6566 27.4242 32.1592 27.8744 32.0647C28.2379 32.1368 28.6225 32.4059 28.545 32.818C28.4925 33.3785 27.6604 33.5491 27.3756 33.07V33.0687ZM13.4487 32.7104C13.5589 32.3823 13.8267 32.0581 14.2191 32.1434C14.79 32.1828 14.9594 33.0307 14.4593 33.2918C14.0104 33.5898 13.488 33.1816 13.4487 32.7104ZM20.1687 33.0871C20.2776 32.6015 20.9142 32.3665 21.3342 32.6238C21.6124 32.7419 21.6938 33.0464 21.7647 33.3063C21.7272 33.4413 21.6922 33.5769 21.6597 33.7132C21.4877 33.9127 21.2659 34.1135 20.9798 34.1069C20.4482 34.1686 19.9679 33.5767 20.1674 33.0871H20.1687Z" fill="black"/>
</g>
<path d="M20.6385 7.95403C21.2672 7.62984 22.035 8.37928 21.7017 8.99746C21.5061 9.50146 20.7698 9.63534 20.3944 9.25078C19.9967 8.88328 20.1267 8.15353 20.6385 7.95271V7.95403ZM13.8726 8.67065C14.2545 8.51578 14.7389 8.85965 14.6995 9.27046C14.7389 9.71409 14.1876 10.0422 13.7978 9.8309C13.282 9.63403 13.341 8.80978 13.8726 8.67065V8.67065ZM27.73 9.84271C27.1328 9.77184 27.0383 8.84784 27.6119 8.66146C28.0581 8.44884 28.4676 8.84915 28.5332 9.26521C28.4387 9.61959 28.1369 9.94509 27.73 9.84271V9.84271ZM15.4122 11.503C16.0514 11.1053 16.9622 11.6973 16.8638 12.4283C16.831 13.1647 15.8361 13.5925 15.2744 13.0938C14.731 12.7027 14.8137 11.8049 15.4122 11.503ZM25.164 11.9257C25.4489 11.2038 26.6039 11.1802 26.928 11.8837C27.2496 12.431 26.8545 13.1095 26.2836 13.2959C25.5263 13.435 24.8084 12.6292 25.164 11.9257ZM19.8235 13.2552C19.8169 12.6331 20.3918 12.1711 20.9916 12.1278C21.3906 12.2065 21.8237 12.3732 21.9944 12.7683C22.3133 13.3143 22.0298 14.0637 21.4562 14.3144C21.1937 14.4588 20.8814 14.405 20.5952 14.3879C20.1582 14.1779 19.7894 13.7618 19.8235 13.2552ZM9.76185 14.1608C10.3459 13.8065 11.1334 14.4496 10.9116 15.0743C10.7909 15.6138 10.0532 15.833 9.63192 15.4891C9.18173 15.1662 9.2526 14.3905 9.76317 14.1595L9.76185 14.1608ZM31.3682 14.1582C31.863 13.7802 32.6807 14.2147 32.6204 14.8289C32.6545 15.3893 31.947 15.8133 31.4562 15.5245C30.9154 15.2843 30.859 14.4653 31.3682 14.1595V14.1582ZM22.6532 15.2752C23.4696 14.9864 24.4409 15.3316 24.9055 16.0495C25.5197 16.925 25.1942 18.2585 24.24 18.7612C23.253 19.3557 21.8106 18.853 21.4444 17.7663C21.031 16.795 21.6347 15.5797 22.6519 15.2752H22.6532ZM17.8587 15.371C18.7643 14.951 19.9836 15.3027 20.4207 16.2136C20.9352 17.1008 20.5375 18.3359 19.6174 18.794C18.696 19.3098 17.3954 18.9187 16.9504 17.9671C16.4504 17.0457 16.894 15.7949 17.8587 15.371V15.371ZM13.0589 16.984C13.1284 16.4105 13.6784 16.0364 14.2335 15.997C14.5231 16.0276 14.7937 16.1555 15.0011 16.3598C15.2085 16.5641 15.3405 16.8328 15.3754 17.1218C15.336 17.7125 14.8727 18.2873 14.2375 18.2847C13.5379 18.3438 12.925 17.6587 13.0589 16.984V16.984ZM27.2365 16.123C27.9544 15.7122 28.9506 16.3094 28.9191 17.1205C28.9677 17.9802 27.8652 18.5853 27.1512 18.0813C26.4083 17.6613 26.466 16.48 27.2365 16.123ZM15.9096 19.151C16.747 18.9239 17.7077 19.3124 18.1185 20.071C18.5687 20.8349 18.385 21.8954 17.6854 22.4572C16.7864 23.2788 15.1313 22.948 14.6535 21.8271C14.1036 20.7995 14.7717 19.4213 15.9083 19.1497L15.9096 19.151ZM25.0013 19.147C25.8164 18.9173 26.7745 19.2258 27.2128 19.9568C27.793 20.7929 27.516 22.0411 26.6537 22.5792C25.7481 23.2053 24.349 22.8772 23.8502 21.898C23.2465 20.8861 23.8542 19.4555 25.0013 19.147V19.147ZM10.5113 20.0999C11.2358 19.8308 12.039 20.617 11.745 21.3245C11.5665 21.9676 10.6439 22.2065 10.1674 21.7313C9.6096 21.2851 9.81566 20.2942 10.5113 20.0999V20.0999ZM30.1581 21.1263C30.1445 20.8374 30.2455 20.5547 30.4392 20.3399C30.6329 20.1251 30.9036 19.9954 31.1924 19.9792C31.6885 20.0579 32.1715 20.4517 32.1321 20.9832C32.178 21.6854 31.3184 22.1618 30.7094 21.8324C30.4245 21.6893 30.2789 21.4019 30.1581 21.1263ZM6.94785 20.449C7.3836 20.2613 7.92304 20.6328 7.82329 21.1092C7.79967 21.6487 6.98985 21.8573 6.69323 21.4058C6.43073 21.0922 6.58823 20.6105 6.94785 20.4477V20.449ZM34.4434 20.4372C34.7505 20.2233 35.244 20.3768 35.3648 20.7299C35.5708 21.1158 35.1929 21.6434 34.7519 21.5791C34.1324 21.6342 33.9329 20.7063 34.4434 20.4372ZM18.2774 23.0268C19.4245 22.7341 20.6582 23.6752 20.6661 24.838C20.7396 26.0127 19.5242 27.0535 18.3509 26.7832C17.4426 26.6388 16.7299 25.7778 16.7601 24.8761C16.7575 24.0125 17.419 23.2092 18.2774 23.0268V23.0268ZM22.8212 23.0255C23.9854 22.7052 25.2559 23.6633 25.2375 24.8525C25.2992 26.0048 24.1219 27.0115 22.9722 26.7818C21.8894 26.6453 21.0914 25.4759 21.3932 24.4417C21.5455 23.7539 22.1309 23.1948 22.8212 23.0242V23.0255ZM14.059 23.7408C14.8649 23.6056 15.6209 24.4889 15.294 25.2423C15.0552 26.0455 13.8687 26.2621 13.3437 25.6072C12.7294 24.9772 13.1888 23.8274 14.059 23.7408V23.7408ZM27.3861 23.7762C28.1053 23.4796 28.9874 24.0912 28.9322 24.859C28.9611 25.703 27.8717 26.2857 27.1695 25.7922C26.3729 25.3499 26.5185 24.0466 27.3861 23.7762V23.7762ZM31.111 27.4512C30.8301 26.9354 31.3407 26.2516 31.9247 26.3474C32.2135 26.3421 32.4169 26.5666 32.602 26.7556C32.64 27.0614 32.7044 27.4263 32.4458 27.6612C32.0954 28.0983 31.3013 27.9736 31.111 27.4512V27.4512ZM9.75923 26.4905C10.3039 26.1348 11.0875 26.6663 10.9641 27.2911C10.8985 27.8463 10.1897 28.1626 9.72379 27.8476C9.22241 27.5628 9.24079 26.7503 9.75923 26.4905V26.4905ZM20.5125 27.6494C21.2252 27.341 22.1335 27.9513 22.0652 28.723C22.1177 29.5762 20.9955 30.1668 20.2986 29.6549C19.5242 29.2152 19.6542 27.9211 20.5125 27.6494V27.6494ZM15.5329 28.7926C16.1393 28.4789 16.953 29.021 16.8979 29.6903C16.9163 30.239 16.3729 30.7062 15.8217 30.6248C15.3662 30.6157 15.0696 30.2127 14.9226 29.8308C14.9305 29.4147 15.105 28.9514 15.5329 28.7939V28.7926ZM25.6208 28.8031C26.2455 28.4225 27.1328 28.9685 27.0737 29.6825C27.0895 30.4306 26.0867 30.9083 25.5053 30.4175C24.9435 30.0329 25.0118 29.1089 25.6208 28.8031ZM27.3756 33.0687C27.0974 32.6566 27.4242 32.1592 27.8744 32.0647C28.2379 32.1368 28.6225 32.4059 28.545 32.818C28.4925 33.3785 27.6604 33.5491 27.3756 33.07V33.0687ZM13.4487 32.7104C13.5589 32.3823 13.8267 32.0581 14.2191 32.1434C14.79 32.1828 14.9594 33.0307 14.4593 33.2918C14.0104 33.5898 13.488 33.1816 13.4487 32.7104ZM20.1687 33.0871C20.2776 32.6015 20.9142 32.3665 21.3342 32.6238C21.6124 32.7419 21.6938 33.0464 21.7647 33.3063C21.7272 33.4413 21.6922 33.5769 21.6597 33.7132C21.4877 33.9127 21.2659 34.1135 20.9798 34.1069C20.4482 34.1686 19.9679 33.5767 20.1674 33.0871H20.1687Z" fill="white"/>
</g>
<defs>
<filter id="filter0_d_1097_26634" x="6.41657" y="7.80283" width="29.152" height="26.5275" filterUnits="userSpaceOnUse" color-interpolation-filters="sRGB">
<feFlood flood-opacity="0" result="BackgroundImageFix"/>
<feColorMatrix in="SourceAlpha" type="matrix" values="0 0 0 0 0 0 0 0 0 0 0 0 0 0 0 0 0 0 127 0" result="hardAlpha"/>
<feOffset dy="0.0729955"/>
<feGaussianBlur stdDeviation="0.0729955"/>
<feColorMatrix type="matrix" values="0 0 0 0 0 0 0 0 0 0 0 0 0 0 0 0 0 0 0.204257 0"/>
<feBlend mode="normal" in2="BackgroundImageFix" result="effect1_dropShadow_1097_26634"/>
<feBlend mode="normal" in="SourceGraphic" in2="effect1_dropShadow_1097_26634" result="shape"/>
</filter>
<clipPath id="clip0_1097_26634">
<rect width="42" height="42" fill="white"/>
</clipPath>
</defs>
</svg>
