<svg xmlns="http://www.w3.org/2000/svg" width="42" height="42" fill="none"><circle cx="21" cy="21" r="21" fill="#000"/><g clip-path="url(#a)"><path fill="#fff" d="m13.163 33 3.483-6.01L20.129 21l3.462-6.01.574-.953.255.952 1.061 3.958L24.292 21l-3.483 5.99L17.347 33h4.163l3.483-6.01 1.805-3.112.85 3.111L29.262 33H33l-1.614-6.01L29.772 21l-.425-1.545 2.591-4.466h-3.78l-.128-.444-1.317-4.91-.17-.635h-3.631l-.085.127-3.399 5.862L15.945 21l-3.462 5.99L9 33h4.163z"/></g><defs><clipPath id="a"><path fill="#fff" d="M9 9h24v24H9z"/></clipPath></defs></svg>