<svg width="42" height="42" viewBox="0 0 42 42" fill="none" xmlns="http://www.w3.org/2000/svg">
<circle cx="21" cy="21" r="21" fill="black"/>
<g clip-path="url(#clip0_7698_9628)">
<path d="M13.1628 33L16.646 26.9894L20.1292 21L23.5911 14.9894L24.1646 14.037L24.4195 14.9894L25.4814 18.9471L24.292 21L20.8088 26.9894L17.3469 33H21.5097L24.9929 26.9894L26.7982 23.8783L27.6478 26.9894L29.2619 33H33L31.3858 26.9894L29.7717 21L29.3469 19.455L31.9381 14.9894H28.1575L28.0301 14.545L26.7133 9.63492L26.5434 9H22.9115L22.8265 9.12698L19.4283 14.9894L15.9451 21L12.4832 26.9894L9 33H13.1628Z" fill="white"/>
</g>
<defs>
<clipPath id="clip0_7698_9628">
<rect width="24" height="24" fill="white" transform="translate(9 9)"/>
</clipPath>
</defs>
</svg>
