<svg width="42" height="42" fill="none" xmlns="http://www.w3.org/2000/svg">
  <circle cx="21" cy="21" r="21" fill="#fff"/>
  <path fill="#F39700" d="M5.866 29.902a22 22 0 0 0 11.162 6.95c3.904.788 7.978.377 11.607-1.266a16.1 16.1 0 0 0 4.862-3.424.446.446 0 0 0-.137-.617.85.85 0 0 0-.582 0 29.9 29.9 0 0 1-8.491 2.842c-3.116.343-6.266.137-9.279-.65a33.5 33.5 0 0 1-8.697-4.383c-.205-.068-.41.034-.445.24q-.051.206 0 .308"/>
  <path fill="#F39700" d="M30.553 30.621c1.164-.24 2.362-.274 3.56-.17h.035a.775.775 0 0 1 .548.89 16 16 0 0 1-1.096 3.355c-.034.102.034.205.137.24.068.034.103 0 .171-.035a5.92 5.92 0 0 0 2.26-4.69c.034-.48-.274-.89-.753-.96-1.746-.308-3.527.07-5.034 1.028-.068.068-.102.171-.034.274.069.068.137.102.206.068"/>
  <path fill="#000" d="M24.527 25.999a12.3 12.3 0 0 1-2.123 1.849 10.1 10.1 0 0 1-4.862 1.37 7.3 7.3 0 0 1-4.177-1.439c-2.02-1.849-2.808-4.656-1.986-7.293a8.02 8.02 0 0 1 4.759-4.998 26.1 26.1 0 0 1 7.635-1.13v-2.705a2.726 2.726 0 0 0-2.396-2.329 4.24 4.24 0 0 0-2.26.309c-1.027.479-1.746 1.403-1.986 2.533a.87.87 0 0 1-.925.48l-3.697-.343a.84.84 0 0 1-.617-.753c.274-1.849 1.233-3.458 2.637-4.622a10.66 10.66 0 0 1 6.608-2.192 10.86 10.86 0 0 1 6.163 2.02 6.23 6.23 0 0 1 2.226 5.102v9.347c.034.788.24 1.575.582 2.26l1.164 1.678a.87.87 0 0 1 0 .822l-3.424 2.91a.9.9 0 0 1-.925-.034 17.3 17.3 0 0 1-2.396-2.842m-.788-8.491a17 17 0 0 0-3.218.205c-1.302.274-2.397 1.13-3.048 2.294a4.55 4.55 0 0 0 .24 3.938 2.98 2.98 0 0 0 3.424.89 5.74 5.74 0 0 0 2.602-4.04z"/>
</svg>
