<svg xmlns="http://www.w3.org/2000/svg" width="42" height="42" fill="none"><circle cx="21" cy="21" r="21" fill="#fff"/><path fill="#F39700" d="M5.866 29.902a22.02 22.02 0 0011.162 6.95c3.904.788 7.978.377 11.607-1.266a16.057 16.057 0 004.862-3.424.446.446 0 00-.137-.617.851.851 0 00-.582 0 29.907 29.907 0 01-8.491 2.842c-3.116.343-6.266.137-9.279-.65a33.476 33.476 0 01-8.697-4.383c-.205-.068-.41.034-.445.24-.034.137-.034.24 0 .308z"/><path fill="#F39700" d="M30.553 30.621c1.164-.24 2.362-.274 3.56-.17h.035a.775.775 0 01.548.89 16.038 16.038 0 01-1.096 3.355c-.034.102.034.205.137.24.068.034.103 0 .171-.035a5.923 5.923 0 002.26-4.69c.034-.48-.274-.89-.753-.96-1.746-.308-3.527.07-5.034 1.028-.068.068-.102.171-.034.274.069.068.137.102.206.068z"/><path fill="#000" d="M24.527 25.999a12.283 12.283 0 01-2.123 1.849 10.096 10.096 0 01-4.862 1.37 7.322 7.322 0 01-4.177-1.439c-2.02-1.849-2.808-4.656-1.986-7.293a8.015 8.015 0 014.759-4.998 26.097 26.097 0 017.635-1.13v-2.705a2.726 2.726 0 00-2.396-2.329 4.242 4.242 0 00-2.26.309c-1.027.479-1.746 1.403-1.986 2.533a.873.873 0 01-.925.48l-3.697-.343a.844.844 0 01-.617-.753c.274-1.849 1.233-3.458 2.637-4.622a10.655 10.655 0 016.608-2.192 10.86 10.86 0 016.163 2.02 6.233 6.233 0 012.226 5.102v9.347c.034.788.24 1.575.582 2.26l1.164 1.678a.873.873 0 010 .822l-3.424 2.91a.895.895 0 01-.925-.034 17.28 17.28 0 01-2.396-2.842zm-.788-8.491a16.952 16.952 0 00-3.218.205c-1.302.274-2.397 1.13-3.048 2.294a4.553 4.553 0 00.24 3.938 2.978 2.978 0 003.424.89 5.742 5.742 0 002.602-4.04v-3.287z"/></svg>