<svg xmlns="http://www.w3.org/2000/svg" width="43" height="43" fill="none"><circle cx="21.892" cy="21.631" r="21" fill="#fff"/><g clip-path="url(#a)"><path fill="#245AE5" fill-opacity=".9" fill-rule="evenodd" d="m23.87 7.082 9.782 5.025c1.418.75 2.314 2.175 2.314 3.825v2.324h-3.584v-2.325c0-.224-.149-.45-.373-.6l-9.781-5.024c-.15-.075-.374-.075-.598 0l-9.78 5.024c-.225.075-.374.3-.374.6v2.325H7.892v-2.325c0-1.574.896-3.074 2.314-3.824l9.782-5.025c1.194-.6 2.613-.6 3.882 0Zm1.12 14.4a3.082 3.082 0 0 0-3.06-3.075c-1.718 0-3.062 1.35-3.062 3.075a3.082 3.082 0 0 0 3.061 3.075 3.082 3.082 0 0 0 3.061-3.075Zm6.944 6.45c.224-.075.374-.3.374-.6v-2.326h3.584v2.325a4.368 4.368 0 0 1-2.315 3.826l-9.781 5.024c-.598.3-1.27.45-1.942.45a4.34 4.34 0 0 1-1.94-.45l-9.708-5.024c-1.418-.75-2.314-2.175-2.314-3.826v-2.325h3.584v2.325c0 .226.15.45.373.6l8.288 4.2v-4.2c-2.837-.825-4.853-3.375-4.853-6.45 0-3.675 2.986-6.75 6.72-6.75 3.658 0 6.72 3 6.72 6.75 0 3.075-2.09 5.7-4.854 6.45v4.2l8.064-4.2Z" clip-rule="evenodd"/></g><defs><clipPath id="a"><path fill="#fff" d="M7.892 6.632h28v30h-28z"/></clipPath></defs></svg>