<svg width="42" height="42" viewBox="0 0 42 42" fill="none" xmlns="http://www.w3.org/2000/svg">
<mask id="mask0_7277_57310" style="mask-type:alpha" maskUnits="userSpaceOnUse" x="0" y="0" width="42" height="42">
<path d="M41.9999 21C41.9999 32.598 32.5979 42 20.9999 42C9.40196 42 -6.10352e-05 32.598 -6.10352e-05 21C-6.10352e-05 9.40202 9.40196 0 20.9999 0C32.5979 0 41.9999 9.40202 41.9999 21Z" fill="#0E052F"/>
</mask>
<g mask="url(#mask0_7277_57310)">
<path d="M42.4016 21.2045C42.4016 9.41792 32.8467 -0.136963 21.0601 -0.136963C9.27357 -0.136963 -0.281311 9.41792 -0.281311 21.2045C-0.281311 32.991 9.27357 42.5459 21.0601 42.5459C32.8467 42.5459 42.4016 32.991 42.4016 21.2045Z" fill="url(#paint0_radial_7277_57310)"/>
<path d="M35.5726 14.5431C35.4833 15.0654 35.3786 15.3187 35.2563 15.612L35.256 15.6127C35.1238 15.9303 34.9738 16.291 34.8381 17.0066C34.784 17.293 34.7571 17.5032 34.7337 17.6884L34.732 17.6999L34.7307 17.7107C34.6929 18.0072 34.6676 18.2071 34.5471 18.5627C34.4493 18.853 34.2858 19.3377 33.892 19.8596C33.5739 20.2819 33.0414 20.9888 32.3308 21.0735C32.2692 21.0776 32.1401 21.084 32.0875 21.0571C30.0717 20.0278 28.3399 19.2673 27.7405 19.0966C27.0432 18.899 27.1325 17.3788 27.2114 16.0375C27.2468 15.4381 27.2802 14.8713 27.2521 14.3859C27.1541 12.6927 26.8544 10.8394 25.3797 9.9359C24.4994 9.39672 23.3638 9.23846 22.2787 9.23616C22.4798 9.14047 22.7041 9.01051 22.9484 8.86835L22.9559 8.86399C23.5947 8.49411 24.3878 8.03475 25.1759 7.95401C25.4335 7.92848 25.6868 7.8988 25.9366 7.87097C27.5251 7.69109 28.8977 7.53651 30.3452 8.03222C31.0015 8.25741 32.3476 9.00844 32.6952 9.70564C32.9399 10.1979 33.3528 10.5816 34.1765 11.3473C34.6053 11.7462 34.8878 11.9783 35.0946 12.148L35.104 12.1559C35.3943 12.3946 35.4516 12.4445 35.538 12.621C35.8049 13.165 35.7076 13.7428 35.5726 14.5431Z" fill="white"/>
<path d="M28.2399 21.5036C28.3354 21.5365 28.3711 21.6524 28.3156 21.7366C28.1003 22.0632 27.8537 22.5113 27.5581 23.0592C27.4194 23.3176 27.2881 23.5614 27.1779 23.7516C26.7873 24.4224 26.7556 24.9868 26.7307 25.44C26.7038 25.9138 26.6799 26.1314 26.3968 26.3203C26.163 26.4769 25.9236 26.5292 24.264 26.782C23.9744 26.8268 23.8458 26.8829 23.7328 26.9322C23.702 26.9455 23.6714 26.9588 23.6365 26.972C23.5405 27.0078 23.4467 26.9262 23.4524 26.8243C23.4656 26.585 23.4741 26.2862 23.475 25.9104V25.8384C23.4837 25.5131 23.4702 25.2493 23.4584 25.0365C23.4366 24.6128 23.4338 24.4343 23.5467 24.2498C23.6854 24.0269 23.7936 23.9589 23.9714 23.8461C24.2196 23.6902 24.56 23.4756 25.0638 22.7832C25.3315 22.4165 25.3909 22.2178 25.4279 22.046C25.444 21.9747 25.4497 21.948 25.6558 21.7918C25.8737 21.6264 26.5378 21.1233 27.3877 21.2662C27.6228 21.306 27.9223 21.3939 28.2399 21.5036Z" fill="white"/>
<path d="M21.6365 29.1552C21.6004 29.2023 21.558 29.2242 21.4971 29.2272C21.3236 29.2345 21.2017 29.1915 21.121 29.0944C20.9498 28.886 20.9728 28.4674 21.0129 28.2227L21.7147 28.0356C21.7696 28.4071 21.7954 28.9484 21.6365 29.1552Z" fill="white"/>
<path d="M21.6935 26.6224C21.6817 26.7248 21.6689 26.84 21.6693 26.9606C21.6702 27.0054 21.6707 27.0507 21.6721 27.0947C21.6735 27.2094 21.6781 27.3916 21.6622 27.4744C21.443 27.5543 21.2557 27.5543 21.0096 27.5499C21.0059 27.4788 21.0105 27.3728 21.0133 27.3012C21.0147 27.246 21.0177 27.191 21.0183 27.1386C21.019 27.0804 21.0183 27.0231 21.0183 26.9658C21.0174 26.8308 21.0156 26.6095 21.0487 26.5444C21.1147 26.5348 21.1824 26.5203 21.2548 26.5037C21.4 26.4724 21.5893 26.4324 21.7098 26.4506C21.708 26.4975 21.7006 26.5672 21.6935 26.6224Z" fill="white"/>
<path d="M20.3951 28.9393C20.3613 29.2991 20.2502 29.7439 19.9127 29.8116C19.7609 29.8429 19.6875 29.7971 19.6413 29.7536C19.4134 29.5424 19.377 28.9044 19.4088 28.448C19.5606 28.4508 19.7595 28.4167 19.9951 28.3712C20.1389 28.3426 20.2819 28.3109 20.3958 28.2847C20.4089 28.4535 20.4183 28.6946 20.3951 28.9393Z" fill="white"/>
<path d="M20.2352 27.6478L19.4738 27.9149C19.5125 27.6193 19.564 27.2034 19.5822 26.9272C19.5953 26.7326 19.6482 26.673 19.6634 26.6601C19.6684 26.6557 19.6785 26.6465 19.7068 26.6465C19.7112 26.6465 19.7156 26.6472 19.7204 26.6472L19.7365 26.6495L20.2175 26.6233C20.238 26.8494 20.238 27.346 20.2352 27.6478Z" fill="white"/>
<path d="M19.0052 27.4111C18.9622 27.5257 18.9114 27.8502 18.8796 28.0786L17.926 28.0497C17.9798 27.7543 18.0543 27.4537 18.1362 27.2142C18.219 26.9761 18.3083 26.7976 18.3904 26.7475C18.4861 26.69 18.6968 26.6771 18.8258 26.7873C19.0356 26.9663 19.0936 27.171 19.0052 27.4111Z" fill="white"/>
<path d="M18.6492 30.3299C18.5754 30.4309 18.4933 30.4822 18.3916 30.493C18.2878 30.5048 18.2071 30.4815 18.1427 30.4213C17.8432 30.1448 17.8676 29.2389 17.8786 28.8035C18.274 28.7133 18.701 28.6367 18.9034 28.625C18.9337 28.9896 18.9425 29.9308 18.6492 30.3299Z" fill="white"/>
<path d="M17.4043 28.0237C17.3579 28.1479 17.3128 28.2653 17.2787 28.3692C17.1678 28.404 16.8288 28.3736 16.4826 28.2972L16.7207 26.7963C17.1117 26.6926 17.5653 26.6592 17.6751 26.7754C17.8195 26.9288 17.5292 27.6966 17.4043 28.0237Z" fill="white"/>
<path d="M16.9728 30.5584C16.7879 30.7864 16.5105 30.8929 16.1236 30.8888C15.8558 30.8844 15.7602 30.7827 15.7123 30.7066C15.4975 30.3664 15.7077 29.5643 15.9184 29.052L17.2102 29.1295C17.2233 29.2195 17.2342 29.329 17.2392 29.4481C17.2535 29.8127 17.2077 30.2668 16.9728 30.5584Z" fill="white"/>
<path d="M27.6483 19.6667C26.4853 19.3373 26.5853 17.6367 26.6822 15.9932C26.7164 15.4117 26.7489 14.8617 26.7224 14.4122C26.6332 12.8738 26.3744 11.1983 25.1371 10.4399C23.8062 9.62612 21.629 9.81152 20.2857 9.98243C20.2845 9.98266 20.2834 9.98335 20.2822 9.98358C20.2815 9.98358 20.2811 9.98358 20.2806 9.98381C19.7886 10.1329 19.3283 10.2295 18.9715 10.2106C18.1789 10.1697 17.5622 9.8359 17.0191 9.54308C16.5954 9.31352 16.2257 9.11523 15.8777 9.11523C15.8593 9.11523 15.84 9.11524 15.8209 9.11593C14.7796 9.18356 14.3009 9.43796 13.8661 9.82601C13.7569 9.92262 13.6235 10.203 13.1869 11.461C12.9665 12.0968 12.9258 12.4446 12.8848 12.7827C12.848 13.0917 12.8105 13.4093 12.6463 13.8832C12.532 14.2103 12.4476 14.4923 12.3659 14.7642C12.1506 15.4867 11.9804 16.0558 11.469 16.7325C11.409 16.8125 11.3347 16.9303 11.2487 17.0644C11.1328 17.2471 10.9892 17.4741 10.7999 17.737C10.6663 17.9222 10.3594 18.6152 10.3762 18.8264C10.4013 19.1627 10.5105 19.3713 10.6357 19.6149C10.7601 19.8551 10.9018 20.127 10.9276 20.5024L10.9319 20.5633C10.9775 21.1589 10.8926 21.4577 9.75974 22.4695C9.03539 23.1177 8.52082 23.742 8.17371 24.2002C8.14312 24.2407 8.18292 24.3008 8.23352 24.2966C8.24525 24.295 8.25699 24.2943 8.2678 24.2943C8.28965 24.2925 8.31127 24.2918 8.33289 24.2918C8.35452 24.2918 8.37636 24.2925 8.39776 24.2934C8.41961 24.2943 8.44055 24.2959 8.46194 24.2992C8.7359 24.3304 9.00296 24.4464 9.19572 24.646C9.2293 24.6808 9.28151 24.6902 9.32614 24.6723C9.51062 24.5954 9.71327 24.6081 9.90695 24.6262C10.1462 24.6483 10.3877 24.7199 10.5464 24.8742C10.5943 24.9209 10.6626 24.9446 10.7279 24.9296C10.9154 24.8871 11.112 24.891 11.2945 24.9572C11.4385 25.0108 11.5594 25.0955 11.6556 25.202C11.7228 25.2765 11.8419 25.2908 11.9261 25.2365C11.9786 25.2027 12.0363 25.1742 12.1005 25.1525C12.3464 25.069 12.6185 25.1167 12.8572 25.2025C12.9748 25.2448 13.0981 25.2825 13.2041 25.3534C13.399 25.4831 13.5179 25.6726 13.5938 25.8845C13.6368 26.0039 13.7976 26.0453 13.8951 25.9641C14.0704 25.8182 14.2091 25.7936 14.349 25.8557C14.4203 25.8879 14.4699 25.9321 14.5033 25.9875C14.5615 26.0839 14.68 26.1633 14.7883 26.1329C15.169 26.0269 15.6456 26.0821 15.9909 26.267C16.1128 26.331 16.2326 26.4287 16.32 26.5764C16.3203 26.5764 16.3203 26.5764 16.3203 26.5766C16.3205 26.5773 16.3212 26.5771 16.3212 26.5764L16.3313 26.5108C16.3359 26.4812 16.3568 26.4565 16.3856 26.4476L16.4656 26.423C16.6543 26.3629 17.6153 26.086 17.9891 26.4796C18.0052 26.4957 18.0333 26.4973 18.0489 26.4805C18.0997 26.4246 18.1411 26.394 18.1676 26.3788C18.411 26.2311 18.8284 26.2219 19.1061 26.4598C19.162 26.5067 19.2526 26.4897 19.2947 26.4299C19.3207 26.3933 19.3501 26.3609 19.3833 26.333C19.4808 26.2488 19.6043 26.2086 19.7412 26.2171L20.2691 26.1886C20.4018 26.1812 20.8145 26.1531 20.9444 26.1258C20.9543 26.1237 20.9645 26.1219 20.9748 26.1203C21.0298 26.1117 21.0951 26.0977 21.1634 26.0834C21.4194 26.0276 21.71 25.9648 21.9485 26.0749C22.1776 26.181 22.1486 26.4421 22.121 26.6723C22.1102 26.7657 22.0985 26.8632 22.0994 26.9559C22.101 26.9992 22.1019 27.0427 22.1026 27.087C22.1061 27.2856 22.1102 27.4689 22.0709 27.6097C22.0709 27.6099 22.0709 27.6104 22.0709 27.6106C22.0709 27.6108 22.0709 27.611 22.0709 27.6113L22.095 27.7203C22.0962 27.7244 22.0973 27.7297 22.0987 27.7362C22.1203 27.836 22.2275 27.8917 22.3147 27.8385C22.4987 27.7263 22.6922 27.5804 22.7506 27.4965C22.755 27.49 22.7584 27.4834 22.7609 27.476C22.769 27.4549 22.7839 27.4091 22.8003 27.3134C22.8329 27.1172 22.8695 26.7185 22.8727 25.9091C22.8727 25.8663 22.8727 25.8357 22.8737 25.8215C22.8803 25.521 22.8686 25.28 22.8569 25.0672C22.8352 24.6283 22.8175 24.2831 23.0354 23.9316C23.2474 23.5895 23.4533 23.4602 23.6511 23.3349C23.8812 23.1907 24.1409 23.0269 24.5781 22.4272C24.7925 22.1319 24.819 22.0127 24.8399 21.9175C24.8875 21.6946 24.9611 21.5605 25.2921 21.3102C25.5617 21.1066 26.3818 20.4851 27.4882 20.6712C27.8509 20.7329 28.4391 20.9263 29.0195 21.1549C29.0197 21.1552 29.0199 21.1552 29.0204 21.1552C29.0206 21.1552 29.0208 21.1552 29.0211 21.1552C29.0427 21.1616 29.065 21.1692 29.0855 21.18C29.0928 21.1839 29.1004 21.1876 29.1082 21.1908C29.6267 21.3979 30.1312 21.629 30.4543 21.8137C30.5296 21.8568 30.6259 21.8319 30.6788 21.7631C30.7847 21.6258 30.9001 21.5462 31.0246 21.4715C31.0713 21.4432 31.1072 21.4215 31.1414 21.3923C31.1532 21.3824 31.1647 21.3728 31.1759 21.3636C31.2725 21.2854 31.2723 21.1181 31.1617 21.0611C29.6023 20.2549 28.1336 19.8047 27.6483 19.6667ZM16.5662 20.0246C16.2064 21.5989 13.7677 23.3294 12.6592 23.3294H12.6373C12.6199 23.3284 12.6005 23.3268 12.5798 23.3234C12.5589 23.3202 12.5364 23.3151 12.5124 23.3084C12.5007 23.305 12.4881 23.3008 12.4756 23.2976C12.2744 23.2341 11.9958 23.0796 11.7849 22.8721C11.6397 22.7297 11.5254 22.5615 11.4895 22.3805C11.4828 22.3488 11.4762 22.3173 11.4693 22.2855C11.4095 22.0178 11.3349 21.6833 11.5712 21.1359C11.6038 21.0625 11.6328 20.9939 11.6595 20.9314C11.668 20.9107 11.6772 20.8897 11.6855 20.8697C11.7106 20.8106 11.7329 20.7563 11.7531 20.7071C11.7865 20.6238 11.8139 20.553 11.8364 20.4927C11.8456 20.4692 11.8541 20.4467 11.8615 20.426C11.9291 20.2367 11.9374 20.1658 11.9466 20.0925C11.9551 20.035 11.9634 19.9646 11.9868 19.8645C12.0561 19.5692 12.092 19.3189 12.1237 19.096C12.1805 18.6953 12.2297 18.3493 12.4457 18.0314C12.4825 17.9774 12.5232 17.9279 12.5693 17.8847C12.5851 17.8697 12.6003 17.8555 12.6166 17.8412C12.6334 17.8269 12.6502 17.8145 12.6666 17.8019C12.719 17.7651 12.7751 17.7326 12.8358 17.705C12.8568 17.6958 12.8777 17.6866 12.8984 17.6793C12.9412 17.6634 12.9861 17.6498 13.033 17.6381C13.2315 17.59 13.4659 17.5824 13.7352 17.6165C14.0299 17.6399 14.3027 17.6956 14.5445 17.7632C14.7464 17.8189 14.9268 17.8842 15.0793 17.945C15.0952 17.9509 15.1103 17.9567 15.1253 17.9634C15.1545 17.9751 15.1828 17.9868 15.2104 17.9995C15.2523 18.017 15.2904 18.0337 15.3263 18.0494C15.3739 18.071 15.4174 18.0903 15.4558 18.1076L15.4917 18.1244C15.6619 18.2019 15.8082 18.287 15.9331 18.3763C15.9948 18.4216 16.0525 18.4673 16.104 18.5138C16.1218 18.529 16.1385 18.5449 16.154 18.5614C16.1707 18.5775 16.1866 18.5934 16.2016 18.6093C16.6701 19.1027 16.6469 19.6734 16.5662 20.0246ZM17.6963 14.0575L17.6489 14.343C17.5396 14.9862 17.2884 15.8681 16.3624 16.0951C15.4715 16.3129 15.2603 16.3594 14.6261 16.3879C14.6121 16.3895 14.5969 16.3895 14.582 16.3895C14.1189 16.3895 13.2278 16.0976 13.07 15.3717C12.969 14.9045 13.1751 14.5659 13.5147 14.0044C13.5712 13.9117 13.6324 13.8123 13.6973 13.7015C14.1461 12.9454 14.323 12.3981 14.4651 11.9593C14.6034 11.5305 14.7186 11.176 15.0149 10.8823C15.0832 10.814 15.1607 10.7496 15.2509 10.6879C15.3084 10.6486 15.3684 10.6136 15.4319 10.581C15.5161 10.5391 15.6044 10.5027 15.6971 10.4733C15.9032 10.4075 16.1259 10.3742 16.3488 10.3742C16.7808 10.3742 17.2123 10.4984 17.5201 10.7454C17.6585 10.8563 17.8554 11.078 17.9698 11.7322C18.0287 12.0692 17.9284 12.6884 17.6963 14.0575ZM24.3033 15.8881C23.9844 16.4353 23.8101 16.7366 23.5347 16.9625C22.9884 17.4113 22.351 17.5249 21.8261 17.5249C21.4491 17.5249 21.1289 17.4667 20.9403 17.4322C20.3979 17.3331 19.3886 17.1495 19.0523 16.3527C18.9865 16.1952 18.9858 16.0951 18.9858 15.9681C18.9858 15.8428 18.9858 15.6321 18.9274 15.1304L18.9241 15.097C18.8972 14.87 18.8673 14.6131 18.9324 14.2834L18.94 14.2441C19.1302 13.2766 19.1818 13.1287 19.2246 13.0452C19.323 12.855 19.5565 12.78 19.7467 12.8777C19.931 12.9737 20.0078 13.197 19.9211 13.3847C19.9017 13.4397 19.8477 13.6458 19.7007 14.3943L19.6931 14.4336C19.6512 14.6448 19.6696 14.8049 19.694 15.0078L19.6973 15.042C19.7605 15.5867 19.7605 15.8336 19.7605 15.9672C19.7605 15.9909 19.7605 16.0167 19.7614 16.0321C19.7617 16.0381 19.7646 16.0459 19.7665 16.0516C19.8295 16.2011 19.9717 16.3145 20.1449 16.4017C20.2525 16.4558 20.365 16.353 20.3411 16.2349C20.1688 15.3822 20.1782 14.3876 20.5039 13.773C20.6107 13.569 20.808 13.235 20.9955 12.9233C20.9962 12.9224 20.9967 12.9217 20.9971 12.9208C20.9976 12.9198 20.9983 12.9192 20.9987 12.9182C21.0178 12.8867 21.0367 12.8557 21.0555 12.8244C21.0714 12.7975 21.0873 12.7719 21.102 12.7469C21.1846 12.6098 21.2621 12.4839 21.3242 12.3839C21.3325 12.3696 21.3408 12.3554 21.3493 12.342C21.355 12.3319 21.361 12.3227 21.3668 12.3144C21.3801 12.2926 21.3918 12.2726 21.4029 12.2553C21.4077 12.247 21.4128 12.2394 21.4169 12.2318C21.4194 12.2286 21.4213 12.2252 21.4229 12.2226C21.4286 12.2125 21.4346 12.2033 21.4397 12.196C21.4496 12.1801 21.4572 12.1684 21.4613 12.1608C21.4618 12.1601 21.462 12.1596 21.4622 12.1589C21.4632 12.1573 21.465 12.1548 21.4659 12.1532C21.4666 12.152 21.4668 12.1518 21.4675 12.1506C21.5322 12.0566 21.5961 11.9671 21.6582 11.8829C21.7426 11.7686 21.6449 11.6188 21.5133 11.6726C21.1968 11.8017 20.9806 11.9666 20.9366 12.0014C20.7689 12.135 20.5251 12.1074 20.3926 11.9397C20.2599 11.7723 20.2875 11.5277 20.4552 11.3941C20.6546 11.2374 21.7116 10.4664 22.9774 10.8285C23.8894 11.0879 24.3674 11.7847 24.5475 12.0467C24.6927 12.2594 25.1376 12.9053 25.1233 13.807C25.1127 14.4948 24.8259 14.9896 24.3033 15.8881Z" fill="white"/>
<path d="M16.0825 11.1719C16.0176 11.3288 15.9401 11.5231 15.8569 11.7343C15.6623 12.2233 15.4417 12.7772 15.3356 12.978C15.1528 13.3251 15.0104 13.5441 14.8967 13.7205C14.7665 13.9232 14.6628 14.0835 14.5846 14.3071C14.4473 14.6982 14.4227 15.1352 14.5119 15.6104C14.2695 15.5837 13.8727 15.4167 13.8278 15.2063C13.7942 15.0496 13.8915 14.8783 14.1784 14.4065C14.2359 14.3124 14.2975 14.21 14.3649 14.0962C14.8579 13.266 15.0573 12.6484 15.2041 12.1969C15.3623 11.7055 15.4371 11.4994 15.6889 11.3274C15.8017 11.2489 15.9388 11.199 16.0825 11.1719Z" fill="white"/>
<path d="M15.6011 28.5812C15.3325 29.1301 14.998 29.6366 14.7896 29.8875C14.6171 29.421 14.3171 28.3521 14.3963 27.4921C14.3986 27.4672 14.4013 27.4426 14.405 27.4187C14.4368 27.153 14.5074 26.9094 14.633 26.7141C14.7158 26.5858 14.9451 26.5073 15.2055 26.5073C15.3978 26.5073 15.6069 26.5494 15.787 26.646H15.7884C15.8848 26.6976 16.0161 26.802 16.0299 27.1054C16.0497 27.5153 15.8544 28.0662 15.6011 28.5812Z" fill="white"/>
<path d="M30.3214 22.431C30.3422 22.4478 30.3553 22.4731 30.3433 22.497C30.263 22.6583 30.1669 22.7715 30.0532 22.9046C29.9161 23.068 29.7593 23.2531 29.6134 23.5418C29.4057 23.951 29.3392 24.3244 29.3043 25.2801C29.2631 26.4029 29.3066 27.0336 29.3392 27.4934C29.3703 27.9376 29.3894 28.2053 29.3103 28.6385C29.1506 29.5123 28.7768 30.0908 28.3034 30.823C27.7111 31.7387 27.0986 32.6853 26.0842 32.9871C25.9899 33.0161 25.9866 33.0161 25.7221 33.017C25.4918 33.017 25.1089 33.0179 24.3838 33.0446C23.0587 33.0927 22.3939 33.1166 21.825 33.2258C21.2283 33.3413 20.9171 33.4683 20.6153 33.5902C20.343 33.7004 20.0856 33.805 19.5922 33.9065C19.298 33.9658 18.8584 34.0307 17.3605 34.033C15.8037 34.0358 14.8638 34.0364 13.6228 33.895C11.9202 33.7006 11.0654 33.6033 10.4977 33.3001C9.15874 32.5859 8.59334 31.3015 7.65806 29.1735C7.65645 29.1698 7.65483 29.1661 7.65322 29.1622C7.64172 29.1358 7.67393 29.1102 7.69877 29.125C7.74317 29.1526 7.7894 29.1753 7.83816 29.1917C7.87911 29.2062 7.92166 29.2172 7.96467 29.2243C8.05024 29.2388 8.1395 29.2398 8.23013 29.2243C8.246 29.2216 8.26049 29.2179 8.27452 29.2121C8.27728 29.211 8.27981 29.2096 8.28257 29.2085C8.29844 29.2006 8.31799 29.2071 8.32466 29.2234C8.38424 29.3874 8.47878 29.5335 8.6375 29.6177C8.79645 29.7005 8.97725 29.7069 9.15414 29.7055C9.33631 29.7028 9.51987 29.6924 9.70136 29.6706C9.79751 29.6605 9.89596 29.7076 9.93276 29.7971C10.0991 30.2001 10.3049 30.4918 10.6143 30.5348C10.6311 30.5371 10.653 30.5398 10.6806 30.5398C10.7503 30.5398 10.8579 30.5196 11.0097 30.4152C11.1273 30.3347 11.3092 30.382 11.3937 30.4968C11.4709 30.6015 11.5629 30.6767 11.6421 30.7402C11.9607 31.0673 12.7349 31.2242 13.3852 31.2242C13.7399 31.2242 14.058 31.1775 14.2453 31.0864C14.513 30.9564 14.513 30.757 14.4999 30.6762C14.4771 30.5316 14.4564 30.388 14.4389 30.2459C14.4369 30.2289 14.4626 30.2222 14.4695 30.2381C14.5084 30.3229 14.556 30.4287 14.6828 30.4492C14.6966 30.4506 14.712 30.4536 14.7295 30.4536C14.9107 30.4536 15.1927 30.5127 15.2413 30.6873C15.2661 30.7763 15.3011 30.8596 15.3487 30.9348C15.4575 31.1071 15.679 31.3123 16.1181 31.3196H16.1522C16.6564 31.3196 17.0456 31.1547 17.308 30.8288C17.3251 30.8078 17.3414 30.7862 17.357 30.7643C17.4513 30.6314 17.7315 30.6256 17.8514 30.7361C17.9864 30.861 18.1564 30.9254 18.3457 30.9254C18.376 30.9254 18.4069 30.924 18.4386 30.9203C18.6643 30.8964 18.8596 30.7768 19.0054 30.5727C19.1009 30.4396 19.1705 30.2758 19.2214 30.0987C19.2363 30.0464 19.3081 30.031 19.3481 30.0676C19.4445 30.1569 19.5991 30.2512 19.822 30.2512C19.8763 30.2512 19.9351 30.2454 19.9977 30.2323C20.4357 30.1442 20.6537 29.7817 20.757 29.3725C20.7605 29.3587 20.7803 29.355 20.7895 29.3658C20.9003 29.5008 21.1051 29.6568 21.4614 29.6568C21.4795 29.6568 21.4984 29.6568 21.517 29.6559C21.7057 29.6471 21.8646 29.5643 21.9794 29.4162C22.119 29.2342 22.174 28.9644 22.1866 28.693C22.1903 28.6139 22.2414 28.5444 22.3145 28.5138C22.6904 28.3567 23.1456 28.0183 23.279 27.7878C23.2836 27.7798 23.2882 27.7713 23.2928 27.7625C23.3234 27.7032 23.3759 27.6563 23.4414 27.6438C23.7326 27.5886 23.8596 27.5337 23.9751 27.4835C24.0691 27.4421 24.1448 27.4094 24.3565 27.3765C26.0402 27.1196 26.3689 27.063 26.7333 26.8201C27.2782 26.4567 27.3058 25.9564 27.3327 25.4724C27.3557 25.0632 27.382 24.5988 27.6999 24.0538C27.8153 23.8549 27.9485 23.6067 28.0902 23.344C28.3382 22.8842 28.6846 22.2403 28.9326 21.9029C28.9792 21.8392 29.0637 21.8194 29.1364 21.8502C29.7183 22.0975 30.214 22.345 30.3214 22.431Z" fill="white"/>
<path d="M13.9696 27.4412C13.9029 28.0233 13.8622 28.8011 13.9565 29.8141C13.9832 30.1 14.0205 30.3967 14.0667 30.6974C13.9869 30.7409 13.7486 30.8018 13.3249 30.7951C12.716 30.7829 12.1232 30.6297 11.9452 30.4372L11.9176 30.4124C11.7695 30.2935 11.6724 30.215 11.6586 30.0025C11.654 29.9307 11.6848 29.8596 11.7506 29.7591C11.7869 29.7025 11.8348 29.6372 11.8941 29.5567C11.9965 29.4194 12.1235 29.2482 12.2534 29.0274C12.6346 28.3836 12.779 28.1848 12.9626 27.9336C12.9771 27.9134 12.9925 27.8929 13.0084 27.872C13.1165 27.7239 13.2435 27.5467 13.4344 27.2558C13.5765 27.0398 13.6948 26.8705 13.7923 26.7375C13.9549 26.5165 14.0614 26.3964 14.1297 26.3311C14.1196 26.4313 14.0971 26.5721 14.0752 26.7021C14.043 26.902 14.0023 27.1465 13.9696 27.4412Z" fill="white"/>
<path d="M13.6909 18.3903C13.6872 18.3954 13.6828 18.4004 13.6791 18.4057C13.6 18.5154 13.5094 18.6394 13.4013 18.8809C13.111 19.5262 13.1055 19.8914 13.1009 20.1852C13.0981 20.3391 13.0965 20.4617 13.0544 20.6047C13.0254 20.6991 12.9783 20.8072 12.9237 20.9318C12.7526 21.3238 12.529 21.8377 12.6293 22.5291C12.4906 22.4624 12.2785 22.3099 12.2491 22.2287C12.2417 22.191 12.2337 22.154 12.2252 22.1169C12.1771 21.9012 12.1453 21.7606 12.2824 21.4448C12.6431 20.613 12.6875 20.4159 12.7158 20.1893C12.7216 20.1399 12.7275 20.1015 12.742 20.0389C12.8182 19.7109 12.858 19.43 12.8906 19.2044C12.9392 18.8619 12.9718 18.6353 13.0873 18.4648C13.1294 18.4018 13.2485 18.3691 13.419 18.3691C13.4864 18.3691 13.5625 18.3742 13.6456 18.3859L13.6649 18.3873C13.6734 18.3882 13.6824 18.3889 13.6909 18.3903Z" fill="white"/>
<path d="M13.215 26.5953C13.1954 26.3959 13.1604 26.196 13.088 26.0081C13.0829 25.9987 13.0613 25.9506 13.0567 25.9414C13.0436 25.9175 13.0286 25.8949 13.0146 25.8712C13.0137 25.8703 13.0132 25.8703 13.0132 25.8696C13.0123 25.8682 13.0118 25.8682 13.0118 25.8675C13.0038 25.8588 12.9964 25.8503 12.9886 25.842C12.9769 25.8303 12.9642 25.819 12.9516 25.8087C12.9493 25.8059 12.9472 25.8036 12.9451 25.8027C12.9394 25.7979 12.9306 25.7909 12.9212 25.7854C12.9058 25.7774 12.8913 25.7686 12.8764 25.761C12.8718 25.7581 12.8609 25.7537 12.8508 25.75C12.8508 25.75 12.8501 25.75 12.8501 25.7493C12.8478 25.7484 12.8455 25.7479 12.8437 25.747C12.8414 25.7456 12.84 25.7447 12.8386 25.7443C12.8363 25.7433 12.835 25.7429 12.8336 25.7429C12.8322 25.7429 12.8322 25.742 12.8322 25.742C12.8276 25.7397 12.8248 25.7392 12.8228 25.7383C12.7066 25.6957 12.5888 25.649 12.4655 25.6309C12.4648 25.6309 12.4628 25.6302 12.4612 25.6302H12.4584C12.4446 25.6302 12.4163 25.6274 12.4149 25.6274C12.3977 25.6265 12.3809 25.6265 12.3641 25.6274C12.356 25.6274 12.3482 25.6274 12.3409 25.6281H12.3344C12.3317 25.6281 12.3282 25.629 12.3245 25.629C12.3231 25.6304 12.3208 25.6304 12.3199 25.6304C12.3192 25.6304 12.3185 25.6304 12.3185 25.6304C12.2909 25.6384 12.262 25.6458 12.2344 25.6543C12.2226 25.6603 12.2097 25.666 12.198 25.6734C12.1881 25.6792 12.1778 25.6865 12.1676 25.6916C12.167 25.6923 12.1656 25.6937 12.164 25.6937L12.1619 25.6959C12.1488 25.7091 12.135 25.7212 12.1219 25.7344C12.1175 25.739 12.1053 25.7539 12.0966 25.765C12.0943 25.7663 12.0929 25.7677 12.0929 25.7691C12.0922 25.7698 12.0922 25.7698 12.0915 25.7705C12.0908 25.7712 12.0908 25.7719 12.0892 25.7725C12.0885 25.7735 12.0885 25.7742 12.0878 25.7742C12.0844 25.7804 12.0807 25.7857 12.0793 25.7887C12.0326 25.8611 11.9855 25.9331 11.9369 26.0046C11.8251 26.176 11.7106 26.3465 11.5944 26.5158C11.4884 26.669 11.3826 26.8221 11.2772 26.9751C11.2183 27.0609 11.1604 27.1456 11.1024 27.2314C11.0923 27.2459 11.0829 27.2603 11.0734 27.2748C11.1422 27.288 11.2112 27.3015 11.2809 27.3146C11.4369 27.3432 11.5921 27.3705 11.7504 27.3921C12.0761 27.4365 12.4073 27.457 12.7374 27.4453C12.7533 27.4444 12.7692 27.4453 12.7839 27.448C12.8632 27.3349 12.9566 27.1999 13.0758 27.0191C13.1418 26.9181 13.2048 26.8247 13.2642 26.7382C13.2375 26.6968 13.2207 26.6473 13.215 26.5953Z" fill="white"/>
<path d="M12.0548 27.9414C12.0267 28.1926 11.7457 28.8427 11.3072 29.4617C10.9401 29.9792 10.7172 30.1048 10.6728 30.1092C10.4957 30.0846 10.3209 29.6461 10.1822 29.2114C10.1265 29.0352 10.0761 28.8594 10.034 28.7122C9.93904 28.3815 9.9218 27.9377 9.93836 27.6592C10.3087 27.8644 10.9587 27.9196 11.8719 27.9233H11.8747C11.935 27.9297 11.9945 27.9364 12.0548 27.9414Z" fill="white"/>
<path d="M11.4054 25.8732C11.4054 25.8742 11.4054 25.8742 11.4054 25.8746C11.401 25.8806 11.3973 25.887 11.3932 25.8928C11.2363 26.1235 11.0783 26.3531 10.92 26.5829C10.8381 26.7013 10.7569 26.8196 10.6762 26.9387C10.632 27.0034 10.5724 27.0744 10.5209 27.1513C10.391 27.1207 10.2612 27.091 10.1326 27.0547C10.0275 27.0243 9.92378 26.9916 9.82188 26.9509C9.80141 26.9435 9.78186 26.9355 9.763 26.9263C9.74621 26.8923 9.72228 26.8617 9.6933 26.8384C9.69399 26.8377 9.69398 26.8357 9.69467 26.8347C9.73171 26.7593 9.76944 26.6832 9.80647 26.6077C9.87686 26.4692 9.94748 26.3315 10.0257 26.1978C10.1653 25.9567 10.3335 25.7115 10.5695 25.5553C10.5812 25.5466 10.5941 25.5386 10.6065 25.5307C10.698 25.4732 10.7896 25.4327 10.9018 25.4189C10.915 25.4176 10.9941 25.418 11.0311 25.4212C11.0376 25.4212 11.0429 25.4219 11.0465 25.4219H11.0472C11.05 25.4229 11.0553 25.4242 11.0631 25.427C11.0907 25.4357 11.1185 25.4415 11.1461 25.4509C11.1556 25.4555 11.1641 25.4597 11.1737 25.4647C11.1977 25.4792 11.2223 25.4923 11.2448 25.5105C11.2085 25.4829 11.295 25.5721 11.295 25.5657C11.3647 25.6621 11.3858 25.7428 11.4054 25.8732Z" fill="white"/>
<path d="M10.1633 25.2191C9.873 25.4579 9.66183 25.7758 9.48563 26.1065C9.38672 26.2901 9.29748 26.4773 9.20455 26.6639C9.19512 26.683 9.18569 26.7011 9.17488 26.7198C9.08701 26.7007 8.99914 26.6754 8.91334 26.648C8.82202 26.619 8.73116 26.5857 8.64421 26.5452C8.60441 26.5261 8.56439 26.5065 8.5246 26.4856C8.61155 26.3209 8.71529 26.1627 8.8142 26.009C8.95359 25.7919 9.10448 25.5786 9.26849 25.3783C9.33014 25.3021 9.39547 25.2186 9.48196 25.1685C9.57028 25.1163 9.67725 25.1287 9.77869 25.1345C9.88611 25.1411 10.0016 25.1439 10.103 25.1846C10.124 25.1936 10.1467 25.2076 10.1633 25.2191Z" fill="white"/>
<path d="M9.70219 29.1148C9.6877 29.127 9.67551 29.1401 9.6647 29.1555C9.65458 29.1583 9.64423 29.1606 9.63779 29.1622C9.56809 29.1693 9.49701 29.1744 9.42663 29.179C9.2916 29.1875 9.15451 29.1935 9.0181 29.1884C8.94196 29.1856 8.87296 29.1739 8.84167 29.1254C8.79153 29.0492 8.77635 28.9163 8.7584 28.8153C8.66915 28.3196 8.65742 27.8032 8.72068 27.3015C8.97969 27.3944 9.24628 27.4664 9.51955 27.5113C9.46067 27.9635 9.56096 28.6274 9.61961 28.8307C9.64699 28.9253 9.67459 29.0209 9.70219 29.1148Z" fill="white"/>
<path d="M8.869 25.0541C8.63966 25.3356 8.4308 25.6353 8.24333 25.9459C8.16765 26.0721 8.08209 26.2028 8.01906 26.3378C7.9282 26.3125 7.84632 26.2762 7.75937 26.2223C7.69266 26.1809 7.62779 26.1352 7.56476 26.0873C7.54889 26.0742 7.50542 26.0402 7.47827 26.0183C7.47206 26.0135 7.46608 26.0084 7.45941 26.0047C7.48034 25.9454 7.51876 25.8791 7.53992 25.8348C7.588 25.7296 7.64159 25.6264 7.69772 25.5258C7.80422 25.3372 7.92337 25.1527 8.0584 24.983C8.10854 24.9204 8.15616 24.8399 8.23414 24.8167C8.30521 24.7964 8.39883 24.8059 8.45611 24.8157C8.62587 24.8486 8.75882 24.9257 8.869 25.0541Z" fill="white"/>
<path d="M7.10189 26.2762C7.10511 26.2643 7.12074 26.2627 7.12787 26.2728C7.18814 26.3586 7.2721 26.4331 7.36227 26.5033C7.40253 26.5339 7.44232 26.5642 7.48303 26.593C7.48809 26.5967 7.49039 26.6029 7.48901 26.6091C7.39401 27.0026 7.32915 27.4206 7.3303 27.8323C7.3303 27.8505 7.30293 27.8542 7.29878 27.8365C7.18262 27.3571 7.02483 26.558 7.10189 26.2762Z" fill="white"/>
<path d="M8.22474 27.132C8.17827 27.4745 8.15596 27.8179 8.17091 28.1632C8.17827 28.3525 8.19852 28.5406 8.22405 28.7276C8.22405 28.729 8.22405 28.7306 8.22474 28.7313V28.7323C8.18402 28.7228 8.14147 28.7214 8.098 28.7276C8.10651 28.7249 8.08419 28.7263 8.07476 28.7263H8.072C8.06556 28.7256 8.05613 28.7249 8.05291 28.7242C8.00506 28.7125 8.00092 28.7074 7.96297 28.6835C7.91351 28.6515 7.8613 28.5933 7.82657 28.534C7.73433 28.3743 7.71409 28.1804 7.70673 27.9996C7.69316 27.6449 7.72352 27.2907 7.78976 26.9431C7.84635 26.9661 7.89557 26.9873 7.97769 27.0227C8.05889 27.0581 8.14308 27.0931 8.2252 27.131V27.132H8.22474Z" fill="white"/>
<g opacity="0.8" filter="url(#filter0_i_7277_57310)">
<path opacity="0.8" d="M17.2816 45.0553C15.7186 45.0553 14.2361 44.9566 12.9921 44.8598L12.6491 44.8331L12.3066 44.7855C12.1569 44.7643 11.9533 44.7425 11.7569 44.7211C10.5601 44.5909 8.33435 44.3484 5.87746 43.1946L5.49584 43.0148L5.13999 42.8156C0.418053 40.1687 -1.34922 36.1853 -2.30084 34.0438C-2.36133 33.9079 -2.43494 33.7422 -2.50395 33.5897C-2.98447 32.6066 -3.2881 31.7203 -3.54573 30.909L-3.603 30.7278L-3.65062 30.5518C-4.33609 28.1158 -4.5093 26.0123 -4.19531 23.9321C-3.88064 21.8435 -3.10684 19.9433 -1.76281 17.9543L-1.06583 16.8161C-0.924368 16.5863 -0.824536 16.3333 -0.77071 16.0688C-0.239354 13.4352 0.966432 11.5697 1.55898 10.6788C1.72206 9.60024 1.99096 8.54053 2.36176 7.51485L2.41697 7.35935L2.47608 7.20776C2.48574 7.18108 2.49817 7.14336 2.52094 7.07458C2.78708 6.27295 3.41114 4.39686 5.00889 2.42693L5.60902 1.70005L6.22042 1.14777C7.79103 -0.279536 9.66228 -1.33581 11.6957 -1.94307C12.8311 -2.28167 14.0015 -2.48869 15.184 -2.56L15.2983 -2.56851L15.4706 -2.57656C15.6751 -2.58622 15.8789 -2.59082 16.0777 -2.59082C16.8156 -2.5922 17.5523 -2.53009 18.2795 -2.40542C18.734 -2.32882 19.2007 -2.38219 19.626 -2.55931C20.8868 -3.08537 22.2122 -3.44122 23.5668 -3.61742C23.68 -3.63352 23.7786 -3.64594 23.8564 -3.65606C24.0701 -3.68274 24.4096 -3.72277 24.82 -3.76187C25.5353 -3.83019 26.6323 -3.91162 27.8216 -3.91162C30.1439 -3.91162 32.143 -3.61075 33.9326 -2.99198L34.0849 -2.93908L34.2337 -2.88318C38.183 -1.39078 40.1934 0.694162 41.6394 2.53344L41.7079 2.62107L41.9069 2.79796C43.213 3.81996 44.3237 5.06922 45.1856 6.48618L45.4552 6.92966L45.6827 7.39477C47.6145 11.3379 47.0005 14.9787 46.7691 16.3466L46.7567 16.4198C46.5904 17.4289 46.3256 18.4194 45.9663 19.377C45.8341 20.3003 45.6167 21.2094 45.3168 22.0924C44.804 23.6623 44.0475 25.1416 43.0749 26.4765C42.5151 27.2684 41.8827 28.0068 41.1862 28.6819C40.9399 28.92 40.7802 29.2335 40.7326 29.5726C40.7025 29.7814 40.6682 29.988 40.6291 30.1925C40.0628 33.23 38.7344 35.3439 38.1922 36.1858L36.5528 38.5403C34.5785 41 32.236 42.6223 29.4014 43.4941L28.7145 43.7094L27.9727 43.8385C27.1241 43.9882 26.2641 44.0627 25.4024 44.0609C25.2835 44.0609 25.1639 44.0609 25.0311 44.0574H24.993L24.8467 44.0667L24.6898 44.0724H24.6854C24.3569 44.0834 24.0312 44.137 23.7165 44.232C21.8855 44.7921 19.8144 45.0553 17.2816 45.0553Z" stroke="url(#paint1_linear_7277_57310)" stroke-width="1.0554" stroke-miterlimit="10"/>
<path opacity="0.8" d="M17.2818 43.4364C15.7841 43.4364 14.3476 43.341 13.1402 43.2458L12.854 43.2237L12.5679 43.1841C12.3894 43.1593 12.1716 43.1365 11.9611 43.1126C10.7988 42.9863 8.85553 42.7749 6.68617 41.7575L6.36759 41.6077L6.07132 41.4412C1.90442 39.1042 0.362801 35.634 -0.558677 33.5601C-0.624464 33.4122 -0.7052 33.2305 -0.780418 33.0656C-1.20964 32.185 -1.49119 31.3717 -1.72881 30.6234L-1.77642 30.4725L-1.81783 30.3257C-2.4274 28.1591 -2.58496 26.3104 -2.31307 24.5066C-2.04118 22.7025 -1.35617 21.0355 -0.161424 19.2784L0.731532 17.8202C0.889559 17.5619 0.997899 17.2762 1.05103 16.9783C1.49567 14.5012 2.66581 12.745 3.19763 11.9456L3.26479 11.8444L3.28963 11.8044C3.30068 11.78 3.31103 11.7568 3.32115 11.7315C3.35358 11.6261 3.38556 11.524 3.41661 11.4267C3.55646 10.4104 3.80328 9.41215 4.15338 8.44788L4.20122 8.31814L4.25229 8.18795C4.26839 8.14655 4.28357 8.10169 4.32842 7.96713C4.58168 7.2039 5.1089 5.6195 6.48789 3.91939L6.98819 3.31374L7.49609 2.85437C8.85806 1.61684 10.4804 0.701117 12.2436 0.174591C13.2446 -0.122601 14.2763 -0.30386 15.3185 -0.365737L15.414 -0.373332L15.5571 -0.380001C15.7312 -0.388282 15.9049 -0.391962 16.0742 -0.391962C16.822 -0.393343 17.5677 -0.608644 18.3003 -0.458208C18.8655 -0.341356 19.4532 -0.403919 19.9811 -0.637164C20.9675 -1.07214 22.2954 -1.24581 23.8156 -1.43512C23.924 -1.45099 24.0183 -1.46272 24.0917 -1.47193C24.2916 -1.49723 24.6113 -1.53495 24.998 -1.57153C25.6706 -1.63593 26.7057 -1.7146 27.8185 -1.7146C29.9253 -1.7146 31.7202 -1.448 33.3062 -0.899627L33.433 -0.85569L33.5569 -0.807843C37.0577 0.514798 38.7877 2.2853 40.1356 4.00197C40.2104 4.09743 40.2872 4.19519 40.3158 4.229L40.3477 4.25752L40.6035 4.48525L40.6378 4.52044C41.8024 5.41248 42.7906 6.5136 43.5522 7.76724L43.7765 8.13688L43.9672 8.52425C45.6289 11.916 45.1081 15.0017 44.8859 16.3195L44.8739 16.3897C44.7161 17.3471 44.4583 18.2853 44.104 19.1886C43.9925 20.0678 43.7923 20.9334 43.5069 21.7725C43.0535 23.1614 42.3844 24.4707 41.5241 25.6516C40.9416 26.4797 40.2681 27.2395 39.5164 27.9174C39.1677 28.2307 38.9476 28.6622 38.8988 29.1285C38.8625 29.4719 38.8135 29.8057 38.7514 30.1334C38.252 32.8146 37.0848 34.6691 36.5505 35.4994L35.2226 37.4298C33.4578 39.6974 31.3667 41.1804 28.8334 41.9613L28.2611 42.1405L27.6409 42.2479C26.901 42.3786 26.1506 42.4434 25.3991 42.442C25.2899 42.442 25.1783 42.442 25.0582 42.4391H25.0242H24.9531C24.9531 42.4391 24.9294 42.4391 24.8806 42.4425L24.7495 42.4506L24.6175 42.4554L24.3537 42.4653C24.0049 42.4777 23.6597 42.5377 23.3271 42.6438C21.6405 43.1823 19.6915 43.4364 17.2818 43.4364Z" stroke="url(#paint2_linear_7277_57310)" stroke-width="1.0554" stroke-miterlimit="10"/>
<path opacity="0.8" d="M17.2818 41.5295C15.8508 41.5295 14.459 41.4366 13.2875 41.3455L13.059 41.3278L12.8311 41.2962C12.6245 41.2677 12.3922 41.2424 12.1675 41.2176C11.0567 41.0968 9.37911 40.9142 7.49797 40.0318L7.24265 39.9122L7.00411 39.779C3.39065 37.7532 2.06364 34.7649 1.18495 32.7874C1.11019 32.6181 1.02531 32.4272 0.946643 32.2503C0.565032 31.4742 0.310167 30.734 0.0932539 30.0485L0.0550698 29.9284L0.0217152 29.8104C-0.512172 27.9141 -0.653176 26.3196 -0.423382 24.7936C-0.190137 23.2462 0.417589 21.804 1.48789 20.2536L1.61532 20.0696L1.75311 19.8927C1.83983 19.782 1.92333 19.6728 2.00545 19.5658L2.54255 18.5809C2.71875 18.2591 2.83768 17.909 2.89403 17.5464C3.23562 15.3366 4.30017 13.74 4.7915 13.0037L4.7938 12.9998C4.82209 12.9577 4.85821 12.9043 4.87684 12.8749L4.98173 12.7074C5.02291 12.6177 5.0772 12.4985 5.12481 12.3734C5.17266 12.2241 5.22947 12.0396 5.29135 11.8487C5.40774 10.9075 5.63086 9.98231 5.95635 9.09143L5.99338 8.98746L6.0341 8.88233C6.06837 8.79515 6.09367 8.71925 6.14335 8.56996C6.37844 7.86355 6.81434 6.55242 7.97389 5.1219L8.37505 4.63677L8.78013 4.27103C9.93278 3.2235 11.306 2.44809 12.7987 2.00253C13.6649 1.74536 14.5581 1.58941 15.4603 1.53788L15.5364 1.53214L15.6523 1.52684C15.7954 1.52017 15.9385 1.51695 16.0816 1.51695C16.8574 1.5158 17.6301 1.61402 18.3807 1.80931C19.0307 1.97378 19.718 1.9011 20.3191 1.60459C21.2813 1.13764 22.5683 0.642168 24.0758 0.456999C24.1793 0.442277 24.2668 0.430772 24.3378 0.421801C24.5253 0.398339 24.8239 0.36315 25.1864 0.326346C25.8174 0.26585 26.7876 0.193848 27.8255 0.193848C29.7167 0.193848 31.3073 0.425944 32.6907 0.903935L32.7924 0.939356L32.8915 0.976393C36.1068 2.19184 37.5463 3.78361 38.6431 5.17963C38.8848 5.48718 38.9214 5.53502 39.0875 5.68247L39.2922 5.86465L39.3718 5.94607C39.9008 6.35598 40.9826 7.1997 41.9294 8.76042L42.1091 9.056L42.2609 9.36562C43.6528 12.206 43.2196 14.7712 43.0117 16.0044L43.0002 16.0724C42.8514 16.9764 42.5995 17.8607 42.2494 18.7074L42.2399 18.7851C42.1475 19.595 41.9685 20.3928 41.7061 21.1647C41.3125 22.3735 40.7305 23.5126 39.9818 24.5399C39.3554 25.4377 38.6026 26.24 37.7467 26.9225C37.5431 27.0839 37.3763 27.2871 37.2576 27.5182C37.1389 27.7496 37.0713 28.0036 37.0589 28.2633C37.0356 28.7728 36.977 29.2804 36.8834 29.7819C36.4511 32.1068 35.4363 33.7185 34.9183 34.5232L33.8889 36.0443C32.3372 38.1157 30.4979 39.4565 28.2752 40.1381L27.8179 40.2811L27.3231 40.3672C26.6908 40.479 26.0494 40.5344 25.4072 40.533C25.3074 40.533 25.2059 40.533 25.0962 40.5303H25.0709H24.9612C24.9426 40.5303 24.8857 40.5303 24.7703 40.5374L24.6654 40.5441L24.564 40.548L24.0335 40.5675C23.662 40.5802 23.2942 40.6466 22.9416 40.7644C21.3967 41.2847 19.574 41.5295 17.2818 41.5295Z" stroke="url(#paint3_linear_7277_57310)" stroke-width="0.989438" stroke-miterlimit="10"/>
<path opacity="0.8" d="M17.2813 39.6213C15.9138 39.6213 14.5693 39.5311 13.4351 39.443L13.2637 39.4297L13.0926 39.4062C12.8584 39.3738 12.6118 39.3466 12.3728 39.3209C11.3287 39.2068 9.90097 39.0517 8.30737 38.3044L8.11667 38.2142L7.93864 38.1146C4.87839 36.3975 3.75265 33.8642 2.93031 32.013C2.84497 31.8223 2.75618 31.6215 2.66855 31.4292C2.31891 30.7262 2.09624 30.0511 1.91107 29.4735L1.88255 29.3833L1.85771 29.2952C0.962915 26.1151 1.29921 23.8844 3.05729 21.3392L3.15275 21.2007L3.25626 21.0682C3.37311 20.9189 3.48237 20.7754 3.59003 20.639C3.75219 20.4262 3.91643 20.2095 4.09516 19.9868C4.20626 19.8481 4.29574 19.6933 4.36083 19.5279L4.56257 19.0129C4.64814 18.7937 4.70173 18.5637 4.72197 18.3293C4.89702 16.2892 5.88912 14.8021 6.38045 14.0651L6.38321 14.0612C6.41909 14.0069 6.47338 13.9259 6.49155 13.8967L6.60656 13.7131L6.64176 13.6653C6.70295 13.5418 6.82256 13.2809 6.92791 13.0077C6.98472 12.8207 7.07443 12.5336 7.16207 12.2725C7.16207 12.2626 7.16207 12.2516 7.16598 12.2401C7.26006 11.3853 7.45696 10.545 7.75277 9.73741L7.78084 9.6592L7.81143 9.58053C7.8648 9.44458 7.90252 9.33095 7.95451 9.17408C8.16429 8.54358 8.51531 7.488 9.4561 6.32799L9.75698 5.96362L10.059 5.69081C12.2806 3.67488 14.7667 3.50098 15.5975 3.44508L15.6548 3.44072L15.7427 3.43658C15.8556 3.43129 15.9688 3.42899 16.0794 3.42899C17.0658 3.43244 18.0418 3.63186 18.9504 4.016C19.1114 4.08294 19.285 4.11331 19.4592 4.10503C19.6333 4.09675 19.8033 4.05005 19.9572 3.96839H19.962C20.8067 3.47844 22.354 2.59031 24.327 2.3527C24.4222 2.33844 24.5101 2.32763 24.5745 2.31935C24.7481 2.2975 25.0251 2.26506 25.3657 2.23217C25.9553 2.17581 26.8607 2.10864 27.8231 2.10864C29.4988 2.10864 30.8859 2.30692 32.0641 2.7143L32.1404 2.74052L32.2147 2.76881C34.9702 3.8099 36.1585 5.11644 37.1391 6.36525C37.4029 6.69901 37.5207 6.85405 37.8161 7.11443L37.9695 7.2513L38.0925 7.37782L38.188 7.45326C38.6549 7.81463 39.5235 8.48769 40.2943 9.75558L40.4294 9.97732L40.5432 10.2096C41.6641 12.4991 41.3136 14.5755 41.1252 15.6916L41.1144 15.7578C40.9814 16.5694 40.7505 17.3616 40.4264 18.117L40.3992 18.1818C40.3965 18.1959 40.3926 18.2163 40.3868 18.2462C40.3721 18.3231 40.3636 18.3843 40.3534 18.462L40.3419 18.5496C40.2656 19.234 40.1151 19.9079 39.8932 20.5596C39.5594 21.5878 39.0649 22.5567 38.4284 23.4301C37.7988 24.3239 37.0929 25.052 36.3006 25.6282C35.9529 25.8821 35.6688 26.2136 35.471 26.5961C35.2731 26.9787 35.1669 27.4021 35.1606 27.8327C35.154 28.3698 35.1013 28.9053 35.0035 29.4335C34.6383 31.403 33.7978 32.7366 33.2747 33.5493L32.5266 34.6707C31.1872 36.5419 29.6072 37.7369 27.7053 38.3191L27.6048 38.3506C27.4433 38.4014 27.2786 38.4412 27.1121 38.47L26.9913 38.4909C26.4666 38.5839 25.9348 38.6301 25.4021 38.6287C25.3119 38.6287 25.2204 38.6287 25.121 38.6264H25.1049C25.0596 38.6264 25.0094 38.6264 24.9561 38.6264C24.9188 38.6264 24.8206 38.6264 24.643 38.6375L24.5643 38.6421L24.4875 38.645C24.2324 38.6545 23.9152 38.6655 23.6323 38.6779C23.2447 38.694 22.8617 38.769 22.4967 38.9006C21.1278 39.3896 19.4525 39.6213 17.2813 39.6213Z" stroke="url(#paint4_linear_7277_57310)" stroke-width="0.923475" stroke-miterlimit="10"/>
<path opacity="0.8" d="M17.2814 37.7133C15.9788 37.7133 14.681 37.6261 13.583 37.5408L13.4685 37.5321L13.3544 37.516C13.0917 37.4796 12.8297 37.4511 12.5774 37.4239C11.6177 37.3195 10.4234 37.1893 9.11735 36.5768L8.98969 36.5167L8.87122 36.4505C6.36442 35.0448 5.42753 32.9346 4.67397 31.2388C4.58127 31.03 4.48305 30.8144 4.38759 30.6044C4.09247 30.0153 3.89258 29.412 3.72857 28.8956L3.70948 28.8358L3.69268 28.7771C2.95431 26.1537 3.19813 24.4885 4.62566 22.4218L4.68915 22.3297L4.75839 22.2416C4.88283 22.0822 4.99669 21.9334 5.10549 21.7899C5.47813 21.3013 5.83628 20.8311 6.37201 20.2593C6.48932 20.1337 6.55971 19.9713 6.57075 19.7999L6.61146 19.1826L6.59559 18.9804L6.60272 18.7706C6.65862 17.0778 7.50902 15.8042 7.96401 15.1201C8.01668 15.041 8.07143 14.9595 8.10386 14.9075L8.18069 14.7854L8.25177 14.6899C8.33665 14.5512 8.55977 14.0781 8.72861 13.624C8.78681 13.4331 8.89952 13.0692 8.99866 12.7805C9.02787 12.6885 9.03063 12.6662 9.05455 12.4686C9.13207 11.7544 9.29654 11.0521 9.54427 10.3777L9.5629 10.325L9.58338 10.2721C9.654 10.0918 9.70323 9.94453 9.76004 9.77363C9.93969 9.23284 10.2107 8.41763 10.9329 7.52721L11.1342 7.28384L11.3334 7.1035C12.89 5.69023 14.5855 5.42271 15.7299 5.34589L15.7685 5.34244H15.8276C15.9107 5.33876 15.9932 5.33691 16.0742 5.33691C17.0516 5.33691 18.2206 5.8057 18.8345 6.08909C18.9813 6.15626 19.14 6.19399 19.3014 6.19997C19.4629 6.20572 19.6239 6.17949 19.7751 6.12291C20.1571 5.98443 20.5293 5.82066 20.8893 5.6325C21.6702 5.17935 22.9657 4.43108 24.5745 4.24361C24.6633 4.23027 24.7429 4.22015 24.8087 4.21164C24.9704 4.19162 25.2257 4.16402 25.5418 4.13089C26.0904 4.07845 26.9304 4.01611 27.8181 4.01611C29.2776 4.01611 30.4611 4.18012 31.4355 4.51688L31.4861 4.53459L31.5337 4.55323C33.8351 5.42272 34.751 6.42194 35.632 7.54331C35.9182 7.90491 36.1204 8.16346 36.5406 8.53932L36.6428 8.6304L36.738 8.72587C36.8238 8.81075 36.916 8.88873 37.0143 8.95911C37.4092 9.26482 38.0712 9.77708 38.6585 10.7439L38.7482 10.8918L38.8243 11.0468C39.6754 12.7835 39.4019 14.4033 39.2384 15.371L39.2275 15.4368C39.1187 16.105 38.9283 16.7572 38.6603 17.3787V17.3835C38.5862 17.5443 38.5349 17.7145 38.5083 17.8896C38.4853 18.0117 38.471 18.1099 38.4572 18.2187L38.4457 18.3073C38.3845 18.8656 38.2624 19.4156 38.0818 19.9471C37.8095 20.7957 37.4021 21.5946 36.8755 22.3132C36.0981 23.4221 35.1994 24.2024 34.1166 24.6981C33.8535 24.8182 33.6288 25.0084 33.4673 25.2483C33.3056 25.488 33.2133 25.7677 33.2007 26.0564C33.1956 26.1748 33.1935 26.2721 33.197 26.3264C33.2504 27.1607 33.3109 28.1061 33.125 29.08C32.8269 30.6909 32.1446 31.7736 31.6319 32.5686C31.6319 32.5686 29.2795 35.8428 27.1388 36.4963L26.9084 36.5683L26.6609 36.6115C26.2443 36.6856 25.822 36.7221 25.3987 36.7208C25.3187 36.7208 25.2365 36.7208 25.1484 36.7185H25.1406C25.084 36.7185 25.0224 36.7185 24.9527 36.7185C24.8687 36.7185 24.7319 36.7185 24.5191 36.7332L24.4671 36.7366H24.4158C23.5967 36.7661 22.8227 36.7939 22.6074 36.8358C22.4924 36.8537 22.3801 36.8866 22.2736 36.934C21.0621 37.4649 19.4733 37.7133 17.2814 37.7133Z" stroke="url(#paint5_linear_7277_57310)" stroke-width="0.857513" stroke-miterlimit="10"/>
<path opacity="0.8" d="M17.2815 35.8063C16.0442 35.8063 14.7922 35.7219 13.7304 35.6393L13.6736 35.6349L13.6168 35.6269C13.3262 35.5869 13.0507 35.5567 12.7836 35.5277C11.8801 35.4293 10.9457 35.3279 9.9274 34.8503L9.86345 34.8197L9.80434 34.7868C7.84867 33.6898 7.12225 32.0514 6.41769 30.4649C6.31763 30.2399 6.21412 30.0072 6.10715 29.7758C5.86862 29.3044 5.69978 28.7988 5.5482 28.3199L5.53853 28.2905L5.53002 28.2604C4.943 26.1722 5.09228 25.106 6.19778 23.5067L6.22975 23.4591L6.26403 23.4147C6.39377 23.2493 6.51176 23.0947 6.62517 22.9454C7.15652 22.2484 7.61588 21.646 8.64524 20.696L8.648 20.693C8.72368 20.621 8.77659 20.5285 8.80074 20.4269C8.82489 20.3254 8.81891 20.2189 8.78395 20.1207L8.59855 19.5917C8.56128 19.4249 8.53506 19.2558 8.52034 19.0856V19.0798L8.50883 18.9368L8.51252 18.8319C8.55024 17.6829 9.15475 16.7771 9.5543 16.1774C9.61687 16.0819 9.67644 15.9948 9.72268 15.9202L9.76086 15.8593L9.80387 15.8015C10.0162 15.5154 10.361 14.7232 10.5423 14.2323C10.5899 14.0812 10.712 13.6752 10.8137 13.381C10.8859 13.1595 10.9328 12.9308 10.9533 12.6987C11.0133 12.1246 11.1451 11.5599 11.3455 11.0184L11.3549 10.9917L11.3655 10.9655C11.4536 10.7389 11.5157 10.5528 11.5758 10.3725C11.7356 9.89221 11.9164 9.34751 12.4195 8.72691L12.5207 8.60476L12.6194 8.51574C13.7251 7.51123 14.9371 7.30881 15.8719 7.24693H15.8915H15.9221C15.9745 7.24693 16.027 7.24348 16.0789 7.24348C16.9887 7.24348 17.688 7.61658 18.1505 7.86363L18.2584 7.9209L18.2745 7.92941C18.4015 7.99819 18.5131 8.05823 18.6166 8.10929C18.9041 8.25352 19.2344 8.28733 19.5452 8.20475C20.1787 8.03431 21.1671 7.65959 21.8319 7.29408L21.8457 7.28603C22.5449 6.8805 23.5982 6.27002 24.8325 6.13453C24.9103 6.12211 24.9848 6.11314 25.055 6.10394C25.198 6.086 25.4363 6.05632 25.7278 6.0301C26.2354 5.98249 27.0104 5.92383 27.8228 5.92383C29.0668 5.92383 30.046 6.05356 30.8168 6.3197L30.8421 6.32867L30.8679 6.33833C32.7143 7.036 33.3878 7.76633 34.1379 8.72323C34.4434 9.11197 34.7319 9.47909 35.2791 9.96628L35.3299 10.0139L35.3778 10.0615C35.5257 10.2108 35.6851 10.3481 35.8546 10.4723C36.1829 10.7265 36.6326 11.0748 37.0367 11.7395L37.0816 11.8136L37.1197 11.8914C37.7001 13.0767 37.5069 14.2222 37.3659 15.0583L37.3548 15.1244C37.2704 15.6518 37.119 16.1664 36.9049 16.6559C36.78 16.9376 36.6912 17.2341 36.6408 17.5382C36.6075 17.7147 36.5879 17.8527 36.5716 17.9803L36.5601 18.071C36.5143 18.5034 36.4207 18.9292 36.2811 19.3407C36.0695 20.0087 35.7495 20.6371 35.3338 21.2009C34.6327 22.2075 33.8552 22.8281 32.8224 23.1566C32.3276 23.3132 31.9019 23.6357 31.6171 24.0695L31.5352 24.1956L31.4446 24.2991C31.1821 24.5977 31.2562 25.7547 31.3015 26.4455C31.3491 27.2034 31.4002 27.9871 31.2585 28.725C31.0257 29.9865 30.4854 30.838 30.0016 31.5867C30.0016 31.5867 28.2054 34.1782 26.5846 34.6704L26.4666 34.7077L26.3426 34.7291C26.0339 34.7845 25.7209 34.8117 25.4074 34.8103C25.3367 34.8103 25.2643 34.8103 25.1875 34.8103C25.1194 34.8103 25.0444 34.8103 24.9613 34.8103C24.8512 34.8103 24.6752 34.8103 24.4072 34.8289H24.3815H24.3557C23.2686 34.8685 22.6128 34.8917 22.2503 34.9623C22.0062 35.0056 21.7681 35.0767 21.5404 35.1747C20.5697 35.605 19.2142 35.8063 17.2815 35.8063Z" stroke="url(#paint6_linear_7277_57310)" stroke-width="0.857513" stroke-miterlimit="10"/>
</g>
</g>
<defs>
<filter id="filter0_i_7277_57310" x="-4.87396" y="-4.43921" width="52.7129" height="50.418" filterUnits="userSpaceOnUse" color-interpolation-filters="sRGB">
<feFlood flood-opacity="0" result="BackgroundImageFix"/>
<feBlend mode="normal" in="SourceGraphic" in2="BackgroundImageFix" result="shape"/>
<feColorMatrix in="SourceAlpha" type="matrix" values="0 0 0 0 0 0 0 0 0 0 0 0 0 0 0 0 0 0 127 0" result="hardAlpha"/>
<feOffset dx="0.26385" dy="0.395775"/>
<feGaussianBlur stdDeviation="0.329812"/>
<feComposite in2="hardAlpha" operator="arithmetic" k2="-1" k3="1"/>
<feColorMatrix type="matrix" values="0 0 0 0 0 0 0 0 0 0 0 0 0 0 0 0 0 0 0.12 0"/>
<feBlend mode="normal" in2="shape" result="effect1_innerShadow_7277_57310"/>
</filter>
<radialGradient id="paint0_radial_7277_57310" cx="0" cy="0" r="1" gradientUnits="userSpaceOnUse" gradientTransform="translate(21.0601 23.441) rotate(90) scale(23.9766 23.9766)">
<stop offset="0.166667" stop-color="#073183"/>
<stop offset="1" stop-color="#0054F9"/>
</radialGradient>
<linearGradient id="paint1_linear_7277_57310" x1="-4.34621" y1="-3.91162" x2="44.5634" y2="47.4218" gradientUnits="userSpaceOnUse">
<stop offset="0.205697" stop-color="#89D0FF"/>
<stop offset="0.398413" stop-color="#EBBF9A"/>
<stop offset="0.601546" stop-color="#EB8280"/>
<stop offset="0.841139" stop-color="#A281FF"/>
</linearGradient>
<linearGradient id="paint2_linear_7277_57310" x1="-2.44143" y1="-1.7146" x2="42.6477" y2="45.8027" gradientUnits="userSpaceOnUse">
<stop offset="0.205697" stop-color="#89D0FF"/>
<stop offset="0.398413" stop-color="#EBBF9A"/>
<stop offset="0.601546" stop-color="#EB80DA"/>
<stop offset="0.841139" stop-color="#A281FF"/>
</linearGradient>
<linearGradient id="paint3_linear_7277_57310" x1="-0.529654" y1="0.193619" x2="40.7386" y2="43.8939" gradientUnits="userSpaceOnUse">
<stop offset="0.205697" stop-color="#89D0FF"/>
<stop offset="0.398413" stop-color="#EBBF9A"/>
<stop offset="0.601546" stop-color="#EB8280"/>
<stop offset="0.841139" stop-color="#A281FF"/>
</linearGradient>
<linearGradient id="paint4_linear_7277_57310" x1="1.37857" y1="2.10864" x2="38.8171" y2="41.9802" gradientUnits="userSpaceOnUse">
<stop offset="0.205697" stop-color="#89D0FF"/>
<stop offset="0.398413" stop-color="#EBBF9A"/>
<stop offset="0.601546" stop-color="#EB80E7"/>
<stop offset="0.841139" stop-color="#A281FF"/>
</linearGradient>
<linearGradient id="paint5_linear_7277_57310" x1="3.28646" y1="4.01611" x2="36.9025" y2="40.0559" gradientUnits="userSpaceOnUse">
<stop offset="0.205697" stop-color="#89D0FF"/>
<stop offset="0.398413" stop-color="#EBBF9A"/>
<stop offset="0.601546" stop-color="#EB80D3"/>
<stop offset="0.841139" stop-color="#A281FF"/>
</linearGradient>
<linearGradient id="paint6_linear_7277_57310" x1="5.19188" y1="5.92383" x2="34.9824" y2="38.1463" gradientUnits="userSpaceOnUse">
<stop offset="0.205697" stop-color="#89D0FF"/>
<stop offset="0.398413" stop-color="#EBBF9A"/>
<stop offset="0.601546" stop-color="#A280EB"/>
<stop offset="0.841139" stop-color="#A281FF"/>
</linearGradient>
</defs>
</svg>
