<svg width="42" height="42" viewBox="0 0 42 42" fill="none" xmlns="http://www.w3.org/2000/svg">
<g clip-path="url(#clip0_7267_35624)">
<ellipse cx="21" cy="21" rx="21" ry="21" fill="white"/>
<path d="M32.5342 14.0496H28.818C28.3886 14.0496 27.9766 13.8664 27.6874 13.5435L26.1799 11.8506C25.952 11.5975 25.6365 11.4491 25.2947 11.4491C24.9528 11.4491 24.6373 11.5975 24.4094 11.8506L23.1123 13.3079C22.6916 13.7791 22.078 14.0583 21.447 14.0583H1.10434C0.525876 15.6902 0.148998 17.4267 0 19.2331H19.2033C19.5451 19.2331 19.8606 19.0935 20.0972 18.8491L21.8852 16.9904C22.1043 16.7548 22.4199 16.6239 22.7354 16.6239H22.8055C23.1473 16.6239 23.4629 16.7722 23.6907 17.0253L25.1982 18.7182C25.4875 19.0411 25.8994 19.2244 26.3289 19.2244H42C41.851 17.4267 41.4741 15.6814 40.8957 14.0409L32.5342 14.0496Z" fill="black"/>
<path d="M11.6219 30.1236C11.9638 30.1236 12.2793 29.9839 12.5159 29.7396L14.3039 27.8809C14.5318 27.6453 14.8386 27.5144 15.1628 27.5144H15.233C15.5748 27.5144 15.8991 27.6627 16.1182 27.9071L17.6257 29.6C17.9149 29.9229 18.3269 30.1061 18.7563 30.1061H40.0017C40.7993 28.4655 41.3778 26.7115 41.7284 24.8703H21.3331C20.9037 24.8703 20.4917 24.687 20.2025 24.3641L18.695 22.6887C18.4671 22.4356 18.1516 22.296 17.8098 22.296C17.4679 22.296 17.1436 22.4443 16.9245 22.6887L15.6274 24.146C15.2067 24.6259 14.5931 24.8965 13.9533 24.8965H0.289307C0.639891 26.7377 1.21836 28.4917 2.01593 30.1323L11.6219 30.1236Z" fill="black"/>
<path d="M26.6881 8.38606C27.0299 8.38606 27.3454 8.24643 27.5821 8.0021L29.3701 6.14338C29.5892 5.90776 29.9047 5.77687 30.229 5.77687H30.2991C30.6409 5.77687 30.9564 5.92522 31.1843 6.17828L32.6918 7.87993C32.9811 8.2028 33.393 8.38606 33.8225 8.38606H37.863C34.0153 3.28985 27.8976 0 21.0086 0C14.1196 0 7.99317 3.28985 4.14551 8.38606H26.6881Z" fill="black"/>
<path d="M18.5805 35.3156H13.0588C12.6293 35.3156 12.2174 35.1323 11.9281 34.8095L10.4206 33.1165C10.1927 32.8635 9.8772 32.7239 9.53538 32.7239C9.19356 32.7239 8.86927 32.8722 8.65016 33.1165L7.35299 34.5739C6.93229 35.0538 6.31877 35.3243 5.67895 35.3243H5.59131C9.43897 39.4257 14.9168 42 21.0083 42C27.0997 42 32.5688 39.4257 36.4252 35.3243L18.5805 35.3156Z" fill="black"/>
</g>
<defs>
<clipPath id="clip0_7267_35624">
<rect width="42" height="42" rx="21" fill="white"/>
</clipPath>
</defs>
</svg>
