<svg width="42" height="42" fill="none" xmlns="http://www.w3.org/2000/svg">
  <g clip-path="url(#a)">
    <circle cx="21" cy="21" r="21" fill="#fff"/>
    <path fill="#000" d="M32.534 14.05h-3.716a1.52 1.52 0 0 1-1.13-.506L26.18 11.85a1.2 1.2 0 0 0-.885-.402 1.2 1.2 0 0 0-.886.402l-1.297 1.457a2.25 2.25 0 0 1-1.665.75H1.104A20.5 20.5 0 0 0 0 19.233h19.203c.342 0 .658-.14.894-.384l1.788-1.858a1.17 1.17 0 0 1 .85-.367h.07c.342 0 .658.148.886.401l1.507 1.693c.29.323.701.506 1.13.506H42a20.8 20.8 0 0 0-1.104-5.183zM11.622 30.123c.342 0 .657-.14.894-.384l1.788-1.858a1.2 1.2 0 0 1 .859-.367h.07c.342 0 .666.149.885.393l1.508 1.693c.289.323.7.506 1.13.506h21.246a21 21 0 0 0 1.726-5.236H21.333a1.52 1.52 0 0 1-1.13-.506l-1.508-1.675a1.196 1.196 0 0 0-1.77 0l-1.298 1.457c-.42.48-1.034.75-1.674.75H.29a21 21 0 0 0 1.727 5.236zM26.688 8.386c.342 0 .657-.14.894-.384l1.788-1.859a1.18 1.18 0 0 1 .859-.366h.07c.342 0 .657.148.885.401l1.508 1.702c.29.323.701.506 1.13.506h4.041A21.07 21.07 0 0 0 21.009 0 21.08 21.08 0 0 0 4.146 8.386zm-8.108 26.93h-5.52a1.52 1.52 0 0 1-1.13-.507l-1.508-1.692a1.196 1.196 0 0 0-1.77 0l-1.298 1.457c-.42.48-1.034.75-1.674.75h-.088A21.08 21.08 0 0 0 21.008 42c6.092 0 11.56-2.574 15.417-6.676z"/>
  </g>
  <defs>
    <clipPath id="a">
      <rect width="42" height="42" fill="#fff" rx="21"/>
    </clipPath>
  </defs>
</svg>
