<svg width="42" height="42" fill="none" viewBox="0 0 42 42" xmlns="http://www.w3.org/2000/svg">
  <g clip-path="url(#a)">
    <circle cx="21" cy="21" r="12.908" fill="#fff"/>
    <path fill="#000" fill-rule="evenodd" d="M21 42c11.598 0 21-9.402 21-21S32.598 0 21 0 0 9.402 0 21s9.402 21 21 21m6.177-30.512-2.977.004 3.236 9.943 2.406-1.752zm-12.338.012-.917 2.829 10.453-.008-.917-2.83zm6.771 15.046 2.41 1.748 6.967-5.068-.922-2.828zm-.598 3.938-6.975-5.063.922-2.829 8.459 6.14zm-7.318-15.45-2.657 8.196 2.41 1.748 3.224-9.943zm2.801 2.826.922-2.829h3.471l.922 2.825zm5.135-2.833 1.648 5.055 2.406-1.751-1.073-3.304zm2.398 8.886-2.41-1.744 4.302-3.132.921 2.829v.004zm-5.833.155 2.817 2.047 2.406-1.751-4.305-3.12zm-3-2.194 1.073-3.308h2.972l-1.635 5.055z" clip-rule="evenodd"/>
  </g>
  <defs>
    <clipPath id="a">
      <path fill="#fff" d="M0 0h42v42H0z"/>
    </clipPath>
  </defs>
</svg>
