<svg xmlns="http://www.w3.org/2000/svg" width="42" height="42" fill="none"><circle cx="21" cy="21" r="21" fill="#06061B"/><path fill="#fff" d="M18.183 24.924h-5.916l-1.089 3.246H8.446l5.197-14.566h3.267l5.197 14.566h-2.835l-1.089-3.246zm-.8-2.342-2.158-6.39-2.157 6.39h4.314zm10.215 5.526a6.421 6.421 0 0 1-1.931-.452 5.37 5.37 0 0 1-1.562-1.007 4.827 4.827 0 0 1-1.047-1.417 4.144 4.144 0 0 1-.411-1.746h2.527c.027.67.26 1.232.698 1.684.452.438 1.027.692 1.726.76v-4.067l-.966-.144c-1.109-.15-1.992-.568-2.65-1.253-.643-.685-.965-1.555-.965-2.61 0-.547.123-1.06.37-1.54a4.185 4.185 0 0 1 1.006-1.294 5.18 5.18 0 0 1 1.459-.925 5.939 5.939 0 0 1 1.746-.431v-1.91h1.5v1.951a5.725 5.725 0 0 1 1.705.493c.52.233.972.534 1.356.904.383.37.684.794.904 1.274.232.479.362.993.39 1.54h-2.527a1.937 1.937 0 0 0-.555-1.273 2.514 2.514 0 0 0-1.273-.76v3.76l.698.102c.52.082 1.014.226 1.48.431.465.206.869.473 1.211.801.356.33.63.726.822 1.192.206.452.308.966.308 1.54 0 .617-.116 1.179-.35 1.685a4.005 4.005 0 0 1-.944 1.315c-.397.37-.877.678-1.438.925a6.226 6.226 0 0 1-1.787.451v2.116h-1.5v-2.095zm1.5-2.198c.643-.11 1.143-.343 1.5-.699.355-.37.533-.835.533-1.397 0-.52-.17-.904-.513-1.15a2.74 2.74 0 0 0-1.171-.514l-.35-.061v3.82zm-1.5-10.087a2.9 2.9 0 0 0-1.48.637c-.396.328-.595.774-.595 1.335 0 .48.13.842.39 1.089.274.233.63.383 1.069.452l.616.103v-3.616z"/></svg>