<svg width="42" height="42" viewBox="0 0 42 42" fill="none" xmlns="http://www.w3.org/2000/svg">
<circle cx="21" cy="21" r="21" fill="#06061B"/>
<path d="M18.1833 24.9239H12.2668L11.178 28.1697H8.44574L13.6432 13.6044H16.9097L22.1072 28.1697H19.2722L18.1833 24.9239ZM17.3822 22.5819L15.2251 16.1929L13.068 22.5819H17.3822Z" fill="white"/>
<path d="M27.5979 28.1081C26.9131 28.0533 26.2694 27.9027 25.6668 27.6561C25.0642 27.3959 24.5437 27.0604 24.1055 26.6495C23.6672 26.2386 23.318 25.7661 23.0578 25.232C22.7976 24.6979 22.6606 24.1158 22.6469 23.4858H25.1737C25.2011 24.1569 25.434 24.7184 25.8722 25.1704C26.3242 25.6086 26.8994 25.862 27.5979 25.9305V21.8629L26.6323 21.7191C25.523 21.5684 24.6396 21.1507 23.9822 20.4659C23.3385 19.7811 23.0167 18.9115 23.0167 17.8569C23.0167 17.3091 23.1399 16.7955 23.3865 16.3161C23.633 15.8231 23.9685 15.3917 24.3931 15.0219C24.8177 14.6384 25.3039 14.3303 25.8517 14.0974C26.4132 13.8646 26.9953 13.7208 27.5979 13.666V11.7555H29.0976V13.7071C29.7139 13.7893 30.2822 13.9536 30.8027 14.2002C31.3231 14.433 31.7751 14.7343 32.1585 15.1041C32.542 15.4739 32.8433 15.8984 33.0624 16.3778C33.2953 16.8571 33.4254 17.3707 33.4528 17.9185H30.9259C30.8985 17.4255 30.7136 17.0009 30.3712 16.6448C30.0426 16.2751 29.618 16.0217 29.0976 15.8847V19.6442L29.796 19.7469C30.3165 19.8291 30.8095 19.9729 31.2752 20.1783C31.7408 20.3838 32.1448 20.6508 32.4872 20.9795C32.8433 21.3082 33.1172 21.7054 33.309 22.171C33.5144 22.623 33.6171 23.1366 33.6171 23.7118C33.6171 24.3281 33.5007 24.8896 33.2679 25.3964C33.0487 25.8894 32.7337 26.3277 32.3229 26.7111C31.9257 27.0809 31.4464 27.3891 30.8848 27.6356C30.337 27.8684 29.7412 28.0191 29.0976 28.0876V30.2035H27.5979V28.1081ZM29.0976 25.91C29.7412 25.8004 30.2411 25.5676 30.5972 25.2115C30.9533 24.8417 31.1314 24.376 31.1314 23.8145C31.1314 23.2941 30.9602 22.9106 30.6178 22.6641C30.2754 22.4039 29.8851 22.2327 29.4468 22.1505L29.0976 22.0889V25.91ZM27.5979 15.8231C27.0227 15.9053 26.5296 16.1176 26.1187 16.4599C25.7216 16.7886 25.523 17.2338 25.523 17.7953C25.523 18.2746 25.6531 18.6376 25.9133 18.8841C26.1872 19.1169 26.5433 19.2676 26.9816 19.336L27.5979 19.4388V15.8231Z" fill="white"/>
</svg>
