<svg width="42" height="42" fill="none" xmlns="http://www.w3.org/2000/svg">
  <circle cx="21" cy="21" r="21" fill="#06061B"/>
  <path fill="#fff" d="M18.183 24.924h-5.916l-1.089 3.246H8.446l5.197-14.566h3.267l5.197 14.566h-2.835zm-.8-2.342-2.158-6.39-2.157 6.39h4.314zm10.215 5.526a6.4 6.4 0 0 1-1.931-.452 5.4 5.4 0 0 1-1.562-1.007 4.8 4.8 0 0 1-1.047-1.417 4.1 4.1 0 0 1-.411-1.746h2.527q.04 1.005.698 1.684.678.657 1.726.76v-4.067l-.966-.144q-1.663-.225-2.65-1.253-.965-1.027-.965-2.61 0-.82.37-1.54a4.2 4.2 0 0 1 1.006-1.294 5.2 5.2 0 0 1 1.459-.925 6 6 0 0 1 1.746-.431v-1.91h1.5v1.951a5.7 5.7 0 0 1 1.705.493q.78.35 1.356.904.574.554.904 1.274.348.719.39 1.54h-2.527a1.94 1.94 0 0 0-.555-1.273 2.5 2.5 0 0 0-1.273-.76v3.76l.698.102q.78.123 1.48.431.698.309 1.211.801.534.494.822 1.192.309.679.308 1.54 0 .926-.35 1.685a4 4 0 0 1-.944 1.315q-.596.555-1.438.925a6.2 6.2 0 0 1-1.787.451v2.116h-1.5zm1.5-2.198q.965-.165 1.5-.699.533-.555.533-1.397 0-.78-.513-1.15a2.74 2.74 0 0 0-1.171-.514l-.35-.061v3.82zm-1.5-10.087a2.9 2.9 0 0 0-1.48.637q-.594.493-.595 1.335 0 .72.39 1.089.41.349 1.069.452l.616.103z"/>
</svg>
