<svg width="42" height="42" viewBox="0 0 42 42" fill="none" xmlns="http://www.w3.org/2000/svg">
<path d="M21 42C32.598 42 42 32.598 42 21C42 9.40202 32.598 0 21 0C9.40202 0 0 9.40202 0 21C0 32.598 9.40202 42 21 42Z" fill="url(#paint0_linear_8511_3021)"/>
<path d="M21 39.75C31.3553 39.75 39.75 31.3553 39.75 21C39.75 10.6447 31.3553 2.25 21 2.25C10.6447 2.25 2.25 10.6447 2.25 21C2.25 31.3553 10.6447 39.75 21 39.75Z" fill="white"/>
<path d="M21 37C29.8667 37 37 29.8667 37 21C37 12.1333 29.8667 5 21 5C12.1333 5 5 12.1333 5 21C5 29.8667 12.1333 37 21 37Z" fill="#2775CA"/>
<path d="M25.4 23.5333C25.4 21.2 24 20.4 21.2 20.0667C19.2 19.8 18.8 19.2667 18.8 18.3333C18.8 17.3998 19.4667 16.8 20.8 16.8C22 16.8 22.6667 17.2 23 18.2C23.0667 18.4 23.2667 18.5333 23.4667 18.5333H24.5333C24.8 18.5333 25 18.3333 25 18.0667V18C24.7333 16.5333 23.5333 15.4 22 15.2667V13.6667C22 13.4 21.8 13.2 21.4667 13.1333H20.4667C20.2 13.1333 20 13.3333 19.9333 13.6667V15.2C17.9333 15.4667 16.6667 16.8 16.6667 18.4667C16.6667 20.6667 18 21.5333 20.8 21.8667C22.6667 22.2 23.2667 22.6 23.2667 23.6667C23.2667 24.7334 22.3333 25.4667 21.0667 25.4667C19.3333 25.4667 18.7333 24.7333 18.5333 23.7333C18.4667 23.4667 18.2667 23.3333 18.0667 23.3333H16.9333C16.6667 23.3333 16.4667 23.5333 16.4667 23.8V23.8667C16.7333 25.5333 17.8 26.7333 20 27.0667V28.6667C20 28.9333 20.2 29.1333 20.5333 29.2H21.5333C21.8 29.2 22 29 22.0667 28.6667V27.0667C24.0667 26.7333 25.4 25.3333 25.4 23.5333V23.5333Z" fill="white"/>
<path d="M17.6 30.5333C12.4 28.6667 9.73327 22.8667 11.6667 17.7333C12.6667 14.9333 14.8667 12.8 17.6 11.8C17.8667 11.6667 18 11.4667 18 11.1333V10.2C18 9.93328 17.8667 9.73328 17.6 9.66672C17.5333 9.66672 17.4 9.66672 17.3333 9.73328C11 11.7333 7.53327 18.4667 9.53327 24.8C10.7333 28.5333 13.6 31.4 17.3333 32.6C17.6 32.7333 17.8667 32.6 17.9333 32.3333C18 32.2667 18 32.2 18 32.0667V31.1333C18 30.9333 17.8 30.6667 17.6 30.5333ZM24.6667 9.73328C24.4 9.6 24.1333 9.73328 24.0667 10C24 10.0667 24 10.1333 24 10.2667V11.2C24 11.4667 24.2 11.7333 24.4 11.8667C29.6 13.7333 32.2667 19.5333 30.3333 24.6667C29.3333 27.4667 27.1333 29.6 24.4 30.6C24.1333 30.7333 24 30.9333 24 31.2667V32.2C24 32.4667 24.1333 32.6667 24.4 32.7333C24.4667 32.7333 24.6 32.7333 24.6667 32.6667C31 30.6667 34.4667 23.9333 32.4667 17.6C31.2667 13.8 28.3333 10.9333 24.6667 9.73328V9.73328Z" fill="white"/>
<defs>
<linearGradient id="paint0_linear_8511_3021" x1="38.094" y1="9.534" x2="6.846" y2="35.826" gradientUnits="userSpaceOnUse">
<stop stop-color="#B6509E"/>
<stop offset="1" stop-color="#2EBAC6"/>
</linearGradient>
</defs>
</svg>
