<svg xmlns="http://www.w3.org/2000/svg" width="42" height="42" fill="none"><g clip-path="url(#a)"><path fill="#fff" d="M33.952 7.205H8.02v23.569h25.932V7.204z"/><path fill="#E84142" fill-rule="evenodd" d="M41.986 21c0 11.583-9.396 20.972-20.986 20.972S.014 32.582.014 21C.014 9.417 9.41.028 21 .028S41.986 9.418 41.986 21zm-26.933 8.346H10.98c-.856 0-1.278 0-1.536-.165a1.034 1.034 0 0 1-.47-.809c-.015-.304.197-.675.62-1.417L19.65 9.241c.428-.752.644-1.128.918-1.267.293-.15.644-.15.938 0 .273.14.49.515.917 1.267l2.068 3.607.01.018c.462.807.697 1.216.8 1.646.113.469.113.963 0 1.432-.104.433-.336.845-.805 1.664l-5.282 9.332-.014.024c-.465.813-.701 1.226-1.028 1.537-.355.34-.783.587-1.253.726-.428.119-.907.119-1.866.119zm10.285 0h5.836c.861 0 1.294 0 1.552-.17.279-.18.454-.485.47-.814.014-.294-.193-.65-.598-1.35l-.042-.072-2.923-4.998-.034-.056c-.41-.694-.618-1.045-.884-1.18-.294-.15-.64-.15-.933 0-.268.139-.485.505-.913 1.242l-2.912 4.997-.01.017c-.427.736-.64 1.103-.624 1.405.02.33.19.634.469.814.252.165.685.165 1.546.165z" clip-rule="evenodd"/></g><defs><clipPath id="a"><path fill="#fff" d="M0 0h42v42H0z"/></clipPath></defs></svg>