<svg width="42" height="42" fill="none" viewBox="0 0 42 42" xmlns="http://www.w3.org/2000/svg">
  <circle cx="21" cy="21" r="21" fill="#fff"/>
  <g fill="#000" clip-path="url(#a)">
    <path d="m31.766 10.839 3.2 3.125-6.927 6.879 6.944 7.096-3.302 3.358c-.462-.5-.904-1.005-1.377-1.481a2750 2750 0 0 0-7.009-7.035c-.471-.473-.758-1.022-.782-1.697-.024-.709.27-1.283.758-1.773l8.129-8.15c.102-.101.218-.192.366-.322M27.922 7l3.248 3.214c-.074.085-.135.163-.205.232q-4.089 4.098-8.177 8.198c-.65.652-1.408 1.03-2.33.78a2.55 2.55 0 0 1-1.09-.608c-2.804-2.78-5.585-5.584-8.37-8.383-.062-.061-.111-.135-.176-.215l3.237-3.205c.196.185.41.38.614.586 1.987 1.996 3.97 3.995 5.958 5.989.344.345.351.335.704-.017 2.14-2.146 4.276-4.29 6.417-6.434.053-.054.118-.096.168-.135zM10.168 31.251c-1.049-1.098-2.088-2.184-3.154-3.303 2.28-2.253 4.603-4.553 6.917-6.842-.48-.502-.872-.929-1.283-1.339-1.793-1.791-3.592-3.58-5.388-5.369-.342-.34-.344-.345-.019-.675q1.276-1.294 2.56-2.582c.117-.117.248-.219.378-.332l2.114 2.109q3.073 3.067 6.144 6.135c.19.19.375.388.54.601.635.827.654 1.842.036 2.684-.177.243-.39.463-.602.679a8392 8392 0 0 1-8.1 8.132c-.021.023-.053.037-.143.099zm.583.537c2.8-2.784 5.55-5.523 8.308-8.252.275-.272.575-.55.915-.727.887-.463 1.832-.315 2.568.393 1.154 1.113 2.285 2.252 3.424 3.381 1.726 1.716 3.45 3.434 5.204 5.18-.148.17-.265.314-.394.446-.876.884-1.764 1.758-2.63 2.652-.199.204-.31.169-.485-.01q-3.23-3.267-6.463-6.53c-.061-.06-.13-.117-.205-.185-.92.905-1.838 1.793-2.742 2.695-1.35 1.348-2.686 2.707-4.036 4.054-.06.061-.25.096-.293.054-1.056-1.035-2.099-2.083-3.173-3.157z"/>
  </g>
  <defs>
    <clipPath id="a">
      <path fill="#fff" d="M7 7h28v28H7z"/>
    </clipPath>
  </defs>
</svg>
