<svg xmlns="http://www.w3.org/2000/svg" width="42" height="42" fill="none"><g fill-rule="evenodd" clip-path="url(#a)" clip-rule="evenodd"><path fill="#0055D5" d="M21 0c11.596 0 21 9.404 21 21s-9.404 21-21 21S0 32.596 0 21 9.404 0 21 0z"/><path fill="#fff" d="M11.424 13.894s-2.26-1.806-2.415 2.654c-.155 3.457-.151 10.168 1.449 13.34.676 1.192 1.58.827 3.26-.362 1.46-1.08 6.749-5.951 8.987-8.09 2.239-2.137 6.779-8.269 7.724-4.102.374 1.75.836 3.238.483 7.123-.11 1.197-.622 2.104-2.957.483-1.764-1.134-3.44-2.352-3.44-2.352s-.323-.58-1.087.36c-.601.753-.903.938.058 1.509.966.57 5.851 3.94 7.724 4.464 1.546.45 2.428.441 2.474-2.595-.008-2.411-.147-9.312-1.025-12.252-.663-1.83-1.638-2.662-3.742-.604-2.104 2.057-8.74 8.492-12.369 11.407-2.407 1.806-3.436 3.435-4.343.424-.638-2.28-1.466-9.379 1.147-8.026 1.634.78 2.448.777 1.81 1.268-.638.487-2.474 2.172-2.474 2.172s-.567.457-.302 1.448c.264.694.264 1.038 1.688-.302s2.474-2.352 2.474-2.352.227-.357.903.302c.676.66.785.845.785.845s.181.491.903-.361c.727-.853 1.193-1.374-.18-2.172-1.37-.806-7.535-4.23-7.535-4.23z"/></g><defs><clipPath id="a"><path fill="#fff" d="M0 0h42v42H0z"/></clipPath></defs></svg>