<svg width="42" height="42" viewBox="0 0 42 42" fill="none" xmlns="http://www.w3.org/2000/svg">
<g clip-path="url(#clip0_7277_57288)">
<path fill-rule="evenodd" clip-rule="evenodd" d="M21 0C32.5962 0 42 9.4038 42 21C42 32.5962 32.5962 42 21 42C9.4038 42 0 32.5962 0 21C0 9.4038 9.4038 0 21 0Z" fill="#0055D5"/>
<path fill-rule="evenodd" clip-rule="evenodd" d="M11.424 13.8937C11.424 13.8937 9.16439 12.0877 9.00899 16.5481C8.85359 20.0047 8.85779 26.7163 10.458 29.8873C11.1342 31.0801 12.0372 30.7147 13.7172 29.5261C15.1788 28.4467 20.4666 23.5747 22.7052 21.4369C24.9438 19.2991 29.484 13.1671 30.429 17.3335C30.8028 19.0849 31.2648 20.5717 30.912 24.4567C30.8028 25.6537 30.2904 26.5609 27.9552 24.9397C26.1912 23.8057 24.5154 22.5877 24.5154 22.5877C24.5154 22.5877 24.192 22.0081 23.4276 22.9489C22.827 23.7007 22.5246 23.8855 23.4864 24.4567C24.4524 25.0279 29.337 28.3963 31.2102 28.9213C32.7558 29.3707 33.6378 29.3623 33.684 26.3257C33.6756 23.9149 33.537 17.0143 32.6592 14.0743C31.9956 12.2431 31.0212 11.4115 28.917 13.4695C26.8128 15.5275 20.1768 21.9619 16.548 24.8767C14.1414 26.6827 13.1124 28.3123 12.2052 25.3009C11.5668 23.0203 10.7394 15.9223 13.3518 17.2747C14.9856 18.0559 15.8004 18.0517 15.162 18.5431C14.5236 19.0303 12.6882 20.7145 12.6882 20.7145C12.6882 20.7145 12.1212 21.1723 12.3858 22.1635C12.6504 22.8565 12.6504 23.2009 14.0742 21.8611C15.498 20.5213 16.548 19.5091 16.548 19.5091C16.548 19.5091 16.7748 19.1521 17.451 19.8115C18.1272 20.4709 18.2364 20.6557 18.2364 20.6557C18.2364 20.6557 18.417 21.1471 19.1394 20.2945C19.866 19.4419 20.3322 18.9211 18.9588 18.1231C17.5896 17.3167 11.424 13.8937 11.424 13.8937Z" fill="white"/>
</g>
<defs>
<clipPath id="clip0_7277_57288">
<rect width="42" height="42" fill="white"/>
</clipPath>
</defs>
</svg>
