<svg xmlns="http://www.w3.org/2000/svg" width="42" height="42" fill="none"><circle cx="21" cy="21" r="21" fill="#000"/><g clip-path="url(#a)"><path fill="#1E1E1E" fill-rule="evenodd" d="M21 0c11.596 0 21 9.404 21 21s-9.404 21-21 21S0 32.596 0 21 9.404 0 21 0z" clip-rule="evenodd"/><path fill="#fff" d="M21.315 29.778c-6.716 0-12.159-1.94-12.159-4.54 0-1.357 1.483-2.579 3.856-3.44 1.852 1.189 4.96 1.798 8.484 1.798 3.44 0 6.48-.744 8.35-1.882 2.238.853 3.628 2.041 3.628 3.352 0 2.604-5.443 4.712-12.159 4.712z"/><path fill="#fff" d="M21.387 23.012c-5.09 0-9.22-1.596-9.22-3.566 0-1.092 1.273-2.07 3.268-2.722 1.424.744 3.557 1.218 5.952 1.218 2.393 0 4.527-.474 5.95-1.218 2 .656 3.268 1.63 3.268 2.722.005 1.97-4.124 3.566-9.218 3.566z"/><path fill="#fff" d="M21.353 17.35c-3.936 0-7.128-1.319-7.128-2.94s3.192-2.94 7.128-2.94c3.935 0 7.127 1.319 7.127 2.94s-3.192 2.94-7.127 2.94z"/></g><defs><clipPath id="a"><path fill="#fff" d="M0 0h42v42H0z"/></clipPath></defs></svg>