<svg xmlns="http://www.w3.org/2000/svg" width="42" height="42" fill="none"><g clip-path="url(#a)"><path fill="#8DC351" d="M21 42c11.598 0 21-9.402 21-21S32.598 0 21 0 0 9.402 0 21s9.402 21 21 21z"/><path fill="#fff" d="M27.834 13.826c-1.019-2.588-3.573-2.822-6.547-2.245l-1.06-3.692-2.246.645 1.031 3.596c-.59.168-1.191.354-1.789.538l-1.037-3.62-2.245.643 1.056 3.692c-.483.15-.958.297-1.424.431l-.004-.013-3.1.889.69 2.401s1.65-.509 1.63-.47c.912-.26 1.36.183 1.576.615l1.207 4.205c.062-.017.145-.038.242-.052l-.238.068 1.69 5.893c.041.298.005.803-.63.987.035.017-1.636.467-1.636.467l.324 2.813 2.925-.84c.544-.154 1.082-.298 1.609-.447l1.072 3.735 2.244-.643-1.059-3.695c.602-.16 1.202-.326 1.8-.499l1.053 3.679 2.249-.644-1.069-3.728c3.716-1.3 6.088-3.01 5.399-6.654-.554-2.933-2.263-3.822-4.556-3.723 1.113-1.037 1.592-2.438.843-4.33v-.002zm-.854 8.886c.801 2.791-4.068 3.844-5.59 4.282l-1.42-4.948c1.523-.437 6.175-2.244 7.01.667v-.002zm-3.047-6.681c.727 2.54-3.343 3.386-4.612 3.75l-1.287-4.488c1.268-.363 5.139-1.91 5.899.74v-.002z"/></g><defs><clipPath id="a"><path fill="#fff" d="M0 0h42v42H0z"/></clipPath></defs></svg>