<svg width="42" height="42" viewBox="0 0 42 42" fill="none" xmlns="http://www.w3.org/2000/svg">
<g clip-path="url(#clip0_1097_26633)">
<path d="M21 42C32.598 42 42 32.598 42 21C42 9.40202 32.598 0 21 0C9.40202 0 0 9.40202 0 21C0 32.598 9.40202 42 21 42Z" fill="#8DC351"/>
<path d="M27.8337 13.826C26.8152 11.2377 24.261 11.0041 21.2869 11.5816L20.2277 7.88953L17.9807 8.53396L19.0124 12.1302C18.4217 12.2982 17.8206 12.4846 17.2234 12.6683L16.1865 9.04846L13.9409 9.69159L14.9974 13.3837C14.5144 13.5333 14.0393 13.6803 13.5734 13.8142L13.5694 13.801L10.4693 14.6896L11.1584 17.0915C11.1584 17.0915 12.8095 16.5822 12.7898 16.6216C13.7007 16.3604 14.1482 16.804 14.3648 17.2358L15.5723 21.4411C15.634 21.424 15.7167 21.403 15.8138 21.3886L15.5762 21.4568L17.2654 27.35C17.3074 27.6479 17.2707 28.1532 16.6354 28.337C16.6709 28.354 15 28.8042 15 28.8042L15.3242 31.6169L18.2485 30.7769C18.7932 30.6233 19.3313 30.479 19.8576 30.3307L20.9299 34.0647L23.1743 33.4216L22.1151 29.7269C22.7171 29.5672 23.3174 29.4009 23.9159 29.2282L24.9685 32.9071L27.2168 32.2627L26.1484 28.5352C29.8641 27.2345 32.2358 25.5243 31.5467 21.8808C30.9929 18.9487 29.284 18.0588 26.991 18.1585C28.104 17.1217 28.5831 15.7199 27.8337 13.8273V13.826ZM26.9805 22.7116C27.7812 25.5033 22.9118 26.5559 21.3893 26.9943L19.9705 22.0462C21.493 21.6091 26.1445 19.8018 26.9792 22.7129L26.9805 22.7116ZM23.9329 16.031C24.66 18.5707 20.59 19.4172 19.3208 19.7808L18.0345 15.2933C19.3024 14.9298 23.173 13.3837 23.9329 16.0323V16.031Z" fill="white"/>
</g>
<defs>
<clipPath id="clip0_1097_26633">
<rect width="42" height="42" fill="white"/>
</clipPath>
</defs>
</svg>
