<svg width="42" height="42" viewBox="0 0 42 42" fill="none" xmlns="http://www.w3.org/2000/svg">
<g clip-path="url(#clip0_7277_55475)">
<circle cx="21" cy="21" r="21" fill="#0D0808"/>
<g filter="url(#filter0_f_7277_55475)">
<g filter="url(#filter1_f_7277_55475)">
<path d="M18.806 13.8757L18.5322 14.2079L18.82 14.528L19.7439 15.5559V17.4236L17.6813 19.3876H9.07703V9H17.7056L19.7439 10.9943V12.738L18.806 13.8757ZM16.4098 18.3551H16.5189L16.6181 18.3097C17.2778 18.0073 17.7011 17.3441 17.7115 16.6184L17.7115 16.6182C17.7219 15.8737 17.2954 15.1834 16.6179 14.8732L16.5188 14.8278H16.4098H11.558H11.058V15.3278V17.8551V18.3551H11.558H16.4098ZM16.4098 13.6321H16.5189L16.6181 13.5867C17.2778 13.2843 17.7011 12.6211 17.7115 11.8954L17.7115 11.8952C17.7219 11.1507 17.2954 10.4604 16.6179 10.1502L16.5188 10.1048H16.4098H11.558H11.058V10.6048V13.1321V13.6321H11.558H16.4098Z" stroke="#A01400"/>
</g>
<g filter="url(#filter2_f_7277_55475)">
<path d="M22.3688 17.3758V9H24.4166V16.5019V16.7089L24.5629 16.8553L25.7753 18.0684L25.9218 18.215H26.129H33.0182V19.3876H24.3829L22.3688 17.3758Z" stroke="#A01400"/>
</g>
<g filter="url(#filter3_f_7277_55475)">
<path d="M9.0729 21.4841H11.093V29.0825V29.2977L11.2493 29.4457L12.4736 30.6043L12.6182 30.7412H12.8173H15.8871H16.0859L16.2304 30.6047L17.4264 29.4753L17.5831 29.3273V29.1118V21.4841H19.744V30.0323L17.7516 32H11.0394L9.00173 29.9351L9.0729 21.4841Z" stroke="#A01400"/>
</g>
<g filter="url(#filter4_f_7277_55475)">
<path d="M24.3438 27.777V32H22.369V21.4841H31.0061L33.0184 23.3807V25.3725L32.0298 26.3951L31.695 26.7414L32.0286 27.0889L33.0184 28.1199V32H30.9767L30.946 28.3888L30.9437 28.1284L30.729 27.9809L29.9067 27.4162L29.7812 27.33L29.629 27.3284L24.8492 27.2771L24.3438 27.2716V27.777ZM29.7691 26.1029H29.8782L29.9774 26.0575C30.6371 25.7551 31.0604 25.0919 31.0708 24.3662L31.0708 24.366C31.0812 23.6215 30.6547 22.9311 29.9772 22.621L29.8781 22.5756H29.7691H24.9173H24.4173V23.0756V25.6029V26.1029H24.9173H29.7691Z" stroke="#A01400"/>
</g>
</g>
<g filter="url(#filter5_f_7277_55475)">
<g filter="url(#filter6_f_7277_55475)">
<path d="M18.806 13.8757L18.5322 14.2079L18.82 14.528L19.7439 15.5559V17.4236L17.6813 19.3876H9.07703V9H17.7056L19.7439 10.9943V12.738L18.806 13.8757ZM16.4098 18.3551H16.5189L16.6181 18.3097C17.2778 18.0073 17.7011 17.3441 17.7115 16.6184L17.7115 16.6182C17.7219 15.8737 17.2954 15.1834 16.6179 14.8732L16.5188 14.8278H16.4098H11.558H11.058V15.3278V17.8551V18.3551H11.558H16.4098ZM16.4098 13.6321H16.5189L16.6181 13.5867C17.2778 13.2843 17.7011 12.6211 17.7115 11.8954L17.7115 11.8952C17.7219 11.1507 17.2954 10.4604 16.6179 10.1502L16.5188 10.1048H16.4098H11.558H11.058V10.6048V13.1321V13.6321H11.558H16.4098Z" stroke="#A01400"/>
</g>
<g filter="url(#filter7_f_7277_55475)">
<path d="M22.3688 17.3758V9H24.4166V16.5019V16.7089L24.5629 16.8553L25.7753 18.0684L25.9218 18.215H26.129H33.0182V19.3876H24.3829L22.3688 17.3758Z" stroke="#A01400"/>
</g>
<g filter="url(#filter8_f_7277_55475)">
<path d="M9.0729 21.4841H11.093V29.0825V29.2977L11.2493 29.4457L12.4736 30.6043L12.6182 30.7412H12.8173H15.8871H16.0859L16.2304 30.6047L17.4264 29.4753L17.5831 29.3273V29.1118V21.4841H19.744V30.0323L17.7516 32H11.0394L9.00173 29.9351L9.0729 21.4841Z" stroke="#A01400"/>
</g>
<g filter="url(#filter9_f_7277_55475)">
<path d="M24.3438 27.777V32H22.369V21.4841H31.0061L33.0184 23.3807V25.3725L32.0298 26.3951L31.695 26.7414L32.0286 27.0889L33.0184 28.1199V32H30.9767L30.946 28.3888L30.9437 28.1284L30.729 27.9809L29.9067 27.4162L29.7812 27.33L29.629 27.3284L24.8492 27.2771L24.3438 27.2716V27.777ZM29.7691 26.1029H29.8782L29.9774 26.0575C30.6371 25.7551 31.0604 25.0919 31.0708 24.3662L31.0708 24.366C31.0812 23.6215 30.6547 22.9311 29.9772 22.621L29.8781 22.5756H29.7691H24.9173H24.4173V23.0756V25.6029V26.1029H24.9173H29.7691Z" stroke="#A01400"/>
</g>
</g>
<mask id="mask0_7277_55475" style="mask-type:luminance" maskUnits="userSpaceOnUse" x="8" y="8" width="13" height="12">
<path d="M20.2439 10.8072L17.9095 8.52563H8.57703V19.901H17.8812L20.2439 17.6538V15.3826L19.1918 14.2133L20.2439 12.9385V10.8072ZM16.4098 17.8708H11.558V15.3461H16.4098C16.9032 15.5718 17.2193 16.0779 17.2116 16.6282C17.2038 17.1646 16.8903 17.6508 16.4098 17.8708ZM16.4098 13.1528H11.558V10.6282H16.4098C16.9032 10.8538 17.2193 11.36 17.2116 11.9103C17.2038 12.4467 16.8903 12.9328 16.4098 13.1528Z" fill="white"/>
</mask>
<g mask="url(#mask0_7277_55475)">
<path d="M34.1208 8.5H7.31775V9.37179H34.1208V8.5Z" fill="#FF8300"/>
<path d="M34.1208 9.67944H7.31775V10.5512H34.1208V9.67944Z" fill="#FF8300"/>
<path d="M34.1208 10.8589H7.31775V11.7307H34.1208V10.8589Z" fill="#FF8300"/>
<path d="M34.1208 12.0386H7.31775V12.9104H34.1208V12.0386Z" fill="#FF8300"/>
<path d="M34.1208 13.218H7.31775V14.0898H34.1208V13.218Z" fill="#FF8300"/>
<path d="M34.1208 14.3975H7.31775V15.2693H34.1208V14.3975Z" fill="#FF8300"/>
<path d="M34.1208 15.5769H7.31775V16.4487H34.1208V15.5769Z" fill="#FF8300"/>
<path d="M34.1208 16.7563H7.31775V17.6281H34.1208V16.7563Z" fill="#FF8300"/>
<path d="M34.1208 17.9358H7.31775V18.8076H34.1208V17.9358Z" fill="#FF8300"/>
<path d="M34.1208 19.1155H7.31775V19.9873H34.1208V19.1155Z" fill="#FF8300"/>
</g>
<mask id="mask1_7277_55475" style="mask-type:luminance" maskUnits="userSpaceOnUse" x="21" y="8" width="13" height="12">
<path d="M21.8688 8.52563H24.9166V16.519L26.129 17.7308H33.5182V19.901H24.1759L21.8688 17.599V8.52563Z" fill="white"/>
</mask>
<g mask="url(#mask1_7277_55475)">
<path d="M34.121 8.5H7.31799V9.37179H34.121V8.5Z" fill="#FF8300"/>
<path d="M34.121 9.67944H7.31799V10.5512H34.121V9.67944Z" fill="#FF8300"/>
<path d="M34.121 10.8589H7.31799V11.7307H34.121V10.8589Z" fill="#FF8300"/>
<path d="M34.121 12.0386H7.31799V12.9104H34.121V12.0386Z" fill="#FF8300"/>
<path d="M34.121 13.218H7.31799V14.0898H34.121V13.218Z" fill="#FF8300"/>
<path d="M34.121 14.3975H7.31799V15.2693H34.121V14.3975Z" fill="#FF8300"/>
<path d="M34.121 15.5769H7.31799V16.4487H34.121V15.5769Z" fill="#FF8300"/>
<path d="M34.121 16.7563H7.31799V17.6281H34.121V16.7563Z" fill="#FF8300"/>
<path d="M34.121 17.9358H7.31799V18.8076H34.121V17.9358Z" fill="#FF8300"/>
<path d="M34.121 19.1155H7.31799V19.9873H34.121V19.1155Z" fill="#FF8300"/>
</g>
<mask id="mask2_7277_55475" style="mask-type:luminance" maskUnits="userSpaceOnUse" x="8" y="20" width="13" height="13">
<path d="M8.57709 20.9963H11.593V29.0861L12.8173 30.2435H15.8871L17.0831 29.1153V20.9963H20.244V30.2435L17.9569 32.4999H10.8303L8.5 30.141L8.57709 20.9963Z" fill="white"/>
</mask>
<g mask="url(#mask2_7277_55475)">
<path d="M34.0207 20.9871H7.21765V21.8589H34.0207V20.9871Z" fill="#FF8300"/>
<path d="M34.0205 22.1665H7.21753V23.0383H34.0205V22.1665Z" fill="#FF8300"/>
<path d="M34.0205 23.3459H7.21753V24.2177H34.0205V23.3459Z" fill="#FF8300"/>
<path d="M34.0205 24.5256H7.21753V25.3974H34.0205V24.5256Z" fill="#FF8300"/>
<path d="M34.0205 25.7051H7.21753V26.5769H34.0205V25.7051Z" fill="#FF8300"/>
<path d="M34.0205 26.8845H7.21753V27.7563H34.0205V26.8845Z" fill="#FF8300"/>
<path d="M34.0205 28.064H7.21753V28.9358H34.0205V28.064Z" fill="#FF8300"/>
<path d="M34.0205 29.2434H7.21753V30.1152H34.0205V29.2434Z" fill="#FF8300"/>
<path d="M34.0205 30.4229H7.21753V31.2946H34.0205V30.4229Z" fill="#FF8300"/>
<path d="M34.0205 31.6025H7.21753V32.4743H34.0205V31.6025Z" fill="#FF8300"/>
</g>
<mask id="mask3_7277_55475" style="mask-type:luminance" maskUnits="userSpaceOnUse" x="21" y="20" width="13" height="13">
<path d="M33.5179 23.1743L31.2046 20.9963H21.869V32.4999H24.8438V27.782L29.6236 27.8333L30.446 28.3974L30.4809 32.4999H33.5184V27.9235L32.3893 26.7486L33.5184 25.582V23.1748L33.5179 23.1743ZM29.7691 25.6102H24.9173V23.0856H29.7691C30.2625 23.3112 30.5786 23.8174 30.5709 24.3676C30.5632 24.904 30.2496 25.3902 29.7691 25.6102Z" fill="white"/>
</mask>
<g mask="url(#mask3_7277_55475)">
<path d="M34.0205 20.9871H7.21753V21.8589H34.0205V20.9871Z" fill="#FF8300"/>
<path d="M34.0204 22.1665H7.21741V23.0383H34.0204V22.1665Z" fill="#FF8300"/>
<path d="M34.0204 23.3459H7.21741V24.2177H34.0204V23.3459Z" fill="#FF8300"/>
<path d="M34.0204 24.5256H7.21741V25.3974H34.0204V24.5256Z" fill="#FF8300"/>
<path d="M34.0204 25.7051H7.21741V26.5769H34.0204V25.7051Z" fill="#FF8300"/>
<path d="M34.0204 26.8845H7.21741V27.7563H34.0204V26.8845Z" fill="#FF8300"/>
<path d="M34.0204 28.064H7.21741V28.9358H34.0204V28.064Z" fill="#FF8300"/>
<path d="M34.0204 29.2434H7.21741V30.1152H34.0204V29.2434Z" fill="#FF8300"/>
<path d="M34.0204 30.4229H7.21741V31.2946H34.0204V30.4229Z" fill="#FF8300"/>
<path d="M34.0204 31.6025H7.21741V32.4743H34.0204V31.6025Z" fill="#FF8300"/>
</g>
</g>
<defs>
<filter id="filter0_f_7277_55475" x="7.5" y="7.5" width="27.0184" height="26" filterUnits="userSpaceOnUse" color-interpolation-filters="sRGB">
<feFlood flood-opacity="0" result="BackgroundImageFix"/>
<feBlend mode="normal" in="SourceGraphic" in2="BackgroundImageFix" result="shape"/>
<feGaussianBlur stdDeviation="0.5" result="effect1_foregroundBlur_7277_55475"/>
</filter>
<filter id="filter1_f_7277_55475" x="7.57703" y="7.5" width="13.6669" height="13.3875" filterUnits="userSpaceOnUse" color-interpolation-filters="sRGB">
<feFlood flood-opacity="0" result="BackgroundImageFix"/>
<feBlend mode="normal" in="SourceGraphic" in2="BackgroundImageFix" result="shape"/>
<feGaussianBlur stdDeviation="0.5" result="effect1_foregroundBlur_7277_55475"/>
</filter>
<filter id="filter2_f_7277_55475" x="20.8688" y="7.5" width="13.6494" height="13.3875" filterUnits="userSpaceOnUse" color-interpolation-filters="sRGB">
<feFlood flood-opacity="0" result="BackgroundImageFix"/>
<feBlend mode="normal" in="SourceGraphic" in2="BackgroundImageFix" result="shape"/>
<feGaussianBlur stdDeviation="0.5" result="effect1_foregroundBlur_7277_55475"/>
</filter>
<filter id="filter3_f_7277_55475" x="7.5" y="19.9841" width="13.744" height="13.5159" filterUnits="userSpaceOnUse" color-interpolation-filters="sRGB">
<feFlood flood-opacity="0" result="BackgroundImageFix"/>
<feBlend mode="normal" in="SourceGraphic" in2="BackgroundImageFix" result="shape"/>
<feGaussianBlur stdDeviation="0.5" result="effect1_foregroundBlur_7277_55475"/>
</filter>
<filter id="filter4_f_7277_55475" x="20.869" y="19.9841" width="13.6494" height="13.5159" filterUnits="userSpaceOnUse" color-interpolation-filters="sRGB">
<feFlood flood-opacity="0" result="BackgroundImageFix"/>
<feBlend mode="normal" in="SourceGraphic" in2="BackgroundImageFix" result="shape"/>
<feGaussianBlur stdDeviation="0.5" result="effect1_foregroundBlur_7277_55475"/>
</filter>
<filter id="filter5_f_7277_55475" x="7.5" y="7.5" width="27.0184" height="26" filterUnits="userSpaceOnUse" color-interpolation-filters="sRGB">
<feFlood flood-opacity="0" result="BackgroundImageFix"/>
<feBlend mode="normal" in="SourceGraphic" in2="BackgroundImageFix" result="shape"/>
<feGaussianBlur stdDeviation="0.5" result="effect1_foregroundBlur_7277_55475"/>
</filter>
<filter id="filter6_f_7277_55475" x="7.57703" y="7.5" width="13.6669" height="13.3875" filterUnits="userSpaceOnUse" color-interpolation-filters="sRGB">
<feFlood flood-opacity="0" result="BackgroundImageFix"/>
<feBlend mode="normal" in="SourceGraphic" in2="BackgroundImageFix" result="shape"/>
<feGaussianBlur stdDeviation="0.5" result="effect1_foregroundBlur_7277_55475"/>
</filter>
<filter id="filter7_f_7277_55475" x="20.8688" y="7.5" width="13.6494" height="13.3875" filterUnits="userSpaceOnUse" color-interpolation-filters="sRGB">
<feFlood flood-opacity="0" result="BackgroundImageFix"/>
<feBlend mode="normal" in="SourceGraphic" in2="BackgroundImageFix" result="shape"/>
<feGaussianBlur stdDeviation="0.5" result="effect1_foregroundBlur_7277_55475"/>
</filter>
<filter id="filter8_f_7277_55475" x="7.5" y="19.9841" width="13.744" height="13.5159" filterUnits="userSpaceOnUse" color-interpolation-filters="sRGB">
<feFlood flood-opacity="0" result="BackgroundImageFix"/>
<feBlend mode="normal" in="SourceGraphic" in2="BackgroundImageFix" result="shape"/>
<feGaussianBlur stdDeviation="0.5" result="effect1_foregroundBlur_7277_55475"/>
</filter>
<filter id="filter9_f_7277_55475" x="20.869" y="19.9841" width="13.6494" height="13.5159" filterUnits="userSpaceOnUse" color-interpolation-filters="sRGB">
<feFlood flood-opacity="0" result="BackgroundImageFix"/>
<feBlend mode="normal" in="SourceGraphic" in2="BackgroundImageFix" result="shape"/>
<feGaussianBlur stdDeviation="0.5" result="effect1_foregroundBlur_7277_55475"/>
</filter>
<clipPath id="clip0_7277_55475">
<rect width="42" height="42" rx="21" fill="white"/>
</clipPath>
</defs>
</svg>
