<svg width="42" height="42" viewBox="0 0 42 42" fill="none" xmlns="http://www.w3.org/2000/svg">
<g clip-path="url(#clip0_7202_35464)">
<circle cx="21" cy="21" r="21" fill="#0D0808"/>
<g filter="url(#filter0_f_7202_35464)">
<g filter="url(#filter1_f_7202_35464)">
<path d="M18.8062 13.8757L18.5323 14.2079L18.8201 14.528L19.744 15.5559V17.4236L17.6814 19.3876H9.07715V9H17.7057L19.744 10.9943V12.738L18.8062 13.8757ZM16.4099 18.3551H16.519L16.6182 18.3097C17.2779 18.0073 17.7012 17.3441 17.7116 16.6184L17.7116 16.6182C17.722 15.8737 17.2955 15.1834 16.618 14.8732L16.5189 14.8278H16.4099H11.5581H11.0581V15.3278V17.8551V18.3551H11.5581H16.4099ZM16.4099 13.6321H16.519L16.6182 13.5867C17.2779 13.2843 17.7012 12.6211 17.7116 11.8954L17.7116 11.8952C17.722 11.1507 17.2955 10.4604 16.618 10.1502L16.5189 10.1048H16.4099H11.5581H11.0581V10.6048V13.1321V13.6321H11.5581H16.4099Z" stroke="#A01400"/>
</g>
<g filter="url(#filter2_f_7202_35464)">
<path d="M22.3687 17.3758V9H24.4164V16.5019V16.7089L24.5628 16.8553L25.7752 18.0684L25.9217 18.215H26.1289H33.0181V19.3876H24.3828L22.3687 17.3758Z" stroke="#A01400"/>
</g>
<g filter="url(#filter3_f_7202_35464)">
<path d="M9.0729 21.4841H11.093V29.0825V29.2977L11.2493 29.4457L12.4736 30.6043L12.6182 30.7412H12.8173H15.8871H16.0859L16.2304 30.6047L17.4264 29.4753L17.5831 29.3273V29.1118V21.4841H19.744V30.0323L17.7516 32H11.0394L9.00173 29.9351L9.0729 21.4841Z" stroke="#A01400"/>
</g>
<g filter="url(#filter4_f_7202_35464)">
<path d="M24.3439 27.777V32H22.3691V21.4841H31.0062L33.0186 23.3807V25.3725L32.0299 26.395L31.6951 26.7414L32.0287 27.0889L33.0186 28.1199V32H30.9768L30.9461 28.3888L30.9439 28.1283L30.7291 27.9809L29.9068 27.4162L29.7813 27.33L29.6291 27.3284L24.8493 27.277L24.3439 27.2716V27.777ZM29.7692 26.1029H29.8783L29.9775 26.0574C30.6372 25.7551 31.0605 25.0919 31.0709 24.3662L31.0709 24.366C31.0814 23.6215 30.6549 22.9311 29.9773 22.621L29.8782 22.5756H29.7692H24.9174H24.4174V23.0756V25.6029V26.1029H24.9174H29.7692Z" stroke="#A01400"/>
</g>
</g>
<g filter="url(#filter5_f_7202_35464)">
<g filter="url(#filter6_f_7202_35464)">
<path d="M18.8062 13.8757L18.5323 14.2079L18.8201 14.528L19.744 15.5559V17.4236L17.6814 19.3876H9.07715V9H17.7057L19.744 10.9943V12.738L18.8062 13.8757ZM16.4099 18.3551H16.519L16.6182 18.3097C17.2779 18.0073 17.7012 17.3441 17.7116 16.6184L17.7116 16.6182C17.722 15.8737 17.2955 15.1834 16.618 14.8732L16.5189 14.8278H16.4099H11.5581H11.0581V15.3278V17.8551V18.3551H11.5581H16.4099ZM16.4099 13.6321H16.519L16.6182 13.5867C17.2779 13.2843 17.7012 12.6211 17.7116 11.8954L17.7116 11.8952C17.722 11.1507 17.2955 10.4604 16.618 10.1502L16.5189 10.1048H16.4099H11.5581H11.0581V10.6048V13.1321V13.6321H11.5581H16.4099Z" stroke="#A01400"/>
</g>
<g filter="url(#filter7_f_7202_35464)">
<path d="M22.3687 17.3758V9H24.4164V16.5019V16.7089L24.5628 16.8553L25.7752 18.0684L25.9217 18.215H26.1289H33.0181V19.3876H24.3828L22.3687 17.3758Z" stroke="#A01400"/>
</g>
<g filter="url(#filter8_f_7202_35464)">
<path d="M9.0729 21.4841H11.093V29.0825V29.2977L11.2493 29.4457L12.4736 30.6043L12.6182 30.7412H12.8173H15.8871H16.0859L16.2304 30.6047L17.4264 29.4753L17.5831 29.3273V29.1118V21.4841H19.744V30.0323L17.7516 32H11.0394L9.00173 29.9351L9.0729 21.4841Z" stroke="#A01400"/>
</g>
<g filter="url(#filter9_f_7202_35464)">
<path d="M24.3439 27.777V32H22.3691V21.4841H31.0062L33.0186 23.3807V25.3725L32.0299 26.395L31.6951 26.7414L32.0287 27.0889L33.0186 28.1199V32H30.9768L30.9461 28.3888L30.9439 28.1283L30.7291 27.9809L29.9068 27.4162L29.7813 27.33L29.6291 27.3284L24.8493 27.277L24.3439 27.2716V27.777ZM29.7692 26.1029H29.8783L29.9775 26.0574C30.6372 25.7551 31.0605 25.0919 31.0709 24.3662L31.0709 24.366C31.0814 23.6215 30.6549 22.9311 29.9773 22.621L29.8782 22.5756H29.7692H24.9174H24.4174V23.0756V25.6029V26.1029H24.9174H29.7692Z" stroke="#A01400"/>
</g>
</g>
<mask id="mask0_7202_35464" style="mask-type:luminance" maskUnits="userSpaceOnUse" x="8" y="8" width="13" height="12">
<path d="M20.244 10.8072L17.9096 8.52563H8.57715V19.901H17.8814L20.244 17.6538V15.3826L19.192 14.2133L20.244 12.9385V10.8072ZM16.4099 17.8708H11.5581V15.3461H16.4099C16.9033 15.5718 17.2194 16.0779 17.2117 16.6282C17.204 17.1646 16.8904 17.6508 16.4099 17.8708ZM16.4099 13.1528H11.5581V10.6282H16.4099C16.9033 10.8538 17.2194 11.36 17.2117 11.9103C17.204 12.4467 16.8904 12.9328 16.4099 13.1528Z" fill="white"/>
</mask>
<g mask="url(#mask0_7202_35464)">
<path d="M34.1209 8.5H7.31787V9.37179H34.1209V8.5Z" fill="#FF8300"/>
<path d="M34.1209 9.67949H7.31787V10.5513H34.1209V9.67949Z" fill="#FF8300"/>
<path d="M34.1209 10.859H7.31787V11.7308H34.1209V10.859Z" fill="#FF8300"/>
<path d="M34.1209 12.0385H7.31787V12.9102H34.1209V12.0385Z" fill="#FF8300"/>
<path d="M34.1209 13.218H7.31787V14.0898H34.1209V13.218Z" fill="#FF8300"/>
<path d="M34.1209 14.3974H7.31787V15.2692H34.1209V14.3974Z" fill="#FF8300"/>
<path d="M34.1209 15.5769H7.31787V16.4487H34.1209V15.5769Z" fill="#FF8300"/>
<path d="M34.1209 16.7564H7.31787V17.6282H34.1209V16.7564Z" fill="#FF8300"/>
<path d="M34.1209 17.9359H7.31787V18.8077H34.1209V17.9359Z" fill="#FF8300"/>
<path d="M34.1209 19.1154H7.31787V19.9872H34.1209V19.1154Z" fill="#FF8300"/>
</g>
<mask id="mask1_7202_35464" style="mask-type:luminance" maskUnits="userSpaceOnUse" x="21" y="8" width="13" height="12">
<path d="M21.8687 8.52563H24.9164V16.519L26.1289 17.7308H33.5181V19.901H24.1758L21.8687 17.599V8.52563Z" fill="white"/>
</mask>
<g mask="url(#mask1_7202_35464)">
<path d="M34.1209 8.5H7.31787V9.37179H34.1209V8.5Z" fill="#FF8300"/>
<path d="M34.1209 9.67949H7.31787V10.5513H34.1209V9.67949Z" fill="#FF8300"/>
<path d="M34.1209 10.859H7.31787V11.7308H34.1209V10.859Z" fill="#FF8300"/>
<path d="M34.1209 12.0385H7.31787V12.9102H34.1209V12.0385Z" fill="#FF8300"/>
<path d="M34.1209 13.218H7.31787V14.0898H34.1209V13.218Z" fill="#FF8300"/>
<path d="M34.1209 14.3974H7.31787V15.2692H34.1209V14.3974Z" fill="#FF8300"/>
<path d="M34.1209 15.5769H7.31787V16.4487H34.1209V15.5769Z" fill="#FF8300"/>
<path d="M34.1209 16.7564H7.31787V17.6282H34.1209V16.7564Z" fill="#FF8300"/>
<path d="M34.1209 17.9359H7.31787V18.8077H34.1209V17.9359Z" fill="#FF8300"/>
<path d="M34.1209 19.1154H7.31787V19.9872H34.1209V19.1154Z" fill="#FF8300"/>
</g>
<mask id="mask2_7202_35464" style="mask-type:luminance" maskUnits="userSpaceOnUse" x="8" y="20" width="13" height="13">
<path d="M8.57709 20.9964H11.593V29.0861L12.8173 30.2436H15.8871L17.0831 29.1154V20.9964H20.244V30.2436L17.9569 32.5H10.8303L8.5 30.141L8.57709 20.9964Z" fill="white"/>
</mask>
<g mask="url(#mask2_7202_35464)">
<path d="M34.0208 20.9872H7.21777V21.859H34.0208V20.9872Z" fill="#FF8300"/>
<path d="M34.0208 22.1667H7.21777V23.0385H34.0208V22.1667Z" fill="#FF8300"/>
<path d="M34.0208 23.3461H7.21777V24.2179H34.0208V23.3461Z" fill="#FF8300"/>
<path d="M34.0208 24.5256H7.21777V25.3974H34.0208V24.5256Z" fill="#FF8300"/>
<path d="M34.0208 25.7051H7.21777V26.5769H34.0208V25.7051Z" fill="#FF8300"/>
<path d="M34.0208 26.8846H7.21777V27.7564H34.0208V26.8846Z" fill="#FF8300"/>
<path d="M34.0208 28.0641H7.21777V28.9359H34.0208V28.0641Z" fill="#FF8300"/>
<path d="M34.0208 29.2436H7.21777V30.1154H34.0208V29.2436Z" fill="#FF8300"/>
<path d="M34.0208 30.4231H7.21777V31.2949H34.0208V30.4231Z" fill="#FF8300"/>
<path d="M34.0208 31.6025H7.21777V32.4743H34.0208V31.6025Z" fill="#FF8300"/>
</g>
<mask id="mask3_7202_35464" style="mask-type:luminance" maskUnits="userSpaceOnUse" x="21" y="20" width="13" height="13">
<path d="M33.518 23.1743L31.2047 20.9964H21.8691V32.5H24.8439V27.782L29.6238 27.8333L30.4461 28.3974L30.4811 32.5H33.5186V27.9236L32.3894 26.7487L33.5186 25.582V23.1749L33.518 23.1743ZM29.7692 25.6102H24.9174V23.0856H29.7692C30.2626 23.3113 30.5787 23.8174 30.571 24.3677C30.5633 24.9041 30.2498 25.3902 29.7692 25.6102Z" fill="white"/>
</mask>
<g mask="url(#mask3_7202_35464)">
<path d="M34.0208 20.9872H7.21777V21.859H34.0208V20.9872Z" fill="#FF8300"/>
<path d="M34.0208 22.1667H7.21777V23.0385H34.0208V22.1667Z" fill="#FF8300"/>
<path d="M34.0208 23.3461H7.21777V24.2179H34.0208V23.3461Z" fill="#FF8300"/>
<path d="M34.0208 24.5256H7.21777V25.3974H34.0208V24.5256Z" fill="#FF8300"/>
<path d="M34.0208 25.7051H7.21777V26.5769H34.0208V25.7051Z" fill="#FF8300"/>
<path d="M34.0208 26.8846H7.21777V27.7564H34.0208V26.8846Z" fill="#FF8300"/>
<path d="M34.0208 28.0641H7.21777V28.9359H34.0208V28.0641Z" fill="#FF8300"/>
<path d="M34.0208 29.2436H7.21777V30.1154H34.0208V29.2436Z" fill="#FF8300"/>
<path d="M34.0208 30.4231H7.21777V31.2949H34.0208V30.4231Z" fill="#FF8300"/>
<path d="M34.0208 31.6025H7.21777V32.4743H34.0208V31.6025Z" fill="#FF8300"/>
</g>
</g>
<defs>
<filter id="filter0_f_7202_35464" x="7.5" y="7.5" width="27.0186" height="26" filterUnits="userSpaceOnUse" color-interpolation-filters="sRGB">
<feFlood flood-opacity="0" result="BackgroundImageFix"/>
<feBlend mode="normal" in="SourceGraphic" in2="BackgroundImageFix" result="shape"/>
<feGaussianBlur stdDeviation="0.5" result="effect1_foregroundBlur_7202_35464"/>
</filter>
<filter id="filter1_f_7202_35464" x="7.57715" y="7.5" width="13.667" height="13.3876" filterUnits="userSpaceOnUse" color-interpolation-filters="sRGB">
<feFlood flood-opacity="0" result="BackgroundImageFix"/>
<feBlend mode="normal" in="SourceGraphic" in2="BackgroundImageFix" result="shape"/>
<feGaussianBlur stdDeviation="0.5" result="effect1_foregroundBlur_7202_35464"/>
</filter>
<filter id="filter2_f_7202_35464" x="20.8687" y="7.5" width="13.6494" height="13.3876" filterUnits="userSpaceOnUse" color-interpolation-filters="sRGB">
<feFlood flood-opacity="0" result="BackgroundImageFix"/>
<feBlend mode="normal" in="SourceGraphic" in2="BackgroundImageFix" result="shape"/>
<feGaussianBlur stdDeviation="0.5" result="effect1_foregroundBlur_7202_35464"/>
</filter>
<filter id="filter3_f_7202_35464" x="7.5" y="19.9841" width="13.7439" height="13.5159" filterUnits="userSpaceOnUse" color-interpolation-filters="sRGB">
<feFlood flood-opacity="0" result="BackgroundImageFix"/>
<feBlend mode="normal" in="SourceGraphic" in2="BackgroundImageFix" result="shape"/>
<feGaussianBlur stdDeviation="0.5" result="effect1_foregroundBlur_7202_35464"/>
</filter>
<filter id="filter4_f_7202_35464" x="20.8691" y="19.9841" width="13.6494" height="13.5159" filterUnits="userSpaceOnUse" color-interpolation-filters="sRGB">
<feFlood flood-opacity="0" result="BackgroundImageFix"/>
<feBlend mode="normal" in="SourceGraphic" in2="BackgroundImageFix" result="shape"/>
<feGaussianBlur stdDeviation="0.5" result="effect1_foregroundBlur_7202_35464"/>
</filter>
<filter id="filter5_f_7202_35464" x="7.5" y="7.5" width="27.0186" height="26" filterUnits="userSpaceOnUse" color-interpolation-filters="sRGB">
<feFlood flood-opacity="0" result="BackgroundImageFix"/>
<feBlend mode="normal" in="SourceGraphic" in2="BackgroundImageFix" result="shape"/>
<feGaussianBlur stdDeviation="0.5" result="effect1_foregroundBlur_7202_35464"/>
</filter>
<filter id="filter6_f_7202_35464" x="7.57715" y="7.5" width="13.667" height="13.3876" filterUnits="userSpaceOnUse" color-interpolation-filters="sRGB">
<feFlood flood-opacity="0" result="BackgroundImageFix"/>
<feBlend mode="normal" in="SourceGraphic" in2="BackgroundImageFix" result="shape"/>
<feGaussianBlur stdDeviation="0.5" result="effect1_foregroundBlur_7202_35464"/>
</filter>
<filter id="filter7_f_7202_35464" x="20.8687" y="7.5" width="13.6494" height="13.3876" filterUnits="userSpaceOnUse" color-interpolation-filters="sRGB">
<feFlood flood-opacity="0" result="BackgroundImageFix"/>
<feBlend mode="normal" in="SourceGraphic" in2="BackgroundImageFix" result="shape"/>
<feGaussianBlur stdDeviation="0.5" result="effect1_foregroundBlur_7202_35464"/>
</filter>
<filter id="filter8_f_7202_35464" x="7.5" y="19.9841" width="13.7439" height="13.5159" filterUnits="userSpaceOnUse" color-interpolation-filters="sRGB">
<feFlood flood-opacity="0" result="BackgroundImageFix"/>
<feBlend mode="normal" in="SourceGraphic" in2="BackgroundImageFix" result="shape"/>
<feGaussianBlur stdDeviation="0.5" result="effect1_foregroundBlur_7202_35464"/>
</filter>
<filter id="filter9_f_7202_35464" x="20.8691" y="19.9841" width="13.6494" height="13.5159" filterUnits="userSpaceOnUse" color-interpolation-filters="sRGB">
<feFlood flood-opacity="0" result="BackgroundImageFix"/>
<feBlend mode="normal" in="SourceGraphic" in2="BackgroundImageFix" result="shape"/>
<feGaussianBlur stdDeviation="0.5" result="effect1_foregroundBlur_7202_35464"/>
</filter>
<clipPath id="clip0_7202_35464">
<rect width="42" height="42" rx="21" fill="white"/>
</clipPath>
</defs>
</svg>
