<svg xmlns="http://www.w3.org/2000/svg" width="42" height="42" fill="none"><g clip-path="url(#a)"><circle cx="21" cy="21" r="21" fill="#0D0808"/><g filter="url(#b)"><g filter="url(#c)"><path stroke="#A01400" d="m18.806 13.876-.274.332.288.32.924 1.028v1.868l-2.063 1.964H9.077V9h8.629l2.038 1.994v1.744l-.938 1.138zm-2.396 4.48h.109l.1-.046a1.89 1.89 0 0 0 1.093-1.692 1.89 1.89 0 0 0-1.094-1.745l-.1-.045h-5.46v3.527h5.352zm0-4.724h.109l.1-.045a1.89 1.89 0 0 0 1.093-1.692 1.89 1.89 0 0 0-1.094-1.745l-.1-.045h-5.46v3.527h5.352z"/></g><g filter="url(#d)"><path stroke="#A01400" d="M22.369 17.376V9h2.048v7.709l.146.146 1.212 1.213.147.147h7.097v1.173h-8.636l-2.014-2.012z"/></g><g filter="url(#e)"><path stroke="#A01400" d="M9.073 21.484h2.02v7.814l.156.148 1.225 1.158.144.137h3.468l.144-.136 1.196-1.13.157-.148v-7.843h2.161v8.548L17.752 32h-6.713l-2.037-2.065.07-8.45z"/></g><g filter="url(#f)"><path stroke="#A01400" d="M24.344 27.777V32h-1.975V21.484h8.637l2.012 1.897v1.991l-.988 1.023-.335.346.334.348.99 1.03V32h-2.042l-.031-3.611-.002-.26-.215-.148-.822-.565-.126-.086-.152-.002-4.78-.05-.505-.006v.505zm5.425-1.674h.11l.098-.046a1.89 1.89 0 0 0 1.094-1.69v-.001a1.89 1.89 0 0 0-1.094-1.745l-.099-.045h-5.461v3.527h5.352z"/></g></g><g filter="url(#g)"><g filter="url(#h)"><path stroke="#A01400" d="m18.806 13.876-.274.332.288.32.924 1.028v1.868l-2.063 1.964H9.077V9h8.629l2.038 1.994v1.744l-.938 1.138zm-2.396 4.48h.109l.1-.046a1.89 1.89 0 0 0 1.093-1.692 1.89 1.89 0 0 0-1.094-1.745l-.1-.045h-5.46v3.527h5.352zm0-4.724h.109l.1-.045a1.89 1.89 0 0 0 1.093-1.692 1.89 1.89 0 0 0-1.094-1.745l-.1-.045h-5.46v3.527h5.352z"/></g><g filter="url(#i)"><path stroke="#A01400" d="M22.369 17.376V9h2.048v7.709l.146.146 1.212 1.213.147.147h7.097v1.173h-8.636l-2.014-2.012z"/></g><g filter="url(#j)"><path stroke="#A01400" d="M9.073 21.484h2.02v7.814l.156.148 1.225 1.158.144.137h3.468l.144-.136 1.196-1.13.157-.148v-7.843h2.161v8.548L17.752 32h-6.713l-2.037-2.065.07-8.45z"/></g><g filter="url(#k)"><path stroke="#A01400" d="M24.344 27.777V32h-1.975V21.484h8.637l2.012 1.897v1.991l-.988 1.023-.335.346.334.348.99 1.03V32h-2.042l-.031-3.611-.002-.26-.215-.148-.822-.565-.126-.086-.152-.002-4.78-.05-.505-.006v.505zm5.425-1.674h.11l.098-.046a1.89 1.89 0 0 0 1.094-1.69v-.001a1.89 1.89 0 0 0-1.094-1.745l-.099-.045h-5.461v3.527h5.352z"/></g></g><mask id="l" width="13" height="12" x="8" y="8" maskUnits="userSpaceOnUse" style="mask-type:luminance"><path fill="#fff" d="M20.244 10.807 17.91 8.526H8.577V19.9h9.304l2.363-2.247v-2.271l-1.052-1.17 1.052-1.274v-2.132zm-3.834 7.064h-4.852v-2.525h4.852c.493.226.81.732.802 1.282a1.388 1.388 0 0 1-.802 1.243zm0-4.718h-4.852v-2.525h4.852c.493.226.81.732.802 1.282a1.388 1.388 0 0 1-.802 1.243z"/></mask><g fill="#FF8300" mask="url(#l)"><path d="M34.12 8.5H7.319v.872H34.12V8.5zm0 1.18H7.319v.871H34.12V9.68zm0 1.179H7.319v.872H34.12v-.872zm0 1.18H7.319v.871H34.12v-.871zm0 1.179H7.319v.872H34.12v-.872zm0 1.18H7.319v.871H34.12v-.871zm0 1.179H7.319v.872H34.12v-.872zm0 1.179H7.319v.872H34.12v-.872zm0 1.18H7.319v.872H34.12v-.872zm0 1.18H7.319v.871H34.12v-.871z"/></g><mask id="m" width="13" height="12" x="21" y="8" maskUnits="userSpaceOnUse" style="mask-type:luminance"><path fill="#fff" d="M21.869 8.526h3.048v7.993l1.212 1.212h7.39v2.17h-9.343l-2.307-2.302V8.526z"/></mask><g fill="#FF8300" mask="url(#m)"><path d="M34.121 8.5H7.318v.872h26.803V8.5zm0 1.18H7.318v.871h26.803V9.68zm0 1.179H7.318v.872h26.803v-.872zm0 1.18H7.318v.871h26.803v-.871zm0 1.179H7.318v.872h26.803v-.872zm0 1.18H7.318v.871h26.803v-.871zm0 1.179H7.318v.872h26.803v-.872zm0 1.179H7.318v.872h26.803v-.872zm0 1.18H7.318v.872h26.803v-.872zm0 1.18H7.318v.871h26.803v-.871z"/></g><mask id="n" width="13" height="13" x="8" y="20" maskUnits="userSpaceOnUse" style="mask-type:luminance"><path fill="#fff" d="M8.577 20.996h3.016v8.09l1.224 1.158h3.07l1.196-1.129v-8.119h3.161v9.248L17.957 32.5H10.83L8.5 30.14l.077-9.145z"/></mask><g fill="#FF8300" mask="url(#n)"><path d="M34.02 20.987H7.219v.872H34.02v-.872zm0 1.179H7.218v.872H34.02v-.872zm0 1.18H7.218v.872H34.02v-.872zm0 1.18H7.218v.871H34.02v-.871zm0 1.179H7.218v.872H34.02v-.872zm0 1.179H7.218v.872H34.02v-.872zm0 1.18H7.218v.872H34.02v-.872zm0 1.179H7.218v.872H34.02v-.872zm0 1.18H7.218v.872H34.02v-.872zm0 1.179H7.218v.872H34.02v-.871z"/></g><mask id="o" width="13" height="13" x="21" y="20" maskUnits="userSpaceOnUse" style="mask-type:luminance"><path fill="#fff" d="m33.518 23.174-2.313-2.178h-9.336V32.5h2.975v-4.718l4.78.051.822.564.035 4.103h3.037v-4.576l-1.129-1.175 1.13-1.167v-2.407h-.001zm-3.749 2.436h-4.852v-2.524h4.852c.494.225.81.731.802 1.282a1.388 1.388 0 0 1-.802 1.242z"/></mask><g fill="#FF8300" mask="url(#o)"><path d="M34.02 20.987H7.218v.872H34.02v-.872zm0 1.179H7.217v.872H34.02v-.872zm0 1.18H7.217v.872H34.02v-.872zm0 1.18H7.217v.871H34.02v-.871zm0 1.179H7.217v.872H34.02v-.872zm0 1.179H7.217v.872H34.02v-.872zm0 1.18H7.217v.872H34.02v-.872zm0 1.179H7.217v.872H34.02v-.872zm0 1.18H7.217v.872H34.02v-.872zm0 1.179H7.217v.872H34.02v-.871z"/></g></g><defs><filter id="b" width="27.018" height="26" x="7.5" y="7.5" color-interpolation-filters="sRGB" filterUnits="userSpaceOnUse"><feFlood flood-opacity="0" result="BackgroundImageFix"/><feBlend in="SourceGraphic" in2="BackgroundImageFix" result="shape"/><feGaussianBlur result="effect1_foregroundBlur_7277_55475" stdDeviation=".5"/></filter><filter id="c" width="13.667" height="13.387" x="7.577" y="7.5" color-interpolation-filters="sRGB" filterUnits="userSpaceOnUse"><feFlood flood-opacity="0" result="BackgroundImageFix"/><feBlend in="SourceGraphic" in2="BackgroundImageFix" result="shape"/><feGaussianBlur result="effect1_foregroundBlur_7277_55475" stdDeviation=".5"/></filter><filter id="d" width="13.649" height="13.387" x="20.869" y="7.5" color-interpolation-filters="sRGB" filterUnits="userSpaceOnUse"><feFlood flood-opacity="0" result="BackgroundImageFix"/><feBlend in="SourceGraphic" in2="BackgroundImageFix" result="shape"/><feGaussianBlur result="effect1_foregroundBlur_7277_55475" stdDeviation=".5"/></filter><filter id="e" width="13.744" height="13.516" x="7.5" y="19.984" color-interpolation-filters="sRGB" filterUnits="userSpaceOnUse"><feFlood flood-opacity="0" result="BackgroundImageFix"/><feBlend in="SourceGraphic" in2="BackgroundImageFix" result="shape"/><feGaussianBlur result="effect1_foregroundBlur_7277_55475" stdDeviation=".5"/></filter><filter id="f" width="13.649" height="13.516" x="20.869" y="19.984" color-interpolation-filters="sRGB" filterUnits="userSpaceOnUse"><feFlood flood-opacity="0" result="BackgroundImageFix"/><feBlend in="SourceGraphic" in2="BackgroundImageFix" result="shape"/><feGaussianBlur result="effect1_foregroundBlur_7277_55475" stdDeviation=".5"/></filter><filter id="g" width="27.018" height="26" x="7.5" y="7.5" color-interpolation-filters="sRGB" filterUnits="userSpaceOnUse"><feFlood flood-opacity="0" result="BackgroundImageFix"/><feBlend in="SourceGraphic" in2="BackgroundImageFix" result="shape"/><feGaussianBlur result="effect1_foregroundBlur_7277_55475" stdDeviation=".5"/></filter><filter id="h" width="13.667" height="13.387" x="7.577" y="7.5" color-interpolation-filters="sRGB" filterUnits="userSpaceOnUse"><feFlood flood-opacity="0" result="BackgroundImageFix"/><feBlend in="SourceGraphic" in2="BackgroundImageFix" result="shape"/><feGaussianBlur result="effect1_foregroundBlur_7277_55475" stdDeviation=".5"/></filter><filter id="i" width="13.649" height="13.387" x="20.869" y="7.5" color-interpolation-filters="sRGB" filterUnits="userSpaceOnUse"><feFlood flood-opacity="0" result="BackgroundImageFix"/><feBlend in="SourceGraphic" in2="BackgroundImageFix" result="shape"/><feGaussianBlur result="effect1_foregroundBlur_7277_55475" stdDeviation=".5"/></filter><filter id="j" width="13.744" height="13.516" x="7.5" y="19.984" color-interpolation-filters="sRGB" filterUnits="userSpaceOnUse"><feFlood flood-opacity="0" result="BackgroundImageFix"/><feBlend in="SourceGraphic" in2="BackgroundImageFix" result="shape"/><feGaussianBlur result="effect1_foregroundBlur_7277_55475" stdDeviation=".5"/></filter><filter id="k" width="13.649" height="13.516" x="20.869" y="19.984" color-interpolation-filters="sRGB" filterUnits="userSpaceOnUse"><feFlood flood-opacity="0" result="BackgroundImageFix"/><feBlend in="SourceGraphic" in2="BackgroundImageFix" result="shape"/><feGaussianBlur result="effect1_foregroundBlur_7277_55475" stdDeviation=".5"/></filter><clipPath id="a"><rect width="42" height="42" fill="#fff" rx="21"/></clipPath></defs></svg>