<svg width="42" height="42" fill="none" viewBox="0 0 42 42" xmlns="http://www.w3.org/2000/svg">
  <g clip-path="url(#a)">
    <path fill="#F0B90B" fill-rule="evenodd" d="M21 0c11.599 0 21 9.401 21 21s-9.401 21-21 21S0 32.599 0 21 9.401 0 21 0" clip-rule="evenodd"/>
    <path fill="#fff" d="m11.542 21 .015 5.553 4.718 2.776v3.251l-7.48-4.386v-8.818zm0-5.553v3.236l-2.748-1.626v-3.235l2.747-1.626 2.762 1.626zm6.703-1.625 2.748-1.626 2.762 1.626-2.762 1.625z"/>
    <path fill="#fff" d="M13.527 25.402V22.15l2.748 1.625v3.236zm4.719 5.092 2.747 1.625 2.762-1.625v3.236l-2.762 1.625-2.747-1.625zm9.45-16.672 2.747-1.626 2.762 1.626v3.236l-2.762 1.625v-3.236zm2.747 12.73L30.458 21l2.748-1.625v8.817l-7.48 4.387v-3.251z"/>
    <path fill="#fff" d="m28.473 25.402-2.748 1.61v-3.236l2.748-1.625z"/>
    <path fill="#fff" d="m28.473 16.598.015 3.251-4.732 2.776v5.567l-2.747 1.61-2.748-1.61v-5.567l-4.732-2.776v-3.25l2.76-1.626 4.703 2.79 4.731-2.79 2.762 1.625zm-14.946-5.551 7.466-4.402 7.48 4.402-2.748 1.625-4.732-2.79-4.718 2.79z"/>
  </g>
  <defs>
    <clipPath id="a">
      <path fill="#fff" d="M0 0h42v42H0z"/>
    </clipPath>
  </defs>
</svg>
