<svg width="42" height="42" viewBox="0 0 42 42" fill="none" xmlns="http://www.w3.org/2000/svg">
<path d="M21 42C32.598 42 42 32.598 42 21C42 9.40202 32.598 0 21 0C9.40202 0 0 9.40202 0 21C0 32.598 9.40202 42 21 42Z" fill="black"/>
<path d="M20.5285 8L14.5986 11.4742L20.5285 14.9497L26.5699 11.4742L20.5285 8ZM21.5037 26.5509V33.5006L29.5585 28.9055V21.9545L21.5037 26.5509V26.5509ZM27.5451 13.6595V20.6105L21.5024 24.086V17.135L27.5451 13.6595ZM13 20.6105L19.0428 24.086V17.135L13 13.6595V20.6105ZM13 30.0264L19.0428 33.5006V26.5509L13 23.0767V30.0251V30.0264Z" fill="white"/>
</svg>
