<svg width="42" height="42" fill="none" viewBox="0 0 42 42" xmlns="http://www.w3.org/2000/svg">
  <g clip-path="url(#a)">
    <path fill="#50832B" d="M21 42c11.598 0 21-9.402 21-21S32.598 0 21 0 0 9.402 0 21s9.402 21 21 21"/>
    <path fill="#fff" d="M21.32 18.203S13.757 13.51 8.285 19.77c0-.009 4.742 6.201 13.035-1.567"/>
    <path fill="#000" d="M13.396 22.337q-.295 0-.591-.024c-3.01-.247-4.627-2.322-4.7-2.412l-.115-.148.123-.14c1.28-1.46 2.772-2.452 4.454-2.953 1.337-.401 2.797-.483 4.323-.254 2.592.394 4.47 1.55 4.553 1.592l.246.155-.213.197c-2.822 2.65-5.537 3.987-8.08 3.987M8.58 19.77c.41.459 1.895 1.903 4.266 2.1 2.518.205 5.242-1.01 8.088-3.618-.599-.32-2.174-1.091-4.134-1.386-1.46-.222-2.847-.14-4.118.246-1.534.443-2.912 1.337-4.102 2.658"/>
    <path fill="#fff" stroke="#000" stroke-miterlimit="10" stroke-width=".82" d="M35.134 15.02s-3.437-3.757-13.346 3.076l5.422 1.354h3.125l2.19-.73 1.51-1.091z"/>
    <path fill="#000" d="M19.909 18.884c0 1.296-1.575 2.337-3.52 2.337-1.943 0-3.518-1.05-3.518-2.337s1.575-2.338 3.519-2.338 3.519 1.041 3.519 2.338"/>
    <path fill="#000" d="M13.355 22.649c-.903 0-1.78-.164-2.6-.492-1.354-.534-2.683-1.543-3.938-2.986a.9.9 0 0 1-.205-.328c-.14-.435.131-1.018.861-1.822a13 13 0 0 1 1.386-1.304c1.01-.812 2.182-1.32 3.396-1.46 1.928-.221 4.094.345 6.415 1.674.107.057.853.566 1.485 1 1.452 1.01 1.452 1.05 1.477 1.214l.024.156-.106.115c-1.338 1.354-2.625 2.354-3.93 3.068-1.419.771-2.87 1.165-4.265 1.165m-.271-7.81c-.262 0-.509.017-.763.041-1.09.123-2.157.583-3.068 1.321-.074.058-.738.599-1.312 1.239-.657.713-.763 1.09-.73 1.206.008.024.057.082.082.114 1.189 1.37 2.428 2.314 3.691 2.814 1.928.763 4.175.542 6.325-.631 1.173-.64 2.337-1.534 3.552-2.724a65 65 0 0 0-2.502-1.73c-1.904-1.1-3.675-1.65-5.275-1.65"/>
    <path fill="#000" stroke="#000" stroke-miterlimit="10" stroke-width="1.148" d="M26.554 18.947c1.536-.238 2.677-1.095 2.55-1.914-.127-.82-1.474-1.29-3.01-1.053s-2.678 1.096-2.55 1.915c.127.82 1.474 1.29 3.01 1.052Z"/>
    <path fill="#000" d="M28.62 19.802q-.997-.002-2.116-.14c-1.854-.229-3.691-.721-5.266-1.156l.172-.607c-.115-.033-.197.017-.197.017.214-.132 1.272-1.321 1.789-1.895.377-.427.566-.632.64-.698 2.165-1.985 4.085-3.174 6.029-3.74.968-.287 1.903-.377 2.764-.287.328.033.96.123 1.534.328.722.262 1.149.631 1.264 1.107.344 1.46.254 2.839-.271 3.995-.566 1.255-1.616 2.158-3.035 2.609-1.001.311-2.092.467-3.306.467m-6.644-1.747c3.314.902 6.76 1.624 9.754.673 1.238-.394 2.157-1.173 2.65-2.264.467-1.026.549-2.273.23-3.593-.083-.337-.723-.788-2.257-.96-.787-.082-1.632 0-2.526.262-1.854.542-3.692 1.69-5.783 3.602-.058.049-.329.352-.591.656-.361.402-.804.902-1.181 1.304q-.16.185-.296.32"/>
    <path fill="#85492D" d="M28.965 22.378a1 1 0 0 1-.114.041c-.37.123-.772.115-1.165.115-1.567-.025-3.134-.05-4.7-.066-.69-.008-1.387-.016-2.06.132-1.255.287-2.313 1.099-3.404 1.788-1.64 1.025-2.97 1.058-4.832.919-.344-.025-.697-.05-1.025-.173-.295-.114-.55-.303-.837-.434a2.55 2.55 0 0 0-2.272.065 2.51 2.51 0 0 0-1.272 1.887c-.172 1.378.862 2.674 2.125 3.248 1.427.648 3.01.55 4.528.493.328-.017.665-.025.976-.132a3.7 3.7 0 0 0 .632-.303c1.378-.78 2.806-1.501 4.175-2.297 1.23-.714 2.396-1.624 3.815-1.92.96-.197 1.952-.09 2.937-.123.853-.024 1.73-.155 2.534.132.304.106.591.27.91.279.222 0 .436-.074.64-.165.78-.32 1.527-.73 2.216-1.222.623-.443 1.214-.976 1.534-1.665.32-.697.311-1.583-.18-2.157-.46-.534-1.248-.706-1.937-.567-.689.148-1.296.558-1.821 1.042-.426.394-.853.862-1.403 1.083"/>
    <path fill="#000" d="M12.428 30.745c-1.067 0-2.133-.098-3.142-.558a4.24 4.24 0 0 1-1.723-1.427c-.467-.673-.672-1.419-.582-2.14a2.84 2.84 0 0 1 1.435-2.117 2.87 2.87 0 0 1 2.56-.082c.13.057.246.131.369.197.156.09.295.172.443.23.287.106.615.13.935.155 1.706.123 3.035.131 4.643-.878l.615-.393c.894-.583 1.813-1.19 2.888-1.428.713-.164 1.435-.147 2.133-.14l4.7.066c.36.009.738.009 1.066-.098.033-.008.066-.025.099-.033.393-.156.722-.467 1.066-.804.082-.082.164-.155.254-.238.673-.615 1.313-.976 1.97-1.115.86-.18 1.738.082 2.239.664.533.632.631 1.633.23 2.494-.386.837-1.116 1.42-1.633 1.788a11 11 0 0 1-2.28 1.255c-.222.09-.476.189-.755.189h-.008c-.296 0-.558-.107-.796-.205-.074-.033-.148-.057-.222-.09-.59-.214-1.23-.172-1.911-.14l-.509.025a18 18 0 0 1-.935 0c-.68-.008-1.32-.017-1.952.115-1.034.213-1.952.795-2.847 1.353-.287.18-.574.361-.87.533-.762.443-1.55.87-2.32 1.28a81 81 0 0 0-1.855 1.017 3.6 3.6 0 0 1-.689.328c-.36.115-.73.132-1.066.14l-.238.008c-.451.033-.878.05-1.312.05m-2.65-5.963c-.37 0-.73.09-1.058.262a2.2 2.2 0 0 0-1.116 1.649c-.156 1.271.862 2.428 1.944 2.92 1.28.583 2.74.525 4.151.468l.238-.008c.304-.009.615-.025.894-.115.197-.066.378-.172.574-.28.616-.352 1.255-.688 1.87-1.024.764-.41 1.551-.837 2.306-1.272.287-.164.574-.344.853-.517.943-.59 1.911-1.197 3.051-1.435.698-.148 1.403-.14 2.084-.132.295 0 .607.009.902 0l.493-.024c.713-.041 1.452-.082 2.157.172.082.033.172.066.246.098.197.083.386.156.558.156.164 0 .344-.065.517-.14a10.6 10.6 0 0 0 2.149-1.188c.46-.329 1.107-.845 1.427-1.543.345-.746.18-1.452-.14-1.829-.352-.41-.992-.59-1.632-.46-.541.116-1.082.427-1.673.96-.082.074-.164.156-.246.23-.378.353-.763.722-1.263.927-.05.016-.09.033-.14.05-.426.139-.878.13-1.271.13l-4.7-.065c-.665-.008-1.346-.016-1.986.123-.96.221-1.837.787-2.682 1.345l-.624.402c-1.763 1.108-3.256 1.1-5.02.968-.345-.024-.738-.057-1.116-.197a3 3 0 0 1-.533-.27c-.115-.066-.213-.123-.32-.173a2.1 2.1 0 0 0-.894-.188"/>
    <path fill="#000" d="M9.253 26.012c.074.829.623 1.518 1.37 1.862.804.37 1.723.386 2.592.263 1.624-.222 3.1-.993 4.536-1.723 1.452-.738 2.962-1.518 4.61-1.665 1.026-.09 2.06-.008 3.093-.058a23 23 0 0 0 3.093-.352c1.82-.328 4.397-.96 4.552-3.224.025-.345-.516-.345-.54 0-.058.796-.624 1.444-1.28 1.837-.78.46-1.699.648-2.576.82q-1.442.284-2.896.37c-.976.057-1.952.008-2.929.04-1.591.058-3.051.616-4.47 1.305-1.362.665-2.7 1.444-4.16 1.879-.828.246-1.738.393-2.608.254-.837-.14-1.755-.673-1.837-1.608-.033-.344-.575-.353-.55 0"/>
    <path fill="#fff" d="M18.678 18.613h-.065a.4.4 0 0 0-.238.05.43.43 0 0 0-.222.491.42.42 0 0 0 .386.304.4.4 0 0 0 .394-.131.4.4 0 0 0 .082-.41.36.36 0 0 0-.337-.304m-.336-.287c.345.016.345-.525 0-.542a36 36 0 0 0-.935-.04c-.156-.009-.262.13-.27.27l-.083 1.181c-.024.345.517.345.542 0 .016-.303.04-.599.057-.902.23.008.46.016.69.033m9.31-1.05c.008-.066.016-.14.033-.205.032-.197-.099-.353-.296-.337-.156-.09-.377-.04-.517.041-.377.222-.402.73-.082 1.018a.6.6 0 0 0 .246.139c.009 0 .041.016.074.016a.6.6 0 0 0 .09.517.4.4 0 0 0 .312.172c.107.025.238 0 .312-.106.246-.336.254-.755.074-1.116-.041-.09-.148-.14-.246-.14m.115-2.058c-.05.188-.09.369-.14.558-.082.336.435.484.517.14.05-.19.09-.37.14-.559.09-.336-.435-.476-.517-.14"/>
  </g>
  <defs>
    <clipPath id="a">
      <path fill="#fff" d="M0 0h42v42H0z"/>
    </clipPath>
  </defs>
</svg>
