<svg width="42" height="42" viewBox="0 0 42 42" fill="none" xmlns="http://www.w3.org/2000/svg">
<g clip-path="url(#clip0_7277_57269)">
<path d="M21 42C32.598 42 42 32.598 42 21C42 9.40202 32.598 0 21 0C9.40202 0 0 9.40202 0 21C0 32.598 9.40202 42 21 42Z" fill="#F7931A"/>
<path d="M30.4358 18.4012C30.8479 15.6503 28.7519 14.1711 25.888 13.1841L26.8172 9.45656L24.5492 8.89219L23.6436 12.5212C23.0477 12.3716 22.4361 12.2325 21.8258 12.0934L22.738 8.44069L20.47 7.875L19.5407 11.6012C19.0472 11.4883 18.5616 11.3781 18.0917 11.2599L18.0944 11.2481L14.9654 10.4672L14.3616 12.8901C14.3616 12.8901 16.0456 13.2759 16.0101 13.2996C16.9289 13.5293 17.0942 14.1369 17.0667 14.6199L16.0088 18.8659C16.0718 18.8816 16.1532 18.9052 16.245 18.9407L16.0049 18.8816L14.5217 24.8299C14.4089 25.1081 14.124 25.5268 13.4809 25.368C13.5045 25.4008 11.8324 24.9572 11.8324 24.9572L10.7063 27.5533L13.6594 28.2896C14.208 28.4274 14.7462 28.5718 15.2751 28.707L14.3367 32.4765L16.6034 33.0409L17.5326 29.3134C18.1521 29.4801 18.7532 29.6349 19.3412 29.7819L18.4146 33.4937L20.6826 34.0581L21.6211 30.2964C25.4903 31.0288 28.3988 30.7335 29.6234 27.2344C30.6104 24.4177 29.5748 22.7916 27.5391 21.7324C29.0222 21.3911 30.1379 20.4159 30.4358 18.4012V18.4012ZM25.2514 25.6699C24.5519 28.4878 19.8072 26.964 18.2689 26.5821L19.5158 21.588C21.0541 21.9726 25.9851 22.7325 25.2514 25.6699ZM25.9536 18.3606C25.3144 20.9239 21.3664 19.6206 20.0867 19.3016L21.2155 14.7735C22.4952 15.0924 26.6204 15.687 25.9536 18.3606Z" fill="white"/>
</g>
<defs>
<clipPath id="clip0_7277_57269">
<rect width="42" height="42" fill="white"/>
</clipPath>
</defs>
</svg>
