<svg width="42" height="42" fill="none" xmlns="http://www.w3.org/2000/svg">
  <circle cx="21" cy="21" r="21" fill="#06061B"/>
  <path fill="#fff" d="M15.116 28.457a7.4 7.4 0 0 1-2.363-.37 5.24 5.24 0 0 1-1.952-1.253q-1.17-1.191-1.602-2.67-.41-1.48-.41-3.287c0-1.807.136-2.294.41-3.267q.432-1.479 1.623-2.67a5 5 0 0 1 1.952-1.233 7 7 0 0 1 2.342-.39q1.17 0 2.177.39a5.3 5.3 0 0 1 1.767 1.068q.76.698 1.212 1.664.452.945.534 2.096h-2.712q-.103-1.335-.904-2.075t-2.157-.74a3.5 3.5 0 0 0-1.314.247 2.8 2.8 0 0 0-1.048.719 4 4 0 0 0-.966 1.787q-.226 1.006-.226 2.404t.226 2.424a4 4 0 0 0 .966 1.787q.903.966 2.362.966 1.295 0 2.096-.72.801-.738.965-2.054h2.712a6.1 6.1 0 0 1-.616 2.157 5.37 5.37 0 0 1-2.98 2.671 6.2 6.2 0 0 1-2.095.35zm11.997-.349a6.4 6.4 0 0 1-1.93-.452 5.4 5.4 0 0 1-1.562-1.007 4.8 4.8 0 0 1-1.048-1.417 4.1 4.1 0 0 1-.41-1.746h2.526q.04 1.005.698 1.684.68.657 1.726.76v-4.067l-.965-.144q-1.665-.225-2.65-1.253-.966-1.027-.966-2.61 0-.82.37-1.54a4.2 4.2 0 0 1 1.006-1.294 5.2 5.2 0 0 1 1.459-.925 6 6 0 0 1 1.746-.431v-1.91h1.5v1.951a5.7 5.7 0 0 1 1.705.493q.78.35 1.356.904.575.554.904 1.274.35.719.39 1.54h-2.527a1.94 1.94 0 0 0-.554-1.273 2.5 2.5 0 0 0-1.274-.76v3.76l.698.102q.78.123 1.48.431.699.309 1.211.801.535.494.822 1.192.309.679.308 1.54a4.02 4.02 0 0 1-1.294 3 5.1 5.1 0 0 1-1.438.924 6.2 6.2 0 0 1-1.787.452v2.116h-1.5zm1.5-2.198q.965-.165 1.5-.699.534-.555.534-1.397 0-.78-.514-1.15a2.74 2.74 0 0 0-1.17-.514l-.35-.061zm-1.5-10.087a2.9 2.9 0 0 0-1.479.637q-.596.493-.596 1.335 0 .72.39 1.089.41.349 1.069.452l.616.103z"/>
</svg>
