<svg xmlns="http://www.w3.org/2000/svg" width="42" height="42" fill="none"><circle cx="21" cy="21" r="21" fill="#06061B"/><path fill="#fff" d="M15.116 28.457a7.42 7.42 0 0 1-2.363-.37 5.24 5.24 0 0 1-1.952-1.253c-.78-.794-1.314-1.684-1.602-2.67-.274-.987-.41-2.082-.41-3.287s.136-2.294.41-3.267c.288-.986.829-1.876 1.623-2.67a5.022 5.022 0 0 1 1.952-1.233 7.01 7.01 0 0 1 2.342-.39c.78 0 1.506.13 2.177.39a5.27 5.27 0 0 1 1.767 1.068c.507.466.91 1.02 1.212 1.664.301.63.48 1.329.534 2.096h-2.712c-.068-.89-.37-1.582-.904-2.075-.534-.493-1.253-.74-2.157-.74a3.49 3.49 0 0 0-1.314.247 2.81 2.81 0 0 0-1.048.719 4.01 4.01 0 0 0-.966 1.787c-.15.671-.226 1.472-.226 2.404 0 .931.076 1.739.226 2.424a4.01 4.01 0 0 0 .966 1.787c.602.644 1.39.966 2.362.966.863 0 1.562-.24 2.096-.72.534-.492.856-1.177.965-2.054h2.712a6.074 6.074 0 0 1-.616 2.157 5.367 5.367 0 0 1-2.98 2.671 6.231 6.231 0 0 1-2.095.35zm11.997-.349a6.421 6.421 0 0 1-1.93-.452 5.37 5.37 0 0 1-1.562-1.007 4.825 4.825 0 0 1-1.048-1.417 4.144 4.144 0 0 1-.41-1.746h2.526c.027.67.26 1.232.698 1.684.453.438 1.028.692 1.726.76v-4.067l-.965-.144c-1.11-.15-1.993-.568-2.65-1.253-.644-.685-.966-1.555-.966-2.61 0-.547.123-1.06.37-1.54a4.185 4.185 0 0 1 1.006-1.294 5.18 5.18 0 0 1 1.459-.925 5.938 5.938 0 0 1 1.746-.431v-1.91h1.5v1.951a5.726 5.726 0 0 1 1.705.493c.52.233.972.534 1.356.904.383.37.685.794.904 1.274.233.479.363.993.39 1.54h-2.527a1.937 1.937 0 0 0-.554-1.273 2.514 2.514 0 0 0-1.274-.76v3.76l.698.102c.52.082 1.014.226 1.48.431.465.206.87.473 1.211.801.357.33.63.726.822 1.192.206.452.308.966.308 1.54a4.018 4.018 0 0 1-1.294 3 5.09 5.09 0 0 1-1.438.924 6.225 6.225 0 0 1-1.787.452v2.116h-1.5v-2.095zm1.5-2.198c.644-.11 1.143-.343 1.5-.699.356-.37.534-.835.534-1.397 0-.52-.171-.904-.514-1.15a2.74 2.74 0 0 0-1.17-.514l-.35-.061v3.82zm-1.5-10.087a2.9 2.9 0 0 0-1.479.637c-.397.328-.596.774-.596 1.335 0 .48.13.842.39 1.089.274.233.63.383 1.069.452l.616.103v-3.616z"/></svg>