<svg xmlns="http://www.w3.org/2000/svg" width="43" height="43" fill="none"><circle cx="21.541" cy="21.2" r="21" fill="#06061B"/><path fill="#F3BA2F" d="m19.428 10.615 2.862-2.862 2.863 2.864L26.82 8.95l-4.53-4.528-4.526 4.527 1.665 1.665zm-4.506 1.176 1.665-1.665 1.665 1.665-1.665 1.665-1.665-1.665zm4.506 1.176 2.862 2.862 2.863-2.864 1.666 1.665-4.53 4.53-4.526-4.528-.002-.002 1.667-1.663zm6.9-1.176 1.665-1.665 1.665 1.665-1.665 1.665-1.665-1.665zm-2.35-.002h.002v.002l-1.69 1.69-1.688-1.687-.003-.003.003-.002.295-.296.144-.144L22.29 10.1l1.69 1.69-.001-.002z"/><path fill="#02A6C2" d="M10.386 21.771h9.556v3.219h-9.556z"/><path fill="#5FCADE" d="M10.386 25.995h6.84v3.219h-6.84z"/><path fill="#ABEBF4" d="M10.386 30.221h3.219v3.219h-3.219z"/><path fill="#5FCADE" d="M6.362 25.995h3.219v3.219H6.362z"/><path fill="#709B30" d="M27.164 23.452a15.04 15.04 0 0 1 4.35-1.9c1.197-.31 3.907-.7 5.085-.417a65.337 65.337 0 0 1-1.592 1.927c-1.225 1.31-2.505 2.584-3.949 3.651-2.067 1.564-4.455 2.84-7.063 3.142-.047-.993.031-2.002.36-2.947a5.899 5.899 0 0 1 1.392-2.286c.415-.451.89-.855 1.417-1.17z"/><path fill="#98C455" d="M36.616 21.18c1.238 6.15-3.025 14.407-10.554 11.848-.622-.213-1.15-.668-1.587-1.164 2.693-.407 4.94-1.803 6.93-3.593 2.234-2.012 3.678-4.538 5.21-7.09z"/></svg>