<svg xmlns="http://www.w3.org/2000/svg" width="42" height="42" fill="none"><circle cx="21" cy="21" r="21" fill="#0052FF"/><path fill="#fff" fill-rule="evenodd" d="M24.37 7.099c1.92.497 3.177 1.064 4.768 2.152 1.823 1.245 3.638 3.329 4.642 5.326.629 1.253 1.224 3.217 1.43 4.718l.074.544-3.62-.03-3.619-.03-.189-.685c-.501-1.822-1.865-3.514-3.526-4.379-1.112-.578-2.067-.81-3.327-.81-3.061 0-5.572 1.78-6.716 4.761-.26.682-.295.939-.299 2.254-.005 1.581.107 2.1.712 3.31.885 1.768 2.609 3.122 4.643 3.647.863.223 2.416.223 3.359 0 1.675-.394 3.451-1.695 4.336-3.175.415-.696.927-1.999.927-2.36 0-.218.104-.224 3.65-.224h3.65l-.064.542c-.102.863-.596 2.792-.917 3.583-1.635 4.022-4.933 7.073-9.039 8.361-3.962 1.243-8.245.684-11.859-1.547-1.344-.83-3.437-2.891-4.317-4.25-2.704-4.178-3.083-9.349-1.016-13.85 1.31-2.852 4.078-5.62 6.93-6.93 1.024-.47 2.475-.93 3.614-1.147 1.402-.266 4.33-.155 5.773.219z" clip-rule="evenodd"/></svg>