<svg xmlns="http://www.w3.org/2000/svg" width="42" height="42" fill="none"><circle cx="21" cy="21" r="21" fill="#000"/><path fill="#00D395" fill-rule="evenodd" d="M11.204 28.822a2.35 2.35 0 0 1-1.124-2.001v-4.555a.977.977 0 0 1 1.472-.844l10.279 5.993c.6.352.971.993.971 1.69v4.72a1.174 1.174 0 0 1-1.787 1.002l-9.811-6.005zm15.32-8.647c.602.351.972.993.972 1.69v9.575a.78.78 0 0 1-.398.682l-2.25 1.267a.461.461 0 0 1-.091.037v-5.317a1.96 1.96 0 0 0-.953-1.68l-9.027-5.401v-6.002a.977.977 0 0 1 1.472-.844l10.276 5.993zm4.499-7.073c.604.35.974.997.974 1.694v13.986c0 .286-.159.55-.41.688l-2.133 1.151v-9.736c0-.688-.361-1.324-.95-1.678l-9.226-5.535V7.98a.98.98 0 0 1 1.47-.847l10.275 5.97z" clip-rule="evenodd"/></svg>