<svg width="42" height="42" fill="none" xmlns="http://www.w3.org/2000/svg">
  <circle cx="21" cy="21" r="21" fill="#fff"/>
  <g clip-path="url(#a)">
    <path fill="#1682FE" d="M24.807 12.459h-1.933v2.944h1.933V12.46ZM19.26 7h-1.932v2.944h1.933V7Z"/>
    <path fill="#60D8A4" d="M13.715 9.809h-1.932v2.944h1.932z"/>
    <path fill="#F4BB3B" d="M10.952 21H9v8.404h1.952z"/>
    <path fill="#60D8A4" d="M10.952 12.596H9V21h1.952z"/>
    <path fill="#1682FE" d="M27.57 15.268h-1.932v2.944h1.932z"/>
    <path fill="#FF5A5A" d="M27.57 23.79h-1.932v2.943h1.932zm-2.763 2.806h-1.933v2.944h1.933zm-5.547 5.461h-1.932V35h1.933v-2.944Z"/>
    <path fill="#F4BB3B" d="M13.715 29.248h-1.932v2.944h1.932z"/>
    <path fill="#3A3A3A" d="M33 18.192v-5.596h-2.783V9.808h-5.545V7h-5.546v2.808H13.58v2.808h-2.783v16.788h2.783v2.808h5.546v2.807h5.546v-2.807h5.545v-2.808H33v-5.616h-5.546v2.808h-2.782v2.808h-5.546v-2.808h-2.764V15.404h2.783v-2.808h5.546v2.808h2.782v2.808H33z"/>
  </g>
  <defs>
    <clipPath id="a">
      <path fill="#fff" d="M9 7h24v28H9z"/>
    </clipPath>
  </defs>
</svg>
