<svg xmlns="http://www.w3.org/2000/svg" width="42" height="42" fill="none"><g clip-path="url(#a)"><path fill="#008CE7" d="M21 42c11.598 0 21-9.402 21-21S32.598 0 21 0 0 9.402 0 21s9.402 21 21 21z"/><path fill="#fff" d="M25.05 10.505H15.5l-.79 4.42 8.613.012c4.24 0 5.5 1.54 5.459 4.095-.018 1.31-.59 3.526-.831 4.24-.652 1.916-1.996 4.097-7.034 4.09l-8.37-.004-.79 4.424h9.524c3.359 0 4.79-.392 6.3-1.09 3.352-1.545 5.348-4.857 6.15-9.179 1.19-6.431-.294-11.008-8.682-11.008h.001z"/><path fill="#fff" d="M20.747 20.735c.31-1.293.41-1.811.41-1.811h-9.774c-2.499 0-2.856 1.627-3.093 2.611-.311 1.288-.41 1.813-.41 1.813h9.774c2.498 0 2.855-1.627 3.093-2.613z"/></g><defs><clipPath id="a"><path fill="#fff" d="M0 0h42v42H0z"/></clipPath></defs></svg>