<svg xmlns="http://www.w3.org/2000/svg" width="42" height="42" fill="none"><path fill="#0E052F" fill-rule="evenodd" d="M21 0c11.596 0 21 9.404 21 21s-9.404 21-21 21S0 32.596 0 21 9.404 0 21 0z" clip-rule="evenodd"/><path fill="#fff" d="M12.537 19.337c0-.971-.823-1.737-1.748-1.737H5.2v8h5.589a1.76 1.76 0 0 0 1.748-1.737v-4.526zm-1.748 4.297a.498.498 0 0 1-.492.503h-3.36v-5.074h3.36c.274 0 .492.228.492.503v4.068zm9.846.503H15.71v-1.874h4.045V20.8H15.71v-1.737h4.925V17.6h-6.674v8h6.674v-1.463zm7.017-6.537h-5.588v8h5.588a1.76 1.76 0 0 0 1.749-1.737v-.834c0-.595-.309-1.109-.766-1.429a1.73 1.73 0 0 0 .766-1.429v-.834c0-.971-.823-1.737-1.749-1.737zm0 2.766a.498.498 0 0 1-.491.503h-3.36v-1.806h3.36c.514 0 .491.514.491.903v.4zm0 3.268a.488.488 0 0 1-.491.492h-3.36V22.33h3.36c.274 0 .491.229.491.492v.811zm10.03-6.034h-7.371v1.463h2.823V25.6h1.737v-6.537h2.811V17.6z"/></svg>