<svg xmlns="http://www.w3.org/2000/svg" width="43" height="43" fill="none"><circle cx="21.294" cy="21.2" r="21" fill="#06061B"/><path fill="#00D1FF" d="M17.576 9.07a.474.474 0 0 0-.371-.173h-3.011a.087.087 0 0 1-.065-.025.077.077 0 0 1-.025-.056v-2.03c0-.02.008-.038.025-.055a.087.087 0 0 1 .065-.026h3.182c.803 0 1.495.329 2.077.985l.773.943-1.505 1.837-1.145-1.4zm5.561-1.39c.582-.65 1.278-.975 2.088-.975h3.172c.027 0 .047.007.06.02.013.014.02.035.02.062v2.029c0 .02-.007.039-.02.056-.013.016-.033.025-.06.025h-3.011a.474.474 0 0 0-.372.172l-2.218 2.7 2.228 2.718c.1.109.221.163.362.163h3.01c.028 0 .048.008.061.025.013.017.02.04.02.066v2.03c0 .02-.007.038-.02.055-.013.017-.033.025-.06.025h-3.172c-.81 0-1.502-.328-2.078-.984l-1.846-2.252-1.848 2.252c-.582.656-1.278.984-2.087.984h-3.172c-.027 0-.047-.008-.06-.025a.102.102 0 0 1-.02-.066v-2.03c0-.02.006-.038.02-.055.013-.017.033-.025.06-.025h3.011c.14 0 .264-.058.372-.173l2.177-2.658 3.383-4.14z"/><path fill="#00D395" fill-rule="evenodd" d="M8.73 31.228a1.179 1.179 0 0 1-.561-1.004v-2.283a.489.489 0 0 1 .736-.423l5.138 3.004c.3.177.486.498.486.848v2.366a.586.586 0 0 1-.893.502l-4.905-3.01zm7.66-4.336c.3.177.485.498.485.848v4.8a.391.391 0 0 1-.199.342l-1.125.635a.23.23 0 0 1-.045.019V30.87a.984.984 0 0 0-.476-.843l-4.513-2.707v-3.01a.488.488 0 0 1 .736-.422l5.137 3.004zm2.248-3.546a.98.98 0 0 1 .487.85v7.011a.394.394 0 0 1-.205.345l-1.066.578v-4.882a.983.983 0 0 0-.475-.841l-4.612-2.775v-2.854a.49.49 0 0 1 .735-.424l5.136 2.992z" clip-rule="evenodd"/><path fill="url(#a)" d="M25.176 24.94a.5.5 0 0 0-.002.035v8.257a.503.503 0 1 0 1.007 0V31.77a.503.503 0 1 1 1.006 0v.694a.504.504 0 0 0 1.007 0v-.694a.503.503 0 1 1 1.006 0v.19a.503.503 0 1 0 1.007 0v-.19a.503.503 0 1 1 1.006 0v.694a.503.503 0 1 0 1.007 0v-.694a.503.503 0 0 1 1.006 0v1.463a.503.503 0 0 0 1.007 0v-8.257c0-.012 0-.024-.002-.035a4.53 4.53 0 0 0-9.055 0zm5.392-.2c0-.51.36-.923.806-.923.445 0 .806.413.806.924 0 .51-.361.924-.806.924-.445 0-.806-.414-.806-.924zm-3.34 0c0-.51.36-.923.805-.923.446 0 .806.413.806.924 0 .51-.36.924-.805.924-.446 0-.806-.414-.806-.924zm3.243 1.692c0 .297-.327.537-.731.537-.404 0-.732-.24-.732-.537 0-.297.328-.118.732-.118.404 0 .731-.18.731.118z"/><defs><linearGradient id="a" x1="25.174" x2="32.821" y1="33.754" y2="21.942" gradientUnits="userSpaceOnUse"><stop stop-color="#50B5AC"/><stop offset="1" stop-color="#B22F92"/></linearGradient></defs></svg>