<svg width="43" height="43" fill="none" xmlns="http://www.w3.org/2000/svg">
  <circle cx="21.294" cy="21.2" r="21" fill="#06061B"/>
  <path fill="#00D1FF" d="M17.576 9.07a.47.47 0 0 0-.371-.173h-3.011a.1.1 0 0 1-.065-.025.08.08 0 0 1-.025-.056v-2.03q0-.03.025-.055a.1.1 0 0 1 .065-.026h3.182q1.204 0 2.077.985l.773.943-1.505 1.837zm5.561-1.39q.873-.975 2.088-.975h3.172q.04 0 .06.02.02.021.02.062v2.029q0 .03-.02.056-.02.025-.06.025h-3.011a.47.47 0 0 0-.372.172l-2.218 2.7 2.228 2.718q.15.163.362.163h3.01q.042 0 .061.025.02.026.02.066v2.03q0 .03-.02.055t-.06.025h-3.172q-1.215 0-2.078-.984l-1.846-2.252-1.848 2.252q-.873.984-2.087.984h-3.172q-.04 0-.06-.025a.1.1 0 0 1-.02-.066v-2.03q0-.03.02-.055t.06-.025h3.011q.21 0 .372-.173l2.177-2.658z"/>
  <path fill="#00D395" fill-rule="evenodd" d="M8.73 31.228a1.18 1.18 0 0 1-.561-1.004v-2.283a.489.489 0 0 1 .736-.423l5.138 3.004c.3.177.486.498.486.848v2.366a.586.586 0 0 1-.893.502l-4.905-3.01zm7.66-4.336c.3.177.485.498.485.848v4.8a.39.39 0 0 1-.199.342l-1.125.635a.2.2 0 0 1-.045.019V30.87a.98.98 0 0 0-.476-.843l-4.513-2.707v-3.01a.488.488 0 0 1 .736-.422zm2.248-3.546a.98.98 0 0 1 .487.85v7.011a.4.4 0 0 1-.205.345l-1.066.578v-4.882a.98.98 0 0 0-.475-.841l-4.612-2.775v-2.854a.49.49 0 0 1 .735-.424z" clip-rule="evenodd"/>
  <path fill="url(#a)" d="m25.176 24.94-.002.035v8.257a.503.503 0 1 0 1.007 0V31.77a.503.503 0 1 1 1.006 0v.694a.504.504 0 0 0 1.007 0v-.694a.503.503 0 1 1 1.006 0v.19a.503.503 0 1 0 1.007 0v-.19a.503.503 0 1 1 1.006 0v.694a.503.503 0 1 0 1.007 0v-.694a.503.503 0 0 1 1.006 0v1.463a.503.503 0 0 0 1.007 0v-8.257q0-.018-.002-.035a4.53 4.53 0 0 0-9.055 0zm5.392-.2c0-.51.36-.923.806-.923.445 0 .806.413.806.924 0 .51-.361.924-.806.924s-.806-.414-.806-.924zm-3.34 0c0-.51.36-.923.805-.923s.806.413.806.924c0 .51-.36.924-.805.924s-.806-.414-.806-.924zm3.243 1.692c0 .297-.327.537-.731.537s-.732-.24-.732-.537.328-.118.732-.118.731-.18.731.118"/>
  <defs>
    <linearGradient id="a" x1="25.174" x2="32.821" y1="33.754" y2="21.942" gradientUnits="userSpaceOnUse">
      <stop stop-color="#50B5AC"/>
      <stop offset="1" stop-color="#B22F92"/>
    </linearGradient>
  </defs>
</svg>
