<svg width="42" height="42" viewBox="0 0 42 42" fill="none" xmlns="http://www.w3.org/2000/svg">
<path d="M21 42C32.598 42 42 32.598 42 21C42 9.40202 32.598 0 21 0C9.40202 0 0 9.40202 0 21C0 32.598 9.40202 42 21 42Z" fill="#988430"/>
<path d="M21 41.3273C32.2265 41.3273 41.3273 32.2264 41.3273 20.9999C41.3273 9.77346 32.2265 0.672607 21 0.672607C9.77352 0.672607 0.672668 9.77346 0.672668 20.9999C0.672668 32.2264 9.77352 41.3273 21 41.3273Z" fill="#7A6A2A"/>
<path d="M21 40.8992C31.99 40.8992 40.8991 31.9901 40.8991 21.0001C40.8991 10.0102 31.99 1.10107 21 1.10107C10.0101 1.10107 1.10098 10.0102 1.10098 21.0001C1.10098 31.9901 10.0101 40.8992 21 40.8992Z" fill="#BA9F33"/>
<path fill-rule="evenodd" clip-rule="evenodd" d="M9.18152 18.7573C9.06258 18.6487 8.93692 18.5398 8.82133 18.4312C8.70575 18.3225 8.58703 18.2137 8.46808 18.105L8.11461 17.769C8.05682 17.7112 7.99567 17.6604 7.93788 17.6024C7.88008 17.5515 7.81221 17.4937 7.75442 17.4427C7.28536 16.9976 6.81362 16.5525 6.35106 16.1072C6.8302 16.5455 7.29925 16.9808 7.77839 17.4256L7.94482 17.5923C8.00261 17.6499 8.06376 17.7009 8.12156 17.7587L8.4748 18.0849C8.59375 18.1935 8.70933 18.3024 8.82828 18.4209C8.94722 18.5394 9.0628 18.6485 9.18175 18.7569L9.18152 18.7573ZM2.95634 18.6901C2.95634 18.6901 4.6621 18.8666 5.49471 18.9856C6.26594 19.0944 8.67864 19.4647 8.67864 19.4647L2.95634 18.6901ZM2.95634 18.6901C3.43548 18.7309 3.91461 18.7817 4.39375 18.8328C4.63836 18.8566 4.87288 18.8837 5.10741 18.9074L5.46738 18.9484C5.58632 18.9652 5.70191 18.9822 5.82085 18.9992L7.24818 19.2268L7.96162 19.3458C8.19615 19.3865 8.43068 19.4309 8.67528 19.4717C8.44076 19.4479 8.19615 19.4139 7.96162 19.3798L7.24818 19.2779L5.82085 19.0673C5.70191 19.0503 5.58632 19.0263 5.46738 19.0095L5.10719 18.9681C4.87266 18.9444 4.62805 18.9103 4.39352 18.883C3.91439 18.8254 3.43525 18.764 2.95612 18.6894L2.95634 18.6901ZM8.50885 19.9091C8.50885 19.9091 6.68751 20.3715 6.0724 20.5482C5.4676 20.7146 3.63596 21.2719 3.63596 21.2719L8.50863 19.9094L8.50885 19.9091Z" fill="#CFB66C"/>
<path fill-rule="evenodd" clip-rule="evenodd" d="M8.50864 19.9092C8.10432 20.0281 7.70224 20.1437 7.29209 20.2526L6.07555 20.5787C5.67123 20.6977 5.26915 20.8132 4.86595 20.9322L4.26115 21.0986C4.06067 21.1564 3.85683 21.2073 3.64963 21.2653C3.84988 21.1981 4.05395 21.1293 4.25443 21.0715L4.85923 20.878C5.26355 20.7521 5.66563 20.6331 6.06883 20.5075C6.47987 20.4056 6.88441 20.2967 7.29545 20.1981C7.68611 20.0996 8.09737 20.0012 8.50864 19.9094V19.9092ZM3.89088 22.3933C4.09113 22.3185 6.40192 21.2415 6.93884 20.99C7.20764 20.8641 7.98896 20.5868 7.98896 20.5868L3.89088 22.3933Z" fill="#CFB66C"/>
<path fill-rule="evenodd" clip-rule="evenodd" d="M3.89088 22.3933C4.06739 22.3261 4.23405 22.2438 4.40384 22.1657L4.90672 21.9311L5.91606 21.4453C6.25206 21.2856 6.57866 21.1093 6.92518 20.9592C7.10192 20.8846 7.27866 20.8235 7.45517 20.7657L7.72397 20.6808C7.81558 20.657 7.9007 20.6297 7.99277 20.606C7.65677 20.7657 7.30307 20.9016 6.96662 21.0578C6.63062 21.2244 6.28701 21.3604 5.94026 21.5098L4.91411 21.9616C4.5696 22.1012 4.2336 22.2506 3.89066 22.3933H3.89088ZM4.11488 23.3341C4.11488 23.3341 6.20794 22.1074 6.92832 21.7132C7.30554 21.5026 8.52544 20.8976 8.52544 20.8976L4.11488 23.3341Z" fill="#CFB66C"/>
<path fill-rule="evenodd" clip-rule="evenodd" d="M4.11511 23.3345C4.46836 23.117 4.82855 22.8962 5.18874 22.6719L5.72634 22.3456C5.9098 22.2369 6.08654 22.135 6.27358 22.0264C6.45703 21.9175 6.63377 21.8089 6.82058 21.7069C6.90952 21.652 7.0027 21.6043 7.09924 21.5643L7.38462 21.4216C7.76183 21.2381 8.13905 21.0511 8.53665 20.8914C8.17646 21.1192 7.80596 21.3129 7.43569 21.5132C7.25223 21.6151 7.06519 21.7069 6.88174 21.8089C6.69828 21.9108 6.52154 22.0196 6.3345 22.1182C6.15105 22.2268 5.97431 22.3288 5.7875 22.4273L5.23354 22.7297L4.11556 23.3345H4.11511ZM8.50865 21.1664C8.50865 21.1664 7.20721 22.1655 6.78586 22.4849C6.36452 22.8043 5.12423 23.7014 5.12423 23.7014L8.50865 21.1664V21.1664Z" fill="#CFB66C"/>
<path fill-rule="evenodd" clip-rule="evenodd" d="M15.9777 29.2234L15.3117 27.9627L15.699 26.3859L18.4616 25.319L17.2858 22.9066L17.8669 20.4701L18.9578 18.2883L22.3288 17.7584L24.8058 15.3967L30.1544 15.801L31.2043 21.52L29.1825 28.7205L28.0307 32.4483L23.3616 32.625L21.1938 31.1231L18.6554 30.0627L15.9777 29.2234Z" fill="#E2CC85"/>
<path fill-rule="evenodd" clip-rule="evenodd" d="M24.1671 29.1825C24.1671 29.1825 23.5213 29.4782 22.4199 29.4101C22.1012 28.982 19.8688 28.7815 19.8688 28.7815C19.8688 28.7815 19.5901 28.6966 19.0973 28.9005C18.6014 29.1021 18.1324 29.0772 17.694 29.1858C17.2556 29.2945 16.8204 28.7237 16.4844 28.6048C16.1484 28.4791 15.7029 28.1767 15.7029 28.1767L14.7621 28.0849L12.8728 27.2863L9.87146 24.2961L9.05587 25.5729L8.80432 27.153L9.71175 29.0255L12.1549 31.2511L16.9189 32.4607L19.7427 31.6288L23.2801 30.1336L24.1671 29.1823V29.1825Z" fill="#F1D789"/>
<path fill-rule="evenodd" clip-rule="evenodd" d="M7.24127 18.6146L7.84607 16.7832L8.56667 15.6005L10.8873 15.4067L10.1907 17.4389L8.25061 20.8914L9.05589 23.9734L7.62879 24.6868L7.19019 24.0142L6.83695 22.4715L6.8132 20.7384L7.24127 18.6146Z" fill="#F4ECB4"/>
<path fill-rule="evenodd" clip-rule="evenodd" d="M9.84413 29.0567L9.39904 28.4349C9.39904 28.4349 9.28009 28.1392 9.34819 27.881C9.41539 27.6193 9.40576 27.6023 9.37193 27.5037C9.33811 27.4052 9.05251 27.0654 9.06953 26.7731C9.08633 26.4774 9.04579 26.3788 9.26307 26.1445C9.49065 25.9169 9.42278 25.5227 9.42278 25.5227L9.71846 25.7061L9.78566 25.6042C9.78566 25.6042 9.8943 25.6891 9.8943 25.8217C9.91805 25.6383 9.81949 24.7886 10.0437 24.5951C10.2679 24.4016 10.6655 25.5023 10.6655 25.5023L10.4209 23.9052L9.79216 22.2675L8.67417 20.7723L8.60697 19.1241V18.9814C8.60697 18.9814 8.09379 19.7699 7.9511 20.3926C7.84918 20.8207 8.09379 21.3406 8.04294 21.9557C8.00195 22.5675 7.9511 22.5197 8.10051 22.7621C8.24992 23.0045 8.61369 23.5029 8.47101 23.8631C8.34534 24.1724 7.91705 23.9549 7.91705 23.9549C7.91705 23.9549 7.83216 24.2062 7.71657 24.2981C7.67581 24.1487 7.63168 24.0535 7.55014 23.9621C7.5432 24.0199 7.5264 24.0981 7.5264 24.0981C7.5264 24.0981 7.45158 23.8635 7.37677 23.5678C7.27507 23.1738 7.16621 22.6539 7.06765 22.3753C7.02688 22.535 6.92496 23.0208 6.92496 23.0208L6.98275 23.7685L7.26141 24.7947L7.53021 25.4667L7.79184 26.289L8.0192 26.8414L8.20265 27.2627L8.36237 28.2109L9.1336 29.0263L9.54486 29.21L9.84368 29.057L9.84413 29.0567Z" fill="#F3E19D"/>
<path fill-rule="evenodd" clip-rule="evenodd" d="M7.64555 17.1194C7.64555 17.1194 7.0916 18.0602 6.93211 19.0086C6.77262 19.957 6.62971 20.9592 6.73051 22.2503C6.83243 23.552 7.02619 24.3503 7.18254 24.9213C7.45134 25.8695 8.14753 27.188 8.14753 27.188L8.17128 27.1369C8.05426 26.9151 7.96086 26.6816 7.89262 26.4402C7.80078 26.08 7.76673 25.652 7.68184 25.4582C7.60702 25.2647 7.48136 25.098 7.42021 24.8601C7.36241 24.6326 7.35301 24.2724 7.1756 24.004C7.10078 23.8951 7.00894 23.6098 6.98184 23.3244C6.94779 22.8961 6.99886 22.417 6.95809 22.023C6.88328 21.3671 6.83243 20.922 6.9003 20.5786C6.96817 20.2352 7.32187 19.2604 7.53937 18.4856C7.68206 17.9894 7.59694 17.5714 7.85857 17.1398C8.1202 16.7117 8.28014 16.3345 8.33771 16.0728C8.40491 15.835 7.64465 17.1194 7.64465 17.1194H7.64555Z" fill="#F2E8B0"/>
<path fill-rule="evenodd" clip-rule="evenodd" d="M10.2724 16.7422C10.2724 16.7422 9.98703 16.8273 9.85106 16.9767C9.71509 17.1194 9.6573 17.2383 9.47385 17.4796C9.29039 17.7208 9.28009 17.918 9.13045 18.2204C8.98105 18.516 8.65132 18.9611 8.61055 19.1208C8.56978 19.2806 8.50191 20.028 8.41701 20.3815C8.3422 20.735 8.50191 21.17 8.50191 21.17L8.69545 21.129C8.69545 21.129 8.69545 21.3806 8.88921 21.5506C9.08274 21.717 9.11679 20.9863 9.11679 20.9863L9.84053 18.5431L10.9312 17.8024L11.0501 17.2043L10.272 16.7422H10.2724Z" fill="#F5EEC0"/>
<path fill-rule="evenodd" clip-rule="evenodd" d="M10.8024 17.8501C10.8024 17.8501 10.2892 17.884 10.0379 18.0676C9.93596 18.1422 9.89519 18.2034 9.78655 18.2952C9.58607 18.4617 9.38201 18.6147 9.28367 18.8328C9.17481 19.0501 9.05586 19.3798 8.97433 20.0017C8.94028 20.2633 8.94028 20.5045 8.91653 20.7153C8.88249 21.0007 8.83164 21.2283 8.85874 21.3873C8.89279 21.7135 9.22924 21.8835 9.26194 22.2538L9.95858 21.9005L10.6145 19.3144L12.0077 18.4408L11.2193 17.5574L10.8015 17.8486L10.8024 17.8501Z" fill="#E6DB9D"/>
<path fill-rule="evenodd" clip-rule="evenodd" d="M7.12724 35.2641C7.13015 35.2386 7.13306 35.213 7.13597 35.1868C7.23767 34.3132 7.25492 33.6511 7.32951 33.2365C7.43815 32.6487 7.51297 32.4301 7.49594 32.2101C7.4722 31.8569 7.44509 31.5986 7.47914 31.3266C7.52999 30.9665 7.88346 30.5384 7.87338 30.2427C7.86644 30.0082 7.74749 29.8554 7.64557 29.7127C7.54365 29.57 7.46212 29.4511 7.46212 29.4511C7.46212 29.4511 8.15876 28.972 8.15204 27.0417C8.16626 27.0458 8.17995 27.0515 8.19281 27.0588L8.53597 28.0338L8.7705 28.3192L9.67098 29.9979L10.8297 31.1228L12.5422 32.2746L13.6161 33.4432L13.7247 36.5593L12.3213 38.3806L12.0915 38.7968C10.2656 37.8802 8.5913 36.6887 7.12701 35.2639L7.12724 35.2641Z" fill="#E5CB7A"/>
<path fill-rule="evenodd" clip-rule="evenodd" d="M11.4141 38.2452C11.4141 38.2452 11.4379 37.8579 11.7573 37.6063C11.8084 37.6912 11.8422 37.773 11.8321 37.8339C11.8899 37.7322 12.2942 37.0797 13.2084 36.9097C14.1225 36.7433 14.3434 36.0773 14.3434 36.0773L16.2834 34.3138L18.5024 32.2716L21.2005 31.3234L22.4614 31.014C22.4614 31.014 22.4851 31.1059 22.4376 31.3097C22.6719 31.2929 23.1918 31.174 23.7321 30.9836C23.9496 30.8987 24.1537 30.8646 24.2623 30.9768C24.422 31.1263 24.4458 31.4797 24.4559 31.6903C24.7175 31.6325 25.0199 31.3812 25.2623 31.4049C25.6498 31.4457 25.9929 31.9011 26.3872 31.9011C26.9071 31.9011 27.1414 31.5816 27.5052 31.3301C27.7227 31.1807 28.0351 30.9941 28.2119 30.868C28.6332 30.5586 33.0915 29.196 33.0915 29.196L34.6546 29.298L34.9061 30.9766L34.7717 35.3648C34.7551 35.3807 34.7386 35.3973 34.7218 35.4132L27.6147 39.1251L17.7632 40.6353C15.5564 40.2747 13.4268 39.5422 11.4652 38.469L11.4148 38.245L11.4141 38.2452Z" fill="#D8C173"/>
<path fill-rule="evenodd" clip-rule="evenodd" d="M7.72464 35.8222C7.86464 35.5294 7.99053 35.2846 8.0127 35.197C8.03018 35.3735 8.06221 35.7608 8.12672 36.1725C7.99127 36.0574 7.85725 35.9406 7.72464 35.822V35.8222Z" fill="#F1D789"/>
<path fill-rule="evenodd" clip-rule="evenodd" d="M14.9211 39.952L16.1952 39.5976L16.3038 39.6317C16.3038 39.6317 16.3616 39.6657 16.3616 39.7811C16.5213 39.6895 16.6573 39.7063 16.7559 39.6454C16.8067 39.754 16.8576 40.1142 17.082 40.1583C17.3163 40.2094 17.5679 40.0564 17.8228 39.8629C18.0741 39.6624 18.3604 39.4108 18.577 39.3089C18.6565 39.455 18.7269 39.6059 18.7878 39.7607C19.0732 39.5331 19.5693 38.6089 20.276 38.6257C20.4803 38.143 20.8216 37.7307 21.2576 37.4399C21.9135 36.9948 22.3245 36.9607 22.8377 37.0015C23.0415 36.7367 23.2927 36.5121 23.5785 36.3389C23.6634 36.3729 23.8979 36.5156 24.1902 36.3797C24.4859 36.2439 24.8188 35.7171 25.2571 35.6492C25.4934 35.6167 25.7335 35.6671 25.9367 35.7919C25.9367 35.7919 27.2135 34.5243 28.0945 34.1029C28.0605 34.001 27.9926 33.6171 29.0255 32.7674C29.0833 32.8185 29.0425 32.9612 29.0833 32.969C29.1001 32.969 29.3521 32.8604 29.671 32.6156C30.0653 32.3201 30.5375 32.0108 30.8229 31.9259C31.3605 31.7662 31.9308 32.0923 31.9308 32.0923C31.9793 32.0583 32.0333 32.033 32.0905 32.0175C32.2262 31.9937 32.3248 31.9767 32.3996 31.9503C32.3929 32.127 32.4914 32.4294 32.3996 32.6911C32.506 32.7509 32.6187 32.7987 32.7356 32.8337C32.678 32.9594 32.5521 33.2788 32.3416 33.4318C32.5181 33.5167 32.5418 33.6153 32.7934 33.7006C32.6915 33.8433 32.5246 34.0881 32.4502 34.2382C32.3754 34.3979 32.1068 35.0605 31.9879 35.3119C31.8622 35.5634 31.6924 36.0255 31.6107 36.1183C31.5289 36.211 31.2334 36.6041 31.0059 36.7976C31.2075 36.7228 32.0322 36.4715 32.3821 36.3763C32.278 36.5291 31.75 37.3124 31.2424 38.0657C28.8121 39.5224 26.0993 40.4443 23.2847 40.7702C20.4701 41.096 17.6183 40.8182 14.9195 39.9554L14.9211 39.952Z" fill="#E0CD81"/>
<path fill-rule="evenodd" clip-rule="evenodd" d="M10.8864 17.7583C10.8864 17.7583 10.591 17.7583 10.5332 17.799C10.4754 17.8398 10.8288 17.9249 10.9375 17.9657C11.0461 18.0065 11.2807 18.1933 11.3418 18.3429C11.3996 18.4856 13.4655 19.318 13.4655 19.318L14.9267 19.2432L15.4305 18.5472L14.4722 17.7079L15.1442 15.7268L14.254 15.8695L12.1133 17.1463L11.0394 17.5576L10.8864 17.7583Z" fill="#DFC57C"/>
<path fill-rule="evenodd" clip-rule="evenodd" d="M14.0952 18.414C14.1163 18.4482 14.1461 18.4763 14.1815 18.4953C14.2169 18.5144 14.2566 18.5238 14.2968 18.5227C14.5992 18.5227 14.8776 18.5975 14.9932 18.7503C15.187 18.9951 15.7239 19.7766 15.7239 19.7766L17.0083 20.2387L17.0912 18.7263L15.6878 17.7512L14.0907 18.339V18.4138H14.0943L14.0952 18.414Z" fill="#E5CC7C"/>
<path fill-rule="evenodd" clip-rule="evenodd" d="M13.8432 18.9749C13.8432 18.9749 14.0775 18.9919 14.3732 18.8831C14.6689 18.7742 15.1547 18.5399 15.3655 18.6317C15.661 18.7574 15.5998 19.1516 15.9195 19.5053C16.113 19.7228 16.4665 19.7161 16.667 19.9506C16.8674 20.1852 17.5571 20.0763 17.5571 20.0763L17.8188 21.4875L16.7689 22.8333L16.4255 24.505H15.0058L13.7088 23.9905L13.07 22.4449L13.3894 20.8818L13.8432 18.9749Z" fill="#D2C281"/>
<path fill-rule="evenodd" clip-rule="evenodd" d="M16.5895 19.0428C16.6247 19.0536 16.6613 19.0594 16.6981 19.0598C16.6573 19.0939 16.5722 19.1685 16.6063 19.3622C16.6403 19.556 16.7489 19.8006 16.6573 19.95C16.7305 20.03 16.785 20.1251 16.817 20.2287C16.8748 20.3953 16.8919 20.5481 17.2689 20.572C17.2144 20.6055 17.1643 20.6455 17.1194 20.691C17.1194 20.691 17.3811 20.9186 17.5137 21.1291C17.6494 21.1233 18.0096 21.0113 18.0096 21.0113L18.0844 21.0624L18.2441 20.9952C18.2441 20.9952 18.0947 20.9374 18.2034 20.5738C18.3053 20.2544 18.3971 20.2714 18.405 20.2477C18.4128 20.2239 18.4798 19.8875 18.4798 19.7515C18.5306 19.575 18.5714 19.0381 18.5714 19.0381L18.4628 17.8522L17.8513 17.4817L17.354 17.0017L16.8849 17.8852L16.576 18.1932L16.5523 18.9577L16.5895 19.0428Z" fill="#E2C270"/>
<path fill-rule="evenodd" clip-rule="evenodd" d="M18.0607 18.0506C18.0607 18.0506 18.1693 18.3597 18.2103 18.5976C18.2247 18.5514 18.2327 18.5033 18.234 18.4549C18.234 18.4549 18.3189 18.924 18.3357 19.1177C18.3698 19.1108 18.4029 19.1007 18.4106 19.1345C18.4182 19.1684 18.4957 19.5458 18.4778 19.7564C18.6193 19.5229 18.8151 19.3271 19.0485 19.1856C19.1845 19.1005 19.3442 19.0089 19.5108 19.0019C19.7725 18.9952 19.9627 19.1686 20.2754 19.1686C21.0296 19.1686 21.7128 18.6146 22.2156 18.4448C22.5859 18.3189 22.9053 18.2273 23.1296 18.0233C23.2384 17.9317 23.4322 17.7278 23.6087 17.4252C23.8432 17.022 24.0878 16.671 24.3327 16.6269C24.2219 16.6472 24.1092 16.6552 23.9967 16.6506C23.9967 16.6506 24.0715 16.5758 24.1983 16.4739C24.3251 16.3719 24.4769 16.2463 24.6942 16.2463C25.0817 16.2463 25.2753 16.3038 25.4928 16.3038C25.7103 16.2971 25.8359 16.2463 25.8359 16.2463C25.8359 16.2463 26.0637 16.406 26.5767 16.406C27.0899 16.4127 27.4331 16.4568 27.7016 16.4808C27.9702 16.5048 28.8705 16.406 29.1287 16.4136C29.2971 16.4201 29.4625 16.4606 29.6148 16.5325L28.7822 14.1133L25.7914 11.4993L24.0108 12.7599L21.2717 15.4988L18.6213 16.4808L18.0674 17.1026V18.0506H18.0607Z" fill="#CCB360"/>
<path fill-rule="evenodd" clip-rule="evenodd" d="M24.0074 16.6641C24.0074 16.6641 24.0822 16.5895 24.2077 16.4876C24.3331 16.3857 24.4866 16.2598 24.7038 16.2598C25.0911 16.2598 25.2849 16.3176 25.5024 16.3176C25.7199 16.3109 25.8456 16.2598 25.8456 16.2598C25.8456 16.2598 26.0736 16.4193 26.5863 16.4193C27.0995 16.426 27.4427 16.4701 27.7113 16.4939C27.9798 16.5176 28.8801 16.4193 29.1384 16.4267C29.3067 16.433 29.472 16.4735 29.6242 16.5456L29.247 15.4548L28.8089 14.6224L27.5583 13.2528C27.5583 13.2528 26.0575 12.3694 26.046 12.3627C26.0393 12.3559 25.5261 12.22 25.5261 12.22L24.1669 13.0423L22.9336 16.2332L22.9098 16.9052L23.7082 17.2824C23.9086 16.9464 24.1297 16.6776 24.3369 16.6435C24.1499 16.6639 24.0072 16.6639 24.0072 16.6639L24.0074 16.6641Z" fill="#D5B457"/>
<path fill-rule="evenodd" clip-rule="evenodd" d="M23.9904 16.8918C23.8715 16.8986 23.7731 16.8748 23.7458 16.7899C23.6439 16.5046 23.5623 16.4638 23.477 16.4638C23.3917 16.4638 23.2765 16.6472 23.2082 16.664C23.1399 16.6808 23.0588 16.4535 23.0588 16.4535L22.984 16.4194C22.984 16.4194 22.5456 16.7048 22.2365 17.0413C21.9274 17.3777 21.4209 17.9487 21.1933 18.0504C20.9657 18.1521 20.184 18.1863 19.9165 18.2441C19.6491 18.3019 19.3525 18.4957 19.3117 18.5398C19.271 18.5839 19.4309 18.6314 19.4546 18.6756C19.4784 18.7163 19.1928 18.6993 19.169 18.7428C19.1522 18.7768 19.2362 18.9703 19.2779 19.0689C19.3508 19.0327 19.4308 19.0129 19.5122 19.0111C19.7738 19.0044 19.9642 19.1778 20.2767 19.1778C21.0311 19.1778 21.7141 18.6238 22.217 18.4538C22.5875 18.3281 22.9069 18.2363 23.1311 18.0325C23.2398 17.9408 23.4335 17.7368 23.6103 17.4344C23.7393 17.2272 23.8652 17.0334 23.9911 16.8907L23.9904 16.8918Z" fill="#D2B257"/>
<path fill-rule="evenodd" clip-rule="evenodd" d="M13.1712 33.7088C13.1712 33.7088 13.104 33.4573 12.4813 32.8083C12.3045 32.6249 12.1959 32.4723 12.077 32.3632C11.7813 32.0844 11.6079 32.0098 11.3973 31.8501C10.9352 31.5069 10.4324 31.5069 10.0451 31.0855C9.65777 30.6642 9.20641 29.8591 8.89281 29.0364C8.58369 28.2141 8.49857 27.9525 8.49857 27.9287C8.49857 27.905 8.58369 27.7453 8.69233 27.769C8.80097 27.7927 8.80097 28.0033 8.82829 28.0544C8.88242 28.1377 8.94381 28.2161 9.01175 28.2887C9.17146 28.4724 9.39905 28.6919 9.51463 29.0194C9.49089 28.7407 9.39569 28.4316 9.39569 28.4316C9.39569 28.4316 9.99377 28.8088 10.5034 29.2028C11.0165 29.5971 11.2271 29.733 11.377 29.9844C11.5268 30.2357 11.8798 30.8985 12.049 31.0923C12.2181 31.286 14.5354 32.0165 14.5354 32.0165L15.6377 32.8383L16.1849 34.0379L15.7566 34.7099L14.9343 34.8866L13.5988 34.2885L13.1712 33.7086V33.7088Z" fill="#D2B159"/>
<path fill-rule="evenodd" clip-rule="evenodd" d="M10.2043 29.5766C10.2043 29.5766 10.483 30.0217 11.1626 30.4431C11.7743 30.8136 12.7427 31.15 13.606 31.3505C14.1019 31.4694 14.5981 31.5611 15.0432 31.568C16.2427 31.5848 17.0683 31.2419 18.0914 31.1296C18.6453 31.0718 19.3249 31.0277 20.0316 30.8608C20.9388 30.6433 21.4758 30.3985 22.2065 30.0544C22.7364 29.8098 23.2225 29.6264 23.6165 29.3918C24.1705 29.0657 24.5748 28.7021 25.0439 28.5935C24.9861 28.7532 24.9249 29.0386 24.4628 29.3343C24.7074 29.3273 25.0439 29.3105 25.0439 29.3105C25.0439 29.3105 24.7177 29.5041 24.1434 29.9391C23.7899 30.2079 23.3211 30.6628 22.8419 30.9652C22.5326 31.159 22.1962 31.3012 21.9753 31.4173C21.4377 31.7129 21.2209 31.8623 20.8676 32.2237C20.9933 32.2169 21.0036 32.2237 21.0036 32.2237C21.0036 32.2237 20.5583 32.2814 20.2391 32.4512C20.1719 32.4512 20.0554 32.4275 19.8515 32.4853C19.6918 32.5361 19.4811 32.6519 19.2638 32.7129C18.9544 32.8047 18.8527 32.7639 18.8527 32.7639L18.9036 32.8659C18.9036 32.8659 18.5004 32.8589 18.366 32.8726C18.3897 32.8793 18.383 32.8896 18.383 32.8896C18.3594 32.8936 18.3367 32.9016 18.3158 32.9133C18.2511 32.9552 18.18 32.9862 18.1052 33.005C18.0645 33.0117 18.0304 33.0117 17.9794 33.022C17.9964 33.0628 18.129 33.2908 18.1901 33.4252C18.1393 33.4592 17.3746 34.0369 17.3746 34.0369C17.3983 34.0743 17.4177 34.1142 17.4323 34.1559C17.4561 34.2305 17.4664 34.3393 17.4901 34.3902C17.5477 34.4921 17.5818 34.5091 17.5818 34.5091C17.5818 34.5091 17.4901 34.5261 17.3302 34.5669C17.1945 34.601 17.0278 34.6585 16.7926 34.6926C16.7204 34.702 16.6478 34.7076 16.5751 34.7096C16.6091 34.7844 16.7586 35.0698 16.4833 35.3993C16.208 35.7288 16.1231 35.7767 16.0382 35.9873C15.9954 35.955 15.9499 35.9265 15.9022 35.9022C15.8106 35.8614 15.6847 35.8005 15.6406 35.7187C15.6148 35.8277 15.5808 35.9344 15.5387 36.0381C15.4538 36.2657 15.3281 36.4902 15.3043 36.66C15.2125 36.558 15.0427 36.3576 14.8082 36.3983C14.5737 36.4391 14.3868 36.7585 14.3461 36.8504C14.3461 36.7926 14.3053 36.7484 14.2952 36.8163C14.2883 36.8911 14.1593 37.6725 13.4389 38.3046C13.4322 38.1449 13.4322 37.7914 13.4151 37.676C13.3479 37.7432 13.2657 37.8425 12.7763 38.0533C12.2971 38.2638 12.3731 38.4746 12.3731 38.4746C12.3731 38.4746 12.3323 38.1386 12.5906 37.7847C12.8522 37.4314 13.0119 37.2648 13.0119 37.2377C13.0077 37.2101 12.9959 37.1842 12.9779 37.1629C12.9438 37.1288 12.876 37.088 12.876 37.0609C12.9167 37.0441 13.3211 36.8504 13.2973 36.4492C13.2736 36.0892 13.1208 35.9022 13.0119 35.7698C12.9951 35.7528 13.1719 35.6271 13.1479 35.5863C13.1309 35.5626 12.9136 35.4027 12.8863 35.3175C12.8927 35.2667 12.9041 35.2167 12.9203 35.1681C12.9441 35.0933 12.9611 35.0422 12.9544 34.9914C12.9373 34.9065 12.8455 34.672 12.8184 34.6482C12.8421 34.6549 13.0119 34.6482 13.0119 34.6482C13.0119 34.6482 12.8762 34.4307 12.8522 34.3288C12.8283 34.2269 12.7774 33.9583 12.7503 33.9075C12.8081 33.9142 12.9508 33.9243 12.9508 33.9075C12.9577 33.8564 12.8251 33.7715 12.8836 33.7059C12.9243 33.7126 13.0025 33.7466 13.0771 33.8418C13.0363 33.733 12.9685 33.5224 12.8256 33.4375C12.8928 33.4138 13.1212 33.3524 13.3217 33.4713C13.5222 33.5903 13.5905 33.7567 13.5905 33.7567C13.5905 33.7567 13.7095 33.8485 13.8931 33.9845C14.1037 34.1509 14.3721 34.3877 14.8003 34.5553C14.8922 34.6063 15.1265 34.6063 15.2965 34.5723C15.3705 34.5547 15.4415 34.526 15.5071 34.4874C15.5307 34.4734 15.5558 34.462 15.5819 34.4533C15.5454 34.38 15.5033 34.3096 15.4562 34.2426C15.514 34.2426 15.5819 34.2495 15.5819 34.2495C15.5819 34.2495 15.6227 34.1577 15.4392 33.9807C15.48 33.9399 15.531 33.9135 15.531 33.8447C15.4732 33.838 15.3713 33.7531 15.3476 33.7191C15.3814 33.6953 15.4325 33.6172 15.4903 33.5934C15.4392 33.5526 15.3135 33.3826 15.2557 33.3658C15.3109 33.3453 15.3644 33.3203 15.4155 33.291C15.4155 33.291 15.1301 33.2162 15.0382 33.155C14.9464 33.0878 14.8107 32.9716 14.7291 32.9375C14.644 32.9035 14.4946 32.8867 14.4334 32.8186C14.491 32.8356 14.5828 32.8186 14.6509 32.8186C14.7018 32.8186 14.7258 32.8253 14.7426 32.8253C14.7358 32.8016 14.7358 32.7505 14.8684 32.7337C14.9322 32.7241 14.9941 32.7046 15.0519 32.6759C15.0519 32.6759 14.926 32.6692 14.7831 32.5332C14.6402 32.3973 14.5215 32.2886 14.4399 32.2716C14.355 32.2546 14.1953 32.3294 14.0968 32.3224C13.9608 32.3056 13.903 32.2375 13.903 32.2375C13.903 32.2375 13.4512 32.2783 12.4488 31.6668C11.5821 31.1366 11.2049 30.6677 11.2049 30.6677C11.1238 30.6383 11.0454 30.6019 10.9706 30.5589C10.6445 30.3891 10.1924 30.0356 10.2061 29.5733L10.2043 29.5766Z" fill="#C2A44D"/>
<path fill-rule="evenodd" clip-rule="evenodd" d="M22.7058 9.18151C22.7844 9.20705 22.8542 9.25416 22.9074 9.31748C23.0671 9.50094 23.169 9.84746 22.8054 10.218C22.9481 10.2688 23.007 10.2852 23.1316 10.2688C23.0059 10.4184 22.7205 10.7379 22.7035 11.0165C22.6865 11.2441 22.8292 11.3122 22.8292 11.3122C22.8292 11.3122 22.6117 11.5635 22.6016 11.9842C22.7043 11.8684 22.8167 11.7615 22.9376 11.6648C23.1892 11.4643 23.5357 11.2367 23.7702 11.094C23.767 11.1538 23.7751 11.2137 23.794 11.2705C23.794 11.2705 24.2321 10.9103 24.6004 11.0703C24.7668 11.1451 24.692 11.3794 24.692 11.3794C24.692 11.3794 24.9198 11.2945 25.0795 11.4542C25.2392 11.6139 25.465 12.0259 25.5808 12.1856C25.6317 12.2604 25.7643 12.4031 25.9 12.6239C26.0855 12.9332 26.2403 13.2597 26.3623 13.599C26.3691 13.4223 26.4132 13.1472 26.9163 13.3204C27.4192 13.4971 27.9899 13.8676 28.4691 14.5972C28.9482 15.3267 29.0669 16.1504 29.3082 16.464C29.5528 16.7664 29.8043 17.2693 29.8213 17.48C29.8384 17.6908 29.7465 18.3702 30.2494 20.2086C30.3921 19.6378 30.6096 18.3702 30.6096 18.3702L30.7285 17.2522L30.8645 13.793L27.2523 10.7921L24.4285 8.74292L22.5902 8.91966L22.7055 9.18129L22.7058 9.18151Z" fill="#CAA13E"/>
<path fill-rule="evenodd" clip-rule="evenodd" d="M29.417 14.3295C29.417 14.3295 29.3659 13.9935 28.5165 13.4223C27.6669 12.8583 27.0043 12.8583 26.3928 12.3792C25.9237 12.002 25.4345 11.1353 25.116 10.8499C24.8066 10.5679 24.7558 9.75233 24.7558 9.75233L25.799 8.87873L27.3504 6.63627L28.6619 5.19214L29.2905 6.06574L30.1641 7.09188L30.6499 9.15111L30.8266 12.1653L29.4154 14.3298L29.417 14.3295Z" fill="#B59544"/>
<path fill-rule="evenodd" clip-rule="evenodd" d="M30.4671 17.9423C30.4928 17.4852 30.4364 17.0272 30.3005 16.59C30.0765 15.8934 29.587 14.6564 29.3597 14.1932C29.2678 13.68 29.3359 13.6393 29.4345 13.5815C29.533 13.5237 29.9035 13.3127 30.1065 12.5723C30.3094 11.832 30.9391 11.8078 30.9391 11.8078L31.3264 11.5225L31.9144 12.9937L32.4274 14.3225L32.5871 15.3385L32.706 16.205L32.4274 18.0366L31.0513 19.2803L30.4669 17.9423H30.4671Z" fill="#C89D3A"/>
<path fill-rule="evenodd" clip-rule="evenodd" d="M11.2647 38.3576V38.3199C11.2933 38.3021 11.3186 38.2793 11.3393 38.2527C11.3631 38.2187 11.3803 38.1779 11.3971 38.1678C11.4312 38.1508 11.5909 38.1006 11.6758 38.1168C11.7607 38.1329 11.9851 38.2254 12.1041 38.2187C12.3487 38.212 12.6341 38.0249 13.0861 38.1101C13.7657 38.2357 13.9254 38.6978 14.3197 38.9595C14.5885 39.1431 14.8667 39.0614 14.9074 39.0614H14.999C15.0161 39.0614 15.1417 38.9187 15.2098 38.9256C15.3458 38.9324 15.3592 39.0446 15.4441 39.0513C15.6446 39.075 16.0321 38.9494 16.2259 39.0005C16.2833 39.0185 16.3356 39.0501 16.3782 39.0926C16.4208 39.1352 16.4524 39.1874 16.4705 39.2448C16.5113 39.3705 16.4772 39.5302 16.3787 39.6221C16.1681 39.8156 15.9676 39.9993 15.9269 40.1597C15.9787 40.1992 16.0285 40.2414 16.076 40.286C14.3947 39.8576 12.7771 39.2099 11.2647 38.3596V38.3576Z" fill="#CEB052"/>
<path fill-rule="evenodd" clip-rule="evenodd" d="M29.3592 31.5681C29.3592 31.5681 29.8892 30.8614 30.0729 30.5113C30.2563 30.1504 29.4918 25.5808 29.4918 25.5808L31.0278 20.5485L30.9868 18.9106C30.9868 18.9106 31.0616 17.3983 31.2384 16.7425C31.4491 17.1197 32.105 17.5751 32.2477 17.8163C32.3149 17.354 32.5432 16.3789 32.5093 15.3391C32.635 15.5326 32.9374 17.4799 32.9374 17.4799L33.2398 18.7914L33.634 20.1847L34.0724 21.6561L34.334 22.6722L34.4834 22.9168L34.6093 23.3449L34.7283 23.8072L35.0714 24.8911L35.273 25.7813L35.4328 27.3955C35.4675 27.5191 35.4925 27.6452 35.5076 27.7727C35.5143 27.9494 35.4838 28.0513 35.4838 28.082C35.4838 28.1127 35.5416 28.4693 35.5179 28.7379C35.4838 29.0067 35.4838 29.217 35.273 29.4099C35.0623 29.6028 34.9299 30.7555 34.9299 30.7555L34.5527 30.5041C34.5527 30.5041 34.6275 30.1607 34.4507 29.8483C34.274 29.5358 33.9308 29.471 33.7371 29.5221C33.5435 29.5629 33.1562 29.6238 33.0304 29.7327C32.9114 29.8413 32.6193 30.1778 32.3507 30.3308C32.0147 30.5324 31.4673 30.5483 31.1752 30.6161C30.8795 30.6833 30.5534 30.8849 30.21 31.119C29.9407 31.2933 29.6565 31.4433 29.3606 31.567V31.567L29.3592 31.5681Z" fill="#CCA847"/>
<path fill-rule="evenodd" clip-rule="evenodd" d="M29.3592 38.9929C29.3592 38.9929 29.3816 39.0074 29.4249 39.0312C31.839 37.9001 34.0021 36.2968 35.7865 34.316C35.767 33.6283 35.7417 32.9234 35.7139 32.6622C35.6563 32.1082 35.6971 31.5442 35.6801 31.2181C35.663 30.8919 35.4796 29.5631 35.3947 29.22C35.3028 28.8768 35.1259 28.7068 35.099 28.7068C35.0753 28.7137 34.9323 29.3526 34.9323 29.5132C34.9323 29.6738 34.8983 30.0604 34.8983 30.159C34.8745 30.152 34.8645 30.0918 34.8645 30.0671C34.8304 30.152 34.7897 30.3017 34.7726 30.3187C34.7556 30.3357 34.7964 30.176 34.7726 30.142C34.7489 30.1079 34.7054 30.1249 34.7148 30.04C34.7189 29.9897 34.7268 29.9397 34.7386 29.8906C34.7386 29.8906 34.6367 30.04 34.5621 30.4206C34.4873 30.7978 34.4873 30.8081 34.4601 30.842C34.4364 30.8829 34.3004 31.0187 34.2935 31.0698C34.2868 31.1614 34.4194 31.2532 34.4295 31.3041C34.4362 31.3892 34.3105 31.7832 34.2697 31.9761C34.229 32.1689 34.246 32.5468 34.2025 32.7406C34.1685 32.9173 34.1353 33.0192 34.0191 33.0938C34.104 33.1109 34.1855 33.1346 34.1855 33.1346C34.1855 33.1346 34.3045 33.6375 34.0021 34.0658C33.8934 34.2152 33.8663 34.2833 33.7507 34.4192C33.5229 34.6706 33.3462 34.9568 33.3292 35.143C33.3174 35.088 33.3095 35.0324 33.3054 34.9763C33.3054 34.9763 32.9522 35.3876 32.8025 35.6221C32.609 35.9245 32.3404 35.9075 32.2649 35.9823C32.1895 36.0571 32.1731 36.1929 32.1977 36.3017C32.1305 36.3185 32.0042 36.3425 31.9191 36.6041C31.8783 36.7399 31.7764 36.8729 31.6167 36.9643C31.457 37.0557 31.2632 37.0833 31.1647 37.107C31.2496 37.1308 31.2836 37.1308 31.3244 37.1579C31.2735 37.2428 31.039 37.3754 30.7774 37.5454C30.5157 37.7051 30.3898 37.9394 30.3253 38.0924C30.2581 38.2351 30.1589 38.3269 29.9992 38.3439C30.0664 38.3847 30.1658 38.4797 30.2167 38.5104C30.1419 38.5274 30.0151 38.5274 29.7886 38.7212C29.5507 38.9183 29.4692 38.9761 29.3603 38.9931L29.3592 38.9929Z" fill="#C39D3C"/>
<path fill-rule="evenodd" clip-rule="evenodd" d="M24.631 40.5676C24.7611 40.4764 24.9021 40.4017 25.0506 40.3452C25.5806 40.1346 26.1412 40.0938 26.3621 40.026C26.5729 39.9588 26.7393 39.866 27.001 39.8152C26.994 39.8748 26.9882 39.9308 26.9819 39.9836C26.2106 40.2261 25.4251 40.4211 24.6299 40.5676H24.631Z" fill="#D2BA6B"/>
<path fill-rule="evenodd" clip-rule="evenodd" d="M34.4064 26.6274C34.4064 26.6274 34.2978 27.2152 34.104 27.5857C33.9102 27.9562 33.7008 28.4691 33.7008 28.4691C33.7021 28.3535 33.7157 28.2384 33.7416 28.1257C33.497 28.2684 32.9022 28.6118 32.7336 28.7646C32.5739 28.9073 32.3053 29.1588 32.2374 29.2778C32.3971 28.8089 32.5636 28.3876 32.5909 28.1938C32.3463 28.3706 31.2043 29.3118 30.6098 29.9336L28.7578 31.4322C28.5441 31.5475 28.324 31.6506 28.0986 31.7409C27.7794 31.8766 27.4021 31.9922 27.1235 32.1011C27.1983 31.9006 27.317 31.7236 27.4837 31.5538C27.6604 31.3874 28.1904 30.8131 28.2719 30.5458C28.3468 30.2672 28.3638 30.1008 28.2652 29.8662C28.1734 29.89 27.9628 29.9003 27.8201 29.941C27.6774 29.9818 27.5245 30.1346 27.5245 30.1346C27.5245 30.1346 27.6331 29.5128 27.8676 28.925C27.6909 28.9317 27.3885 28.9825 27.3885 28.9825C27.3885 28.9825 27.8098 28.2758 28.5309 27.7832C28.3101 27.8303 28.094 27.8973 27.8853 27.9835C27.464 28.1602 27.0019 28.4219 26.6587 28.5646C26.8522 28.2958 28.2115 26.3559 29.0203 24.548C29.8267 22.7437 30.128 22.2816 30.3047 21.3132C30.3964 20.8341 30.3719 20.126 30.3964 19.4919C30.4201 18.8631 30.4983 18.2991 30.4474 17.9219C30.658 18.1835 31.4465 18.9209 31.4736 20.5691C31.4973 22.2171 30.7194 24.443 29.8935 25.6423C30.0951 25.7001 30.6174 25.7681 31.1541 24.8359C31.6909 23.9036 31.6844 23.6433 31.8781 23.2558C31.9019 23.4495 31.8949 23.5174 31.8949 23.5174C31.8949 23.5174 32.6767 22.5694 33.0469 21.3766C33.1218 21.8898 33.3426 22.3418 32.9959 23.2831C32.6868 24.1325 32.2824 24.3399 32.2824 24.3399C32.2824 24.3399 32.4829 24.3059 32.7784 24.1291C32.8294 24.2548 32.8194 24.3979 32.9043 24.4486C32.9892 24.4992 33.1047 24.5845 33.1218 24.6661C33.2134 24.5301 33.3561 24.3567 33.4004 24.2277C33.3664 24.4965 33.3426 25.6718 33.4676 26.2699C33.7295 26.2462 33.9978 26.2291 34.1813 25.7567C34.0556 26.2191 34.0556 26.4975 34.1405 26.8917C34.2798 26.7968 34.4055 26.6267 34.4055 26.6267L34.4064 26.6274Z" fill="#C0993A"/>
<path fill-rule="evenodd" clip-rule="evenodd" d="M25.5772 7.89721C25.5772 7.89721 25.3156 8.00585 24.8705 8.00585C24.4832 8.00585 24.5918 7.85645 23.987 7.85645C23.0561 7.85645 19.8041 8.39405 19.2331 8.38643C18.8626 8.37971 20.4835 8.54614 20.4835 8.54614L24.6259 8.60393L25.4583 8.53673L25.7676 7.90729L25.5772 7.89721Z" fill="#A88F33"/>
<path fill-rule="evenodd" clip-rule="evenodd" d="M14.836 15.9947C14.836 15.9947 14.3058 16.3991 14.0815 16.7084C13.8573 17.0177 13.7384 17.2214 13.4835 17.4729C13.5433 17.4752 13.6031 17.4672 13.6602 17.4492C13.6602 17.4492 13.6602 17.5164 13.6194 17.5341C13.6547 17.5301 13.6903 17.5341 13.7238 17.5457C13.7573 17.5574 13.7878 17.5763 13.813 17.6013C13.7381 17.642 13.5343 17.8461 13.694 18.0873C13.813 18.2708 14.0645 18.2876 14.0645 18.2876C14.0645 18.2876 14.0067 18.4543 14.248 18.4372C14.7679 18.4135 15.3489 18.1857 15.6173 18.2435C15.8861 18.3107 16.0389 18.3353 16.229 18.665C16.4306 18.9912 16.6062 19.0423 16.6062 19.0423C16.6062 19.0423 16.7252 18.7396 16.6981 18.2878C16.7956 18.0443 16.8497 17.7855 16.8578 17.5233L16.6811 16.2219L15.9098 15.2466L14.9108 15.8005L14.836 15.9941V15.9947Z" fill="#E3C571"/>
<path fill-rule="evenodd" clip-rule="evenodd" d="M15.7839 15.8009C15.7839 15.8009 15.8588 15.9776 16.1715 15.9944C16.1374 16.0692 16.1374 16.0795 16.1477 16.1371C16.1544 16.1949 16.1645 16.2798 16.1645 16.2798C16.1989 16.2631 16.2301 16.2404 16.2564 16.2126C16.2734 16.2874 16.2393 16.4061 16.2564 16.4913C16.2669 16.543 16.2839 16.5932 16.3072 16.6407C16.3122 16.629 16.3178 16.6177 16.3242 16.6068C16.3309 16.5898 16.3914 16.7903 16.5588 16.9428C16.5586 16.9194 16.5644 16.8963 16.5756 16.8756C16.5781 16.9182 16.5922 16.9594 16.6163 16.9946C16.6038 16.9886 16.5924 16.9806 16.5825 16.9708C16.5825 16.9708 16.5993 17.5084 16.6911 17.7864C16.7065 17.7685 16.7201 17.7491 16.7319 17.7286C16.7319 17.7118 16.7252 17.8783 16.7082 17.9974C16.6844 18.1164 16.7014 18.2828 16.7014 18.2828C16.7627 18.2346 16.83 18.1946 16.9017 18.1639C17.0036 18.1229 17.1705 17.9972 17.2722 17.7186C17.3312 17.5607 17.3767 17.3982 17.4082 17.2327C17.441 17.2959 17.4637 17.364 17.4754 17.4343C17.4823 17.5192 17.642 17.4751 17.642 17.4751L17.6761 17.1046L17.8777 16.2652L18.0611 15.7453L18.9446 14.3693L20.5408 13.14L21.9341 13.4594L23.1096 11.8623L21.0844 10.6458L19.1679 10.8462L17.4285 13.2554L16.0355 15.4405L15.7839 15.8007V15.8009Z" fill="#D8B65B"/>
<path fill-rule="evenodd" clip-rule="evenodd" d="M25.8218 12.3146C25.8218 12.3146 25.7029 12.3383 25.3597 12.5162C25.0165 12.694 24.7787 12.7505 24.646 13.0121C24.5134 13.2737 24.5034 13.4811 24.5034 13.4811C24.5034 13.4811 24.7379 13.3792 24.8739 13.3452C25.0165 13.3114 25.1763 13.3214 25.1592 13.3792C25.1429 13.4189 25.1202 13.4555 25.092 13.4879C25.092 13.4879 25.3608 13.4811 25.3537 13.6138C25.3465 13.7464 25.3028 13.8924 25.252 13.9569C25.2009 14.0241 24.9903 14.1236 24.9666 14.2018C24.9088 14.3615 24.9903 14.3682 24.9596 14.4972C24.9359 14.6231 24.8239 14.8677 24.4568 15.2958C24.0795 15.7241 23.9192 16.0265 23.9192 16.0265C23.9192 16.0265 23.7357 15.6833 23.6405 15.3876C23.5733 15.4214 23.2124 15.6219 23.2124 15.6219L22.3765 12.7099L22.3933 12.5162C22.3933 12.5162 22.4681 12.4245 22.4851 12.2545C22.3595 12.2138 22.3424 12.1797 22.1758 12.0202C22.0091 11.8607 21.8734 11.6667 21.5949 11.5341C21.5542 11.4593 21.5031 11.3576 21.2993 11.3166C21.0954 11.2756 20.9731 11.242 20.9731 11.242C20.9731 11.242 21.0818 11.201 21.1328 11.1162C21.0069 11.1332 20.9052 11.1739 20.6299 11.1672C20.3513 11.1603 20.3206 11.1502 20.1678 11.1739C20.0151 11.1977 19.8318 11.2658 19.7635 11.0313C19.6887 10.9735 19.529 11.0245 19.393 11.2248C19.2571 11.425 19.2096 11.585 18.9479 11.6632C18.9295 11.7785 18.8892 11.8892 18.829 11.9893C18.7542 12.1152 18.6352 12.2409 18.4755 12.4277C18.224 12.7234 18.2647 13.2092 17.8638 13.5797C17.4595 13.95 17.931 12.5533 17.931 12.5533L18.5765 11.0077L20.4149 9.21014L23.2693 9.0166L23.548 10.495L24.9413 10.9741L25.8214 12.3163L25.8218 12.3146Z" fill="#D3AE4D"/>
<path fill-rule="evenodd" clip-rule="evenodd" d="M26.2738 12.6407L25.0743 10.9112L24.235 10.2654C24.235 10.2654 23.6369 9.16466 23.5962 9.13061C23.5621 9.10687 22.9981 9.04572 22.6379 9.02197L22.7051 9.18841C22.7837 9.21394 22.8536 9.26105 22.9067 9.32437C23.0664 9.50783 23.1683 9.85436 22.8048 10.2249C22.9475 10.2757 23.0064 10.2921 23.1309 10.2757C23.0052 10.4253 22.7199 10.7448 22.7028 11.0234C22.6858 11.251 22.8285 11.3189 22.8285 11.3189C22.8285 11.3189 22.611 11.5704 22.6009 11.9909C22.7036 11.875 22.816 11.7682 22.9369 11.6714C23.1885 11.4698 23.535 11.2432 23.7695 11.1005C23.7663 11.1603 23.7744 11.2203 23.7933 11.2772C23.7933 11.2772 24.2314 10.917 24.5997 11.0767C24.7661 11.1515 24.6913 11.3861 24.6913 11.3861C24.6913 11.3861 24.9191 11.3012 25.0788 11.4609C25.2385 11.6206 25.4661 12.0316 25.5817 12.1916C25.6325 12.2664 25.7651 12.4091 25.9009 12.6297C26.0864 12.939 26.2412 13.2656 26.3632 13.605C26.3699 13.469 26.3973 13.2789 26.632 13.2789L26.2752 12.64L26.2738 12.6407Z" fill="#CAA13E"/>
<path fill-rule="evenodd" clip-rule="evenodd" d="M8.29136 17.5545C8.29136 17.5545 8.20647 17.3437 8.29136 16.9327C8.37626 16.5216 8.50887 16.3279 8.55299 15.7231C8.59712 15.1183 8.99136 14.3639 8.99136 14.3639L10.082 13.8679L10.8535 14.0785L11.0811 15.1116L10.1058 15.6492C10.1058 15.6492 10.0549 15.8768 9.77962 16.0602C9.50432 16.2437 9.12375 16.3864 9.03213 16.5734C8.97736 16.6879 8.93739 16.809 8.91319 16.9336C8.91319 16.9336 8.63453 16.8758 8.4681 17.0592C8.29136 17.2463 8.29808 17.4127 8.29136 17.5554V17.5545Z" fill="#F4EFC8"/>
<path fill-rule="evenodd" clip-rule="evenodd" d="M10.4933 17.279C10.4933 17.279 10.4015 17.3368 10.3336 17.4806C10.2664 17.372 10.1058 16.7262 10.0991 16.1451C10.0923 15.5641 10.0576 15.42 10.192 15.2198C10.3264 15.0195 10.8535 14.8085 10.7787 14.4479C10.7039 14.1047 10.3912 13.962 10.0072 14.0606C9.73842 14.1278 9.53838 14.6994 9.25973 14.9848C9.04894 15.2023 8.79762 15.1683 8.72974 15.2872C8.6379 15.4469 8.7228 15.6066 8.6957 15.7086C8.68875 15.7426 8.60386 15.9261 8.45086 16.1469C8.14174 16.592 7.61848 17.2208 7.55038 17.7848C7.57413 17.4654 7.55733 17.4587 7.64222 17.1052L7.59115 17.0203L7.92715 15.9193L8.14466 15.0121L8.63074 13.493L9.48686 11.9402L10.3195 11.009L11.1859 11.0668L11.2878 12.3683L11.784 14.8117L12.8272 16.0961L11.1552 17.2212L10.4926 17.279H10.4933Z" fill="#EBCC73"/>
<path fill-rule="evenodd" clip-rule="evenodd" d="M11.0132 17.7409C11.0132 17.7409 10.8705 17.7749 10.8194 17.7478C10.7684 17.7207 10.7177 17.69 10.7345 17.656C10.7513 17.6219 10.8432 17.5644 10.8432 17.5371C10.8451 17.5124 10.8373 17.4879 10.8214 17.4689C10.8056 17.4498 10.7829 17.4377 10.7583 17.4351C10.6801 17.425 10.6564 17.4759 10.6564 17.4759C10.6564 17.4759 10.5816 17.4183 10.5206 17.4087C10.5567 17.4043 10.593 17.402 10.6293 17.4018C10.5354 17.3592 10.4358 17.3306 10.3336 17.3169C10.4185 17.266 10.5851 17.1164 10.6938 17.1164C10.8024 17.1164 10.8705 17.0996 10.8535 17.0418C10.8365 16.984 10.7516 16.8991 10.66 16.8651C10.6938 16.8243 10.7177 16.7631 10.6362 16.5963C10.5511 16.4298 10.5851 16.3176 10.6125 16.2771C10.6362 16.226 10.7211 16.1344 10.7619 16.0766C10.8026 16.0188 10.8367 15.9406 10.9046 15.8998C10.9386 15.8761 11.0473 15.8326 11.1561 15.7912C11.2751 15.7504 11.3736 15.6994 11.4415 15.7504C11.5163 15.8013 11.4823 15.8694 11.4823 15.8694C11.4823 15.8694 11.7168 15.7842 11.9273 15.8931C12.1381 15.9948 12.6513 16.0595 12.6513 16.0595L12.8352 16.43L11.6187 17.4732L11.1158 17.7248L11.0139 17.7416L11.0132 17.7409Z" fill="#E5C66B"/>
<path fill-rule="evenodd" clip-rule="evenodd" d="M12.7019 16.0356C12.7019 16.0356 12.3247 16.2871 12.2398 16.3787C12.2907 16.3857 12.3756 16.4197 12.3415 16.4706C12.3008 16.5214 12.0561 16.6982 11.9202 16.8648C11.7775 17.0312 11.6415 17.242 11.594 17.3439C11.5432 17.4356 11.1557 17.7041 11.0233 17.738C11.3019 17.738 11.8626 17.3948 12.0732 17.3948C12.0665 17.4967 12.131 17.6123 12.2499 17.6224C12.3689 17.6325 12.712 17.6972 13.1741 17.4118C13.6362 17.1332 13.4835 16.9257 13.677 16.79C14.0475 16.5452 14.1969 16.3277 14.4008 16.1919C14.6046 16.0562 14.7101 16.0253 14.7101 16.0253C14.7101 16.0253 14.7168 15.9233 14.7773 15.9336C14.7939 15.9355 14.8096 15.9419 14.8228 15.9521C14.8359 15.9623 14.8461 15.9759 14.8521 15.9914C14.8521 15.9914 15.2056 15.7399 15.6585 15.672C15.648 15.6673 15.6395 15.6588 15.6348 15.6483C15.6348 15.6483 15.6686 15.6312 15.6755 15.6142C15.6755 15.6142 15.6993 15.5802 15.7163 15.5972C15.7333 15.6142 15.7571 15.7399 15.7911 15.791C15.8659 15.7569 16.0086 15.4375 16.0086 15.4375L16.352 14.4555V13.5583L16.0832 13.6094L14.0672 14.4655L12.8437 15.7332L12.701 16.0356H12.7019Z" fill="#E6BD62"/>
<path fill-rule="evenodd" clip-rule="evenodd" d="M18.5058 11.6351C18.6148 11.6086 18.7194 11.5662 18.816 11.5092C18.7752 11.618 18.7752 11.737 18.5985 11.9953C18.4218 12.2535 18.415 12.2909 18.2724 12.5593C18.1297 12.838 18.1126 13.2389 17.9767 13.4154C18.0376 13.3858 18.103 13.3664 18.1702 13.3579C18.1702 13.3579 18.0345 13.4768 17.9767 13.6025C17.9189 13.7281 17.817 13.9898 17.5656 14.1497C17.3143 14.3096 16.9947 14.4113 16.6515 14.7885C16.3081 15.1588 15.9549 15.6279 15.7779 15.7965C15.8697 15.6368 15.9954 15.3174 16.0294 15.1068C16.0635 14.8963 16.0225 14.6445 16.0803 14.3661C16.1381 14.0876 16.1381 13.8869 16.4163 13.4009C16.6945 12.9148 17.1707 11.226 17.1707 11.226L18.1969 10.8999L18.5062 11.634L18.5058 11.6351Z" fill="#B6933F"/>
<path fill-rule="evenodd" clip-rule="evenodd" d="M17.765 11.0131C17.765 11.0131 17.4559 11.4582 17.371 11.8524C17.2861 12.2467 17.364 12.2126 17.3132 12.4064C17.2828 12.5245 17.2828 12.6484 17.3132 12.7666C17.4202 12.5941 17.5668 12.4496 17.7408 12.345C18.0331 12.1685 18.271 12.0426 18.4128 11.8932C18.5555 11.7335 18.6744 11.4719 18.9836 11.2714C18.8579 11.2544 18.6812 11.1966 18.6476 11.2042C18.7734 11.0615 19.1504 10.844 19.531 10.5824C19.9082 10.3136 19.8845 10.2051 20.4962 9.93679C20.2957 9.97084 20.2005 9.91976 20.0339 9.93679C20.1011 9.7941 20.3363 9.726 20.5715 9.4917C20.8067 9.2574 20.4221 8.91064 20.4221 8.91064L18.6301 9.99458L17.7636 11.014L17.765 11.0131Z" fill="#C49937"/>
<path fill-rule="evenodd" clip-rule="evenodd" d="M12.9024 10.2043L12.9432 9.87817L13.4564 9.05587L13.9933 7.61174V5.6374L13.9525 4.49567L14.0374 3.74796L14.1019 3.5103L14.17 3.41846L14.6082 3.64604L15.2132 4.46834L15.271 6.05538L14.683 8.55971L13.0043 10.3914L12.9024 10.2043Z" fill="#DFC068"/>
<path fill-rule="evenodd" clip-rule="evenodd" d="M14.2379 3.32654C14.2379 3.32654 13.9691 3.33348 13.9117 4.45147C13.8544 5.56945 13.8266 6.15722 13.7859 6.71118C13.7451 7.26513 13.6501 7.60135 13.6024 7.92772C13.5547 8.25409 13.5276 8.69895 13.3748 8.97089C13.3076 9.09655 13.164 9.49079 12.8276 9.78647C12.4504 10.1126 11.8868 10.3404 11.8014 10.3574C11.6518 10.3913 10.894 10.4661 10.5849 10.6361C10.4762 10.6939 10.2892 10.7618 10.082 10.9555C9.67075 11.3258 9.12374 11.9884 8.7295 12.787C8.1247 13.9798 7.5199 17.3471 7.5199 17.3471L7.65587 17.1196C7.65587 17.1196 7.67289 16.8172 7.97529 16.287C8.27097 15.757 8.18607 15.1622 8.59711 14.1462C8.75683 13.7589 8.95731 13.256 9.20191 12.8277C9.58943 12.1311 10.0583 11.533 10.5307 11.2069C11.3019 10.6769 12.1515 10.5613 12.1515 10.5613L13.0657 9.95649C13.0657 9.95649 13.2254 9.64737 13.4362 9.2939C13.7316 8.79796 14.1082 8.24401 14.1904 7.43873C14.3163 6.24593 14.0137 5.46439 14.0307 4.75767C14.0477 4.05095 14.0544 3.53105 14.1973 3.40516C14.3402 3.27927 14.2381 3.32699 14.2381 3.32699L14.2379 3.32654Z" fill="#A88F33"/>
<path fill-rule="evenodd" clip-rule="evenodd" d="M14.2379 8.66155C14.2379 8.66155 14.6411 7.66923 14.8257 6.78913C14.8597 6.61239 14.9276 6.43588 14.9446 6.29319C15.0295 5.46059 15.0533 5.11742 14.9446 4.66203C14.8597 4.32603 14.5336 4.02318 14.3636 3.78843C14.1971 3.54359 14.119 3.45243 14.153 3.40091C14.1871 3.34939 14.3194 3.26516 14.4485 3.27524C14.5856 3.27923 14.7205 3.31108 14.845 3.36884C14.9694 3.4266 15.0808 3.50908 15.1724 3.61124C15.4341 3.91364 15.6413 4.94001 15.6413 4.94001L15.8592 6.29431L16.4132 8.00007L14.2383 8.66289L14.2379 8.66155Z" fill="#C99E3D"/>
<path fill-rule="evenodd" clip-rule="evenodd" d="M18.0266 7.62869C18.0266 7.62869 17.9518 7.66252 17.8161 7.62869C17.8219 7.68416 17.8122 7.74016 17.7882 7.79051C17.7642 7.84086 17.7268 7.88362 17.6801 7.91407C17.5374 7.85628 16.2017 7.97186 16.2017 7.97186C16.2017 7.97186 15.5799 7.863 15.3861 7.04069C15.2504 6.49346 15.488 5.73925 15.4099 5.24309C15.2909 4.5124 15.1245 4.36949 15.1075 4.14213C15.0904 3.91477 15.0734 3.85675 15.0734 3.71407C14.9986 3.69704 14.9545 3.6733 14.8799 3.6733C14.8629 3.6061 14.8967 3.54741 14.8221 3.42847C14.8629 3.44549 15.1415 3.47954 15.4677 3.78866C15.7365 4.04021 15.7365 4.13183 15.777 4.1829C15.8278 4.23375 16.2391 4.5861 16.4158 4.93733C16.5926 5.28856 16.9357 6.40856 17.0139 6.59202C17.0377 6.66684 17.0887 6.74165 17.2155 6.91144C17.4126 7.15627 17.7014 7.56104 18.0275 7.62824L18.0266 7.62869Z" fill="#B58634"/>
<path fill-rule="evenodd" clip-rule="evenodd" d="M15.8249 4.19995C16.0308 4.53248 16.2157 4.87751 16.3786 5.23304C16.5791 5.68485 16.6981 6.05534 16.9496 6.35774C16.8137 5.96373 16.5724 5.18891 16.4297 4.91362C16.27 4.62242 15.9439 4.30882 15.8249 4.20018V4.19995Z" fill="#A88F33"/>
<path fill-rule="evenodd" clip-rule="evenodd" d="M13.5141 9.7866C13.5141 9.7866 13.171 9.8715 12.5321 10.2079C12.3213 10.3166 12.1211 10.4082 11.9273 10.4933C11.424 10.7209 10.8842 10.9312 10.4559 11.0473C10.4899 11.088 10.5067 11.1048 10.5067 11.1048C10.5067 11.1048 10.5067 11.2715 10.5986 11.3665C10.5477 11.4175 9.86787 11.8797 10.0686 13.4257C10.2043 13.3749 10.364 13.3068 10.3878 13.3068C10.4288 13.3137 10.4388 13.4257 10.4897 13.4257C10.5405 13.4257 10.7072 13.3585 10.8839 13.13C10.8772 13.2219 10.7753 14.1461 11.3223 14.7679C11.4242 14.649 11.6825 14.2547 11.6825 14.2547L11.6892 14.1291C11.6892 14.1291 11.713 13.6907 11.8559 13.2897C11.9988 12.8888 12.2772 12.5931 12.2772 12.5931L13.7312 10.5168L13.5137 9.78638L13.5141 9.7866Z" fill="#E6C367"/>
<path fill-rule="evenodd" clip-rule="evenodd" d="M12.1549 12.8353C12.0884 12.8823 12.015 12.919 11.9374 12.9439C11.9137 12.859 11.8796 12.5667 12.0801 12.2813C12.3146 11.938 12.8276 11.4929 12.9703 11.1389C13.0621 10.9111 13.0214 10.3404 13.8369 9.6097C14.6525 8.87901 14.9717 8.62768 14.9717 8.62768L16.2902 7.96509L17.9111 8.60394L17.1058 11.7601L16.4806 13.2385L13.9942 12.7697L12.1547 12.8353H12.1549Z" fill="#DCBA5A"/>
<path fill-rule="evenodd" clip-rule="evenodd" d="M13.104 11.9783L13.4133 11.591V11.3157C13.4133 11.3157 13.7565 11.2238 14.1268 10.8466C14.4971 10.4694 15.0102 9.74564 15.4623 9.78977C15.9143 9.84084 15.9584 10.7718 15.9755 11.0336C15.9925 11.2955 16.0503 11.8898 16.1419 12.2094C16.2438 12.5288 15.0409 13.7384 15.0409 13.7384L14.224 14.3603L13.104 11.9783Z" fill="#E9CE77"/>
<path fill-rule="evenodd" clip-rule="evenodd" d="M14.0612 15.2028C14.0612 15.2028 14.3127 14.8086 14.1284 14.7237C14.237 14.4791 14.4375 14.2208 14.4375 14.2208C14.4375 14.2208 14.5802 13.8676 15.0423 13.4326C15.5044 12.9976 15.79 12.7086 15.8648 12.4165C15.9109 12.2261 15.936 12.0313 15.9396 11.8354C15.9896 11.8763 16.043 11.9126 16.0993 11.9441C16.1741 11.9781 16.5274 12.2702 16.4765 12.8582C16.4257 13.4462 16.2077 13.6908 16.2077 13.6908C16.2077 13.6908 15.9972 13.9014 15.8478 14.0103C15.6878 14.1189 15.6303 14.2446 15.3617 14.2549C15.3893 14.2329 15.4203 14.2157 15.4535 14.2038C15.4535 14.2038 15.1749 14.17 15.0253 14.3057C14.8756 14.4415 14.5575 14.8597 14.3978 14.9856C14.2381 15.0875 14.0618 15.2031 14.0618 15.2031L14.0612 15.2028Z" fill="#CDAE50"/>
<path fill-rule="evenodd" clip-rule="evenodd" d="M25.3597 8.59343C24.9582 8.44712 24.5363 8.36458 24.1093 8.34883C23.3957 8.32508 22.3525 8.36585 21.3297 8.37257C20.2288 8.37929 19.2297 7.99535 17.8434 7.92748C17.6158 7.79151 17.037 7.19679 15.2302 8.45747C15.3388 8.45075 16.5419 8.17881 16.9597 8.7023C17.381 9.2222 17.2621 10.1057 17.2045 10.3162C17.0957 10.7853 16.7422 11.4683 16.5997 11.9474C16.4573 12.4265 16.4909 12.6783 16.3889 13.0143C16.287 13.3503 16.0628 13.5172 16.1952 13.9045C16.3719 13.7958 16.464 13.7958 16.7592 13.1332C17.0545 12.4707 16.9937 11.9982 17.4832 11.4376C17.9623 10.8735 18.76 10.1021 19.0633 9.90831C19.3666 9.71455 21.7748 8.46419 24.2964 9.65699C24.9045 9.59247 25.3599 8.59321 25.3599 8.59321L25.3597 8.59343Z" fill="#D2A83E"/>
<path fill-rule="evenodd" clip-rule="evenodd" d="M16.246 8.13124C16.2435 8.1057 16.2379 8.08057 16.2292 8.05642C16.2057 8.00673 16.1747 7.96089 16.1374 7.92045C16.1374 7.92045 15.5393 7.81181 15.2369 7.84564C14.7067 7.90343 14.2276 8.5593 14.0034 8.89575C13.7791 9.2322 13.5005 9.75188 13.1981 10.0205C13.2014 9.99429 13.1954 9.96779 13.181 9.94564C13.181 9.94564 13.1981 9.96938 13.1642 10.0034C13.1304 10.0375 13.1302 10.0543 13.1472 10.0706L13.1983 10.1215C13.2151 10.1215 13.6842 9.91069 14.323 9.31508C15.0026 8.69325 15.5225 8.37428 15.7945 8.26497C15.9395 8.20334 16.0911 8.15847 16.2463 8.13124V8.13124H16.246Z" fill="#C29637"/>
<path fill-rule="evenodd" clip-rule="evenodd" d="M27.8472 5.57617C27.8472 5.57617 27.7384 5.71192 27.6024 5.86155C27.3 6.18097 26.9058 6.54094 26.5693 6.91144C26.2501 7.26491 25.8899 7.5402 25.4854 8.00232C25.0808 8.46443 24.6118 8.97739 24.4931 9.12702C24.3844 9.27665 24.2995 9.52126 24.2995 9.64692C24.2417 9.60616 24.1739 9.56203 24.1739 9.56203C24.2024 9.61538 24.2366 9.66554 24.2758 9.71166C24.3607 9.8306 24.4931 9.98046 24.5612 10.0719C24.6447 10.1882 24.7047 10.3198 24.7377 10.4591C24.7784 10.4659 25.0401 10.5169 25.3664 9.98001C25.6928 9.44308 26.1206 8.85531 26.1206 8.85531L26.8003 7.84596L27.2285 6.98984L27.7661 6.03156L27.8479 5.57617H27.8472Z" fill="#AC8132"/>
<path fill-rule="evenodd" clip-rule="evenodd" d="M28.5439 4.88989C28.5439 4.88989 28.1326 5.22589 27.9729 5.42749C27.8132 5.62909 27.4353 6.15818 27.4353 6.15818L27.5713 6.14116L28.2612 5.52964L28.53 5.0505L28.5437 4.89079L28.5439 4.88989Z" fill="#A88F33"/>
<path fill-rule="evenodd" clip-rule="evenodd" d="M28.418 31.8941C28.418 31.8941 28.4113 31.6155 28.5676 31.449C28.7273 31.2824 29.1317 31.0378 29.5259 30.1203C29.9201 29.2028 29.964 28.9956 29.964 28.9956C29.964 28.9956 29.2573 29.6004 28.8216 29.743C28.9236 29.5323 28.9814 29.3829 29.0324 29.274C28.9746 29.2231 28.73 29.1654 28.7063 29.1382C28.842 29.0023 28.9168 28.6692 29.1921 28.4483C29.5456 28.1795 30.1912 27.7176 30.6929 27.3059C31.1947 26.8942 32.1812 25.9366 32.3071 25.658C32.3819 25.7666 32.3987 25.8345 32.3987 25.8345C32.3987 25.8345 31.9028 26.4803 31.6445 26.8913C31.4167 27.2448 31.4337 27.4453 31.4337 27.4453L31.9028 27.2437C31.9028 27.2437 32.0385 27.7465 31.4236 28.5113C31.6924 28.4094 31.8008 28.4705 31.9536 28.3854C31.7021 28.5453 31.3555 28.7628 31.0294 29.3607C30.71 29.9588 30.275 30.6554 29.5411 31.0902C28.8275 31.5489 28.4162 31.8921 28.4162 31.8921L28.418 31.8941Z" fill="#A67A2E"/>
<path fill-rule="evenodd" clip-rule="evenodd" d="M26.5763 8.94728C26.5763 8.94728 26.2976 9.52811 26.2568 9.98014C26.2501 10.089 26.2228 10.1739 26.2228 10.2996C26.2161 10.7039 26.2465 11.1559 26.1556 11.3665C26.1215 11.2816 26.1045 11.2238 26.0705 11.19C26.0196 11.3327 25.9278 11.7777 25.853 11.9442C25.8191 11.8355 25.7443 11.4583 25.7513 11.0132C25.7582 10.5681 25.7681 10.483 25.7681 10.3914C25.7513 10.5271 25.6594 10.7108 25.6254 10.8195C25.5745 10.7279 25.5167 10.6089 25.4486 10.5103C25.4079 10.5775 25.357 10.6768 25.3129 10.7279C25.3059 10.6871 25.2891 10.5782 25.2788 10.4255C25.2721 10.2487 25.2618 10.0211 25.2721 9.97342C25.2889 9.8818 25.4318 9.52161 25.7342 9.19188C26.0944 8.79764 26.4649 8.04008 26.5736 7.80555C26.6822 7.57102 27.1443 6.59595 27.1443 6.59595H27.4978L26.9846 7.76478C26.9846 7.76478 26.6755 8.40363 26.5158 8.63838C26.3561 8.87313 26.0196 9.5458 25.87 9.80744C25.9786 9.66475 26.0705 9.58993 26.1793 9.45396C26.2846 9.35876 26.5767 8.94772 26.5767 8.94772L26.5763 8.94728Z" fill="#8C6228"/>
<path fill-rule="evenodd" clip-rule="evenodd" d="M28.5506 4.84546C28.4929 5.02316 28.4016 5.18816 28.2818 5.33154C28.071 5.58309 27.619 5.91931 27.3984 6.18767C27.1968 6.4493 26.7936 7.16296 26.9768 8.00901C27.044 7.82555 27.1705 7.462 27.507 7.05074C27.8434 6.63947 28.2036 6.16728 28.3806 5.80037C28.5571 5.42988 28.5809 5.13778 28.5809 5.13778L28.6481 5.05288L28.6073 4.85912L28.5495 4.84546H28.5506Z" fill="#CBA94C"/>
<path fill-rule="evenodd" clip-rule="evenodd" d="M35.4317 27.3849C35.4317 27.3849 35.2957 27.0147 35.2549 26.6782C35.2141 26.3418 35.3221 26.275 35.1971 25.89C35.1223 25.6554 34.9866 25.6884 34.9525 25.6554C34.9185 25.6225 34.8947 25.2681 34.9014 25.0744C34.9082 24.8806 34.8947 24.6293 34.8607 24.5204C34.8098 24.4797 34.7758 24.4456 34.701 24.1943C34.6161 23.9427 34.5753 23.8171 34.5345 23.7425C34.4938 23.6679 34.3746 23.5998 34.3746 23.525C34.3746 23.3753 34.5106 23.2974 34.5106 23.2562C34.5038 23.1713 34.4019 23.2394 34.3746 23.2154C34.3408 23.1746 34.4597 22.93 34.4156 22.896C34.3986 22.8792 34.2796 23.0219 34.2489 22.9811C34.2149 22.9401 34.1741 22.5358 34.113 22.2674C34.0554 22.0058 33.994 21.8156 33.9873 21.7374C33.9806 21.6626 33.5182 20.3442 33.4062 20.0247C33.316 19.7548 33.24 19.4803 33.1787 19.2024C33.1446 19.0427 33.1209 18.7164 33.1038 18.7504C33.0868 18.7845 33.0971 18.9509 33.0698 18.9442C33.046 18.9372 32.9612 18.3564 32.9341 18.2645C32.9103 18.1727 32.7674 17.8613 32.7325 17.636C32.6984 17.4082 32.6238 16.8135 32.5727 16.4092C32.5217 16.0048 32.4979 15.8384 32.4979 15.7372C32.5063 15.4895 32.4926 15.2416 32.4572 14.9964C32.39 14.5681 32.2556 14.0482 32.1377 13.746C31.9101 13.175 31.3051 11.7139 31.1969 11.3503C31.1969 11.2585 31.3159 11.3096 31.3159 11.3096C31.3159 11.3096 31.6113 12.0503 31.8288 12.6211C32.0396 13.1921 32.2401 13.6949 32.2912 13.746C32.3319 13.7969 32.6514 14.3575 32.7941 15.275C32.9367 16.1925 32.9876 17.0386 33.0727 17.6026C33.1135 17.8714 33.1475 18.1566 33.2324 18.442C33.324 18.7513 33.4667 19.0707 33.6538 19.5599C33.8135 19.9712 33.9324 20.3144 33.9969 20.6101C34.0717 20.9873 34.0717 21.2726 34.1159 21.4597C34.1569 21.6194 34.2178 21.9386 34.3607 22.4005C34.5036 22.8624 34.714 23.4573 34.8566 23.8276C35.1355 24.5684 35.2598 25.1868 35.302 25.5165C35.3391 25.8564 35.465 27.0321 35.431 27.3854L35.4317 27.3849Z" fill="#A88F33"/>
<path fill-rule="evenodd" clip-rule="evenodd" d="M28.5676 4.80484L28.5506 4.84561C28.5506 4.84561 28.6015 4.86263 28.5914 4.93073C28.5921 5.02389 28.5864 5.117 28.5743 5.20938C28.5575 5.32833 28.5235 5.41994 28.5168 5.49476C28.5168 5.65447 28.5405 5.83793 28.3152 6.29332C28.248 6.41898 28.2065 6.52762 28.1725 6.60244C28.0876 6.7859 28.0706 6.81322 27.9958 6.89812C28.1147 6.83092 28.543 6.56212 28.7603 6.60244C28.6109 6.68734 28.3831 6.85399 28.2404 7.0715C28.2744 7.07822 28.4171 7.10554 28.6436 7.0715C29.0208 7.0137 29.4421 6.87774 29.8124 6.90484C30.2169 6.92858 30.0572 6.41898 30.0572 6.41898L29.5904 5.39284L28.707 4.77124L28.5676 4.80506V4.80484Z" fill="#BE9C44"/>
<path fill-rule="evenodd" clip-rule="evenodd" d="M30.8715 12.4914C30.8715 12.4914 30.4772 12.0972 30.3175 10.7442C30.1578 9.38498 30.1918 7.38422 30.1918 7.38422L29.8724 6.60268C29.8724 6.60268 29.8052 6.08278 29.6379 5.88924C29.4706 5.6957 29.142 5.36934 28.9923 5.20962C28.8427 5.04991 28.6729 4.83241 28.571 4.79836C28.6218 4.71346 28.8496 4.23433 29.7228 4.22761C30.5959 4.22089 30.8652 4.70674 30.9564 4.88348C31.0475 5.06022 31.4592 5.82428 31.612 7.28028C31.7547 8.73449 31.7616 8.84335 31.7379 9.34623C31.7209 9.62489 31.629 10.2705 31.4691 10.9602C31.323 11.5448 31.1633 12.1973 30.871 12.4928L30.8715 12.4914Z" fill="#A17C34"/>
<path fill-rule="evenodd" clip-rule="evenodd" d="M29.6352 13.65C29.7666 13.6595 29.8978 13.6299 30.0124 13.5649C30.1381 13.5582 30.5935 13.616 30.9434 13.1709C30.9671 13.2726 31.0285 13.5481 30.8685 13.7927C30.9537 13.7076 31.0793 13.6738 31.0964 13.65C31.1031 13.7757 31.222 14.163 30.7191 15.1042C30.8549 14.9548 31.0146 14.9616 31.1573 14.9445C31.1642 15.1213 31.2592 15.7158 31.0079 16.0354C30.8414 16.2529 30.5695 16.1848 30.5695 16.1848C30.5735 16.1373 30.5735 16.0896 30.5695 16.0421C30.5628 15.9503 30.5287 15.8587 30.5527 15.7975C30.4213 15.7375 30.3016 15.6546 30.1992 15.5527C29.9036 15.274 29.5196 14.7985 29.4925 14.445C29.4585 14.0508 29.8119 13.9659 29.8119 13.9659C29.7823 13.9394 29.7571 13.9084 29.7371 13.874C29.7201 13.8165 29.7031 13.7246 29.6352 13.65V13.65Z" fill="#8C6228"/>
<path fill-rule="evenodd" clip-rule="evenodd" d="M27.0144 9.37532C27.0144 9.37532 26.9974 9.35157 26.9058 9.46021C26.9228 9.35157 26.9398 9.24943 26.9465 9.15087C26.9899 9.05962 27.046 8.975 27.1132 8.89954C27.0621 9.00124 27.0281 9.09308 27.0281 9.09308C27.0281 9.09308 27.154 8.85855 27.3374 8.71586C27.4631 8.61394 27.6228 8.56645 27.6907 8.47125C27.7655 8.36933 27.7484 8.35231 27.7655 8.33528C27.7655 8.33528 27.9321 8.22664 28.187 7.907C28.2209 7.86623 28.2719 7.8221 28.306 7.78133C28.3636 7.75759 28.4995 7.69644 28.6592 7.61468C28.8259 7.52306 29.0127 7.3974 29.1283 7.34588C29.3559 7.24396 29.5973 7.25426 29.7093 7.09432C29.7942 7.07058 29.8859 6.81567 29.8691 6.59839C29.9947 6.64924 30.6403 7.0502 30.8614 7.92693C31.0211 8.54876 30.7355 9.50703 30.6165 9.96936C30.4976 10.4317 30.4808 10.7746 30.3141 10.9852C30.1034 11.2641 29.424 11.6572 29.2573 11.8519C29.1146 12.0116 28.6866 12.4159 28.7034 12.708C28.7204 12.9255 28.9887 13.044 29.0468 13.0852C29.1048 13.1264 29.1043 13.177 29.2132 13.1524C29.322 13.1278 29.3626 13.0776 29.4069 13.0776C29.4578 13.0843 29.4578 13.0946 29.4815 13.0946C29.4988 13.0941 29.5159 13.0918 29.5326 13.0877C29.5326 13.0877 29.5156 13.397 28.7918 13.4909C28.7408 13.4978 28.6899 13.5146 28.6252 13.5249C28.7103 13.4841 28.7612 13.4841 28.853 13.3585C28.7511 13.3415 28.4588 13.3244 28.3839 13.3007C28.4077 13.2599 28.4859 13.1511 28.5504 13.1002C28.6082 13.0494 28.5436 13.033 28.4928 13.0594C28.4053 13.119 28.3213 13.1836 28.2412 13.253C28.1564 13.3278 28.0815 13.4297 27.9456 13.5218C27.9048 13.3858 27.9115 13.1275 28.0715 12.9407C28.0305 12.9474 27.9523 13.0664 27.8777 13.0426C27.8642 12.9187 27.8722 12.7934 27.9014 12.6721C27.9422 12.5192 28.1631 12.2508 28.1631 12.2508L29.23 10.3443L29.4576 8.90021L27.0144 9.37487V9.37532Z" fill="#92723A"/>
<path fill-rule="evenodd" clip-rule="evenodd" d="M26.9568 9.45676C26.9568 9.45676 26.8991 9.49753 27.0146 9.5757C26.9976 9.59945 26.9568 9.68434 26.9058 9.74214C26.8482 9.80934 26.7868 9.851 26.7631 9.90879C26.7122 10.0277 26.6715 10.1093 26.6715 10.1603C26.6715 10.2114 26.6544 10.5376 26.5118 10.7481C26.4607 10.8229 26.4029 10.9486 26.3621 11.0335C26.2772 11.1829 26.2024 11.3023 26.1854 11.3695C26.1516 11.4884 26.1278 11.8146 26.1278 11.8146C26.1278 11.8146 26.2026 11.7227 26.2297 11.6889C26.1887 11.7738 26.1446 11.8654 26.0801 11.9335C26.1209 11.8995 26.2398 11.8146 26.4403 11.6378C26.719 11.4035 27.154 11.0093 27.6842 10.697C27.5242 10.7548 27.3885 10.7548 27.2799 10.7719C27.3647 10.687 28.1293 9.78985 28.5302 9.70495C28.5546 9.67408 28.5667 9.63533 28.5643 9.59609L28.2209 9.56226L27.5242 9.71167L27.4225 9.17407L26.9568 9.45609V9.45676Z" fill="#B18E3E"/>
<path fill-rule="evenodd" clip-rule="evenodd" d="M28.0647 12.5151C28.0647 12.5151 27.9729 12.6067 27.888 12.8345C27.8226 12.7663 27.7666 12.6897 27.7214 12.6067C27.5957 12.3961 27.4022 12.1276 26.9501 12.2806C26.9434 12.1379 26.9331 12.063 26.9501 11.9611C27.0249 11.9443 27.2525 11.7609 27.4801 11.4923C27.64 11.3088 27.7894 11.0981 27.8914 10.8297C27.9586 10.7786 28.0748 10.6937 28.2274 10.5952C28.4449 10.4458 28.7065 10.2417 28.7473 10.0141C28.6454 10.0549 28.4278 10.1568 28.1015 10.14C28.2274 10.0822 28.4209 10.0211 28.3972 9.76951C28.4482 9.73547 28.489 9.71172 28.489 9.71172C28.4507 9.69895 28.4104 9.69318 28.3701 9.6947C28.3631 9.67095 28.353 9.63713 28.2952 9.65393C28.2374 9.67073 28.228 9.67095 28.2204 9.6947C28.1967 9.70164 28.1185 9.6947 28.0607 9.73569C28.0029 9.77668 27.8432 9.9122 27.7821 9.93595C27.8058 9.89518 27.8396 9.83425 27.8396 9.83425C27.8396 9.83425 27.6732 9.85105 27.5542 9.90145C27.3367 9.97627 27.0854 10.1122 26.8305 10.2446C26.8542 10.2038 26.8646 10.1774 26.8814 10.1698C26.8982 10.1622 26.9391 10.153 26.9391 10.1461C26.9391 10.1391 26.9223 10.0789 26.9324 10.0544C27.0086 9.89299 27.0986 9.73839 27.2012 9.59233C27.3202 9.43239 27.3439 9.20481 27.3439 9.20481L27.8638 8.94318L29.325 8.60718L30.2732 8.66497L30.1542 9.32084L29.5942 10.4659L29.1151 11.5091L28.5678 12.1482L28.065 12.5151H28.0647Z" fill="#543E26"/>
<path fill-rule="evenodd" clip-rule="evenodd" d="M30.4331 9.67683C30.4331 9.67683 29.8621 10.3836 29.7024 10.4924C29.8043 10.2749 30.4331 8.98019 30.6607 8.62C30.6098 8.57923 30.5417 8.57923 30.7014 7.948C30.5657 8.2672 30.518 8.43385 30.406 8.51875C30.294 8.60365 30.2801 8.57654 30.2044 8.57654C30.2187 8.55068 30.2246 8.521 30.2212 8.49165C30.2212 8.49165 29.7421 8.43385 29.4148 8.43385C29.0875 8.43385 28.4397 8.61059 28.0793 8.75328C27.7939 8.87222 27.6342 8.87222 27.5323 8.94681C27.4304 9.03171 27.3726 9.12355 27.3215 9.14729C27.2807 9.17104 27.0872 9.23219 27.0429 9.2967C27.0021 9.3639 26.9342 9.43939 26.9342 9.45641C26.9342 9.47344 26.9172 9.49741 26.9683 9.48016C26.9851 9.47344 27.1109 9.40534 27.2536 9.32045C27.4472 9.21181 27.6817 9.08614 27.8517 9.01133C28.3376 8.81757 28.4906 8.85161 28.7078 8.81085C28.9354 8.77008 29.2618 8.67488 29.4791 8.67488C29.6966 8.66816 30.1078 8.67488 30.203 8.6919C30.1623 8.72595 30.1282 8.76672 30.1453 8.90941C30.1453 8.95017 30.1112 8.9943 30.0781 9.09286C29.9764 9.37152 29.7826 9.83363 29.6749 10.0682C29.5254 10.3874 29.3557 10.6559 29.2717 10.8224C29.1877 10.9888 29.0029 11.4272 28.8198 11.6617C28.6368 11.8962 28.5412 12.0389 28.4838 12.09C28.4265 12.1411 28.0148 12.4432 28.0455 12.5521C28.1203 12.5284 28.5927 12.3505 28.9357 11.9643C29.2786 11.5781 29.3469 11.3425 29.6153 11.1317C29.8836 10.9209 30.0944 10.5677 30.2201 10.2756C30.3253 10.0036 30.3016 9.91875 30.434 9.6775L30.4331 9.67683Z" fill="#806031"/>
<path fill-rule="evenodd" clip-rule="evenodd" d="M18.1287 14.9515C18.1287 14.9515 18.0539 15.2606 17.8839 15.4136C17.7175 15.5633 17.4218 15.6923 17.388 15.9438C17.3472 16.1952 17.6837 16.321 17.6837 16.321C17.6837 16.321 17.5 16.6234 17.5 16.851C17.5 17.0856 17.4933 17.1297 17.517 17.3539C17.4901 17.3712 17.4671 17.3942 17.4498 17.4211C17.4498 17.4211 17.4666 17.6386 17.6333 17.7744C17.7999 17.9101 17.9424 17.9919 18.0273 17.9578C18.0402 17.9855 18.0516 18.0139 18.0613 18.0429C18.0613 18.0429 18.1872 17.7235 18.2721 17.4449C18.357 17.1595 18.4318 17.2 18.4656 16.8161C18.4995 16.4322 18.8688 15.7729 18.8688 15.7729L19.1208 15.2096L18.7098 14.8901L18.1287 14.9513V14.9515Z" fill="#B6903C"/>
<path fill-rule="evenodd" clip-rule="evenodd" d="M18.8933 15.5054C18.8085 15.5924 18.7303 15.6855 18.6592 15.784C18.5506 15.9337 18.4657 16.0694 18.3059 16.1274C18.1462 16.1854 18.0443 16.185 18.0544 16.3449C18.0645 16.5049 18.2141 16.5725 18.299 16.654C18.3908 16.7389 18.4657 16.8816 18.4249 17.0416C18.4757 17.0178 18.5676 16.9905 18.6525 16.807C18.7374 16.6236 19.3312 15.5056 19.3312 15.5056H18.8933V15.5054Z" fill="#685026"/>
<path fill-rule="evenodd" clip-rule="evenodd" d="M21.2352 12.9261C21.2352 12.9261 21.286 12.7904 21.2352 12.6918C21.1841 12.5899 20.875 12.5559 20.722 12.4403C20.5623 12.3213 20.3685 12.2387 20.2088 12.2909C20.2326 12.2331 20.3278 12.1072 20.2496 12.0801C20.1748 12.0564 19.8963 12.182 19.8215 12.2398C19.7467 12.2976 19.5767 12.3655 19.5429 12.4065C19.509 12.4475 19.451 12.5254 19.417 12.4914C19.3829 12.4676 19.3661 12.4065 19.3083 12.4403C19.2505 12.4741 18.9723 12.7019 18.921 12.8345C18.8697 12.9671 18.7544 13.2628 18.4079 13.599C18.0613 13.9353 17.9117 14.153 18.0136 14.2787C18.1155 14.4043 18.1633 14.3127 18.1803 14.4213C18.1934 14.528 18.1876 14.6361 18.1633 14.7408C18.1225 14.9175 18.0546 15.0839 18.1462 15.118C18.3808 15.1928 18.6086 15.0508 18.6594 15.0942C18.7613 15.1859 18.6016 15.5156 18.8429 15.5801C19.0877 15.6473 19.3289 15.5223 19.3289 15.5223L20.2191 15.0432L21.0755 14.5914L21.5136 13.7247L21.2786 13.001L21.2338 12.9261H21.2352Z" fill="#D4B968"/>
<path fill-rule="evenodd" clip-rule="evenodd" d="M20.3952 14.9956C20.3952 14.9956 20.2456 14.768 20.4292 14.5673C20.6129 14.3666 20.8743 14.282 20.9763 14.1563C20.9568 14.1324 20.9308 14.1147 20.9014 14.1054C20.9691 13.9844 21.0723 13.887 21.1971 13.8266C21.1463 13.7757 21.0782 13.7349 21.0036 13.7349C20.8369 13.7349 20.7348 13.8369 20.582 13.8369C20.4326 13.8369 20.4156 13.762 20.4156 13.762C20.4156 13.762 20.6671 13.7383 20.6432 13.6261C20.6194 13.5071 20.576 13.5071 20.576 13.5071C20.576 13.5071 21.0618 13.3055 21.1467 13.198C21.2316 13.0905 21.2215 12.9635 21.2386 12.9126C21.2961 12.9126 21.6326 12.7359 21.7685 12.8107C21.9045 12.8855 21.8093 13.0894 21.8093 13.0894C21.8093 13.0894 22.2208 12.78 22.4305 12.4767C22.6139 12.4938 22.6993 12.3511 22.8337 12.3511C23.0003 12.3511 23.2619 12.5787 23.3128 13.0645C23.3468 13.3432 23.3977 13.5029 23.3468 13.9957C23.3231 14.2743 23.3298 14.8693 23.414 15.1645C23.4716 15.399 23.6076 15.3753 23.6076 15.3753C23.5867 15.4468 23.5454 15.5105 23.4886 15.5588C23.3968 15.6437 23.3867 15.8681 23.3968 15.953C23.4103 16.0151 23.4274 16.0763 23.4479 16.1364C23.4479 16.1364 23.3392 16.2621 23.3119 16.3472C23.2882 16.4321 23.1762 16.4899 23.0944 16.4899C23.0126 16.4899 23.0536 16.483 22.945 16.4899C22.8363 16.4969 22.8023 16.5137 22.7342 16.4899C22.6661 16.4662 22.6153 16.4388 22.6426 16.2211C22.6663 16.0036 21.8033 15.4974 21.8033 15.4974L20.3921 14.9945L20.3952 14.9956Z" fill="#CCA849"/>
<path fill-rule="evenodd" clip-rule="evenodd" d="M18.7743 17.1432C18.7743 17.1432 19.0835 17.5544 20.3544 17.5544C20.9592 17.5544 21.17 17.4967 21.2952 17.4626C21.4312 17.4286 21.9408 17.2283 22.454 16.6233C22.9161 16.0763 22.8142 15.852 22.8142 15.852L22.5454 15.8113L21.6718 15.9302L19.0868 17.0312L18.7732 17.1432H18.7743Z" fill="#585136"/>
<path fill-rule="evenodd" clip-rule="evenodd" d="M19.7223 17.2452C19.7223 17.2452 18.6213 17.49 18.6213 16.7934C18.6213 16.1137 19.301 15.4001 19.471 15.2744C19.6477 15.1485 20.0691 15.0056 20.0691 15.0056H21.0851L21.2787 15.5188L21.1938 16.6265L19.7223 17.2449V17.2452Z" fill="#252211"/>
<path fill-rule="evenodd" clip-rule="evenodd" d="M20.7384 15.2132C20.7384 15.2132 20.5278 15.0195 20.0487 15.2804C19.5695 15.5414 19.182 16.0868 19.1583 16.5821C19.1345 17.0202 19.5185 17.3466 20.1165 17.3636C20.5616 17.3804 20.8302 17.3296 20.9662 17.2964C20.9321 17.2557 20.7554 17.0348 20.7554 17.0348L20.7386 15.2135L20.7384 15.2132Z" fill="#C3B378"/>
<path fill-rule="evenodd" clip-rule="evenodd" d="M20.5312 15.3217C20.5312 15.3217 20.4803 15.2809 20.3296 15.3625C20.2039 15.4297 20.0204 15.6073 19.8777 15.733C19.7859 15.8078 19.7281 15.8416 19.6761 15.8994C19.4654 16.151 19.2886 16.5622 19.3908 16.7661C19.4929 16.9699 19.8291 17.2044 20.6855 17.0447L20.5287 15.3219L20.5312 15.3217Z" fill="#E6D89C"/>
<path fill-rule="evenodd" clip-rule="evenodd" d="M20.2525 15.7431C20.2525 15.7431 20.1166 15.9539 20.1166 16.2903C20.1166 16.6335 20.3103 17.1805 21.024 17.2213C21.571 17.2553 21.9379 16.433 22.3355 16.1136C22.6379 15.869 22.8214 15.862 22.8214 15.862C22.8214 15.862 22.5122 15.526 21.6866 15.0908C20.871 14.6524 19.9569 14.5946 19.4607 15.2675C19.6952 15.2505 20.453 15.0567 20.453 15.0567L20.8235 15.1757L20.2525 15.7433V15.7431Z" fill="#252211"/>
<path fill-rule="evenodd" clip-rule="evenodd" d="M21.3194 16.1883C21.2957 16.1375 21.2786 16.0694 21.3772 16.0526C21.4758 16.0358 21.5199 16.0457 21.5539 16.1198C21.588 16.1939 21.6211 16.2558 21.5707 16.2865C21.5199 16.3136 21.3873 16.2865 21.3192 16.1879L21.3194 16.1883ZM21.1597 15.7092C21.1597 15.7092 21.1257 15.733 21.1427 15.6855C21.1494 15.6279 21.1937 15.5258 21.3024 15.5497C21.411 15.5737 21.3875 15.6924 21.3696 15.7265C21.3517 15.7605 21.2609 15.8181 21.1929 15.7937C21.1842 15.7915 21.1762 15.7872 21.1695 15.7814C21.1628 15.7755 21.1576 15.7681 21.1543 15.7598C21.151 15.7516 21.1497 15.7426 21.1504 15.7338C21.1512 15.7249 21.1541 15.7163 21.1588 15.7088L21.1597 15.7092Z" fill="#6F674D"/>
<path fill-rule="evenodd" clip-rule="evenodd" d="M11.9616 15.9265C11.9616 15.9265 12.2304 16.1281 12.5427 16.1202C12.8518 16.1133 13.2494 15.7941 13.4328 15.59C13.5415 15.4711 13.6344 15.3454 13.7352 15.2468C13.8204 15.1619 13.8779 15.1212 13.9187 15.0634C13.9765 14.9962 14.0376 14.8698 14.0683 14.8289C13.9935 14.8866 13.8849 14.9888 13.7726 15.0567C13.664 15.1239 13.4295 15.2502 13.3343 15.2842C13.2427 15.3183 12.2911 15.8218 12.2911 15.8218L11.9616 15.9265Z" fill="#AC924C"/>
<path fill-rule="evenodd" clip-rule="evenodd" d="M12.3724 13.4155C12.3724 13.4155 12.5218 13.3136 12.8108 13.2488C13.0894 13.1816 13.6501 13.1299 13.6501 13.1299L14.1122 13.3315L14.2957 14.0281L13.9597 14.7521L13.5316 15.0209L13.0455 14.2394L12.3735 13.4168L12.3724 13.4155Z" fill="#9F8E57"/>
<path fill-rule="evenodd" clip-rule="evenodd" d="M11.7676 14.0373L11.6077 14.1567C11.6077 14.1567 11.6487 14.0819 11.6825 13.8543C11.7163 13.6267 11.8933 13.0728 12.1516 12.7534C12.4098 12.4339 12.4031 12.451 12.4031 12.451C12.3794 12.4466 12.3549 12.4474 12.3315 12.4532C12.308 12.459 12.2861 12.4698 12.2672 12.4848C12.3012 12.4095 12.5187 12.1407 12.7362 12.0063C12.9537 11.8719 13.0386 11.8296 13.2662 11.9391C13.4938 12.0487 13.5516 12.1055 13.7182 12.0988C13.8849 12.0921 14.0273 11.9154 14.0273 11.9154C14.0273 11.9154 14.0614 12.024 13.9357 12.2756C13.8101 12.5271 13.3139 13.0401 13.3139 13.0401L12.2808 13.7468L11.7676 14.038V14.0373Z" fill="#EAC970"/>
<path fill-rule="evenodd" clip-rule="evenodd" d="M12.5319 13.3307C12.5319 13.3307 13.2796 13.4326 13.5072 13.222C13.5139 13.2458 13.5412 13.2458 13.5412 13.2628C13.5394 13.2756 13.5334 13.2875 13.5242 13.2966C13.549 13.2927 13.574 13.2904 13.599 13.2899C13.629 13.2988 13.6597 13.3045 13.6909 13.3069C13.716 13.3064 13.741 13.3041 13.7657 13.3C13.7633 13.3169 13.7576 13.3331 13.7488 13.3477C13.74 13.3624 13.7284 13.3751 13.7146 13.3851C13.7487 13.3851 13.7818 13.3918 13.7818 13.4189C13.7818 13.446 13.7885 13.5278 13.7478 13.5448C13.714 13.5541 13.6781 13.5517 13.6459 13.5379C13.6485 13.6022 13.666 13.6651 13.6969 13.7215C13.7641 13.8472 13.9075 13.9903 14.1001 13.9491C14.1001 13.9491 14.2018 14.1937 13.7738 14.7374C13.7162 14.8122 13.6548 14.9141 13.5802 14.999C13.5507 15.0633 13.5282 15.1305 13.513 15.1995C13.513 15.1995 14.237 14.9208 14.4442 14.2854C14.655 13.6465 14.6957 13.018 14.655 12.4302C14.648 12.2635 14.6209 12.1448 14.5802 12.0597C14.4782 11.8489 14.1926 11.883 14.0773 12.0019C13.9106 12.1686 13.632 12.583 13.2447 12.8683C12.8504 13.1537 12.8336 13.2043 12.531 13.3307H12.5319Z" fill="#D7BC6B"/>
<path fill-rule="evenodd" clip-rule="evenodd" d="M11.635 14.2482C11.635 14.2482 11.4923 14.3331 11.4175 14.6514C11.3427 14.9776 11.4847 15.3752 11.5669 15.5008C11.6491 15.6265 11.8357 15.9699 12.2228 15.9869C12.3186 15.9864 12.4133 15.9667 12.5014 15.9291C12.6366 15.8671 12.7633 15.7883 12.8787 15.6946C13.0453 15.5689 13.1811 15.4603 13.164 15.45C13.1233 15.4329 12.1379 14.6174 12.1379 14.6174L11.7674 14.2039L11.6348 14.2487L11.635 14.2482Z" fill="#585136"/>
<path fill-rule="evenodd" clip-rule="evenodd" d="M12.5664 15.6006C12.5664 15.6006 12.7669 15.5838 12.8858 15.5089C13.0048 15.4341 12.1892 14.6255 12.1892 14.6255L12.247 15.4991L12.5664 15.6006Z" fill="#453A25"/>
<path fill-rule="evenodd" clip-rule="evenodd" d="M11.6995 14.1868C11.6995 14.1868 11.5976 14.3806 11.5976 14.4316C11.5806 14.5981 11.6317 15.1213 11.6724 15.2878C11.7132 15.4645 11.9341 15.7329 12.2197 15.7329C12.3962 15.7329 12.641 15.6242 12.641 15.5971C12.641 15.5631 12.3894 15.5299 12.3216 15.4034C12.2808 15.3362 12.2638 15.1691 12.2544 15.0002C12.2477 14.8915 12.2477 14.7726 12.2884 14.7314C12.3803 14.6294 12.3971 14.3371 12.3971 14.3371L12.7232 13.7312H12.2942L11.7811 14.0506L11.6995 14.1868Z" fill="#84754B"/>
<path fill-rule="evenodd" clip-rule="evenodd" d="M11.5739 14.3738C11.5739 14.3738 11.9099 13.9287 12.2127 13.8266C12.5155 13.7244 12.6511 13.7858 12.6511 13.7858L12.4743 14.2378L12.2228 14.5165L12.2398 14.6592C12.2398 14.6592 12.1988 15.0364 12.4504 15.298C12.7019 15.5597 12.8887 15.5496 12.9976 15.5496C13.1065 15.5496 13.4189 15.4577 13.5787 15.0805C13.7213 14.7273 13.8403 14.2741 13.5549 13.8198C13.276 13.3678 12.7835 13.3503 12.6883 13.3503C12.5931 13.3503 11.8456 13.3877 11.5739 14.3731V14.3738Z" fill="#252211"/>
<path fill-rule="evenodd" clip-rule="evenodd" d="M20.2015 15.886C20.0758 15.8282 20.1947 15.4749 20.3204 15.366C20.4461 15.2572 20.6058 15.1317 20.8847 15.1145C20.9864 15.1078 21.0849 15.1723 21.0681 15.2404C21.0444 15.366 20.8676 15.5428 20.7079 15.6684C20.4871 15.8418 20.3441 15.9505 20.2015 15.886Z" fill="#F7F7E7"/>
<path fill-rule="evenodd" clip-rule="evenodd" d="M13.4053 13.9592C13.4971 13.9524 13.6161 14.0264 13.6398 14.1258C13.6636 14.2345 13.582 14.452 13.4053 14.452C13.2626 14.452 13.1878 14.2752 13.1878 14.2244C13.1894 14.1826 13.2011 14.1418 13.2218 14.1054C13.2285 14.0951 13.2456 13.9762 13.4053 13.9592V13.9592Z" fill="#F8F6DE"/>
<path fill-rule="evenodd" clip-rule="evenodd" d="M12.0801 14.0374C12.0801 14.0374 11.8456 14.146 11.7369 14.3734C11.6593 14.5412 11.6358 14.7291 11.6697 14.911C11.6867 14.9958 11.7716 15.2064 11.8294 15.2812C11.8872 15.356 11.9654 15.4071 12.0232 15.4002C12.081 15.3932 12.1997 15.2405 12.1997 15.1488C12.1997 15.0572 12.2066 14.6697 12.3186 14.4589C12.4172 14.2484 12.0808 14.0376 12.0808 14.0376L12.0801 14.0374Z" fill="#D4C38B"/>
<path fill-rule="evenodd" clip-rule="evenodd" d="M12.1141 14.0204C12.0734 14.0441 12.0055 14.0782 12.0223 14.1223C12.0393 14.1631 12.182 14.1895 12.2331 14.289C12.2909 14.3909 12.2909 14.4995 12.2739 14.5506C12.3182 14.5295 12.3585 14.5007 12.3928 14.4655C12.4676 14.3806 12.5592 14.2652 12.6374 14.2652C12.6885 14.2652 12.7393 14.289 12.787 14.289C12.8619 14.289 12.9364 14.2652 12.9468 14.1871C12.9636 14.0851 12.8041 13.9933 12.7122 14.0103C12.7292 13.9431 12.753 13.8439 12.6782 13.7758C12.6034 13.7077 12.3691 13.8269 12.318 13.8609C12.2669 13.895 12.1141 14.0206 12.1141 14.0206V14.0204Z" fill="#E2D59D"/>
<path fill-rule="evenodd" clip-rule="evenodd" d="M17.5137 21.1597L18.0166 21.0112L18.1593 21.1132C18.1593 21.1132 18.2609 21.3307 18.4209 21.3578C18.3698 21.4664 18.2372 21.5594 18.2441 21.6364C18.2511 21.7135 18.319 21.7724 18.319 21.7724C18.319 21.7724 17.8669 22.5199 18.7573 23.2732C18.5465 23.3581 18.2782 23.4748 18.1355 23.542C18.2372 23.5657 18.4547 23.6092 18.5465 23.6916C18.6384 23.774 18.6384 23.8003 18.7233 23.8513C18.8082 23.9024 18.859 23.9703 18.8422 24.0007C18.7844 23.9667 18.5907 23.865 18.5569 23.96C18.523 24.0549 17.7175 24.0178 17.7175 24.0178L16.3583 24.2794C16.3583 24.2794 16.4091 24.1434 16.2665 24.0178C16.1 23.8683 15.8962 24.0245 15.6787 23.858C15.3933 23.6405 15.383 23.389 15.2914 23.294C15.383 23.2362 15.57 23.1513 16.0151 23.0924C15.9981 23.0584 15.9403 22.9564 15.9744 22.8648C16.0151 22.7459 16.1849 22.6711 16.1341 22.5288C16.2089 22.5118 16.2427 22.5118 16.4297 22.2773C16.6065 22.0428 16.7151 21.9919 16.8511 21.9749C16.9871 21.9579 17.0686 21.9749 17.3201 21.7404C17.4967 21.5739 17.4391 21.4312 17.4391 21.4312C17.4391 21.4312 17.5545 21.3938 17.5139 21.1593L17.5137 21.1597Z" fill="#CBAC5A"/>
<path fill-rule="evenodd" clip-rule="evenodd" d="M16.0288 21.2352C16.0355 21.2011 16.0628 21.1841 16.2463 21.2011C16.4297 21.2181 17.5918 21.0925 17.9079 21.0755C18.2273 21.0517 19.352 21.0685 19.8993 21.1841C20.4465 21.2997 21.0002 21.4357 21.2686 21.5035C21.5374 21.5783 21.6221 21.6052 21.6117 21.6393C21.605 21.6733 21.5445 21.7065 21.5098 21.6971C21.476 21.6903 20.5856 21.4184 20.3105 21.3611C20.0355 21.3037 19.0837 21.1503 18.5633 21.1595C18.0775 21.1664 17.8837 21.1527 17.4727 21.2002C17.0614 21.2513 16.3818 21.3192 16.178 21.2921C15.9764 21.2683 16.018 21.2683 16.0283 21.2343L16.0288 21.2352Z" fill="#D6BC6F"/>
<path fill-rule="evenodd" clip-rule="evenodd" d="M18.764 23.8986C18.764 23.8986 19.4607 24.2758 19.7122 24.738C19.8957 25.0811 19.6036 25.2511 19.6036 25.2511C19.6036 25.2511 19.9978 25.2511 19.9468 25.4686C19.923 25.6044 19.2671 25.9713 18.8288 26.1651C18.3837 26.3588 18.4007 26.3487 18.1832 26.3826C17.9724 26.4166 17.3947 26.3154 17.2758 26.4845C17.1568 26.6536 17.2086 26.8279 17.2417 26.855C17.2758 26.8787 17.5511 26.9128 17.5511 26.9128C17.5511 26.9128 17.4933 27.0725 16.9225 27.0895C16.3518 27.1065 16.2089 27.1471 16.1748 27.2085C16.1408 27.266 16.2835 27.2322 16.5453 27.2757C16.8069 27.3164 17.1739 27.3429 17.1739 27.3429C17.1739 27.3429 17.0549 27.4448 16.7458 27.5263C16.3923 27.6179 15.8384 27.7031 15.6719 27.805C15.7568 27.8628 15.8827 27.9477 15.9407 27.9544C15.7981 27.9884 15.5973 28.0632 15.5635 28.0903C15.6144 28.1244 15.6825 28.1652 15.6825 28.1652C15.6825 28.1652 15.3969 28.5083 15.2304 28.5934C15.064 28.6786 14.1057 29.1234 13.776 29.0385C12.9537 28.821 12.8518 27.9206 12.6513 27.8527C12.3489 27.7508 12.2062 27.9544 11.9376 27.8117C12.0566 27.7268 12.1213 27.6759 12.247 27.6182C12.111 27.551 11.4077 27.105 11.4077 27.105C11.3341 26.9447 11.2525 26.7882 11.163 26.6361C11.0271 26.4016 10.827 26.0889 10.677 25.8136C10.3508 25.2088 10.3338 24.9302 10.0381 24.587C10.0892 24.5198 10.2657 24.5292 10.2657 24.5292L12.7431 25.3448L17.136 25.472L18.2784 23.8411L18.7643 23.8989L18.764 23.8986Z" fill="#DFC677"/>
<path fill-rule="evenodd" clip-rule="evenodd" d="M12.2568 26.3858C12.2833 26.4153 12.3142 26.4405 12.3485 26.4606C12.4336 26.5184 12.5592 26.5865 12.6441 26.6882C12.6782 26.6374 12.7631 26.5455 12.9129 26.6882C13.0628 26.8309 13.2489 26.7292 13.3647 26.763C13.4837 26.804 13.4904 26.8208 13.4904 26.8208C13.4904 26.8208 13.5576 26.763 13.7079 26.7019C13.7997 26.6678 13.9084 26.6441 14.0273 26.6103C14.136 26.5865 14.2549 26.5525 14.3367 26.5525C14.4115 26.6033 14.6798 26.8885 15.7571 26.4676C16.7731 26.0733 17.0074 26.0292 17.1774 26.0901C17.1945 26.0494 17.2115 25.9712 17.4731 25.9815C17.4731 25.8728 17.2556 25.5023 17.2556 25.5023L16.0561 25.0913H15.4L13.4326 25.4515L12.3424 26.0735L12.2575 26.3871L12.2568 26.3858Z" fill="#C4A859"/>
<path fill-rule="evenodd" clip-rule="evenodd" d="M11.601 25.6962C11.601 25.6962 11.6247 25.8796 11.8967 26.0734C12.1655 26.2669 12.2499 26.3825 12.2499 26.3825C12.2499 26.3825 12.301 26.3153 12.3417 26.2467C12.3825 26.1719 12.4166 26.087 12.4844 26.0633C12.6204 26.0055 12.9295 26.1141 12.9976 26.0971C13.0554 26.0803 13.0384 25.9614 13.0995 25.9614C13.2422 25.9544 13.3338 26.053 13.3849 26.053C13.436 26.053 13.5614 26.0463 13.5785 26.0192C13.5955 25.9921 13.6022 25.7098 13.796 25.5738C14.0067 25.4244 14.265 25.489 14.3336 25.523C14.3336 25.5738 14.3403 25.6997 14.4762 25.7065C14.6122 25.7132 14.6257 25.6894 14.745 25.7302C14.8644 25.771 15.0067 25.7235 15.0712 25.9237C15.129 25.9069 15.265 25.8899 15.2309 25.6962C15.2981 25.6453 15.3568 25.6113 15.4997 25.4108C15.5338 25.3599 15.5913 25.3021 15.6357 25.2273C15.7546 25.2273 15.8973 25.2036 16.0875 25.37C16.0297 25.4108 15.9956 25.4372 15.9788 25.4786C16.0286 25.5279 16.074 25.5813 16.1146 25.6384C16.1657 25.7056 16.1997 25.788 16.2642 25.805C16.4069 25.8458 16.6414 25.788 16.9031 25.805C17.1546 25.822 17.3652 25.9137 17.457 25.9714C17.4911 25.9546 17.4911 25.9477 17.576 25.9647C17.6609 25.9818 17.7254 25.9885 17.6337 25.8798C17.6846 25.9036 17.7424 25.9546 17.7935 25.9036C17.8445 25.8525 17.8851 25.7779 18.0278 25.7609C18.1705 25.7439 18.2215 25.7676 18.2793 25.6182C18.3541 25.4347 18.0959 25.4347 18.0959 25.4347C18.0959 25.4347 18.2148 25.3259 18.3474 25.1832C18.5071 25.0338 18.6906 24.84 18.7347 24.6021C18.8095 24.1638 18.3815 24.1062 18.3815 24.1062L16.3052 24.745L13.7668 24.6192L11.6023 25.6964L11.601 25.6962Z" fill="#927D49"/>
<path fill-rule="evenodd" clip-rule="evenodd" d="M9.73549 19.6986C9.73549 19.6986 9.66829 19.7835 9.62685 19.984C9.58541 20.1845 9.6031 20.1607 9.56906 20.3034C9.53501 20.4461 9.1168 21.8665 9.2736 22.3456C9.4304 22.8248 9.70189 23.0015 9.87168 23.3888C9.90573 23.4737 9.93888 23.5248 9.95658 23.5996C10.0144 23.8509 9.96352 24.0447 10.0314 24.2962C10.0551 24.3811 10.1165 24.4797 10.2081 24.5816C10.4097 24.7921 10.7383 24.9926 10.8801 25.1353C11.0804 25.3461 11.366 25.7744 11.7295 25.8149C11.9233 25.8387 12.1986 25.7571 12.4262 25.6214C12.6278 25.4955 12.7523 25.319 12.9638 25.2182C13.1132 25.1434 13.2729 25.1163 13.4156 25.0822C13.7113 25.0244 13.9798 25.015 14.1396 25.0482C14.3842 25.0993 14.9619 25.276 15.282 25.276C15.5321 25.272 15.7808 25.2377 16.0227 25.1741C16.5086 25.0314 17.0964 24.7865 17.4839 24.6779C17.7115 24.6107 17.8949 24.593 18.082 24.5522C18.4014 24.4774 18.6697 24.3755 18.8227 24.1817C18.7208 24.0628 18.5951 23.8793 17.9153 23.8861C17.1441 23.9031 16.2537 24.3312 15.8153 24.3993C15.3769 24.4673 15.1868 24.5249 14.6973 24.3482C14.2175 24.1697 14.2016 24.0516 14.2016 24.0516C14.2016 24.0516 13.6978 23.6993 13.487 22.801C13.2763 21.9028 13.487 21.2482 14.0343 20.6262C14.177 20.4665 14.1429 20.3238 14.1429 20.3238C14.1429 20.3238 14.5031 19.8379 14.4045 19.383C14.2959 18.931 13.5993 19.0228 13.5993 19.0228L9.73571 19.6986H9.73549Z" fill="#6E6342"/>
<path fill-rule="evenodd" clip-rule="evenodd" d="M10.3165 21.2107C10.2866 21.267 10.2725 21.3304 10.2758 21.3941C10.2825 21.4858 10.3098 21.6047 10.5849 21.8733C10.8194 22.1076 10.7683 22.3692 10.7683 22.3692C10.7683 22.3692 10.8864 22.393 11.2067 22.2431C11.4583 22.1242 11.5427 22.3349 11.5427 22.3349C11.6159 22.2966 11.6953 22.2712 11.7772 22.2601C11.8515 22.2533 11.9233 22.2304 11.9878 22.1929C11.9878 22.1929 12.2835 22.4953 12.5417 22.638C12.7763 22.7639 12.9122 22.8488 13.0278 22.7639C13.1365 22.6891 13.1365 22.5361 13.1295 22.4682C13.1026 22.4056 13.0684 22.3463 13.0278 22.2915C12.953 22.1829 12.8341 22.057 12.8262 21.9555C12.8092 21.7212 13.003 21.4423 12.962 21.3744C12.921 21.3066 12.7684 21.2895 12.3912 21.4255C12.0006 21.5545 10.315 21.2114 10.315 21.2114L10.3165 21.2107Z" fill="#39331F"/>
<path fill-rule="evenodd" clip-rule="evenodd" d="M11.2067 22.7297C11.2067 22.7297 11.0132 22.5463 11.0811 21.6559C11.1632 21.6547 11.2453 21.6626 11.3257 21.6796C11.3257 21.6796 11.4312 22.3695 11.2067 22.7297Z" fill="#292311"/>
<path fill-rule="evenodd" clip-rule="evenodd" d="M9.82732 19.0189C9.85433 18.9989 9.87938 18.9764 9.90214 18.9517C9.83494 19.0774 9.5247 19.5802 9.77625 20.3721C10.0278 21.1603 10.6597 21.7481 11.4379 21.7754C12.2161 21.8028 12.6251 21.422 13.0928 20.8512C13.2763 20.6236 13.487 20.338 13.6739 20.1445C13.9525 19.8419 14.17 19.757 14.17 19.4649C14.17 18.8668 13.5583 18.5982 12.6578 18.3299C11.7573 18.0615 10.9451 18.0947 10.5237 18.2783C10.1127 18.4786 9.93596 18.6894 9.8271 19.0191L9.82732 19.0189Z" fill="#252211"/>
<path fill-rule="evenodd" clip-rule="evenodd" d="M12.719 22.998L12.7862 22.9639C12.7862 22.9639 12.803 22.6951 12.9118 22.7023C13.0205 22.7193 13.0715 22.8622 13.0612 22.9131C13.0545 22.9639 13.0274 23.049 12.9185 23.0387C12.7759 23.0421 12.7183 22.998 12.7183 22.998H12.719Z" fill="#3F3824"/>
<path fill-rule="evenodd" clip-rule="evenodd" d="M12.4165 21.8562C12.4165 21.8562 12.4837 21.8325 12.5659 21.914C12.6331 21.914 12.9261 21.88 13.018 21.9378C13.1098 21.9956 13.1369 22.0464 13.1369 22.0464C13.1369 22.0464 12.7938 22.1212 12.6067 22.0464C12.4165 21.9819 12.4165 21.8562 12.4165 21.8562V21.8562Z" fill="#2D2815"/>
<path fill-rule="evenodd" clip-rule="evenodd" d="M13.9288 21.9073C13.9288 21.8903 13.7453 21.7646 13.5515 21.7236C13.5175 21.7169 13.5106 21.7407 13.4843 21.7407C13.4673 21.7339 13.4606 21.6829 13.4606 21.6829L13.3504 21.7409C13.3504 21.7409 13.3334 21.7646 13.3912 21.8081C13.442 21.8488 13.5271 21.8829 13.5509 21.9508C13.5746 22.0186 13.5746 22.0424 13.5849 22.0527C13.5916 22.0594 13.7106 22.0527 13.7684 22.0186C13.8262 21.9846 13.935 21.929 13.9281 21.9066L13.9288 21.9073Z" fill="#82764F"/>
<path fill-rule="evenodd" clip-rule="evenodd" d="M12.2127 22.5971C12.2127 22.5971 12.2465 22.3628 12.4743 22.3525C12.7086 22.3354 12.753 22.563 12.753 22.563L12.617 22.699C12.617 22.6956 12.5151 22.553 12.2138 22.5971H12.2127Z" fill="#2D2816"/>
<path fill-rule="evenodd" clip-rule="evenodd" d="M13.6909 21.5878C13.6909 21.5878 13.565 21.7238 13.2866 21.7646C13.2628 21.7305 13.2117 21.6627 13.2866 21.554C13.3614 21.4454 13.4463 21.4113 13.5312 21.4452C13.5686 21.4512 13.6036 21.4679 13.6319 21.4932C13.6602 21.5185 13.6806 21.5513 13.6909 21.5878V21.5878Z" fill="#574F35"/>
<path fill-rule="evenodd" clip-rule="evenodd" d="M14.2038 21.7544C14.2108 21.7204 14.187 21.7136 14.2038 21.6966C14.2206 21.6796 14.3127 21.6458 14.3297 21.6626C14.3364 21.6695 14.3297 21.6966 14.3297 21.7298C14.3297 21.7629 14.3297 21.797 14.3127 21.8214C14.289 21.8554 14.2211 21.8725 14.187 21.8624C14.153 21.8523 14.1463 21.8046 14.1463 21.7952C14.1631 21.7885 14.2038 21.7714 14.2038 21.7544ZM14.784 21.3875C14.784 21.3705 14.8418 21.3364 14.8758 21.3364C14.9267 21.3364 14.9267 21.3772 14.9336 21.3875C14.9504 21.3942 14.9504 21.3806 14.9675 21.4112C14.9845 21.4419 15.0084 21.4961 14.9912 21.5302C14.974 21.5642 14.9063 21.5878 14.8895 21.581C14.8658 21.564 14.7909 21.4112 14.784 21.3875V21.3875Z" fill="#82764F"/>
<path fill-rule="evenodd" clip-rule="evenodd" d="M13.6161 21.8325C13.6161 21.8325 13.6909 21.8493 13.7928 21.9344C13.7587 21.9582 13.7077 21.9853 13.7077 21.9853C13.7077 21.9853 13.701 21.9071 13.6161 21.8323V21.8325Z" fill="#6E6342"/>
<path fill-rule="evenodd" clip-rule="evenodd" d="M13.4496 21.0848C13.4326 21.068 13.5005 21.0272 13.5413 21.034C13.582 21.0407 13.5991 21.068 13.6432 21.0747C13.6873 21.0814 13.6943 21.0577 13.7104 21.0407C13.7265 21.0237 13.7852 21.034 13.7953 21.0407C13.8016 21.0481 13.8072 21.0561 13.8123 21.0644C13.813 21.0515 13.8164 21.0389 13.8222 21.0273C13.828 21.0157 13.8362 21.0055 13.8461 20.9972C13.8592 20.9876 13.8742 20.9811 13.8901 20.9782C13.906 20.9752 13.9224 20.9759 13.938 20.9802C13.9447 21.0039 13.9787 21.0888 13.972 21.1059C13.9653 21.1229 13.8634 21.1469 13.8461 21.1296C13.8632 21.1706 13.938 21.2555 13.948 21.2723C13.9581 21.2891 13.8732 21.3301 13.8394 21.3234C13.7919 21.32 13.4996 21.15 13.4488 21.0855L13.4496 21.0848ZM13.8947 20.5208C13.8884 20.5037 13.8764 20.4892 13.8607 20.48C13.8369 20.4733 13.7588 20.48 13.7588 20.5208C13.7588 20.5615 13.826 20.7896 13.9015 20.9083C13.9866 21.0272 14.0441 21.1256 14.1019 21.1529C14.1201 21.1612 14.1407 21.1622 14.1596 21.1559C14.1785 21.1496 14.1943 21.1364 14.2039 21.1189C14.2106 21.1018 14.2276 20.9762 14.2209 20.6805C14.2142 20.3848 14.2039 20.0994 14.1868 20.0824C14.1698 20.0654 14.1019 20.0656 14.0782 20.0994C14.0544 20.1333 13.9015 20.4699 13.8945 20.5208H13.8947Z" fill="#585136"/>
<path fill-rule="evenodd" clip-rule="evenodd" d="M13.5923 22.2606C13.5923 22.2606 13.4734 22.1858 13.3578 22.2368C13.2492 22.2879 13.2559 22.4884 13.2559 22.4884C13.2803 22.498 13.3067 22.5014 13.3328 22.4984C13.3589 22.4955 13.3838 22.4862 13.4055 22.4714C13.4803 22.4205 13.5753 22.3356 13.5923 22.2608V22.2606Z" fill="#574F35"/>
<path fill-rule="evenodd" clip-rule="evenodd" d="M13.8165 22.5291C13.8098 22.4619 13.7493 22.4619 13.7493 22.4272C13.7535 22.4106 13.7631 22.3959 13.7766 22.3854C13.7902 22.375 13.8068 22.3693 13.8239 22.3694C13.858 22.3694 13.8911 22.4102 13.9328 22.4366C13.9736 22.4604 14.0347 22.5038 14.0414 22.5556C14.0481 22.6073 13.9742 22.7491 13.892 22.7491C13.8098 22.7491 13.8342 22.5961 13.8172 22.5283L13.8165 22.5291ZM14.4724 22.4373C14.4724 22.4373 14.3364 22.4781 14.3465 22.4373C14.3566 22.3965 14.3875 22.3865 14.4316 22.3865C14.4541 22.363 14.4842 22.3484 14.5165 22.3455C14.535 22.3446 14.5532 22.3506 14.5674 22.3625C14.5674 22.3625 14.6592 22.3217 14.6863 22.3455C14.7134 22.3692 14.6933 22.3692 14.7101 22.3965C14.7315 22.4269 14.7455 22.4618 14.7511 22.4985C14.7511 22.5256 14.6491 22.5834 14.5674 22.5733C14.4724 22.5529 14.4892 22.4543 14.4724 22.4373V22.4373ZM15.264 22.2843C15.264 22.2843 15.3048 22.3081 15.271 22.3354C15.2472 22.3591 15.1283 22.4026 15.0261 22.4102C14.9242 22.4102 14.8326 22.427 14.8326 22.3932C14.8326 22.3594 14.9175 22.2913 14.9683 22.2742C14.9785 22.2615 14.9915 22.2512 15.0062 22.2441C15.021 22.237 15.0371 22.2334 15.0535 22.2335C15.0942 22.2335 15.2537 22.2164 15.2981 22.2097C15.3388 22.2028 15.3729 22.2265 15.3489 22.2606C15.3388 22.2843 15.264 22.2843 15.264 22.2843V22.2843ZM15.4985 21.2351C15.4985 21.2351 15.4475 21.3437 15.3899 21.3437C15.3321 21.337 15.3321 21.32 15.3321 21.303C15.3321 21.2792 15.3899 21.2181 15.383 21.2011C15.3662 21.2011 15.3252 21.2011 15.3321 21.1603C15.3321 21.1262 15.3899 21.0855 15.4408 21.0931C15.4792 21.0615 15.527 21.0436 15.5767 21.0422C15.6345 21.0422 15.6854 21.059 15.6854 21.0931C15.6854 21.1271 15.6182 21.2017 15.5935 21.219C15.5664 21.2461 15.5324 21.2638 15.4985 21.2358V21.2351ZM14.7237 23.2433C14.7237 23.2433 14.6565 23.2502 14.6565 23.284C14.6565 23.3011 14.6733 23.3011 14.6973 23.291C14.7111 23.2902 14.7248 23.2879 14.7381 23.284C14.7448 23.291 14.7448 23.3248 14.7959 23.3248C14.8378 23.3191 14.8782 23.3053 14.9148 23.284C14.9556 23.2672 14.9896 23.25 14.9896 23.2168C14.9726 23.159 14.9385 23.1317 14.8877 23.1317C14.8616 23.1301 14.8357 23.136 14.8129 23.1487C14.8129 23.1487 14.7959 23.1147 14.7381 23.1487C14.6803 23.1828 14.687 23.1828 14.704 23.1998C14.7345 23.2269 14.7244 23.2446 14.7244 23.2446L14.7237 23.2433ZM14.3398 23.5967C14.3398 23.5797 14.4247 23.5457 14.4484 23.556C14.4722 23.5627 14.54 23.6917 14.54 23.7054C14.54 23.7224 14.4552 23.7632 14.4211 23.7632C14.3871 23.7632 14.3295 23.7054 14.3295 23.696C14.3295 23.6892 14.3703 23.6792 14.3703 23.6722C14.3803 23.6554 14.3398 23.6144 14.3398 23.5974V23.5967ZM14.071 23.1006C14.088 23.0939 14.088 23.0768 14.1118 23.0598C14.1192 23.0549 14.1277 23.0517 14.1365 23.0505C14.1454 23.0494 14.1544 23.0502 14.1628 23.0531C14.1688 23.0424 14.1771 23.0332 14.1871 23.0261C14.1971 23.019 14.2086 23.0142 14.2206 23.0121C14.2614 23.0054 14.2954 23.0121 14.2878 23.0291C14.2878 23.0802 14.3219 23.114 14.3219 23.1548C14.3219 23.1955 14.2981 23.2466 14.2132 23.2807C14.1283 23.3044 14.0128 23.3044 13.9957 23.2977C13.9787 23.291 13.9617 23.2229 13.9787 23.1888C13.9957 23.1548 14.0432 23.1176 14.0705 23.1006H14.071Z" fill="#82764F"/>
<path fill-rule="evenodd" clip-rule="evenodd" d="M14.1792 23.1238C14.1792 23.1238 14.1214 23.1578 14.1214 23.1748C14.1163 23.1913 14.114 23.2085 14.1147 23.2257C14.1147 23.2358 14.1895 23.219 14.1996 23.2087C14.203 23.202 14.1792 23.1415 14.1792 23.1238Z" fill="#6E6342"/>
<path fill-rule="evenodd" clip-rule="evenodd" d="M13.6739 22.9641C13.7077 22.971 13.7655 22.9641 13.8096 22.9811C13.8436 22.9981 13.8674 23.0322 13.8333 23.0729C13.7993 23.1137 13.7661 23.1748 13.6907 23.1645C13.6058 23.1578 13.5242 23.1137 13.5242 23.0796C13.5228 23.0581 13.5257 23.0365 13.5327 23.0161C13.5397 22.9957 13.5506 22.9768 13.565 22.9607C13.599 22.9336 13.6158 22.9506 13.6736 22.9641H13.6739Z" fill="#585136"/>
<path fill-rule="evenodd" clip-rule="evenodd" d="M13.6331 22.998C13.6331 22.998 13.5245 23.0829 13.4971 23.1239C13.4631 23.1647 13.2966 23.3753 13.2458 23.4194C13.2627 23.3896 13.2819 23.3612 13.3034 23.3345C13.2362 23.3775 13.1858 23.4422 13.1607 23.518C13.1199 23.6438 13.3885 23.7117 13.565 23.7628C13.7415 23.8139 13.8098 23.83 13.8098 23.83C13.7448 23.7323 13.6891 23.6288 13.6432 23.5209C13.576 23.3612 13.5413 23.3441 13.5854 23.2693C13.6194 23.1945 13.6705 23.1436 13.6705 23.0859C13.6501 23.0321 13.6331 22.998 13.6331 22.998Z" fill="#574F35"/>
<path fill-rule="evenodd" clip-rule="evenodd" d="M9.75924 23.2666C9.78397 23.2711 9.80932 23.2711 9.83405 23.2666C9.8849 23.2596 10.4151 23.065 10.9691 23.0999C11.3838 23.125 11.7948 23.1925 12.1957 23.3015C12.8923 23.485 13.7588 23.8485 14.3194 24.0559C14.4688 24.1135 14.6151 24.2156 14.7226 24.2562C15.1509 24.4228 15.1677 24.4228 15.4193 24.467C15.7149 24.5077 16.0173 24.4092 16.3334 24.3413C16.7207 24.2562 17.3833 24.2154 17.9644 24.1305C18.1522 24.1045 18.3376 24.0624 18.5183 24.0049C18.5183 24.0049 18.0562 24.467 16.9483 24.6334C16.5005 24.7014 16.0454 24.7071 15.596 24.6504C15.2425 24.6164 15.0082 24.5653 14.8315 24.5145C14.631 24.4567 14.2197 24.3037 13.7135 24.1785C13.36 24.0866 12.9658 24.0187 12.514 23.9338C11.3994 23.7298 10.1898 23.4955 9.75879 23.2679L9.75924 23.2666Z" fill="#252211"/>
<path fill-rule="evenodd" clip-rule="evenodd" d="M8.50865 21.1667C8.23985 21.3943 7.9547 21.6118 7.67627 21.8224L6.83694 22.4673C6.55156 22.6779 6.27291 22.8954 5.98731 23.1061C5.70171 23.3169 5.41656 23.5172 5.11371 23.7109C5.38251 23.4834 5.66766 23.2726 5.95304 23.0654C6.23841 22.8582 6.53432 22.655 6.80961 22.4449L7.64894 21.7991C7.93768 21.5885 8.21633 21.371 8.50865 21.1672V21.1667ZM7.02376 23.5454C7.02376 23.5454 7.32616 23.2939 7.70337 22.9406C8.1722 22.5025 8.74654 21.9416 8.93 21.8399L7.02353 23.5456L7.02376 23.5454Z" fill="#CFB66C"/>
<path fill-rule="evenodd" clip-rule="evenodd" d="M7.02374 23.545C7.17337 23.3956 7.33309 23.2495 7.4928 23.1066L7.73741 22.8961C7.81222 22.8289 7.89734 22.7534 7.97194 22.6785C8.12134 22.5291 8.26762 22.3692 8.41702 22.2164C8.49108 22.1396 8.56937 22.067 8.65155 21.9989C8.69263 21.9626 8.73826 21.9317 8.7873 21.9071C8.82829 21.8833 8.87241 21.8399 8.92998 21.8323C8.89616 21.8833 8.85539 21.9071 8.82134 21.9512C8.78057 21.9853 8.74653 22.026 8.7127 22.0599C8.63789 22.1347 8.55299 22.2025 8.47817 22.2706C8.31846 22.4066 8.15203 22.5394 7.99232 22.6817C7.83261 22.8239 7.6832 22.9774 7.52326 23.1201C7.35011 23.2663 7.1904 23.409 7.02374 23.5457V23.545ZM9.05587 22.1857C9.05587 22.1857 7.94819 23.2699 7.72038 23.4464L9.05587 22.1857Z" fill="#CFB66C"/>
<path fill-rule="evenodd" clip-rule="evenodd" d="M9.05589 22.1858C8.95624 22.3011 8.8494 22.4101 8.73601 22.5119L8.40001 22.8314C8.29137 22.94 8.18923 23.0489 8.07387 23.1575C7.95493 23.2594 7.84629 23.3591 7.7204 23.4532L8.04654 23.1338C8.15541 23.0251 8.27435 22.9335 8.38993 22.8246L8.71608 22.5052C8.82808 22.3932 8.93694 22.2844 9.05589 22.1858V22.1858ZM9.10673 22.7736C9.00463 23.0585 8.88432 23.3366 8.74654 23.6062C8.46117 24.1772 8.0331 24.8906 7.84606 25.2544L9.10673 22.7736Z" fill="#CFB66C"/>
<path fill-rule="evenodd" clip-rule="evenodd" d="M9.10671 22.7739C9.10671 22.8996 9.07266 23.0085 9.03189 23.1171C8.99215 23.2258 8.94684 23.3324 8.89615 23.4365C8.84508 23.5384 8.78728 23.6473 8.72949 23.7459C8.6717 23.8444 8.60383 23.9461 8.55276 24.0483L8.20959 24.6531C8.09064 24.8547 7.97506 25.0574 7.8494 25.2511C7.93429 25.0336 8.04988 24.8298 8.15874 24.6293C8.27768 24.4277 8.38632 24.2261 8.49474 24.0176C8.54767 23.9137 8.5953 23.8071 8.63743 23.6984C8.68828 23.5895 8.73912 23.4876 8.78012 23.389C8.83096 23.2804 8.87173 23.1782 8.9228 23.0799C8.98037 22.9744 9.02808 22.8725 9.10626 22.7739H9.10671Z" fill="#CFB66C"/>
<path fill-rule="evenodd" clip-rule="evenodd" d="M10.3165 25.5603C10.3165 25.5603 9.98054 26.0054 10.0141 26.5694C10.1058 26.274 10.2213 25.8219 10.3165 25.5603ZM10.636 26.0065C10.636 26.0065 10.517 27.2161 10.4185 27.8108C10.5578 27.1234 10.5849 27.1812 10.636 26.0065ZM12.8616 27.8823C12.8616 27.8823 12.3588 29.3607 12.3484 29.7715C12.4573 29.349 12.6679 28.486 12.8616 27.8812V27.8823Z" fill="#DEC270"/>
<path fill-rule="evenodd" clip-rule="evenodd" d="M14.0374 25.4688C14.0374 25.4688 14.853 26.8143 15.4647 27.9628C15.2992 27.3848 14.9184 26.3249 14.0374 25.4688Z" fill="#CBAF59"/>
<path fill-rule="evenodd" clip-rule="evenodd" d="M16.2292 27.4497C16.677 28.2412 17.0809 29.0569 17.4388 29.8929C17.371 29.3152 17.1873 28.3264 16.2292 27.4497Z" fill="#E3C677"/>
<path fill-rule="evenodd" clip-rule="evenodd" d="M22.6719 29.4335C22.8077 29.3487 23.0762 28.8863 23.3108 28.771C23.5451 28.652 23.7218 28.6283 23.9326 28.3937C24.1432 28.1489 24.2014 27.9995 24.6631 27.806C25.3088 27.5271 24.8647 27.1669 24.8647 27.1669C24.9358 27.097 25.0118 27.0323 25.0922 26.9734C25.2589 26.8477 25.4524 26.6947 25.4356 26.4261C25.4119 25.9743 25.327 25.3184 24.9565 24.9379C25.3167 24.8631 26.0064 24.8122 26.4349 24.7036C26.9308 24.5777 27.1586 24.4009 27.1586 24.4009C27.1586 24.4009 26.8733 23.9151 27.3354 23.4259C27.7975 22.9367 28.1747 22.6443 28.4534 22.0971C28.1339 22.0563 27.647 21.8865 26.4042 22.3587C26.4713 22.3903 26.536 22.4266 26.598 22.4674C26.598 22.4674 25.8335 22.6782 25.5548 22.9127C25.0687 23.3237 25.0076 23.6602 24.4809 23.9117C23.9543 24.1633 23.4241 24.0952 22.986 24.299C22.5478 24.5029 22.4831 24.6762 22.3232 24.7511C22.3572 24.7918 22.3164 24.8597 22.3809 24.9175C22.3402 24.9753 22.1023 25.3626 21.861 25.3626C21.8848 25.4544 22.0886 25.5223 22.0886 25.5223C22.0886 25.5223 21.9392 25.6311 21.5586 25.6582C21.7522 25.8598 21.9359 26.0796 22.4421 26.399C22.4013 26.4839 22.2313 26.6098 22.2994 26.7695C22.3742 26.9292 22.5682 27.1467 23.3426 27.3235C22.9483 27.3403 22.4864 27.4321 21.8642 27.3472C21.2424 27.2724 21.1404 27.2283 20.7565 27.3235C20.7973 27.3642 20.9059 27.3642 21.0011 27.4729C20.8992 27.4796 20.2603 27.3981 20.0428 27.6837C19.8152 27.9791 19.7167 28.4652 19.7337 28.7913C19.6148 28.8491 19.4992 28.9511 19.557 29.1618C19.6148 29.3726 19.9172 29.4405 20.1109 29.5729C20.3045 29.7156 20.3215 29.7664 20.5052 29.7326C20.6987 29.6918 20.9841 29.4983 21.1507 29.4983C21.3174 29.4983 21.4361 29.6239 21.4361 29.6239C21.4361 29.6239 21.8881 29.4064 21.9323 29.4472C21.973 29.488 21.939 29.7496 21.9831 29.7904C22.0279 29.8211 22.5371 29.5187 22.673 29.4335H22.6719Z" fill="#ECD592"/>
<path fill-rule="evenodd" clip-rule="evenodd" d="M32.5501 15.835C30.4264 10.3505 25.1763 9.33447 25.1763 9.33447H10.1976L10.2554 14.9208H13.2384V27.3951H10.1974V32.9714H24.7616C28.2717 32.9714 31.0854 29.4441 31.0854 29.4441C35.5911 23.0491 32.5499 15.835 32.5499 15.835H32.5501ZM24.8398 25.6858C24.8398 25.6858 23.6974 27.334 22.4544 27.334H19.968L19.9091 14.9345H23.1C23.1 14.9345 24.5784 15.2436 25.6113 18.1693C25.6113 18.1693 26.9806 22.3581 24.8398 25.6858V25.6858Z" fill="white" fill-opacity="0.8"/>
</svg>
