<svg width="42" height="42" viewBox="0 0 42 42" fill="none" xmlns="http://www.w3.org/2000/svg">
<circle cx="21" cy="21" r="21" fill="#F5F5FF"/>
<g clip-path="url(#clip0_7277_57737)">
<path d="M21.0549 9.68895C24.892 9.68895 28.0026 7.89022 28.0026 5.67138C28.0026 3.45254 24.892 1.65381 21.0549 1.65381C17.2178 1.65381 14.1072 3.45254 14.1072 5.67138C14.1072 7.89022 17.2178 9.68895 21.0549 9.68895Z" fill="#E6007A"/>
<path d="M21.0549 39.9607C24.892 39.9607 28.0026 38.1619 28.0026 35.9431C28.0026 33.7243 24.892 31.9255 21.0549 31.9255C17.2178 31.9255 14.1072 33.7243 14.1072 35.9431C14.1072 38.1619 17.2178 39.9607 21.0549 39.9607Z" fill="#E6007A"/>
<path d="M11.3729 15.2503C13.2915 11.9464 13.279 8.36811 11.3451 7.25794C9.4112 6.14777 6.28815 7.92611 4.3696 11.23C2.45105 14.5338 2.4635 18.1121 4.39741 19.2223C6.33133 20.3325 9.45437 18.5541 11.3729 15.2503Z" fill="#E6007A"/>
<path d="M37.7373 30.3843C39.6559 27.0804 39.6445 23.5027 37.7119 22.3933C35.7793 21.2839 32.6573 23.0628 30.7387 26.3667C28.8202 29.6706 28.8316 33.2482 30.7642 34.3577C32.6968 35.4671 35.8188 33.6881 37.7373 30.3843Z" fill="#E6007A"/>
<path d="M11.3461 34.3568C13.28 33.2466 13.2925 29.6683 11.3739 26.3645C9.45535 23.0606 6.33231 21.2823 4.39839 22.3924C2.46448 23.5026 2.45202 27.0809 4.37058 30.3848C6.28913 33.6886 9.41217 35.467 11.3461 34.3568Z" fill="#E6007A"/>
<path d="M37.7136 19.2232C39.6462 18.1137 39.6576 14.5361 37.739 11.2322C35.8205 7.92832 32.6985 6.14937 30.7659 7.25879C28.8333 8.36822 28.8219 11.9459 30.7405 15.2498C32.659 18.5536 35.781 20.3326 37.7136 19.2232Z" fill="#E6007A"/>
</g>
<defs>
<clipPath id="clip0_7277_57737">
<rect width="36.2302" height="38.3095" fill="white" transform="translate(2.94116 1.65381)"/>
</clipPath>
</defs>
</svg>
