<svg width="42" height="42" fill="none" xmlns="http://www.w3.org/2000/svg">
  <circle cx="21" cy="21" r="21" fill="#F5F5FF"/>
  <g fill="#E6007A" clip-path="url(#a)">
    <path d="M21.055 9.689c3.837 0 6.948-1.799 6.948-4.018s-3.111-4.017-6.948-4.017-6.948 1.799-6.948 4.017c0 2.22 3.11 4.018 6.948 4.018m0 30.271c3.837 0 6.948-1.798 6.948-4.017s-3.111-4.017-6.948-4.017-6.948 1.798-6.948 4.017 3.11 4.018 6.948 4.018zm-9.682-24.71c1.918-3.304 1.906-6.882-.028-7.992s-5.057.668-6.975 3.972c-1.919 3.304-1.907 6.882.027 7.992s5.057-.668 6.976-3.972m26.364 15.134c1.919-3.304 1.907-6.881-.025-7.99-1.933-1.11-5.055.669-6.973 3.973s-1.907 6.881.025 7.99c1.933 1.11 5.055-.669 6.973-3.973m-26.391 3.973c1.934-1.11 1.947-4.689.028-7.992s-5.042-5.083-6.976-3.973-1.946 4.689-.027 7.993c1.918 3.304 5.041 5.082 6.975 3.972m26.368-15.134c1.932-1.11 1.944-4.687.025-7.99-1.918-3.305-5.04-5.084-6.973-3.974s-1.944 4.687-.025 7.99c1.918 3.305 5.04 5.084 6.973 3.974"/>
  </g>
  <defs>
    <clipPath id="a">
      <path fill="#fff" d="M2.941 1.654h36.23v38.309H2.941z"/>
    </clipPath>
  </defs>
</svg>
