<svg width="42" height="42" viewBox="0 0 42 42" fill="none" xmlns="http://www.w3.org/2000/svg">
<circle cx="21" cy="21" r="21" fill="#F5F5FF"/>
<g clip-path="url(#clip0_7215_43009)">
<path d="M21.0549 9.68883C24.892 9.68883 28.0026 7.8901 28.0026 5.67126C28.0026 3.45241 24.892 1.65369 21.0549 1.65369C17.2178 1.65369 14.1072 3.45241 14.1072 5.67126C14.1072 7.8901 17.2178 9.68883 21.0549 9.68883Z" fill="#E6007A"/>
<path d="M21.0549 39.9605C24.892 39.9605 28.0026 38.1618 28.0026 35.9429C28.0026 33.7241 24.892 31.9254 21.0549 31.9254C17.2178 31.9254 14.1072 33.7241 14.1072 35.9429C14.1072 38.1618 17.2178 39.9605 21.0549 39.9605Z" fill="#E6007A"/>
<path d="M11.3729 15.2501C13.2915 11.9462 13.279 8.36795 11.3451 7.25777C9.4112 6.1476 6.28815 7.92594 4.3696 11.2298C2.45105 14.5337 2.4635 18.112 4.39741 19.2221C6.33133 20.3323 9.45437 18.554 11.3729 15.2501Z" fill="#E6007A"/>
<path d="M37.7373 30.3841C39.6559 27.0802 39.6445 23.5026 37.7119 22.3931C35.7793 21.2837 32.6573 23.0627 30.7387 26.3665C28.8202 29.6704 28.8316 33.2481 30.7642 34.3575C32.6968 35.4669 35.8188 33.688 37.7373 30.3841Z" fill="#E6007A"/>
<path d="M11.3461 34.3566C13.28 33.2464 13.2925 29.6681 11.3739 26.3643C9.45535 23.0604 6.33231 21.2821 4.39839 22.3922C2.46448 23.5024 2.45202 27.0807 4.37058 30.3846C6.28913 33.6884 9.41217 35.4668 11.3461 34.3566Z" fill="#E6007A"/>
<path d="M37.7136 19.223C39.6462 18.1136 39.6576 14.5359 37.739 11.2321C35.8205 7.92818 32.6985 6.14924 30.7659 7.25866C28.8333 8.36808 28.8219 11.9458 30.7405 15.2496C32.659 18.5535 35.781 20.3324 37.7136 19.223Z" fill="#E6007A"/>
</g>
<defs>
<clipPath id="clip0_7215_43009">
<rect width="36.2302" height="38.3095" fill="white" transform="translate(2.94116 1.65369)"/>
</clipPath>
</defs>
</svg>
