<svg width="42" height="42" fill="none" viewBox="0 0 42 42" xmlns="http://www.w3.org/2000/svg">
  <g clip-path="url(#a)">
    <path fill="#000" d="M20.957 0C9.382 0 0 9.383 0 20.957s9.383 20.957 20.957 20.957 20.956-9.383 20.956-20.957S32.531 0 20.957 0"/>
    <path fill="#fff" fill-rule="evenodd" d="M16.37 11.171h-.456l-.296.348-7.474 8.78-.546.64.546.641 7.474 8.78.296.347h14.902v-6.57H28.84v4.593H18.533l6.179-7.144.559-.647-.56-.646-6.178-7.144h10.306v4.592h1.977v-6.57zm.007 2.507-6.182 7.261 6.182 7.262 6.28-7.262z" clip-rule="evenodd"/>
  </g>
  <defs>
    <clipPath id="a">
      <path fill="#fff" d="M0 0h42v42H0z"/>
    </clipPath>
  </defs>
</svg>
