<svg xmlns="http://www.w3.org/2000/svg" width="42" height="42" fill="none"><g clip-path="url(#a)"><path fill="#7866D5" d="M21.015 42.03c11.606 0 21.015-9.409 21.015-21.015S32.62 0 21.015 0 0 9.409 0 21.015 9.409 42.03 21.015 42.03z"/><path fill="#fff" d="M29.522 10.789c.71.089 1.452.148 2.163.267 1.393.267 1.868.978 1.63 2.4-.059.534-.474.95-1.007 1.038-.326.06-.682.089-1.008.06-4.624 0-9.218.029-13.842.029-.682 0-1.393.06-2.075.178-2.282.355-3.171 1.304-3.35 3.616-.088 1.067-.088 1.067 1.009 1.067h18.91c.296 0 .563.089.83.237.83.534.622 1.393.593 2.164-.03.622-.415.978-1.067 1.096-.267.06-.534.06-.83.06H12.627c-.682 0-.682 0-.623.681.03.623.09 1.245.237 1.868.297 1.126.979 1.837 2.135 2.163 1.244.356 2.548.415 3.823.445h13.486c.564 0 1.097.06 1.453.593.563.89.266 2.045-.623 2.608a.918.918 0 0 1-.385.178c-.978.326-1.986.385-3.023.415-4.239.089-8.448.089-12.657 0a21.346 21.346 0 0 1-3.883-.445c-2.993-.622-4.505-2.163-5.009-5.187-.118-.681-.178-1.393-.266-2.104v-5.513c.059-.534.118-1.097.177-1.63.386-3.409 1.927-5.098 5.276-5.87 1.186-.266 2.43-.325 3.616-.444l13.16.03z"/><path fill="#fff" d="M22.764 32.545c-2.134 0-4.239-.03-6.343-.06a19.92 19.92 0 0 1-3.972-.474c-3.23-.681-4.89-2.4-5.424-5.602a13.428 13.428 0 0 1-.178-1.482c-.03-.207-.06-.415-.09-.652v-5.631l.06-.534c.03-.385.09-.74.119-1.097.415-3.645 2.134-5.513 5.72-6.313.949-.207 1.868-.296 2.787-.385l.889-.09H29.61c.207.03.444.06.651.06.504.06 1.008.089 1.542.208 1.69.326 2.341 1.274 2.045 2.993-.089.741-.682 1.364-1.482 1.482-.356.06-.711.09-1.097.09-4.594.029-9.218.058-13.812.058-.652 0-1.334.06-1.986.178-2.045.326-2.727 1.067-2.905 3.142 0 .178-.03.356-.03.504h19.415c.385 0 .77.119 1.097.296 1.008.652.919 1.63.86 2.342 0 .089-.03.207-.03.296-.06.83-.563 1.393-1.482 1.571-.326.06-.623.06-.92.06h-18.94v.118c.03.623.09 1.215.238 1.808.237.919.8 1.482 1.749 1.749 1.274.356 2.578.415 3.705.415 3.497.03 7.054.03 10.522.03h2.964c.445 0 1.363 0 1.897.86.355.562.444 1.214.296 1.837a2.453 2.453 0 0 1-1.6 1.749c-1.097.355-2.223.415-3.172.444-2.104 0-4.238.03-6.372.03zM7.825 24.186c.03.208.06.415.06.623l.177 1.422c.474 2.787 1.808 4.15 4.594 4.743 1.245.267 2.52.415 3.794.445 4.18.088 8.448.088 12.657 0 .86-.03 1.896-.09 2.845-.386.089-.03.178-.089.267-.118.296-.208.533-.504.622-.86a1.29 1.29 0 0 0-.178-1.037c-.177-.267-.415-.356-.978-.356h-2.964c-3.438 0-7.024 0-10.522-.03-1.186 0-2.579-.059-3.972-.474-1.334-.356-2.164-1.215-2.49-2.549a9.087 9.087 0 0 1-.237-1.986v-.03c-.03-.415-.059-.71.178-.978.237-.266.563-.266.978-.266h18.851c.237 0 .504 0 .741-.06.475-.089.593-.296.623-.593 0-.118.03-.207.03-.326.059-.74.059-1.096-.356-1.363a1.108 1.108 0 0 0-.534-.148h-18.97c-.651 0-1.037 0-1.333-.297-.297-.296-.237-.71-.208-1.333.208-2.55 1.275-3.705 3.794-4.09a17.279 17.279 0 0 1 2.164-.208c4.624 0 9.218-.03 13.842-.03.326 0 .622 0 .919-.06a.631.631 0 0 0 .563-.562c.207-1.186-.089-1.571-1.215-1.808a11.658 11.658 0 0 0-1.423-.178 4.837 4.837 0 0 0-.652-.06H16.39l-.89.09c-.918.088-1.778.148-2.667.355-3.112.77-4.476 2.282-4.831 5.484-.03.355-.09.711-.119 1.096l-.059.504v5.424z"/></g><defs><clipPath id="a"><path fill="#fff" d="M0 0h42v42H0z"/></clipPath></defs></svg>