<svg width="42" height="42" viewBox="0 0 42 42" fill="none" xmlns="http://www.w3.org/2000/svg">
<g clip-path="url(#clip0_7277_55707)">
<path d="M21 42C32.598 42 42 32.598 42 21C42 9.40202 32.598 0 21 0C9.40202 0 0 9.40202 0 21C0 32.598 9.40202 42 21 42Z" fill="black"/>
<path fill-rule="evenodd" clip-rule="evenodd" d="M21.0039 5.50856C21.1807 5.50713 21.352 5.58971 21.4604 5.73784L28.1712 14.907C28.2173 14.9699 28.2497 15.0417 28.2664 15.1179L31.5148 29.9531C31.5654 30.1841 31.4655 30.4219 31.2651 30.5474L21.3058 36.7871C21.2132 36.8451 21.1083 36.8734 21.0039 36.8725C20.8995 36.8734 20.7946 36.8451 20.702 36.7871L10.7428 30.5474C10.5424 30.4219 10.4425 30.1841 10.493 29.9532L13.7402 15.118C13.7568 15.0418 13.7893 14.9699 13.8353 14.9069L20.5475 5.7378C20.6559 5.5897 20.8272 5.50713 21.0039 5.50856ZM20.4393 7.78163L14.9072 15.3389L16.2886 19.6762L20.4393 12.3522V7.78163ZM21.0039 13.6275L16.7517 21.1305L19.4214 29.5129H22.586L25.2555 21.1294L21.0039 13.6275ZM26.0081 22.4573L23.7614 29.5129H30.0067L26.0081 22.4573ZM29.0192 30.6329H23.4048L22.0056 35.027L29.0192 30.6329ZM21.0039 34.4815L22.2294 30.6329H19.7782L21.0039 34.4815ZM18.246 29.5129L15.9992 22.4583L12.0011 29.5129H18.246ZM12.3791 26.5745L15.536 21.0041L14.3876 17.3982L12.3791 26.5745ZM12.9887 30.6329H18.6027L20.0022 35.027L12.9887 30.6329ZM29.6283 26.5736L26.4712 21.003L27.6191 17.3981L29.6283 26.5736ZM27.0994 15.3389L25.7187 19.6751L21.5685 12.3522V7.7819L27.0994 15.3389Z" fill="white"/>
</g>
<defs>
<clipPath id="clip0_7277_55707">
<rect width="42" height="42" fill="white"/>
</clipPath>
</defs>
</svg>
