<svg width="42" height="42" viewBox="0 0 42 42" fill="none" xmlns="http://www.w3.org/2000/svg"><g clip-path="url(#clip0_7698_9620)"><path d="M21 42c11.598 0 21-9.402 21-21S32.598 0 21 0 0 9.402 0 21s9.402 21 21 21z" fill="#000"/><path fill-rule="evenodd" clip-rule="evenodd" d="M21.004 5.509a.56.56 0 01.456.229l6.711 9.169a.562.562 0 01.095.211l3.249 14.835a.56.56 0 01-.25.595l-9.96 6.24a.56.56 0 01-.301.085.56.56 0 01-.302-.086l-9.96-6.24a.56.56 0 01-.249-.594l3.247-14.835a.56.56 0 01.095-.211l6.712-9.17a.56.56 0 01.457-.228zm-.565 2.273l-5.532 7.557 1.381 4.337 4.151-7.324v-4.57zm.565 5.846l-4.252 7.503 2.67 8.382h3.164l2.67-8.384-4.252-7.501zm5.004 8.83l-2.247 7.055h6.246l-3.999-7.056zm3.011 8.175h-5.614l-1.4 4.394 7.014-4.394zm-8.015 3.848l1.225-3.848h-2.45l1.225 3.848zm-2.758-4.968l-2.247-7.055-3.998 7.055h6.245zm-5.867-2.939l3.157-5.57-1.149-3.606-2.008 9.177zm.61 4.059h5.614l1.4 4.394-7.014-4.394zm16.64-4.06l-3.158-5.57 1.148-3.605 2.01 9.176zm-2.53-11.234l-1.38 4.336-4.15-7.323v-4.57l5.53 7.557z" fill="#fff"/></g><defs><clipPath id="clip0_7698_9620"><path fill="#fff" d="M0 0h42v42H0z"/></clipPath></defs></svg>