<svg xmlns="http://www.w3.org/2000/svg" width="42" height="42" fill="none"><g clip-path="url(#a)"><path fill="#328332" d="M21 42c11.598 0 21-9.402 21-21S32.598 0 21 0 0 9.402 0 21s9.402 21 21 21z"/><path fill="#fff" d="m20.986 21.726-8.822-.758 8.82-4.99v5.748h.002zm0 5.854v9.108c-3.068-4.775-6.449-10.03-9.174-14.284 3.216 1.812 6.574 3.706 9.174 5.177v-.001zm0-13.215-9.174 5.12L20.986 5.25v9.115z"/><path fill="#fff" fill-opacity=".601" d="m29.806 20.968-8.82.758v-5.748l8.82 4.99zm-8.82 6.613c2.598-1.47 5.954-3.365 9.17-5.177-2.724 4.256-6.105 9.51-9.17 14.283v-9.106zm0-13.216V5.25l9.17 14.234-9.17-5.119z"/><path fill="#fff" fill-rule="evenodd" d="m20.985 21.726 8.82-.758-8.82 4.955v-4.197z" clip-rule="evenodd" opacity=".2"/><path fill="#fff" fill-rule="evenodd" d="m20.985 21.726-8.821-.758 8.82 4.955v-4.197z" clip-rule="evenodd" opacity=".603"/></g><defs><clipPath id="a"><path fill="#fff" d="M0 0h42v42H0z"/></clipPath></defs></svg>