<svg width="42" height="42" viewBox="0 0 42 42" fill="none" xmlns="http://www.w3.org/2000/svg">
<g clip-path="url(#clip0_7277_55698)">
<path d="M21 42C32.598 42 42 32.598 42 21C42 9.40202 32.598 0 21 0C9.40202 0 0 9.40202 0 21C0 32.598 9.40202 42 21 42Z" fill="#328332"/>
<path d="M20.9856 21.7258L12.1642 20.9685L20.9842 15.9784V21.7258H20.9856ZM20.9856 27.5796V36.6883C17.9183 31.9134 14.5372 26.6582 11.8125 22.4044C15.0281 24.2156 18.3855 26.1096 20.9856 27.5809V27.5796ZM20.9856 14.3653L11.8125 19.4841L20.9856 5.25V14.3653V14.3653Z" fill="white"/>
<path d="M29.8064 20.9685L20.9851 21.7258V15.9784L29.8051 20.9685H29.8064ZM20.9851 27.5809C23.5839 26.1109 26.9399 24.2156 30.1569 22.4044C27.4321 26.6595 24.0511 31.9147 20.9851 36.687V27.5809V27.5809ZM20.9851 14.3653V5.25L30.1569 19.4841L20.9851 14.3653V14.3653Z" fill="white" fill-opacity="0.601"/>
<path opacity="0.2" fill-rule="evenodd" clip-rule="evenodd" d="M20.9851 21.7258L29.8051 20.9685L20.9851 25.9232V21.7258Z" fill="white"/>
<path opacity="0.603" fill-rule="evenodd" clip-rule="evenodd" d="M20.9849 21.7258L12.1635 20.9685L20.9849 25.9232V21.7258Z" fill="white"/>
</g>
<defs>
<clipPath id="clip0_7277_55698">
<rect width="42" height="42" fill="white"/>
</clipPath>
</defs>
</svg>
