<svg xmlns="http://www.w3.org/2000/svg" width="42" height="42" fill="none"><path fill="#328332" d="M0 21c0 11.598 9.402 21 21 21V0C9.402 0 0 9.402 0 21z"/><path fill="#F7931A" d="M21 42c11.598 0 21-9.402 21-21S32.598 0 21 0v42z"/><path fill="#fff" d="M36.977 17.29c-.198-2.116-2.027-2.828-4.338-3.034l.008-2.935-1.79-.001-.008 2.857c-.47-.001-.951.008-1.43.017l.008-2.877-1.79-.002-.008 2.934c-.388.007-.769.014-1.14.013v-.01l-2.47-.004-.005 1.908s1.323-.023 1.3.001c.726.002.96.422 1.028.785l-.008 3.343c.05 0 .114.003.189.012h-.19l-.012 4.684c-.033.227-.169.59-.676.59.024.02-1.301-.001-1.301-.001l-.362 2.132 2.331.003c.433.002.86.01 1.278.013l-.007 2.968 1.789.002.008-2.935c.491.01.967.014 1.43.015l-.008 2.923 1.79.002.008-2.962c3.012-.168 5.12-.921 5.39-3.741.218-2.27-.85-3.286-2.558-3.697 1.04-.526 1.691-1.454 1.544-3.003zm-2.523 6.343c-.004 2.218-3.812 1.96-5.026 1.96l.012-3.933c1.215.002 5.02-.34 5.013 1.973zm-.818-5.55c-.005 2.019-3.18 1.777-4.19 1.776l.01-3.565c1.01.001 4.186-.316 4.18 1.79zm-22.683 3.343-5.39-.463 5.389-3.05v3.513zm0 3.577v5.566c-1.875-2.918-3.94-6.13-5.606-8.729 1.965 1.107 4.017 2.265 5.606 3.164v-.001zm0-8.075-5.606 3.128 5.606-8.698v5.57z"/><path fill="#fff" fill-opacity=".601" d="m16.343 20.963-5.39.463v-3.512l5.39 3.049zm-5.39 4.04a3345.43 3345.43 0 0 1 5.604-3.163c-1.665 2.6-3.73 5.812-5.604 8.728v-5.564zm0-8.075v-5.57l5.604 8.698-5.604-3.128z"/><path fill="#fff" fill-rule="evenodd" d="m10.953 21.426 5.39-.463-5.39 3.028v-2.565z" clip-rule="evenodd" opacity=".2"/><path fill="#fff" fill-rule="evenodd" d="m10.952 21.426-5.39-.463 5.39 3.028v-2.565z" clip-rule="evenodd" opacity=".603"/></svg>