<svg xmlns="http://www.w3.org/2000/svg" width="42" height="42" fill="none"><path fill="#627EEA" d="M0 21c0 11.598 9.402 21 21 21V0C9.402 0 0 9.402 0 21z"/><path fill="#F7931A" d="M21 42c11.598 0 21-9.402 21-21S32.598 0 21 0v42z"/><path fill="#fff" d="M36.977 17.29c-.198-2.116-2.027-2.828-4.338-3.033l.008-2.935-1.79-.002-.008 2.857c-.47-.001-.951.008-1.43.017l.008-2.876-1.79-.003-.008 2.934c-.388.007-.769.014-1.14.013v-.01l-2.47-.004-.005 1.908s1.323-.023 1.3.001c.726.002.96.422 1.028.785l-.008 3.343c.05 0 .114.003.189.012h-.19l-.012 4.684c-.034.227-.169.59-.676.59.024.02-1.301-.001-1.301-.001l-.362 2.132 2.331.004c.433.001.86.01 1.278.012l-.007 2.968 1.789.002.008-2.935c.491.01.967.014 1.43.015l-.008 2.923 1.79.002.008-2.962c3.012-.168 5.12-.921 5.39-3.741.218-2.27-.85-3.286-2.558-3.697 1.04-.526 1.691-1.454 1.544-3.003zm-2.524 6.343c-.004 2.218-3.811 1.96-5.025 1.96l.012-3.933c1.215.002 5.02-.34 5.013 1.973zm-.817-5.55c-.005 2.019-3.18 1.778-4.19 1.776l.01-3.565c1.01.001 4.186-.316 4.18 1.79z"/><path fill="#fff" fill-opacity=".602" d="M10.927 11.413v7.052l5.96 2.663-5.96-9.715z"/><path fill="#fff" d="m10.927 11.413-5.96 9.715 5.96-2.663v-7.052z"/><path fill="#fff" fill-opacity=".602" d="M10.927 25.698v4.791l5.964-8.251-5.964 3.46z"/><path fill="#fff" d="M10.927 30.49v-4.793l-5.96-3.46 5.96 8.252z"/><path fill="#fff" fill-opacity=".2" d="m10.927 24.589 5.96-3.461-5.96-2.662v6.123z"/><path fill="#fff" fill-opacity=".602" d="m4.966 21.128 5.961 3.46v-6.122l-5.96 2.662z"/></svg>