<svg width="43" height="42" fill="none" viewBox="0 0 43 42" xmlns="http://www.w3.org/2000/svg">
  <g clip-path="url(#a)">
    <path fill="#000" d="M21.244 42c11.598 0 21-9.402 21-21s-9.402-21-21-21-21 9.402-21 21 9.402 21 21 21"/>
    <path fill="url(#b)" d="M36.256 23.157q0-.012 0 0c0-.016 0-.024.008-.024a.3.3 0 0 0 .008-.082v-.033q.002-.038-.008-.074v-.016l-1.067-4.455a.45.45 0 0 0-.328-.328l-4.413-1.066h-.025c-.024-.008-.04-.008-.065-.008h-.033c-.025 0-.05.008-.082.008h-.033c-.033.008-.057.024-.09.04-.008 0-.008.01-.017.01a.4.4 0 0 0-.065.048l-.008.009-5.34 5.184a.37.37 0 0 0-.222.221l-1.911 1.862-1.067-3.666a.06.06 0 0 0-.016-.033c-.008-.017-.008-.025-.017-.033a.34.34 0 0 0-.09-.123.7.7 0 0 0-.131-.082c-.008-.008-.025-.008-.033-.016a.06.06 0 0 1-.033-.017l-3.568-.861 7.547-7.514-1.149-5.029-4.864-1.09L6.216 18.866l1.09 4.856 4.422 1.149 1.083 4.274a.43.43 0 0 0 .337.32l4.093.82 1.206 4.307c0 .008.008.016.016.032.008.009.008.025.017.033.024.041.049.09.081.123v.008a.4.4 0 0 0 .132.082c.016.009.024.009.04.017.009.008.025.008.034.016l4.33 1.108a.5.5 0 0 0 .107.016.4.4 0 0 0 .107-.016h.017c.008 0 .016-.008.016-.008.016-.009.033-.009.041-.017.016-.008.025-.016.041-.016.008-.008.025-.017.033-.025s.024-.016.033-.024l.016-.017 12.625-12.542.008-.009.049-.065c0-.009.008-.009.008-.017a1 1 0 0 0 .058-.115m-5.742 4.529-.845-3.396 2.083-2.084 3.257 1.009zm-7.096 7.054-.944-3.248 3.799-3.798 3.19 1.041zm-5.185-4.183 3.003.918-2.141 2.141zm6.423-6.9.911 3.495-3.634 3.634-3.51-1.074zm5.488-5.331.985 3.265-2.051 2.05-3.322-1.05zm-.484 9.548-2.69-.877 1.977-1.977zm-3.37-1.443-.78-2.994 2.872.903zm-4.528 5.767.804 2.756-2.839-.721zm13.47-9.819-3.25-1.009-.975-3.256 3.404.82zM17.84 29.055l-.796-3.273 1.214-1.271 3.29.943zm.484-5.89-.878-2.682 2.797.673zm.623.624 1.928-2.026.82 2.805zm-1.312.098L16.42 25.16l-3.47-.886 3.626-3.61zm-4.07-11.098.928 3.076-3.815 3.847-3.141-.919zm6.317-2.363-2.001 2.026-3.24-.73 4.42-4.397zm-.434 6.136-.854-3.585 1.895-1.911 3.363 1.107zm-4.25-1.403-.78-2.584 2.733.616zm2.666-1.452.697 2.945-2.731-.886zm-7.284 7.35.861 2.83-2.912-.754zm.705-.705 3.848-3.88 3.322 1.083-6.152 6.127zm12.789-9.04-3.339-1.1-.845-3.157 3.38.763zM7.29 19.638l2.683.788-2.043 2.059zm6.3 9.016-.894-3.536 3.495.894.812 3.322z"/>
  </g>
  <defs>
    <linearGradient id="b" x1="12.932" x2="29.602" y1="29.348" y2="12.678" gradientUnits="userSpaceOnUse">
      <stop stop-color="#34A3ED"/>
      <stop offset=".999" stop-color="#8165F5"/>
    </linearGradient>
    <clipPath id="a">
      <path fill="#fff" d="M.244 0h42v42h-42z"/>
    </clipPath>
  </defs>
</svg>
