<svg width="42" height="42" viewBox="0 0 42 42" fill="none" xmlns="http://www.w3.org/2000/svg">
<circle cx="21" cy="21" r="21" fill="#06061B"/>
<path d="M23.7391 30.9066C22.6435 30.9066 21.63 30.7513 20.6987 30.4409C19.7674 30.1122 18.9365 29.6466 18.2061 29.0439C17.4939 28.4413 16.8913 27.72 16.3982 26.88C15.9235 26.0218 15.5856 25.0722 15.3848 24.0313H12.7826V22.0318H15.1656C15.1474 21.9039 15.1382 21.767 15.1382 21.6209C15.1382 21.4748 15.1382 21.3196 15.1382 21.1552C15.1382 20.9544 15.1382 20.7626 15.1382 20.58C15.1565 20.3792 15.1656 20.2148 15.1656 20.087H12.7826V18.0874H15.3574C15.5582 17.01 15.9052 16.0422 16.3982 15.1839C16.9095 14.3257 17.5304 13.6044 18.2609 13.02C19.0095 12.4174 19.8587 11.9609 20.8082 11.6505C21.7578 11.34 22.7804 11.1848 23.8761 11.1848C25.1361 11.1848 26.1861 11.3492 27.0261 11.6779C27.8661 12.0066 28.5782 12.4174 29.1626 12.9105L27.793 15.54C27.1722 15.0652 26.5513 14.7366 25.9304 14.5539C25.3278 14.3713 24.6522 14.28 23.9035 14.28C22.5704 14.28 21.4565 14.6087 20.5617 15.2661C19.6669 15.9235 19.0917 16.8639 18.8361 18.0874H26.8069L25.8482 20.087H18.6169C18.6169 20.2513 18.6078 20.4157 18.5895 20.58C18.5895 20.7444 18.5895 20.8996 18.5895 21.0457C18.5895 21.21 18.5895 21.3744 18.5895 21.5387C18.6078 21.7031 18.6169 21.8674 18.6169 22.0318H25.3004L24.3417 24.0313H18.8361C19.0917 25.2366 19.6578 26.1679 20.5343 26.8252C21.4291 27.4826 22.5339 27.8113 23.8487 27.8113C24.6704 27.8113 25.3826 27.7109 25.9852 27.51C26.6061 27.2909 27.1356 27.017 27.5739 26.6883L29.1626 29.1809C28.5052 29.747 27.7291 30.1761 26.8343 30.4683C25.9578 30.7605 24.9261 30.9066 23.7391 30.9066Z" fill="white"/>
</svg>
