<svg width="42" height="42" fill="none" xmlns="http://www.w3.org/2000/svg">
  <circle cx="21" cy="21" r="21" fill="#06061B"/>
  <path fill="#fff" d="M23.74 30.907q-1.644 0-3.041-.466a8.1 8.1 0 0 1-2.493-1.397 8.3 8.3 0 0 1-1.808-2.164 9.6 9.6 0 0 1-1.013-2.849h-2.602v-2h2.383a3 3 0 0 1-.028-.41V20.58q.028-.3.028-.493h-2.383v-2h2.574q.302-1.616 1.041-2.903a8 8 0 0 1 1.863-2.164 8 8 0 0 1 2.547-1.37 9.8 9.8 0 0 1 3.068-.465q1.89 0 3.15.493 1.26.494 2.137 1.232l-1.37 2.63q-.93-.712-1.863-.986-.904-.274-2.026-.274-2.001 0-3.342.986-1.342.987-1.726 2.821h7.97l-.958 2h-7.231q0 .247-.027.493v.959q.027.246.027.493H25.3l-.958 2h-5.506q.384 1.807 1.698 2.793 1.342.986 3.315.986 1.232 0 2.136-.301.931-.33 1.589-.822l1.589 2.493a6.7 6.7 0 0 1-2.329 1.287q-1.314.44-3.095.439z"/>
</svg>
