<svg width="42" height="42" fill="none" viewBox="0 0 42 42" xmlns="http://www.w3.org/2000/svg">
  <g clip-path="url(#a)">
    <circle cx="21" cy="21" r="21" fill="#131514"/>
    <path stroke="#B4B4B4" stroke-width=".208" d="m18.141 21.624-.364.364.364.364m7.381-2.496-.364.364.364.364m-12.475 3.743v-1.404m0-3.69v-1.508m0 3.171v-1.455m0 3.222v-1.455m11.488 3.119v-1.404m0-.26v-1.455m1.663 1.455v-1.455m-6.654-.312v-1.455m0 3.222v-1.455m1.664-.312v-1.455m0 3.222v-1.455m-2.391 3.119v-1.404m0-2.027v-1.455m-3.327 1.455v-1.455m-.832 4.886v-1.404m-.831-3.69v-1.508m0 3.171v-1.455m0 3.222v-1.455m16.425-1.975v-1.508m0 3.171v-1.455m5.718-.208v-1.508m0 3.171v-1.455m-24.534 4.886v-1.404m0-2.027v-1.455M2.91 20.792l.561-1.196m-1.367 2.911.537-1.143M1.3 24.223l.512-1.092m1.93-4.11.536-1.14m4.299 2.911.561-1.196m-1.367 2.911.537-1.143m-1.343 2.859.513-1.092m1.93-4.11.536-1.14m27.326 2.911.561-1.196m-1.367 2.911.537-1.143m-1.343 2.859.513-1.092m1.93-4.11.536-1.14m-16.026 2.911.562-1.196m-1.367 2.911.537-1.143M21 24.223l.513-1.092m1.93-4.11.536-1.14m3.519 2.911.561-1.196m-1.367 2.911.537-1.143m-1.343 2.859.513-1.092m2.762-2.339.561-1.196m-1.367 2.911.537-1.143m-1.342 2.859.512-1.092m3.49-2.339.562-1.196m-1.368 2.911.538-1.143m-1.343 2.859.512-1.092m2.762-2.339.562-1.196m-1.367 2.911.537-1.143m-1.343 2.859.513-1.092m2.762-2.339.561-1.196m-1.367 2.911.537-1.143m-1.343 2.859.513-1.092m5.153-2.339.562-1.196m-1.367 2.911.537-1.143m-1.343 2.859.512-1.092m-14.365-.624.537-1.143m-1.343 2.859.513-1.092m1.93-4.11.536-1.14m-9.045 6.342-.512-1.092m2.176 1.092-.513-1.092m2.391 1.092.513-1.092m-2.443-4.11-.536-1.14m.78 1.14.535-1.14m6.898 1.14.536-1.14m1.128 1.14.535-1.14m2.687 1.14.536-1.14m1.96 1.14.535-1.14m2.687 1.14.535-1.14m-26.68 2.911.56-1.196m-2.172 4.627.512-1.092m-.564-4.11.535-1.14M5.38 22.507l.537-1.143m-1.395-.572.562-1.196M2.91 24.223l.513-1.092m.994-5.77h4.886m.884 0h2.443m1.663 0h3.275m1.664 0h6.497m.832 0h3.223m1.663 0h3.327m.727 0h.936m2.34 0h1.663M3.587 22.56h1.767m3.898 0h2.6m-6.654-1.767h1.04m9.668-1.663h1.04m-1.144 1.767h1.04m13.618 0h1.04m4.782 0h1.04m-21.52 1.663h1.04m2.39-3.43h.728m1.664 0h1.767m3.119 0h.936M1.87 24.327h1.04m4.678 0h1.04m3.119 0h.831m.832 0h.832m2.495 0h.831m1.664 0h.831m1.56 0h.832m2.494 0h.832m.832 0h.831m3.223 0h.832m.728 0h.831m3.327 0h.832M5.302 19.129h3.327m8.265.513a.727.727 0 0 1 0 1.26m7.693-.52c0 .2-.08.379-.208.51"/>
  </g>
  <defs>
    <clipPath id="a">
      <path fill="#fff" d="M0 0h42v42H0z"/>
    </clipPath>
  </defs>
</svg>
