<svg xmlns="http://www.w3.org/2000/svg" width="42" height="42" fill="none"><path fill="#1877F2" d="M42 21C42 9.402 32.598 0 21 0S0 9.402 0 21c0 10.482 7.68 19.17 17.719 20.745V27.07h-5.332V21h5.332v-4.627c0-5.263 3.135-8.17 7.932-8.17 2.297 0 4.7.41 4.7.41v5.168h-2.648c-2.608 0-3.422 1.619-3.422 3.28V21h5.825l-.932 6.07h-4.893v14.675C34.321 40.17 42 31.482 42 21"/><path fill="#fff" d="m29.174 27.07.931-6.07h-5.824v-3.94c0-1.66.814-3.279 3.422-3.279h2.649V8.613s-2.404-.41-4.701-.41c-4.797 0-7.932 2.907-7.932 8.17V21h-5.332v6.07h5.332v14.675a21.158 21.158 0 0 0 6.562 0V27.07h4.893z"/></svg>