<svg width="42" height="42" viewBox="0 0 42 42" fill="none" xmlns="http://www.w3.org/2000/svg">
<path d="M42 21C42 9.40201 32.598 0 21 0C9.40201 0 0 9.40201 0 21C0 31.4817 7.67939 40.1695 17.7188 41.7449V27.0703H12.3867V21H17.7188V16.3735C17.7188 11.1103 20.8539 8.20314 25.6508 8.20314C27.9484 8.20314 30.3516 8.61328 30.3516 8.61328V13.7813H27.7035C25.0948 13.7813 24.2813 15.4 24.2813 17.0608V21H30.1055L29.1744 27.0703H24.2812V41.7449C34.3206 40.1695 42 31.4817 42 21" fill="#1877F2"/>
<path d="M29.1744 27.0703L30.1055 21H24.2812V17.0607C24.2812 15.4 25.0948 13.7812 27.7035 13.7812H30.3516V8.61327C30.3516 8.61327 27.9483 8.20312 25.6507 8.20312C20.8539 8.20312 17.7187 11.1103 17.7187 16.3734V21H12.3867V27.0703H17.7187V41.7449C18.8042 41.915 19.9013 42.0003 21 42C22.1163 42 23.2121 41.9126 24.2812 41.7449V27.0703H29.1744Z" fill="white"/>
</svg>
