<svg width="43" height="43" viewBox="0 0 43 43" fill="none" xmlns="http://www.w3.org/2000/svg">
<circle cx="21.8479" cy="21.6296" r="21" fill="#202944"/>
<rect x="9.77893" y="8.59509" width="24.1379" height="26.069" fill="white"/>
<path d="M7.8479 7.62958V35.6296H35.8479V7.62958H7.8479ZM17.6365 10.8776H20.2544V13.5656H17.6365V10.8776ZM11.0349 10.8776H13.7666V13.5656H11.0349V10.8776ZM13.6528 17.3736V20.0616H10.9211V17.3736H13.6528ZM12.9699 32.1576H11.8316V31.1496H12.856V32.1576H12.9699ZM13.7666 26.7816H11.0349V24.2056H13.7666V26.7816ZM19.5715 32.1576H18.5471V31.1496H19.5715V32.1576ZM19.5715 25.8856H18.5471V24.8776H19.5715V25.8856ZM20.3682 20.1736H17.6365V17.4856H20.3682V20.1736ZM26.1731 32.1576H25.1487V31.1496H26.1731V32.1576ZM26.1731 25.8856H25.1487V24.8776H26.1731V25.8856ZM26.1731 19.2776H25.1487V18.2696H26.1731V19.2776ZM27.0837 13.5656H24.352V10.8776H27.0837V13.5656ZM32.8886 32.1576H31.8642V31.1496H32.8886V32.1576ZM32.8886 25.8856H31.8642V24.8776H32.8886V25.8856ZM32.8886 19.2776H31.8642V18.2696H32.8886V19.2776ZM32.8886 12.7816H31.8642V11.7736H32.8886V12.7816Z" fill="#202944"/>
</svg>
