<svg width="43" height="43" fill="none" xmlns="http://www.w3.org/2000/svg">
  <circle cx="21.848" cy="21.63" r="21" fill="#202944"/>
  <path fill="#fff" d="M9.779 8.595h24.138v26.069H9.779z"/>
  <path fill="#202944" d="M7.848 7.63v28h28v-28zm9.789 3.248h2.617v2.688h-2.617zm-6.602 0h2.732v2.688h-2.732zm2.618 6.496v2.688H10.92v-2.688zm-.683 14.784h-1.138V31.15h1.024v1.008zm.797-5.376h-2.732v-2.576h2.732zm5.805 5.376h-1.025V31.15h1.024zm0-6.272h-1.025v-1.008h1.024zm.796-5.712h-2.731v-2.688h2.731zm5.805 11.984H25.15V31.15h1.024v1.008Zm0-6.272H25.15v-1.008h1.024v1.008Zm0-6.608H25.15V18.27h1.024v1.008Zm.91-5.712h-2.731v-2.688h2.732v2.688Zm5.806 18.592h-1.025V31.15h1.025zm0-6.272h-1.025v-1.008h1.025zm0-6.608h-1.025V18.27h1.025zm0-6.496h-1.025v-1.008h1.025z"/>
</svg>
