<svg xmlns="http://www.w3.org/2000/svg" width="42" height="42" fill="none"><path fill="#0090FF" fill-rule="evenodd" d="M21 42C9.45 42 0 32.55 0 20.897.105 9.346 9.45-.104 21.105 0 32.655.106 42 9.45 42 21.21 41.895 32.656 32.55 42 21 42z" clip-rule="evenodd"/><path fill="#fff" fill-rule="evenodd" d="m22.995 18.48-.63 3.36 5.985.84-.42 1.576-5.88-.84c-.42 1.365-.63 2.835-1.155 4.095-.525 1.47-1.05 2.94-1.68 4.305-.84 1.785-2.31 3.045-4.305 3.36-1.155.21-2.415.105-3.36-.63-.315-.21-.63-.63-.63-.945 0-.42.21-.945.525-1.155.21-.105.735 0 1.05.105.315.315.63.735.84 1.155.63.84 1.47.945 2.31.315.945-.84 1.47-1.995 1.785-3.15.63-2.52 1.26-4.935 1.785-7.455v-.42l-5.565-.84.21-1.575 5.775.84.735-3.255-5.985-.945.21-1.68 6.195.84c.21-.63.315-1.155.525-1.68.525-1.89 1.05-3.78 2.31-5.46 1.26-1.68 2.73-2.73 4.935-2.625.945 0 1.89.315 2.52 1.05.105.105.315.315.315.525 0 .42 0 .945-.315 1.26-.42.315-.945.21-1.365-.21-.315-.315-.525-.63-.84-.945-.63-.84-1.575-.945-2.31-.21A6.725 6.725 0 0 0 25.2 10.08c-.735 2.205-1.26 4.515-1.995 6.825l5.775.84-.42 1.575-5.565-.84" clip-rule="evenodd"/></svg>