<svg xmlns="http://www.w3.org/2000/svg" width="42" height="42" fill="none"><circle cx="21" cy="21" r="21" fill="#F5F5FF"/><path fill="#F4A427" d="M32.223 27.972c-.309 3.64-4.63 6.704-11.111 6.551-6.096-.153-10.378-2.681-10.687-6.32-.038-.46 0-.92.039-1.418.193-1.418.694-2.759 1.427-3.985l.463.192c1.196-.46 2.43-.804 3.704-1.034a24.408 24.408 0 0 1 5.015-.153 24.408 24.408 0 0 1 5.016.153c1.273.23 2.507.574 3.703 1.034l.463-.192.309-.153a12.168 12.168 0 0 1 1.504 3.985c.078.42.116.88.078 1.302"/><path fill="#fff" d="M32.223 27.972c-.309 3.601-4.591 6.551-11.111 6.513-6.096-.153-10.378-2.682-10.687-6.321-.038-.46 0-.92.039-1.418a4.862 4.862 0 0 1 1.967-.038c1.235.192 1.93.958 2.817 1.341.501.23 1.003-.153 1.466-.575a6.89 6.89 0 0 1 4.59-1.915c1.737-.038 3.164.651 4.669 2.03.309.307.733.498 1.157.46a2.943 2.943 0 0 0 1.08-.575 5.63 5.63 0 0 1 3.897-.88c.116.497.154.919.116 1.378z"/><path fill="#F79422" d="M14.283 19.008a3.07 3.07 0 0 1-1.543.843l-.231.038a2.262 2.262 0 0 1-.733.115h-.155c-.115-.038-.27-.077-.386-.115a4.528 4.528 0 0 1-1.157-.728c-.694-.575-1.35-1.226-1.852-1.992-2.122-3.065-1.466-7.202 1.466-9.5.193-.116.425-.116.58.076.076.115.115.23.076.345-.27 1.226-.501 3.141.656 4.788 1.003 1.38 3.086 2.72 4.36 2.72.27 1.533-.155 2.567-1.08 3.41z"/><path fill="#221F1F" fill-rule="evenodd" d="M9.81 8.217c-2.563 2.164-3.095 5.89-1.172 8.667l.007.011c.464.71 1.08 1.324 1.752 1.88l.012.011c.295.26.627.462 1.007.636.041.013.09.027.149.043l.005.002.128.037h.077c.218 0 .397-.03.577-.09a.492.492 0 0 1 .075-.018l.223-.037a2.571 2.571 0 0 0 1.297-.72c.414-.378.696-.779.851-1.238.127-.374.178-.812.125-1.34-.676-.111-1.427-.454-2.107-.882-.846-.534-1.67-1.255-2.216-2.007l-.005-.006c-1.208-1.72-1.038-3.68-.784-4.95zm.157-.128h-.001zm.076-.995a.894.894 0 0 1 .643.372c.108.161.24.433.146.751-.261 1.198-.442 2.915.579 4.37.456.627 1.175 1.265 1.938 1.746.779.49 1.52.765 2.015.765a.5.5 0 0 1 .492.414c.146.83.11 1.559-.11 2.21-.22.649-.61 1.184-1.118 1.648a3.568 3.568 0 0 1-1.79.971l-.016.003-.195.032c-.27.086-.544.128-.851.128h-.154a.505.505 0 0 1-.158-.025 4.763 4.763 0 0 0-.172-.052l-.005-.001a6.563 6.563 0 0 1-.209-.062 5.032 5.032 0 0 1-1.325-.822c-.712-.59-1.405-1.275-1.941-2.094-2.27-3.285-1.564-7.715 1.572-10.173a1.005 1.005 0 0 1 .66-.18z" clip-rule="evenodd"/><path fill="#5A595C" d="m19.839 13.721-.502 4.904H19.3c-.772.115-1.813.268-3.24.498-1.313.191-3.087 1.11-4.129 1.724l-.115-.805c.23-.038.501-.076.732-.115l.232-.038a3.07 3.07 0 0 0 1.543-.843c.887-.88 1.35-1.877 1.042-3.448l.154.039a5.517 5.517 0 0 1 1.62-1.188c.81-.46 1.736-.69 2.7-.728z"/><path fill="#221F1F" fill-rule="evenodd" d="M20.203 13.379a.5.5 0 0 1 .133.393l-.501 4.904a.5.5 0 0 1-.498.449h-.001l-.174.026c-.748.11-1.726.256-3.024.465l-.008.002c-.587.085-1.31.341-2.033.665a20.1 20.1 0 0 0-1.913.995.5.5 0 0 1-.749-.36l-.116-.805a.5.5 0 0 1 .414-.564c.118-.02.246-.04.37-.058h.002c.126-.02.248-.038.36-.057l.224-.037a2.57 2.57 0 0 0 1.28-.706c.408-.404.693-.81.849-1.27.155-.458.196-1.01.055-1.726a.5.5 0 0 1 .472-.596c.46-.45.982-.804 1.559-1.092.887-.5 1.89-.745 2.915-.785a.5.5 0 0 1 .384.157zm-4.28 2.556c.08.673.025 1.266-.158 1.806a3.808 3.808 0 0 1-.567 1.062 6.03 6.03 0 0 1 .784-.174c1.226-.198 2.168-.339 2.898-.447l.4-3.912a5.183 5.183 0 0 0-1.92.627c-.553.275-1.03.61-1.437 1.038z" clip-rule="evenodd"/><path fill="#929497" d="m31.104 22.532-.309.154-.308.153-.463.191a20.398 20.398 0 0 0-3.704-1.034 27.443 27.443 0 0 0-5.015-.46c-1.698 0-3.357.115-5.015.46-1.274.23-2.508.575-3.704 1.034-.155-.076-.309-.153-.463-.191l-.656-.307c.039-.536 0-.843 0-1.379.116-.076.309-.191.502-.306l.038-.039c1.003-.613 2.778-1.494 4.09-1.724 1.427-.23 2.43-.383 3.24-.498.502-.038 1.042-.038 1.582-.038.81 0 1.543 0 2.276.038.772.115 1.813.269 3.28.498 1.35.192 3.124 1.111 4.166 1.724h.039c.192.115.347.192.462.307-.038.575-.077.881-.038 1.417z"/><path fill="#221F1F" fill-rule="evenodd" d="M19.391 19.084c-.802.114-1.797.266-3.211.494-1.198.21-2.87 1.027-3.863 1.627a.502.502 0 0 1-.092.071l-.254.152.005.178c.005.198.01.395.006.615l.313.146c.112.032.219.076.315.12a20.922 20.922 0 0 1 3.59-.983c1.695-.313 3.385-.43 5.105-.43 1.728 0 3.413.157 5.095.428l.009.002c1.237.223 2.44.553 3.607.989l.264-.11.31-.153c-.007-.31.012-.568.034-.875a14.563 14.563 0 0 1-.108-.063.503.503 0 0 1-.129-.053c-1.043-.614-2.741-1.483-3.983-1.66h-.007c-1.289-.203-2.248-.345-2.986-.455l-.266-.04a43.648 43.648 0 0 0-2.226-.036c-.538 0-1.053 0-1.528.036zm1.517-1.036h.018c.805 0 1.55 0 2.295.04.016 0 .032.002.048.004l.288.043c.738.11 1.7.252 2.991.455 1.417.202 3.202 1.121 4.255 1.734a.5.5 0 0 1 .133.055l.082.048c.143.081.334.191.477.333a.5.5 0 0 1 .146.388l-.02.287c-.03.407-.047.656-.018 1.061a.5.5 0 0 1-.277.484l-.617.307a.488.488 0 0 1-.031.014l-.463.191a.5.5 0 0 1-.37.005 19.895 19.895 0 0 0-3.61-1.008 30.764 30.764 0 0 0-4.93-.415c-1.675 0-3.303.114-4.925.414h-.002c-1.242.224-2.446.56-3.613 1.009a.5.5 0 0 1-.402-.019 1.95 1.95 0 0 0-.36-.154.502.502 0 0 1-.092-.032l-.656-.307a.5.5 0 0 1-.287-.489c.024-.325.017-.537.01-.798a13.362 13.362 0 0 1-.011-.545.5.5 0 0 1 .224-.417c.116-.077.296-.185.47-.288a.494.494 0 0 1 .085-.066c1.019-.623 2.858-1.544 4.264-1.79l.007-.001a177.046 177.046 0 0 1 3.282-.503c.52-.04 1.077-.04 1.61-.04z" clip-rule="evenodd"/><path fill="#929497" d="M23.157 18.625c-.695-.038-1.466-.077-2.276-.038-.54 0-1.08.038-1.582.038h.038l.502-4.904.116-.996a2.54 2.54 0 0 1 1.273-.345h.077c.463 0 .887.115 1.273.345l.116.996v.038l.463 4.866z"/><path fill="#221F1F" fill-rule="evenodd" d="m20.42 13.048-.084.727-.444 4.337.155-.006h.01c.26-.01.535-.02.812-.02a18.981 18.981 0 0 1 1.735.01l-.408-4.29a.501.501 0 0 1-.002-.046v-.01l-.082-.704a1.963 1.963 0 0 0-.807-.166h-.077c-.266 0-.551.057-.808.168zm-1.56 5.339.482-4.723.116-.997a.5.5 0 0 1 .24-.371 3.042 3.042 0 0 1 1.53-.416h.077c.55 0 1.063.138 1.529.416a.5.5 0 0 1 .24.371l.116.997a.364.364 0 0 1 .004.057v.015l.46 4.841a.5.5 0 0 1-.525.547c-.694-.038-1.443-.075-2.225-.038a21.907 21.907 0 0 0-.81.02h-.02c-.24.009-.486.018-.726.019h-.05a.5.5 0 0 1-.439-.738zm2.252 2.649c1.728 0 3.417.156 5.105.468a20.91 20.91 0 0 1 3.613.991l.302-.115.287-.142a.5.5 0 0 1 .651.191 12.663 12.663 0 0 1 1.564 4.133c.131.53.128 1.045.087 1.492-.173 2.032-1.555 3.792-3.612 5.026-2.063 1.237-4.856 1.982-7.997 1.982H21.1c-3.108-.079-5.792-.762-7.751-1.924-1.963-1.163-3.232-2.832-3.383-4.858-.04-.483-.003-.962.033-1.427l.005-.069.003-.028c.203-1.492.73-2.896 1.494-4.174a.5.5 0 0 1 .62-.205l.28.116a20.914 20.914 0 0 1 3.606-.989c1.695-.313 3.382-.429 5.094-.468h.011zm.006 1c-1.681.038-3.31.152-4.93.452h-.002c-1.243.224-2.447.56-3.614 1.009a.5.5 0 0 1-.37-.005l-.056-.023A9.91 9.91 0 0 0 11 26.876l-.002.022c-.038.493-.07.899-.036 1.3v.005c.12 1.612 1.127 3.026 2.896 4.075 1.772 1.05 4.275 1.708 7.26 1.784 2.99-.002 5.596-.712 7.477-1.84 1.887-1.132 2.993-2.647 3.13-4.254v-.003c.036-.391.033-.789-.064-1.173a11.721 11.721 0 0 0-1.225-3.457l-.427.162a.5.5 0 0 1-.357 0 19.903 19.903 0 0 0-3.614-1.009h-.002a26.935 26.935 0 0 0-4.918-.452z" clip-rule="evenodd"/><path fill="#F79422" d="M34.113 17.17c-.54.727-1.157 1.416-1.89 1.991a4.53 4.53 0 0 1-1.158.728l-.193.077-.115.038c-.27.077-.425 0-.926-.077l-.232-.038a3.069 3.069 0 0 1-1.543-.843c-.887-.88-1.35-1.877-1.041-3.448 1.234.039 3.356-1.302 4.359-2.72 1.119-1.647.887-3.562.617-4.788-.038-.23.077-.422.309-.498a.37.37 0 0 1 .347.076c2.932 2.299 3.588 6.475 1.466 9.501z"/><path fill="#221F1F" fill-rule="evenodd" d="M32.529 8.217c2.563 2.165 3.093 5.923 1.178 8.66-.52.701-1.107 1.353-1.793 1.89a4.022 4.022 0 0 1-1.044.661l-.169.068-.09.03a.35.35 0 0 1-.16.002 4.542 4.542 0 0 1-.19-.033l-.02-.004a8.678 8.678 0 0 0-.332-.057l-.22-.037a2.57 2.57 0 0 1-1.28-.706c-.408-.404-.693-.81-.849-1.27-.126-.375-.177-.812-.114-1.351.67-.098 1.421-.436 2.1-.862.853-.534 1.688-1.266 2.236-2.04l.006-.009c1.167-1.718.995-3.674.74-4.942zm.443-.929A.842.842 0 0 0 32.6 7.1a.856.856 0 0 0-.457.017.96.96 0 0 0-.524.404.937.937 0 0 0-.116.676c.264 1.199.453 2.93-.54 4.397-.455.641-1.18 1.286-1.947 1.767-.785.491-1.52.752-1.986.738a.5.5 0 0 0-.506.403c-.168.854-.132 1.586.09 2.24.22.65.61 1.183 1.09 1.659a3.57 3.57 0 0 0 1.798.979l.016.002.231.039h.006a8.51 8.51 0 0 1 .326.057c.077.015.156.03.23.04a1.332 1.332 0 0 0 .603-.04l.116-.038a.449.449 0 0 0 .027-.01l.193-.076a5.04 5.04 0 0 0 1.293-.808c.773-.608 1.416-1.33 1.972-2.079l.008-.01c2.273-3.244 1.571-7.707-1.55-10.169z" clip-rule="evenodd"/><path fill="#5A595C" d="m30.757 20.004-.155.843c-1.041-.613-2.816-1.533-4.166-1.724-1.466-.23-2.47-.383-3.28-.498l-.501-4.904c.887.038 1.775.307 2.585.728a6.3 6.3 0 0 1 1.62 1.188l.155-.039c-.31 1.533.154 2.567 1.041 3.448a3.07 3.07 0 0 0 1.543.843c.039 0 .193.077.232.077.308.115.617.115.926.038z"/><path fill="#221F1F" fill-rule="evenodd" d="M22.291 13.378a.5.5 0 0 1 .386-.156c.97.042 1.927.333 2.79.781a6.645 6.645 0 0 1 1.555 1.095.5.5 0 0 1 .483.6c-.14.694-.1 1.245.056 1.71.157.466.442.881.847 1.283.36.358.812.611 1.281.706l.22.037c.133.02.242.04.332.057l.02.004c.084.015.14.026.19.033.086.012.119.01.17-.005a.5.5 0 0 1 .628.571l-.155.843a.5.5 0 0 1-.745.34c-1.044-.613-2.742-1.483-3.983-1.66h-.008c-1.465-.23-2.465-.383-3.272-.497a.5.5 0 0 1-.427-.444l-.501-4.904a.5.5 0 0 1 .133-.394zm4.86 5.382a3.856 3.856 0 0 1-.538-1.034c-.181-.54-.238-1.13-.16-1.788a5.75 5.75 0 0 0-1.436-1.041l-.008-.004a6.03 6.03 0 0 0-1.794-.612l.4 3.905c.743.108 1.654.248 2.895.442.207.03.421.075.64.132z" clip-rule="evenodd"/><path fill="#221F1F" fill-rule="evenodd" d="M22.5 13.221h.155v1h-.154v-1z" clip-rule="evenodd"/><path fill="#F79422" d="M30.795 19.813c.27.306.193.766-.115 1.034l-.078.076"/><path fill="#221F1F" fill-rule="evenodd" d="M30.459 20.28a.164.164 0 0 0-.039-.137l.75-.661c.487.552.314 1.316-.148 1.73l-.067.066-.705-.71.09-.088.012-.01a.31.31 0 0 0 .107-.19z" clip-rule="evenodd"/><path fill="#F79422" d="M11.776 19.813c-.27.306-.193.766.115 1.034l.078.076"/><path fill="#221F1F" fill-rule="evenodd" d="M11.55 21.212c-.463-.414-.636-1.178-.15-1.73l.75.661a.164.164 0 0 0-.038.137.31.31 0 0 0 .107.19l.013.01.089.089-.705.71-.067-.067z" clip-rule="evenodd"/><path fill="#171717" fill-rule="evenodd" d="M21.343 27.817a.5.5 0 0 1 .499.458c.005.07.007.137.003.205a.5.5 0 0 0 .35.411 1 1 0 0 0 .544.08.5.5 0 0 1 .14.99c-.362.052-.72 0-1.063-.144a1.492 1.492 0 0 1-.473-.285 1.489 1.489 0 0 1-.445.275 1.614 1.614 0 0 1-1.196.14.5.5 0 1 1 .273-.962.616.616 0 0 0 .466-.068.506.506 0 0 1 .077-.036.501.501 0 0 0 .324-.401 1.523 1.523 0 0 1 .003-.205.5.5 0 0 1 .498-.458z" clip-rule="evenodd"/><path fill="#171717" d="M22.848 27.015c0 .46-.694 1.072-1.543 1.072s-1.543-.613-1.543-1.072c0-.46.694-.613 1.543-.613s1.543.191 1.543.613z"/><path fill="#fff" d="M21.922 26.861c0 .115-.309.269-.656.269-.347 0-.656-.154-.656-.23 0-.077.309-.077.656-.077.347 0 .656-.076.656.038z"/><path fill="#171717" fill-rule="evenodd" d="M18.91 27.818a.5.5 0 0 1 .463.535.541.541 0 0 0 .41.575h.056a.5.5 0 0 1 0 1h-.116a.498.498 0 0 1-.104-.01 1.544 1.544 0 0 1-1.243-1.637.5.5 0 0 1 .534-.463zm2.433-.538a.5.5 0 0 1 .5.5v.537a.5.5 0 0 1-1 0v-.536a.5.5 0 0 1 .5-.5zm2.398.58a.5.5 0 0 1 .566.424c.122.847-.494 1.513-1.24 1.672a.505.505 0 0 1-.103.01h-.116a.5.5 0 1 1 0-1h.057c.303-.083.444-.324.412-.54a.5.5 0 0 1 .424-.565z" clip-rule="evenodd"/><path fill="#221F1F" fill-rule="evenodd" d="M33.665 16.844c1.968-2.808 1.398-6.646-1.326-8.782l.617-.787c3.14 2.461 3.803 6.897 1.528 10.143l-.819-.574zM9.81 8.217c-2.563 2.164-3.095 5.89-1.172 8.667l.007.011c.464.71 1.08 1.324 1.752 1.88l.012.011c.295.26.627.462 1.007.636.041.013.09.027.149.043l.005.002.128.037h.077c.218 0 .397-.03.577-.09a.492.492 0 0 1 .075-.018l.223-.037a2.571 2.571 0 0 0 1.297-.72c.414-.378.696-.779.851-1.238.127-.374.178-.812.125-1.34-.676-.111-1.427-.454-2.107-.882-.846-.534-1.67-1.255-2.216-2.007l-.005-.006c-1.208-1.72-1.038-3.68-.784-4.95zm.157-.128h-.001zm.076-.995a.894.894 0 0 1 .643.372c.108.161.24.433.146.751-.261 1.198-.442 2.915.579 4.37.456.627 1.175 1.265 1.938 1.746.779.49 1.52.765 2.015.765a.5.5 0 0 1 .492.414c.146.83.11 1.559-.11 2.21-.22.649-.61 1.184-1.118 1.648a3.568 3.568 0 0 1-1.79.971l-.016.003-.195.032c-.27.086-.544.128-.851.128h-.154a.505.505 0 0 1-.158-.025 4.763 4.763 0 0 0-.172-.052l-.005-.001a6.563 6.563 0 0 1-.209-.062 5.032 5.032 0 0 1-1.325-.822c-.712-.59-1.405-1.275-1.941-2.094-2.27-3.285-1.564-7.715 1.572-10.173a1.005 1.005 0 0 1 .66-.18z" clip-rule="evenodd"/><path fill="#221F1F" d="M18.489 24.525c0 .842-.502 1.494-1.12 1.494-.616 0-1.118-.69-1.118-1.494 0-.728.386-1.341.887-1.494l1.235.919c.077.192.116.383.116.575z"/><path fill="#fff" d="M18.064 24.333c0 .306-.193.536-.386.536s-.386-.23-.386-.536c0-.306.193-.536.386-.536s.386.23.386.536z"/><path fill="#221F1F" d="M17.138 25.674c-.424.345-.81.728-1.157 1.15a3.001 3.001 0 0 0-.425.689c-.115.23-.192.498-.231.766-.039.115-.039.268-.039.383v1.226c.039.268.078.574.116.843.039.153.039.268.077.421.039.115.078.268.155.383-.078-.115-.116-.268-.193-.383-.039-.115-.116-.268-.155-.383a24.685 24.685 0 0 1-.231-.843c-.039-.268-.077-.574-.116-.843v-.842c.039-.307.077-.613.193-.881a7.62 7.62 0 0 1 .386-.805c.347-.498.694-.958 1.119-1.34a.408.408 0 0 1 .501 0c.116.076.154.306 0 .459z"/><path fill="#221F1F" d="M16.868 25.559h-.193l-.192-.038c-.116-.039-.232-.039-.348-.039-.231 0-.501 0-.733.077l-.347.115a1.962 1.962 0 0 0-.849.728c.116-.268.232-.498.425-.69.077-.115.193-.191.308-.268l.348-.23c.231-.153.501-.23.81-.306.154-.039.27-.039.424-.039h.386c.193 0 .347.154.386.345.038.192-.193.345-.425.345zm9.529-1.034c0 .842-.501 1.494-1.08 1.494-.579 0-1.119-.69-1.119-1.494 0-.192.039-.383.077-.575l1.235-.92c.502.154.887.767.887 1.495z"/><path fill="#fff" d="M24.584 24.333c0 .306.193.536.386.536s.386-.23.386-.536c0-.306-.193-.536-.386-.536s-.386.23-.386.536z"/><path fill="#221F1F" d="M26.012 25.137c.424.422.771.843 1.08 1.341.154.23.308.498.424.766.116.269.193.575.232.843.038.307.038.575 0 .881-.039.269-.078.575-.116.843a6.188 6.188 0 0 1-.193.805c-.039.115-.077.268-.154.383a1.786 1.786 0 0 1-.193.383c.038-.115.116-.268.154-.383.039-.115.077-.268.116-.383.038-.268.116-.537.116-.805.038-.268.038-.536.038-.843 0-.268-.038-.536-.077-.804a4.064 4.064 0 0 0-.27-.728c-.116-.23-.27-.46-.463-.651a8.175 8.175 0 0 0-1.157-1.15c-.155-.153-.155-.344 0-.498a.353.353 0 0 1 .463-.038v.038z"/><path fill="#221F1F" d="M25.78 24.87h.424c.155 0 .309 0 .463.038.309.038.579.115.849.23.27.114.502.306.733.497.193.192.347.46.463.69a2.059 2.059 0 0 0-.579-.575c-.231-.153-.463-.268-.733-.306-.27-.038-.54-.038-.81-.038-.116 0-.27.038-.386.038l-.193.038h-.192c-.193.039-.386-.115-.386-.306a.325.325 0 0 1 .308-.383h.078"/></svg>