<svg width="42" height="42" viewBox="0 0 42 42" fill="none" xmlns="http://www.w3.org/2000/svg">
<circle cx="21" cy="21" r="21" fill="#F5F5FF"/>
<g clip-path="url(#clip0_7215_43011)">
<path d="M32.223 27.9723C31.9143 31.6117 27.5934 34.6765 21.1121 34.5233C15.0166 34.37 10.7343 31.8416 10.4256 28.2022C10.3871 27.7425 10.4256 27.2828 10.4642 26.7847C10.6571 25.3673 11.1587 24.0265 11.8917 22.8006L12.3546 22.9921C13.5506 22.5324 14.7851 22.1876 16.0582 21.9577C17.7171 21.7279 19.4146 21.6896 21.0735 21.8045C22.7324 21.6896 24.4299 21.7279 26.0888 21.9577C27.362 22.1876 28.5965 22.5324 29.7925 22.9921L30.2554 22.8006L30.564 22.6473C31.2971 23.8732 31.7986 25.2141 32.0686 26.6315C32.1458 27.0529 32.1844 27.5126 32.1458 27.934" fill="#F4A427"/>
<path d="M32.223 27.9723C31.9143 31.5734 27.632 34.5233 21.1121 34.4849C15.0166 34.3317 10.7343 31.8033 10.4256 28.1639C10.3871 27.7042 10.4256 27.2444 10.4642 26.7464C11.1201 26.5932 11.7759 26.5932 12.4318 26.7081C13.6663 26.8997 14.3607 27.6658 15.2481 28.0489C15.7496 28.2788 16.2511 27.8957 16.7141 27.4743C17.9486 26.2867 19.6075 25.5971 21.305 25.5588C23.0411 25.5205 24.4685 26.2101 25.9731 27.5892C26.2817 27.8957 26.7061 28.0873 27.1305 28.0489C27.5163 27.934 27.9021 27.7425 28.2107 27.4743C29.3681 26.7081 30.7569 26.4016 32.1072 26.5932C32.223 27.0912 32.2615 27.5126 32.223 27.9723Z" fill="white"/>
<path d="M14.2835 19.0079C13.8592 19.4293 13.3191 19.7358 12.7404 19.8507L12.5089 19.889C12.2774 19.9656 12.0459 20.0039 11.7759 20.0039C11.7373 20.0039 11.6602 20.0039 11.6216 20.0039C11.5058 19.9656 11.3515 19.9273 11.2358 19.889C10.8114 19.6975 10.4256 19.4676 10.0784 19.1611C9.38397 18.5865 8.72812 17.9352 8.22659 17.169C6.10473 14.1043 6.76058 9.96685 9.69261 7.66828C9.8855 7.55335 10.117 7.55335 10.2713 7.7449C10.3485 7.85983 10.387 7.97475 10.3485 8.08968C10.0784 9.31559 9.84692 11.2311 11.0043 12.8784C12.0074 14.2575 14.0906 15.5983 15.3638 15.5983C15.6338 17.1307 15.2094 18.1651 14.2835 19.0079Z" fill="#F79422"/>
<path d="M14.2835 19.0079C13.8592 19.4293 13.3191 19.7358 12.7404 19.8507L12.5089 19.889C12.2774 19.9656 12.0459 20.0039 11.7759 20.0039C11.7373 20.0039 11.6602 20.0039 11.6216 20.0039C11.5058 19.9656 11.3515 19.9273 11.2358 19.889C10.8114 19.6975 10.4256 19.4676 10.0784 19.1611C9.38397 18.5865 8.72812 17.9352 8.22659 17.169C6.10473 14.1043 6.76058 9.96685 9.69261 7.66828C9.8855 7.55335 10.117 7.55335 10.2713 7.7449C10.3485 7.85983 10.387 7.97475 10.3485 8.08968C10.0784 9.31559 9.84692 11.2311 11.0043 12.8784C12.0074 14.2575 14.0906 15.5983 15.3638 15.5983C15.6338 17.1307 15.2094 18.1651 14.2835 19.0079Z" stroke="#221F1F" stroke-linejoin="round"/>
<path d="M19.8389 13.7212L19.3374 18.6248H19.2988C18.5273 18.7397 17.4856 18.893 16.0582 19.1228C14.7465 19.3144 12.9718 20.2338 11.9302 20.8468L11.8145 20.0423C12.0459 20.004 12.316 19.9656 12.5475 19.9273L12.7789 19.889C13.3576 19.7741 13.8977 19.4676 14.3221 19.0462C15.2094 18.1651 15.6724 17.169 15.3637 15.5984L15.5181 15.6367C15.981 15.1386 16.5211 14.7555 17.1384 14.4491C17.9486 13.9894 18.8745 13.7595 19.8389 13.7212Z" fill="#5A595C"/>
<path d="M19.8389 13.7212L19.3374 18.6248H19.2988C18.5273 18.7397 17.4856 18.893 16.0582 19.1228C14.7465 19.3144 12.9718 20.2338 11.9302 20.8468L11.8145 20.0423C12.0459 20.004 12.316 19.9656 12.5475 19.9273L12.7789 19.889C13.3576 19.7741 13.8977 19.4676 14.3221 19.0462C15.2094 18.1651 15.6724 17.169 15.3637 15.5984L15.5181 15.6367C15.981 15.1386 16.5211 14.7555 17.1384 14.4491C17.9486 13.9894 18.8745 13.7595 19.8389 13.7212Z" stroke="#221F1F" stroke-linejoin="round"/>
<path d="M31.1042 22.5324L30.7955 22.6856L30.4869 22.8389L30.0239 23.0304C28.828 22.5707 27.5934 22.2259 26.3203 21.996C24.6614 21.6896 23.0025 21.5363 21.305 21.5363C19.6075 21.5363 17.9486 21.6513 16.2897 21.996C15.0166 22.2259 13.782 22.5707 12.5861 23.0304C12.4318 22.9538 12.2775 22.8772 12.1231 22.8389L11.4673 22.5324C11.5059 21.996 11.4673 21.6896 11.4673 21.1532C11.583 21.0766 11.7759 20.9617 11.9688 20.8468L12.0074 20.8084C13.0105 20.1955 14.7851 19.3144 16.0968 19.0845C17.5242 18.8547 18.5273 18.7014 19.3375 18.5865C19.839 18.5482 20.3791 18.5482 20.9192 18.5482C21.7294 18.5482 22.4624 18.5482 23.1954 18.5865C23.967 18.7014 25.0086 18.8547 26.4746 19.0845C27.8249 19.2761 29.5996 20.1955 30.6412 20.8084H30.6798C30.8727 20.9234 31.027 21 31.1427 21.1149C31.1042 21.6896 31.0656 21.996 31.1042 22.5324Z" fill="#929497"/>
<path d="M31.1042 22.5324L30.7955 22.6856L30.4869 22.8389L30.0239 23.0304C28.828 22.5707 27.5934 22.2259 26.3203 21.996C24.6614 21.7279 23.0025 21.5746 21.305 21.5746C19.6075 21.5746 17.9486 21.6896 16.2897 21.996C15.0166 22.2259 13.782 22.5707 12.5861 23.0304C12.4318 22.9538 12.2775 22.8772 12.1231 22.8389L11.4673 22.5324C11.5059 21.996 11.4673 21.6896 11.4673 21.1532C11.583 21.0766 11.7759 20.9617 11.9688 20.8468L12.0074 20.8084C13.0105 20.1955 14.7851 19.3144 16.0968 19.0845C17.5242 18.8547 18.5273 18.7014 19.3375 18.5865C19.839 18.5482 20.3791 18.5482 20.9192 18.5482C21.7294 18.5482 22.4624 18.5482 23.1954 18.5865C23.967 18.7014 25.0086 18.8547 26.4746 19.0845C27.8249 19.2761 29.5996 20.1955 30.6412 20.8084H30.6798C30.8727 20.9234 31.027 21 31.1427 21.1149C31.1042 21.6896 31.0656 21.996 31.1042 22.5324Z" stroke="#221F1F" stroke-linecap="round" stroke-linejoin="round"/>
<path d="M23.1568 18.6248C22.4623 18.5865 21.6907 18.5482 20.8806 18.5865C20.3405 18.5865 19.8004 18.6248 19.2988 18.6248H19.3374L19.8389 13.7212L19.9547 12.7251C20.3405 12.4953 20.8034 12.3804 21.2278 12.3804H21.305C21.7679 12.3804 22.1923 12.4953 22.5781 12.7251L22.6938 13.7212V13.7595L23.1568 18.6248Z" fill="#929497"/>
<path d="M23.1568 18.6248C22.4623 18.5865 21.6907 18.5482 20.8806 18.5865C20.3405 18.5865 19.8004 18.6248 19.2988 18.6248H19.3374L19.8389 13.7212L19.9547 12.7251C20.3405 12.4953 20.8034 12.3804 21.2278 12.3804H21.305C21.7679 12.3804 22.1923 12.4953 22.5781 12.7251L22.6938 13.7212V13.7595L23.1568 18.6248Z" stroke="#221F1F" stroke-linecap="round" stroke-linejoin="round"/>
<path d="M32.223 28.0106C31.9143 31.65 27.2462 34.5616 21.1121 34.5616C15.0166 34.4083 10.7343 31.8799 10.4642 28.2405C10.4256 27.7808 10.4642 27.3211 10.5028 26.823C10.6957 25.4056 11.1972 24.0648 11.9302 22.8389L12.3932 23.0304C13.5891 22.5707 14.8237 22.2259 16.0968 21.996C17.7557 21.6896 19.4146 21.5746 21.1121 21.5363C22.8096 21.5363 24.4685 21.6896 26.1274 21.996C27.4005 22.2259 28.6351 22.5707 29.831 23.0304L30.3326 22.8389L30.6412 22.6856C31.3742 23.9115 31.8757 25.2524 32.1458 26.6698C32.2615 27.1295 32.2615 27.5892 32.223 28.0106Z" stroke="#221F1F" stroke-linecap="round" stroke-linejoin="round"/>
<path d="M34.1131 17.169C33.573 17.8969 32.9557 18.5865 32.2227 19.1611C31.8755 19.4676 31.4897 19.6975 31.0653 19.889L30.8725 19.9656L30.7567 20.0039C30.4867 20.0806 30.3323 20.0039 29.8308 19.9273L29.5993 19.889C29.0206 19.7741 28.4805 19.4676 28.0562 19.0462C27.1688 18.1651 26.7059 17.169 27.0145 15.5983C28.2491 15.6367 30.3709 14.2958 31.374 12.8784C32.4928 11.2311 32.2613 9.31559 31.9913 8.08968C31.9527 7.85983 32.0684 7.66828 32.2999 7.59166C32.4156 7.55335 32.5699 7.59166 32.6471 7.66828C35.5791 9.96685 36.235 14.1426 34.1131 17.169Z" fill="#F79422"/>
<path d="M34.1131 17.169C33.573 17.8969 32.9557 18.5865 32.2227 19.1611C31.8755 19.4676 31.4897 19.6975 31.0653 19.889L30.8725 19.9656L30.7567 20.0039C30.4867 20.0806 30.3323 20.0039 29.8308 19.9273L29.5993 19.889C29.0206 19.7741 28.4805 19.4676 28.0562 19.0462C27.1688 18.1651 26.7059 17.169 27.0145 15.5983C28.2491 15.6367 30.3709 14.2958 31.374 12.8784C32.4928 11.2311 32.2613 9.31559 31.9913 8.08968C31.9527 7.85983 32.0684 7.66828 32.2999 7.59166C32.4156 7.55335 32.5699 7.59166 32.6471 7.66828C35.5791 9.96685 36.235 14.1426 34.1131 17.169Z" stroke="#221F1F" stroke-linejoin="round"/>
<path d="M30.7569 20.004L30.6026 20.8468C29.561 20.2338 27.7863 19.3144 26.436 19.1228C24.97 18.893 23.967 18.7397 23.1568 18.6248L22.6553 13.7212C23.5426 13.7595 24.4299 14.0277 25.2401 14.4491C25.8574 14.7555 26.3975 15.177 26.8604 15.6367L27.0147 15.5984C26.7061 17.1307 27.1691 18.1651 28.0564 19.0462C28.4807 19.4676 29.0209 19.7741 29.5995 19.889C29.6381 19.889 29.7924 19.9656 29.831 19.9656C30.1397 20.0806 30.4483 20.0806 30.7569 20.004Z" fill="#5A595C"/>
<path d="M30.7569 20.004L30.6026 20.8468C29.561 20.2338 27.7863 19.3144 26.436 19.1228C24.97 18.893 23.967 18.7397 23.1568 18.6248L22.6553 13.7212C23.5426 13.7595 24.4299 14.0277 25.2401 14.4491C25.8574 14.7555 26.3975 15.177 26.8604 15.6367L27.0147 15.5984C26.7061 17.1307 27.1691 18.1651 28.0564 19.0462C28.4807 19.4676 29.0209 19.7741 29.5995 19.889L29.831 19.9273C30.3326 20.004 30.4869 20.0806 30.7569 20.004Z" stroke="#221F1F" stroke-linejoin="round"/>
<path d="M22.655 13.7212H22.5007" stroke="#221F1F" stroke-linejoin="round"/>
<path d="M30.7954 19.8124C31.0655 20.1189 30.9883 20.5786 30.6797 20.8468C30.6411 20.8851 30.6411 20.8851 30.6025 20.9234" fill="#F79422"/>
<path d="M30.7954 19.8124C31.0655 20.1189 30.9883 20.5786 30.6797 20.8468C30.6411 20.8851 30.6411 20.8851 30.6025 20.9234" stroke="#221F1F" stroke-miterlimit="10"/>
<path d="M11.7757 19.8124C11.5056 20.1189 11.5828 20.5786 11.8914 20.8468C11.93 20.8851 11.93 20.8851 11.9686 20.9234" fill="#F79422"/>
<path d="M11.7757 19.8124C11.5056 20.1189 11.5828 20.5786 11.8914 20.8468C11.93 20.8851 11.93 20.8851 11.9686 20.9234" stroke="#221F1F" stroke-miterlimit="10"/>
<path d="M19.8389 29.4664C20.1089 29.543 20.4176 29.5047 20.6876 29.3515C21.112 29.1982 21.382 28.7768 21.3435 28.3171C21.3049 28.7768 21.5749 29.1982 21.9993 29.3515C22.2694 29.4664 22.5394 29.5047 22.8095 29.4664" stroke="#171717" stroke-linecap="round" stroke-linejoin="round"/>
<path d="M22.8481 27.0146C22.8481 27.4743 22.1536 28.0873 21.3049 28.0873C20.4561 28.0873 19.7617 27.4743 19.7617 27.0146C19.7617 26.5549 20.4561 26.4016 21.3049 26.4016C22.1536 26.4016 22.8481 26.5932 22.8481 27.0146Z" fill="#171717"/>
<path d="M21.922 26.8613C21.922 26.9763 21.6134 27.1295 21.2662 27.1295C20.919 27.1295 20.6104 26.9763 20.6104 26.8997C20.6104 26.823 20.919 26.823 21.2662 26.823C21.6134 26.823 21.922 26.7464 21.922 26.8613Z" fill="white"/>
<path d="M18.8745 28.3171C18.8359 28.8534 19.1831 29.3132 19.7232 29.4281H19.839" stroke="#171717" stroke-linecap="round" stroke-linejoin="round"/>
<path d="M21.3435 27.7808C21.3435 27.9723 21.3435 28.1256 21.3435 28.3171" stroke="#171717" stroke-linecap="round" stroke-linejoin="round"/>
<path d="M22.8481 29.4664H22.9639C23.504 29.3515 23.8898 28.8918 23.8126 28.3554" stroke="#171717" stroke-linecap="round" stroke-linejoin="round"/>
<path d="M32.6472 7.66829C35.5792 9.96686 36.1965 14.1043 34.0746 17.1307" stroke="#221F1F" stroke-linejoin="round"/>
<path d="M14.2835 19.0079C13.8592 19.4293 13.3191 19.7358 12.7404 19.8507L12.5089 19.889C12.2774 19.9656 12.0459 20.0039 11.7759 20.0039C11.7373 20.0039 11.6602 20.0039 11.6216 20.0039C11.5058 19.9656 11.3515 19.9273 11.2358 19.889C10.8114 19.6975 10.4256 19.4676 10.0784 19.1611C9.38397 18.5865 8.72812 17.9352 8.22659 17.169C6.10473 14.1043 6.76058 9.96685 9.69261 7.66828C9.8855 7.55335 10.117 7.55335 10.2713 7.7449C10.3485 7.85983 10.387 7.97475 10.3485 8.08968C10.0784 9.31559 9.84692 11.2311 11.0043 12.8784C12.0074 14.2575 14.0906 15.5983 15.3638 15.5983C15.6338 17.1307 15.2094 18.1651 14.2835 19.0079Z" stroke="#221F1F" stroke-linejoin="round"/>
<path d="M18.4886 24.5245C18.4886 25.3673 17.987 26.0185 17.3698 26.0185C16.7525 26.0185 16.251 25.329 16.251 24.5245C16.251 23.7966 16.6368 23.1836 17.1383 23.0304L18.3728 23.9498C18.45 24.1414 18.4886 24.3329 18.4886 24.5245Z" fill="#221F1F"/>
<path d="M18.0643 24.3329C18.0643 24.6394 17.8714 24.8693 17.6785 24.8693C17.4856 24.8693 17.2927 24.6394 17.2927 24.3329C17.2927 24.0264 17.4856 23.7966 17.6785 23.7966C17.8714 23.7966 18.0643 24.0264 18.0643 24.3329Z" fill="white"/>
<path d="M17.1382 25.6738C16.7139 26.0186 16.3281 26.4016 15.9808 26.823C15.8265 27.0146 15.6722 27.2445 15.5565 27.5126C15.4407 27.7425 15.3636 28.0106 15.325 28.2788C15.2864 28.3937 15.2864 28.547 15.2864 28.6619V28.8535V29.045C15.2864 29.3132 15.2864 29.5813 15.2864 29.8878C15.325 30.156 15.3636 30.4625 15.4022 30.7306C15.4407 30.8839 15.4407 30.9988 15.4793 31.152C15.5179 31.267 15.5565 31.4202 15.6336 31.5351C15.5565 31.4202 15.5179 31.267 15.4407 31.152C15.4022 31.0371 15.325 30.8839 15.2864 30.7689C15.2093 30.5008 15.1321 30.2326 15.0549 29.9261C15.0164 29.658 14.9778 29.3515 14.9392 29.0833V28.8918V28.6619C14.9392 28.5087 14.9392 28.3554 14.9392 28.2405C14.9778 27.934 15.0164 27.6275 15.1321 27.3594C15.2478 27.0912 15.3636 26.823 15.5179 26.5549C15.8651 26.0569 16.2123 25.5971 16.6367 25.214C16.791 25.0991 16.9839 25.0991 17.1382 25.214C17.254 25.2907 17.2925 25.5205 17.1382 25.6738Z" fill="#221F1F"/>
<path d="M16.8683 25.5588C16.8297 25.5588 16.8297 25.5588 16.7911 25.5588H16.7525H16.6754L16.4825 25.5205C16.3667 25.4822 16.251 25.4822 16.1353 25.4822C15.9038 25.4822 15.6337 25.4822 15.4023 25.5588C15.2865 25.5971 15.1708 25.6355 15.055 25.6738C14.7078 25.827 14.3992 26.0952 14.2063 26.4016C14.322 26.1335 14.4378 25.9036 14.6307 25.7121C14.7078 25.5971 14.8236 25.5205 14.9393 25.4439C15.055 25.3673 15.1708 25.2907 15.2865 25.214C15.518 25.0608 15.7881 24.9842 16.0967 24.9076C16.251 24.8693 16.3667 24.8693 16.5211 24.8693C16.5982 24.8693 16.6754 24.8693 16.7525 24.8693H16.9069C17.0997 24.8693 17.2541 25.0225 17.2926 25.214C17.3312 25.4056 17.0997 25.5588 16.8683 25.5588Z" fill="#221F1F"/>
<path d="M26.3973 24.5245C26.3973 25.3673 25.8957 26.0185 25.317 26.0185C24.7384 26.0185 24.1982 25.329 24.1982 24.5245C24.1982 24.3329 24.2368 24.1414 24.2754 23.9498L25.5099 23.0304C26.0115 23.1836 26.3973 23.7966 26.3973 24.5245Z" fill="#221F1F"/>
<path d="M24.5842 24.3329C24.5842 24.6394 24.7771 24.8693 24.97 24.8693C25.1629 24.8693 25.3558 24.6394 25.3558 24.3329C25.3558 24.0264 25.1629 23.7966 24.97 23.7966C24.7771 23.7966 24.5842 24.0264 24.5842 24.3329Z" fill="white"/>
<path d="M26.0116 25.1374C26.4359 25.5588 26.7831 25.9802 27.0918 26.4783C27.2461 26.7081 27.4004 26.9763 27.5161 27.2445C27.6319 27.5126 27.709 27.8191 27.7476 28.0873C27.7862 28.3937 27.7862 28.6619 27.7476 28.9684C27.709 29.2365 27.6705 29.543 27.6319 29.8112C27.5933 30.0794 27.5161 30.3475 27.439 30.6157C27.4004 30.7306 27.3618 30.8839 27.2847 30.9988C27.2461 31.1137 27.1689 31.267 27.0918 31.3819C27.1304 31.267 27.2075 31.1137 27.2461 30.9988C27.2847 30.8839 27.3232 30.7306 27.3618 30.6157C27.4004 30.3475 27.4776 30.0794 27.4776 29.8112C27.5161 29.543 27.5161 29.2749 27.5161 28.9684C27.5161 28.7002 27.4776 28.432 27.439 28.1639C27.3618 27.8957 27.2847 27.6659 27.1689 27.436C27.0532 27.2061 26.8989 26.9763 26.706 26.7847C26.3588 26.3633 25.973 25.9802 25.5486 25.6355C25.3943 25.4822 25.3943 25.2907 25.5486 25.1374C25.6643 25.0225 25.8572 24.9842 26.0116 25.0991V25.1374Z" fill="#221F1F"/>
<path d="M25.7802 24.8693H25.9731C26.0502 24.8693 26.1274 24.8693 26.2045 24.8693C26.3589 24.8693 26.5132 24.8693 26.6675 24.9076C26.9761 24.9459 27.2462 25.0225 27.5162 25.1374C27.7863 25.2523 28.0178 25.4439 28.2492 25.6354C28.4421 25.827 28.5965 26.0952 28.7122 26.325C28.5579 26.0952 28.365 25.9036 28.1335 25.7504C27.902 25.5971 27.6706 25.4822 27.4005 25.4439C27.1304 25.4056 26.8604 25.4056 26.5903 25.4056C26.4746 25.4056 26.3203 25.4439 26.2045 25.4439L26.0116 25.4822H25.9345H25.8959H25.8573H25.8187C25.6258 25.5205 25.433 25.3673 25.433 25.1757C25.3944 24.9842 25.5487 24.7926 25.7416 24.7926C25.7802 24.7926 25.7802 24.7926 25.8187 24.7926" fill="#221F1F"/>
</g>
<defs>
<clipPath id="clip0_7215_43011">
<rect width="28.7416" height="27.353" fill="white" transform="translate(6.79907 7.40012)"/>
</clipPath>
</defs>
</svg>
