<svg width="42" height="42" viewBox="0 0 42 42" fill="none" xmlns="http://www.w3.org/2000/svg">
<circle cx="21" cy="21" r="21" fill="#F5F5FF"/>
<path d="M32.2227 27.9723C31.9141 31.6117 27.5932 34.6765 21.1119 34.5232C15.0163 34.37 10.734 31.8416 10.4254 28.2021C10.3868 27.7424 10.4254 27.2827 10.464 26.7847C10.6569 25.3672 11.1584 24.0264 11.8914 22.8005L12.3544 22.9921C13.5503 22.5323 14.7849 22.1876 16.058 21.9577C17.7169 21.7278 19.4144 21.6895 21.0733 21.8045C22.7322 21.6895 24.4297 21.7278 26.0886 21.9577C27.3617 22.1876 28.5963 22.5323 29.7922 22.9921L30.2552 22.8005L30.5638 22.6473C31.2968 23.8732 31.7983 25.214 32.0684 26.6315C32.1456 27.0529 32.1841 27.5126 32.1455 27.934" fill="#F4A427"/>
<path d="M32.2227 27.9724C31.9141 31.5735 27.6318 34.5233 21.1119 34.485C15.0163 34.3318 10.734 31.8033 10.4254 28.1639C10.3868 27.7042 10.4254 27.2445 10.464 26.7465C11.1198 26.5932 11.7757 26.5932 12.4315 26.7082C13.6661 26.8997 14.3605 27.6659 15.2478 28.049C15.7493 28.2789 16.2509 27.8958 16.7138 27.4744C17.9484 26.2868 19.6073 25.5972 21.3048 25.5589C23.0408 25.5206 24.4683 26.2101 25.9729 27.5893C26.2815 27.8958 26.7059 28.0873 27.1302 28.049C27.516 27.9341 27.9018 27.7425 28.2105 27.4744C29.3678 26.7082 30.7567 26.4017 32.107 26.5932C32.2227 27.0913 32.2613 27.5127 32.2227 27.9724Z" fill="white"/>
<path d="M14.2833 19.0079C13.8589 19.4293 13.3188 19.7358 12.7401 19.8507L12.5087 19.889C12.2772 19.9656 12.0457 20.0039 11.7756 20.0039C11.7371 20.0039 11.6599 20.0039 11.6213 20.0039C11.5056 19.9656 11.3513 19.9273 11.2355 19.889C10.8112 19.6975 10.4254 19.4676 10.0782 19.1611C9.38373 18.5865 8.72788 17.9352 8.22635 17.169C6.10449 14.1043 6.76034 9.96685 9.69236 7.66828C9.88526 7.55335 10.1167 7.55335 10.2711 7.7449C10.3482 7.85983 10.3868 7.97475 10.3482 8.08968C10.0782 9.31559 9.84668 11.2311 11.0041 12.8784C12.0071 14.2575 14.0904 15.5983 15.3635 15.5983C15.6336 17.1307 15.2092 18.1651 14.2833 19.0079Z" fill="#F79422"/>
<path fill-rule="evenodd" clip-rule="evenodd" d="M9.8107 8.21659C7.24692 10.3809 6.71515 14.1078 8.63755 16.8845L8.64494 16.8951C9.10922 17.6044 9.72436 18.2193 10.397 18.7759L10.4091 18.7863C10.7039 19.0465 11.0362 19.2482 11.4164 19.422C11.4575 19.4349 11.5064 19.4489 11.565 19.4655L11.5703 19.467C11.6097 19.4782 11.6539 19.4907 11.698 19.504H11.7751C11.9933 19.504 12.1723 19.4737 12.3516 19.4144C12.3763 19.4062 12.4015 19.4 12.4271 19.3958L12.6503 19.3588C13.1198 19.2639 13.5707 19.011 13.9311 18.6531C13.9362 18.648 13.9415 18.643 13.9468 18.6382C14.3611 18.2611 14.643 17.8604 14.7984 17.4014C14.9253 17.0267 14.9759 16.5894 14.9234 16.0605C14.2467 15.9498 13.4962 15.6073 12.816 15.1786C11.9697 14.6451 11.1466 13.9242 10.5998 13.1725L10.595 13.1659C9.38656 11.4459 9.55672 9.48611 9.8107 8.21659ZM9.96704 8.08912C9.96768 8.08901 9.96704 8.08913 9.96704 8.08912C9.96704 8.08911 9.96669 8.08917 9.96601 8.08938ZM10.0434 7.09391C10.281 7.11638 10.5001 7.23212 10.6605 7.43124C10.6696 7.44252 10.6782 7.4542 10.6863 7.46623C10.7944 7.62724 10.9253 7.89852 10.8322 8.21729C10.5706 9.41459 10.3901 11.1316 11.4109 12.5876C11.8674 13.214 12.5863 13.8517 13.3492 14.3326C14.128 14.8234 14.8691 15.0984 15.3636 15.0984C15.6063 15.0984 15.8139 15.2726 15.856 15.5116C16.0024 16.3419 15.966 17.071 15.7456 17.7221C15.526 18.3707 15.1357 18.9064 14.6279 19.3704C14.1425 19.8496 13.5192 20.2058 12.8376 20.3412L12.8219 20.344L12.6271 20.3763C12.3562 20.4617 12.083 20.504 11.7758 20.504H11.6223C11.569 20.504 11.515 20.4954 11.4643 20.4786C11.4187 20.4636 11.3624 20.4475 11.2921 20.4275L11.2867 20.426C11.223 20.4079 11.1468 20.3863 11.0785 20.3637C11.062 20.3582 11.0458 20.3519 11.0299 20.3448C10.5742 20.1391 10.1451 19.8858 9.7535 19.5414C9.04101 18.9512 8.34847 18.2668 7.81168 17.4483C5.54147 14.1634 6.24841 9.73296 9.38399 7.27481C9.40073 7.26169 9.41828 7.24965 9.43655 7.23877C9.60526 7.13825 9.81639 7.07244 10.0434 7.09391Z" fill="#221F1F"/>
<path d="M19.8389 13.7212L19.3374 18.6248H19.2988C18.5273 18.7397 17.4856 18.893 16.0582 19.1228C14.7465 19.3144 12.9718 20.2338 11.9302 20.8468L11.8145 20.0423C12.0459 20.004 12.316 19.9656 12.5475 19.9273L12.7789 19.889C13.3576 19.7741 13.8977 19.4676 14.3221 19.0462C15.2094 18.1651 15.6724 17.169 15.3637 15.5984L15.5181 15.6367C15.981 15.1386 16.5211 14.7555 17.1384 14.4491C17.9486 13.9894 18.8745 13.7595 19.8389 13.7212Z" fill="#5A595C"/>
<path fill-rule="evenodd" clip-rule="evenodd" d="M20.2031 13.3788C20.3024 13.4844 20.3509 13.6279 20.3362 13.7721L19.8346 18.6757C19.8085 18.9308 19.5937 19.1248 19.3372 19.1248H19.3357C19.2792 19.1332 19.2213 19.1418 19.162 19.1506C18.4144 19.2619 17.4361 19.4074 16.1375 19.6165L16.1302 19.6176L16.1302 19.6176C15.5426 19.7034 14.8206 19.9591 14.0971 20.2831C13.3806 20.604 12.6933 20.9777 12.1836 21.2777C12.0399 21.3622 11.8636 21.3696 11.7134 21.2974C11.5632 21.2252 11.4588 21.0829 11.4351 20.918L11.3194 20.1135C11.2806 19.8442 11.4643 19.5934 11.7326 19.549C11.8514 19.5293 11.9793 19.5098 12.1034 19.4908L12.1053 19.4905C12.2313 19.4713 12.3535 19.4526 12.4656 19.434L12.6888 19.3971C13.1583 19.3022 13.6093 19.0493 13.9696 18.6914C14.3774 18.2865 14.6618 17.8809 14.8176 17.4205C14.9727 16.9626 15.0138 16.4115 14.8729 15.6948C14.84 15.527 14.895 15.3541 15.0188 15.2362C15.1082 15.1512 15.2244 15.1033 15.3445 15.0987C15.8054 14.6492 16.3272 14.2949 16.9036 14.0074C17.7914 13.5065 18.7934 13.2623 19.8189 13.2216C19.9637 13.2158 20.1039 13.2732 20.2031 13.3788ZM15.9232 15.9355C16.0039 16.6076 15.9476 17.2014 15.7648 17.7412C15.632 18.1336 15.4371 18.4832 15.1982 18.8033C15.4665 18.7261 15.7301 18.6656 15.982 18.6286C17.2081 18.4312 18.1504 18.2902 18.88 18.1816L19.2801 14.2696C18.5974 14.3589 17.9557 14.5601 17.385 14.8839C17.377 14.8885 17.3688 14.8928 17.3606 14.8969C16.8071 15.1717 16.3308 15.5077 15.9232 15.9355Z" fill="#221F1F"/>
<path d="M31.1039 22.5323L30.7953 22.6855L30.4866 22.8388L30.0237 23.0303C28.8277 22.5706 27.5932 22.2258 26.3201 21.996C24.6612 21.6895 23.0023 21.5362 21.3048 21.5362C19.6073 21.5362 17.9484 21.6512 16.2895 21.996C15.0163 22.2258 13.7818 22.5706 12.5858 23.0303C12.4315 22.9537 12.2772 22.8771 12.1229 22.8388L11.467 22.5323C11.5056 21.996 11.467 21.6895 11.467 21.1531C11.5828 21.0765 11.7757 20.9616 11.9686 20.8467L12.0072 20.8084C13.0102 20.1954 14.7849 19.3143 16.0966 19.0844C17.524 18.8546 18.5271 18.7013 19.3372 18.5864C19.8388 18.5481 20.3789 18.5481 20.919 18.5481C21.7291 18.5481 22.4621 18.5481 23.1951 18.5864C23.9667 18.7013 25.0084 18.8546 26.4744 19.0844C27.8247 19.276 29.5993 20.1954 30.641 20.8084H30.6795C30.8724 20.9233 31.0267 20.9999 31.1425 21.1148C31.1039 21.6895 31.0653 21.996 31.1039 22.5323Z" fill="#929497"/>
<path fill-rule="evenodd" clip-rule="evenodd" d="M19.3912 19.0838C18.5888 19.1977 17.594 19.3498 16.1796 19.5775C14.9823 19.7883 13.3108 20.6045 12.3174 21.2049C12.2893 21.2322 12.2581 21.2562 12.2245 21.2762C12.1343 21.3299 12.0479 21.3815 11.9707 21.4281C11.9721 21.4878 11.9738 21.5468 11.9755 21.6057C11.9812 21.804 11.9869 22.0012 11.982 22.221L12.295 22.3673C12.4067 22.3992 12.514 22.4429 12.6099 22.4866C13.7716 22.054 14.9683 21.7265 16.1996 21.5041C17.8951 21.1909 19.5851 21.0745 21.3048 21.0745C23.0327 21.0745 24.7185 21.2306 26.3999 21.5024L26.4089 21.5038C27.6463 21.7272 28.8486 22.0568 30.0156 22.4926L30.2796 22.3833L30.5893 22.2296C30.583 21.9196 30.6016 21.6621 30.6241 21.3555C30.6122 21.3486 30.5995 21.3412 30.5858 21.3332C30.5649 21.3211 30.5418 21.3076 30.516 21.2925C30.4711 21.2809 30.4278 21.263 30.3874 21.2393C29.344 20.6253 27.6459 19.7556 26.4042 19.5795L26.3969 19.5784C25.1084 19.3764 24.1485 19.2337 23.4105 19.1239C23.3187 19.1103 23.2304 19.0972 23.1453 19.0845C22.4355 19.0482 21.7227 19.0481 20.919 19.0481C20.3807 19.0481 19.8659 19.0484 19.3912 19.0838ZM20.9084 18.0481H20.9263C21.7312 18.0481 22.4752 18.0481 23.2213 18.0871C23.2372 18.0879 23.253 18.0895 23.2688 18.0919C23.361 18.1056 23.4572 18.1199 23.5574 18.1348C24.295 18.2444 25.2574 18.3875 26.5483 18.5899C27.9646 18.792 29.7495 19.711 30.8029 20.3238C30.8493 20.3356 30.894 20.3541 30.9355 20.3788C30.9603 20.3936 30.9881 20.4096 31.0181 20.4268C31.1606 20.5084 31.3517 20.618 31.4948 20.76C31.5976 20.8621 31.6511 21.0038 31.6414 21.1483C31.6343 21.2532 31.6275 21.3477 31.6211 21.435C31.5916 21.8417 31.5735 22.0909 31.6026 22.4964C31.6172 22.6988 31.508 22.8899 31.3263 22.9801L30.709 23.2866C30.6988 23.2917 30.6884 23.2964 30.6778 23.3008L30.2149 23.4923C30.0965 23.5413 29.9639 23.543 29.8443 23.497C28.6794 23.0492 27.4767 22.7131 26.2357 22.4888C24.6008 22.2247 22.9703 22.0745 21.3048 22.0745C19.6298 22.0745 18.0023 22.188 16.3803 22.4876L16.3783 22.488C15.1358 22.7123 13.9316 23.0487 12.7652 23.497C12.6346 23.5472 12.4889 23.5404 12.3635 23.4781C12.1978 23.3959 12.0939 23.3467 12.0024 23.324C11.9711 23.3162 11.9405 23.3054 11.9112 23.2917L11.2554 22.9853C11.0676 22.8975 10.9535 22.7031 10.9683 22.4964C10.9918 22.1708 10.9852 21.9589 10.9771 21.6981C10.9723 21.5445 10.967 21.3739 10.967 21.1531C10.967 20.9854 11.0512 20.8288 11.191 20.7362C11.3073 20.6592 11.4874 20.5514 11.6601 20.4485C11.6863 20.4231 11.7153 20.4007 11.7464 20.3817C12.765 19.7593 14.6044 18.8383 16.0103 18.5919L16.0171 18.5907C17.4461 18.3606 18.4526 18.2069 19.267 18.0914C19.2777 18.0898 19.2884 18.0887 19.2991 18.0879C19.8197 18.0481 20.3757 18.0481 20.9084 18.0481Z" fill="#221F1F"/>
<path d="M23.1568 18.6248C22.4623 18.5865 21.6907 18.5482 20.8806 18.5865C20.3405 18.5865 19.8004 18.6248 19.2988 18.6248H19.3374L19.8389 13.7212L19.9547 12.7252C20.3405 12.4953 20.8034 12.3804 21.2278 12.3804H21.305C21.7679 12.3804 22.1923 12.4953 22.5781 12.7252L22.6938 13.7212V13.7595L23.1568 18.6248Z" fill="#929497"/>
<path fill-rule="evenodd" clip-rule="evenodd" d="M20.4205 13.0479L20.336 13.7755L19.8925 18.1119C19.9434 18.1101 19.9949 18.1082 20.0471 18.1064L20.0572 18.106C20.3176 18.0966 20.5923 18.0868 20.8688 18.0865C21.4777 18.0582 22.0634 18.0718 22.6042 18.096L22.1961 13.8069C22.1946 13.7911 22.1938 13.7753 22.1938 13.7595V13.7502L22.112 13.0458C21.8639 12.9358 21.5965 12.8804 21.305 12.8804H21.2278C20.962 12.8804 20.6767 12.9374 20.4205 13.0479ZM18.8592 18.3865L19.3422 13.6635L19.458 12.6674C19.476 12.5128 19.565 12.3753 19.6988 12.2956C20.1677 12.0162 20.7202 11.8804 21.2278 11.8804H21.305C21.8551 11.8804 22.3683 12.0182 22.834 12.2956C22.9678 12.3753 23.0568 12.5128 23.0747 12.6674L23.1905 13.6635C23.1927 13.6827 23.1938 13.7019 23.1938 13.7212V13.7358L23.6545 18.5775C23.6683 18.7225 23.6182 18.8663 23.5173 18.9713C23.4163 19.0763 23.2746 19.1321 23.1292 19.1241C22.4348 19.0858 21.6861 19.049 20.9042 19.086C20.8963 19.0863 20.8885 19.0865 20.8806 19.0865C20.6209 19.0865 20.3597 19.0957 20.0933 19.1053L20.0745 19.106C19.8339 19.1147 19.588 19.1236 19.3482 19.1247C19.3446 19.1248 19.341 19.1248 19.3374 19.1248H19.2988C19.0227 19.1248 18.7988 18.901 18.7988 18.6248C18.7988 18.5385 18.8207 18.4573 18.8592 18.3865Z" fill="#221F1F"/>
<path fill-rule="evenodd" clip-rule="evenodd" d="M21.112 21.0361V21.0363C22.8398 21.0363 24.5288 21.1923 26.2172 21.5041C27.4568 21.728 28.6613 22.0584 29.8303 22.4954L30.1317 22.3803L30.4188 22.2377C30.6526 22.1216 30.9363 22.2049 31.0703 22.429C31.8321 23.703 32.353 25.0945 32.6342 26.5622C32.765 27.0914 32.7618 27.6072 32.7209 28.0545C32.548 30.0862 31.1661 31.8461 29.1092 33.0796C27.0463 34.3167 24.2534 35.0615 21.112 35.0615H21.0995L21.0995 35.0613C17.9922 34.9832 15.3079 34.2997 13.3486 33.1384C11.3862 31.9752 10.117 30.3062 9.9657 28.2798C9.9254 27.7966 9.96268 27.318 9.99888 26.8531C10.0007 26.8301 10.0024 26.8072 10.0042 26.7844C10.005 26.7747 10.006 26.7651 10.0073 26.7556C10.2102 25.2643 10.7371 23.8598 11.501 22.5822C11.6283 22.3694 11.8922 22.282 12.1213 22.3768L12.4012 22.4926C13.5679 22.057 14.7699 21.7275 16.0069 21.5041C17.7016 21.1911 19.3893 21.075 21.1008 21.0364L21.112 21.0361ZM21.1177 22.0363C19.4365 22.0744 17.8085 22.1882 16.1876 22.4877L16.1856 22.488L16.1856 22.488C14.9431 22.7123 13.7389 23.0487 12.5725 23.497C12.453 23.543 12.3203 23.5413 12.202 23.4923L12.1455 23.469C11.5626 24.5346 11.1649 25.6789 11.0001 26.8762L10.9984 26.8984C10.9602 27.3906 10.9287 27.797 10.9624 28.1986L10.9628 28.2034L10.9628 28.2034C11.0824 29.8153 12.0891 31.2294 13.8585 32.2782C15.6305 33.3285 18.1328 33.9856 21.1183 34.0615C24.1084 34.0605 26.7143 33.3497 28.5949 32.222C30.482 31.0903 31.5884 29.5753 31.7247 27.9683L31.725 27.965C31.7608 27.5739 31.7576 27.1763 31.6608 26.7918C31.6585 26.7824 31.6564 26.7729 31.6546 26.7633C31.4237 25.5514 31.0172 24.4003 30.4361 23.3344L30.0094 23.4974C29.8941 23.5414 29.7667 23.5413 29.6516 23.497C28.4852 23.0487 27.281 22.7123 26.0385 22.488L26.0365 22.4877C24.4092 22.187 22.7826 22.0366 21.1177 22.0363Z" fill="#221F1F"/>
<path d="M34.1131 17.1691C33.573 17.897 32.9557 18.5865 32.2227 19.1612C31.8755 19.4676 31.4897 19.6975 31.0653 19.889L30.8725 19.9657L30.7567 20.004C30.4867 20.0806 30.3323 20.004 29.8308 19.9274L29.5993 19.889C29.0206 19.7741 28.4805 19.4676 28.0562 19.0462C27.1688 18.1651 26.7059 17.1691 27.0145 15.5984C28.2491 15.6367 30.3709 14.2959 31.374 12.8784C32.4928 11.2311 32.2613 9.31562 31.9913 8.08971C31.9527 7.85986 32.0684 7.66831 32.2999 7.59169C32.4156 7.55338 32.5699 7.59169 32.6471 7.66831C35.5791 9.96688 36.235 14.1426 34.1131 17.1691Z" fill="#F79422"/>
<path fill-rule="evenodd" clip-rule="evenodd" d="M32.5289 8.21667C35.0918 10.3819 35.6222 14.1396 33.7075 16.8766C33.1863 17.5783 32.6004 18.2297 31.9142 18.7677C31.9066 18.7737 31.8991 18.7799 31.8918 18.7863C31.5933 19.0498 31.2562 19.2534 30.8699 19.4287L30.7015 19.4956L30.6114 19.5254C30.5655 19.5376 30.5317 19.5396 30.4508 19.5281C30.4009 19.521 30.3445 19.5104 30.2607 19.4946L30.2414 19.491C30.1514 19.4741 30.042 19.4539 29.9094 19.4336L29.6893 19.3971C29.2198 19.3022 28.7688 19.0493 28.4085 18.6914C28.0007 18.2865 27.7163 17.8809 27.5604 17.4205C27.4336 17.046 27.383 16.609 27.4459 16.07C28.1161 15.9715 28.8672 15.6336 29.5465 15.208C30.3988 14.674 31.2339 13.9418 31.7821 13.1672L31.7822 13.1673L31.7876 13.1593C32.9546 11.441 32.7828 9.48523 32.5289 8.21667ZM32.9724 7.28808C32.857 7.18454 32.7196 7.12701 32.5996 7.09953C32.468 7.06937 32.3051 7.06327 32.1428 7.11701C31.9309 7.18715 31.7414 7.32147 31.6185 7.52117C31.4952 7.72151 31.4611 7.95179 31.4981 8.17247C31.4995 8.18078 31.5011 8.18905 31.5029 8.19727C31.767 9.39583 31.956 11.1278 30.9631 12.5935C30.508 13.235 29.7821 13.8803 29.0156 14.3606C28.2305 14.8525 27.4961 15.1131 27.03 15.0986C26.7853 15.091 26.5711 15.2617 26.5239 15.502C26.3561 16.356 26.3921 17.0882 26.6133 17.7412C26.8335 18.3918 27.2243 18.9248 27.7038 19.401C28.1903 19.8841 28.8167 20.2434 29.5019 20.3795L29.5177 20.3823L29.7492 20.4206L29.7492 20.4207L29.7553 20.4216C29.872 20.4394 29.969 20.4573 30.0568 20.4738C30.0649 20.4754 30.0731 20.4769 30.0813 20.4784C30.1577 20.4928 30.2368 20.5077 30.3103 20.5182C30.4943 20.5443 30.6738 20.5472 30.8932 20.485C30.9001 20.483 30.907 20.4809 30.9138 20.4786L31.0296 20.4403C31.0388 20.4373 31.048 20.4339 31.057 20.4303L31.2499 20.3537C31.257 20.3509 31.2641 20.3479 31.271 20.3448C31.7248 20.1399 32.1522 19.8879 32.5425 19.5458C33.3155 18.9377 33.9594 18.2153 34.5146 17.467L34.5148 17.4671L34.5225 17.4561C36.7964 14.2129 36.0944 9.74961 32.9724 7.28808Z" fill="#221F1F"/>
<path d="M30.7567 20.004L30.6024 20.8468C29.5607 20.2338 27.7861 19.3144 26.4358 19.1228C24.9698 18.893 23.9667 18.7397 23.1566 18.6248L22.655 13.7212C23.5424 13.7595 24.4297 14.0277 25.2398 14.4491C25.8571 14.7555 26.3972 15.177 26.8602 15.6367L27.0145 15.5984C26.7059 17.1307 27.1688 18.1651 28.0561 19.0462C28.4805 19.4676 29.0206 19.7741 29.5993 19.889C29.6379 19.889 29.7922 19.9656 29.8308 19.9656C30.1394 20.0806 30.448 20.0806 30.7567 20.004Z" fill="#5A595C"/>
<path fill-rule="evenodd" clip-rule="evenodd" d="M22.2912 13.3782C22.3909 13.2725 22.5315 13.2154 22.6766 13.2217C23.6471 13.2636 24.6039 13.5553 25.4664 14.0033C26.0552 14.2963 26.5732 14.6812 27.0216 15.0984C27.1464 15.1002 27.2677 15.1487 27.3601 15.237C27.4839 15.3555 27.5385 15.5291 27.5047 15.6971C27.3648 16.3915 27.4049 16.9428 27.5608 17.4074C27.7176 17.8745 28.0034 18.2892 28.4084 18.6914C28.7688 19.0493 29.2198 19.3022 29.6893 19.3971L29.9094 19.4335C30.042 19.4539 30.1515 19.4741 30.2414 19.491L30.2607 19.4946C30.3445 19.5104 30.4009 19.521 30.4508 19.5281C30.5369 19.5403 30.5695 19.5373 30.6202 19.5229C30.7864 19.4758 30.9652 19.5178 31.093 19.634C31.2208 19.7501 31.2796 19.9241 31.2485 20.094L31.0942 20.9368C31.0648 21.0974 30.9588 21.2336 30.8103 21.3015C30.6618 21.3694 30.4895 21.3605 30.3488 21.2777C29.3054 20.6637 27.6074 19.794 26.3656 19.6179L26.3583 19.6169L26.3584 19.6168C24.8926 19.387 23.8926 19.2342 23.0863 19.1199C22.8588 19.0876 22.6825 18.9043 22.6592 18.6757L22.1576 13.7721C22.1429 13.6276 22.1916 13.4838 22.2912 13.3782ZM27.1506 18.7596C26.9242 18.446 26.74 18.1044 26.6128 17.7256C26.4319 17.1867 26.3746 16.5963 26.4535 15.9381C26.0321 15.5283 25.5529 15.1627 25.0175 14.8969L25.0091 14.8927L25.0091 14.8927C24.4347 14.5939 23.826 14.3815 23.2149 14.2813L23.6142 18.1855C24.3582 18.2939 25.2692 18.4338 26.5097 18.6283C26.7166 18.6578 26.9314 18.7027 27.1506 18.7596Z" fill="#221F1F"/>
<path fill-rule="evenodd" clip-rule="evenodd" d="M22.5007 13.2212H22.655V14.2212H22.5007V13.2212Z" fill="#221F1F"/>
<path d="M30.7954 19.8125C31.0655 20.119 30.9883 20.5787 30.6797 20.8469C30.6411 20.8852 30.6411 20.8852 30.6025 20.9235" fill="#F79422"/>
<path fill-rule="evenodd" clip-rule="evenodd" d="M30.4587 20.28C30.4661 20.223 30.4518 20.1788 30.4203 20.1431L31.1706 19.4819C31.6567 20.0336 31.4838 20.7982 31.0217 21.2119L30.9549 21.2783L30.2502 20.5687L30.3392 20.4803L30.3518 20.4694C30.4163 20.4134 30.4507 20.3418 30.4587 20.28Z" fill="#221F1F"/>
<path d="M11.7757 19.8125C11.5056 20.119 11.5828 20.5787 11.8914 20.8469C11.93 20.8852 11.93 20.8852 11.9686 20.9235" fill="#F79422"/>
<path fill-rule="evenodd" clip-rule="evenodd" d="M11.5494 21.2119C11.0873 20.7982 10.9144 20.0336 11.4005 19.4819L12.1508 20.1431C12.1193 20.1788 12.105 20.223 12.1124 20.28C12.1204 20.3418 12.1548 20.4134 12.2193 20.4694L12.2319 20.4803L12.3209 20.5687L11.6163 21.2783L11.5494 21.2119Z" fill="#221F1F"/>
<path fill-rule="evenodd" clip-rule="evenodd" d="M21.3433 27.8171C21.6033 27.8171 21.8199 28.0163 21.8416 28.2753C21.8474 28.3441 21.8485 28.4124 21.8451 28.4799C21.872 28.6653 21.9966 28.819 22.169 28.8812C22.1778 28.8844 22.1864 28.8878 22.195 28.8914C22.3878 28.9735 22.5661 28.9959 22.7391 28.9714C23.0125 28.9326 23.2656 29.1228 23.3044 29.3962C23.3432 29.6696 23.153 29.9227 22.8796 29.9615C22.5168 30.0129 22.1592 29.9606 21.8157 29.8168C21.638 29.7506 21.4789 29.6533 21.3433 29.5325C21.2146 29.6472 21.0647 29.7408 20.8976 29.8066C20.5267 30.0052 20.0961 30.0592 19.7023 29.9474C19.4366 29.8721 19.2824 29.5956 19.3577 29.33C19.4331 29.0643 19.7096 28.91 19.9752 28.9854C20.1084 29.0232 20.2796 29.0081 20.4407 28.9166C20.4653 28.9027 20.4911 28.8908 20.5177 28.8812C20.6901 28.819 20.8146 28.6653 20.8416 28.4799C20.8382 28.4124 20.8393 28.3441 20.8451 28.2753C20.8668 28.0163 21.0834 27.8171 21.3433 27.8171Z" fill="#171717"/>
<path d="M22.8481 27.0146C22.8481 27.4743 22.1536 28.0872 21.3049 28.0872C20.4561 28.0872 19.7617 27.4743 19.7617 27.0146C19.7617 26.5549 20.4561 26.4016 21.3049 26.4016C22.1536 26.4016 22.8481 26.5932 22.8481 27.0146Z" fill="#171717"/>
<path d="M21.922 26.8614C21.922 26.9764 21.6134 27.1296 21.2662 27.1296C20.919 27.1296 20.6104 26.9764 20.6104 26.8997C20.6104 26.8231 20.919 26.8231 21.2662 26.8231C21.6134 26.8231 21.922 26.7465 21.922 26.8614Z" fill="white"/>
<path fill-rule="evenodd" clip-rule="evenodd" d="M18.9102 27.8184C19.1856 27.8383 19.3928 28.0776 19.373 28.353C19.3537 28.6209 19.5089 28.8508 19.7828 28.9281H19.8388C20.1149 28.9281 20.3388 29.152 20.3388 29.4281C20.3388 29.7043 20.1149 29.9281 19.8388 29.9281H19.723C19.6881 29.9281 19.6532 29.9245 19.619 29.9172C18.84 29.7514 18.3187 29.0719 18.3756 28.2813C18.3954 28.0059 18.6347 27.7986 18.9102 27.8184Z" fill="#171717"/>
<path fill-rule="evenodd" clip-rule="evenodd" d="M21.3435 27.2808C21.6196 27.2808 21.8435 27.5046 21.8435 27.7808V28.3171C21.8435 28.5932 21.6196 28.8171 21.3435 28.8171C21.0674 28.8171 20.8435 28.5932 20.8435 28.3171V27.7808C20.8435 27.5046 21.0674 27.2808 21.3435 27.2808Z" fill="#171717"/>
<path fill-rule="evenodd" clip-rule="evenodd" d="M23.7412 27.8606C24.0145 27.8213 24.268 28.011 24.3073 28.2843C24.4291 29.1311 23.8128 29.797 23.0677 29.9556C23.0335 29.9628 22.9986 29.9665 22.9636 29.9665H22.8479C22.5718 29.9665 22.3479 29.7427 22.3479 29.4665C22.3479 29.1904 22.5718 28.9665 22.8479 28.9665H22.9046C23.2085 28.8829 23.3485 28.6423 23.3175 28.4267C23.2782 28.1534 23.4679 27.9 23.7412 27.8606Z" fill="#171717"/>
<path fill-rule="evenodd" clip-rule="evenodd" d="M33.6651 16.8438C35.6334 14.0365 35.0629 10.1976 32.3386 8.06189L32.9556 7.2749C36.0953 9.73631 36.7594 14.1723 34.4839 17.4179L33.6651 16.8438Z" fill="#221F1F"/>
<path fill-rule="evenodd" clip-rule="evenodd" d="M9.8107 8.21659C7.24692 10.3809 6.71515 14.1078 8.63755 16.8845L8.64494 16.8951C9.10922 17.6044 9.72436 18.2193 10.397 18.7759L10.4091 18.7863C10.7039 19.0465 11.0362 19.2482 11.4164 19.422C11.4575 19.4349 11.5064 19.4489 11.565 19.4655L11.5703 19.467C11.6097 19.4782 11.6539 19.4907 11.698 19.504H11.7751C11.9933 19.504 12.1723 19.4737 12.3516 19.4144C12.3763 19.4062 12.4015 19.4 12.4271 19.3958L12.6503 19.3588C13.1198 19.2639 13.5707 19.011 13.9311 18.6531C13.9362 18.648 13.9415 18.643 13.9468 18.6382C14.3611 18.2611 14.643 17.8604 14.7984 17.4014C14.9253 17.0267 14.9759 16.5894 14.9234 16.0605C14.2467 15.9498 13.4962 15.6073 12.816 15.1786C11.9697 14.6451 11.1466 13.9242 10.5998 13.1725L10.595 13.1659C9.38656 11.4459 9.55672 9.48611 9.8107 8.21659ZM9.96704 8.08912C9.96768 8.08901 9.96704 8.08913 9.96704 8.08912C9.96704 8.08911 9.96669 8.08917 9.96601 8.08938ZM10.0434 7.09391C10.281 7.11638 10.5001 7.23212 10.6605 7.43124C10.6696 7.44252 10.6782 7.4542 10.6863 7.46623C10.7944 7.62724 10.9253 7.89852 10.8322 8.21729C10.5706 9.41459 10.3901 11.1316 11.4109 12.5876C11.8674 13.214 12.5863 13.8517 13.3492 14.3326C14.128 14.8234 14.8691 15.0984 15.3636 15.0984C15.6063 15.0984 15.8139 15.2726 15.856 15.5116C16.0024 16.3419 15.966 17.071 15.7456 17.7221C15.526 18.3707 15.1357 18.9064 14.6279 19.3704C14.1425 19.8496 13.5192 20.2058 12.8376 20.3412L12.8219 20.344L12.6271 20.3763C12.3562 20.4617 12.083 20.504 11.7758 20.504H11.6223C11.569 20.504 11.515 20.4954 11.4643 20.4786C11.4187 20.4636 11.3624 20.4475 11.2921 20.4275L11.2867 20.426C11.223 20.4079 11.1468 20.3863 11.0785 20.3637C11.062 20.3582 11.0458 20.3519 11.0299 20.3448C10.5742 20.1391 10.1451 19.8858 9.7535 19.5414C9.04101 18.9512 8.34847 18.2668 7.81168 17.4483C5.54147 14.1634 6.24841 9.73296 9.38399 7.27481C9.40073 7.26169 9.41828 7.24965 9.43655 7.23877C9.60526 7.13825 9.81639 7.07244 10.0434 7.09391Z" fill="#221F1F"/>
<path d="M18.4886 24.5246C18.4886 25.3674 17.987 26.0187 17.3698 26.0187C16.7525 26.0187 16.251 25.3291 16.251 24.5246C16.251 23.7967 16.6368 23.1838 17.1383 23.0305L18.3728 23.9499C18.45 24.1415 18.4886 24.333 18.4886 24.5246Z" fill="#221F1F"/>
<path d="M18.0641 24.333C18.0641 24.6394 17.8712 24.8693 17.6783 24.8693C17.4854 24.8693 17.2925 24.6394 17.2925 24.333C17.2925 24.0265 17.4854 23.7966 17.6783 23.7966C17.8712 23.7966 18.0641 24.0265 18.0641 24.333Z" fill="white"/>
<path d="M17.1382 25.6738C16.7139 26.0186 16.3281 26.4017 15.9808 26.8231C15.8265 27.0147 15.6722 27.2445 15.5565 27.5127C15.4407 27.7426 15.3636 28.0107 15.325 28.2789C15.2864 28.3938 15.2864 28.5471 15.2864 28.662V28.8535V29.0451C15.2864 29.3132 15.2864 29.5814 15.2864 29.8879C15.325 30.1561 15.3636 30.4625 15.4022 30.7307C15.4407 30.8839 15.4407 30.9989 15.4793 31.1521C15.5179 31.267 15.5565 31.4203 15.6336 31.5352C15.5565 31.4203 15.5179 31.267 15.4407 31.1521C15.4022 31.0372 15.325 30.8839 15.2864 30.769C15.2093 30.5008 15.1321 30.2327 15.0549 29.9262C15.0164 29.658 14.9778 29.3516 14.9392 29.0834V28.8918V28.662C14.9392 28.5087 14.9392 28.3555 14.9392 28.2406C14.9778 27.9341 15.0164 27.6276 15.1321 27.3595C15.2478 27.0913 15.3636 26.8231 15.5179 26.555C15.8651 26.0569 16.2123 25.5972 16.6367 25.2141C16.791 25.0992 16.9839 25.0992 17.1382 25.2141C17.254 25.2907 17.2925 25.5206 17.1382 25.6738Z" fill="#221F1F"/>
<path d="M16.8683 25.559C16.8297 25.559 16.8297 25.559 16.7911 25.559H16.7525H16.6754L16.4825 25.5206C16.3667 25.4823 16.251 25.4823 16.1353 25.4823C15.9038 25.4823 15.6337 25.4823 15.4023 25.559C15.2865 25.5973 15.1708 25.6356 15.055 25.6739C14.7078 25.8271 14.3992 26.0953 14.2063 26.4018C14.322 26.1336 14.4378 25.9037 14.6307 25.7122C14.7078 25.5973 14.8236 25.5206 14.9393 25.444C15.055 25.3674 15.1708 25.2908 15.2865 25.2142C15.518 25.0609 15.7881 24.9843 16.0967 24.9077C16.251 24.8694 16.3667 24.8694 16.5211 24.8694C16.5982 24.8694 16.6754 24.8694 16.7525 24.8694H16.9069C17.0997 24.8694 17.2541 25.0226 17.2926 25.2142C17.3312 25.4057 17.0997 25.559 16.8683 25.559Z" fill="#221F1F"/>
<path d="M26.3973 24.5246C26.3973 25.3674 25.8957 26.0187 25.317 26.0187C24.7384 26.0187 24.1982 25.3291 24.1982 24.5246C24.1982 24.333 24.2368 24.1415 24.2754 23.9499L25.5099 23.0305C26.0115 23.1838 26.3973 23.7967 26.3973 24.5246Z" fill="#221F1F"/>
<path d="M24.584 24.333C24.584 24.6394 24.7769 24.8693 24.9698 24.8693C25.1627 24.8693 25.3556 24.6394 25.3556 24.333C25.3556 24.0265 25.1627 23.7966 24.9698 23.7966C24.7769 23.7966 24.584 24.0265 24.584 24.333Z" fill="white"/>
<path d="M26.0116 25.1375C26.4359 25.5589 26.7831 25.9803 27.0918 26.4783C27.2461 26.7082 27.4004 26.9763 27.5161 27.2445C27.6319 27.5127 27.709 27.8192 27.7476 28.0873C27.7862 28.3938 27.7862 28.662 27.7476 28.9684C27.709 29.2366 27.6705 29.5431 27.6319 29.8112C27.5933 30.0794 27.5161 30.3476 27.439 30.6157C27.4004 30.7307 27.3618 30.8839 27.2847 30.9988C27.2461 31.1138 27.1689 31.267 27.0918 31.3819C27.1304 31.267 27.2075 31.1138 27.2461 30.9988C27.2847 30.8839 27.3232 30.7307 27.3618 30.6157C27.4004 30.3476 27.4776 30.0794 27.4776 29.8112C27.5161 29.5431 27.5161 29.2749 27.5161 28.9684C27.5161 28.7003 27.4776 28.4321 27.439 28.1639C27.3618 27.8958 27.2847 27.6659 27.1689 27.4361C27.0532 27.2062 26.8989 26.9763 26.706 26.7848C26.3588 26.3634 25.973 25.9803 25.5486 25.6355C25.3943 25.4823 25.3943 25.2907 25.5486 25.1375C25.6643 25.0226 25.8572 24.9843 26.0116 25.0992V25.1375Z" fill="#221F1F"/>
<path d="M25.7799 24.8693H25.9728C26.05 24.8693 26.1271 24.8693 26.2043 24.8693C26.3586 24.8693 26.5129 24.8693 26.6672 24.9077C26.9759 24.946 27.2459 25.0226 27.516 25.1375C27.786 25.2524 28.0175 25.444 28.249 25.6355C28.4419 25.8271 28.5962 26.0952 28.7119 26.3251C28.5576 26.0952 28.3647 25.9037 28.1333 25.7505C27.9018 25.5972 27.6703 25.4823 27.4003 25.444C27.1302 25.4057 26.8601 25.4057 26.5901 25.4057C26.4744 25.4057 26.32 25.444 26.2043 25.444L26.0114 25.4823H25.9342H25.8957H25.8571H25.8185C25.6256 25.5206 25.4327 25.3674 25.4327 25.1758C25.3941 24.9843 25.5484 24.7927 25.7413 24.7927C25.7799 24.7927 25.7799 24.7927 25.8185 24.7927" fill="#221F1F"/>
</svg>
