<svg width="42" height="42" viewBox="0 0 42 42" fill="none" xmlns="http://www.w3.org/2000/svg">
<g clip-path="url(#clip0_7277_55663)">
<g clip-path="url(#clip1_7277_55663)">
<path d="M21 42C32.598 42 42 32.598 42 21C42 9.40202 32.598 0 21 0C9.40202 0 0 9.40202 0 21C0 32.598 9.40202 42 21 42Z" fill="#00EF8B"/>
<path d="M30.198 17.7241H24.276V23.6461H30.198V17.7241Z" fill="white"/>
<path d="M18.354 25.8721C18.354 27.0901 17.346 28.0981 16.128 28.0981C14.91 28.0981 13.902 27.0901 13.902 25.8721C13.902 24.6541 14.91 23.6461 16.128 23.6461H18.354V17.7241H16.128C11.634 17.7241 7.97998 21.3781 7.97998 25.8721C7.97998 30.3661 11.634 34.0201 16.128 34.0201C20.622 34.0201 24.276 30.3661 24.276 25.8721V23.6461H18.354V25.8721Z" fill="white"/>
<path d="M26.502 14.7421H33.18V8.82007H26.502C22.008 8.82007 18.354 12.4741 18.354 16.9681V17.7241H24.276V16.9681C24.276 15.7501 25.284 14.7421 26.502 14.7421Z" fill="white"/>
<path d="M24.276 17.7241H18.354V23.6461H24.276V17.7241Z" fill="#16FF99"/>
</g>
</g>
<defs>
<clipPath id="clip0_7277_55663">
<rect width="42" height="42" fill="white"/>
</clipPath>
<clipPath id="clip1_7277_55663">
<rect width="42" height="42" fill="white"/>
</clipPath>
</defs>
</svg>
