<svg xmlns="http://www.w3.org/2000/svg" width="42" height="42" fill="none"><g clip-path="url(#a)"><path fill="#13B5EC" d="M21 42c11.598 0 21-9.402 21-21S32.598 0 21 0 0 9.402 0 21s9.402 21 21 21z"/><path fill="#fff" fill-rule="evenodd" d="m22.575 16.931 4.725-2.756v5.512l-4.725-2.756zM27.3 28.744 21 32.419l-6.3-3.675v-6.431l6.3 3.675 6.3-3.675v6.43zM14.7 14.175l4.725 2.756-4.725 2.756v-5.512zm7.088 4.069L26.512 21l-4.724 2.756v-5.512zm-1.576 5.512L15.488 21l4.724-2.756v5.512zm6.3-10.893L21 16.012l-5.512-3.15L21 9.58l5.512 3.282zm-13.387-.525V29.53L21 33.994l7.875-4.463V12.337L21 7.875l-7.875 4.463z" clip-rule="evenodd"/></g><defs><clipPath id="a"><path fill="#fff" d="M0 0h42v42H0z"/></clipPath></defs></svg>