<svg xmlns="http://www.w3.org/2000/svg" width="42" height="42" fill="none"><g clip-path="url(#a)"><path fill="#FEFEFE" d="M21-.044c11.623 0 21.044 9.421 21.044 21.043 0 11.623-9.421 21.046-21.044 21.046-11.622 0-21.044-9.423-21.044-21.046C-.044 9.378 9.378-.044 21-.044z"/><path fill="#012169" d="M13.949 13.566V1.167a21.114 21.114 0 0 0-9.945 7.425l9.945 4.974zm0 14.868v12.399a21.118 21.118 0 0 1-9.944-7.425l9.944-4.974zm14.056 0V40.85a21.104 21.104 0 0 0 9.979-7.423l-9.979-4.992zm0-14.868V1.15a21.099 21.099 0 0 1 9.98 7.424l-9.98 4.99z"/><path fill="#C8102E" d="M39.7 28.017h-4.678l4.799 2.404c.312-.623.594-1.264.845-1.92l-.966-.484zM38.792 9.76l-8.404 4.213h4.678l4.76-2.382a20.87 20.87 0 0 0-1.034-1.831zm-22.03 15.448v16.41a21.215 21.215 0 0 0 8.432.01v-16.42h16.428a21.184 21.184 0 0 0-.002-8.435H25.194V.375a21.14 21.14 0 0 0-8.433.008v16.389H.381a21.178 21.178 0 0 0-.003 8.435h16.383zM2.243 13.983h4.678l-4.754-2.38a21.291 21.291 0 0 0-.844 1.921l.92.459zm9.322 14.045H6.888l-4.723 2.364c.315.63.662 1.245 1.04 1.842l8.404-4.206h-.043z"/></g><defs><clipPath id="a"><path fill="#fff" d="M0 0h42v42H0z"/></clipPath></defs></svg>