<svg xmlns="http://www.w3.org/2000/svg" width="42" height="42" fill="none"><circle cx="21" cy="21" r="21" fill="#000"/><path fill="#000" d="M21 40.887c10.983 0 19.887-8.904 19.887-19.887S31.983 1.113 21 1.113 1.113 10.017 1.113 21 10.017 40.887 21 40.887z"/><path fill="#fff" d="M29.077 25.826c0-1.839-.765-3.349-2.272-4.491-1.114-.845-2.671-1.537-5.197-2.313-4.548-1.397-4.548-2.202-4.548-2.85 0-.894 1.325-2.135 3.81-2.135 1.471 0 3.94.37 3.94 2.854h4.136c0-1.17-.262-2.262-.758-3.215l3.319-3.319-2.925-2.925-3.383 3.384c-1.227-.601-2.695-.914-4.328-.914-1.521 0-2.92.293-4.126.858l-3.327-3.326-2.925 2.924 3.156 3.156a5.35 5.35 0 0 0-.724 2.66c0 1.839.764 3.349 2.271 4.491 1.115.845 2.667 1.535 5.194 2.312 4.547 1.395 4.55 2.203 4.55 2.85 0 .895-1.325 2.135-3.81 2.135-1.47 0-3.94-.37-3.94-2.853h-4.136c0 1.175.264 2.27.763 3.225l-3.325 3.325 2.925 2.925 3.394-3.394c1.226.598 2.69.91 4.318.91 1.517 0 2.912-.293 4.115-.853l3.338 3.339 2.925-2.925-3.162-3.162a5.36 5.36 0 0 0 .732-2.673z"/></svg>