<svg width="42" height="43" fill="none" viewBox="0 0 42 43" xmlns="http://www.w3.org/2000/svg">
  <g clip-path="url(#a)">
    <path fill="#268AEF" d="M21.021 1.19C9.391 1.19.21 10.62.21 21.96c0 11.507 9.303 20.81 20.769 20.81 11.63 0 20.811-9.429 20.811-20.81 0-11.589-9.429-20.77-20.769-20.77m-.819 37.233L6.098 29.897V13.874l2.268 1.353v13.402L18.11 34.6V23.387l-3.246-1.869v-2.566l5.338 3.07zM21 20.913c-4.675-2.7-9.324-5.405-13.986-8.106 4.7-2.62 9.19-5.107 13.944-7.5 4.053 1.864 7.783 4.12 11.689 6.253.798.42 1.566.827 2.352 1.23l-2.256 1.349-2.322-1.285-9.366-5.061-9.459 5.082 9.459 5.405.701-.42.73-.39 1.61-.92 2.368 1.2-1.025.597-3.733 2.163zm.865 17.741V35.95c3.784-2.473 7.783-4.77 11.727-7.253v-10.81c-3.255 2.053-6.636 3.687-9.728 5.753v3.646l-1.999.987v-6.237l14.037-8.094v16.023c-4.352 3.041-9.942 5.322-14.037 8.69"/>
  </g>
  <defs>
    <clipPath id="a">
      <path fill="#fff" d="M0 .98h42v42H0z"/>
    </clipPath>
  </defs>
</svg>
