<svg width="42" height="42" viewBox="0 0 42 42" fill="none" xmlns="http://www.w3.org/2000/svg">
<circle cx="21" cy="21" r="21" fill="#06061B"/>
<path d="M13.5816 27.6516C14.4581 27.6516 15.1155 27.4507 15.5537 27.049C15.992 26.629 16.2111 25.9716 16.2111 25.0768V22.2829H13.609V19.4616H16.2111V16.9964C16.2111 16.1381 16.3481 15.362 16.622 14.6681C16.8959 13.9559 17.2794 13.3533 17.7724 12.8603C18.2655 12.3672 18.859 11.9837 19.5529 11.7098C20.2468 11.4359 21.0229 11.299 21.8811 11.299C22.6481 11.299 23.3603 11.4177 24.0177 11.6551C24.6933 11.8924 25.2777 12.2394 25.7707 12.6959C26.2637 13.1524 26.6472 13.7003 26.9211 14.3394C27.2133 14.9785 27.3594 15.6907 27.3594 16.4759H23.9355C23.9355 15.8551 23.762 15.3346 23.4151 14.9146C23.0681 14.4764 22.5568 14.2572 21.8811 14.2572C21.1324 14.2572 20.5755 14.4946 20.2103 14.9694C19.8451 15.4442 19.6624 16.0651 19.6624 16.832V19.4616H23.5794V22.2829H19.6624V25.1042C19.6624 25.3416 19.6442 25.5881 19.6077 25.8437C19.5711 26.0994 19.4981 26.3459 19.3885 26.5833C19.2972 26.8207 19.1694 27.0307 19.0051 27.2133C18.8407 27.3777 18.6307 27.4872 18.3751 27.542V27.5968H22.7851C23.6433 27.5968 24.2459 27.3959 24.5929 26.9942C24.9581 26.5924 25.1407 25.9716 25.1407 25.1316H28.4003C28.4003 26.9577 27.9255 28.3364 26.9759 29.2677C26.0264 30.199 24.6477 30.6646 22.8398 30.6646H13.5816V27.6516Z" fill="white"/>
</svg>
