<svg xmlns="http://www.w3.org/2000/svg" width="42" height="42" fill="none"><circle cx="21" cy="21" r="21" fill="#06061B"/><path fill="#fff" d="M13.582 27.652c.876 0 1.534-.201 1.972-.603.438-.42.657-1.077.657-1.972v-2.794H13.61v-2.821h2.602v-2.465c0-.859.137-1.635.411-2.329a5.113 5.113 0 0 1 1.15-1.808 5.164 5.164 0 0 1 1.78-1.15c.695-.274 1.47-.41 2.33-.41.766 0 1.478.118 2.136.355.675.238 1.26.585 1.753 1.041a4.773 4.773 0 0 1 1.15 1.643c.292.64.438 1.352.438 2.137h-3.424c0-.62-.173-1.141-.52-1.561-.347-.438-.858-.658-1.534-.658-.748 0-1.305.238-1.67.713-.366.474-.548 1.095-.548 1.862v2.63h3.916v2.821h-3.916v2.821c0 .238-.019.484-.055.74a2.67 2.67 0 0 1-.22.74c-.09.237-.219.447-.383.63a1.233 1.233 0 0 1-.63.328v.055h4.41c.858 0 1.461-.201 1.808-.603.365-.401.548-1.022.548-1.862h3.26c0 1.826-.476 3.204-1.425 4.136-.95.931-2.328 1.397-4.136 1.397h-9.258v-3.013z"/></svg>