<svg width="42" height="42" fill="none" xmlns="http://www.w3.org/2000/svg">
  <circle cx="21" cy="21" r="21" fill="#06061B"/>
  <path fill="#fff" d="M13.582 27.652q1.315 0 1.972-.603.657-.63.657-1.972v-2.794H13.61v-2.821h2.602v-2.465q0-1.288.411-2.329a5.1 5.1 0 0 1 1.15-1.808 5.2 5.2 0 0 1 1.78-1.15q1.041-.41 2.33-.41 1.149 0 2.136.355 1.013.357 1.753 1.041a4.8 4.8 0 0 1 1.15 1.643q.438.96.438 2.137h-3.424q0-.93-.52-1.561-.52-.658-1.534-.658-1.122 0-1.67.713-.549.711-.548 1.862v2.63h3.916v2.821h-3.916v2.821q0 .356-.055.74a2.7 2.7 0 0 1-.22.74q-.136.355-.383.63a1.23 1.23 0 0 1-.63.328v.055h4.41q1.287 0 1.808-.603.548-.602.548-1.862h3.26q0 2.739-1.425 4.136-1.424 1.397-4.136 1.397h-9.258v-3.013z"/>
</svg>
