<svg width="42" height="42" fill="none" xmlns="http://www.w3.org/2000/svg">
  <circle cx="21" cy="21" r="21" fill="#fff"/>
  <path fill="#4285F4" d="M36.681 21.355c0-1.314-.106-2.272-.337-3.267H21.342v5.93h8.806c-.177 1.474-1.136 3.693-3.267 5.184l-.03.199 4.744 3.674.329.033c3.017-2.787 4.758-6.888 4.758-11.753"/>
  <path fill="#34A853" d="M21.342 36.978c4.314 0 7.936-1.42 10.582-3.87l-5.043-3.906c-1.349.941-3.16 1.598-5.539 1.598-4.225 0-7.811-2.787-9.09-6.64l-.187.016-4.932 3.817-.065.18c2.628 5.219 8.025 8.805 14.274 8.805"/>
  <path fill="#FBBC05" d="M12.252 24.16A9.8 9.8 0 0 1 11.72 21c0-1.1.195-2.166.515-3.16l-.01-.212-4.993-3.878-.164.078A16 16 0 0 0 5.364 21c0 2.574.622 5.006 1.704 7.172z"/>
  <path fill="#EB4335" d="M21.342 11.2c3 0 5.024 1.296 6.179 2.379l4.509-4.403c-2.77-2.574-6.374-4.154-10.688-4.154-6.249 0-11.646 3.586-14.274 8.805l5.167 4.013c1.296-3.853 4.882-6.64 9.107-6.64"/>
</svg>
