<svg width="42" height="42" viewBox="0 0 42 42" fill="none" xmlns="http://www.w3.org/2000/svg">
<circle cx="21" cy="21" r="21" fill="white"/>
<path d="M36.6815 21.3551C36.6815 20.0414 36.5749 19.0827 36.3441 18.0885H21.3423V24.0181H30.1481C29.9706 25.4917 29.0119 27.7109 26.8814 29.2022L26.8516 29.4007L31.5949 33.0753L31.9235 33.1081C34.9415 30.3207 36.6815 26.2196 36.6815 21.3551" fill="#4285F4"/>
<path d="M21.3424 36.9782C25.6564 36.9782 29.2781 35.5579 31.9235 33.108L26.8814 29.2021C25.5322 30.143 23.7213 30.7999 21.3424 30.7999C17.117 30.7999 13.5308 28.0127 12.2524 24.1602L12.0651 24.1761L7.13292 27.9931L7.06842 28.1724C9.69593 33.3919 15.093 36.9782 21.3424 36.9782Z" fill="#34A853"/>
<path d="M12.2525 24.1602C11.9152 23.166 11.7199 22.1007 11.7199 21C11.7199 19.8992 11.9152 18.834 12.2347 17.8398L12.2258 17.6281L7.23183 13.7498L7.06844 13.8275C5.98552 15.9934 5.36414 18.4257 5.36414 21C5.36414 23.5743 5.98552 26.0064 7.06844 28.1724L12.2525 24.1602" fill="#FBBC05"/>
<path d="M21.3424 11.1999C24.3427 11.1999 26.3665 12.4959 27.5206 13.579L32.03 9.17607C29.2605 6.60181 25.6564 5.02173 21.3424 5.02173C15.093 5.02173 9.69593 8.60793 7.06842 13.8274L12.2347 17.8398C13.5308 13.9873 17.117 11.1999 21.3424 11.1999" fill="#EB4335"/>
</svg>
