<svg xmlns="http://www.w3.org/2000/svg" width="43" height="43" fill="none"><path fill="#6747ED" d="M21.804 42.957c11.598 0 21-9.402 21-21s-9.402-21-21-21-21 9.402-21 21 9.402 21 21 21Z"/><path fill="#fff" fill-rule="evenodd" d="M21.498 24.67a5.583 5.583 0 0 1-5.6-5.6c0-3.107 2.493-5.6 5.6-5.6 3.106 0 5.6 2.493 5.6 5.6 0 3.106-2.494 5.6-5.6 5.6Zm0-14c4.637 0 8.4 3.762 8.4 8.4 0 4.637-3.763 8.4-8.4 8.4a8.402 8.402 0 0 1-8.4-8.4c0-4.638 3.762-8.4 8.4-8.4Zm8.006 17.237c.569.569.569 1.444 0 1.969l-5.6 5.6c-.569.569-1.444.569-1.969 0-.569-.569-.569-1.444 0-1.969l5.6-5.6a1.349 1.349 0 0 1 1.969 0Zm3.237-15.838c0 .788-.612 1.4-1.4 1.4-.787 0-1.4-.612-1.4-1.4 0-.787.613-1.4 1.4-1.4.744 0 1.4.613 1.4 1.4Z" clip-rule="evenodd"/></svg>