<svg width="42" height="42" fill="none" viewBox="0 0 42 42" xmlns="http://www.w3.org/2000/svg">
  <g clip-path="url(#a)">
    <circle cx="21" cy="21" r="21" fill="#072723"/>
    <path fill="#97FCE4" d="M36.166 20.726c0 10.028-6.137 13.246-9.37 10.38-2.662-2.335-3.454-7.272-7.457-7.78-5.081-.638-5.521 6.128-8.865 6.128-3.893 0-4.641-5.664-4.641-8.574 0-2.975.836-7.03 4.157-7.03 3.872 0 4.092 5.796 8.931 5.487 4.817-.33 4.905-6.37 8.029-8.948 2.727-2.226 9.216.176 9.216 10.337"/>
  </g>
  <defs>
    <clipPath id="a">
      <path fill="#fff" d="M0 0h42v42H0z"/>
    </clipPath>
  </defs>
</svg>
