<svg xmlns="http://www.w3.org/2000/svg" width="42" height="42" fill="none"><circle cx="21" cy="21" r="21" fill="#fff"/><g clip-path="url(#a)"><path fill="url(#b)" d="M29.378 13c-1.87 0-3.916 1.018-6.074 3.027a26.64 26.64 0 0 0-2.57 2.785s1.047 1.205 2.196 2.504c.626-.785 1.514-1.85 2.551-2.813 1.916-1.794 3.168-2.158 3.887-2.158 2.691 0 4.878 2.261 4.878 5.055 0 2.766-2.187 5.027-4.878 5.055-.13 0-.28-.019-.467-.056.785.364 1.635.626 2.43.626 4.933 0 5.905-3.41 5.96-3.653a8.95 8.95 0 0 0 .225-1.953C37.506 16.775 33.862 13 29.378 13z"/><path fill="url(#c)" d="M12.138 29.8c1.87 0 3.915-1.018 6.074-3.027a26.628 26.628 0 0 0 2.57-2.785s-1.047-1.205-2.197-2.504c-.626.785-1.513 1.85-2.55 2.813-1.916 1.775-3.177 2.158-3.887 2.158-2.691 0-4.878-2.261-4.878-5.055 0-2.766 2.187-5.027 4.878-5.055.13 0 .28.019.467.056-.785-.364-1.635-.626-2.43-.626-4.933-.01-5.905 3.401-5.96 3.653A8.934 8.934 0 0 0 4 21.381c0 4.644 3.644 8.419 8.138 8.419z"/><path fill="#29ABE2" fill-rule="evenodd" d="M15.895 18.578c-.542-.523-3.177-2.663-5.7-2.737-4.504-.113-5.821 3.158-5.943 3.578.87-3.663 4.084-6.4 7.896-6.419 3.111 0 6.26 3.055 8.587 5.812l.009-.01s1.047 1.206 2.196 2.505c0 0 1.308 1.541 2.69 2.896.543.523 3.168 2.635 5.691 2.71 4.625.13 5.905-3.327 5.97-3.588-.85 3.69-4.073 6.438-7.904 6.456-3.111 0-6.26-3.055-8.596-5.811 0 .009-.01.009-.01.018 0 0-1.046-1.205-2.195-2.504.009 0-1.3-1.551-2.691-2.906z" clip-rule="evenodd"/></g><defs><linearGradient id="b" x1="25.003" x2="36.522" y1="14.331" y2="25.945" gradientUnits="userSpaceOnUse"><stop offset=".21" stop-color="#F15A24"/><stop offset=".684" stop-color="#FBB03B"/></linearGradient><linearGradient id="c" x1="16.515" x2="4.997" y1="28.471" y2="16.857" gradientUnits="userSpaceOnUse"><stop offset=".21" stop-color="#ED1E79"/><stop offset=".893" stop-color="#522785"/></linearGradient><clipPath id="a"><path fill="#fff" d="M4 13h33.525v16.8H4z"/></clipPath></defs></svg>