<svg xmlns="http://www.w3.org/2000/svg" width="43" height="43" fill="none"><circle cx="21.65" cy="21.715" r="21" fill="#2D2D38"/><g clip-path="url(#a)"><mask id="b" width="31" height="25" x="6" y="9" maskUnits="userSpaceOnUse" style="mask-type:luminance"><path fill="#fff" d="M36.65 9.715h-30v24h30v-24Z"/></mask><g fill="#17B5CB" mask="url(#b)"><path d="M33.434 9.715h3.151L23.808 24.073a.985.985 0 0 0-.022 1.295l7.36 8.432h-3.28l-6.799-7.816-.345-.425c-.324-.36-.303-.934.021-1.295l12.69-14.549Z"/><path d="M26.333 25.368c-.216-.233-.28-.573-.216-.87.065-.17.173-.34.302-.468l.842-.913L36.65 33.8H33.67s-5.503-6.33-7.338-8.432ZM9.93 33.8H6.65l10.057-11.448a.957.957 0 0 0 0-1.274L6.736 9.715h3.151l10.036 11.448c.26.34.302.828.022 1.147C17.312 25.304 9.93 33.8 9.93 33.8ZM15.412 9.715h-3.021l9.302 10.598s.021-.021 1.057-1.232c.281-.318.346-.722.022-1.04-1.942-1.954-7.36-8.326-7.36-8.326ZM24.477 17.106l6.453-7.391h-3.064l-3.367 3.866-.972 1.125a.986.986 0 0 0-.021 1.296c.237.276.971 1.104.971 1.104ZM18.866 26.409 12.412 33.8h3.043l3.367-3.865.972-1.126a.986.986 0 0 0 .021-1.296l-.95-1.104Z"/></g></g><defs><clipPath id="a"><path fill="#fff" d="M6.65 9.715h30v24h-30z"/></clipPath></defs></svg>