<svg width="43" height="43" viewBox="0 0 43 43" fill="none" xmlns="http://www.w3.org/2000/svg">
<circle cx="21.6497" cy="21.715" r="21" fill="#2D2D38"/>
<g clip-path="url(#clip0_7926_3075)">
<mask id="mask0_7926_3075" style="mask-type:luminance" maskUnits="userSpaceOnUse" x="6" y="9" width="31" height="25">
<path d="M36.6497 9.71503H6.6497V33.715H36.6497V9.71503Z" fill="white"/>
</mask>
<g mask="url(#mask0_7926_3075)">
<path d="M33.4339 9.71503H36.585L23.808 24.0725C23.4842 24.4336 23.4627 24.9858 23.7864 25.3681L31.1461 33.8H27.8655L21.067 25.9841L20.7216 25.5593C20.3979 25.1982 20.4195 24.6248 20.7432 24.2637L33.4339 9.71503Z" fill="#17B5CB"/>
<path d="M26.3332 25.3681C26.1173 25.1345 26.0526 24.7947 26.1173 24.4974C26.1821 24.3274 26.29 24.1575 26.4195 24.0301L27.2612 23.1168L36.6497 33.8H33.6713C33.6713 33.8 28.1677 27.4708 26.3332 25.3681Z" fill="#17B5CB"/>
<path d="M9.93028 33.8H6.6497L16.7073 22.3522C17.031 21.9911 17.031 21.4389 16.7073 21.0779L6.73603 9.71503H9.88711L19.9231 21.1628C20.1821 21.5026 20.2252 21.9911 19.9447 22.3097C17.3116 25.3044 9.93028 33.8 9.93028 33.8Z" fill="#17B5CB"/>
<path d="M15.4123 9.71503H12.3907L21.6929 20.3133C21.6929 20.3133 21.7144 20.292 22.7504 19.0814C23.031 18.7628 23.0957 18.3593 22.772 18.0407C20.8296 16.0867 15.4123 9.71503 15.4123 9.71503Z" fill="#17B5CB"/>
<path d="M24.477 17.1062L30.9303 9.71503H27.8655L24.4986 13.5805L23.5274 14.7062C23.2037 15.0672 23.1821 15.6195 23.5058 16.0018C23.7432 16.2779 24.477 17.1062 24.477 17.1062Z" fill="#17B5CB"/>
<path d="M18.8655 26.4088L12.4123 33.8H15.4555L18.8224 29.9345L19.7936 28.8088C20.1173 28.4478 20.1389 27.8955 19.8152 27.5132C19.5778 27.2371 18.8655 26.4088 18.8655 26.4088Z" fill="#17B5CB"/>
</g>
</g>
<defs>
<clipPath id="clip0_7926_3075">
<rect width="30" height="24" fill="white" transform="translate(6.6497 9.71503)"/>
</clipPath>
</defs>
</svg>
