<svg xmlns="http://www.w3.org/2000/svg" width="42" height="42" fill="none"><circle cx="21" cy="21" r="21" fill="#F5F5FF"/><path fill="url(#a)" d="M6.462 8.655c.24-.297.491-.584.742-.872.01-.01.039-.019.048-.029.02-.028.058-.047.087-.076l.02-.029a7.72 7.72 0 0 1 .578-.498C8.71 6.576 9.5 6.136 10.34 5.84c2.7-.939 5.7-.364 8.053 1.848 3.289 3.056 2.99 7.988.367 11.263-3.318 4.885-9.009 11.694-1.129 17.795 1.418 1.102 2.47 2.002 6.935 3.285-2.923.537-5.633.364-8.642-.392-2.131-1.198-5.488-3.755-6.626-7.212-1.726-5.239 3.038-13.083 5.334-16.1 3.154-4.176-1.949-8.696-5.72-3.649C6.963 15.311 3.52 22.753 4.716 28.28c.694 3.132 1.63 5.411 5.324 8.552a16.785 16.785 0 0 1-1.997-1.37C-.53 27.523.463 15.245 6.462 8.656z"/><path fill="url(#b)" d="M35.685 33.728c-.24.297-.492.584-.742.872-.01.01-.039.019-.048.029-.02.028-.058.047-.087.076l-.02.029a5.92 5.92 0 0 1-.578.488c-.772.575-1.563 1.016-2.402 1.313-2.7.938-5.7.363-8.053-1.849-3.29-3.055-2.99-7.988-.367-11.263 3.318-4.884 9.009-11.694 1.129-17.795-1.418-1.101-2.47-2.001-6.935-3.285 2.922-.536 5.633-.364 8.642.393 2.131 1.197 5.488 3.754 6.626 7.212 1.726 5.239-3.038 13.082-5.334 16.1-3.154 4.175 1.949 8.695 5.72 3.648 1.967-2.634 5.41-10.075 4.214-15.601-.694-3.132-1.63-5.412-5.324-8.553.685.402 1.35.852 1.997 1.37 8.555 7.949 7.562 20.227 1.562 26.816z"/><defs><linearGradient id="a" x1="1.784" x2="40.363" y1="22.881" y2="22.881" gradientUnits="userSpaceOnUse"><stop stop-color="#0082FA"/><stop offset="1" stop-color="#00F2FE"/></linearGradient><linearGradient id="b" x1="1.784" x2="40.363" y1="19.502" y2="19.502" gradientUnits="userSpaceOnUse"><stop stop-color="#0082FA"/><stop offset="1" stop-color="#00F2FE"/></linearGradient></defs></svg>