<svg width="42" height="42" viewBox="0 0 42 42" fill="none" xmlns="http://www.w3.org/2000/svg">
<circle cx="21" cy="21" r="21" fill="#F5F5FF"/>
<path d="M6.46151 8.65476C6.70263 8.35786 6.9534 8.07054 7.20416 7.78322C7.21381 7.77364 7.24274 7.76406 7.25239 7.75449C7.27168 7.72576 7.31026 7.7066 7.33919 7.67787L7.35848 7.64914C7.53209 7.48632 7.72498 7.31393 7.93717 7.15111C8.70876 6.57647 9.49963 6.13591 10.3387 5.83901C13.0393 4.90043 16.0388 5.47507 18.3922 7.68745C21.681 10.7426 21.3821 15.675 18.7587 18.9504C15.4408 23.8349 9.7504 30.6444 17.6302 36.7452C19.048 37.8466 20.0993 38.7469 24.5648 40.0303C21.6425 40.5666 18.9323 40.3942 15.9231 39.6376C13.7916 38.4404 10.4352 35.8833 9.29709 32.4258C7.57067 27.187 12.3352 19.3431 14.6307 16.3262C17.7845 12.1505 12.6824 7.62998 8.9113 12.6773C6.96304 15.311 3.51984 22.7527 4.7158 28.2788C5.41023 31.4106 6.34577 33.69 10.0397 36.8314C9.35496 36.4292 8.68947 35.979 8.04326 35.4618C-0.530988 27.5222 0.46243 15.244 6.46151 8.65476Z" fill="url(#paint0_linear_7215_43012)"/>
<path d="M35.6854 33.7283C35.4442 34.0252 35.1935 34.3126 34.9427 34.5999C34.9331 34.6095 34.9041 34.619 34.8945 34.6286C34.8752 34.6573 34.8366 34.6765 34.8077 34.7052L34.7884 34.734C34.6148 34.8968 34.4219 35.0692 34.2097 35.2224C33.4381 35.7971 32.6472 36.2376 31.8081 36.5345C29.1076 37.4731 26.1081 36.8985 23.7547 34.6861C20.4658 31.6309 20.7648 26.6985 23.3882 23.4231C26.706 18.5386 32.3965 11.7291 24.5167 5.62831C23.0989 4.52691 22.0476 3.62663 17.582 2.34326C20.5044 1.80693 23.2146 1.97932 26.2238 2.73594C28.3553 3.93311 31.7117 6.49027 32.8498 9.9477C34.5762 15.1865 29.8117 23.0304 27.5162 26.0473C24.3623 30.223 29.4645 34.7435 33.2356 29.6963C35.2031 27.0625 38.6463 19.6209 37.4504 14.0947C36.7559 10.9629 35.8204 8.68349 32.1264 5.54211C32.8112 5.94436 33.4767 6.3945 34.1229 6.91167C42.6779 14.8609 41.6845 27.1391 35.6854 33.7283Z" fill="url(#paint1_linear_7215_43012)"/>
<defs>
<linearGradient id="paint0_linear_7215_43012" x1="1.78377" y1="22.8807" x2="40.3631" y2="22.8807" gradientUnits="userSpaceOnUse">
<stop stop-color="#0082FA"/>
<stop offset="1" stop-color="#00F2FE"/>
</linearGradient>
<linearGradient id="paint1_linear_7215_43012" x1="1.78381" y1="19.5024" x2="40.3631" y2="19.5024" gradientUnits="userSpaceOnUse">
<stop stop-color="#0082FA"/>
<stop offset="1" stop-color="#00F2FE"/>
</linearGradient>
</defs>
</svg>
