<svg xmlns="http://www.w3.org/2000/svg" width="42" height="42" fill="none"><circle cx="21" cy="21" r="21" fill="#06061B"/><path fill="#fff" d="M14.915 19.765h1.524c.184-.01.32-.014.408-.014.377 0 .74-.004 1.091-.013.35-.008.684-.057.999-.144.316-.088.613-.228.894-.421.28-.202.539-.49.776-.868H14.31c.105-.254.241-.534.407-.84a29.427 29.427 0 0 1 1.117-1.867h4.3c0-.114-.058-.246-.172-.395a1.912 1.912 0 0 0-.42-.42 2.394 2.394 0 0 0-.579-.342 1.34 1.34 0 0 0-.578-.145h-4.233c.07-.105.171-.25.303-.434.131-.192.276-.398.433-.617.158-.22.316-.443.474-.67.166-.237.315-.448.447-.632.14-.193.254-.346.341-.46.097-.123.15-.184.158-.184h10.53c.008.009-.018.088-.08.237-.061.149-.14.333-.236.552-.088.219-.189.46-.303.723a34.705 34.705 0 0 1-.552 1.262l-.105.223h-1.459c.018.053.044.14.079.263.044.114.088.241.131.381.044.14.084.272.119.395.035.122.057.21.065.262h3.444l-1.616 2.708h-1.71c-.148.701-.39 1.284-.722 1.749a4.439 4.439 0 0 1-1.183 1.143c-.456.29-.951.517-1.486.684-.526.158-1.06.28-1.603.368l5.363 7.388V30.7h-3.707l-6.362-8.478v-2.458z"/></svg>