<svg width="42" height="42" fill="none" xmlns="http://www.w3.org/2000/svg">
  <circle cx="21" cy="21" r="21" fill="#06061B"/>
  <path fill="#fff" d="M14.915 19.765h1.524q.276-.015.408-.014.565 0 1.091-.013t.999-.144q.473-.132.894-.421.42-.302.776-.868H14.31q.158-.381.407-.84a29 29 0 0 1 1.117-1.867h4.3q0-.171-.172-.395a1.9 1.9 0 0 0-.42-.42 2.4 2.4 0 0 0-.579-.342 1.34 1.34 0 0 0-.578-.145h-4.233q.105-.158.303-.434.197-.288.433-.617.237-.33.474-.67.249-.356.447-.632.21-.29.341-.46.146-.184.158-.184h10.53q.012.013-.08.237t-.236.552q-.132.329-.303.723a35 35 0 0 1-.552 1.262l-.105.223h-1.459q.027.079.079.263.066.171.131.381.066.21.119.395.053.183.065.262h3.444l-1.616 2.708h-1.71q-.223 1.051-.722 1.749a4.4 4.4 0 0 1-1.183 1.143q-.684.434-1.486.684-.789.236-1.603.368l5.363 7.388V30.7h-3.707l-6.362-8.478z"/>
</svg>
