<svg width="42" height="42" fill="none" xmlns="http://www.w3.org/2000/svg">
  <g fill-rule="evenodd" clip-path="url(#a)" clip-rule="evenodd">
    <path fill="#000" d="M20.1-.007h1.565q6.904.288 12.352 4.489 5.69 4.542 7.43 11.662.462 2.017.546 4.079v1.568q-.399 7.948-5.809 13.708-4.913 5.07-11.916 6.237-1.497.229-3.005.257h-.512q-7.157-.154-12.782-4.53-5.175-4.142-7.124-10.51a21.4 21.4 0 0 1-.852-5.19V20.21q.355-7.38 5.103-12.974Q9.504 2.193 16.029.555A21.6 21.6 0 0 1 20.1-.007" opacity=".998"/>
    <path fill="#FEFEFE" d="M20.515 3.184q5.8-.098 10.58 3.157 5.13 3.623 6.986 9.65 1.592 5.618-.374 11.114-2.168 5.695-7.29 8.97-4.962 3.052-10.788 2.678-5.79-.465-10.206-4.19-4.777-4.158-5.961-10.427-.93-5.385 1.232-10.393 2.461-5.407 7.624-8.332a17.9 17.9 0 0 1 8.197-2.227"/>
    <path fill="#000" d="M20.266 4.738q5.81-.202 10.455 3.254 4.491 3.492 5.948 9.026 1.272 5.154-.679 10.087-2.265 5.378-7.36 8.207-4.96 2.634-10.496 1.665-5.48-1.036-9.23-5.127-4.095-4.655-4.161-10.899.084-6.274 4.244-10.912 3.971-4.263 9.756-5.155a23 23 0 0 1 1.523-.146"/>
    <path fill="#FEFEFE" d="M24.739 10.857a2.8 2.8 0 0 1 1.606.479q.222.152.43.326l-.568.534a457 457 0 0 1-3.033 2.942 33 33 0 0 1-2.437 2.081q-1.625 1.113-3.566.729a6.1 6.1 0 0 1-2.001-.826q-.66-.446-1.26-.971a133 133 0 0 0-1.69-1.54 135 135 0 0 1 1.925-2.075q.514.636 1.004 1.29.382.494.852.91 1.463 1.157 3.212.499a3.3 3.3 0 0 0 .873-.541l.679-.625q1.246-1.242 2.478-2.497a2.7 2.7 0 0 1 1.191-.666 4 4 0 0 1 .305-.049m2.686 1.471a1 1 0 0 1 .173.153q.806.855 1.628 1.7-.76.6-1.482 1.248a4.35 4.35 0 0 0-1.115 1.603q-.432 1.302.25 2.497.262.446.609.833a283 283 0 0 0 2.368 2.359l.498.527q.317.324.554.707a2.01 2.01 0 0 1 .097 1.818q-.22.496-.602.874a861 861 0 0 0-2.95-2.851 64 64 0 0 1-2.209-2.269 5.13 5.13 0 0 1-1.246-3.108q-.119-2.323 1.399-4.065a26 26 0 0 1 1.6-1.589q.218-.216.428-.437m-15.661 3.08a1177 1177 0 0 1 3.358 3.414q.945 1.002 1.828 2.053 1.3 1.508 1.177 3.51a5.6 5.6 0 0 1-1.44 3.4q-.363.4-.735.79-.678.654-1.329 1.333a93 93 0 0 0-1.849-1.963 22 22 0 0 1 1.039-.791 5.9 5.9 0 0 0 1.35-1.45q.969-1.612-.027-3.206a5.4 5.4 0 0 0-.568-.735 128 128 0 0 1-2.728-2.747l-.471-.527q-.842-1.127-.152-2.36a3.8 3.8 0 0 1 .547-.72Zm11.798 8.644q2.457-.06 4.251 1.603.897.892 1.717 1.845l-.048.146-.665.805a5 5 0 0 1-.325.312q-.373.294-.776.042a6 6 0 0 1-.388-.292 33 33 0 0 1-.83-.79 5.6 5.6 0 0 0-1.288-.889q-1.57-.693-3.005.25a6.3 6.3 0 0 0-.873.694q-1.302 1.345-2.63 2.664-1.32 1.2-2.895.36a5 5 0 0 1-.554-.388q.89-.9 1.766-1.81 1.45-1.425 2.873-2.88a5.93 5.93 0 0 1 3.67-1.672"/>
  </g>
  <defs>
    <clipPath id="a">
      <path fill="#fff" d="M0 0h42v42H0z"/>
    </clipPath>
  </defs>
</svg>
