<svg xmlns="http://www.w3.org/2000/svg" width="42" height="42" fill="none"><g fill-rule="evenodd" clip-path="url(#a)" clip-rule="evenodd"><path fill="#000" d="M20.1-.007h1.565c4.603.192 8.72 1.688 12.352 4.489 3.794 3.028 6.27 6.915 7.43 11.662.308 1.345.49 2.704.546 4.079v1.568c-.266 5.299-2.202 9.868-5.809 13.708-3.275 3.38-7.247 5.458-11.916 6.237-.998.153-2 .238-3.005.257h-.512c-4.771-.103-9.032-1.613-12.782-4.53-3.45-2.761-5.825-6.265-7.124-10.51a21.414 21.414 0 0 1-.852-5.19V20.21C.23 15.29 1.93 10.965 5.096 7.236 8.035 3.874 11.679 1.647 16.029.555A21.58 21.58 0 0 1 20.1-.007Z" opacity=".998"/><path fill="#FEFEFE" d="M20.515 3.184c3.867-.066 7.393.987 10.58 3.157 3.42 2.415 5.748 5.632 6.986 9.65 1.061 3.746.937 7.45-.374 11.114-1.445 3.797-3.875 6.787-7.29 8.97-3.308 2.035-6.904 2.927-10.788 2.678-3.86-.31-7.263-1.706-10.206-4.19-3.185-2.772-5.172-6.248-5.961-10.427-.62-3.59-.209-7.054 1.232-10.393 1.641-3.605 4.182-6.382 7.624-8.332a17.89 17.89 0 0 1 8.197-2.227Z"/><path fill="#000" d="M20.266 4.738c3.874-.134 7.358.95 10.455 3.254 2.994 2.328 4.977 5.337 5.948 9.026.848 3.436.622 6.799-.679 10.087-1.51 3.585-3.963 6.321-7.36 8.207-3.306 1.756-6.805 2.311-10.496 1.665-3.654-.69-6.73-2.4-9.23-5.127-2.73-3.103-4.117-6.736-4.161-10.899.056-4.183 1.471-7.82 4.244-10.912 2.647-2.843 5.9-4.56 9.756-5.155a22.758 22.758 0 0 1 1.523-.146Z"/><path fill="#FEFEFE" d="M24.739 10.857a2.8 2.8 0 0 1 1.606.479c.148.102.291.21.43.326l-.568.534a456.68 456.68 0 0 1-3.033 2.942 32.52 32.52 0 0 1-2.437 2.081c-1.083.742-2.272.985-3.566.729a6.097 6.097 0 0 1-2.001-.826c-.44-.297-.86-.621-1.26-.971a133.364 133.364 0 0 0-1.69-1.54 135.16 135.16 0 0 1 1.925-2.075c.343.424.677.854 1.004 1.29.255.33.538.632.852.91.975.771 2.046.938 3.212.499a3.33 3.33 0 0 0 .873-.541l.679-.625c.83-.828 1.657-1.66 2.478-2.497a2.72 2.72 0 0 1 1.191-.666 3.7 3.7 0 0 1 .305-.049Zm2.686 1.471a.888.888 0 0 1 .173.153c.538.57 1.08 1.137 1.628 1.7-.507.4-1 .816-1.482 1.248a4.35 4.35 0 0 0-1.115 1.603c-.288.868-.205 1.7.25 2.497.175.297.378.575.609.833a283.08 283.08 0 0 0 2.368 2.359l.498.527c.211.216.396.452.554.707a2.01 2.01 0 0 1 .097 1.818c-.146.33-.347.622-.602.874a861.252 861.252 0 0 0-2.95-2.851 63.803 63.803 0 0 1-2.209-2.269 5.126 5.126 0 0 1-1.246-3.108c-.079-1.548.387-2.904 1.399-4.065a25.882 25.882 0 0 1 1.6-1.589c.145-.144.288-.29.428-.437Zm-15.661 3.08a1176.68 1176.68 0 0 1 3.358 3.414c.63.668 1.239 1.352 1.828 2.053.866 1.005 1.259 2.175 1.177 3.51a5.6 5.6 0 0 1-1.44 3.4c-.242.266-.487.53-.735.79-.452.436-.895.88-1.329 1.333a92.974 92.974 0 0 0-1.849-1.963 22.04 22.04 0 0 1 1.039-.791 5.926 5.926 0 0 0 1.35-1.45c.646-1.075.637-2.143-.027-3.206a5.44 5.44 0 0 0-.568-.735 127.539 127.539 0 0 1-2.728-2.747l-.471-.527c-.562-.752-.612-1.538-.152-2.36a3.78 3.78 0 0 1 .547-.72Zm11.798 8.644c1.638-.04 3.055.494 4.251 1.603.598.595 1.17 1.21 1.717 1.845a3.5 3.5 0 0 1-.048.146l-.665.805a5.307 5.307 0 0 1-.325.312c-.249.196-.507.21-.776.042a5.999 5.999 0 0 1-.388-.292 33.271 33.271 0 0 1-.83-.79 5.63 5.63 0 0 0-1.288-.889c-1.047-.462-2.049-.379-3.005.25a6.27 6.27 0 0 0-.873.694c-.867.897-1.745 1.785-2.63 2.664-.88.8-1.845.92-2.895.36a4.562 4.562 0 0 1-.554-.388c.594-.6 1.182-1.203 1.766-1.81.967-.95 1.925-1.91 2.873-2.88a5.925 5.925 0 0 1 3.67-1.672Z"/></g><defs><clipPath id="a"><path fill="#fff" d="M0 0h42v42H0z"/></clipPath></defs></svg>