<svg width="42" height="42" viewBox="0 0 42 42" fill="none" xmlns="http://www.w3.org/2000/svg"><circle cx="21" cy="21" r="21" fill="#31CB9E"/><path fill-rule="evenodd" clip-rule="evenodd" d="M22.704 5.868l7.792 5.724a.575.575 0 01-.069.98l-11.544 6.375 2.845-12.751a.62.62 0 01.976-.328zm8.034 21.658l-11.399-6.521 11.399-6.526a.598.598 0 01.912.515v12.013a.6.6 0 01-.912.519zm-8.043 8.611l7.8-5.724a.584.584 0 00-.063-.993l-11.549-6.375 2.845 12.75a.614.614 0 00.967.351v-.009zM19.339 6.925l-2.964 13.843 2.927 13.853a.586.586 0 01-.584.7.588.588 0 01-.327-.104l-7.555-5.797a1.571 1.571 0 01-.616-1.27V13.396a1.569 1.569 0 01.616-1.253l7.591-5.815a.589.589 0 01.912.597z" fill="#fff"/></svg>