<svg width="42" height="42" viewBox="0 0 42 42" fill="none" xmlns="http://www.w3.org/2000/svg">
<circle cx="21" cy="21" r="21" fill="#06061B"/>
<path d="M31.6964 21.5526H28.8203L27.752 30.5643H23.6981L22.3559 21.5526H20.0003L18.5211 30.5643H14.3851L13.2894 21.5526H10.3859V19.0873H12.9881L12.0842 11.5273H15.3438L15.9738 19.0873H18.2198L19.4798 11.7191H23.1229L24.3007 19.0873H26.4372L27.0946 11.5273H29.9981L29.0942 19.0873H31.6964V21.5526ZM21.9998 19.0873L21.2329 13.9652L20.3838 19.0873H21.9998ZM17.809 21.5526H16.1929L16.7407 27.9347L17.809 21.5526ZM26.2181 21.5526H24.6842L25.6703 27.88L26.2181 21.5526Z" fill="white"/>
</svg>
