<svg xmlns="http://www.w3.org/2000/svg" width="42" height="42" fill="none"><g clip-path="url(#a)"><mask id="b" width="42" height="42" x="0" y="0" maskUnits="userSpaceOnUse" style="mask-type:luminance"><path fill="#fff" d="M21 0c11.592 0 21 9.408 21 21s-9.408 21-21 21S0 32.592 0 21 9.408 0 21 0z"/></mask><g mask="url(#b)"><path stroke="#000" stroke-miterlimit="22.926" d="m0 0 42 42m0-42L0 42"/></g><path fill="url(#c)" d="M21 0c11.592 0 21 9.408 21 21s-9.408 21-21 21S0 32.592 0 21 9.408 0 21 0z"/><mask id="d" width="24" height="18" x="9" y="19" maskUnits="userSpaceOnUse" style="mask-type:luminance"><path fill="#fff" d="m20.983 24.73-9.357-5.343-.252.387C8.5 24.192 9.139 29.97 12.919 33.684c4.452 4.368 11.676 4.368 16.128 0 3.78-3.713 4.419-9.492 1.546-13.91l-.252-.387-9.358 5.343z"/></mask><g mask="url(#d)"><path fill="url(#e)" d="M20.983 37.296c6.3 0 11.407-5.107 11.407-11.407s-5.107-11.407-11.407-11.407S9.576 19.589 9.576 25.889s5.107 11.407 11.407 11.407z"/></g><path fill="url(#f)" d="m20.983 12.802-8.064 4.603 8.064 4.603 8.064-4.603-8.064-4.604z"/><path fill="url(#g)" d="m21 13.994-9.374 5.393 9.358 5.343 9.34-5.343L21 13.994z"/><path fill="url(#h)" d="M20.983 5.04 12.92 17.405l8.064 4.603V5.04z"/><path fill="url(#i)" d="m20.983 22.008 8.064-4.603L20.983 5.04v16.968z"/></g><defs><radialGradient id="e" cx="0" cy="0" r="1" gradientTransform="rotate(-90.466 27.95 7.217) scale(15.2338 18.1577)" gradientUnits="userSpaceOnUse"><stop stop-color="#C5C6AB"/><stop offset="1" stop-color="#7985AB"/></radialGradient><radialGradient id="f" cx="0" cy="0" r="1" gradientTransform="translate(20.983 17.405) scale(.4032)" gradientUnits="userSpaceOnUse"><stop stop-color="#06F" stop-opacity="0"/><stop offset="1" stop-color="#00C2FF" stop-opacity=".4"/></radialGradient><radialGradient id="g" cx="0" cy="0" r="1" gradientTransform="translate(20.975 19.362) scale(.47053)" gradientUnits="userSpaceOnUse"><stop stop-color="#AEE6F9" stop-opacity=".859"/><stop offset="1" stop-color="#C8D6DC"/></radialGradient><linearGradient id="c" x1="21" x2="21" y1="0" y2="42" gradientUnits="userSpaceOnUse"><stop stop-color="#F89791"/><stop offset="1" stop-color="#F7C882"/></linearGradient><linearGradient id="h" x1="16.951" x2="16.951" y1="4.2" y2="21" gradientUnits="userSpaceOnUse"><stop stop-color="#77D4FF"/><stop offset="1" stop-color="#93D6F2" stop-opacity=".898"/></linearGradient><linearGradient id="i" x1="25.015" x2="25.015" y1="4.2" y2="21" gradientUnits="userSpaceOnUse"><stop stop-color="#506AAC"/><stop offset="1" stop-color="#96CFEF" stop-opacity=".82"/></linearGradient><clipPath id="a"><rect width="42" height="42" fill="#fff" rx="21"/></clipPath></defs></svg>