<svg width="42" height="42" viewBox="0 0 42 42" fill="none" xmlns="http://www.w3.org/2000/svg">
<g clip-path="url(#clip0_7267_35591)">
<mask id="mask0_7267_35591" style="mask-type:luminance" maskUnits="userSpaceOnUse" x="0" y="0" width="42" height="42">
<path d="M21 0C32.592 0 42 9.408 42 21C42 32.592 32.592 42 21 42C9.408 42 0 32.592 0 21C0 9.408 9.408 0 21 0Z" fill="white"/>
</mask>
<g mask="url(#mask0_7267_35591)">
<path d="M0 0L42 42M42 0L0 42" stroke="black" stroke-miterlimit="22.9256"/>
</g>
<path d="M21 0C32.592 0 42 9.408 42 21C42 32.592 32.592 42 21 42C9.408 42 0 32.592 0 21C0 9.408 9.408 0 21 0Z" fill="url(#paint0_linear_7267_35591)"/>
<mask id="mask1_7267_35591" style="mask-type:luminance" maskUnits="userSpaceOnUse" x="9" y="19" width="24" height="18">
<path d="M20.9833 24.7296L11.6257 19.3872L11.3737 19.7736C8.50093 24.192 9.13933 29.9712 12.9193 33.684C17.3713 38.052 24.5953 38.052 29.0473 33.684C32.8273 29.9712 33.4657 24.192 30.5929 19.7736L30.3409 19.3872L20.9833 24.7296Z" fill="white"/>
</mask>
<g mask="url(#mask1_7267_35591)">
<path d="M20.9831 37.296C27.2831 37.296 32.3903 32.1888 32.3903 25.8888C32.3903 19.5888 27.2831 14.4816 20.9831 14.4816C14.6831 14.4816 9.57593 19.5888 9.57593 25.8888C9.57593 32.1888 14.6831 37.296 20.9831 37.296Z" fill="url(#paint1_radial_7267_35591)"/>
</g>
<path d="M20.9832 12.8016L12.9192 17.4048L20.9832 22.008L29.0472 17.4048L20.9832 12.8016Z" fill="url(#paint2_radial_7267_35591)"/>
<path d="M21.0004 13.9944L11.626 19.3872L20.9836 24.7296L30.3244 19.3872L21.0004 13.9944Z" fill="url(#paint3_radial_7267_35591)"/>
<path d="M20.9832 5.04001L12.9192 17.4048L20.9832 22.008V5.04001Z" fill="url(#paint4_linear_7267_35591)"/>
<path d="M20.9832 22.008L29.0472 17.4048L20.9832 5.04001V22.008Z" fill="url(#paint5_linear_7267_35591)"/>
</g>
<defs>
<linearGradient id="paint0_linear_7267_35591" x1="21" y1="0" x2="21" y2="42" gradientUnits="userSpaceOnUse">
<stop stop-color="#F89791"/>
<stop offset="1" stop-color="#F7C882"/>
</linearGradient>
<radialGradient id="paint1_radial_7267_35591" cx="0" cy="0" r="1" gradientUnits="userSpaceOnUse" gradientTransform="translate(20.9616 35.2256) rotate(-90.4664) scale(15.2338 18.1577)">
<stop stop-color="#C5C6AB"/>
<stop offset="1" stop-color="#7985AB"/>
</radialGradient>
<radialGradient id="paint2_radial_7267_35591" cx="0" cy="0" r="1" gradientUnits="userSpaceOnUse" gradientTransform="translate(20.9832 17.4048) scale(0.4032)">
<stop stop-color="#0066FF" stop-opacity="0"/>
<stop offset="1" stop-color="#00C2FF" stop-opacity="0.4"/>
</radialGradient>
<radialGradient id="paint3_radial_7267_35591" cx="0" cy="0" r="1" gradientUnits="userSpaceOnUse" gradientTransform="translate(20.9752 19.362) scale(0.470534)">
<stop stop-color="#AEE6F9" stop-opacity="0.8588"/>
<stop offset="1" stop-color="#C8D6DC"/>
</radialGradient>
<linearGradient id="paint4_linear_7267_35591" x1="16.9512" y1="4.20001" x2="16.9512" y2="21" gradientUnits="userSpaceOnUse">
<stop stop-color="#77D4FF"/>
<stop offset="1" stop-color="#93D6F2" stop-opacity="0.898"/>
</linearGradient>
<linearGradient id="paint5_linear_7267_35591" x1="25.0152" y1="4.20001" x2="25.0152" y2="21" gradientUnits="userSpaceOnUse">
<stop stop-color="#506AAC"/>
<stop offset="1" stop-color="#96CFEF" stop-opacity="0.8196"/>
</linearGradient>
<clipPath id="clip0_7267_35591">
<rect width="42" height="42" rx="21" fill="white"/>
</clipPath>
</defs>
</svg>
