<svg width="42" height="42" viewBox="0 0 42 42" fill="none" xmlns="http://www.w3.org/2000/svg">
<g clip-path="url(#clip0_7277_55643)">
<path d="M21 42C32.598 42 42 32.598 42 21C42 9.40202 32.598 0 21 0C9.40202 0 0 9.40202 0 21C0 32.598 9.40202 42 21 42Z" fill="#2A5ADA"/>
<g clip-path="url(#clip1_7277_55643)">
<path d="M21 6.74097L23.5926 8.23171L30.6574 12.315L33.25 13.8058V27.9354L30.6574 29.4262L23.5278 33.5095L20.9352 35.0002L18.3426 33.5095L11.3426 29.4262L8.74998 27.9354V13.8058L11.3426 12.315L18.4074 8.23171L21 6.74097V6.74097ZM28.0648 24.9539V16.7873L21 12.7039L13.9352 16.7873V24.9539L21 29.0373L28.0648 24.9539Z" fill="white"/>
</g>
</g>
<defs>
<clipPath id="clip0_7277_55643">
<rect width="42" height="42" fill="white"/>
</clipPath>
<clipPath id="clip1_7277_55643">
<rect width="24.5" height="28.2593" fill="white" transform="matrix(-1 0 0 1 33.25 6.74097)"/>
</clipPath>
</defs>
</svg>
