<svg xmlns="http://www.w3.org/2000/svg" width="42" height="42" fill="none"><g clip-path="url(#a)"><path fill="#2A5ADA" d="M21 42c11.598 0 21-9.402 21-21S32.598 0 21 0 0 9.402 0 21s9.402 21 21 21z"/><g clip-path="url(#b)"><path fill="#fff" d="m21 6.741 2.593 1.49 7.064 4.084 2.593 1.49v14.13l-2.593 1.491-7.13 4.084L20.936 35l-2.592-1.49-7-4.084-2.593-1.49v-14.13l2.593-1.491 7.064-4.083L21 6.74zm7.065 18.213v-8.167L21 12.704l-7.065 4.083v8.167L21 29.037l7.065-4.083z"/></g></g><defs><clipPath id="a"><path fill="#fff" d="M0 0h42v42H0z"/></clipPath><clipPath id="b"><path fill="#fff" d="M33.25 6.741H8.75V35h24.5z"/></clipPath></defs></svg>