<svg xmlns="http://www.w3.org/2000/svg" width="42" height="42" fill="none"><g clip-path="url(#a)"><g clip-path="url(#b)"><mask id="c" width="42" height="42" x="0" y="0" maskUnits="userSpaceOnUse" style="mask-type:luminance"><path fill="#fff" d="M42 0H0v42h42V0z"/></mask><g mask="url(#c)"><path fill="#745DDF" d="M41.16 27.015a20.987 20.987 0 0 1-16.414 14.8v-5.98a10.014 10.014 0 0 0 3.73-2.504 9.698 9.698 0 0 0 1.462-2.05 9.849 9.849 0 0 0 1.142-4.569v-.05c0-5.275-3.814-7.392-7.392-8.955l-1.814-.806c-1.932-.874-3.41-1.646-3.41-2.957 0-1.831 1.595-2.805 3.09-2.805 1.596 0 2.504.588 3.461 2.25l.74 1.294 4.787-3.074-.621-1.16a9.344 9.344 0 0 0-5.175-4.468V.504c.47.084.924.185 1.395.303.05.016.1.016.151.033.05.017.1.017.151.034.017 0 .034 0 .05.017.118.033.253.067.387.1a20.987 20.987 0 0 1 15.137 20.16c0 1.983-.286 3.965-.84 5.864h-.017z"/><path fill="#2EB6EA" d="M25.2 26.947c0 2.403-2.167 3.898-4.183 3.898-2.42 0-3.797-2-4.066-3.847l-.235-1.613-5.796 1.63.269 1.293c.823 4.083 3.612 7.023 7.409 7.896v5.78a20.68 20.68 0 0 1-3.041-.589c-.135-.033-.286-.067-.42-.117C6.182 38.674 0 30.458 0 21.118V.94C0 .487.37.118.823.118h17.775v5.779a8.576 8.576 0 0 0-4.956 3.83 8.033 8.033 0 0 0-1.076 4.015v.17c.05 4.704 3.512 6.686 6.788 8.164l1.63.706.134.067c2.587 1.193 4.048 1.966 4.048 4.082l.034.017z"/><path fill="#fff" d="M31.063 26.662v.05a9.649 9.649 0 0 1-1.142 4.57 9.288 9.288 0 0 1-1.462 2.05 10.014 10.014 0 0 1-3.73 2.503v5.997l-1.68.151s-3.595.101-4.451 0l-.017-5.762c-3.78-.89-6.569-3.814-7.409-7.896l-.269-1.294 5.796-1.63.235 1.614c.27 1.848 1.647 3.847 4.066 3.847 2.016 0 4.183-1.495 4.183-3.898 0-2.117-1.461-2.89-4.065-4.082l-.135-.067-1.63-.706c-3.275-1.478-6.736-3.444-6.787-8.165v-.167c0-1.412.37-2.79 1.076-4.016a8.444 8.444 0 0 1 4.956-3.83V.15c3.78-.033 4.082-.016 6.148.353v5.494a9.226 9.226 0 0 1 5.175 4.469l.621 1.159-4.788 3.074-.739-1.293c-.957-1.664-1.865-2.252-3.46-2.252-1.513 0-3.092.975-3.092 2.806 0 1.327 1.479 2.1 3.41 2.957l1.815.806c3.578 1.563 7.392 3.68 7.392 8.955l-.017-.017z"/></g></g></g><defs><clipPath id="a"><path fill="#fff" d="M0 0h42v42H0z"/></clipPath><clipPath id="b"><rect width="42" height="42" fill="#fff" rx="21"/></clipPath></defs></svg>