<svg xmlns="http://www.w3.org/2000/svg" width="42" height="42" fill="none"><g clip-path="url(#a)"><path fill="url(#b)" d="M21 42c11.558 0 21-9.458 21-21C42 9.442 32.542 0 21 0 9.442 0 0 9.458 0 21c0 11.558 9.458 21 21 21z"/><path fill="#fff" d="m27.082 25.536 5.947-3.427c.319-.185.504-.521.504-.89v-6.855c0-.37-.202-.706-.504-.89l-5.947-3.428a1.017 1.017 0 0 0-1.025 0l-5.947 3.428c-.32.184-.504.52-.504.89v12.264l-4.167 2.402-4.166-2.402v-4.805l4.166-2.402L18.194 21v-3.226l-2.234-1.293a1.077 1.077 0 0 0-.504-.135c-.185 0-.353.05-.504.135l-5.947 3.427c-.32.185-.504.52-.504.89v6.855c0 .37.201.705.504.89l5.947 3.427c.32.185.706.185 1.025 0l5.947-3.427c.32-.185.504-.52.504-.89V15.389l.067-.05 4.1-2.37 4.166 2.403v4.805l-4.167 2.402L23.856 21v3.227l2.234 1.293c.32.185.706.185 1.025 0l-.033.017z"/></g><defs><linearGradient id="b" x1="-7.682" x2="35.629" y1="3.411" y2="29.971" gradientUnits="userSpaceOnUse"><stop stop-color="#A229C5"/><stop offset="1" stop-color="#7B3FE4"/></linearGradient><clipPath id="a"><path fill="#fff" d="M0 0h42v42H0z"/></clipPath></defs></svg>