<svg width="42" height="42" fill="none" viewBox="0 0 42 42" xmlns="http://www.w3.org/2000/svg">
  <g clip-path="url(#a)">
    <circle cx="21" cy="21" r="20" fill="#DFD9D9"/>
    <mask id="b" width="42" height="42" x="0" y="0" maskUnits="userSpaceOnUse" style="mask-type:luminance">
      <path fill="#fff" d="M42 0H0v42h42z"/>
    </mask>
    <g fill="#19191A" mask="url(#b)">
      <path d="M25.103 32.653a2.327 2.327 0 0 0 2.332-2.325 2.327 2.327 0 0 0-4.654 0 2.325 2.325 0 0 0 2.322 2.325m-8.359.069a2.32 2.32 0 0 0 2.321-2.325 2.32 2.32 0 0 0-2.321-2.325 2.325 2.325 0 0 0 0 4.65"/>
      <path d="M11.659 8.432h5.54c1.041 2.82 3.761 10.809 3.96 11.254.05-.223 2.79-8.93 3.564-11.205h5.757v19.862c-.715-.395-1.43-.791-2.204-1.236-.536-.273-1.032-.57-1.578-.792-.05-3.859-.1-7.693-.218-11.7-.775 2.3-3.445 10.414-3.663 10.636h-3.564s-3.465-9.844-3.633-10.29c-.05 3.785-.1 7.57-.229 11.478q-3.186 1.632-3.782 1.855V8.432z"/>
      <path d="M21.005 3.34c9.718 0 17.66 7.914 17.66 17.66s-7.912 17.66-17.66 17.66S3.345 30.747 3.345 21s7.912-17.66 17.66-17.66m0-3.34C9.401 0 0 9.4 0 21s9.4 21 21.005 21C32.599 42 42 32.6 42 21S32.6 0 21.005 0"/>
    </g>
  </g>
  <defs>
    <clipPath id="a">
      <path fill="#fff" d="M0 0h42v42H0z"/>
    </clipPath>
  </defs>
</svg>
