<svg width="42" height="42" fill="none" viewBox="0 0 42 42" xmlns="http://www.w3.org/2000/svg">
  <g clip-path="url(#a)">
    <path fill="#00EC97" d="M0 21c0 11.598 9.402 21 21 21s21-9.402 21-21S32.598 0 21 0 0 9.402 0 21"/>
    <path fill="#000" d="M30.078 9.465a2.46 2.46 0 0 0-2.096 1.171l-4.822 7.16a.513.513 0 0 0 .761.673l4.747-4.117a.192.192 0 0 1 .32.146v12.89a.192.192 0 0 1-.34.123L14.3 10.335a2.46 2.46 0 0 0-1.876-.87h-.502a2.46 2.46 0 0 0-2.457 2.457v18.156a2.458 2.458 0 0 0 4.553 1.286l4.822-7.16a.513.513 0 0 0-.76-.673l-4.748 4.117a.192.192 0 0 1-.32-.145V14.609a.192.192 0 0 1 .34-.123l14.347 17.179c.467.552 1.154.87 1.876.87h.501a2.46 2.46 0 0 0 2.46-2.456V11.922c0-1.357-1.1-2.457-2.458-2.457"/>
  </g>
  <defs>
    <clipPath id="a">
      <rect width="42" height="42" fill="#fff" rx="21"/>
    </clipPath>
  </defs>
</svg>
