<svg xmlns="http://www.w3.org/2000/svg" width="42" height="42" fill="none"><circle cx="21" cy="21" r="21" fill="#000"/><path fill="#B1060F" fill-rule="evenodd" stroke="#000" stroke-width=".082" d="m23.178 7.322-.01 6.054-.011 6.053-.498-1.405-.001-.003-.644 13.477c.633 1.786.972 2.74.976 2.744.005.005.365.027.801.049 1.32.065 2.956.205 4.197.36.288.035.535.054.55.04.015-.013.023-6.177.018-13.696l-.01-13.673h-5.368zm-9.711-.018V20.99c0 7.528.008 13.694.017 13.703.009.01.475-.035 1.036-.098.56-.063 1.335-.14 1.722-.173.592-.05 2.362-.164 2.567-.165.06 0 .063-.308.072-5.797l.01-5.797.427 1.212.152.428.643-13.473-.221-.625-.991-2.802-.036-.099h-5.398z" clip-rule="evenodd"/><path fill="url(#a)" fill-rule="evenodd" d="M13.467 7.304v7.683l5.412 14.356.002-.883.01-5.797.427 1.212a3414.04 3414.04 0 0 0 3.672 10.367c.005.005.365.027.801.048a62.18 62.18 0 0 1 4.197.36c.288.036.535.055.55.041.01-.009.017-3.031.018-7.294L23.17 11.91l-.003 1.466-.01 6.053-.498-1.405A13263.617 13263.617 0 0 1 18.9 7.404l-.036-.1h-5.398z" clip-rule="evenodd"/><path fill="#E50914" fill-rule="evenodd" d="M13.467 7.304 18.89 22.67v-.007l.428 1.212a3366.32 3366.32 0 0 0 3.672 10.367c.005.005.365.027.8.048 1.321.066 2.957.206 4.198.36.286.036.532.054.55.041l-5.381-15.265v.003l-.498-1.405A11741.436 11741.436 0 0 1 18.9 7.404l-.036-.1h-5.398z" clip-rule="evenodd"/><path fill="#B1060F" fill-rule="evenodd" stroke="#000" stroke-width=".082" d="m23.178 7.322-.01 6.054-.011 6.053-.498-1.405-.001-.003-.644 13.477c.633 1.786.972 2.74.976 2.744.005.005.365.027.801.049 1.32.065 2.956.205 4.197.36.288.035.535.054.55.04.015-.013.023-6.177.018-13.696l-.01-13.673h-5.368zm-9.711-.018V20.99c0 7.528.008 13.694.017 13.703.009.01.475-.035 1.036-.098.56-.063 1.335-.14 1.722-.173.592-.05 2.362-.164 2.567-.165.06 0 .063-.308.072-5.797l.01-5.797.427 1.212.152.428.643-13.473-.221-.625-.991-2.802-.036-.099h-5.398z" clip-rule="evenodd"/><path fill="url(#b)" fill-rule="evenodd" d="M13.467 7.304v7.683l5.412 14.356.002-.883.01-5.797.427 1.212a3414.04 3414.04 0 0 0 3.672 10.367c.005.005.365.027.801.048a62.18 62.18 0 0 1 4.197.36c.288.036.535.055.55.041.01-.009.017-3.031.018-7.294L23.17 11.91l-.003 1.466-.01 6.053-.498-1.405A13263.617 13263.617 0 0 1 18.9 7.404l-.036-.1h-5.398z" clip-rule="evenodd"/><path fill="#E50914" fill-rule="evenodd" d="M13.467 7.304 18.89 22.67v-.007l.428 1.212a3366.32 3366.32 0 0 0 3.672 10.367c.005.005.365.027.8.048 1.321.066 2.957.206 4.198.36.286.036.532.054.55.041l-5.381-15.265v.003l-.498-1.405A11741.436 11741.436 0 0 1 18.9 7.404l-.036-.1h-5.398z" clip-rule="evenodd"/><defs><radialGradient id="a" cx="0" cy="0" r="1" gradientTransform="matrix(3.2318 -1.11898 40.98744 118.37802 20.761 20.84)" gradientUnits="userSpaceOnUse"><stop/><stop offset="1" stop-opacity="0"/></radialGradient><radialGradient id="b" cx="0" cy="0" r="1" gradientTransform="matrix(3.2318 -1.11898 40.98744 118.37802 20.761 20.84)" gradientUnits="userSpaceOnUse"><stop/><stop offset="1" stop-opacity="0"/></radialGradient></defs></svg>