<svg xmlns="http://www.w3.org/2000/svg" width="43" height="42" fill="none"><path fill="#fff" d="M42.6 21c0 11.598-9.402 21-21 21S.6 32.598.6 21s9.402-21 21-21 21 9.402 21 21z"/><path fill="#06061B" d="M42.6 21c0 11.598-9.402 21-21 21S.6 32.598.6 21s9.402-21 21-21 21 9.402 21 21z"/><path fill="#fff" d="M18.55 30.99c.048.04.008.116-.052.095a4.905 4.905 0 0 1-3.332-4.648c0-.522.377-1.532.624-2.137.026-.064.12-.034.109.033a5.6 5.6 0 0 0-.095.803c0 2.334 1.07 4.44 2.746 5.853zm10.683-5.023c0-3.943-5.699-9.662-7.381-17.647-.056-.263-.553-.263-.608 0-1.683 7.985-7.381 13.703-7.381 17.647 0 4.235 3.44 7.668 7.685 7.668 4.245 0 7.685-3.433 7.685-7.668z"/></svg>