<svg xmlns="http://www.w3.org/2000/svg" width="42" height="42" fill="none"><circle cx="21" cy="21" r="21" fill="url(#a)"/><g clip-path="url(#b)"><path fill="#fff" d="M29.02 7a6.053 6.053 0 0 0-6.058 6.038v6.695c-.625.042-1.262.068-1.924.068-.661 0-1.296.027-1.923.064v-6.827a6.058 6.058 0 0 0-12.115 0v16a6.058 6.058 0 0 0 12.115 0v-6.694a28.441 28.441 0 0 1 1.923-.069c.662 0 1.296-.026 1.924-.064v6.827a6.058 6.058 0 0 0 12.114 0v-16A6.053 6.053 0 0 0 29.02 7zM13.057 9.474a3.574 3.574 0 0 1 3.575 3.564v7.09a20.376 20.376 0 0 0-5.148 1.455 9.36 9.36 0 0 0-1.996 1.191v-9.736a3.574 3.574 0 0 1 3.569-3.564zm3.575 19.564a3.575 3.575 0 0 1-7.15 0v-1.605c0-1.418 1.123-2.76 3.005-3.596a17.627 17.627 0 0 1 4.145-1.212v6.413zm12.388 3.565a3.573 3.573 0 0 1-3.575-3.565V21.95a20.376 20.376 0 0 0 5.147-1.455 9.354 9.354 0 0 0 1.997-1.192v9.736a3.573 3.573 0 0 1-3.57 3.565zm.569-14.372a17.598 17.598 0 0 1-4.144 1.211v-6.404a3.575 3.575 0 1 1 7.15 0v1.605c0 1.412-1.123 2.755-3.006 3.588z"/></g><defs><linearGradient id="a" x1="2.66" x2="39.201" y1="38.871" y2="2.331" gradientUnits="userSpaceOnUse"><stop stop-color="#00AEE9"/><stop offset="1" stop-color="#69FABD"/></linearGradient><clipPath id="b"><path fill="#fff" d="M7 7h28.076v28H7z"/></clipPath></defs></svg>