<svg xmlns="http://www.w3.org/2000/svg" width="42" height="42" fill="none"><path fill="#FF0420" d="M21 42c11.598 0 21-9.402 21-21S32.598 0 21 0 0 9.402 0 21s9.402 21 21 21z"/><path fill="#fff" d="M15.23 26.88c-1.266 0-2.304-.305-3.113-.915-.798-.62-1.197-1.502-1.197-2.646 0-.24.027-.533.08-.882a55.29 55.29 0 0 1 .59-2.825c.724-2.995 2.592-4.492 5.605-4.492.82 0 1.554.142 2.203.425.65.272 1.16.686 1.532 1.241.373.545.56 1.198.56 1.96 0 .229-.027.517-.08.866a38.22 38.22 0 0 1-.575 2.825c-.373 1.492-1.017 2.608-1.932 3.349-.915.73-2.14 1.094-3.672 1.094zm.224-2.352c.596 0 1.102-.18 1.517-.539.426-.36.73-.91.91-1.65.245-1.023.431-1.916.559-2.678.042-.229.064-.463.064-.703 0-.99-.506-1.486-1.517-1.486-.596 0-1.107.18-1.533.54-.415.358-.713.908-.894 1.649-.192.73-.383 1.622-.575 2.678a3.568 3.568 0 0 0-.063.686c0 1.002.51 1.503 1.532 1.503zm6.769 2.189a.335.335 0 0 1-.272-.115.4.4 0 0 1-.048-.294l2.204-10.616a.469.469 0 0 1 .175-.294.48.48 0 0 1 .303-.115h4.247c1.182 0 2.13.25 2.842.752.724.5 1.086 1.225 1.086 2.172 0 .272-.032.555-.096.85-.266 1.252-.803 2.177-1.612 2.776-.799.599-1.895.898-3.29.898h-2.155l-.734 3.577a.47.47 0 0 1-.176.294.48.48 0 0 1-.303.115h-2.171zm5.651-6.24c.447 0 .836-.125 1.166-.375.34-.25.564-.61.67-1.078.032-.186.048-.349.048-.49 0-.316-.09-.556-.271-.72-.181-.173-.49-.26-.926-.26h-1.916l-.607 2.923h1.836z"/></svg>