<svg width="42" height="42" fill="none" xmlns="http://www.w3.org/2000/svg">
  <path fill="#FF0420" d="M21 42c11.598 0 21-9.402 21-21S32.598 0 21 0 0 9.402 0 21s9.402 21 21 21"/>
  <path fill="#fff" d="M15.23 26.88q-1.9 0-3.113-.915-1.197-.93-1.197-2.646 0-.36.08-.882a55 55 0 0 1 .59-2.825q1.086-4.492 5.605-4.492 1.23 0 2.203.425.974.408 1.532 1.241.56.817.56 1.96 0 .343-.08.866a38 38 0 0 1-.575 2.825q-.56 2.238-1.932 3.349-1.373 1.095-3.672 1.094zm.224-2.352q.894 0 1.517-.539.64-.54.91-1.65.367-1.535.559-2.678.064-.343.064-.703 0-1.485-1.517-1.486-.894 0-1.533.54-.622.537-.894 1.649-.288 1.095-.575 2.678a3.6 3.6 0 0 0-.063.686q0 1.503 1.532 1.503m6.769 2.189a.34.34 0 0 1-.272-.115.4.4 0 0 1-.048-.294l2.204-10.616a.47.47 0 0 1 .175-.294.48.48 0 0 1 .303-.115h4.247q1.773 0 2.842.752 1.086.75 1.086 2.172 0 .408-.096.85-.399 1.878-1.612 2.776-1.198.898-3.29.898h-2.155l-.734 3.577a.47.47 0 0 1-.176.294.48.48 0 0 1-.303.115zm5.651-6.24q.67 0 1.166-.375.51-.375.67-1.078.048-.279.048-.49 0-.474-.271-.72-.272-.26-.926-.26h-1.916l-.607 2.923z"/>
</svg>
