<svg xmlns="http://www.w3.org/2000/svg" width="42" height="42" fill="none"><path fill="#000" fill-rule="evenodd" d="M20.099-.007h1.565c4.603.192 8.72 1.688 12.352 4.489 3.794 3.028 6.27 6.915 7.43 11.662.308 1.345.49 2.704.546 4.079v1.568c-.266 5.299-2.202 9.868-5.809 13.708-3.275 3.38-7.247 5.458-11.916 6.237-.998.153-2 .238-3.005.257h-.512c-4.771-.103-9.031-1.613-12.782-4.53-3.45-2.761-5.825-6.265-7.124-10.51a21.414 21.414 0 0 1-.852-5.19V20.21c.236-4.92 1.937-9.244 5.103-12.973C8.034 3.874 11.678 1.647 16.028.555a21.58 21.58 0 0 1 4.071-.562Z" clip-rule="evenodd" opacity=".998"/><path fill="#fff" fill-rule="evenodd" d="M18.896 11.722V8.58h-6.242c-1.149.007-3.446.707-3.446 3.446v6.58c.01.246-.124.738-.738.738H7.172v3.301H8.47c.614 0 .748.491.738.737v6.58c0 2.739 2.297 3.439 3.446 3.446h6.242v-3.143h-4.561c-.388-.039-1.164-.326-1.164-1.163v-6.045c-.027-.676-.266-2.015-1.002-2.063.736-.048.975-1.387 1.002-2.063v-6.044c0-.838.776-1.125 1.164-1.164h4.561ZM23.088 30.264v3.143h6.242c1.149-.007 3.446-.707 3.446-3.446v-6.58c-.01-.246.124-.738.738-.738h1.298v-3.301h-1.298c-.614 0-.748-.491-.738-.737v-6.58c0-2.739-2.297-3.439-3.446-3.446h-6.242v3.143h4.561c.388.04 1.164.326 1.164 1.164v6.044c.027.676.266 2.015 1.002 2.063-.736.048-.975 1.387-1.002 2.063V29.1c0 .838-.776 1.125-1.164 1.164h-4.561Z" clip-rule="evenodd"/><path fill="#fff" fill-rule="evenodd" d="M20.992 26.132a5.14 5.14 0 1 0 0-10.278 5.14 5.14 0 0 0 0 10.278Zm0-2.665a2.474 2.474 0 1 0 0-4.948 2.474 2.474 0 0 0 0 4.948Z" clip-rule="evenodd"/></svg>