<svg width="42" height="42" fill="none" xmlns="http://www.w3.org/2000/svg">
  <circle cx="21" cy="21" r="21" fill="#000"/>
  <path fill="#fff" fill-rule="evenodd" d="M18.896 11.722V8.58h-6.242c-1.149.007-3.446.707-3.446 3.446v6.58c.01.246-.124.738-.738.738H7.172v3.301H8.47c.614 0 .748.491.738.737v6.58c0 2.739 2.297 3.439 3.446 3.446h6.242v-3.143h-4.561c-.388-.039-1.164-.326-1.164-1.163v-6.045c-.027-.676-.266-2.015-1.002-2.063.736-.048.975-1.387 1.002-2.063v-6.044c0-.838.776-1.125 1.164-1.164h4.561Zm4.192 18.542v3.143h6.242c1.149-.007 3.446-.707 3.446-3.446v-6.58c-.01-.246.124-.738.738-.738h1.298v-3.301h-1.298c-.614 0-.748-.491-.738-.737v-6.58c0-2.739-2.297-3.439-3.446-3.446h-6.242v3.143h4.561c.388.04 1.164.326 1.164 1.164v6.044c.027.676.266 2.015 1.002 2.063-.736.048-.975 1.387-1.002 2.063V29.1c0 .838-.776 1.125-1.164 1.164z" clip-rule="evenodd"/>
  <path fill="#fff" fill-rule="evenodd" d="M20.992 26.132a5.14 5.14 0 1 0 0-10.278 5.14 5.14 0 0 0 0 10.278m0-2.665a2.474 2.474 0 1 0 0-4.948 2.474 2.474 0 0 0 0 4.948" clip-rule="evenodd"/>
</svg>
