<svg width="42" height="42" viewBox="0 0 42 42" fill="none" xmlns="http://www.w3.org/2000/svg">
<path d="M21 42C32.598 42 42 32.598 42 21C42 9.40202 32.598 0 21 0C9.40202 0 0 9.40202 0 21C0 32.598 9.40202 42 21 42Z" fill="#DEDEDE"/>
<mask id="mask0_7698_85198" style="mask-type:alpha" maskUnits="userSpaceOnUse" x="0" y="0" width="42" height="42">
<path d="M21 42C32.598 42 42 32.598 42 21C42 9.40202 32.598 0 21 0C9.40202 0 0 9.40202 0 21C0 32.598 9.40202 42 21 42Z" fill="#DEDEDE"/>
</mask>
<g mask="url(#mask0_7698_85198)">
<path d="M11.5526 52.4983C17.9331 52.4983 23.1055 47.3259 23.1055 40.9454C23.1055 34.565 17.9331 29.3926 11.5526 29.3926C5.17215 29.3926 -0.000244141 34.565 -0.000244141 40.9454C-0.000244141 47.3259 5.17215 52.4983 11.5526 52.4983Z" fill="#162E51"/>
<mask id="mask1_7698_85198" style="mask-type:alpha" maskUnits="userSpaceOnUse" x="10" y="1" width="3" height="32">
<path fill-rule="evenodd" clip-rule="evenodd" d="M10.2816 32.1531V1.19141H12.857V32.1531H10.2816Z" fill="#152E51"/>
</mask>
<g mask="url(#mask1_7698_85198)">
<path d="M41.9999 21C41.9999 32.598 32.5979 42 20.9999 42C9.40193 42 -0.00012207 32.598 -0.00012207 21C-0.00012207 9.40202 9.40193 0 20.9999 0C32.5979 0 41.9999 9.40202 41.9999 21Z" fill="#162E51"/>
</g>
</g>
</svg>
