<svg width="42" height="42" fill="none" viewBox="0 0 42 42" xmlns="http://www.w3.org/2000/svg">
  <g clip-path="url(#a)">
    <path fill="#E9F7FA" d="M21 42c11.598 0 21-9.402 21-21S32.598 0 21 0 0 9.402 0 21s9.402 21 21 21"/>
    <path fill="#7EACF9" d="M31.843 26.682c-1.062-1.723-2.161-2.594-2.172-2.603a.253.253 0 0 1-.027-.372c1.102-1.154 1.59-2.496 1.452-3.99-.112-1.205-.596-2.155-.802-2.56-.098-.193-.131-.258-.105-.363.001-.005.114-.474.06-1.245-.05-.712-.258-1.835-.963-3.143-1.042-1.936-3.92-2.615-5.433-2.843-.073.175-.223.346-.37.483l.566.826a.252.252 0 0 1-.267.388l-.722-.174a.252.252 0 0 1 .117-.49l.086.02-.323-.47a.25.25 0 0 1 .05-.34c.127-.102.255-.231.333-.33a.3.3 0 0 1-.05-.034c-.284-.026-.795-.01-1.23.031a.252.252 0 0 1-.227-.4c.39-.533.499-.86.525-1.033-.707.108-1.795.845-2.191 1.15a.25.25 0 0 1-.138.052c-3.154.198-5.646 1.242-5.67 1.253-.013.005-.921.385-1.88 1.224-1.274 1.113-2.03 2.463-2.249 4.015-.462 3.285.727 5.423 1.367 6.571.103.186.192.346.258.483.425.876.074 1.413-.203 1.602-1.298 1.555-2.93 4.074-3.395 7.293a11 11 0 0 0-.065 2.794h6.108c.082-.763.264-2.035.645-3.214.539-1.672-.264-3.2-.272-3.216a.252.252 0 1 1 .445-.238c.037.07.91 1.735.307 3.608-.355 1.1-.533 2.312-.617 3.06H32.65c-.289-2.818-.999-4.814-1.56-6.014-.646-1.379-1.24-2.034-1.246-2.04a.252.252 0 0 1 .37-.342c.1.107 2.367 2.624 2.943 8.396h.727c.066-3.596-1.07-6.222-2.04-7.795"/>
    <path fill="#FFFDF4" fill-rule="evenodd" d="M15.746 34.463h16.827s-.174-5.508-3.21-8.544c0 0-1.04-.824.218-1.995 1.257-1.17 1.82-2.819 1.82-2.819l.044-1.561-1.012-2.689.145-1.561s-.304-2.863-3.253-3.253c0 0-1.17-.173-2.688 1.605 0 0-.348.433-.868 0-.52-.434-3.122-2.299-6.115-2.039-2.46.214-4.216 2.5-4.378 4.865-.177 2.57 1.066 5.122 2.817 6.932 3.86 3.99 1.084 7.85 1.084 7.85z" clip-rule="evenodd"/>
    <path fill="#11151F" d="M32.26 26.397c-.841-1.358-1.69-2.196-2.071-2.538 1.08-1.22 1.553-2.628 1.409-4.189-.121-1.301-.654-2.348-.855-2.742l-.047-.094c.08-.409.334-2.252-.966-4.667-.584-1.085-1.72-1.931-3.375-2.515a13.3 13.3 0 0 0-2.647-.618c-.161-.081-.489-.14-1.194-.102.477-.81.334-1.183.27-1.288a.25.25 0 0 0-.199-.119c-.917-.057-2.335.96-2.681 1.22-3.207.213-5.657 1.242-5.757 1.285-.04.016-.983.409-2.003 1.297-1.714 1.49-2.267 3.181-2.43 4.336-.486 3.453.757 5.687 1.425 6.887.1.179.186.334.246.458.341.704-.007.949-.043.972a.2.2 0 0 0-.068.057c-2.443 2.913-3.272 5.74-3.537 7.6a11.5 11.5 0 0 0-.071 2.84h.509a11 11 0 0 1 .065-2.794c.465-3.219 2.097-5.738 3.395-7.292.277-.19.628-.727.203-1.603a10 10 0 0 0-.258-.483c-.64-1.148-1.83-3.286-1.367-6.571.219-1.552.975-2.902 2.249-4.015.959-.839 1.867-1.22 1.88-1.224.024-.01 2.516-1.055 5.67-1.253a.25.25 0 0 0 .138-.052c.396-.305 1.484-1.042 2.192-1.15-.027.172-.136.5-.526 1.034a.252.252 0 0 0 .228.4c.434-.042.945-.058 1.23-.032a.3.3 0 0 0 .049.033c-.078.1-.206.23-.333.33a.25.25 0 0 0-.05.34l.323.472-.086-.02a.252.252 0 1 0-.117.49l.723.173a.252.252 0 0 0 .266-.388l-.566-.826c.147-.137.297-.308.37-.483 1.514.228 4.39.907 5.433 2.843.704 1.308.912 2.431.963 3.143.054.771-.059 1.24-.06 1.245-.026.105.007.17.105.363.206.405.69 1.355.802 2.56.138 1.494-.35 2.836-1.452 3.99a.25.25 0 0 0 .027.372c.01.009 1.11.88 2.172 2.603.97 1.573 2.106 4.199 2.04 7.795h.505c.066-3.725-1.118-6.447-2.128-8.08"/>
    <path fill="#11151F" d="M29.858 26.066a.25.25 0 0 0-.015.356c.006.007.6.662 1.246 2.041.562 1.2 1.271 3.196 1.56 6.014h.507c-.576-5.772-2.843-8.29-2.942-8.396a.25.25 0 0 0-.356-.015M15.1 27.81a.252.252 0 1 0-.444.237c.009.016.81 1.544.272 3.216-.38 1.179-.563 2.451-.645 3.214h.508c.084-.748.262-1.96.617-3.06.604-1.873-.27-3.538-.307-3.608"/>
    <path fill="#060606" d="M19.275 18.431c.781 0 1.415-.718 1.415-1.604s-.634-1.604-1.415-1.604c-.782 0-1.415.718-1.415 1.604s.633 1.604 1.415 1.604"/>
    <path fill="#FFFEF3" d="M18.677 17.896a.318.318 0 1 0 0-.636.318.318 0 0 0 0 .636m1.04-.486c.402 0 .728-.414.728-.925 0-.51-.326-.924-.728-.924s-.728.414-.728.924.326.925.728.925"/>
    <path fill="#060606" d="M28.334 18.243c.6 0 1.087-.67 1.087-1.496s-.486-1.496-1.087-1.496c-.6 0-1.088.67-1.088 1.496s.487 1.496 1.088 1.496"/>
    <path fill="#FFFEF3" d="M27.841 17.68a.318.318 0 1 0 0-.635.318.318 0 0 0 0 .636m.849-.649c.294-.035.495-.388.448-.789s-.324-.698-.618-.664c-.295.035-.496.388-.449.789.047.4.324.698.618.664"/>
    <path fill="#F6B438" d="m25.06 19.776.306-.135.25-.223.155-.166.114-.172.083-.154.105-.184.03-.1c-.054-.065-.331-.386-.57-.449l-.126-.056-.166-.058-.312-.08-.026.003c-.091-.006-.158-.03-.262-.03-.918.01-1.462.397-1.717.645a.284.284 0 0 0-.014.4c.292.318.95.909 1.808.887l.124-.008-.02-.057z"/>
    <path fill="#010100" d="M25.817 18.781c-.748.215-1.527.156-2.294.114.709.198 1.632.247 2.294-.114"/>
    <path fill="#010100" d="M24.719 17.976v.011c.065.007.131.01.197.02.195.03.386.088.564.175a1.7 1.7 0 0 1 .597.478c-.223.53-.64 1.058-1.237 1.156-.762.097-1.455-.408-1.95-.943.162-.389.573-.617.957-.746.121-.04.3-.08.427-.107l-.002-.011c-.441.043-.901.168-1.233.479-.12.116-.22.244-.274.408l.02.023c.551.644 1.458 1.228 2.326.905.499-.209.835-.68 1.022-1.172-.335-.43-.877-.66-1.414-.676"/>
  </g>
  <defs>
    <clipPath id="a">
      <path fill="#fff" d="M0 0h42v42H0z"/>
    </clipPath>
  </defs>
</svg>
