<svg width="42" height="42" viewBox="0 0 42 42" fill="none" xmlns="http://www.w3.org/2000/svg">
<g clip-path="url(#clip0_7202_35346)">
<circle cx="21" cy="21" r="21" fill="#242235"/>
<g clip-path="url(#clip1_7202_35346)">
<path d="M41.9558 0.0439148H-3.95557V43.9561H41.9558V0.0439148Z" fill="#609543"/>
<path d="M-0.0151918 30.9581C-0.0559625 31.3673 -0.12155 31.7801 -0.11446 32.1894C-0.0967331 33.1976 0.131937 34.1637 0.488238 35.1122C0.732862 35.7638 1.07144 36.3435 1.52169 36.8687C1.59259 36.9442 1.6635 37.0197 1.73263 37.0953C2.21833 37.4483 2.70404 37.7996 3.18974 38.1527C3.34219 38.2317 3.49463 38.3125 3.64708 38.3933C3.86334 38.4864 4.07961 38.5795 4.29764 38.6726C4.58126 38.8113 4.86666 38.9501 5.15205 39.0871C5.35236 39.1539 5.55444 39.2188 5.75475 39.2856C5.84338 39.3119 5.93379 39.34 6.02242 39.3664C6.07914 39.384 6.13764 39.4015 6.19436 39.4173C6.36277 39.4683 6.53117 39.5174 6.69779 39.5666C7.35367 39.6984 8.00777 39.8283 8.66188 39.9583L9.24685 40.0637C9.93818 40.134 10.6277 40.2323 11.3208 40.2692C12.1256 40.3149 12.9339 40.336 13.7405 40.3131C14.3857 40.2938 15.0292 40.1955 15.6744 40.134C15.7985 40.1234 15.9226 40.1269 16.0485 40.1234C16.1796 40.1094 16.3108 40.0936 16.442 40.0778C16.4579 40.0778 16.4757 40.076 16.4916 40.076C16.5342 40.076 16.5785 40.0725 16.621 40.0707C16.6795 40.069 16.7398 40.0672 16.7983 40.0637C16.9738 40.062 17.1475 40.062 17.323 40.0584C18.2075 40.0409 19.0921 40.0198 19.9766 40.0005C20.5226 39.997 21.0668 39.9917 21.611 39.9882L23.0681 39.5877C23.2897 39.5139 23.5113 39.4419 23.7311 39.3681C23.8445 39.319 23.958 39.268 24.0714 39.2171C24.2345 39.0608 24.3976 38.9044 24.5607 38.7463L24.6511 38.6146C24.6777 38.5848 24.7043 38.5531 24.7309 38.5215C24.7468 38.4934 24.7645 38.4653 24.7823 38.4372C24.8744 38.2405 24.9914 38.2791 25.0818 38.4249C25.1527 38.5373 25.1829 38.6743 25.229 38.8008C25.3779 38.9466 25.525 39.0924 25.6721 39.2399C25.8689 39.3646 26.0657 39.4876 26.2624 39.6123C26.6648 39.8758 27.0512 40.1638 27.4696 40.3939C27.9606 40.6644 28.4782 40.8822 28.9834 41.1229C29.2085 41.1457 29.4337 41.1615 29.657 41.1931C29.8804 41.2265 30.102 41.2792 30.3235 41.3214C31.4669 41.3618 32.612 41.4022 33.7554 41.4408C34.2659 41.36 34.7817 41.3073 35.2834 41.1896C35.8294 41.0632 36.37 40.9033 36.8929 40.7083C37.2882 40.5608 37.6516 40.3342 38.0292 40.1428C38.148 40.0567 38.2667 39.9689 38.3855 39.8828C38.8801 39.4419 38.9084 38.922 38.639 38.3582C38.3678 37.7908 38.0895 37.2252 37.8147 36.6596C37.7438 36.5683 37.6729 36.4787 37.6038 36.3891C37.4673 36.0853 37.3326 35.7814 37.1961 35.4775C37.1819 35.4617 37.1677 35.4477 37.1517 35.4336C37.134 35.4073 37.1163 35.3792 37.0986 35.3528C37.0578 35.2913 37.017 35.2316 36.9763 35.1701C36.9692 35.1596 36.9656 35.1473 36.9638 35.135C36.9408 35.1016 36.916 35.0683 36.8929 35.0349C36.8876 35.0244 36.8841 35.0121 36.8805 35.0015L36.7104 34.8224C36.6678 34.7767 36.6235 34.731 36.581 34.6854C36.4338 34.5255 36.2867 34.3657 36.1396 34.2041C36.0793 34.104 36.0173 34.0056 35.957 33.9055C35.9003 33.8299 35.8453 33.7527 35.7886 33.6771C35.7106 33.5946 35.6326 33.5103 35.5564 33.426C35.5138 33.3803 35.4731 33.3329 35.4323 33.2872L35.2142 33.0659C35.1398 33.0097 35.0653 32.9517 34.9909 32.8955H34.9891C34.9289 32.8393 34.8668 32.7831 34.8065 32.7269C34.3297 32.3984 33.8546 32.0682 33.3742 31.745C33.0055 31.4956 32.628 31.2549 32.2539 31.0108C32.1405 30.8773 31.9845 30.7561 32.1511 30.5594C32.3585 30.259 32.5677 29.9569 32.7733 29.6548L32.5872 29.5301C32.4755 29.6987 32.3443 29.8585 32.2096 30.0184C31.9012 30.3784 31.8976 30.3872 31.5077 30.0851C31.4456 30.0307 31.3836 29.9762 31.3215 29.92C31.2223 29.8269 31.1212 29.7356 31.022 29.6425C30.9581 29.6056 30.8961 29.5687 30.8323 29.5301C30.6249 29.5072 30.4015 29.4212 30.2136 29.4703C29.7226 29.6021 29.2475 29.7918 28.7654 29.9586C28.7494 29.9692 28.7335 29.978 28.7175 29.9885C28.6803 29.999 28.6413 30.0078 28.6041 30.0184C28.5385 30.0711 28.4747 30.1238 28.4109 30.1747C28.4002 30.18 28.3878 30.1835 28.3754 30.1852L28.2797 30.2643C28.262 30.2783 28.246 30.2924 28.23 30.3064C28.2159 30.317 28.2017 30.3275 28.1875 30.3398C27.7904 30.6718 27.3951 31.0055 26.9927 31.334C26.7375 31.5412 26.4751 31.738 26.2146 31.94C26.1702 31.9839 26.1259 32.026 26.0816 32.0699C25.9699 32.1367 25.8388 32.1841 25.7501 32.2737C25.4381 32.5916 25.1545 32.5319 24.8709 32.2438C24.7699 32.2122 24.6706 32.1806 24.5713 32.1472L24.2203 32.1367C24.1884 32.1384 24.1583 32.1384 24.1264 32.1402C23.6637 32.2017 23.2968 32.4318 23.0646 32.8252C22.781 33.2995 22.9033 33.8545 23.3766 34.385C23.5893 34.6239 23.8197 34.8469 24.0431 35.0753C24.0714 35.1069 24.098 35.1368 24.1246 35.1684C24.1406 35.1965 24.1583 35.2246 24.176 35.2509C24.215 35.3124 24.2522 35.3739 24.2912 35.4354L24.3125 35.5091C24.4277 35.6725 24.5412 35.8358 24.6564 35.9992C24.6901 36.0537 24.7255 36.1081 24.761 36.1608C24.7716 36.1942 24.784 36.2275 24.7947 36.2609L24.8638 36.9091C24.8549 36.9565 24.8461 37.0022 24.8372 37.0478C24.8337 37.3236 24.8284 37.5994 24.823 37.8751C24.8124 37.8909 24.8035 37.9085 24.7929 37.9243L24.6706 38.0666C24.5199 38.2791 24.3675 38.4934 24.215 38.7077L24.0821 38.8394C24.0661 38.8517 24.0519 38.864 24.0378 38.8763C23.9988 38.8834 23.9598 38.8921 23.9225 38.9009C23.8144 38.9536 23.7063 39.0081 23.5999 39.0608C23.4847 39.0941 23.3712 39.1293 23.2578 39.1626C23.2401 39.1732 23.2223 39.1837 23.2046 39.196C23.1727 39.2083 23.1426 39.2224 23.1107 39.2347C22.9937 39.2926 22.8767 39.3523 22.7597 39.4103C22.5257 39.4683 22.2953 39.5631 22.0577 39.5789C21.1359 39.6369 20.2124 39.679 19.2906 39.7089C18.0586 39.7511 16.8249 39.7704 15.5929 39.8125C14.4655 39.8529 13.3363 39.9127 12.2089 39.9636C12.1912 39.9566 12.1735 39.9495 12.154 39.9425C10.8617 39.8213 9.56947 39.7019 8.27722 39.5807C8.26126 39.5789 8.24354 39.5772 8.22758 39.5754C8.20277 39.5701 8.17618 39.5649 8.15136 39.5614C8.11413 39.5456 8.07868 39.528 8.04146 39.5122C7.89078 39.4981 7.73302 39.5034 7.58766 39.4648C7.08068 39.3313 6.57903 39.1837 6.0756 39.0397C5.99406 39.0081 5.91252 38.9764 5.83275 38.9466C5.61826 38.8746 5.40554 38.8043 5.19105 38.7323C5.1556 38.7147 5.12015 38.6954 5.08469 38.6778L5.01024 38.662L4.86666 38.5883C4.79752 38.5549 4.72662 38.5215 4.65571 38.4881L4.24623 38.2826C4.2356 38.2791 4.22319 38.2756 4.21255 38.2703C4.09024 38.2054 3.96616 38.1404 3.84207 38.0754C3.39182 37.8347 2.9398 37.5958 2.48955 37.3552C2.44523 37.3254 2.40092 37.2972 2.3566 37.2674C2.34065 37.2533 2.32469 37.2393 2.31051 37.2252C2.21833 37.1269 2.12793 37.0267 2.03575 36.9284C1.93471 36.8248 1.8319 36.7211 1.73086 36.6175L1.65109 36.5226C1.63336 36.4822 1.61564 36.4401 1.59791 36.3997C1.51105 36.3101 1.42596 36.2188 1.34088 36.1292C1.3072 36.0747 1.27174 36.0203 1.23806 35.9658C1.18489 35.8745 1.13348 35.7814 1.0803 35.6901C1.07321 35.6655 1.06612 35.6426 1.05903 35.618C1.0218 35.5548 0.984577 35.4898 0.949124 35.4266C0.856947 35.1684 0.768315 34.9084 0.672593 34.6502C0.351745 33.7895 0.202843 32.899 0.215252 31.9804C0.225887 31.9347 0.236523 31.889 0.245386 31.8416C0.248932 31.8153 0.250704 31.7871 0.252477 31.7608C0.263113 31.6554 0.273749 31.5518 0.284384 31.4481C0.291475 31.406 0.296793 31.3656 0.303884 31.3234C0.312747 31.262 0.32161 31.2005 0.332246 31.139C0.335791 31.0846 0.341109 31.0283 0.344654 30.9739C0.360608 30.9071 0.376562 30.8422 0.392516 30.7754C0.458103 29.9973 0.525463 29.2174 0.592824 28.4375C0.612323 28.2215 0.628276 28.0037 0.661957 27.7894C0.876446 26.3719 1.09625 24.9527 1.31429 23.5352C1.32492 23.4895 1.33556 23.4438 1.3462 23.3964C1.34797 23.3701 1.34974 23.342 1.35329 23.3139C1.40115 23.1189 1.45078 22.9222 1.50042 22.7272C1.7149 22.0334 1.93117 21.3378 2.14566 20.644C2.16693 20.6089 2.18643 20.5737 2.2077 20.5404C2.32292 20.24 2.43814 19.9414 2.55336 19.6428C2.59059 19.5796 2.62781 19.5181 2.66504 19.4566C2.75899 19.237 2.84053 19.0105 2.95221 18.7997C3.69494 17.3857 4.44477 15.9753 5.19105 14.563C5.21409 14.5279 5.23537 14.4928 5.25841 14.4594C5.48176 14.0378 5.70512 13.6163 5.9267 13.1965C5.9391 13.1789 5.95329 13.1631 5.96569 13.1473C6.20146 12.7468 6.44253 12.3516 6.6712 11.9476C7.33772 10.7673 8.31267 9.83106 9.17063 8.80352C9.43121 8.49086 9.71305 8.1905 9.93641 7.85326C10.2324 7.40711 10.4788 6.92934 10.7483 6.46387C10.7873 6.41645 10.8263 6.36727 10.8635 6.31984C11.0337 6.10555 11.2021 5.89302 11.3705 5.67873C11.4733 5.59266 11.5743 5.50483 11.6771 5.41701C11.9625 5.24487 12.2444 5.06571 12.5369 4.9006C12.7443 4.78467 12.9534 4.63537 13.1803 4.5897C13.838 4.45797 14.5027 4.4 15.1692 4.4V4.19098C14.6516 4.19098 14.1358 4.18922 13.6182 4.18922L13.1023 4.29461C13.0243 4.3315 12.9446 4.36839 12.8666 4.40527C11.7374 4.85493 10.8901 5.62603 10.2519 6.63952C9.963 7.0927 9.67583 7.54587 9.38689 7.99904C9.04122 8.42587 8.69733 8.85445 8.35344 9.28304C7.76847 10.0067 7.1835 10.7286 6.59853 11.4523C6.49217 11.6139 6.37517 11.7685 6.28122 11.9353C5.80793 12.7644 5.33109 13.5899 4.87729 14.4278C4.19128 15.6925 3.52122 16.9659 2.84585 18.2359C2.82103 18.2833 2.79621 18.3307 2.7714 18.3764C2.76785 18.3904 2.76431 18.401 2.75899 18.4133C2.66149 18.5924 2.564 18.7698 2.4665 18.949C2.42219 19.1036 2.3761 19.2564 2.33178 19.4109C2.32469 19.4232 2.31583 19.4373 2.30874 19.4496C2.26265 19.5374 2.21656 19.627 2.17047 19.7166C1.98435 20.2681 1.80176 20.8232 1.60677 21.3729C1.55537 21.517 1.46496 21.6469 1.39228 21.784C1.38874 21.8103 1.38697 21.8367 1.38342 21.863C1.37279 21.8929 1.36392 21.9227 1.35329 21.9526C1.34797 21.9807 1.34088 22.0088 1.33379 22.0351C1.29656 22.1282 1.26111 22.2213 1.22388 22.3144C1.16007 22.6306 1.09625 22.9485 1.03067 23.2647C1.0218 23.2945 1.01294 23.3244 1.0023 23.3525C0.99344 23.3806 0.98635 23.4069 0.977486 23.4351C0.966851 23.4807 0.954442 23.5264 0.942034 23.5721C0.778951 24.6927 0.614095 25.8151 0.451013 26.9357C0.440377 26.9814 0.427968 27.0271 0.417332 27.0727L0.406697 27.157L0.369471 27.3784C0.335791 27.7841 0.303883 28.1916 0.270203 28.5974C0.238296 28.78 0.204616 28.961 0.170936 29.1436C0.108893 29.7479 0.0433053 30.3521 -0.0151918 30.9581ZM23.8038 34.3165C23.4971 33.9775 23.2631 33.6367 23.3092 33.1625C23.3287 33.1256 23.3482 33.0905 23.3659 33.0553C23.6123 32.639 24.0821 32.4177 24.5323 32.502C24.878 32.567 25.1687 32.9359 25.2237 33.3733C25.2361 33.4049 25.2467 33.4365 25.2573 33.4681L25.2839 33.5471C25.2946 33.577 25.307 33.6069 25.3194 33.6367C25.4931 33.8159 25.6686 33.9951 25.8441 34.176C25.9788 34.2129 26.1135 34.2515 26.25 34.2901C26.4911 34.3709 26.8385 34.306 26.8456 34.7135C26.858 34.7503 26.8722 34.7872 26.8846 34.8241C26.9413 35.1842 26.9981 35.5425 27.0548 35.9026C27.0761 35.95 27.0973 35.9992 27.1186 36.0484C27.1257 36.0712 27.1328 36.0958 27.1399 36.1204C27.3154 36.2996 27.482 36.4875 27.6681 36.6526C27.9535 36.9073 28.2531 37.1479 28.5474 37.3939H28.5491C28.5633 37.4097 28.5757 37.4255 28.5899 37.4413C29.143 38.0525 29.7722 38.5022 30.6639 38.4249C30.71 38.4214 30.8004 38.5145 30.811 38.5725C30.905 39.0783 31.2542 39.254 31.7168 39.2961C32.1192 39.3049 32.5216 39.3313 32.924 39.3137C33.1544 39.3049 33.3512 39.2645 33.3512 39.5895C33.3512 39.6457 33.431 39.7054 33.4824 39.7528C33.7642 40.0128 34.1223 39.9566 34.4609 39.9759C34.507 39.9689 34.5513 39.9618 34.5974 39.9531L35.3312 39.4841C35.3791 39.4437 35.4252 39.4033 35.4731 39.3611C35.5032 39.333 35.5333 39.3032 35.5617 39.2733C35.5776 39.2592 35.5918 39.2452 35.6078 39.2311C35.6929 39.1275 35.7797 39.0239 35.8648 38.9202C35.9836 38.7745 36.1023 38.6304 36.2211 38.4846C36.3558 38.3248 36.4888 38.165 36.6235 38.0069C36.6412 37.9753 36.6625 37.9454 36.6767 37.912C36.7139 37.8277 36.7476 37.7416 36.783 37.6556C36.682 37.6591 36.5774 37.6521 36.4817 37.6731C36.4232 37.6872 36.3682 37.7416 36.3292 37.7908C36.0385 38.1456 35.7709 38.5215 35.4589 38.857C35.0937 39.2452 34.7888 39.7757 34.1241 39.6615C33.9468 39.6299 33.711 39.5333 33.6384 39.3962C33.5125 39.1644 33.3742 38.8675 33.6703 38.6252C33.7128 38.5935 33.7536 38.5619 33.7961 38.5303C33.8529 38.4846 33.9096 38.4372 33.9645 38.3915C34.1152 38.2335 34.2641 38.0754 34.413 37.9173C34.6683 37.638 34.9289 37.3658 35.1717 37.0759C35.2373 36.9969 35.2462 36.8722 35.2798 36.7668C35.154 36.7931 34.9891 36.7773 34.9094 36.8511C34.6151 37.1216 34.3492 37.422 34.0727 37.71L34.0301 37.7522L34.0266 37.7557C34.0124 37.7697 33.9982 37.7856 33.984 37.7996C33.8936 37.898 33.8015 37.9963 33.7093 38.0964C33.5515 38.2598 33.3937 38.4232 33.236 38.5883C33.0818 38.9027 32.8212 39.0098 32.4808 38.98C32.3071 38.9642 32.121 39.0081 31.9561 38.9624C31.7186 38.8974 31.4953 38.7762 31.2648 38.6778C31.2542 38.662 31.2435 38.648 31.2329 38.6322L31.2294 38.6269C31.2187 38.6111 31.2099 38.5935 31.1992 38.5777C31.185 38.5356 31.1709 38.4917 31.1567 38.4495C31.1549 38.4337 31.1549 38.4179 31.1531 38.4021C31.1549 38.3318 31.1567 38.2598 31.1584 38.1895C31.2985 37.9208 31.4368 37.6521 31.5768 37.3833C31.7487 37.1286 31.9207 36.8722 32.0944 36.6175L32.2114 36.4805C32.3497 36.3452 32.4826 36.2047 32.6297 36.0782C32.7556 35.9676 32.908 35.8868 33.025 35.7709C33.0729 35.7252 33.0605 35.618 33.0747 35.539C32.9967 35.539 32.9027 35.5056 32.8425 35.539C31.903 36.0115 31.3552 36.816 30.951 37.7399C30.9315 37.775 30.9121 37.8084 30.8926 37.8435C30.889 37.8541 30.8855 37.8663 30.8801 37.8769C30.8341 37.9138 30.7897 37.9524 30.7437 37.9893C30.1374 38.107 29.618 37.9577 29.2015 37.494C29.0295 37.2709 28.8576 37.0478 28.6856 36.8265C28.5722 36.6157 28.5775 36.4137 28.7264 36.2205C28.7672 36.1731 28.8062 36.1257 28.8469 36.0782C28.8505 36.0677 28.854 36.0572 28.8593 36.0466C28.9746 35.8833 29.0898 35.7199 29.2032 35.5583C29.2794 35.4723 29.3557 35.3879 29.4319 35.3019C29.5205 35.2316 29.6092 35.1596 29.6978 35.0893C29.8733 35.0121 30.0488 34.9348 30.2225 34.8592C30.3998 34.7591 30.5788 34.6608 30.7561 34.5606C30.9599 34.4553 31.162 34.3481 31.3658 34.2427C31.6158 34.0232 31.8657 33.8054 32.1157 33.5858C32.2079 33.5155 32.3 33.447 32.3904 33.3768C32.534 33.2556 32.6758 33.1344 32.8194 33.0149C32.885 32.8112 32.7751 32.776 32.6067 32.7971C32.5766 32.8129 32.5464 32.8287 32.5163 32.8428C32.2646 33.0343 32.0146 33.224 31.7629 33.4137C31.5821 33.5665 31.4013 33.721 31.2205 33.8739C31.2134 33.6806 31.3091 33.5419 31.3233 33.3961C31.3446 33.1713 31.7452 33.0553 31.497 32.7673C31.4243 32.7339 31.3517 32.704 31.2808 32.6671C30.6852 32.344 30.0736 32.228 29.4284 32.5161C29.3379 32.5811 29.2493 32.6478 29.1607 32.7128C28.893 32.9148 28.6378 33.1309 28.3577 33.3135C28.0333 33.5243 27.6876 33.7052 27.3526 33.8984C27.3083 33.9125 27.264 33.9283 27.2214 33.9424C27.1257 33.9476 27.0264 33.9599 26.9289 33.9687C26.7641 33.9863 26.5992 33.9986 26.4415 33.9722C26.1153 33.9178 25.7785 33.8212 25.6189 33.4734C25.6048 33.3961 25.5924 33.3188 25.58 33.2415C25.5941 32.8832 25.7679 32.6443 26.094 32.4739C26.4716 32.2755 27.1221 32.5899 27.1611 33.0167C27.108 33.0922 27.0548 33.1677 26.9998 33.2433C26.9857 33.2591 26.9715 33.2731 26.9573 33.2889C26.9254 33.3153 26.8952 33.3416 26.8633 33.368L26.7091 33.7579C26.7729 33.765 26.8527 33.7948 26.9112 33.7948C26.9325 33.7948 26.952 33.7913 26.9662 33.7808C27.5564 33.3662 27.8737 32.9341 27.1594 32.365C27.0956 32.3158 27.0264 32.2755 26.9591 32.2298C26.5301 32.0014 26.9715 31.9347 27.0406 31.7977H27.0424C27.5121 31.4025 27.9819 31.0073 28.4534 30.6138C28.7193 30.454 28.9852 30.2959 29.2529 30.1361C29.2848 30.115 29.3167 30.0921 29.3486 30.0693C29.5276 30.0061 29.7031 29.9323 29.8857 29.8796C30.2455 29.7777 30.5894 29.7725 30.8961 30.0394C31.1478 30.259 31.4208 30.4557 31.6707 30.677C31.7665 30.7596 31.8232 30.8861 31.9083 30.9844C32.1086 31.2128 32.2805 31.485 32.5252 31.6466C33.0481 31.9909 33.61 32.2755 34.156 32.5846C34.2623 32.6689 34.3669 32.7532 34.4733 32.8375C34.4857 32.841 34.4963 32.8446 34.507 32.8498C34.5548 32.8902 34.6009 32.9306 34.6488 32.971C34.943 33.2784 35.2355 33.5858 35.528 33.8932C35.5546 33.9248 35.583 33.9564 35.6095 33.988C36.4001 34.8224 36.9904 35.7954 37.5594 36.7808C37.5719 36.7984 37.5843 36.8142 37.5967 36.8318C37.8838 37.4975 38.1994 38.1562 38.444 38.8377C38.5167 39.0414 38.4812 39.4296 38.343 39.535C37.8626 39.9004 37.3485 40.264 36.7901 40.4747C35.6982 40.884 34.5655 41.1738 33.376 41.1246C32.495 41.0877 31.6122 41.0948 30.7348 41.0228C30.0452 40.9648 29.3255 40.9174 28.6874 40.682C28.0067 40.4326 27.4075 39.9671 26.7712 39.5947C26.4663 39.4121 26.1437 39.2522 25.8618 39.0379C25.6774 38.8974 25.4984 38.6989 25.4098 38.4881C25.1971 37.977 25.1403 37.4395 25.1705 36.8757C25.19 36.498 25.0233 36.1116 24.94 35.7287C24.5642 35.2562 24.2079 34.7662 23.8038 34.3182V34.3165ZM27.264 34.6854C27.2338 34.5817 27.2055 34.4798 27.1753 34.378C27.2055 34.3657 27.2356 34.3551 27.2657 34.3428C27.2941 34.3393 27.3242 34.3358 27.3526 34.3323C27.381 34.327 27.4146 34.327 27.4377 34.3112C28.0262 33.9195 28.6094 33.5173 29.2085 33.1396C29.4709 32.9728 29.7669 32.8551 30.047 32.7146H30.3732C30.2349 32.892 30.1463 33.0061 30.0576 33.1203C29.7013 33.4962 29.3433 33.8721 28.987 34.248C28.971 34.262 28.9568 34.2743 28.9426 34.2884L27.9748 35.1684C27.9588 35.1824 27.9429 35.1965 27.9287 35.2123C27.7408 35.3581 27.5511 35.5056 27.3047 35.6971V35.3001C27.2923 35.1245 27.2817 34.9471 27.2693 34.7714C27.2675 34.7433 27.2657 34.7135 27.264 34.6854ZM27.6628 36.1696C27.638 36.1397 27.6132 36.1081 27.5866 36.0782C27.6274 35.9974 27.6468 35.8956 27.7107 35.8411C27.9783 35.6075 28.2584 35.3879 28.5349 35.1614L29.2635 34.5132C29.4035 34.3657 29.5489 34.2234 29.6818 34.0723C29.969 33.7474 30.242 33.4119 30.5363 33.094C30.6302 32.9939 30.7738 32.9394 30.8926 32.8621C30.9404 32.9974 31.0663 33.1853 31.0184 33.2573C30.733 33.6754 30.4051 34.0671 30.0913 34.4675C30.0771 34.4798 30.0612 34.4939 30.0452 34.5062C29.9601 34.5536 29.8751 34.5993 29.7917 34.645C29.7297 34.6678 29.6677 34.6889 29.6056 34.7099L29.4727 34.7732L28.8132 35.3897C28.7796 35.4529 28.7459 35.5162 28.714 35.5794C28.5615 35.8903 28.4073 36.2012 28.2549 36.5121C28.223 36.5665 28.1928 36.6228 28.1627 36.6772C28.129 36.6386 28.0953 36.6017 28.0634 36.563C27.989 36.4893 27.9163 36.4155 27.8418 36.3417L27.755 36.2557C27.7248 36.2275 27.6947 36.1994 27.6628 36.1696Z" fill="#131715"/>
<path d="M0.215315 31.9804C0.202906 32.899 0.351808 33.7896 0.672656 34.6502C0.768378 34.9084 0.85701 35.1684 0.949188 35.4266C0.98464 35.4898 1.02187 35.5548 1.05909 35.6181C1.06618 35.6426 1.07327 35.6655 1.08036 35.6901C1.13354 35.7814 1.18495 35.8745 1.23813 35.9658C1.27181 36.0203 1.30726 36.0747 1.34094 36.1292C1.42603 36.2188 1.51111 36.3101 1.59797 36.3997C1.6157 36.4401 1.63343 36.4822 1.65115 36.5226L1.73092 36.6175C1.83196 36.7211 1.93478 36.8248 2.03582 36.9284C2.12799 37.0268 2.2184 37.1269 2.31057 37.2252C2.32476 37.2393 2.34071 37.2533 2.35666 37.2674C2.40098 37.2973 2.4453 37.3254 2.48961 37.3552C2.93986 37.5959 3.39189 37.8347 3.84214 38.0754C3.96622 38.1404 4.09031 38.2054 4.21262 38.2704C4.22325 38.2756 4.23566 38.2791 4.2463 38.2826L4.65578 38.4882C4.72668 38.5215 4.79759 38.5549 4.86672 38.5883L5.01031 38.662L5.08476 38.6779C5.12021 38.6954 5.15566 38.7147 5.19111 38.7323C5.4056 38.8043 5.61832 38.8746 5.83281 38.9466C5.91258 38.9765 5.99412 39.0081 6.07566 39.0397C6.57909 39.1837 7.08075 39.3313 7.58772 39.4648C7.73308 39.5034 7.89084 39.4981 8.04152 39.5122C8.07874 39.528 8.1142 39.5456 8.15142 39.5614C8.17624 39.5649 8.20283 39.5702 8.22765 39.5754C8.2436 39.5772 8.26133 39.5789 8.27728 39.5807C9.56953 39.7019 10.8618 39.8213 12.154 39.9425C12.1735 39.9496 12.1913 39.9566 12.209 39.9636C13.3364 39.9127 14.4656 39.8529 15.593 39.8125C16.8249 39.7704 18.0587 39.7511 19.2907 39.7089C20.2125 39.6791 21.136 39.6369 22.0578 39.5789C22.2953 39.5631 22.5258 39.4683 22.7597 39.4103C22.8767 39.3523 22.9937 39.2926 23.1107 39.2347C23.1426 39.2224 23.1728 39.2083 23.2047 39.196C23.2224 39.1837 23.2401 39.1732 23.2579 39.1626C23.3713 39.1293 23.4848 39.0941 23.6 39.0608C23.7063 39.0081 23.8145 38.9536 23.9226 38.9009C23.9598 38.8921 23.9988 38.8834 24.0378 38.8763C24.052 38.864 24.0662 38.8517 24.0821 38.8395L24.2151 38.7077C24.3675 38.4934 24.52 38.2791 24.6707 38.0666L24.793 37.9243C24.8036 37.9085 24.8125 37.8909 24.8231 37.8751C24.8284 37.5994 24.8337 37.3236 24.8373 37.0478C24.8461 37.0022 24.855 36.9565 24.8639 36.9091L24.7947 36.2609C24.7841 36.2276 24.7717 36.1942 24.7611 36.1608C24.7256 36.1081 24.6901 36.0537 24.6565 35.9992C24.5412 35.8359 24.4278 35.6725 24.3126 35.5092L24.2913 35.4354C24.2523 35.3739 24.2151 35.3124 24.1761 35.2509C24.1584 35.2246 24.1406 35.1965 24.1247 35.1684C24.0981 35.1368 24.0715 35.1069 24.0431 35.0753C23.8198 34.847 23.5893 34.6239 23.3766 34.385C22.9033 33.8545 22.781 33.2995 23.0646 32.8252C23.2969 32.4318 23.6638 32.2017 24.1264 32.1402C24.1584 32.1385 24.1885 32.1385 24.2204 32.1367L24.5714 32.1472C24.6706 32.1806 24.7699 32.2122 24.871 32.2438C25.1546 32.5319 25.4382 32.5916 25.7502 32.2737C25.8388 32.1841 25.97 32.1367 26.0817 32.07C26.126 32.026 26.1703 31.9839 26.2146 31.94C26.4752 31.738 26.7375 31.5412 26.9928 31.334C27.3952 31.0055 27.7905 30.6718 28.1876 30.3398C28.2017 30.3275 28.2159 30.317 28.2301 30.3064C28.2461 30.2924 28.262 30.2783 28.2797 30.2643L28.3755 30.1852C28.3879 30.1835 28.4003 30.18 28.4109 30.1747C28.4747 30.1238 28.5385 30.0711 28.6041 30.0184C28.6414 30.0078 28.6804 29.9991 28.7176 29.9885C28.7335 29.978 28.7495 29.9692 28.7654 29.9587C29.2476 29.7918 29.7227 29.6021 30.2137 29.4703C30.4016 29.4212 30.6249 29.5072 30.8323 29.5301C30.8962 29.5687 30.9582 29.6056 31.022 29.6425C31.1213 29.7356 31.2223 29.8269 31.3216 29.92C31.3836 29.9762 31.4457 30.0307 31.5077 30.0851C31.8977 30.3872 31.9012 30.3785 32.2097 30.0184C32.3444 29.8585 32.4756 29.6987 32.5873 29.5301C32.7734 29.249 32.9081 28.9434 32.9347 28.5816C32.94 28.5043 32.9294 28.4252 32.9258 28.3462C32.9258 28.2988 32.9258 28.2531 32.9258 28.2057C32.9241 28.146 32.9241 28.0862 32.9241 28.0283C32.9063 28.0177 32.8904 28.009 32.8727 27.9984C32.6812 28.1056 32.4774 28.1916 32.3036 28.3198C31.9101 28.6114 31.4616 28.7256 30.9901 28.7379C29.471 28.7748 27.9518 28.8134 26.4309 28.8134C25.0358 28.8134 23.6407 28.7695 22.2457 28.7274C22.0489 28.7221 21.8539 28.6167 21.6589 28.5587C21.5827 28.5289 21.5047 28.4973 21.4285 28.4674C21.1821 28.4533 20.9339 28.441 20.6875 28.427L20.2461 28.3532C20.0831 28.3251 19.92 28.297 19.7569 28.2707L19.6718 28.2654C19.5974 28.2513 19.5211 28.2391 19.4467 28.225C19.4183 28.2232 19.39 28.2215 19.3634 28.2197C19.3013 28.2092 19.2411 28.1969 19.1808 28.1846C19.1524 28.1811 19.1258 28.1776 19.0975 28.1741C19.0106 28.1565 18.922 28.1372 18.8351 28.1179C18.805 28.1091 18.7749 28.0985 18.7447 28.088C18.7146 28.0845 18.6862 28.081 18.6561 28.0775C18.3902 27.9457 18.1243 27.8157 17.8602 27.684C17.4666 27.5048 17.0731 27.3239 16.6814 27.143C16.5431 27.0763 16.4066 27.0095 16.2683 26.9428C16.2276 26.9252 16.1868 26.9059 16.146 26.8883C15.8482 26.7478 15.5486 26.6073 15.2508 26.465C15.0789 26.386 14.9087 26.3052 14.7368 26.2261C14.4372 26.0434 14.1359 25.8625 13.8363 25.6816C13.7973 25.6728 13.7601 25.664 13.7228 25.6553C13.6856 25.6359 13.6502 25.6149 13.6147 25.5955C12.8737 25.1195 12.1097 24.6751 11.4024 24.1552C10.8866 23.7758 10.9522 22.7535 11.4627 22.3601C11.5513 22.2916 11.7002 22.2442 11.8084 22.2635C12.5174 22.3829 13.2229 22.5252 13.9285 22.6587L14.7261 22.9116C15.3005 23.0574 15.873 23.2032 16.4474 23.349C16.6034 23.3982 16.7576 23.4632 16.9171 23.4965C17.5801 23.6335 18.2448 23.7635 18.9096 23.8935C18.9397 23.8988 18.9752 23.8847 19.0088 23.8795C19.0337 23.883 19.0602 23.8847 19.0868 23.8882C19.6789 24.0006 20.271 24.1131 20.863 24.2272C21.0101 24.2536 21.1573 24.2799 21.3062 24.308C21.6589 24.3519 22.0117 24.3976 22.3644 24.4433C22.4194 24.4486 22.4761 24.4538 22.5311 24.4573C22.7987 24.4872 23.0682 24.5153 23.3359 24.5452C23.935 24.5768 24.5342 24.6066 25.1333 24.6383C25.2131 24.6558 25.2946 24.6751 25.3744 24.6927C25.8725 24.7243 26.3706 24.7577 26.8705 24.7893C27.0017 24.8209 27.1328 24.8701 27.2658 24.8771C27.7072 24.8982 28.1503 24.9035 28.5935 24.9158C28.7389 24.9123 28.8842 24.9105 29.0313 24.9088C29.0633 24.9017 29.0952 24.8965 29.1253 24.8912C29.2565 24.8877 29.3859 24.8842 29.517 24.8806C29.5915 24.8666 29.6642 24.8525 29.7386 24.8402C30.5097 24.8525 31.2649 24.7419 31.9934 24.496C32.153 24.4415 32.2859 24.3186 32.433 24.2255C32.6085 24.085 32.8337 23.9761 32.9524 23.7987C33.2928 23.2875 33.5959 22.7535 33.899 22.2178C33.9611 22.1054 33.9522 21.9543 33.977 21.8208C33.9788 21.6013 33.9806 21.3835 33.9823 21.1657C33.9788 21.1358 33.977 21.1077 33.9735 21.0779C33.9681 21.0375 33.9628 20.9953 33.9575 20.9549C33.938 20.904 33.9203 20.8548 33.9026 20.8038C33.7377 20.5369 33.5835 20.2628 33.4062 20.0046C33.2928 19.8395 33.1439 19.6955 33.0109 19.5409C32.9453 19.5304 32.8461 19.4882 32.8195 19.5146C32.6404 19.6937 32.4774 19.8887 32.309 20.0767C32.0271 20.1522 31.7453 20.226 31.4634 20.3015H31.2401C31.1674 20.3015 31.0947 20.298 31.022 20.2945C31.0061 20.2927 30.9919 20.2909 30.9759 20.2892C30.9103 20.2488 30.8448 20.2084 30.7774 20.168C30.7827 20.1188 30.7863 20.0714 30.7916 20.024C31.1053 19.98 31.4191 19.9344 31.7346 19.8975C32.0306 19.8624 32.254 19.7271 32.3994 19.4672C32.4171 19.4443 32.4348 19.4232 32.4525 19.4004C32.4295 19.3951 32.4065 19.3899 32.3816 19.3846C32.0289 19.3811 31.6743 19.3828 31.3216 19.3705C31.2525 19.3705 31.1337 19.3179 31.1301 19.281C31.1231 19.1984 31.1709 19.1088 31.1975 19.0228C31.2135 19.021 31.2276 19.0193 31.2418 19.0157C31.389 19.0157 31.5343 19.014 31.6814 19.0122C31.7399 19.014 31.8002 19.0157 31.8605 19.0175C32.5731 19.0368 33.3105 18.5608 33.603 17.8881C33.7111 17.6351 33.8104 17.3804 33.9079 17.124C33.9274 17.0695 33.9185 17.0028 33.9309 16.8272C33.7767 16.98 33.6916 17.0555 33.6172 17.1398C33.1793 17.6316 32.7078 18.083 32.0271 18.2078C31.6814 18.2727 31.3287 18.2903 30.9795 18.329C30.9617 18.3307 30.9458 18.3325 30.9281 18.3342H29.6925C29.0118 18.3044 28.3258 18.3044 27.6505 18.2323C27.2038 18.1849 26.7641 18.0514 26.3352 17.9162C26.048 17.8266 25.9771 17.5473 26.0604 17.3032C26.0888 17.2171 26.1189 17.1293 26.1526 17.0432L25.6562 16.9431C25.6243 17.0186 25.5747 17.0941 25.5428 17.1697C25.479 17.0766 25.3708 16.9905 25.3602 16.8939C25.2804 16.1579 24.8798 15.6292 24.3338 15.1585C24.1495 15.0004 23.9687 14.8406 23.7896 14.6772L23.561 14.9108C23.8889 15.1919 24.1584 15.5326 24.3516 15.9595L24.3835 16.0121C24.4012 16.0684 24.4207 16.1246 24.4384 16.179C24.4473 16.1966 24.4579 16.2141 24.4686 16.2317C24.5607 16.504 24.6228 16.792 24.7557 17.0432C24.8745 17.268 25.0411 17.4981 25.245 17.6439C25.5782 17.8828 25.6084 18.5661 25.2592 18.754C25.05 18.8682 24.8568 19.014 24.6565 19.1475C24.5643 19.2002 24.4721 19.2546 24.3817 19.3073C24.1158 19.5216 23.8517 19.7359 23.5876 19.9519C23.5167 20.0099 23.4528 20.0784 23.3837 20.1416C23.3748 20.1487 23.3642 20.1575 23.3554 20.1645C23.3075 20.2137 23.2579 20.2628 23.21 20.3138C23.2029 20.3208 23.1958 20.3296 23.1905 20.3366C23.077 20.4824 22.9636 20.6282 22.8519 20.774C22.82 20.8003 22.7863 20.8267 22.7544 20.8513C22.7137 20.8741 22.6747 20.8952 22.6339 20.918C22.6197 20.9286 22.6038 20.9391 22.5896 20.9496C22.3095 21.1534 22.0276 21.3589 21.7476 21.5644C21.7174 21.5767 21.6891 21.5907 21.6589 21.603C21.6306 21.6083 21.604 21.6118 21.5756 21.6171C21.3505 21.6979 21.1254 21.7769 20.9002 21.8577C20.3685 22.058 19.842 22.2793 19.2978 22.4497C19.0248 22.5357 18.7234 22.5375 18.4327 22.5586C18.3813 22.5621 18.2838 22.4778 18.2785 22.4268C18.2732 22.3759 18.3494 22.2828 18.4061 22.267C18.8688 22.1353 19.3332 22.0158 19.7994 21.8946L19.842 21.863C19.9164 21.8314 19.9891 21.7998 20.0636 21.7682C20.2001 21.7172 20.3383 21.6663 20.4748 21.6171C21.5242 21.401 22.3361 20.8091 23.0274 20.0292C23.1675 19.8993 23.3075 19.771 23.4493 19.641C23.4316 19.6147 23.4156 19.5866 23.3979 19.5602H23.0203C22.992 19.5585 22.9654 19.5567 22.937 19.5567C22.8909 19.5462 22.8431 19.5374 22.797 19.5286C22.329 19.5216 21.861 19.5146 21.393 19.5058C21.3452 19.5023 21.2991 19.4988 21.2512 19.4935C21.0332 19.4672 20.8152 19.4408 20.5971 19.4127C20.5386 19.4004 20.4784 19.3881 20.4181 19.3758C20.3755 19.3741 20.333 19.3723 20.2887 19.3688L20.1557 19.3635C19.92 19.3512 19.6842 19.3389 19.4502 19.3266C18.8954 19.2546 18.3406 19.1861 17.7857 19.1088C17.5996 19.0825 17.417 19.0368 17.2327 18.9999C17.1812 18.9876 17.1281 18.9753 17.0767 18.963C17.0412 18.9455 17.004 18.9279 16.9685 18.9103C16.0893 18.682 15.5876 17.9408 14.9158 17.4296C14.7563 17.3084 14.6216 17.1556 14.4762 17.0169C14.5613 16.9624 14.6464 16.908 14.7332 16.8535C15.1711 17.2206 15.6001 17.6 16.0521 17.9496C16.3073 18.1463 16.6016 18.2921 16.8799 18.4624C16.9721 18.4993 17.0643 18.538 17.1582 18.5749C17.2096 18.5836 17.2628 18.5942 17.316 18.603C17.3514 18.6223 17.3869 18.6416 17.4223 18.6627C17.4613 18.6697 17.5003 18.6785 17.5375 18.6873C17.5872 18.7084 17.6386 18.7277 17.6882 18.7488C17.7166 18.7523 17.7432 18.754 17.7715 18.7575L17.9098 18.7892C17.9382 18.7927 17.9648 18.7962 17.9931 18.7979C18.0392 18.8085 18.0853 18.8173 18.1332 18.8278C18.2626 18.8348 18.392 18.8401 18.5214 18.8471C18.6118 18.8594 18.7022 18.8699 18.7908 18.8822C18.8334 18.884 18.8777 18.8858 18.9202 18.8875C18.9503 18.891 18.9787 18.8945 19.0088 18.8981C20.2444 18.9824 21.4817 19.0667 22.7172 19.151C22.7473 19.1527 22.7775 19.1545 22.8058 19.1563C22.9388 19.1686 23.0717 19.1808 23.2029 19.1949H23.5557C24.1264 19.093 24.6299 18.8506 25.011 18.4185C25.089 18.3307 25.0695 18.1375 25.0464 18.0005C25.0429 17.9706 24.8231 17.9373 24.7203 17.9671C24.1247 18.1357 23.5344 18.3237 22.9423 18.5064C22.7349 18.5187 22.5293 18.5327 22.3219 18.5468C22.2191 18.5503 22.1163 18.5538 22.0135 18.5555C21.9957 18.5626 21.978 18.5696 21.9603 18.5749L21.8433 18.5696C21.8256 18.5626 21.8061 18.5555 21.7883 18.5485C21.0101 18.4326 20.2302 18.3167 19.452 18.2007C19.436 18.2007 19.4201 18.2007 19.4024 18.2007L19.1418 18.1006C18.8564 17.9864 18.5745 17.8652 18.2856 17.7616C17.7591 17.5701 17.2185 17.4138 16.7044 17.196C16.4704 17.0959 16.2878 16.8816 16.0804 16.7218C16.0131 16.6708 15.9386 16.6269 15.8695 16.5795C15.2597 16.3037 14.6499 16.0262 14.0384 15.7522C13.9604 15.7153 13.877 15.6854 13.7973 15.6538C13.7813 15.6468 13.7654 15.6398 13.7494 15.631C13.7211 15.624 13.6945 15.6169 13.6661 15.6082C13.6041 15.5695 13.5438 15.5309 13.4818 15.4905C13.168 15.3499 12.8649 15.2323 12.4944 15.2885C12.0831 15.3517 11.8828 15.0057 11.9183 14.5964C11.9591 14.145 12.3083 13.9237 12.5157 13.597C12.6185 13.4951 12.7213 13.3915 12.8223 13.2896C12.9393 13.1807 13.0652 13.0788 13.1698 12.9594C13.6856 12.3709 14.3734 12.118 15.1144 11.9634C15.3235 11.9283 15.5327 11.8932 15.7401 11.8581C16.8888 11.8545 18.0374 11.851 19.1843 11.8475C19.2003 11.8475 19.2145 11.8458 19.2286 11.8458C19.6541 11.8352 20.0777 11.8247 20.5014 11.8141C20.5634 11.8229 20.6237 11.8335 20.6858 11.844C21.1998 11.8422 21.7139 11.8387 22.228 11.8352C22.2457 11.8264 22.2616 11.8159 22.2776 11.8071C22.3964 11.8159 22.5133 11.8247 22.6321 11.8335C22.7066 11.8458 22.7828 11.8563 22.859 11.8686C22.9299 11.8721 23.0008 11.8774 23.0717 11.8809C23.1196 11.8897 23.1657 11.8985 23.2118 11.9072C23.4936 12.0882 23.7755 12.2656 24.0538 12.45C24.1318 12.5009 24.1974 12.5712 24.2683 12.6309C24.325 12.652 24.3835 12.6731 24.4402 12.6924V12.4166C24.1761 11.9336 23.912 11.4523 23.6496 10.9693C23.4263 10.6496 23.2029 10.3317 22.9813 10.012C22.9228 9.95402 22.8643 9.8943 22.8058 9.83458C22.7757 9.80648 22.7473 9.77661 22.7172 9.74851C22.5984 9.63258 22.4797 9.5149 22.3609 9.39897C22.3042 9.33925 22.2475 9.27953 22.1907 9.21805L21.9302 8.99673C21.8965 8.97214 21.8646 8.9458 21.8309 8.92121C21.6979 8.81933 21.565 8.71921 21.432 8.61909C21.4196 8.61382 21.4072 8.61031 21.3948 8.60679L21.2565 8.52775C21.2459 8.52424 21.2335 8.52073 21.2229 8.51721C21.1892 8.49262 21.1555 8.46803 21.1236 8.44344C21.0509 8.41007 20.98 8.37494 20.9073 8.34157L20.8223 8.29941C20.7939 8.28536 20.7638 8.26955 20.7354 8.2555C20.7177 8.24496 20.7017 8.23266 20.684 8.22212L20.5989 8.21158C20.037 8.12903 19.4768 8.04647 18.9149 7.96392C17.7804 7.9446 16.6477 7.86029 15.5167 8.11322C14.712 8.29414 14.1093 8.75258 13.5119 9.26196C13.3204 9.42532 13.0989 9.55881 12.8791 9.68528C12.817 9.72041 12.7107 9.67649 12.6256 9.66947C12.6397 9.60975 12.6309 9.52192 12.6681 9.49558C13.4233 8.96161 14.01 8.20105 14.9513 7.91298C16.2878 7.50548 17.6457 7.55817 19.0106 7.63546C19.1737 7.65653 19.3386 7.67937 19.5034 7.7022C19.748 7.72679 19.9944 7.74612 20.2391 7.77773C20.4199 7.80232 20.5067 7.74436 20.4713 7.55817C20.4394 7.38604 20.3968 7.2139 20.3596 7.04176L20.1203 6.58859C19.9076 6.07745 19.5832 5.65941 19.1081 5.36081L19.0071 5.28703C18.3406 4.64416 17.4808 4.5739 16.6246 4.49134C16.5342 4.48081 16.4456 4.47027 16.3552 4.45973C15.9599 4.42284 15.5646 4.40176 15.1711 4.40176C14.5046 4.40176 13.8398 4.45973 13.1822 4.59146C12.9553 4.63713 12.7461 4.78643 12.5387 4.90236C12.2462 5.06747 11.9644 5.24663 11.679 5.41877C11.5762 5.50659 11.4751 5.59442 11.3723 5.68049C11.2039 5.89478 11.0355 6.10731 10.8653 6.3216C10.8281 6.36903 10.7891 6.41821 10.7501 6.46564C10.4807 6.93111 10.2343 7.40887 9.93824 7.85502C9.71489 8.19226 9.43304 8.49262 9.17246 8.80528C8.3145 9.83282 7.33955 10.769 6.67304 11.9494C6.44437 12.3534 6.20329 12.7486 5.96753 13.1491C5.95512 13.1649 5.94094 13.1807 5.92853 13.1983C5.70695 13.6181 5.4836 14.0396 5.26025 14.4612C5.2372 14.4945 5.21593 14.5297 5.19289 14.5648C4.44661 15.977 3.69678 17.3875 2.95404 18.8014C2.84237 19.0122 2.76083 19.2388 2.66688 19.4584C2.62965 19.5198 2.59242 19.5813 2.5552 19.6446C2.43998 19.9432 2.32476 20.2418 2.20953 20.5421C2.18826 20.5755 2.16876 20.6106 2.14749 20.6458C1.933 21.3396 1.71674 22.0351 1.50225 22.729C1.45262 22.9239 1.40298 23.1206 1.35512 23.3156C1.35158 23.3437 1.3498 23.3718 1.34803 23.3982C1.3374 23.4456 1.32676 23.4913 1.31612 23.5369C1.09809 24.9544 0.878282 26.3737 0.663792 27.7911C0.630112 28.0054 0.614159 28.2232 0.59466 28.4393C0.527299 29.2192 0.459939 29.9991 0.394352 30.7772C0.378398 30.8439 0.362444 30.9089 0.34649 30.9757C0.342945 31.0301 0.337627 31.0863 0.334082 31.1408C0.323446 31.2022 0.314583 31.2637 0.30572 31.3252C0.298629 31.3674 0.293311 31.4078 0.28622 31.4499C0.275585 31.5535 0.264949 31.6572 0.254313 31.7626C0.25254 31.7889 0.250767 31.817 0.247222 31.8434C0.238359 31.8908 0.227723 31.9365 0.217088 31.9821L0.215315 31.9804ZM10.2254 22.9257C10.2414 22.7922 10.2467 22.6587 10.275 22.5287C10.2857 22.4778 10.3459 22.4391 10.3832 22.3935C11.0302 21.6259 11.9201 21.4713 12.856 21.4379C13.0173 21.4379 13.1804 21.4204 13.3382 21.4485C13.3984 21.459 13.4676 21.5679 13.48 21.6399C13.4871 21.6786 13.3807 21.7734 13.3204 21.7787C13.0138 21.8033 12.7018 21.7822 12.3987 21.8244C11.6878 21.9262 11.0036 22.0878 10.5675 22.7465C10.5055 22.8396 10.3424 22.8677 10.2254 22.9257ZM11.195 20.7195C11.2713 20.6106 11.3262 20.4402 11.429 20.4051C11.7552 20.2909 12.0991 20.226 12.4359 20.1416C12.4412 20.1592 12.4448 20.1768 12.4501 20.1943C12.5387 20.1943 12.6309 20.1768 12.7124 20.1996C12.8046 20.2242 12.8861 20.2874 12.9712 20.3331C12.8986 20.3946 12.833 20.4912 12.7479 20.5123C12.3473 20.6089 11.9431 20.6949 11.5372 20.7652C11.429 20.7845 11.3085 20.7371 11.195 20.7195ZM26.6471 19.1071C26.6436 19.0193 26.6401 18.9332 26.6365 18.8454C26.7198 18.8436 26.8067 18.8225 26.8829 18.8436C27.1417 18.9139 27.3952 18.9982 27.6522 19.0772C27.8756 19.1457 28.1007 19.2142 28.3241 19.2827C28.8346 19.2968 29.3451 19.3056 29.8556 19.3284C29.9372 19.3319 30.0169 19.3934 30.0967 19.4303C30.0258 19.4988 29.962 19.6217 29.8858 19.6288C29.4869 19.6656 29.0845 19.6727 28.6839 19.6902C28.6112 19.7025 28.5385 19.7131 28.4659 19.7254L28.535 19.8149C28.831 20.1539 29.1466 20.4806 29.4178 20.8372C29.611 21.0901 29.7546 21.3835 29.9053 21.6663C29.9265 21.7032 29.8733 21.8208 29.829 21.8384C29.7794 21.8577 29.6908 21.8191 29.6376 21.7804C29.5826 21.74 29.5525 21.6645 29.5046 21.6101C29.0402 21.0656 28.574 20.5228 28.1078 19.98C28.0918 19.966 28.0759 19.9537 28.0599 19.9396C27.9749 19.8782 27.888 19.8185 27.8029 19.757C27.7409 19.7148 27.6806 19.6744 27.6185 19.634C27.4874 19.5585 27.358 19.483 27.2268 19.4074L26.6471 19.1071Z" fill="#609543"/>
<path d="M10.275 22.5287C10.2466 22.6587 10.2413 22.7922 10.2253 22.9257C10.3423 22.8677 10.5054 22.8396 10.5675 22.7465C11.0035 22.0878 11.6878 21.9262 12.3986 21.8243C12.7017 21.7822 13.0137 21.8033 13.3204 21.7787C13.3806 21.7734 13.487 21.6786 13.4799 21.6399C13.4675 21.5679 13.3984 21.459 13.3381 21.4485C13.1803 21.4204 13.0172 21.4379 12.8559 21.4379C11.92 21.4713 11.0301 21.6259 10.3831 22.3934C10.3459 22.4391 10.2856 22.4778 10.275 22.5287Z" fill="#131715"/>
<path d="M11.4609 22.3601C10.9504 22.7535 10.8848 23.7758 11.4006 24.1552C12.1079 24.6751 12.8719 25.1195 13.6129 25.5955C13.6483 25.6149 13.6838 25.6359 13.721 25.6553C13.7582 25.664 13.7955 25.6728 13.8345 25.6816C14.134 25.8625 14.4354 26.0434 14.735 26.2261C14.9069 26.3052 15.0771 26.386 15.249 26.465C15.5468 26.6073 15.8464 26.7478 16.1442 26.8883C16.185 26.9059 16.2258 26.9252 16.2665 26.9428C16.4048 27.0095 16.5413 27.0763 16.6795 27.143C17.0713 27.3239 17.4648 27.5048 17.8584 27.684C18.1225 27.8157 18.3884 27.9457 18.6543 28.0774C18.6844 28.081 18.7128 28.0845 18.7429 28.088C18.773 28.0985 18.8032 28.1091 18.8333 28.1178C18.9202 28.1372 19.0088 28.1565 19.0957 28.1741C19.124 28.1776 19.1506 28.1811 19.179 28.1846C19.2392 28.1969 19.2995 28.2092 19.3616 28.2197C19.3881 28.2215 19.4165 28.2232 19.4449 28.225C19.5193 28.239 19.5955 28.2513 19.67 28.2654L19.7551 28.2707C19.9182 28.297 20.0812 28.3251 20.2443 28.3532L20.6857 28.427C20.9321 28.441 21.1803 28.4533 21.4267 28.4674C21.5029 28.4972 21.5809 28.5289 21.6571 28.5587C21.8521 28.6167 22.0471 28.7221 22.2439 28.7273C23.6389 28.7695 25.034 28.8134 26.4291 28.8134C27.95 28.8134 29.4691 28.7748 30.9883 28.7379C31.4598 28.7256 31.9083 28.6114 32.3018 28.3198C32.4755 28.1916 32.6794 28.1056 32.8708 27.9984C32.8886 28.0089 32.9045 28.0177 32.9222 28.0283C32.9222 28.0862 32.9222 28.146 32.924 28.2057C32.924 28.2531 32.924 28.2988 32.924 28.3462C32.9276 28.4252 32.9382 28.5043 32.9329 28.5816C32.9063 28.9434 32.7716 29.249 32.5854 29.5301L32.7716 29.6548C32.8903 29.4844 33.0056 29.314 33.1208 29.1436C33.1633 29.0804 33.1686 28.9926 33.1917 28.9153C33.2041 28.8837 33.2147 28.8538 33.2254 28.8222C33.1988 28.4428 33.1722 28.0634 33.1438 27.684C33.0286 27.4188 33.2697 27.338 33.4009 27.2027C33.5728 26.9779 33.7465 26.7548 33.9149 26.53C34.1578 26.205 34.2322 25.8537 34.0869 25.4673C34.039 25.3742 33.9894 25.2794 33.9415 25.1845C33.9362 25.1582 33.9309 25.1336 33.9273 25.1072C33.8919 25.0317 33.805 24.9298 33.8298 24.8877C33.9504 24.6734 34.0993 24.4749 34.2375 24.2694C34.5283 23.9198 34.8296 23.5773 35.1026 23.2155C35.3224 22.9274 35.3082 22.606 35.1575 22.2863C35.053 22.0615 34.9448 21.8402 34.8385 21.6171L34.7693 21.517C34.6488 21.401 34.53 21.2851 34.4113 21.1692C34.3723 21.0937 34.3315 21.0181 34.2907 20.9426C34.273 20.8723 34.2553 20.8003 34.2375 20.7283L34.2003 20.6387L34.1897 20.6018C34.1028 20.4561 34.0142 20.3085 33.9273 20.1627C33.922 20.1504 33.9185 20.1399 33.9167 20.1276C33.8032 19.9923 33.6916 19.8571 33.5799 19.7201C33.5639 19.692 33.548 19.6639 33.532 19.634C33.4718 19.5778 33.4115 19.5216 33.3495 19.4654C33.3229 19.4338 33.2963 19.4022 33.2697 19.3688C33.2254 19.3266 33.1811 19.2827 33.1367 19.2406C33.1208 19.2125 33.1031 19.1826 33.0853 19.1545C33.0853 19.0913 33.0623 19.0069 33.0942 18.9683C33.2466 18.7891 33.4133 18.6205 33.5764 18.4484C33.5888 18.4343 33.6012 18.4203 33.6153 18.4062C33.7058 18.2622 33.7979 18.1164 33.8901 17.9724C34.2305 17.3102 34.2712 16.6111 34.1613 15.8892C34.1347 15.7135 34.1578 15.5291 34.1578 15.3482C34.1595 15.3324 34.1596 15.3166 34.1613 15.3008C34.1613 14.967 34.156 14.6351 34.1666 14.3031C34.1684 14.2311 34.2198 14.1046 34.2641 14.0976C34.6789 14.0273 34.5265 13.7463 34.5017 13.5109C34.4432 13.4389 34.3847 13.3651 34.3262 13.2931L34.1897 13.4916C34.2056 13.5021 34.2198 13.5127 34.2358 13.5232C34.2074 13.5636 34.179 13.604 34.1507 13.6462C33.8387 13.4424 33.5285 13.2386 33.2183 13.0349C33.1899 13.0314 33.1633 13.0279 33.135 13.0244C33.1031 13.0156 33.0694 13.0068 33.0357 12.998L32.7007 12.9717C32.6386 12.9629 32.5784 12.9541 32.5181 12.9453C31.3871 12.7679 30.2544 12.7662 29.1182 12.8961C29.0153 12.9242 28.9125 12.9523 28.808 12.9804C28.4747 13.1473 28.1397 13.3124 27.8064 13.4793C27.7568 13.5162 27.7071 13.5531 27.6575 13.5917C27.6416 13.6058 27.6256 13.6216 27.6114 13.6356C27.5547 13.6813 27.4997 13.7287 27.443 13.7744C27.2463 13.9658 27.0406 14.1485 26.858 14.3505C26.812 14.4014 26.8368 14.5139 26.8279 14.5982C26.9236 14.5982 27.0424 14.6333 27.108 14.5894C27.2374 14.5016 27.3367 14.3698 27.4466 14.2557C27.4607 14.2434 27.4732 14.2293 27.4873 14.217C27.5033 14.2012 27.5192 14.1836 27.537 14.1678C27.5494 14.1555 27.5618 14.1432 27.576 14.1309C27.8649 13.95 28.1556 13.7673 28.4463 13.5864L28.5474 13.5179C28.815 13.4248 29.0792 13.265 29.3504 13.2509C30.1374 13.2088 30.928 13.2246 31.7169 13.2176C31.9544 13.2404 32.1919 13.2632 32.4295 13.2878C32.6493 13.3335 32.8708 13.3792 33.0906 13.4266C33.252 13.5127 33.4133 13.5987 33.5728 13.6865C33.587 13.6918 33.6012 13.6971 33.6136 13.7024C33.6597 13.741 33.7058 13.7796 33.7501 13.8165C33.961 14.2381 33.8848 14.6737 33.8157 15.1321C33.3778 14.4208 32.9488 13.7322 31.9934 13.7147C31.5059 13.7041 31.0202 13.6883 30.5327 13.683C30.2792 13.6813 30.0258 13.6988 29.7723 13.7076C29.5578 13.7656 29.3309 13.8007 29.1306 13.8885C28.909 13.9852 28.7122 14.1309 28.5031 14.2557C28.4109 14.3224 28.3187 14.3891 28.2265 14.4541C28.2141 14.4612 28.2017 14.4664 28.1875 14.4699C28.1468 14.5016 28.1042 14.5332 28.0617 14.5648C27.5476 15.1444 27.0087 15.7065 26.5301 16.316C26.3635 16.5268 26.2447 16.7815 26.149 17.0432C26.1153 17.1293 26.0852 17.2171 26.0568 17.3032C25.9735 17.5473 26.0444 17.8266 26.3316 17.9162C26.7606 18.0514 27.2002 18.1849 27.6469 18.2323C28.3222 18.3044 29.0083 18.3044 29.689 18.3342H30.9245C30.9422 18.3325 30.9582 18.3307 30.9759 18.3289C31.3251 18.2903 31.6779 18.2727 32.0235 18.2077C32.7042 18.083 33.1757 17.6316 33.6136 17.1398C33.688 17.0555 33.7731 16.98 33.9273 16.8271C33.9149 17.0028 33.9238 17.0695 33.9043 17.124C33.8068 17.3804 33.7075 17.6351 33.5994 17.8881C33.3069 18.5608 32.5695 19.0368 31.8569 19.0175C31.7966 19.0157 31.7364 19.014 31.6779 19.0122C31.5307 19.014 31.3854 19.0157 31.2382 19.0157C31.2241 19.0192 31.2099 19.021 31.1939 19.0228C31.1673 19.1088 31.1195 19.1984 31.1266 19.281C31.1301 19.3178 31.2489 19.3688 31.318 19.3705C31.6708 19.3828 32.0253 19.3811 32.378 19.3846C32.4029 19.3899 32.4259 19.3951 32.449 19.4004C32.4312 19.4232 32.4135 19.4443 32.3958 19.4671C32.2504 19.7271 32.0271 19.8624 31.731 19.8975C31.4155 19.9344 31.1017 19.98 30.788 20.024C30.7827 20.0714 30.7791 20.1188 30.7738 20.168C30.8412 20.2084 30.9068 20.2488 30.9723 20.2892C30.9883 20.2909 31.0025 20.2927 31.0184 20.2945C31.0911 20.298 31.1638 20.2997 31.2365 20.3015H31.4598C31.7417 20.226 32.0235 20.1522 32.3054 20.0767C32.4738 19.8887 32.6369 19.6937 32.8159 19.5146C32.8425 19.4882 32.9417 19.5304 33.0073 19.5409C33.1403 19.6955 33.2892 19.8395 33.4026 20.0046C33.5799 20.2628 33.7341 20.5368 33.899 20.8038C33.9167 20.8548 33.9344 20.904 33.9539 20.9549C33.9592 20.9953 33.9646 21.0374 33.9699 21.0778C33.9734 21.1077 33.9752 21.1358 33.9787 21.1657C33.977 21.3835 33.9752 21.6013 33.9734 21.8208C33.9486 21.9543 33.9575 22.1054 33.8954 22.2178C33.5923 22.7535 33.2892 23.2875 32.9488 23.7986C32.8301 23.9761 32.6049 24.085 32.4295 24.2255C32.2823 24.3186 32.1494 24.4415 31.9898 24.496C31.2613 24.7419 30.5061 24.8525 29.735 24.8402C29.6606 24.8525 29.5879 24.8666 29.5135 24.8806C29.3823 24.8842 29.2529 24.8877 29.1217 24.8912C29.0916 24.8965 29.0597 24.9017 29.0278 24.9087C28.8806 24.9105 28.7353 24.9123 28.5899 24.9158C28.1468 24.9035 27.7036 24.8982 27.2622 24.8771C27.1293 24.8701 26.9981 24.8209 26.8669 24.7893C26.367 24.7577 25.8689 24.7243 25.3708 24.6927C25.291 24.6751 25.2095 24.6558 25.1297 24.6382C24.5306 24.6066 23.9314 24.5768 23.3323 24.5452C23.0646 24.5153 22.7952 24.4872 22.5275 24.4573C22.4725 24.4538 22.4158 24.4485 22.3609 24.4433C22.0081 24.3976 21.6553 24.3519 21.3026 24.308C21.1537 24.2799 21.0066 24.2536 20.8594 24.2272C20.2674 24.1131 19.6753 24.0006 19.0832 23.8882C19.0567 23.8847 19.0301 23.883 19.0053 23.8794C18.9716 23.8847 18.9361 23.8988 18.906 23.8935C18.2412 23.7635 17.5765 23.6335 16.9135 23.4965C16.754 23.4632 16.5998 23.3982 16.4438 23.349C15.8695 23.2032 15.2969 23.0574 14.7226 22.9116L13.9249 22.6587C13.2194 22.5252 12.5138 22.3829 11.8048 22.2635C11.6967 22.2442 11.5478 22.2916 11.4591 22.3601H11.4609ZM11.452 23.3367C11.4201 23.0047 11.7339 22.6271 12.0671 22.6517C12.3791 22.6763 12.6929 22.7237 12.9925 22.808C13.7529 23.0205 14.4992 23.2963 15.2668 23.4807C16.3073 23.7319 17.362 23.9286 18.415 24.1359C19.2162 24.294 20.021 24.445 20.8275 24.5803C22.4761 24.8525 24.1282 25.0774 25.8033 25.1055C27.1878 25.1283 28.5704 25.2021 29.9548 25.2284C30.7543 25.2442 31.529 25.109 32.254 24.7524C33.0038 24.3818 33.4913 23.767 33.8387 23.0398C34.0567 22.5849 34.2287 22.1089 34.4237 21.6311C34.936 21.9227 35.0902 22.8326 34.6825 23.3297C34.4095 23.6599 34.0656 23.9392 33.8316 24.2922C33.4469 24.8754 32.9453 25.3285 32.3993 25.7413C32.1972 25.8941 31.9827 26.1067 31.7559 26.1348C31.0291 26.2226 30.2952 26.2648 29.5631 26.2718C28.8239 26.2806 28.0829 26.2191 27.342 26.2033C26.6985 26.191 26.0515 26.2296 25.408 26.1892C24.6653 26.1418 23.9119 26.1014 23.1905 25.9363C21.9904 25.6605 20.7885 25.462 19.5583 25.4972C18.3529 25.5305 17.2503 25.1283 16.1407 24.7507C15.6993 24.6014 15.2597 24.4468 14.82 24.294C14.4354 24.1605 14.0436 24.0498 13.6732 23.8865C13.4374 23.7828 13.2442 23.5914 13.019 23.4632C12.9535 23.4263 12.8418 23.4719 12.7514 23.479C12.7886 23.5598 12.8028 23.6669 12.8648 23.7143C13.3151 24.0604 13.7884 24.366 14.3468 24.5276C15.1391 24.7594 15.9368 24.9825 16.7079 25.2723C17.6758 25.6359 18.6596 25.8274 19.6966 25.8608C20.5864 25.8906 21.4745 26.0188 22.3591 26.1365C23.467 26.2841 24.5642 26.523 25.6739 26.6178C26.7269 26.7074 27.7905 26.6881 28.8487 26.667C29.6819 26.6512 30.5132 26.544 31.3481 26.5142C31.7824 26.4984 32.1458 26.3526 32.4755 26.0944C32.7858 25.8502 33.0853 25.5938 33.4062 25.3654C33.4682 25.3198 33.6738 25.3426 33.6969 25.3883C33.8582 25.7308 33.8742 26.0926 33.6437 26.4053C33.3317 26.8251 33.0304 27.2677 32.6422 27.6085C32.3018 27.9053 31.8604 28.2373 31.4421 28.2689C29.8113 28.3971 28.1733 28.427 26.5372 28.4639C25.6863 28.4832 24.8319 28.4551 23.9811 28.4165C23.2685 28.3848 22.5576 28.3216 21.8486 28.2443C21.2601 28.1793 20.6768 28.0722 20.0901 27.9844C19.7161 27.9264 19.3137 27.9352 18.9698 27.7982C18.0888 27.4434 17.2237 27.0464 16.3711 26.6283C15.4227 26.1629 14.4886 25.6675 13.5615 25.1617C13.0545 24.8842 12.583 24.5487 12.0831 24.2624C11.7126 24.0498 11.4946 23.7618 11.452 23.3367ZM26.6258 17.6123C26.5407 17.5737 26.4557 17.3998 26.4698 17.2996C26.5496 16.7182 26.975 16.3494 27.3579 15.9577C27.3739 15.9471 27.3881 15.9366 27.4022 15.9261C27.4129 15.9138 27.4253 15.9032 27.4359 15.8927C27.4483 15.8839 27.459 15.8734 27.4714 15.8646L27.4802 15.8593C27.5122 15.8189 27.5441 15.7785 27.576 15.7399C27.5919 15.7487 27.6096 15.7574 27.6274 15.768C27.6043 15.8189 27.5831 15.8699 27.56 15.919C27.3012 16.518 27.1753 17.1328 27.3668 17.8248C27.0832 17.7475 26.8421 17.7089 26.6258 17.6123ZM28.3293 16.0543C28.3222 16.0016 28.3152 15.9489 28.3098 15.8962C28.4109 15.8154 28.5137 15.6714 28.6165 15.6731C28.7246 15.6731 28.8328 15.8101 28.9391 15.8874C28.8399 15.9981 28.7583 16.1421 28.6325 16.2036C28.5704 16.2335 28.4322 16.1087 28.3293 16.0543ZM28.7087 17.4683C28.5545 17.3049 28.4641 17.2101 28.3754 17.1152C28.4889 17.0256 28.5917 16.8992 28.7211 16.8605C28.7831 16.843 28.9746 17.0063 28.9657 17.0678C28.948 17.1855 28.831 17.2891 28.7087 17.4683ZM28.6785 14.7176C28.6927 14.6807 28.7087 14.6438 28.7229 14.6069C29.0632 14.4295 29.3858 14.1801 29.7457 14.0976C30.1817 14.001 30.6515 14.0466 31.1071 14.0291C31.1496 14.0326 31.1939 14.0343 31.2382 14.0361C31.4722 14.0431 31.7044 14.0501 31.9367 14.0572C32.3213 14.159 32.7999 14.0853 32.9648 14.5964V14.6017C32.9967 14.6438 33.0251 14.686 33.0552 14.7281L33.9167 15.8664C33.8919 15.8945 33.8671 15.9243 33.8422 15.9524C33.5143 15.8224 33.1775 15.7065 32.8567 15.559C32.4312 15.3622 32.0182 15.1392 31.6016 14.9284C31.3251 14.9108 31.0486 14.8985 30.7738 14.8704C30.6338 14.8564 30.4955 14.8089 30.3555 14.7773C30.281 14.7738 30.2083 14.7703 30.1339 14.7668C30.0612 14.7633 29.9903 14.7598 29.9176 14.7563C29.6074 14.7457 29.2954 14.7352 28.9852 14.7229C28.8824 14.7211 28.7814 14.7194 28.6785 14.7176ZM30.4955 17.0502C30.0772 17.0502 29.946 16.9466 29.9761 16.5953C29.9956 16.3617 30.0063 16.0859 30.375 16.0929C30.8465 16.1017 30.9192 16.1755 30.9316 16.6269C30.9422 16.9624 30.7898 17.0906 30.4955 17.0502ZM31.1248 15.2551C31.3109 15.2674 31.4084 15.2498 31.4811 15.2832C32.1919 15.6117 32.9027 15.9419 33.6029 16.2897C33.6473 16.3125 33.6632 16.5198 33.6153 16.5742C33.3672 16.857 33.1013 17.1275 32.8265 17.384C32.3887 17.7932 31.8427 17.9039 31.3552 17.9232C31.4651 17.4858 31.6264 17.045 31.6779 16.5918C31.7328 16.1105 31.5006 15.6837 31.1248 15.2551Z" fill="#131715"/>
<path d="M11.4291 20.4051C11.3262 20.4402 11.2713 20.6106 11.1951 20.7195C11.3085 20.7371 11.4291 20.7845 11.5372 20.7652C11.9431 20.6949 12.3473 20.6089 12.7479 20.5123C12.833 20.4912 12.8986 20.3946 12.9713 20.3331C12.8862 20.2874 12.8046 20.2242 12.7124 20.1996C12.6309 20.1768 12.5387 20.1943 12.4501 20.1943C12.4448 20.1768 12.4412 20.1592 12.4359 20.1416C12.0991 20.2259 11.7552 20.2909 11.4291 20.4051Z" fill="#131715"/>
<path d="M12.0673 22.6517C11.734 22.6271 11.4203 23.0047 11.4522 23.3367C11.4947 23.7618 11.7128 24.0498 12.0833 24.2624C12.5831 24.5487 13.0547 24.8841 13.5616 25.1617C14.4887 25.6675 15.4229 26.1629 16.3713 26.6283C17.2239 27.0464 18.089 27.4433 18.97 27.7982C19.3139 27.9352 19.7162 27.9264 20.0903 27.9843C20.677 28.0722 21.2602 28.1793 21.8487 28.2443C22.5578 28.3216 23.2686 28.3848 23.9812 28.4164C24.8321 28.4551 25.6865 28.4832 26.5374 28.4639C28.1735 28.427 29.8114 28.3971 31.4423 28.2689C31.8606 28.2373 32.302 27.9053 32.6423 27.6085C33.0305 27.2677 33.3319 26.8251 33.6439 26.4053C33.8743 26.0926 33.8584 25.7308 33.6971 25.3883C33.674 25.3426 33.4684 25.3198 33.4063 25.3654C33.0855 25.5938 32.7859 25.8502 32.4757 26.0944C32.146 26.3526 31.7826 26.4984 31.3483 26.5142C30.5134 26.544 29.682 26.6512 28.8489 26.667C27.7906 26.6881 26.727 26.7074 25.6741 26.6178C24.5644 26.5229 23.4671 26.2841 22.3592 26.1365C21.4747 26.0188 20.5866 25.8906 19.6967 25.8608C18.6597 25.8274 17.6759 25.6359 16.7081 25.2723C15.937 24.9825 15.1393 24.7594 14.3469 24.5276C13.7885 24.366 13.3152 24.0604 12.865 23.7143C12.8029 23.6669 12.7888 23.5598 12.7515 23.479C12.8419 23.4719 12.9536 23.4263 13.0192 23.4632C13.2443 23.5914 13.4375 23.7828 13.6733 23.8865C14.0438 24.0498 14.4355 24.1605 14.8202 24.294C15.2598 24.4468 15.6994 24.6014 16.1408 24.7507C17.2505 25.1283 18.3531 25.5305 19.5585 25.4972C20.7887 25.462 21.9905 25.6605 23.1906 25.9363C23.9121 26.1014 24.6654 26.1418 25.4082 26.1892C26.0517 26.2296 26.6987 26.191 27.3421 26.2033C28.0831 26.2191 28.8241 26.2806 29.5633 26.2718C30.2954 26.2647 31.0292 26.2226 31.756 26.1348C31.9829 26.1067 32.1974 25.8941 32.3995 25.7413C32.9455 25.3285 33.4471 24.8754 33.8318 24.2922C34.0658 23.9392 34.4097 23.6599 34.6826 23.3297C35.0903 22.8326 34.9361 21.9227 34.4238 21.6311C34.2288 22.1089 34.0569 22.5849 33.8389 23.0398C33.4914 23.767 33.0039 24.3818 32.2541 24.7524C31.5291 25.109 30.7545 25.2442 29.955 25.2284C28.5706 25.2021 27.1879 25.1283 25.8035 25.1055C24.1283 25.0774 22.4762 24.8525 20.8277 24.5803C20.0211 24.445 19.2164 24.294 18.4151 24.1359C17.3622 23.9286 16.3075 23.7319 15.2669 23.4807C14.4994 23.2963 13.7531 23.0205 12.9926 22.808C12.693 22.7237 12.3793 22.6762 12.0673 22.6517Z" fill="#933E21"/>
<path d="M11.9166 14.5947C11.8812 15.0039 12.0815 15.3499 12.4927 15.2867C12.8632 15.2305 13.1663 15.3482 13.4801 15.4887C13.5421 15.5291 13.6024 15.5677 13.6644 15.6064C13.6928 15.6152 13.7194 15.6222 13.7477 15.6292C13.7637 15.638 13.7797 15.645 13.7956 15.6521C13.8754 15.6837 13.9587 15.7135 14.0367 15.7504C14.6482 16.0244 15.258 16.302 15.8678 16.5777C15.937 16.6252 16.0114 16.6691 16.0788 16.72C16.2862 16.8798 16.4687 17.0941 16.7027 17.1943C17.2168 17.4121 17.7575 17.5684 18.2839 17.7598C18.5729 17.8635 18.8547 17.9847 19.1401 18.0988L19.4007 18.199C19.4184 18.199 19.4344 18.199 19.4503 18.199C20.2285 18.3149 21.0085 18.4308 21.7867 18.5467C21.8044 18.5538 21.8239 18.5608 21.8416 18.5678L21.9586 18.5731C21.9763 18.5678 21.9941 18.5608 22.0118 18.5538C22.1146 18.552 22.2174 18.5485 22.3202 18.545C22.5276 18.5309 22.7333 18.5169 22.9407 18.5046C23.5327 18.3219 24.123 18.134 24.7186 17.9654C24.8214 17.9355 25.0412 17.9689 25.0448 17.9987C25.0678 18.1357 25.0873 18.3289 25.0093 18.4168C24.6282 18.8489 24.1248 19.0913 23.554 19.1931H23.2012C23.0701 19.1791 22.9371 19.1668 22.8042 19.1545C22.7758 19.1527 22.7457 19.151 22.7155 19.1492C21.48 19.0649 20.2427 18.9806 19.0072 18.8963C18.977 18.8928 18.9487 18.8893 18.9185 18.8857C18.876 18.8857 18.8317 18.8822 18.7891 18.8805C18.7005 18.8682 18.6101 18.8576 18.5197 18.8454C18.3903 18.8383 18.2609 18.8331 18.1315 18.826C18.0836 18.8155 18.0375 18.8067 17.9914 18.7962C17.9631 18.7944 17.9365 18.7909 17.9081 18.7874L17.7699 18.7558C17.7415 18.7523 17.7149 18.7505 17.6865 18.747C17.6369 18.7259 17.5855 18.7066 17.5359 18.6855C17.4986 18.6767 17.4596 18.6679 17.4207 18.6609C17.3852 18.6398 17.3497 18.6205 17.3143 18.6012C17.2611 18.5924 17.2079 18.5819 17.1565 18.5731C17.0626 18.5362 16.9704 18.4976 16.8782 18.4607C16.5999 18.2903 16.3057 18.1445 16.0504 17.9478C15.5984 17.5982 15.1694 17.2188 14.7316 16.8517C14.6447 16.9062 14.5596 16.9606 14.4745 17.0151C14.6199 17.1539 14.7546 17.3067 14.9141 17.4279C15.586 17.939 16.0876 18.6802 16.9669 18.9086C17.0023 18.9261 17.0395 18.9437 17.075 18.9613C17.1264 18.9736 17.1796 18.9859 17.231 18.9982C17.4153 19.0351 17.5979 19.0807 17.784 19.1071C18.3389 19.1844 18.8937 19.2529 19.4486 19.3249C19.6825 19.3372 19.9183 19.3495 20.1541 19.3618L20.287 19.367C20.3313 19.3705 20.3739 19.3723 20.4164 19.3741C20.4767 19.3863 20.537 19.3986 20.5955 19.4109C20.8135 19.439 21.0315 19.4654 21.2496 19.4917C21.2974 19.497 21.3435 19.5005 21.3914 19.504C21.8593 19.5128 22.3273 19.5198 22.7953 19.5269C22.8414 19.5356 22.8892 19.5444 22.9353 19.555C22.9637 19.555 22.9903 19.5567 23.0186 19.5585H23.3962C23.4139 19.5848 23.4299 19.6129 23.4476 19.6393C23.3058 19.7693 23.1658 19.8975 23.0257 20.0275C22.3344 20.8073 21.5225 21.3993 20.4731 21.6153C20.3366 21.6645 20.1984 21.7154 20.0619 21.7664C19.9874 21.798 19.9148 21.8296 19.8403 21.8612L19.7978 21.8929C19.3316 22.0141 18.8671 22.1335 18.4045 22.2652C18.3477 22.281 18.2715 22.3741 18.2768 22.4251C18.2822 22.476 18.3797 22.5603 18.4311 22.5568C18.7218 22.5357 19.0231 22.534 19.2961 22.4479C19.8403 22.2775 20.3668 22.0562 20.8986 21.856C21.1237 21.7752 21.3488 21.6961 21.5739 21.6153C21.6023 21.6101 21.6289 21.6065 21.6573 21.6013C21.6874 21.589 21.7158 21.5749 21.7459 21.5626C22.026 21.3571 22.3078 21.1516 22.5879 20.9479C22.6021 20.9373 22.618 20.9268 22.6322 20.9162C22.673 20.8934 22.712 20.8723 22.7528 20.8495C22.7847 20.8249 22.8183 20.7986 22.8502 20.7722C22.9619 20.6264 23.0754 20.4806 23.1888 20.3349C23.1941 20.3278 23.2012 20.319 23.2083 20.312C23.2562 20.2611 23.3058 20.2119 23.3537 20.1627C23.3625 20.1557 23.3732 20.1469 23.382 20.1399C23.4512 20.0766 23.515 20.0081 23.5859 19.9502C23.85 19.7341 24.1141 19.5198 24.38 19.3056C24.4704 19.2529 24.5626 19.1984 24.6548 19.1457C24.8551 19.0122 25.0483 18.8664 25.2575 18.7523C25.6067 18.5643 25.5766 17.881 25.2433 17.6422C25.0395 17.4964 24.8728 17.2663 24.7541 17.0414C24.6211 16.7903 24.5591 16.5022 24.4669 16.2299C24.4563 16.2124 24.4456 16.1948 24.4368 16.1772C24.419 16.1228 24.3995 16.0666 24.3818 16.0104L24.3499 15.9577C24.1567 15.5309 23.8872 15.1901 23.5593 14.9091C23.2331 14.6298 22.8502 14.4102 22.4301 14.2311C22.1376 14.1046 21.8505 13.9606 21.5722 13.8042C21.1538 13.5671 20.7479 13.3089 20.3349 13.0612C20.1736 12.9875 20.0105 12.9137 19.8474 12.8399L19.5017 12.782C19.4539 12.7714 19.4078 12.7626 19.3617 12.7521C19.2748 12.7451 19.1897 12.738 19.1047 12.731C19.0728 12.724 19.0391 12.717 19.0072 12.7099C18.4789 12.7222 17.9489 12.7345 17.4207 12.7468C17.4029 12.7486 17.3852 12.7486 17.3692 12.7503C16.4812 12.8013 15.6126 12.9558 14.767 13.2246C14.0367 13.4564 13.4553 13.878 13.0369 14.5314C12.9199 14.7141 12.6806 14.823 12.4856 14.9442C12.4644 14.9582 12.3066 14.8406 12.2977 14.7738C12.2428 14.3733 12.5158 14.1362 12.7817 13.9008C12.8242 13.8569 12.8685 13.813 12.9111 13.7691H12.9128C12.9536 13.7234 12.9961 13.6778 13.0387 13.6321C13.1273 13.5443 13.2142 13.4564 13.3028 13.3686C13.4056 13.2667 13.5067 13.1631 13.6095 13.0595C13.9622 12.868 14.3132 12.6766 14.666 12.4834C14.9071 12.4201 15.1481 12.3551 15.3892 12.2919C15.6161 12.2761 15.8412 12.2515 16.0664 12.2462C16.7595 12.2269 17.4543 12.197 18.1474 12.2058C18.8299 12.2164 19.5265 12.0688 20.1895 12.3499L20.5139 12.4921C20.7603 12.5729 21.0067 12.652 21.2531 12.7328C21.3276 12.7591 21.4038 12.7855 21.4782 12.8118C21.6537 12.9014 21.8292 12.991 22.0029 13.0806C22.065 13.121 22.1252 13.1596 22.1855 13.2C22.7208 13.6901 23.2473 14.1907 23.788 14.6755C23.967 14.8388 24.1478 14.9986 24.3322 15.1567C24.8781 15.6275 25.2788 16.1562 25.3585 16.8921C25.3692 16.9887 25.4773 17.0748 25.5411 17.1679C25.573 17.0924 25.6227 17.0168 25.6546 16.9413C25.6758 16.8956 25.69 16.8482 25.6882 16.8026C25.6829 16.5812 25.6191 16.3599 25.5801 16.1386C25.5057 16.0069 25.433 15.8716 25.3603 15.7399C25.3514 15.7223 25.3408 15.7065 25.3319 15.6889C24.9756 15.3131 24.6176 14.9354 24.2595 14.5595C24.2294 14.5314 24.1975 14.5033 24.1673 14.4735C24.123 14.4313 24.0769 14.3891 24.0326 14.347L23.9901 14.2996C23.6728 14.0203 23.3324 13.7621 23.0435 13.4582C22.6074 12.9962 22.1217 12.6344 21.5013 12.4623C21.34 12.4184 21.1875 12.3393 21.0315 12.2778L21.0528 12.1935C21.6626 12.1935 22.2724 12.1707 22.8804 12.2006C23.3767 12.2252 23.7029 12.5817 24.0361 12.8996C24.1248 12.9998 24.2134 13.1016 24.302 13.2018C24.5981 13.4933 24.8941 13.7832 25.1901 14.0747C25.2344 14.1766 25.2788 14.2785 25.3249 14.3821C25.3656 14.8195 25.4064 15.2568 25.4472 15.6925C25.5074 15.7978 25.5695 15.9032 25.6297 16.0086C25.7042 15.963 25.846 15.9155 25.846 15.8716C25.8407 15.422 25.8141 14.9741 25.7928 14.5261C25.745 14.4014 25.6989 14.2785 25.6528 14.1555C25.6457 14.1134 25.6368 14.073 25.6297 14.0308C25.6032 14.001 25.5748 13.9711 25.5464 13.9412C25.4933 13.8833 25.4454 13.813 25.3833 13.7656C24.9473 13.4301 24.7115 13.0156 24.7895 12.4482C24.8055 12.3305 24.7239 12.1988 24.6885 12.0741C24.6264 11.9511 24.5626 11.8282 24.5006 11.7052C24.3871 11.4927 24.2754 11.2802 24.162 11.0659C24.0078 10.827 23.8536 10.5881 23.6993 10.351C23.6196 10.2245 23.538 10.098 23.4565 9.97158L23.3767 9.87673C23.1888 9.68176 23.0027 9.48854 22.8148 9.29357L22.8361 9.17238C23.6355 9.01254 24.4332 8.8527 25.2327 8.69286C25.2486 8.69286 25.2646 8.6911 25.2788 8.6911C25.7184 8.69812 26.1562 8.70339 26.5941 8.71042C26.6561 8.72272 26.7164 8.73677 26.7766 8.74906C27.2464 8.85094 27.7179 8.95106 28.1877 9.05294C28.2178 9.06347 28.2497 9.07577 28.2798 9.08631C28.3064 9.09333 28.3348 9.10036 28.3614 9.10563C28.8985 9.15305 29.3168 9.4499 29.737 9.74323C30.703 10.3633 31.7205 10.9306 32.2913 12.0917C32.0556 12.0548 31.8943 12.0302 31.7312 12.0056C31.6851 11.9968 31.639 11.988 31.5929 11.9775C30.5151 11.9564 29.4462 11.9828 28.4252 12.3832C28.3472 12.4236 28.271 12.4623 28.1948 12.5027C28.1664 12.5958 28.138 12.6889 28.0866 12.8592C28.2905 12.8171 28.4412 12.7978 28.583 12.7556C28.824 12.6836 29.0598 12.5958 29.2991 12.515C29.3417 12.5115 29.3842 12.5062 29.4285 12.5027C29.4693 12.4992 29.5101 12.4939 29.5526 12.4904C29.6164 12.4711 29.682 12.4535 29.7458 12.4342C29.7742 12.4324 29.8008 12.4289 29.8274 12.4254C29.8752 12.4149 29.9213 12.4043 29.9674 12.3938C30.5364 12.3815 31.1037 12.3709 31.6709 12.3586C31.7188 12.3657 31.7649 12.3727 31.8127 12.378C31.9262 12.3867 32.0414 12.3938 32.1566 12.4026C32.1885 12.4113 32.2204 12.4184 32.2523 12.4271C32.6334 12.601 33.0128 12.7732 33.3939 12.9471C33.6598 13.128 33.9275 13.3089 34.1916 13.4898L34.3281 13.2913C34.2359 13.2053 34.1455 13.121 34.0551 13.0366C33.9222 12.9506 33.7874 12.8645 33.6545 12.7802C33.3691 12.6168 33.0642 12.4798 32.8072 12.2796C32.66 12.1654 32.5927 11.9476 32.4845 11.7808C32.3941 11.6402 32.2984 11.505 32.2062 11.368C32.0556 11.1941 31.9067 11.022 31.7578 10.8498C31.7294 10.82 31.6993 10.7901 31.6709 10.7602C31.584 10.6707 31.4972 10.5828 31.4086 10.495C31.3518 10.4616 31.2969 10.43 31.2402 10.3984C31.2065 10.3756 31.1728 10.3527 31.1373 10.3281C30.7598 10.0805 30.3822 9.83457 30.0064 9.58339C29.9638 9.55353 29.9319 9.49557 29.9124 9.44287C29.7901 9.12495 29.6714 8.80351 29.5526 8.48208C29.5154 8.43465 29.4764 8.38723 29.4391 8.33805C29.3168 8.122 29.1963 7.90419 29.0758 7.68639C28.9446 7.48264 28.8152 7.27888 28.684 7.07513C28.6592 7.02244 28.6361 6.96798 28.6113 6.91529C28.5741 6.86786 28.5369 6.81868 28.4996 6.77126H28.4979C28.3082 6.50779 28.1168 6.24607 27.9253 5.98435C27.92 5.97206 27.9147 5.96152 27.9111 5.94922C27.7356 5.77709 27.5584 5.60495 27.3811 5.43282C26.9982 5.21677 26.6136 4.99896 26.2307 4.78291C26.2059 4.77238 26.1828 4.76184 26.1598 4.7513C26.1438 4.739 26.1261 4.72671 26.1101 4.71441C25.6032 4.44216 25.0554 4.32974 24.4828 4.32447C24.0415 4.3192 23.6001 4.31569 23.1587 4.31042C22.6145 4.39122 22.0933 4.53349 21.6608 4.89357C21.2318 5.22906 20.8064 5.56982 20.3668 5.89126C20.2994 5.94044 20.1647 5.89828 20.0601 5.89828C19.8846 5.69629 19.7109 5.49254 19.5354 5.29054C19.5053 5.27298 19.4751 5.25717 19.445 5.2396C19.3865 5.19569 19.328 5.15353 19.2677 5.10962C18.993 4.9287 18.7165 4.74603 18.4399 4.56511C18.2733 4.48607 18.1067 4.40527 17.94 4.32447C17.6936 4.2911 17.4472 4.25773 17.2008 4.2226C17.1246 4.21206 17.0502 4.20152 16.9739 4.19098C16.373 4.19098 15.7703 4.19098 15.1694 4.19098V4.4C15.5629 4.4 15.9582 4.42108 16.3535 4.45796C16.4439 4.4685 16.5326 4.47904 16.623 4.48958C17.4791 4.57214 18.3389 4.6424 19.0054 5.28527L19.1064 5.35904C19.5815 5.65765 19.9059 6.07569 20.1186 6.58683L20.3579 7.04C20.3951 7.21214 20.4377 7.38427 20.4696 7.55641C20.505 7.7426 20.4182 7.80056 20.2374 7.77597C19.9928 7.74435 19.7464 7.72503 19.5017 7.70044C19.3369 7.67761 19.172 7.65477 19.0089 7.63369C17.644 7.55641 16.2862 7.50371 14.9496 7.91122C14.0083 8.19928 13.4216 8.95984 12.6664 9.49381C12.6292 9.52016 12.6381 9.60799 12.6239 9.66771C12.709 9.67473 12.8153 9.71864 12.8774 9.68351C13.0972 9.55705 13.3188 9.42355 13.5102 9.2602C14.1076 8.75082 14.7103 8.29238 15.5151 8.11146C16.646 7.85852 17.7787 7.94284 18.9132 7.96216C19.4751 8.04471 20.0353 8.12727 20.5972 8.20982L20.6823 8.22036C20.7 8.2309 20.716 8.24319 20.7337 8.25373C20.7621 8.26779 20.7922 8.28359 20.8206 8.29765L20.9057 8.3398C20.9783 8.37317 21.0492 8.4083 21.1219 8.44168C21.1538 8.46627 21.1875 8.49086 21.2212 8.51545C21.2318 8.51896 21.2442 8.52248 21.2549 8.52599L21.3931 8.60503C21.4055 8.60854 21.418 8.61206 21.4304 8.61733L21.8292 8.91769C21.8629 8.94403 21.8948 8.97038 21.9285 8.99497L22.1891 9.21629C22.2458 9.27777 22.3025 9.33749 22.3592 9.39721C22.478 9.51313 22.5968 9.63082 22.7155 9.74675C22.7457 9.77485 22.774 9.80471 22.8042 9.83282C22.8627 9.89254 22.9212 9.95226 22.9796 10.0102C23.2012 10.3299 23.4246 10.6478 23.6479 10.9675C23.9103 11.4505 24.1744 11.9318 24.4385 12.4149V12.6906C24.3818 12.6713 24.3233 12.6502 24.2666 12.6291C24.1957 12.5694 24.1301 12.4992 24.0521 12.4482C23.7738 12.2638 23.4919 12.0864 23.2101 11.9055C23.164 11.8967 23.1179 11.8879 23.0701 11.8791C22.9992 11.8756 22.9282 11.8703 22.8573 11.8668C22.7811 11.8545 22.7049 11.844 22.6304 11.8317C22.5117 11.8229 22.3947 11.8141 22.2759 11.8054C22.26 11.8141 22.244 11.8247 22.2263 11.8335C21.7122 11.837 21.1981 11.8405 20.6841 11.8422C20.622 11.8317 20.5618 11.8212 20.4997 11.8124C20.0761 11.8229 19.6524 11.8335 19.227 11.844C19.2128 11.844 19.1986 11.8457 19.1827 11.8457C18.0358 11.8493 16.8871 11.8528 15.7384 11.8563C15.531 11.8914 15.3218 11.9265 15.1127 11.9617C14.3717 12.1162 13.6839 12.3692 13.1681 12.9576C13.0635 13.077 12.9376 13.1789 12.8207 13.2878C12.7196 13.3897 12.6168 13.4933 12.514 13.5952C12.3066 13.9219 11.9574 14.1432 11.9166 14.5947ZM13.262 15.0162C13.3099 14.8968 13.3383 14.7633 13.4109 14.6596C13.7052 14.2346 14.0615 13.8727 14.5756 13.7094C14.9957 13.5741 15.414 13.4371 15.8324 13.3019C15.8607 13.2984 15.8873 13.2949 15.9157 13.2913C15.9618 13.2808 16.0079 13.2685 16.0539 13.258C16.0947 13.2527 16.1373 13.2492 16.1798 13.2457C16.2401 13.2334 16.3003 13.2228 16.3624 13.2123C16.5361 13.1965 16.7116 13.1807 16.8871 13.1649C16.9757 13.1596 17.0644 13.1561 17.153 13.1508C17.2079 13.1508 17.2647 13.1508 17.3196 13.1508C17.3657 13.121 17.4118 13.0612 17.4561 13.063C18.1918 13.0788 18.9274 13.0858 19.6595 13.1385C19.8332 13.1508 19.9928 13.3212 20.1594 13.4178C20.2143 13.4389 20.2693 13.4582 20.326 13.4793C20.3597 13.5004 20.3934 13.5232 20.4271 13.546C20.4395 13.546 20.4501 13.5531 20.4625 13.5566C20.4944 13.5829 20.5281 13.6075 20.5618 13.6321C21.0758 13.9325 21.5899 14.2328 22.1235 14.5455C21.9232 14.5753 21.7299 14.6245 21.5367 14.6263C20.209 14.6386 18.8795 14.6386 17.5501 14.6438H17.1512C17.0927 14.6438 17.0342 14.6438 16.9757 14.6473C16.9456 14.6491 16.9155 14.6509 16.8871 14.6526L16.8073 14.6579C16.7896 14.679 16.7719 14.7176 16.7524 14.7194C16.2968 14.7422 15.8412 14.7633 15.3839 14.7826C15.3254 14.7914 15.2651 14.8002 15.2066 14.8089C14.9709 14.8423 14.7369 14.8757 14.5029 14.9073C14.2654 14.9863 14.0349 15.0988 13.7921 15.1286C13.6237 15.1497 13.4393 15.0584 13.262 15.018V15.0162ZM14.2104 15.4079C14.2122 15.3816 14.2157 15.357 14.2175 15.3324C15.118 15.2323 16.0167 15.1339 16.8889 15.0373C16.6283 15.4536 16.373 15.8628 16.1514 16.2159C15.5275 15.9559 14.8698 15.6819 14.2104 15.4079ZM17.4171 15.7258L17.4065 15.5625C17.5412 15.4764 17.6759 15.3289 17.8142 15.3254C17.9134 15.3218 18.018 15.5115 18.1208 15.6134C17.9985 15.7135 17.8869 15.8558 17.7468 15.8962C17.66 15.9208 17.5288 15.7891 17.4171 15.7258ZM17.6865 16.7393C17.6688 16.5602 17.7326 16.3705 17.9826 16.4038C18.0748 16.4161 18.1598 16.4864 18.2485 16.5285C18.2556 16.5848 18.2627 16.6427 18.268 16.6989C18.1652 16.7727 18.0694 16.8921 17.9578 16.9079C17.8727 16.9202 17.6954 16.8096 17.6865 16.7393ZM19.7375 16.9571C19.3369 16.9536 19.1756 16.7762 19.1844 16.3511C19.1897 16.0578 19.5726 15.7539 19.9573 15.7891C20.3597 15.8259 20.5476 15.9471 20.505 16.2703C20.498 16.7182 20.225 16.9624 19.7375 16.9571ZM20.5494 6.59385C20.3845 6.34092 20.404 6.16 20.6876 5.98787C20.9943 5.80519 21.2584 5.55577 21.558 5.3608C21.9125 5.12894 22.2653 4.80926 22.6588 4.73725C23.2792 4.62307 23.9298 4.68631 24.5679 4.67226C25.6262 4.64942 26.4416 5.22204 27.2694 5.75952C27.4432 5.95098 27.6169 6.14244 27.7906 6.33565C27.9572 6.57804 28.1239 6.8222 28.2905 7.06635L28.4979 7.34036C28.5032 7.3509 28.5085 7.36144 28.5103 7.37373C28.5369 7.40711 28.5617 7.43872 28.5865 7.4721C28.6237 7.55465 28.661 7.63545 28.6982 7.718C28.7354 7.76543 28.7744 7.81461 28.8116 7.86204C29.0563 8.26779 29.2991 8.67178 29.5366 9.06699C28.6344 8.83337 27.7729 8.60854 26.9114 8.38547C26.8635 8.37669 26.8156 8.36615 26.7678 8.35737C26.7128 8.35385 26.6579 8.35034 26.6029 8.34507C26.5444 8.34331 26.4859 8.3398 26.4274 8.33805C25.4259 8.29413 24.4403 8.37669 23.476 8.66299C23.3537 8.69988 23.2314 8.73852 23.1091 8.77717C23.0311 8.79298 22.946 8.79473 22.8751 8.8281C22.657 8.92647 22.4638 8.94403 22.2476 8.78771C21.8735 8.51721 21.4747 8.27657 21.0865 8.02188C21.0741 8.01309 21.0599 8.00256 21.0475 7.99202C21.0085 7.93932 20.9713 7.88663 20.934 7.83393C20.8401 7.49142 20.7461 7.15066 20.6522 6.80814C20.6185 6.73613 20.5937 6.65884 20.5494 6.59385ZM21.4676 18.148C21.2496 18.1164 21.0315 18.0865 20.7798 18.0514C21.4782 17.3084 21.6289 15.5098 20.8986 15.0338C21.0989 15.0162 21.2336 15.0057 21.3683 14.9951C21.5704 14.9811 21.7778 14.9899 21.9763 14.953C22.852 14.7844 23.4015 15.0022 23.8412 15.7803C24.0681 16.1808 24.2205 16.6234 24.3889 17.0537C24.5821 17.5403 24.5644 17.5192 24.0663 17.7194C23.2296 18.0567 22.3805 18.2798 21.4676 18.148Z" fill="#131715"/>
<path d="M12.7816 13.9026C12.5157 14.138 12.2427 14.3751 12.2976 14.7756C12.3065 14.8423 12.4643 14.96 12.4855 14.9459C12.6805 14.8248 12.9198 14.7158 13.0368 14.5332C13.4552 13.8798 14.0366 13.4582 14.7669 13.2263C15.6125 12.9576 16.4811 12.803 17.3692 12.7521C17.3851 12.7503 17.4028 12.7503 17.4206 12.7486C17.9488 12.7363 18.4788 12.724 19.0071 12.7117C19.039 12.7187 19.0727 12.7258 19.1046 12.7328C19.1897 12.7398 19.2748 12.7468 19.3616 12.7539C19.4077 12.7644 19.4538 12.7732 19.5017 12.7837L19.8473 12.8417C20.0104 12.9155 20.1735 12.9892 20.3348 13.063C20.7478 13.3107 21.1538 13.5689 21.5721 13.806C21.8504 13.9623 22.1376 14.1063 22.4301 14.2328C22.8502 14.412 23.2331 14.6315 23.5592 14.9108L23.7879 14.6772C23.2472 14.1924 22.7208 13.6918 22.1854 13.2018C22.1252 13.1614 22.0649 13.1227 22.0028 13.0823C21.8291 12.9927 21.6536 12.9032 21.4781 12.8136C21.4037 12.7872 21.3275 12.7609 21.253 12.7345C21.0066 12.6537 20.7602 12.5747 20.5138 12.4939L20.1894 12.3516C19.5265 12.0706 18.8298 12.2181 18.1474 12.2076C17.4543 12.1988 16.7594 12.2287 16.0663 12.248C15.8412 12.2533 15.616 12.2778 15.3891 12.2937C15.148 12.3569 14.907 12.4219 14.6659 12.4851C14.3131 12.6783 13.9622 12.8698 13.6094 13.0612C13.5066 13.1649 13.4055 13.2685 13.3027 13.3704C13.2141 13.4582 13.1272 13.546 13.0386 13.6339C12.9961 13.6795 12.9535 13.7252 12.9128 13.7709H12.911C12.8684 13.8148 12.8241 13.8587 12.7816 13.9026Z" fill="#609543"/>
<path d="M13.4109 14.6596C13.3382 14.7633 13.3098 14.8968 13.262 15.0162C13.4392 15.0566 13.6236 15.1479 13.792 15.1269C14.0348 15.097 14.2653 14.9846 14.5028 14.9056C14.7368 14.8739 14.9708 14.8406 15.2065 14.8072C15.265 14.7984 15.3253 14.7896 15.3838 14.7808C15.8412 14.7615 16.2967 14.7404 16.7523 14.7176C16.7718 14.7159 16.7895 14.6772 16.8072 14.6561L16.887 14.6509C16.9154 14.6509 16.9455 14.6473 16.9756 14.6456C17.0341 14.6438 17.0926 14.6421 17.1511 14.6421H17.55C18.8795 14.6368 20.2089 14.6368 21.5366 14.6245C21.7299 14.6228 21.9231 14.5736 22.1234 14.5437C21.5898 14.2311 21.0758 13.9307 20.5617 13.6303C20.528 13.6058 20.4943 13.5812 20.4624 13.5548C20.45 13.5513 20.4394 13.546 20.427 13.5443C20.3933 13.5214 20.3596 13.4986 20.3259 13.4775C20.2692 13.4565 20.2143 13.4371 20.1593 13.4161C19.9927 13.3194 19.8331 13.1491 19.6594 13.1368C18.9273 13.0841 18.1917 13.077 17.456 13.0612C17.4117 13.0595 17.3656 13.1192 17.3195 13.1491C17.2646 13.1491 17.2079 13.1491 17.1529 13.1491C17.0643 13.1543 16.9756 13.1578 16.887 13.1631C16.7115 13.1789 16.536 13.1947 16.3623 13.2105C16.3003 13.2211 16.24 13.2316 16.1797 13.2439C16.1372 13.2474 16.0946 13.2509 16.0539 13.2562C16.0078 13.2668 15.9617 13.279 15.9156 13.2896C15.8872 13.2931 15.8607 13.2966 15.8323 13.3001C15.4139 13.4354 14.9956 13.5724 14.5755 13.7076C14.0614 13.871 13.7051 14.2328 13.4109 14.6579V14.6596Z" fill="#609543"/>
<path d="M14.2175 15.3324C14.2175 15.357 14.2122 15.3816 14.2104 15.4079C14.8699 15.6819 15.5275 15.9559 16.1515 16.2159C16.3731 15.8628 16.6283 15.4536 16.8889 15.0373C16.0168 15.1339 15.118 15.2323 14.2175 15.3324Z" fill="white"/>
<path d="M17.4065 15.5625L17.4171 15.7258C17.5288 15.7891 17.66 15.9208 17.7468 15.8962C17.8869 15.8558 17.9986 15.7135 18.1209 15.6134C18.0181 15.5115 17.9135 15.3218 17.8142 15.3254C17.6759 15.3289 17.5412 15.4764 17.4065 15.5625Z" fill="white"/>
<path d="M17.9824 16.4038C17.7325 16.3705 17.6686 16.5602 17.6864 16.7393C17.6952 16.8096 17.8725 16.9202 17.9576 16.9079C18.0693 16.8921 18.165 16.7727 18.2678 16.6989C18.2625 16.6427 18.2554 16.5847 18.2483 16.5285C18.1597 16.4864 18.0746 16.4161 17.9824 16.4038Z" fill="white"/>
<path d="M19.1844 16.3511C19.1756 16.7762 19.3369 16.9536 19.7375 16.9571C20.225 16.9624 20.498 16.7182 20.505 16.2703C20.5476 15.9471 20.3597 15.826 19.9573 15.7891C19.5726 15.7539 19.1897 16.0578 19.1844 16.3511Z" fill="white"/>
<path d="M20.6876 5.98787C20.404 6.16 20.3845 6.34092 20.5494 6.59386C20.5937 6.65885 20.6185 6.73613 20.6522 6.80815C20.7461 7.15066 20.8401 7.49142 20.934 7.83393C20.9713 7.88663 21.0085 7.93932 21.0475 7.99202C21.0599 8.00256 21.0741 8.0131 21.0865 8.02188C21.4747 8.27657 21.8735 8.51721 22.2476 8.78771C22.4638 8.94403 22.657 8.92647 22.8751 8.82811C22.946 8.79473 23.0311 8.79298 23.1091 8.77717C23.2314 8.73853 23.3537 8.69988 23.476 8.663C24.4403 8.37669 25.4259 8.29414 26.4274 8.33805C26.4859 8.3398 26.5444 8.34332 26.6029 8.34507C26.6579 8.35034 26.7128 8.35386 26.7678 8.35737C26.8157 8.36615 26.8635 8.37669 26.9114 8.38547C27.7729 8.60855 28.6344 8.83338 29.5367 9.06699C29.2991 8.67178 29.0563 8.26779 28.8116 7.86204C28.7744 7.81461 28.7354 7.76543 28.6982 7.71801C28.661 7.63545 28.6237 7.55465 28.5865 7.4721C28.5617 7.43873 28.5369 7.40711 28.5103 7.37374C28.5085 7.36144 28.5032 7.3509 28.4979 7.34036L28.2905 7.06635C28.1239 6.8222 27.9572 6.57805 27.7906 6.33565C27.6169 6.14244 27.4432 5.95098 27.2694 5.75952C26.4416 5.22204 25.6262 4.64942 24.5679 4.67226C23.9298 4.68631 23.2792 4.62308 22.6588 4.73725C22.2653 4.80926 21.9125 5.12895 21.558 5.3608C21.2584 5.55577 20.9943 5.80519 20.6876 5.98787Z" fill="#609543"/>
<path d="M21.0528 12.1953L21.0315 12.2796C21.1875 12.3411 21.3399 12.4201 21.5012 12.464C22.1217 12.6362 22.6074 12.998 23.0434 13.46C23.3324 13.7638 23.6727 14.022 23.99 14.3013L24.0326 14.3487C24.0769 14.3909 24.123 14.433 24.1673 14.4752C24.1974 14.5051 24.2293 14.5332 24.2595 14.5613C24.6175 14.9372 24.9756 15.3148 25.3319 15.6907C25.3408 15.7083 25.3514 15.7241 25.3603 15.7416L25.4471 15.6942C25.4064 15.2586 25.3656 14.8212 25.3248 14.3839C25.2787 14.2802 25.2344 14.1784 25.1901 14.0765C24.8941 13.7849 24.598 13.4951 24.302 13.2035C24.2134 13.1034 24.1247 13.0015 24.0361 12.9014C23.7029 12.5835 23.3767 12.2269 22.8804 12.2023C22.2723 12.1724 21.6626 12.1953 21.0528 12.1953Z" fill="#609543"/>
<path d="M20.7798 18.0514C21.0315 18.0865 21.2495 18.1164 21.4676 18.148C22.3805 18.2798 23.2296 18.0567 24.0663 17.7194C24.5644 17.5192 24.5821 17.5403 24.3889 17.0537C24.2205 16.6234 24.068 16.1808 23.8411 15.7803C23.4015 15.0022 22.852 14.7844 21.9763 14.953C21.7778 14.9899 21.5704 14.9811 21.3683 14.9951C21.2336 15.0057 21.0989 15.0162 20.8986 15.0338C21.6289 15.5098 21.4782 17.3084 20.7798 18.0514Z" fill="white"/>
<path d="M22.836 9.17413L22.8147 9.29533C23.0026 9.4903 23.1887 9.68351 23.3766 9.87848L23.4564 9.97333C23.5379 10.0998 23.6195 10.2263 23.6992 10.3527C23.8535 10.5899 24.0077 10.8287 24.1619 11.0676C24.2754 11.2819 24.387 11.4945 24.5005 11.707C24.5625 11.8299 24.6263 11.9529 24.6884 12.0758C24.7238 12.2006 24.8054 12.3323 24.7894 12.45C24.7114 13.0173 24.9472 13.4319 25.3833 13.7673C25.4453 13.8148 25.4932 13.885 25.5463 13.943C25.5747 13.9729 25.6031 14.0027 25.6296 14.0326C25.6367 14.0747 25.6456 14.1151 25.6527 14.1573C25.6988 14.2802 25.7449 14.4032 25.7927 14.5279C25.814 14.9758 25.8406 15.4237 25.8459 15.8734C25.8459 15.9173 25.7041 15.9647 25.6296 16.0104C25.5694 15.905 25.5073 15.7996 25.4471 15.6942L25.3602 15.7416C25.4329 15.8734 25.5056 16.0086 25.58 16.1404C25.619 16.3617 25.6828 16.583 25.6881 16.8043C25.6899 16.85 25.6757 16.8974 25.6545 16.9431L26.1508 17.0432C26.2465 16.7815 26.3653 16.5268 26.5319 16.316C27.0105 15.7065 27.5494 15.1444 28.0635 14.5648C28.106 14.5332 28.1486 14.5016 28.1893 14.4699C28.2035 14.4664 28.2159 14.4612 28.2283 14.4541C28.3205 14.3891 28.4127 14.3224 28.5049 14.2557C28.714 14.1309 28.9108 13.9852 29.1324 13.8885C29.3327 13.8007 29.5596 13.7656 29.7741 13.7076C30.0276 13.6988 30.2811 13.6813 30.5345 13.683C31.022 13.6883 31.5077 13.7041 31.9952 13.7147C32.9507 13.7322 33.3796 14.4208 33.8175 15.1321C33.8866 14.6737 33.9628 14.2381 33.7519 13.8165C33.7076 13.7796 33.6615 13.741 33.6154 13.7024C33.603 13.6971 33.5888 13.6918 33.5746 13.6865C33.4151 13.5987 33.2538 13.5127 33.0925 13.4266C32.8727 13.3792 32.6511 13.3335 32.4313 13.2878C32.1937 13.2632 31.9562 13.2404 31.7187 13.2176C30.9298 13.2246 30.1392 13.2088 29.3522 13.2509C29.081 13.265 28.8169 13.4248 28.5492 13.5179L28.4481 13.5864C28.1574 13.7673 27.8667 13.95 27.5778 14.1309C27.5636 14.1432 27.5512 14.1555 27.5388 14.1678C27.5211 14.1836 27.5051 14.2012 27.4891 14.217C27.475 14.2293 27.4626 14.2434 27.4484 14.2557C27.3385 14.3698 27.2392 14.5016 27.1098 14.5894C27.0442 14.6333 26.9254 14.5982 26.8297 14.5982C26.8386 14.5139 26.8138 14.4014 26.8599 14.3505C27.0424 14.1485 27.2481 13.9658 27.4448 13.7744C27.5016 13.7287 27.5565 13.6813 27.6132 13.6356C27.6274 13.6216 27.6434 13.6057 27.6593 13.5917C27.709 13.5531 27.7586 13.5162 27.8082 13.4793C28.1415 13.3124 28.4765 13.1473 28.8098 12.9804C28.9143 12.9523 29.0172 12.9242 29.12 12.8961C30.2562 12.7661 31.389 12.7679 32.5199 12.9453C32.5802 12.9541 32.6404 12.9629 32.7025 12.9717L33.0375 12.998C33.0712 13.0068 33.1049 13.0156 33.1368 13.0244C33.1651 13.0279 33.1917 13.0314 33.2201 13.0349C33.5303 13.2386 33.8405 13.4424 34.1525 13.6461C34.1809 13.604 34.2092 13.5636 34.2376 13.5232C34.2216 13.5127 34.2075 13.5021 34.1915 13.4916C33.9274 13.3107 33.6597 13.1297 33.3938 12.9488C33.0127 12.7749 32.6333 12.6028 32.2522 12.4289C32.2203 12.4201 32.1884 12.4131 32.1565 12.4043C32.0413 12.3955 31.9261 12.3885 31.8126 12.3797C31.7648 12.3745 31.7187 12.3674 31.6708 12.3604C31.1036 12.3727 30.5363 12.3832 29.9673 12.3955C29.9212 12.4061 29.8751 12.4166 29.8273 12.4271C29.8007 12.4307 29.7741 12.4342 29.7457 12.4359C29.6819 12.4553 29.6163 12.4728 29.5525 12.4921C29.51 12.4957 29.4692 12.5009 29.4284 12.5044C29.3841 12.5079 29.3416 12.5132 29.299 12.5167C29.0597 12.5975 28.8239 12.6854 28.5829 12.7574C28.4411 12.7995 28.2904 12.8188 28.0865 12.861C28.1379 12.6906 28.1663 12.5975 28.1947 12.5044C28.2709 12.464 28.3471 12.4254 28.4251 12.385C29.4461 11.9845 30.515 11.9582 31.5928 11.9792C31.6389 11.9898 31.685 11.9986 31.7311 12.0073C31.8942 12.0319 32.0555 12.0565 32.2912 12.0934C31.7204 10.9324 30.7029 10.365 29.7369 9.74499C29.3167 9.45166 28.8984 9.15481 28.3613 9.10739C28.3347 9.10212 28.3063 9.09509 28.2797 9.08807C28.2496 9.07753 28.2177 9.06523 28.1876 9.05469C27.7178 8.95282 27.2463 8.8527 26.7765 8.75082C26.7163 8.73852 26.656 8.72447 26.594 8.71218C26.1561 8.70515 25.7183 8.69988 25.2787 8.69286C25.2645 8.69286 25.2485 8.69461 25.2326 8.69461C24.4331 8.85445 23.6354 9.01429 22.836 9.17413Z" fill="#609543"/>
<path d="M23.3093 33.1625C23.2632 33.6367 23.4972 33.9775 23.8038 34.3165C24.208 34.7644 24.5643 35.2545 24.9401 35.727C25.0234 36.1099 25.19 36.4963 25.1705 36.8739C25.1404 37.4378 25.1971 37.9753 25.4099 38.4864C25.4985 38.6972 25.6775 38.8957 25.8619 39.0362C26.1437 39.2505 26.4663 39.4103 26.7712 39.593C27.4076 39.9654 28.0068 40.4308 28.6875 40.6802C29.3256 40.9156 30.0453 40.963 30.7349 41.021C31.6123 41.093 32.4951 41.086 33.3761 41.1229C34.5655 41.1721 35.6983 40.8822 36.7902 40.473C37.3486 40.2622 37.8626 39.8986 38.343 39.5333C38.4813 39.4279 38.5168 39.0397 38.4441 38.8359C38.1995 38.1544 37.8839 37.4957 37.5968 36.83C37.5843 36.8125 37.5719 36.7967 37.5595 36.7791C36.9905 35.7937 36.4002 34.8206 35.6096 33.9863C35.583 33.9547 35.5547 33.923 35.5281 33.8914C35.2356 33.584 34.9431 33.2767 34.6489 32.9693C34.601 32.9289 34.5549 32.8885 34.507 32.8481C34.4964 32.8428 34.4858 32.8393 34.4734 32.8358C34.367 32.7515 34.2624 32.6672 34.1561 32.5828C33.6101 32.2737 33.0482 31.9891 32.5252 31.6449C32.2806 31.4833 32.1087 31.211 31.9084 30.9827C31.8233 30.8843 31.7665 30.7578 31.6708 30.6753C31.4209 30.454 31.1479 30.2573 30.8962 30.0377C30.5895 29.7707 30.2456 29.776 29.8858 29.8779C29.7032 29.9305 29.5277 30.0043 29.3487 30.0675C29.3168 30.0904 29.2848 30.1132 29.2529 30.1343C28.9853 30.2941 28.7194 30.4522 28.4535 30.6121C27.982 31.0055 27.5122 31.4007 27.0425 31.7942H27.0407C26.9716 31.9329 26.5302 31.9997 26.9591 32.228C27.0265 32.2737 27.0956 32.3141 27.1594 32.3633C27.8738 32.9324 27.5565 33.3645 26.9662 33.779C26.9521 33.7895 26.9326 33.7931 26.9113 33.7931L26.929 33.967C27.0265 33.9582 27.1258 33.9459 27.2215 33.9406C27.264 33.9266 27.3084 33.9107 27.3527 33.8967C27.6877 33.7035 28.0334 33.5226 28.3578 33.3118C28.6378 33.1291 28.8931 32.9131 29.1608 32.7111C29.2494 32.6461 29.338 32.5793 29.4284 32.5143C30.0737 32.2263 30.6852 32.3422 31.2808 32.6654C31.3517 32.7023 31.4244 32.7321 31.4971 32.7655C31.7453 33.0536 31.3447 33.1695 31.3234 33.3943C31.3092 33.5401 31.2135 33.6789 31.2206 33.8721C31.4014 33.7193 31.5822 33.5647 31.763 33.4119C32.0147 33.2222 32.2647 33.0325 32.5164 32.841C32.5465 32.827 32.5766 32.8112 32.6068 32.7954C32.7752 32.7743 32.8851 32.8094 32.8195 33.0132C32.6759 33.1326 32.5341 33.2538 32.3905 33.375C32.3001 33.4453 32.2079 33.5138 32.1158 33.584C31.8658 33.8036 31.6159 34.0214 31.3659 34.241C31.1621 34.3464 30.96 34.4535 30.7561 34.5589C30.5789 34.659 30.3998 34.7574 30.2226 34.8575C30.0489 34.933 29.8734 35.0103 29.6979 35.0876C29.6092 35.1578 29.5206 35.2299 29.432 35.3001C29.3558 35.3862 29.2795 35.4705 29.2033 35.5566C29.0899 35.7182 28.9746 35.8815 28.8594 36.0449C28.8541 36.0554 28.8505 36.066 28.847 36.0765C28.8062 36.1239 28.7672 36.1713 28.7265 36.2188C28.5776 36.412 28.5722 36.614 28.6857 36.8248C28.8576 37.0461 29.0296 37.2691 29.2015 37.4922C29.6181 37.9559 30.1375 38.1052 30.7437 37.9876C30.7898 37.9507 30.8341 37.912 30.8802 37.8751C30.8855 37.8646 30.8891 37.8523 30.8926 37.8418C30.9121 37.8066 30.9316 37.7733 30.9511 37.7381C31.3553 36.8142 31.903 36.0097 32.8425 35.5373C32.9028 35.5056 32.9968 35.5373 33.0747 35.5373C33.0606 35.6163 33.073 35.7234 33.0251 35.7691C32.9081 35.885 32.7557 35.9658 32.6298 36.0765C32.4827 36.203 32.3497 36.3435 32.2115 36.4787L32.0945 36.6157C31.9208 36.8704 31.7488 37.1269 31.5769 37.3816C31.4368 37.6503 31.2986 37.919 31.1585 38.1878C31.1568 38.258 31.155 38.3301 31.1532 38.4003C31.155 38.4161 31.155 38.4319 31.1568 38.4477C31.1709 38.4899 31.1851 38.5338 31.1993 38.576C31.2099 38.5918 31.2188 38.6093 31.2294 38.6252L31.233 38.6304C31.2436 38.6462 31.2542 38.6603 31.2649 38.6761C31.4953 38.7745 31.7187 38.8957 31.9562 38.9606C32.1211 39.0063 32.3072 38.9606 32.4809 38.9782C32.8213 39.0081 33.0818 38.9009 33.2361 38.5865C33.3938 38.4214 33.5516 38.258 33.7094 38.0947C33.8015 37.9946 33.8937 37.8962 33.9841 37.7978C33.9983 37.7838 34.0125 37.768 34.0267 37.7539L34.0302 37.7504L34.0727 37.7083C34.3493 37.4202 34.6152 37.1198 34.9094 36.8493C34.9892 36.7756 35.1541 36.7914 35.2799 36.765C35.2462 36.8704 35.2374 36.9951 35.1718 37.0742C34.9289 37.364 34.6684 37.6363 34.4131 37.9155C34.2642 38.0736 34.1153 38.2317 33.9646 38.3898C33.9097 38.4355 33.8529 38.4829 33.7962 38.5285C33.7537 38.5602 33.7129 38.5918 33.6704 38.6234C33.3743 38.8658 33.5126 39.1626 33.6384 39.3945C33.7111 39.5315 33.9469 39.6281 34.1242 39.6597C34.7889 39.7739 35.0938 39.2434 35.4589 38.8553C35.7709 38.5198 36.0386 38.1439 36.3293 37.7891C36.3683 37.7399 36.4233 37.6854 36.4818 37.6714C36.5775 37.6503 36.6821 37.6573 36.7831 37.6538C36.7477 37.7399 36.714 37.826 36.6768 37.9103C36.6626 37.9436 36.6413 37.9735 36.6236 38.0051C36.4889 38.1632 36.3559 38.323 36.2212 38.4829C36.1024 38.6287 35.9836 38.7727 35.8649 38.9185C35.7798 39.0221 35.6929 39.1258 35.6079 39.2294C35.5919 39.2434 35.5777 39.2575 35.5618 39.2715C35.5334 39.3014 35.5033 39.3313 35.4731 39.3594C35.4253 39.4015 35.3792 39.4419 35.3313 39.4823L34.5974 39.9513C34.5514 39.9601 34.507 39.9671 34.461 39.9741C34.1224 39.9548 33.7643 40.011 33.4825 39.7511C33.431 39.7036 33.3513 39.6439 33.3513 39.5877C33.3513 39.2628 33.1545 39.3032 32.9241 39.3119C32.5217 39.3295 32.1193 39.3032 31.7169 39.2944C31.2542 39.2522 30.905 39.0766 30.8111 38.5707C30.8005 38.5127 30.71 38.4196 30.664 38.4232C29.7723 38.5004 29.143 38.0508 28.59 37.4395C28.5758 37.4237 28.5634 37.4079 28.5492 37.3921H28.5474C28.2532 37.1462 27.9536 36.9056 27.6682 36.6509C27.4821 36.4858 27.3154 36.2978 27.14 36.1186C27.1329 36.0941 27.1258 36.0695 27.1187 36.0466C27.0974 35.9975 27.0761 35.9483 27.0549 35.9008C26.9981 35.5408 26.9414 35.1824 26.8847 34.8224C26.8723 34.7855 26.8581 34.7486 26.8457 34.7117C26.8386 34.3042 26.4912 34.3692 26.2501 34.2884C26.1136 34.2497 25.9789 34.2111 25.8442 34.1742C25.6687 33.9933 25.4932 33.8141 25.3194 33.635C25.307 33.6051 25.2946 33.5753 25.284 33.5454L25.2574 33.4664C25.2468 33.4347 25.2361 33.4031 25.2237 33.3715C25.1688 32.9341 24.8781 32.5653 24.5324 32.5003C24.0821 32.416 23.6124 32.6373 23.366 33.0536C23.3483 33.0887 23.3288 33.1238 23.3093 33.1607V33.1625Z" fill="#609543"/>
<path d="M25.5801 33.2398C25.5925 33.317 25.6049 33.3943 25.6191 33.4716C25.7786 33.8194 26.1154 33.916 26.4416 33.9705C26.5993 33.9968 26.7642 33.9845 26.9291 33.9669L26.9113 33.793C26.8528 33.793 26.7731 33.7632 26.7093 33.7562L26.8635 33.3662C26.8954 33.3399 26.9255 33.3135 26.9574 33.2872C26.9716 33.2714 26.9858 33.2573 27 33.2415C27.0549 33.166 27.1081 33.0905 27.1613 33.0149C27.1223 32.5881 26.4717 32.2737 26.0941 32.4722C25.768 32.6425 25.5943 32.8814 25.5801 33.2398Z" fill="#609543"/>
<path d="M26.4698 17.2996C26.4556 17.3998 26.5407 17.5737 26.6258 17.6123C26.8421 17.7089 27.0832 17.7475 27.3668 17.8248C27.1753 17.1328 27.3012 16.518 27.56 15.919C27.583 15.8699 27.6043 15.8189 27.6274 15.768C27.6096 15.7574 27.5919 15.7487 27.5759 15.7399C27.544 15.7785 27.5121 15.8189 27.4802 15.8593L27.4714 15.8646C27.459 15.8734 27.4483 15.8839 27.4359 15.8927C27.4253 15.9032 27.4129 15.9138 27.4022 15.9261C27.388 15.9366 27.3739 15.9471 27.3579 15.9577C26.975 16.3494 26.5496 16.7182 26.4698 17.2996Z" fill="white"/>
<path d="M26.6365 18.8454C26.64 18.9332 26.6436 19.0192 26.6471 19.1071L27.2268 19.4074C27.3579 19.483 27.4873 19.5585 27.6185 19.634C27.6806 19.6744 27.7408 19.7148 27.8029 19.757C27.888 19.8184 27.9748 19.8782 28.0599 19.9396C28.0759 19.9537 28.0918 19.966 28.1078 19.98C28.574 20.5228 29.0402 21.0655 29.5046 21.6101C29.5525 21.6645 29.5826 21.74 29.6376 21.7804C29.6907 21.8191 29.7794 21.8577 29.829 21.8384C29.8733 21.8208 29.9265 21.7032 29.9052 21.6663C29.7545 21.3835 29.611 21.0901 29.4177 20.8372C29.1465 20.4806 28.831 20.1539 28.535 19.8149L28.4658 19.7254C28.5385 19.7131 28.6112 19.7025 28.6839 19.6902C29.0845 19.6727 29.4869 19.6656 29.8857 19.6287C29.9619 19.6217 30.0258 19.4988 30.0967 19.4303C30.0169 19.3934 29.9371 19.3319 29.8556 19.3284C29.3451 19.3056 28.8345 19.2968 28.324 19.2827C28.1007 19.2142 27.8755 19.1457 27.6522 19.0772C27.3952 18.9982 27.1417 18.9139 26.8829 18.8436C26.8066 18.8225 26.7198 18.8436 26.6365 18.8454Z" fill="#131715"/>
<path d="M27.1753 34.378C27.2054 34.4798 27.2338 34.5817 27.2639 34.6853C27.2657 34.7135 27.2675 34.7433 27.2692 34.7714C27.2817 34.9471 27.2923 35.1245 27.3047 35.3001V35.6971C27.5511 35.5056 27.7408 35.3581 27.9287 35.2123C27.9428 35.1965 27.9588 35.1824 27.9748 35.1684L28.9426 34.2884C28.9568 34.2743 28.971 34.262 28.9869 34.248C29.3432 33.8721 29.7013 33.4962 30.0576 33.1203C30.1462 33.0061 30.2349 32.892 30.3731 32.7146H30.047C29.7669 32.8551 29.4709 32.9728 29.2085 33.1396C28.6094 33.5173 28.0262 33.9195 27.4376 34.3112C27.4146 34.327 27.3809 34.327 27.3526 34.3323C27.3242 34.3358 27.2941 34.3393 27.2657 34.3428C27.2356 34.3551 27.2054 34.3657 27.1753 34.378Z" fill="#609543"/>
<path d="M27.5867 36.0782C27.6133 36.1081 27.6381 36.1397 27.6629 36.1696C27.6948 36.1994 27.7249 36.2276 27.7551 36.2557L27.8419 36.3417C27.9164 36.4155 27.9891 36.4893 28.0635 36.563C28.0954 36.6017 28.1291 36.6386 28.1628 36.6772C28.1929 36.6228 28.223 36.5666 28.255 36.5121C28.4074 36.2012 28.5616 35.8903 28.7141 35.5794C28.746 35.5162 28.7797 35.4529 28.8133 35.3897L29.4728 34.7732L29.6057 34.7099C29.6677 34.6889 29.7298 34.6678 29.7918 34.645C29.8751 34.5993 29.9602 34.5536 30.0453 34.5062C30.0613 34.4939 30.0772 34.4798 30.0914 34.4676C30.4052 34.0671 30.7331 33.6754 31.0185 33.2573C31.0664 33.1853 30.9405 32.9974 30.8926 32.8621C30.7739 32.9394 30.6303 32.9939 30.5363 33.094C30.2421 33.4119 29.9691 33.7474 29.6819 34.0723C29.549 34.2234 29.4036 34.3657 29.2636 34.5132L28.535 35.1614C28.2585 35.3879 27.9784 35.6075 27.7108 35.8411C27.6469 35.8956 27.6274 35.9975 27.5867 36.0782Z" fill="#609543"/>
<path d="M28.3098 15.8962C28.3151 15.9489 28.3222 16.0016 28.3293 16.0543C28.4321 16.1088 28.5704 16.2335 28.6324 16.2036C28.7583 16.1421 28.8398 15.9981 28.9391 15.8874C28.8327 15.8101 28.7246 15.6731 28.6165 15.6731C28.5137 15.6714 28.4109 15.8154 28.3098 15.8962Z" fill="white"/>
<path d="M28.3755 17.1152C28.4641 17.2101 28.5545 17.3049 28.7087 17.4683C28.8311 17.2891 28.9481 17.1855 28.9658 17.0678C28.9746 17.0063 28.7832 16.843 28.7212 16.8605C28.5917 16.8992 28.4889 17.0256 28.3755 17.1152Z" fill="white"/>
<path d="M28.723 14.607C28.7088 14.6438 28.6929 14.6807 28.6787 14.7176C28.7815 14.7194 28.8826 14.7211 28.9854 14.7229C29.2956 14.7352 29.6076 14.7457 29.9178 14.7563C29.9905 14.7598 30.0614 14.7633 30.134 14.7668C30.2085 14.7703 30.2812 14.7738 30.3556 14.7773C30.4957 14.8089 30.6339 14.8564 30.774 14.8704C31.0487 14.8985 31.3253 14.9108 31.6018 14.9284C32.0184 15.1392 32.4314 15.3622 32.8568 15.559C33.1777 15.7065 33.5145 15.8224 33.8424 15.9524C33.8672 15.9243 33.892 15.8945 33.9169 15.8664L33.0554 14.7281C33.0252 14.686 32.9969 14.6438 32.9667 14.6017V14.5964C32.8001 14.0853 32.3215 14.159 31.9368 14.0572C31.7046 14.0501 31.4724 14.0431 31.2384 14.0361C31.1941 14.0361 31.1498 14.0326 31.1072 14.0291C30.6517 14.0466 30.1819 14.001 29.7458 14.0976C29.386 14.1801 29.0634 14.4295 28.723 14.607Z" fill="#609543"/>
<path d="M29.9763 16.5953C29.9462 16.9466 30.0773 17.0502 30.4957 17.0502C30.7899 17.0906 30.9424 16.9624 30.9317 16.6269C30.9193 16.1755 30.8467 16.1017 30.3751 16.0929C30.0064 16.0859 29.9958 16.3617 29.9763 16.5953Z" fill="white"/>
<path d="M31.4811 15.2832C31.4084 15.2498 31.3109 15.2674 31.1248 15.2551C31.5006 15.6837 31.7328 16.1105 31.6778 16.5918C31.6264 17.045 31.4651 17.4858 31.3552 17.9232C31.8427 17.9039 32.3886 17.7932 32.8265 17.384C33.1013 17.1275 33.3671 16.857 33.6153 16.5742C33.6632 16.5198 33.6472 16.3125 33.6029 16.2897C32.9027 15.9419 32.1919 15.6117 31.4811 15.2832Z" fill="white"/>
</g>
</g>
<defs>
<clipPath id="clip0_7202_35346">
<rect width="42" height="42" rx="21" fill="white"/>
</clipPath>
<clipPath id="clip1_7202_35346">
<rect width="46" height="44" fill="white" transform="translate(-4)"/>
</clipPath>
</defs>
</svg>
