<svg xmlns="http://www.w3.org/2000/svg" width="42" height="42" fill="none"><g clip-path="url(#a)"><circle cx="21" cy="21" r="21" fill="#242235"/><g clip-path="url(#b)"><path fill="#609543" d="M41.956.044H-3.956v43.912h45.912V.044z"/><path fill="#131715" d="M-.015 30.958c-.041.41-.107.822-.1 1.231.018 1.009.247 1.975.603 2.923a5.78 5.78 0 0 0 1.034 1.757c.07.075.141.15.21.226l1.458 1.058.457.24.65.28.855.414.603.199.267.08c.057.018.116.035.172.051l.504.15 1.964.391.585.106c.691.07 1.38.168 2.074.205.805.046 1.613.067 2.42.044.645-.02 1.288-.118 1.933-.179.125-.01.249-.007.375-.01l.393-.046.05-.002c.042 0 .086-.004.129-.005l.177-.007c.176-.002.35-.002.525-.006.884-.017 1.77-.038 2.654-.057.546-.004 1.09-.01 1.634-.013l1.457-.4.663-.22.34-.15.49-.472.09-.131a4.53 4.53 0 0 0 .08-.093c.016-.029.034-.057.051-.085.092-.197.21-.158.3-.012.07.112.1.25.147.376.149.146.296.291.443.439l.59.372c.403.264.79.552 1.208.782.49.27 1.008.488 1.513.729.226.023.45.038.674.07.223.034.445.086.666.128l3.432.12c.51-.081 1.027-.134 1.528-.251a13.034 13.034 0 0 0 1.61-.482c.395-.147.759-.374 1.136-.565l.356-.26c.495-.441.523-.961.254-1.525-.271-.567-.55-1.133-.824-1.698l-.211-.27c-.137-.305-.271-.609-.408-.913a.526.526 0 0 0-.044-.043l-.053-.081-.123-.183a.084.084 0 0 1-.012-.035l-.071-.1-.013-.033-.17-.18-.129-.137-.441-.48c-.06-.101-.123-.2-.183-.3-.057-.075-.112-.152-.168-.228a15.335 15.335 0 0 1-.233-.251l-.124-.139-.218-.221-.223-.17h-.002l-.182-.17c-.477-.328-.952-.658-1.433-.981-.369-.25-.746-.49-1.12-.734-.113-.134-.27-.255-.103-.452.207-.3.417-.602.622-.904l-.186-.125a5.377 5.377 0 0 1-.377.488c-.309.36-.312.37-.702.067l-.186-.165-.3-.278a10.139 10.139 0 0 1-.19-.112c-.207-.023-.43-.109-.618-.06-.491.132-.966.322-1.449.489-.016.01-.032.019-.047.03-.038.01-.077.019-.114.03-.066.052-.13.105-.193.156a.12.12 0 0 1-.036.01l-.095.08a.683.683 0 0 0-.05.041l-.043.034c-.397.332-.792.666-1.194.994-.255.207-.518.404-.778.606-.045.044-.09.086-.133.13-.112.067-.243.114-.332.204-.312.318-.596.258-.88-.03a14.78 14.78 0 0 1-.299-.097l-.35-.01-.095.003c-.462.062-.83.292-1.061.685-.284.474-.162 1.03.312 1.56.212.239.443.462.666.69l.082.093a.967.967 0 0 0 .051.083l.115.184.021.074c.116.163.23.327.344.49.034.055.07.11.105.162.01.033.023.066.034.1l.069.648a19.65 19.65 0 0 1-.027.139c-.003.276-.009.551-.014.827l-.03.05-.122.142-.456.64-.133.132a.911.911 0 0 0-.044.037 2.19 2.19 0 0 0-.116.025l-.322.16c-.115.033-.229.068-.342.102a.423.423 0 0 0-.053.033c-.032.012-.062.026-.094.039l-.351.175c-.234.058-.465.153-.702.169-.922.058-1.846.1-2.767.13-1.232.042-2.466.061-3.698.103-1.127.04-2.257.1-3.384.152l-.055-.021c-1.292-.122-2.585-.241-3.877-.362l-.05-.006a1.197 1.197 0 0 0-.076-.014l-.11-.049c-.15-.014-.308-.009-.453-.047-.507-.134-1.009-.281-1.512-.425a19.77 19.77 0 0 0-.243-.093l-.642-.215c-.035-.017-.07-.037-.106-.054l-.075-.016-.143-.074-.211-.1-.41-.205c-.01-.004-.023-.007-.033-.013l-.37-.195-1.353-.72c-.045-.03-.09-.058-.133-.088l-.046-.042c-.093-.098-.183-.198-.275-.297l-.305-.31-.08-.095-.053-.123-.257-.27-.103-.164-.158-.276-.021-.072a10.537 10.537 0 0 1-.11-.191c-.092-.259-.18-.519-.276-.777a7.294 7.294 0 0 1-.458-2.67c.01-.045.022-.091.03-.138a.76.76 0 0 0 .007-.081l.032-.313.02-.125.028-.184c.004-.055.01-.11.013-.165l.048-.199c.065-.778.132-1.558.2-2.337.02-.216.035-.434.069-.649.214-1.417.434-2.836.652-4.254.01-.046.022-.091.032-.139l.007-.082.147-.587.646-2.083c.02-.035.04-.07.062-.104l.345-.897.112-.186c.094-.22.176-.447.287-.657.743-1.414 1.493-2.825 2.239-4.237l.067-.104.669-1.262c.012-.018.026-.034.039-.05.235-.4.477-.795.705-1.2.667-1.18 1.642-2.116 2.5-3.143.26-.313.542-.614.765-.95.296-.447.543-.925.812-1.39.04-.048.078-.097.116-.144l.506-.641c.103-.086.204-.174.307-.262.286-.172.567-.351.86-.516.207-.116.416-.266.643-.311.658-.132 1.323-.19 1.99-.19v-.209l-1.552-.002-.516.106-.235.11c-1.13.45-1.977 1.221-2.615 2.235l-.865 1.359c-.346.427-.69.855-1.034 1.284L6.6 11.453c-.107.16-.224.316-.318.482-.473.83-.95 1.655-1.404 2.493-.686 1.264-1.356 2.538-2.031 3.808l-.075.14a.227.227 0 0 1-.012.037l-.292.536-.135.462-.023.039-.139.267c-.186.551-.368 1.106-.563 1.656-.052.144-.142.274-.215.41-.003.027-.005.054-.009.08l-.03.09a1.121 1.121 0 0 1-.02.082l-.11.28-.192.95c-.01.03-.018.06-.029.087l-.025.083c-.01.046-.023.091-.035.137l-.491 3.364c-.01.045-.023.091-.034.137l-.01.084-.038.221c-.033.406-.065.814-.099 1.22-.032.182-.065.363-.1.546-.061.604-.127 1.208-.185 1.814zm23.819 3.358c-.307-.339-.54-.68-.495-1.154.02-.036.04-.072.057-.107.246-.416.716-.637 1.166-.553.346.065.637.434.692.871l.033.095.027.08c.01.029.023.059.035.089l.525.539.406.114c.241.08.588.016.596.423l.039.111.17 1.079.064.145.02.072c.176.18.343.367.53.533.284.254.584.495.878.74h.002l.04.048c.554.611 1.183 1.061 2.075.984.046-.004.136.09.147.147.094.506.443.682.906.724.402.009.805.035 1.207.018.23-.01.427-.05.427.275 0 .057.08.116.131.164.282.26.64.204.979.223.046-.007.09-.014.136-.023l.734-.469a2.158 2.158 0 0 0 .23-.21c.017-.015.03-.029.047-.043l.257-.31.356-.436c.135-.16.268-.32.403-.478.017-.032.038-.062.053-.095.037-.084.07-.17.106-.256-.101.003-.206-.004-.301.017-.059.014-.114.069-.153.118-.29.355-.558.73-.87 1.066-.365.388-.67.919-1.335.804-.177-.031-.413-.128-.486-.265-.125-.232-.264-.529.032-.77l.126-.096c.057-.045.114-.093.169-.139l.448-.474c.255-.279.516-.551.759-.841.065-.08.074-.204.108-.31-.126.027-.29.011-.37.085-.295.27-.56.57-.837.859l-.043.042-.003.004-.043.044-.275.296-.473.492c-.154.315-.415.422-.755.392-.174-.016-.36.028-.525-.018-.237-.065-.46-.186-.691-.284l-.032-.046-.004-.005-.03-.05-.042-.127-.004-.048.005-.212.419-.807.517-.766.117-.136c.139-.136.272-.276.419-.403.126-.11.278-.191.395-.307.048-.046.035-.153.05-.232-.078 0-.172-.033-.233 0-.939.472-1.487 1.277-1.891 2.2l-.058.105-.013.033-.136.112c-.607.118-1.126-.031-1.543-.495-.172-.223-.343-.446-.515-.667-.114-.211-.108-.413.04-.606l.12-.143.013-.031.344-.489.229-.256.266-.213.524-.23c.178-.1.357-.198.534-.298.204-.106.406-.213.61-.318l.75-.657c.092-.07.184-.139.274-.21.144-.12.286-.242.43-.361.065-.204-.045-.239-.213-.218-.03.016-.06.032-.09.046l-.754.57c-.18.154-.362.308-.543.46-.007-.192.09-.331.103-.477.022-.225.422-.34.174-.629-.073-.033-.145-.063-.216-.1-.596-.323-1.207-.439-1.853-.15-.09.064-.179.13-.267.196-.268.202-.523.418-.803.6-.325.211-.67.392-1.005.585l-.132.044c-.095.006-.195.018-.292.027a1.81 1.81 0 0 1-.487.003c-.327-.054-.663-.15-.823-.499l-.039-.231c.014-.359.188-.598.514-.768.378-.199 1.028.116 1.067.543l-.161.226-.043.046-.094.079-.154.39c.064.007.144.037.202.037a.096.096 0 0 0 .055-.014c.59-.415.908-.847.193-1.416-.063-.05-.133-.09-.2-.135-.429-.229.012-.295.082-.432h.001l1.411-1.184.8-.478c.032-.021.064-.044.096-.067.179-.063.354-.137.537-.19.36-.101.703-.107 1.01.16.252.22.525.417.775.638.096.083.152.21.237.307.2.229.373.501.617.663.523.344 1.085.628 1.631.938l.317.252a.189.189 0 0 1 .034.013l.142.121.879.922.081.095c.791.834 1.381 1.807 1.95 2.793l.038.05c.287.666.602 1.325.847 2.007.073.203.037.592-.101.697-.48.365-.995.729-1.553.94-1.092.409-2.224.699-3.414.65-.881-.037-1.764-.03-2.641-.102-.69-.058-1.41-.106-2.048-.341-.68-.25-1.28-.715-1.916-1.087-.305-.183-.627-.343-.91-.557a1.445 1.445 0 0 1-.451-.55c-.213-.511-.27-1.048-.24-1.612.02-.378-.147-.764-.23-1.147-.376-.473-.732-.963-1.136-1.41v-.003zm3.46.37c-.03-.104-.058-.206-.089-.308l.09-.035.088-.01c.028-.006.062-.006.085-.022.588-.392 1.171-.794 1.77-1.171.263-.167.559-.285.839-.425h.326l-.315.405-1.071 1.128-.044.04-.968.88a.531.531 0 0 0-.046.044l-.624.485V35.3c-.013-.175-.023-.353-.036-.529l-.005-.086zm.399 1.484-.076-.092c.04-.08.06-.182.124-.237.267-.233.547-.453.824-.68l.729-.648c.14-.147.285-.29.418-.44.287-.326.56-.661.854-.979.094-.1.238-.155.357-.232.047.135.173.323.125.395-.285.418-.613.81-.927 1.21l-.046.04-.253.138c-.062.023-.124.044-.186.065l-.133.063-.66.617c-.033.063-.067.126-.099.19l-.46.932c-.031.054-.061.11-.091.165-.034-.038-.068-.075-.1-.114l-.221-.221-.087-.086-.092-.086z"/><path fill="#609543" d="M.215 31.98c-.012.92.137 1.81.458 2.67.095.258.184.519.276.777l.11.191.021.072c.054.092.105.185.158.276l.103.163c.085.09.17.181.257.27l.053.124.08.095.305.31c.092.099.182.199.275.297l.046.042.133.088c.45.241.902.48 1.352.72l.37.195a.18.18 0 0 0 .034.013l.41.205.21.1.144.074.075.016c.035.018.07.037.106.054l.642.215.243.093c.503.144 1.005.291 1.512.425.145.038.303.033.454.047.037.016.072.034.11.05a.77.77 0 0 1 .076.014l.05.005c1.292.121 2.584.24 3.876.362l.055.02c1.127-.05 2.257-.11 3.384-.15 1.232-.043 2.466-.062 3.698-.104.921-.03 1.845-.072 2.767-.13.237-.016.468-.11.702-.169l.35-.175c.033-.013.063-.027.095-.039a.584.584 0 0 1 .053-.033c.113-.034.227-.069.342-.102l.323-.16a2.27 2.27 0 0 1 .115-.025l.044-.036.133-.132.456-.641.122-.143.03-.049.014-.827c.01-.046.018-.091.027-.139l-.07-.648-.033-.1a4.8 4.8 0 0 1-.104-.162c-.116-.163-.23-.326-.344-.49l-.022-.074-.115-.184a1.27 1.27 0 0 1-.051-.082 3.774 3.774 0 0 0-.082-.094c-.223-.228-.454-.451-.666-.69-.474-.53-.596-1.085-.312-1.56.232-.393.599-.623 1.061-.685l.094-.003.351.01c.1.034.199.065.3.097.284.288.567.348.88.03.088-.09.219-.137.33-.204l.134-.13c.26-.202.523-.399.778-.606.402-.328.798-.662 1.195-.994l.042-.034.05-.042.095-.079a.115.115 0 0 0 .036-.01l.193-.157.114-.03c.015-.01.032-.019.047-.03.483-.166.958-.356 1.449-.488.188-.049.41.037.618.06l.19.113.3.277.186.165c.39.302.393.293.702-.067.134-.16.266-.32.377-.488.186-.28.321-.587.348-.948.005-.078-.006-.157-.01-.236v-.318a.644.644 0 0 1-.052-.03c-.192.108-.396.194-.57.322-.393.291-.841.406-1.313.418-1.519.037-3.038.076-4.56.076-1.394 0-2.79-.044-4.184-.087-.197-.005-.392-.11-.587-.168l-.23-.091c-.247-.015-.495-.027-.741-.04l-.442-.075a45.793 45.793 0 0 0-.49-.082l-.084-.006-.225-.04-.084-.005c-.062-.01-.122-.023-.182-.035l-.084-.01a13.642 13.642 0 0 1-.262-.057l-.09-.03-.089-.01c-.266-.132-.532-.262-.796-.394l-1.179-.54-.413-.201-.122-.055c-.298-.14-.597-.28-.895-.423l-.514-.239-.9-.544-.114-.027c-.037-.019-.073-.04-.108-.06-.741-.475-1.505-.92-2.213-1.44-.515-.38-.45-1.401.06-1.795a.495.495 0 0 1 .346-.096c.71.119 1.415.261 2.12.395l.798.253 1.721.437c.156.05.31.114.47.148.663.137 1.328.267 1.993.397.03.005.065-.01.099-.014l.078.008c.592.113 1.184.225 1.776.34.147.026.294.052.443.08.353.044.706.09 1.058.135.055.006.112.01.167.014l.805.088 1.797.093.241.055c.498.031.997.065 1.497.096.13.032.262.081.395.088.441.021.884.027 1.328.039.145-.004.29-.005.437-.007l.094-.018.392-.01c.075-.014.147-.028.222-.04a6.676 6.676 0 0 0 2.254-.345c.16-.054.293-.177.44-.27.175-.14.4-.25.52-.427.34-.511.643-1.045.946-1.581.062-.113.053-.264.078-.397l.005-.655-.008-.088-.016-.123c-.02-.05-.038-.1-.055-.151-.165-.267-.32-.541-.497-.8-.113-.164-.262-.308-.395-.463-.066-.01-.165-.053-.192-.026-.179.179-.342.374-.51.562l-.846.225h-.223c-.073 0-.145-.004-.218-.007l-.046-.006-.199-.12.015-.145c.313-.044.627-.09.943-.126.296-.035.519-.17.664-.43l.053-.067a4.254 4.254 0 0 0-.07-.016c-.353-.004-.708-.002-1.06-.014-.07 0-.188-.053-.192-.09-.007-.082.04-.172.068-.258a.342.342 0 0 0 .044-.007c.147 0 .292-.002.44-.004l.178.006c.713.019 1.45-.457 1.743-1.13.108-.253.207-.508.305-.764.02-.054.01-.121.023-.297-.154.153-.24.229-.314.313-.438.492-.91.943-1.59 1.068-.346.065-.698.082-1.047.121l-.052.005h-1.236c-.68-.03-1.366-.03-2.041-.102-.447-.047-.887-.18-1.316-.316-.287-.09-.358-.369-.275-.613a5.08 5.08 0 0 1 .093-.26l-.497-.1c-.032.076-.081.151-.113.227-.064-.093-.172-.18-.183-.276-.08-.736-.48-1.265-1.026-1.735a23.728 23.728 0 0 1-.544-.482l-.229.234c.328.281.597.622.79 1.049l.033.052c.017.056.037.113.054.167l.03.053c.093.272.155.56.288.811.119.225.285.455.489.601.333.239.363.922.014 1.11-.209.114-.402.26-.602.394-.093.052-.185.107-.275.16-.266.214-.53.428-.794.644-.071.058-.135.126-.204.19l-.029.023c-.047.049-.097.098-.145.149a71.655 71.655 0 0 0-.358.46 3.874 3.874 0 0 1-.098.077l-.12.067-.044.032-.842.614-.09.04-.082.013-.676.24c-.531.201-1.058.422-1.602.593-.273.086-.575.088-.865.109-.052.003-.15-.081-.154-.132-.006-.051.07-.144.127-.16.463-.132.927-.251 1.393-.372l.043-.032.222-.095c.136-.05.274-.102.41-.15 1.05-.217 1.862-.809 2.553-1.589l.422-.388c-.017-.026-.033-.054-.051-.08h-.378c-.028-.002-.055-.004-.083-.004a3.465 3.465 0 0 0-.14-.028c-.468-.007-.936-.014-1.404-.023a3.784 3.784 0 0 1-.142-.012l-.654-.081a30.636 30.636 0 0 0-.179-.037 3.282 3.282 0 0 1-.13-.007l-.132-.005-.706-.037c-.555-.072-1.11-.14-1.664-.218-.186-.026-.369-.072-.553-.109l-.156-.037-.109-.053c-.879-.228-1.38-.97-2.052-1.48-.16-.122-.294-.274-.44-.413l.257-.163c.438.367.867.746 1.32 1.096.254.196.549.342.827.512.092.037.184.076.278.113.052.009.105.02.158.028l.106.06c.04.007.078.016.116.024.05.021.1.04.15.062l.084.009.138.031c.028.004.055.007.083.009l.14.03c.13.007.259.012.388.02l.27.034.13.006.088.01 3.708.253.089.005c.133.013.266.025.397.039h.353c.57-.102 1.074-.344 1.455-.776.078-.088.059-.281.035-.418-.003-.03-.223-.064-.326-.034-.595.169-1.186.357-1.778.54-.207.012-.413.026-.62.04l-.308.009a.645.645 0 0 1-.054.019l-.117-.005-.055-.021-2.336-.348h-.05l-.26-.1c-.286-.114-.567-.236-.856-.34-.527-.19-1.068-.347-1.582-.565-.234-.1-.416-.314-.624-.474-.067-.051-.141-.095-.21-.142-.61-.276-1.22-.554-1.832-.828-.078-.037-.161-.067-.24-.098a.577.577 0 0 1-.049-.023 1.456 1.456 0 0 1-.083-.023 10.5 10.5 0 0 1-.184-.117c-.314-.141-.617-.259-.988-.202-.41.063-.611-.283-.576-.692.041-.452.39-.673.598-1l.306-.307c.117-.11.243-.211.348-.33.516-.589 1.203-.842 1.944-.997l.626-.105 3.444-.01.045-.002 1.272-.032c.062.009.123.02.185.03l1.542-.009.05-.028.354.027c.075.012.15.022.227.035l.213.012.14.026c.282.181.564.359.842.543.078.051.143.121.214.181l.172.062v-.276c-.264-.483-.528-.965-.79-1.448-.224-.32-.447-.637-.669-.957l-.175-.177-.089-.086-.356-.35-.17-.18-.26-.222c-.035-.025-.066-.051-.1-.076a59.49 59.49 0 0 0-.399-.302.306.306 0 0 0-.037-.012l-.139-.08-.033-.01-.1-.073c-.072-.034-.143-.069-.216-.102l-.085-.043c-.028-.014-.058-.03-.087-.043-.017-.01-.033-.023-.051-.034l-.085-.01-1.684-.248c-1.135-.02-2.267-.104-3.398.15-.805.18-1.408.639-2.005 1.148a4.174 4.174 0 0 1-.633.423c-.062.035-.168-.008-.253-.015.014-.06.005-.148.042-.174.755-.534 1.342-1.295 2.283-1.583 1.337-.407 2.695-.355 4.06-.277.163.02.328.043.492.066.245.025.491.044.736.076.18.024.268-.034.232-.22-.032-.172-.074-.344-.111-.516l-.24-.453c-.212-.511-.537-.93-1.012-1.228l-.1-.074c-.667-.643-1.527-.713-2.383-.796l-.27-.031c-.395-.037-.79-.058-1.184-.058-.666 0-1.331.058-1.989.19-.227.045-.436.195-.643.31-.293.166-.575.345-.86.517-.103.088-.204.176-.307.262a158.426 158.426 0 0 1-.622.785c-.27.465-.516.943-.812 1.39-.223.336-.505.637-.766.95-.857 1.027-1.832 1.963-2.499 3.144-.229.404-.47.799-.705 1.2-.013.015-.027.03-.04.048-.221.42-.444.842-.668 1.263l-.067.104c-.746 1.412-1.496 2.823-2.239 4.237-.112.21-.193.437-.287.657a15.94 15.94 0 0 0-.112.186l-.345.897c-.022.034-.041.069-.063.104l-.645 2.083c-.05.195-.099.392-.147.587l-.007.082c-.01.048-.021.093-.032.139-.218 1.418-.438 2.837-.652 4.254-.034.215-.05.432-.07.648l-.2 2.338-.048.199-.012.165a5.84 5.84 0 0 0-.028.184l-.02.125-.032.313a.72.72 0 0 1-.007.08c-.009.048-.02.093-.03.14l-.002-.003zm10.01-9.054c.016-.134.022-.267.05-.397.01-.051.07-.09.108-.135.647-.768 1.537-.923 2.473-.956.161 0 .324-.017.482.01.06.011.13.12.142.192.007.039-.1.133-.16.139-.306.024-.618.003-.921.046-.711.101-1.395.263-1.831.922-.063.093-.226.12-.343.179zm.97-2.206c.076-.11.131-.28.234-.315.326-.114.67-.179 1.007-.263l.014.052c.089 0 .18-.017.262.006.093.024.174.088.26.133-.073.062-.139.158-.224.18-.4.096-.805.182-1.21.252-.109.02-.23-.028-.343-.045zm15.452-1.613-.01-.261c.083-.002.17-.023.246-.002.259.07.512.154.77.233l.671.206c.51.014 1.021.023 1.532.045.081.004.16.066.24.102-.07.069-.134.192-.21.199-.4.037-.802.044-1.202.061-.073.013-.146.023-.218.035l.069.09c.296.339.612.666.883 1.022.193.253.337.547.487.83.021.036-.032.154-.076.171-.05.02-.138-.019-.191-.058-.055-.04-.086-.115-.133-.17l-1.397-1.63-.048-.04c-.085-.062-.172-.122-.257-.183a10.546 10.546 0 0 0-.184-.123c-.132-.075-.261-.15-.392-.227l-.58-.3z"/><path fill="#131715" d="M10.275 22.529c-.028.13-.034.263-.05.397.117-.058.28-.086.343-.18.436-.658 1.12-.82 1.83-.921.304-.043.616-.022.922-.046.06-.006.167-.1.16-.139-.013-.072-.082-.18-.142-.191-.158-.029-.32-.011-.482-.011-.936.033-1.826.188-2.473.956-.037.045-.097.084-.108.135z"/><path fill="#131715" d="M11.46 22.36c-.51.394-.575 1.416-.06 1.795.708.52 1.472.965 2.213 1.44.035.02.07.041.108.06.037.01.075.018.114.027l.9.544.514.239c.298.142.597.283.895.423l.123.055.413.2c.391.18.785.362 1.178.541.264.132.53.262.796.393l.089.011.09.03c.087.02.176.039.263.056l.083.01c.06.013.12.025.183.036l.083.005.225.04.085.006c.163.026.326.054.49.082l.44.074.742.04.23.092c.195.058.39.163.587.168 1.395.043 2.79.086 4.185.086 1.521 0 3.04-.038 4.56-.075.47-.012.92-.127 1.313-.418.173-.128.377-.214.569-.322l.051.03c0 .058 0 .118.002.178v.14c.004.08.014.158.009.236a1.947 1.947 0 0 1-.348.948l.187.125c.118-.17.234-.341.349-.511.042-.064.048-.151.07-.229.013-.031.024-.061.034-.093-.026-.38-.053-.759-.081-1.138-.115-.265.126-.346.257-.481.172-.225.345-.448.514-.673.243-.325.317-.676.172-1.063l-.146-.282-.014-.078c-.035-.075-.122-.177-.097-.22.12-.214.27-.412.407-.618.291-.35.593-.692.866-1.053.22-.289.205-.61.054-.93-.104-.225-.212-.446-.318-.669l-.07-.1-.358-.348-.12-.226-.053-.215-.038-.09-.01-.036-.263-.44a.133.133 0 0 1-.01-.034c-.114-.136-.225-.27-.337-.408a3.697 3.697 0 0 1-.048-.086l-.182-.169a4.565 4.565 0 0 1-.08-.096l-.133-.128a2.055 2.055 0 0 0-.052-.087c0-.063-.023-.147.01-.186.152-.179.318-.347.481-.52.013-.014.025-.028.04-.042l.274-.434c.34-.662.381-1.36.271-2.083-.026-.175-.003-.36-.003-.54l.003-.048c0-.334-.005-.666.006-.998.001-.072.053-.198.097-.205.415-.07.262-.352.238-.587l-.176-.218-.136.199.046.031a6.74 6.74 0 0 0-.085.123l-.933-.611-.083-.01a7.608 7.608 0 0 0-.1-.027l-.334-.026-.183-.027a12.593 12.593 0 0 0-3.4-.049l-.31.084c-.333.167-.668.332-1.002.5a4.83 4.83 0 0 0-.149.112l-.046.044c-.056.045-.111.093-.168.138-.197.192-.402.375-.585.577-.046.05-.021.163-.03.247.096 0 .214.035.28-.009.13-.087.229-.22.339-.333.014-.013.026-.027.04-.039l.05-.05a.777.777 0 0 1 .039-.036l.87-.545.101-.068c.268-.093.532-.253.803-.267.787-.042 1.578-.026 2.367-.033.237.022.475.045.712.07.22.046.442.091.662.139.161.086.322.172.482.26l.04.015.137.115c.211.421.135.857.066 1.315-.438-.711-.867-1.4-1.823-1.417-.487-.01-.973-.027-1.46-.032-.254-.002-.507.016-.76.025-.215.058-.442.093-.642.18-.222.097-.419.243-.628.368l-.276.198a.151.151 0 0 1-.04.016c-.04.032-.083.063-.125.095-.514.58-1.053 1.142-1.532 1.751a2.61 2.61 0 0 0-.381.727 5.08 5.08 0 0 0-.092.26c-.083.244-.013.524.275.613.429.136.868.269 1.315.316.675.072 1.361.072 2.042.102h1.235l.052-.005c.35-.039.702-.056 1.047-.121.681-.125 1.153-.576 1.59-1.068.075-.085.16-.16.314-.313-.012.176-.003.243-.023.297-.097.257-.197.511-.305.764-.292.673-1.03 1.149-1.742 1.13l-.18-.006c-.146.002-.292.004-.439.004a.34.34 0 0 1-.044.007c-.027.086-.075.175-.067.258.003.037.122.088.191.09.353.012.707.01 1.06.014l.071.015-.053.067c-.146.26-.369.395-.665.43-.316.037-.63.083-.943.127l-.014.144c.067.04.133.08.198.121l.046.005c.073.004.146.006.218.008h.224l.845-.225c.169-.188.332-.383.51-.562.028-.027.127.015.192.026.133.154.282.299.396.464.177.258.331.532.496.799.018.05.035.1.055.15l.016.124.009.088-.006.655c-.024.133-.015.284-.078.397-.303.536-.606 1.07-.946 1.58-.119.178-.344.287-.52.428-.147.093-.28.216-.44.27a6.677 6.677 0 0 1-2.254.344l-.221.04-.392.011c-.03.006-.062.01-.094.018-.147.002-.293.003-.438.007-.443-.012-.886-.018-1.328-.039-.133-.007-.264-.056-.395-.088-.5-.031-.998-.065-1.496-.096l-.241-.055c-.6-.031-1.199-.061-1.798-.093l-.805-.088a5.474 5.474 0 0 1-.166-.014l-1.058-.135a46.15 46.15 0 0 0-.444-.08c-.592-.115-1.184-.227-1.776-.34-.026-.003-.053-.005-.078-.009-.033.006-.069.02-.099.014-.665-.13-1.33-.26-1.992-.396-.16-.034-.314-.099-.47-.148l-1.721-.437-.798-.253c-.706-.134-1.411-.276-2.12-.395a.495.495 0 0 0-.346.096h.002zm-.008.977c-.032-.332.282-.71.615-.685.312.024.626.072.925.156.76.213 1.507.488 2.275.673 1.04.25 2.095.448 3.148.655.801.158 1.606.31 2.413.444 1.648.273 3.3.497 4.975.526 1.385.022 2.767.096 4.152.122.8.016 1.574-.119 2.299-.476.75-.37 1.237-.985 1.585-1.712.218-.455.39-.931.585-1.409.512.292.666 1.202.258 1.699-.273.33-.616.61-.85.962-.385.583-.887 1.037-1.433 1.45-.202.152-.416.365-.643.393-.727.088-1.46.13-2.193.137-.74.009-1.48-.053-2.221-.069-.643-.012-1.29.027-1.934-.014-.743-.047-1.496-.088-2.218-.253-1.2-.275-2.402-.474-3.632-.439-1.205.034-2.308-.369-3.417-.746-.442-.15-.881-.304-1.321-.457-.385-.134-.776-.244-1.147-.407-.236-.104-.429-.296-.654-.424-.066-.037-.177.009-.268.016.038.08.052.188.114.235.45.346.923.652 1.482.814.792.232 1.59.455 2.36.744a9.232 9.232 0 0 0 2.99.589c.89.03 1.777.158 2.662.276 1.108.147 2.205.386 3.315.48 1.053.09 2.117.071 3.175.05.833-.016 1.664-.123 2.5-.153a1.879 1.879 0 0 0 1.126-.42c.31-.244.61-.5.931-.729.062-.045.268-.022.29.023.162.343.178.705-.052 1.017-.312.42-.614.863-1.002 1.203-.34.297-.782.63-1.2.66-1.63.13-3.269.159-4.905.196-.85.02-1.705-.009-2.556-.047a33.291 33.291 0 0 1-2.132-.173c-.589-.065-1.172-.172-1.759-.26-.374-.058-.776-.049-1.12-.186a39.085 39.085 0 0 1-2.599-1.17 73.324 73.324 0 0 1-2.81-1.466c-.506-.278-.978-.613-1.478-.9-.37-.212-.588-.5-.631-.925zm15.174-5.725c-.085-.038-.17-.212-.156-.312.08-.582.505-.95.888-1.342.016-.01.03-.021.044-.032.01-.012.023-.023.034-.033.012-.01.023-.02.035-.028l.01-.006.095-.12c.016.01.034.018.051.029-.023.051-.044.102-.067.151-.259.599-.385 1.214-.193 1.906-.284-.077-.525-.116-.741-.213zm1.703-1.558a5.014 5.014 0 0 1-.02-.158c.102-.08.205-.225.307-.223.109 0 .217.137.323.214-.1.111-.18.255-.306.317-.063.03-.2-.095-.304-.15zm.38 1.414-.334-.353c.114-.09.217-.216.346-.254.062-.018.254.145.245.207-.018.117-.135.221-.257.4zm-.03-2.75.044-.111c.34-.177.663-.427 1.023-.51.436-.096.905-.05 1.361-.068.043.004.087.005.131.007l.699.021c.384.102.863.028 1.028.54v.005c.032.042.06.084.09.126l.862 1.138-.075.086c-.328-.13-.664-.245-.985-.393-.426-.197-.839-.42-1.255-.63-.277-.018-.553-.03-.828-.059-.14-.014-.279-.061-.419-.093l-.221-.01-.216-.01-.933-.034-.306-.005zm1.817 2.332c-.419 0-.55-.103-.52-.455.02-.233.03-.51.399-.502.471.009.544.082.557.534.01.335-.142.464-.436.423zm.629-1.795c.186.012.283-.005.356.028.71.329 1.422.659 2.122 1.007.044.023.06.23.012.284-.248.283-.514.553-.788.81-.438.41-.984.52-1.472.54.11-.438.271-.879.323-1.332.055-.482-.177-.908-.553-1.337zm-19.695 5.15c-.104.035-.159.206-.235.314.114.018.234.066.342.046.406-.07.81-.156 1.21-.253.086-.02.152-.117.224-.179-.085-.046-.166-.109-.259-.133-.081-.023-.173-.006-.262-.006l-.014-.052c-.337.084-.68.149-1.007.263z"/><path fill="#933E21" d="M12.067 22.652c-.333-.025-.647.353-.615.685.043.425.26.713.631.925.5.287.972.622 1.479.9a73.328 73.328 0 0 0 2.81 1.466c.852.418 1.717.815 2.598 1.17.344.137.746.128 1.12.186.587.088 1.17.195 1.759.26.709.078 1.42.14 2.132.172.851.04 1.705.067 2.556.048 1.637-.037 3.274-.067 4.905-.195.419-.032.86-.364 1.2-.66.389-.341.69-.784 1.002-1.204.23-.312.214-.674.053-1.017-.023-.045-.229-.068-.29-.023-.321.229-.621.485-.931.73-.33.258-.693.403-1.128.42-.835.029-1.666.136-2.5.152-1.057.021-2.121.04-3.174-.05-1.11-.094-2.207-.333-3.315-.48-.884-.118-1.772-.246-2.662-.276a9.228 9.228 0 0 1-2.989-.589c-.771-.29-1.569-.513-2.361-.744-.558-.162-1.032-.468-1.482-.814-.062-.047-.076-.154-.114-.235.09-.007.203-.053.268-.016.225.128.418.32.654.423.37.164.762.274 1.147.408.44.153.88.307 1.32.457 1.11.377 2.213.78 3.418.746 1.23-.035 2.433.163 3.633.44.721.164 1.474.205 2.217.252.644.04 1.29.002 1.934.014.741.016 1.482.078 2.221.069a19.86 19.86 0 0 0 2.193-.137c.227-.028.441-.24.644-.394.546-.413 1.047-.866 1.432-1.449.234-.353.578-.632.85-.962.408-.497.254-1.407-.258-1.699-.195.478-.367.954-.585 1.409-.348.727-.835 1.342-1.585 1.712-.725.357-1.5.492-2.299.476-1.384-.026-2.767-.1-4.151-.123-1.676-.028-3.328-.253-4.976-.525a85.794 85.794 0 0 1-2.413-.444c-1.053-.207-2.107-.404-3.148-.655-.768-.185-1.514-.46-2.274-.673a4.821 4.821 0 0 0-.926-.156z"/><path fill="#131715" d="M11.917 14.595c-.036.409.165.755.576.692.37-.057.673.061.987.202.062.04.122.079.184.117.029.01.055.016.084.023a.629.629 0 0 0 .048.023c.08.032.163.062.24.098.612.274 1.222.552 1.832.828.069.047.143.091.21.142.208.16.39.374.625.474.514.218 1.055.374 1.58.566.29.103.572.225.857.339l.26.1h.05l2.337.348.055.02.117.006a.436.436 0 0 0 .053-.02c.103-.001.205-.005.308-.008.208-.014.413-.028.62-.04.593-.183 1.183-.371 1.779-.54.102-.03.322.004.326.034.023.137.042.33-.036.418-.38.432-.884.674-1.455.776h-.353c-.13-.014-.264-.026-.397-.039a24.975 24.975 0 0 0-.088-.005l-3.709-.253-.088-.01c-.043 0-.087-.004-.13-.006-.088-.012-.179-.022-.27-.035l-.387-.019-.14-.03a1.136 1.136 0 0 1-.084-.009l-.138-.031-.084-.01-.15-.06a2.317 2.317 0 0 0-.115-.025l-.107-.06c-.053-.009-.106-.02-.157-.028l-.279-.112c-.278-.17-.572-.316-.828-.513-.452-.35-.88-.73-1.318-1.096l-.257.163c.145.139.28.292.44.413.671.51 1.173 1.252 2.052 1.48l.108.053.156.037c.184.037.367.083.553.109.555.077 1.11.146 1.665.218l.705.037.133.005.13.007.178.037c.219.028.437.054.655.08.047.006.093.01.141.013.468.009.936.016 1.404.023.046.009.094.017.14.028.029 0 .055.002.084.003h.377c.018.027.034.055.052.081l-.422.388c-.692.78-1.503 1.372-2.553 1.588l-.411.151c-.075.032-.147.064-.222.095l-.042.032c-.466.121-.93.24-1.393.372-.057.016-.134.11-.128.16.005.05.103.135.154.132.29-.021.592-.023.865-.11.544-.17 1.07-.39 1.603-.591l.675-.24.083-.015.089-.038c.28-.206.562-.411.842-.615l.044-.032.12-.067a1.74 1.74 0 0 0 .098-.077l.339-.437a.22.22 0 0 1 .02-.023c.047-.051.097-.1.145-.15l.028-.022c.07-.063.133-.132.204-.19.264-.216.528-.43.794-.645l.275-.16c.2-.133.393-.279.602-.393.35-.188.32-.871-.014-1.11-.203-.146-.37-.376-.489-.6-.133-.252-.195-.54-.287-.812-.01-.018-.021-.035-.03-.053-.018-.054-.038-.11-.055-.167l-.032-.052a2.979 2.979 0 0 0-.79-1.049 4.334 4.334 0 0 0-1.13-.678 9.279 9.279 0 0 1-.858-.427c-.418-.237-.824-.495-1.237-.743a114.41 114.41 0 0 0-.488-.221l-.345-.058-.14-.03-.257-.021-.098-.021-1.586.037-.052.003c-.888.051-1.756.206-2.602.475-.73.231-1.312.653-1.73 1.306-.117.183-.356.292-.551.413-.022.014-.18-.104-.188-.17-.055-.4.218-.638.484-.873l.13-.132.127-.137c.088-.088.175-.176.264-.263.103-.102.204-.206.306-.31.353-.191.704-.382 1.057-.576l.723-.191c.227-.016.452-.04.677-.046.694-.02 1.388-.049 2.081-.04.683.01 1.38-.137 2.043.144l.324.142.74.24.224.08.525.269.183.119c.535.49 1.061.99 1.602 1.475.179.164.36.324.544.482.546.47.947 1 1.026 1.735.011.097.12.183.183.276.032-.076.082-.151.114-.227a.308.308 0 0 0 .033-.139c-.005-.22-.069-.442-.108-.663-.074-.132-.147-.267-.22-.4-.009-.017-.02-.033-.028-.05a372.06 372.06 0 0 0-1.073-1.13l-.092-.086-.134-.126-.043-.047c-.317-.28-.658-.538-.946-.842-.437-.462-.922-.824-1.543-.996-.161-.044-.314-.123-.47-.184l.022-.085c.61 0 1.22-.022 1.827.008.497.024.823.38 1.156.699l.266.302.888.873.135.307.122 1.31c.06.106.123.211.183.317.074-.046.216-.094.216-.137-.005-.45-.032-.898-.053-1.346l-.14-.37-.023-.125a3.418 3.418 0 0 0-.084-.09c-.053-.058-.1-.128-.163-.176-.436-.335-.671-.75-.593-1.317.015-.117-.066-.25-.101-.374l-.188-.369a76.419 76.419 0 0 1-.339-.64c-.154-.238-.308-.477-.463-.714-.08-.127-.161-.253-.243-.38l-.08-.094-.561-.583.021-.122 2.397-.48.046-.001c.44.007.877.012 1.315.02l.183.038 1.41.304.093.033.081.02c.537.047.956.344 1.376.637.966.62 1.984 1.188 2.554 2.349a94.119 94.119 0 0 0-.56-.087 2.249 2.249 0 0 1-.138-.028c-1.078-.02-2.147.006-3.168.406l-.23.12-.108.356c.204-.042.354-.061.496-.104.241-.072.477-.16.716-.24.043-.004.085-.009.13-.012.04-.004.081-.01.124-.013l.193-.056c.028-.002.055-.005.081-.009l.14-.031c.57-.013 1.137-.023 1.704-.035.048.007.094.014.142.019.113.009.228.016.344.024.032.01.063.016.095.025l1.142.52c.266.18.534.362.798.543l.136-.199-.273-.254a52.683 52.683 0 0 0-.4-.257c-.286-.163-.59-.3-.848-.5-.147-.115-.214-.332-.323-.5-.09-.14-.186-.275-.278-.412l-.448-.518-.087-.09c-.087-.09-.174-.177-.262-.265a9.389 9.389 0 0 0-.169-.097 10.943 10.943 0 0 1-.103-.07c-.377-.248-.755-.493-1.13-.745a.304.304 0 0 1-.095-.14c-.122-.318-.24-.64-.36-.961-.037-.047-.076-.095-.113-.144a68.237 68.237 0 0 1-.363-.652c-.131-.203-.26-.407-.392-.61-.025-.054-.048-.108-.073-.16L28.5 6.77h-.002c-.19-.263-.381-.525-.573-.787l-.014-.035c-.175-.172-.353-.344-.53-.516l-1.15-.65a2.74 2.74 0 0 1-.071-.032l-.05-.037c-.507-.272-1.055-.384-1.627-.39-.442-.005-.883-.008-1.324-.014-.544.081-1.066.223-1.498.584-.43.335-.855.676-1.294.997-.068.05-.202.007-.307.007l-.525-.608-.09-.05a8.08 8.08 0 0 0-.177-.13l-.828-.545c-.167-.079-.333-.16-.5-.24l-.74-.102-.226-.032h-1.805v.21c.394 0 .79.021 1.184.058l.27.032c.856.082 1.716.152 2.382.795l.101.074c.475.299.8.717 1.013 1.228l.239.453c.037.172.08.344.112.516.035.187-.052.245-.233.22-.244-.032-.49-.051-.735-.076a54.38 54.38 0 0 0-.493-.066c-1.365-.078-2.723-.13-4.06.277-.94.288-1.527 1.049-2.283 1.583-.037.026-.028.114-.042.174.085.007.191.05.253.015.22-.126.442-.26.633-.423.598-.51 1.2-.968 2.005-1.149 1.131-.253 2.264-.168 3.398-.149l1.684.248.085.01c.018.01.034.023.052.034l.087.044.085.042.216.102.1.073.033.01.138.08a.265.265 0 0 1 .037.012l.4.3c.033.027.065.053.099.078l.26.221.17.181.356.35c.03.028.059.058.09.086.058.06.116.12.175.177.221.32.445.638.668.957.262.483.526.965.79 1.448v.276a6.942 6.942 0 0 1-.171-.062c-.071-.06-.137-.13-.215-.18-.278-.185-.56-.363-.842-.544a16.41 16.41 0 0 0-.14-.026l-.213-.012c-.076-.013-.152-.023-.227-.035l-.354-.027a.403.403 0 0 1-.05.028l-1.542.01c-.062-.011-.122-.022-.184-.03l-1.273.03c-.014 0-.028.003-.044.003l-3.445.01-.625.106c-.741.154-1.43.407-1.945.995-.104.12-.23.222-.347.33a29.7 29.7 0 0 1-.307.308c-.207.327-.557.548-.597 1zm1.345.421c.048-.12.076-.253.149-.356.294-.425.65-.787 1.165-.95l1.256-.408.084-.01c.046-.011.092-.024.138-.034.04-.005.083-.009.126-.012.06-.013.12-.023.182-.034l.525-.047.266-.014h.167c.046-.03.092-.09.136-.088.736.016 1.471.023 2.204.075.173.013.333.183.5.28l.166.061c.034.021.067.044.101.067.012 0 .023.007.035.01.032.027.066.051.1.076.514.3 1.028.6 1.561.913-.2.03-.393.08-.586.081-1.328.013-2.657.013-3.987.018h-.399c-.058 0-.117 0-.175.003l-.089.006-.08.005c-.017.02-.035.06-.055.061-.455.023-.91.044-1.368.064l-.177.026c-.236.033-.47.067-.704.098-.238.08-.468.192-.71.222-.17.02-.354-.07-.531-.111v-.002zm.948.392c.002-.026.006-.051.007-.076l2.672-.295-.738 1.179-1.94-.808zm3.207.318-.01-.164c.134-.086.269-.233.407-.237.1-.003.204.187.307.288-.122.1-.234.243-.374.283-.087.025-.218-.107-.33-.17zm.27 1.013c-.018-.179.046-.369.296-.335.092.012.177.082.265.125.008.056.015.114.02.17-.103.074-.199.193-.31.209-.085.012-.263-.099-.271-.169zm2.05.218c-.4-.003-.561-.18-.553-.606.006-.293.389-.597.773-.562.403.037.59.158.548.481-.007.448-.28.692-.767.687zm.812-10.363c-.165-.253-.145-.434.139-.606.306-.183.57-.432.87-.627.355-.232.707-.552 1.1-.624.621-.114 1.272-.05 1.91-.065 1.058-.023 1.874.55 2.701 1.087.174.192.348.383.522.577l.5.73.207.274c.005.01.01.021.012.034.027.033.052.065.076.098l.112.246.114.144.725 1.205-2.626-.682c-.048-.008-.095-.019-.143-.028l-.165-.012-.176-.007c-1.001-.044-1.987.039-2.951.325-.122.037-.245.075-.367.114-.078.016-.163.018-.234.051-.218.098-.411.116-.627-.04-.375-.27-.773-.511-1.162-.766a.582.582 0 0 1-.038-.03 5.201 5.201 0 0 1-.114-.158l-.282-1.026c-.034-.072-.058-.15-.103-.214zm.919 11.554c-.218-.032-.436-.061-.688-.097.698-.743.849-2.541.119-3.017.2-.018.335-.028.47-.039.201-.014.409-.005.607-.042.876-.169 1.425.05 1.865.827.227.4.38.843.548 1.274.193.486.175.465-.323.665-.836.338-1.685.56-2.598.429z"/><path fill="#609543" d="M12.782 13.903c-.266.235-.54.472-.484.873.008.066.166.184.188.17.194-.121.434-.23.55-.413.42-.653 1-1.075 1.73-1.307a10.553 10.553 0 0 1 2.603-.474c.016-.002.034-.002.052-.003l1.586-.037.098.02.257.022.14.03.345.058.488.221c.413.248.819.506 1.237.743.278.156.566.3.858.427.42.179.803.399 1.13.678l.228-.234c-.54-.484-1.067-.985-1.603-1.475l-.182-.12c-.174-.09-.35-.179-.525-.268l-.225-.08-.74-.24-.324-.142c-.663-.281-1.36-.134-2.042-.144-.693-.01-1.388.02-2.08.04-.226.005-.451.03-.678.046l-.723.191c-.353.193-.704.385-1.057.576l-.306.31c-.089.087-.176.175-.264.263l-.126.137h-.002l-.13.132z"/><path fill="#609543" d="M13.41 14.66c-.072.103-.1.237-.148.356.177.04.362.132.53.11.243-.029.473-.141.71-.22.235-.032.469-.065.704-.099l.178-.026c.457-.02.913-.04 1.368-.063.02-.002.038-.04.055-.062l.08-.005c.028 0 .058-.004.089-.005.058-.002.117-.004.175-.004h.399c1.33-.005 2.659-.005 3.987-.017.193-.002.386-.051.586-.081l-1.561-.914a1.86 1.86 0 0 1-.1-.075c-.012-.004-.023-.009-.035-.01a3.26 3.26 0 0 0-.101-.067c-.057-.021-.112-.04-.167-.062-.166-.097-.326-.267-.5-.28-.732-.052-1.467-.059-2.203-.075-.044-.001-.09.058-.136.088h-.167l-.266.014-.525.048c-.062.01-.122.02-.182.033-.043.004-.085.007-.126.012-.046.01-.092.023-.138.034l-.084.01-1.257.408c-.514.163-.87.525-1.164.95v.002z"/><path fill="#fff" d="M14.217 15.332c0 .025-.005.05-.007.076l1.941.808.738-1.179-2.671.295zm3.19.23.01.164c.112.063.243.195.33.17.14-.04.252-.183.374-.283-.103-.102-.207-.291-.307-.288-.138.004-.273.151-.407.237zm.575.842c-.25-.034-.313.156-.296.335.01.07.186.181.272.169.111-.016.207-.135.31-.21a5.477 5.477 0 0 0-.02-.17c-.088-.042-.173-.112-.266-.124zm1.202-.053c-.008.425.153.603.553.606.488.005.761-.239.768-.687.043-.323-.145-.444-.548-.48-.384-.036-.767.268-.773.561z"/><path fill="#609543" d="M20.688 5.988c-.284.172-.303.353-.139.606.045.065.07.142.103.214l.282 1.026.113.158.04.03c.388.255.787.495 1.16.766.217.156.41.139.628.04.071-.033.156-.035.234-.05.122-.04.245-.078.367-.115.964-.286 1.95-.369 2.951-.325l.176.007.165.012.143.029 2.626.681c-.238-.395-.48-.8-.725-1.205l-.114-.144-.111-.246a3.627 3.627 0 0 0-.077-.098c-.002-.013-.007-.023-.012-.034l-.207-.274-.5-.73a99.982 99.982 0 0 0-.522-.576c-.827-.538-1.643-1.11-2.701-1.088-.638.014-1.289-.049-1.91.065-.393.072-.745.392-1.1.624-.3.195-.564.444-.87.627zm.365 6.207-.021.085c.155.061.308.14.47.184.62.172 1.105.534 1.541.996.29.304.63.562.947.841l.043.048.134.126c.03.03.062.058.092.086l1.073 1.13c.009.017.02.033.028.05l.087-.047-.122-1.31-.135-.307-.888-.873-.266-.303c-.333-.317-.66-.674-1.156-.699-.608-.03-1.217-.007-1.827-.007z"/><path fill="#fff" d="M20.78 18.051c.252.036.47.065.688.097.913.132 1.762-.091 2.598-.429.498-.2.516-.179.323-.665-.168-.43-.321-.873-.548-1.274-.44-.778-.989-.996-1.865-.827-.198.037-.406.028-.608.042-.134.01-.27.021-.47.039.73.476.58 2.274-.118 3.017z"/><path fill="#609543" d="m22.836 9.174-.021.121.562.584.08.094.242.38.463.715.338.639.188.369c.036.125.117.256.101.374-.078.567.158.982.594 1.317.062.048.11.118.163.176l.084.09.023.124c.046.123.092.246.14.37.021.449.048.897.053 1.346 0 .044-.142.092-.216.137-.06-.105-.123-.21-.183-.316l-.087.048c.073.131.146.267.22.398.039.222.103.443.108.664a.308.308 0 0 1-.034.14l.497.1a2.64 2.64 0 0 1 .38-.728c.48-.61 1.018-1.172 1.533-1.751.042-.032.085-.063.125-.095a.152.152 0 0 0 .04-.016l.276-.198c.209-.125.406-.27.627-.367.2-.088.428-.123.642-.181.254-.01.507-.027.76-.025.488.005.974.021 1.461.032.956.017 1.385.706 1.823 1.417.069-.458.145-.894-.066-1.316l-.137-.114a.858.858 0 0 0-.04-.015c-.16-.088-.321-.174-.483-.26-.22-.048-.44-.093-.66-.14a101.61 101.61 0 0 0-.713-.07c-.79.008-1.58-.008-2.367.034-.271.014-.535.174-.803.267l-.1.068c-.292.181-.582.364-.871.545l-.04.037-.049.049c-.014.012-.026.026-.04.039-.11.114-.21.246-.34.333-.065.044-.184.01-.28.01.01-.085-.015-.197.03-.248.183-.203.39-.385.586-.577.057-.045.111-.093.168-.138l.046-.044c.05-.039.1-.076.15-.113.332-.167.668-.332 1-.498l.311-.085a12.597 12.597 0 0 1 3.4.05l.182.026.336.026.099.026.083.01c.31.205.62.408.933.612l.085-.123-.047-.031-.797-.543-1.142-.52-.096-.025c-.115-.008-.23-.015-.343-.024l-.142-.02c-.567.013-1.135.023-1.704.036l-.14.031a1.003 1.003 0 0 1-.081.009c-.064.02-.13.037-.194.056l-.124.012c-.044.004-.086.01-.129.013-.24.08-.475.168-.716.24-.142.043-.293.062-.496.104.05-.17.08-.264.108-.357l.23-.119c1.021-.4 2.09-.427 3.168-.406.046.01.092.02.138.028l.56.086c-.57-1.16-1.588-1.728-2.554-2.348-.42-.293-.839-.59-1.376-.638a1.369 1.369 0 0 1-.081-.019l-.092-.033-1.412-.304c-.06-.012-.12-.027-.182-.039-.438-.007-.876-.012-1.315-.02-.014 0-.03.003-.046.003l-2.397.48zm.474 23.989c-.047.474.187.815.494 1.154.404.447.76.938 1.136 1.41.083.383.25.77.23 1.147-.03.564.027 1.101.24 1.612.088.211.267.41.452.55.282.215.604.374.91.557.636.372 1.235.838 1.916 1.087.638.236 1.357.283 2.047.341.877.072 1.76.065 2.641.102 1.19.05 2.322-.24 3.414-.65.559-.21 1.073-.574 1.553-.94.138-.105.174-.493.101-.697-.245-.681-.56-1.34-.847-2.006l-.038-.05c-.569-.986-1.159-1.96-1.95-2.794l-.08-.094-.88-.923-.142-.12a.193.193 0 0 0-.034-.013c-.106-.084-.21-.169-.317-.253-.546-.31-1.108-.594-1.63-.938-.245-.162-.417-.434-.618-.662-.085-.099-.142-.225-.237-.308-.25-.22-.523-.418-.775-.637-.306-.267-.65-.262-1.01-.16-.183.053-.358.126-.537.19a3.08 3.08 0 0 1-.096.066l-.8.478-1.41 1.182h-.002c-.07.139-.51.206-.082.434.067.046.137.086.2.135.715.57.398 1.002-.193 1.416a.091.091 0 0 1-.055.014l.018.174c.098-.009.197-.021.293-.026l.13-.044c.336-.193.681-.374 1.006-.585.28-.183.535-.399.803-.6.088-.066.177-.133.267-.198.646-.288 1.257-.172 1.853.151.07.037.143.067.216.1.248.289-.152.405-.174.63-.014.145-.11.284-.102.477l.542-.46.753-.57c.03-.015.06-.03.09-.047.17-.02.28.014.213.218l-.428.362c-.09.07-.183.139-.275.21l-.75.656c-.204.105-.406.213-.61.318-.177.1-.356.198-.533.299-.174.075-.35.152-.525.23l-.266.212-.229.257-.344.488a.225.225 0 0 0-.012.032l-.12.142c-.15.193-.155.395-.041.606.172.221.344.444.515.667.417.464.936.613 1.543.496l.136-.113a.15.15 0 0 0 .013-.033l.058-.104c.404-.924.952-1.728 1.892-2.2.06-.032.154 0 .232 0-.014.078-.002.186-.05.231-.117.116-.27.197-.395.308-.147.126-.28.267-.419.402l-.117.137-.517.766c-.14.268-.278.537-.419.806l-.005.212.004.048.042.128.03.05.004.005.032.045c.23.099.454.22.691.285.165.045.351 0 .525.017.34.03.6-.077.755-.391.158-.166.316-.329.473-.492l.275-.297.043-.044.003-.003.043-.043c.276-.288.542-.588.836-.859.08-.073.245-.057.37-.084-.033.105-.042.23-.107.31-.243.29-.504.561-.759.84l-.448.475-.169.139-.126.094c-.296.243-.157.54-.032.772.073.137.309.233.486.265.665.114.97-.416 1.335-.805.312-.335.58-.711.87-1.066.04-.049.094-.104.153-.117.096-.022.2-.015.301-.018-.035.086-.069.172-.106.256-.014.034-.036.064-.053.095-.135.158-.268.318-.403.478l-.356.436-.257.31-.046.043a2.04 2.04 0 0 1-.23.21l-.735.47-.136.022c-.339-.02-.697.037-.978-.223-.052-.047-.132-.107-.132-.163 0-.325-.197-.285-.427-.276-.402.018-.805-.009-1.207-.017-.463-.043-.812-.218-.906-.724-.01-.058-.101-.151-.147-.148-.892.078-1.521-.372-2.074-.983l-.04-.048h-.003c-.294-.246-.593-.486-.879-.741-.186-.165-.353-.353-.528-.532l-.021-.072-.064-.146-.17-1.079-.04-.11c-.006-.408-.354-.343-.595-.424l-.406-.114-.525-.539a1.89 1.89 0 0 1-.035-.09l-.027-.079a1.99 1.99 0 0 0-.033-.094c-.055-.438-.346-.807-.692-.872-.45-.084-.92.137-1.166.554l-.057.107v.002z"/><path fill="#609543" d="M25.58 33.24c.013.077.025.154.04.232.159.347.495.444.822.499.157.026.322.014.487-.004l-.018-.174c-.058 0-.138-.03-.202-.037l.154-.39.094-.079.043-.045.161-.227c-.039-.427-.69-.741-1.067-.543-.326.17-.5.41-.514.768z"/><path fill="#fff" d="M26.47 17.3c-.014.1.07.274.156.312.216.097.457.136.74.213-.19-.692-.065-1.307.194-1.906.023-.049.044-.1.067-.15-.017-.011-.035-.02-.051-.029l-.096.12-.009.005c-.012.008-.023.019-.035.028-.01.01-.023.02-.034.033l-.044.032c-.383.391-.808.76-.888 1.342z"/><path fill="#131715" d="m26.637 18.845.01.262.58.3.392.227c.062.04.122.08.184.123.085.061.172.121.257.183l.048.04c.466.543.932 1.085 1.397 1.63.047.055.078.13.133.17.053.039.141.078.191.058.044-.017.098-.135.076-.172-.15-.283-.294-.576-.487-.829-.271-.356-.587-.683-.883-1.022l-.07-.09.219-.035c.4-.017.803-.024 1.202-.061.076-.007.14-.13.21-.199-.08-.037-.159-.098-.24-.102-.51-.023-1.022-.031-1.532-.045l-.672-.206c-.257-.079-.51-.163-.77-.234-.075-.02-.162 0-.245.002z"/><path fill="#609543" d="m27.175 34.378.089.307.005.086c.013.176.023.353.036.53v.396l.624-.485a.478.478 0 0 1 .046-.044l.968-.88.044-.04 1.07-1.128.316-.405h-.326c-.28.14-.576.258-.838.425-.6.377-1.183.78-1.771 1.171-.023.016-.057.016-.085.021l-.087.01-.09.036zm.412 1.7.076.091.092.087.087.086.222.221c.031.039.065.075.099.114.03-.054.06-.11.092-.165l.46-.933c.031-.063.065-.126.098-.19l.66-.616.133-.063c.062-.021.124-.042.186-.065.083-.046.168-.091.253-.139l.046-.038c.314-.401.642-.793.927-1.21.048-.073-.078-.26-.125-.396-.12.077-.263.132-.357.232-.294.318-.567.653-.854.978-.133.151-.278.294-.418.441l-.729.648c-.276.227-.557.447-.824.68-.064.054-.084.156-.124.237z"/><path fill="#fff" d="M28.31 15.896c.005.053.012.106.02.158.102.055.24.18.302.15.126-.062.208-.206.307-.317-.106-.077-.214-.214-.323-.214-.102-.002-.205.142-.306.223zm.065 1.219.334.353c.122-.179.24-.283.257-.4.009-.062-.183-.225-.245-.208-.13.04-.232.166-.346.255z"/><path fill="#609543" d="m28.723 14.607-.044.11.306.006c.31.012.623.023.933.033l.216.01.222.011c.14.032.278.08.418.093.275.029.551.04.828.058.416.211.83.434 1.255.631.32.148.657.263.985.393l.075-.086-.862-1.138-.088-.126v-.006c-.167-.51-.645-.437-1.03-.539l-.699-.02c-.044 0-.088-.004-.13-.008-.456.018-.926-.028-1.362.069-.36.082-.683.332-1.023.509z"/><path fill="#fff" d="M29.976 16.595c-.03.352.101.455.52.455.294.04.446-.088.436-.423-.013-.451-.085-.525-.557-.534-.369-.007-.38.269-.399.502zm1.505-1.312c-.073-.033-.17-.016-.356-.028.376.429.608.855.553 1.337-.052.453-.213.894-.323 1.331.488-.02 1.034-.13 1.472-.539.274-.256.54-.527.788-.81.048-.054.032-.262-.012-.284a83.64 83.64 0 0 0-2.122-1.007z"/></g></g><defs><clipPath id="a"><rect width="42" height="42" fill="#fff" rx="21"/></clipPath><clipPath id="b"><path fill="#fff" d="M-4 0h46v44H-4z"/></clipPath></defs></svg>