<svg width="42" height="42" viewBox="0 0 42 42" fill="none" xmlns="http://www.w3.org/2000/svg">
<g clip-path="url(#clip0_7277_55354)">
<circle cx="21" cy="21" r="21" fill="#242235"/>
<g clip-path="url(#clip1_7277_55354)">
<path d="M41.9558 0.0439453H-3.95557V43.9561H41.9558V0.0439453Z" fill="#609543"/>
<path d="M-0.0151918 30.9581C-0.0559625 31.3673 -0.12155 31.7801 -0.11446 32.1894C-0.0967331 33.1976 0.131937 34.1637 0.488238 35.1122C0.732862 35.7638 1.07144 36.3435 1.52169 36.8686C1.59259 36.9442 1.6635 37.0197 1.73263 37.0952C2.21833 37.4483 2.70404 37.7996 3.18974 38.1526C3.34219 38.2317 3.49463 38.3125 3.64708 38.3933C3.86334 38.4864 4.07961 38.5795 4.29764 38.6726C4.58126 38.8113 4.86666 38.9501 5.15205 39.0871C5.35236 39.1538 5.55444 39.2188 5.75475 39.2856C5.84338 39.3119 5.93379 39.34 6.02242 39.3664C6.07914 39.3839 6.13764 39.4015 6.19436 39.4173C6.36277 39.4683 6.53117 39.5174 6.69779 39.5666C7.35367 39.6983 8.00777 39.8283 8.66188 39.9583L9.24685 40.0637C9.93818 40.134 10.6277 40.2323 11.3208 40.2692C12.1256 40.3149 12.9339 40.336 13.7405 40.3131C14.3857 40.2938 15.0292 40.1954 15.6744 40.134C15.7985 40.1234 15.9226 40.1269 16.0485 40.1234C16.1796 40.1094 16.3108 40.0936 16.442 40.0778C16.4579 40.0778 16.4757 40.076 16.4916 40.076C16.5342 40.076 16.5785 40.0725 16.621 40.0707C16.6795 40.069 16.7398 40.0672 16.7983 40.0637C16.9738 40.0619 17.1475 40.0619 17.323 40.0584C18.2075 40.0409 19.0921 40.0198 19.9766 40.0005C20.5226 39.997 21.0668 39.9917 21.611 39.9882L23.0681 39.5877C23.2897 39.5139 23.5113 39.4419 23.7311 39.3681C23.8445 39.3189 23.958 39.268 24.0714 39.2171C24.2345 39.0607 24.3976 38.9044 24.5607 38.7463L24.6511 38.6146C24.6777 38.5847 24.7043 38.5531 24.7309 38.5215C24.7468 38.4934 24.7645 38.4653 24.7823 38.4372C24.8744 38.2405 24.9914 38.2791 25.0818 38.4249C25.1527 38.5373 25.1829 38.6743 25.229 38.8008C25.3779 38.9466 25.525 39.0924 25.6721 39.2399C25.8689 39.3646 26.0657 39.4876 26.2624 39.6123C26.6648 39.8758 27.0512 40.1638 27.4696 40.3939C27.9606 40.6644 28.4782 40.8822 28.9834 41.1229C29.2085 41.1457 29.4337 41.1615 29.657 41.1931C29.8804 41.2265 30.102 41.2792 30.3235 41.3213C31.4669 41.3617 32.612 41.4021 33.7554 41.4408C34.2659 41.36 34.7817 41.3073 35.2834 41.1896C35.8294 41.0631 36.37 40.9033 36.8929 40.7083C37.2882 40.5608 37.6516 40.3342 38.0292 40.1427C38.148 40.0567 38.2667 39.9688 38.3855 39.8828C38.8801 39.4419 38.9084 38.922 38.639 38.3582C38.3678 37.7908 38.0895 37.2252 37.8147 36.6596C37.7438 36.5683 37.6729 36.4787 37.6038 36.3891C37.4673 36.0853 37.3326 35.7814 37.1961 35.4775C37.1819 35.4617 37.1677 35.4477 37.1517 35.4336C37.134 35.4073 37.1163 35.3791 37.0986 35.3528C37.0578 35.2913 37.017 35.2316 36.9763 35.1701C36.9692 35.1596 36.9656 35.1473 36.9638 35.135C36.9408 35.1016 36.916 35.0683 36.8929 35.0349C36.8876 35.0243 36.8841 35.012 36.8805 35.0015L36.7104 34.8223C36.6678 34.7767 36.6235 34.731 36.581 34.6853C36.4338 34.5255 36.2867 34.3657 36.1396 34.2041C36.0793 34.1039 36.0173 34.0056 35.957 33.9055C35.9003 33.8299 35.8453 33.7526 35.7886 33.6771C35.7106 33.5946 35.6326 33.5102 35.5564 33.4259C35.5138 33.3803 35.4731 33.3328 35.4323 33.2872L35.2142 33.0659C35.1398 33.0096 35.0653 32.9517 34.9909 32.8955H34.9891C34.9289 32.8393 34.8668 32.7831 34.8065 32.7269C34.3297 32.3984 33.8546 32.0682 33.3742 31.745C33.0055 31.4956 32.628 31.2549 32.2539 31.0108C32.1405 30.8773 31.9845 30.7561 32.1511 30.5593C32.3585 30.259 32.5677 29.9569 32.7733 29.6548L32.5872 29.53C32.4755 29.6987 32.3443 29.8585 32.2096 30.0183C31.9012 30.3784 31.8976 30.3872 31.5077 30.0851C31.4456 30.0306 31.3836 29.9762 31.3215 29.92C31.2223 29.8269 31.1212 29.7356 31.022 29.6425C30.9581 29.6056 30.8961 29.5687 30.8323 29.53C30.6249 29.5072 30.4015 29.4211 30.2136 29.4703C29.7226 29.6021 29.2475 29.7918 28.7654 29.9586C28.7494 29.9692 28.7335 29.9779 28.7175 29.9885C28.6803 29.999 28.6413 30.0078 28.6041 30.0183C28.5385 30.071 28.4747 30.1237 28.4109 30.1747C28.4002 30.1799 28.3878 30.1835 28.3754 30.1852L28.2797 30.2643C28.262 30.2783 28.246 30.2924 28.23 30.3064C28.2159 30.317 28.2017 30.3275 28.1875 30.3398C27.7904 30.6718 27.3951 31.0055 26.9927 31.334C26.7375 31.5412 26.4751 31.738 26.2146 31.9399C26.1702 31.9839 26.1259 32.026 26.0816 32.0699C25.9699 32.1367 25.8388 32.1841 25.7501 32.2737C25.4381 32.5916 25.1545 32.5319 24.8709 32.2438C24.7699 32.2122 24.6706 32.1806 24.5713 32.1472L24.2203 32.1367C24.1884 32.1384 24.1583 32.1384 24.1264 32.1402C23.6637 32.2017 23.2968 32.4318 23.0646 32.8252C22.781 33.2995 22.9033 33.8545 23.3766 34.385C23.5893 34.6239 23.8197 34.8469 24.0431 35.0753C24.0714 35.1069 24.098 35.1368 24.1246 35.1684C24.1406 35.1965 24.1583 35.2246 24.176 35.2509C24.215 35.3124 24.2522 35.3739 24.2912 35.4354L24.3125 35.5091C24.4277 35.6725 24.5412 35.8358 24.6564 35.9992C24.6901 36.0536 24.7255 36.1081 24.761 36.1608C24.7716 36.1942 24.784 36.2275 24.7947 36.2609L24.8638 36.909C24.8549 36.9565 24.8461 37.0021 24.8372 37.0478C24.8337 37.3236 24.8284 37.5993 24.823 37.8751C24.8124 37.8909 24.8035 37.9085 24.7929 37.9243L24.6706 38.0666C24.5199 38.2791 24.3675 38.4934 24.215 38.7077L24.0821 38.8394C24.0661 38.8517 24.0519 38.864 24.0378 38.8763C23.9988 38.8833 23.9598 38.8921 23.9225 38.9009C23.8144 38.9536 23.7063 39.0081 23.5999 39.0607C23.4847 39.0941 23.3712 39.1292 23.2578 39.1626C23.2401 39.1732 23.2223 39.1837 23.2046 39.196C23.1727 39.2083 23.1426 39.2223 23.1107 39.2346C22.9937 39.2926 22.8767 39.3523 22.7597 39.4103C22.5257 39.4682 22.2953 39.5631 22.0577 39.5789C21.1359 39.6369 20.2124 39.679 19.2906 39.7089C18.0586 39.751 16.8249 39.7704 15.5929 39.8125C14.4655 39.8529 13.3363 39.9126 12.2089 39.9636C12.1912 39.9566 12.1735 39.9495 12.154 39.9425C10.8617 39.8213 9.56947 39.7019 8.27722 39.5807C8.26126 39.5789 8.24354 39.5772 8.22758 39.5754C8.20277 39.5701 8.17618 39.5649 8.15136 39.5613C8.11413 39.5455 8.07868 39.528 8.04146 39.5122C7.89078 39.4981 7.73302 39.5034 7.58766 39.4647C7.08068 39.3312 6.57903 39.1837 6.0756 39.0397C5.99406 39.008 5.91252 38.9764 5.83275 38.9466C5.61826 38.8746 5.40554 38.8043 5.19105 38.7323C5.1556 38.7147 5.12015 38.6954 5.08469 38.6778L5.01024 38.662L4.86666 38.5883C4.79752 38.5549 4.72662 38.5215 4.65571 38.4881L4.24623 38.2826C4.2356 38.2791 4.22319 38.2756 4.21255 38.2703C4.09024 38.2053 3.96616 38.1403 3.84207 38.0754C3.39182 37.8347 2.9398 37.5958 2.48955 37.3552C2.44523 37.3253 2.40092 37.2972 2.3566 37.2674C2.34065 37.2533 2.32469 37.2393 2.31051 37.2252C2.21833 37.1269 2.12793 37.0267 2.03575 36.9284C1.93471 36.8247 1.8319 36.7211 1.73086 36.6175L1.65109 36.5226C1.63336 36.4822 1.61564 36.4401 1.59791 36.3997C1.51105 36.3101 1.42596 36.2187 1.34088 36.1292C1.3072 36.0747 1.27174 36.0203 1.23806 35.9658C1.18489 35.8745 1.13348 35.7814 1.0803 35.69C1.07321 35.6655 1.06612 35.6426 1.05903 35.618C1.0218 35.5548 0.984577 35.4898 0.949124 35.4266C0.856947 35.1684 0.768315 34.9084 0.672593 34.6502C0.351745 33.7895 0.202843 32.899 0.215252 31.9803C0.225887 31.9347 0.236523 31.889 0.245386 31.8416C0.248932 31.8152 0.250704 31.7871 0.252477 31.7608C0.263113 31.6554 0.273749 31.5518 0.284384 31.4481C0.291475 31.406 0.296793 31.3656 0.303884 31.3234C0.312747 31.2619 0.32161 31.2005 0.332246 31.139C0.335791 31.0845 0.341109 31.0283 0.344654 30.9739C0.360608 30.9071 0.376562 30.8421 0.392516 30.7754C0.458103 29.9973 0.525463 29.2174 0.592824 28.4375C0.612323 28.2215 0.628276 28.0037 0.661957 27.7894C0.876446 26.3719 1.09625 24.9526 1.31429 23.5352C1.32492 23.4895 1.33556 23.4438 1.3462 23.3964C1.34797 23.37 1.34974 23.3419 1.35329 23.3138C1.40115 23.1189 1.45078 22.9221 1.50042 22.7272C1.7149 22.0334 1.93117 21.3378 2.14566 20.644C2.16693 20.6088 2.18643 20.5737 2.2077 20.5403C2.32292 20.24 2.43814 19.9414 2.55336 19.6428C2.59059 19.5795 2.62781 19.5181 2.66504 19.4566C2.75899 19.237 2.84053 19.0104 2.95221 18.7997C3.69494 17.3857 4.44477 15.9752 5.19105 14.563C5.21409 14.5279 5.23537 14.4928 5.25841 14.4594C5.48176 14.0378 5.70512 13.6163 5.9267 13.1965C5.9391 13.1789 5.95329 13.1631 5.96569 13.1473C6.20146 12.7468 6.44253 12.3516 6.6712 11.9476C7.33772 10.7673 8.31267 9.83105 9.17063 8.8035C9.43121 8.49085 9.71305 8.19049 9.93641 7.85324C10.2324 7.40709 10.4788 6.92933 10.7483 6.46386C10.7873 6.41643 10.8263 6.36725 10.8635 6.31983C11.0337 6.10554 11.2021 5.893 11.3705 5.67871C11.4733 5.59264 11.5743 5.50482 11.6771 5.41699C11.9625 5.24486 12.2444 5.0657 12.5369 4.90059C12.7443 4.78466 12.9534 4.63536 13.1803 4.58969C13.838 4.45795 14.5027 4.39999 15.1692 4.39999V4.19097C14.6516 4.19097 14.1358 4.18921 13.6182 4.18921L13.1023 4.2946C13.0243 4.33148 12.9446 4.36837 12.8666 4.40526C11.7374 4.85492 10.8901 5.62602 10.2519 6.63951C9.963 7.09268 9.67583 7.54586 9.38689 7.99903C9.04122 8.42586 8.69733 8.85444 8.35344 9.28302C7.76847 10.0067 7.1835 10.7286 6.59853 11.4523C6.49217 11.6139 6.37517 11.7685 6.28122 11.9353C5.80793 12.7644 5.33109 13.5899 4.87729 14.4278C4.19128 15.6924 3.52122 16.9659 2.84585 18.2358C2.82103 18.2833 2.79621 18.3307 2.7714 18.3764C2.76785 18.3904 2.76431 18.4009 2.75899 18.4132C2.66149 18.5924 2.564 18.7698 2.4665 18.949C2.42219 19.1035 2.3761 19.2564 2.33178 19.4109C2.32469 19.4232 2.31583 19.4373 2.30874 19.4496C2.26265 19.5374 2.21656 19.627 2.17047 19.7166C1.98435 20.2681 1.80176 20.8231 1.60677 21.3729C1.55537 21.517 1.46496 21.6469 1.39228 21.7839C1.38874 21.8103 1.38697 21.8366 1.38342 21.863C1.37279 21.8928 1.36392 21.9227 1.35329 21.9526C1.34797 21.9807 1.34088 22.0088 1.33379 22.0351C1.29656 22.1282 1.26111 22.2213 1.22388 22.3144C1.16007 22.6306 1.09625 22.9485 1.03067 23.2647C1.0218 23.2945 1.01294 23.3244 1.0023 23.3525C0.99344 23.3806 0.98635 23.4069 0.977486 23.435C0.966851 23.4807 0.954442 23.5264 0.942034 23.572C0.778951 24.6927 0.614095 25.8151 0.451013 26.9357C0.440377 26.9814 0.427968 27.0271 0.417332 27.0727L0.406697 27.157L0.369471 27.3783C0.335791 27.7841 0.303883 28.1916 0.270203 28.5974C0.238296 28.78 0.204616 28.9609 0.170936 29.1436C0.108893 29.7479 0.0433053 30.3521 -0.0151918 30.9581ZM23.8038 34.3165C23.4971 33.9775 23.2631 33.6367 23.3092 33.1625C23.3287 33.1256 23.3482 33.0904 23.3659 33.0553C23.6123 32.639 24.0821 32.4177 24.5323 32.502C24.878 32.567 25.1687 32.9359 25.2237 33.3732C25.2361 33.4049 25.2467 33.4365 25.2573 33.4681L25.2839 33.5471C25.2946 33.577 25.307 33.6069 25.3194 33.6367C25.4931 33.8159 25.6686 33.995 25.8441 34.176C25.9788 34.2128 26.1135 34.2515 26.25 34.2901C26.4911 34.3709 26.8385 34.3059 26.8456 34.7134C26.858 34.7503 26.8722 34.7872 26.8846 34.8241C26.9413 35.1842 26.9981 35.5425 27.0548 35.9026C27.0761 35.95 27.0973 35.9992 27.1186 36.0484C27.1257 36.0712 27.1328 36.0958 27.1399 36.1204C27.3154 36.2995 27.482 36.4875 27.6681 36.6526C27.9535 36.9073 28.2531 37.1479 28.5474 37.3938H28.5491C28.5633 37.4096 28.5757 37.4255 28.5899 37.4413C29.143 38.0525 29.7722 38.5022 30.6639 38.4249C30.71 38.4214 30.8004 38.5145 30.811 38.5724C30.905 39.0783 31.2542 39.254 31.7168 39.2961C32.1192 39.3049 32.5216 39.3312 32.924 39.3137C33.1544 39.3049 33.3512 39.2645 33.3512 39.5894C33.3512 39.6457 33.431 39.7054 33.4824 39.7528C33.7642 40.0128 34.1223 39.9566 34.4609 39.9759C34.507 39.9688 34.5513 39.9618 34.5974 39.953L35.3312 39.4841C35.3791 39.4437 35.4252 39.4033 35.4731 39.3611C35.5032 39.333 35.5333 39.3031 35.5617 39.2733C35.5776 39.2592 35.5918 39.2452 35.6078 39.2311C35.6929 39.1275 35.7797 39.0239 35.8648 38.9202C35.9836 38.7744 36.1023 38.6304 36.2211 38.4846C36.3558 38.3248 36.4888 38.1649 36.6235 38.0069C36.6412 37.9752 36.6625 37.9454 36.6767 37.912C36.7139 37.8277 36.7476 37.7416 36.783 37.6556C36.682 37.6591 36.5774 37.652 36.4817 37.6731C36.4232 37.6872 36.3682 37.7416 36.3292 37.7908C36.0385 38.1456 35.7709 38.5215 35.4589 38.857C35.0937 39.2452 34.7888 39.7756 34.1241 39.6615C33.9468 39.6298 33.711 39.5332 33.6384 39.3962C33.5125 39.1644 33.3742 38.8675 33.6703 38.6251C33.7128 38.5935 33.7536 38.5619 33.7961 38.5303C33.8529 38.4846 33.9096 38.4372 33.9645 38.3915C34.1152 38.2334 34.2641 38.0754 34.413 37.9173C34.6683 37.638 34.9289 37.3657 35.1717 37.0759C35.2373 36.9969 35.2462 36.8722 35.2798 36.7668C35.154 36.7931 34.9891 36.7773 34.9094 36.8511C34.6151 37.1216 34.3492 37.4219 34.0727 37.71L34.0301 37.7522L34.0266 37.7557C34.0124 37.7697 33.9982 37.7855 33.984 37.7996C33.8936 37.898 33.8015 37.9963 33.7093 38.0964C33.5515 38.2598 33.3937 38.4231 33.236 38.5883C33.0818 38.9027 32.8212 39.0098 32.4808 38.9799C32.3071 38.9641 32.121 39.0081 31.9561 38.9624C31.7186 38.8974 31.4953 38.7762 31.2648 38.6778C31.2542 38.662 31.2435 38.648 31.2329 38.6322L31.2294 38.6269C31.2187 38.6111 31.2099 38.5935 31.1992 38.5777C31.185 38.5356 31.1709 38.4916 31.1567 38.4495C31.1549 38.4337 31.1549 38.4179 31.1531 38.4021C31.1549 38.3318 31.1567 38.2598 31.1584 38.1895C31.2985 37.9208 31.4368 37.652 31.5768 37.3833C31.7487 37.1286 31.9207 36.8722 32.0944 36.6175L32.2114 36.4805C32.3497 36.3452 32.4826 36.2047 32.6297 36.0782C32.7556 35.9676 32.908 35.8868 33.025 35.7708C33.0729 35.7252 33.0605 35.618 33.0747 35.539C32.9967 35.539 32.9027 35.5056 32.8425 35.539C31.903 36.0115 31.3552 36.816 30.951 37.7399C30.9315 37.775 30.9121 37.8084 30.8926 37.8435C30.889 37.854 30.8855 37.8663 30.8801 37.8769C30.8341 37.9138 30.7897 37.9524 30.7437 37.9893C30.1374 38.107 29.618 37.9577 29.2015 37.494C29.0295 37.2709 28.8576 37.0478 28.6856 36.8265C28.5722 36.6157 28.5775 36.4137 28.7264 36.2205C28.7672 36.1731 28.8062 36.1257 28.8469 36.0782C28.8505 36.0677 28.854 36.0572 28.8593 36.0466C28.9746 35.8833 29.0898 35.7199 29.2032 35.5583C29.2794 35.4722 29.3557 35.3879 29.4319 35.3019C29.5205 35.2316 29.6092 35.1596 29.6978 35.0893C29.8733 35.012 30.0488 34.9348 30.2225 34.8592C30.3998 34.7591 30.5788 34.6607 30.7561 34.5606C30.9599 34.4552 31.162 34.3481 31.3658 34.2427C31.6158 34.0231 31.8657 33.8053 32.1157 33.5858C32.2079 33.5155 32.3 33.447 32.3904 33.3768C32.534 33.2556 32.6758 33.1344 32.8194 33.0149C32.885 32.8112 32.7751 32.776 32.6067 32.7971C32.5766 32.8129 32.5464 32.8287 32.5163 32.8428C32.2646 33.0342 32.0146 33.2239 31.7629 33.4136C31.5821 33.5665 31.4013 33.721 31.2205 33.8738C31.2134 33.6806 31.3091 33.5419 31.3233 33.3961C31.3446 33.1712 31.7452 33.0553 31.497 32.7673C31.4243 32.7339 31.3517 32.704 31.2808 32.6671C30.6852 32.3439 30.0736 32.228 29.4284 32.5161C29.3379 32.5811 29.2493 32.6478 29.1607 32.7128C28.893 32.9148 28.6378 33.1308 28.3577 33.3135C28.0333 33.5243 27.6876 33.7052 27.3526 33.8984C27.3083 33.9125 27.264 33.9283 27.2214 33.9423C27.1257 33.9476 27.0264 33.9599 26.9289 33.9687C26.7641 33.9863 26.5992 33.9986 26.4415 33.9722C26.1153 33.9178 25.7785 33.8211 25.6189 33.4734C25.6048 33.3961 25.5924 33.3188 25.58 33.2415C25.5941 32.8832 25.7679 32.6443 26.094 32.4739C26.4716 32.2754 27.1221 32.5898 27.1611 33.0167C27.108 33.0922 27.0548 33.1677 26.9998 33.2433C26.9857 33.2591 26.9715 33.2731 26.9573 33.2889C26.9254 33.3153 26.8952 33.3416 26.8633 33.368L26.7091 33.7579C26.7729 33.7649 26.8527 33.7948 26.9112 33.7948C26.9325 33.7948 26.952 33.7913 26.9662 33.7807C27.5564 33.3662 27.8737 32.9341 27.1594 32.365C27.0956 32.3158 27.0264 32.2754 26.9591 32.2298C26.5301 32.0014 26.9715 31.9347 27.0406 31.7977H27.0424C27.5121 31.4025 27.9819 31.0073 28.4534 30.6138C28.7193 30.454 28.9852 30.2959 29.2529 30.136C29.2848 30.115 29.3167 30.0921 29.3486 30.0693C29.5276 30.0061 29.7031 29.9323 29.8857 29.8796C30.2455 29.7777 30.5894 29.7724 30.8961 30.0394C31.1478 30.259 31.4208 30.4557 31.6707 30.677C31.7665 30.7596 31.8232 30.8861 31.9083 30.9844C32.1086 31.2128 32.2805 31.485 32.5252 31.6466C33.0481 31.9909 33.61 32.2754 34.156 32.5846C34.2623 32.6689 34.3669 32.7532 34.4733 32.8375C34.4857 32.841 34.4963 32.8445 34.507 32.8498C34.5548 32.8902 34.6009 32.9306 34.6488 32.971C34.943 33.2784 35.2355 33.5858 35.528 33.8932C35.5546 33.9248 35.583 33.9564 35.6095 33.988C36.4001 34.8223 36.9904 35.7954 37.5594 36.7808C37.5719 36.7984 37.5843 36.8142 37.5967 36.8318C37.8838 37.4975 38.1994 38.1562 38.444 38.8377C38.5167 39.0414 38.4812 39.4296 38.343 39.535C37.8626 39.9003 37.3485 40.2639 36.7901 40.4747C35.6982 40.884 34.5655 41.1738 33.376 41.1246C32.495 41.0877 31.6122 41.0948 30.7348 41.0227C30.0452 40.9648 29.3255 40.9174 28.6874 40.682C28.0067 40.4326 27.4075 39.9671 26.7712 39.5947C26.4663 39.412 26.1437 39.2522 25.8618 39.0379C25.6774 38.8974 25.4984 38.6989 25.4098 38.4881C25.1971 37.977 25.1403 37.4395 25.1705 36.8757C25.19 36.498 25.0233 36.1116 24.94 35.7287C24.5642 35.2562 24.2079 34.7661 23.8038 34.3182V34.3165ZM27.264 34.6853C27.2338 34.5817 27.2055 34.4798 27.1753 34.378C27.2055 34.3657 27.2356 34.3551 27.2657 34.3428C27.2941 34.3393 27.3242 34.3358 27.3526 34.3323C27.381 34.327 27.4146 34.327 27.4377 34.3112C28.0262 33.9195 28.6094 33.5173 29.2085 33.1396C29.4709 32.9728 29.7669 32.8551 30.047 32.7146H30.3732C30.2349 32.892 30.1463 33.0061 30.0576 33.1203C29.7013 33.4962 29.3433 33.8721 28.987 34.248C28.971 34.262 28.9568 34.2743 28.9426 34.2884L27.9748 35.1684C27.9588 35.1824 27.9429 35.1965 27.9287 35.2123C27.7408 35.3581 27.5511 35.5056 27.3047 35.6971V35.3001C27.2923 35.1245 27.2817 34.9471 27.2693 34.7714C27.2675 34.7433 27.2657 34.7134 27.264 34.6853ZM27.6628 36.1696C27.638 36.1397 27.6132 36.1081 27.5866 36.0782C27.6274 35.9974 27.6468 35.8956 27.7107 35.8411C27.9783 35.6075 28.2584 35.3879 28.5349 35.1613L29.2635 34.5132C29.4035 34.3657 29.5489 34.2234 29.6818 34.0723C29.969 33.7474 30.242 33.4119 30.5363 33.094C30.6302 32.9938 30.7738 32.9394 30.8926 32.8621C30.9404 32.9974 31.0663 33.1853 31.0184 33.2573C30.733 33.6754 30.4051 34.0671 30.0913 34.4675C30.0771 34.4798 30.0612 34.4939 30.0452 34.5062C29.9601 34.5536 29.8751 34.5993 29.7917 34.6449C29.7297 34.6678 29.6677 34.6888 29.6056 34.7099L29.4727 34.7732L28.8132 35.3897C28.7796 35.4529 28.7459 35.5162 28.714 35.5794C28.5615 35.8903 28.4073 36.2012 28.2549 36.5121C28.223 36.5665 28.1928 36.6227 28.1627 36.6772C28.129 36.6385 28.0953 36.6017 28.0634 36.563C27.989 36.4892 27.9163 36.4155 27.8418 36.3417L27.755 36.2556C27.7248 36.2275 27.6947 36.1994 27.6628 36.1696Z" fill="#131715"/>
<path d="M0.215315 31.9805C0.202906 32.8991 0.351808 33.7896 0.672656 34.6503C0.768378 34.9085 0.85701 35.1685 0.949188 35.4267C0.98464 35.4899 1.02187 35.5549 1.05909 35.6181C1.06618 35.6427 1.07327 35.6656 1.08036 35.6902C1.13354 35.7815 1.18495 35.8746 1.23813 35.9659C1.27181 36.0204 1.30726 36.0748 1.34094 36.1293C1.42603 36.2189 1.51111 36.3102 1.59797 36.3998C1.6157 36.4402 1.63343 36.4823 1.65115 36.5227L1.73092 36.6176C1.83196 36.7212 1.93478 36.8249 2.03582 36.9285C2.12799 37.0268 2.2184 37.127 2.31057 37.2253C2.32476 37.2394 2.34071 37.2534 2.35666 37.2675C2.40098 37.2973 2.4453 37.3255 2.48961 37.3553C2.93986 37.596 3.39189 37.8348 3.84214 38.0755C3.96622 38.1405 4.09031 38.2055 4.21262 38.2704C4.22325 38.2757 4.23566 38.2792 4.2463 38.2827L4.65578 38.4882C4.72668 38.5216 4.79759 38.555 4.86672 38.5884L5.01031 38.6621L5.08476 38.6779C5.12021 38.6955 5.15566 38.7148 5.19111 38.7324C5.4056 38.8044 5.61832 38.8747 5.83281 38.9467C5.91258 38.9765 5.99412 39.0082 6.07566 39.0398C6.57909 39.1838 7.08075 39.3314 7.58772 39.4649C7.73308 39.5035 7.89084 39.4982 8.04152 39.5123C8.07874 39.5281 8.1142 39.5457 8.15142 39.5615C8.17624 39.565 8.20283 39.5702 8.22765 39.5755C8.2436 39.5773 8.26133 39.579 8.27728 39.5808C9.56953 39.702 10.8618 39.8214 12.154 39.9426C12.1735 39.9496 12.1913 39.9567 12.209 39.9637C13.3364 39.9128 14.4656 39.853 15.593 39.8126C16.8249 39.7705 18.0587 39.7512 19.2907 39.709C20.2125 39.6791 21.136 39.637 22.0578 39.579C22.2953 39.5632 22.5258 39.4684 22.7597 39.4104C22.8767 39.3524 22.9937 39.2927 23.1107 39.2348C23.1426 39.2225 23.1728 39.2084 23.2047 39.1961C23.2224 39.1838 23.2401 39.1733 23.2579 39.1627C23.3713 39.1294 23.4848 39.0942 23.6 39.0609C23.7063 39.0082 23.8145 38.9537 23.9226 38.901C23.9598 38.8922 23.9988 38.8835 24.0378 38.8764C24.052 38.8641 24.0662 38.8518 24.0821 38.8395L24.2151 38.7078C24.3675 38.4935 24.52 38.2792 24.6707 38.0667L24.793 37.9244C24.8036 37.9086 24.8125 37.891 24.8231 37.8752C24.8284 37.5995 24.8337 37.3237 24.8373 37.0479C24.8461 37.0023 24.855 36.9566 24.8639 36.9092L24.7947 36.261C24.7841 36.2276 24.7717 36.1943 24.7611 36.1609C24.7256 36.1082 24.6901 36.0538 24.6565 35.9993C24.5412 35.836 24.4278 35.6726 24.3126 35.5092L24.2913 35.4355C24.2523 35.374 24.2151 35.3125 24.1761 35.251C24.1584 35.2247 24.1406 35.1966 24.1247 35.1685C24.0981 35.1369 24.0715 35.107 24.0431 35.0754C23.8198 34.847 23.5893 34.624 23.3766 34.3851C22.9033 33.8546 22.781 33.2996 23.0646 32.8253C23.2969 32.4319 23.6638 32.2018 24.1264 32.1403C24.1584 32.1385 24.1885 32.1385 24.2204 32.1368L24.5714 32.1473C24.6706 32.1807 24.7699 32.2123 24.871 32.2439C25.1546 32.532 25.4382 32.5917 25.7502 32.2738C25.8388 32.1842 25.97 32.1368 26.0817 32.07C26.126 32.0261 26.1703 31.984 26.2146 31.9401C26.4752 31.7381 26.7375 31.5413 26.9928 31.3341C27.3952 31.0056 27.7905 30.6719 28.1876 30.3399C28.2017 30.3276 28.2159 30.3171 28.2301 30.3065C28.2461 30.2925 28.262 30.2784 28.2797 30.2644L28.3755 30.1853C28.3879 30.1836 28.4003 30.1801 28.4109 30.1748C28.4747 30.1239 28.5385 30.0712 28.6041 30.0185C28.6414 30.0079 28.6804 29.9991 28.7176 29.9886C28.7335 29.9781 28.7495 29.9693 28.7654 29.9587C29.2476 29.7919 29.7227 29.6022 30.2137 29.4704C30.4016 29.4213 30.6249 29.5073 30.8323 29.5302C30.8962 29.5688 30.9582 29.6057 31.022 29.6426C31.1213 29.7357 31.2223 29.827 31.3216 29.9201C31.3836 29.9763 31.4457 30.0308 31.5077 30.0852C31.8977 30.3873 31.9012 30.3785 32.2097 30.0185C32.3444 29.8586 32.4756 29.6988 32.5873 29.5302C32.7734 29.2491 32.9081 28.9435 32.9347 28.5817C32.94 28.5044 32.9294 28.4253 32.9258 28.3463C32.9258 28.2989 32.9258 28.2532 32.9258 28.2058C32.9241 28.1461 32.9241 28.0863 32.9241 28.0284C32.9063 28.0178 32.8904 28.009 32.8727 27.9985C32.6812 28.1056 32.4774 28.1917 32.3036 28.3199C31.9101 28.6115 31.4616 28.7257 30.9901 28.738C29.471 28.7749 27.9518 28.8135 26.4309 28.8135C25.0358 28.8135 23.6407 28.7696 22.2457 28.7274C22.0489 28.7222 21.8539 28.6168 21.6589 28.5588C21.5827 28.529 21.5047 28.4973 21.4285 28.4675C21.1821 28.4534 20.9339 28.4411 20.6875 28.4271L20.2461 28.3533C20.0831 28.3252 19.92 28.2971 19.7569 28.2708L19.6718 28.2655C19.5974 28.2514 19.5211 28.2391 19.4467 28.2251C19.4183 28.2233 19.39 28.2216 19.3634 28.2198C19.3013 28.2093 19.2411 28.197 19.1808 28.1847C19.1524 28.1812 19.1258 28.1777 19.0975 28.1742C19.0106 28.1566 18.922 28.1373 18.8351 28.1179C18.805 28.1092 18.7749 28.0986 18.7447 28.0881C18.7146 28.0846 18.6862 28.0811 18.6561 28.0775C18.3902 27.9458 18.1243 27.8158 17.8602 27.6841C17.4666 27.5049 17.0731 27.324 16.6814 27.1431C16.5431 27.0763 16.4066 27.0096 16.2683 26.9429C16.2276 26.9253 16.1868 26.906 16.146 26.8884C15.8482 26.7479 15.5486 26.6074 15.2508 26.4651C15.0789 26.386 14.9087 26.3053 14.7368 26.2262C14.4372 26.0435 14.1359 25.8626 13.8363 25.6817C13.7973 25.6729 13.7601 25.6641 13.7228 25.6554C13.6856 25.636 13.6502 25.615 13.6147 25.5956C12.8737 25.1196 12.1097 24.6752 11.4024 24.1553C10.8866 23.7759 10.9522 22.7536 11.4627 22.3602C11.5513 22.2917 11.7002 22.2443 11.8084 22.2636C12.5174 22.383 13.2229 22.5253 13.9285 22.6588L14.7261 22.9117C15.3005 23.0575 15.873 23.2033 16.4474 23.3491C16.6034 23.3983 16.7576 23.4633 16.9171 23.4966C17.5801 23.6336 18.2448 23.7636 18.9096 23.8936C18.9397 23.8989 18.9752 23.8848 19.0088 23.8795C19.0337 23.8831 19.0602 23.8848 19.0868 23.8883C19.6789 24.0007 20.271 24.1132 20.863 24.2273C21.0101 24.2537 21.1573 24.28 21.3062 24.3081C21.6589 24.352 22.0117 24.3977 22.3644 24.4434C22.4194 24.4486 22.4761 24.4539 22.5311 24.4574C22.7987 24.4873 23.0682 24.5154 23.3359 24.5453C23.935 24.5769 24.5342 24.6067 25.1333 24.6383C25.2131 24.6559 25.2946 24.6752 25.3744 24.6928C25.8725 24.7244 26.3706 24.7578 26.8705 24.7894C27.0017 24.821 27.1328 24.8702 27.2658 24.8772C27.7072 24.8983 28.1503 24.9036 28.5935 24.9159C28.7389 24.9124 28.8842 24.9106 29.0313 24.9088C29.0633 24.9018 29.0952 24.8965 29.1253 24.8913C29.2565 24.8878 29.3859 24.8843 29.517 24.8807C29.5915 24.8667 29.6642 24.8526 29.7386 24.8403C30.5097 24.8526 31.2649 24.742 31.9934 24.4961C32.153 24.4416 32.2859 24.3187 32.433 24.2256C32.6085 24.0851 32.8337 23.9762 32.9524 23.7987C33.2928 23.2876 33.5959 22.7536 33.899 22.2179C33.9611 22.1055 33.9522 21.9544 33.977 21.8209C33.9788 21.6014 33.9806 21.3836 33.9823 21.1658C33.9788 21.1359 33.977 21.1078 33.9735 21.0779C33.9681 21.0375 33.9628 20.9954 33.9575 20.955C33.938 20.9041 33.9203 20.8549 33.9026 20.8039C33.7377 20.5369 33.5835 20.2629 33.4062 20.0047C33.2928 19.8396 33.1439 19.6956 33.0109 19.541C32.9453 19.5305 32.8461 19.4883 32.8195 19.5147C32.6404 19.6938 32.4774 19.8888 32.309 20.0767C32.0271 20.1523 31.7453 20.226 31.4634 20.3016H31.2401C31.1674 20.3016 31.0947 20.2981 31.022 20.2946C31.0061 20.2928 30.9919 20.291 30.9759 20.2893C30.9103 20.2489 30.8448 20.2085 30.7774 20.1681C30.7827 20.1189 30.7863 20.0715 30.7916 20.0241C31.1053 19.9801 31.4191 19.9345 31.7346 19.8976C32.0306 19.8625 32.254 19.7272 32.3994 19.4672C32.4171 19.4444 32.4348 19.4233 32.4525 19.4005C32.4295 19.3952 32.4065 19.39 32.3816 19.3847C32.0289 19.3812 31.6743 19.3829 31.3216 19.3706C31.2525 19.3706 31.1337 19.3179 31.1301 19.2811C31.1231 19.1985 31.1709 19.1089 31.1975 19.0229C31.2135 19.0211 31.2276 19.0193 31.2418 19.0158C31.389 19.0158 31.5343 19.0141 31.6814 19.0123C31.7399 19.0141 31.8002 19.0158 31.8605 19.0176C32.5731 19.0369 33.3105 18.5609 33.603 17.8882C33.7111 17.6352 33.8104 17.3805 33.9079 17.1241C33.9274 17.0696 33.9185 17.0029 33.9309 16.8272C33.7767 16.9801 33.6916 17.0556 33.6172 17.1399C33.1793 17.6317 32.7078 18.0831 32.0271 18.2078C31.6814 18.2728 31.3287 18.2904 30.9795 18.329C30.9617 18.3308 30.9458 18.3326 30.9281 18.3343H29.6925C29.0118 18.3045 28.3258 18.3045 27.6505 18.2324C27.2038 18.185 26.7641 18.0515 26.3352 17.9163C26.048 17.8267 25.9771 17.5474 26.0604 17.3033C26.0888 17.2172 26.1189 17.1294 26.1526 17.0433L25.6562 16.9432C25.6243 17.0187 25.5747 17.0942 25.5428 17.1698C25.479 17.0767 25.3708 16.9906 25.3602 16.894C25.2804 16.158 24.8798 15.6293 24.3338 15.1586C24.1495 15.0005 23.9687 14.8407 23.7896 14.6773L23.561 14.9109C23.8889 15.192 24.1584 15.5327 24.3516 15.9595L24.3835 16.0122C24.4012 16.0684 24.4207 16.1247 24.4384 16.1791C24.4473 16.1967 24.4579 16.2142 24.4686 16.2318C24.5607 16.5041 24.6228 16.7921 24.7557 17.0433C24.8745 17.2681 25.0411 17.4982 25.245 17.644C25.5782 17.8829 25.6084 18.5662 25.2592 18.7541C25.05 18.8683 24.8568 19.0141 24.6565 19.1476C24.5643 19.2003 24.4721 19.2547 24.3817 19.3074C24.1158 19.5217 23.8517 19.736 23.5876 19.952C23.5167 20.01 23.4528 20.0785 23.3837 20.1417C23.3748 20.1488 23.3642 20.1575 23.3554 20.1646C23.3075 20.2138 23.2579 20.2629 23.21 20.3139C23.2029 20.3209 23.1958 20.3297 23.1905 20.3367C23.077 20.4825 22.9636 20.6283 22.8519 20.7741C22.82 20.8004 22.7863 20.8268 22.7544 20.8514C22.7137 20.8742 22.6747 20.8953 22.6339 20.9181C22.6197 20.9286 22.6038 20.9392 22.5896 20.9497C22.3095 21.1535 22.0276 21.359 21.7476 21.5645C21.7174 21.5768 21.6891 21.5908 21.6589 21.6031C21.6306 21.6084 21.604 21.6119 21.5756 21.6172C21.3505 21.698 21.1254 21.777 20.9002 21.8578C20.3685 22.0581 19.842 22.2794 19.2978 22.4498C19.0248 22.5358 18.7234 22.5376 18.4327 22.5587C18.3813 22.5622 18.2838 22.4779 18.2785 22.4269C18.2732 22.376 18.3494 22.2829 18.4061 22.2671C18.8688 22.1353 19.3332 22.0159 19.7994 21.8947L19.842 21.8631C19.9164 21.8315 19.9891 21.7999 20.0636 21.7682C20.2001 21.7173 20.3383 21.6664 20.4748 21.6172C21.5242 21.4011 22.3361 20.8092 23.0274 20.0293C23.1675 19.8993 23.3075 19.7711 23.4493 19.6411C23.4316 19.6148 23.4156 19.5867 23.3979 19.5603H23.0203C22.992 19.5586 22.9654 19.5568 22.937 19.5568C22.8909 19.5463 22.8431 19.5375 22.797 19.5287C22.329 19.5217 21.861 19.5147 21.393 19.5059C21.3452 19.5024 21.2991 19.4989 21.2512 19.4936C21.0332 19.4672 20.8152 19.4409 20.5971 19.4128C20.5386 19.4005 20.4784 19.3882 20.4181 19.3759C20.3755 19.3742 20.333 19.3724 20.2887 19.3689L20.1557 19.3636C19.92 19.3513 19.6842 19.339 19.4502 19.3267C18.8954 19.2547 18.3406 19.1862 17.7857 19.1089C17.5996 19.0826 17.417 19.0369 17.2327 19C17.1812 18.9877 17.1281 18.9754 17.0767 18.9631C17.0412 18.9456 17.004 18.928 16.9685 18.9104C16.0893 18.6821 15.5876 17.9409 14.9158 17.4297C14.7563 17.3085 14.6216 17.1557 14.4762 17.0169C14.5613 16.9625 14.6464 16.908 14.7332 16.8536C15.1711 17.2207 15.6001 17.6001 16.0521 17.9496C16.3073 18.1464 16.6016 18.2922 16.8799 18.4625C16.9721 18.4994 17.0643 18.5381 17.1582 18.575C17.2096 18.5837 17.2628 18.5943 17.316 18.6031C17.3514 18.6224 17.3869 18.6417 17.4223 18.6628C17.4613 18.6698 17.5003 18.6786 17.5375 18.6874C17.5872 18.7084 17.6386 18.7278 17.6882 18.7488C17.7166 18.7524 17.7432 18.7541 17.7715 18.7576L17.9098 18.7892C17.9382 18.7928 17.9648 18.7963 17.9931 18.798C18.0392 18.8086 18.0853 18.8173 18.1332 18.8279C18.2626 18.8349 18.392 18.8402 18.5214 18.8472C18.6118 18.8595 18.7022 18.87 18.7908 18.8823C18.8334 18.8841 18.8777 18.8858 18.9202 18.8876C18.9503 18.8911 18.9787 18.8946 19.0088 18.8981C20.2444 18.9825 21.4817 19.0668 22.7172 19.1511C22.7473 19.1528 22.7775 19.1546 22.8058 19.1563C22.9388 19.1686 23.0717 19.1809 23.2029 19.195H23.5557C24.1264 19.0931 24.6299 18.8507 25.011 18.4186C25.089 18.3308 25.0695 18.1376 25.0464 18.0006C25.0429 17.9707 24.8231 17.9373 24.7203 17.9672C24.1247 18.1358 23.5344 18.3238 22.9423 18.5064C22.7349 18.5187 22.5293 18.5328 22.3219 18.5468C22.2191 18.5504 22.1163 18.5539 22.0135 18.5556C21.9957 18.5627 21.978 18.5697 21.9603 18.575L21.8433 18.5697C21.8256 18.5627 21.8061 18.5556 21.7883 18.5486C21.0101 18.4327 20.2302 18.3167 19.452 18.2008C19.436 18.2008 19.4201 18.2008 19.4024 18.2008L19.1418 18.1007C18.8564 17.9865 18.5745 17.8653 18.2856 17.7617C17.7591 17.5702 17.2185 17.4139 16.7044 17.1961C16.4704 17.096 16.2878 16.8817 16.0804 16.7219C16.0131 16.6709 15.9386 16.627 15.8695 16.5796C15.2597 16.3038 14.6499 16.0263 14.0384 15.7523C13.9604 15.7154 13.877 15.6855 13.7973 15.6539C13.7813 15.6469 13.7654 15.6399 13.7494 15.6311C13.7211 15.6241 13.6945 15.617 13.6661 15.6082C13.6041 15.5696 13.5438 15.531 13.4818 15.4906C13.168 15.35 12.8649 15.2324 12.4944 15.2886C12.0831 15.3518 11.8828 15.0058 11.9183 14.5965C11.9591 14.1451 12.3083 13.9238 12.5157 13.5971C12.6185 13.4952 12.7213 13.3916 12.8223 13.2897C12.9393 13.1808 13.0652 13.0789 13.1698 12.9595C13.6856 12.371 14.3734 12.1181 15.1144 11.9635C15.3235 11.9284 15.5327 11.8933 15.7401 11.8581C16.8888 11.8546 18.0374 11.8511 19.1843 11.8476C19.2003 11.8476 19.2145 11.8458 19.2286 11.8458C19.6541 11.8353 20.0777 11.8248 20.5014 11.8142C20.5634 11.823 20.6237 11.8336 20.6858 11.8441C21.1998 11.8423 21.7139 11.8388 22.228 11.8353C22.2457 11.8265 22.2616 11.816 22.2776 11.8072C22.3964 11.816 22.5133 11.8248 22.6321 11.8336C22.7066 11.8458 22.7828 11.8564 22.859 11.8687C22.9299 11.8722 23.0008 11.8775 23.0717 11.881C23.1196 11.8898 23.1657 11.8985 23.2118 11.9073C23.4936 12.0882 23.7755 12.2656 24.0538 12.4501C24.1318 12.501 24.1974 12.5713 24.2683 12.631C24.325 12.6521 24.3835 12.6732 24.4402 12.6925V12.4167C24.1761 11.9337 23.912 11.4524 23.6496 10.9694C23.4263 10.6497 23.2029 10.3318 22.9813 10.0121C22.9228 9.95411 22.8643 9.89439 22.8058 9.83467C22.7757 9.80657 22.7473 9.77671 22.7172 9.7486C22.5984 9.63267 22.4797 9.51499 22.3609 9.39906C22.3042 9.33934 22.2475 9.27962 22.1907 9.21814L21.9302 8.99683C21.8965 8.97224 21.8646 8.94589 21.8309 8.9213C21.6979 8.81942 21.565 8.7193 21.432 8.61918C21.4196 8.61391 21.4072 8.6104 21.3948 8.60689L21.2565 8.52784C21.2459 8.52433 21.2335 8.52082 21.2229 8.51731C21.1892 8.49271 21.1555 8.46812 21.1236 8.44353C21.0509 8.41016 20.98 8.37503 20.9073 8.34166L20.8223 8.2995C20.7939 8.28545 20.7638 8.26964 20.7354 8.25559C20.7177 8.24505 20.7017 8.23275 20.684 8.22222L20.5989 8.21168C20.037 8.12912 19.4768 8.04657 18.9149 7.96401C17.7804 7.94469 16.6477 7.86038 15.5167 8.11331C14.712 8.29423 14.1093 8.75267 13.5119 9.26206C13.3204 9.42541 13.0989 9.5589 12.8791 9.68537C12.817 9.7205 12.7107 9.67659 12.6256 9.66956C12.6397 9.60984 12.6309 9.52202 12.6681 9.49567C13.4233 8.9617 14.01 8.20114 14.9513 7.91307C16.2878 7.50557 17.6457 7.55826 19.0106 7.63555C19.1737 7.65663 19.3386 7.67946 19.5034 7.70229C19.748 7.72689 19.9944 7.74621 20.2391 7.77782C20.4199 7.80241 20.5067 7.74445 20.4713 7.55826C20.4394 7.38613 20.3968 7.21399 20.3596 7.04186L20.1203 6.58868C19.9076 6.07754 19.5832 5.6595 19.1081 5.3609L19.0071 5.28713C18.3406 4.64425 17.4808 4.57399 16.6246 4.49144C16.5342 4.4809 16.4456 4.47036 16.3552 4.45982C15.9599 4.42293 15.5646 4.40186 15.1711 4.40186C14.5046 4.40186 13.8398 4.45982 13.1822 4.59156C12.9553 4.63722 12.7461 4.78653 12.5387 4.90245C12.2462 5.06756 11.9644 5.24673 11.679 5.41886C11.5762 5.50669 11.4751 5.59451 11.3723 5.68058C11.2039 5.89487 11.0355 6.1074 10.8653 6.3217C10.8281 6.36912 10.7891 6.4183 10.7501 6.46573C10.4807 6.9312 10.2343 7.40896 9.93824 7.85511C9.71489 8.19236 9.43304 8.49271 9.17246 8.80537C8.3145 9.83291 7.33955 10.7691 6.67304 11.9495C6.44437 12.3535 6.20329 12.7487 5.96753 13.1492C5.95512 13.165 5.94094 13.1808 5.92853 13.1983C5.70695 13.6181 5.4836 14.0397 5.26025 14.4613C5.2372 14.4946 5.21593 14.5298 5.19289 14.5649C4.44661 15.9771 3.69678 17.3876 2.95404 18.8015C2.84237 19.0123 2.76083 19.2389 2.66688 19.4585C2.62965 19.5199 2.59242 19.5814 2.5552 19.6447C2.43998 19.9433 2.32476 20.2419 2.20953 20.5422C2.18826 20.5756 2.16876 20.6107 2.14749 20.6458C1.933 21.3397 1.71674 22.0352 1.50225 22.729C1.45262 22.924 1.40298 23.1207 1.35512 23.3157C1.35158 23.3438 1.3498 23.3719 1.34803 23.3983C1.3374 23.4457 1.32676 23.4914 1.31612 23.537C1.09809 24.9545 0.878282 26.3738 0.663792 27.7912C0.630112 28.0055 0.614159 28.2233 0.59466 28.4394C0.527299 29.2193 0.459939 29.9991 0.394352 30.7773C0.378398 30.844 0.362444 30.909 0.34649 30.9758C0.342945 31.0302 0.337627 31.0864 0.334082 31.1409C0.323446 31.2023 0.314583 31.2638 0.30572 31.3253C0.298629 31.3674 0.293311 31.4078 0.28622 31.45C0.275585 31.5536 0.264949 31.6573 0.254313 31.7627C0.25254 31.789 0.250767 31.8171 0.247222 31.8435C0.238359 31.8909 0.227723 31.9365 0.217088 31.9822L0.215315 31.9805ZM10.2254 22.9258C10.2414 22.7923 10.2467 22.6588 10.275 22.5288C10.2857 22.4779 10.3459 22.4392 10.3832 22.3936C11.0302 21.626 11.9201 21.4714 12.856 21.438C13.0173 21.438 13.1804 21.4205 13.3382 21.4486C13.3984 21.4591 13.4676 21.568 13.48 21.64C13.4871 21.6787 13.3807 21.7735 13.3204 21.7788C13.0138 21.8034 12.7018 21.7823 12.3987 21.8245C11.6878 21.9263 11.0036 22.0879 10.5675 22.7466C10.5055 22.8397 10.3424 22.8678 10.2254 22.9258ZM11.195 20.7196C11.2713 20.6107 11.3262 20.4403 11.429 20.4052C11.7552 20.291 12.0991 20.226 12.4359 20.1417C12.4412 20.1593 12.4448 20.1769 12.4501 20.1944C12.5387 20.1944 12.6309 20.1769 12.7124 20.1997C12.8046 20.2243 12.8861 20.2875 12.9712 20.3332C12.8986 20.3947 12.833 20.4913 12.7479 20.5124C12.3473 20.609 11.9431 20.695 11.5372 20.7653C11.429 20.7846 11.3085 20.7372 11.195 20.7196ZM26.6471 19.1072C26.6436 19.0193 26.6401 18.9333 26.6365 18.8455C26.7198 18.8437 26.8067 18.8226 26.8829 18.8437C27.1417 18.914 27.3952 18.9983 27.6522 19.0773C27.8756 19.1458 28.1007 19.2143 28.3241 19.2828C28.8346 19.2969 29.3451 19.3056 29.8556 19.3285C29.9372 19.332 30.0169 19.3935 30.0967 19.4304C30.0258 19.4989 29.962 19.6218 29.8858 19.6288C29.4869 19.6657 29.0845 19.6728 28.6839 19.6903C28.6112 19.7026 28.5385 19.7132 28.4659 19.7255L28.535 19.815C28.831 20.154 29.1466 20.4807 29.4178 20.8373C29.611 21.0902 29.7546 21.3836 29.9053 21.6664C29.9265 21.7033 29.8733 21.8209 29.829 21.8385C29.7794 21.8578 29.6908 21.8192 29.6376 21.7805C29.5826 21.7401 29.5525 21.6646 29.5046 21.6102C29.0402 21.0656 28.574 20.5229 28.1078 19.9801C28.0918 19.9661 28.0759 19.9538 28.0599 19.9397C27.9749 19.8783 27.888 19.8185 27.8029 19.7571C27.7409 19.7149 27.6806 19.6745 27.6185 19.6341C27.4874 19.5586 27.358 19.4831 27.2268 19.4075L26.6471 19.1072Z" fill="#609543"/>
<path d="M10.275 22.5288C10.2466 22.6588 10.2413 22.7923 10.2253 22.9258C10.3423 22.8678 10.5054 22.8397 10.5675 22.7466C11.0035 22.0879 11.6878 21.9263 12.3986 21.8245C12.7017 21.7823 13.0137 21.8034 13.3204 21.7788C13.3806 21.7735 13.487 21.6787 13.4799 21.64C13.4675 21.568 13.3984 21.4591 13.3381 21.4486C13.1803 21.4205 13.0172 21.438 12.8559 21.438C11.92 21.4714 11.0301 21.626 10.3831 22.3936C10.3459 22.4392 10.2856 22.4779 10.275 22.5288Z" fill="#131715"/>
<path d="M11.4609 22.3601C10.9504 22.7536 10.8848 23.7758 11.4006 24.1552C12.1079 24.6752 12.8719 25.1196 13.6129 25.5956C13.6483 25.6149 13.6838 25.636 13.721 25.6553C13.7582 25.6641 13.7955 25.6728 13.8345 25.6816C14.134 25.8625 14.4354 26.0435 14.735 26.2261C14.9069 26.3052 15.0771 26.386 15.249 26.465C15.5468 26.6073 15.8464 26.7478 16.1442 26.8883C16.185 26.9059 16.2258 26.9252 16.2665 26.9428C16.4048 27.0095 16.5413 27.0763 16.6795 27.143C17.0713 27.3239 17.4648 27.5049 17.8584 27.684C18.1225 27.8158 18.3884 27.9457 18.6543 28.0775C18.6844 28.081 18.7128 28.0845 18.7429 28.088C18.773 28.0986 18.8032 28.1091 18.8333 28.1179C18.9202 28.1372 19.0088 28.1565 19.0957 28.1741C19.124 28.1776 19.1506 28.1811 19.179 28.1846C19.2392 28.1969 19.2995 28.2092 19.3616 28.2198C19.3881 28.2215 19.4165 28.2233 19.4449 28.225C19.5193 28.2391 19.5955 28.2514 19.67 28.2654L19.7551 28.2707C19.9182 28.297 20.0812 28.3251 20.2443 28.3532L20.6857 28.427C20.9321 28.4411 21.1803 28.4534 21.4267 28.4674C21.5029 28.4973 21.5809 28.5289 21.6571 28.5588C21.8521 28.6167 22.0471 28.7221 22.2439 28.7274C23.6389 28.7695 25.034 28.8134 26.4291 28.8134C27.95 28.8134 29.4691 28.7748 30.9883 28.7379C31.4598 28.7256 31.9083 28.6115 32.3018 28.3199C32.4755 28.1916 32.6794 28.1056 32.8708 27.9984C32.8886 28.009 32.9045 28.0178 32.9222 28.0283C32.9222 28.0863 32.9222 28.146 32.924 28.2057C32.924 28.2531 32.924 28.2988 32.924 28.3462C32.9276 28.4253 32.9382 28.5043 32.9329 28.5816C32.9063 28.9434 32.7716 29.2491 32.5854 29.5301L32.7716 29.6548C32.8903 29.4844 33.0056 29.314 33.1208 29.1437C33.1633 29.0804 33.1686 28.9926 33.1917 28.9153C33.2041 28.8837 33.2147 28.8538 33.2254 28.8222C33.1988 28.4428 33.1722 28.0634 33.1438 27.684C33.0286 27.4188 33.2697 27.338 33.4009 27.2027C33.5728 26.9779 33.7465 26.7548 33.9149 26.53C34.1578 26.2051 34.2322 25.8538 34.0869 25.4673C34.039 25.3742 33.9894 25.2794 33.9415 25.1845C33.9362 25.1582 33.9309 25.1336 33.9273 25.1073C33.8919 25.0317 33.805 24.9299 33.8298 24.8877C33.9504 24.6734 34.0993 24.4749 34.2375 24.2694C34.5283 23.9199 34.8296 23.5774 35.1026 23.2155C35.3224 22.9275 35.3082 22.606 35.1575 22.2863C35.053 22.0615 34.9448 21.8402 34.8385 21.6171L34.7693 21.517C34.6488 21.4011 34.53 21.2851 34.4113 21.1692C34.3723 21.0937 34.3315 21.0182 34.2907 20.9426C34.273 20.8724 34.2553 20.8004 34.2375 20.7283L34.2003 20.6388L34.1897 20.6019C34.1028 20.4561 34.0142 20.3085 33.9273 20.1627C33.922 20.1505 33.9185 20.1399 33.9167 20.1276C33.8032 19.9924 33.6916 19.8571 33.5799 19.7201C33.5639 19.692 33.548 19.6639 33.532 19.634C33.4718 19.5778 33.4115 19.5216 33.3495 19.4654C33.3229 19.4338 33.2963 19.4022 33.2697 19.3688C33.2254 19.3267 33.1811 19.2827 33.1367 19.2406C33.1208 19.2125 33.1031 19.1826 33.0853 19.1545C33.0853 19.0913 33.0623 19.007 33.0942 18.9683C33.2466 18.7892 33.4133 18.6206 33.5764 18.4484C33.5888 18.4344 33.6012 18.4203 33.6153 18.4063C33.7058 18.2622 33.7979 18.1164 33.8901 17.9724C34.2305 17.3102 34.2712 16.6111 34.1613 15.8892C34.1347 15.7136 34.1578 15.5291 34.1578 15.3482C34.1595 15.3324 34.1596 15.3166 34.1613 15.3008C34.1613 14.9671 34.156 14.6351 34.1666 14.3031C34.1684 14.2311 34.2198 14.1046 34.2641 14.0976C34.6789 14.0273 34.5265 13.7463 34.5017 13.5109C34.4432 13.4389 34.3847 13.3651 34.3262 13.2931L34.1897 13.4916C34.2056 13.5021 34.2198 13.5127 34.2358 13.5232C34.2074 13.5636 34.179 13.604 34.1507 13.6462C33.8387 13.4424 33.5285 13.2387 33.2183 13.0349C33.1899 13.0314 33.1633 13.0279 33.135 13.0244C33.1031 13.0156 33.0694 13.0068 33.0357 12.998L32.7007 12.9717C32.6386 12.9629 32.5784 12.9541 32.5181 12.9453C31.3871 12.7679 30.2544 12.7662 29.1182 12.8962C29.0153 12.9243 28.9125 12.9524 28.808 12.9805C28.4747 13.1473 28.1397 13.3124 27.8064 13.4793C27.7568 13.5162 27.7071 13.5531 27.6575 13.5917C27.6416 13.6058 27.6256 13.6216 27.6114 13.6356C27.5547 13.6813 27.4997 13.7287 27.443 13.7744C27.2463 13.9659 27.0406 14.1485 26.858 14.3505C26.812 14.4015 26.8368 14.5139 26.8279 14.5982C26.9236 14.5982 27.0424 14.6333 27.108 14.5894C27.2374 14.5016 27.3367 14.3699 27.4466 14.2557C27.4607 14.2434 27.4732 14.2293 27.4873 14.217C27.5033 14.2012 27.5192 14.1837 27.537 14.1679C27.5494 14.1556 27.5618 14.1433 27.576 14.131C27.8649 13.9501 28.1556 13.7674 28.4463 13.5865L28.5474 13.518C28.815 13.4249 29.0792 13.265 29.3504 13.251C30.1374 13.2088 30.928 13.2246 31.7169 13.2176C31.9544 13.2404 32.1919 13.2633 32.4295 13.2879C32.6493 13.3335 32.8708 13.3792 33.0906 13.4266C33.252 13.5127 33.4133 13.5988 33.5728 13.6866C33.587 13.6918 33.6012 13.6971 33.6136 13.7024C33.6597 13.741 33.7058 13.7797 33.7501 13.8166C33.961 14.2381 33.8848 14.6737 33.8157 15.1322C33.3778 14.4208 32.9488 13.7322 31.9934 13.7147C31.5059 13.7041 31.0202 13.6883 30.5327 13.6831C30.2792 13.6813 30.0258 13.6989 29.7723 13.7077C29.5578 13.7656 29.3309 13.8008 29.1306 13.8886C28.909 13.9852 28.7122 14.131 28.5031 14.2557C28.4109 14.3224 28.3187 14.3892 28.2265 14.4542C28.2141 14.4612 28.2017 14.4665 28.1875 14.47C28.1468 14.5016 28.1042 14.5332 28.0617 14.5648C27.5476 15.1445 27.0087 15.7065 26.5301 16.316C26.3635 16.5268 26.2447 16.7815 26.149 17.0432C26.1153 17.1293 26.0852 17.2171 26.0568 17.3032C25.9735 17.5473 26.0444 17.8266 26.3316 17.9162C26.7606 18.0515 27.2002 18.1849 27.6469 18.2324C28.3222 18.3044 29.0083 18.3044 29.689 18.3342H30.9245C30.9422 18.3325 30.9582 18.3307 30.9759 18.329C31.3251 18.2903 31.6779 18.2728 32.0235 18.2078C32.7042 18.0831 33.1757 17.6317 33.6136 17.1398C33.688 17.0555 33.7731 16.98 33.9273 16.8272C33.9149 17.0028 33.9238 17.0696 33.9043 17.124C33.8068 17.3805 33.7075 17.6352 33.5994 17.8881C33.3069 18.5608 32.5695 19.0368 31.8569 19.0175C31.7966 19.0158 31.7364 19.014 31.6779 19.0122C31.5307 19.014 31.3854 19.0158 31.2382 19.0158C31.2241 19.0193 31.2099 19.021 31.1939 19.0228C31.1673 19.1089 31.1195 19.1984 31.1266 19.281C31.1301 19.3179 31.2489 19.3688 31.318 19.3706C31.6708 19.3829 32.0253 19.3811 32.378 19.3846C32.4029 19.3899 32.4259 19.3952 32.449 19.4004C32.4312 19.4233 32.4135 19.4443 32.3958 19.4672C32.2504 19.7271 32.0271 19.8624 31.731 19.8975C31.4155 19.9344 31.1017 19.9801 30.788 20.024C30.7827 20.0714 30.7791 20.1188 30.7738 20.168C30.8412 20.2084 30.9068 20.2488 30.9723 20.2892C30.9883 20.291 31.0025 20.2927 31.0184 20.2945C31.0911 20.298 31.1638 20.2998 31.2365 20.3015H31.4598C31.7417 20.226 32.0235 20.1522 32.3054 20.0767C32.4738 19.8887 32.6369 19.6938 32.8159 19.5146C32.8425 19.4883 32.9417 19.5304 33.0073 19.541C33.1403 19.6955 33.2892 19.8396 33.4026 20.0047C33.5799 20.2629 33.7341 20.5369 33.899 20.8039C33.9167 20.8548 33.9344 20.904 33.9539 20.9549C33.9592 20.9953 33.9646 21.0375 33.9699 21.0779C33.9734 21.1077 33.9752 21.1358 33.9787 21.1657C33.977 21.3835 33.9752 21.6013 33.9734 21.8209C33.9486 21.9544 33.9575 22.1054 33.8954 22.2178C33.5923 22.7536 33.2892 23.2875 32.9488 23.7987C32.8301 23.9761 32.6049 24.085 32.4295 24.2255C32.2823 24.3186 32.1494 24.4416 31.9898 24.496C31.2613 24.7419 30.5061 24.8526 29.735 24.8403C29.6606 24.8526 29.5879 24.8666 29.5135 24.8807C29.3823 24.8842 29.2529 24.8877 29.1217 24.8912C29.0916 24.8965 29.0597 24.9017 29.0278 24.9088C28.8806 24.9105 28.7353 24.9123 28.5899 24.9158C28.1468 24.9035 27.7036 24.8982 27.2622 24.8772C27.1293 24.8701 26.9981 24.821 26.8669 24.7893C26.367 24.7577 25.8689 24.7243 25.3708 24.6927C25.291 24.6752 25.2095 24.6558 25.1297 24.6383C24.5306 24.6067 23.9314 24.5768 23.3323 24.5452C23.0646 24.5153 22.7952 24.4872 22.5275 24.4574C22.4725 24.4538 22.4158 24.4486 22.3609 24.4433C22.0081 24.3976 21.6553 24.352 21.3026 24.3081C21.1537 24.28 21.0066 24.2536 20.8594 24.2273C20.2674 24.1131 19.6753 24.0007 19.0832 23.8883C19.0567 23.8847 19.0301 23.883 19.0053 23.8795C18.9716 23.8847 18.9361 23.8988 18.906 23.8935C18.2412 23.7635 17.5765 23.6336 16.9135 23.4966C16.754 23.4632 16.5998 23.3982 16.4438 23.349C15.8695 23.2032 15.2969 23.0574 14.7226 22.9117L13.9249 22.6587C13.2194 22.5252 12.5138 22.3829 11.8048 22.2635C11.6967 22.2442 11.5478 22.2916 11.4591 22.3601H11.4609ZM11.452 23.3367C11.4201 23.0047 11.7339 22.6271 12.0671 22.6517C12.3791 22.6763 12.6929 22.7237 12.9925 22.808C13.7529 23.0206 14.4992 23.2963 15.2668 23.4808C16.3073 23.7319 17.362 23.9287 18.415 24.1359C19.2162 24.294 20.021 24.4451 20.8275 24.5803C22.4761 24.8526 24.1282 25.0774 25.8033 25.1055C27.1878 25.1283 28.5704 25.2021 29.9548 25.2285C30.7543 25.2443 31.529 25.109 32.254 24.7524C33.0038 24.3818 33.4913 23.7671 33.8387 23.0399C34.0567 22.5849 34.2287 22.1089 34.4237 21.6312C34.936 21.9227 35.0902 22.8326 34.6825 23.3297C34.4095 23.6599 34.0656 23.9392 33.8316 24.2922C33.4469 24.8754 32.9453 25.3286 32.3993 25.7414C32.1972 25.8942 31.9827 26.1067 31.7559 26.1348C31.0291 26.2226 30.2952 26.2648 29.5631 26.2718C28.8239 26.2806 28.0829 26.2191 27.342 26.2033C26.6985 26.191 26.0515 26.2297 25.408 26.1893C24.6653 26.1418 23.9119 26.1014 23.1905 25.9363C21.9904 25.6606 20.7885 25.4621 19.5583 25.4972C18.3529 25.5306 17.2503 25.1283 16.1407 24.7507C15.6993 24.6014 15.2597 24.4468 14.82 24.294C14.4354 24.1605 14.0436 24.0499 13.6732 23.8865C13.4374 23.7829 13.2442 23.5914 13.019 23.4632C12.9535 23.4263 12.8418 23.472 12.7514 23.479C12.7886 23.5598 12.8028 23.6669 12.8648 23.7144C13.3151 24.0604 13.7884 24.366 14.3468 24.5276C15.1391 24.7595 15.9368 24.9825 16.7079 25.2724C17.6758 25.636 18.6596 25.8274 19.6966 25.8608C20.5864 25.8907 21.4745 26.0189 22.3591 26.1366C23.467 26.2841 24.5642 26.523 25.6739 26.6178C26.7269 26.7074 27.7905 26.6881 28.8487 26.667C29.6819 26.6512 30.5132 26.5441 31.3481 26.5142C31.7824 26.4984 32.1458 26.3526 32.4755 26.0944C32.7858 25.8503 33.0853 25.5938 33.4062 25.3655C33.4682 25.3198 33.6738 25.3426 33.6969 25.3883C33.8582 25.7308 33.8742 26.0926 33.6437 26.4053C33.3317 26.8251 33.0304 27.2677 32.6422 27.6085C32.3018 27.9053 31.8604 28.2373 31.4421 28.2689C29.8113 28.3972 28.1733 28.427 26.5372 28.4639C25.6863 28.4832 24.8319 28.4551 23.9811 28.4165C23.2685 28.3849 22.5576 28.3216 21.8486 28.2443C21.2601 28.1794 20.6768 28.0722 20.0901 27.9844C19.7161 27.9264 19.3137 27.9352 18.9698 27.7982C18.0888 27.4434 17.2237 27.0464 16.3711 26.6284C15.4227 26.1629 14.4886 25.6676 13.5615 25.1617C13.0545 24.8842 12.583 24.5487 12.0831 24.2624C11.7126 24.0499 11.4946 23.7618 11.452 23.3367ZM26.6258 17.6123C26.5407 17.5737 26.4557 17.3998 26.4698 17.2997C26.5496 16.7183 26.975 16.3494 27.3579 15.9577C27.3739 15.9472 27.3881 15.9366 27.4022 15.9261C27.4129 15.9138 27.4253 15.9033 27.4359 15.8927C27.4483 15.8839 27.459 15.8734 27.4714 15.8646L27.4802 15.8594C27.5122 15.819 27.5441 15.7786 27.576 15.7399C27.5919 15.7487 27.6096 15.7575 27.6274 15.768C27.6043 15.819 27.5831 15.8699 27.56 15.9191C27.3012 16.518 27.1753 17.1328 27.3668 17.8249C27.0832 17.7476 26.8421 17.7089 26.6258 17.6123ZM28.3293 16.0543C28.3222 16.0016 28.3152 15.9489 28.3098 15.8962C28.4109 15.8154 28.5137 15.6714 28.6165 15.6732C28.7246 15.6732 28.8328 15.8102 28.9391 15.8875C28.8399 15.9981 28.7583 16.1421 28.6325 16.2036C28.5704 16.2335 28.4322 16.1088 28.3293 16.0543ZM28.7087 17.4683C28.5545 17.3049 28.4641 17.2101 28.3754 17.1152C28.4889 17.0257 28.5917 16.8992 28.7211 16.8606C28.7831 16.843 28.9746 17.0063 28.9657 17.0678C28.948 17.1855 28.831 17.2891 28.7087 17.4683ZM28.6785 14.7176C28.6927 14.6808 28.7087 14.6439 28.7229 14.607C29.0632 14.4296 29.3858 14.1802 29.7457 14.0976C30.1817 14.001 30.6515 14.0467 31.1071 14.0291C31.1496 14.0326 31.1939 14.0344 31.2382 14.0361C31.4722 14.0431 31.7044 14.0502 31.9367 14.0572C32.3213 14.1591 32.7999 14.0853 32.9648 14.5964V14.6017C32.9967 14.6439 33.0251 14.686 33.0552 14.7282L33.9167 15.8664C33.8919 15.8945 33.8671 15.9243 33.8422 15.9524C33.5143 15.8225 33.1775 15.7065 32.8567 15.559C32.4312 15.3623 32.0182 15.1392 31.6016 14.9284C31.3251 14.9109 31.0486 14.8986 30.7738 14.8705C30.6338 14.8564 30.4955 14.809 30.3555 14.7774C30.281 14.7738 30.2083 14.7703 30.1339 14.7668C30.0612 14.7633 29.9903 14.7598 29.9176 14.7563C29.6074 14.7457 29.2954 14.7352 28.9852 14.7229C28.8824 14.7212 28.7814 14.7194 28.6785 14.7176ZM30.4955 17.0503C30.0772 17.0503 29.946 16.9466 29.9761 16.5953C29.9956 16.3617 30.0063 16.0859 30.375 16.093C30.8465 16.1018 30.9192 16.1755 30.9316 16.6269C30.9422 16.9624 30.7898 17.0907 30.4955 17.0503ZM31.1248 15.2551C31.3109 15.2674 31.4084 15.2499 31.4811 15.2832C32.1919 15.6117 32.9027 15.9419 33.6029 16.2897C33.6473 16.3125 33.6632 16.5198 33.6153 16.5742C33.3672 16.857 33.1013 17.1275 32.8265 17.384C32.3887 17.7932 31.8427 17.9039 31.3552 17.9232C31.4651 17.4859 31.6264 17.045 31.6779 16.5918C31.7328 16.1105 31.5006 15.6837 31.1248 15.2551Z" fill="#131715"/>
<path d="M11.4291 20.4051C11.3262 20.4402 11.2713 20.6106 11.1951 20.7195C11.3085 20.7371 11.4291 20.7845 11.5372 20.7652C11.9431 20.6949 12.3473 20.6088 12.7479 20.5122C12.833 20.4911 12.8986 20.3945 12.9713 20.3331C12.8862 20.2874 12.8046 20.2242 12.7124 20.1996C12.6309 20.1767 12.5387 20.1943 12.4501 20.1943C12.4448 20.1767 12.4412 20.1592 12.4359 20.1416C12.0991 20.2259 11.7552 20.2909 11.4291 20.4051Z" fill="#131715"/>
<path d="M12.0673 22.6516C11.734 22.627 11.4203 23.0047 11.4522 23.3367C11.4947 23.7617 11.7128 24.0498 12.0833 24.2623C12.5831 24.5486 13.0547 24.8841 13.5616 25.1616C14.4887 25.6675 15.4229 26.1628 16.3713 26.6283C17.2239 27.0464 18.089 27.4433 18.97 27.7981C19.3139 27.9351 19.7162 27.9264 20.0903 27.9843C20.677 28.0721 21.2602 28.1793 21.8487 28.2443C22.5578 28.3216 23.2686 28.3848 23.9812 28.4164C24.8321 28.4551 25.6865 28.4832 26.5374 28.4638C28.1735 28.427 29.8114 28.3971 31.4423 28.2689C31.8606 28.2373 32.302 27.9053 32.6423 27.6084C33.0305 27.2677 33.3319 26.825 33.6439 26.4052C33.8743 26.0926 33.8584 25.7307 33.6971 25.3882C33.674 25.3426 33.4684 25.3197 33.4063 25.3654C33.0855 25.5937 32.7859 25.8502 32.4757 26.0943C32.146 26.3525 31.7826 26.4983 31.3483 26.5141C30.5134 26.544 29.682 26.6511 28.8489 26.667C27.7906 26.688 26.727 26.7073 25.6741 26.6178C24.5644 26.5229 23.4671 26.284 22.3592 26.1365C21.4747 26.0188 20.5866 25.8906 19.6967 25.8607C18.6597 25.8274 17.6759 25.6359 16.7081 25.2723C15.937 24.9825 15.1393 24.7594 14.3469 24.5276C13.7885 24.366 13.3152 24.0603 12.865 23.7143C12.8029 23.6669 12.7888 23.5597 12.7515 23.4789C12.8419 23.4719 12.9536 23.4262 13.0192 23.4631C13.2443 23.5913 13.4375 23.7828 13.6733 23.8864C14.0438 24.0498 14.4355 24.1604 14.8202 24.2939C15.2598 24.4468 15.6994 24.6013 16.1408 24.7506C17.2505 25.1283 18.3531 25.5305 19.5585 25.4971C20.7887 25.462 21.9905 25.6605 23.1906 25.9363C23.9121 26.1014 24.6654 26.1418 25.4082 26.1892C26.0517 26.2296 26.6987 26.1909 27.3421 26.2032C28.0831 26.219 28.8241 26.2805 29.5633 26.2717C30.2954 26.2647 31.0292 26.2226 31.756 26.1347C31.9829 26.1066 32.1974 25.8941 32.3995 25.7413C32.9455 25.3285 33.4471 24.8753 33.8318 24.2922C34.0658 23.9391 34.4097 23.6598 34.6826 23.3296C35.0903 22.8325 34.9361 21.9227 34.4238 21.6311C34.2288 22.1089 34.0569 22.5849 33.8389 23.0398C33.4914 23.767 33.0039 24.3818 32.2541 24.7524C31.5291 25.1089 30.7545 25.2442 29.955 25.2284C28.5706 25.202 27.1879 25.1283 25.8035 25.1054C24.1283 25.0773 22.4762 24.8525 20.8277 24.5802C20.0211 24.445 19.2164 24.2939 18.4151 24.1359C17.3622 23.9286 16.3075 23.7319 15.2669 23.4807C14.4994 23.2963 13.7531 23.0205 12.9926 22.808C12.693 22.7236 12.3793 22.6762 12.0673 22.6516Z" fill="#933E21"/>
<path d="M11.9166 14.5946C11.8812 15.0039 12.0815 15.3499 12.4927 15.2866C12.8632 15.2304 13.1663 15.3481 13.4801 15.4886C13.5421 15.529 13.6024 15.5677 13.6644 15.6063C13.6928 15.6151 13.7194 15.6221 13.7477 15.6292C13.7637 15.6379 13.7797 15.645 13.7956 15.652C13.8754 15.6836 13.9587 15.7135 14.0367 15.7504C14.6482 16.0244 15.258 16.3019 15.8678 16.5777C15.937 16.6251 16.0114 16.669 16.0788 16.7199C16.2862 16.8798 16.4687 17.0941 16.7027 17.1942C17.2168 17.412 17.7575 17.5683 18.2839 17.7598C18.5729 17.8634 18.8547 17.9846 19.1401 18.0988L19.4007 18.1989C19.4184 18.1989 19.4344 18.1989 19.4503 18.1989C20.2285 18.3148 21.0085 18.4308 21.7867 18.5467C21.8044 18.5537 21.8239 18.5607 21.8416 18.5678L21.9586 18.573C21.9763 18.5678 21.9941 18.5607 22.0118 18.5537C22.1146 18.552 22.2174 18.5484 22.3202 18.5449C22.5276 18.5309 22.7333 18.5168 22.9407 18.5045C23.5327 18.3219 24.123 18.1339 24.7186 17.9653C24.8214 17.9354 25.0412 17.9688 25.0448 17.9987C25.0678 18.1357 25.0873 18.3289 25.0093 18.4167C24.6282 18.8488 24.1248 19.0912 23.554 19.1931H23.2012C23.0701 19.179 22.9371 19.1667 22.8042 19.1544C22.7758 19.1527 22.7457 19.1509 22.7155 19.1492C21.48 19.0648 20.2427 18.9805 19.0072 18.8962C18.977 18.8927 18.9487 18.8892 18.9185 18.8857C18.876 18.8857 18.8317 18.8822 18.7891 18.8804C18.7005 18.8681 18.6101 18.8576 18.5197 18.8453C18.3903 18.8383 18.2609 18.833 18.1315 18.826C18.0836 18.8154 18.0375 18.8066 17.9914 18.7961C17.9631 18.7944 17.9365 18.7908 17.9081 18.7873L17.7699 18.7557C17.7415 18.7522 17.7149 18.7504 17.6865 18.7469C17.6369 18.7258 17.5855 18.7065 17.5359 18.6854C17.4986 18.6767 17.4596 18.6679 17.4207 18.6609C17.3852 18.6398 17.3497 18.6205 17.3143 18.6011C17.2611 18.5924 17.2079 18.5818 17.1565 18.573C17.0626 18.5361 16.9704 18.4975 16.8782 18.4606C16.5999 18.2902 16.3057 18.1445 16.0504 17.9477C15.5984 17.5982 15.1694 17.2188 14.7316 16.8517C14.6447 16.9061 14.5596 16.9606 14.4745 17.015C14.6199 17.1538 14.7546 17.3066 14.9141 17.4278C15.586 17.9389 16.0876 18.6802 16.9669 18.9085C17.0023 18.9261 17.0395 18.9437 17.075 18.9612C17.1264 18.9735 17.1796 18.9858 17.231 18.9981C17.4153 19.035 17.5979 19.0807 17.784 19.107C18.3389 19.1843 18.8937 19.2528 19.4486 19.3248C19.6825 19.3371 19.9183 19.3494 20.1541 19.3617L20.287 19.367C20.3313 19.3705 20.3739 19.3722 20.4164 19.374C20.4767 19.3863 20.537 19.3986 20.5955 19.4109C20.8135 19.439 21.0315 19.4653 21.2496 19.4917C21.2974 19.4969 21.3435 19.5005 21.3914 19.504C21.8593 19.5128 22.3273 19.5198 22.7953 19.5268C22.8414 19.5356 22.8892 19.5444 22.9353 19.5549C22.9637 19.5549 22.9903 19.5567 23.0186 19.5584H23.3962C23.4139 19.5848 23.4299 19.6129 23.4476 19.6392C23.3058 19.7692 23.1658 19.8974 23.0257 20.0274C22.3344 20.8073 21.5225 21.3992 20.4731 21.6153C20.3366 21.6645 20.1984 21.7154 20.0619 21.7663C19.9874 21.7979 19.9148 21.8296 19.8403 21.8612L19.7978 21.8928C19.3316 22.014 18.8671 22.1334 18.4045 22.2652C18.3477 22.281 18.2715 22.3741 18.2768 22.425C18.2822 22.4759 18.3797 22.5603 18.4311 22.5567C18.7218 22.5357 19.0231 22.5339 19.2961 22.4478C19.8403 22.2775 20.3668 22.0561 20.8986 21.8559C21.1237 21.7751 21.3488 21.6961 21.5739 21.6153C21.6023 21.61 21.6289 21.6065 21.6573 21.6012C21.6874 21.5889 21.7158 21.5749 21.7459 21.5626C22.026 21.3571 22.3078 21.1516 22.5879 20.9478C22.6021 20.9373 22.618 20.9267 22.6322 20.9162C22.673 20.8934 22.712 20.8723 22.7528 20.8494C22.7847 20.8248 22.8183 20.7985 22.8502 20.7722C22.9619 20.6264 23.0754 20.4806 23.1888 20.3348C23.1941 20.3278 23.2012 20.319 23.2083 20.312C23.2562 20.261 23.3058 20.2118 23.3537 20.1627C23.3625 20.1556 23.3732 20.1468 23.382 20.1398C23.4512 20.0766 23.515 20.0081 23.5859 19.9501C23.85 19.7341 24.1141 19.5198 24.38 19.3055C24.4704 19.2528 24.5626 19.1983 24.6548 19.1456C24.8551 19.0122 25.0483 18.8664 25.2575 18.7522C25.6067 18.5643 25.5766 17.881 25.2433 17.6421C25.0395 17.4963 24.8728 17.2662 24.7541 17.0414C24.6211 16.7902 24.5591 16.5021 24.4669 16.2299C24.4563 16.2123 24.4456 16.1948 24.4368 16.1772C24.419 16.1227 24.3995 16.0665 24.3818 16.0103L24.3499 15.9576C24.1567 15.5308 23.8872 15.19 23.5593 14.909C23.2331 14.6297 22.8502 14.4102 22.4301 14.231C22.1376 14.1045 21.8505 13.9605 21.5722 13.8042C21.1538 13.567 20.7479 13.3088 20.3349 13.0612C20.1736 12.9874 20.0105 12.9136 19.8474 12.8399L19.5017 12.7819C19.4539 12.7714 19.4078 12.7626 19.3617 12.752C19.2748 12.745 19.1897 12.738 19.1047 12.731C19.0728 12.7239 19.0391 12.7169 19.0072 12.7099C18.4789 12.7222 17.9489 12.7345 17.4207 12.7468C17.4029 12.7485 17.3852 12.7485 17.3692 12.7503C16.4812 12.8012 15.6126 12.9558 14.767 13.2245C14.0367 13.4564 13.4553 13.8779 13.0369 14.5314C12.9199 14.714 12.6806 14.8229 12.4856 14.9441C12.4644 14.9582 12.3066 14.8405 12.2977 14.7738C12.2428 14.3733 12.5158 14.1361 12.7817 13.9008C12.8242 13.8569 12.8685 13.813 12.9111 13.769H12.9128C12.9536 13.7234 12.9961 13.6777 13.0387 13.632C13.1273 13.5442 13.2142 13.4564 13.3028 13.3686C13.4056 13.2667 13.5067 13.1631 13.6095 13.0594C13.9622 12.868 14.3132 12.6765 14.666 12.4833C14.9071 12.4201 15.1481 12.3551 15.3892 12.2918C15.6161 12.276 15.8412 12.2514 16.0664 12.2462C16.7595 12.2268 17.4543 12.197 18.1474 12.2058C18.8299 12.2163 19.5265 12.0688 20.1895 12.3498L20.5139 12.4921C20.7603 12.5729 21.0067 12.6519 21.2531 12.7327C21.3276 12.7591 21.4038 12.7854 21.4782 12.8118C21.6537 12.9013 21.8292 12.9909 22.0029 13.0805C22.065 13.1209 22.1252 13.1595 22.1855 13.1999C22.7208 13.69 23.2473 14.1906 23.788 14.6754C23.967 14.8387 24.1478 14.9986 24.3322 15.1567C24.8781 15.6274 25.2788 16.1561 25.3585 16.8921C25.3692 16.9887 25.4773 17.0747 25.5411 17.1678C25.573 17.0923 25.6227 17.0168 25.6546 16.9413C25.6758 16.8956 25.69 16.8482 25.6882 16.8025C25.6829 16.5812 25.6191 16.3599 25.5801 16.1385C25.5057 16.0068 25.433 15.8716 25.3603 15.7398C25.3514 15.7223 25.3408 15.7064 25.3319 15.6889C24.9756 15.313 24.6176 14.9353 24.2595 14.5595C24.2294 14.5314 24.1975 14.5033 24.1673 14.4734C24.123 14.4312 24.0769 14.3891 24.0326 14.3469L23.9901 14.2995C23.6728 14.0202 23.3324 13.762 23.0435 13.4581C22.6074 12.9962 22.1217 12.6344 21.5013 12.4622C21.34 12.4183 21.1875 12.3393 21.0315 12.2778L21.0528 12.1935C21.6626 12.1935 22.2724 12.1706 22.8804 12.2005C23.3767 12.2251 23.7029 12.5817 24.0361 12.8996C24.1248 12.9997 24.2134 13.1016 24.302 13.2017C24.5981 13.4933 24.8941 13.7831 25.1901 14.0747C25.2344 14.1765 25.2788 14.2784 25.3249 14.3821C25.3656 14.8194 25.4064 15.2568 25.4472 15.6924C25.5074 15.7978 25.5695 15.9032 25.6297 16.0086C25.7042 15.9629 25.846 15.9155 25.846 15.8716C25.8407 15.4219 25.8141 14.974 25.7928 14.5261C25.745 14.4014 25.6989 14.2784 25.6528 14.1555C25.6457 14.1133 25.6368 14.0729 25.6297 14.0308C25.6032 14.0009 25.5748 13.971 25.5464 13.9412C25.4933 13.8832 25.4454 13.813 25.3833 13.7655C24.9473 13.43 24.7115 13.0155 24.7895 12.4482C24.8055 12.3305 24.7239 12.1987 24.6885 12.074C24.6264 11.9511 24.5626 11.8281 24.5006 11.7052C24.3871 11.4926 24.2754 11.2801 24.162 11.0658C24.0078 10.8269 23.8536 10.588 23.6993 10.3509C23.6196 10.2245 23.538 10.098 23.4565 9.97152L23.3767 9.87667C23.1888 9.6817 23.0027 9.48848 22.8148 9.29351L22.8361 9.17232C23.6355 9.01248 24.4332 8.85263 25.2327 8.69279C25.2486 8.69279 25.2646 8.69104 25.2788 8.69104C25.7184 8.69806 26.1562 8.70333 26.5941 8.71036C26.6561 8.72265 26.7164 8.73671 26.7766 8.749C27.2464 8.85088 27.7179 8.951 28.1877 9.05287C28.2178 9.06341 28.2497 9.07571 28.2798 9.08625C28.3064 9.09327 28.3348 9.1003 28.3614 9.10557C28.8985 9.15299 29.3168 9.44984 29.737 9.74317C30.703 10.3632 31.7205 10.9306 32.2913 12.0916C32.0556 12.0547 31.8943 12.0301 31.7312 12.0055C31.6851 11.9967 31.639 11.988 31.5929 11.9774C30.5151 11.9563 29.4462 11.9827 28.4252 12.3832C28.3472 12.4236 28.271 12.4622 28.1948 12.5026C28.1664 12.5957 28.138 12.6888 28.0866 12.8592C28.2905 12.817 28.4412 12.7977 28.583 12.7555C28.824 12.6835 29.0598 12.5957 29.2991 12.5149C29.3417 12.5114 29.3842 12.5061 29.4285 12.5026C29.4693 12.4991 29.5101 12.4938 29.5526 12.4903C29.6164 12.471 29.682 12.4534 29.7458 12.4341C29.7742 12.4324 29.8008 12.4288 29.8274 12.4253C29.8752 12.4148 29.9213 12.4043 29.9674 12.3937C30.5364 12.3814 31.1037 12.3709 31.6709 12.3586C31.7188 12.3656 31.7649 12.3726 31.8127 12.3779C31.9262 12.3867 32.0414 12.3937 32.1566 12.4025C32.1885 12.4113 32.2204 12.4183 32.2523 12.4271C32.6334 12.601 33.0128 12.7731 33.3939 12.947C33.6598 13.1279 33.9275 13.3088 34.1916 13.4898L34.3281 13.2913C34.2359 13.2052 34.1455 13.1209 34.0551 13.0366C33.9222 12.9505 33.7874 12.8645 33.6545 12.7801C33.3691 12.6168 33.0642 12.4798 32.8072 12.2795C32.66 12.1654 32.5927 11.9476 32.4845 11.7807C32.3941 11.6402 32.2984 11.5049 32.2062 11.3679C32.0556 11.194 31.9067 11.0219 31.7578 10.8498C31.7294 10.8199 31.6993 10.79 31.6709 10.7602C31.584 10.6706 31.4972 10.5828 31.4086 10.4949C31.3518 10.4616 31.2969 10.43 31.2402 10.3983C31.2065 10.3755 31.1728 10.3527 31.1373 10.3281C30.7598 10.0804 30.3822 9.83451 30.0064 9.58333C29.9638 9.55347 29.9319 9.49551 29.9124 9.44281C29.7901 9.12489 29.6714 8.80345 29.5526 8.48202C29.5154 8.43459 29.4764 8.38717 29.4391 8.33798C29.3168 8.12194 29.1963 7.90413 29.0758 7.68633C28.9446 7.48257 28.8152 7.27882 28.684 7.07507C28.6592 7.02237 28.6361 6.96792 28.6113 6.91523C28.5741 6.8678 28.5369 6.81862 28.4996 6.7712H28.4979C28.3082 6.50772 28.1168 6.24601 27.9253 5.98429C27.92 5.972 27.9147 5.96146 27.9111 5.94916C27.7356 5.77703 27.5584 5.60489 27.3811 5.43275C26.9982 5.21671 26.6136 4.9989 26.2307 4.78285C26.2059 4.77231 26.1828 4.76178 26.1598 4.75124C26.1438 4.73894 26.1261 4.72665 26.1101 4.71435C25.6032 4.4421 25.0554 4.32968 24.4828 4.32441C24.0415 4.31914 23.6001 4.31563 23.1587 4.31036C22.6145 4.39116 22.0933 4.53343 21.6608 4.89351C21.2318 5.229 20.8064 5.56976 20.3668 5.8912C20.2994 5.94038 20.1647 5.89822 20.0601 5.89822C19.8846 5.69623 19.7109 5.49247 19.5354 5.29048C19.5053 5.27291 19.4751 5.25711 19.445 5.23954C19.3865 5.19563 19.328 5.15347 19.2677 5.10956C18.993 4.92864 18.7165 4.74597 18.4399 4.56505C18.2733 4.48601 18.1067 4.40521 17.94 4.32441C17.6936 4.29104 17.4472 4.25766 17.2008 4.22253C17.1246 4.212 17.0502 4.20146 16.9739 4.19092C16.373 4.19092 15.7703 4.19092 15.1694 4.19092V4.39994C15.5629 4.39994 15.9582 4.42102 16.3535 4.4579C16.4439 4.46844 16.5326 4.47898 16.623 4.48952C17.4791 4.57208 18.3389 4.64234 19.0054 5.28521L19.1064 5.35898C19.5815 5.65758 19.9059 6.07563 20.1186 6.58677L20.3579 7.03994C20.3951 7.21208 20.4377 7.38421 20.4696 7.55635C20.505 7.74253 20.4182 7.8005 20.2374 7.77591C19.9928 7.74429 19.7464 7.72497 19.5017 7.70038C19.3369 7.67754 19.172 7.65471 19.0089 7.63363C17.644 7.55635 16.2862 7.50365 14.9496 7.91116C14.0083 8.19922 13.4216 8.95978 12.6664 9.49375C12.6292 9.5201 12.6381 9.60792 12.6239 9.66764C12.709 9.67467 12.8153 9.71858 12.8774 9.68345C13.0972 9.55699 13.3188 9.42349 13.5102 9.26014C14.1076 8.75076 14.7103 8.29232 15.5151 8.1114C16.646 7.85846 17.7787 7.94277 18.9132 7.9621C19.4751 8.04465 20.0353 8.12721 20.5972 8.20976L20.6823 8.2203C20.7 8.23084 20.716 8.24313 20.7337 8.25367C20.7621 8.26772 20.7922 8.28353 20.8206 8.29758L20.9057 8.33974C20.9783 8.37311 21.0492 8.40824 21.1219 8.44162C21.1538 8.46621 21.1875 8.4908 21.2212 8.51539C21.2318 8.5189 21.2442 8.52242 21.2549 8.52593L21.3931 8.60497C21.4055 8.60848 21.418 8.612 21.4304 8.61727L21.8292 8.91762C21.8629 8.94397 21.8948 8.97032 21.9285 8.99491L22.1891 9.21623C22.2458 9.2777 22.3025 9.33742 22.3592 9.39715C22.478 9.51307 22.5968 9.63076 22.7155 9.74669C22.7457 9.77479 22.774 9.80465 22.8042 9.83275C22.8627 9.89247 22.9212 9.9522 22.9796 10.0102C23.2012 10.3298 23.4246 10.6478 23.6479 10.9674C23.9103 11.4505 24.1744 11.9318 24.4385 12.4148V12.6906C24.3818 12.6712 24.3233 12.6502 24.2666 12.6291C24.1957 12.5694 24.1301 12.4991 24.0521 12.4482C23.7738 12.2637 23.4919 12.0863 23.2101 11.9054C23.164 11.8966 23.1179 11.8878 23.0701 11.8791C22.9992 11.8755 22.9282 11.8703 22.8573 11.8668C22.7811 11.8545 22.7049 11.8439 22.6304 11.8316C22.5117 11.8229 22.3947 11.8141 22.2759 11.8053C22.26 11.8141 22.244 11.8246 22.2263 11.8334C21.7122 11.8369 21.1981 11.8404 20.6841 11.8422C20.622 11.8316 20.5618 11.8211 20.4997 11.8123C20.0761 11.8229 19.6524 11.8334 19.227 11.8439C19.2128 11.8439 19.1986 11.8457 19.1827 11.8457C18.0358 11.8492 16.8871 11.8527 15.7384 11.8562C15.531 11.8914 15.3218 11.9265 15.1127 11.9616C14.3717 12.1162 13.6839 12.3691 13.1681 12.9575C13.0635 13.077 12.9376 13.1789 12.8207 13.2878C12.7196 13.3896 12.6168 13.4933 12.514 13.5951C12.3066 13.9219 11.9574 14.1432 11.9166 14.5946ZM13.262 15.0161C13.3099 14.8967 13.3383 14.7632 13.4109 14.6596C13.7052 14.2345 14.0615 13.8727 14.5756 13.7093C14.9957 13.5741 15.414 13.4371 15.8324 13.3018C15.8607 13.2983 15.8873 13.2948 15.9157 13.2913C15.9618 13.2807 16.0079 13.2684 16.0539 13.2579C16.0947 13.2526 16.1373 13.2491 16.1798 13.2456C16.2401 13.2333 16.3003 13.2228 16.3624 13.2122C16.5361 13.1964 16.7116 13.1806 16.8871 13.1648C16.9757 13.1595 17.0644 13.156 17.153 13.1508C17.2079 13.1508 17.2647 13.1508 17.3196 13.1508C17.3657 13.1209 17.4118 13.0612 17.4561 13.0629C18.1918 13.0787 18.9274 13.0858 19.6595 13.1385C19.8332 13.1508 19.9928 13.3211 20.1594 13.4177C20.2143 13.4388 20.2693 13.4581 20.326 13.4792C20.3597 13.5003 20.3934 13.5231 20.4271 13.546C20.4395 13.546 20.4501 13.553 20.4625 13.5565C20.4944 13.5829 20.5281 13.6074 20.5618 13.632C21.0758 13.9324 21.5899 14.2328 22.1235 14.5454C21.9232 14.5753 21.7299 14.6245 21.5367 14.6262C20.209 14.6385 18.8795 14.6385 17.5501 14.6438H17.1512C17.0927 14.6438 17.0342 14.6438 16.9757 14.6473C16.9456 14.649 16.9155 14.6508 16.8871 14.6526L16.8073 14.6578C16.7896 14.6789 16.7719 14.7175 16.7524 14.7193C16.2968 14.7421 15.8412 14.7632 15.3839 14.7825C15.3254 14.7913 15.2651 14.8001 15.2066 14.8089C14.9709 14.8423 14.7369 14.8756 14.5029 14.9072C14.2654 14.9863 14.0349 15.0987 13.7921 15.1286C13.6237 15.1496 13.4393 15.0583 13.262 15.0179V15.0161ZM14.2104 15.4078C14.2122 15.3815 14.2157 15.3569 14.2175 15.3323C15.118 15.2322 16.0167 15.1338 16.8889 15.0372C16.6283 15.4535 16.373 15.8628 16.1514 16.2158C15.5275 15.9559 14.8698 15.6819 14.2104 15.4078ZM17.4171 15.7258L17.4065 15.5624C17.5412 15.4763 17.6759 15.3288 17.8142 15.3253C17.9134 15.3218 18.018 15.5115 18.1208 15.6134C17.9985 15.7135 17.8869 15.8557 17.7468 15.8961C17.66 15.9207 17.5288 15.789 17.4171 15.7258ZM17.6865 16.7393C17.6688 16.5601 17.7326 16.3704 17.9826 16.4038C18.0748 16.4161 18.1598 16.4863 18.2485 16.5285C18.2556 16.5847 18.2627 16.6427 18.268 16.6989C18.1652 16.7726 18.0694 16.8921 17.9578 16.9079C17.8727 16.9202 17.6954 16.8095 17.6865 16.7393ZM19.7375 16.9571C19.3369 16.9536 19.1756 16.7761 19.1844 16.3511C19.1897 16.0577 19.5726 15.7539 19.9573 15.789C20.3597 15.8259 20.5476 15.9471 20.505 16.2703C20.498 16.7182 20.225 16.9623 19.7375 16.9571ZM20.5494 6.59379C20.3845 6.34086 20.404 6.15994 20.6876 5.9878C20.9943 5.80513 21.2584 5.55571 21.558 5.36074C21.9125 5.12888 22.2653 4.8092 22.6588 4.73719C23.2792 4.62301 23.9298 4.68625 24.5679 4.6722C25.6262 4.64936 26.4416 5.22198 27.2694 5.75946C27.4432 5.95092 27.6169 6.14237 27.7906 6.33559C27.9572 6.57798 28.1239 6.82214 28.2905 7.06629L28.4979 7.3403C28.5032 7.35084 28.5085 7.36138 28.5103 7.37367C28.5369 7.40705 28.5617 7.43866 28.5865 7.47204C28.6237 7.55459 28.661 7.63539 28.6982 7.71794C28.7354 7.76537 28.7744 7.81455 28.8116 7.86198C29.0563 8.26772 29.2991 8.67172 29.5366 9.06693C28.6344 8.83331 27.7729 8.60848 26.9114 8.38541C26.8635 8.37663 26.8156 8.36609 26.7678 8.35731C26.7128 8.35379 26.6579 8.35028 26.6029 8.34501C26.5444 8.34325 26.4859 8.33974 26.4274 8.33798C25.4259 8.29407 24.4403 8.37663 23.476 8.66293C23.3537 8.69982 23.2314 8.73846 23.1091 8.77711C23.0311 8.79291 22.946 8.79467 22.8751 8.82804C22.657 8.92641 22.4638 8.94397 22.2476 8.78764C21.8735 8.51715 21.4747 8.27651 21.0865 8.02182C21.0741 8.01303 21.0599 8.00249 21.0475 7.99196C21.0085 7.93926 20.9713 7.88657 20.934 7.83387C20.8401 7.49136 20.7461 7.1506 20.6522 6.80808C20.6185 6.73607 20.5937 6.65878 20.5494 6.59379ZM21.4676 18.148C21.2496 18.1163 21.0315 18.0865 20.7798 18.0514C21.4782 17.3084 21.6289 15.5097 20.8986 15.0337C21.0989 15.0161 21.2336 15.0056 21.3683 14.9951C21.5704 14.981 21.7778 14.9898 21.9763 14.9529C22.852 14.7843 23.4015 15.0021 23.8412 15.7802C24.0681 16.1807 24.2205 16.6233 24.3889 17.0537C24.5821 17.5402 24.5644 17.5191 24.0663 17.7194C23.2296 18.0566 22.3805 18.2797 21.4676 18.148Z" fill="#131715"/>
<path d="M12.7816 13.9027C12.5157 14.138 12.2427 14.3752 12.2976 14.7756C12.3065 14.8424 12.4643 14.9601 12.4855 14.946C12.6805 14.8248 12.9198 14.7159 13.0368 14.5332C13.4552 13.8798 14.0366 13.4583 14.7669 13.2264C15.6125 12.9577 16.4811 12.8031 17.3692 12.7522C17.3851 12.7504 17.4028 12.7504 17.4206 12.7486C17.9488 12.7364 18.4788 12.7241 19.0071 12.7118C19.039 12.7188 19.0727 12.7258 19.1046 12.7328C19.1897 12.7399 19.2748 12.7469 19.3616 12.7539C19.4077 12.7645 19.4538 12.7732 19.5017 12.7838L19.8473 12.8417C20.0104 12.9155 20.1735 12.9893 20.3348 13.0631C20.7478 13.3107 21.1538 13.5689 21.5721 13.8061C21.8504 13.9624 22.1376 14.1064 22.4301 14.2329C22.8502 14.412 23.2331 14.6316 23.5592 14.9109L23.7879 14.6773C23.2472 14.1925 22.7208 13.6919 22.1854 13.2018C22.1252 13.1614 22.0649 13.1228 22.0028 13.0824C21.8291 12.9928 21.6536 12.9032 21.4781 12.8136C21.4037 12.7873 21.3275 12.7609 21.253 12.7346C21.0066 12.6538 20.7602 12.5748 20.5138 12.494L20.1894 12.3517C19.5265 12.0706 18.8298 12.2182 18.1474 12.2076C17.4543 12.1989 16.7594 12.2287 16.0663 12.248C15.8412 12.2533 15.616 12.2779 15.3891 12.2937C15.148 12.3569 14.907 12.4219 14.6659 12.4852C14.3131 12.6784 13.9622 12.8698 13.6094 13.0613C13.5066 13.1649 13.4055 13.2686 13.3027 13.3704C13.2141 13.4583 13.1272 13.5461 13.0386 13.6339C12.9961 13.6796 12.9535 13.7253 12.9128 13.7709H12.911C12.8684 13.8148 12.8241 13.8587 12.7816 13.9027Z" fill="#609543"/>
<path d="M13.4109 14.6597C13.3382 14.7634 13.3098 14.8968 13.262 15.0163C13.4392 15.0567 13.6236 15.148 13.792 15.1269C14.0348 15.0971 14.2653 14.9847 14.5028 14.9056C14.7368 14.874 14.9708 14.8406 15.2065 14.8073C15.265 14.7985 15.3253 14.7897 15.3838 14.7809C15.8412 14.7616 16.2967 14.7405 16.7523 14.7177C16.7718 14.7159 16.7895 14.6773 16.8072 14.6562L16.887 14.6509C16.9154 14.6509 16.9455 14.6474 16.9756 14.6457C17.0341 14.6439 17.0926 14.6422 17.1511 14.6422H17.55C18.8795 14.6369 20.2089 14.6369 21.5366 14.6246C21.7299 14.6228 21.9231 14.5737 22.1234 14.5438C21.5898 14.2311 21.0758 13.9308 20.5617 13.6304C20.528 13.6058 20.4943 13.5812 20.4624 13.5549C20.45 13.5514 20.4394 13.5461 20.427 13.5444C20.3933 13.5215 20.3596 13.4987 20.3259 13.4776C20.2692 13.4565 20.2143 13.4372 20.1593 13.4161C19.9927 13.3195 19.8331 13.1491 19.6594 13.1368C18.9273 13.0842 18.1917 13.0771 17.456 13.0613C17.4117 13.0596 17.3656 13.1193 17.3195 13.1491C17.2646 13.1491 17.2079 13.1491 17.1529 13.1491C17.0643 13.1544 16.9756 13.1579 16.887 13.1632C16.7115 13.179 16.536 13.1948 16.3623 13.2106C16.3003 13.2212 16.24 13.2317 16.1797 13.244C16.1372 13.2475 16.0946 13.251 16.0539 13.2563C16.0078 13.2668 15.9617 13.2791 15.9156 13.2897C15.8872 13.2932 15.8607 13.2967 15.8323 13.3002C15.4139 13.4354 14.9956 13.5725 14.5755 13.7077C14.0614 13.8711 13.7051 14.2329 13.4109 14.658V14.6597Z" fill="#609543"/>
<path d="M14.2175 15.3324C14.2175 15.357 14.2122 15.3816 14.2104 15.408C14.8699 15.682 15.5275 15.956 16.1515 16.216C16.3731 15.8629 16.6283 15.4536 16.8889 15.0374C16.0168 15.134 15.118 15.2323 14.2175 15.3324Z" fill="white"/>
<path d="M17.4065 15.5624L17.4171 15.7257C17.5288 15.789 17.66 15.9207 17.7468 15.8961C17.8869 15.8557 17.9986 15.7134 18.1209 15.6133C18.0181 15.5114 17.9135 15.3217 17.8142 15.3252C17.6759 15.3288 17.5412 15.4763 17.4065 15.5624Z" fill="white"/>
<path d="M17.9824 16.4038C17.7325 16.3704 17.6686 16.5601 17.6864 16.7392C17.6952 16.8095 17.8725 16.9202 17.9576 16.9079C18.0693 16.8921 18.165 16.7726 18.2678 16.6988C18.2625 16.6426 18.2554 16.5847 18.2483 16.5285C18.1597 16.4863 18.0746 16.416 17.9824 16.4038Z" fill="white"/>
<path d="M19.1844 16.3512C19.1756 16.7763 19.3369 16.9537 19.7375 16.9572C20.225 16.9625 20.498 16.7183 20.505 16.2704C20.5476 15.9472 20.3597 15.826 19.9573 15.7892C19.5726 15.754 19.1897 16.0579 19.1844 16.3512Z" fill="white"/>
<path d="M20.6876 5.9879C20.404 6.16003 20.3845 6.34095 20.5494 6.59389C20.5937 6.65888 20.6185 6.73616 20.6522 6.80818C20.7461 7.15069 20.8401 7.49145 20.934 7.83397C20.9713 7.88666 21.0085 7.93935 21.0475 7.99205C21.0599 8.00259 21.0741 8.01313 21.0865 8.02191C21.4747 8.2766 21.8735 8.51724 22.2476 8.78774C22.4638 8.94407 22.657 8.9265 22.8751 8.82814C22.946 8.79476 23.0311 8.79301 23.1091 8.7772C23.2314 8.73856 23.3537 8.69991 23.476 8.66303C24.4403 8.37672 25.4259 8.29417 26.4274 8.33808C26.4859 8.33983 26.5444 8.34335 26.6029 8.3451C26.6579 8.35037 26.7128 8.35389 26.7678 8.3574C26.8157 8.36618 26.8635 8.37672 26.9114 8.3855C27.7729 8.60858 28.6344 8.83341 29.5367 9.06702C29.2991 8.67181 29.0563 8.26782 28.8116 7.86207C28.7744 7.81464 28.7354 7.76546 28.6982 7.71804C28.661 7.63548 28.6237 7.55468 28.5865 7.47213C28.5617 7.43876 28.5369 7.40714 28.5103 7.37377C28.5085 7.36147 28.5032 7.35093 28.4979 7.34039L28.2905 7.06638C28.1239 6.82223 27.9572 6.57808 27.7906 6.33568C27.6169 6.14247 27.4432 5.95101 27.2694 5.75955C26.4416 5.22207 25.6262 4.64945 24.5679 4.67229C23.9298 4.68634 23.2792 4.62311 22.6588 4.73728C22.2653 4.8093 21.9125 5.12898 21.558 5.36083C21.2584 5.5558 20.9943 5.80522 20.6876 5.9879Z" fill="#609543"/>
<path d="M21.0528 12.1954L21.0315 12.2797C21.1875 12.3411 21.3399 12.4202 21.5012 12.4641C22.1217 12.6362 22.6074 12.9981 23.0434 13.46C23.3324 13.7639 23.6727 14.0221 23.99 14.3014L24.0326 14.3488C24.0769 14.391 24.123 14.4331 24.1673 14.4753C24.1974 14.5051 24.2293 14.5332 24.2595 14.5613C24.6175 14.9372 24.9756 15.3149 25.3319 15.6908C25.3408 15.7083 25.3514 15.7241 25.3603 15.7417L25.4471 15.6943C25.4064 15.2587 25.3656 14.8213 25.3248 14.3839C25.2787 14.2803 25.2344 14.1784 25.1901 14.0766C24.8941 13.785 24.598 13.4952 24.302 13.2036C24.2134 13.1035 24.1247 13.0016 24.0361 12.9015C23.7029 12.5835 23.3767 12.227 22.8804 12.2024C22.2723 12.1725 21.6626 12.1954 21.0528 12.1954Z" fill="#609543"/>
<path d="M20.7798 18.0514C21.0315 18.0865 21.2495 18.1163 21.4676 18.148C22.3805 18.2797 23.2296 18.0566 24.0663 17.7194C24.5644 17.5191 24.5821 17.5402 24.3889 17.0537C24.2205 16.6233 24.068 16.1807 23.8411 15.7802C23.4015 15.0021 22.852 14.7843 21.9763 14.9529C21.7778 14.9898 21.5704 14.981 21.3683 14.9951C21.2336 15.0056 21.0989 15.0161 20.8986 15.0337C21.6289 15.5097 21.4782 17.3084 20.7798 18.0514Z" fill="white"/>
<path d="M22.836 9.17415L22.8147 9.29535C23.0026 9.49032 23.1887 9.68353 23.3766 9.8785L23.4564 9.97335C23.5379 10.0998 23.6195 10.2263 23.6992 10.3528C23.8535 10.5899 24.0077 10.8288 24.1619 11.0676C24.2754 11.2819 24.387 11.4945 24.5005 11.707C24.5625 11.83 24.6263 11.9529 24.6884 12.0759C24.7238 12.2006 24.8054 12.3323 24.7894 12.45C24.7114 13.0173 24.9472 13.4319 25.3833 13.7674C25.4453 13.8148 25.4932 13.885 25.5463 13.943C25.5747 13.9729 25.6031 14.0027 25.6296 14.0326C25.6367 14.0747 25.6456 14.1151 25.6527 14.1573C25.6988 14.2803 25.7449 14.4032 25.7927 14.5279C25.814 14.9758 25.8406 15.4237 25.8459 15.8734C25.8459 15.9173 25.7041 15.9647 25.6296 16.0104C25.5694 15.905 25.5073 15.7996 25.4471 15.6942L25.3602 15.7417C25.4329 15.8734 25.5056 16.0086 25.58 16.1404C25.619 16.3617 25.6828 16.583 25.6881 16.8043C25.6899 16.85 25.6757 16.8974 25.6545 16.9431L26.1508 17.0432C26.2465 16.7815 26.3653 16.5268 26.5319 16.316C27.0105 15.7065 27.5494 15.1444 28.0635 14.5648C28.106 14.5332 28.1486 14.5016 28.1893 14.47C28.2035 14.4664 28.2159 14.4612 28.2283 14.4541C28.3205 14.3892 28.4127 14.3224 28.5049 14.2557C28.714 14.131 28.9108 13.9852 29.1324 13.8886C29.3327 13.8007 29.5596 13.7656 29.7741 13.7076C30.0276 13.6989 30.2811 13.6813 30.5345 13.6831C31.022 13.6883 31.5077 13.7041 31.9952 13.7147C32.9507 13.7322 33.3796 14.4208 33.8175 15.1322C33.8866 14.6737 33.9628 14.2381 33.7519 13.8165C33.7076 13.7797 33.6615 13.741 33.6154 13.7024C33.603 13.6971 33.5888 13.6918 33.5746 13.6866C33.4151 13.5987 33.2538 13.5127 33.0925 13.4266C32.8727 13.3792 32.6511 13.3335 32.4313 13.2878C32.1937 13.2633 31.9562 13.2404 31.7187 13.2176C30.9298 13.2246 30.1392 13.2088 29.3522 13.251C29.081 13.265 28.8169 13.4248 28.5492 13.5179L28.4481 13.5864C28.1574 13.7674 27.8667 13.95 27.5778 14.131C27.5636 14.1432 27.5512 14.1555 27.5388 14.1678C27.5211 14.1836 27.5051 14.2012 27.4891 14.217C27.475 14.2293 27.4626 14.2434 27.4484 14.2557C27.3385 14.3698 27.2392 14.5016 27.1098 14.5894C27.0442 14.6333 26.9254 14.5982 26.8297 14.5982C26.8386 14.5139 26.8138 14.4015 26.8599 14.3505C27.0424 14.1485 27.2481 13.9658 27.4448 13.7744C27.5016 13.7287 27.5565 13.6813 27.6132 13.6356C27.6274 13.6216 27.6434 13.6058 27.6593 13.5917C27.709 13.5531 27.7586 13.5162 27.8082 13.4793C28.1415 13.3124 28.4765 13.1473 28.8098 12.9805C28.9143 12.9524 29.0172 12.9242 29.12 12.8961C30.2562 12.7662 31.389 12.7679 32.5199 12.9453C32.5802 12.9541 32.6404 12.9629 32.7025 12.9717L33.0375 12.998C33.0712 13.0068 33.1049 13.0156 33.1368 13.0244C33.1651 13.0279 33.1917 13.0314 33.2201 13.0349C33.5303 13.2387 33.8405 13.4424 34.1525 13.6462C34.1809 13.604 34.2092 13.5636 34.2376 13.5232C34.2216 13.5127 34.2075 13.5021 34.1915 13.4916C33.9274 13.3107 33.6597 13.1298 33.3938 12.9488C33.0127 12.7749 32.6333 12.6028 32.2522 12.4289C32.2203 12.4201 32.1884 12.4131 32.1565 12.4043C32.0413 12.3955 31.9261 12.3885 31.8126 12.3797C31.7648 12.3745 31.7187 12.3674 31.6708 12.3604C31.1036 12.3727 30.5363 12.3833 29.9673 12.3955C29.9212 12.4061 29.8751 12.4166 29.8273 12.4272C29.8007 12.4307 29.7741 12.4342 29.7457 12.4359C29.6819 12.4553 29.6163 12.4728 29.5525 12.4922C29.51 12.4957 29.4692 12.5009 29.4284 12.5044C29.3841 12.508 29.3416 12.5132 29.299 12.5167C29.0597 12.5975 28.8239 12.6854 28.5829 12.7574C28.4411 12.7995 28.2904 12.8189 28.0865 12.861C28.1379 12.6906 28.1663 12.5975 28.1947 12.5044C28.2709 12.464 28.3471 12.4254 28.4251 12.385C29.4461 11.9845 30.515 11.9582 31.5928 11.9793C31.6389 11.9898 31.685 11.9986 31.7311 12.0074C31.8942 12.032 32.0555 12.0565 32.2912 12.0934C31.7204 10.9324 30.7029 10.365 29.7369 9.74501C29.3167 9.45167 28.8984 9.15483 28.3613 9.1074C28.3347 9.10213 28.3063 9.09511 28.2797 9.08808C28.2496 9.07754 28.2177 9.06525 28.1876 9.05471C27.7178 8.95283 27.2463 8.85271 26.7765 8.75083C26.7163 8.73854 26.656 8.72449 26.594 8.71219C26.1561 8.70517 25.7183 8.6999 25.2787 8.69287C25.2645 8.69287 25.2485 8.69463 25.2326 8.69463C24.4331 8.85447 23.6354 9.01431 22.836 9.17415Z" fill="#609543"/>
<path d="M23.3093 33.1626C23.2632 33.6368 23.4972 33.9776 23.8038 34.3166C24.208 34.7645 24.5643 35.2545 24.9401 35.727C25.0234 36.1099 25.19 36.4964 25.1705 36.874C25.1404 37.4378 25.1971 37.9753 25.4099 38.4865C25.4985 38.6972 25.6775 38.8957 25.8619 39.0362C26.1437 39.2505 26.4663 39.4104 26.7712 39.5931C27.4076 39.9654 28.0068 40.4309 28.6875 40.6803C29.3256 40.9157 30.0453 40.9631 30.7349 41.0211C31.6123 41.0931 32.4951 41.0861 33.3761 41.123C34.5655 41.1721 35.6983 40.8823 36.7902 40.4731C37.3486 40.2623 37.8626 39.8987 38.343 39.5333C38.4813 39.4279 38.5168 39.0398 38.4441 38.836C38.1995 38.1545 37.8839 37.4958 37.5968 36.8301C37.5843 36.8125 37.5719 36.7967 37.5595 36.7792C36.9905 35.7938 36.4002 34.8207 35.6096 33.9864C35.583 33.9547 35.5547 33.9231 35.5281 33.8915C35.2356 33.5841 34.9431 33.2767 34.6489 32.9693C34.601 32.9289 34.5549 32.8885 34.507 32.8481C34.4964 32.8429 34.4858 32.8394 34.4734 32.8359C34.367 32.7515 34.2624 32.6672 34.1561 32.5829C33.6101 32.2738 33.0482 31.9892 32.5252 31.645C32.2806 31.4834 32.1087 31.2111 31.9084 30.9828C31.8233 30.8844 31.7665 30.7579 31.6708 30.6754C31.4209 30.4541 31.1479 30.2573 30.8962 30.0378C30.5895 29.7708 30.2456 29.7761 29.8858 29.8779C29.7032 29.9306 29.5277 30.0044 29.3487 30.0676C29.3168 30.0905 29.2848 30.1133 29.2529 30.1344C28.9853 30.2942 28.7194 30.4523 28.4535 30.6121C27.982 31.0056 27.5122 31.4008 27.0425 31.7943H27.0407C26.9716 31.933 26.5302 31.9998 26.9591 32.2281C27.0265 32.2738 27.0956 32.3142 27.1594 32.3634C27.8738 32.9325 27.5565 33.3646 26.9662 33.7791C26.9521 33.7896 26.9326 33.7931 26.9113 33.7931L26.929 33.967C27.0265 33.9582 27.1258 33.9459 27.2215 33.9407C27.264 33.9266 27.3084 33.9108 27.3527 33.8968C27.6877 33.7036 28.0334 33.5226 28.3578 33.3119C28.6378 33.1292 28.8931 32.9131 29.1608 32.7111C29.2494 32.6461 29.338 32.5794 29.4284 32.5144C30.0737 32.2263 30.6852 32.3423 31.2808 32.6655C31.3517 32.7024 31.4244 32.7322 31.4971 32.7656C31.7453 33.0537 31.3447 33.1696 31.3234 33.3944C31.3092 33.5402 31.2135 33.679 31.2206 33.8722C31.4014 33.7194 31.5822 33.5648 31.763 33.412C32.0147 33.2223 32.2647 33.0326 32.5164 32.8411C32.5465 32.8271 32.5766 32.8113 32.6068 32.7955C32.7752 32.7744 32.8851 32.8095 32.8195 33.0133C32.6759 33.1327 32.5341 33.2539 32.3905 33.3751C32.3001 33.4454 32.2079 33.5139 32.1158 33.5841C31.8658 33.8037 31.6159 34.0215 31.3659 34.241C31.1621 34.3464 30.96 34.4536 30.7561 34.559C30.5789 34.6591 30.3998 34.7574 30.2226 34.8576C30.0489 34.9331 29.8734 35.0104 29.6979 35.0877C29.6092 35.1579 29.5206 35.2299 29.432 35.3002C29.3558 35.3863 29.2795 35.4706 29.2033 35.5566C29.0899 35.7182 28.9746 35.8816 28.8594 36.045C28.8541 36.0555 28.8505 36.066 28.847 36.0766C28.8062 36.124 28.7672 36.1714 28.7265 36.2188C28.5776 36.4121 28.5722 36.6141 28.6857 36.8248C28.8576 37.0461 29.0296 37.2692 29.2015 37.4923C29.6181 37.956 30.1375 38.1053 30.7437 37.9876C30.7898 37.9507 30.8341 37.9121 30.8802 37.8752C30.8855 37.8647 30.8891 37.8524 30.8926 37.8418C30.9121 37.8067 30.9316 37.7733 30.9511 37.7382C31.3553 36.8143 31.903 36.0098 32.8425 35.5373C32.9028 35.5057 32.9968 35.5373 33.0747 35.5373C33.0606 35.6164 33.073 35.7235 33.0251 35.7692C32.9081 35.8851 32.7557 35.9659 32.6298 36.0766C32.4827 36.203 32.3497 36.3436 32.2115 36.4788L32.0945 36.6158C31.9208 36.8705 31.7488 37.1269 31.5769 37.3816C31.4368 37.6504 31.2986 37.9191 31.1585 38.1879C31.1568 38.2581 31.155 38.3301 31.1532 38.4004C31.155 38.4162 31.155 38.432 31.1568 38.4478C31.1709 38.49 31.1851 38.5339 31.1993 38.576C31.2099 38.5919 31.2188 38.6094 31.2294 38.6252L31.233 38.6305C31.2436 38.6463 31.2542 38.6604 31.2649 38.6762C31.4953 38.7745 31.7187 38.8957 31.9562 38.9607C32.1211 39.0064 32.3072 38.9607 32.4809 38.9783C32.8213 39.0081 33.0818 38.901 33.2361 38.5866C33.3938 38.4215 33.5516 38.2581 33.7094 38.0948C33.8015 37.9947 33.8937 37.8963 33.9841 37.7979C33.9983 37.7839 34.0125 37.7681 34.0267 37.754L34.0302 37.7505L34.0727 37.7083C34.3493 37.4203 34.6152 37.1199 34.9094 36.8494C34.9892 36.7756 35.1541 36.7915 35.2799 36.7651C35.2462 36.8705 35.2374 36.9952 35.1718 37.0743C34.9289 37.3641 34.6684 37.6363 34.4131 37.9156C34.2642 38.0737 34.1153 38.2318 33.9646 38.3899C33.9097 38.4355 33.8529 38.483 33.7962 38.5286C33.7537 38.5602 33.7129 38.5919 33.6704 38.6235C33.3743 38.8659 33.5126 39.1627 33.6384 39.3946C33.7111 39.5316 33.9469 39.6282 34.1242 39.6598C34.7889 39.774 35.0938 39.2435 35.4589 38.8553C35.7709 38.5198 36.0386 38.144 36.3293 37.7891C36.3683 37.74 36.4233 37.6855 36.4818 37.6715C36.5775 37.6504 36.6821 37.6574 36.7831 37.6539C36.7477 37.74 36.714 37.826 36.6768 37.9103C36.6626 37.9437 36.6413 37.9736 36.6236 38.0052C36.4889 38.1633 36.3559 38.3231 36.2212 38.483C36.1024 38.6287 35.9836 38.7728 35.8649 38.9186C35.7798 39.0222 35.6929 39.1258 35.6079 39.2295C35.5919 39.2435 35.5777 39.2576 35.5618 39.2716C35.5334 39.3015 35.5033 39.3313 35.4731 39.3594C35.4253 39.4016 35.3792 39.442 35.3313 39.4824L34.5974 39.9514C34.5514 39.9602 34.507 39.9672 34.461 39.9742C34.1224 39.9549 33.7643 40.0111 33.4825 39.7511C33.431 39.7037 33.3513 39.644 33.3513 39.5878C33.3513 39.2628 33.1545 39.3032 32.9241 39.312C32.5217 39.3296 32.1193 39.3032 31.7169 39.2945C31.2542 39.2523 30.905 39.0766 30.8111 38.5708C30.8005 38.5128 30.71 38.4197 30.664 38.4232C29.7723 38.5005 29.143 38.0509 28.59 37.4396C28.5758 37.4238 28.5634 37.408 28.5492 37.3922H28.5474C28.2532 37.1463 27.9536 36.9056 27.6682 36.6509C27.4821 36.4858 27.3154 36.2979 27.14 36.1187C27.1329 36.0941 27.1258 36.0695 27.1187 36.0467C27.0974 35.9975 27.0761 35.9483 27.0549 35.9009C26.9981 35.5408 26.9414 35.1825 26.8847 34.8224C26.8723 34.7856 26.8581 34.7487 26.8457 34.7118C26.8386 34.3043 26.4912 34.3693 26.2501 34.2885C26.1136 34.2498 25.9789 34.2112 25.8442 34.1743C25.6687 33.9934 25.4932 33.8142 25.3194 33.6351C25.307 33.6052 25.2946 33.5753 25.284 33.5455L25.2574 33.4664C25.2468 33.4348 25.2361 33.4032 25.2237 33.3716C25.1688 32.9342 24.8781 32.5654 24.5324 32.5004C24.0821 32.416 23.6124 32.6374 23.366 33.0537C23.3483 33.0888 23.3288 33.1239 23.3093 33.1608V33.1626Z" fill="#609543"/>
<path d="M25.5801 33.2399C25.5925 33.3171 25.6049 33.3944 25.6191 33.4717C25.7786 33.8195 26.1154 33.9161 26.4416 33.9706C26.5993 33.9969 26.7642 33.9846 26.9291 33.967L26.9113 33.7932C26.8528 33.7932 26.7731 33.7633 26.7093 33.7563L26.8635 33.3663C26.8954 33.34 26.9255 33.3136 26.9574 33.2873C26.9716 33.2715 26.9858 33.2574 27 33.2416C27.0549 33.1661 27.1081 33.0906 27.1613 33.015C27.1223 32.5882 26.4717 32.2738 26.0941 32.4723C25.768 32.6427 25.5943 32.8815 25.5801 33.2399Z" fill="#609543"/>
<path d="M26.4698 17.2998C26.4556 17.3999 26.5407 17.5738 26.6258 17.6124C26.8421 17.709 27.0832 17.7477 27.3668 17.8249C27.1753 17.1329 27.3012 16.5181 27.56 15.9192C27.583 15.87 27.6043 15.819 27.6274 15.7681C27.6096 15.7576 27.5919 15.7488 27.5759 15.74C27.544 15.7786 27.5121 15.819 27.4802 15.8594L27.4714 15.8647C27.459 15.8735 27.4483 15.884 27.4359 15.8928C27.4253 15.9033 27.4129 15.9139 27.4022 15.9262C27.388 15.9367 27.3739 15.9473 27.3579 15.9578C26.975 16.3495 26.5496 16.7184 26.4698 17.2998Z" fill="white"/>
<path d="M26.6365 18.8453C26.64 18.9331 26.6436 19.0192 26.6471 19.107L27.2268 19.4074C27.3579 19.4829 27.4873 19.5584 27.6185 19.634C27.6806 19.6744 27.7408 19.7148 27.8029 19.7569C27.888 19.8184 27.9748 19.8781 28.0599 19.9396C28.0759 19.9536 28.0918 19.9659 28.1078 19.98C28.574 20.5227 29.0402 21.0655 29.5046 21.61C29.5525 21.6645 29.5826 21.74 29.6376 21.7804C29.6907 21.819 29.7794 21.8577 29.829 21.8383C29.8733 21.8208 29.9265 21.7031 29.9052 21.6662C29.7545 21.3834 29.611 21.0901 29.4177 20.8371C29.1465 20.4806 28.831 20.1539 28.535 19.8149L28.4658 19.7253C28.5385 19.713 28.6112 19.7025 28.6839 19.6902C29.0845 19.6726 29.4869 19.6656 29.8857 19.6287C29.9619 19.6217 30.0258 19.4987 30.0967 19.4302C30.0169 19.3933 29.9371 19.3318 29.8556 19.3283C29.3451 19.3055 28.8345 19.2967 28.324 19.2827C28.1007 19.2142 27.8755 19.1456 27.6522 19.0771C27.3952 18.9981 27.1417 18.9138 26.8829 18.8435C26.8066 18.8225 26.7198 18.8435 26.6365 18.8453Z" fill="#131715"/>
<path d="M27.1753 34.378C27.2054 34.4799 27.2338 34.5817 27.2639 34.6854C27.2657 34.7135 27.2675 34.7433 27.2692 34.7714C27.2817 34.9471 27.2923 35.1245 27.3047 35.3001V35.6971C27.5511 35.5057 27.7408 35.3581 27.9287 35.2123C27.9428 35.1965 27.9588 35.1825 27.9748 35.1684L28.9426 34.2884C28.9568 34.2744 28.971 34.2621 28.9869 34.248C29.3432 33.8721 29.7013 33.4962 30.0576 33.1203C30.1462 33.0062 30.2349 32.892 30.3731 32.7146H30.047C29.7669 32.8551 29.4709 32.9728 29.2085 33.1397C28.6094 33.5173 28.0262 33.9195 27.4376 34.3112C27.4146 34.3271 27.3809 34.3271 27.3526 34.3323C27.3242 34.3358 27.2941 34.3394 27.2657 34.3429C27.2356 34.3552 27.2054 34.3657 27.1753 34.378Z" fill="#609543"/>
<path d="M27.5867 36.0782C27.6133 36.108 27.6381 36.1397 27.6629 36.1695C27.6948 36.1994 27.7249 36.2275 27.7551 36.2556L27.8419 36.3417C27.9164 36.4154 27.9891 36.4892 28.0635 36.563C28.0954 36.6016 28.1291 36.6385 28.1628 36.6772C28.1929 36.6227 28.223 36.5665 28.255 36.512C28.4074 36.2011 28.5616 35.8902 28.7141 35.5793C28.746 35.5161 28.7797 35.4529 28.8133 35.3896L29.4728 34.7731L29.6057 34.7099C29.6677 34.6888 29.7298 34.6677 29.7918 34.6449C29.8751 34.5992 29.9602 34.5536 30.0453 34.5061C30.0613 34.4938 30.0772 34.4798 30.0914 34.4675C30.4052 34.067 30.7331 33.6753 31.0185 33.2573C31.0664 33.1853 30.9405 32.9973 30.8926 32.8621C30.7739 32.9393 30.6303 32.9938 30.5363 33.0939C30.2421 33.4118 29.9691 33.7473 29.6819 34.0723C29.549 34.2233 29.4036 34.3656 29.2636 34.5132L28.535 35.1613C28.2585 35.3879 27.9784 35.6075 27.7108 35.8411C27.6469 35.8955 27.6274 35.9974 27.5867 36.0782Z" fill="#609543"/>
<path d="M28.3098 15.8962C28.3151 15.9489 28.3222 16.0016 28.3293 16.0543C28.4321 16.1087 28.5704 16.2334 28.6324 16.2036C28.7583 16.1421 28.8398 15.9981 28.9391 15.8874C28.8327 15.8101 28.7246 15.6731 28.6165 15.6731C28.5137 15.6714 28.4109 15.8154 28.3098 15.8962Z" fill="white"/>
<path d="M28.3755 17.1151C28.4641 17.21 28.5545 17.3048 28.7087 17.4682C28.8311 17.289 28.9481 17.1854 28.9658 17.0677C28.9746 17.0062 28.7832 16.8429 28.7212 16.8604C28.5917 16.8991 28.4889 17.0256 28.3755 17.1151Z" fill="white"/>
<path d="M28.723 14.6069C28.7088 14.6438 28.6929 14.6807 28.6787 14.7176C28.7815 14.7194 28.8826 14.7211 28.9854 14.7229C29.2956 14.7352 29.6076 14.7457 29.9178 14.7562C29.9905 14.7598 30.0614 14.7633 30.134 14.7668C30.2085 14.7703 30.2812 14.7738 30.3556 14.7773C30.4957 14.8089 30.6339 14.8564 30.774 14.8704C31.0487 14.8985 31.3253 14.9108 31.6018 14.9284C32.0184 15.1392 32.4314 15.3622 32.8568 15.559C33.1777 15.7065 33.5145 15.8224 33.8424 15.9524C33.8672 15.9243 33.892 15.8944 33.9169 15.8663L33.0554 14.7281C33.0252 14.686 32.9969 14.6438 32.9667 14.6017V14.5964C32.8001 14.0853 32.3215 14.159 31.9368 14.0572C31.7046 14.0501 31.4724 14.0431 31.2384 14.0361C31.1941 14.0361 31.1498 14.0326 31.1072 14.0291C30.6517 14.0466 30.1819 14.0009 29.7458 14.0976C29.386 14.1801 29.0634 14.4295 28.723 14.6069Z" fill="#609543"/>
<path d="M29.9763 16.5953C29.9462 16.9466 30.0773 17.0502 30.4957 17.0502C30.7899 17.0906 30.9424 16.9624 30.9317 16.6269C30.9193 16.1755 30.8467 16.1017 30.3751 16.0929C30.0064 16.0859 29.9958 16.3616 29.9763 16.5953Z" fill="white"/>
<path d="M31.4811 15.2832C31.4084 15.2499 31.3109 15.2674 31.1248 15.2551C31.5006 15.6837 31.7328 16.1105 31.6778 16.5918C31.6264 17.045 31.4651 17.4859 31.3552 17.9232C31.8427 17.9039 32.3886 17.7933 32.8265 17.384C33.1013 17.1275 33.3671 16.857 33.6153 16.5742C33.6632 16.5198 33.6472 16.3125 33.6029 16.2897C32.9027 15.9419 32.1919 15.6117 31.4811 15.2832Z" fill="white"/>
</g>
</g>
<defs>
<clipPath id="clip0_7277_55354">
<rect width="42" height="42" rx="21" fill="white"/>
</clipPath>
<clipPath id="clip1_7277_55354">
<rect width="46" height="44" fill="white" transform="translate(-4)"/>
</clipPath>
</defs>
</svg>
