<svg xmlns="http://www.w3.org/2000/svg" width="42" height="42" fill="none"><circle cx="21" cy="21" r="21" fill="#000"/><g clip-path="url(#a)"><path fill="#3CEAAA" d="M21 42c11.598 0 21-9.402 21-21S32.598 0 21 0 0 9.402 0 21s9.402 21 21 21z"/><path fill="#000" fill-opacity=".6" fill-rule="evenodd" d="M15.82 11.13a3.21 3.21 0 0 1 4.55 0l3.43 3.36.56-.56a3.21 3.21 0 0 1 4.55 0l3.36 3.29c1.33 1.26 1.33 3.36 0 4.69l-9.1 8.96a3.21 3.21 0 0 1-4.55 0l-9.1-8.96c-1.33-1.26-1.33-3.36 0-4.69l6.3-6.09zm5.74 5.67-3.36-3.29-6.3 6.09 3.36 3.29 6.3-6.09zm-3.92 8.4L21 28.49l3.36-3.29L21 21.91l-3.36 3.29zm5.67-5.6 3.36 3.29 3.43-3.29-3.36-3.29-3.43 3.29z" clip-rule="evenodd"/></g><defs><clipPath id="a"><path fill="#fff" d="M0 0h42v42H0z"/></clipPath></defs></svg>