<svg width="42" height="42" viewBox="0 0 42 42" fill="none" xmlns="http://www.w3.org/2000/svg">
<circle cx="21" cy="21" r="21" fill="black"/>
<g clip-path="url(#clip0_7698_9734)">
<path d="M21 42C32.598 42 42 32.598 42 21C42 9.40202 32.598 0 21 0C9.40202 0 0 9.40202 0 21C0 32.598 9.40202 42 21 42Z" fill="#3CEAAA"/>
<path fill-rule="evenodd" clip-rule="evenodd" d="M15.82 11.13C17.08 9.87 19.11 9.87 20.37 11.13L23.8 14.49L24.36 13.93C25.62 12.67 27.65 12.67 28.91 13.93L32.27 17.22C33.6 18.48 33.6 20.58 32.27 21.91L23.17 30.87C21.91 32.13 19.88 32.13 18.62 30.87L9.51996 21.91C8.18996 20.65 8.18996 18.55 9.51996 17.22L15.82 11.13ZM21.56 16.8L18.2 13.51L11.9 19.6L15.26 22.89L21.56 16.8ZM17.64 25.2L21 28.49L24.36 25.2L21 21.91L17.64 25.2ZM23.31 19.6L26.67 22.89L30.1 19.6L26.74 16.31L23.31 19.6Z" fill="black" fill-opacity="0.6"/>
</g>
<defs>
<clipPath id="clip0_7698_9734">
<rect width="42" height="42" fill="white"/>
</clipPath>
</defs>
</svg>
