<svg width="42" height="42" fill="none" viewBox="0 0 42 42" xmlns="http://www.w3.org/2000/svg">
  <g clip-path="url(#a)">
    <circle cx="21" cy="21" r="21" fill="#60CB89"/>
    <path fill="#1C3734" d="M26.316 6.018c6.162-.347 10.305 4.489 9.608 10.198-.444 3.637-3.836 6.19-6.268 8.75-2.72 2.862-5.733 6.477-8.737 8.98-4.768 3.97-12.12 1.887-14.281-3.685-1.44-3.714-.336-6.91 2.257-9.763 2.95-3.249 6.31-6.697 9.436-9.8 2.35-2.333 4.35-4.476 7.985-4.68"/>
    <path fill="#FEFEFE" d="M29.452 7.72c3.243 1.126 3.92 4.916 3.2 7.761q.035.09.049.184c.105.831-1.913 3.282-2.6 3.942a114 114 0 0 0-3.982 4.024q-.283.371-.688.396a271 271 0 0 1-8.737-8.078c-.211-.204-.792-.451-.688-.804.045-.155 1.88-1.88 2.164-2.172 1.424-1.469 3.35-3.862 5.154-4.797 1.726-.894 4.307-1.224 6.128-.457"/>
    <path fill="#60CB89" d="M23.708 24.732q.465.382.736.814a198 198 0 0 1-5.558 5.589c-3.409 3.138-9.847 1.563-11.262-2.718-.418-2.31.141-4.631 1.763-6.43l5.416-5.394a61 61 0 0 1 2.219 1.944c2.194 2.006 4.614 4.103 6.686 6.195"/>
    <path fill="#34805D" d="M7.624 28.417c1.481 3.432 6.078 5.255 9.643 3.608.838-.387 1.604-1.062 2.258-1.685l4.838-4.941c-.242-.2-.438-.447-.655-.667l2.22 1.997.041.198c-1.07 1.07-2.143 2.138-3.206 3.214-1.84 1.86-3.134 3.756-5.946 4.355-4.503.96-8.43-1.86-9.193-6.079"/>
    <path fill="#BED1CD" d="M33.144 10.385c-.893-1.249-2.148-2.252-3.692-2.666 2.566 1.082 3.554 4.125 3.363 6.624-.029.376-.227.745-.163 1.138-.989 2.777-2.951 4.224-4.966 6.271-.747.76-1.42 1.6-2.255 2.275.414.366 1.106 1.147 1.515 1.416.073.047.112.111.208.039 1.16-1.218 2.318-2.44 3.486-3.652 1.767-1.83 3.334-2.803 3.791-5.472.372-2.171.01-4.163-1.287-5.973"/>
    <path fill="#E5F4EC" d="M11.293 29.996c.278-.074.93.567.934.812.012.887-1.75-.594-.934-.812"/>
  </g>
  <defs>
    <clipPath id="a">
      <path fill="#fff" d="M0 0h42v42H0z"/>
    </clipPath>
  </defs>
</svg>
