<svg width="42" height="42" fill="none" xmlns="http://www.w3.org/2000/svg">
  <circle cx="21" cy="21" r="21" fill="#242235"/>
  <g fill="#fff" clip-path="url(#a)">
    <path d="M24.75 19.214c0 1.544-1.231 2.796-2.75 2.796v2.796c3.037 0 5.5-2.504 5.5-5.592s-2.463-5.592-5.5-5.592a5.4 5.4 0 0 0-2.75.748 5.6 5.6 0 0 0-2.75 4.844v13.98l2.473 2.514.277.282V19.214c0-1.544 1.231-2.796 2.75-2.796s2.75 1.252 2.75 2.796"/>
    <path d="M22 8.03c-2.004 0-3.882.545-5.5 1.497a11 11 0 0 0-2.75 2.29A11.25 11.25 0 0 0 11 19.215v8.389l2.75 2.796V19.214a8.43 8.43 0 0 1 2.75-6.252 8.2 8.2 0 0 1 2.75-1.657 8.1 8.1 0 0 1 2.75-.479c4.556 0 8.25 3.756 8.25 8.388 0 4.633-3.694 8.389-8.25 8.389v2.796c6.076 0 11-5.008 11-11.185C33 13.038 28.076 8.03 22 8.03"/>
  </g>
  <defs>
    <clipPath id="a">
      <path fill="#fff" d="M11 8h22v28H11z"/>
    </clipPath>
  </defs>
</svg>
