<svg xmlns="http://www.w3.org/2000/svg" width="42" height="42" fill="none"><circle cx="21" cy="21" r="21" fill="#000"/><path fill="#fff" d="m11.972 13.085-.3-.491L8 14.707v-.32L20.788 7l.275.17.58.32.575.342-7.835 4.526-.298-.491-2.113 1.218zm0 4.653-.3-.491L8 19.36v-.343l16.821-9.69.28.17.576.32.576.34-7.858 4.529-.276-.492-6.147 3.544zm0 2.325-.3-.509L8 21.686v-.34l18.83-10.868.275.17.58.343.575.323-7.858 4.524-.276-.49-8.154 4.715zm0 2.308-.3-.491L8 23.993v-.319l20.836-12.021.276.15.577.34.578.322-7.791 4.506-.28-.493-10.224 5.893zm0 2.325-.3-.49L8 26.32V26l22.843-13.19.3.166.552.323.58.34-7.793 4.507-.28-.513-12.23 7.063zm21.174-10.565.428.256v.833l-9.092 5.23-.28-.492-12.23 7.066-.3-.491L8 28.646v-.32L32.85 13.96l.296.17zM9.58 30.057l-.276-.17 24.271-14.005v1.642l-9.138 5.294-.296-.51-12.21 7.065-.3-.491-2.051 1.175zm14.56-5.422-10.163 5.87-.297-.49-2.092 1.216-.276-.17 22.263-12.854v1.646l-9.138 5.295-.296-.513zm-10.545 7.749-.28-.17 20.26-11.7v1.665l-9.138 5.272-.296-.49-8.157 4.718-.276-.512-2.113 1.217zm2.026 1.15-.299-.146L33.574 22.84v1.665l-9.138 5.271-.296-.49-6.15 3.544-.276-.49-2.094 1.194zm1.71 1.005 16.244-9.371v1.664l-9.138 5.276-.296-.495-4.142 2.393-.276-.513-2.094 1.216-.299-.17zm2.305 1.323-.28-.148 14.22-8.22v1.665l-9.139 5.275-.296-.513-2.116 1.236-.295-.49-2.094 1.195zm4.611-26.878-7.855 4.529-.28-.491-4.14 2.389-.299-.49L8 17.034v-.322L22.794 8.15l.3.17.576.344.576.32z"/></svg>