<svg width="42" height="42" viewBox="0 0 42 42" fill="none" xmlns="http://www.w3.org/2000/svg"><circle cx="21" cy="21" r="21" fill="#000"/><g clip-path="url(#clip0_7698_9726)"><g clip-path="url(#clip1_7698_9726)"><path fill-rule="evenodd" clip-rule="evenodd" d="M21 0c11.592 0 21 9.408 21 21s-9.408 21-21 21S0 32.592 0 21 9.408 0 21 0z" fill="#CF1011"/><path fill-rule="evenodd" clip-rule="evenodd" d="M21 16.027a4.972 4.972 0 110 9.946 4.972 4.972 0 110-9.946z" fill="#fff"/><path fill-rule="evenodd" clip-rule="evenodd" d="M21.118 7.997a13.125 13.125 0 018.517 3.276l.034.033a12.89 12.89 0 014.317 8.921 13.003 13.003 0 01-3.242 9.408l-.034.034a12.89 12.89 0 01-8.92 4.317 13.003 13.003 0 01-9.408-3.242A12.903 12.903 0 018.03 21.79a13.003 13.003 0 013.243-9.408l1.126.99a11.507 11.507 0 00-2.873 8.317 11.502 11.502 0 003.847 7.913 11.507 11.507 0 008.316 2.872 11.502 11.502 0 007.913-3.847l.033-.033a11.422 11.422 0 002.84-8.283 11.502 11.502 0 00-3.848-7.913l-.033-.033a11.445 11.445 0 00-3.461-2.1 11.677 11.677 0 00-4.015-.773l.017-1.512-.017.017z" fill="#fff"/><path d="M13.608 8.08c.907 0 1.714.37 2.302.958.588.588.957 1.412.957 2.302 0 .907-.37 1.714-.957 2.302a3.266 3.266 0 01-2.302.957c-.907 0-1.713-.37-2.302-.957a3.266 3.266 0 01-.957-2.302c0-.907.37-1.714.957-2.302a3.266 3.266 0 012.302-.957zm1.243 2.034a1.749 1.749 0 00-1.243-.521c-.487 0-.924.201-1.243.52a1.748 1.748 0 000 2.487 1.75 1.75 0 002.486 0c.32-.32.521-.756.521-1.243 0-.487-.201-.924-.52-1.243z" fill="#fff"/></g></g><defs><clipPath id="clip0_7698_9726"><path fill="#fff" d="M0 0h42v42H0z"/></clipPath><clipPath id="clip1_7698_9726"><path fill="#fff" d="M0 0h42v42H0z"/></clipPath></defs></svg>