<svg xmlns="http://www.w3.org/2000/svg" width="42" height="42" fill="none"><circle cx="21" cy="21" r="21" fill="#fff"/><path fill="url(#a)" fill-rule="evenodd" d="M20.945 42a21.025 21.025 0 0 0 15.565-6.858l-1.024-1.128a3.461 3.461 0 0 0-4.845-.267l-2.186 1.926a7.47 7.47 0 0 1-10.266-.375l-1.366-1.396a3.461 3.461 0 0 0-4.833-.105L7.98 37.55A21 21 0 0 0 20.945 42zm17.503-10.648.497.548A20.861 20.861 0 0 0 42 21c0-4.84-1.641-9.297-4.4-12.848a3.44 3.44 0 0 0-1.425.755l-2.186 1.927a7.47 7.47 0 0 1-10.265-.376l-1.367-1.396a3.461 3.461 0 0 0-4.833-.105l-5.623 5.263-2.736-2.892 5.624-5.262c2.956-2.767 7.597-2.666 10.429.226l1.366 1.396a3.462 3.462 0 0 0 4.757.174l2.186-1.927a7.478 7.478 0 0 1 1.164-.842A21.006 21.006 0 0 0 20.945 0C10.382 0 1.636 7.757.12 17.872c2.883-1.655 6.625-1.223 9.046 1.25l1.58 1.614a3.461 3.461 0 0 0 4.597.307l4.685-3.65a7.472 7.472 0 0 1 9.484.252l6.38 5.544-2.627 2.99-6.38-5.544a3.462 3.462 0 0 0-4.394-.117l-4.686 3.651a7.47 7.47 0 0 1-9.919-.662l-1.58-1.615a3.461 3.461 0 0 0-4.833-.105L0 23.167A20.887 20.887 0 0 0 5.082 34.81l4.172-3.905c2.956-2.766 7.597-2.666 10.429.227l1.367 1.396a3.461 3.461 0 0 0 4.757.174l2.186-1.927c3.054-2.692 7.719-2.435 10.455.577z" clip-rule="evenodd"/><defs><linearGradient id="a" x1="21" x2="29.256" y1="0" y2="42" gradientUnits="userSpaceOnUse"><stop stop-color="#780000"/><stop offset="1" stop-color="#C1121F"/></linearGradient></defs></svg>