<svg xmlns="http://www.w3.org/2000/svg" width="42" height="42" fill="none"><g clip-path="url(#a)"><circle cx="21" cy="21" r="21" fill="#1C2951"/><g clip-path="url(#b)"><path fill="#F00500" d="M28.155 9.445a19.675 19.675 0 0 0-2.19 2.569l-.206-.067a15.139 15.139 0 0 0-3.669-.703 29.023 29.023 0 0 0-2.228 0c-1.378.09-2.435.295-3.635.708a2.313 2.313 0 0 1-.135.047 19.403 19.403 0 0 0-2.261-2.55 15.884 15.884 0 0 1 14.132-.1l.192.096zm7.435 18.009a14.785 14.785 0 0 1-2.69 4.663c-.639.74-1.345 1.42-2.103 2.037a15.588 15.588 0 0 1-6.066 2.958 16.067 16.067 0 0 1-7.452 0 15.556 15.556 0 0 1-6.066-2.958 16.634 16.634 0 0 1-2.103-2.037 14.526 14.526 0 0 1-2.689-14.282c.327-.907.735-1.78 1.225-2.612.225-.38.504-.807.638-.983a48.78 48.78 0 0 0 1.24 4.307 1.054 1.054 0 0 1-.054.104c-1.119 2.241-1.724 4.402-1.868 6.7 0 .028-.004.062-.004.09-.039.689-.02 1.016.096 1.448.36 1.354 1.469 2.844 3.207 4.307 2.848 2.393 6.709 4.121 9.633 4.32 3.05.205 7.55-1.557 10.546-4.13.47-.413.912-.85 1.325-1.316.298-.341.74-.93.706-.93-.01 0 0-.01.02-.02.014-.009.028-.023.019-.032-.005-.005.004-.02.019-.024.014-.005.024-.014.019-.024-.005-.01 0-.019.02-.024.014-.004.018-.019.014-.028-.005-.01 0-.02.01-.02.009 0 .019-.013.019-.023s.01-.023.019-.023c.01 0 .019-.01.019-.02a.494.494 0 0 1 .062-.109c.072-.109.36-.617.399-.703.274-.612.447-1.158.528-1.704.038-.261.063-.74.043-.855-.005-.019-.005-.052-.01-.104-.009-.095-.014-.238-.023-.38-.01-.214-.03-.513-.043-.66-.207-2.156-.764-3.917-1.82-5.783a1.654 1.654 0 0 1-.106-.2c-.01-.014-.015-.028-.02-.038.15-.441.76-2.288 1.244-4.401l.01.01.072.094c.125.167.456.66.605.898a14.866 14.866 0 0 1 1.58 3.49c.87 2.948.797 6.091-.22 8.997z"/><path fill="#000" d="M29.356 21.78c-.015.076-.24.304-.466.47-.663.48-1.849.926-3.054 1.14-.687.123-1.373.142-1.58.043-.134-.067-.154-.12-.106-.29.101-.356.428-.745.937-1.111.26-.185 1.31-.817 1.8-1.083.807-.436 1.46-.698 1.902-.76.14-.018.307-.023.36 0 .087.034.183.286.221.59.02.16.01.873-.014 1.001zm-11.314 1.572c-.029.057-.173.119-.336.142-.163.024-.663.01-.946-.023-1.018-.133-2.099-.442-2.886-.822-.442-.213-.759-.427-.994-.66l-.135-.137-.014-.18c-.024-.314-.02-.808.02-.984a1.28 1.28 0 0 1 .148-.418c.039-.047.039-.047.211-.047.212 0 .39.033.678.123.59.18 1.469.618 2.54 1.254.883.522 1.215.779 1.47 1.13.172.218.287.527.244.622zm6.8 6.609c0 .015-.058.242-.13.513-.072.27-.13.49-.13.499-.052.004-.1.01-.153.004h-.154l-.211.494c-.115.27-.22.523-.235.56l-.03.067-.1-.162-.1-.16V30.46l-.04.01a15.94 15.94 0 0 1-.917.118c-1.051.104-2.108.08-3.154-.066a3.217 3.217 0 0 0-.317-.038c-.005.004 0 .308.01.683l.014.674-.082.124c-.043.067-.087.123-.087.128-.014.014-.062-.062-.172-.28a3.189 3.189 0 0 1-.27-.722l-.033-.137-.149.01-.149.013-.038-.175a4.952 4.952 0 0 1-.053-.323l-.014-.152-.125-.11c-.072-.061-.144-.123-.159-.132-.024-.02-.033-.053-.033-.081v-.057l.6.005.6.004.02.062.019.062.206.01.807.023.6.015.154-.238.158-.237h.202l-.005-.494-.005-.494-.264-.114c-.85-.37-1.349-.793-1.536-1.306-.039-.104-.039-.142-.048-.617-.005-.47-.005-.513.029-.617a.694.694 0 0 1 .494-.484c.082-.024.298-.024 1.431-.024l1.335.005.149.07c.178.086.26.148.36.28.115.153.149.272.149.561 0 .413-.029.77-.072.912-.062.195-.159.38-.278.546-.24.304-.678.608-1.076.745l-.116.043.005.499.005.498.106.01.105.01.145.213.139.213h.643c.356 0 .668.005.697.01.048.01.057.005.105-.076l.058-.086h.552c.413-.018.538-.009.538.005z"/><path fill="#000" d="M22.306 31.324c-.09.052-.153.076-.168.066-.014-.004-.081-.061-.153-.114l-.13-.104-.134.142c-.294.314-.303.328-.39.333-.134.014-.163-.01-.326-.252a7.705 7.705 0 0 1-.154-.228s-.062-.01-.134-.014l-.135-.014-.062.128-.063.128-.11-.033a2.354 2.354 0 0 1-.255-.1l-.143-.071v-.27l1.277.004 1.277.005.005.128c.005.152.01.147-.202.266z"/><path fill="#fff" d="M34.312 25.531c-.005-.019-.005-.052-.01-.104-1.152-.124-4.442-.2-7.496 2.293 0 0-.984-4.463-5.594-4.463s-6.32 4.463-6.32 4.463c-2.583-2.749-6.041-2.55-7.29-2.37 0 .03-.004.063-.004.091-.039.689-.02 1.016.096 1.448.36 1.354 1.47 2.844 3.207 4.307 2.848 2.393 6.709 4.121 9.634 4.32 3.049.205 7.548-1.557 10.545-4.13.47-.413.912-.85 1.325-1.316.298-.341.74-.93.706-.93-.01 0 0-.01.02-.02.014-.009.028-.023.019-.032-.005-.005.005-.02.019-.024.014-.005.024-.014.02-.024-.006-.01 0-.019.018-.024.015-.004.02-.019.015-.028-.005-.01 0-.02.01-.02.009 0 .019-.013.019-.023s.01-.023.019-.023c.01 0 .019-.01.019-.02a.49.49 0 0 1 .062-.109c.072-.109.36-.617.399-.703.274-.612.447-1.158.528-1.704.029-.261.053-.74.034-.855zm-12.005 5.793c-.092.052-.154.076-.169.066-.014-.004-.081-.061-.153-.114l-.13-.104-.134.142c-.293.314-.303.328-.39.333-.134.014-.163-.01-.326-.252a7.949 7.949 0 0 1-.154-.228s-.062-.01-.134-.014l-.134-.014-.063.128-.062.128-.11-.033a2.352 2.352 0 0 1-.255-.1l-.144-.07v-.272l1.277.005 1.277.005.005.128c.005.152.01.147-.201.266zm2.4-.855c-.072.271-.13.49-.13.499-.052.005-.1.01-.153.005h-.154l-.206.498c-.115.27-.22.523-.235.56l-.03.067-.1-.162-.1-.16V30.46l-.04.01c-.08.018-.662.094-.916.118-1.052.104-2.108.08-3.155-.066a3.22 3.22 0 0 0-.317-.038c-.005.004 0 .308.01.683l.014.675-.082.123c-.043.067-.086.124-.086.128-.015.014-.063-.062-.173-.28a3.193 3.193 0 0 1-.27-.722l-.033-.137-.149.01-.149.013-.038-.175a4.956 4.956 0 0 1-.053-.323l-.014-.152-.125-.11c-.072-.061-.144-.123-.159-.132-.024-.02-.033-.053-.033-.081v-.057l.6.005.6.005.02.061.019.062.206.01.807.023.6.015.154-.238.159-.237h.201l-.005-.494-.004-.494-.264-.114c-.85-.37-1.35-.793-1.537-1.306-.039-.104-.039-.142-.048-.617-.005-.47-.005-.513.029-.617a.694.694 0 0 1 .494-.484c.082-.024.298-.024 1.431-.024l1.335.005.15.07a.855.855 0 0 1 .36.28c.114.153.148.272.148.561 0 .413-.029.77-.072.912-.062.195-.158.38-.278.546-.24.304-.678.608-1.076.745l-.115.043.004.499.005.498.106.01.105.01.145.213.139.213h.643c.356 0 .668.005.697.01.048.01.057.005.105-.076l.058-.085h.552c.428 0 .552.004.552.018-.014-.004-.076.228-.149.494z"/><path fill="#FFA409" d="M34.273 25.047a17.37 17.37 0 0 0-.043-.66c-.206-2.156-.763-3.917-1.82-5.783a1.638 1.638 0 0 1-.105-.2c-.01-.014-.015-.028-.02-.038.15-.441.759-2.288 1.244-4.401.658-2.868 1.076-6.22-.202-7.227 0 0-2.209-.161-5.167 2.707a19.675 19.675 0 0 0-2.19 2.569l-.206-.067a15.14 15.14 0 0 0-3.669-.703 29.023 29.023 0 0 0-2.228 0c-1.378.09-2.435.295-3.635.708a2.315 2.315 0 0 1-.135.047 19.395 19.395 0 0 0-2.262-2.55c-3.078-2.882-5.368-2.715-5.368-2.715-1.354 1.04-.893 4.543-.192 7.506a48.78 48.78 0 0 0 1.239 4.307 1.054 1.054 0 0 1-.053.104c-1.12 2.241-1.724 4.402-1.868 6.7 1.253-.18 4.706-.385 7.294 2.37 0 0 1.71-4.464 6.32-4.464S26.8 27.72 26.8 27.72a10.319 10.319 0 0 1 7.496-2.293 15.834 15.834 0 0 0-.024-.38zm-23.852-8.29s-1.796-4.44-1.335-6.975c.077-.427.221-.803.447-1.087 0 0 2.036.199 5.32 3.807 0 0-.624.3-1.46.936 0 0-.004.005-.009.005-.908.688-2.07 1.78-2.963 3.314zm7.621 6.595c-.029.057-.173.119-.336.142-.163.024-.663.01-.946-.023-1.018-.133-2.099-.442-2.886-.822-.442-.213-.759-.427-.994-.66l-.135-.137-.014-.18c-.024-.314-.02-.808.02-.984.023-.147.076-.29.148-.418.039-.047.039-.047.211-.047.212 0 .39.033.678.123.59.18 1.469.618 2.54 1.254.883.522 1.215.779 1.47 1.13.172.218.287.527.244.622zm11.314-1.572c-.014.076-.24.304-.466.47-.663.48-1.849.926-3.054 1.14-.687.123-1.373.142-1.58.043-.134-.067-.154-.12-.105-.29.1-.356.427-.745.936-1.111.26-.185 1.31-.817 1.8-1.083.808-.436 1.46-.698 1.902-.76.14-.018.308-.023.36 0 .087.034.183.286.221.59.02.16.01.873-.014 1.001zm-.797-8.342-.01-.005c-.806-.636-1.412-.935-1.412-.935 3.175-3.609 5.139-3.808 5.139-3.808.216.29.355.66.432 1.087.447 2.536-1.287 6.98-1.287 6.98a11.343 11.343 0 0 0-2.862-3.32z"/><path fill="#FF9300" d="M32.713 9.777c-.375-.047-2.147-.057-4.154 3.66l-.01-.004c-.806-.636-1.412-.935-1.412-.935 3.175-3.609 5.139-3.808 5.139-3.808.22.29.36.66.437 1.087z"/><path fill="#FF8300" d="M31.426 16.757a11.298 11.298 0 0 0-2.867-3.32c2.007-3.717 3.774-3.707 4.154-3.66.446 2.54-1.287 6.98-1.287 6.98zm1.359-6.966-.072-.014.072.014z"/><path fill="#FF9300" d="M14.853 12.498s-.624.299-1.46.935c0 0-.004.005-.009.005-2.08-3.723-3.909-3.708-4.303-3.66.077-.428.221-.803.447-1.088.005 0 2.04.2 5.325 3.808z"/><path fill="#FF8300" d="M13.389 13.438c-.912.693-2.075 1.78-2.968 3.319 0 0-1.796-4.44-1.335-6.98.39-.047 2.224-.057 4.303 3.66zM9.086 9.777l-.077.014.077-.014z"/><path fill="#fff" d="M26.566 19.221s-1.537.095-1.345-1.092c.192-1.187 1.393-1.33 1.729-1.282.336.047 1.68.522 1.44 1.52-.24.996-.576.807-.768.854-.192.048-1.056 0-1.056 0zm-11.333 0s-1.537.095-1.345-1.092c.192-1.187 1.393-1.33 1.729-1.282.336.047 1.68.522 1.44 1.52-.24.996-.576.807-.768.854-.192.048-1.056 0-1.056 0z"/></g></g><defs><clipPath id="a"><rect width="42" height="42" fill="#fff" rx="21"/></clipPath><clipPath id="b"><path fill="#fff" d="M5.593 6.734h30.815v30.815H5.593z"/></clipPath></defs></svg>