<svg xmlns="http://www.w3.org/2000/svg" width="42" height="42" fill="none"><path fill="#0E052F" d="M42 21c0 11.598-9.402 21-21 21S0 32.598 0 21 9.402 0 21 0s21 9.402 21 21z"/><path fill="#00D1FF" d="M14.15 15.968a.873.873 0 0 0-.681-.314H7.943a.16.16 0 0 1-.12-.046.14.14 0 0 1-.045-.101v-3.693a.14.14 0 0 1 .046-.101.16.16 0 0 1 .12-.046h5.838c1.473 0 2.744.597 3.813 1.79l1.418 1.717-2.763 3.342-2.1-2.548zm10.204-2.529c1.068-1.181 2.345-1.772 3.83-1.772h5.821c.05 0 .086.012.11.037.025.024.037.061.037.11v3.693a.16.16 0 0 1-.036.101.136.136 0 0 1-.11.046H28.48a.874.874 0 0 0-.682.314l-4.07 4.911 4.089 4.948a.875.875 0 0 0 .663.295h5.525c.05 0 .086.016.11.047.025.03.037.07.037.12v3.692a.16.16 0 0 1-.036.101c-.025.031-.062.046-.11.046h-5.821c-1.486 0-2.757-.596-3.813-1.79l-3.388-4.099-3.39 4.099c-1.068 1.194-2.345 1.79-3.83 1.79h-5.82c-.05 0-.087-.015-.111-.046a.185.185 0 0 1-.037-.12V26.27c0-.037.012-.071.037-.102.024-.03.061-.046.11-.046h5.526c.257 0 .484-.104.681-.314l3.997-4.837 6.207-7.532z"/></svg>