<svg width="42" height="42" fill="none" xmlns="http://www.w3.org/2000/svg">
  <path fill="#00D1FF" d="M42 21c0 11.598-9.402 21-21 21S0 32.598 0 21 9.402 0 21 0s21 9.402 21 21"/>
  <path fill="#0B0B22" d="M14.15 15.968a.87.87 0 0 0-.681-.314H7.943a.16.16 0 0 1-.12-.046.14.14 0 0 1-.045-.101v-3.693a.14.14 0 0 1 .046-.101.16.16 0 0 1 .12-.046h5.838q2.21 0 3.813 1.79l1.418 1.717-2.763 3.342zm10.204-2.529q1.602-1.772 3.83-1.772h5.821q.075 0 .11.037.037.036.037.11v3.693a.16.16 0 0 1-.036.101.14.14 0 0 1-.11.046H28.48a.87.87 0 0 0-.682.314l-4.07 4.911 4.089 4.948a.88.88 0 0 0 .663.295h5.525q.074 0 .11.047.037.045.037.12v3.692a.16.16 0 0 1-.036.101.14.14 0 0 1-.11.046h-5.821q-2.229 0-3.813-1.79l-3.388-4.099-3.39 4.098q-1.602 1.792-3.83 1.791h-5.82q-.075 0-.111-.046a.2.2 0 0 1-.037-.12v-3.693q0-.055.037-.1.036-.048.11-.047h5.526q.386 0 .681-.314l3.997-4.837z"/>
</svg>
