<svg width="42" height="42" fill="none" viewBox="0 0 42 42" xmlns="http://www.w3.org/2000/svg">
  <circle cx="21" cy="21" r="21" fill="#000"/>
  <g clip-path="url(#a)">
    <path fill="url(#b)" d="m32.876 27.031-3.961 4.14a.92.92 0 0 1-.674.284H9.46a.47.47 0 0 1-.252-.073.438.438 0 0 1-.084-.68l3.965-4.14a.92.92 0 0 1 .67-.285H32.54c.09 0 .177.026.252.074a.438.438 0 0 1 .084.68m-3.961-8.335a.92.92 0 0 0-.674-.285H9.46a.47.47 0 0 0-.252.073.438.438 0 0 0-.084.68l3.965 4.14a.92.92 0 0 0 .67.285H32.54a.45.45 0 0 0 .422-.27.44.44 0 0 0-.086-.484zM9.46 15.722h18.78a.94.94 0 0 0 .674-.284l3.961-4.14a.44.44 0 0 0 .086-.484.45.45 0 0 0-.17-.196.47.47 0 0 0-.252-.073H13.76a.94.94 0 0 0-.671.284l-3.964 4.14a.44.44 0 0 0-.086.484q.055.122.17.196a.47.47 0 0 0 .25.074"/>
  </g>
  <defs>
    <linearGradient id="b" x1="11.026" x2="30.147" y1="31.954" y2="9.828" gradientUnits="userSpaceOnUse">
      <stop offset=".08" stop-color="#9945FF"/>
      <stop offset=".3" stop-color="#8752F3"/>
      <stop offset=".5" stop-color="#5497D5"/>
      <stop offset=".6" stop-color="#43B4CA"/>
      <stop offset=".72" stop-color="#28E0B9"/>
      <stop offset=".97" stop-color="#19FB9B"/>
    </linearGradient>
    <clipPath id="a">
      <path fill="#fff" d="M9 10.545h24v20.91H9z"/>
    </clipPath>
  </defs>
</svg>
