<svg xmlns="http://www.w3.org/2000/svg" width="42" height="42" fill="none"><g clip-path="url(#a)"><circle cx="21" cy="21" r="21" fill="#EDEEF1"/><g fill="#00A3FF" clip-path="url(#b)"><path d="m12.037 18.95-.24.358C9.042 23.6 9.64 29.204 13.354 32.78c2.037 2.147 4.912 3.22 7.787 3.22l-9.104-17.05z"/><path d="m21.14 24.077-9.104-5.246L21.14 36V24.077zm9.105-5.127.24.358c2.755 4.292 2.156 9.896-1.558 13.473A10.902 10.902 0 0 1 21.141 36l9.104-17.05z" opacity=".6"/><path d="m21.14 24.077 9.105-5.246L21.14 36V24.077zm0-11.566v8.943l7.907-4.412-7.906-4.53z" opacity=".2"/><path d="m21.14 12.511-7.906 4.531 7.907 4.412V12.51z" opacity=".6"/><path d="m21.14 5-7.906 12.042 7.907-4.53V5z"/><path d="m21.14 12.511 7.907 4.531L21.14 5v7.511z" opacity=".6"/></g></g><defs><clipPath id="a"><rect width="42" height="42" fill="#fff" rx="21"/></clipPath><clipPath id="b"><path fill="#fff" d="M10 5h22.281v31H10z"/></clipPath></defs></svg>