<svg width="42" height="42" viewBox="0 0 42 42" fill="none" xmlns="http://www.w3.org/2000/svg">
<g clip-path="url(#clip0_7309_45906)">
<circle cx="21" cy="21" r="21" fill="#EDEEF1"/>
<g clip-path="url(#clip1_7309_45906)">
<path d="M12.0365 18.95L11.7969 19.3077C9.04169 23.6 9.64065 29.2038 13.3542 32.7808C15.3906 34.9269 18.2657 36 21.1407 36C21.1407 36 21.1406 36 12.0365 18.95Z" fill="#00A3FF"/>
<path opacity="0.6" d="M21.1405 24.0769L12.0364 18.8308C21.1405 36 21.1405 36 21.1405 36C21.1405 32.3038 21.1405 28.0115 21.1405 24.0769Z" fill="#00A3FF"/>
<path opacity="0.6" d="M30.2448 18.95L30.4844 19.3077C33.2396 23.6 32.6406 29.2038 28.9271 32.7808C26.7708 34.9269 24.0156 36 21.1406 36C21.1406 36 21.1406 36 30.2448 18.95Z" fill="#00A3FF"/>
<path opacity="0.2" d="M21.1406 24.0769L30.2448 18.8308C21.1406 36 21.1406 36 21.1406 36C21.1406 32.3038 21.1406 28.0115 21.1406 24.0769Z" fill="#00A3FF"/>
<path opacity="0.2" d="M21.1406 12.5115V21.4538L29.0469 17.0423L21.1406 12.5115Z" fill="#00A3FF"/>
<path opacity="0.6" d="M21.1406 12.5115L13.2344 17.0423L21.1406 21.4538V12.5115Z" fill="#00A3FF"/>
<path d="M21.1406 5L13.2344 17.0423L21.1406 12.5115V5Z" fill="#00A3FF"/>
<path opacity="0.6" d="M21.1406 12.5115L29.0469 17.0423L21.1406 5V12.5115Z" fill="#00A3FF"/>
</g>
</g>
<defs>
<clipPath id="clip0_7309_45906">
<rect width="42" height="42" rx="21" fill="white"/>
</clipPath>
<clipPath id="clip1_7309_45906">
<rect width="22.2812" height="31" fill="white" transform="translate(10 5)"/>
</clipPath>
</defs>
</svg>
