<svg width="42" height="42" viewBox="0 0 42 42" fill="none" xmlns="http://www.w3.org/2000/svg"><path d="M0 21c0 11.598 9.402 21 21 21V0C9.402 0 0 9.402 0 21z" fill="#fff"/><path d="M21 42c11.598 0 21-9.402 21-21S32.598 0 21 0v42z" fill="#627EEA"/><path d="M30.927 11v7.052l5.96 2.663L30.927 11z" fill="#fff" fill-opacity=".602"/><path d="M30.927 11l-5.96 9.715 5.96-2.663V11z" fill="#fff"/><path d="M30.927 25.285v4.791l5.964-8.251-5.964 3.46z" fill="#fff" fill-opacity=".602"/><path d="M30.927 30.076v-4.792l-5.96-3.46 5.96 8.252z" fill="#fff"/><path d="M30.927 24.176l5.96-3.461-5.96-2.662v6.123z" fill="#fff" fill-opacity=".2"/><path d="M24.966 20.715l5.961 3.46v-6.122l-5.96 2.662z" fill="#fff" fill-opacity=".602"/><path d="M5.198 19.55l-.147.22c-1.689 2.63-1.322 6.065.954 8.257C7.253 29.342 9.015 30 10.778 30l-5.58-10.45z" fill="#00A3FF"/><path opacity=".6" d="M10.777 22.692l-5.58-3.215L10.778 30v-7.308zm5.581-3.142l.146.22c1.69 2.63 1.322 6.065-.954 8.257A6.682 6.682 0 0110.778 30l5.58-10.45z" fill="#00A3FF"/><path opacity=".2" d="M10.778 22.692l5.58-3.215L10.778 30v-7.308zm0-7.088v5.48l4.845-2.703-4.845-2.777z" fill="#00A3FF"/><path opacity=".6" d="M10.778 15.604L5.932 18.38l4.846 2.704v-5.481z" fill="#00A3FF"/><path d="M10.778 11l-4.846 7.38 4.846-2.776V11z" fill="#00A3FF"/><path opacity=".6" d="M10.778 15.604l4.845 2.777L10.778 11v4.604z" fill="#00A3FF"/></svg>