<svg width="42" height="42" fill="none" xmlns="http://www.w3.org/2000/svg">
  <path fill="#fff" d="M0 21c0 11.598 9.402 21 21 21V0C9.402 0 0 9.402 0 21"/>
  <path fill="#627EEA" d="M21 42c11.598 0 21-9.402 21-21S32.598 0 21 0z"/>
  <path fill="#fff" fill-opacity=".602" d="M30.927 11v7.052l5.96 2.663z"/>
  <path fill="#fff" d="m30.927 11-5.96 9.715 5.96-2.663z"/>
  <path fill="#fff" fill-opacity=".602" d="M30.927 25.285v4.791l5.964-8.251z"/>
  <path fill="#fff" d="M30.927 30.076v-4.792l-5.96-3.46z"/>
  <path fill="#fff" fill-opacity=".2" d="m30.927 24.176 5.96-3.461-5.96-2.662z"/>
  <path fill="#fff" fill-opacity=".602" d="m24.966 20.715 5.961 3.46v-6.122z"/>
  <path fill="#00A3FF" d="m5.198 19.55-.147.22c-1.689 2.63-1.322 6.065.954 8.257C7.253 29.342 9.015 30 10.778 30z"/>
  <path fill="#00A3FF" d="m10.777 22.692-5.58-3.215L10.778 30v-7.308zm5.581-3.142.146.22c1.69 2.63 1.322 6.065-.954 8.257A6.68 6.68 0 0 1 10.778 30z" opacity=".6"/>
  <path fill="#00A3FF" d="m10.778 22.692 5.58-3.215L10.778 30zm0-7.088v5.48l4.845-2.703z" opacity=".2"/>
  <path fill="#00A3FF" d="M10.778 15.604 5.932 18.38l4.846 2.704z" opacity=".6"/>
  <path fill="#00A3FF" d="m10.778 11-4.846 7.38 4.846-2.776z"/>
  <path fill="#00A3FF" d="m10.778 15.604 4.845 2.777L10.778 11z" opacity=".6"/>
</svg>
