<svg width="42" height="42" fill="none" xmlns="http://www.w3.org/2000/svg">
  <g fill-rule="evenodd" clip-path="url(#a)" clip-rule="evenodd">
    <path fill="#0C0C4F" d="M0 21.131C0 32.656 9.402 42 21 42s21-9.343 21-20.868C42 9.606 32.598.264 21 .264S0 9.606 0 21.13Z"/>
    <path fill="#FAFAFA" d="m11.737 16.215.519-1.592c.105-.323.362-.575.689-.675l1.61-.492a.236.236 0 0 0 .003-.45l-1.602-.516a1.05 1.05 0 0 1-.68-.685l-.494-1.6c-.068-.22-.382-.222-.454-.002l-.518 1.591a1.05 1.05 0 0 1-.69.675l-1.609.492a.236.236 0 0 0-.003.45l1.602.516c.325.104.578.36.679.685l.494 1.599c.068.221.383.224.454.004"/>
    <path fill="url(#b)" d="M37.175 15.288c-.664-.737-1.7-1.152-2.706-1.323a9.4 9.4 0 0 0-3.08.029c-2.027.34-3.868 1.175-5.474 2.204-.834.504-1.546 1.089-2.283 1.684-.355.3-.678.621-1.015.937l-.922.91c-1 1.04-1.987 1.987-2.942 2.772-.958.781-1.854 1.375-2.737 1.79-.882.416-1.827.66-3.057.7-1.22.043-2.663-.176-4.207-.537-1.553-.36-3.182-.872-5.004-1.313.636 1.752 1.593 3.3 2.821 4.715 1.244 1.39 2.796 2.659 4.79 3.492 1.965.852 4.435 1.158 6.744.697 2.316-.443 4.348-1.508 5.99-2.74 1.647-1.243 2.979-2.66 4.102-4.133.31-.407.474-.635.698-.953l.62-.913c.431-.565.824-1.207 1.25-1.767.836-1.171 1.661-2.341 2.619-3.42.482-.546.99-1.07 1.59-1.572.3-.245.624-.486.982-.702a4.7 4.7 0 0 1 1.22-.557Z"/>
    <path fill="#FAFAFA" d="M37.175 15.29c-.713-1.788-2.038-3.292-3.817-4.403-1.767-1.098-4.222-1.658-6.656-1.18a11 11 0 0 0-3.388 1.268c-1.017.59-1.929 1.3-2.718 2.061a22 22 0 0 0-1.107 1.182l-.92 1.167-1.422 1.877c-1.813 2.416-3.766 5.248-6.97 6.087-3.145.824-4.51.094-6.429-.207.351.9.786 1.775 1.375 2.544a10.1 10.1 0 0 0 2.112 2.154c.429.304.882.603 1.385.857a9.6 9.6 0 0 0 1.619.625 9.5 9.5 0 0 0 3.69.253 11.2 11.2 0 0 0 3.492-1.083 14.7 14.7 0 0 0 2.79-1.816c1.628-1.343 2.894-2.828 3.964-4.329a31 31 0 0 0 1.478-2.28l.532-.91c.163-.266.327-.534.494-.783.674-1.002 1.333-1.805 2.133-2.408.79-.62 1.889-1.076 3.357-1.182 1.463-.108 3.151.09 5.006.505Z"/>
    <path fill="url(#c)" d="M29.262 30.14a2.385 2.385 0 0 0 2.392 2.376 2.384 2.384 0 0 0 2.392-2.377 2.384 2.384 0 0 0-2.392-2.377 2.385 2.385 0 0 0-2.392 2.377Z"/>
  </g>
  <defs>
    <linearGradient id="b" x1="36.996" x2="7.664" y1="14.661" y2="31.062" gradientUnits="userSpaceOnUse">
      <stop stop-color="#EC796B"/>
      <stop offset="1" stop-color="#E175B1"/>
    </linearGradient>
    <linearGradient id="c" x1="34.044" x2="29.26" y1="28.471" y2="28.98" gradientUnits="userSpaceOnUse">
      <stop stop-color="#EC796B"/>
      <stop offset="1" stop-color="#E175B1"/>
    </linearGradient>
    <clipPath id="a">
      <path fill="#fff" d="M0 0h42v42H0z"/>
    </clipPath>
  </defs>
</svg>
