<svg width="42" height="42" viewBox="0 0 42 42" fill="none" xmlns="http://www.w3.org/2000/svg">
<g clip-path="url(#clip0_9309_2867)">
<path d="M21 42C32.598 42 42 32.598 42 21C42 9.40202 32.598 0 21 0C9.40202 0 0 9.40202 0 21C0 32.598 9.40202 42 21 42Z" fill="#5546FF"/>
<path d="M29.5681 32.0651L25.0475 24.9687H31.5394V22.2879H10.2502V24.9687H16.7421L12.2215 32.0651H15.5857L20.8948 23.7334L26.2039 32.0651H29.5681ZM31.5394 19.6859V17.005H25.1789L29.647 9.98748H26.2565L20.8948 18.4506L15.5331 9.98748H12.1426L16.6107 17.005H10.2502V19.7121L31.5394 19.6859Z" fill="white"/>
</g>
<defs>
<clipPath id="clip0_9309_2867">
<rect width="42" height="42" fill="white"/>
</clipPath>
</defs>
</svg>
