<svg xmlns="http://www.w3.org/2000/svg" width="42" height="42" fill="none"><g clip-path="url(#a)"><circle cx="21" cy="21" r="21" fill="#4CA3FF"/><path fill="#fff" fill-rule="evenodd" d="M27.003 18.427a7.35 7.35 0 0 1-.048 9.378l-.092.111-.024-.14a5.99 5.99 0 0 0-.074-.363c-.536-2.304-2.282-4.279-5.157-5.878-1.94-1.077-3.052-2.373-3.343-3.847-.189-.953-.049-1.91.222-2.729.27-.82.673-1.506 1.015-1.92l1.119-1.337a.497.497 0 0 1 .759 0l5.623 6.725zm1.768-1.336-7.494-8.963a.363.363 0 0 0-.554 0l-7.494 8.962-.025.03A9.58 9.58 0 0 0 11 23.236C11 28.628 15.477 33 21 33s10-4.372 10-9.764a9.58 9.58 0 0 0-2.204-6.116l-.025-.03zm-13.75 1.307.671-.802.02.148c.017.117.036.235.06.353.433 2.226 1.982 4.081 4.573 5.519 2.252 1.253 3.563 2.694 3.94 4.275a5.39 5.39 0 0 1 .118 1.876l-.005.035-.032.015a7.79 7.79 0 0 1-3.366.759c-4.235 0-7.669-3.353-7.669-7.488 0-1.776.633-3.407 1.69-4.69z" clip-rule="evenodd"/></g><defs><clipPath id="a"><rect width="42" height="42" fill="#fff" rx="21"/></clipPath></defs></svg>