<svg xmlns="http://www.w3.org/2000/svg" width="42" height="42" fill="none"><circle cx="21" cy="21" r="21" fill="#fff"/><g clip-path="url(#a)"><mask id="b" width="30" height="30" x="6" y="6" maskUnits="userSpaceOnUse" style="mask-type:luminance"><path fill="#fff" d="M36 6H6v30h30V6z"/></mask><g mask="url(#b)"><path fill="url(#c)" d="M12.25 8.875 35.5 24.75l-5.75 8.5-23.25-16 5.75-8.375z"/><path fill="url(#d)" d="M35.5 24.75c-2 2.875-8.75 1.75-15.125-2.75-6.5-4.375-10-10.25-8.125-13.125 2-2.875 8.75-1.75 15.125 2.75 6.5 4.25 10 10.25 8.125 13.125z"/><path fill="url(#e)" d="M29.75 33.125c-2 2.875-8.75 1.75-15.125-2.75s-10-10.25-8-13.25c2-2.875 8.75-1.75 15.125 2.75s9.875 10.375 8 13.25z"/><path fill="#0E0F23" d="m35.5 24.75-5.75 8.5c-2 2.875-8.75 1.625-15.125-2.75a37.66 37.66 0 0 1-3.5-2.75c.875-.125 2-.625 3.125-1.875 2-2.125 3-2.625 3.875-2.5.875 0 1.875.875 3.5 3s3.875 2.75 5.25 1.625c.125-.125.25-.125.375-.25 1.125-.875 1.5-1.25 3.625-5.25.5-1 2.25-2.625 4.625-1.875.625 1.625.625 3 0 4.125z"/><path fill="#fff" fill-rule="evenodd" d="M34.625 24.25c-1.75 2.5-7.875 1.25-13.75-2.875-6-4.125-9.5-9.375-7.75-11.875S21 8.25 26.875 12.375s9.375 9.375 7.75 11.875zm-5.5-3.75c-.875 1.25-3.875.625-6.875-1.375-2.875-2-4.625-4.625-3.75-5.875s3.875-.625 6.875 1.375c2.875 2 4.625 4.625 3.75 5.875z" clip-rule="evenodd"/><path fill="#fff" d="M11.75 11.75c0-.125-.125-.25-.25-.125s-.25.125-.25.25c.125.375.25.625.25.875 0 .125.125.25.25.125.125 0 .25-.125.125-.25 0-.25 0-.5-.125-.875zm.625 2c0-.125-.125-.25-.25-.125s-.125.125-.125.25c1.375 3.125 4.25 6.5 8 9 .125.125.25 0 .375 0 .125-.125 0-.25 0-.375-3.875-2.5-6.625-5.75-8-8.75zM27.5 26c-.125 0-.25 0-.25.125s0 .25.125.25c.375.125.875.25 1.25.375.125 0 .25 0 .25-.125s0-.25-.125-.25c-.375-.125-.875-.25-1.25-.375zm2.25.5a.269.269 0 0 0-.25.25c0 .125.125.25.25.25 1 .125 2.125.25 3 .125.125 0 .25-.125.25-.25a.269.269 0 0 0-.25-.25c-1 .125-2 0-3-.125z"/></g></g><defs><linearGradient id="c" x1="16.805" x2="21.416" y1="6.618" y2="22.451" gradientUnits="userSpaceOnUse"><stop stop-color="#03B8FF"/><stop offset="1" stop-color="#FA52A0"/></linearGradient><linearGradient id="d" x1="20.602" x2="25.213" y1="5.512" y2="21.345" gradientUnits="userSpaceOnUse"><stop stop-color="#03B8FF"/><stop offset="1" stop-color="#FA52A0"/></linearGradient><linearGradient id="e" x1="13.02" x2="17.631" y1="7.72" y2="23.553" gradientUnits="userSpaceOnUse"><stop stop-color="#03B8FF"/><stop offset="1" stop-color="#FA52A0"/></linearGradient><clipPath id="a"><path fill="#fff" d="M6 6h30v30H6z"/></clipPath></defs></svg>