<svg xmlns="http://www.w3.org/2000/svg" width="43" height="43" fill="none"><circle cx="21.236" cy="21.715" r="21" fill="#7B2BF9"/><path fill="#fff" d="M38.846 17.977a18.014 18.014 0 0 0-12.5-13.52A18.003 18.003 0 0 0 8.503 8.987a18.245 18.245 0 0 0-2.204 2.67c-.19.254-.362.522-.514.802A18.019 18.019 0 0 0 20 39.672a18.004 18.004 0 0 0 17.72-10.693c.108-.223.203-.452.284-.686a18.195 18.195 0 0 0 .853-10.27c-.003-.015-.006-.03-.011-.046Zm-6.243-8.234a16.491 16.491 0 0 1 3.945 5.777.279.279 0 0 1-.308.379 8.326 8.326 0 0 0-1.598-.112.832.832 0 0 1-.836-.683c-.321-1.801-.786-3.464-1.382-4.916a13.373 13.373 0 0 0-.103-.245.177.177 0 0 1 .174-.248c.04.003.079.02.108.048Zm1.713 10.564a.192.192 0 0 1 .347-.116 14.489 14.489 0 0 1 .853 1.33.416.416 0 0 1-.055.486c-.193.212-.403.43-.63.658-.083.083-.167.167-.253.249a.167.167 0 0 1-.279-.125 37.904 37.904 0 0 0 .015-2.482h.002ZM11.646 8.27a16.387 16.387 0 0 1 9.587-3.067c.91 0 1.82.075 2.718.224a.278.278 0 0 1 .128.492c-.862.677-1.663 1.677-2.372 2.975a.773.773 0 0 1-.888.374c-2.349-.662-4.66-.973-6.797-.898-.75.024-1.496.103-2.234.237a.187.187 0 0 1-.142-.337ZM9.288 32.942c-.346-.655.102-2.174 2.382-4.479a.568.568 0 0 0-.051-.845l-.272-.216a.57.57 0 0 0-.761.04l-.09.089c-1.139 1.17-1.936 2.252-2.383 3.226a.39.39 0 0 1-.676.053 16.4 16.4 0 0 1-2.718-9.088c0-1.159.12-2.314.359-3.447a.167.167 0 0 1 .324-.015c.343 1.132.9 2.302 1.673 3.485 1.037 1.594 2.405 3.125 4.026 4.53.553.48 1.138.944 1.747 1.394 1.27.93 2.609 1.762 4.006 2.486.633.33 1.25.643 1.88.927a1.43 1.43 0 0 0 1.111.03c.297-.117.597-.238.9-.364a.719.719 0 0 0 .418-.84l-.024-.097c-.497-2.093-.773-4.45-.806-6.918v-.089c0-.135 0-.27-.003-.405V22.189c0-.154 0-.308.005-.463.007-.424.022-.844.044-1.26.154-2.979.658-5.778 1.462-8.132a.416.416 0 0 0-.26-.528 16.857 16.857 0 0 0-.636-.208.413.413 0 0 0-.516.261c-.87 2.556-1.407 5.59-1.55 8.798a1.207 1.207 0 0 1-.591.986c-1.9 1.127-3.645 2.321-5.153 3.525a.835.835 0 0 1-1.067-.022c-1.51-1.31-2.783-2.732-3.744-4.21-1.89-2.903-2.341-5.637-1.264-7.695l.008-.014c.137-.228.28-.452.428-.673 1.235-1.635 3.533-2.582 6.577-2.69.193-.006.387-.01.583-.01 1.87 0 3.875.309 5.916.898l.134.04.103.03c.472.14.945.296 1.418.467l.034.012c.123.044.246.09.37.136l.115.045.112.042a29.69 29.69 0 0 1 2.974 1.346 28.47 28.47 0 0 1 5.161 3.42c-2.893.663-6.255 1.942-9.636 3.666a.492.492 0 0 0-.268.411c-.012.21-.028.631-.039.966a.273.273 0 0 0 .401.252c3.345-1.758 6.689-3.072 9.557-3.767a1.072 1.072 0 0 0 .808-1.192 30.769 30.769 0 0 0-.177-1.127 1.877 1.877 0 0 0-.708-1.17 30.48 30.48 0 0 0-4.41-2.787 31.099 31.099 0 0 0-3.238-1.457.408.408 0 0 1-.21-.58c1.118-2.003 2.452-3.122 3.746-3.122h.04c1.53.027 3.055 1.62 4.185 4.37.571 1.395 1.014 2.999 1.317 4.744a.037.037 0 0 0-.005-.005c.13.745.233 1.515.311 2.304l-.02.012.027.028a36.11 36.11 0 0 1 .157 4.11 37.259 37.259 0 0 1-.14 2.627c-2.047 1.654-4.577 3.3-7.357 4.775-.915.484-1.829.935-2.732 1.35l-.041.02-.208.095c-.75.34-1.49.652-2.223.94l-.124.047-.154.06-.366.138-.1.038c-.148.056-.296.108-.442.16-.018.008-.036.015-.056.021-1.565.558-3.056.979-4.415 1.24-3.286.635-4.833.15-5.185-.515Zm4.526-6.411c1.455-1.186 3.16-2.368 5.03-3.488.04 2.393.303 4.69.767 6.765a31.904 31.904 0 0 1-2.07-.977 29.312 29.312 0 0 1-3.727-2.3Zm9.55 11.574c-.707.09-1.419.136-2.131.136a16.399 16.399 0 0 1-8.918-2.608.223.223 0 0 1 .112-.409 17.883 17.883 0 0 0 2.323-.301c1.692-.326 3.574-.885 5.544-1.637a.349.349 0 0 1 .446.195v.003c.764 1.86 1.704 3.265 2.759 4.159a.264.264 0 0 1-.136.462Zm6.98-4.411c-1.178 2.32-2.63 3.621-4.038 3.595-1.53-.027-3.055-1.62-4.184-4.371a.347.347 0 0 1 .183-.45l.037-.016a.352.352 0 0 1 .235-.016c2.112.593 4.194.903 6.145.903a17.309 17.309 0 0 0 1.352-.052.282.282 0 0 1 .27.407Zm.509-1.995c-.515.074-1.034.12-1.554.137a19.352 19.352 0 0 1-4.159-.335.186.186 0 0 1-.05-.35c.314-.158.627-.32.94-.487a50.843 50.843 0 0 0 6.047-3.746.186.186 0 0 1 .293.182c-.23 1.42-.573 2.82-1.027 4.186a.614.614 0 0 1-.49.413Zm2.437 1.31c-.124.133-.251.264-.38.39a14.24 14.24 0 0 1-.691.653.184.184 0 0 1-.29-.214l.073-.155c.098-.218.194-.441.286-.67a.185.185 0 0 1 .125-.108c.235-.06.463-.126.685-.197a.183.183 0 0 1 .192.301Zm3.319-5.24c-.08.202-.163.402-.25.601-.013.027-.026.056-.04.082-.545 1.049-1.459 1.874-2.68 2.449a.353.353 0 0 1-.492-.414c.422-1.533.726-3.096.911-4.676.038-.308.189-.59.424-.793.501-.434.97-.868 1.402-1.299l.005-.005a.398.398 0 0 1 .66.167c.426 1.418.45 2.737.06 3.888Zm.33-7.74a.333.333 0 0 1-.575.02l-.064-.1a19.67 19.67 0 0 0-1.69-2.22.274.274 0 0 1 .208-.456h.005c1.48 0 2.255.365 2.492.812.193.373.134 1.026-.376 1.945Zm.8 2.184a.103.103 0 0 1-.085.1.104.104 0 0 1-.115-.062l-.055-.133a.247.247 0 0 1 .028-.248l.06-.079c.072-.094.176-.08.176.024-.002.138-.005.258-.01.399v-.001Z"/></svg>