<svg width="42" height="42" fill="none" viewBox="0 0 42 42" xmlns="http://www.w3.org/2000/svg">
  <g clip-path="url(#a)">
    <path fill="#08C" d="M21 42c11.598 0 21-9.402 21-21S32.598 0 21 0 0 9.402 0 21s9.402 21 21 21"/>
    <path fill="#fff" fill-rule="evenodd" d="M15.15 13.875h11.775c.45 0 .825.075 1.275.3.525.225.825.6.975.9 0 0 0 .075.075.075.225.375.375.825.375 1.35 0 .45-.075.9-.375 1.35L21.825 30.6c-.15.3-.45.45-.825.45-.3 0-.6-.15-.825-.45L12.9 17.85c-.15-.3-.45-.675-.45-1.275-.075-.525.075-.975.3-1.425s.6-.825 1.125-.975c.45-.3.975-.3 1.275-.3m4.95 1.8h-4.95c-.3 0-.45 0-.525.075a.6.6 0 0 0-.3.3c-.075.075-.075.225-.075.375 0 .075.075.15.225.45l5.625 9.75zm1.8 0V26.7l5.7-9.825c.075-.15.075-.3.075-.45s0-.3-.075-.375-.075-.15-.15-.15l-.075-.075c-.15-.075-.3-.075-.525-.075H21.9z" clip-rule="evenodd"/>
  </g>
  <defs>
    <clipPath id="a">
      <path fill="#fff" d="M0 0h42v42H0z"/>
    </clipPath>
  </defs>
</svg>
