<svg xmlns="http://www.w3.org/2000/svg" width="43" height="43" fill="none"><g clip-path="url(#a)"><mask id="b" width="43" height="43" x="0" y="0" maskUnits="userSpaceOnUse" style="mask-type:luminance"><path fill="#fff" d="M42.064.715h-42v42h42v-42Z"/></mask><g mask="url(#b)"><path fill="#000" d="M21.064 42.715c11.598 0 21-9.402 21-21s-9.402-21-21-21-21 9.402-21 21 9.402 21 21 21Z"/><path fill="url(#c)" d="M34.672 16.99c.924 3.612-17.283 12.537-25.536 14.658-8.253 2.121 15.96-8.337 15.015-11.949-.945-3.612-20.244-.651-11.991-2.772 8.253-2.121 21.588-3.549 22.512.063Z"/></g></g><defs><linearGradient id="c" x1="18.674" x2="22.051" y1="15.245" y2="28.311" gradientUnits="userSpaceOnUse"><stop stop-color="#00FF8F"/><stop offset=".43" stop-color="#53FDB2"/><stop offset="1" stop-color="#68FCBB"/></linearGradient><clipPath id="a"><path fill="#fff" d="M.064.715h42v42h-42z"/></clipPath></defs></svg>