<svg width="43" height="43" viewBox="0 0 43 43" fill="none" xmlns="http://www.w3.org/2000/svg">
<g clip-path="url(#clip0_7926_3076)">
<mask id="mask0_7926_3076" style="mask-type:luminance" maskUnits="userSpaceOnUse" x="0" y="0" width="43" height="43">
<path d="M42.0637 0.715027H0.0637054V42.715H42.0637V0.715027Z" fill="white"/>
</mask>
<g mask="url(#mask0_7926_3076)">
<path d="M21.0637 42.715C32.6617 42.715 42.0637 33.313 42.0637 21.715C42.0637 10.117 32.6617 0.715027 21.0637 0.715027C9.46573 0.715027 0.0637054 10.117 0.0637054 21.715C0.0637054 33.313 9.46573 42.715 21.0637 42.715Z" fill="black"/>
<path d="M34.6717 16.99C35.5957 20.602 17.3887 29.527 9.13571 31.648C0.882706 33.769 25.0957 23.311 24.1507 19.699C23.2057 16.087 3.90671 19.048 12.1597 16.927C20.4127 14.806 33.7477 13.378 34.6717 16.99Z" fill="url(#paint0_linear_7926_3076)"/>
</g>
</g>
<defs>
<linearGradient id="paint0_linear_7926_3076" x1="18.6739" y1="15.2449" x2="22.0507" y2="28.3111" gradientUnits="userSpaceOnUse">
<stop stop-color="#00FF8F"/>
<stop offset="0.43" stop-color="#53FDB2"/>
<stop offset="1" stop-color="#68FCBB"/>
</linearGradient>
<clipPath id="clip0_7926_3076">
<rect width="42" height="42" fill="white" transform="translate(0.0637054 0.715027)"/>
</clipPath>
</defs>
</svg>
