<svg width="42" height="42" viewBox="0 0 42 42" fill="none" xmlns="http://www.w3.org/2000/svg">
<g clip-path="url(#clip0_1097_26629)">
<path d="M21 42C32.598 42 42 32.598 42 21C42 9.40202 32.598 0 21 0C9.40202 0 0 9.40202 0 21C0 32.598 9.40202 42 21 42Z" fill="black"/>
<path d="M32.4778 16.099C31.4291 15.3548 30.3069 14.5608 29.2097 13.7733C29.1847 13.7549 29.1611 13.7365 29.1309 13.7182C29.0024 13.6126 28.8568 13.5296 28.7004 13.4727L28.6873 13.4662C25.7513 12.7457 22.8162 12.0221 19.8817 11.2953L12.0277 9.35671L11.8217 9.30159C11.5854 9.23465 11.3124 9.15984 11.0211 9.19659C10.9413 9.20882 10.8651 9.23838 10.7979 9.28321L10.7244 9.3449C10.6324 9.43927 10.5621 9.5526 10.5184 9.67696L10.5 9.72684V10.009L10.5131 10.0523C12.1669 14.7577 13.8653 19.5312 15.5033 24.1499C16.7646 27.7068 18.0758 31.3897 19.3541 35.0069C19.4329 35.2523 19.6573 35.4138 19.9369 35.4374H19.9973C20.1194 35.4405 20.2402 35.4108 20.3468 35.3512C20.4535 35.2916 20.5422 35.2044 20.6036 35.0988L25.4074 27.9942C26.5768 26.2657 27.7476 24.5318 28.9183 22.8033L30.3555 20.6744C31.143 19.5063 31.9567 18.3001 32.7639 17.1254L32.8059 17.065V16.9902C32.8243 16.775 32.8296 16.3327 32.4778 16.0977V16.099ZM26.8498 18.6886C25.7211 19.2845 24.57 19.9 23.4111 20.509L25.4376 18.3067C26.2802 17.384 27.1596 16.4298 28.0206 15.4953L28.0389 15.4769C28.1111 15.3785 28.203 15.2866 28.3001 15.1882C28.3658 15.1212 28.4392 15.053 28.5062 14.9729C28.9551 15.2879 29.4092 15.6068 29.8462 15.9205C30.1612 16.1476 30.4828 16.376 30.8109 16.603C29.486 17.2895 28.1656 17.9847 26.8498 18.6886V18.6886ZM23.9518 18.3933C23.0843 19.3462 22.1865 20.324 21.2953 21.29C19.5657 19.1618 17.831 17.0377 16.0913 14.9178L13.7563 12.0697L13.7511 12.0631C13.5752 11.861 13.4046 11.6392 13.2352 11.4305C13.1263 11.2887 13.0108 11.1535 12.8953 11.0118C13.5988 11.1955 14.3089 11.3688 15.0058 11.5342C15.6187 11.6825 16.2553 11.836 16.8801 11.9962L27.4391 14.5975C26.2684 15.8654 25.0911 17.1503 23.9518 18.3933V18.3933ZM20.9002 30.3817C20.9672 29.7359 21.0407 29.0718 21.1011 28.4195C21.1562 27.8958 21.21 27.3616 21.2651 26.851C21.3491 26.032 21.441 25.1842 21.5145 24.3533L21.5316 24.2063C21.5919 23.6761 21.6523 23.1301 21.6891 22.5815C21.7597 22.5416 21.8329 22.5065 21.9082 22.4765C21.9988 22.4345 22.0894 22.3977 22.1799 22.3426C23.5808 21.596 24.9839 20.8536 26.3891 20.1153C27.7909 19.3777 29.2281 18.6138 30.6534 17.8578C29.3601 19.7573 28.0721 21.6604 26.7894 23.5672C25.704 25.171 24.5884 26.8261 23.478 28.4562C23.0423 29.1085 22.5868 29.7727 22.1563 30.4118C21.6707 31.1258 21.1732 31.8569 20.6889 32.5906C20.7493 31.8517 20.8215 31.1075 20.9002 30.3817V30.3817ZM12.4478 12.4634C12.369 12.2416 12.2824 12.0145 12.2102 11.7993C13.8482 13.8048 15.4967 15.8221 17.1045 17.7777C17.9353 18.7923 18.7661 19.8016 19.5969 20.8227C19.761 21.013 19.9251 21.2165 20.0826 21.4133C20.2886 21.6653 20.4947 21.9305 20.7191 22.1825C20.6456 22.8151 20.5853 23.4556 20.5183 24.0698C20.4763 24.5003 20.4343 24.9322 20.3857 25.3692V25.3745C20.3674 25.6501 20.3306 25.9283 20.3004 26.1987L20.1613 27.4233L20.1547 27.4653C20.0458 28.7082 19.9119 29.963 19.7846 31.181C19.7308 31.685 19.6823 32.2021 19.6271 32.7192C19.5969 32.6273 19.5615 32.5342 19.53 32.4475C19.4375 32.1968 19.3487 31.9448 19.2636 31.6915L18.6139 29.8645L12.4464 12.4634" fill="white"/>
</g>
<defs>
<clipPath id="clip0_1097_26629">
<rect width="42" height="42" fill="white"/>
</clipPath>
</defs>
</svg>
