<svg xmlns="http://www.w3.org/2000/svg" width="42" height="42" fill="none"><g clip-path="url(#a)"><path fill="#000" d="M21 42c11.598 0 21-9.402 21-21S32.598 0 21 0 0 9.402 0 21s9.402 21 21 21z"/><path fill="#fff" d="M32.478 16.1c-1.049-.745-2.171-1.54-3.268-2.327-.025-.018-.049-.036-.08-.055a1.47 1.47 0 0 0-.43-.245l-.013-.007c-2.936-.72-5.87-1.444-8.805-2.17l-7.854-1.94-.206-.054c-.237-.067-.51-.142-.8-.105a.553.553 0 0 0-.224.086l-.074.062a.906.906 0 0 0-.206.332l-.018.05v.282l.013.043c1.654 4.706 3.352 9.48 4.99 14.098 1.262 3.557 2.573 7.24 3.851 10.857.079.245.303.407.583.43h.06a.68.68 0 0 0 .607-.338l4.803-7.105c1.17-1.728 2.34-3.462 3.511-5.19l1.438-2.13a486.857 486.857 0 0 1 2.408-3.549l.042-.06v-.075c.018-.215.024-.657-.328-.892v.001zm-5.628 2.589c-1.129.596-2.28 1.211-3.439 1.82l2.027-2.202c.842-.923 1.722-1.877 2.583-2.812l.018-.018c.072-.098.164-.19.261-.289.066-.067.14-.135.206-.215.45.315.903.634 1.34.948.315.227.637.455.965.682a340.198 340.198 0 0 0-3.961 2.086zm-2.898-.296a597.85 597.85 0 0 1-2.657 2.897c-1.73-2.128-3.464-4.252-5.204-6.372l-2.335-2.848-.005-.007c-.176-.202-.346-.424-.516-.632-.109-.142-.224-.277-.34-.42.704.185 1.414.358 2.11.523.614.149 1.25.302 1.875.462l10.56 2.602c-1.172 1.268-2.349 2.553-3.488 3.795zM20.9 30.382c.067-.646.14-1.31.201-1.962.055-.524.109-1.058.164-1.569.084-.819.176-1.667.25-2.497l.017-.148c.06-.53.12-1.076.157-1.624.07-.04.144-.075.22-.105.09-.042.18-.08.27-.134 1.402-.747 2.805-1.49 4.21-2.228 1.402-.737 2.84-1.501 4.264-2.257-1.293 1.9-2.58 3.802-3.864 5.71-1.085 1.603-2.2 3.258-3.311 4.888-.436.653-.891 1.317-1.322 1.956-.485.714-.983 1.445-1.467 2.179.06-.74.133-1.483.211-2.21zm-8.452-17.919c-.079-.221-.166-.448-.238-.664a2352.26 2352.26 0 0 0 4.895 5.979c.83 1.014 1.661 2.024 2.492 3.045.164.19.328.394.486.59.206.253.412.518.636.77-.073.632-.134 1.273-.2 1.887-.043.43-.085.862-.133 1.3v.005c-.019.275-.055.553-.086.824l-.139 1.224-.006.042c-.11 1.243-.243 2.498-.37 3.716-.054.504-.103 1.021-.158 1.538-.03-.092-.066-.185-.097-.271a26.078 26.078 0 0 1-.266-.756l-.65-1.827-6.168-17.401"/></g><defs><clipPath id="a"><path fill="#fff" d="M0 0h42v42H0z"/></clipPath></defs></svg>