<svg xmlns="http://www.w3.org/2000/svg" width="42" height="42" fill="none"><circle cx="21" cy="21" r="21" fill="#06061B"/><path fill="#fff" d="m21.12 15.045 2.73-3.338a26.055 26.055 0 0 1 9.504 2.333l-.162-.067a8.328 8.328 0 0 1-3.507 2.67l-.056.02c-.161-1.588-1.273-1.975-4.801-1.975l-3.707 20.92-3.728-20.925c-3.507 0-4.619.391-4.78 1.978a8.31 8.31 0 0 1-3.547-2.658l-.014-.02c2.736-1.266 5.92-2.083 9.273-2.269l.067-.003 2.73 3.334h-.002zm0-4.303c.118-.002.257-.002.396-.002a30.2 30.2 0 0 1 12.29 2.595l-.194-.076c.261-.435.51-.941.717-1.468l.024-.07c-3.916-1.614-8.459-2.563-13.222-2.59h-.01a35.962 35.962 0 0 0-13.474 2.678l.24-.087c.247.613.495 1.12.775 1.609l-.034-.064c3.57-1.598 7.738-2.528 12.124-2.528l.388.002h-.02v.001z"/></svg>