<svg xmlns="http://www.w3.org/2000/svg" width="42" height="42" fill="none"><circle cx="21" cy="21" r="21" fill="#FF4A4A"/><g fill="#fff" clip-path="url(#a)"><path d="M25.492 25.4h-1.487a.514.514 0 0 1-.51-.522v-4.006l-2.6 1.664a.659.659 0 0 1-.717 0l-2.587-1.664v4.006c0 .282-.22.522-.51.522h-1.473a.514.514 0 0 1-.509-.522v-7.73c0-.381.303-.692.675-.692.137 0 .261.043.371.127l4.102 2.892c.165.127.4.127.565 0l4.101-2.892a.67.67 0 0 1 .936.184c.083.113.11.254.124.38v7.731a.492.492 0 0 1-.481.522zm-12.609-.014H3.661a.684.684 0 0 1-.675-.691v-7.773c.014-.296.234-.522.523-.522h1.487c.275 0 .51.226.51.522v5.91h5.588v-5.91c0-.282.22-.522.509-.522h1.445c.276 0 .51.226.51.522v7.773c0 .38-.303.69-.675.69zM28.217 16.4h9.222c.372 0 .675.31.675.691v7.773c0 .282-.22.522-.496.522h-1.486a.514.514 0 0 1-.51-.522v-5.572a.34.34 0 0 0-.33-.339h-4.914a.34.34 0 0 0-.33.339v5.572c0 .282-.22.522-.51.522h-1.486a.514.514 0 0 1-.51-.522v-7.773c0-.38.303-.691.675-.691z"/><path d="M32.085 20.59h1.473c.275 0 .51.225.51.522v1.537a.515.515 0 0 1-.51.522h-1.473a.514.514 0 0 1-.51-.522v-1.552c0-.282.235-.507.51-.507z"/></g><defs><clipPath id="a"><path fill="#fff" d="M3 16.4h35.1v9H3z"/></clipPath></defs></svg>