<svg xmlns="http://www.w3.org/2000/svg" xmlns:xlink="http://www.w3.org/1999/xlink" width="42" height="42" fill="none"><circle cx="21" cy="21" r="21" fill="url(#a)"/><mask id="b" width="38" height="38" x="2" y="2" maskUnits="userSpaceOnUse" style="mask-type:alpha"><circle cx="21" cy="21" r="18.9" fill="#fff"/></mask><g mask="url(#b)"><path fill="url(#c)" fill-opacity=".5" d="M66.979 7.704h78.68v44.24h-78.68z" transform="rotate(135 66.979 7.704)"/><circle cx="21" cy="21" r="18.9" fill="#fff" opacity=".5"/><path fill="#FF007A" d="M16.604 10.601c-.326-.05-.34-.056-.186-.08.293-.045.986.017 1.464.13 1.115.266 2.13.945 3.213 2.15l.288.321.412-.066c1.734-.279 3.499-.057 4.974.625.407.187 1.047.56 1.127.656.025.031.072.228.103.438.11.726.055 1.283-.167 1.7-.12.226-.128.297-.047.491a.476.476 0 0 0 .426.269c.366 0 .761-.593.944-1.418l.073-.328.144.163c.789.895 1.41 2.114 1.516 2.982l.027.227-.132-.206c-.229-.354-.458-.595-.752-.79-.53-.35-1.09-.47-2.573-.547-1.34-.071-2.098-.185-2.85-.43-1.278-.418-1.923-.973-3.443-2.966-.674-.886-1.091-1.376-1.506-1.77-.943-.896-1.87-1.367-3.055-1.55z"/><path fill="#FF007A" d="M28.198 12.579c.033-.594.114-.985.276-1.343.064-.141.124-.257.133-.257.01 0-.019.105-.062.232-.118.347-.137.822-.056 1.373.103.7.162.802.902 1.558.347.355.75.803.897.995l.266.35-.266-.25c-.325-.306-1.074-.901-1.24-.986-.11-.057-.127-.056-.195.011-.063.063-.076.157-.085.603-.014.695-.108 1.14-.337 1.586-.123.241-.143.19-.031-.082.083-.204.092-.293.091-.965-.001-1.351-.162-1.676-1.102-2.232-.238-.141-.63-.344-.872-.452-.242-.107-.434-.2-.427-.208.027-.026.944.241 1.313.383.55.212.64.239.707.213.044-.017.066-.147.088-.53zM17.236 14.89c-.661-.91-1.07-2.306-.981-3.349l.027-.322.15.027c.283.052.77.233.998.372.626.38.897.88 1.173 2.165.08.377.186.803.235.947.079.232.375.774.616 1.127.174.253.059.373-.325.339-.587-.053-1.38-.601-1.893-1.307zm10.16 6.771c-3.088-1.243-4.176-2.323-4.176-4.144 0-.268.009-.488.02-.488.011 0 .13.089.266.197.626.503 1.327.717 3.269 1 1.142.167 1.785.302 2.379.498 1.885.625 3.05 1.894 3.33 3.622.08.503.033 1.444-.099 1.94-.103.392-.419 1.099-.502 1.126-.023.008-.046-.081-.052-.203-.032-.648-.36-1.28-.91-1.753-.627-.538-1.468-.967-3.525-1.795zm-2.168.517a5.509 5.509 0 0 0-.15-.654L25 21.29l.146.165c.203.227.363.518.498.905.104.296.116.384.115.865 0 .472-.014.57-.11.837-.15.42-.337.717-.651 1.037-.564.574-1.29.892-2.337 1.024-.181.023-.712.061-1.178.085-1.175.062-1.948.188-2.643.432-.1.035-.19.056-.198.047-.029-.028.445-.31.835-.498.551-.265 1.1-.41 2.329-.615.607-.101 1.234-.224 1.393-.273 1.503-.46 2.276-1.65 2.029-3.122z"/><path fill="#FF007A" d="M26.643 24.692c-.41-.882-.504-1.734-.28-2.528.025-.085.064-.155.087-.155.023 0 .12.053.215.117.189.127.568.342 1.579.892 1.26.688 1.98 1.22 2.468 1.828.428.533.693 1.14.82 1.88.073.418.03 1.426-.077 1.848-.339 1.33-1.127 2.376-2.25 2.985a2.92 2.92 0 0 1-.329.163c-.016 0 .044-.152.133-.339.379-.79.422-1.559.136-2.414-.175-.524-.532-1.163-1.252-2.244-.838-1.256-1.043-1.59-1.25-2.033zm-11.6 4.76c1.146-.968 2.572-1.655 3.87-1.867.56-.09 1.493-.054 2.012.078.83.213 1.574.69 1.96 1.257.378.554.54 1.038.71 2.113.066.424.138.85.16.947.127.557.373 1.003.68 1.226.485.356 1.32.378 2.143.057.14-.054.26-.092.269-.084.03.03-.384.307-.676.453a2.3 2.3 0 0 1-1.121.272c-.753 0-1.379-.383-1.9-1.164-.103-.154-.334-.614-.513-1.023-.55-1.257-.823-1.64-1.462-2.058-.557-.364-1.275-.43-1.815-.165-.71.348-.907 1.254-.399 1.829.202.228.578.425.886.463a.946.946 0 0 0 1.071-.948c0-.378-.145-.593-.51-.758-.5-.225-1.036.038-1.033.507.001.2.088.325.288.416.13.058.132.063.027.041-.458-.095-.565-.647-.197-1.013.442-.44 1.356-.246 1.67.354.132.252.147.755.032 1.058-.257.679-1.007 1.036-1.768.842-.518-.132-.73-.276-1.354-.92-1.085-1.117-1.507-1.334-3.072-1.578l-.3-.047.341-.288z"/><path fill="#FF007A" fill-rule="evenodd" d="M9.914 8.789c3.625 4.4 6.157 6.865 6.435 7.249.229.316.142.6-.25.824-.218.124-.667.25-.892.25-.254 0-.54-.122-.748-.32-.148-.14-.742-1.028-2.115-3.158a226.67 226.67 0 0 0-1.954-3.005c-.055-.052-.054-.05 1.847 3.35 1.193 2.136 1.596 2.891 1.596 2.992 0 .206-.056.314-.31.596-.422.471-.61 1-.747 2.097-.153 1.228-.582 2.095-1.773 3.58-.697.87-.81 1.029-.987 1.38-.221.44-.282.688-.307 1.245-.026.589.025.97.205 1.532.157.493.322.819.742 1.47.363.562.572.98.572 1.143 0 .13.025.13.587.003 1.345-.304 2.438-.838 3.052-1.493.38-.405.47-.629.473-1.184.002-.364-.011-.44-.11-.649-.16-.34-.45-.623-1.092-1.061-.84-.575-1.2-1.037-1.298-1.673-.082-.522.013-.89.478-1.865.481-1.009.6-1.439.68-2.455.053-.657.125-.916.314-1.124.197-.217.374-.29.861-.357.794-.108 1.3-.314 1.716-.697.36-.332.511-.652.534-1.134l.018-.366-.202-.234c-.73-.851-7.814-7.605-7.859-7.605-.01 0 .23.301.534.669zm1.724 17.746a.646.646 0 0 0-.199-.851c-.26-.174-.666-.092-.666.134 0 .069.038.12.124.163.145.075.155.159.041.33-.115.173-.106.325.027.429.213.167.515.075.673-.205zm6.304-8.187c-.373.114-.735.51-.848.924-.068.253-.03.696.073.833.166.22.326.28.76.276.849-.006 1.587-.37 1.673-.825.07-.373-.254-.89-.7-1.117-.231-.117-.721-.164-.958-.091zm.992.776c.131-.186.074-.387-.149-.523-.424-.26-1.065-.045-1.065.356 0 .2.334.417.64.417.205 0 .484-.122.574-.25z" clip-rule="evenodd"/></g><defs><linearGradient id="a" x1="7.42" x2="36.12" y1="4.2" y2="37.52" gradientUnits="userSpaceOnUse"><stop stop-color="#F8EEF4"/><stop offset="1" stop-color="#FBCCE2"/></linearGradient><pattern id="c" width="1" height="1" patternContentUnits="objectBoundingBox"><use xlink:href="#d" transform="scale(.00083 .00148)"/></pattern></defs></svg>