<svg width="42" height="42" fill="none" xmlns="http://www.w3.org/2000/svg">
  <circle cx="21" cy="21" r="21" fill="#06061B"/>
  <path fill="#fff" d="M20.297 30.478a8.6 8.6 0 0 1-2.575-.603 7.2 7.2 0 0 1-2.081-1.342 6.4 6.4 0 0 1-1.397-1.89 5.5 5.5 0 0 1-.548-2.329h3.369q.055 1.342.931 2.247.905.876 2.301 1.013v-5.423l-1.287-.192q-2.22-.301-3.534-1.671-1.287-1.37-1.287-3.479 0-1.095.493-2.054a5.6 5.6 0 0 1 1.342-1.726 6.9 6.9 0 0 1 1.945-1.232 7.9 7.9 0 0 1 2.328-.575V8.674h2v2.602q1.233.165 2.273.658a6.3 6.3 0 0 1 1.808 1.205 5.5 5.5 0 0 1 1.205 1.698q.465.96.52 2.055h-3.369a2.58 2.58 0 0 0-.74-1.699q-.656-.739-1.697-1.013v5.012l.931.137q1.04.165 1.972.575t1.616 1.069q.712.657 1.096 1.588.41.904.41 2.055 0 1.232-.465 2.246a5.4 5.4 0 0 1-1.26 1.753 6.8 6.8 0 0 1-1.917 1.233q-1.095.464-2.383.602v2.822h-2zm2-2.931q1.287-.22 2-.932.711-.739.711-1.862 0-1.04-.684-1.534a3.65 3.65 0 0 0-1.562-.685l-.465-.082zm-2-13.45q-1.15.165-1.972.85-.795.657-.794 1.78 0 .96.52 1.452.548.465 1.424.603l.822.136v-4.82z"/>
</svg>
