<svg xmlns="http://www.w3.org/2000/svg" width="42" height="42" fill="none"><circle cx="21" cy="21" r="21" fill="#06061B"/><path fill="#fff" d="M20.297 30.478a8.562 8.562 0 0 1-2.575-.603 7.16 7.16 0 0 1-2.081-1.342 6.436 6.436 0 0 1-1.397-1.89 5.526 5.526 0 0 1-.548-2.329h3.369c.037.895.347 1.644.931 2.247.603.584 1.37.922 2.301 1.013v-5.423l-1.287-.192c-1.48-.201-2.657-.758-3.534-1.671-.858-.913-1.287-2.073-1.287-3.479 0-.73.164-1.415.493-2.054a5.58 5.58 0 0 1 1.342-1.726 6.905 6.905 0 0 1 1.945-1.232 7.913 7.913 0 0 1 2.328-.575V8.674h2v2.602c.821.11 1.58.329 2.273.658a6.26 6.26 0 0 1 1.808 1.205 5.54 5.54 0 0 1 1.205 1.698c.31.64.484 1.324.52 2.055h-3.369a2.583 2.583 0 0 0-.74-1.699c-.437-.493-1.003-.83-1.697-1.013v5.012l.931.137c.694.11 1.351.302 1.972.575.621.274 1.16.63 1.616 1.069.475.438.84.968 1.096 1.588.274.603.41 1.288.41 2.055 0 .822-.154 1.57-.465 2.246a5.36 5.36 0 0 1-1.26 1.753 6.787 6.787 0 0 1-1.917 1.233c-.73.31-1.525.51-2.383.602v2.822h-2v-2.794zm2-2.931c.858-.146 1.524-.457 2-.932.474-.493.711-1.113.711-1.862 0-.694-.228-1.205-.684-1.534a3.654 3.654 0 0 0-1.562-.685l-.465-.082v5.095zm-2-13.45c-.767.11-1.424.393-1.972.85-.53.438-.794 1.031-.794 1.78 0 .64.173 1.123.52 1.452.365.31.84.511 1.424.603l.822.136v-4.82z"/></svg>