<svg xmlns="http://www.w3.org/2000/svg" width="42" height="42" fill="none"><g clip-path="url(#a)"><path fill="#50AF95" d="M21 0c11.599 0 21 9.403 21 21 0 11.599-9.401 21-21 21C9.403 42 0 32.598 0 21 0 9.403 9.403 0 21 0z"/><path fill="#fff" fill-rule="evenodd" d="M23.657 23.377c-.148.011-.915.057-2.627.057-1.36 0-2.327-.04-2.666-.057-5.26-.231-9.186-1.147-9.186-2.243 0-1.096 3.926-2.01 9.186-2.246v3.577c.344.025 1.329.083 2.69.083 1.633 0 2.451-.068 2.598-.082V18.89c5.25.234 9.167 1.15 9.167 2.244 0 1.094-3.917 2.01-9.167 2.242l.005.001zm0-4.857v-3.2h7.326v-4.882H11.039v4.881h7.324v3.2c-5.953.274-10.43 1.453-10.43 2.866s4.477 2.591 10.43 2.866v10.257h5.293V24.247c5.94-.273 10.409-1.451 10.409-2.863s-4.466-2.59-10.409-2.865l.001.002z" clip-rule="evenodd"/></g><defs><clipPath id="a"><path fill="#fff" d="M0 0h42v42H0z"/></clipPath></defs></svg>