<svg width="42" height="43" fill="none" viewBox="0 0 42 43" xmlns="http://www.w3.org/2000/svg">
  <path fill="#fff" d="M21 42.056c11.598 0 21-9.402 21-21s-9.402-21-21-21-21 9.402-21 21 9.402 21 21 21"/>
  <path fill="#000" d="M31.623 28.153a6.2 6.2 0 0 1-5.374 3.11H22.66V19.16l-5.18 8.996a6.2 6.2 0 0 1-5.373 3.11H8.543v-17.86h7.17v12.071l6.947-12.066v-.006h7.167v12.122l7.529-13.082a1.65 1.65 0 0 0-.03-1.707c-3.473-5.484-9.63-9.1-16.625-8.995-10.666.166-19.07 8.751-19.014 19.418.055 10.62 8.683 19.21 19.313 19.21s19.313-8.646 19.313-19.312c0-1.719-.227-3.384-.65-4.973a.556.556 0 0 0-1.018-.14L31.62 28.15z"/>
</svg>
