<svg width="42" height="42" fill="none" viewBox="0 0 42 42" xmlns="http://www.w3.org/2000/svg">
  <g clip-path="url(#a)">
    <path fill="#FEFEFE" d="M0 0h42v42H0z"/>
    <path fill="#000" d="M19.083 2.972q.081-.004.162-.005c2.831-.041 6.09.647 8.497 2.193 1.616 1.038 3.044 2.423 4.44 3.734.627.588 1.298 1.128 1.914 1.729a16.42 16.42 0 0 1 4.936 11.564 16.4 16.4 0 0 1-4.705 11.733 16.56 16.56 0 0 1-9.41 4.793c-.904.13-1.816.143-2.726.182a117 117 0 0 1-4.716.129c-3.556.063-9.561.344-12.63-1.71-.464-.311-.935-.752-1.04-1.327-.067-.368.05-.722.265-1.021.989-1.37 3.618-1.925 5.23-2.182a7 7 0 0 1-.218-.194c-1.683-1.565-4.639-6.016-5.368-8.116-.458-1.315-.68-2.981-.73-4.376A16.36 16.36 0 0 1 7.432 8.182c3.034-3.255 7.231-5.053 11.65-5.21"/>
    <path fill="#FEFEFE" d="M21.552 7.401c8.276-.553 15.434 5.706 15.99 13.981.555 8.276-5.703 15.435-13.978 15.993-8.278.557-15.44-5.703-15.996-13.981-.555-8.278 5.706-15.439 13.984-15.993"/>
    <path fill="#000" d="m13.246 19.44 1.444.007c.293 1.162.755 2.326 1.135 3.466.347-1.15.745-2.306 1.034-3.471.554.055 1.159.049 1.714.013l-.677 2.082c-.176.41-.295.875-.436 1.3l-.875 2.666q-.73-.015-1.457-.007c-.084-.38-.246-.77-.376-1.136-.272-.771-.564-1.539-.811-2.318-.324 1.167-.816 2.301-1.18 3.459q-.727-.015-1.453 0c-.409-1.407-.917-2.799-1.38-4.19-.196-.593-.468-1.237-.571-1.853.56.052 1.163.01 1.726.011.294 1.164.704 2.298 1.01 3.46.402-1.142.84-2.322 1.152-3.49m17.282.019 1.65.016q-.005 1.113.014 2.226h2.1l.004-2.24 1.644.012c.057 1.99-.042 3.987.019 5.977q-.83.017-1.663.003l-.005-2.271c-.703-.009-1.406-.003-2.109-.002-.014.755.001 1.513.004 2.269q-.83.017-1.659.005a315 315 0 0 1 .001-5.995m-11.287.001c1.543.077 3.217-.01 4.784.018v1.4l-3.15.004v.894l2.841.006v1.306H21.2c-.07 0-.22-.008-.269.043-.143.15-.062.7-.057.902l3.186.006q.006.705.002 1.41c-1.607.023-3.218.007-4.825.009zm5.336-.008c.602.046 1.228.014 1.833.013l3.39.008c-.004.481-.016.964.007 1.444l-1.794.005v2.724l-.003 1.797c-.546.032-1.097.004-1.644.019-.016-1.513-.001-3.028 0-4.542l-1.794-.005q-.003-.732.005-1.463"/>
    <path fill="#ED1C79" d="M19.025 4.448q.186-.009.372-.012a14.9 14.9 0 0 1 6.705 1.428c.424.2.95.427 1.289.757-2.471-.661-4.598-.92-7.151-.563-4.417.619-8.294 3.021-10.965 6.562-1.077 1.461-1.816 3.01-2.422 4.716-.668-.37-1.376-.685-2.061-1.025.755-2.742 1.667-4.822 3.605-6.943 2.769-3.031 6.54-4.736 10.628-4.92M4.523 18.073c.342.27 1.432.76 1.866.925-.094.595-.2 1.193-.255 1.794l-.03.103c-.203.04-1.358-.546-1.633-.67-.007-.72-.017-1.436.052-2.152m2.214 8.941c-.554-.994-1.266-2.03-1.613-3.116-.085-.265-.417-1.562-.347-1.696l.083.043c.389.176.785.376 1.187.516.088 1.165.207 2.285.443 3.43q.12.414.247.823"/>
  </g>
  <defs>
    <clipPath id="a">
      <rect width="42" height="42" fill="#fff" rx="21"/>
    </clipPath>
  </defs>
</svg>
