<svg xmlns="http://www.w3.org/2000/svg" width="42" height="42" fill="none"><circle cx="21" cy="21" r="21" fill="#fff"/><path fill="#1E1E1C" d="M40.494 13.2a21.255 21.255 0 0 0-2.1-3.96C34.618 3.663 28.223 0 20.99 0 9.389 0 0 9.408 0 20.99 0 32.593 9.408 42 20.99 42c7.252 0 13.629-3.663 17.403-9.24a21.62 21.62 0 0 0 2.101-3.942A21.004 21.004 0 0 0 42 21.01a21.382 21.382 0 0 0-1.506-7.809zm-2.807 5.671h-24.04a7.631 7.631 0 0 1 1.99-3.365 7.784 7.784 0 0 1 5.521-2.287H35.92a16.598 16.598 0 0 1 1.767 5.652zm-16.808-14.8c4.778 0 9.11 1.99 12.197 5.188H21.679c-3.254 0-6.192 1.32-8.311 3.44a11.572 11.572 0 0 0-3.235 6.172H4.09c1.041-8.348 8.162-14.8 16.79-14.8zm0 33.894c-8.627 0-15.748-6.451-16.807-14.799h6.042c1.004 5.466 5.801 9.612 11.565 9.612h11.397a16.85 16.85 0 0 1-12.197 5.188zm.279-9.128a7.813 7.813 0 0 1-7.511-5.671h24.04a17.257 17.257 0 0 1-1.767 5.67H21.158z"/></svg>