<svg width="49" height="43" viewBox="0 0 49 43" fill="none" xmlns="http://www.w3.org/2000/svg">
<path d="M24.3607 42.2C37.5216 42.2 48.1906 32.7532 48.1906 21.1C48.1906 9.44679 37.5216 0 24.3607 0C11.1998 0 0.530762 9.44679 0.530762 21.1C0.530762 32.7532 11.1998 42.2 24.3607 42.2Z" fill="#0E052F"/>
<g style="mix-blend-mode:multiply" opacity="0.4">
<g style="mix-blend-mode:multiply" opacity="0.4">
<path d="M7.1996 18.3587L5.6145 23.1285L15.1849 28.1784L14.7413 22.0619L7.1996 18.3587Z" fill="#B1BFBF"/>
</g>
<g style="mix-blend-mode:multiply" opacity="0.4">
<path d="M23.0429 10.3342L30.3944 14.0933L14.7413 22.0619L7.19958 18.3587L23.0429 10.3342Z" fill="#B1BFBF"/>
</g>
<g style="mix-blend-mode:multiply" opacity="0.4">
<path d="M32.2959 19.2L30.3944 14.0933L14.7413 22.0619L15.1849 28.1784L32.2959 19.2Z" fill="#B1BFBF"/>
</g>
<g style="mix-blend-mode:multiply" opacity="0.4">
<path d="M12.3517 15.749V20.8885L13.6671 21.5344H14.1194V14.8537L12.3517 15.749Z" fill="#B1BFBF"/>
</g>
<g style="mix-blend-mode:multiply" opacity="0.4">
<path d="M26.2295 16.2139L27.2845 15.6768V12.503L26.2295 11.9639V16.2139Z" fill="#B1BFBF"/>
</g>
<g style="mix-blend-mode:multiply" opacity="0.4">
<path d="M15.3143 21.7702L17.4256 20.6959V13.1797L15.3143 14.2483V21.7702Z" fill="#B1BFBF"/>
</g>
<g style="mix-blend-mode:multiply" opacity="0.4">
<path d="M15.1849 28.1784L14.7413 22.0619L7.19958 18.3587" stroke="#B1BFBF" stroke-width="0.25" stroke-miterlimit="10" stroke-linecap="round"/>
</g>
<g style="mix-blend-mode:multiply" opacity="0.4">
<path d="M14.7087 22.1139C13.0584 21.2687 8.76729 19.1673 7.19958 18.3596C8.78468 19.0989 13.1095 21.2292 14.7728 22.0118C14.7883 22.0194 14.7997 22.032 14.8046 22.047C14.8095 22.062 14.8074 22.0781 14.7989 22.0917C14.7904 22.1054 14.7761 22.1155 14.7592 22.1198C14.7423 22.1242 14.7241 22.1224 14.7087 22.1149V22.1139Z" fill="#B1BFBF"/>
</g>
<g style="mix-blend-mode:multiply" opacity="0.4">
<path d="M30.3955 14.0942C30.389 14.0596 14.5989 22.2881 14.8153 22.0581L15.1849 28.1784L14.6663 22.0667V22.0253C14.6957 22.0051 30.364 14.1154 30.3988 14.0942H30.3955Z" fill="#B1BFBF"/>
</g>
</g>
<path d="M7.1996 17.7811L5.6145 22.5509L15.1849 27.6009L14.7413 21.4843L7.1996 17.7811Z" fill="#B1BFBF"/>
<path d="M23.0429 9.75663L30.3944 13.5167L14.7413 21.4843L7.19958 17.7811L23.0429 9.75663Z" fill="#CAD8D9"/>
<path d="M32.2959 18.6224L30.3944 13.5167L14.7413 21.4843L15.1849 27.6009L32.2959 18.6224Z" fill="#C4D3D6"/>
<path d="M12.3517 15.1714V20.3109L13.6671 20.9568H14.1194V14.2762L12.3517 15.1714Z" fill="#E3ECE9"/>
<path d="M26.2295 15.6364L27.2845 15.0992V11.9254L26.2295 11.3864V15.6364Z" fill="#E3ECE9"/>
<path d="M15.3143 21.1927L17.4256 20.1184V12.6022L15.3143 13.6707V21.1927Z" fill="#E3ECE9"/>
<path d="M15.1849 27.6009L14.7413 21.4843L7.19958 17.7811" stroke="white" stroke-width="0.25" stroke-miterlimit="10" stroke-linecap="round"/>
<path d="M14.7087 21.5363C13.0584 20.6911 8.76729 18.5897 7.19958 17.7821C8.78468 18.5214 13.1095 20.6517 14.7728 21.4343C14.7883 21.4418 14.7997 21.4544 14.8046 21.4694C14.8095 21.4844 14.8074 21.5005 14.7989 21.5142C14.7904 21.5278 14.7761 21.5379 14.7592 21.5423C14.7423 21.5466 14.7241 21.5448 14.7087 21.5373V21.5363Z" fill="white"/>
<path d="M30.3955 13.5167C30.389 13.482 14.5989 21.7105 14.8153 21.4805L15.1849 27.6009L14.6663 21.4891V21.4477C14.6957 21.4275 30.364 13.5378 30.3988 13.5167H30.3955Z" fill="white"/>
<g style="mix-blend-mode:multiply" opacity="0.4">
<g style="mix-blend-mode:multiply" opacity="0.4">
<path d="M17.9539 24.3607L16.3699 29.1305L25.9403 34.1804L25.4957 28.0639L17.9539 24.3607Z" fill="#B1BFBF"/>
</g>
<g style="mix-blend-mode:multiply" opacity="0.4">
<path d="M33.7984 16.3362L41.1498 20.0953L25.4956 28.0639L17.9539 24.3607L33.7984 16.3362Z" fill="#B1BFBF"/>
</g>
<g style="mix-blend-mode:multiply" opacity="0.4">
<path d="M43.0513 25.202L41.1499 20.0953L25.4957 28.0639L25.9403 34.1804L43.0513 25.202Z" fill="#B1BFBF"/>
</g>
<g style="mix-blend-mode:multiply" opacity="0.4">
<path d="M23.1071 21.751V26.8904L24.4226 27.5364H24.8737V20.8557L23.1071 21.751Z" fill="#B1BFBF"/>
</g>
<g style="mix-blend-mode:multiply" opacity="0.4">
<path d="M36.9849 22.2159L38.04 21.6788V18.505L36.9849 17.965V22.2159Z" fill="#B1BFBF"/>
</g>
<g style="mix-blend-mode:multiply" opacity="0.4">
<path d="M26.0697 27.7722L28.1799 26.6979V19.1808L26.0697 20.2502V27.7722Z" fill="#B1BFBF"/>
</g>
<g style="mix-blend-mode:multiply" opacity="0.4">
<path d="M25.9403 34.1804L25.4956 28.0639L17.9539 24.3607" stroke="#B1BFBF" stroke-width="0.25" stroke-miterlimit="10" stroke-linecap="round"/>
</g>
<g style="mix-blend-mode:multiply" opacity="0.4">
<path d="M25.4641 28.1159C23.8138 27.2707 19.5227 25.1693 17.9539 24.3616C19.539 25.1009 23.8649 27.2312 25.5282 28.0129C25.5416 28.0214 25.551 28.0339 25.5546 28.0481C25.5583 28.0623 25.556 28.0772 25.5481 28.09C25.5402 28.1027 25.5273 28.1125 25.5118 28.1175C25.4964 28.1224 25.4794 28.1222 25.4641 28.1168V28.1159Z" fill="#B1BFBF"/>
</g>
<g style="mix-blend-mode:multiply" opacity="0.4">
<path d="M41.1499 20.0953C41.1444 20.0606 25.3543 28.2892 25.5707 28.06L25.9392 34.1804L25.4218 28.0677V28.0273C25.4511 28.0071 41.1183 20.1174 41.1531 20.0953H41.1499Z" fill="#B1BFBF"/>
</g>
</g>
<path d="M17.9539 23.7831L16.3699 28.5529L25.9403 33.6029L25.4957 27.4863L17.9539 23.7831Z" fill="#B1BFBF"/>
<path d="M33.7984 15.7586L41.1498 19.5177L25.4956 27.4863L17.9539 23.7831L33.7984 15.7586Z" fill="#CAD8D9"/>
<path d="M43.0513 24.6244L41.1498 19.5177L25.4956 27.4863L25.9403 33.6029L43.0513 24.6244Z" fill="#C4D3D6"/>
<path d="M23.1071 21.1734V26.3129L24.4226 26.9588H24.8737V20.2782L23.1071 21.1734Z" fill="#E3ECE9"/>
<path d="M36.9849 21.6383L38.0399 21.1012V17.9274L36.9849 17.3874V21.6383Z" fill="#E3ECE9"/>
<path d="M26.0696 27.1946L28.1798 26.1203V18.6032L26.0696 19.6727V27.1946Z" fill="#E3ECE9"/>
<path d="M25.9403 33.6029L25.4956 27.4863L17.9539 23.7831" stroke="white" stroke-width="0.25" stroke-miterlimit="10" stroke-linecap="round"/>
<path d="M25.4641 27.5383C23.8138 26.6931 19.5227 24.5917 17.9539 23.784C19.539 24.5233 23.8649 26.6536 25.5282 27.4353C25.5416 27.4438 25.551 27.4563 25.5546 27.4705C25.5583 27.4847 25.556 27.4996 25.5481 27.5124C25.5402 27.5252 25.5273 27.535 25.5118 27.5399C25.4964 27.5449 25.4794 27.5446 25.4641 27.5393V27.5383Z" fill="white"/>
<path d="M41.1498 19.5177C41.1444 19.483 25.3543 27.7116 25.5706 27.4825L25.9392 33.6029L25.4217 27.4902V27.4497C25.451 27.4295 41.1183 19.5398 41.1531 19.5177H41.1498Z" fill="white"/>
<g style="mix-blend-mode:multiply" opacity="0.4">
<g style="mix-blend-mode:multiply" opacity="0.4">
<path d="M12.8236 16.7617L11.2385 21.5315L20.8088 26.5814L20.3653 20.4649L12.8236 16.7617Z" fill="#B1BFBF"/>
</g>
<g style="mix-blend-mode:multiply" opacity="0.4">
<path d="M28.668 8.73624L36.0195 12.4963L20.3653 20.4649L12.8235 16.7617L28.668 8.73624Z" fill="#B1BFBF"/>
</g>
<g style="mix-blend-mode:multiply" opacity="0.4">
<path d="M37.921 17.603L36.0195 12.4963L20.3653 20.4649L20.8089 26.5814L37.921 17.603Z" fill="#B1BFBF"/>
</g>
<g style="mix-blend-mode:multiply" opacity="0.4">
<path d="M17.9756 14.152V19.2915L19.2911 19.9374H19.7433V13.2567L17.9756 14.152Z" fill="#B1BFBF"/>
</g>
<g style="mix-blend-mode:multiply" opacity="0.4">
<path d="M31.8545 14.6169L32.9084 14.0798V10.906L31.8545 10.366V14.6169Z" fill="#B1BFBF"/>
</g>
<g style="mix-blend-mode:multiply" opacity="0.4">
<path d="M20.9393 20.1732L23.0495 19.0989V11.5818L20.9393 12.6513V20.1732Z" fill="#B1BFBF"/>
</g>
<g style="mix-blend-mode:multiply" opacity="0.4">
<path d="M20.8088 26.5814L20.3653 20.4649L12.8235 16.7617" stroke="#B1BFBF" stroke-width="0.25" stroke-miterlimit="10" stroke-linecap="round"/>
</g>
<g style="mix-blend-mode:multiply" opacity="0.4">
<path d="M20.3315 20.5169C18.6812 19.6707 14.3902 17.5703 12.8224 16.7626C14.4075 17.5019 18.7323 19.6322 20.3968 20.4139C20.4108 20.4222 20.4207 20.4349 20.4247 20.4495C20.4286 20.464 20.4263 20.4793 20.4181 20.4924C20.4099 20.5054 20.3964 20.5153 20.3804 20.52C20.3644 20.5247 20.3469 20.524 20.3315 20.5178V20.5169Z" fill="#B1BFBF"/>
</g>
<g style="mix-blend-mode:multiply" opacity="0.4">
<path d="M36.0194 12.4963C36.0129 12.4616 20.2228 20.6902 20.4403 20.4611L20.8099 26.5814L20.2924 20.4688V20.4283C20.3218 20.4081 35.9901 12.5174 36.0249 12.4963H36.0194Z" fill="#B1BFBF"/>
</g>
</g>
<path d="M12.8236 16.1841L11.2385 20.9539L20.8088 26.0039L20.3653 19.8873L12.8236 16.1841Z" fill="#B1BFBF"/>
<path d="M28.668 8.15867L36.0194 11.9187L20.3653 19.8873L12.8235 16.1841L28.668 8.15867Z" fill="#CAD8D9"/>
<path d="M37.9209 17.0254L36.0194 11.9187L20.3652 19.8873L20.8088 26.0039L37.9209 17.0254Z" fill="#C4D3D6"/>
<path d="M17.9756 13.5744V18.7139L19.2911 19.3598H19.7433V12.6792L17.9756 13.5744Z" fill="#E3ECE9"/>
<path d="M31.8545 14.0394L32.9085 13.5022V10.3284L31.8545 9.7884V14.0394Z" fill="#E3ECE9"/>
<path d="M20.9393 19.5957L23.0495 18.5214V11.0042L20.9393 12.0737V19.5957Z" fill="#E3ECE9"/>
<path d="M20.8088 26.0039L20.3653 19.8873L12.8235 16.1841" stroke="white" stroke-width="0.25" stroke-miterlimit="10" stroke-linecap="round"/>
<path d="M20.3315 19.9393C18.6812 19.0932 14.3902 16.9927 12.8224 16.1851C14.4075 16.9244 18.7323 19.0547 20.3968 19.8363C20.4108 19.8447 20.4207 19.8574 20.4247 19.8719C20.4286 19.8864 20.4263 19.9017 20.4181 19.9148C20.4099 19.9279 20.3964 19.9377 20.3804 19.9425C20.3644 19.9472 20.3469 19.9464 20.3315 19.9403V19.9393Z" fill="white"/>
<path d="M36.0194 11.9187C36.0129 11.884 20.2228 20.1126 20.4403 19.8835L20.8099 26.0039L20.2924 19.8912V19.8507C20.3218 19.8305 35.9901 11.9399 36.0249 11.9187H36.0194Z" fill="white"/>
</svg>
