<svg xmlns="http://www.w3.org/2000/svg" width="43" height="42" fill="none"><path fill="#06061B" d="M21.247 42c11.598 0 21-9.402 21-21s-9.402-21-21-21-21 9.402-21 21 9.402 21 21 21z"/><g opacity=".4" style="mix-blend-mode:multiply"><path fill="#B1BFBF" d="m6.124 18.272-1.397 4.747 8.434 5.026-.39-6.088-6.647-3.685z" opacity=".4" style="mix-blend-mode:multiply"/><path fill="#B1BFBF" d="m20.086 10.285 6.479 3.742-13.795 7.93-6.646-3.685 13.962-7.987z" opacity=".4" style="mix-blend-mode:multiply"/><path fill="#B1BFBF" d="m28.24 19.109-1.675-5.083-13.795 7.931.391 6.088 15.08-8.936zm-17.576-3.435v5.116l1.16.642h.398v-6.649l-1.558.891z" opacity=".4" style="mix-blend-mode:multiply"/><path fill="#B1BFBF" d="m22.894 16.137.93-.535v-3.158l-.93-.537v4.23zm-9.619 5.53 1.86-1.07v-7.48l-1.86 1.064v7.486z" opacity=".4" style="mix-blend-mode:multiply"/><path stroke="#B1BFBF" stroke-linecap="round" stroke-miterlimit="10" stroke-width=".25" d="m13.161 28.045-.39-6.088-6.647-3.685" opacity=".4" style="mix-blend-mode:multiply"/><path fill="#B1BFBF" d="M12.742 22.01c-1.455-.842-5.236-2.934-6.618-3.737 1.397.736 5.208 2.856 6.674 3.635a.059.059 0 1 1-.056.102z" opacity=".4" style="mix-blend-mode:multiply"/><path fill="#B1BFBF" d="M26.565 14.027c-.005-.034-13.92 8.156-13.73 7.926l.326 6.092-.457-6.083v-.041c.026-.02 13.834-7.872 13.864-7.893h-.003z" opacity=".4" style="mix-blend-mode:multiply"/></g><path fill="#B1BFBF" d="m6.124 17.697-1.397 4.747 8.434 5.026-.39-6.087-6.647-3.686z"/><path fill="#CAD8D9" d="m20.086 9.71 6.479 3.742-13.795 7.93-6.646-3.685L20.086 9.71z"/><path fill="#C4D3D6" d="m28.24 18.534-1.675-5.081-13.795 7.93.391 6.087 15.08-8.936z"/><path fill="#E3ECE9" d="M10.664 15.1v5.115l1.16.643h.398v-6.65l-1.558.892zm12.23.462.93-.534v-3.16l-.93-.536v4.23zm-9.619 5.53 1.86-1.069v-7.48l-1.86 1.063v7.486z"/><path stroke="#fff" stroke-linecap="round" stroke-miterlimit="10" stroke-width=".25" d="m13.161 27.47-.39-6.087-6.647-3.686"/><path fill="#fff" d="M12.742 21.434c-1.455-.841-5.236-2.932-6.618-3.736 1.397.735 5.208 2.856 6.674 3.635a.058.058 0 0 1-.012.107.058.058 0 0 1-.044-.005z"/><path fill="#fff" d="M26.565 13.453c-.005-.035-13.92 8.155-13.73 7.926l.326 6.091-.457-6.083v-.04c.026-.021 13.834-7.873 13.864-7.894h-.003z"/><g opacity=".4" style="mix-blend-mode:multiply"><path fill="#B1BFBF" d="m15.601 24.245-1.396 4.747 8.434 5.027-.392-6.088-6.646-3.686z" opacity=".4" style="mix-blend-mode:multiply"/><path fill="#B1BFBF" d="M29.564 16.259 36.043 20l-13.796 7.93-6.646-3.685 13.963-7.986z" opacity=".4" style="mix-blend-mode:multiply"/><path fill="#B1BFBF" d="M37.718 25.082 36.043 20l-13.796 7.93.392 6.088 15.08-8.936zm-17.575-3.434v5.115l1.159.643h.397v-6.649l-1.556.891z" opacity=".4" style="mix-blend-mode:multiply"/><path fill="#B1BFBF" d="m32.372 22.11.93-.534v-3.159l-.93-.537v4.23zm-9.619 5.53 1.86-1.069V19.09l-1.86 1.064v7.487z" opacity=".4" style="mix-blend-mode:multiply"/><path stroke="#B1BFBF" stroke-linecap="round" stroke-miterlimit="10" stroke-width=".25" d="m22.64 34.019-.393-6.088-6.646-3.686" opacity=".4" style="mix-blend-mode:multiply"/><path fill="#B1BFBF" d="M22.22 27.983c-1.455-.841-5.236-2.933-6.619-3.737 1.397.736 5.21 2.856 6.675 3.634a.06.06 0 0 1-.056.104v-.001z" opacity=".4" style="mix-blend-mode:multiply"/><path fill="#B1BFBF" d="M36.043 20c-.005-.035-13.92 8.155-13.73 7.927l.325 6.091-.456-6.083v-.04c.026-.02 13.833-7.873 13.863-7.895h-.002z" opacity=".4" style="mix-blend-mode:multiply"/></g><path fill="#B1BFBF" d="m15.601 23.67-1.396 4.748 8.434 5.026-.392-6.088-6.646-3.686z"/><path fill="#CAD8D9" d="m29.564 15.684 6.479 3.741-13.796 7.931-6.646-3.686 13.963-7.986z"/><path fill="#C4D3D6" d="m37.718 24.508-1.675-5.083-13.796 7.931.392 6.088 15.08-8.936z"/><path fill="#E3ECE9" d="M20.143 21.073v5.115l1.159.643h.397v-6.649l-1.556.891zm12.229.463.93-.535v-3.159l-.93-.537v4.23zm-9.619 5.53 1.86-1.07v-7.481l-1.86 1.064v7.487z"/><path stroke="#fff" stroke-linecap="round" stroke-miterlimit="10" stroke-width=".25" d="m22.64 33.444-.393-6.088-6.646-3.686"/><path fill="#fff" d="M22.22 27.408c-1.455-.841-5.236-2.933-6.619-3.737 1.397.736 5.21 2.856 6.675 3.634a.06.06 0 0 1-.056.104v-.001z"/><path fill="#fff" d="M36.043 19.425c-.005-.034-13.92 8.155-13.73 7.927l.325 6.092-.456-6.084v-.04c.026-.02 13.833-7.873 13.863-7.895h-.002z"/><g opacity=".4" style="mix-blend-mode:multiply"><path fill="#B1BFBF" d="M11.08 16.682 9.683 21.43l8.434 5.026-.39-6.088-6.647-3.686z" opacity=".4" style="mix-blend-mode:multiply"/><path fill="#B1BFBF" d="m25.043 8.695 6.479 3.742-13.796 7.93-6.646-3.685 13.963-7.987z" opacity=".4" style="mix-blend-mode:multiply"/><path fill="#B1BFBF" d="m33.197 17.52-1.676-5.083-13.795 7.93.391 6.088 15.08-8.935zM15.62 14.085V19.2l1.16.643h.398v-6.65l-1.558.892z" opacity=".4" style="mix-blend-mode:multiply"/><path fill="#B1BFBF" d="m27.851 14.548.929-.535v-3.159l-.929-.537v4.23zm-9.619 5.53 1.86-1.07v-7.481l-1.86 1.064v7.487z" opacity=".4" style="mix-blend-mode:multiply"/><path stroke="#B1BFBF" stroke-linecap="round" stroke-miterlimit="10" stroke-width=".25" d="m18.117 26.456-.39-6.088-6.647-3.686" opacity=".4" style="mix-blend-mode:multiply"/><path fill="#B1BFBF" d="M17.697 20.42c-1.455-.843-5.236-2.933-6.618-3.737 1.397.736 5.208 2.856 6.675 3.634a.06.06 0 0 1-.014.106.06.06 0 0 1-.043-.002v-.001z" opacity=".4" style="mix-blend-mode:multiply"/><path fill="#B1BFBF" d="M31.521 12.437c-.005-.034-13.92 8.155-13.729 7.927l.326 6.091-.456-6.083v-.04c.026-.02 13.834-7.874 13.864-7.895h-.005z" opacity=".4" style="mix-blend-mode:multiply"/></g><path fill="#B1BFBF" d="m11.08 16.107-1.397 4.748 8.434 5.026-.39-6.088-6.647-3.686z"/><path fill="#CAD8D9" d="m25.043 8.12 6.479 3.742-13.796 7.931-6.646-3.686L25.043 8.12z"/><path fill="#C4D3D6" d="m33.197 16.945-1.676-5.083-13.795 7.931.391 6.088 15.08-8.936z"/><path fill="#E3ECE9" d="M15.62 13.51v5.115l1.16.643h.398v-6.649l-1.558.891zm12.231.463.929-.535V10.28l-.929-.537v4.23zm-9.619 5.53 1.86-1.07v-7.481l-1.86 1.064v7.487z"/><path stroke="#fff" stroke-linecap="round" stroke-miterlimit="10" stroke-width=".25" d="m18.117 25.88-.39-6.087-6.647-3.686"/><path fill="#fff" d="M17.697 19.845c-1.455-.842-5.236-2.933-6.618-3.737 1.397.736 5.208 2.856 6.675 3.634a.06.06 0 0 1 .019.078.06.06 0 0 1-.076.026v-.001z"/><path fill="#fff" d="M31.521 11.862c-.005-.034-13.92 8.155-13.729 7.927l.326 6.092-.456-6.084v-.04c.026-.02 13.834-7.874 13.864-7.895h-.005z"/></svg>