<svg xmlns="http://www.w3.org/2000/svg" width="42" height="42" fill="none"><path fill="#06061B" d="M21 42c11.598 0 21-9.402 21-21S32.598 0 21 0 0 9.402 0 21s9.402 21 21 21z"/><g opacity=".4" style="mix-blend-mode:multiply"><path fill="#FB8E2F" d="M5.877 18.272L4.48 23.019l8.434 5.026-.391-6.088-6.646-3.685z" opacity=".4" style="mix-blend-mode:multiply"/><path fill="#FB8E2F" d="M19.839 10.285l6.478 3.742-13.794 7.93-6.646-3.685 13.962-7.987z" opacity=".4" style="mix-blend-mode:multiply"/><path fill="#FB8E2F" d="M27.993 19.109l-1.676-5.083-13.794 7.931.39 6.088 15.08-8.936zm-17.576-3.435v5.116l1.16.642h.398v-6.649l-1.558.891z" opacity=".4" style="mix-blend-mode:multiply"/><path fill="#FB8E2F" d="M22.647 16.137l.93-.535v-3.158l-.93-.537v4.23zm-9.619 5.53l1.86-1.07v-7.48l-1.86 1.064v7.486z" opacity=".4" style="mix-blend-mode:multiply"/><path stroke="#FB8E2F" stroke-linecap="round" stroke-miterlimit="10" stroke-width=".25" d="M12.914 28.045l-.391-6.088-6.646-3.685" opacity=".4" style="mix-blend-mode:multiply"/><path fill="#FB8E2F" d="M12.494 22.01c-1.454-.842-5.236-2.934-6.617-3.737 1.397.736 5.208 2.856 6.674 3.635a.059.059 0 11-.057.102z" opacity=".4" style="mix-blend-mode:multiply"/><path fill="#FB8E2F" d="M26.318 14.027c-.006-.034-13.92 8.156-13.73 7.926l.326 6.092-.457-6.083v-.041c.026-.02 13.833-7.872 13.864-7.893h-.003z" opacity=".4" style="mix-blend-mode:multiply"/></g><path fill="#FA9B3D" d="M5.877 17.697L4.48 22.444l8.434 5.026-.391-6.087-6.646-3.686z"/><path fill="#FFDB59" d="M19.839 9.71l6.478 3.742-13.794 7.93-6.646-3.685L19.839 9.71z"/><path fill="#FEBD59" d="M27.993 18.534l-1.676-5.081-13.794 7.93.39 6.087 15.08-8.936z"/><path fill="#FEEC96" d="M10.417 15.1v5.115l1.16.643h.398v-6.65l-1.558.892zm12.23.462l.93-.534v-3.16l-.93-.536v4.23zm-9.619 5.53l1.86-1.069v-7.48l-1.86 1.063v7.486z"/><path stroke="#fff" stroke-linecap="round" stroke-miterlimit="10" stroke-width=".25" d="M12.914 27.47l-.391-6.087-6.646-3.686"/><path fill="#fff" d="M12.494 21.434c-1.454-.841-5.236-2.932-6.617-3.736 1.397.735 5.208 2.856 6.674 3.635a.058.058 0 01-.012.107.058.058 0 01-.045-.005z"/><path fill="#fff" d="M26.318 13.453c-.006-.035-13.92 8.155-13.73 7.926l.326 6.091-.457-6.083v-.04c.026-.021 13.833-7.873 13.864-7.894h-.003z"/><g opacity=".4" style="mix-blend-mode:multiply"><path fill="#FB8E2F" d="M15.354 24.245l-1.396 4.747 8.434 5.027L22 27.93l-6.646-3.686z" opacity=".4" style="mix-blend-mode:multiply"/><path fill="#FB8E2F" d="M29.317 16.259L35.795 20 22 27.93l-6.646-3.685 13.963-7.986z" opacity=".4" style="mix-blend-mode:multiply"/><path fill="#FB8E2F" d="M37.471 25.082L35.795 20 22 27.93l.392 6.088 15.079-8.936zm-17.576-3.434v5.115l1.16.643h.397v-6.649l-1.557.891z" opacity=".4" style="mix-blend-mode:multiply"/><path fill="#FB8E2F" d="M32.125 22.11l.93-.534v-3.159l-.93-.537v4.23zm-9.619 5.53l1.86-1.069V19.09l-1.86 1.064v7.487z" opacity=".4" style="mix-blend-mode:multiply"/><path stroke="#FB8E2F" stroke-linecap="round" stroke-miterlimit="10" stroke-width=".25" d="M22.392 34.019L22 27.93l-6.646-3.686" opacity=".4" style="mix-blend-mode:multiply"/><path fill="#FB8E2F" d="M21.972 27.983c-1.454-.841-5.236-2.933-6.618-3.737 1.397.736 5.209 2.856 6.675 3.634a.06.06 0 01.017.077.06.06 0 01-.074.027v-.001z" opacity=".4" style="mix-blend-mode:multiply"/><path fill="#FB8E2F" d="M35.795 20c-.005-.035-13.92 8.155-13.729 7.927l.325 6.091-.456-6.083v-.04c.026-.02 13.832-7.873 13.863-7.895h-.003z" opacity=".4" style="mix-blend-mode:multiply"/></g><path fill="#FA9B3D" d="M15.354 23.67l-1.396 4.748 8.434 5.026L22 27.356l-6.646-3.686z"/><path fill="#FFDB59" d="M29.317 15.684l6.478 3.741L22 27.356l-6.646-3.686 13.963-7.986z"/><path fill="#FEBD59" d="M37.471 24.508l-1.676-5.083L22 27.356l.392 6.088 15.079-8.936z"/><path fill="#FEEC96" d="M19.895 21.073v5.115l1.16.643h.397v-6.649l-1.557.891zm12.23.463l.93-.535v-3.159l-.93-.537v4.23zm-9.619 5.53l1.86-1.07v-7.481l-1.86 1.064v7.487z"/><path stroke="#fff" stroke-linecap="round" stroke-miterlimit="10" stroke-width=".25" d="M22.392 33.444L22 27.356l-6.646-3.686"/><path fill="#fff" d="M21.972 27.408c-1.454-.841-5.236-2.933-6.618-3.737 1.397.736 5.209 2.856 6.675 3.634a.06.06 0 01-.057.104v-.001z"/><path fill="#fff" d="M35.795 19.425c-.005-.034-13.92 8.155-13.729 7.927l.325 6.092-.456-6.084v-.04c.026-.02 13.832-7.873 13.863-7.895h-.003z"/><g opacity=".4" style="mix-blend-mode:multiply"><path fill="#FB8E2F" d="M10.833 16.682L9.436 21.43l8.434 5.026-.391-6.088-6.646-3.686z" opacity=".4" style="mix-blend-mode:multiply"/><path fill="#FB8E2F" d="M24.796 8.695l6.478 3.742-13.795 7.93-6.646-3.685 13.963-7.987zm8.154 8.825l-1.676-5.083-13.795 7.93.39 6.088 15.08-8.935z" opacity=".4" style="mix-blend-mode:multiply"/><path fill="#FB8E2F" d="M15.373 14.085V19.2l1.16.643h.398v-6.65l-1.558.892zm12.231.463l.929-.535v-3.159l-.93-.537v4.23zm-9.619 5.53l1.86-1.07v-7.481l-1.86 1.064v7.487z" opacity=".4" style="mix-blend-mode:multiply"/><path stroke="#FB8E2F" stroke-linecap="round" stroke-miterlimit="10" stroke-width=".25" d="M17.87 26.456l-.391-6.088-6.646-3.686" opacity=".4" style="mix-blend-mode:multiply"/><path fill="#FB8E2F" d="M17.45 20.42c-1.455-.843-5.237-2.933-6.618-3.737 1.397.736 5.208 2.856 6.675 3.634a.059.059 0 01.018.078.06.06 0 01-.076.026v-.001z" opacity=".4" style="mix-blend-mode:multiply"/><path fill="#FB8E2F" d="M31.274 12.437c-.006-.034-13.92 8.155-13.729 7.927l.326 6.091-.456-6.083v-.04c.026-.02 13.833-7.874 13.864-7.895h-.005z" opacity=".4" style="mix-blend-mode:multiply"/></g><path fill="#FA9B3D" d="M10.833 16.107l-1.397 4.748 8.434 5.026-.391-6.088-6.646-3.686z"/><path fill="#FFDB59" d="M24.796 8.12l6.478 3.742-13.795 7.931-6.646-3.686L24.796 8.12z"/><path fill="#FEBD59" d="M32.95 16.945l-1.676-5.083-13.795 7.931.39 6.088 15.08-8.936z"/><path fill="#FEEC96" d="M15.373 13.51v5.115l1.16.643h.398v-6.649l-1.558.891zm12.231.463l.929-.535V10.28l-.93-.537v4.23zm-9.619 5.53l1.86-1.07v-7.481l-1.86 1.064v7.487z"/><path stroke="#fff" stroke-linecap="round" stroke-miterlimit="10" stroke-width=".25" d="M17.87 25.88l-.391-6.087-6.646-3.686"/><path fill="#fff" d="M17.45 19.845c-1.455-.842-5.237-2.933-6.618-3.737 1.397.736 5.208 2.856 6.675 3.634a.06.06 0 01.018.078.06.06 0 01-.076.026v-.001z"/><path fill="#fff" d="M31.274 11.862c-.006-.034-13.92 8.155-13.729 7.927l.326 6.092-.456-6.084v-.04c.026-.02 13.833-7.874 13.864-7.895h-.005z"/></svg>