<svg width="48" height="43" viewBox="0 0 48 43" fill="none" xmlns="http://www.w3.org/2000/svg">
<path d="M24.1133 42.2C37.2742 42.2 47.9432 32.7532 47.9432 21.1C47.9432 9.44679 37.2742 0 24.1133 0C10.9524 0 0.283386 9.44679 0.283386 21.1C0.283386 32.7532 10.9524 42.2 24.1133 42.2Z" fill="#0E052F"/>
<g style="mix-blend-mode:multiply" opacity="0.4">
<g style="mix-blend-mode:multiply" opacity="0.4">
<path d="M6.95222 18.3587L5.36713 23.1285L14.9375 28.1784L14.4939 22.0619L6.95222 18.3587Z" fill="#FB8E2F"/>
</g>
<g style="mix-blend-mode:multiply" opacity="0.4">
<path d="M22.7956 10.3342L30.147 14.0933L14.4939 22.0619L6.95221 18.3587L22.7956 10.3342Z" fill="#FB8E2F"/>
</g>
<g style="mix-blend-mode:multiply" opacity="0.4">
<path d="M32.0485 19.2L30.1471 14.0933L14.494 22.0619L14.9375 28.1784L32.0485 19.2Z" fill="#FB8E2F"/>
</g>
<g style="mix-blend-mode:multiply" opacity="0.4">
<path d="M12.1043 15.749V20.8885L13.4198 21.5344H13.872V14.8537L12.1043 15.749Z" fill="#FB8E2F"/>
</g>
<g style="mix-blend-mode:multiply" opacity="0.4">
<path d="M25.9821 16.2139L27.0372 15.6768V12.503L25.9821 11.9639V16.2139Z" fill="#FB8E2F"/>
</g>
<g style="mix-blend-mode:multiply" opacity="0.4">
<path d="M15.0669 21.7702L17.1782 20.6959V13.1797L15.0669 14.2483V21.7702Z" fill="#FB8E2F"/>
</g>
<g style="mix-blend-mode:multiply" opacity="0.4">
<path d="M14.9375 28.1784L14.4939 22.0619L6.95221 18.3587" stroke="#FB8E2F" stroke-width="0.25" stroke-miterlimit="10" stroke-linecap="round"/>
</g>
<g style="mix-blend-mode:multiply" opacity="0.4">
<path d="M14.4613 22.1139C12.811 21.2687 8.51991 19.1673 6.95221 18.3596C8.53731 19.0989 12.8621 21.2292 14.5255 22.0118C14.5409 22.0194 14.5523 22.032 14.5572 22.047C14.5621 22.062 14.5601 22.0781 14.5515 22.0917C14.543 22.1054 14.5288 22.1155 14.5118 22.1198C14.4949 22.1242 14.4767 22.1224 14.4613 22.1149V22.1139Z" fill="#FB8E2F"/>
</g>
<g style="mix-blend-mode:multiply" opacity="0.4">
<path d="M30.1482 14.0942C30.1416 14.0596 14.3515 22.2881 14.5679 22.0581L14.9375 28.1784L14.4189 22.0667V22.0253C14.4483 22.0051 30.1166 14.1154 30.1514 14.0942H30.1482Z" fill="#FB8E2F"/>
</g>
</g>
<path d="M6.95222 17.7811L5.36713 22.5509L14.9375 27.6009L14.4939 21.4843L6.95222 17.7811Z" fill="#FA9B3D"/>
<path d="M22.7956 9.75663L30.147 13.5167L14.4939 21.4843L6.95221 17.7811L22.7956 9.75663Z" fill="#FFDB59"/>
<path d="M32.0485 18.6224L30.1471 13.5167L14.494 21.4843L14.9375 27.6009L32.0485 18.6224Z" fill="#FEBD59"/>
<path d="M12.1043 15.1714V20.3109L13.4198 20.9568H13.872V14.2762L12.1043 15.1714Z" fill="#FEEC96"/>
<path d="M25.9821 15.6364L27.0372 15.0992V11.9254L25.9821 11.3864V15.6364Z" fill="#FEEC96"/>
<path d="M15.0669 21.1927L17.1782 20.1184V12.6022L15.0669 13.6707V21.1927Z" fill="#FEEC96"/>
<path d="M14.9375 27.6009L14.4939 21.4843L6.95221 17.7811" stroke="white" stroke-width="0.25" stroke-miterlimit="10" stroke-linecap="round"/>
<path d="M14.4613 21.5363C12.811 20.6911 8.51991 18.5897 6.95221 17.7821C8.53731 18.5214 12.8621 20.6517 14.5255 21.4343C14.5409 21.4418 14.5523 21.4544 14.5572 21.4694C14.5621 21.4844 14.5601 21.5005 14.5515 21.5142C14.543 21.5278 14.5288 21.5379 14.5118 21.5423C14.4949 21.5466 14.4767 21.5448 14.4613 21.5373V21.5363Z" fill="white"/>
<path d="M30.1482 13.5167C30.1416 13.482 14.3515 21.7105 14.5679 21.4805L14.9375 27.6009L14.4189 21.4891V21.4477C14.4483 21.4275 30.1166 13.5378 30.1514 13.5167H30.1482Z" fill="white"/>
<g style="mix-blend-mode:multiply" opacity="0.4">
<g style="mix-blend-mode:multiply" opacity="0.4">
<path d="M17.7066 24.3607L16.1226 29.1305L25.6929 34.1804L25.2483 28.0639L17.7066 24.3607Z" fill="#FB8E2F"/>
</g>
<g style="mix-blend-mode:multiply" opacity="0.4">
<path d="M33.551 16.3362L40.9024 20.0953L25.2483 28.0639L17.7065 24.3607L33.551 16.3362Z" fill="#FB8E2F"/>
</g>
<g style="mix-blend-mode:multiply" opacity="0.4">
<path d="M42.804 25.202L40.9025 20.0953L25.2483 28.0639L25.6929 34.1804L42.804 25.202Z" fill="#FB8E2F"/>
</g>
<g style="mix-blend-mode:multiply" opacity="0.4">
<path d="M22.8597 21.751V26.8904L24.1752 27.5364H24.6264V20.8557L22.8597 21.751Z" fill="#FB8E2F"/>
</g>
<g style="mix-blend-mode:multiply" opacity="0.4">
<path d="M36.7375 22.2159L37.7926 21.6788V18.505L36.7375 17.965V22.2159Z" fill="#FB8E2F"/>
</g>
<g style="mix-blend-mode:multiply" opacity="0.4">
<path d="M25.8223 27.7722L27.9325 26.6979V19.1808L25.8223 20.2502V27.7722Z" fill="#FB8E2F"/>
</g>
<g style="mix-blend-mode:multiply" opacity="0.4">
<path d="M25.6929 34.1804L25.2483 28.0639L17.7065 24.3607" stroke="#FB8E2F" stroke-width="0.25" stroke-miterlimit="10" stroke-linecap="round"/>
</g>
<g style="mix-blend-mode:multiply" opacity="0.4">
<path d="M25.2167 28.1159C23.5664 27.2707 19.2753 25.1693 17.7065 24.3616C19.2916 25.1009 23.6175 27.2312 25.2809 28.0129C25.2942 28.0214 25.3036 28.0339 25.3073 28.0481C25.3109 28.0623 25.3086 28.0772 25.3007 28.09C25.2928 28.1027 25.2799 28.1125 25.2645 28.1175C25.249 28.1224 25.232 28.1222 25.2167 28.1168V28.1159Z" fill="#FB8E2F"/>
</g>
<g style="mix-blend-mode:multiply" opacity="0.4">
<path d="M40.9025 20.0953C40.8971 20.0606 25.107 28.2892 25.3233 28.06L25.6919 34.1804L25.1744 28.0677V28.0273C25.2037 28.0071 40.871 20.1174 40.9058 20.0953H40.9025Z" fill="#FB8E2F"/>
</g>
</g>
<path d="M17.7066 23.7831L16.1226 28.5529L25.6929 33.6029L25.2483 27.4863L17.7066 23.7831Z" fill="#FA9B3D"/>
<path d="M33.551 15.7586L40.9025 19.5177L25.2483 27.4863L17.7065 23.7831L33.551 15.7586Z" fill="#FFDB59"/>
<path d="M42.8039 24.6244L40.9024 19.5177L25.2482 27.4863L25.6929 33.6029L42.8039 24.6244Z" fill="#FEBD59"/>
<path d="M22.8597 21.1734V26.3129L24.1752 26.9588H24.6264V20.2782L22.8597 21.1734Z" fill="#FEEC96"/>
<path d="M36.7375 21.6383L37.7925 21.1012V17.9274L36.7375 17.3874V21.6383Z" fill="#FEEC96"/>
<path d="M25.8223 27.1946L27.9325 26.1203V18.6032L25.8223 19.6727V27.1946Z" fill="#FEEC96"/>
<path d="M25.6929 33.6029L25.2483 27.4863L17.7065 23.7831" stroke="white" stroke-width="0.25" stroke-miterlimit="10" stroke-linecap="round"/>
<path d="M25.2167 27.5383C23.5664 26.6931 19.2753 24.5917 17.7065 23.784C19.2916 24.5233 23.6175 26.6536 25.2809 27.4353C25.2942 27.4438 25.3036 27.4563 25.3073 27.4705C25.3109 27.4847 25.3086 27.4996 25.3007 27.5124C25.2928 27.5252 25.2799 27.535 25.2645 27.5399C25.249 27.5449 25.232 27.5446 25.2167 27.5393V27.5383Z" fill="white"/>
<path d="M40.9024 19.5177C40.897 19.483 25.1069 27.7116 25.3233 27.4825L25.6918 33.6029L25.1743 27.4902V27.4497C25.2037 27.4295 40.8709 19.5398 40.9057 19.5177H40.9024Z" fill="white"/>
<g style="mix-blend-mode:multiply" opacity="0.4">
<g style="mix-blend-mode:multiply" opacity="0.4">
<path d="M12.5762 16.7617L10.9911 21.5315L20.5615 26.5814L20.1179 20.4649L12.5762 16.7617Z" fill="#FB8E2F"/>
</g>
<g style="mix-blend-mode:multiply" opacity="0.4">
<path d="M28.4206 8.73624L35.7721 12.4963L20.1179 20.4649L12.5762 16.7617L28.4206 8.73624Z" fill="#FB8E2F"/>
</g>
<g style="mix-blend-mode:multiply" opacity="0.4">
<path d="M37.6736 17.603L35.7721 12.4963L20.1179 20.4649L20.5615 26.5814L37.6736 17.603Z" fill="#FB8E2F"/>
</g>
<g style="mix-blend-mode:multiply" opacity="0.4">
<path d="M17.7283 14.152V19.2915L19.0437 19.9374H19.496V13.2567L17.7283 14.152Z" fill="#FB8E2F"/>
</g>
<g style="mix-blend-mode:multiply" opacity="0.4">
<path d="M31.6071 14.6169L32.6611 14.0798V10.906L31.6071 10.366V14.6169Z" fill="#FB8E2F"/>
</g>
<g style="mix-blend-mode:multiply" opacity="0.4">
<path d="M20.692 20.1732L22.8022 19.0989V11.5818L20.692 12.6513V20.1732Z" fill="#FB8E2F"/>
</g>
<g style="mix-blend-mode:multiply" opacity="0.4">
<path d="M20.5615 26.5814L20.1179 20.4649L12.5762 16.7617" stroke="#FB8E2F" stroke-width="0.25" stroke-miterlimit="10" stroke-linecap="round"/>
</g>
<g style="mix-blend-mode:multiply" opacity="0.4">
<path d="M20.0842 20.5169C18.4338 19.6707 14.1428 17.5703 12.5751 16.7626C14.1602 17.5019 18.4849 19.6322 20.1494 20.4139C20.1634 20.4222 20.1734 20.4349 20.1773 20.4495C20.1812 20.464 20.1789 20.4793 20.1707 20.4924C20.1625 20.5054 20.149 20.5153 20.133 20.52C20.117 20.5247 20.0996 20.524 20.0842 20.5178V20.5169Z" fill="#FB8E2F"/>
</g>
<g style="mix-blend-mode:multiply" opacity="0.4">
<path d="M35.7721 12.4963C35.7655 12.4616 19.9755 20.6902 20.1929 20.4611L20.5625 26.5814L20.045 20.4688V20.4283C20.0744 20.4081 35.7427 12.5174 35.7775 12.4963H35.7721Z" fill="#FB8E2F"/>
</g>
</g>
<path d="M12.5762 16.1841L10.9911 20.9539L20.5615 26.0039L20.1179 19.8873L12.5762 16.1841Z" fill="#FA9B3D"/>
<path d="M28.4206 8.15867L35.7721 11.9187L20.1179 19.8873L12.5762 16.1841L28.4206 8.15867Z" fill="#FFDB59"/>
<path d="M37.6735 17.0254L35.7721 11.9187L20.1179 19.8873L20.5614 26.0039L37.6735 17.0254Z" fill="#FEBD59"/>
<path d="M17.7283 13.5744V18.7139L19.0437 19.3598H19.496V12.6792L17.7283 13.5744Z" fill="#FEEC96"/>
<path d="M31.6071 14.0394L32.6611 13.5022V10.3284L31.6071 9.7884V14.0394Z" fill="#FEEC96"/>
<path d="M20.6919 19.5957L22.8021 18.5214V11.0042L20.6919 12.0737V19.5957Z" fill="#FEEC96"/>
<path d="M20.5615 26.0039L20.1179 19.8873L12.5762 16.1841" stroke="white" stroke-width="0.25" stroke-miterlimit="10" stroke-linecap="round"/>
<path d="M20.0842 19.9393C18.4338 19.0932 14.1428 16.9927 12.5751 16.1851C14.1602 16.9244 18.4849 19.0547 20.1494 19.8363C20.1634 19.8447 20.1734 19.8574 20.1773 19.8719C20.1812 19.8864 20.1789 19.9017 20.1707 19.9148C20.1625 19.9279 20.149 19.9377 20.133 19.9425C20.117 19.9472 20.0996 19.9464 20.0842 19.9403V19.9393Z" fill="white"/>
<path d="M35.7721 11.9187C35.7656 11.884 19.9755 20.1126 20.1929 19.8835L20.5625 26.0039L20.045 19.8912V19.8507C20.0744 19.8305 35.7427 11.9399 35.7775 11.9187H35.7721Z" fill="white"/>
</svg>
