<svg xmlns="http://www.w3.org/2000/svg" width="42" height="42" fill="none"><circle cx="21" cy="21" r="21" fill="#000"/><g fill="#fff" clip-path="url(#a)"><path d="m31.36 12.139-3.415 1.74-16.492 8.4a9.824 9.824 0 0 1 14.53-9.847l1.956-.996.291-.15A12 12 0 0 0 9.216 21.914a2.183 2.183 0 0 1-1.185 2.11L7 24.547V27l3.035-1.547.983-.502.968-.493L29.372 15.6l1.953-.995 4.038-2.058v-2.45l-4.003 2.042zM35.363 15l-22.39 11.4-1.953.997L7 29.446v2.449l3.992-2.034 3.416-1.74 16.508-8.412a9.825 9.825 0 0 1-14.545 9.854l-.12.064-2.12 1.08a12 12 0 0 0 19.016-10.629 2.185 2.185 0 0 1 1.184-2.11l1.032-.525V15z"/></g><defs><clipPath id="a"><path fill="#fff" d="M7 9h28.363v24H7z"/></clipPath></defs></svg>