<svg width="42" height="42" fill="none" viewBox="0 0 42 42" xmlns="http://www.w3.org/2000/svg">
  <g clip-path="url(#a)">
    <path fill="#fff" d="M41.995 20.998c0 11.596-9.4 20.998-20.997 20.998S0 32.594 0 20.998 9.4 0 20.998 0c11.597 0 20.997 9.4 20.997 20.998"/>
    <path fill="#F26822" d="M20.998 0C9.405 0-.012 9.415.003 20.997a21 21 0 0 0 1.066 6.632H7.35V9.965l13.647 13.647L34.644 9.965v17.664h6.284a21 21 0 0 0 1.066-6.631C42.014 9.403 32.592.003 20.998.003z"/>
    <path fill="#4D4D4D" d="m17.86 26.749-5.956-5.956v11.115h-8.85C6.739 37.956 13.4 42 20.998 42s14.259-4.046 17.945-10.092H30.09V20.793l-5.956 5.956-3.137 3.137z"/>
  </g>
  <defs>
    <clipPath id="a">
      <path fill="#fff" d="M0 0h41.995v42H0z"/>
    </clipPath>
  </defs>
</svg>
