<svg width="42" height="42" viewBox="0 0 42 42" fill="none" xmlns="http://www.w3.org/2000/svg">
<g clip-path="url(#clip0_1097_34112)">
<path d="M21 42C32.598 42 42 32.598 42 21C42 9.40202 32.598 0 21 0C9.40202 0 0 9.40202 0 21C0 32.598 9.40202 42 21 42Z" fill="#FF6600"/>
<path d="M20.9603 6.87103C28.8156 6.87103 35.1681 13.2235 35.1681 21.0775C35.1628 22.6082 34.9156 24.1285 34.4358 25.582H30.2016V13.6462L20.9616 22.8862L11.7216 13.6462V25.582H7.48619C7.00675 24.1284 6.76002 22.6082 6.75513 21.0775C6.75513 13.2235 13.1076 6.87103 20.9616 6.87103H20.9603ZM18.8446 24.9638L20.9997 27.0835L23.1168 24.9652L27.1212 20.9227V28.4302H33.0891C31.8233 30.5121 30.0424 32.2328 27.9182 33.4264C25.794 34.62 23.3982 35.2462 20.9616 35.2447C15.8403 35.2447 11.3358 32.512 8.83413 28.4302H14.8008V20.9227L18.8433 24.9652L18.8446 24.9638Z" fill="white"/>
</g>
<defs>
<clipPath id="clip0_1097_34112">
<rect width="42" height="42" fill="white"/>
</clipPath>
</defs>
</svg>
