<svg xmlns="http://www.w3.org/2000/svg" width="42" height="42" fill="none"><g clip-path="url(#a)"><path fill="#F60" d="M21 42c11.598 0 21-9.402 21-21S32.598 0 21 0 0 9.402 0 21s9.402 21 21 21z"/><path fill="#fff" d="M20.96 6.871c7.856 0 14.208 6.353 14.208 14.207a14.531 14.531 0 0 1-.732 4.504h-4.234V13.646l-9.24 9.24-9.24-9.24v11.936H7.486a14.53 14.53 0 0 1-.73-4.504c0-7.854 6.352-14.207 14.206-14.207h-.002zm-2.115 18.093L21 27.084l2.117-2.119 4.004-4.042v7.507h5.968a14.183 14.183 0 0 1-12.127 6.815c-5.122 0-9.626-2.733-12.128-6.815h5.967v-7.507l4.042 4.042.002-.001z"/></g><defs><clipPath id="a"><path fill="#fff" d="M0 0h42v42H0z"/></clipPath></defs></svg>