<svg width="42" height="42" viewBox="0 0 42 42" fill="none" xmlns="http://www.w3.org/2000/svg">
<circle cx="21" cy="21" r="21" fill="#F5F5FF"/>
<g clip-path="url(#clip0_7277_57746)">
<path d="M30.956 9.31567H35.0264L26.5555 17.7196C23.4879 20.7614 18.5142 20.7614 15.4444 17.7196L6.97021 9.31567H11.0439L17.4796 15.6997C18.4173 16.6256 19.6809 17.1447 20.9975 17.1447C22.314 17.1447 23.5777 16.6256 24.5154 15.6997L30.956 9.31567Z" fill="#23292F"/>
<path d="M10.9916 32.6844H6.91846L15.4443 24.2286C18.512 21.1868 23.4856 21.1868 26.5555 24.2286L35.0813 32.6844H31.0109L24.5203 26.2486C23.5826 25.3226 22.3189 24.8035 21.0024 24.8035C19.6858 24.8035 18.4222 25.3226 17.4845 26.2486L10.9916 32.6844Z" fill="#23292F"/>
</g>
<defs>
<clipPath id="clip0_7277_57746">
<rect width="28.1629" height="23.3688" fill="white" transform="translate(6.91846 9.31567)"/>
</clipPath>
</defs>
</svg>
