<svg xmlns="http://www.w3.org/2000/svg" width="42" height="42" fill="none"><circle cx="21" cy="21" r="21" fill="#F5F5FF"/><g fill="#23292F" clip-path="url(#a)"><path d="M30.956 9.316h4.07l-8.47 8.404c-3.068 3.041-8.042 3.041-11.112 0L6.97 9.316h4.074L17.48 15.7a5.007 5.007 0 0 0 7.035 0l6.441-6.384zM10.992 32.684H6.918l8.526-8.455c3.068-3.042 8.042-3.042 11.111 0l8.526 8.455h-4.07l-6.49-6.435a5.007 5.007 0 0 0-7.037 0l-6.492 6.435z"/></g><defs><clipPath id="a"><path fill="#fff" d="M6.918 9.316h28.163v23.369H6.918z"/></clipPath></defs></svg>