<svg xmlns="http://www.w3.org/2000/svg" width="42" height="42" fill="none"><g clip-path="url(#a)"><path fill="#A6E000" d="M21 42c11.598 0 21-9.402 21-21S32.598 0 21 0 0 9.402 0 21s9.402 21 21 21z"/><path fill="#fff" fill-rule="evenodd" d="M23.874 34.125c-1.916 0-3.312-.452-4.19-1.352-.875-.903-1.313-1.875-1.313-2.918 0-.38.076-.702.23-.962.15-.258.366-.47.626-.617.265-.15.59-.225.978-.225.387 0 .714.076.979.226.265.15.472.355.626.616.153.26.23.582.23.962 0 .461-.112.837-.337 1.128a1.554 1.554 0 0 1-.795.57c.265.362.683.618 1.254.767.57.162 1.141.242 1.711.242a3.846 3.846 0 0 0 2.156-.631c.642-.422 1.116-1.044 1.42-1.864.306-.823.46-1.755.46-2.797 0-1.133-.168-2.1-.504-2.902-.327-.813-.811-1.414-1.453-1.805a3.924 3.924 0 0 0-2.079-.585c-.488 0-1.1.2-1.834.6l-1.345.662v-.661l6.053-7.938h-8.376v8.239c0 .682.152 1.242.46 1.683.304.441.774.662 1.404.662.49 0 .958-.16 1.407-.482.45-.322.843-.719 1.161-1.172a.45.45 0 0 1 .154-.197.31.31 0 0 1 .198-.073c.113 0 .244.055.398.164.14.152.215.35.214.556a3.834 3.834 0 0 1-.076.422c-.347.76-.827 1.342-1.438 1.744-.597.396-1.3.606-2.017.601-1.814 0-3.067-.35-3.76-1.053-.693-.7-1.04-1.653-1.04-2.855v-8.24h-4.28v-1.533h4.279V9.62l-.976-.964v-.782H17.3l1.07.54v4.692l11.066-.03 1.102 1.082-6.788 6.676a4.607 4.607 0 0 1 1.284-.302c.735 0 1.559.23 2.476.693.928.45 1.64 1.072 2.14 1.864.5.782.821 1.534.963 2.256a9.36 9.36 0 0 1 .23 1.924 7.902 7.902 0 0 1-.826 3.578 5.299 5.299 0 0 1-2.507 2.465 8.257 8.257 0 0 1-3.637.812z" clip-rule="evenodd"/></g><defs><clipPath id="a"><path fill="#fff" d="M0 0h42v42H0z"/></clipPath></defs></svg>