<svg width="42" height="42" fill="none" xmlns="http://www.w3.org/2000/svg">
  <g clip-path="url(#a)">
    <path fill="#A6E000" d="M21 42c11.598 0 21-9.402 21-21S32.598 0 21 0 0 9.402 0 21s9.402 21 21 21"/>
    <path fill="#fff" fill-rule="evenodd" d="M23.874 34.125q-2.873-.001-4.19-1.352-1.313-1.354-1.313-2.918 0-.571.23-.962c.15-.258.366-.47.626-.617q.397-.225.978-.225t.979.226q.396.225.626.616t.23.962q0 .691-.337 1.128a1.55 1.55 0 0 1-.795.57q.397.543 1.254.767.856.242 1.711.242a3.85 3.85 0 0 0 2.156-.631q.964-.634 1.42-1.864.46-1.234.46-2.797 0-1.7-.504-2.902-.49-1.219-1.453-1.805a3.9 3.9 0 0 0-2.079-.585q-.733 0-1.834.6l-1.345.662v-.661l6.053-7.938h-8.376v8.239q-.001 1.022.46 1.683.457.662 1.404.662.734 0 1.407-.482c.45-.322.843-.719 1.161-1.172a.45.45 0 0 1 .154-.197.3.3 0 0 1 .198-.073q.168 0 .398.164c.14.152.215.35.214.556a4 4 0 0 1-.076.422q-.521 1.14-1.438 1.744c-.597.396-1.3.606-2.017.601q-2.72 0-3.76-1.053-1.04-1.051-1.04-2.855v-8.24h-4.28v-1.533h4.279V9.62l-.976-.964v-.782H17.3l1.07.54v4.692l11.066-.03 1.102 1.082-6.788 6.676a4.6 4.6 0 0 1 1.284-.302q1.101 0 2.476.693 1.391.675 2.14 1.864.75 1.173.963 2.256a9.4 9.4 0 0 1 .23 1.924 7.9 7.9 0 0 1-.826 3.578 5.3 5.3 0 0 1-2.507 2.465 8.26 8.26 0 0 1-3.637.812z" clip-rule="evenodd"/>
  </g>
  <defs>
    <clipPath id="a">
      <path fill="#fff" d="M0 0h42v42H0z"/>
    </clipPath>
  </defs>
</svg>
