<svg xmlns="http://www.w3.org/2000/svg" width="42" height="42" fill="none"><path fill="#006AE3" fill-rule="evenodd" d="M21 0c11.596 0 21 9.404 21 21s-9.404 21-21 21S0 32.596 0 21 9.404 0 21 0z" clip-rule="evenodd"/><path fill="#fff" d="m29.82 18.203-5.876 1.558-1.31-6.098 1.747-.395.689 2.89s1.587-2.605-.53-5.301c-1.247-1.386-1.839-1.445-3.238-1.663-1.23-.177-4.09.24-4.943 3.578-.361 2.15.046 3.742 2.818 5.826l-.155 2.318s-3.096-2.18-3.894-3.709c-.617-1.21-1.675-3.599.236-6.925 1.029-1.664 3.057-3.26 6.631-3.092 1.798.076 6.187 2.273 5.507 7.405-.118.962-.618 2.243-.618 2.243l2.411-.538.525 1.903zm-3.356 13.671c-1.075 1.634-3.146 3.175-6.711 2.915-1.798-.122-6.124-2.436-5.31-7.548.144-.957.677-2.222.677-2.222l-2.423.47-.475-1.91 5.918-1.403 1.15 6.132-1.76.349-.612-2.911s-1.655 2.558.386 5.313c1.21 1.42 1.798 1.491 3.196 1.747 1.222.21 4.095-.134 5.036-3.448.416-2.138.05-3.742-2.663-5.901l.219-2.314s3.036 2.26 3.792 3.81c.58 1.23 1.575 3.649-.42 6.92z"/></svg>