<svg xmlns="http://www.w3.org/2000/svg" width="42" height="42" fill="none"><g clip-path="url(#a)"><ellipse cx="21.042" cy="21" fill="#06061B" rx="20.958" ry="21"/><path fill="#231F20" d="M20.87.032C9.36.032 0 9.424 0 20.971S9.36 41.91 20.87 41.91c11.509 0 20.87-9.392 20.87-20.94C41.74 9.425 32.378.033 20.87.033Zm0 38.422c-9.611 0-17.426-7.84-17.426-17.483S11.26 3.488 20.87 3.488s17.425 7.84 17.425 17.483S30.48 38.454 20.87 38.454Z"/><path fill="#F4B728" d="M20.87 37.47c9.081 0 16.443-7.387 16.443-16.5 0-9.111-7.362-16.498-16.443-16.498-9.082 0-16.444 7.387-16.444 16.499 0 9.112 7.362 16.498 16.444 16.498Z"/><path fill="#231F20" d="M13.425 27.483v3.196h5.694v3.502h3.5v-3.502h5.694v-4.227H19.48l8.833-12.021v-3.196H22.62V7.742h-3.5v3.493h-5.694v4.236h8.833l-8.833 12.012Z"/></g><defs><clipPath id="a"><rect width="42" height="42" fill="#fff" rx="21"/></clipPath></defs></svg>