<svg xmlns="http://www.w3.org/2000/svg" width="42" height="42" fill="none"><circle cx="21" cy="21" r="21" fill="#49C1BF"/><g clip-path="url(#a)"><path fill="#49C1BF" d="m30.779 18.57-4.032 1.798-10.695 5.444 10.695 5.142v-8.5l4.032-1.817v12.557l-4.032 1.798L11 27.455V23.45l10.9-5.348L11 12.863V8.8l4.095-1.798 15.684 7.55v4.018z"/><path fill="#80D4D2" d="m11 8.8 15.747 7.55 4.032-1.798-15.684-7.55L11 8.8z"/><path fill="#BFE9E8" d="m26.747 16.332 4.032-1.798v4.02l-4.032 1.797v-4.02z"/><path fill="#fff" d="M11 8.803v4.064l10.9 5.238L11 23.453v4.006l15.747 7.536v-4.031l-10.695-5.149 10.695-5.444v-4.018L11 8.802z"/><path fill="#BFE9E8" d="m26.747 34.965 4.032-1.797V20.61l-4.032 1.817v12.537z"/></g><defs><clipPath id="a"><path fill="#fff" d="M11 7h19.779v28H11z"/></clipPath></defs></svg>