<svg width="42" height="42" viewBox="0 0 42 42" fill="none" xmlns="http://www.w3.org/2000/svg">
<circle cx="21" cy="21" r="21" fill="#49C1BF"/>
<g clip-path="url(#clip0_7698_9781)">
<path d="M30.7787 18.5704L26.7471 20.3679L16.0518 25.8118L26.7471 30.954V22.4543L30.7787 20.6375V33.1945L26.7471 34.9921L10.9995 27.4553V23.4494L21.9002 18.1017L10.9995 12.8632V8.79954L15.0953 7.00201L30.7787 14.5516V18.5704Z" fill="#49C1BF"/>
<path d="M10.9995 8.79954L26.7471 16.3491L30.7787 14.5516L15.0953 7.00201L10.9995 8.79954Z" fill="#80D4D2"/>
<path d="M26.7473 16.3319L30.7789 14.5344V18.5531L26.7473 20.3506V16.3319Z" fill="#BFE9E8"/>
<path d="M10.9995 8.80292V12.8666L21.9002 18.1051L10.9995 23.4527V27.4587L26.7471 34.9954V30.9638L16.0518 25.8152L26.7471 20.3713V16.3525L10.9995 8.80292Z" fill="white"/>
<path d="M26.7473 34.9654L30.7789 33.1679V20.6109L26.7473 22.4277V34.9654Z" fill="#BFE9E8"/>
</g>
<defs>
<clipPath id="clip0_7698_9781">
<rect width="19.7792" height="28" fill="white" transform="translate(11 7)"/>
</clipPath>
</defs>
</svg>
