<svg xmlns="http://www.w3.org/2000/svg" width="42" height="42" fill="none"><circle cx="21" cy="21" r="21" fill="#000"/><g clip-path="url(#a)"><path fill="#fff" d="M28.41 25.636c.986 1.325 2.003 2.68 3.02 4.036-2.034 2.403-4.56 3.943-7.61 4.59-3.388.709-6.592.185-9.704-1.54 2.773-2.064 5.484-4.097 8.226-6.13.616.585 1.201 1.17 1.786 1.725.647.616.4.646 1.233.184a8.544 8.544 0 0 0 2.834-2.618c.03-.062.092-.123.123-.185-.03 0 0 0 .092-.062zm-12.106 2.711c-.77.586-1.48 1.11-2.188 1.664-.523.4-1.047.77-1.57 1.17-.216.185-.37.185-.617-.03-2.341-2.095-3.82-4.683-4.374-7.764-.555-3.11-.062-6.068 1.417-8.872.03-.061.092-.154.123-.215 0-.031.03-.031.092-.062 2.034 2.68 4.098 5.36 6.13 8.04-.06.093-.092.155-.153.216a53.747 53.747 0 0 1-1.88 1.91c-.184.185-.215.339-.092.555a9.113 9.113 0 0 0 2.65 3.08c.153.093.277.185.462.308zm11.49-19.13c-.986.708-1.971 1.417-2.957 2.094-1.695 1.202-3.389 2.434-5.052 3.636-.216.154-.37.184-.555-.031-.554-.585-1.14-1.11-1.694-1.695-.154-.154-.308-.184-.524-.092-1.325.678-2.372 1.633-3.235 2.834a1.705 1.705 0 0 0-.184.247c-.493-.647-.955-1.233-1.418-1.849-.492-.647-.955-1.294-1.417-1.91-.154-.215-.184-.37.031-.585 2.372-2.619 5.299-4.159 8.81-4.529 2.773-.308 5.423.247 7.887 1.572.093.061.185.092.277.154 0 .092 0 .123.031.154zM32.816 27.7a261.715 261.715 0 0 1-1.818-2.372c-1.355-1.787-2.71-3.604-4.097-5.39-.185-.247-.185-.401.03-.617.586-.585 1.14-1.17 1.726-1.756.154-.154.215-.308.092-.524a9.13 9.13 0 0 0-2.803-3.234c-.093-.062-.185-.154-.308-.216.092-.092.185-.154.246-.215 1.17-.894 2.342-1.756 3.512-2.65.185-.154.34-.216.555 0 2.926 2.65 4.497 5.946 4.651 9.92.062 2.31-.462 4.497-1.509 6.561a2.328 2.328 0 0 0-.277.493z"/></g><defs><clipPath id="a"><path fill="#fff" d="M7 7h27.664v28H7z"/></clipPath></defs></svg>