<svg width="360" height="255" viewBox="0 0 360 255" fill="none" xmlns="http://www.w3.org/2000/svg"><path d="M86.98 59.21c-2.516-2.88-5.615-4.322-9.303-4.322H2.26c-.67 0-1.218-.212-1.63-.636-.42-.417-.63-.89-.63-1.396V2.032C0 1.525.21 1.06.63.637 1.041.212 1.59 0 2.26 0h79.693c20.11 0 37.458 8.22 52.04 24.65l19.358 23.631-37.708 45.995-28.662-35.065zm139.278-34.813C240.839 8.132 258.269 0 278.548 0h79.443c.67 0 1.17.172 1.508.506.332.341.501.848.501 1.526v50.825c0 .505-.169.978-.501 1.395-.338.424-.838.636-1.508.636h-75.417c-3.688 0-6.787 1.442-9.304 4.323l-55.558 67.595 55.808 68.101c2.517 2.715 5.528 4.07 9.054 4.07h75.417c.67 0 1.17.212 1.508.636.332.425.501.979.501 1.648v50.825c0 .507-.169.979-.501 1.395-.338.425-.838.637-1.508.637h-79.443c-20.279 0-37.628-8.214-52.04-24.65l-46.255-56.412-46.26 56.412c-14.582 16.436-32.012 24.65-52.29 24.65H2.26c-.67 0-1.177-.212-1.509-.637-.338-.423-.5-.97-.5-1.654v-50.825c0-.507.162-.972.5-1.396.332-.423.839-.636 1.509-.636h75.417c3.519 0 6.618-1.437 9.304-4.322l54.55-66.576 84.727-103.675z" fill="#00D1FF"/></svg>