<svg width="300" height="300" viewBox="0 0 300 300" xmlns="http://www.w3.org/2000/svg"><g fill="none" fill-rule="evenodd"><circle fill="#FFF" cx="150.39" cy="150.271" r="149.576"/><path fill="#8E8C98" d="M118.257 205.645l-11.93-8.548L181.36 92.385l11.93 8.548z"/><path d="M157.57 141.8a7.338 7.338 0 110 14.675h-19.047c-18.447 0-33.402-14.955-33.402-33.402 0-18.448 14.955-33.403 33.402-33.403h49.122a7.338 7.338 0 110 14.676h-49.122c-10.342 0-18.726 8.384-18.726 18.727 0 10.342 8.384 18.726 18.726 18.726h19.048z" fill="#1E1A31"/><path d="M142.533 156.475a7.338 7.338 0 010-14.676h19.048c18.448 0 33.402 14.955 33.402 33.403s-14.954 33.403-33.402 33.403h-49.122a7.338 7.338 0 110-14.676h49.122c10.342 0 18.726-8.384 18.726-18.727 0-10.342-8.384-18.727-18.726-18.727h-19.048z" fill="#1E1A31"/></g></svg>