<svg width="1835" height="217" viewBox="0 0 1835 217" fill="none" xmlns="http://www.w3.org/2000/svg">
<path fill-rule="evenodd" clip-rule="evenodd" d="M377.01 3.50244L304.215 127.962V213.098H277.234V127.962L204.439 3.50244H234.385L291.619 103.719L348.546 3.50244H377.01ZM567.92 213.098H535.262L450.165 44.5882V213.098H424.093V3.50244H457.351L542.154 172.894V3.50244H567.92V213.098ZM796.856 28.039H724.943V213.098H697.668V28.039H625.461V3.50244H796.856V28.0257V28.039ZM1002.28 213.098H975.037V116.448H884.851V213.112H857.87V3.50244H884.851V91.0033H975.037V3.50244H1002.3V213.098H1002.28ZM1212.56 213.098H1072.05V3.50244H1212.56V27.7452H1098.72V91.591H1184.71V116.435H1098.72V188.856H1212.58V213.098H1212.56ZM1436.26 28.039H1364.35V213.098H1337.09V28.039H1264.88V3.50244H1436.26V28.0257V28.039ZM1609.64 213.098H1488.58V191.22H1535.62V25.0871H1488.58V3.50244H1609.64V25.0871H1562.59V191.22H1609.64V213.098ZM1834.91 213.098H1804.65L1751.31 127.962L1698.58 213.098H1668.91L1736.34 107.259L1668.93 3.50244H1699.5L1752.53 85.3801L1804.97 3.50244H1834.63L1767.51 107.259L1834.93 213.098H1834.91Z" fill="white"/>
<path opacity="0.5" fill-rule="evenodd" clip-rule="evenodd" d="M25.5576 210.538L3.78589 194.977L140.734 4.42773L162.506 19.9885L25.5442 210.538H25.5576Z" fill="white"/>
<path fill-rule="evenodd" clip-rule="evenodd" d="M96.0845 94.9473H103.391C111.386 94.9403 119.304 96.5081 126.693 99.5611C134.082 102.614 140.797 107.093 146.455 112.741C152.114 118.389 156.604 125.097 159.67 132.481C162.736 139.864 164.318 147.78 164.325 155.775C164.318 163.77 162.736 171.685 159.67 179.068C156.604 186.452 152.114 193.16 146.455 198.808C140.797 204.456 134.082 208.935 126.693 211.988C119.304 215.041 111.386 216.609 103.391 216.602H13.7928C12.0023 216.658 10.2187 216.355 8.5479 215.708C6.87711 215.062 5.35319 214.087 4.06664 212.841C2.78009 211.594 1.75715 210.102 1.05856 208.452C0.359981 206.803 0 205.03 0 203.238C0 201.447 0.359981 199.674 1.05856 198.024C1.75715 196.375 2.78009 194.882 4.06664 193.636C5.35319 192.389 6.87711 191.414 8.5479 190.768C10.2187 190.122 12.0023 189.818 13.7928 189.875H103.377C107.86 189.88 112.3 189.002 116.443 187.291C120.587 185.58 124.352 183.069 127.525 179.903C130.698 176.736 133.216 172.975 134.935 168.835C136.654 164.695 137.541 160.257 137.544 155.775C137.542 151.291 136.657 146.851 134.939 142.71C133.22 138.568 130.703 134.806 127.53 131.638C124.357 128.47 120.59 125.958 116.446 124.246C112.302 122.534 107.861 121.656 103.377 121.661H61.3432C53.3472 121.67 45.4277 120.103 38.0371 117.051C30.6465 113.999 23.9295 109.521 18.2698 103.872C12.6102 98.2236 8.11866 91.5155 5.0518 84.1309C1.98495 76.7463 0.402838 68.83 0.395826 60.8339C0.402838 52.8378 1.98495 44.9214 5.0518 37.5368C8.11866 30.1523 12.6102 23.4442 18.2698 17.7957C23.9295 12.1472 30.6465 7.66892 38.0371 4.61665C45.4277 1.56438 53.3472 -0.00209573 61.3432 0.00667883H150.941C152.732 -0.0499339 154.515 0.253832 156.186 0.899937C157.857 1.54604 159.381 2.52131 160.667 3.76782C161.954 5.01434 162.977 6.50667 163.675 8.15622C164.374 9.80576 164.734 11.5789 164.734 13.3702C164.734 15.1616 164.374 16.9347 163.675 18.5842C162.977 20.2338 161.954 21.7261 160.667 22.9726C159.381 24.2192 157.857 25.1944 156.186 25.8405C154.515 26.4866 152.732 26.7904 150.941 26.7338H61.3432C56.8605 26.7285 52.4207 27.6065 48.2773 29.3175C44.134 31.0285 40.3683 33.539 37.1955 36.7057C34.0226 39.8723 31.5047 43.6331 29.7856 47.7731C28.0665 51.913 27.1799 56.3512 27.1764 60.8339C27.1781 65.3177 28.0634 69.7573 29.7818 73.8988C31.5001 78.0403 34.0177 81.8026 37.1908 84.9707C40.3638 88.1388 44.13 90.6505 48.2743 92.3624C52.4185 94.0742 56.8594 94.9526 61.3432 94.9473H96.0845Z" fill="white"/>
</svg>
