<svg width="480" height="480" viewBox="0 0 480 480" fill="none" xmlns="http://www.w3.org/2000/svg">
<circle cx="240" cy="240" r="240" fill="url(#paint0_linear)"/>
<mask id="mask0" mask-type="alpha" maskUnits="userSpaceOnUse" x="0" y="0" width="480" height="480">
<circle cx="240" cy="240" r="240" fill="url(#paint1_linear)"/>
</mask>
<g mask="url(#mask0)">
<path fill-rule="evenodd" clip-rule="evenodd" d="M123.924 146.839L138.76 165H173.312L196.192 137.076L174.636 110.748C156.805 90.694 136.027 81 112.011 81H12V138.71H106.428C113.355 138.71 119.293 141.538 123.848 146.752L123.924 146.839ZM179.963 106.205L205.24 137.078L176.626 172H135.439L118.576 151.357C115.289 147.595 111.243 145.71 106.428 145.71H7.95094C7.07626 145.71 6.36061 145.433 5.82167 144.879C5.27389 144.334 5 143.717 5 143.056V76.6539C5 75.9927 5.27389 75.385 5.82167 74.831C6.36061 74.277 7.07626 74 7.95094 74H112.011C138.27 74 160.923 84.7408 179.963 106.205ZM123.852 332.909L123.701 333.071C119.042 338.081 113.205 340.951 106.428 340.951H12.3269V399H111.685C135.94 399 156.82 389.299 174.636 369.252L219.1 315H138.518L123.852 332.909ZM135.203 308H233.888L179.963 373.795C160.923 395.268 138.164 406 111.685 406H7.95094C7.07626 406 6.41363 405.723 5.9807 405.169C5.53894 404.615 5.3269 403.9 5.3269 403.007V336.605C5.3269 335.943 5.53894 335.336 5.9807 334.782C6.41363 334.228 7.07626 333.951 7.95094 333.951H106.428C111.022 333.951 115.068 332.074 118.576 328.303L135.203 308ZM362.153 328.643C365.439 332.19 369.371 333.96 373.974 333.96H472.451C473.325 333.96 473.979 334.237 474.421 334.791C474.854 335.345 475.075 336.069 475.075 336.944V403.346C475.075 404.007 474.854 404.624 474.421 405.169C473.979 405.723 473.325 406 472.451 406H368.717C342.238 406 319.585 395.268 300.766 373.795L246.848 308H345.245L362.153 328.643ZM341.93 315H261.635L306.106 369.268C323.696 389.299 344.46 399 368.717 399H468.075V340.96H373.974C367.312 340.96 361.552 338.295 357.018 333.4L356.872 333.244L341.93 315ZM361.826 151.357C365.112 147.595 369.159 145.71 373.974 145.71H472.451C473.325 145.71 473.979 145.433 474.421 144.879C474.854 144.334 475.075 143.717 475.075 143.056V76.6539C475.075 75.7693 474.854 75.108 474.421 74.6612C473.979 74.2234 473.325 74 472.451 74H368.717C342.238 74 319.479 84.6246 300.439 105.874L246.427 172H344.868L361.826 151.357ZM341.559 165L356.484 146.832L356.554 146.752C361.109 141.538 367.047 138.71 373.974 138.71H468.075V81H368.717C344.443 81 323.562 90.6107 305.758 110.428L261.183 165H341.559Z" fill="#00D1FF"/>
</g>
<path d="M137.875 275.304C128.787 275.304 120.819 273.832 113.971 270.888C107.187 267.944 101.939 263.752 98.2267 258.312C94.5147 252.872 92.6587 246.536 92.6587 239.304C92.6587 232.2 94.6107 225.864 98.5147 220.296C102.419 214.728 107.859 210.376 114.835 207.24C121.811 204.104 129.747 202.536 138.643 202.536C146.067 202.536 152.819 203.592 158.899 205.704C165.043 207.752 170.131 210.696 174.163 214.536C178.259 218.376 181.075 222.888 182.611 228.072L157.171 232.872C156.147 228.904 154.067 225.896 150.931 223.848C147.795 221.8 143.699 220.776 138.643 220.776C132.435 220.776 127.539 222.408 123.955 225.672C120.371 228.936 118.579 233.352 118.579 238.92C118.579 244.552 120.339 248.968 123.859 252.168C127.443 255.368 132.371 256.968 138.643 256.968C143.699 256.968 147.827 255.944 151.027 253.896C154.227 251.848 156.307 248.872 157.267 244.968L182.419 250.536C179.667 258.344 174.387 264.424 166.579 268.776C158.771 273.128 149.203 275.304 137.875 275.304Z" fill="white"/>
<path d="M228.47 256.488H275.798V273H203.894V204.84H275.126V221.352H228.47V231.048H273.494V246.216H228.47V256.488Z" fill="white"/>
<path d="M294.676 204.84H323.572L337.396 221.736C339.124 223.592 340.34 225.16 341.044 226.44H341.428C342.26 225.16 343.476 223.592 345.076 221.736L358.996 204.84H387.892L357.172 238.344L388.66 273H359.476L346.132 256.776C343.572 253.896 341.972 251.88 341.332 250.728H341.14C340.5 251.752 338.868 253.8 336.244 256.872L322.996 273H293.812L325.3 238.344L294.676 204.84Z" fill="white"/>
<defs>
<linearGradient id="paint0_linear" x1="240" y1="0" x2="240" y2="701.818" gradientUnits="userSpaceOnUse">
<stop stop-color="#08021E"/>
<stop offset="1" stop-color="#1F0777"/>
</linearGradient>
<linearGradient id="paint1_linear" x1="240" y1="0" x2="240" y2="701.818" gradientUnits="userSpaceOnUse">
<stop stop-color="#08021E"/>
<stop offset="1" stop-color="#1F0777"/>
</linearGradient>
</defs>
</svg>
