<svg width="480" height="480" viewBox="0 0 480 480" fill="none" xmlns="http://www.w3.org/2000/svg">
<circle cx="240" cy="240" r="240" fill="url(#paint0_linear)"/>
<mask id="mask0" mask-type="alpha" maskUnits="userSpaceOnUse" x="0" y="0" width="480" height="480">
<circle cx="240" cy="240" r="240" fill="url(#paint1_linear)"/>
</mask>
<g mask="url(#mask0)">
<path fill-rule="evenodd" clip-rule="evenodd" d="M123.924 146.839L138.76 165H173.312L196.192 137.076L174.636 110.748C156.805 90.694 136.027 81 112.011 81H12V138.71H106.428C113.355 138.71 119.293 141.538 123.848 146.752L123.924 146.839ZM179.963 106.205L205.24 137.078L176.626 172H135.439L118.576 151.357C115.289 147.595 111.243 145.71 106.428 145.71H7.95094C7.07626 145.71 6.36061 145.433 5.82167 144.879C5.27389 144.334 5 143.717 5 143.056V76.6539C5 75.9927 5.27389 75.385 5.82167 74.831C6.36061 74.277 7.07626 74 7.95094 74H112.011C138.27 74 160.923 84.7408 179.963 106.205ZM123.852 332.909L123.701 333.071C119.042 338.081 113.205 340.951 106.428 340.951H12.3269V399H111.685C135.94 399 156.82 389.299 174.636 369.252L219.1 315H138.518L123.852 332.909ZM135.203 308H233.888L179.963 373.795C160.923 395.268 138.164 406 111.685 406H7.95094C7.07626 406 6.41363 405.723 5.9807 405.169C5.53894 404.615 5.3269 403.9 5.3269 403.007V336.605C5.3269 335.943 5.53894 335.336 5.9807 334.782C6.41363 334.228 7.07626 333.951 7.95094 333.951H106.428C111.022 333.951 115.068 332.074 118.576 328.303L135.203 308ZM362.153 328.643C365.439 332.19 369.371 333.96 373.974 333.96H472.451C473.325 333.96 473.979 334.237 474.421 334.791C474.854 335.345 475.075 336.069 475.075 336.944V403.346C475.075 404.007 474.854 404.624 474.421 405.169C473.979 405.723 473.325 406 472.451 406H368.717C342.238 406 319.585 395.268 300.766 373.795L246.848 308H345.245L362.153 328.643ZM341.93 315H261.635L306.106 369.268C323.696 389.299 344.46 399 368.717 399H468.075V340.96H373.974C367.312 340.96 361.552 338.295 357.018 333.4L356.872 333.244L341.93 315ZM361.826 151.357C365.112 147.595 369.159 145.71 373.974 145.71H472.451C473.325 145.71 473.979 145.433 474.421 144.879C474.854 144.334 475.075 143.717 475.075 143.056V76.6539C475.075 75.7693 474.854 75.108 474.421 74.6612C473.979 74.2234 473.325 74 472.451 74H368.717C342.238 74 319.479 84.6246 300.439 105.874L246.427 172H344.868L361.826 151.357ZM341.559 165L356.484 146.832L356.554 146.752C361.109 141.538 367.047 138.71 373.974 138.71H468.075V81H368.717C344.443 81 323.562 90.6107 305.758 110.428L261.183 165H341.559Z" fill="#00D1FF"/>
</g>
<path d="M160.023 236.808C165.207 237.576 169.143 239.368 171.831 242.184C174.519 244.936 175.863 248.616 175.863 253.224C175.863 256.68 174.967 259.912 173.175 262.92C171.447 265.864 168.599 268.296 164.631 270.216C160.663 272.072 155.575 273 149.367 273H93.8789V204.84H148.983C157.303 204.84 163.575 206.344 167.799 209.352C172.087 212.36 174.231 216.52 174.231 221.832C174.231 225.48 173.047 228.648 170.679 231.336C168.311 234.024 164.759 235.848 160.023 236.808ZM118.455 220.008V231.432H141.495C144.055 231.432 145.879 230.856 146.967 229.704C148.055 228.552 148.599 227.112 148.599 225.384C148.599 221.8 146.231 220.008 141.495 220.008H118.455ZM142.455 257.832C145.015 257.832 146.935 257.192 148.215 255.912C149.559 254.632 150.231 253.064 150.231 251.208C150.231 249.352 149.559 247.88 148.215 246.792C146.871 245.64 144.951 245.064 142.455 245.064H118.455V257.832H142.455Z" fill="white"/>
<path d="M238.141 275.304C229.053 275.304 221.085 273.832 214.237 270.888C207.453 267.944 202.205 263.752 198.493 258.312C194.781 252.872 192.925 246.536 192.925 239.304C192.925 232.2 194.877 225.864 198.781 220.296C202.685 214.728 208.125 210.376 215.101 207.24C222.077 204.104 230.013 202.536 238.909 202.536C246.333 202.536 253.085 203.592 259.165 205.704C265.309 207.752 270.397 210.696 274.429 214.536C278.525 218.376 281.341 222.888 282.877 228.072L257.437 232.872C256.413 228.904 254.333 225.896 251.197 223.848C248.061 221.8 243.965 220.776 238.909 220.776C232.701 220.776 227.805 222.408 224.221 225.672C220.637 228.936 218.845 233.352 218.845 238.92C218.845 244.552 220.605 248.968 224.125 252.168C227.709 255.368 232.637 256.968 238.909 256.968C243.965 256.968 248.093 255.944 251.293 253.896C254.493 251.848 256.573 248.872 257.533 244.968L282.685 250.536C279.933 258.344 274.653 264.424 266.845 268.776C259.037 273.128 249.469 275.304 238.141 275.304Z" fill="white"/>
<path d="M386.048 273H361.568V246.792H328.736V273H304.16V204.84H328.736V230.472H361.568V204.84H386.048V273Z" fill="white"/>
<defs>
<linearGradient id="paint0_linear" x1="240" y1="0" x2="240" y2="701.818" gradientUnits="userSpaceOnUse">
<stop stop-color="#08021E"/>
<stop offset="1" stop-color="#1F0777"/>
</linearGradient>
<linearGradient id="paint1_linear" x1="240" y1="0" x2="240" y2="701.818" gradientUnits="userSpaceOnUse">
<stop stop-color="#08021E"/>
<stop offset="1" stop-color="#1F0777"/>
</linearGradient>
</defs>
</svg>
