<svg width="480" height="480" viewBox="0 0 480 480" fill="none" xmlns="http://www.w3.org/2000/svg">
<circle cx="240" cy="240" r="240" fill="url(#paint0_linear)"/>
<mask id="mask0" mask-type="alpha" maskUnits="userSpaceOnUse" x="0" y="0" width="480" height="480">
<circle cx="240" cy="240" r="240" fill="url(#paint1_linear)"/>
</mask>
<g mask="url(#mask0)">
<path fill-rule="evenodd" clip-rule="evenodd" d="M123.924 146.839L138.76 165H173.312L196.192 137.076L174.636 110.748C156.805 90.694 136.027 81 112.011 81H12V138.71H106.428C113.355 138.71 119.293 141.538 123.848 146.752L123.924 146.839ZM179.963 106.205L205.24 137.078L176.626 172H135.439L118.576 151.357C115.289 147.595 111.243 145.71 106.428 145.71H7.95094C7.07626 145.71 6.36061 145.433 5.82167 144.879C5.27389 144.334 5 143.717 5 143.056V76.6539C5 75.9927 5.27389 75.385 5.82167 74.831C6.36061 74.277 7.07626 74 7.95094 74H112.011C138.27 74 160.923 84.7408 179.963 106.205ZM123.852 332.909L123.701 333.071C119.042 338.081 113.205 340.951 106.428 340.951H12.3269V399H111.685C135.94 399 156.82 389.299 174.636 369.252L219.1 315H138.518L123.852 332.909ZM135.203 308H233.888L179.963 373.795C160.923 395.268 138.164 406 111.685 406H7.95094C7.07626 406 6.41363 405.723 5.9807 405.169C5.53894 404.615 5.3269 403.9 5.3269 403.007V336.605C5.3269 335.943 5.53894 335.336 5.9807 334.782C6.41363 334.228 7.07626 333.951 7.95094 333.951H106.428C111.022 333.951 115.068 332.074 118.576 328.303L135.203 308ZM362.153 328.643C365.439 332.19 369.371 333.96 373.974 333.96H472.451C473.325 333.96 473.979 334.237 474.421 334.791C474.854 335.345 475.075 336.069 475.075 336.944V403.346C475.075 404.007 474.854 404.624 474.421 405.169C473.979 405.723 473.325 406 472.451 406H368.717C342.238 406 319.585 395.268 300.766 373.795L246.848 308H345.245L362.153 328.643ZM341.93 315H261.635L306.106 369.268C323.696 389.299 344.46 399 368.717 399H468.075V340.96H373.974C367.312 340.96 361.552 338.295 357.018 333.4L356.872 333.244L341.93 315ZM361.826 151.357C365.112 147.595 369.159 145.71 373.974 145.71H472.451C473.325 145.71 473.979 145.433 474.421 144.879C474.854 144.334 475.075 143.717 475.075 143.056V76.6539C475.075 75.7693 474.854 75.108 474.421 74.6612C473.979 74.2234 473.325 74 472.451 74H368.717C342.238 74 319.479 84.6246 300.439 105.874L246.427 172H344.868L361.826 151.357ZM341.559 165L356.484 146.832L356.554 146.752C361.109 141.538 367.047 138.71 373.974 138.71H468.075V81H368.717C344.443 81 323.562 90.6107 305.758 110.428L261.183 165H341.559Z" fill="#00D1FF"/>
</g>
<path d="M158.455 273L153.175 260.04H121.207L115.927 273H89.5269L121.207 204.84H153.079L184.759 273H158.455ZM147.223 245.256L142.423 233.448C139.991 227.432 138.295 222.536 137.335 218.76H137.047C136.471 220.744 135.671 223.208 134.647 226.152C133.623 229.096 132.727 231.528 131.959 233.448L127.159 245.256H147.223Z" fill="white"/>
<path d="M221.923 239.976C221.923 245.16 223.299 249.192 226.051 252.072C228.867 254.952 232.995 256.392 238.435 256.392C243.555 256.392 247.555 254.92 250.435 251.976C253.379 249.032 254.851 245.032 254.851 239.976V204.84H279.427V242.952C279.427 249.544 277.827 255.272 274.627 260.136C271.491 265 266.851 268.744 260.707 271.368C254.563 273.992 247.139 275.304 238.435 275.304C229.731 275.304 222.307 273.992 216.163 271.368C210.019 268.68 205.347 264.872 202.147 259.944C198.947 255.016 197.347 249.256 197.347 242.664V204.84H221.923V239.976Z" fill="white"/>
<path d="M349.514 204.84C358.026 204.84 365.322 206.12 371.402 208.68C377.546 211.24 382.25 214.984 385.514 219.912C388.778 224.84 390.41 230.792 390.41 237.768C390.41 244.68 388.682 250.792 385.226 256.104C381.77 261.416 376.906 265.576 370.634 268.584C364.362 271.528 357.13 273 348.938 273H303.722V204.84H349.514ZM344.906 257.064C350.986 257.064 355.754 255.368 359.21 251.976C362.73 248.584 364.49 244.008 364.49 238.248C364.49 232.744 362.762 228.456 359.306 225.384C355.85 222.248 351.242 220.68 345.482 220.68H328.298V257.064H344.906Z" fill="white"/>
<defs>
<linearGradient id="paint0_linear" x1="240" y1="0" x2="240" y2="701.818" gradientUnits="userSpaceOnUse">
<stop stop-color="#08021E"/>
<stop offset="1" stop-color="#1F0777"/>
</linearGradient>
<linearGradient id="paint1_linear" x1="240" y1="0" x2="240" y2="701.818" gradientUnits="userSpaceOnUse">
<stop stop-color="#08021E"/>
<stop offset="1" stop-color="#1F0777"/>
</linearGradient>
</defs>
</svg>
