<svg width="300" height="300" fill="none" xmlns="http://www.w3.org/2000/svg"><circle cx="150" cy="150" r="150" fill="#7986CB"/><path d="M201 143.318l-8.485 4.816-43.143 16.283L99 143.318 149.372 57 201 143.318z" fill="#FEFEFE"/><path d="M201 143.318l-51.628 29.289L99 143.318l50.372-23.518L201 143.318z" fill="#C0CBF8"/><path d="M201 163.914l-51.628 78.695L99 163.914l50.372 29.284L201 163.914z" fill="#FEFEFE"/><path d="M201 163.914l-51.628 78.695v-49.411L201 163.914zm0-20.596l-8.485 4.816-43.143-24.67V57L201 143.318z" fill="#C0CBF8"/><path d="M201 143.318l-51.628 29.289V119.8L201 143.318z" fill="#9EABE2"/></svg>