<svg width="480" height="480" viewBox="0 0 480 480" fill="none" xmlns="http://www.w3.org/2000/svg">
<circle cx="240" cy="240" r="240" fill="url(#paint0_linear)"/>
<mask id="mask0" mask-type="alpha" maskUnits="userSpaceOnUse" x="0" y="0" width="480" height="480">
<circle cx="240" cy="240" r="240" fill="url(#paint1_linear)"/>
</mask>
<g mask="url(#mask0)">
<path fill-rule="evenodd" clip-rule="evenodd" d="M123.924 146.839L138.76 165H173.312L196.192 137.076L174.636 110.748C156.805 90.694 136.027 81 112.011 81H12V138.71H106.428C113.355 138.71 119.293 141.538 123.848 146.752L123.924 146.839ZM179.963 106.205L205.24 137.078L176.626 172H135.439L118.576 151.357C115.289 147.595 111.243 145.71 106.428 145.71H7.95094C7.07626 145.71 6.36061 145.433 5.82167 144.879C5.27389 144.334 5 143.717 5 143.056V76.6539C5 75.9927 5.27389 75.385 5.82167 74.831C6.36061 74.277 7.07626 74 7.95094 74H112.011C138.27 74 160.923 84.7408 179.963 106.205ZM123.852 332.909L123.701 333.071C119.042 338.081 113.205 340.951 106.428 340.951H12.3269V399H111.685C135.94 399 156.82 389.299 174.636 369.252L219.1 315H138.518L123.852 332.909ZM135.203 308H233.888L179.963 373.795C160.923 395.268 138.164 406 111.685 406H7.95094C7.07626 406 6.41363 405.723 5.9807 405.169C5.53894 404.615 5.3269 403.9 5.3269 403.007V336.605C5.3269 335.943 5.53894 335.336 5.9807 334.782C6.41363 334.228 7.07626 333.951 7.95094 333.951H106.428C111.022 333.951 115.068 332.074 118.576 328.303L135.203 308ZM362.153 328.643C365.439 332.19 369.371 333.96 373.974 333.96H472.451C473.325 333.96 473.979 334.237 474.421 334.791C474.854 335.345 475.075 336.069 475.075 336.944V403.346C475.075 404.007 474.854 404.624 474.421 405.169C473.979 405.723 473.325 406 472.451 406H368.717C342.238 406 319.585 395.268 300.766 373.795L246.848 308H345.245L362.153 328.643ZM341.93 315H261.635L306.106 369.268C323.696 389.299 344.46 399 368.717 399H468.075V340.96H373.974C367.312 340.96 361.552 338.295 357.018 333.4L356.872 333.244L341.93 315ZM361.826 151.357C365.112 147.595 369.159 145.71 373.974 145.71H472.451C473.325 145.71 473.979 145.433 474.421 144.879C474.854 144.334 475.075 143.717 475.075 143.056V76.6539C475.075 75.7693 474.854 75.108 474.421 74.6612C473.979 74.2234 473.325 74 472.451 74H368.717C342.238 74 319.479 84.6246 300.439 105.874L246.427 172H344.868L361.826 151.357ZM341.559 165L356.484 146.832L356.554 146.752C361.109 141.538 367.047 138.71 373.974 138.71H468.075V81H368.717C344.443 81 323.562 90.6107 305.758 110.428L261.183 165H341.559Z" fill="#ED1EFF"/>
</g>
<path d="M171.022 236.808C176.206 237.576 180.142 239.368 182.83 242.184C185.518 244.936 186.862 248.616 186.862 253.224C186.862 256.68 185.966 259.912 184.174 262.92C182.446 265.864 179.598 268.296 175.63 270.216C171.662 272.072 166.574 273 160.366 273H104.878V204.84H159.982C168.302 204.84 174.574 206.344 178.798 209.352C183.086 212.36 185.23 216.52 185.23 221.832C185.23 225.48 184.046 228.648 181.678 231.336C179.31 234.024 175.758 235.848 171.022 236.808ZM129.454 220.008V231.432H152.494C155.054 231.432 156.878 230.856 157.966 229.704C159.054 228.552 159.598 227.112 159.598 225.384C159.598 221.8 157.23 220.008 152.494 220.008H129.454ZM153.454 257.832C156.014 257.832 157.934 257.192 159.214 255.912C160.558 254.632 161.23 253.064 161.23 251.208C161.23 249.352 160.558 247.88 159.214 246.792C157.87 245.64 155.95 245.064 153.454 245.064H129.454V257.832H153.454Z" fill="white"/>
<path d="M278.655 204.84V223.56H252.351V273H227.871V223.56H201.663V204.84H278.655Z" fill="white"/>
<path d="M337.078 275.304C327.99 275.304 320.022 273.832 313.174 270.888C306.39 267.944 301.142 263.752 297.43 258.312C293.718 252.872 291.862 246.536 291.862 239.304C291.862 232.2 293.814 225.864 297.718 220.296C301.622 214.728 307.062 210.376 314.038 207.24C321.014 204.104 328.95 202.536 337.846 202.536C345.27 202.536 352.022 203.592 358.102 205.704C364.246 207.752 369.334 210.696 373.366 214.536C377.462 218.376 380.278 222.888 381.814 228.072L356.374 232.872C355.35 228.904 353.27 225.896 350.134 223.848C346.998 221.8 342.902 220.776 337.846 220.776C331.638 220.776 326.742 222.408 323.158 225.672C319.574 228.936 317.782 233.352 317.782 238.92C317.782 244.552 319.542 248.968 323.062 252.168C326.646 255.368 331.574 256.968 337.846 256.968C342.902 256.968 347.03 255.944 350.23 253.896C353.43 251.848 355.51 248.872 356.47 244.968L381.622 250.536C378.87 258.344 373.59 264.424 365.782 268.776C357.974 273.128 348.406 275.304 337.078 275.304Z" fill="white"/>
<defs>
<linearGradient id="paint0_linear" x1="240" y1="0" x2="240" y2="701.818" gradientUnits="userSpaceOnUse">
<stop stop-color="#08021E"/>
<stop offset="1" stop-color="#1F0777"/>
</linearGradient>
<linearGradient id="paint1_linear" x1="240" y1="0" x2="240" y2="701.818" gradientUnits="userSpaceOnUse">
<stop stop-color="#08021E"/>
<stop offset="1" stop-color="#1F0777"/>
</linearGradient>
</defs>
</svg>
