<svg width="480" height="480" viewBox="0 0 480 480" fill="none" xmlns="http://www.w3.org/2000/svg">
<circle cx="240" cy="240" r="240" fill="url(#paint0_linear)"/>
<mask id="mask0" mask-type="alpha" maskUnits="userSpaceOnUse" x="0" y="0" width="480" height="480">
<circle cx="240" cy="240" r="240" fill="url(#paint1_linear)"/>
</mask>
<g mask="url(#mask0)">
<path fill-rule="evenodd" clip-rule="evenodd" d="M123.924 146.839L138.76 165H173.312L196.192 137.076L174.636 110.748C156.805 90.694 136.027 81 112.011 81H12V138.71H106.428C113.355 138.71 119.293 141.538 123.848 146.752L123.924 146.839ZM179.963 106.205L205.24 137.078L176.626 172H135.439L118.576 151.357C115.289 147.595 111.243 145.71 106.428 145.71H7.95094C7.07626 145.71 6.36061 145.433 5.82167 144.879C5.27389 144.334 5 143.717 5 143.056V76.6539C5 75.9927 5.27389 75.385 5.82167 74.831C6.36061 74.277 7.07626 74 7.95094 74H112.011C138.27 74 160.923 84.7408 179.963 106.205ZM123.852 332.909L123.701 333.071C119.042 338.081 113.205 340.951 106.428 340.951H12.3269V399H111.685C135.94 399 156.82 389.299 174.636 369.252L219.1 315H138.518L123.852 332.909ZM135.203 308H233.888L179.963 373.795C160.923 395.268 138.164 406 111.685 406H7.95094C7.07626 406 6.41363 405.723 5.9807 405.169C5.53894 404.615 5.3269 403.9 5.3269 403.007V336.605C5.3269 335.943 5.53894 335.336 5.9807 334.782C6.41363 334.228 7.07626 333.951 7.95094 333.951H106.428C111.022 333.951 115.068 332.074 118.576 328.303L135.203 308ZM362.153 328.643C365.439 332.19 369.371 333.96 373.974 333.96H472.451C473.325 333.96 473.979 334.237 474.421 334.791C474.854 335.345 475.075 336.069 475.075 336.944V403.346C475.075 404.007 474.854 404.624 474.421 405.169C473.979 405.723 473.325 406 472.451 406H368.717C342.238 406 319.585 395.268 300.766 373.795L246.848 308H345.245L362.153 328.643ZM341.93 315H261.635L306.106 369.268C323.696 389.299 344.46 399 368.717 399H468.075V340.96H373.974C367.312 340.96 361.552 338.295 357.018 333.4L356.872 333.244L341.93 315ZM361.826 151.357C365.112 147.595 369.159 145.71 373.974 145.71H472.451C473.325 145.71 473.979 145.433 474.421 144.879C474.854 144.334 475.075 143.717 475.075 143.056V76.6539C475.075 75.7693 474.854 75.108 474.421 74.6612C473.979 74.2234 473.325 74 472.451 74H368.717C342.238 74 319.479 84.6246 300.439 105.874L246.427 172H344.868L361.826 151.357ZM341.559 165L356.484 146.832L356.554 146.752C361.109 141.538 367.047 138.71 373.974 138.71H468.075V81H368.717C344.443 81 323.562 90.6107 305.758 110.428L261.183 165H341.559Z" fill="#ED1EFF"/>
</g>
<path d="M93.2546 204.84H122.151L135.975 221.736C137.703 223.592 138.919 225.16 139.623 226.44H140.007C140.839 225.16 142.055 223.592 143.655 221.736L157.575 204.84H186.471L155.751 238.344L187.239 273H158.055L144.711 256.776C142.151 253.896 140.551 251.88 139.911 250.728H139.719C139.079 251.752 137.447 253.8 134.823 256.872L121.575 273H92.3906L123.879 238.344L93.2546 204.84Z" fill="white"/>
<path d="M254.655 204.84C264.191 204.84 271.615 206.888 276.927 210.984C282.239 215.08 284.895 220.808 284.895 228.168C284.895 233.224 283.679 237.64 281.247 241.416C278.815 245.128 275.359 248.008 270.879 250.056C266.399 252.104 261.151 253.128 255.135 253.128H231.423V273H206.847V204.84H254.655ZM248.319 237.48C251.711 237.48 254.335 236.744 256.191 235.272C258.047 233.8 258.975 231.688 258.975 228.936C258.975 226.184 258.079 224.104 256.287 222.696C254.495 221.224 251.871 220.488 248.415 220.488H231.423V237.48H248.319Z" fill="white"/>
<path d="M344.259 250.728H329.955V273H305.379V204.84H353.091C363.907 204.84 371.651 206.984 376.323 211.272C381.059 215.496 383.427 220.808 383.427 227.208C383.427 231.496 382.275 235.528 379.971 239.304C377.731 243.016 374.147 245.864 369.219 247.848L385.731 273H358.659L344.259 250.728ZM329.955 236.04H347.235C350.883 236.04 353.507 235.336 355.107 233.928C356.707 232.456 357.507 230.504 357.507 228.072C357.507 225.768 356.707 223.944 355.107 222.6C353.507 221.192 350.915 220.488 347.331 220.488H329.955V236.04Z" fill="white"/>
<defs>
<linearGradient id="paint0_linear" x1="240" y1="0" x2="240" y2="701.818" gradientUnits="userSpaceOnUse">
<stop stop-color="#08021E"/>
<stop offset="1" stop-color="#1F0777"/>
</linearGradient>
<linearGradient id="paint1_linear" x1="240" y1="0" x2="240" y2="701.818" gradientUnits="userSpaceOnUse">
<stop stop-color="#08021E"/>
<stop offset="1" stop-color="#1F0777"/>
</linearGradient>
</defs>
</svg>
